# MagicaVoxel @ Ephtracy

# group
o 

# material
mtllib antena1.mtl
usemtl palette

# normals
vn -1 0 0
vn 1 0 0
vn 0 0 1
vn 0 0 -1
vn 0 -1 0
vn 0 1 0

# texcoords
vt 0.646484 0.5
vt 0.650391 0.5
vt 0.916016 0.5
vt 0.919922 0.5
vt 0.923828 0.5
vt 0.927734 0.5

# verts
v -8.5 5.4 7.2
v -8.5 5.4 6.8
v -8.5 5.6 7.2
v -8.5 5.6 6.8
v -8.4 5.4 7.3
v -8.4 5.4 7.2
v -8.4 5.4 6.8
v -8.4 5.4 6.7
v -8.4 5.6 7.3
v -8.4 5.6 7.2
v -8.4 5.6 7
v -8.4 5.6 6.8
v -8.4 5.6 6.7
v -8.4 5.7 7.2
v -8.4 5.7 7.1
v -8.4 5.8 7
v -8.4 5.8 6.9
v -8.4 5.9 7.1
v -8.4 5.9 7
v -8.4 6.7 7
v -8.4 6.7 6.9
v -8.4 6.8 7.2
v -8.4 6.8 7.1
v -8.4 7.1 7.2
v -8.4 7.1 7.1
v -8.4 7.1 6.8
v -8.4 10.2 7.2
v -8.4 10.2 7.1
v -8.4 10.2 6.8
v -8.4 10.3 7.1
v -8.4 10.3 7
v -8.4 10.4 7.2
v -8.4 10.4 7.1
v -8.4 10.5 7.2
v -8.4 10.5 7.1
v -8.4 10.6 7.2
v -8.4 10.6 7
v -8.4 10.6 6.8
v -8.3 5.4 7.4
v -8.3 5.4 7.3
v -8.3 5.4 6.7
v -8.3 5.4 6.6
v -8.3 5.6 7.4
v -8.3 5.6 7.3
v -8.3 5.6 7.2
v -8.3 5.6 6.8
v -8.3 5.6 6.7
v -8.3 5.6 6.6
v -8.3 5.7 7.2
v -8.3 5.9 6.8
v -8.3 5.9 6.7
v -8.3 6.5 7.3
v -8.3 6.5 7.2
v -8.3 6.7 6.8
v -8.3 6.7 6.7
v -8.3 6.8 7.2
v -8.3 6.9 7.3
v -8.3 6.9 7.2
v -8.3 7.1 7.3
v -8.3 7.1 7.2
v -8.3 7.1 7.1
v -8.3 7.1 6.9
v -8.3 7.1 6.8
v -8.3 7.1 6.7
v -8.3 7.2 7.1
v -8.3 7.2 7
v -8.3 7.5 7
v -8.3 7.5 6.9
v -8.3 7.8 7.1
v -8.3 7.8 7
v -8.3 7.9 7.1
v -8.3 7.9 7
v -8.3 8 7
v -8.3 8 6.9
v -8.3 8.2 7.1
v -8.3 8.2 7
v -8.3 8.6 7.1
v -8.3 8.6 7
v -8.3 8.7 7.1
v -8.3 8.7 7
v -8.3 8.7 6.9
v -8.3 10.1 7.2
v -8.3 10.1 7.1
v -8.3 10.1 6.8
v -8.3 10.2 7.3
v -8.3 10.2 7.2
v -8.3 10.2 7.1
v -8.3 10.2 6.8
v -8.3 10.2 6.7
v -8.3 10.3 6.8
v -8.3 10.3 6.7
v -8.3 10.4 7.2
v -8.3 10.5 7.2
v -8.3 10.6 7.3
v -8.3 10.6 7.2
v -8.3 10.6 7.1
v -8.3 10.6 7
v -8.3 10.6 6.8
v -8.3 10.6 6.7
v -8.3 10.7 7.2
v -8.3 10.7 7.1
v -8.3 10.7 6.8
v -8.2 7.1 7.2
v -8.2 7.1 7.1
v -8.2 7.1 6.9
v -8.2 7.1 6.8
v -8.2 7.2 7.1
v -8.2 7.5 6.9
v -8.2 7.6 6.9
v -8.2 7.6 6.8
v -8.2 7.8 7.1
v -8.2 7.9 7.2
v -8.2 7.9 7.1
v -8.2 8 6.9
v -8.2 8.1 7.2
v -8.2 8.1 7.1
v -8.2 8.2 7.1
v -8.2 8.3 7.2
v -8.2 8.3 7.1
v -8.2 8.6 7.1
v -8.2 8.7 7.2
v -8.2 8.7 7.1
v -8.2 8.7 7
v -8.2 8.7 6.9
v -8.2 8.7 6.8
v -8.2 9.2 7.1
v -8.2 9.2 7
v -8.2 9.2 6.9
v -8.2 9.8 7
v -8.2 9.8 6.9
v -8.2 10.1 7.1
v -8.2 10.1 6.9
v -8 7.1 7.2
v -8 7.1 7.1
v -8 7.1 6.9
v -8 7.1 6.8
v -8 7.2 7.1
v -8 7.3 6.9
v -8 7.6 7.2
v -8 7.6 7.1
v -8 7.7 7.1
v -8 7.7 6.9
v -8 7.7 6.8
v -8 8 7.2
v -8 8 7.1
v -8 8.3 6.9
v -8 8.3 6.8
v -8 8.4 6.9
v -8 8.7 7.2
v -8 8.7 7.1
v -8 8.7 7
v -8 8.7 6.9
v -8 8.7 6.8
v -8 9.2 7.1
v -8 9.2 7
v -8 9.3 7.1
v -8 9.3 6.9
v -8 9.4 7.1
v -8 9.4 7
v -8 10 7.1
v -8 10 7
v -8 10.1 7.1
v -8 10.1 7
v -8 10.1 6.9
v -7.9 5.4 7.4
v -7.9 5.4 7.3
v -7.9 5.4 6.7
v -7.9 5.4 6.6
v -7.9 5.6 7.4
v -7.9 5.6 7.3
v -7.9 5.6 7.2
v -7.9 5.6 6.8
v -7.9 5.6 6.7
v -7.9 5.6 6.6
v -7.9 5.8 7.2
v -7.9 5.9 6.8
v -7.9 5.9 6.7
v -7.9 6 6.8
v -7.9 6.1 6.8
v -7.9 6.4 6.8
v -7.9 6.4 6.7
v -7.9 6.5 7.2
v -7.9 6.6 6.8
v -7.9 7.1 7.3
v -7.9 7.1 7.2
v -7.9 7.1 7.1
v -7.9 7.1 7
v -7.9 7.1 6.9
v -7.9 7.1 6.8
v -7.9 7.1 6.7
v -7.9 7.2 7.1
v -7.9 7.2 7
v -7.9 7.3 7
v -7.9 7.3 6.9
v -7.9 7.7 7.1
v -7.9 7.7 7
v -7.9 8.4 7
v -7.9 8.4 6.9
v -7.9 8.7 7.1
v -7.9 8.7 7
v -7.9 8.7 6.9
v -7.9 10.1 7.2
v -7.9 10.1 7
v -7.9 10.1 6.8
v -7.9 10.2 7.3
v -7.9 10.2 7.2
v -7.9 10.2 7.1
v -7.9 10.2 7
v -7.9 10.2 6.8
v -7.9 10.2 6.7
v -7.9 10.3 7.3
v -7.9 10.3 7.2
v -7.9 10.4 6.8
v -7.9 10.4 6.7
v -7.9 10.5 7.3
v -7.9 10.5 7.2
v -7.9 10.5 6.8
v -7.9 10.6 7.3
v -7.9 10.6 7.2
v -7.9 10.6 7.1
v -7.9 10.6 6.8
v -7.9 10.6 6.7
v -7.9 10.7 7.2
v -7.9 10.7 6.8
v -7.8 5.4 7.3
v -7.8 5.4 7.2
v -7.8 5.4 6.8
v -7.8 5.4 6.7
v -7.8 5.6 7.3
v -7.8 5.6 7.2
v -7.8 5.6 6.9
v -7.8 5.6 6.8
v -7.8 5.6 6.7
v -7.8 5.8 7.2
v -7.8 5.8 7.1
v -7.8 6 6.9
v -7.8 6 6.8
v -7.8 6.1 6.9
v -7.8 6.1 6.8
v -7.8 6.5 7.2
v -7.8 6.5 7.1
v -7.8 6.5 7
v -7.8 6.5 6.9
v -7.8 6.6 6.9
v -7.8 6.6 6.8
v -7.8 6.7 7.1
v -7.8 6.7 7
v -7.8 6.7 6.9
v -7.8 7 7
v -7.8 7 6.9
v -7.8 7.1 7.2
v -7.8 7.1 7.1
v -7.8 7.1 6.9
v -7.8 7.1 6.8
v -7.8 10.2 7.2
v -7.8 10.2 7.1
v -7.8 10.2 7
v -7.8 10.2 6.8
v -7.8 10.3 7.1
v -7.8 10.3 7
v -7.8 10.4 7.1
v -7.8 10.4 7
v -7.8 10.5 7
v -7.8 10.5 6.8
v -7.8 10.6 7.2
v -7.8 10.6 7.1
v -7.8 10.6 6.8
v -7.7 5.4 7.2
v -7.7 5.4 6.8
v -7.7 5.6 7.2
v -7.7 5.6 6.8
v -8.3 5.4 7.4
v -8.3 5.6 7.4
v -7.9 5.4 7.4
v -7.9 5.6 7.4
v -8.4 5.4 7.3
v -8.4 5.6 7.3
v -8.3 5.4 7.3
v -8.3 5.6 7.3
v -8.3 6.5 7.3
v -8.3 6.9 7.3
v -8.3 7.1 7.3
v -8.3 10.2 7.3
v -8.3 10.6 7.3
v -8.2 6.3 7.3
v -8.2 6.5 7.3
v -8.2 6.9 7.3
v -8.2 10.2 7.3
v -8.2 10.3 7.3
v -8.1 5.6 7.3
v -8.1 6.3 7.3
v -8.1 6.4 7.3
v -8.1 6.9 7.3
v -8.1 10.2 7.3
v -8.1 10.3 7.3
v -8 5.6 7.3
v -8 6.4 7.3
v -8 10.2 7.3
v -8 10.3 7.3
v -8 10.5 7.3
v -8 10.6 7.3
v -7.9 5.4 7.3
v -7.9 5.6 7.3
v -7.9 7.1 7.3
v -7.9 10.2 7.3
v -7.9 10.3 7.3
v -7.9 10.5 7.3
v -7.9 10.6 7.3
v -7.8 5.4 7.3
v -7.8 5.6 7.3
v -8.5 5.4 7.2
v -8.5 5.6 7.2
v -8.4 5.4 7.2
v -8.4 5.6 7.2
v -8.4 5.7 7.2
v -8.4 6.8 7.2
v -8.4 7.1 7.2
v -8.4 10.2 7.2
v -8.4 10.4 7.2
v -8.4 10.5 7.2
v -8.4 10.6 7.2
v -8.3 5.6 7.2
v -8.3 5.7 7.2
v -8.3 6.5 7.2
v -8.3 6.8 7.2
v -8.3 6.9 7.2
v -8.3 7.1 7.2
v -8.3 10.1 7.2
v -8.3 10.2 7.2
v -8.3 10.4 7.2
v -8.3 10.5 7.2
v -8.3 10.6 7.2
v -8.3 10.7 7.2
v -8.2 7.1 7.2
v -8.2 7.9 7.2
v -8.2 8.1 7.2
v -8.2 8.3 7.2
v -8.2 8.7 7.2
v -8.2 10.2 7.2
v -8.2 10.6 7.2
v -8.2 10.7 7.2
v -8.1 7.6 7.2
v -8.1 7.9 7.2
v -8.1 8 7.2
v -8.1 8.1 7.2
v -8.1 8.3 7.2
v -8.1 8.7 7.2
v -8.1 10.2 7.2
v -8 7.1 7.2
v -8 7.6 7.2
v -8 8 7.2
v -8 8.7 7.2
v -8 10.1 7.2
v -8 10.2 7.2
v -8 10.6 7.2
v -7.9 5.6 7.2
v -7.9 5.8 7.2
v -7.9 6.5 7.2
v -7.9 7.1 7.2
v -7.9 10.1 7.2
v -7.9 10.2 7.2
v -7.9 10.3 7.2
v -7.9 10.5 7.2
v -7.9 10.6 7.2
v -7.9 10.7 7.2
v -7.8 5.4 7.2
v -7.8 5.6 7.2
v -7.8 5.8 7.2
v -7.8 6.5 7.2
v -7.8 7.1 7.2
v -7.8 10.2 7.2
v -7.8 10.6 7.2
v -7.7 5.4 7.2
v -7.7 5.6 7.2
v -8.3 7.1 7.1
v -8.3 7.2 7.1
v -8.3 7.8 7.1
v -8.3 7.9 7.1
v -8.3 8.2 7.1
v -8.3 8.6 7.1
v -8.3 8.7 7.1
v -8.2 7.1 7.1
v -8.2 7.2 7.1
v -8.2 7.8 7.1
v -8.2 7.9 7.1
v -8.2 8.1 7.1
v -8.2 8.2 7.1
v -8.2 8.3 7.1
v -8.2 8.6 7.1
v -8.2 8.7 7.1
v -8.2 9.2 7.1
v -8.2 10.1 7.1
v -8.1 8.7 7.1
v -8.1 9.2 7.1
v -8.1 9.3 7.1
v -8.1 9.4 7.1
v -8.1 10 7.1
v -8 7.1 7.1
v -8 7.2 7.1
v -8 7.6 7.1
v -8 7.7 7.1
v -8 8 7.1
v -8 8.7 7.1
v -8 9.2 7.1
v -8 9.3 7.1
v -8 9.4 7.1
v -8 10 7.1
v -8 10.1 7.1
v -7.9 7.1 7.1
v -7.9 7.2 7.1
v -7.9 7.7 7.1
v -7.9 8.7 7.1
v -8.3 7.1 6.9
v -8.3 7.5 6.9
v -8.3 8 6.9
v -8.3 8.7 6.9
v -8.2 7.1 6.9
v -8.2 7.5 6.9
v -8.2 7.6 6.9
v -8.2 8 6.9
v -8.2 8.7 6.9
v -8.2 9.2 6.9
v -8.2 9.8 6.9
v -8.2 10.1 6.9
v -8.1 8.7 6.9
v -8.1 9.2 6.9
v -8.1 9.3 6.9
v -8.1 9.8 6.9
v -8 7.1 6.9
v -8 7.3 6.9
v -8 7.7 6.9
v -8 8.3 6.9
v -8 8.4 6.9
v -8 8.7 6.9
v -8 9.3 6.9
v -8 10.1 6.9
v -7.9 7.1 6.9
v -7.9 7.3 6.9
v -7.9 8.4 6.9
v -7.9 8.7 6.9
v -8.5 5.4 6.8
v -8.5 5.6 6.8
v -8.4 5.4 6.8
v -8.4 5.6 6.8
v -8.4 7.1 6.8
v -8.4 10.2 6.8
v -8.4 10.6 6.8
v -8.3 5.6 6.8
v -8.3 5.9 6.8
v -8.3 6.7 6.8
v -8.3 7.1 6.8
v -8.3 10.1 6.8
v -8.3 10.2 6.8
v -8.3 10.3 6.8
v -8.3 10.6 6.8
v -8.3 10.7 6.8
v -8.2 7.1 6.8
v -8.2 7.6 6.8
v -8.2 8.7 6.8
v -8.2 10.1 6.8
v -8.2 10.2 6.8
v -8.2 10.6 6.8
v -8.1 7.1 6.8
v -8.1 7.6 6.8
v -8.1 7.7 6.8
v -8.1 8.3 6.8
v -8 7.1 6.8
v -8 7.7 6.8
v -8 8.3 6.8
v -8 8.7 6.8
v -8 10.2 6.8
v -7.9 5.6 6.8
v -7.9 5.9 6.8
v -7.9 6 6.8
v -7.9 6.1 6.8
v -7.9 6.4 6.8
v -7.9 6.6 6.8
v -7.9 7.1 6.8
v -7.9 10.1 6.8
v -7.9 10.2 6.8
v -7.9 10.4 6.8
v -7.9 10.5 6.8
v -7.9 10.6 6.8
v -7.9 10.7 6.8
v -7.8 5.4 6.8
v -7.8 5.6 6.8
v -7.8 6 6.8
v -7.8 6.1 6.8
v -7.8 6.6 6.8
v -7.8 7.1 6.8
v -7.8 10.2 6.8
v -7.8 10.5 6.8
v -7.8 10.6 6.8
v -7.7 5.4 6.8
v -7.7 5.6 6.8
v -8.4 5.4 6.7
v -8.4 5.6 6.7
v -8.3 5.4 6.7
v -8.3 5.6 6.7
v -8.3 5.9 6.7
v -8.3 6.7 6.7
v -8.3 7.1 6.7
v -8.3 10.2 6.7
v -8.3 10.3 6.7
v -8.3 10.6 6.7
v -8.2 5.9 6.7
v -8.2 6.7 6.7
v -8.2 10.3 6.7
v -8.2 10.6 6.7
v -8.1 6.3 6.7
v -8.1 6.9 6.7
v -8 5.9 6.7
v -8 6.3 6.7
v -8 6.4 6.7
v -8 6.9 6.7
v -8 10.2 6.7
v -8 10.4 6.7
v -7.9 5.4 6.7
v -7.9 5.6 6.7
v -7.9 5.9 6.7
v -7.9 6.4 6.7
v -7.9 7.1 6.7
v -7.9 10.2 6.7
v -7.9 10.4 6.7
v -7.9 10.6 6.7
v -7.8 5.4 6.7
v -7.8 5.6 6.7
v -8.3 5.4 6.6
v -8.3 5.6 6.6
v -7.9 5.4 6.6
v -7.9 5.6 6.6
v -8.3 5.4 7.4
v -7.9 5.4 7.4
v -8.4 5.4 7.3
v -8.3 5.4 7.3
v -7.9 5.4 7.3
v -7.8 5.4 7.3
v -8.5 5.4 7.2
v -8.4 5.4 7.2
v -7.8 5.4 7.2
v -7.7 5.4 7.2
v -8.5 5.4 6.8
v -8.4 5.4 6.8
v -7.8 5.4 6.8
v -7.7 5.4 6.8
v -8.4 5.4 6.7
v -8.3 5.4 6.7
v -7.9 5.4 6.7
v -7.8 5.4 6.7
v -8.3 5.4 6.6
v -7.9 5.4 6.6
v -8.3 10.1 7.2
v -8 10.1 7.2
v -7.9 10.1 7.2
v -8.3 10.1 7.1
v -8.2 10.1 7.1
v -8 10.1 7.1
v -8 10.1 7
v -7.9 10.1 7
v -8.2 10.1 6.9
v -8 10.1 6.9
v -8.3 10.1 6.8
v -8.2 10.1 6.8
v -7.9 10.1 6.8
v -8.3 10.2 7.3
v -8.2 10.2 7.3
v -8.1 10.2 7.3
v -8 10.2 7.3
v -7.9 10.2 7.3
v -8.4 10.2 7.2
v -8.3 10.2 7.2
v -8.2 10.2 7.2
v -8.1 10.2 7.2
v -8 10.2 7.2
v -7.9 10.2 7.2
v -7.8 10.2 7.2
v -8.4 10.2 7.1
v -8.3 10.2 7.1
v -7.9 10.2 7.1
v -7.8 10.2 7.1
v -7.9 10.2 7
v -7.8 10.2 7
v -8.4 10.2 6.8
v -8.3 10.2 6.8
v -8.2 10.2 6.8
v -8 10.2 6.8
v -7.9 10.2 6.8
v -7.8 10.2 6.8
v -8.3 10.2 6.7
v -8 10.2 6.7
v -7.9 10.2 6.7
v -8.3 5.6 7.4
v -7.9 5.6 7.4
v -8.4 5.6 7.3
v -8.3 5.6 7.3
v -8.1 5.6 7.3
v -8 5.6 7.3
v -7.9 5.6 7.3
v -7.8 5.6 7.3
v -8.5 5.6 7.2
v -8.4 5.6 7.2
v -8.3 5.6 7.2
v -7.9 5.6 7.2
v -7.8 5.6 7.2
v -7.7 5.6 7.2
v -8.4 5.6 7
v -7.8 5.6 6.9
v -8.5 5.6 6.8
v -8.4 5.6 6.8
v -8.3 5.6 6.8
v -7.9 5.6 6.8
v -7.8 5.6 6.8
v -7.7 5.6 6.8
v -8.4 5.6 6.7
v -8.3 5.6 6.7
v -7.9 5.6 6.7
v -7.8 5.6 6.7
v -8.3 5.6 6.6
v -7.9 5.6 6.6
v -8.3 7.1 7.3
v -7.9 7.1 7.3
v -8.4 7.1 7.2
v -8.3 7.1 7.2
v -8.2 7.1 7.2
v -8 7.1 7.2
v -7.9 7.1 7.2
v -7.8 7.1 7.2
v -8.4 7.1 7.1
v -8.3 7.1 7.1
v -8.2 7.1 7.1
v -8 7.1 7.1
v -7.9 7.1 7.1
v -7.8 7.1 7.1
v -7.9 7.1 7
v -8.3 7.1 6.9
v -8.2 7.1 6.9
v -8 7.1 6.9
v -7.9 7.1 6.9
v -7.8 7.1 6.9
v -8.4 7.1 6.8
v -8.3 7.1 6.8
v -8.2 7.1 6.8
v -8.1 7.1 6.8
v -8 7.1 6.8
v -7.9 7.1 6.8
v -7.8 7.1 6.8
v -8.3 7.1 6.7
v -7.9 7.1 6.7
v -8.2 8.7 7.2
v -8.1 8.7 7.2
v -8 8.7 7.2
v -8.3 8.7 7.1
v -8.2 8.7 7.1
v -8.1 8.7 7.1
v -8 8.7 7.1
v -7.9 8.7 7.1
v -8.3 8.7 7
v -8.2 8.7 7
v -8 8.7 7
v -7.9 8.7 7
v -8.3 8.7 6.9
v -8.2 8.7 6.9
v -8.1 8.7 6.9
v -8 8.7 6.9
v -7.9 8.7 6.9
v -8.2 8.7 6.8
v -8 8.7 6.8
v -8.3 10.6 7.3
v -8 10.6 7.3
v -7.9 10.6 7.3
v -8.4 10.6 7.2
v -8.3 10.6 7.2
v -8.2 10.6 7.2
v -8 10.6 7.2
v -7.9 10.6 7.2
v -7.8 10.6 7.2
v -8.3 10.6 7.1
v -7.9 10.6 7.1
v -7.8 10.6 7.1
v -8.4 10.6 7
v -8.3 10.6 7
v -8.4 10.6 6.8
v -8.3 10.6 6.8
v -8.2 10.6 6.8
v -7.9 10.6 6.8
v -7.8 10.6 6.8
v -8.3 10.6 6.7
v -8.2 10.6 6.7
v -7.9 10.6 6.7
v -8.3 10.7 7.2
v -8.2 10.7 7.2
v -7.9 10.7 7.2
v -8.3 10.7 7.1
v -8.2 10.7 7.1
v -8.3 10.7 6.8
v -7.9 10.7 6.8

# faces
f 3/3/1 2/3/1 1/3/1
f 4/3/1 2/3/1 3/3/1
f 9/3/1 6/3/1 5/3/1
f 10/3/1 6/3/1 9/3/1
f 12/3/1 8/3/1 7/3/1
f 13/3/1 8/3/1 12/3/1
f 14/4/1 11/4/1 10/4/1
f 15/4/1 11/4/1 14/4/1
f 16/5/1 12/5/1 11/5/1
f 16/4/1 11/4/1 15/4/1
f 17/5/1 12/5/1 16/5/1
f 18/5/1 15/5/1 14/5/1
f 18/4/1 16/4/1 15/4/1
f 18/4/1 17/4/1 16/4/1
f 19/4/1 17/4/1 18/4/1
f 20/5/1 19/5/1 18/5/1
f 20/4/1 17/4/1 19/4/1
f 21/5/1 12/5/1 17/5/1
f 21/4/1 17/4/1 20/4/1
f 22/5/1 20/5/1 18/5/1
f 22/5/1 18/5/1 14/5/1
f 22/5/1 21/5/1 20/5/1
f 23/5/1 21/5/1 22/5/1
f 24/6/1 23/6/1 22/6/1
f 25/5/1 21/5/1 23/5/1
f 25/6/1 23/6/1 24/6/1
f 26/5/1 12/5/1 21/5/1
f 26/5/1 21/5/1 25/5/1
f 30/1/1 28/1/1 27/1/1
f 30/2/1 29/2/1 28/2/1
f 31/2/1 29/2/1 30/2/1
f 32/1/1 30/1/1 27/1/1
f 32/1/1 31/1/1 30/1/1
f 33/1/1 31/1/1 32/1/1
f 34/2/1 33/2/1 32/2/1
f 35/1/1 31/1/1 33/1/1
f 35/2/1 33/2/1 34/2/1
f 36/1/1 35/1/1 34/1/1
f 37/2/1 29/2/1 31/2/1
f 37/1/1 35/1/1 36/1/1
f 37/1/1 31/1/1 35/1/1
f 38/2/1 29/2/1 37/2/1
f 43/3/1 40/3/1 39/3/1
f 44/3/1 40/3/1 43/3/1
f 47/3/1 42/3/1 41/3/1
f 48/3/1 42/3/1 47/3/1
f 49/5/1 45/5/1 44/5/1
f 50/5/1 47/5/1 46/5/1
f 51/5/1 47/5/1 50/5/1
f 52/5/1 49/5/1 44/5/1
f 53/5/1 49/5/1 52/5/1
f 54/6/1 51/6/1 50/6/1
f 55/6/1 51/6/1 54/6/1
f 56/6/1 53/6/1 52/6/1
f 57/6/1 56/6/1 52/6/1
f 58/6/1 56/6/1 57/6/1
f 59/5/1 58/5/1 57/5/1
f 60/5/1 58/5/1 59/5/1
f 63/5/1 55/5/1 54/5/1
f 64/5/1 55/5/1 63/5/1
f 65/5/1 62/5/1 61/5/1
f 66/5/1 62/5/1 65/5/1
f 67/6/1 66/6/1 65/6/1
f 67/5/1 62/5/1 66/5/1
f 68/5/1 62/5/1 67/5/1
f 69/6/1 67/6/1 65/6/1
f 70/4/1 68/4/1 67/4/1
f 70/6/1 67/6/1 69/6/1
f 71/5/1 70/5/1 69/5/1
f 72/4/1 68/4/1 70/4/1
f 72/5/1 70/5/1 71/5/1
f 73/4/1 72/4/1 71/4/1
f 73/4/1 68/4/1 72/4/1
f 74/4/1 68/4/1 73/4/1
f 75/4/1 73/4/1 71/4/1
f 76/5/1 74/5/1 73/5/1
f 76/4/1 73/4/1 75/4/1
f 77/5/1 76/5/1 75/5/1
f 78/5/1 74/5/1 76/5/1
f 78/5/1 76/5/1 77/5/1
f 79/4/1 78/4/1 77/4/1
f 80/5/1 74/5/1 78/5/1
f 80/4/1 78/4/1 79/4/1
f 81/5/1 74/5/1 80/5/1
f 86/1/1 83/1/1 82/1/1
f 87/2/1 84/2/1 83/2/1
f 87/1/1 83/1/1 86/1/1
f 88/2/1 84/2/1 87/2/1
f 90/2/1 89/2/1 88/2/1
f 91/2/1 89/2/1 90/2/1
f 92/2/1 86/2/1 85/2/1
f 93/2/1 92/2/1 85/2/1
f 94/2/1 93/2/1 85/2/1
f 95/2/1 93/2/1 94/2/1
f 98/1/1 91/1/1 90/1/1
f 99/1/1 91/1/1 98/1/1
f 100/1/1 96/1/1 95/1/1
f 101/2/1 97/2/1 96/2/1
f 101/1/1 96/1/1 100/1/1
f 101/2/1 98/2/1 97/2/1
f 102/2/1 98/2/1 101/2/1
f 107/5/1 104/5/1 103/5/1
f 108/4/1 106/4/1 105/4/1
f 109/4/1 106/4/1 108/4/1
f 110/4/1 106/4/1 109/4/1
f 111/5/1 107/5/1 103/5/1
f 112/5/1 111/5/1 103/5/1
f 113/5/1 111/5/1 112/5/1
f 114/5/1 110/5/1 109/5/1
f 115/4/1 113/4/1 112/4/1
f 116/4/1 113/4/1 115/4/1
f 117/5/1 116/5/1 115/5/1
f 118/5/1 117/5/1 115/5/1
f 119/5/1 117/5/1 118/5/1
f 120/4/1 119/4/1 118/4/1
f 121/4/1 120/4/1 118/4/1
f 122/4/1 120/4/1 121/4/1
f 124/5/1 110/5/1 114/5/1
f 125/5/1 110/5/1 124/5/1
f 126/4/1 123/4/1 122/4/1
f 127/5/1 124/5/1 123/5/1
f 127/4/1 123/4/1 126/4/1
f 128/5/1 124/5/1 127/5/1
f 129/5/1 127/5/1 126/5/1
f 129/6/1 128/6/1 127/6/1
f 130/6/1 128/6/1 129/6/1
f 131/5/1 129/5/1 126/5/1
f 131/5/1 130/5/1 129/5/1
f 132/5/1 130/5/1 131/5/1
f 133/5/2 134/5/2 137/5/2
f 135/5/2 136/5/2 138/5/2
f 133/5/2 137/5/2 139/5/2
f 139/5/2 137/5/2 140/5/2
f 139/4/2 140/4/2 141/4/2
f 138/5/2 136/5/2 142/5/2
f 142/5/2 136/5/2 143/5/2
f 139/4/2 141/4/2 144/4/2
f 144/4/2 141/4/2 145/4/2
f 142/6/2 143/6/2 146/6/2
f 146/6/2 143/6/2 147/6/2
f 146/5/2 147/5/2 148/5/2
f 144/5/2 145/5/2 149/5/2
f 149/5/2 145/5/2 150/5/2
f 148/5/2 147/5/2 152/5/2
f 152/5/2 147/5/2 153/5/2
f 150/5/2 151/5/2 154/5/2
f 151/4/2 152/4/2 155/4/2
f 154/5/2 151/5/2 155/5/2
f 154/4/2 155/4/2 156/4/2
f 155/4/2 152/4/2 157/4/2
f 156/4/2 155/4/2 157/4/2
f 156/5/2 157/5/2 158/5/2
f 158/5/2 157/5/2 159/5/2
f 158/6/2 159/6/2 160/6/2
f 159/5/2 157/5/2 161/5/2
f 160/6/2 159/6/2 161/6/2
f 160/5/2 161/5/2 162/5/2
f 161/5/2 157/5/2 163/5/2
f 162/5/2 161/5/2 163/5/2
f 163/5/2 157/5/2 164/5/2
f 165/3/2 166/3/2 169/3/2
f 169/3/2 166/3/2 170/3/2
f 167/3/2 168/3/2 173/3/2
f 173/3/2 168/3/2 174/3/2
f 170/5/2 171/5/2 175/5/2
f 172/5/2 173/5/2 176/5/2
f 176/5/2 173/5/2 177/5/2
f 176/4/2 177/4/2 178/4/2
f 178/4/2 177/4/2 179/4/2
f 179/4/2 177/4/2 180/4/2
f 180/4/2 177/4/2 181/4/2
f 170/5/2 175/5/2 182/5/2
f 180/5/2 181/5/2 183/5/2
f 170/5/2 182/5/2 184/5/2
f 184/5/2 182/5/2 185/5/2
f 183/5/2 181/5/2 189/5/2
f 189/5/2 181/5/2 190/5/2
f 186/5/2 187/5/2 191/5/2
f 187/4/2 188/4/2 192/4/2
f 191/5/2 187/5/2 192/5/2
f 191/4/2 192/4/2 193/4/2
f 192/4/2 188/4/2 193/4/2
f 193/4/2 188/4/2 194/4/2
f 191/4/2 193/4/2 195/4/2
f 193/5/2 194/5/2 196/5/2
f 195/4/2 193/4/2 196/4/2
f 195/5/2 196/5/2 197/5/2
f 196/5/2 194/5/2 197/5/2
f 197/5/2 194/5/2 198/5/2
f 195/5/2 197/5/2 199/5/2
f 197/4/2 198/4/2 200/4/2
f 199/5/2 197/5/2 200/5/2
f 200/4/2 198/4/2 201/4/2
f 202/2/2 203/2/2 206/2/2
f 206/2/2 203/2/2 207/2/2
f 203/1/2 204/1/2 208/1/2
f 207/2/2 203/2/2 208/2/2
f 208/1/2 204/1/2 209/1/2
f 205/1/2 206/1/2 211/1/2
f 211/1/2 206/1/2 212/1/2
f 209/1/2 210/1/2 213/1/2
f 213/1/2 210/1/2 214/1/2
f 211/2/2 212/2/2 215/2/2
f 215/2/2 212/2/2 216/2/2
f 213/2/2 214/2/2 217/2/2
f 215/1/2 216/1/2 218/1/2
f 218/1/2 216/1/2 219/1/2
f 217/2/2 214/2/2 221/2/2
f 221/2/2 214/2/2 222/2/2
f 219/2/2 220/2/2 223/2/2
f 220/2/2 221/2/2 223/2/2
f 223/2/2 221/2/2 224/2/2
f 225/3/2 226/3/2 229/3/2
f 229/3/2 226/3/2 230/3/2
f 227/3/2 228/3/2 232/3/2
f 232/3/2 228/3/2 233/3/2
f 230/5/2 231/5/2 234/5/2
f 234/5/2 231/5/2 235/5/2
f 231/4/2 232/4/2 236/4/2
f 235/5/2 231/5/2 236/5/2
f 236/4/2 232/4/2 237/4/2
f 235/5/2 236/5/2 238/5/2
f 236/5/2 237/5/2 238/5/2
f 238/5/2 237/5/2 239/5/2
f 234/6/2 235/6/2 240/6/2
f 235/5/2 238/5/2 241/5/2
f 240/6/2 235/6/2 241/6/2
f 241/5/2 238/5/2 242/5/2
f 238/6/2 239/6/2 243/6/2
f 242/5/2 238/5/2 243/5/2
f 242/6/2 243/6/2 244/6/2
f 243/6/2 239/6/2 244/6/2
f 244/6/2 239/6/2 245/6/2
f 241/5/2 242/5/2 246/5/2
f 240/5/2 241/5/2 246/5/2
f 242/6/2 244/6/2 247/6/2
f 246/5/2 242/5/2 247/5/2
f 244/5/2 245/5/2 248/5/2
f 247/6/2 244/6/2 248/6/2
f 246/4/2 247/4/2 249/4/2
f 247/5/2 248/5/2 249/5/2
f 248/5/2 245/5/2 250/5/2
f 249/5/2 248/5/2 250/5/2
f 240/5/2 246/5/2 251/5/2
f 246/4/2 249/4/2 252/4/2
f 251/5/2 246/5/2 252/5/2
f 249/4/2 250/4/2 252/4/2
f 250/5/2 245/5/2 253/5/2
f 252/4/2 250/4/2 253/4/2
f 253/5/2 245/5/2 254/5/2
f 255/1/2 256/1/2 259/1/2
f 256/2/2 257/2/2 259/2/2
f 257/1/2 258/1/2 260/1/2
f 259/2/2 257/2/2 260/2/2
f 255/1/2 259/1/2 261/1/2
f 259/1/2 260/1/2 261/1/2
f 260/1/2 258/1/2 262/1/2
f 261/1/2 260/1/2 262/1/2
f 261/2/2 262/2/2 263/2/2
f 262/1/2 258/1/2 263/1/2
f 263/1/2 258/1/2 264/1/2
f 255/1/2 261/1/2 265/1/2
f 261/2/2 263/2/2 266/2/2
f 265/1/2 261/1/2 266/1/2
f 263/2/2 264/2/2 266/2/2
f 266/2/2 264/2/2 267/2/2
f 268/3/2 269/3/2 270/3/2
f 270/3/2 269/3/2 271/3/2
f 274/3/3 273/3/3 272/3/3
f 275/3/3 273/3/3 274/3/3
f 278/3/3 277/3/3 276/3/3
f 279/3/3 277/3/3 278/3/3
f 285/5/3 280/5/3 279/5/3
f 286/6/3 281/6/3 280/6/3
f 286/5/3 280/5/3 285/5/3
f 287/5/3 282/5/3 281/5/3
f 287/6/3 281/6/3 286/6/3
f 288/2/3 284/2/3 283/2/3
f 289/2/3 284/2/3 288/2/3
f 290/5/3 285/5/3 279/5/3
f 291/4/3 286/4/3 285/4/3
f 291/5/3 285/5/3 290/5/3
f 291/4/3 287/4/3 286/4/3
f 292/4/3 287/4/3 291/4/3
f 293/5/3 282/5/3 287/5/3
f 293/4/3 287/4/3 292/4/3
f 294/1/3 289/1/3 288/1/3
f 295/2/3 284/2/3 289/2/3
f 295/1/3 289/1/3 294/1/3
f 296/4/3 292/4/3 291/4/3
f 296/4/3 291/4/3 290/4/3
f 297/5/3 293/5/3 292/5/3
f 297/4/3 292/4/3 296/4/3
f 298/2/3 295/2/3 294/2/3
f 299/2/3 284/2/3 295/2/3
f 299/2/3 295/2/3 298/2/3
f 300/2/3 284/2/3 299/2/3
f 301/2/3 284/2/3 300/2/3
f 303/5/3 297/5/3 296/5/3
f 304/5/3 282/5/3 293/5/3
f 304/5/3 293/5/3 297/5/3
f 304/5/3 297/5/3 303/5/3
f 305/1/3 299/1/3 298/1/3
f 306/2/3 300/2/3 299/2/3
f 306/1/3 299/1/3 305/1/3
f 307/1/3 301/1/3 300/1/3
f 307/2/3 300/2/3 306/2/3
f 308/1/3 301/1/3 307/1/3
f 309/3/3 303/3/3 302/3/3
f 310/3/3 303/3/3 309/3/3
f 313/3/3 312/3/3 311/3/3
f 314/3/3 312/3/3 313/3/3
f 322/4/3 315/4/3 314/4/3
f 323/5/3 316/5/3 315/5/3
f 323/4/3 315/4/3 322/4/3
f 324/5/3 316/5/3 323/5/3
f 325/6/3 317/6/3 316/6/3
f 325/5/3 316/5/3 324/5/3
f 326/6/3 317/6/3 325/6/3
f 327/6/3 317/6/3 326/6/3
f 329/1/3 319/1/3 318/1/3
f 330/2/3 320/2/3 319/2/3
f 330/1/3 319/1/3 329/1/3
f 331/1/3 321/1/3 320/1/3
f 331/2/3 320/2/3 330/2/3
f 332/1/3 321/1/3 331/1/3
f 339/1/3 329/1/3 328/1/3
f 340/1/3 333/1/3 332/1/3
f 341/1/3 333/1/3 340/1/3
f 342/5/3 335/5/3 334/5/3
f 343/4/3 336/4/3 335/4/3
f 343/5/3 335/5/3 342/5/3
f 344/4/3 336/4/3 343/4/3
f 345/5/3 337/5/3 336/5/3
f 345/4/3 336/4/3 344/4/3
f 346/4/3 338/4/3 337/4/3
f 346/5/3 337/5/3 345/5/3
f 347/4/3 338/4/3 346/4/3
f 348/1/3 339/1/3 328/1/3
f 349/5/3 342/5/3 334/5/3
f 350/4/3 344/4/3 343/4/3
f 350/5/3 342/5/3 349/5/3
f 350/4/3 343/4/3 342/4/3
f 351/5/3 347/5/3 346/5/3
f 351/4/3 344/4/3 350/4/3
f 351/5/3 345/5/3 344/5/3
f 351/5/3 346/5/3 345/5/3
f 352/5/3 347/5/3 351/5/3
f 353/1/3 348/1/3 328/1/3
f 354/1/3 348/1/3 353/1/3
f 355/2/3 341/2/3 340/2/3
f 360/2/3 354/2/3 353/2/3
f 361/2/3 354/2/3 360/2/3
f 364/2/3 341/2/3 355/2/3
f 365/2/3 341/2/3 364/2/3
f 367/5/3 357/5/3 356/5/3
f 368/6/3 358/6/3 357/6/3
f 368/5/3 357/5/3 367/5/3
f 369/5/3 359/5/3 358/5/3
f 369/6/3 358/6/3 368/6/3
f 370/5/3 359/5/3 369/5/3
f 371/1/3 363/1/3 362/1/3
f 371/1/3 364/1/3 363/1/3
f 371/1/3 362/1/3 361/1/3
f 372/1/3 364/1/3 371/1/3
f 373/3/3 367/3/3 366/3/3
f 374/3/3 367/3/3 373/3/3
f 382/5/3 376/5/3 375/5/3
f 383/6/3 377/6/3 376/6/3
f 383/5/3 376/5/3 382/5/3
f 384/5/3 378/5/3 377/5/3
f 384/6/3 377/6/3 383/6/3
f 385/4/3 379/4/3 378/4/3
f 385/5/3 378/5/3 384/5/3
f 386/4/3 379/4/3 385/4/3
f 387/5/3 380/5/3 379/5/3
f 387/4/3 379/4/3 386/4/3
f 388/5/3 380/5/3 387/5/3
f 389/4/3 381/4/3 380/4/3
f 389/5/3 380/5/3 388/5/3
f 390/4/3 381/4/3 389/4/3
f 393/4/3 391/4/3 390/4/3
f 394/5/3 392/5/3 391/5/3
f 394/4/3 391/4/3 393/4/3
f 395/5/3 392/5/3 394/5/3
f 396/5/3 392/5/3 395/5/3
f 397/5/3 392/5/3 396/5/3
f 403/5/3 394/5/3 393/5/3
f 404/4/3 395/4/3 394/4/3
f 404/5/3 394/5/3 403/5/3
f 405/5/3 396/5/3 395/5/3
f 405/4/3 395/4/3 404/4/3
f 406/6/3 397/6/3 396/6/3
f 406/5/3 396/5/3 405/5/3
f 407/5/3 392/5/3 397/5/3
f 407/6/3 397/6/3 406/6/3
f 408/5/3 392/5/3 407/5/3
f 409/5/3 399/5/3 398/5/3
f 410/4/3 401/4/3 400/4/3
f 410/5/3 399/5/3 409/5/3
f 410/4/3 400/4/3 399/4/3
f 411/5/3 402/5/3 401/5/3
f 411/4/3 401/4/3 410/4/3
f 411/5/3 403/5/3 402/5/3
f 412/5/3 403/5/3 411/5/3
f 413/5/4 414/5/4 417/5/4
f 414/4/4 415/4/4 418/4/4
f 417/5/4 414/5/4 418/5/4
f 418/4/4 415/4/4 419/4/4
f 415/5/4 416/5/4 420/5/4
f 419/4/4 415/4/4 420/4/4
f 420/5/4 416/5/4 421/5/4
f 421/5/4 422/5/4 425/5/4
f 422/6/4 423/6/4 426/6/4
f 425/5/4 422/5/4 426/5/4
f 426/6/4 423/6/4 427/6/4
f 423/5/4 424/5/4 428/5/4
f 427/6/4 423/6/4 428/6/4
f 426/4/4 427/4/4 434/4/4
f 425/4/4 426/4/4 434/4/4
f 427/5/4 428/5/4 435/5/4
f 434/4/4 427/4/4 435/4/4
f 428/5/4 424/5/4 436/5/4
f 435/5/4 428/5/4 436/5/4
f 429/4/4 430/4/4 437/4/4
f 432/5/4 433/5/4 438/5/4
f 437/4/4 430/4/4 438/4/4
f 431/5/4 432/5/4 438/5/4
f 430/5/4 431/5/4 438/5/4
f 433/4/4 434/4/4 439/4/4
f 438/5/4 433/5/4 439/5/4
f 439/4/4 434/4/4 440/4/4
f 441/3/4 442/3/4 443/3/4
f 443/3/4 442/3/4 444/3/4
f 444/5/4 445/5/4 448/5/4
f 448/5/4 445/5/4 449/5/4
f 449/5/4 445/5/4 450/5/4
f 450/5/4 445/5/4 451/5/4
f 446/2/4 447/2/4 453/2/4
f 453/2/4 447/2/4 454/2/4
f 454/2/4 447/2/4 455/2/4
f 452/2/4 453/2/4 460/2/4
f 460/2/4 453/2/4 461/2/4
f 455/2/4 456/2/4 462/2/4
f 457/4/4 458/4/4 463/4/4
f 458/5/4 459/5/4 464/5/4
f 463/4/4 458/4/4 464/4/4
f 464/5/4 459/5/4 465/5/4
f 465/5/4 459/5/4 466/5/4
f 463/5/4 464/5/4 467/5/4
f 464/5/4 465/5/4 467/5/4
f 465/6/4 466/6/4 468/6/4
f 467/5/4 465/5/4 468/5/4
f 466/5/4 459/5/4 469/5/4
f 468/6/4 466/6/4 469/6/4
f 469/5/4 459/5/4 470/5/4
f 460/1/4 461/1/4 471/1/4
f 460/1/4 471/1/4 479/1/4
f 479/1/4 471/1/4 480/1/4
f 462/2/4 456/2/4 483/2/4
f 483/2/4 456/2/4 484/2/4
f 472/4/4 473/4/4 486/4/4
f 473/4/4 474/4/4 486/4/4
f 474/5/4 475/5/4 487/5/4
f 486/4/4 474/4/4 487/4/4
f 475/6/4 476/6/4 488/6/4
f 487/5/4 475/5/4 488/5/4
f 476/6/4 477/6/4 488/6/4
f 477/5/4 478/5/4 489/5/4
f 488/6/4 477/6/4 489/6/4
f 489/5/4 478/5/4 490/5/4
f 481/1/4 482/1/4 491/1/4
f 480/1/4 481/1/4 491/1/4
f 482/2/4 483/2/4 492/2/4
f 491/1/4 482/1/4 492/1/4
f 492/2/4 483/2/4 493/2/4
f 485/3/4 486/3/4 494/3/4
f 494/3/4 486/3/4 495/3/4
f 496/3/4 497/3/4 498/3/4
f 498/3/4 497/3/4 499/3/4
f 499/5/4 500/5/4 506/5/4
f 500/6/4 501/6/4 506/6/4
f 501/5/4 502/5/4 507/5/4
f 506/6/4 501/6/4 507/6/4
f 504/1/4 505/1/4 508/1/4
f 503/2/4 504/2/4 508/2/4
f 508/1/4 505/1/4 509/1/4
f 506/5/4 507/5/4 510/5/4
f 507/5/4 502/5/4 511/5/4
f 510/5/4 507/5/4 511/5/4
f 506/5/4 510/5/4 512/5/4
f 499/5/4 506/5/4 512/5/4
f 510/4/4 511/4/4 513/4/4
f 512/5/4 510/5/4 513/5/4
f 513/4/4 511/4/4 514/4/4
f 511/5/4 502/5/4 515/5/4
f 514/4/4 511/4/4 515/4/4
f 503/2/4 508/2/4 516/2/4
f 508/2/4 509/2/4 516/2/4
f 516/2/4 509/2/4 517/2/4
f 499/5/4 512/5/4 519/5/4
f 513/4/4 514/4/4 520/4/4
f 512/4/4 513/4/4 520/4/4
f 519/5/4 512/5/4 520/5/4
f 514/5/4 515/5/4 521/5/4
f 520/4/4 514/4/4 521/4/4
f 515/5/4 502/5/4 522/5/4
f 521/5/4 515/5/4 522/5/4
f 516/1/4 517/1/4 523/1/4
f 517/2/4 509/2/4 524/2/4
f 523/1/4 517/1/4 524/1/4
f 524/2/4 509/2/4 525/2/4
f 518/3/4 519/3/4 526/3/4
f 526/3/4 519/3/4 527/3/4
f 528/3/4 529/3/4 530/3/4
f 530/3/4 529/3/4 531/3/4
f 535/3/5 533/3/5 532/3/5
f 536/3/5 533/3/5 535/3/5
f 539/3/5 535/3/5 534/3/5
f 539/3/5 537/3/5 536/3/5
f 539/3/5 536/3/5 535/3/5
f 540/3/5 537/3/5 539/3/5
f 542/3/5 539/3/5 538/3/5
f 542/3/5 541/3/5 540/3/5
f 542/3/5 540/3/5 539/3/5
f 543/3/5 541/3/5 542/3/5
f 544/3/5 541/3/5 543/3/5
f 545/3/5 541/3/5 544/3/5
f 546/3/5 544/3/5 543/3/5
f 547/3/5 544/3/5 546/3/5
f 548/3/5 544/3/5 547/3/5
f 549/3/5 544/3/5 548/3/5
f 550/3/5 548/3/5 547/3/5
f 551/3/5 548/3/5 550/3/5
f 555/1/5 553/1/5 552/1/5
f 556/1/5 553/1/5 555/1/5
f 557/2/5 554/2/5 553/2/5
f 557/1/5 553/1/5 556/1/5
f 558/2/5 554/2/5 557/2/5
f 559/2/5 554/2/5 558/2/5
f 560/2/5 556/2/5 555/2/5
f 561/1/5 559/1/5 558/1/5
f 562/2/5 560/2/5 555/2/5
f 563/1/5 561/1/5 560/1/5
f 563/2/5 560/2/5 562/2/5
f 564/1/5 559/1/5 561/1/5
f 564/1/5 561/1/5 563/1/5
f 571/2/5 566/2/5 565/2/5
f 572/1/5 567/1/5 566/1/5
f 572/2/5 566/2/5 571/2/5
f 573/2/5 568/2/5 567/2/5
f 573/1/5 567/1/5 572/1/5
f 574/1/5 569/1/5 568/1/5
f 574/2/5 568/2/5 573/2/5
f 575/1/5 569/1/5 574/1/5
f 577/1/5 571/1/5 570/1/5
f 578/1/5 571/1/5 577/1/5
f 579/1/5 576/1/5 575/1/5
f 580/1/5 576/1/5 579/1/5
f 581/2/5 580/2/5 579/2/5
f 582/2/5 580/2/5 581/2/5
f 583/2/5 578/2/5 577/2/5
f 584/2/5 578/2/5 583/2/5
f 587/1/5 582/1/5 581/1/5
f 588/1/5 582/1/5 587/1/5
f 589/2/5 586/2/5 585/2/5
f 589/2/5 585/2/5 584/2/5
f 590/1/5 587/1/5 586/1/5
f 590/2/5 586/2/5 589/2/5
f 591/1/5 587/1/5 590/1/5
f 592/3/6 593/3/6 595/3/6
f 595/3/6 593/3/6 596/3/6
f 596/3/6 593/3/6 597/3/6
f 597/3/6 593/3/6 598/3/6
f 594/3/6 595/3/6 601/3/6
f 601/3/6 595/3/6 602/3/6
f 598/3/6 599/3/6 603/3/6
f 603/3/6 599/3/6 604/3/6
f 600/3/6 601/3/6 606/3/6
f 604/3/6 605/3/6 607/3/6
f 600/3/6 606/3/6 608/3/6
f 608/3/6 606/3/6 609/3/6
f 607/3/6 605/3/6 612/3/6
f 612/3/6 605/3/6 613/3/6
f 609/3/6 610/3/6 614/3/6
f 614/3/6 610/3/6 615/3/6
f 611/3/6 612/3/6 616/3/6
f 616/3/6 612/3/6 617/3/6
f 615/3/6 616/3/6 618/3/6
f 618/3/6 616/3/6 619/3/6
f 620/5/6 621/5/6 623/5/6
f 623/5/6 621/5/6 624/5/6
f 624/5/6 621/5/6 625/5/6
f 625/5/6 621/5/6 626/5/6
f 622/6/6 623/6/6 628/6/6
f 623/6/6 624/6/6 628/6/6
f 628/6/6 624/6/6 629/6/6
f 629/6/6 624/6/6 630/6/6
f 626/5/6 627/5/6 631/5/6
f 625/5/6 626/5/6 631/5/6
f 631/5/6 627/5/6 632/5/6
f 632/5/6 627/5/6 633/5/6
f 632/4/6 633/4/6 634/4/6
f 628/5/6 629/5/6 635/5/6
f 634/4/6 633/4/6 638/4/6
f 638/4/6 633/4/6 639/4/6
f 635/5/6 636/5/6 640/5/6
f 628/5/6 635/5/6 640/5/6
f 640/5/6 636/5/6 641/5/6
f 641/5/6 636/5/6 642/5/6
f 638/5/6 639/5/6 644/5/6
f 637/5/6 638/5/6 644/5/6
f 644/5/6 639/5/6 645/5/6
f 645/5/6 639/5/6 646/5/6
f 642/5/6 643/5/6 647/5/6
f 641/5/6 642/5/6 647/5/6
f 644/5/6 645/5/6 647/5/6
f 643/5/6 644/5/6 647/5/6
f 647/5/6 645/5/6 648/5/6
f 649/4/6 650/4/6 653/4/6
f 650/5/6 651/5/6 654/5/6
f 653/4/6 650/4/6 654/4/6
f 654/5/6 651/5/6 655/5/6
f 652/4/6 653/4/6 657/4/6
f 657/4/6 653/4/6 658/4/6
f 655/5/6 656/5/6 659/5/6
f 659/5/6 656/5/6 660/5/6
f 657/5/6 658/5/6 661/5/6
f 661/5/6 658/5/6 662/5/6
f 659/4/6 660/4/6 664/4/6
f 664/4/6 660/4/6 665/4/6
f 662/5/6 663/5/6 666/5/6
f 663/5/6 664/5/6 666/5/6
f 666/5/6 664/5/6 667/5/6
f 668/2/6 669/2/6 672/2/6
f 672/2/6 669/2/6 673/2/6
f 669/1/6 670/1/6 674/1/6
f 673/2/6 669/2/6 674/2/6
f 674/1/6 670/1/6 675/1/6
f 671/1/6 672/1/6 677/1/6
f 675/1/6 676/1/6 678/1/6
f 678/1/6 676/1/6 679/1/6
f 671/1/6 677/1/6 680/1/6
f 680/1/6 677/1/6 681/1/6
f 680/2/6 681/2/6 682/2/6
f 682/2/6 681/2/6 683/2/6
f 678/2/6 679/2/6 685/2/6
f 685/2/6 679/2/6 686/2/6
f 683/1/6 684/1/6 687/1/6
f 684/2/6 685/2/6 688/2/6
f 687/1/6 684/1/6 688/1/6
f 688/2/6 685/2/6 689/2/6
f 690/1/6 691/1/6 693/1/6
f 691/2/6 692/2/6 694/2/6
f 693/1/6 691/1/6 694/1/6
f 693/2/6 694/2/6 695/2/6
f 694/2/6 692/2/6 696/2/6
f 695/2/6 694/2/6 696/2/6
