# MagicaVoxel @ Ephtracy

# group
o 

# material
mtllib antena 2.mtl
usemtl palette

# normals
vn -1 0 0
vn 1 0 0
vn 0 0 1
vn 0 0 -1
vn 0 -1 0
vn 0 1 0

# texcoords
vt 0.646484 0.5
vt 0.650391 0.5
vt 0.916016 0.5
vt 0.919922 0.5
vt 0.923828 0.5
vt 0.927734 0.5

# verts
v -10 5.4 7.2
v -10 5.4 6.8
v -10 5.6 7.2
v -10 5.6 6.8
v -9.9 5.4 7.3
v -9.9 5.4 7.2
v -9.9 5.4 6.8
v -9.9 5.4 6.7
v -9.9 5.6 7.3
v -9.9 5.6 7.2
v -9.9 5.6 7.1
v -9.9 5.6 7
v -9.9 5.6 6.8
v -9.9 5.6 6.7
v -9.9 5.7 7
v -9.9 5.7 6.9
v -9.9 5.8 7.1
v -9.9 5.8 7
v -9.9 6.4 7
v -9.9 6.4 6.9
v -9.9 6.5 7.2
v -9.9 6.5 7.1
v -9.9 6.7 7.2
v -9.9 6.7 7.1
v -9.9 6.7 6.8
v -9.9 9 7.2
v -9.9 9 7.1
v -9.9 9 6.8
v -9.9 9.1 7.1
v -9.9 9.1 7
v -9.9 9.2 7.2
v -9.9 9.2 7.1
v -9.9 9.3 7.2
v -9.9 9.3 7.1
v -9.9 9.4 7.2
v -9.9 9.4 7
v -9.9 9.4 6.8
v -9.8 5.4 7.4
v -9.8 5.4 7.3
v -9.8 5.4 6.7
v -9.8 5.4 6.6
v -9.8 5.6 7.4
v -9.8 5.6 7.3
v -9.8 5.6 7.2
v -9.8 5.6 6.8
v -9.8 5.6 6.7
v -9.8 5.6 6.6
v -9.8 5.8 6.8
v -9.8 5.8 6.7
v -9.8 6.2 7.3
v -9.8 6.2 7.2
v -9.8 6.4 6.8
v -9.8 6.4 6.7
v -9.8 6.5 7.3
v -9.8 6.5 7.2
v -9.8 6.7 7.3
v -9.8 6.7 7.2
v -9.8 6.7 7.1
v -9.8 6.7 6.9
v -9.8 6.7 6.8
v -9.8 6.7 6.7
v -9.8 6.8 7.1
v -9.8 6.8 7
v -9.8 7 7
v -9.8 7 6.9
v -9.8 7.2 7.1
v -9.8 7.2 7
v -9.8 7.3 7.1
v -9.8 7.3 7
v -9.8 7.4 7
v -9.8 7.4 6.9
v -9.8 7.5 7.1
v -9.8 7.5 7
v -9.8 7.9 7.1
v -9.8 7.9 6.9
v -9.8 8.9 7.2
v -9.8 8.9 7.1
v -9.8 8.9 6.8
v -9.8 9 7.3
v -9.8 9 7.2
v -9.8 9 7.1
v -9.8 9 6.8
v -9.8 9 6.7
v -9.8 9.1 6.8
v -9.8 9.1 6.7
v -9.8 9.2 7.2
v -9.8 9.3 7.2
v -9.8 9.4 7.3
v -9.8 9.4 7.2
v -9.8 9.4 7.1
v -9.8 9.4 7
v -9.8 9.4 6.8
v -9.8 9.4 6.7
v -9.8 9.5 7.2
v -9.8 9.5 7.1
v -9.8 9.5 6.8
v -9.7 6.7 7.2
v -9.7 6.7 7.1
v -9.7 6.7 6.9
v -9.7 6.7 6.8
v -9.7 6.8 7.1
v -9.7 7 6.9
v -9.7 7.1 6.9
v -9.7 7.1 6.8
v -9.7 7.2 7.1
v -9.7 7.3 7.2
v -9.7 7.3 7.1
v -9.7 7.4 6.9
v -9.7 7.5 7.2
v -9.7 7.5 7.1
v -9.7 7.6 7.2
v -9.7 7.6 7.1
v -9.7 7.9 7.2
v -9.7 7.9 7.1
v -9.7 7.9 7
v -9.7 7.9 6.9
v -9.7 7.9 6.8
v -9.7 8.3 7.1
v -9.7 8.3 7
v -9.7 8.3 6.9
v -9.7 8.8 7
v -9.7 8.8 6.9
v -9.7 8.9 7.1
v -9.7 8.9 6.9
v -9.5 6.7 7.2
v -9.5 6.7 7.1
v -9.5 6.7 6.9
v -9.5 6.7 6.8
v -9.5 6.8 7.1
v -9.5 6.9 6.9
v -9.5 7.1 7.2
v -9.5 7.1 7.1
v -9.5 7.2 7.1
v -9.5 7.2 6.9
v -9.5 7.2 6.8
v -9.5 7.4 7.2
v -9.5 7.4 7.1
v -9.5 7.6 6.9
v -9.5 7.6 6.8
v -9.5 7.7 6.9
v -9.5 7.9 7.2
v -9.5 7.9 7.1
v -9.5 7.9 7
v -9.5 7.9 6.9
v -9.5 7.9 6.8
v -9.5 8.3 7.1
v -9.5 8.3 7
v -9.5 8.4 7.1
v -9.5 8.4 6.9
v -9.5 8.5 7.1
v -9.5 8.5 7
v -9.5 8.9 7.1
v -9.5 8.9 7
v -9.5 8.9 6.9
v -9.4 5.4 7.4
v -9.4 5.4 7.3
v -9.4 5.4 6.7
v -9.4 5.4 6.6
v -9.4 5.6 7.4
v -9.4 5.6 7.3
v -9.4 5.6 7.2
v -9.4 5.6 6.8
v -9.4 5.6 6.7
v -9.4 5.6 6.6
v -9.4 5.7 7.2
v -9.4 5.8 6.8
v -9.4 5.8 6.7
v -9.4 5.9 6.8
v -9.4 6.2 7.2
v -9.4 6.2 6.8
v -9.4 6.2 6.7
v -9.4 6.3 6.8
v -9.4 6.7 7.3
v -9.4 6.7 7.2
v -9.4 6.7 7.1
v -9.4 6.7 7
v -9.4 6.7 6.9
v -9.4 6.7 6.8
v -9.4 6.7 6.7
v -9.4 6.8 7.1
v -9.4 6.8 7
v -9.4 6.9 7
v -9.4 6.9 6.9
v -9.4 7.2 7.1
v -9.4 7.2 7
v -9.4 7.7 7
v -9.4 7.7 6.9
v -9.4 7.9 7.1
v -9.4 7.9 7
v -9.4 7.9 6.9
v -9.4 8.9 7.2
v -9.4 8.9 7
v -9.4 8.9 6.8
v -9.4 9 7.3
v -9.4 9 7.2
v -9.4 9 7.1
v -9.4 9 7
v -9.4 9 6.8
v -9.4 9 6.7
v -9.4 9.1 7.3
v -9.4 9.1 7.2
v -9.4 9.2 6.8
v -9.4 9.2 6.7
v -9.4 9.3 7.3
v -9.4 9.3 7.2
v -9.4 9.3 6.8
v -9.4 9.4 7.3
v -9.4 9.4 7.2
v -9.4 9.4 7.1
v -9.4 9.4 6.8
v -9.4 9.4 6.7
v -9.4 9.5 7.2
v -9.4 9.5 6.8
v -9.3 5.4 7.3
v -9.3 5.4 7.2
v -9.3 5.4 6.8
v -9.3 5.4 6.7
v -9.3 5.6 7.3
v -9.3 5.6 7.2
v -9.3 5.6 6.9
v -9.3 5.6 6.8
v -9.3 5.6 6.7
v -9.3 5.7 7.2
v -9.3 5.7 7.1
v -9.3 5.9 6.9
v -9.3 5.9 6.8
v -9.3 6.2 7.2
v -9.3 6.2 7.1
v -9.3 6.2 7
v -9.3 6.2 6.9
v -9.3 6.3 6.9
v -9.3 6.3 6.8
v -9.3 6.4 7.1
v -9.3 6.4 7
v -9.3 6.4 6.9
v -9.3 6.6 7
v -9.3 6.6 6.9
v -9.3 6.7 7.2
v -9.3 6.7 7.1
v -9.3 6.7 6.9
v -9.3 6.7 6.8
v -9.3 9 7.2
v -9.3 9 7.1
v -9.3 9 7
v -9.3 9 6.8
v -9.3 9.1 7.1
v -9.3 9.1 7
v -9.3 9.2 7.1
v -9.3 9.2 7
v -9.3 9.3 7
v -9.3 9.3 6.8
v -9.3 9.4 7.2
v -9.3 9.4 7.1
v -9.3 9.4 6.8
v -9.2 5.4 7.2
v -9.2 5.4 6.8
v -9.2 5.6 7.2
v -9.2 5.6 6.8
v -9.8 5.4 7.4
v -9.8 5.6 7.4
v -9.4 5.4 7.4
v -9.4 5.6 7.4
v -9.9 5.4 7.3
v -9.9 5.6 7.3
v -9.8 5.4 7.3
v -9.8 5.6 7.3
v -9.8 6.2 7.3
v -9.8 6.5 7.3
v -9.8 6.7 7.3
v -9.8 9 7.3
v -9.8 9.4 7.3
v -9.7 6.1 7.3
v -9.7 6.2 7.3
v -9.7 6.5 7.3
v -9.7 9 7.3
v -9.7 9.1 7.3
v -9.6 5.6 7.3
v -9.6 6.1 7.3
v -9.6 6.2 7.3
v -9.6 6.5 7.3
v -9.6 9 7.3
v -9.6 9.1 7.3
v -9.5 5.6 7.3
v -9.5 6.2 7.3
v -9.5 9 7.3
v -9.5 9.1 7.3
v -9.5 9.3 7.3
v -9.5 9.4 7.3
v -9.4 5.4 7.3
v -9.4 5.6 7.3
v -9.4 6.7 7.3
v -9.4 9 7.3
v -9.4 9.1 7.3
v -9.4 9.3 7.3
v -9.4 9.4 7.3
v -9.3 5.4 7.3
v -9.3 5.6 7.3
v -10 5.4 7.2
v -10 5.6 7.2
v -9.9 5.4 7.2
v -9.9 5.6 7.2
v -9.9 6.5 7.2
v -9.9 6.7 7.2
v -9.9 9 7.2
v -9.9 9.2 7.2
v -9.9 9.3 7.2
v -9.9 9.4 7.2
v -9.8 5.6 7.2
v -9.8 6.2 7.2
v -9.8 6.5 7.2
v -9.8 6.7 7.2
v -9.8 8.9 7.2
v -9.8 9 7.2
v -9.8 9.2 7.2
v -9.8 9.3 7.2
v -9.8 9.4 7.2
v -9.8 9.5 7.2
v -9.7 6.7 7.2
v -9.7 7.3 7.2
v -9.7 7.5 7.2
v -9.7 7.6 7.2
v -9.7 7.9 7.2
v -9.7 9 7.2
v -9.7 9.4 7.2
v -9.7 9.5 7.2
v -9.6 7.1 7.2
v -9.6 7.3 7.2
v -9.6 7.4 7.2
v -9.6 7.5 7.2
v -9.6 7.6 7.2
v -9.6 7.9 7.2
v -9.6 9 7.2
v -9.5 6.7 7.2
v -9.5 7.1 7.2
v -9.5 7.4 7.2
v -9.5 7.9 7.2
v -9.5 8.9 7.2
v -9.5 9 7.2
v -9.5 9.4 7.2
v -9.4 5.6 7.2
v -9.4 5.7 7.2
v -9.4 6.2 7.2
v -9.4 6.7 7.2
v -9.4 8.9 7.2
v -9.4 9 7.2
v -9.4 9.1 7.2
v -9.4 9.3 7.2
v -9.4 9.4 7.2
v -9.4 9.5 7.2
v -9.3 5.4 7.2
v -9.3 5.6 7.2
v -9.3 5.7 7.2
v -9.3 6.2 7.2
v -9.3 6.7 7.2
v -9.3 9 7.2
v -9.3 9.4 7.2
v -9.2 5.4 7.2
v -9.2 5.6 7.2
v -9.8 6.7 7.1
v -9.8 6.8 7.1
v -9.8 7.2 7.1
v -9.8 7.3 7.1
v -9.8 7.5 7.1
v -9.8 7.9 7.1
v -9.7 6.7 7.1
v -9.7 6.8 7.1
v -9.7 7.2 7.1
v -9.7 7.3 7.1
v -9.7 7.5 7.1
v -9.7 7.6 7.1
v -9.7 7.9 7.1
v -9.7 8.3 7.1
v -9.7 8.9 7.1
v -9.6 7.9 7.1
v -9.6 8.3 7.1
v -9.6 8.4 7.1
v -9.6 8.5 7.1
v -9.6 8.9 7.1
v -9.5 6.7 7.1
v -9.5 6.8 7.1
v -9.5 7.1 7.1
v -9.5 7.2 7.1
v -9.5 7.4 7.1
v -9.5 7.9 7.1
v -9.5 8.3 7.1
v -9.5 8.4 7.1
v -9.5 8.5 7.1
v -9.5 8.9 7.1
v -9.4 6.7 7.1
v -9.4 6.8 7.1
v -9.4 7.2 7.1
v -9.4 7.9 7.1
v -9.8 6.7 6.9
v -9.8 7 6.9
v -9.8 7.4 6.9
v -9.8 7.9 6.9
v -9.7 6.7 6.9
v -9.7 7 6.9
v -9.7 7.1 6.9
v -9.7 7.4 6.9
v -9.7 7.9 6.9
v -9.7 8.3 6.9
v -9.7 8.8 6.9
v -9.7 8.9 6.9
v -9.6 7.9 6.9
v -9.6 8.3 6.9
v -9.6 8.4 6.9
v -9.6 8.8 6.9
v -9.5 6.7 6.9
v -9.5 6.9 6.9
v -9.5 7.2 6.9
v -9.5 7.6 6.9
v -9.5 7.7 6.9
v -9.5 7.9 6.9
v -9.5 8.4 6.9
v -9.5 8.9 6.9
v -9.4 6.7 6.9
v -9.4 6.9 6.9
v -9.4 7.7 6.9
v -9.4 7.9 6.9
v -10 5.4 6.8
v -10 5.6 6.8
v -9.9 5.4 6.8
v -9.9 5.6 6.8
v -9.9 6.7 6.8
v -9.9 9 6.8
v -9.9 9.4 6.8
v -9.8 5.6 6.8
v -9.8 5.8 6.8
v -9.8 6.4 6.8
v -9.8 6.7 6.8
v -9.8 8.9 6.8
v -9.8 9 6.8
v -9.8 9.1 6.8
v -9.8 9.4 6.8
v -9.8 9.5 6.8
v -9.7 6.7 6.8
v -9.7 7.1 6.8
v -9.7 7.9 6.8
v -9.7 8.9 6.8
v -9.7 9 6.8
v -9.7 9.4 6.8
v -9.6 6.7 6.8
v -9.6 7.1 6.8
v -9.6 7.2 6.8
v -9.6 7.6 6.8
v -9.5 6.7 6.8
v -9.5 7.2 6.8
v -9.5 7.6 6.8
v -9.5 7.9 6.8
v -9.5 9 6.8
v -9.4 5.6 6.8
v -9.4 5.8 6.8
v -9.4 5.9 6.8
v -9.4 6.2 6.8
v -9.4 6.3 6.8
v -9.4 6.7 6.8
v -9.4 8.9 6.8
v -9.4 9 6.8
v -9.4 9.2 6.8
v -9.4 9.3 6.8
v -9.4 9.4 6.8
v -9.4 9.5 6.8
v -9.3 5.4 6.8
v -9.3 5.6 6.8
v -9.3 5.9 6.8
v -9.3 6.3 6.8
v -9.3 6.7 6.8
v -9.3 9 6.8
v -9.3 9.3 6.8
v -9.3 9.4 6.8
v -9.2 5.4 6.8
v -9.2 5.6 6.8
v -9.9 5.4 6.7
v -9.9 5.6 6.7
v -9.8 5.4 6.7
v -9.8 5.6 6.7
v -9.8 5.8 6.7
v -9.8 6.4 6.7
v -9.8 6.7 6.7
v -9.8 9 6.7
v -9.8 9.1 6.7
v -9.8 9.4 6.7
v -9.7 5.8 6.7
v -9.7 6.4 6.7
v -9.7 9.1 6.7
v -9.7 9.4 6.7
v -9.6 6.1 6.7
v -9.6 6.5 6.7
v -9.5 5.8 6.7
v -9.5 6.1 6.7
v -9.5 6.2 6.7
v -9.5 6.5 6.7
v -9.5 9 6.7
v -9.5 9.2 6.7
v -9.4 5.4 6.7
v -9.4 5.6 6.7
v -9.4 5.8 6.7
v -9.4 6.2 6.7
v -9.4 6.7 6.7
v -9.4 9 6.7
v -9.4 9.2 6.7
v -9.4 9.4 6.7
v -9.3 5.4 6.7
v -9.3 5.6 6.7
v -9.8 5.4 6.6
v -9.8 5.6 6.6
v -9.4 5.4 6.6
v -9.4 5.6 6.6
v -9.8 5.4 7.4
v -9.4 5.4 7.4
v -9.9 5.4 7.3
v -9.8 5.4 7.3
v -9.4 5.4 7.3
v -9.3 5.4 7.3
v -10 5.4 7.2
v -9.9 5.4 7.2
v -9.3 5.4 7.2
v -9.2 5.4 7.2
v -10 5.4 6.8
v -9.9 5.4 6.8
v -9.3 5.4 6.8
v -9.2 5.4 6.8
v -9.9 5.4 6.7
v -9.8 5.4 6.7
v -9.4 5.4 6.7
v -9.3 5.4 6.7
v -9.8 5.4 6.6
v -9.4 5.4 6.6
v -9.8 8.9 7.2
v -9.5 8.9 7.2
v -9.4 8.9 7.2
v -9.8 8.9 7.1
v -9.7 8.9 7.1
v -9.6 8.9 7.1
v -9.5 8.9 7.1
v -9.5 8.9 7
v -9.4 8.9 7
v -9.7 8.9 6.9
v -9.5 8.9 6.9
v -9.8 8.9 6.8
v -9.7 8.9 6.8
v -9.4 8.9 6.8
v -9.8 9 7.3
v -9.7 9 7.3
v -9.6 9 7.3
v -9.5 9 7.3
v -9.4 9 7.3
v -9.9 9 7.2
v -9.8 9 7.2
v -9.7 9 7.2
v -9.6 9 7.2
v -9.5 9 7.2
v -9.4 9 7.2
v -9.3 9 7.2
v -9.9 9 7.1
v -9.8 9 7.1
v -9.4 9 7.1
v -9.3 9 7.1
v -9.4 9 7
v -9.3 9 7
v -9.9 9 6.8
v -9.8 9 6.8
v -9.7 9 6.8
v -9.5 9 6.8
v -9.4 9 6.8
v -9.3 9 6.8
v -9.8 9 6.7
v -9.5 9 6.7
v -9.4 9 6.7
v -9.8 5.6 7.4
v -9.4 5.6 7.4
v -9.9 5.6 7.3
v -9.8 5.6 7.3
v -9.6 5.6 7.3
v -9.5 5.6 7.3
v -9.4 5.6 7.3
v -9.3 5.6 7.3
v -10 5.6 7.2
v -9.9 5.6 7.2
v -9.8 5.6 7.2
v -9.4 5.6 7.2
v -9.3 5.6 7.2
v -9.2 5.6 7.2
v -9.9 5.6 7.1
v -9.9 5.6 7
v -9.3 5.6 6.9
v -10 5.6 6.8
v -9.9 5.6 6.8
v -9.8 5.6 6.8
v -9.4 5.6 6.8
v -9.3 5.6 6.8
v -9.2 5.6 6.8
v -9.9 5.6 6.7
v -9.8 5.6 6.7
v -9.4 5.6 6.7
v -9.3 5.6 6.7
v -9.8 5.6 6.6
v -9.4 5.6 6.6
v -9.8 6.7 7.3
v -9.4 6.7 7.3
v -9.9 6.7 7.2
v -9.8 6.7 7.2
v -9.7 6.7 7.2
v -9.5 6.7 7.2
v -9.4 6.7 7.2
v -9.3 6.7 7.2
v -9.9 6.7 7.1
v -9.8 6.7 7.1
v -9.7 6.7 7.1
v -9.5 6.7 7.1
v -9.4 6.7 7.1
v -9.3 6.7 7.1
v -9.4 6.7 7
v -9.8 6.7 6.9
v -9.7 6.7 6.9
v -9.5 6.7 6.9
v -9.4 6.7 6.9
v -9.3 6.7 6.9
v -9.9 6.7 6.8
v -9.8 6.7 6.8
v -9.7 6.7 6.8
v -9.6 6.7 6.8
v -9.5 6.7 6.8
v -9.4 6.7 6.8
v -9.3 6.7 6.8
v -9.8 6.7 6.7
v -9.4 6.7 6.7
v -9.7 7.9 7.2
v -9.6 7.9 7.2
v -9.5 7.9 7.2
v -9.8 7.9 7.1
v -9.7 7.9 7.1
v -9.6 7.9 7.1
v -9.5 7.9 7.1
v -9.4 7.9 7.1
v -9.7 7.9 7
v -9.5 7.9 7
v -9.4 7.9 7
v -9.8 7.9 6.9
v -9.7 7.9 6.9
v -9.6 7.9 6.9
v -9.5 7.9 6.9
v -9.4 7.9 6.9
v -9.7 7.9 6.8
v -9.5 7.9 6.8
v -9.8 9.4 7.3
v -9.5 9.4 7.3
v -9.4 9.4 7.3
v -9.9 9.4 7.2
v -9.8 9.4 7.2
v -9.7 9.4 7.2
v -9.5 9.4 7.2
v -9.4 9.4 7.2
v -9.3 9.4 7.2
v -9.8 9.4 7.1
v -9.4 9.4 7.1
v -9.3 9.4 7.1
v -9.9 9.4 7
v -9.8 9.4 7
v -9.9 9.4 6.8
v -9.8 9.4 6.8
v -9.7 9.4 6.8
v -9.4 9.4 6.8
v -9.3 9.4 6.8
v -9.8 9.4 6.7
v -9.7 9.4 6.7
v -9.4 9.4 6.7
v -9.8 9.5 7.2
v -9.7 9.5 7.2
v -9.4 9.5 7.2
v -9.8 9.5 7.1
v -9.7 9.5 7.1
v -9.8 9.5 6.8
v -9.4 9.5 6.8

# faces
f 3/3/1 2/3/1 1/3/1
f 4/3/1 2/3/1 3/3/1
f 9/3/1 6/3/1 5/3/1
f 10/3/1 6/3/1 9/3/1
f 13/3/1 8/3/1 7/3/1
f 14/3/1 8/3/1 13/3/1
f 15/4/1 12/4/1 11/4/1
f 15/5/1 13/5/1 12/5/1
f 16/5/1 13/5/1 15/5/1
f 17/5/1 11/5/1 10/5/1
f 17/4/1 15/4/1 11/4/1
f 17/4/1 16/4/1 15/4/1
f 18/4/1 16/4/1 17/4/1
f 19/5/1 18/5/1 17/5/1
f 19/4/1 16/4/1 18/4/1
f 20/5/1 13/5/1 16/5/1
f 20/4/1 16/4/1 19/4/1
f 21/5/1 19/5/1 17/5/1
f 21/5/1 17/5/1 10/5/1
f 21/5/1 20/5/1 19/5/1
f 22/5/1 20/5/1 21/5/1
f 23/6/1 22/6/1 21/6/1
f 24/5/1 20/5/1 22/5/1
f 24/6/1 22/6/1 23/6/1
f 25/5/1 13/5/1 20/5/1
f 25/5/1 20/5/1 24/5/1
f 29/1/1 27/1/1 26/1/1
f 29/2/1 28/2/1 27/2/1
f 30/2/1 28/2/1 29/2/1
f 31/1/1 29/1/1 26/1/1
f 31/1/1 30/1/1 29/1/1
f 32/1/1 30/1/1 31/1/1
f 33/2/1 32/2/1 31/2/1
f 34/1/1 30/1/1 32/1/1
f 34/2/1 32/2/1 33/2/1
f 35/1/1 34/1/1 33/1/1
f 36/2/1 28/2/1 30/2/1
f 36/1/1 34/1/1 35/1/1
f 36/1/1 30/1/1 34/1/1
f 37/2/1 28/2/1 36/2/1
f 42/3/1 39/3/1 38/3/1
f 43/3/1 39/3/1 42/3/1
f 46/3/1 41/3/1 40/3/1
f 47/3/1 41/3/1 46/3/1
f 48/5/1 46/5/1 45/5/1
f 49/5/1 46/5/1 48/5/1
f 50/5/1 44/5/1 43/5/1
f 51/5/1 44/5/1 50/5/1
f 52/6/1 49/6/1 48/6/1
f 53/6/1 49/6/1 52/6/1
f 54/6/1 51/6/1 50/6/1
f 55/6/1 51/6/1 54/6/1
f 56/5/1 55/5/1 54/5/1
f 57/5/1 55/5/1 56/5/1
f 60/5/1 53/5/1 52/5/1
f 61/5/1 53/5/1 60/5/1
f 62/5/1 59/5/1 58/5/1
f 63/5/1 59/5/1 62/5/1
f 64/6/1 63/6/1 62/6/1
f 64/5/1 59/5/1 63/5/1
f 65/5/1 59/5/1 64/5/1
f 66/6/1 64/6/1 62/6/1
f 67/4/1 65/4/1 64/4/1
f 67/6/1 64/6/1 66/6/1
f 68/5/1 67/5/1 66/5/1
f 69/4/1 65/4/1 67/4/1
f 69/5/1 67/5/1 68/5/1
f 70/4/1 69/4/1 68/4/1
f 70/4/1 65/4/1 69/4/1
f 71/4/1 65/4/1 70/4/1
f 72/4/1 70/4/1 68/4/1
f 73/5/1 71/5/1 70/5/1
f 73/4/1 70/4/1 72/4/1
f 74/5/1 73/5/1 72/5/1
f 75/5/1 71/5/1 73/5/1
f 75/5/1 73/5/1 74/5/1
f 80/1/1 77/1/1 76/1/1
f 81/2/1 78/2/1 77/2/1
f 81/1/1 77/1/1 80/1/1
f 82/2/1 78/2/1 81/2/1
f 84/2/1 83/2/1 82/2/1
f 85/2/1 83/2/1 84/2/1
f 86/2/1 80/2/1 79/2/1
f 87/2/1 86/2/1 79/2/1
f 88/2/1 87/2/1 79/2/1
f 89/2/1 87/2/1 88/2/1
f 92/1/1 85/1/1 84/1/1
f 93/1/1 85/1/1 92/1/1
f 94/1/1 90/1/1 89/1/1
f 95/2/1 91/2/1 90/2/1
f 95/1/1 90/1/1 94/1/1
f 95/2/1 92/2/1 91/2/1
f 96/2/1 92/2/1 95/2/1
f 101/5/1 98/5/1 97/5/1
f 102/4/1 100/4/1 99/4/1
f 103/4/1 100/4/1 102/4/1
f 104/4/1 100/4/1 103/4/1
f 105/5/1 101/5/1 97/5/1
f 106/5/1 105/5/1 97/5/1
f 107/5/1 105/5/1 106/5/1
f 108/5/1 104/5/1 103/5/1
f 109/4/1 107/4/1 106/4/1
f 110/4/1 107/4/1 109/4/1
f 111/5/1 110/5/1 109/5/1
f 112/5/1 110/5/1 111/5/1
f 113/4/1 112/4/1 111/4/1
f 114/4/1 112/4/1 113/4/1
f 116/5/1 104/5/1 108/5/1
f 117/5/1 104/5/1 116/5/1
f 118/4/1 115/4/1 114/4/1
f 119/5/1 116/5/1 115/5/1
f 119/4/1 115/4/1 118/4/1
f 120/5/1 116/5/1 119/5/1
f 121/5/1 119/5/1 118/5/1
f 121/6/1 120/6/1 119/6/1
f 122/6/1 120/6/1 121/6/1
f 123/5/1 121/5/1 118/5/1
f 123/5/1 122/5/1 121/5/1
f 124/5/1 122/5/1 123/5/1
f 125/5/2 126/5/2 129/5/2
f 127/5/2 128/5/2 130/5/2
f 125/5/2 129/5/2 131/5/2
f 131/5/2 129/5/2 132/5/2
f 131/4/2 132/4/2 133/4/2
f 130/5/2 128/5/2 134/5/2
f 134/5/2 128/5/2 135/5/2
f 131/4/2 133/4/2 136/4/2
f 136/4/2 133/4/2 137/4/2
f 134/6/2 135/6/2 138/6/2
f 138/6/2 135/6/2 139/6/2
f 138/5/2 139/5/2 140/5/2
f 136/5/2 137/5/2 141/5/2
f 141/5/2 137/5/2 142/5/2
f 140/5/2 139/5/2 144/5/2
f 144/5/2 139/5/2 145/5/2
f 142/5/2 143/5/2 146/5/2
f 143/4/2 144/4/2 147/4/2
f 146/5/2 143/5/2 147/5/2
f 146/4/2 147/4/2 148/4/2
f 147/4/2 144/4/2 149/4/2
f 148/4/2 147/4/2 149/4/2
f 148/5/2 149/5/2 150/5/2
f 150/5/2 149/5/2 151/5/2
f 150/6/2 151/6/2 152/6/2
f 151/5/2 149/5/2 153/5/2
f 152/6/2 151/6/2 153/6/2
f 153/5/2 149/5/2 154/5/2
f 155/3/2 156/3/2 159/3/2
f 159/3/2 156/3/2 160/3/2
f 157/3/2 158/3/2 163/3/2
f 163/3/2 158/3/2 164/3/2
f 160/5/2 161/5/2 165/5/2
f 162/5/2 163/5/2 166/5/2
f 166/5/2 163/5/2 167/5/2
f 166/4/2 167/4/2 168/4/2
f 160/5/2 165/5/2 169/5/2
f 168/4/2 167/4/2 170/4/2
f 170/4/2 167/4/2 171/4/2
f 170/5/2 171/5/2 172/5/2
f 160/5/2 169/5/2 173/5/2
f 173/5/2 169/5/2 174/5/2
f 172/5/2 171/5/2 178/5/2
f 178/5/2 171/5/2 179/5/2
f 175/5/2 176/5/2 180/5/2
f 176/4/2 177/4/2 181/4/2
f 180/5/2 176/5/2 181/5/2
f 180/4/2 181/4/2 182/4/2
f 181/4/2 177/4/2 182/4/2
f 182/4/2 177/4/2 183/4/2
f 180/4/2 182/4/2 184/4/2
f 182/5/2 183/5/2 185/5/2
f 184/4/2 182/4/2 185/4/2
f 184/5/2 185/5/2 186/5/2
f 185/5/2 183/5/2 186/5/2
f 186/5/2 183/5/2 187/5/2
f 184/5/2 186/5/2 188/5/2
f 186/4/2 187/4/2 189/4/2
f 188/5/2 186/5/2 189/5/2
f 189/4/2 187/4/2 190/4/2
f 191/2/2 192/2/2 195/2/2
f 195/2/2 192/2/2 196/2/2
f 192/1/2 193/1/2 197/1/2
f 196/2/2 192/2/2 197/2/2
f 197/1/2 193/1/2 198/1/2
f 194/1/2 195/1/2 200/1/2
f 200/1/2 195/1/2 201/1/2
f 198/1/2 199/1/2 202/1/2
f 202/1/2 199/1/2 203/1/2
f 200/2/2 201/2/2 204/2/2
f 204/2/2 201/2/2 205/2/2
f 202/2/2 203/2/2 206/2/2
f 204/1/2 205/1/2 207/1/2
f 207/1/2 205/1/2 208/1/2
f 206/2/2 203/2/2 210/2/2
f 210/2/2 203/2/2 211/2/2
f 208/2/2 209/2/2 212/2/2
f 209/2/2 210/2/2 212/2/2
f 212/2/2 210/2/2 213/2/2
f 214/3/2 215/3/2 218/3/2
f 218/3/2 215/3/2 219/3/2
f 216/3/2 217/3/2 221/3/2
f 221/3/2 217/3/2 222/3/2
f 219/5/2 220/5/2 223/5/2
f 223/5/2 220/5/2 224/5/2
f 220/4/2 221/4/2 225/4/2
f 224/5/2 220/5/2 225/5/2
f 225/4/2 221/4/2 226/4/2
f 223/6/2 224/6/2 227/6/2
f 224/5/2 225/5/2 228/5/2
f 227/6/2 224/6/2 228/6/2
f 228/5/2 225/5/2 229/5/2
f 225/6/2 226/6/2 230/6/2
f 229/5/2 225/5/2 230/5/2
f 229/6/2 230/6/2 231/6/2
f 230/6/2 226/6/2 231/6/2
f 231/6/2 226/6/2 232/6/2
f 228/5/2 229/5/2 233/5/2
f 227/5/2 228/5/2 233/5/2
f 229/6/2 231/6/2 234/6/2
f 233/5/2 229/5/2 234/5/2
f 231/5/2 232/5/2 235/5/2
f 234/6/2 231/6/2 235/6/2
f 233/4/2 234/4/2 236/4/2
f 234/5/2 235/5/2 236/5/2
f 235/5/2 232/5/2 237/5/2
f 236/5/2 235/5/2 237/5/2
f 227/5/2 233/5/2 238/5/2
f 233/4/2 236/4/2 239/4/2
f 238/5/2 233/5/2 239/5/2
f 236/4/2 237/4/2 239/4/2
f 237/5/2 232/5/2 240/5/2
f 239/4/2 237/4/2 240/4/2
f 240/5/2 232/5/2 241/5/2
f 242/1/2 243/1/2 246/1/2
f 243/2/2 244/2/2 246/2/2
f 244/1/2 245/1/2 247/1/2
f 246/2/2 244/2/2 247/2/2
f 242/1/2 246/1/2 248/1/2
f 246/1/2 247/1/2 248/1/2
f 247/1/2 245/1/2 249/1/2
f 248/1/2 247/1/2 249/1/2
f 248/2/2 249/2/2 250/2/2
f 249/1/2 245/1/2 250/1/2
f 250/1/2 245/1/2 251/1/2
f 242/1/2 248/1/2 252/1/2
f 248/2/2 250/2/2 253/2/2
f 252/1/2 248/1/2 253/1/2
f 250/2/2 251/2/2 253/2/2
f 253/2/2 251/2/2 254/2/2
f 255/3/2 256/3/2 257/3/2
f 257/3/2 256/3/2 258/3/2
f 261/3/3 260/3/3 259/3/3
f 262/3/3 260/3/3 261/3/3
f 265/3/3 264/3/3 263/3/3
f 266/3/3 264/3/3 265/3/3
f 272/5/3 267/5/3 266/5/3
f 273/6/3 268/6/3 267/6/3
f 273/5/3 267/5/3 272/5/3
f 274/5/3 269/5/3 268/5/3
f 274/6/3 268/6/3 273/6/3
f 275/2/3 271/2/3 270/2/3
f 276/2/3 271/2/3 275/2/3
f 277/5/3 272/5/3 266/5/3
f 278/4/3 273/4/3 272/4/3
f 278/5/3 272/5/3 277/5/3
f 278/4/3 274/4/3 273/4/3
f 279/4/3 274/4/3 278/4/3
f 280/5/3 269/5/3 274/5/3
f 280/4/3 274/4/3 279/4/3
f 281/1/3 276/1/3 275/1/3
f 282/2/3 271/2/3 276/2/3
f 282/1/3 276/1/3 281/1/3
f 283/4/3 279/4/3 278/4/3
f 283/4/3 278/4/3 277/4/3
f 284/5/3 280/5/3 279/5/3
f 284/4/3 279/4/3 283/4/3
f 285/2/3 282/2/3 281/2/3
f 286/2/3 271/2/3 282/2/3
f 286/2/3 282/2/3 285/2/3
f 287/2/3 271/2/3 286/2/3
f 288/2/3 271/2/3 287/2/3
f 290/5/3 284/5/3 283/5/3
f 291/5/3 269/5/3 280/5/3
f 291/5/3 280/5/3 284/5/3
f 291/5/3 284/5/3 290/5/3
f 292/1/3 286/1/3 285/1/3
f 293/2/3 287/2/3 286/2/3
f 293/1/3 286/1/3 292/1/3
f 294/1/3 288/1/3 287/1/3
f 294/2/3 287/2/3 293/2/3
f 295/1/3 288/1/3 294/1/3
f 296/3/3 290/3/3 289/3/3
f 297/3/3 290/3/3 296/3/3
f 300/3/3 299/3/3 298/3/3
f 301/3/3 299/3/3 300/3/3
f 308/5/3 302/5/3 301/5/3
f 309/5/3 302/5/3 308/5/3
f 310/6/3 303/6/3 302/6/3
f 310/5/3 302/5/3 309/5/3
f 311/6/3 303/6/3 310/6/3
f 313/1/3 305/1/3 304/1/3
f 314/2/3 306/2/3 305/2/3
f 314/1/3 305/1/3 313/1/3
f 315/1/3 307/1/3 306/1/3
f 315/2/3 306/2/3 314/2/3
f 316/1/3 307/1/3 315/1/3
f 323/1/3 313/1/3 312/1/3
f 324/1/3 317/1/3 316/1/3
f 325/1/3 317/1/3 324/1/3
f 326/5/3 319/5/3 318/5/3
f 327/4/3 320/4/3 319/4/3
f 327/5/3 319/5/3 326/5/3
f 328/4/3 320/4/3 327/4/3
f 329/5/3 321/5/3 320/5/3
f 329/4/3 320/4/3 328/4/3
f 330/4/3 322/4/3 321/4/3
f 330/5/3 321/5/3 329/5/3
f 331/4/3 322/4/3 330/4/3
f 332/1/3 323/1/3 312/1/3
f 333/5/3 326/5/3 318/5/3
f 334/4/3 328/4/3 327/4/3
f 334/5/3 326/5/3 333/5/3
f 334/4/3 327/4/3 326/4/3
f 335/5/3 331/5/3 330/5/3
f 335/4/3 328/4/3 334/4/3
f 335/5/3 329/5/3 328/5/3
f 335/5/3 330/5/3 329/5/3
f 336/5/3 331/5/3 335/5/3
f 337/1/3 332/1/3 312/1/3
f 338/1/3 332/1/3 337/1/3
f 339/2/3 325/2/3 324/2/3
f 344/2/3 338/2/3 337/2/3
f 345/2/3 338/2/3 344/2/3
f 348/2/3 325/2/3 339/2/3
f 349/2/3 325/2/3 348/2/3
f 351/5/3 341/5/3 340/5/3
f 352/6/3 342/6/3 341/6/3
f 352/5/3 341/5/3 351/5/3
f 353/5/3 343/5/3 342/5/3
f 353/6/3 342/6/3 352/6/3
f 354/5/3 343/5/3 353/5/3
f 355/1/3 347/1/3 346/1/3
f 355/1/3 348/1/3 347/1/3
f 355/1/3 346/1/3 345/1/3
f 356/1/3 348/1/3 355/1/3
f 357/3/3 351/3/3 350/3/3
f 358/3/3 351/3/3 357/3/3
f 365/5/3 360/5/3 359/5/3
f 366/6/3 361/6/3 360/6/3
f 366/5/3 360/5/3 365/5/3
f 367/5/3 362/5/3 361/5/3
f 367/6/3 361/6/3 366/6/3
f 368/4/3 363/4/3 362/4/3
f 368/5/3 362/5/3 367/5/3
f 369/5/3 364/5/3 363/5/3
f 369/4/3 363/4/3 368/4/3
f 370/5/3 364/5/3 369/5/3
f 371/5/3 364/5/3 370/5/3
f 374/4/3 372/4/3 371/4/3
f 375/5/3 373/5/3 372/5/3
f 375/4/3 372/4/3 374/4/3
f 376/5/3 373/5/3 375/5/3
f 377/5/3 373/5/3 376/5/3
f 378/5/3 373/5/3 377/5/3
f 384/5/3 375/5/3 374/5/3
f 385/4/3 376/4/3 375/4/3
f 385/5/3 375/5/3 384/5/3
f 386/5/3 377/5/3 376/5/3
f 386/4/3 376/4/3 385/4/3
f 387/6/3 378/6/3 377/6/3
f 387/5/3 377/5/3 386/5/3
f 388/6/3 378/6/3 387/6/3
f 389/5/3 380/5/3 379/5/3
f 390/4/3 382/4/3 381/4/3
f 390/5/3 380/5/3 389/5/3
f 390/4/3 381/4/3 380/4/3
f 391/5/3 383/5/3 382/5/3
f 391/4/3 382/4/3 390/4/3
f 391/5/3 384/5/3 383/5/3
f 392/5/3 384/5/3 391/5/3
f 393/5/4 394/5/4 397/5/4
f 394/4/4 395/4/4 398/4/4
f 397/5/4 394/5/4 398/5/4
f 398/4/4 395/4/4 399/4/4
f 395/5/4 396/5/4 400/5/4
f 399/4/4 395/4/4 400/4/4
f 400/5/4 396/5/4 401/5/4
f 401/5/4 402/5/4 405/5/4
f 402/6/4 403/6/4 406/6/4
f 405/5/4 402/5/4 406/5/4
f 406/6/4 403/6/4 407/6/4
f 403/5/4 404/5/4 408/5/4
f 407/6/4 403/6/4 408/6/4
f 406/4/4 407/4/4 414/4/4
f 405/4/4 406/4/4 414/4/4
f 407/5/4 408/5/4 415/5/4
f 414/4/4 407/4/4 415/4/4
f 408/5/4 404/5/4 416/5/4
f 415/5/4 408/5/4 416/5/4
f 409/4/4 410/4/4 417/4/4
f 412/5/4 413/5/4 418/5/4
f 417/4/4 410/4/4 418/4/4
f 411/5/4 412/5/4 418/5/4
f 410/5/4 411/5/4 418/5/4
f 413/4/4 414/4/4 419/4/4
f 418/5/4 413/5/4 419/5/4
f 419/4/4 414/4/4 420/4/4
f 421/3/4 422/3/4 423/3/4
f 423/3/4 422/3/4 424/3/4
f 424/5/4 425/5/4 428/5/4
f 428/5/4 425/5/4 429/5/4
f 429/5/4 425/5/4 430/5/4
f 430/5/4 425/5/4 431/5/4
f 426/2/4 427/2/4 433/2/4
f 433/2/4 427/2/4 434/2/4
f 434/2/4 427/2/4 435/2/4
f 432/2/4 433/2/4 440/2/4
f 440/2/4 433/2/4 441/2/4
f 435/2/4 436/2/4 442/2/4
f 437/4/4 438/4/4 443/4/4
f 438/5/4 439/5/4 444/5/4
f 443/4/4 438/4/4 444/4/4
f 444/5/4 439/5/4 445/5/4
f 445/5/4 439/5/4 446/5/4
f 443/5/4 444/5/4 447/5/4
f 444/5/4 445/5/4 447/5/4
f 445/6/4 446/6/4 448/6/4
f 447/5/4 445/5/4 448/5/4
f 446/5/4 439/5/4 449/5/4
f 448/6/4 446/6/4 449/6/4
f 449/5/4 439/5/4 450/5/4
f 440/1/4 441/1/4 451/1/4
f 440/1/4 451/1/4 458/1/4
f 458/1/4 451/1/4 459/1/4
f 442/2/4 436/2/4 462/2/4
f 462/2/4 436/2/4 463/2/4
f 452/4/4 453/4/4 465/4/4
f 453/4/4 454/4/4 465/4/4
f 454/6/4 455/6/4 466/6/4
f 455/6/4 456/6/4 466/6/4
f 465/4/4 454/4/4 466/4/4
f 456/5/4 457/5/4 467/5/4
f 466/6/4 456/6/4 467/6/4
f 467/5/4 457/5/4 468/5/4
f 460/1/4 461/1/4 469/1/4
f 459/1/4 460/1/4 469/1/4
f 461/2/4 462/2/4 470/2/4
f 469/1/4 461/1/4 470/1/4
f 470/2/4 462/2/4 471/2/4
f 464/3/4 465/3/4 472/3/4
f 472/3/4 465/3/4 473/3/4
f 474/3/4 475/3/4 476/3/4
f 476/3/4 475/3/4 477/3/4
f 477/5/4 478/5/4 484/5/4
f 478/6/4 479/6/4 484/6/4
f 479/5/4 480/5/4 485/5/4
f 484/6/4 479/6/4 485/6/4
f 482/1/4 483/1/4 486/1/4
f 481/2/4 482/2/4 486/2/4
f 486/1/4 483/1/4 487/1/4
f 484/5/4 485/5/4 488/5/4
f 485/5/4 480/5/4 489/5/4
f 488/5/4 485/5/4 489/5/4
f 484/5/4 488/5/4 490/5/4
f 477/5/4 484/5/4 490/5/4
f 488/4/4 489/4/4 491/4/4
f 490/5/4 488/5/4 491/5/4
f 491/4/4 489/4/4 492/4/4
f 489/5/4 480/5/4 493/5/4
f 492/4/4 489/4/4 493/4/4
f 481/2/4 486/2/4 494/2/4
f 486/2/4 487/2/4 494/2/4
f 494/2/4 487/2/4 495/2/4
f 477/5/4 490/5/4 497/5/4
f 491/4/4 492/4/4 498/4/4
f 490/4/4 491/4/4 498/4/4
f 497/5/4 490/5/4 498/5/4
f 492/5/4 493/5/4 499/5/4
f 498/4/4 492/4/4 499/4/4
f 493/5/4 480/5/4 500/5/4
f 499/5/4 493/5/4 500/5/4
f 494/1/4 495/1/4 501/1/4
f 495/2/4 487/2/4 502/2/4
f 501/1/4 495/1/4 502/1/4
f 502/2/4 487/2/4 503/2/4
f 496/3/4 497/3/4 504/3/4
f 504/3/4 497/3/4 505/3/4
f 506/3/4 507/3/4 508/3/4
f 508/3/4 507/3/4 509/3/4
f 513/3/5 511/3/5 510/3/5
f 514/3/5 511/3/5 513/3/5
f 517/3/5 513/3/5 512/3/5
f 517/3/5 515/3/5 514/3/5
f 517/3/5 514/3/5 513/3/5
f 518/3/5 515/3/5 517/3/5
f 520/3/5 517/3/5 516/3/5
f 520/3/5 519/3/5 518/3/5
f 520/3/5 518/3/5 517/3/5
f 521/3/5 519/3/5 520/3/5
f 522/3/5 519/3/5 521/3/5
f 523/3/5 519/3/5 522/3/5
f 524/3/5 522/3/5 521/3/5
f 525/3/5 522/3/5 524/3/5
f 526/3/5 522/3/5 525/3/5
f 527/3/5 522/3/5 526/3/5
f 528/3/5 526/3/5 525/3/5
f 529/3/5 526/3/5 528/3/5
f 533/1/5 531/1/5 530/1/5
f 534/1/5 531/1/5 533/1/5
f 535/1/5 531/1/5 534/1/5
f 536/2/5 532/2/5 531/2/5
f 536/1/5 531/1/5 535/1/5
f 537/2/5 532/2/5 536/2/5
f 538/2/5 532/2/5 537/2/5
f 539/2/5 534/2/5 533/2/5
f 540/1/5 538/1/5 537/1/5
f 541/2/5 539/2/5 533/2/5
f 542/1/5 540/1/5 539/1/5
f 542/2/5 539/2/5 541/2/5
f 543/1/5 538/1/5 540/1/5
f 543/1/5 540/1/5 542/1/5
f 550/2/5 545/2/5 544/2/5
f 551/1/5 546/1/5 545/1/5
f 551/2/5 545/2/5 550/2/5
f 552/2/5 547/2/5 546/2/5
f 552/1/5 546/1/5 551/1/5
f 553/1/5 548/1/5 547/1/5
f 553/2/5 547/2/5 552/2/5
f 554/1/5 548/1/5 553/1/5
f 556/1/5 550/1/5 549/1/5
f 557/1/5 550/1/5 556/1/5
f 558/1/5 555/1/5 554/1/5
f 559/1/5 555/1/5 558/1/5
f 560/2/5 559/2/5 558/2/5
f 561/2/5 559/2/5 560/2/5
f 562/2/5 557/2/5 556/2/5
f 563/2/5 557/2/5 562/2/5
f 566/1/5 561/1/5 560/1/5
f 567/1/5 561/1/5 566/1/5
f 568/2/5 565/2/5 564/2/5
f 568/2/5 564/2/5 563/2/5
f 569/1/5 566/1/5 565/1/5
f 569/2/5 565/2/5 568/2/5
f 570/1/5 566/1/5 569/1/5
f 571/3/6 572/3/6 574/3/6
f 574/3/6 572/3/6 575/3/6
f 575/3/6 572/3/6 576/3/6
f 576/3/6 572/3/6 577/3/6
f 573/3/6 574/3/6 580/3/6
f 580/3/6 574/3/6 581/3/6
f 577/3/6 578/3/6 582/3/6
f 582/3/6 578/3/6 583/3/6
f 579/3/6 580/3/6 585/3/6
f 579/3/6 585/3/6 586/3/6
f 583/3/6 584/3/6 587/3/6
f 579/3/6 586/3/6 588/3/6
f 588/3/6 586/3/6 589/3/6
f 587/3/6 584/3/6 592/3/6
f 592/3/6 584/3/6 593/3/6
f 589/3/6 590/3/6 594/3/6
f 594/3/6 590/3/6 595/3/6
f 591/3/6 592/3/6 596/3/6
f 596/3/6 592/3/6 597/3/6
f 595/3/6 596/3/6 598/3/6
f 598/3/6 596/3/6 599/3/6
f 600/5/6 601/5/6 603/5/6
f 603/5/6 601/5/6 604/5/6
f 604/5/6 601/5/6 605/5/6
f 605/5/6 601/5/6 606/5/6
f 602/6/6 603/6/6 608/6/6
f 603/6/6 604/6/6 608/6/6
f 608/6/6 604/6/6 609/6/6
f 609/6/6 604/6/6 610/6/6
f 606/5/6 607/5/6 611/5/6
f 605/5/6 606/5/6 611/5/6
f 611/5/6 607/5/6 612/5/6
f 612/5/6 607/5/6 613/5/6
f 612/4/6 613/4/6 614/4/6
f 608/5/6 609/5/6 615/5/6
f 614/4/6 613/4/6 618/4/6
f 618/4/6 613/4/6 619/4/6
f 615/5/6 616/5/6 620/5/6
f 608/5/6 615/5/6 620/5/6
f 620/5/6 616/5/6 621/5/6
f 621/5/6 616/5/6 622/5/6
f 618/5/6 619/5/6 624/5/6
f 617/5/6 618/5/6 624/5/6
f 624/5/6 619/5/6 625/5/6
f 625/5/6 619/5/6 626/5/6
f 622/5/6 623/5/6 627/5/6
f 621/5/6 622/5/6 627/5/6
f 624/5/6 625/5/6 627/5/6
f 623/5/6 624/5/6 627/5/6
f 627/5/6 625/5/6 628/5/6
f 629/4/6 630/4/6 633/4/6
f 630/5/6 631/5/6 634/5/6
f 633/4/6 630/4/6 634/4/6
f 634/5/6 631/5/6 635/5/6
f 632/5/6 633/5/6 637/5/6
f 635/5/6 636/5/6 638/5/6
f 638/5/6 636/5/6 639/5/6
f 632/5/6 637/5/6 640/5/6
f 640/5/6 637/5/6 641/5/6
f 638/4/6 639/4/6 643/4/6
f 643/4/6 639/4/6 644/4/6
f 641/5/6 642/5/6 645/5/6
f 642/5/6 643/5/6 645/5/6
f 645/5/6 643/5/6 646/5/6
f 647/2/6 648/2/6 651/2/6
f 651/2/6 648/2/6 652/2/6
f 648/1/6 649/1/6 653/1/6
f 652/2/6 648/2/6 653/2/6
f 653/1/6 649/1/6 654/1/6
f 650/1/6 651/1/6 656/1/6
f 654/1/6 655/1/6 657/1/6
f 657/1/6 655/1/6 658/1/6
f 650/1/6 656/1/6 659/1/6
f 659/1/6 656/1/6 660/1/6
f 659/2/6 660/2/6 661/2/6
f 661/2/6 660/2/6 662/2/6
f 657/2/6 658/2/6 664/2/6
f 664/2/6 658/2/6 665/2/6
f 662/1/6 663/1/6 666/1/6
f 663/2/6 664/2/6 667/2/6
f 666/1/6 663/1/6 667/1/6
f 667/2/6 664/2/6 668/2/6
f 669/1/6 670/1/6 672/1/6
f 670/2/6 671/2/6 673/2/6
f 672/1/6 670/1/6 673/1/6
f 672/2/6 673/2/6 674/2/6
f 673/2/6 671/2/6 675/2/6
f 674/2/6 673/2/6 675/2/6
