# MagicaVoxel @ Ephtracy

# group
o 

# material
mtllib auto.mtl
usemtl palette

# normals
vn -1 0 0
vn 1 0 0
vn 0 0 1
vn 0 0 -1
vn 0 -1 0
vn 0 1 0

# texcoords
vt 0.458984 0.5
vt 0.650391 0.5
vt 0.802734 0.5
vt 0.888672 0.5
vt 0.923828 0.5
vt 0.927734 0.5
vt 0.951172 0.5

# verts
v -3.4 5.2 6.2
v -3.4 5.2 6
v -3.4 5.2 5.5
v -3.4 5.2 5.3
v -3.4 5.3 6.2
v -3.4 5.3 6
v -3.4 5.3 5.5
v -3.4 5.3 5.3
v -3.4 5.4 6.2
v -3.4 5.4 6
v -3.4 5.4 5.5
v -3.4 5.4 5.3
v -3.4 5.5 6.2
v -3.4 5.5 6
v -3.4 5.5 5.5
v -3.4 5.5 5.3
v -3.3 5.1 6.3
v -3.3 5.1 6.2
v -3.3 5.1 5.3
v -3.3 5.1 5.2
v -3.3 5.2 6.2
v -3.3 5.2 5.3
v -3.3 5.3 6.2
v -3.3 5.3 5.3
v -3.3 5.4 6.3
v -3.3 5.4 6.2
v -3.3 5.4 6
v -3.3 5.4 5.5
v -3.3 5.4 5.3
v -3.3 5.4 5.2
v -3.3 5.5 6
v -3.3 5.5 5.5
v -3.2 5.5 6.1
v -3.2 5.5 5.4
v -3.2 5.6 6.1
v -3.2 5.6 5.4
v -3.1 5.6 6.1
v -3.1 5.6 6
v -3.1 5.6 5.5
v -3.1 5.6 5.4
v -3.1 5.8 6.1
v -3.1 5.8 6
v -3.1 5.8 5.5
v -3.1 5.8 5.4
v -3.1 5.9 6
v -3.1 5.9 5.5
v -3 5.8 6.1
v -3 5.8 6
v -3 5.8 5.5
v -3 5.8 5.4
v -3 5.9 6.1
v -3 5.9 6
v -3 5.9 5.5
v -3 5.9 5.4
v -3 6 6
v -3 6 5.5
v -2.2 5.1 6.3
v -2.2 5.1 6.2
v -2.2 5.1 5.3
v -2.2 5.1 5.2
v -2.2 5.2 6.2
v -2.2 5.2 5.3
v -2.2 5.4 6.3
v -2.2 5.4 6.2
v -2.2 5.4 6.1
v -2.2 5.4 5.4
v -2.2 5.4 5.3
v -2.2 5.4 5.2
v -2.2 5.5 6.2
v -2.2 5.5 6.1
v -2.2 5.5 5.4
v -2.2 5.5 5.3
v -3 5.1 6.3
v -3 5.1 6.2
v -3 5.1 5.3
v -3 5.1 5.2
v -3 5.2 6.2
v -3 5.2 5.3
v -3 5.4 6.3
v -3 5.4 6.2
v -3 5.4 6.1
v -3 5.4 5.4
v -3 5.4 5.3
v -3 5.4 5.2
v -3 5.5 6.2
v -3 5.5 6.1
v -3 5.5 5.4
v -3 5.5 5.3
v -2.1 5.8 6.1
v -2.1 5.8 6
v -2.1 5.8 5.5
v -2.1 5.8 5.4
v -2.1 5.9 6.1
v -2.1 5.9 6
v -2.1 5.9 5.5
v -2.1 5.9 5.4
v -2.1 6 6
v -2.1 6 5.5
v -2 5.5 6.1
v -2 5.5 6
v -2 5.5 5.5
v -2 5.5 5.4
v -2 5.8 6.1
v -2 5.8 6
v -2 5.8 5.5
v -2 5.8 5.4
v -2 5.9 6
v -2 5.9 5.5
v -1.9 5.1 6.3
v -1.9 5.1 6.2
v -1.9 5.1 5.3
v -1.9 5.1 5.2
v -1.9 5.2 6.2
v -1.9 5.2 5.3
v -1.9 5.3 6.2
v -1.9 5.3 5.3
v -1.9 5.4 6.3
v -1.9 5.4 6.2
v -1.9 5.4 6
v -1.9 5.4 5.5
v -1.9 5.4 5.3
v -1.9 5.4 5.2
v -1.9 5.5 6.2
v -1.9 5.5 6
v -1.9 5.5 5.5
v -1.9 5.5 5.3
v -1.9 5.8 6
v -1.9 5.8 5.5
v -1.8 5.2 6.2
v -1.8 5.2 6
v -1.8 5.2 5.5
v -1.8 5.2 5.3
v -1.8 5.3 6.2
v -1.8 5.3 6
v -1.8 5.3 5.5
v -1.8 5.3 5.3
v -1.8 5.4 6.2
v -1.8 5.4 6
v -1.8 5.4 5.5
v -1.8 5.4 5.3
v -3.3 5.1 6.3
v -3.3 5.4 6.3
v -3.2 5.2 6.3
v -3.2 5.3 6.3
v -3.1 5.2 6.3
v -3.1 5.3 6.3
v -3 5.1 6.3
v -3 5.4 6.3
v -2.2 5.1 6.3
v -2.2 5.4 6.3
v -2.1 5.2 6.3
v -2.1 5.3 6.3
v -2 5.2 6.3
v -2 5.3 6.3
v -1.9 5.1 6.3
v -1.9 5.4 6.3
v -3.4 5.2 6.2
v -3.4 5.3 6.2
v -3.4 5.4 6.2
v -3.4 5.5 6.2
v -3.3 5.2 6.2
v -3.3 5.3 6.2
v -3.3 5.4 6.2
v -3 5.2 6.2
v -3 5.4 6.2
v -3 5.5 6.2
v -2.2 5.2 6.2
v -2.2 5.4 6.2
v -2.2 5.5 6.2
v -1.9 5.2 6.2
v -1.9 5.3 6.2
v -1.9 5.4 6.2
v -1.9 5.5 6.2
v -1.8 5.2 6.2
v -1.8 5.3 6.2
v -1.8 5.4 6.2
v -3.2 5.5 6.1
v -3.2 5.6 6.1
v -3.1 5.6 6.1
v -3.1 5.8 6.1
v -3 5.4 6.1
v -3 5.5 6.1
v -3 5.6 6.1
v -3 5.7 6.1
v -3 5.8 6.1
v -3 5.9 6.1
v -2.9 5.7 6.1
v -2.9 5.8 6.1
v -2.6 5.6 6.1
v -2.6 5.8 6.1
v -2.5 5.6 6.1
v -2.5 5.8 6.1
v -2.2 5.4 6.1
v -2.2 5.5 6.1
v -2.2 5.7 6.1
v -2.2 5.8 6.1
v -2.1 5.6 6.1
v -2.1 5.7 6.1
v -2.1 5.8 6.1
v -2.1 5.9 6.1
v -2 5.5 6.1
v -2 5.8 6.1
v -3.1 5.8 6
v -3.1 5.9 6
v -3 5.8 6
v -3 5.9 6
v -3 6 6
v -2.1 5.8 6
v -2.1 5.9 6
v -2.1 6 6
v -2 5.5 6
v -2 5.8 6
v -2 5.9 6
v -1.9 5.5 6
v -1.9 5.8 6
v -3.4 5.4 5.5
v -3.4 5.5 5.5
v -3.3 5.4 5.5
v -3.3 5.5 5.5
v -3.3 5.1 5.3
v -3.3 5.2 5.3
v -3 5.1 5.3
v -3 5.2 5.3
v -2.2 5.1 5.3
v -2.2 5.2 5.3
v -1.9 5.1 5.3
v -1.9 5.2 5.3
v -3.3 5.1 6.2
v -3.3 5.2 6.2
v -3 5.1 6.2
v -3 5.2 6.2
v -2.2 5.1 6.2
v -2.2 5.2 6.2
v -1.9 5.1 6.2
v -1.9 5.2 6.2
v -3.4 5.4 6
v -3.4 5.5 6
v -3.3 5.4 6
v -3.3 5.5 6
v -3.1 5.8 5.5
v -3.1 5.9 5.5
v -3 5.8 5.5
v -3 5.9 5.5
v -3 6 5.5
v -2.1 5.8 5.5
v -2.1 5.9 5.5
v -2.1 6 5.5
v -2 5.5 5.5
v -2 5.8 5.5
v -2 5.9 5.5
v -1.9 5.5 5.5
v -1.9 5.8 5.5
v -3.2 5.5 5.4
v -3.2 5.6 5.4
v -3.1 5.6 5.4
v -3.1 5.8 5.4
v -3 5.4 5.4
v -3 5.5 5.4
v -3 5.6 5.4
v -3 5.7 5.4
v -3 5.8 5.4
v -3 5.9 5.4
v -2.9 5.7 5.4
v -2.9 5.8 5.4
v -2.6 5.6 5.4
v -2.6 5.8 5.4
v -2.5 5.6 5.4
v -2.5 5.8 5.4
v -2.2 5.4 5.4
v -2.2 5.5 5.4
v -2.2 5.7 5.4
v -2.2 5.8 5.4
v -2.1 5.6 5.4
v -2.1 5.7 5.4
v -2.1 5.8 5.4
v -2.1 5.9 5.4
v -2 5.5 5.4
v -2 5.8 5.4
v -3.4 5.2 5.3
v -3.4 5.3 5.3
v -3.4 5.4 5.3
v -3.4 5.5 5.3
v -3.3 5.2 5.3
v -3.3 5.3 5.3
v -3.3 5.4 5.3
v -3 5.2 5.3
v -3 5.4 5.3
v -3 5.5 5.3
v -2.2 5.2 5.3
v -2.2 5.4 5.3
v -2.2 5.5 5.3
v -1.9 5.2 5.3
v -1.9 5.3 5.3
v -1.9 5.4 5.3
v -1.9 5.5 5.3
v -1.8 5.2 5.3
v -1.8 5.3 5.3
v -1.8 5.4 5.3
v -3.3 5.1 5.2
v -3.3 5.4 5.2
v -3.2 5.2 5.2
v -3.2 5.3 5.2
v -3.1 5.2 5.2
v -3.1 5.3 5.2
v -3 5.1 5.2
v -3 5.4 5.2
v -2.2 5.1 5.2
v -2.2 5.4 5.2
v -2.1 5.2 5.2
v -2.1 5.3 5.2
v -2 5.2 5.2
v -2 5.3 5.2
v -1.9 5.1 5.2
v -1.9 5.4 5.2
v -3.3 5.1 6.3
v -3 5.1 6.3
v -2.2 5.1 6.3
v -1.9 5.1 6.3
v -3.3 5.1 6.2
v -3 5.1 6.2
v -2.2 5.1 6.2
v -1.9 5.1 6.2
v -3.3 5.1 5.3
v -3 5.1 5.3
v -2.2 5.1 5.3
v -1.9 5.1 5.3
v -3.3 5.1 5.2
v -3 5.1 5.2
v -2.2 5.1 5.2
v -1.9 5.1 5.2
v -3.4 5.2 6.2
v -3.3 5.2 6.2
v -3 5.2 6.2
v -2.2 5.2 6.2
v -1.9 5.2 6.2
v -1.8 5.2 6.2
v -3.3 5.2 6.1
v -3.2 5.2 6.1
v -3 5.2 6.1
v -2.2 5.2 6.1
v -3.4 5.2 6
v -3.3 5.2 6
v -1.9 5.2 6
v -1.8 5.2 6
v -3.4 5.2 5.5
v -3.3 5.2 5.5
v -1.9 5.2 5.5
v -1.8 5.2 5.5
v -3.3 5.2 5.4
v -3.2 5.2 5.4
v -3 5.2 5.4
v -2.2 5.2 5.4
v -3.4 5.2 5.3
v -3.3 5.2 5.3
v -3 5.2 5.3
v -2.2 5.2 5.3
v -1.9 5.2 5.3
v -1.8 5.2 5.3
v -3.3 5.4 6.3
v -3 5.4 6.3
v -2.2 5.4 6.3
v -1.9 5.4 6.3
v -3.3 5.4 6.2
v -3 5.4 6.2
v -2.2 5.4 6.2
v -1.9 5.4 6.2
v -1.8 5.4 6.2
v -3 5.4 6.1
v -2.2 5.4 6.1
v -3.4 5.4 6
v -3.3 5.4 6
v -1.9 5.4 6
v -1.8 5.4 6
v -3.4 5.4 5.5
v -3.3 5.4 5.5
v -1.9 5.4 5.5
v -1.8 5.4 5.5
v -3 5.4 5.4
v -2.2 5.4 5.4
v -3.3 5.4 5.3
v -3 5.4 5.3
v -2.2 5.4 5.3
v -1.9 5.4 5.3
v -1.8 5.4 5.3
v -3.3 5.4 5.2
v -3 5.4 5.2
v -2.2 5.4 5.2
v -1.9 5.4 5.2
v -3.4 5.5 6.2
v -3 5.5 6.2
v -2.2 5.5 6.2
v -1.9 5.5 6.2
v -3.2 5.5 6.1
v -3 5.5 6.1
v -2.2 5.5 6.1
v -2 5.5 6.1
v -3.4 5.5 6
v -3.3 5.5 6
v -2 5.5 6
v -1.9 5.5 6
v -3.4 5.5 5.5
v -3.3 5.5 5.5
v -2 5.5 5.5
v -1.9 5.5 5.5
v -3.2 5.5 5.4
v -3 5.5 5.4
v -2.2 5.5 5.4
v -2 5.5 5.4
v -3.4 5.5 5.3
v -3 5.5 5.3
v -2.2 5.5 5.3
v -1.9 5.5 5.3
v -3.2 5.6 6.1
v -3.1 5.6 6.1
v -3.1 5.6 6
v -3.1 5.6 5.5
v -3.2 5.6 5.4
v -3.1 5.6 5.4
v -3.1 5.8 6.1
v -3 5.8 6.1
v -2.1 5.8 6.1
v -2 5.8 6.1
v -3.1 5.8 6
v -3 5.8 6
v -2.1 5.8 6
v -2 5.8 6
v -1.9 5.8 6
v -3.1 5.8 5.5
v -3 5.8 5.5
v -2.1 5.8 5.5
v -2 5.8 5.5
v -1.9 5.8 5.5
v -3.1 5.8 5.4
v -3 5.8 5.4
v -2.1 5.8 5.4
v -2 5.8 5.4
v -3 5.9 6.1
v -2.1 5.9 6.1
v -3.1 5.9 6
v -3 5.9 6
v -2.1 5.9 6
v -2 5.9 6
v -3.1 5.9 5.5
v -3 5.9 5.5
v -2.1 5.9 5.5
v -2 5.9 5.5
v -3 5.9 5.4
v -2.1 5.9 5.4
v -3 6 6
v -2.1 6 6
v -3 6 5.5
v -2.1 6 5.5

# faces
f 5/4/1 2/4/1 1/4/1
f 6/5/1 3/5/1 2/5/1
f 6/4/1 2/4/1 5/4/1
f 7/4/1 4/4/1 3/4/1
f 7/5/1 3/5/1 6/5/1
f 8/4/1 4/4/1 7/4/1
f 9/2/1 6/2/1 5/2/1
f 10/4/1 7/4/1 6/4/1
f 10/2/1 6/2/1 9/2/1
f 11/2/1 8/2/1 7/2/1
f 11/4/1 7/4/1 10/4/1
f 12/2/1 8/2/1 11/2/1
f 13/4/1 10/4/1 9/4/1
f 14/4/1 10/4/1 13/4/1
f 15/4/1 12/4/1 11/4/1
f 16/4/1 12/4/1 15/4/1
f 21/7/1 18/7/1 17/7/1
f 22/7/1 20/7/1 19/7/1
f 23/7/1 21/7/1 17/7/1
f 24/7/1 20/7/1 22/7/1
f 25/7/1 23/7/1 17/7/1
f 26/7/1 23/7/1 25/7/1
f 29/7/1 20/7/1 24/7/1
f 30/7/1 20/7/1 29/7/1
f 31/4/1 28/4/1 27/4/1
f 32/4/1 28/4/1 31/4/1
f 35/7/1 34/7/1 33/7/1
f 36/7/1 34/7/1 35/7/1
f 41/7/1 38/7/1 37/7/1
f 42/3/1 39/3/1 38/3/1
f 42/7/1 38/7/1 41/7/1
f 43/7/1 40/7/1 39/7/1
f 43/3/1 39/3/1 42/3/1
f 44/7/1 40/7/1 43/7/1
f 45/7/1 43/7/1 42/7/1
f 46/7/1 43/7/1 45/7/1
f 51/7/1 48/7/1 47/7/1
f 52/7/1 48/7/1 51/7/1
f 53/7/1 50/7/1 49/7/1
f 54/7/1 50/7/1 53/7/1
f 55/7/1 53/7/1 52/7/1
f 56/7/1 53/7/1 55/7/1
f 61/7/1 58/7/1 57/7/1
f 62/7/1 60/7/1 59/7/1
f 63/7/1 61/7/1 57/7/1
f 64/7/1 61/7/1 63/7/1
f 67/7/1 60/7/1 62/7/1
f 68/7/1 60/7/1 67/7/1
f 69/4/1 65/4/1 64/4/1
f 70/4/1 65/4/1 69/4/1
f 71/4/1 67/4/1 66/4/1
f 72/4/1 67/4/1 71/4/1
f 73/7/2 74/7/2 77/7/2
f 75/7/2 76/7/2 78/7/2
f 73/7/2 77/7/2 79/7/2
f 79/7/2 77/7/2 80/7/2
f 78/7/2 76/7/2 83/7/2
f 83/7/2 76/7/2 84/7/2
f 80/4/2 81/4/2 85/4/2
f 85/4/2 81/4/2 86/4/2
f 82/4/2 83/4/2 87/4/2
f 87/4/2 83/4/2 88/4/2
f 89/7/2 90/7/2 93/7/2
f 93/7/2 90/7/2 94/7/2
f 91/7/2 92/7/2 95/7/2
f 95/7/2 92/7/2 96/7/2
f 94/7/2 95/7/2 97/7/2
f 97/7/2 95/7/2 98/7/2
f 99/7/2 100/7/2 103/7/2
f 103/7/2 100/7/2 104/7/2
f 101/7/2 102/7/2 105/7/2
f 105/7/2 102/7/2 106/7/2
f 104/7/2 105/7/2 107/7/2
f 107/7/2 105/7/2 108/7/2
f 109/7/2 110/7/2 113/7/2
f 111/7/2 112/7/2 114/7/2
f 109/7/2 113/7/2 115/7/2
f 114/7/2 112/7/2 116/7/2
f 109/7/2 115/7/2 117/7/2
f 117/7/2 115/7/2 118/7/2
f 116/7/2 112/7/2 121/7/2
f 121/7/2 112/7/2 122/7/2
f 119/4/2 120/4/2 123/4/2
f 120/4/2 121/4/2 123/4/2
f 118/4/2 119/4/2 123/4/2
f 123/4/2 121/4/2 124/4/2
f 124/4/2 121/4/2 125/4/2
f 125/4/2 121/4/2 126/4/2
f 124/7/2 125/7/2 127/7/2
f 127/7/2 125/7/2 128/7/2
f 129/4/2 130/4/2 133/4/2
f 130/5/2 131/5/2 134/5/2
f 133/4/2 130/4/2 134/4/2
f 131/4/2 132/4/2 135/4/2
f 134/5/2 131/5/2 135/5/2
f 135/4/2 132/4/2 136/4/2
f 133/1/2 134/1/2 137/1/2
f 134/4/2 135/4/2 138/4/2
f 137/1/2 134/1/2 138/1/2
f 135/1/2 136/1/2 139/1/2
f 138/4/2 135/4/2 139/4/2
f 139/1/2 136/1/2 140/1/2
f 143/7/3 142/7/3 141/7/3
f 144/7/3 142/7/3 143/7/3
f 145/7/3 143/7/3 141/7/3
f 145/6/3 144/6/3 143/6/3
f 146/7/3 142/7/3 144/7/3
f 146/6/3 144/6/3 145/6/3
f 147/7/3 145/7/3 141/7/3
f 147/7/3 146/7/3 145/7/3
f 148/7/3 142/7/3 146/7/3
f 148/7/3 146/7/3 147/7/3
f 151/7/3 150/7/3 149/7/3
f 152/7/3 150/7/3 151/7/3
f 153/7/3 151/7/3 149/7/3
f 153/6/3 152/6/3 151/6/3
f 154/7/3 150/7/3 152/7/3
f 154/6/3 152/6/3 153/6/3
f 155/7/3 153/7/3 149/7/3
f 155/7/3 154/7/3 153/7/3
f 156/7/3 150/7/3 154/7/3
f 156/7/3 154/7/3 155/7/3
f 161/4/3 158/4/3 157/4/3
f 162/2/3 159/2/3 158/2/3
f 162/4/3 158/4/3 161/4/3
f 163/4/3 160/4/3 159/4/3
f 163/2/3 159/2/3 162/2/3
f 165/4/3 160/4/3 163/4/3
f 166/4/3 160/4/3 165/4/3
f 167/4/3 165/4/3 164/4/3
f 168/4/3 165/4/3 167/4/3
f 172/4/3 169/4/3 168/4/3
f 173/4/3 169/4/3 172/4/3
f 174/4/3 171/4/3 170/4/3
f 175/1/3 172/1/3 171/1/3
f 175/4/3 171/4/3 174/4/3
f 176/1/3 172/1/3 175/1/3
f 179/7/3 178/7/3 177/7/3
f 182/7/3 179/7/3 177/7/3
f 182/7/3 180/7/3 179/7/3
f 183/7/3 180/7/3 182/7/3
f 184/7/3 180/7/3 183/7/3
f 185/7/3 180/7/3 184/7/3
f 187/3/3 184/3/3 183/3/3
f 187/7/3 186/7/3 185/7/3
f 187/7/3 185/7/3 184/7/3
f 188/7/3 186/7/3 187/7/3
f 189/7/3 183/7/3 182/7/3
f 189/3/3 187/3/3 183/3/3
f 189/3/3 188/3/3 187/3/3
f 190/7/3 186/7/3 188/7/3
f 190/3/3 188/3/3 189/3/3
f 191/7/3 189/7/3 182/7/3
f 191/7/3 190/7/3 189/7/3
f 192/7/3 186/7/3 190/7/3
f 192/7/3 190/7/3 191/7/3
f 193/4/3 182/4/3 181/4/3
f 194/7/3 191/7/3 182/7/3
f 194/4/3 182/4/3 193/4/3
f 195/3/3 192/3/3 191/3/3
f 196/7/3 186/7/3 192/7/3
f 196/3/3 192/3/3 195/3/3
f 197/3/3 195/3/3 191/3/3
f 197/7/3 191/7/3 194/7/3
f 198/7/3 196/7/3 195/7/3
f 198/3/3 195/3/3 197/3/3
f 199/7/3 186/7/3 196/7/3
f 199/7/3 196/7/3 198/7/3
f 200/7/3 186/7/3 199/7/3
f 201/7/3 198/7/3 197/7/3
f 201/7/3 197/7/3 194/7/3
f 201/7/3 199/7/3 198/7/3
f 202/7/3 199/7/3 201/7/3
f 205/7/3 204/7/3 203/7/3
f 206/7/3 204/7/3 205/7/3
f 209/7/3 207/7/3 206/7/3
f 210/7/3 207/7/3 209/7/3
f 212/7/3 209/7/3 208/7/3
f 213/7/3 209/7/3 212/7/3
f 214/7/3 212/7/3 211/7/3
f 215/7/3 212/7/3 214/7/3
f 218/4/3 217/4/3 216/4/3
f 219/4/3 217/4/3 218/4/3
f 222/7/3 221/7/3 220/7/3
f 223/7/3 221/7/3 222/7/3
f 226/7/3 225/7/3 224/7/3
f 227/7/3 225/7/3 226/7/3
f 228/7/4 229/7/4 230/7/4
f 230/7/4 229/7/4 231/7/4
f 232/7/4 233/7/4 234/7/4
f 234/7/4 233/7/4 235/7/4
f 236/4/4 237/4/4 238/4/4
f 238/4/4 237/4/4 239/4/4
f 240/7/4 241/7/4 242/7/4
f 242/7/4 241/7/4 243/7/4
f 243/7/4 244/7/4 246/7/4
f 246/7/4 244/7/4 247/7/4
f 245/7/4 246/7/4 249/7/4
f 249/7/4 246/7/4 250/7/4
f 248/7/4 249/7/4 251/7/4
f 251/7/4 249/7/4 252/7/4
f 253/7/4 254/7/4 255/7/4
f 253/7/4 255/7/4 258/7/4
f 255/7/4 256/7/4 258/7/4
f 258/7/4 256/7/4 259/7/4
f 259/7/4 256/7/4 260/7/4
f 260/7/4 256/7/4 261/7/4
f 259/3/4 260/3/4 263/3/4
f 261/7/4 262/7/4 263/7/4
f 260/7/4 261/7/4 263/7/4
f 263/7/4 262/7/4 264/7/4
f 258/7/4 259/7/4 265/7/4
f 259/3/4 263/3/4 265/3/4
f 263/3/4 264/3/4 265/3/4
f 264/7/4 262/7/4 266/7/4
f 265/3/4 264/3/4 266/3/4
f 258/7/4 265/7/4 267/7/4
f 265/7/4 266/7/4 267/7/4
f 266/7/4 262/7/4 268/7/4
f 267/7/4 266/7/4 268/7/4
f 257/4/4 258/4/4 269/4/4
f 258/7/4 267/7/4 270/7/4
f 269/4/4 258/4/4 270/4/4
f 267/3/4 268/3/4 271/3/4
f 268/7/4 262/7/4 272/7/4
f 271/3/4 268/3/4 272/3/4
f 267/3/4 271/3/4 273/3/4
f 270/7/4 267/7/4 273/7/4
f 271/7/4 272/7/4 274/7/4
f 273/3/4 271/3/4 274/3/4
f 272/7/4 262/7/4 275/7/4
f 274/7/4 272/7/4 275/7/4
f 275/7/4 262/7/4 276/7/4
f 273/7/4 274/7/4 277/7/4
f 270/7/4 273/7/4 277/7/4
f 274/7/4 275/7/4 277/7/4
f 277/7/4 275/7/4 278/7/4
f 279/4/4 280/4/4 283/4/4
f 280/2/4 281/2/4 284/2/4
f 283/4/4 280/4/4 284/4/4
f 281/4/4 282/4/4 285/4/4
f 284/2/4 281/2/4 285/2/4
f 285/4/4 282/4/4 287/4/4
f 287/4/4 282/4/4 288/4/4
f 286/4/4 287/4/4 289/4/4
f 289/4/4 287/4/4 290/4/4
f 290/4/4 291/4/4 294/4/4
f 294/4/4 291/4/4 295/4/4
f 292/4/4 293/4/4 296/4/4
f 293/1/4 294/1/4 297/1/4
f 296/4/4 293/4/4 297/4/4
f 297/1/4 294/1/4 298/1/4
f 299/7/4 300/7/4 301/7/4
f 301/7/4 300/7/4 302/7/4
f 299/7/4 301/7/4 303/7/4
f 301/6/4 302/6/4 303/6/4
f 302/7/4 300/7/4 304/7/4
f 303/6/4 302/6/4 304/6/4
f 299/7/4 303/7/4 305/7/4
f 303/7/4 304/7/4 305/7/4
f 304/7/4 300/7/4 306/7/4
f 305/7/4 304/7/4 306/7/4
f 307/7/4 308/7/4 309/7/4
f 309/7/4 308/7/4 310/7/4
f 307/7/4 309/7/4 311/7/4
f 309/6/4 310/6/4 311/6/4
f 310/7/4 308/7/4 312/7/4
f 311/6/4 310/6/4 312/6/4
f 307/7/4 311/7/4 313/7/4
f 311/7/4 312/7/4 313/7/4
f 312/7/4 308/7/4 314/7/4
f 313/7/4 312/7/4 314/7/4
f 319/7/5 316/7/5 315/7/5
f 320/7/5 316/7/5 319/7/5
f 321/7/5 318/7/5 317/7/5
f 322/7/5 318/7/5 321/7/5
f 327/7/5 324/7/5 323/7/5
f 328/7/5 324/7/5 327/7/5
f 329/7/5 326/7/5 325/7/5
f 330/7/5 326/7/5 329/7/5
f 337/4/5 332/4/5 331/4/5
f 337/7/5 333/7/5 332/7/5
f 338/7/5 333/7/5 337/7/5
f 339/4/5 334/4/5 333/4/5
f 339/7/5 333/7/5 338/7/5
f 340/7/5 335/7/5 334/7/5
f 340/4/5 334/4/5 339/4/5
f 341/4/5 338/4/5 337/4/5
f 341/4/5 337/4/5 331/4/5
f 342/4/5 338/4/5 341/4/5
f 343/4/5 336/4/5 335/4/5
f 343/7/5 339/7/5 338/7/5
f 343/7/5 335/7/5 340/7/5
f 343/7/5 340/7/5 339/7/5
f 344/4/5 336/4/5 343/4/5
f 345/5/5 342/5/5 341/5/5
f 346/4/5 338/4/5 342/4/5
f 346/5/5 342/5/5 345/5/5
f 347/7/5 343/7/5 338/7/5
f 347/5/5 344/5/5 343/5/5
f 348/5/5 344/5/5 347/5/5
f 349/4/5 338/4/5 346/4/5
f 349/4/5 346/4/5 345/4/5
f 350/7/5 347/7/5 338/7/5
f 350/4/5 338/4/5 349/4/5
f 351/7/5 347/7/5 350/7/5
f 352/7/5 347/7/5 351/7/5
f 353/4/5 349/4/5 345/4/5
f 354/7/5 350/7/5 349/7/5
f 354/4/5 349/4/5 353/4/5
f 354/7/5 351/7/5 350/7/5
f 355/4/5 352/4/5 351/4/5
f 355/7/5 351/7/5 354/7/5
f 356/7/5 347/7/5 352/7/5
f 356/4/5 352/4/5 355/4/5
f 357/4/5 348/4/5 347/4/5
f 357/7/5 347/7/5 356/7/5
f 358/4/5 348/4/5 357/4/5
f 359/7/6 360/7/6 363/7/6
f 363/7/6 360/7/6 364/7/6
f 361/7/6 362/7/6 365/7/6
f 365/7/6 362/7/6 366/7/6
f 364/4/6 365/4/6 368/4/6
f 368/4/6 365/4/6 369/4/6
f 366/1/6 367/1/6 372/1/6
f 372/1/6 367/1/6 373/1/6
f 370/4/6 371/4/6 374/4/6
f 374/4/6 371/4/6 375/4/6
f 372/4/6 373/4/6 376/4/6
f 376/4/6 373/4/6 377/4/6
f 378/4/6 379/4/6 381/4/6
f 381/4/6 379/4/6 382/4/6
f 376/1/6 377/1/6 383/1/6
f 383/1/6 377/1/6 384/1/6
f 380/7/6 381/7/6 385/7/6
f 385/7/6 381/7/6 386/7/6
f 382/7/6 383/7/6 387/7/6
f 387/7/6 383/7/6 388/7/6
f 389/4/6 390/4/6 393/4/6
f 393/4/6 390/4/6 394/4/6
f 391/4/6 392/4/6 395/4/6
f 395/4/6 392/4/6 396/4/6
f 389/4/6 393/4/6 397/4/6
f 397/4/6 393/4/6 398/4/6
f 396/4/6 392/4/6 399/4/6
f 399/4/6 392/4/6 400/4/6
f 398/4/6 393/4/6 402/4/6
f 402/4/6 393/4/6 405/4/6
f 401/4/6 402/4/6 405/4/6
f 403/4/6 404/4/6 408/4/6
f 405/4/6 406/4/6 409/4/6
f 401/4/6 405/4/6 409/4/6
f 409/4/6 406/4/6 410/4/6
f 407/4/6 408/4/6 411/4/6
f 408/4/6 404/4/6 412/4/6
f 411/4/6 408/4/6 412/4/6
f 413/7/6 414/7/6 415/7/6
f 413/7/6 415/7/6 416/7/6
f 413/7/6 416/7/6 417/7/6
f 417/7/6 416/7/6 418/7/6
f 419/7/6 420/7/6 423/7/6
f 423/7/6 420/7/6 424/7/6
f 421/7/6 422/7/6 425/7/6
f 425/7/6 422/7/6 426/7/6
f 426/7/6 427/7/6 431/7/6
f 431/7/6 427/7/6 432/7/6
f 428/7/6 429/7/6 433/7/6
f 433/7/6 429/7/6 434/7/6
f 430/7/6 431/7/6 435/7/6
f 435/7/6 431/7/6 436/7/6
f 437/7/6 438/7/6 440/7/6
f 440/7/6 438/7/6 441/7/6
f 439/7/6 440/7/6 443/7/6
f 443/7/6 440/7/6 444/7/6
f 441/7/6 442/7/6 445/7/6
f 445/7/6 442/7/6 446/7/6
f 444/7/6 445/7/6 447/7/6
f 447/7/6 445/7/6 448/7/6
f 449/7/6 450/7/6 451/7/6
f 451/7/6 450/7/6 452/7/6
