# MagicaVoxel @ Ephtracy

# group
o 

# material
mtllib barril desechos.mtl
usemtl palette

# normals
vn -1 0 0
vn 1 0 0
vn 0 0 1
vn 0 0 -1
vn 0 -1 0
vn 0 1 0

# texcoords
vt 0.646484 0.5
vt 0.650391 0.5
vt 0.919922 0.5
vt 0.923828 0.5
vt 0.947266 0.5

# verts
v -3.1 5.3 7.7
v -3.1 5.3 7.2
v -3.1 5.5 7.7
v -3.1 5.5 7.2
v -3.1 6.9 7.7
v -3.1 6.9 7.2
v -3.1 7.1 7.7
v -3.1 7.1 7.2
v -3 5.3 7.9
v -3 5.3 7.7
v -3 5.3 7.2
v -3 5.3 7
v -3 5.5 7.9
v -3 5.5 7.7
v -3 5.5 7.6
v -3 5.5 7.2
v -3 5.5 7
v -3 5.9 7.7
v -3 5.9 7.6
v -3 5.9 7.5
v -3 5.9 7.4
v -3 5.9 7.2
v -3 6 7.6
v -3 6 7.5
v -3 6 7.4
v -3 6 7.3
v -3 6.1 7.7
v -3 6.1 7.6
v -3 6.1 7.5
v -3 6.1 7.4
v -3 6.1 7.3
v -3 6.1 7.2
v -3 6.2 7.5
v -3 6.2 7.4
v -3 6.3 7.5
v -3 6.3 7.4
v -3 6.4 7.6
v -3 6.4 7.5
v -3 6.4 7.4
v -3 6.4 7.3
v -3 6.5 7.6
v -3 6.5 7.4
v -3 6.5 7.3
v -3 6.5 7.2
v -3 6.6 7.4
v -3 6.6 7.3
v -3 6.9 7.9
v -3 6.9 7.7
v -3 6.9 7.3
v -3 6.9 7.2
v -3 6.9 7
v -3 7.1 7.9
v -3 7.1 7.7
v -3 7.1 7.2
v -3 7.1 7
v -2.9 5.3 8
v -2.9 5.3 7.9
v -2.9 5.3 7
v -2.9 5.3 6.9
v -2.9 5.5 8
v -2.9 5.5 7.9
v -2.9 5.5 7.8
v -2.9 5.5 7.7
v -2.9 5.5 7.2
v -2.9 5.5 7.1
v -2.9 5.5 7
v -2.9 5.5 6.9
v -2.9 5.9 7.7
v -2.9 5.9 7.2
v -2.9 6.1 7.7
v -2.9 6.1 7.2
v -2.9 6.5 7.2
v -2.9 6.9 8
v -2.9 6.9 7.9
v -2.9 6.9 7.8
v -2.9 6.9 7.7
v -2.9 6.9 7.2
v -2.9 6.9 7.1
v -2.9 6.9 7
v -2.9 6.9 6.9
v -2.9 7.1 8
v -2.9 7.1 7.9
v -2.9 7.1 7
v -2.9 7.1 6.9
v -2.8 5.5 7.9
v -2.8 5.5 7.8
v -2.8 5.5 7.1
v -2.8 5.5 7
v -2.8 5.8 7.1
v -2.8 5.8 7
v -2.8 6.9 7.9
v -2.8 6.9 7.8
v -2.8 6.9 7.1
v -2.8 6.9 7
v -2.7 5.3 8.1
v -2.7 5.3 8
v -2.7 5.3 6.9
v -2.7 5.3 6.8
v -2.7 5.5 8.1
v -2.7 5.5 8
v -2.7 5.5 7.9
v -2.7 5.5 7
v -2.7 5.5 6.9
v -2.7 5.5 6.8
v -2.7 5.8 7
v -2.7 5.8 6.9
v -2.7 5.9 8
v -2.7 5.9 7.9
v -2.7 5.9 7
v -2.7 5.9 6.9
v -2.7 6.1 8
v -2.7 6.1 7.9
v -2.7 6.1 7
v -2.7 6.1 6.9
v -2.7 6.7 8
v -2.7 6.7 7.9
v -2.7 6.9 8.1
v -2.7 6.9 8
v -2.7 6.9 7.9
v -2.7 6.9 7
v -2.7 6.9 6.9
v -2.7 6.9 6.8
v -2.7 7.1 8.1
v -2.7 7.1 8
v -2.7 7.1 6.9
v -2.7 7.1 6.8
v -2.2 5.3 8.1
v -2.2 5.3 8
v -2.2 5.3 6.9
v -2.2 5.3 6.8
v -2.2 5.5 8.1
v -2.2 5.5 8
v -2.2 5.5 7.9
v -2.2 5.5 7
v -2.2 5.5 6.9
v -2.2 5.5 6.8
v -2.2 5.7 7
v -2.2 5.7 6.9
v -2.2 5.8 8
v -2.2 5.8 7.9
v -2.2 5.9 8
v -2.2 5.9 7.9
v -2.2 5.9 7
v -2.2 5.9 6.9
v -2.2 6.1 8
v -2.2 6.1 7.9
v -2.2 6.1 7
v -2.2 6.1 6.9
v -2.2 6.9 8.1
v -2.2 6.9 8
v -2.2 6.9 7.9
v -2.2 6.9 7
v -2.2 6.9 6.9
v -2.2 6.9 6.8
v -2.2 7.1 8.1
v -2.2 7.1 8
v -2.2 7.1 6.9
v -2.2 7.1 6.8
v -2.1 5.5 7.9
v -2.1 5.5 7.8
v -2.1 5.5 7.1
v -2.1 5.5 7
v -2.1 6.1 7.1
v -2.1 6.1 7
v -2.1 6.9 7.9
v -2.1 6.9 7.8
v -2.1 6.9 7.1
v -2.1 6.9 7
v -2 5.3 8
v -2 5.3 7.9
v -2 5.3 7
v -2 5.3 6.9
v -2 5.5 8
v -2 5.5 7.9
v -2 5.5 7.8
v -2 5.5 7.7
v -2 5.5 7.2
v -2 5.5 7.1
v -2 5.5 7
v -2 5.5 6.9
v -2 5.9 7.7
v -2 5.9 7.2
v -2 6.1 7.7
v -2 6.1 7.2
v -2 6.9 8
v -2 6.9 7.9
v -2 6.9 7.8
v -2 6.9 7.7
v -2 6.9 7.2
v -2 6.9 7.1
v -2 6.9 7
v -2 6.9 6.9
v -2 7.1 8
v -2 7.1 7.9
v -2 7.1 7
v -2 7.1 6.9
v -1.9 5.3 7.9
v -1.9 5.3 7.7
v -1.9 5.3 7.2
v -1.9 5.3 7
v -1.9 5.5 7.9
v -1.9 5.5 7.7
v -1.9 5.5 7.6
v -1.9 5.5 7.2
v -1.9 5.5 7
v -1.9 5.9 7.7
v -1.9 5.9 7.6
v -1.9 5.9 7.5
v -1.9 5.9 7.4
v -1.9 5.9 7.2
v -1.9 6 7.6
v -1.9 6 7.5
v -1.9 6 7.4
v -1.9 6 7.3
v -1.9 6.1 7.7
v -1.9 6.1 7.6
v -1.9 6.1 7.5
v -1.9 6.1 7.4
v -1.9 6.1 7.3
v -1.9 6.1 7.2
v -1.9 6.2 7.5
v -1.9 6.2 7.4
v -1.9 6.3 7.5
v -1.9 6.3 7.4
v -1.9 6.4 7.6
v -1.9 6.4 7.5
v -1.9 6.4 7.4
v -1.9 6.4 7.3
v -1.9 6.5 7.6
v -1.9 6.5 7.3
v -1.9 6.9 7.9
v -1.9 6.9 7.7
v -1.9 6.9 7.2
v -1.9 6.9 7
v -1.9 7.1 7.9
v -1.9 7.1 7.7
v -1.9 7.1 7.2
v -1.9 7.1 7
v -1.8 5.3 7.7
v -1.8 5.3 7.2
v -1.8 5.5 7.7
v -1.8 5.5 7.2
v -1.8 6.9 7.7
v -1.8 6.9 7.2
v -1.8 7.1 7.7
v -1.8 7.1 7.2
v -2.7 5.3 8.1
v -2.7 5.5 8.1
v -2.7 6.9 8.1
v -2.7 7.1 8.1
v -2.2 5.3 8.1
v -2.2 5.5 8.1
v -2.2 6.9 8.1
v -2.2 7.1 8.1
v -2.9 5.3 8
v -2.9 5.5 8
v -2.9 6.9 8
v -2.9 7.1 8
v -2.7 5.3 8
v -2.7 5.5 8
v -2.7 5.9 8
v -2.7 6.1 8
v -2.7 6.7 8
v -2.7 6.9 8
v -2.7 7.1 8
v -2.6 6 8
v -2.6 6.1 8
v -2.6 6.4 8
v -2.6 6.5 8
v -2.6 6.7 8
v -2.6 6.8 8
v -2.6 6.9 8
v -2.5 5.9 8
v -2.5 6 8
v -2.5 6.1 8
v -2.5 6.2 8
v -2.5 6.3 8
v -2.5 6.4 8
v -2.5 6.5 8
v -2.5 6.8 8
v -2.4 5.7 8
v -2.4 5.8 8
v -2.4 5.9 8
v -2.4 6 8
v -2.4 6.1 8
v -2.4 6.2 8
v -2.4 6.3 8
v -2.4 6.4 8
v -2.3 5.5 8
v -2.3 5.7 8
v -2.3 6 8
v -2.3 6.1 8
v -2.3 6.4 8
v -2.3 6.5 8
v -2.2 5.3 8
v -2.2 5.5 8
v -2.2 5.8 8
v -2.2 5.9 8
v -2.2 6.1 8
v -2.2 6.9 8
v -2.2 7.1 8
v -2 5.3 8
v -2 5.5 8
v -2 6.9 8
v -2 7.1 8
v -3 5.3 7.9
v -3 5.5 7.9
v -3 6.9 7.9
v -3 7.1 7.9
v -2.9 5.3 7.9
v -2.9 5.5 7.9
v -2.9 6.9 7.9
v -2.9 7.1 7.9
v -2.8 5.5 7.9
v -2.8 6.9 7.9
v -2.7 5.5 7.9
v -2.7 5.9 7.9
v -2.7 6.1 7.9
v -2.7 6.7 7.9
v -2.7 6.9 7.9
v -2.2 5.5 7.9
v -2.2 5.8 7.9
v -2.2 5.9 7.9
v -2.2 6.1 7.9
v -2.2 6.9 7.9
v -2.1 5.5 7.9
v -2.1 6.9 7.9
v -2 5.3 7.9
v -2 5.5 7.9
v -2 6.9 7.9
v -2 7.1 7.9
v -1.9 5.3 7.9
v -1.9 5.5 7.9
v -1.9 6.9 7.9
v -1.9 7.1 7.9
v -2.9 5.5 7.8
v -2.9 6.9 7.8
v -2.8 5.5 7.8
v -2.8 6.9 7.8
v -2.1 5.5 7.8
v -2.1 6.9 7.8
v -2 5.5 7.8
v -2 6.9 7.8
v -3.1 5.3 7.7
v -3.1 5.5 7.7
v -3.1 6.9 7.7
v -3.1 7.1 7.7
v -3 5.3 7.7
v -3 5.5 7.7
v -3 5.9 7.7
v -3 6.1 7.7
v -3 6.9 7.7
v -3 7.1 7.7
v -2.9 5.5 7.7
v -2.9 5.9 7.7
v -2.9 6.1 7.7
v -2.9 6.9 7.7
v -2 5.5 7.7
v -2 5.9 7.7
v -2 6.1 7.7
v -2 6.9 7.7
v -1.9 5.3 7.7
v -1.9 5.5 7.7
v -1.9 5.9 7.7
v -1.9 6.1 7.7
v -1.9 6.9 7.7
v -1.9 7.1 7.7
v -1.8 5.3 7.7
v -1.8 5.5 7.7
v -1.8 6.9 7.7
v -1.8 7.1 7.7
v -3.1 5.3 7.2
v -3.1 5.5 7.2
v -3.1 6.9 7.2
v -3.1 7.1 7.2
v -3 5.3 7.2
v -3 5.5 7.2
v -3 5.9 7.2
v -3 6.1 7.2
v -3 6.5 7.2
v -3 6.9 7.2
v -3 7.1 7.2
v -2.9 5.5 7.2
v -2.9 5.9 7.2
v -2.9 6.1 7.2
v -2.9 6.5 7.2
v -2.9 6.9 7.2
v -2 5.5 7.2
v -2 5.9 7.2
v -2 6.1 7.2
v -2 6.9 7.2
v -1.9 5.3 7.2
v -1.9 5.5 7.2
v -1.9 5.9 7.2
v -1.9 6.1 7.2
v -1.9 6.9 7.2
v -1.9 7.1 7.2
v -1.8 5.3 7.2
v -1.8 5.5 7.2
v -1.8 6.9 7.2
v -1.8 7.1 7.2
v -2.9 5.5 7.1
v -2.9 6.9 7.1
v -2.8 5.5 7.1
v -2.8 5.8 7.1
v -2.8 6.9 7.1
v -2.1 5.5 7.1
v -2.1 6.1 7.1
v -2.1 6.9 7.1
v -2 5.5 7.1
v -2 6.9 7.1
v -3 5.3 7
v -3 5.5 7
v -3 6.9 7
v -3 7.1 7
v -2.9 5.3 7
v -2.9 5.5 7
v -2.9 6.9 7
v -2.9 7.1 7
v -2.8 5.5 7
v -2.8 5.8 7
v -2.8 6.9 7
v -2.7 5.5 7
v -2.7 5.8 7
v -2.7 5.9 7
v -2.7 6.1 7
v -2.7 6.9 7
v -2.2 5.5 7
v -2.2 5.7 7
v -2.2 5.9 7
v -2.2 6.1 7
v -2.2 6.9 7
v -2.1 5.5 7
v -2.1 6.1 7
v -2.1 6.9 7
v -2 5.3 7
v -2 5.5 7
v -2 6.9 7
v -2 7.1 7
v -1.9 5.3 7
v -1.9 5.5 7
v -1.9 6.9 7
v -1.9 7.1 7
v -2.9 5.3 6.9
v -2.9 5.5 6.9
v -2.9 6.9 6.9
v -2.9 7.1 6.9
v -2.7 5.3 6.9
v -2.7 5.5 6.9
v -2.7 5.8 6.9
v -2.7 5.9 6.9
v -2.7 6.1 6.9
v -2.7 6.9 6.9
v -2.7 7.1 6.9
v -2.6 5.8 6.9
v -2.6 5.9 6.9
v -2.6 6 6.9
v -2.6 6.1 6.9
v -2.6 6.4 6.9
v -2.6 6.5 6.9
v -2.5 5.9 6.9
v -2.5 6 6.9
v -2.5 6.1 6.9
v -2.5 6.2 6.9
v -2.5 6.3 6.9
v -2.5 6.4 6.9
v -2.4 5.9 6.9
v -2.4 6 6.9
v -2.4 6.1 6.9
v -2.4 6.2 6.9
v -2.4 6.3 6.9
v -2.4 6.4 6.9
v -2.3 5.7 6.9
v -2.3 5.9 6.9
v -2.3 6 6.9
v -2.3 6.1 6.9
v -2.3 6.4 6.9
v -2.3 6.5 6.9
v -2.2 5.3 6.9
v -2.2 5.5 6.9
v -2.2 5.7 6.9
v -2.2 5.9 6.9
v -2.2 6.1 6.9
v -2.2 6.9 6.9
v -2.2 7.1 6.9
v -2 5.3 6.9
v -2 5.5 6.9
v -2 6.9 6.9
v -2 7.1 6.9
v -2.7 5.3 6.8
v -2.7 5.5 6.8
v -2.7 6.9 6.8
v -2.7 7.1 6.8
v -2.2 5.3 6.8
v -2.2 5.5 6.8
v -2.2 6.9 6.8
v -2.2 7.1 6.8
v -2.7 5.3 8.1
v -2.2 5.3 8.1
v -2.9 5.3 8
v -2.7 5.3 8
v -2.2 5.3 8
v -2 5.3 8
v -3 5.3 7.9
v -2.9 5.3 7.9
v -2 5.3 7.9
v -1.9 5.3 7.9
v -3.1 5.3 7.7
v -3 5.3 7.7
v -1.9 5.3 7.7
v -1.8 5.3 7.7
v -3.1 5.3 7.2
v -3 5.3 7.2
v -1.9 5.3 7.2
v -1.8 5.3 7.2
v -3 5.3 7
v -2.9 5.3 7
v -2 5.3 7
v -1.9 5.3 7
v -2.9 5.3 6.9
v -2.7 5.3 6.9
v -2.2 5.3 6.9
v -2 5.3 6.9
v -2.7 5.3 6.8
v -2.2 5.3 6.8
v -2.7 6.9 8.1
v -2.2 6.9 8.1
v -2.9 6.9 8
v -2.7 6.9 8
v -2.6 6.9 8
v -2.2 6.9 8
v -2 6.9 8
v -3 6.9 7.9
v -2.9 6.9 7.9
v -2.8 6.9 7.9
v -2.7 6.9 7.9
v -2.2 6.9 7.9
v -2.1 6.9 7.9
v -2 6.9 7.9
v -1.9 6.9 7.9
v -2.9 6.9 7.8
v -2.8 6.9 7.8
v -2.1 6.9 7.8
v -2 6.9 7.8
v -3.1 6.9 7.7
v -3 6.9 7.7
v -2.9 6.9 7.7
v -2 6.9 7.7
v -1.9 6.9 7.7
v -1.8 6.9 7.7
v -3 6.9 7.3
v -3.1 6.9 7.2
v -3 6.9 7.2
v -2.9 6.9 7.2
v -2 6.9 7.2
v -1.9 6.9 7.2
v -1.8 6.9 7.2
v -2.9 6.9 7.1
v -2.8 6.9 7.1
v -2.1 6.9 7.1
v -2 6.9 7.1
v -3 6.9 7
v -2.9 6.9 7
v -2.8 6.9 7
v -2.7 6.9 7
v -2.2 6.9 7
v -2.1 6.9 7
v -2 6.9 7
v -1.9 6.9 7
v -2.9 6.9 6.9
v -2.7 6.9 6.9
v -2.2 6.9 6.9
v -2 6.9 6.9
v -2.7 6.9 6.8
v -2.2 6.9 6.8
v -2.7 5.5 8.1
v -2.2 5.5 8.1
v -2.9 5.5 8
v -2.7 5.5 8
v -2.3 5.5 8
v -2.2 5.5 8
v -2 5.5 8
v -3 5.5 7.9
v -2.9 5.5 7.9
v -2.8 5.5 7.9
v -2.7 5.5 7.9
v -2.2 5.5 7.9
v -2.1 5.5 7.9
v -2 5.5 7.9
v -1.9 5.5 7.9
v -2.9 5.5 7.8
v -2.8 5.5 7.8
v -2.1 5.5 7.8
v -2 5.5 7.8
v -3.1 5.5 7.7
v -3 5.5 7.7
v -2.9 5.5 7.7
v -2 5.5 7.7
v -1.9 5.5 7.7
v -1.8 5.5 7.7
v -3 5.5 7.6
v -1.9 5.5 7.6
v -3.1 5.5 7.2
v -3 5.5 7.2
v -2.9 5.5 7.2
v -2 5.5 7.2
v -1.9 5.5 7.2
v -1.8 5.5 7.2
v -2.9 5.5 7.1
v -2.8 5.5 7.1
v -2.1 5.5 7.1
v -2 5.5 7.1
v -3 5.5 7
v -2.9 5.5 7
v -2.8 5.5 7
v -2.7 5.5 7
v -2.2 5.5 7
v -2.1 5.5 7
v -2 5.5 7
v -1.9 5.5 7
v -2.9 5.5 6.9
v -2.7 5.5 6.9
v -2.2 5.5 6.9
v -2 5.5 6.9
v -2.7 5.5 6.8
v -2.2 5.5 6.8
v -2.7 7.1 8.1
v -2.2 7.1 8.1
v -2.9 7.1 8
v -2.7 7.1 8
v -2.2 7.1 8
v -2 7.1 8
v -3 7.1 7.9
v -2.9 7.1 7.9
v -2 7.1 7.9
v -1.9 7.1 7.9
v -3.1 7.1 7.7
v -3 7.1 7.7
v -1.9 7.1 7.7
v -1.8 7.1 7.7
v -3.1 7.1 7.2
v -3 7.1 7.2
v -1.9 7.1 7.2
v -1.8 7.1 7.2
v -3 7.1 7
v -2.9 7.1 7
v -2 7.1 7
v -1.9 7.1 7
v -2.9 7.1 6.9
v -2.7 7.1 6.9
v -2.2 7.1 6.9
v -2 7.1 6.9
v -2.7 7.1 6.8
v -2.2 7.1 6.8

# faces
f 3/3/1 2/3/1 1/3/1
f 4/3/1 2/3/1 3/3/1
f 7/3/1 6/3/1 5/3/1
f 8/3/1 6/3/1 7/3/1
f 13/3/1 10/3/1 9/3/1
f 14/3/1 10/3/1 13/3/1
f 16/3/1 12/3/1 11/3/1
f 17/3/1 12/3/1 16/3/1
f 18/2/1 15/2/1 14/2/1
f 19/1/1 16/1/1 15/1/1
f 19/2/1 15/2/1 18/2/1
f 20/1/1 16/1/1 19/1/1
f 21/1/1 16/1/1 20/1/1
f 22/1/1 16/1/1 21/1/1
f 23/5/1 19/5/1 18/5/1
f 23/5/1 20/5/1 19/5/1
f 24/1/1 21/1/1 20/1/1
f 24/5/1 20/5/1 23/5/1
f 25/5/1 22/5/1 21/5/1
f 25/1/1 21/1/1 24/1/1
f 26/5/1 22/5/1 25/5/1
f 27/5/1 23/5/1 18/5/1
f 28/1/1 24/1/1 23/1/1
f 28/5/1 23/5/1 27/5/1
f 28/1/1 25/1/1 24/1/1
f 28/1/1 26/1/1 25/1/1
f 29/1/1 26/1/1 28/1/1
f 30/1/1 26/1/1 29/1/1
f 31/5/1 22/5/1 26/5/1
f 31/1/1 26/1/1 30/1/1
f 32/5/1 22/5/1 31/5/1
f 33/5/1 30/5/1 29/5/1
f 33/1/1 28/1/1 27/1/1
f 33/1/1 29/1/1 28/1/1
f 34/1/1 32/1/1 31/1/1
f 34/5/1 30/5/1 33/5/1
f 34/1/1 31/1/1 30/1/1
f 35/1/1 33/1/1 27/1/1
f 35/1/1 34/1/1 33/1/1
f 36/1/1 32/1/1 34/1/1
f 36/1/1 34/1/1 35/1/1
f 37/1/1 35/1/1 27/1/1
f 38/5/1 36/5/1 35/5/1
f 38/1/1 35/1/1 37/1/1
f 39/1/1 32/1/1 36/1/1
f 39/5/1 36/5/1 38/5/1
f 40/1/1 32/1/1 39/1/1
f 41/5/1 38/5/1 37/5/1
f 41/1/1 37/1/1 27/1/1
f 41/5/1 40/5/1 39/5/1
f 41/5/1 39/5/1 38/5/1
f 42/5/1 40/5/1 41/5/1
f 43/1/1 32/1/1 40/1/1
f 43/5/1 40/5/1 42/5/1
f 44/1/1 32/1/1 43/1/1
f 45/1/1 42/1/1 41/1/1
f 45/2/1 43/2/1 42/2/1
f 45/2/1 44/2/1 43/2/1
f 46/2/1 44/2/1 45/2/1
f 48/1/1 41/1/1 27/1/1
f 48/1/1 45/1/1 41/1/1
f 48/1/1 46/1/1 45/1/1
f 49/2/1 44/2/1 46/2/1
f 49/1/1 46/1/1 48/1/1
f 50/2/1 44/2/1 49/2/1
f 52/3/1 48/3/1 47/3/1
f 53/3/1 48/3/1 52/3/1
f 54/3/1 51/3/1 50/3/1
f 55/3/1 51/3/1 54/3/1
f 60/3/1 57/3/1 56/3/1
f 61/3/1 57/3/1 60/3/1
f 66/3/1 59/3/1 58/3/1
f 67/3/1 59/3/1 66/3/1
f 68/1/1 63/1/1 62/1/1
f 69/1/1 65/1/1 64/1/1
f 70/1/1 68/1/1 62/1/1
f 71/1/1 65/1/1 69/1/1
f 72/1/1 65/1/1 71/1/1
f 75/1/1 70/1/1 62/1/1
f 76/1/1 70/1/1 75/1/1
f 77/1/1 65/1/1 72/1/1
f 78/1/1 65/1/1 77/1/1
f 81/3/1 74/3/1 73/3/1
f 82/3/1 74/3/1 81/3/1
f 83/3/1 80/3/1 79/3/1
f 84/3/1 80/3/1 83/3/1
f 89/2/1 88/2/1 87/2/1
f 90/2/1 88/2/1 89/2/1
f 91/1/1 86/1/1 85/1/1
f 92/1/1 86/1/1 91/1/1
f 93/1/1 90/1/1 89/1/1
f 94/1/1 90/1/1 93/1/1
f 99/3/1 96/3/1 95/3/1
f 100/3/1 96/3/1 99/3/1
f 103/3/1 98/3/1 97/3/1
f 104/3/1 98/3/1 103/3/1
f 105/1/1 103/1/1 102/1/1
f 106/1/1 103/1/1 105/1/1
f 107/1/1 101/1/1 100/1/1
f 108/1/1 101/1/1 107/1/1
f 109/2/1 106/2/1 105/2/1
f 110/2/1 106/2/1 109/2/1
f 111/5/1 108/5/1 107/5/1
f 112/5/1 108/5/1 111/5/1
f 113/5/1 110/5/1 109/5/1
f 114/5/1 110/5/1 113/5/1
f 115/1/1 112/1/1 111/1/1
f 116/1/1 112/1/1 115/1/1
f 118/2/1 116/2/1 115/2/1
f 119/2/1 116/2/1 118/2/1
f 120/1/1 114/1/1 113/1/1
f 121/1/1 114/1/1 120/1/1
f 123/3/1 118/3/1 117/3/1
f 124/3/1 118/3/1 123/3/1
f 125/3/1 122/3/1 121/3/1
f 126/3/1 122/3/1 125/3/1
f 127/3/2 128/3/2 131/3/2
f 131/3/2 128/3/2 132/3/2
f 129/3/2 130/3/2 135/3/2
f 135/3/2 130/3/2 136/3/2
f 134/1/2 135/1/2 137/1/2
f 137/1/2 135/1/2 138/1/2
f 132/2/2 133/2/2 139/2/2
f 139/2/2 133/2/2 140/2/2
f 139/1/2 140/1/2 141/1/2
f 141/1/2 140/1/2 142/1/2
f 137/2/2 138/2/2 143/2/2
f 143/2/2 138/2/2 144/2/2
f 141/5/2 142/5/2 145/5/2
f 145/5/2 142/5/2 146/5/2
f 143/5/2 144/5/2 147/5/2
f 147/5/2 144/5/2 148/5/2
f 145/1/2 146/1/2 150/1/2
f 150/1/2 146/1/2 151/1/2
f 147/1/2 148/1/2 152/1/2
f 152/1/2 148/1/2 153/1/2
f 149/3/2 150/3/2 155/3/2
f 155/3/2 150/3/2 156/3/2
f 153/3/2 154/3/2 157/3/2
f 157/3/2 154/3/2 158/3/2
f 161/1/2 162/1/2 163/1/2
f 163/1/2 162/1/2 164/1/2
f 159/1/2 160/1/2 165/1/2
f 165/1/2 160/1/2 166/1/2
f 163/2/2 164/2/2 167/2/2
f 167/2/2 164/2/2 168/2/2
f 169/3/2 170/3/2 173/3/2
f 173/3/2 170/3/2 174/3/2
f 171/3/2 172/3/2 179/3/2
f 179/3/2 172/3/2 180/3/2
f 175/1/2 176/1/2 181/1/2
f 177/1/2 178/1/2 182/1/2
f 175/1/2 181/1/2 183/1/2
f 182/1/2 178/1/2 184/1/2
f 175/1/2 183/1/2 187/1/2
f 187/1/2 183/1/2 188/1/2
f 184/1/2 178/1/2 189/1/2
f 189/1/2 178/1/2 190/1/2
f 185/3/2 186/3/2 193/3/2
f 193/3/2 186/3/2 194/3/2
f 191/3/2 192/3/2 195/3/2
f 195/3/2 192/3/2 196/3/2
f 197/3/2 198/3/2 201/3/2
f 201/3/2 198/3/2 202/3/2
f 199/3/2 200/3/2 204/3/2
f 204/3/2 200/3/2 205/3/2
f 202/2/2 203/2/2 206/2/2
f 203/1/2 204/1/2 207/1/2
f 206/2/2 203/2/2 207/2/2
f 207/1/2 204/1/2 208/1/2
f 208/1/2 204/1/2 209/1/2
f 209/1/2 204/1/2 210/1/2
f 206/5/2 207/5/2 211/5/2
f 207/5/2 208/5/2 211/5/2
f 208/1/2 209/1/2 212/1/2
f 211/5/2 208/5/2 212/5/2
f 209/5/2 210/5/2 213/5/2
f 212/1/2 209/1/2 213/1/2
f 213/5/2 210/5/2 214/5/2
f 206/5/2 211/5/2 215/5/2
f 211/1/2 212/1/2 216/1/2
f 215/5/2 211/5/2 216/5/2
f 212/1/2 213/1/2 216/1/2
f 213/1/2 214/1/2 216/1/2
f 216/1/2 214/1/2 217/1/2
f 217/1/2 214/1/2 218/1/2
f 214/5/2 210/5/2 219/5/2
f 218/1/2 214/1/2 219/1/2
f 219/5/2 210/5/2 220/5/2
f 217/5/2 218/5/2 221/5/2
f 215/1/2 216/1/2 221/1/2
f 216/1/2 217/1/2 221/1/2
f 219/1/2 220/1/2 222/1/2
f 221/5/2 218/5/2 222/5/2
f 218/1/2 219/1/2 222/1/2
f 215/1/2 221/1/2 223/1/2
f 221/1/2 222/1/2 223/1/2
f 222/1/2 220/1/2 224/1/2
f 223/1/2 222/1/2 224/1/2
f 215/1/2 223/1/2 225/1/2
f 223/5/2 224/5/2 226/5/2
f 225/1/2 223/1/2 226/1/2
f 224/1/2 220/1/2 227/1/2
f 226/5/2 224/5/2 227/5/2
f 227/1/2 220/1/2 228/1/2
f 225/5/2 226/5/2 229/5/2
f 215/1/2 225/1/2 229/1/2
f 227/5/2 228/5/2 229/5/2
f 226/5/2 227/5/2 229/5/2
f 228/1/2 220/1/2 230/1/2
f 229/5/2 228/5/2 230/5/2
f 215/1/2 229/1/2 232/1/2
f 229/1/2 230/1/2 232/1/2
f 230/1/2 220/1/2 233/1/2
f 232/1/2 230/1/2 233/1/2
f 231/3/2 232/3/2 235/3/2
f 235/3/2 232/3/2 236/3/2
f 233/3/2 234/3/2 237/3/2
f 237/3/2 234/3/2 238/3/2
f 239/3/2 240/3/2 241/3/2
f 241/3/2 240/3/2 242/3/2
f 243/3/2 244/3/2 245/3/2
f 245/3/2 244/3/2 246/3/2
f 251/3/3 248/3/3 247/3/3
f 252/3/3 248/3/3 251/3/3
f 253/3/3 250/3/3 249/3/3
f 254/3/3 250/3/3 253/3/3
f 259/3/3 256/3/3 255/3/3
f 260/3/3 256/3/3 259/3/3
f 264/3/3 258/3/3 257/3/3
f 265/3/3 258/3/3 264/3/3
f 266/5/3 262/5/3 261/5/3
f 267/1/3 263/1/3 262/1/3
f 267/5/3 262/5/3 266/5/3
f 268/1/3 263/1/3 267/1/3
f 269/1/3 263/1/3 268/1/3
f 270/2/3 264/2/3 263/2/3
f 270/1/3 263/1/3 269/1/3
f 271/2/3 264/2/3 270/2/3
f 272/2/3 264/2/3 271/2/3
f 273/5/3 266/5/3 261/5/3
f 273/1/3 261/1/3 260/1/3
f 274/1/3 267/1/3 266/1/3
f 274/5/3 266/5/3 273/5/3
f 274/1/3 268/1/3 267/1/3
f 275/1/3 268/1/3 274/1/3
f 276/1/3 268/1/3 275/1/3
f 277/1/3 268/1/3 276/1/3
f 278/5/3 269/5/3 268/5/3
f 278/1/3 268/1/3 277/1/3
f 279/2/3 271/2/3 270/2/3
f 279/5/3 269/5/3 278/5/3
f 279/2/3 270/2/3 269/2/3
f 280/1/3 272/1/3 271/1/3
f 280/2/3 271/2/3 279/2/3
f 281/1/3 273/1/3 260/1/3
f 281/1/3 274/1/3 273/1/3
f 281/1/3 275/1/3 274/1/3
f 282/1/3 275/1/3 281/1/3
f 283/1/3 275/1/3 282/1/3
f 284/1/3 275/1/3 283/1/3
f 285/5/3 276/5/3 275/5/3
f 285/1/3 275/1/3 284/1/3
f 286/1/3 277/1/3 276/1/3
f 286/5/3 276/5/3 285/5/3
f 287/5/3 279/5/3 278/5/3
f 287/1/3 277/1/3 286/1/3
f 287/5/3 278/5/3 277/5/3
f 288/5/3 279/5/3 287/5/3
f 289/1/3 281/1/3 260/1/3
f 290/2/3 282/2/3 281/2/3
f 290/1/3 281/1/3 289/1/3
f 291/1/3 286/1/3 285/1/3
f 291/1/3 285/1/3 284/1/3
f 291/5/3 284/5/3 283/5/3
f 291/1/3 288/1/3 287/1/3
f 291/1/3 287/1/3 286/1/3
f 292/1/3 288/1/3 291/1/3
f 293/5/3 279/5/3 288/5/3
f 293/1/3 288/1/3 292/1/3
f 294/1/3 280/1/3 279/1/3
f 294/5/3 279/5/3 293/5/3
f 296/2/3 290/2/3 289/2/3
f 297/2/3 282/2/3 290/2/3
f 297/1/3 283/1/3 282/1/3
f 297/2/3 290/2/3 296/2/3
f 298/5/3 292/5/3 291/5/3
f 298/1/3 283/1/3 297/1/3
f 298/5/3 291/5/3 283/5/3
f 299/1/3 293/1/3 292/1/3
f 299/5/3 292/5/3 298/5/3
f 299/1/3 294/1/3 293/1/3
f 300/1/3 280/1/3 294/1/3
f 300/1/3 294/1/3 299/1/3
f 300/1/3 272/1/3 280/1/3
f 302/3/3 296/3/3 295/3/3
f 303/3/3 296/3/3 302/3/3
f 304/3/3 301/3/3 300/3/3
f 305/3/3 301/3/3 304/3/3
f 310/3/3 307/3/3 306/3/3
f 311/3/3 307/3/3 310/3/3
f 312/3/3 309/3/3 308/3/3
f 313/3/3 309/3/3 312/3/3
f 316/1/3 315/1/3 314/1/3
f 317/1/3 315/1/3 316/1/3
f 318/1/3 315/1/3 317/1/3
f 319/1/3 315/1/3 318/1/3
f 320/1/3 315/1/3 319/1/3
f 326/1/3 322/1/3 321/1/3
f 326/1/3 325/1/3 324/1/3
f 326/1/3 324/1/3 323/1/3
f 326/1/3 323/1/3 322/1/3
f 327/1/3 325/1/3 326/1/3
f 332/3/3 329/3/3 328/3/3
f 333/3/3 329/3/3 332/3/3
f 334/3/3 331/3/3 330/3/3
f 335/3/3 331/3/3 334/3/3
f 338/1/3 337/1/3 336/1/3
f 339/1/3 337/1/3 338/1/3
f 342/1/3 341/1/3 340/1/3
f 343/1/3 341/1/3 342/1/3
f 348/3/3 345/3/3 344/3/3
f 349/3/3 345/3/3 348/3/3
f 352/3/3 347/3/3 346/3/3
f 353/3/3 347/3/3 352/3/3
f 354/2/3 350/2/3 349/2/3
f 355/5/3 351/5/3 350/5/3
f 355/2/3 350/2/3 354/2/3
f 356/1/3 352/1/3 351/1/3
f 356/5/3 351/5/3 355/5/3
f 357/1/3 352/1/3 356/1/3
f 363/2/3 359/2/3 358/2/3
f 364/5/3 360/5/3 359/5/3
f 364/2/3 359/2/3 363/2/3
f 365/1/3 361/1/3 360/1/3
f 365/5/3 360/5/3 364/5/3
f 366/1/3 361/1/3 365/1/3
f 368/3/3 363/3/3 362/3/3
f 369/3/3 363/3/3 368/3/3
f 370/3/3 367/3/3 366/3/3
f 371/3/3 367/3/3 370/3/3
f 372/3/4 373/3/4 376/3/4
f 376/3/4 373/3/4 377/3/4
f 374/3/4 375/3/4 381/3/4
f 381/3/4 375/3/4 382/3/4
f 377/1/4 378/1/4 383/1/4
f 378/5/4 379/5/4 384/5/4
f 383/1/4 378/1/4 384/1/4
f 379/1/4 380/1/4 385/1/4
f 384/5/4 379/5/4 385/5/4
f 380/2/4 381/2/4 386/2/4
f 385/1/4 380/1/4 386/1/4
f 386/2/4 381/2/4 387/2/4
f 388/1/4 389/1/4 393/1/4
f 389/5/4 390/5/4 394/5/4
f 393/1/4 389/1/4 394/1/4
f 390/1/4 391/1/4 395/1/4
f 394/5/4 390/5/4 395/5/4
f 395/1/4 391/1/4 396/1/4
f 392/3/4 393/3/4 398/3/4
f 398/3/4 393/3/4 399/3/4
f 396/3/4 397/3/4 400/3/4
f 400/3/4 397/3/4 401/3/4
f 402/1/4 403/1/4 404/1/4
f 404/1/4 403/1/4 405/1/4
f 405/1/4 403/1/4 406/1/4
f 407/1/4 408/1/4 410/1/4
f 408/1/4 409/1/4 410/1/4
f 410/1/4 409/1/4 411/1/4
f 412/3/4 413/3/4 416/3/4
f 416/3/4 413/3/4 417/3/4
f 414/3/4 415/3/4 418/3/4
f 418/3/4 415/3/4 419/3/4
f 420/2/4 421/2/4 423/2/4
f 421/1/4 422/1/4 424/1/4
f 423/2/4 421/2/4 424/2/4
f 424/1/4 422/1/4 425/1/4
f 425/1/4 422/1/4 426/1/4
f 426/1/4 422/1/4 427/1/4
f 428/1/4 429/1/4 433/1/4
f 429/1/4 430/1/4 433/1/4
f 430/1/4 431/1/4 433/1/4
f 431/2/4 432/2/4 434/2/4
f 433/1/4 431/1/4 434/1/4
f 434/2/4 432/2/4 435/2/4
f 436/3/4 437/3/4 440/3/4
f 440/3/4 437/3/4 441/3/4
f 438/3/4 439/3/4 442/3/4
f 442/3/4 439/3/4 443/3/4
f 444/3/4 445/3/4 448/3/4
f 448/3/4 445/3/4 449/3/4
f 446/3/4 447/3/4 453/3/4
f 453/3/4 447/3/4 454/3/4
f 449/1/4 450/1/4 455/1/4
f 450/2/4 451/2/4 455/2/4
f 451/5/4 452/5/4 456/5/4
f 455/2/4 451/2/4 456/2/4
f 456/5/4 452/5/4 457/5/4
f 452/1/4 453/1/4 458/1/4
f 457/5/4 452/5/4 458/5/4
f 458/1/4 453/1/4 459/1/4
f 459/1/4 453/1/4 460/1/4
f 456/5/4 457/5/4 461/5/4
f 455/1/4 456/1/4 461/1/4
f 457/1/4 458/1/4 462/1/4
f 461/5/4 457/5/4 462/5/4
f 458/1/4 459/1/4 462/1/4
f 462/1/4 459/1/4 463/1/4
f 463/1/4 459/1/4 464/1/4
f 464/1/4 459/1/4 465/1/4
f 459/5/4 460/5/4 466/5/4
f 465/1/4 459/1/4 466/1/4
f 455/1/4 461/1/4 467/1/4
f 461/1/4 462/1/4 467/1/4
f 462/1/4 463/1/4 467/1/4
f 467/1/4 463/1/4 468/1/4
f 463/5/4 464/5/4 469/5/4
f 468/1/4 463/1/4 469/1/4
f 464/1/4 465/1/4 470/1/4
f 469/5/4 464/5/4 470/5/4
f 465/5/4 466/5/4 471/5/4
f 470/1/4 465/1/4 471/1/4
f 466/5/4 460/5/4 472/5/4
f 471/5/4 466/5/4 472/5/4
f 449/1/4 455/1/4 473/1/4
f 455/1/4 467/1/4 473/1/4
f 467/5/4 468/5/4 474/5/4
f 473/1/4 467/1/4 474/1/4
f 468/1/4 469/1/4 475/1/4
f 474/5/4 468/5/4 475/5/4
f 470/1/4 471/1/4 475/1/4
f 471/1/4 472/1/4 475/1/4
f 469/1/4 470/1/4 475/1/4
f 475/1/4 472/1/4 476/1/4
f 472/5/4 460/5/4 477/5/4
f 476/1/4 472/1/4 477/1/4
f 460/1/4 453/1/4 478/1/4
f 477/5/4 460/5/4 478/5/4
f 449/1/4 473/1/4 480/1/4
f 473/2/4 474/2/4 481/2/4
f 480/1/4 473/1/4 481/1/4
f 475/5/4 476/5/4 482/5/4
f 481/2/4 474/2/4 482/2/4
f 474/5/4 475/5/4 482/5/4
f 476/1/4 477/1/4 483/1/4
f 482/5/4 476/5/4 483/5/4
f 477/1/4 478/1/4 483/1/4
f 478/1/4 453/1/4 484/1/4
f 483/1/4 478/1/4 484/1/4
f 479/3/4 480/3/4 486/3/4
f 486/3/4 480/3/4 487/3/4
f 484/3/4 485/3/4 488/3/4
f 488/3/4 485/3/4 489/3/4
f 490/3/4 491/3/4 494/3/4
f 494/3/4 491/3/4 495/3/4
f 492/3/4 493/3/4 496/3/4
f 496/3/4 493/3/4 497/3/4
f 501/3/5 499/3/5 498/3/5
f 502/3/5 499/3/5 501/3/5
f 505/3/5 501/3/5 500/3/5
f 505/3/5 503/3/5 502/3/5
f 505/3/5 502/3/5 501/3/5
f 506/3/5 503/3/5 505/3/5
f 509/3/5 505/3/5 504/3/5
f 509/3/5 507/3/5 506/3/5
f 509/3/5 506/3/5 505/3/5
f 510/3/5 507/3/5 509/3/5
f 512/3/5 509/3/5 508/3/5
f 512/3/5 511/3/5 510/3/5
f 512/3/5 510/3/5 509/3/5
f 513/3/5 511/3/5 512/3/5
f 514/3/5 511/3/5 513/3/5
f 515/3/5 511/3/5 514/3/5
f 516/3/5 514/3/5 513/3/5
f 517/3/5 514/3/5 516/3/5
f 518/3/5 514/3/5 517/3/5
f 519/3/5 514/3/5 518/3/5
f 520/3/5 518/3/5 517/3/5
f 521/3/5 518/3/5 520/3/5
f 522/3/5 518/3/5 521/3/5
f 523/3/5 518/3/5 522/3/5
f 524/3/5 522/3/5 521/3/5
f 525/3/5 522/3/5 524/3/5
f 529/3/5 527/3/5 526/3/5
f 530/3/5 527/3/5 529/3/5
f 531/3/5 527/3/5 530/3/5
f 534/3/5 529/3/5 528/3/5
f 535/3/5 529/3/5 534/3/5
f 536/3/5 529/3/5 535/3/5
f 537/3/5 532/3/5 531/3/5
f 538/3/5 532/3/5 537/3/5
f 539/3/5 532/3/5 538/3/5
f 541/3/5 534/3/5 533/3/5
f 541/3/5 535/3/5 534/3/5
f 542/3/5 535/3/5 541/3/5
f 543/3/5 540/3/5 539/3/5
f 543/3/5 539/3/5 538/3/5
f 544/3/5 540/3/5 543/3/5
f 546/3/5 541/3/5 533/3/5
f 547/3/5 541/3/5 546/3/5
f 548/3/5 540/3/5 544/3/5
f 549/3/5 540/3/5 548/3/5
f 551/3/5 546/3/5 545/3/5
f 552/3/5 551/3/5 545/3/5
f 553/3/5 551/3/5 552/3/5
f 556/3/5 550/3/5 549/3/5
f 557/3/5 550/3/5 556/3/5
f 558/3/5 554/3/5 553/3/5
f 561/3/5 556/3/5 555/3/5
f 562/3/5 559/3/5 558/3/5
f 562/3/5 558/3/5 553/3/5
f 563/3/5 559/3/5 562/3/5
f 564/3/5 559/3/5 563/3/5
f 567/3/5 561/3/5 560/3/5
f 568/3/5 556/3/5 561/3/5
f 568/3/5 561/3/5 567/3/5
f 569/3/5 556/3/5 568/3/5
f 570/3/5 565/3/5 564/3/5
f 570/3/5 564/3/5 563/3/5
f 571/3/5 565/3/5 570/3/5
f 572/3/5 567/3/5 566/3/5
f 572/3/5 568/3/5 567/3/5
f 573/3/5 568/3/5 572/3/5
f 574/3/5 572/3/5 571/3/5
f 575/3/5 572/3/5 574/3/5
f 576/3/6 577/3/6 579/3/6
f 579/3/6 577/3/6 580/3/6
f 580/3/6 577/3/6 581/3/6
f 578/3/6 579/3/6 584/3/6
f 584/3/6 579/3/6 585/3/6
f 585/3/6 579/3/6 586/3/6
f 581/3/6 582/3/6 587/3/6
f 587/3/6 582/3/6 588/3/6
f 588/3/6 582/3/6 589/3/6
f 583/3/6 584/3/6 591/3/6
f 584/3/6 585/3/6 591/3/6
f 591/3/6 585/3/6 592/3/6
f 589/3/6 590/3/6 593/3/6
f 588/3/6 589/3/6 593/3/6
f 593/3/6 590/3/6 594/3/6
f 583/3/6 591/3/6 596/3/6
f 596/3/6 591/3/6 597/3/6
f 594/3/6 590/3/6 598/3/6
f 598/3/6 590/3/6 599/3/6
f 595/3/6 596/3/6 601/3/6
f 599/3/6 600/3/6 602/3/6
f 595/3/6 601/3/6 603/3/6
f 603/3/6 601/3/6 604/3/6
f 602/3/6 600/3/6 607/3/6
f 607/3/6 600/3/6 608/3/6
f 604/3/6 605/3/6 609/3/6
f 606/3/6 607/3/6 612/3/6
f 609/3/6 610/3/6 613/3/6
f 604/3/6 609/3/6 613/3/6
f 613/3/6 610/3/6 614/3/6
f 614/3/6 610/3/6 615/3/6
f 611/3/6 612/3/6 618/3/6
f 612/3/6 607/3/6 619/3/6
f 618/3/6 612/3/6 619/3/6
f 619/3/6 607/3/6 620/3/6
f 615/3/6 616/3/6 621/3/6
f 614/3/6 615/3/6 621/3/6
f 621/3/6 616/3/6 622/3/6
f 617/3/6 618/3/6 623/3/6
f 618/3/6 619/3/6 623/3/6
f 623/3/6 619/3/6 624/3/6
f 622/3/6 623/3/6 625/3/6
f 625/3/6 623/3/6 626/3/6
f 627/3/6 628/3/6 630/3/6
f 630/3/6 628/3/6 631/3/6
f 629/3/6 630/3/6 634/3/6
f 631/3/6 632/3/6 634/3/6
f 630/3/6 631/3/6 634/3/6
f 634/3/6 632/3/6 635/3/6
f 633/3/6 634/3/6 638/3/6
f 635/3/6 636/3/6 638/3/6
f 634/3/6 635/3/6 638/3/6
f 638/3/6 636/3/6 639/3/6
f 637/3/6 638/3/6 641/3/6
f 639/3/6 640/3/6 641/3/6
f 638/3/6 639/3/6 641/3/6
f 641/3/6 640/3/6 642/3/6
f 642/3/6 640/3/6 643/3/6
f 643/3/6 640/3/6 644/3/6
f 642/3/6 643/3/6 645/3/6
f 645/3/6 643/3/6 646/3/6
f 646/3/6 643/3/6 647/3/6
f 647/3/6 643/3/6 648/3/6
f 646/3/6 647/3/6 649/3/6
f 649/3/6 647/3/6 650/3/6
f 650/3/6 647/3/6 651/3/6
f 651/3/6 647/3/6 652/3/6
f 650/3/6 651/3/6 653/3/6
f 653/3/6 651/3/6 654/3/6
