# MagicaVoxel @ Ephtracy

# group
o 

# material
mtllib base cohete.mtl
usemtl palette

# normals
vn -1 0 0
vn 1 0 0
vn 0 0 1
vn 0 0 -1
vn 0 -1 0
vn 0 1 0

# texcoords
vt 0.912109 0.5
vt 0.919922 0.5
vt 0.923828 0.5

# verts
v -5.1 8.4 -9.8
v -5.1 8.4 -10.6
v -5.1 8.6 -9.8
v -5.1 8.6 -10.6
v -5 8.4 -9.4
v -5 8.4 -9.8
v -5 8.4 -10.6
v -5 8.4 -11
v -5 8.6 -9.4
v -5 8.6 -9.8
v -5 8.6 -10.6
v -5 8.6 -11
v -4.9 8.4 -9.2
v -4.9 8.4 -9.4
v -4.9 8.4 -11
v -4.9 8.4 -11.2
v -4.9 8.6 -9.2
v -4.9 8.6 -9.4
v -4.9 8.6 -11
v -4.9 8.6 -11.2
v -4.8 8.4 -9.1
v -4.8 8.4 -9.2
v -4.8 8.4 -11.2
v -4.8 8.4 -11.3
v -4.8 8.6 -9.1
v -4.8 8.6 -9.2
v -4.8 8.6 -11.2
v -4.8 8.6 -11.3
v -4.7 8.4 -8.9
v -4.7 8.4 -9.1
v -4.7 8.4 -11.3
v -4.7 8.4 -11.5
v -4.7 8.6 -8.9
v -4.7 8.6 -9.1
v -4.7 8.6 -11.3
v -4.7 8.6 -11.5
v -4.6 8.4 -8.8
v -4.6 8.4 -8.9
v -4.6 8.4 -11.5
v -4.6 8.4 -11.6
v -4.6 8.6 -8.8
v -4.6 8.6 -8.9
v -4.6 8.6 -11.5
v -4.6 8.6 -11.6
v -4.5 8.4 -8.7
v -4.5 8.4 -8.8
v -4.5 8.4 -11.6
v -4.5 8.4 -11.7
v -4.5 8.6 -8.7
v -4.5 8.6 -8.8
v -4.5 8.6 -11.6
v -4.5 8.6 -11.7
v -4.4 7.8 -8.9
v -4.4 7.8 -9.2
v -4.4 7.8 -11.1
v -4.4 7.8 -11.4
v -4.4 8.4 -8.6
v -4.4 8.4 -8.7
v -4.4 8.4 -8.9
v -4.4 8.4 -9.2
v -4.4 8.4 -11.1
v -4.4 8.4 -11.4
v -4.4 8.4 -11.7
v -4.4 8.4 -11.8
v -4.4 8.6 -8.6
v -4.4 8.6 -8.7
v -4.4 8.6 -11.7
v -4.4 8.6 -11.8
v -4.3 7.8 -8.8
v -4.3 7.8 -8.9
v -4.3 7.8 -9.2
v -4.3 7.8 -9.3
v -4.3 7.8 -11
v -4.3 7.8 -11.1
v -4.3 7.8 -11.4
v -4.3 7.8 -11.5
v -4.3 8.4 -8.5
v -4.3 8.4 -8.6
v -4.3 8.4 -8.8
v -4.3 8.4 -8.9
v -4.3 8.4 -9.2
v -4.3 8.4 -9.3
v -4.3 8.4 -11
v -4.3 8.4 -11.1
v -4.3 8.4 -11.4
v -4.3 8.4 -11.5
v -4.3 8.4 -11.8
v -4.3 8.4 -11.9
v -4.3 8.6 -8.5
v -4.3 8.6 -8.6
v -4.3 8.6 -11.8
v -4.3 8.6 -11.9
v -4.1 8.4 -8.4
v -4.1 8.4 -8.5
v -4.1 8.4 -11.9
v -4.1 8.4 -12
v -4.1 8.6 -8.4
v -4.1 8.6 -8.5
v -4.1 8.6 -11.9
v -4.1 8.6 -12
v -4 8.4 -8.3
v -4 8.4 -8.4
v -4 8.4 -12
v -4 8.4 -12.1
v -4 8.6 -8.3
v -4 8.6 -8.4
v -4 8.6 -12
v -4 8.6 -12.1
v -3.8 8.4 -8.2
v -3.8 8.4 -8.3
v -3.8 8.4 -12.1
v -3.8 8.4 -12.2
v -3.8 8.6 -8.2
v -3.8 8.6 -8.3
v -3.8 8.6 -12.1
v -3.8 8.6 -12.2
v -3.4 8.4 -8.1
v -3.4 8.4 -8.2
v -3.4 8.4 -12.2
v -3.4 8.4 -12.3
v -3.4 8.6 -8.1
v -3.4 8.6 -8.2
v -3.4 8.6 -12.2
v -3.4 8.6 -12.3
v -2.1 7.8 -8.9
v -2.1 7.8 -9.2
v -2.1 7.8 -11.1
v -2.1 7.8 -11.4
v -2.1 8.4 -8.9
v -2.1 8.4 -9.2
v -2.1 8.4 -11.1
v -2.1 8.4 -11.4
v -2 7.8 -8.8
v -2 7.8 -8.9
v -2 7.8 -9.2
v -2 7.8 -9.3
v -2 7.8 -11
v -2 7.8 -11.1
v -2 7.8 -11.4
v -2 7.8 -11.5
v -2 8.4 -8.8
v -2 8.4 -8.9
v -2 8.4 -9.2
v -2 8.4 -9.3
v -2 8.4 -11
v -2 8.4 -11.1
v -2 8.4 -11.4
v -2 8.4 -11.5
v -4 7.8 -8.8
v -4 7.8 -8.9
v -4 7.8 -9.2
v -4 7.8 -9.3
v -4 7.8 -11
v -4 7.8 -11.1
v -4 7.8 -11.4
v -4 7.8 -11.5
v -4 8.4 -8.8
v -4 8.4 -8.9
v -4 8.4 -9.2
v -4 8.4 -9.3
v -4 8.4 -11
v -4 8.4 -11.1
v -4 8.4 -11.4
v -4 8.4 -11.5
v -3.9 7.8 -8.9
v -3.9 7.8 -9.2
v -3.9 7.8 -11.1
v -3.9 7.8 -11.4
v -3.9 8.4 -8.9
v -3.9 8.4 -9.2
v -3.9 8.4 -11.1
v -3.9 8.4 -11.4
v -2.7 8.4 -8.1
v -2.7 8.4 -8.2
v -2.7 8.4 -12.2
v -2.7 8.4 -12.3
v -2.7 8.6 -8.1
v -2.7 8.6 -8.2
v -2.7 8.6 -12.2
v -2.7 8.6 -12.3
v -2.3 8.4 -8.2
v -2.3 8.4 -8.3
v -2.3 8.4 -12.1
v -2.3 8.4 -12.2
v -2.3 8.6 -8.2
v -2.3 8.6 -8.3
v -2.3 8.6 -12.1
v -2.3 8.6 -12.2
v -2.1 8.4 -8.3
v -2.1 8.4 -8.4
v -2.1 8.4 -12
v -2.1 8.4 -12.1
v -2.1 8.6 -8.3
v -2.1 8.6 -8.4
v -2.1 8.6 -12
v -2.1 8.6 -12.1
v -2 8.4 -8.4
v -2 8.4 -8.5
v -2 8.4 -11.9
v -2 8.4 -12
v -2 8.6 -8.4
v -2 8.6 -8.5
v -2 8.6 -11.9
v -2 8.6 -12
v -1.8 8.4 -8.5
v -1.8 8.4 -8.6
v -1.8 8.4 -11.8
v -1.8 8.4 -11.9
v -1.8 8.6 -8.5
v -1.8 8.6 -8.6
v -1.8 8.6 -11.8
v -1.8 8.6 -11.9
v -1.7 7.8 -8.8
v -1.7 7.8 -8.9
v -1.7 7.8 -9.2
v -1.7 7.8 -9.3
v -1.7 7.8 -11
v -1.7 7.8 -11.1
v -1.7 7.8 -11.4
v -1.7 7.8 -11.5
v -1.7 8.4 -8.6
v -1.7 8.4 -8.7
v -1.7 8.4 -8.8
v -1.7 8.4 -8.9
v -1.7 8.4 -9.2
v -1.7 8.4 -9.3
v -1.7 8.4 -11
v -1.7 8.4 -11.1
v -1.7 8.4 -11.4
v -1.7 8.4 -11.5
v -1.7 8.4 -11.7
v -1.7 8.4 -11.8
v -1.7 8.6 -8.6
v -1.7 8.6 -8.7
v -1.7 8.6 -11.7
v -1.7 8.6 -11.8
v -1.6 7.8 -8.9
v -1.6 7.8 -9.2
v -1.6 7.8 -11.1
v -1.6 7.8 -11.4
v -1.6 8.4 -8.7
v -1.6 8.4 -8.8
v -1.6 8.4 -8.9
v -1.6 8.4 -9.2
v -1.6 8.4 -11.1
v -1.6 8.4 -11.4
v -1.6 8.4 -11.6
v -1.6 8.4 -11.7
v -1.6 8.6 -8.7
v -1.6 8.6 -8.8
v -1.6 8.6 -11.6
v -1.6 8.6 -11.7
v -1.5 8.4 -8.8
v -1.5 8.4 -8.9
v -1.5 8.4 -11.5
v -1.5 8.4 -11.6
v -1.5 8.6 -8.8
v -1.5 8.6 -8.9
v -1.5 8.6 -11.5
v -1.5 8.6 -11.6
v -1.4 8.4 -8.9
v -1.4 8.4 -9.1
v -1.4 8.4 -11.3
v -1.4 8.4 -11.5
v -1.4 8.6 -8.9
v -1.4 8.6 -9.1
v -1.4 8.6 -11.3
v -1.4 8.6 -11.5
v -1.3 8.4 -9.1
v -1.3 8.4 -9.2
v -1.3 8.4 -11.2
v -1.3 8.4 -11.3
v -1.3 8.6 -9.1
v -1.3 8.6 -9.2
v -1.3 8.6 -11.2
v -1.3 8.6 -11.3
v -1.2 8.4 -9.2
v -1.2 8.4 -9.4
v -1.2 8.4 -11
v -1.2 8.4 -11.2
v -1.2 8.6 -9.2
v -1.2 8.6 -9.4
v -1.2 8.6 -11
v -1.2 8.6 -11.2
v -1.1 8.4 -9.4
v -1.1 8.4 -9.8
v -1.1 8.4 -10.6
v -1.1 8.4 -11
v -1.1 8.6 -9.4
v -1.1 8.6 -9.8
v -1.1 8.6 -10.6
v -1.1 8.6 -11
v -1 8.4 -9.8
v -1 8.4 -10.6
v -1 8.6 -9.8
v -1 8.6 -10.6
v -3.4 8.4 -8.1
v -3.4 8.6 -8.1
v -2.7 8.4 -8.1
v -2.7 8.6 -8.1
v -3.8 8.4 -8.2
v -3.8 8.6 -8.2
v -3.4 8.4 -8.2
v -3.4 8.6 -8.2
v -2.7 8.4 -8.2
v -2.7 8.6 -8.2
v -2.3 8.4 -8.2
v -2.3 8.6 -8.2
v -4 8.4 -8.3
v -4 8.6 -8.3
v -3.8 8.4 -8.3
v -3.8 8.6 -8.3
v -2.3 8.4 -8.3
v -2.3 8.6 -8.3
v -2.1 8.4 -8.3
v -2.1 8.6 -8.3
v -4.1 8.4 -8.4
v -4.1 8.6 -8.4
v -4 8.4 -8.4
v -4 8.6 -8.4
v -2.1 8.4 -8.4
v -2.1 8.6 -8.4
v -2 8.4 -8.4
v -2 8.6 -8.4
v -4.3 8.4 -8.5
v -4.3 8.6 -8.5
v -4.1 8.4 -8.5
v -4.1 8.6 -8.5
v -2 8.4 -8.5
v -2 8.6 -8.5
v -1.8 8.4 -8.5
v -1.8 8.6 -8.5
v -4.4 8.4 -8.6
v -4.4 8.6 -8.6
v -4.3 8.4 -8.6
v -4.3 8.6 -8.6
v -1.8 8.4 -8.6
v -1.8 8.6 -8.6
v -1.7 8.4 -8.6
v -1.7 8.6 -8.6
v -4.5 8.4 -8.7
v -4.5 8.6 -8.7
v -4.4 8.4 -8.7
v -4.4 8.6 -8.7
v -1.7 8.4 -8.7
v -1.7 8.6 -8.7
v -1.6 8.4 -8.7
v -1.6 8.6 -8.7
v -4.6 8.4 -8.8
v -4.6 8.6 -8.8
v -4.5 8.4 -8.8
v -4.5 8.6 -8.8
v -4.3 7.8 -8.8
v -4.3 8.4 -8.8
v -4 7.8 -8.8
v -4 8.4 -8.8
v -2 7.8 -8.8
v -2 8.4 -8.8
v -1.7 7.8 -8.8
v -1.7 8.4 -8.8
v -1.6 8.4 -8.8
v -1.6 8.6 -8.8
v -1.5 8.4 -8.8
v -1.5 8.6 -8.8
v -4.7 8.4 -8.9
v -4.7 8.6 -8.9
v -4.6 8.4 -8.9
v -4.6 8.6 -8.9
v -4.4 7.8 -8.9
v -4.4 8.4 -8.9
v -4.3 7.8 -8.9
v -4.3 8.4 -8.9
v -4 7.8 -8.9
v -4 8.4 -8.9
v -3.9 7.8 -8.9
v -3.9 8.4 -8.9
v -2.1 7.8 -8.9
v -2.1 8.4 -8.9
v -2 7.8 -8.9
v -2 8.4 -8.9
v -1.7 7.8 -8.9
v -1.7 8.4 -8.9
v -1.6 7.8 -8.9
v -1.6 8.4 -8.9
v -1.5 8.4 -8.9
v -1.5 8.6 -8.9
v -1.4 8.4 -8.9
v -1.4 8.6 -8.9
v -4.8 8.4 -9.1
v -4.8 8.6 -9.1
v -4.7 8.4 -9.1
v -4.7 8.6 -9.1
v -1.4 8.4 -9.1
v -1.4 8.6 -9.1
v -1.3 8.4 -9.1
v -1.3 8.6 -9.1
v -4.9 8.4 -9.2
v -4.9 8.6 -9.2
v -4.8 8.4 -9.2
v -4.8 8.6 -9.2
v -1.3 8.4 -9.2
v -1.3 8.6 -9.2
v -1.2 8.4 -9.2
v -1.2 8.6 -9.2
v -5 8.4 -9.4
v -5 8.6 -9.4
v -4.9 8.4 -9.4
v -4.9 8.6 -9.4
v -1.2 8.4 -9.4
v -1.2 8.6 -9.4
v -1.1 8.4 -9.4
v -1.1 8.6 -9.4
v -5.1 8.4 -9.8
v -5.1 8.6 -9.8
v -5 8.4 -9.8
v -5 8.6 -9.8
v -1.1 8.4 -9.8
v -1.1 8.6 -9.8
v -1 8.4 -9.8
v -1 8.6 -9.8
v -4.3 7.8 -11
v -4.3 8.4 -11
v -4 7.8 -11
v -4 8.4 -11
v -2 7.8 -11
v -2 8.4 -11
v -1.7 7.8 -11
v -1.7 8.4 -11
v -4.4 7.8 -11.1
v -4.4 8.4 -11.1
v -4.3 7.8 -11.1
v -4.3 8.4 -11.1
v -4 7.8 -11.1
v -4 8.4 -11.1
v -3.9 7.8 -11.1
v -3.9 8.4 -11.1
v -2.1 7.8 -11.1
v -2.1 8.4 -11.1
v -2 7.8 -11.1
v -2 8.4 -11.1
v -1.7 7.8 -11.1
v -1.7 8.4 -11.1
v -1.6 7.8 -11.1
v -1.6 8.4 -11.1
v -4.4 7.8 -9.2
v -4.4 8.4 -9.2
v -4.3 7.8 -9.2
v -4.3 8.4 -9.2
v -4 7.8 -9.2
v -4 8.4 -9.2
v -3.9 7.8 -9.2
v -3.9 8.4 -9.2
v -2.1 7.8 -9.2
v -2.1 8.4 -9.2
v -2 7.8 -9.2
v -2 8.4 -9.2
v -1.7 7.8 -9.2
v -1.7 8.4 -9.2
v -1.6 7.8 -9.2
v -1.6 8.4 -9.2
v -4.3 7.8 -9.3
v -4.3 8.4 -9.3
v -4 7.8 -9.3
v -4 8.4 -9.3
v -2 7.8 -9.3
v -2 8.4 -9.3
v -1.7 7.8 -9.3
v -1.7 8.4 -9.3
v -5.1 8.4 -10.6
v -5.1 8.6 -10.6
v -5 8.4 -10.6
v -5 8.6 -10.6
v -1.1 8.4 -10.6
v -1.1 8.6 -10.6
v -1 8.4 -10.6
v -1 8.6 -10.6
v -5 8.4 -11
v -5 8.6 -11
v -4.9 8.4 -11
v -4.9 8.6 -11
v -1.2 8.4 -11
v -1.2 8.6 -11
v -1.1 8.4 -11
v -1.1 8.6 -11
v -4.9 8.4 -11.2
v -4.9 8.6 -11.2
v -4.8 8.4 -11.2
v -4.8 8.6 -11.2
v -1.3 8.4 -11.2
v -1.3 8.6 -11.2
v -1.2 8.4 -11.2
v -1.2 8.6 -11.2
v -4.8 8.4 -11.3
v -4.8 8.6 -11.3
v -4.7 8.4 -11.3
v -4.7 8.6 -11.3
v -1.4 8.4 -11.3
v -1.4 8.6 -11.3
v -1.3 8.4 -11.3
v -1.3 8.6 -11.3
v -4.4 7.8 -11.4
v -4.4 8.4 -11.4
v -4.3 7.8 -11.4
v -4.3 8.4 -11.4
v -4 7.8 -11.4
v -4 8.4 -11.4
v -3.9 7.8 -11.4
v -3.9 8.4 -11.4
v -2.1 7.8 -11.4
v -2.1 8.4 -11.4
v -2 7.8 -11.4
v -2 8.4 -11.4
v -1.7 7.8 -11.4
v -1.7 8.4 -11.4
v -1.6 7.8 -11.4
v -1.6 8.4 -11.4
v -4.7 8.4 -11.5
v -4.7 8.6 -11.5
v -4.6 8.4 -11.5
v -4.6 8.6 -11.5
v -4.3 7.8 -11.5
v -4.3 8.4 -11.5
v -4 7.8 -11.5
v -4 8.4 -11.5
v -2 7.8 -11.5
v -2 8.4 -11.5
v -1.7 7.8 -11.5
v -1.7 8.4 -11.5
v -1.5 8.4 -11.5
v -1.5 8.6 -11.5
v -1.4 8.4 -11.5
v -1.4 8.6 -11.5
v -4.6 8.4 -11.6
v -4.6 8.6 -11.6
v -4.5 8.4 -11.6
v -4.5 8.6 -11.6
v -1.6 8.4 -11.6
v -1.6 8.6 -11.6
v -1.5 8.4 -11.6
v -1.5 8.6 -11.6
v -4.5 8.4 -11.7
v -4.5 8.6 -11.7
v -4.4 8.4 -11.7
v -4.4 8.6 -11.7
v -1.7 8.4 -11.7
v -1.7 8.6 -11.7
v -1.6 8.4 -11.7
v -1.6 8.6 -11.7
v -4.4 8.4 -11.8
v -4.4 8.6 -11.8
v -4.3 8.4 -11.8
v -4.3 8.6 -11.8
v -1.8 8.4 -11.8
v -1.8 8.6 -11.8
v -1.7 8.4 -11.8
v -1.7 8.6 -11.8
v -4.3 8.4 -11.9
v -4.3 8.6 -11.9
v -4.1 8.4 -11.9
v -4.1 8.6 -11.9
v -2 8.4 -11.9
v -2 8.6 -11.9
v -1.8 8.4 -11.9
v -1.8 8.6 -11.9
v -4.1 8.4 -12
v -4.1 8.6 -12
v -4 8.4 -12
v -4 8.6 -12
v -2.1 8.4 -12
v -2.1 8.6 -12
v -2 8.4 -12
v -2 8.6 -12
v -4 8.4 -12.1
v -4 8.6 -12.1
v -3.8 8.4 -12.1
v -3.8 8.6 -12.1
v -2.3 8.4 -12.1
v -2.3 8.6 -12.1
v -2.1 8.4 -12.1
v -2.1 8.6 -12.1
v -3.8 8.4 -12.2
v -3.8 8.6 -12.2
v -3.4 8.4 -12.2
v -3.4 8.6 -12.2
v -2.7 8.4 -12.2
v -2.7 8.6 -12.2
v -2.3 8.4 -12.2
v -2.3 8.6 -12.2
v -3.4 8.4 -12.3
v -3.4 8.6 -12.3
v -2.7 8.4 -12.3
v -2.7 8.6 -12.3
v -4.3 7.8 -8.8
v -4 7.8 -8.8
v -2 7.8 -8.8
v -1.7 7.8 -8.8
v -4.4 7.8 -8.9
v -4.3 7.8 -8.9
v -4 7.8 -8.9
v -3.9 7.8 -8.9
v -2.1 7.8 -8.9
v -2 7.8 -8.9
v -1.7 7.8 -8.9
v -1.6 7.8 -8.9
v -4.4 7.8 -9.2
v -4.3 7.8 -9.2
v -4 7.8 -9.2
v -3.9 7.8 -9.2
v -2.1 7.8 -9.2
v -2 7.8 -9.2
v -1.7 7.8 -9.2
v -1.6 7.8 -9.2
v -4.3 7.8 -9.3
v -4 7.8 -9.3
v -2 7.8 -9.3
v -1.7 7.8 -9.3
v -4.3 7.8 -11
v -4 7.8 -11
v -2 7.8 -11
v -1.7 7.8 -11
v -4.4 7.8 -11.1
v -4.3 7.8 -11.1
v -4 7.8 -11.1
v -3.9 7.8 -11.1
v -2.1 7.8 -11.1
v -2 7.8 -11.1
v -1.7 7.8 -11.1
v -1.6 7.8 -11.1
v -4.4 7.8 -11.4
v -4.3 7.8 -11.4
v -4 7.8 -11.4
v -3.9 7.8 -11.4
v -2.1 7.8 -11.4
v -2 7.8 -11.4
v -1.7 7.8 -11.4
v -1.6 7.8 -11.4
v -4.3 7.8 -11.5
v -4 7.8 -11.5
v -2 7.8 -11.5
v -1.7 7.8 -11.5
v -3.4 8.4 -8.1
v -2.7 8.4 -8.1
v -3.8 8.4 -8.2
v -3.4 8.4 -8.2
v -2.7 8.4 -8.2
v -2.3 8.4 -8.2
v -4 8.4 -8.3
v -3.8 8.4 -8.3
v -2.3 8.4 -8.3
v -2.1 8.4 -8.3
v -4.1 8.4 -8.4
v -4 8.4 -8.4
v -2.1 8.4 -8.4
v -2 8.4 -8.4
v -4.3 8.4 -8.5
v -4.1 8.4 -8.5
v -2 8.4 -8.5
v -1.8 8.4 -8.5
v -4.4 8.4 -8.6
v -4.3 8.4 -8.6
v -1.8 8.4 -8.6
v -1.7 8.4 -8.6
v -4.5 8.4 -8.7
v -4.4 8.4 -8.7
v -1.7 8.4 -8.7
v -1.6 8.4 -8.7
v -4.6 8.4 -8.8
v -4.5 8.4 -8.8
v -4.3 8.4 -8.8
v -4 8.4 -8.8
v -2 8.4 -8.8
v -1.7 8.4 -8.8
v -1.6 8.4 -8.8
v -1.5 8.4 -8.8
v -4.7 8.4 -8.9
v -4.6 8.4 -8.9
v -4.4 8.4 -8.9
v -4.3 8.4 -8.9
v -4 8.4 -8.9
v -3.9 8.4 -8.9
v -2.1 8.4 -8.9
v -2 8.4 -8.9
v -1.7 8.4 -8.9
v -1.6 8.4 -8.9
v -1.5 8.4 -8.9
v -1.4 8.4 -8.9
v -4.8 8.4 -9.1
v -4.7 8.4 -9.1
v -1.4 8.4 -9.1
v -1.3 8.4 -9.1
v -4.9 8.4 -9.2
v -4.8 8.4 -9.2
v -4.4 8.4 -9.2
v -4.3 8.4 -9.2
v -4 8.4 -9.2
v -3.9 8.4 -9.2
v -2.1 8.4 -9.2
v -2 8.4 -9.2
v -1.7 8.4 -9.2
v -1.6 8.4 -9.2
v -1.3 8.4 -9.2
v -1.2 8.4 -9.2
v -4.3 8.4 -9.3
v -4 8.4 -9.3
v -2 8.4 -9.3
v -1.7 8.4 -9.3
v -5 8.4 -9.4
v -4.9 8.4 -9.4
v -1.2 8.4 -9.4
v -1.1 8.4 -9.4
v -5.1 8.4 -9.8
v -5 8.4 -9.8
v -1.1 8.4 -9.8
v -1 8.4 -9.8
v -5.1 8.4 -10.6
v -5 8.4 -10.6
v -1.1 8.4 -10.6
v -1 8.4 -10.6
v -5 8.4 -11
v -4.9 8.4 -11
v -4.3 8.4 -11
v -4 8.4 -11
v -2 8.4 -11
v -1.7 8.4 -11
v -1.2 8.4 -11
v -1.1 8.4 -11
v -4.4 8.4 -11.1
v -4.3 8.4 -11.1
v -4 8.4 -11.1
v -3.9 8.4 -11.1
v -2.1 8.4 -11.1
v -2 8.4 -11.1
v -1.7 8.4 -11.1
v -1.6 8.4 -11.1
v -4.9 8.4 -11.2
v -4.8 8.4 -11.2
v -1.3 8.4 -11.2
v -1.2 8.4 -11.2
v -4.8 8.4 -11.3
v -4.7 8.4 -11.3
v -1.4 8.4 -11.3
v -1.3 8.4 -11.3
v -4.4 8.4 -11.4
v -4.3 8.4 -11.4
v -4 8.4 -11.4
v -3.9 8.4 -11.4
v -2.1 8.4 -11.4
v -2 8.4 -11.4
v -1.7 8.4 -11.4
v -1.6 8.4 -11.4
v -4.7 8.4 -11.5
v -4.6 8.4 -11.5
v -4.3 8.4 -11.5
v -4 8.4 -11.5
v -2 8.4 -11.5
v -1.7 8.4 -11.5
v -1.5 8.4 -11.5
v -1.4 8.4 -11.5
v -4.6 8.4 -11.6
v -4.5 8.4 -11.6
v -1.6 8.4 -11.6
v -1.5 8.4 -11.6
v -4.5 8.4 -11.7
v -4.4 8.4 -11.7
v -1.7 8.4 -11.7
v -1.6 8.4 -11.7
v -4.4 8.4 -11.8
v -4.3 8.4 -11.8
v -1.8 8.4 -11.8
v -1.7 8.4 -11.8
v -4.3 8.4 -11.9
v -4.1 8.4 -11.9
v -2 8.4 -11.9
v -1.8 8.4 -11.9
v -4.1 8.4 -12
v -4 8.4 -12
v -2.1 8.4 -12
v -2 8.4 -12
v -4 8.4 -12.1
v -3.8 8.4 -12.1
v -2.3 8.4 -12.1
v -2.1 8.4 -12.1
v -3.8 8.4 -12.2
v -3.4 8.4 -12.2
v -2.7 8.4 -12.2
v -2.3 8.4 -12.2
v -3.4 8.4 -12.3
v -2.7 8.4 -12.3
v -3.4 8.6 -8.1
v -2.7 8.6 -8.1
v -3.8 8.6 -8.2
v -3.4 8.6 -8.2
v -2.7 8.6 -8.2
v -2.3 8.6 -8.2
v -4 8.6 -8.3
v -3.8 8.6 -8.3
v -3.7 8.6 -8.3
v -3.6 8.6 -8.3
v -3.5 8.6 -8.3
v -3.4 8.6 -8.3
v -3.3 8.6 -8.3
v -3.2 8.6 -8.3
v -3.1 8.6 -8.3
v -3 8.6 -8.3
v -2.9 8.6 -8.3
v -2.8 8.6 -8.3
v -2.7 8.6 -8.3
v -2.6 8.6 -8.3
v -2.5 8.6 -8.3
v -2.4 8.6 -8.3
v -2.3 8.6 -8.3
v -2.1 8.6 -8.3
v -4.1 8.6 -8.4
v -4 8.6 -8.4
v -3.9 8.6 -8.4
v -2.2 8.6 -8.4
v -2.1 8.6 -8.4
v -2 8.6 -8.4
v -4.3 8.6 -8.5
v -4.1 8.6 -8.5
v -4 8.6 -8.5
v -3.9 8.6 -8.5
v -3.8 8.6 -8.5
v -3.7 8.6 -8.5
v -3.6 8.6 -8.5
v -3.5 8.6 -8.5
v -3.4 8.6 -8.5
v -3.3 8.6 -8.5
v -3.2 8.6 -8.5
v -3.1 8.6 -8.5
v -3 8.6 -8.5
v -2.9 8.6 -8.5
v -2.8 8.6 -8.5
v -2.7 8.6 -8.5
v -2.6 8.6 -8.5
v -2.5 8.6 -8.5
v -2.4 8.6 -8.5
v -2.3 8.6 -8.5
v -2.2 8.6 -8.5
v -2.1 8.6 -8.5
v -2 8.6 -8.5
v -1.8 8.6 -8.5
v -4.4 8.6 -8.6
v -4.3 8.6 -8.6
v -4.2 8.6 -8.6
v -4.1 8.6 -8.6
v -4 8.6 -8.6
v -3.9 8.6 -8.6
v -3.8 8.6 -8.6
v -3.7 8.6 -8.6
v -3.6 8.6 -8.6
v -3.5 8.6 -8.6
v -3.4 8.6 -8.6
v -3.3 8.6 -8.6
v -3.2 8.6 -8.6
v -3.1 8.6 -8.6
v -3 8.6 -8.6
v -2.9 8.6 -8.6
v -2.8 8.6 -8.6
v -2.7 8.6 -8.6
v -2.6 8.6 -8.6
v -2.5 8.6 -8.6
v -2.4 8.6 -8.6
v -2.3 8.6 -8.6
v -2.2 8.6 -8.6
v -2.1 8.6 -8.6
v -2 8.6 -8.6
v -1.9 8.6 -8.6
v -1.8 8.6 -8.6
v -1.7 8.6 -8.6
v -4.5 8.6 -8.7
v -4.4 8.6 -8.7
v -4.3 8.6 -8.7
v -1.8 8.6 -8.7
v -1.7 8.6 -8.7
v -1.6 8.6 -8.7
v -4.6 8.6 -8.8
v -4.5 8.6 -8.8
v -4.4 8.6 -8.8
v -4.3 8.6 -8.8
v -4.2 8.6 -8.8
v -4.1 8.6 -8.8
v -4 8.6 -8.8
v -3.9 8.6 -8.8
v -3.8 8.6 -8.8
v -3.7 8.6 -8.8
v -3.6 8.6 -8.8
v -3.5 8.6 -8.8
v -3.4 8.6 -8.8
v -3.3 8.6 -8.8
v -3.2 8.6 -8.8
v -3.1 8.6 -8.8
v -3 8.6 -8.8
v -2.9 8.6 -8.8
v -2.8 8.6 -8.8
v -2.7 8.6 -8.8
v -2.6 8.6 -8.8
v -2.5 8.6 -8.8
v -2.4 8.6 -8.8
v -2.3 8.6 -8.8
v -2.2 8.6 -8.8
v -2.1 8.6 -8.8
v -2 8.6 -8.8
v -1.9 8.6 -8.8
v -1.8 8.6 -8.8
v -1.7 8.6 -8.8
v -1.6 8.6 -8.8
v -1.5 8.6 -8.8
v -4.7 8.6 -8.9
v -4.6 8.6 -8.9
v -4.5 8.6 -8.9
v -4.4 8.6 -8.9
v -4.3 8.6 -8.9
v -4.2 8.6 -8.9
v -4.1 8.6 -8.9
v -4 8.6 -8.9
v -3.9 8.6 -8.9
v -3.8 8.6 -8.9
v -3.7 8.6 -8.9
v -3.6 8.6 -8.9
v -3.5 8.6 -8.9
v -3.4 8.6 -8.9
v -3.3 8.6 -8.9
v -3.2 8.6 -8.9
v -3.1 8.6 -8.9
v -3 8.6 -8.9
v -2.9 8.6 -8.9
v -2.8 8.6 -8.9
v -2.7 8.6 -8.9
v -2.6 8.6 -8.9
v -2.5 8.6 -8.9
v -2.4 8.6 -8.9
v -2.3 8.6 -8.9
v -2.2 8.6 -8.9
v -2.1 8.6 -8.9
v -2 8.6 -8.9
v -1.9 8.6 -8.9
v -1.8 8.6 -8.9
v -1.7 8.6 -8.9
v -1.6 8.6 -8.9
v -1.5 8.6 -8.9
v -1.4 8.6 -8.9
v -4.8 8.6 -9.1
v -4.7 8.6 -9.1
v -4.6 8.6 -9.1
v -4.5 8.6 -9.1
v -4.4 8.6 -9.1
v -4.3 8.6 -9.1
v -4.2 8.6 -9.1
v -4.1 8.6 -9.1
v -4 8.6 -9.1
v -3.9 8.6 -9.1
v -3.8 8.6 -9.1
v -3.7 8.6 -9.1
v -3.6 8.6 -9.1
v -3.5 8.6 -9.1
v -3.4 8.6 -9.1
v -3.3 8.6 -9.1
v -3.2 8.6 -9.1
v -3.1 8.6 -9.1
v -3 8.6 -9.1
v -2.9 8.6 -9.1
v -2.8 8.6 -9.1
v -2.7 8.6 -9.1
v -2.6 8.6 -9.1
v -2.5 8.6 -9.1
v -2.4 8.6 -9.1
v -2.3 8.6 -9.1
v -2.2 8.6 -9.1
v -2.1 8.6 -9.1
v -2 8.6 -9.1
v -1.9 8.6 -9.1
v -1.8 8.6 -9.1
v -1.7 8.6 -9.1
v -1.6 8.6 -9.1
v -1.5 8.6 -9.1
v -1.4 8.6 -9.1
v -1.3 8.6 -9.1
v -4.9 8.6 -9.2
v -4.8 8.6 -9.2
v -4.7 8.6 -9.2
v -4.6 8.6 -9.2
v -4.5 8.6 -9.2
v -4.4 8.6 -9.2
v -4.3 8.6 -9.2
v -4.2 8.6 -9.2
v -4.1 8.6 -9.2
v -4 8.6 -9.2
v -3.9 8.6 -9.2
v -3.8 8.6 -9.2
v -3.7 8.6 -9.2
v -3.6 8.6 -9.2
v -3.5 8.6 -9.2
v -3.4 8.6 -9.2
v -3.3 8.6 -9.2
v -3.2 8.6 -9.2
v -3.1 8.6 -9.2
v -3 8.6 -9.2
v -2.9 8.6 -9.2
v -2.8 8.6 -9.2
v -2.7 8.6 -9.2
v -2.6 8.6 -9.2
v -2.5 8.6 -9.2
v -2.4 8.6 -9.2
v -2.3 8.6 -9.2
v -2.2 8.6 -9.2
v -2.1 8.6 -9.2
v -2 8.6 -9.2
v -1.9 8.6 -9.2
v -1.8 8.6 -9.2
v -1.7 8.6 -9.2
v -1.6 8.6 -9.2
v -1.5 8.6 -9.2
v -1.4 8.6 -9.2
v -1.3 8.6 -9.2
v -1.2 8.6 -9.2
v -5 8.6 -9.4
v -4.9 8.6 -9.4
v -4.8 8.6 -9.4
v -4.7 8.6 -9.4
v -4.6 8.6 -9.4
v -4.5 8.6 -9.4
v -4.4 8.6 -9.4
v -4.3 8.6 -9.4
v -4.2 8.6 -9.4
v -4.1 8.6 -9.4
v -4 8.6 -9.4
v -3.9 8.6 -9.4
v -3.8 8.6 -9.4
v -3.7 8.6 -9.4
v -3.6 8.6 -9.4
v -3.5 8.6 -9.4
v -3.4 8.6 -9.4
v -3.3 8.6 -9.4
v -3.2 8.6 -9.4
v -3.1 8.6 -9.4
v -3 8.6 -9.4
v -2.9 8.6 -9.4
v -2.8 8.6 -9.4
v -2.7 8.6 -9.4
v -2.6 8.6 -9.4
v -2.5 8.6 -9.4
v -2.4 8.6 -9.4
v -2.3 8.6 -9.4
v -2.2 8.6 -9.4
v -2.1 8.6 -9.4
v -2 8.6 -9.4
v -1.9 8.6 -9.4
v -1.8 8.6 -9.4
v -1.7 8.6 -9.4
v -1.6 8.6 -9.4
v -1.5 8.6 -9.4
v -1.4 8.6 -9.4
v -1.3 8.6 -9.4
v -1.2 8.6 -9.4
v -1.1 8.6 -9.4
v -4.8 8.6 -9.5
v -4.7 8.6 -9.5
v -4.6 8.6 -9.5
v -4.5 8.6 -9.5
v -4.4 8.6 -9.5
v -4.3 8.6 -9.5
v -4.2 8.6 -9.5
v -4.1 8.6 -9.5
v -4 8.6 -9.5
v -3.9 8.6 -9.5
v -3.8 8.6 -9.5
v -3.7 8.6 -9.5
v -3.6 8.6 -9.5
v -3.5 8.6 -9.5
v -3.4 8.6 -9.5
v -3.3 8.6 -9.5
v -3.2 8.6 -9.5
v -3.1 8.6 -9.5
v -3 8.6 -9.5
v -2.9 8.6 -9.5
v -2.8 8.6 -9.5
v -2.7 8.6 -9.5
v -2.6 8.6 -9.5
v -2.5 8.6 -9.5
v -2.4 8.6 -9.5
v -2.3 8.6 -9.5
v -2.2 8.6 -9.5
v -2.1 8.6 -9.5
v -2 8.6 -9.5
v -1.9 8.6 -9.5
v -1.8 8.6 -9.5
v -1.7 8.6 -9.5
v -1.6 8.6 -9.5
v -1.5 8.6 -9.5
v -1.4 8.6 -9.5
v -1.3 8.6 -9.5
v -4.8 8.6 -9.7
v -4.7 8.6 -9.7
v -4.6 8.6 -9.7
v -4.5 8.6 -9.7
v -4.4 8.6 -9.7
v -4.3 8.6 -9.7
v -4.2 8.6 -9.7
v -4.1 8.6 -9.7
v -4 8.6 -9.7
v -3.9 8.6 -9.7
v -3.8 8.6 -9.7
v -3.7 8.6 -9.7
v -3.6 8.6 -9.7
v -3.5 8.6 -9.7
v -3.4 8.6 -9.7
v -3.3 8.6 -9.7
v -3.2 8.6 -9.7
v -3.1 8.6 -9.7
v -3 8.6 -9.7
v -2.9 8.6 -9.7
v -2.8 8.6 -9.7
v -2.7 8.6 -9.7
v -2.6 8.6 -9.7
v -2.5 8.6 -9.7
v -2.4 8.6 -9.7
v -2.3 8.6 -9.7
v -2.2 8.6 -9.7
v -2.1 8.6 -9.7
v -2 8.6 -9.7
v -1.9 8.6 -9.7
v -1.8 8.6 -9.7
v -1.7 8.6 -9.7
v -1.6 8.6 -9.7
v -1.5 8.6 -9.7
v -1.4 8.6 -9.7
v -1.3 8.6 -9.7
v -5.1 8.6 -9.8
v -5 8.6 -9.8
v -4.9 8.6 -9.8
v -4.8 8.6 -9.8
v -4.7 8.6 -9.8
v -4.6 8.6 -9.8
v -4.5 8.6 -9.8
v -4.4 8.6 -9.8
v -4.3 8.6 -9.8
v -4.2 8.6 -9.8
v -4.1 8.6 -9.8
v -4 8.6 -9.8
v -3.9 8.6 -9.8
v -3.8 8.6 -9.8
v -3.7 8.6 -9.8
v -3.6 8.6 -9.8
v -3.5 8.6 -9.8
v -3.4 8.6 -9.8
v -3.3 8.6 -9.8
v -3.2 8.6 -9.8
v -3.1 8.6 -9.8
v -3 8.6 -9.8
v -2.9 8.6 -9.8
v -2.8 8.6 -9.8
v -2.7 8.6 -9.8
v -2.6 8.6 -9.8
v -2.5 8.6 -9.8
v -2.4 8.6 -9.8
v -2.3 8.6 -9.8
v -2.2 8.6 -9.8
v -2.1 8.6 -9.8
v -2 8.6 -9.8
v -1.9 8.6 -9.8
v -1.8 8.6 -9.8
v -1.7 8.6 -9.8
v -1.6 8.6 -9.8
v -1.5 8.6 -9.8
v -1.4 8.6 -9.8
v -1.3 8.6 -9.8
v -1.2 8.6 -9.8
v -1.1 8.6 -9.8
v -1 8.6 -9.8
v -5 8.6 -10
v -4.9 8.6 -10
v -4.8 8.6 -10
v -4.7 8.6 -10
v -4.6 8.6 -10
v -4.5 8.6 -10
v -4.4 8.6 -10
v -4.3 8.6 -10
v -4.2 8.6 -10
v -4.1 8.6 -10
v -4 8.6 -10
v -3.9 8.6 -10
v -3.8 8.6 -10
v -3.7 8.6 -10
v -3.6 8.6 -10
v -3.5 8.6 -10
v -3.4 8.6 -10
v -3.3 8.6 -10
v -3.2 8.6 -10
v -3.1 8.6 -10
v -3 8.6 -10
v -2.9 8.6 -10
v -2.8 8.6 -10
v -2.7 8.6 -10
v -2.6 8.6 -10
v -2.5 8.6 -10
v -2.4 8.6 -10
v -2.3 8.6 -10
v -2.2 8.6 -10
v -2.1 8.6 -10
v -2 8.6 -10
v -1.9 8.6 -10
v -1.8 8.6 -10
v -1.7 8.6 -10
v -1.6 8.6 -10
v -1.5 8.6 -10
v -1.4 8.6 -10
v -1.3 8.6 -10
v -1.2 8.6 -10
v -1.1 8.6 -10
v -5 8.6 -10.1
v -4.9 8.6 -10.1
v -4.8 8.6 -10.1
v -4.7 8.6 -10.1
v -4.6 8.6 -10.1
v -4.5 8.6 -10.1
v -4.4 8.6 -10.1
v -4.3 8.6 -10.1
v -4.2 8.6 -10.1
v -4.1 8.6 -10.1
v -4 8.6 -10.1
v -3.9 8.6 -10.1
v -3.8 8.6 -10.1
v -3.7 8.6 -10.1
v -3.6 8.6 -10.1
v -3.5 8.6 -10.1
v -3.4 8.6 -10.1
v -3.3 8.6 -10.1
v -3.2 8.6 -10.1
v -3.1 8.6 -10.1
v -3 8.6 -10.1
v -2.9 8.6 -10.1
v -2.8 8.6 -10.1
v -2.7 8.6 -10.1
v -2.6 8.6 -10.1
v -2.5 8.6 -10.1
v -2.4 8.6 -10.1
v -2.3 8.6 -10.1
v -2.2 8.6 -10.1
v -2.1 8.6 -10.1
v -2 8.6 -10.1
v -1.9 8.6 -10.1
v -1.8 8.6 -10.1
v -1.7 8.6 -10.1
v -1.6 8.6 -10.1
v -1.5 8.6 -10.1
v -1.4 8.6 -10.1
v -1.3 8.6 -10.1
v -1.2 8.6 -10.1
v -1.1 8.6 -10.1
v -5 8.6 -10.3
v -4.9 8.6 -10.3
v -4.8 8.6 -10.3
v -4.7 8.6 -10.3
v -4.6 8.6 -10.3
v -4.5 8.6 -10.3
v -4.4 8.6 -10.3
v -4.3 8.6 -10.3
v -4.2 8.6 -10.3
v -4.1 8.6 -10.3
v -4 8.6 -10.3
v -3.9 8.6 -10.3
v -3.8 8.6 -10.3
v -3.7 8.6 -10.3
v -3.6 8.6 -10.3
v -3.5 8.6 -10.3
v -3.4 8.6 -10.3
v -3.3 8.6 -10.3
v -3.2 8.6 -10.3
v -3.1 8.6 -10.3
v -3 8.6 -10.3
v -2.9 8.6 -10.3
v -2.8 8.6 -10.3
v -2.7 8.6 -10.3
v -2.6 8.6 -10.3
v -2.5 8.6 -10.3
v -2.4 8.6 -10.3
v -2.3 8.6 -10.3
v -2.2 8.6 -10.3
v -2.1 8.6 -10.3
v -2 8.6 -10.3
v -1.9 8.6 -10.3
v -1.8 8.6 -10.3
v -1.7 8.6 -10.3
v -1.6 8.6 -10.3
v -1.5 8.6 -10.3
v -1.4 8.6 -10.3
v -1.3 8.6 -10.3
v -1.2 8.6 -10.3
v -1.1 8.6 -10.3
v -5 8.6 -10.4
v -4.9 8.6 -10.4
v -4.8 8.6 -10.4
v -4.7 8.6 -10.4
v -4.6 8.6 -10.4
v -4.5 8.6 -10.4
v -4.4 8.6 -10.4
v -4.3 8.6 -10.4
v -4.2 8.6 -10.4
v -4.1 8.6 -10.4
v -4 8.6 -10.4
v -3.9 8.6 -10.4
v -3.8 8.6 -10.4
v -3.7 8.6 -10.4
v -3.6 8.6 -10.4
v -3.5 8.6 -10.4
v -3.4 8.6 -10.4
v -3.3 8.6 -10.4
v -3.2 8.6 -10.4
v -3.1 8.6 -10.4
v -3 8.6 -10.4
v -2.9 8.6 -10.4
v -2.8 8.6 -10.4
v -2.7 8.6 -10.4
v -2.6 8.6 -10.4
v -2.5 8.6 -10.4
v -2.4 8.6 -10.4
v -2.3 8.6 -10.4
v -2.2 8.6 -10.4
v -2.1 8.6 -10.4
v -2 8.6 -10.4
v -1.9 8.6 -10.4
v -1.8 8.6 -10.4
v -1.7 8.6 -10.4
v -1.6 8.6 -10.4
v -1.5 8.6 -10.4
v -1.4 8.6 -10.4
v -1.3 8.6 -10.4
v -1.2 8.6 -10.4
v -1.1 8.6 -10.4
v -5.1 8.6 -10.6
v -5 8.6 -10.6
v -4.9 8.6 -10.6
v -4.8 8.6 -10.6
v -4.7 8.6 -10.6
v -4.6 8.6 -10.6
v -4.5 8.6 -10.6
v -4.4 8.6 -10.6
v -4.3 8.6 -10.6
v -4.2 8.6 -10.6
v -4.1 8.6 -10.6
v -4 8.6 -10.6
v -3.9 8.6 -10.6
v -3.8 8.6 -10.6
v -3.7 8.6 -10.6
v -3.6 8.6 -10.6
v -3.5 8.6 -10.6
v -3.4 8.6 -10.6
v -3.3 8.6 -10.6
v -3.2 8.6 -10.6
v -3.1 8.6 -10.6
v -3 8.6 -10.6
v -2.9 8.6 -10.6
v -2.8 8.6 -10.6
v -2.7 8.6 -10.6
v -2.6 8.6 -10.6
v -2.5 8.6 -10.6
v -2.4 8.6 -10.6
v -2.3 8.6 -10.6
v -2.2 8.6 -10.6
v -2.1 8.6 -10.6
v -2 8.6 -10.6
v -1.9 8.6 -10.6
v -1.8 8.6 -10.6
v -1.7 8.6 -10.6
v -1.6 8.6 -10.6
v -1.5 8.6 -10.6
v -1.4 8.6 -10.6
v -1.3 8.6 -10.6
v -1.2 8.6 -10.6
v -1.1 8.6 -10.6
v -1 8.6 -10.6
v -4.8 8.6 -10.7
v -4.7 8.6 -10.7
v -4.6 8.6 -10.7
v -4.5 8.6 -10.7
v -4.4 8.6 -10.7
v -4.3 8.6 -10.7
v -4.2 8.6 -10.7
v -4.1 8.6 -10.7
v -4 8.6 -10.7
v -3.9 8.6 -10.7
v -3.8 8.6 -10.7
v -3.7 8.6 -10.7
v -3.6 8.6 -10.7
v -3.5 8.6 -10.7
v -3.4 8.6 -10.7
v -3.3 8.6 -10.7
v -3.2 8.6 -10.7
v -3.1 8.6 -10.7
v -3 8.6 -10.7
v -2.9 8.6 -10.7
v -2.8 8.6 -10.7
v -2.7 8.6 -10.7
v -2.6 8.6 -10.7
v -2.5 8.6 -10.7
v -2.4 8.6 -10.7
v -2.3 8.6 -10.7
v -2.2 8.6 -10.7
v -2.1 8.6 -10.7
v -2 8.6 -10.7
v -1.9 8.6 -10.7
v -1.8 8.6 -10.7
v -1.7 8.6 -10.7
v -1.6 8.6 -10.7
v -1.5 8.6 -10.7
v -1.4 8.6 -10.7
v -1.3 8.6 -10.7
v -4.8 8.6 -10.9
v -4.7 8.6 -10.9
v -4.6 8.6 -10.9
v -4.5 8.6 -10.9
v -4.4 8.6 -10.9
v -4.3 8.6 -10.9
v -4.2 8.6 -10.9
v -4.1 8.6 -10.9
v -4 8.6 -10.9
v -3.9 8.6 -10.9
v -3.8 8.6 -10.9
v -3.7 8.6 -10.9
v -3.6 8.6 -10.9
v -3.5 8.6 -10.9
v -3.4 8.6 -10.9
v -3.3 8.6 -10.9
v -3.2 8.6 -10.9
v -3.1 8.6 -10.9
v -3 8.6 -10.9
v -2.9 8.6 -10.9
v -2.8 8.6 -10.9
v -2.7 8.6 -10.9
v -2.6 8.6 -10.9
v -2.5 8.6 -10.9
v -2.4 8.6 -10.9
v -2.3 8.6 -10.9
v -2.2 8.6 -10.9
v -2.1 8.6 -10.9
v -2 8.6 -10.9
v -1.9 8.6 -10.9
v -1.8 8.6 -10.9
v -1.7 8.6 -10.9
v -1.6 8.6 -10.9
v -1.5 8.6 -10.9
v -1.4 8.6 -10.9
v -1.3 8.6 -10.9
v -5 8.6 -11
v -4.9 8.6 -11
v -4.8 8.6 -11
v -4.7 8.6 -11
v -4.6 8.6 -11
v -4.5 8.6 -11
v -4.4 8.6 -11
v -4.3 8.6 -11
v -4.2 8.6 -11
v -4.1 8.6 -11
v -4 8.6 -11
v -3.9 8.6 -11
v -3.8 8.6 -11
v -3.7 8.6 -11
v -3.6 8.6 -11
v -3.5 8.6 -11
v -3.4 8.6 -11
v -3.3 8.6 -11
v -3.2 8.6 -11
v -3.1 8.6 -11
v -3 8.6 -11
v -2.9 8.6 -11
v -2.8 8.6 -11
v -2.7 8.6 -11
v -2.6 8.6 -11
v -2.5 8.6 -11
v -2.4 8.6 -11
v -2.3 8.6 -11
v -2.2 8.6 -11
v -2.1 8.6 -11
v -2 8.6 -11
v -1.9 8.6 -11
v -1.8 8.6 -11
v -1.7 8.6 -11
v -1.6 8.6 -11
v -1.5 8.6 -11
v -1.4 8.6 -11
v -1.3 8.6 -11
v -1.2 8.6 -11
v -1.1 8.6 -11
v -4.9 8.6 -11.2
v -4.8 8.6 -11.2
v -4.7 8.6 -11.2
v -4.6 8.6 -11.2
v -4.5 8.6 -11.2
v -4.4 8.6 -11.2
v -4.3 8.6 -11.2
v -4.2 8.6 -11.2
v -4.1 8.6 -11.2
v -4 8.6 -11.2
v -3.9 8.6 -11.2
v -3.8 8.6 -11.2
v -3.7 8.6 -11.2
v -3.6 8.6 -11.2
v -3.5 8.6 -11.2
v -3.4 8.6 -11.2
v -3.3 8.6 -11.2
v -3.2 8.6 -11.2
v -3.1 8.6 -11.2
v -3 8.6 -11.2
v -2.9 8.6 -11.2
v -2.8 8.6 -11.2
v -2.7 8.6 -11.2
v -2.6 8.6 -11.2
v -2.5 8.6 -11.2
v -2.4 8.6 -11.2
v -2.3 8.6 -11.2
v -2.2 8.6 -11.2
v -2.1 8.6 -11.2
v -2 8.6 -11.2
v -1.9 8.6 -11.2
v -1.8 8.6 -11.2
v -1.7 8.6 -11.2
v -1.6 8.6 -11.2
v -1.5 8.6 -11.2
v -1.4 8.6 -11.2
v -1.3 8.6 -11.2
v -1.2 8.6 -11.2
v -4.8 8.6 -11.3
v -4.7 8.6 -11.3
v -4.6 8.6 -11.3
v -4.5 8.6 -11.3
v -4.4 8.6 -11.3
v -4.3 8.6 -11.3
v -4.2 8.6 -11.3
v -4.1 8.6 -11.3
v -4 8.6 -11.3
v -3.9 8.6 -11.3
v -3.8 8.6 -11.3
v -3.7 8.6 -11.3
v -3.6 8.6 -11.3
v -3.5 8.6 -11.3
v -3.4 8.6 -11.3
v -3.3 8.6 -11.3
v -3.2 8.6 -11.3
v -3.1 8.6 -11.3
v -3 8.6 -11.3
v -2.9 8.6 -11.3
v -2.8 8.6 -11.3
v -2.7 8.6 -11.3
v -2.6 8.6 -11.3
v -2.5 8.6 -11.3
v -2.4 8.6 -11.3
v -2.3 8.6 -11.3
v -2.2 8.6 -11.3
v -2.1 8.6 -11.3
v -2 8.6 -11.3
v -1.9 8.6 -11.3
v -1.8 8.6 -11.3
v -1.7 8.6 -11.3
v -1.6 8.6 -11.3
v -1.5 8.6 -11.3
v -1.4 8.6 -11.3
v -1.3 8.6 -11.3
v -4.7 8.6 -11.5
v -4.6 8.6 -11.5
v -4.5 8.6 -11.5
v -4.4 8.6 -11.5
v -4.3 8.6 -11.5
v -4.2 8.6 -11.5
v -4.1 8.6 -11.5
v -4 8.6 -11.5
v -3.9 8.6 -11.5
v -3.8 8.6 -11.5
v -3.7 8.6 -11.5
v -3.6 8.6 -11.5
v -3.5 8.6 -11.5
v -3.4 8.6 -11.5
v -3.3 8.6 -11.5
v -3.2 8.6 -11.5
v -3.1 8.6 -11.5
v -3 8.6 -11.5
v -2.9 8.6 -11.5
v -2.8 8.6 -11.5
v -2.7 8.6 -11.5
v -2.6 8.6 -11.5
v -2.5 8.6 -11.5
v -2.4 8.6 -11.5
v -2.3 8.6 -11.5
v -2.2 8.6 -11.5
v -2.1 8.6 -11.5
v -2 8.6 -11.5
v -1.9 8.6 -11.5
v -1.8 8.6 -11.5
v -1.7 8.6 -11.5
v -1.6 8.6 -11.5
v -1.5 8.6 -11.5
v -1.4 8.6 -11.5
v -4.6 8.6 -11.6
v -4.5 8.6 -11.6
v -4.4 8.6 -11.6
v -4.3 8.6 -11.6
v -4.2 8.6 -11.6
v -4.1 8.6 -11.6
v -4 8.6 -11.6
v -3.9 8.6 -11.6
v -3.8 8.6 -11.6
v -3.7 8.6 -11.6
v -3.6 8.6 -11.6
v -3.5 8.6 -11.6
v -3.4 8.6 -11.6
v -3.3 8.6 -11.6
v -3.2 8.6 -11.6
v -3.1 8.6 -11.6
v -3 8.6 -11.6
v -2.9 8.6 -11.6
v -2.8 8.6 -11.6
v -2.7 8.6 -11.6
v -2.6 8.6 -11.6
v -2.5 8.6 -11.6
v -2.4 8.6 -11.6
v -2.3 8.6 -11.6
v -2.2 8.6 -11.6
v -2.1 8.6 -11.6
v -2 8.6 -11.6
v -1.9 8.6 -11.6
v -1.8 8.6 -11.6
v -1.7 8.6 -11.6
v -1.6 8.6 -11.6
v -1.5 8.6 -11.6
v -4.5 8.6 -11.7
v -4.4 8.6 -11.7
v -4.3 8.6 -11.7
v -1.8 8.6 -11.7
v -1.7 8.6 -11.7
v -1.6 8.6 -11.7
v -4.4 8.6 -11.8
v -4.3 8.6 -11.8
v -4.2 8.6 -11.8
v -4.1 8.6 -11.8
v -4 8.6 -11.8
v -3.9 8.6 -11.8
v -3.8 8.6 -11.8
v -3.7 8.6 -11.8
v -3.6 8.6 -11.8
v -3.5 8.6 -11.8
v -3.4 8.6 -11.8
v -3.3 8.6 -11.8
v -3.2 8.6 -11.8
v -3.1 8.6 -11.8
v -3 8.6 -11.8
v -2.9 8.6 -11.8
v -2.8 8.6 -11.8
v -2.7 8.6 -11.8
v -2.6 8.6 -11.8
v -2.5 8.6 -11.8
v -2.4 8.6 -11.8
v -2.3 8.6 -11.8
v -2.2 8.6 -11.8
v -2.1 8.6 -11.8
v -2 8.6 -11.8
v -1.9 8.6 -11.8
v -1.8 8.6 -11.8
v -1.7 8.6 -11.8
v -4.3 8.6 -11.9
v -4.1 8.6 -11.9
v -4 8.6 -11.9
v -3.9 8.6 -11.9
v -3.8 8.6 -11.9
v -3.7 8.6 -11.9
v -3.6 8.6 -11.9
v -3.5 8.6 -11.9
v -3.4 8.6 -11.9
v -3.3 8.6 -11.9
v -3.2 8.6 -11.9
v -3.1 8.6 -11.9
v -3 8.6 -11.9
v -2.9 8.6 -11.9
v -2.8 8.6 -11.9
v -2.7 8.6 -11.9
v -2.6 8.6 -11.9
v -2.5 8.6 -11.9
v -2.4 8.6 -11.9
v -2.3 8.6 -11.9
v -2.2 8.6 -11.9
v -2.1 8.6 -11.9
v -2 8.6 -11.9
v -1.8 8.6 -11.9
v -4.1 8.6 -12
v -4 8.6 -12
v -3.9 8.6 -12
v -2.2 8.6 -12
v -2.1 8.6 -12
v -2 8.6 -12
v -4 8.6 -12.1
v -3.8 8.6 -12.1
v -3.7 8.6 -12.1
v -3.6 8.6 -12.1
v -3.5 8.6 -12.1
v -3.4 8.6 -12.1
v -3.3 8.6 -12.1
v -3.2 8.6 -12.1
v -3.1 8.6 -12.1
v -3 8.6 -12.1
v -2.9 8.6 -12.1
v -2.8 8.6 -12.1
v -2.7 8.6 -12.1
v -2.6 8.6 -12.1
v -2.5 8.6 -12.1
v -2.4 8.6 -12.1
v -2.3 8.6 -12.1
v -2.1 8.6 -12.1
v -3.8 8.6 -12.2
v -3.4 8.6 -12.2
v -2.7 8.6 -12.2
v -2.3 8.6 -12.2
v -3.4 8.6 -12.3
v -2.7 8.6 -12.3

# faces
f 3/2/1 2/2/1 1/2/1
f 4/2/1 2/2/1 3/2/1
f 9/2/1 6/2/1 5/2/1
f 10/2/1 6/2/1 9/2/1
f 11/2/1 8/2/1 7/2/1
f 12/2/1 8/2/1 11/2/1
f 17/2/1 14/2/1 13/2/1
f 18/2/1 14/2/1 17/2/1
f 19/2/1 16/2/1 15/2/1
f 20/2/1 16/2/1 19/2/1
f 25/2/1 22/2/1 21/2/1
f 26/2/1 22/2/1 25/2/1
f 27/2/1 24/2/1 23/2/1
f 28/2/1 24/2/1 27/2/1
f 33/2/1 30/2/1 29/2/1
f 34/2/1 30/2/1 33/2/1
f 35/2/1 32/2/1 31/2/1
f 36/2/1 32/2/1 35/2/1
f 41/2/1 38/2/1 37/2/1
f 42/2/1 38/2/1 41/2/1
f 43/2/1 40/2/1 39/2/1
f 44/2/1 40/2/1 43/2/1
f 49/2/1 46/2/1 45/2/1
f 50/2/1 46/2/1 49/2/1
f 51/2/1 48/2/1 47/2/1
f 52/2/1 48/2/1 51/2/1
f 59/1/1 54/1/1 53/1/1
f 60/1/1 54/1/1 59/1/1
f 61/1/1 56/1/1 55/1/1
f 62/1/1 56/1/1 61/1/1
f 65/2/1 58/2/1 57/2/1
f 66/2/1 58/2/1 65/2/1
f 67/2/1 64/2/1 63/2/1
f 68/2/1 64/2/1 67/2/1
f 79/1/1 70/1/1 69/1/1
f 80/1/1 70/1/1 79/1/1
f 81/1/1 72/1/1 71/1/1
f 82/1/1 72/1/1 81/1/1
f 83/1/1 74/1/1 73/1/1
f 84/1/1 74/1/1 83/1/1
f 85/1/1 76/1/1 75/1/1
f 86/1/1 76/1/1 85/1/1
f 89/2/1 78/2/1 77/2/1
f 90/2/1 78/2/1 89/2/1
f 91/2/1 88/2/1 87/2/1
f 92/2/1 88/2/1 91/2/1
f 97/2/1 94/2/1 93/2/1
f 98/2/1 94/2/1 97/2/1
f 99/2/1 96/2/1 95/2/1
f 100/2/1 96/2/1 99/2/1
f 105/2/1 102/2/1 101/2/1
f 106/2/1 102/2/1 105/2/1
f 107/2/1 104/2/1 103/2/1
f 108/2/1 104/2/1 107/2/1
f 113/2/1 110/2/1 109/2/1
f 114/2/1 110/2/1 113/2/1
f 115/2/1 112/2/1 111/2/1
f 116/2/1 112/2/1 115/2/1
f 121/2/1 118/2/1 117/2/1
f 122/2/1 118/2/1 121/2/1
f 123/2/1 120/2/1 119/2/1
f 124/2/1 120/2/1 123/2/1
f 129/1/1 126/1/1 125/1/1
f 130/1/1 126/1/1 129/1/1
f 131/1/1 128/1/1 127/1/1
f 132/1/1 128/1/1 131/1/1
f 141/1/1 134/1/1 133/1/1
f 142/1/1 134/1/1 141/1/1
f 143/1/1 136/1/1 135/1/1
f 144/1/1 136/1/1 143/1/1
f 145/1/1 138/1/1 137/1/1
f 146/1/1 138/1/1 145/1/1
f 147/1/1 140/1/1 139/1/1
f 148/1/1 140/1/1 147/1/1
f 149/1/2 150/1/2 157/1/2
f 157/1/2 150/1/2 158/1/2
f 151/1/2 152/1/2 159/1/2
f 159/1/2 152/1/2 160/1/2
f 153/1/2 154/1/2 161/1/2
f 161/1/2 154/1/2 162/1/2
f 155/1/2 156/1/2 163/1/2
f 163/1/2 156/1/2 164/1/2
f 165/1/2 166/1/2 169/1/2
f 169/1/2 166/1/2 170/1/2
f 167/1/2 168/1/2 171/1/2
f 171/1/2 168/1/2 172/1/2
f 173/2/2 174/2/2 177/2/2
f 177/2/2 174/2/2 178/2/2
f 175/2/2 176/2/2 179/2/2
f 179/2/2 176/2/2 180/2/2
f 181/2/2 182/2/2 185/2/2
f 185/2/2 182/2/2 186/2/2
f 183/2/2 184/2/2 187/2/2
f 187/2/2 184/2/2 188/2/2
f 189/2/2 190/2/2 193/2/2
f 193/2/2 190/2/2 194/2/2
f 191/2/2 192/2/2 195/2/2
f 195/2/2 192/2/2 196/2/2
f 197/2/2 198/2/2 201/2/2
f 201/2/2 198/2/2 202/2/2
f 199/2/2 200/2/2 203/2/2
f 203/2/2 200/2/2 204/2/2
f 205/2/2 206/2/2 209/2/2
f 209/2/2 206/2/2 210/2/2
f 207/2/2 208/2/2 211/2/2
f 211/2/2 208/2/2 212/2/2
f 213/1/2 214/1/2 223/1/2
f 223/1/2 214/1/2 224/1/2
f 215/1/2 216/1/2 225/1/2
f 225/1/2 216/1/2 226/1/2
f 217/1/2 218/1/2 227/1/2
f 227/1/2 218/1/2 228/1/2
f 219/1/2 220/1/2 229/1/2
f 229/1/2 220/1/2 230/1/2
f 221/2/2 222/2/2 233/2/2
f 233/2/2 222/2/2 234/2/2
f 231/2/2 232/2/2 235/2/2
f 235/2/2 232/2/2 236/2/2
f 237/1/2 238/1/2 243/1/2
f 243/1/2 238/1/2 244/1/2
f 239/1/2 240/1/2 245/1/2
f 245/1/2 240/1/2 246/1/2
f 241/2/2 242/2/2 249/2/2
f 249/2/2 242/2/2 250/2/2
f 247/2/2 248/2/2 251/2/2
f 251/2/2 248/2/2 252/2/2
f 253/2/2 254/2/2 257/2/2
f 257/2/2 254/2/2 258/2/2
f 255/2/2 256/2/2 259/2/2
f 259/2/2 256/2/2 260/2/2
f 261/2/2 262/2/2 265/2/2
f 265/2/2 262/2/2 266/2/2
f 263/2/2 264/2/2 267/2/2
f 267/2/2 264/2/2 268/2/2
f 269/2/2 270/2/2 273/2/2
f 273/2/2 270/2/2 274/2/2
f 271/2/2 272/2/2 275/2/2
f 275/2/2 272/2/2 276/2/2
f 277/2/2 278/2/2 281/2/2
f 281/2/2 278/2/2 282/2/2
f 279/2/2 280/2/2 283/2/2
f 283/2/2 280/2/2 284/2/2
f 285/2/2 286/2/2 289/2/2
f 289/2/2 286/2/2 290/2/2
f 287/2/2 288/2/2 291/2/2
f 291/2/2 288/2/2 292/2/2
f 293/2/2 294/2/2 295/2/2
f 295/2/2 294/2/2 296/2/2
f 299/2/3 298/2/3 297/2/3
f 300/2/3 298/2/3 299/2/3
f 303/2/3 302/2/3 301/2/3
f 304/2/3 302/2/3 303/2/3
f 307/2/3 306/2/3 305/2/3
f 308/2/3 306/2/3 307/2/3
f 311/2/3 310/2/3 309/2/3
f 312/2/3 310/2/3 311/2/3
f 315/2/3 314/2/3 313/2/3
f 316/2/3 314/2/3 315/2/3
f 319/2/3 318/2/3 317/2/3
f 320/2/3 318/2/3 319/2/3
f 323/2/3 322/2/3 321/2/3
f 324/2/3 322/2/3 323/2/3
f 327/2/3 326/2/3 325/2/3
f 328/2/3 326/2/3 327/2/3
f 331/2/3 330/2/3 329/2/3
f 332/2/3 330/2/3 331/2/3
f 335/2/3 334/2/3 333/2/3
f 336/2/3 334/2/3 335/2/3
f 339/2/3 338/2/3 337/2/3
f 340/2/3 338/2/3 339/2/3
f 343/2/3 342/2/3 341/2/3
f 344/2/3 342/2/3 343/2/3
f 347/2/3 346/2/3 345/2/3
f 348/2/3 346/2/3 347/2/3
f 351/2/3 350/2/3 349/2/3
f 352/2/3 350/2/3 351/2/3
f 355/1/3 354/1/3 353/1/3
f 356/1/3 354/1/3 355/1/3
f 359/1/3 358/1/3 357/1/3
f 360/1/3 358/1/3 359/1/3
f 363/2/3 362/2/3 361/2/3
f 364/2/3 362/2/3 363/2/3
f 367/2/3 366/2/3 365/2/3
f 368/2/3 366/2/3 367/2/3
f 371/1/3 370/1/3 369/1/3
f 372/1/3 370/1/3 371/1/3
f 375/1/3 374/1/3 373/1/3
f 376/1/3 374/1/3 375/1/3
f 379/1/3 378/1/3 377/1/3
f 380/1/3 378/1/3 379/1/3
f 383/1/3 382/1/3 381/1/3
f 384/1/3 382/1/3 383/1/3
f 387/2/3 386/2/3 385/2/3
f 388/2/3 386/2/3 387/2/3
f 391/2/3 390/2/3 389/2/3
f 392/2/3 390/2/3 391/2/3
f 395/2/3 394/2/3 393/2/3
f 396/2/3 394/2/3 395/2/3
f 399/2/3 398/2/3 397/2/3
f 400/2/3 398/2/3 399/2/3
f 403/2/3 402/2/3 401/2/3
f 404/2/3 402/2/3 403/2/3
f 407/2/3 406/2/3 405/2/3
f 408/2/3 406/2/3 407/2/3
f 411/2/3 410/2/3 409/2/3
f 412/2/3 410/2/3 411/2/3
f 415/2/3 414/2/3 413/2/3
f 416/2/3 414/2/3 415/2/3
f 419/2/3 418/2/3 417/2/3
f 420/2/3 418/2/3 419/2/3
f 423/1/3 422/1/3 421/1/3
f 424/1/3 422/1/3 423/1/3
f 427/1/3 426/1/3 425/1/3
f 428/1/3 426/1/3 427/1/3
f 431/1/3 430/1/3 429/1/3
f 432/1/3 430/1/3 431/1/3
f 435/1/3 434/1/3 433/1/3
f 436/1/3 434/1/3 435/1/3
f 439/1/3 438/1/3 437/1/3
f 440/1/3 438/1/3 439/1/3
f 443/1/3 442/1/3 441/1/3
f 444/1/3 442/1/3 443/1/3
f 445/1/4 446/1/4 447/1/4
f 447/1/4 446/1/4 448/1/4
f 449/1/4 450/1/4 451/1/4
f 451/1/4 450/1/4 452/1/4
f 453/1/4 454/1/4 455/1/4
f 455/1/4 454/1/4 456/1/4
f 457/1/4 458/1/4 459/1/4
f 459/1/4 458/1/4 460/1/4
f 461/1/4 462/1/4 463/1/4
f 463/1/4 462/1/4 464/1/4
f 465/1/4 466/1/4 467/1/4
f 467/1/4 466/1/4 468/1/4
f 469/2/4 470/2/4 471/2/4
f 471/2/4 470/2/4 472/2/4
f 473/2/4 474/2/4 475/2/4
f 475/2/4 474/2/4 476/2/4
f 477/2/4 478/2/4 479/2/4
f 479/2/4 478/2/4 480/2/4
f 481/2/4 482/2/4 483/2/4
f 483/2/4 482/2/4 484/2/4
f 485/2/4 486/2/4 487/2/4
f 487/2/4 486/2/4 488/2/4
f 489/2/4 490/2/4 491/2/4
f 491/2/4 490/2/4 492/2/4
f 493/2/4 494/2/4 495/2/4
f 495/2/4 494/2/4 496/2/4
f 497/2/4 498/2/4 499/2/4
f 499/2/4 498/2/4 500/2/4
f 501/1/4 502/1/4 503/1/4
f 503/1/4 502/1/4 504/1/4
f 505/1/4 506/1/4 507/1/4
f 507/1/4 506/1/4 508/1/4
f 509/1/4 510/1/4 511/1/4
f 511/1/4 510/1/4 512/1/4
f 513/1/4 514/1/4 515/1/4
f 515/1/4 514/1/4 516/1/4
f 517/2/4 518/2/4 519/2/4
f 519/2/4 518/2/4 520/2/4
f 521/1/4 522/1/4 523/1/4
f 523/1/4 522/1/4 524/1/4
f 525/1/4 526/1/4 527/1/4
f 527/1/4 526/1/4 528/1/4
f 529/2/4 530/2/4 531/2/4
f 531/2/4 530/2/4 532/2/4
f 533/2/4 534/2/4 535/2/4
f 535/2/4 534/2/4 536/2/4
f 537/2/4 538/2/4 539/2/4
f 539/2/4 538/2/4 540/2/4
f 541/2/4 542/2/4 543/2/4
f 543/2/4 542/2/4 544/2/4
f 545/2/4 546/2/4 547/2/4
f 547/2/4 546/2/4 548/2/4
f 549/2/4 550/2/4 551/2/4
f 551/2/4 550/2/4 552/2/4
f 553/2/4 554/2/4 555/2/4
f 555/2/4 554/2/4 556/2/4
f 557/2/4 558/2/4 559/2/4
f 559/2/4 558/2/4 560/2/4
f 561/2/4 562/2/4 563/2/4
f 563/2/4 562/2/4 564/2/4
f 565/2/4 566/2/4 567/2/4
f 567/2/4 566/2/4 568/2/4
f 569/2/4 570/2/4 571/2/4
f 571/2/4 570/2/4 572/2/4
f 573/2/4 574/2/4 575/2/4
f 575/2/4 574/2/4 576/2/4
f 577/2/4 578/2/4 579/2/4
f 579/2/4 578/2/4 580/2/4
f 581/2/4 582/2/4 583/2/4
f 583/2/4 582/2/4 584/2/4
f 585/2/4 586/2/4 587/2/4
f 587/2/4 586/2/4 588/2/4
f 589/2/4 590/2/4 591/2/4
f 591/2/4 590/2/4 592/2/4
f 598/1/5 594/1/5 593/1/5
f 599/1/5 594/1/5 598/1/5
f 602/1/5 596/1/5 595/1/5
f 603/1/5 596/1/5 602/1/5
f 605/1/5 600/1/5 599/1/5
f 605/1/5 598/1/5 597/1/5
f 605/1/5 599/1/5 598/1/5
f 606/1/5 600/1/5 605/1/5
f 607/1/5 600/1/5 606/1/5
f 608/1/5 600/1/5 607/1/5
f 609/1/5 604/1/5 603/1/5
f 609/1/5 603/1/5 602/1/5
f 609/1/5 602/1/5 601/1/5
f 610/1/5 604/1/5 609/1/5
f 611/1/5 604/1/5 610/1/5
f 612/1/5 604/1/5 611/1/5
f 613/1/5 607/1/5 606/1/5
f 614/1/5 607/1/5 613/1/5
f 615/1/5 611/1/5 610/1/5
f 616/1/5 611/1/5 615/1/5
f 622/1/5 618/1/5 617/1/5
f 623/1/5 618/1/5 622/1/5
f 626/1/5 620/1/5 619/1/5
f 627/1/5 620/1/5 626/1/5
f 629/1/5 624/1/5 623/1/5
f 629/1/5 622/1/5 621/1/5
f 629/1/5 623/1/5 622/1/5
f 630/1/5 624/1/5 629/1/5
f 631/1/5 624/1/5 630/1/5
f 632/1/5 624/1/5 631/1/5
f 633/1/5 627/1/5 626/1/5
f 633/1/5 628/1/5 627/1/5
f 633/1/5 626/1/5 625/1/5
f 634/1/5 628/1/5 633/1/5
f 635/1/5 628/1/5 634/1/5
f 636/1/5 628/1/5 635/1/5
f 637/1/5 631/1/5 630/1/5
f 638/1/5 631/1/5 637/1/5
f 639/1/5 635/1/5 634/1/5
f 640/1/5 635/1/5 639/1/5
f 644/2/5 642/2/5 641/2/5
f 645/2/5 642/2/5 644/2/5
f 648/2/5 644/2/5 643/2/5
f 648/2/5 646/2/5 645/2/5
f 648/2/5 645/2/5 644/2/5
f 649/2/5 646/2/5 648/2/5
f 652/2/5 648/2/5 647/2/5
f 652/2/5 650/2/5 649/2/5
f 652/2/5 649/2/5 648/2/5
f 653/2/5 650/2/5 652/2/5
f 656/2/5 652/2/5 651/2/5
f 656/2/5 654/2/5 653/2/5
f 656/2/5 653/2/5 652/2/5
f 657/2/5 654/2/5 656/2/5
f 660/2/5 656/2/5 655/2/5
f 660/2/5 658/2/5 657/2/5
f 660/2/5 657/2/5 656/2/5
f 661/2/5 658/2/5 660/2/5
f 664/2/5 660/2/5 659/2/5
f 664/2/5 662/2/5 661/2/5
f 664/2/5 661/2/5 660/2/5
f 665/2/5 662/2/5 664/2/5
f 668/2/5 664/2/5 663/2/5
f 668/2/5 666/2/5 665/2/5
f 668/2/5 665/2/5 664/2/5
f 669/2/5 666/2/5 668/2/5
f 670/2/5 666/2/5 669/2/5
f 671/2/5 666/2/5 670/2/5
f 672/2/5 666/2/5 671/2/5
f 673/2/5 666/2/5 672/2/5
f 676/2/5 668/2/5 667/2/5
f 676/2/5 669/2/5 668/2/5
f 677/2/5 669/2/5 676/2/5
f 678/2/5 669/2/5 677/2/5
f 679/2/5 671/2/5 670/2/5
f 680/2/5 671/2/5 679/2/5
f 681/2/5 671/2/5 680/2/5
f 682/2/5 671/2/5 681/2/5
f 683/2/5 673/2/5 672/2/5
f 683/2/5 674/2/5 673/2/5
f 684/2/5 674/2/5 683/2/5
f 685/2/5 674/2/5 684/2/5
f 688/2/5 676/2/5 675/2/5
f 688/2/5 677/2/5 676/2/5
f 689/2/5 686/2/5 685/2/5
f 689/2/5 685/2/5 684/2/5
f 692/2/5 688/2/5 687/2/5
f 693/2/5 677/2/5 688/2/5
f 693/2/5 688/2/5 692/2/5
f 696/2/5 681/2/5 680/2/5
f 697/2/5 681/2/5 696/2/5
f 700/2/5 690/2/5 689/2/5
f 700/2/5 689/2/5 684/2/5
f 701/2/5 690/2/5 700/2/5
f 703/2/5 692/2/5 691/2/5
f 703/2/5 694/2/5 693/2/5
f 703/2/5 693/2/5 692/2/5
f 704/2/5 698/2/5 697/2/5
f 704/2/5 697/2/5 696/2/5
f 704/2/5 696/2/5 695/2/5
f 705/2/5 698/2/5 704/2/5
f 706/2/5 702/2/5 701/2/5
f 706/2/5 701/2/5 700/2/5
f 706/2/5 700/2/5 699/2/5
f 708/2/5 703/2/5 691/2/5
f 708/2/5 706/2/5 705/2/5
f 708/2/5 705/2/5 704/2/5
f 708/2/5 704/2/5 703/2/5
f 709/2/5 702/2/5 706/2/5
f 709/2/5 706/2/5 708/2/5
f 712/2/5 708/2/5 707/2/5
f 712/2/5 710/2/5 709/2/5
f 712/2/5 709/2/5 708/2/5
f 713/2/5 710/2/5 712/2/5
f 715/2/5 712/2/5 711/2/5
f 715/2/5 714/2/5 713/2/5
f 715/2/5 713/2/5 712/2/5
f 716/2/5 714/2/5 715/2/5
f 717/2/5 714/2/5 716/2/5
f 718/2/5 714/2/5 717/2/5
f 719/2/5 717/2/5 716/2/5
f 720/2/5 717/2/5 719/2/5
f 721/2/5 717/2/5 720/2/5
f 722/2/5 717/2/5 721/2/5
f 723/2/5 717/2/5 722/2/5
f 724/2/5 717/2/5 723/2/5
f 725/2/5 717/2/5 724/2/5
f 726/2/5 717/2/5 725/2/5
f 727/2/5 721/2/5 720/2/5
f 728/2/5 721/2/5 727/2/5
f 729/2/5 723/2/5 722/2/5
f 730/2/5 723/2/5 729/2/5
f 731/2/5 723/2/5 730/2/5
f 732/2/5 723/2/5 731/2/5
f 733/2/5 725/2/5 724/2/5
f 734/2/5 725/2/5 733/2/5
f 735/2/5 727/2/5 720/2/5
f 736/2/5 727/2/5 735/2/5
f 737/2/5 725/2/5 734/2/5
f 738/2/5 725/2/5 737/2/5
f 739/2/5 727/2/5 736/2/5
f 740/2/5 727/2/5 739/2/5
f 741/2/5 737/2/5 734/2/5
f 742/2/5 737/2/5 741/2/5
f 743/2/5 727/2/5 740/2/5
f 746/2/5 731/2/5 730/2/5
f 747/2/5 731/2/5 746/2/5
f 750/2/5 741/2/5 734/2/5
f 751/2/5 744/2/5 743/2/5
f 751/2/5 743/2/5 740/2/5
f 752/2/5 744/2/5 751/2/5
f 753/2/5 744/2/5 752/2/5
f 754/2/5 748/2/5 747/2/5
f 754/2/5 746/2/5 745/2/5
f 754/2/5 747/2/5 746/2/5
f 755/2/5 748/2/5 754/2/5
f 756/2/5 750/2/5 749/2/5
f 757/2/5 741/2/5 750/2/5
f 757/2/5 750/2/5 756/2/5
f 758/2/5 741/2/5 757/2/5
f 759/2/5 755/2/5 754/2/5
f 759/2/5 753/2/5 752/2/5
f 759/2/5 757/2/5 756/2/5
f 759/2/5 756/2/5 755/2/5
f 759/2/5 754/2/5 753/2/5
f 760/2/5 757/2/5 759/2/5
f 761/2/5 757/2/5 760/2/5
f 762/2/5 757/2/5 761/2/5
f 763/2/5 761/2/5 760/2/5
f 764/2/5 761/2/5 763/2/5
f 765/2/5 761/2/5 764/2/5
f 766/2/5 761/2/5 765/2/5
f 767/2/5 765/2/5 764/2/5
f 768/2/5 765/2/5 767/2/5
f 769/2/5 765/2/5 768/2/5
f 770/2/5 765/2/5 769/2/5
f 771/2/5 769/2/5 768/2/5
f 772/2/5 769/2/5 771/2/5
f 773/2/5 769/2/5 772/2/5
f 774/2/5 769/2/5 773/2/5
f 775/2/5 773/2/5 772/2/5
f 776/2/5 773/2/5 775/2/5
f 777/2/5 773/2/5 776/2/5
f 778/2/5 773/2/5 777/2/5
f 779/2/5 777/2/5 776/2/5
f 780/2/5 777/2/5 779/2/5
f 781/2/5 777/2/5 780/2/5
f 782/2/5 777/2/5 781/2/5
f 783/2/5 781/2/5 780/2/5
f 784/2/5 781/2/5 783/2/5
f 785/2/5 781/2/5 784/2/5
f 786/2/5 781/2/5 785/2/5
f 787/2/5 785/2/5 784/2/5
f 788/2/5 785/2/5 787/2/5
f 789/2/6 790/2/6 792/2/6
f 792/2/6 790/2/6 793/2/6
f 791/2/6 792/2/6 796/2/6
f 793/2/6 794/2/6 796/2/6
f 792/2/6 793/2/6 796/2/6
f 796/2/6 794/2/6 797/2/6
f 797/2/6 794/2/6 798/2/6
f 798/2/6 794/2/6 799/2/6
f 799/2/6 794/2/6 800/2/6
f 800/2/6 794/2/6 801/2/6
f 801/2/6 794/2/6 802/2/6
f 802/2/6 794/2/6 803/2/6
f 803/2/6 794/2/6 804/2/6
f 804/2/6 794/2/6 805/2/6
f 805/2/6 794/2/6 806/2/6
f 806/2/6 794/2/6 807/2/6
f 807/2/6 794/2/6 808/2/6
f 808/2/6 794/2/6 809/2/6
f 809/2/6 794/2/6 810/2/6
f 810/2/6 794/2/6 811/2/6
f 795/2/6 796/2/6 814/2/6
f 814/2/6 796/2/6 815/2/6
f 811/2/6 812/2/6 816/2/6
f 816/2/6 812/2/6 817/2/6
f 813/2/6 814/2/6 820/2/6
f 814/3/6 815/3/6 821/3/6
f 820/2/6 814/2/6 821/2/6
f 815/2/6 796/2/6 822/2/6
f 821/3/6 815/3/6 822/3/6
f 796/3/6 797/3/6 823/3/6
f 822/2/6 796/2/6 823/2/6
f 797/2/6 798/2/6 824/2/6
f 823/3/6 797/3/6 824/3/6
f 798/3/6 799/3/6 825/3/6
f 824/2/6 798/2/6 825/2/6
f 799/2/6 800/2/6 826/2/6
f 825/3/6 799/3/6 826/3/6
f 800/3/6 801/3/6 827/3/6
f 826/2/6 800/2/6 827/2/6
f 801/2/6 802/2/6 828/2/6
f 827/3/6 801/3/6 828/3/6
f 802/3/6 803/3/6 829/3/6
f 828/2/6 802/2/6 829/2/6
f 803/2/6 804/2/6 830/2/6
f 829/3/6 803/3/6 830/3/6
f 804/3/6 805/3/6 831/3/6
f 830/2/6 804/2/6 831/2/6
f 805/2/6 806/2/6 832/2/6
f 831/3/6 805/3/6 832/3/6
f 806/3/6 807/3/6 833/3/6
f 832/2/6 806/2/6 833/2/6
f 807/2/6 808/2/6 834/2/6
f 833/3/6 807/3/6 834/3/6
f 808/3/6 809/3/6 835/3/6
f 834/2/6 808/2/6 835/2/6
f 809/2/6 810/2/6 836/2/6
f 835/3/6 809/3/6 836/3/6
f 810/3/6 811/3/6 837/3/6
f 836/2/6 810/2/6 837/2/6
f 811/2/6 816/2/6 838/2/6
f 837/3/6 811/3/6 838/3/6
f 816/3/6 817/3/6 839/3/6
f 838/2/6 816/2/6 839/2/6
f 817/2/6 818/2/6 840/2/6
f 839/3/6 817/3/6 840/3/6
f 840/2/6 818/2/6 841/2/6
f 820/2/6 821/2/6 844/2/6
f 841/2/6 842/2/6 844/2/6
f 840/2/6 841/2/6 844/2/6
f 839/2/6 840/2/6 844/2/6
f 821/2/6 822/2/6 844/2/6
f 837/2/6 838/2/6 844/2/6
f 836/2/6 837/2/6 844/2/6
f 819/2/6 820/2/6 844/2/6
f 838/2/6 839/2/6 844/2/6
f 822/2/6 823/2/6 844/2/6
f 835/2/6 836/2/6 844/2/6
f 834/2/6 835/2/6 844/2/6
f 833/2/6 834/2/6 844/2/6
f 832/2/6 833/2/6 844/2/6
f 831/2/6 832/2/6 844/2/6
f 830/2/6 831/2/6 844/2/6
f 829/2/6 830/2/6 844/2/6
f 828/2/6 829/2/6 844/2/6
f 827/2/6 828/2/6 844/2/6
f 826/2/6 827/2/6 844/2/6
f 825/2/6 826/2/6 844/2/6
f 824/2/6 825/2/6 844/2/6
f 823/2/6 824/2/6 844/2/6
f 844/2/6 842/2/6 845/2/6
f 845/2/6 842/2/6 846/2/6
f 846/2/6 842/2/6 847/2/6
f 847/2/6 842/2/6 848/2/6
f 848/2/6 842/2/6 849/2/6
f 849/2/6 842/2/6 850/2/6
f 850/2/6 842/2/6 851/2/6
f 851/2/6 842/2/6 852/2/6
f 852/2/6 842/2/6 853/2/6
f 853/2/6 842/2/6 854/2/6
f 854/2/6 842/2/6 855/2/6
f 855/2/6 842/2/6 856/2/6
f 856/2/6 842/2/6 857/2/6
f 857/2/6 842/2/6 858/2/6
f 858/2/6 842/2/6 859/2/6
f 859/2/6 842/2/6 860/2/6
f 860/2/6 842/2/6 861/2/6
f 861/2/6 842/2/6 862/2/6
f 862/2/6 842/2/6 863/2/6
f 863/2/6 842/2/6 864/2/6
f 864/2/6 842/2/6 865/2/6
f 865/2/6 842/2/6 866/2/6
f 866/2/6 842/2/6 867/2/6
f 867/2/6 842/2/6 868/2/6
f 868/2/6 842/2/6 869/2/6
f 843/2/6 844/2/6 872/2/6
f 844/2/6 845/2/6 872/2/6
f 872/2/6 845/2/6 873/2/6
f 869/2/6 870/2/6 874/2/6
f 868/2/6 869/2/6 874/2/6
f 874/2/6 870/2/6 875/2/6
f 871/2/6 872/2/6 878/2/6
f 872/3/6 873/3/6 879/3/6
f 878/2/6 872/2/6 879/2/6
f 873/2/6 845/2/6 880/2/6
f 879/3/6 873/3/6 880/3/6
f 845/3/6 846/3/6 881/3/6
f 880/2/6 845/2/6 881/2/6
f 846/2/6 847/2/6 882/2/6
f 881/3/6 846/3/6 882/3/6
f 847/3/6 848/3/6 883/3/6
f 882/2/6 847/2/6 883/2/6
f 848/2/6 849/2/6 884/2/6
f 883/3/6 848/3/6 884/3/6
f 849/3/6 850/3/6 885/3/6
f 884/2/6 849/2/6 885/2/6
f 850/2/6 851/2/6 886/2/6
f 885/3/6 850/3/6 886/3/6
f 851/3/6 852/3/6 887/3/6
f 886/2/6 851/2/6 887/2/6
f 852/2/6 853/2/6 888/2/6
f 887/3/6 852/3/6 888/3/6
f 853/3/6 854/3/6 889/3/6
f 888/2/6 853/2/6 889/2/6
f 854/2/6 855/2/6 890/2/6
f 889/3/6 854/3/6 890/3/6
f 855/3/6 856/3/6 891/3/6
f 890/2/6 855/2/6 891/2/6
f 856/2/6 857/2/6 892/2/6
f 891/3/6 856/3/6 892/3/6
f 857/3/6 858/3/6 893/3/6
f 892/2/6 857/2/6 893/2/6
f 858/2/6 859/2/6 894/2/6
f 893/3/6 858/3/6 894/3/6
f 859/3/6 860/3/6 895/3/6
f 894/2/6 859/2/6 895/2/6
f 860/2/6 861/2/6 896/2/6
f 895/3/6 860/3/6 896/3/6
f 861/3/6 862/3/6 897/3/6
f 896/2/6 861/2/6 897/2/6
f 862/2/6 863/2/6 898/2/6
f 897/3/6 862/3/6 898/3/6
f 863/3/6 864/3/6 899/3/6
f 898/2/6 863/2/6 899/2/6
f 864/2/6 865/2/6 900/2/6
f 899/3/6 864/3/6 900/3/6
f 865/3/6 866/3/6 901/3/6
f 900/2/6 865/2/6 901/2/6
f 866/2/6 867/2/6 902/2/6
f 901/3/6 866/3/6 902/3/6
f 867/3/6 868/3/6 903/3/6
f 902/2/6 867/2/6 903/2/6
f 868/2/6 874/2/6 904/2/6
f 903/3/6 868/3/6 904/3/6
f 874/3/6 875/3/6 905/3/6
f 904/2/6 874/2/6 905/2/6
f 875/2/6 876/2/6 906/2/6
f 905/3/6 875/3/6 906/3/6
f 906/2/6 876/2/6 907/2/6
f 878/2/6 879/2/6 910/2/6
f 907/2/6 908/2/6 910/2/6
f 906/2/6 907/2/6 910/2/6
f 905/2/6 906/2/6 910/2/6
f 877/2/6 878/2/6 910/2/6
f 903/2/6 904/2/6 910/2/6
f 902/2/6 903/2/6 910/2/6
f 904/2/6 905/2/6 910/2/6
f 879/2/6 880/2/6 910/2/6
f 901/2/6 902/2/6 910/2/6
f 900/2/6 901/2/6 910/2/6
f 899/2/6 900/2/6 910/2/6
f 898/2/6 899/2/6 910/2/6
f 897/2/6 898/2/6 910/2/6
f 896/2/6 897/2/6 910/2/6
f 895/2/6 896/2/6 910/2/6
f 894/2/6 895/2/6 910/2/6
f 893/2/6 894/2/6 910/2/6
f 892/2/6 893/2/6 910/2/6
f 891/2/6 892/2/6 910/2/6
f 890/2/6 891/2/6 910/2/6
f 889/2/6 890/2/6 910/2/6
f 888/2/6 889/2/6 910/2/6
f 887/2/6 888/2/6 910/2/6
f 886/2/6 887/2/6 910/2/6
f 885/2/6 886/2/6 910/2/6
f 884/2/6 885/2/6 910/2/6
f 883/2/6 884/2/6 910/2/6
f 882/2/6 883/2/6 910/2/6
f 881/2/6 882/2/6 910/2/6
f 880/2/6 881/2/6 910/2/6
f 910/2/6 908/2/6 911/2/6
f 911/2/6 908/2/6 912/2/6
f 912/2/6 908/2/6 913/2/6
f 913/2/6 908/2/6 914/2/6
f 914/2/6 908/2/6 915/2/6
f 915/2/6 908/2/6 916/2/6
f 916/2/6 908/2/6 917/2/6
f 917/2/6 908/2/6 918/2/6
f 918/2/6 908/2/6 919/2/6
f 919/2/6 908/2/6 920/2/6
f 920/2/6 908/2/6 921/2/6
f 921/2/6 908/2/6 922/2/6
f 922/2/6 908/2/6 923/2/6
f 923/2/6 908/2/6 924/2/6
f 924/2/6 908/2/6 925/2/6
f 925/2/6 908/2/6 926/2/6
f 926/2/6 908/2/6 927/2/6
f 927/2/6 908/2/6 928/2/6
f 928/2/6 908/2/6 929/2/6
f 929/2/6 908/2/6 930/2/6
f 930/2/6 908/2/6 931/2/6
f 931/2/6 908/2/6 932/2/6
f 932/2/6 908/2/6 933/2/6
f 933/2/6 908/2/6 934/2/6
f 934/2/6 908/2/6 935/2/6
f 935/2/6 908/2/6 936/2/6
f 936/2/6 908/2/6 937/2/6
f 937/2/6 908/2/6 938/2/6
f 938/2/6 908/2/6 939/2/6
f 939/2/6 908/2/6 940/2/6
f 940/2/6 908/2/6 941/2/6
f 909/2/6 910/2/6 944/2/6
f 910/3/6 911/3/6 945/3/6
f 944/2/6 910/2/6 945/2/6
f 911/2/6 912/2/6 946/2/6
f 945/3/6 911/3/6 946/3/6
f 912/3/6 913/3/6 947/3/6
f 946/2/6 912/2/6 947/2/6
f 913/2/6 914/2/6 948/2/6
f 947/3/6 913/3/6 948/3/6
f 914/3/6 915/3/6 949/3/6
f 948/2/6 914/2/6 949/2/6
f 915/2/6 916/2/6 950/2/6
f 949/3/6 915/3/6 950/3/6
f 916/3/6 917/3/6 951/3/6
f 950/2/6 916/2/6 951/2/6
f 917/2/6 918/2/6 952/2/6
f 951/3/6 917/3/6 952/3/6
f 918/3/6 919/3/6 953/3/6
f 952/2/6 918/2/6 953/2/6
f 919/2/6 920/2/6 954/2/6
f 953/3/6 919/3/6 954/3/6
f 920/3/6 921/3/6 955/3/6
f 954/2/6 920/2/6 955/2/6
f 921/2/6 922/2/6 956/2/6
f 955/3/6 921/3/6 956/3/6
f 922/3/6 923/3/6 957/3/6
f 956/2/6 922/2/6 957/2/6
f 923/2/6 924/2/6 958/2/6
f 957/3/6 923/3/6 958/3/6
f 924/3/6 925/3/6 959/3/6
f 958/2/6 924/2/6 959/2/6
f 925/2/6 926/2/6 960/2/6
f 959/3/6 925/3/6 960/3/6
f 926/3/6 927/3/6 961/3/6
f 960/2/6 926/2/6 961/2/6
f 927/2/6 928/2/6 962/2/6
f 961/3/6 927/3/6 962/3/6
f 928/3/6 929/3/6 963/3/6
f 962/2/6 928/2/6 963/2/6
f 929/2/6 930/2/6 964/2/6
f 963/3/6 929/3/6 964/3/6
f 930/3/6 931/3/6 965/3/6
f 964/2/6 930/2/6 965/2/6
f 931/2/6 932/2/6 966/2/6
f 965/3/6 931/3/6 966/3/6
f 932/3/6 933/3/6 967/3/6
f 966/2/6 932/2/6 967/2/6
f 933/2/6 934/2/6 968/2/6
f 967/3/6 933/3/6 968/3/6
f 934/3/6 935/3/6 969/3/6
f 968/2/6 934/2/6 969/2/6
f 935/2/6 936/2/6 970/2/6
f 969/3/6 935/3/6 970/3/6
f 936/3/6 937/3/6 971/3/6
f 970/2/6 936/2/6 971/2/6
f 937/2/6 938/2/6 972/2/6
f 971/3/6 937/3/6 972/3/6
f 938/3/6 939/3/6 973/3/6
f 972/2/6 938/2/6 973/2/6
f 939/2/6 940/2/6 974/2/6
f 973/3/6 939/3/6 974/3/6
f 940/3/6 941/3/6 975/3/6
f 974/2/6 940/2/6 975/2/6
f 941/2/6 942/2/6 976/2/6
f 975/3/6 941/3/6 976/3/6
f 976/2/6 942/2/6 977/2/6
f 974/2/6 975/2/6 980/2/6
f 977/2/6 978/2/6 980/2/6
f 976/2/6 977/2/6 980/2/6
f 975/2/6 976/2/6 980/2/6
f 943/2/6 944/2/6 980/2/6
f 973/2/6 974/2/6 980/2/6
f 972/2/6 973/2/6 980/2/6
f 971/2/6 972/2/6 980/2/6
f 970/2/6 971/2/6 980/2/6
f 969/2/6 970/2/6 980/2/6
f 968/2/6 969/2/6 980/2/6
f 967/2/6 968/2/6 980/2/6
f 966/2/6 967/2/6 980/2/6
f 965/2/6 966/2/6 980/2/6
f 964/2/6 965/2/6 980/2/6
f 963/2/6 964/2/6 980/2/6
f 962/2/6 963/2/6 980/2/6
f 961/2/6 962/2/6 980/2/6
f 960/2/6 961/2/6 980/2/6
f 959/2/6 960/2/6 980/2/6
f 958/2/6 959/2/6 980/2/6
f 957/2/6 958/2/6 980/2/6
f 956/2/6 957/2/6 980/2/6
f 955/2/6 956/2/6 980/2/6
f 954/2/6 955/2/6 980/2/6
f 953/2/6 954/2/6 980/2/6
f 952/2/6 953/2/6 980/2/6
f 951/2/6 952/2/6 980/2/6
f 950/2/6 951/2/6 980/2/6
f 949/2/6 950/2/6 980/2/6
f 948/2/6 949/2/6 980/2/6
f 947/2/6 948/2/6 980/2/6
f 946/2/6 947/2/6 980/2/6
f 945/2/6 946/2/6 980/2/6
f 944/2/6 945/2/6 980/2/6
f 980/2/6 978/2/6 981/2/6
f 981/2/6 978/2/6 982/2/6
f 982/2/6 978/2/6 983/2/6
f 983/2/6 978/2/6 984/2/6
f 984/2/6 978/2/6 985/2/6
f 985/2/6 978/2/6 986/2/6
f 986/2/6 978/2/6 987/2/6
f 987/2/6 978/2/6 988/2/6
f 988/2/6 978/2/6 989/2/6
f 989/2/6 978/2/6 990/2/6
f 990/2/6 978/2/6 991/2/6
f 991/2/6 978/2/6 992/2/6
f 992/2/6 978/2/6 993/2/6
f 993/2/6 978/2/6 994/2/6
f 994/2/6 978/2/6 995/2/6
f 995/2/6 978/2/6 996/2/6
f 996/2/6 978/2/6 997/2/6
f 997/2/6 978/2/6 998/2/6
f 998/2/6 978/2/6 999/2/6
f 999/2/6 978/2/6 1000/2/6
f 1000/2/6 978/2/6 1001/2/6
f 1001/2/6 978/2/6 1002/2/6
f 1002/2/6 978/2/6 1003/2/6
f 1003/2/6 978/2/6 1004/2/6
f 1004/2/6 978/2/6 1005/2/6
f 1005/2/6 978/2/6 1006/2/6
f 1006/2/6 978/2/6 1007/2/6
f 1007/2/6 978/2/6 1008/2/6
f 1008/2/6 978/2/6 1009/2/6
f 1009/2/6 978/2/6 1010/2/6
f 1010/2/6 978/2/6 1011/2/6
f 1011/2/6 978/2/6 1012/2/6
f 1012/2/6 978/2/6 1013/2/6
f 1013/2/6 978/2/6 1014/2/6
f 1014/2/6 978/2/6 1015/2/6
f 979/2/6 980/2/6 1018/2/6
f 980/3/6 981/3/6 1019/3/6
f 1018/2/6 980/2/6 1019/2/6
f 981/2/6 982/2/6 1020/2/6
f 1019/3/6 981/3/6 1020/3/6
f 982/3/6 983/3/6 1021/3/6
f 1020/2/6 982/2/6 1021/2/6
f 983/2/6 984/2/6 1022/2/6
f 1021/3/6 983/3/6 1022/3/6
f 984/3/6 985/3/6 1023/3/6
f 1022/2/6 984/2/6 1023/2/6
f 985/2/6 986/2/6 1024/2/6
f 1023/3/6 985/3/6 1024/3/6
f 986/3/6 987/3/6 1025/3/6
f 1024/2/6 986/2/6 1025/2/6
f 987/2/6 988/2/6 1026/2/6
f 1025/3/6 987/3/6 1026/3/6
f 988/3/6 989/3/6 1027/3/6
f 1026/2/6 988/2/6 1027/2/6
f 989/2/6 990/2/6 1028/2/6
f 1027/3/6 989/3/6 1028/3/6
f 990/3/6 991/3/6 1029/3/6
f 1028/2/6 990/2/6 1029/2/6
f 991/2/6 992/2/6 1030/2/6
f 1029/3/6 991/3/6 1030/3/6
f 992/3/6 993/3/6 1031/3/6
f 1030/2/6 992/2/6 1031/2/6
f 993/2/6 994/2/6 1032/2/6
f 1031/3/6 993/3/6 1032/3/6
f 994/3/6 995/3/6 1033/3/6
f 1032/2/6 994/2/6 1033/2/6
f 995/2/6 996/2/6 1034/2/6
f 1033/3/6 995/3/6 1034/3/6
f 996/3/6 997/3/6 1035/3/6
f 1034/2/6 996/2/6 1035/2/6
f 997/2/6 998/2/6 1036/2/6
f 1035/3/6 997/3/6 1036/3/6
f 998/3/6 999/3/6 1037/3/6
f 1036/2/6 998/2/6 1037/2/6
f 999/2/6 1000/2/6 1038/2/6
f 1037/3/6 999/3/6 1038/3/6
f 1000/3/6 1001/3/6 1039/3/6
f 1038/2/6 1000/2/6 1039/2/6
f 1001/2/6 1002/2/6 1040/2/6
f 1039/3/6 1001/3/6 1040/3/6
f 1002/3/6 1003/3/6 1041/3/6
f 1040/2/6 1002/2/6 1041/2/6
f 1003/2/6 1004/2/6 1042/2/6
f 1041/3/6 1003/3/6 1042/3/6
f 1004/3/6 1005/3/6 1043/3/6
f 1042/2/6 1004/2/6 1043/2/6
f 1005/2/6 1006/2/6 1044/2/6
f 1043/3/6 1005/3/6 1044/3/6
f 1006/3/6 1007/3/6 1045/3/6
f 1044/2/6 1006/2/6 1045/2/6
f 1007/2/6 1008/2/6 1046/2/6
f 1045/3/6 1007/3/6 1046/3/6
f 1008/3/6 1009/3/6 1047/3/6
f 1046/2/6 1008/2/6 1047/2/6
f 1009/2/6 1010/2/6 1048/2/6
f 1047/3/6 1009/3/6 1048/3/6
f 1010/3/6 1011/3/6 1049/3/6
f 1048/2/6 1010/2/6 1049/2/6
f 1011/2/6 1012/2/6 1050/2/6
f 1049/3/6 1011/3/6 1050/3/6
f 1012/3/6 1013/3/6 1051/3/6
f 1050/2/6 1012/2/6 1051/2/6
f 1013/2/6 1014/2/6 1052/2/6
f 1051/3/6 1013/3/6 1052/3/6
f 1014/3/6 1015/3/6 1053/3/6
f 1052/2/6 1014/2/6 1053/2/6
f 1015/2/6 1016/2/6 1054/2/6
f 1053/3/6 1015/3/6 1054/3/6
f 1054/2/6 1016/2/6 1055/2/6
f 1052/2/6 1053/2/6 1057/2/6
f 1055/2/6 1056/2/6 1057/2/6
f 1054/2/6 1055/2/6 1057/2/6
f 1053/2/6 1054/2/6 1057/2/6
f 1017/2/6 1018/2/6 1057/2/6
f 1051/2/6 1052/2/6 1057/2/6
f 1050/2/6 1051/2/6 1057/2/6
f 1049/2/6 1050/2/6 1057/2/6
f 1048/2/6 1049/2/6 1057/2/6
f 1047/2/6 1048/2/6 1057/2/6
f 1046/2/6 1047/2/6 1057/2/6
f 1045/2/6 1046/2/6 1057/2/6
f 1044/2/6 1045/2/6 1057/2/6
f 1043/2/6 1044/2/6 1057/2/6
f 1042/2/6 1043/2/6 1057/2/6
f 1041/2/6 1042/2/6 1057/2/6
f 1040/2/6 1041/2/6 1057/2/6
f 1039/2/6 1040/2/6 1057/2/6
f 1038/2/6 1039/2/6 1057/2/6
f 1037/2/6 1038/2/6 1057/2/6
f 1036/2/6 1037/2/6 1057/2/6
f 1035/2/6 1036/2/6 1057/2/6
f 1034/2/6 1035/2/6 1057/2/6
f 1033/2/6 1034/2/6 1057/2/6
f 1032/2/6 1033/2/6 1057/2/6
f 1031/2/6 1032/2/6 1057/2/6
f 1030/2/6 1031/2/6 1057/2/6
f 1029/2/6 1030/2/6 1057/2/6
f 1028/2/6 1029/2/6 1057/2/6
f 1027/2/6 1028/2/6 1057/2/6
f 1026/2/6 1027/2/6 1057/2/6
f 1025/2/6 1026/2/6 1057/2/6
f 1024/2/6 1025/2/6 1057/2/6
f 1023/2/6 1024/2/6 1057/2/6
f 1022/2/6 1023/2/6 1057/2/6
f 1021/2/6 1022/2/6 1057/2/6
f 1020/2/6 1021/2/6 1057/2/6
f 1019/2/6 1020/2/6 1057/2/6
f 1018/2/6 1019/2/6 1057/2/6
f 1057/2/6 1056/2/6 1058/2/6
f 1058/2/6 1056/2/6 1059/2/6
f 1059/2/6 1056/2/6 1060/2/6
f 1060/2/6 1056/2/6 1061/2/6
f 1061/2/6 1056/2/6 1062/2/6
f 1062/2/6 1056/2/6 1063/2/6
f 1063/2/6 1056/2/6 1064/2/6
f 1064/2/6 1056/2/6 1065/2/6
f 1065/2/6 1056/2/6 1066/2/6
f 1066/2/6 1056/2/6 1067/2/6
f 1067/2/6 1056/2/6 1068/2/6
f 1068/2/6 1056/2/6 1069/2/6
f 1069/2/6 1056/2/6 1070/2/6
f 1070/2/6 1056/2/6 1071/2/6
f 1071/2/6 1056/2/6 1072/2/6
f 1072/2/6 1056/2/6 1073/2/6
f 1073/2/6 1056/2/6 1074/2/6
f 1074/2/6 1056/2/6 1075/2/6
f 1075/2/6 1056/2/6 1076/2/6
f 1076/2/6 1056/2/6 1077/2/6
f 1077/2/6 1056/2/6 1078/2/6
f 1078/2/6 1056/2/6 1079/2/6
f 1079/2/6 1056/2/6 1080/2/6
f 1080/2/6 1056/2/6 1081/2/6
f 1081/2/6 1056/2/6 1082/2/6
f 1082/2/6 1056/2/6 1083/2/6
f 1083/2/6 1056/2/6 1084/2/6
f 1084/2/6 1056/2/6 1085/2/6
f 1085/2/6 1056/2/6 1086/2/6
f 1086/2/6 1056/2/6 1087/2/6
f 1087/2/6 1056/2/6 1088/2/6
f 1088/2/6 1056/2/6 1089/2/6
f 1089/2/6 1056/2/6 1090/2/6
f 1090/2/6 1056/2/6 1091/2/6
f 1091/2/6 1056/2/6 1092/2/6
f 1017/2/6 1057/2/6 1093/2/6
f 1057/3/6 1058/3/6 1093/3/6
f 1058/2/6 1059/2/6 1094/2/6
f 1093/3/6 1058/3/6 1094/3/6
f 1059/3/6 1060/3/6 1095/3/6
f 1094/2/6 1059/2/6 1095/2/6
f 1060/2/6 1061/2/6 1096/2/6
f 1095/3/6 1060/3/6 1096/3/6
f 1061/3/6 1062/3/6 1097/3/6
f 1096/2/6 1061/2/6 1097/2/6
f 1062/2/6 1063/2/6 1098/2/6
f 1097/3/6 1062/3/6 1098/3/6
f 1063/3/6 1064/3/6 1099/3/6
f 1098/2/6 1063/2/6 1099/2/6
f 1064/2/6 1065/2/6 1100/2/6
f 1099/3/6 1064/3/6 1100/3/6
f 1065/3/6 1066/3/6 1101/3/6
f 1100/2/6 1065/2/6 1101/2/6
f 1066/2/6 1067/2/6 1102/2/6
f 1101/3/6 1066/3/6 1102/3/6
f 1067/3/6 1068/3/6 1103/3/6
f 1102/2/6 1067/2/6 1103/2/6
f 1068/2/6 1069/2/6 1104/2/6
f 1103/3/6 1068/3/6 1104/3/6
f 1069/3/6 1070/3/6 1105/3/6
f 1104/2/6 1069/2/6 1105/2/6
f 1070/2/6 1071/2/6 1106/2/6
f 1105/3/6 1070/3/6 1106/3/6
f 1071/3/6 1072/3/6 1107/3/6
f 1106/2/6 1071/2/6 1107/2/6
f 1072/2/6 1073/2/6 1108/2/6
f 1107/3/6 1072/3/6 1108/3/6
f 1073/3/6 1074/3/6 1109/3/6
f 1108/2/6 1073/2/6 1109/2/6
f 1074/2/6 1075/2/6 1110/2/6
f 1109/3/6 1074/3/6 1110/3/6
f 1075/3/6 1076/3/6 1111/3/6
f 1110/2/6 1075/2/6 1111/2/6
f 1076/2/6 1077/2/6 1112/2/6
f 1111/3/6 1076/3/6 1112/3/6
f 1077/3/6 1078/3/6 1113/3/6
f 1112/2/6 1077/2/6 1113/2/6
f 1078/2/6 1079/2/6 1114/2/6
f 1113/3/6 1078/3/6 1114/3/6
f 1079/3/6 1080/3/6 1115/3/6
f 1114/2/6 1079/2/6 1115/2/6
f 1080/2/6 1081/2/6 1116/2/6
f 1115/3/6 1080/3/6 1116/3/6
f 1081/3/6 1082/3/6 1117/3/6
f 1116/2/6 1081/2/6 1117/2/6
f 1082/2/6 1083/2/6 1118/2/6
f 1117/3/6 1082/3/6 1118/3/6
f 1083/3/6 1084/3/6 1119/3/6
f 1118/2/6 1083/2/6 1119/2/6
f 1084/2/6 1085/2/6 1120/2/6
f 1119/3/6 1084/3/6 1120/3/6
f 1085/3/6 1086/3/6 1121/3/6
f 1120/2/6 1085/2/6 1121/2/6
f 1086/2/6 1087/2/6 1122/2/6
f 1121/3/6 1086/3/6 1122/3/6
f 1087/3/6 1088/3/6 1123/3/6
f 1122/2/6 1087/2/6 1123/2/6
f 1088/2/6 1089/2/6 1124/2/6
f 1123/3/6 1088/3/6 1124/3/6
f 1089/3/6 1090/3/6 1125/3/6
f 1124/2/6 1089/2/6 1125/2/6
f 1090/2/6 1091/2/6 1126/2/6
f 1125/3/6 1090/3/6 1126/3/6
f 1091/3/6 1092/3/6 1127/3/6
f 1126/2/6 1091/2/6 1127/2/6
f 1092/2/6 1056/2/6 1128/2/6
f 1127/3/6 1092/3/6 1128/3/6
f 1126/2/6 1127/2/6 1130/2/6
f 1125/2/6 1126/2/6 1130/2/6
f 1127/2/6 1128/2/6 1130/2/6
f 1124/2/6 1125/2/6 1130/2/6
f 1123/2/6 1124/2/6 1130/2/6
f 1122/2/6 1123/2/6 1130/2/6
f 1121/2/6 1122/2/6 1130/2/6
f 1120/2/6 1121/2/6 1130/2/6
f 1119/2/6 1120/2/6 1130/2/6
f 1118/2/6 1119/2/6 1130/2/6
f 1117/2/6 1118/2/6 1130/2/6
f 1116/2/6 1117/2/6 1130/2/6
f 1115/2/6 1116/2/6 1130/2/6
f 1114/2/6 1115/2/6 1130/2/6
f 1113/2/6 1114/2/6 1130/2/6
f 1112/2/6 1113/2/6 1130/2/6
f 1111/2/6 1112/2/6 1130/2/6
f 1110/2/6 1111/2/6 1130/2/6
f 1109/2/6 1110/2/6 1130/2/6
f 1108/2/6 1109/2/6 1130/2/6
f 1107/2/6 1108/2/6 1130/2/6
f 1106/2/6 1107/2/6 1130/2/6
f 1105/2/6 1106/2/6 1130/2/6
f 1104/2/6 1105/2/6 1130/2/6
f 1103/2/6 1104/2/6 1130/2/6
f 1102/2/6 1103/2/6 1130/2/6
f 1101/2/6 1102/2/6 1130/2/6
f 1100/2/6 1101/2/6 1130/2/6
f 1099/2/6 1100/2/6 1130/2/6
f 1098/2/6 1099/2/6 1130/2/6
f 1097/2/6 1098/2/6 1130/2/6
f 1096/2/6 1097/2/6 1130/2/6
f 1095/2/6 1096/2/6 1130/2/6
f 1094/2/6 1095/2/6 1130/2/6
f 1093/2/6 1094/2/6 1130/2/6
f 1017/2/6 1093/2/6 1130/2/6
f 1130/2/6 1128/2/6 1131/2/6
f 1131/2/6 1128/2/6 1132/2/6
f 1132/2/6 1128/2/6 1133/2/6
f 1133/2/6 1128/2/6 1134/2/6
f 1134/2/6 1128/2/6 1135/2/6
f 1135/2/6 1128/2/6 1136/2/6
f 1136/2/6 1128/2/6 1137/2/6
f 1137/2/6 1128/2/6 1138/2/6
f 1138/2/6 1128/2/6 1139/2/6
f 1139/2/6 1128/2/6 1140/2/6
f 1140/2/6 1128/2/6 1141/2/6
f 1141/2/6 1128/2/6 1142/2/6
f 1142/2/6 1128/2/6 1143/2/6
f 1143/2/6 1128/2/6 1144/2/6
f 1144/2/6 1128/2/6 1145/2/6
f 1145/2/6 1128/2/6 1146/2/6
f 1146/2/6 1128/2/6 1147/2/6
f 1147/2/6 1128/2/6 1148/2/6
f 1148/2/6 1128/2/6 1149/2/6
f 1149/2/6 1128/2/6 1150/2/6
f 1150/2/6 1128/2/6 1151/2/6
f 1151/2/6 1128/2/6 1152/2/6
f 1152/2/6 1128/2/6 1153/2/6
f 1153/2/6 1128/2/6 1154/2/6
f 1154/2/6 1128/2/6 1155/2/6
f 1155/2/6 1128/2/6 1156/2/6
f 1156/2/6 1128/2/6 1157/2/6
f 1157/2/6 1128/2/6 1158/2/6
f 1158/2/6 1128/2/6 1159/2/6
f 1159/2/6 1128/2/6 1160/2/6
f 1160/2/6 1128/2/6 1161/2/6
f 1161/2/6 1128/2/6 1162/2/6
f 1162/2/6 1128/2/6 1163/2/6
f 1163/2/6 1128/2/6 1164/2/6
f 1164/2/6 1128/2/6 1165/2/6
f 1165/2/6 1128/2/6 1166/2/6
f 1128/2/6 1056/2/6 1167/2/6
f 1166/2/6 1128/2/6 1167/2/6
f 1167/2/6 1056/2/6 1168/2/6
f 1168/2/6 1056/2/6 1169/2/6
f 1129/2/6 1130/2/6 1171/2/6
f 1130/3/6 1131/3/6 1171/3/6
f 1131/2/6 1132/2/6 1172/2/6
f 1171/3/6 1131/3/6 1172/3/6
f 1132/3/6 1133/3/6 1173/3/6
f 1172/2/6 1132/2/6 1173/2/6
f 1133/2/6 1134/2/6 1174/2/6
f 1173/3/6 1133/3/6 1174/3/6
f 1134/3/6 1135/3/6 1175/3/6
f 1174/2/6 1134/2/6 1175/2/6
f 1135/2/6 1136/2/6 1176/2/6
f 1175/3/6 1135/3/6 1176/3/6
f 1136/3/6 1137/3/6 1177/3/6
f 1176/2/6 1136/2/6 1177/2/6
f 1137/2/6 1138/2/6 1178/2/6
f 1177/3/6 1137/3/6 1178/3/6
f 1138/3/6 1139/3/6 1179/3/6
f 1178/2/6 1138/2/6 1179/2/6
f 1139/2/6 1140/2/6 1180/2/6
f 1179/3/6 1139/3/6 1180/3/6
f 1140/3/6 1141/3/6 1181/3/6
f 1180/2/6 1140/2/6 1181/2/6
f 1141/2/6 1142/2/6 1182/2/6
f 1181/3/6 1141/3/6 1182/3/6
f 1142/3/6 1143/3/6 1183/3/6
f 1182/2/6 1142/2/6 1183/2/6
f 1143/2/6 1144/2/6 1184/2/6
f 1183/3/6 1143/3/6 1184/3/6
f 1144/3/6 1145/3/6 1185/3/6
f 1184/2/6 1144/2/6 1185/2/6
f 1145/2/6 1146/2/6 1186/2/6
f 1185/3/6 1145/3/6 1186/3/6
f 1146/3/6 1147/3/6 1187/3/6
f 1186/2/6 1146/2/6 1187/2/6
f 1147/2/6 1148/2/6 1188/2/6
f 1187/3/6 1147/3/6 1188/3/6
f 1148/3/6 1149/3/6 1189/3/6
f 1188/2/6 1148/2/6 1189/2/6
f 1149/2/6 1150/2/6 1190/2/6
f 1189/3/6 1149/3/6 1190/3/6
f 1150/3/6 1151/3/6 1191/3/6
f 1190/2/6 1150/2/6 1191/2/6
f 1151/2/6 1152/2/6 1192/2/6
f 1191/3/6 1151/3/6 1192/3/6
f 1152/3/6 1153/3/6 1193/3/6
f 1192/2/6 1152/2/6 1193/2/6
f 1153/2/6 1154/2/6 1194/2/6
f 1193/3/6 1153/3/6 1194/3/6
f 1154/3/6 1155/3/6 1195/3/6
f 1194/2/6 1154/2/6 1195/2/6
f 1155/2/6 1156/2/6 1196/2/6
f 1195/3/6 1155/3/6 1196/3/6
f 1156/3/6 1157/3/6 1197/3/6
f 1196/2/6 1156/2/6 1197/2/6
f 1157/2/6 1158/2/6 1198/2/6
f 1197/3/6 1157/3/6 1198/3/6
f 1158/3/6 1159/3/6 1199/3/6
f 1198/2/6 1158/2/6 1199/2/6
f 1159/2/6 1160/2/6 1200/2/6
f 1199/3/6 1159/3/6 1200/3/6
f 1160/3/6 1161/3/6 1201/3/6
f 1200/2/6 1160/2/6 1201/2/6
f 1161/2/6 1162/2/6 1202/2/6
f 1201/3/6 1161/3/6 1202/3/6
f 1162/3/6 1163/3/6 1203/3/6
f 1202/2/6 1162/2/6 1203/2/6
f 1163/2/6 1164/2/6 1204/2/6
f 1203/3/6 1163/3/6 1204/3/6
f 1164/3/6 1165/3/6 1205/3/6
f 1204/2/6 1164/2/6 1205/2/6
f 1165/2/6 1166/2/6 1206/2/6
f 1205/3/6 1165/3/6 1206/3/6
f 1166/3/6 1167/3/6 1207/3/6
f 1206/2/6 1166/2/6 1207/2/6
f 1167/2/6 1168/2/6 1208/2/6
f 1207/3/6 1167/3/6 1208/3/6
f 1168/3/6 1169/3/6 1209/3/6
f 1208/2/6 1168/2/6 1209/2/6
f 1169/2/6 1170/2/6 1210/2/6
f 1209/3/6 1169/3/6 1210/3/6
f 1204/2/6 1205/2/6 1211/2/6
f 1208/2/6 1209/2/6 1211/2/6
f 1209/2/6 1210/2/6 1211/2/6
f 1206/2/6 1207/2/6 1211/2/6
f 1205/2/6 1206/2/6 1211/2/6
f 1203/2/6 1204/2/6 1211/2/6
f 1202/2/6 1203/2/6 1211/2/6
f 1201/2/6 1202/2/6 1211/2/6
f 1200/2/6 1201/2/6 1211/2/6
f 1199/2/6 1200/2/6 1211/2/6
f 1198/2/6 1199/2/6 1211/2/6
f 1197/2/6 1198/2/6 1211/2/6
f 1196/2/6 1197/2/6 1211/2/6
f 1195/2/6 1196/2/6 1211/2/6
f 1194/2/6 1195/2/6 1211/2/6
f 1193/2/6 1194/2/6 1211/2/6
f 1192/2/6 1193/2/6 1211/2/6
f 1191/2/6 1192/2/6 1211/2/6
f 1190/2/6 1191/2/6 1211/2/6
f 1189/2/6 1190/2/6 1211/2/6
f 1188/2/6 1189/2/6 1211/2/6
f 1187/2/6 1188/2/6 1211/2/6
f 1186/2/6 1187/2/6 1211/2/6
f 1185/2/6 1186/2/6 1211/2/6
f 1184/2/6 1185/2/6 1211/2/6
f 1183/2/6 1184/2/6 1211/2/6
f 1182/2/6 1183/2/6 1211/2/6
f 1181/2/6 1182/2/6 1211/2/6
f 1180/2/6 1181/2/6 1211/2/6
f 1179/2/6 1180/2/6 1211/2/6
f 1178/2/6 1179/2/6 1211/2/6
f 1177/2/6 1178/2/6 1211/2/6
f 1176/2/6 1177/2/6 1211/2/6
f 1175/2/6 1176/2/6 1211/2/6
f 1174/2/6 1175/2/6 1211/2/6
f 1173/2/6 1174/2/6 1211/2/6
f 1172/2/6 1173/2/6 1211/2/6
f 1171/2/6 1172/2/6 1211/2/6
f 1129/2/6 1171/2/6 1211/2/6
f 1207/2/6 1208/2/6 1211/2/6
f 1211/2/6 1210/2/6 1212/2/6
f 1212/2/6 1210/2/6 1213/2/6
f 1213/2/6 1210/2/6 1214/2/6
f 1214/2/6 1210/2/6 1215/2/6
f 1215/2/6 1210/2/6 1216/2/6
f 1216/2/6 1210/2/6 1217/2/6
f 1217/2/6 1210/2/6 1218/2/6
f 1218/2/6 1210/2/6 1219/2/6
f 1219/2/6 1210/2/6 1220/2/6
f 1220/2/6 1210/2/6 1221/2/6
f 1221/2/6 1210/2/6 1222/2/6
f 1222/2/6 1210/2/6 1223/2/6
f 1223/2/6 1210/2/6 1224/2/6
f 1224/2/6 1210/2/6 1225/2/6
f 1225/2/6 1210/2/6 1226/2/6
f 1226/2/6 1210/2/6 1227/2/6
f 1227/2/6 1210/2/6 1228/2/6
f 1228/2/6 1210/2/6 1229/2/6
f 1229/2/6 1210/2/6 1230/2/6
f 1230/2/6 1210/2/6 1231/2/6
f 1231/2/6 1210/2/6 1232/2/6
f 1232/2/6 1210/2/6 1233/2/6
f 1233/2/6 1210/2/6 1234/2/6
f 1234/2/6 1210/2/6 1235/2/6
f 1235/2/6 1210/2/6 1236/2/6
f 1236/2/6 1210/2/6 1237/2/6
f 1237/2/6 1210/2/6 1238/2/6
f 1238/2/6 1210/2/6 1239/2/6
f 1239/2/6 1210/2/6 1240/2/6
f 1240/2/6 1210/2/6 1241/2/6
f 1241/2/6 1210/2/6 1242/2/6
f 1242/2/6 1210/2/6 1243/2/6
f 1243/2/6 1210/2/6 1244/2/6
f 1244/2/6 1210/2/6 1245/2/6
f 1245/2/6 1210/2/6 1246/2/6
f 1246/2/6 1210/2/6 1247/2/6
f 1247/2/6 1210/2/6 1248/2/6
f 1248/2/6 1210/2/6 1249/2/6
f 1210/2/6 1170/2/6 1250/2/6
f 1249/2/6 1210/2/6 1250/2/6
f 1129/2/6 1211/2/6 1251/2/6
f 1211/3/6 1212/3/6 1251/3/6
f 1212/2/6 1213/2/6 1252/2/6
f 1251/3/6 1212/3/6 1252/3/6
f 1213/3/6 1214/3/6 1253/3/6
f 1252/2/6 1213/2/6 1253/2/6
f 1214/2/6 1215/2/6 1254/2/6
f 1253/3/6 1214/3/6 1254/3/6
f 1215/3/6 1216/3/6 1255/3/6
f 1254/2/6 1215/2/6 1255/2/6
f 1216/2/6 1217/2/6 1256/2/6
f 1255/3/6 1216/3/6 1256/3/6
f 1217/3/6 1218/3/6 1257/3/6
f 1256/2/6 1217/2/6 1257/2/6
f 1218/2/6 1219/2/6 1258/2/6
f 1257/3/6 1218/3/6 1258/3/6
f 1219/3/6 1220/3/6 1259/3/6
f 1258/2/6 1219/2/6 1259/2/6
f 1220/2/6 1221/2/6 1260/2/6
f 1259/3/6 1220/3/6 1260/3/6
f 1221/3/6 1222/3/6 1261/3/6
f 1260/2/6 1221/2/6 1261/2/6
f 1222/2/6 1223/2/6 1262/2/6
f 1261/3/6 1222/3/6 1262/3/6
f 1223/3/6 1224/3/6 1263/3/6
f 1262/2/6 1223/2/6 1263/2/6
f 1224/2/6 1225/2/6 1264/2/6
f 1263/3/6 1224/3/6 1264/3/6
f 1225/3/6 1226/3/6 1265/3/6
f 1264/2/6 1225/2/6 1265/2/6
f 1226/2/6 1227/2/6 1266/2/6
f 1265/3/6 1226/3/6 1266/3/6
f 1227/3/6 1228/3/6 1267/3/6
f 1266/2/6 1227/2/6 1267/2/6
f 1228/2/6 1229/2/6 1268/2/6
f 1267/3/6 1228/3/6 1268/3/6
f 1229/3/6 1230/3/6 1269/3/6
f 1268/2/6 1229/2/6 1269/2/6
f 1230/2/6 1231/2/6 1270/2/6
f 1269/3/6 1230/3/6 1270/3/6
f 1231/3/6 1232/3/6 1271/3/6
f 1270/2/6 1231/2/6 1271/2/6
f 1232/2/6 1233/2/6 1272/2/6
f 1271/3/6 1232/3/6 1272/3/6
f 1233/3/6 1234/3/6 1273/3/6
f 1272/2/6 1233/2/6 1273/2/6
f 1234/2/6 1235/2/6 1274/2/6
f 1273/3/6 1234/3/6 1274/3/6
f 1235/3/6 1236/3/6 1275/3/6
f 1274/2/6 1235/2/6 1275/2/6
f 1236/2/6 1237/2/6 1276/2/6
f 1275/3/6 1236/3/6 1276/3/6
f 1237/3/6 1238/3/6 1277/3/6
f 1276/2/6 1237/2/6 1277/2/6
f 1238/2/6 1239/2/6 1278/2/6
f 1277/3/6 1238/3/6 1278/3/6
f 1239/3/6 1240/3/6 1279/3/6
f 1278/2/6 1239/2/6 1279/2/6
f 1240/2/6 1241/2/6 1280/2/6
f 1279/3/6 1240/3/6 1280/3/6
f 1241/3/6 1242/3/6 1281/3/6
f 1280/2/6 1241/2/6 1281/2/6
f 1242/2/6 1243/2/6 1282/2/6
f 1281/3/6 1242/3/6 1282/3/6
f 1243/3/6 1244/3/6 1283/3/6
f 1282/2/6 1243/2/6 1283/2/6
f 1244/2/6 1245/2/6 1284/2/6
f 1283/3/6 1244/3/6 1284/3/6
f 1245/3/6 1246/3/6 1285/3/6
f 1284/2/6 1245/2/6 1285/2/6
f 1246/2/6 1247/2/6 1286/2/6
f 1285/3/6 1246/3/6 1286/3/6
f 1247/3/6 1248/3/6 1287/3/6
f 1286/2/6 1247/2/6 1287/2/6
f 1248/2/6 1249/2/6 1288/2/6
f 1287/3/6 1248/3/6 1288/3/6
f 1249/3/6 1250/3/6 1289/3/6
f 1288/2/6 1249/2/6 1289/2/6
f 1250/2/6 1170/2/6 1290/2/6
f 1289/3/6 1250/3/6 1290/3/6
f 1286/2/6 1287/2/6 1291/2/6
f 1288/2/6 1289/2/6 1291/2/6
f 1289/2/6 1290/2/6 1291/2/6
f 1285/2/6 1286/2/6 1291/2/6
f 1284/2/6 1285/2/6 1291/2/6
f 1283/2/6 1284/2/6 1291/2/6
f 1282/2/6 1283/2/6 1291/2/6
f 1281/2/6 1282/2/6 1291/2/6
f 1280/2/6 1281/2/6 1291/2/6
f 1279/2/6 1280/2/6 1291/2/6
f 1278/2/6 1279/2/6 1291/2/6
f 1277/2/6 1278/2/6 1291/2/6
f 1276/2/6 1277/2/6 1291/2/6
f 1275/2/6 1276/2/6 1291/2/6
f 1274/2/6 1275/2/6 1291/2/6
f 1273/2/6 1274/2/6 1291/2/6
f 1272/2/6 1273/2/6 1291/2/6
f 1271/2/6 1272/2/6 1291/2/6
f 1270/2/6 1271/2/6 1291/2/6
f 1269/2/6 1270/2/6 1291/2/6
f 1268/2/6 1269/2/6 1291/2/6
f 1267/2/6 1268/2/6 1291/2/6
f 1266/2/6 1267/2/6 1291/2/6
f 1265/2/6 1266/2/6 1291/2/6
f 1264/2/6 1265/2/6 1291/2/6
f 1263/2/6 1264/2/6 1291/2/6
f 1262/2/6 1263/2/6 1291/2/6
f 1261/2/6 1262/2/6 1291/2/6
f 1260/2/6 1261/2/6 1291/2/6
f 1259/2/6 1260/2/6 1291/2/6
f 1258/2/6 1259/2/6 1291/2/6
f 1257/2/6 1258/2/6 1291/2/6
f 1256/2/6 1257/2/6 1291/2/6
f 1255/2/6 1256/2/6 1291/2/6
f 1254/2/6 1255/2/6 1291/2/6
f 1253/2/6 1254/2/6 1291/2/6
f 1252/2/6 1253/2/6 1291/2/6
f 1251/2/6 1252/2/6 1291/2/6
f 1129/2/6 1251/2/6 1291/2/6
f 1287/2/6 1288/2/6 1291/2/6
f 1291/2/6 1290/2/6 1292/2/6
f 1292/2/6 1290/2/6 1293/2/6
f 1293/2/6 1290/2/6 1294/2/6
f 1294/2/6 1290/2/6 1295/2/6
f 1295/2/6 1290/2/6 1296/2/6
f 1296/2/6 1290/2/6 1297/2/6
f 1297/2/6 1290/2/6 1298/2/6
f 1298/2/6 1290/2/6 1299/2/6
f 1299/2/6 1290/2/6 1300/2/6
f 1300/2/6 1290/2/6 1301/2/6
f 1301/2/6 1290/2/6 1302/2/6
f 1302/2/6 1290/2/6 1303/2/6
f 1303/2/6 1290/2/6 1304/2/6
f 1304/2/6 1290/2/6 1305/2/6
f 1305/2/6 1290/2/6 1306/2/6
f 1306/2/6 1290/2/6 1307/2/6
f 1307/2/6 1290/2/6 1308/2/6
f 1308/2/6 1290/2/6 1309/2/6
f 1309/2/6 1290/2/6 1310/2/6
f 1310/2/6 1290/2/6 1311/2/6
f 1311/2/6 1290/2/6 1312/2/6
f 1312/2/6 1290/2/6 1313/2/6
f 1313/2/6 1290/2/6 1314/2/6
f 1314/2/6 1290/2/6 1315/2/6
f 1315/2/6 1290/2/6 1316/2/6
f 1316/2/6 1290/2/6 1317/2/6
f 1317/2/6 1290/2/6 1318/2/6
f 1318/2/6 1290/2/6 1319/2/6
f 1319/2/6 1290/2/6 1320/2/6
f 1320/2/6 1290/2/6 1321/2/6
f 1321/2/6 1290/2/6 1322/2/6
f 1322/2/6 1290/2/6 1323/2/6
f 1323/2/6 1290/2/6 1324/2/6
f 1324/2/6 1290/2/6 1325/2/6
f 1325/2/6 1290/2/6 1326/2/6
f 1326/2/6 1290/2/6 1327/2/6
f 1327/2/6 1290/2/6 1328/2/6
f 1328/2/6 1290/2/6 1329/2/6
f 1290/2/6 1170/2/6 1330/2/6
f 1329/2/6 1290/2/6 1330/2/6
f 1129/2/6 1291/2/6 1331/2/6
f 1291/3/6 1292/3/6 1332/3/6
f 1331/2/6 1291/2/6 1332/2/6
f 1292/2/6 1293/2/6 1333/2/6
f 1332/3/6 1292/3/6 1333/3/6
f 1293/3/6 1294/3/6 1334/3/6
f 1333/2/6 1293/2/6 1334/2/6
f 1294/2/6 1295/2/6 1335/2/6
f 1334/3/6 1294/3/6 1335/3/6
f 1295/3/6 1296/3/6 1336/3/6
f 1335/2/6 1295/2/6 1336/2/6
f 1296/2/6 1297/2/6 1337/2/6
f 1336/3/6 1296/3/6 1337/3/6
f 1297/3/6 1298/3/6 1338/3/6
f 1337/2/6 1297/2/6 1338/2/6
f 1298/2/6 1299/2/6 1339/2/6
f 1338/3/6 1298/3/6 1339/3/6
f 1299/3/6 1300/3/6 1340/3/6
f 1339/2/6 1299/2/6 1340/2/6
f 1300/2/6 1301/2/6 1341/2/6
f 1340/3/6 1300/3/6 1341/3/6
f 1301/3/6 1302/3/6 1342/3/6
f 1341/2/6 1301/2/6 1342/2/6
f 1302/2/6 1303/2/6 1343/2/6
f 1342/3/6 1302/3/6 1343/3/6
f 1303/3/6 1304/3/6 1344/3/6
f 1343/2/6 1303/2/6 1344/2/6
f 1304/2/6 1305/2/6 1345/2/6
f 1344/3/6 1304/3/6 1345/3/6
f 1305/3/6 1306/3/6 1346/3/6
f 1345/2/6 1305/2/6 1346/2/6
f 1306/2/6 1307/2/6 1347/2/6
f 1346/3/6 1306/3/6 1347/3/6
f 1307/3/6 1308/3/6 1348/3/6
f 1347/2/6 1307/2/6 1348/2/6
f 1308/2/6 1309/2/6 1349/2/6
f 1348/3/6 1308/3/6 1349/3/6
f 1309/3/6 1310/3/6 1350/3/6
f 1349/2/6 1309/2/6 1350/2/6
f 1310/2/6 1311/2/6 1351/2/6
f 1350/3/6 1310/3/6 1351/3/6
f 1311/3/6 1312/3/6 1352/3/6
f 1351/2/6 1311/2/6 1352/2/6
f 1312/2/6 1313/2/6 1353/2/6
f 1352/3/6 1312/3/6 1353/3/6
f 1313/3/6 1314/3/6 1354/3/6
f 1353/2/6 1313/2/6 1354/2/6
f 1314/2/6 1315/2/6 1355/2/6
f 1354/3/6 1314/3/6 1355/3/6
f 1315/3/6 1316/3/6 1356/3/6
f 1355/2/6 1315/2/6 1356/2/6
f 1316/2/6 1317/2/6 1357/2/6
f 1356/3/6 1316/3/6 1357/3/6
f 1317/3/6 1318/3/6 1358/3/6
f 1357/2/6 1317/2/6 1358/2/6
f 1318/2/6 1319/2/6 1359/2/6
f 1358/3/6 1318/3/6 1359/3/6
f 1319/3/6 1320/3/6 1360/3/6
f 1359/2/6 1319/2/6 1360/2/6
f 1320/2/6 1321/2/6 1361/2/6
f 1360/3/6 1320/3/6 1361/3/6
f 1321/3/6 1322/3/6 1362/3/6
f 1361/2/6 1321/2/6 1362/2/6
f 1322/2/6 1323/2/6 1363/2/6
f 1362/3/6 1322/3/6 1363/3/6
f 1323/3/6 1324/3/6 1364/3/6
f 1363/2/6 1323/2/6 1364/2/6
f 1324/2/6 1325/2/6 1365/2/6
f 1364/3/6 1324/3/6 1365/3/6
f 1325/3/6 1326/3/6 1366/3/6
f 1365/2/6 1325/2/6 1366/2/6
f 1326/2/6 1327/2/6 1367/2/6
f 1366/3/6 1326/3/6 1367/3/6
f 1327/3/6 1328/3/6 1368/3/6
f 1367/2/6 1327/2/6 1368/2/6
f 1328/2/6 1329/2/6 1369/2/6
f 1368/3/6 1328/3/6 1369/3/6
f 1329/3/6 1330/3/6 1370/3/6
f 1369/2/6 1329/2/6 1370/2/6
f 1330/2/6 1170/2/6 1371/2/6
f 1370/3/6 1330/3/6 1371/3/6
f 1371/2/6 1170/2/6 1372/2/6
f 1367/2/6 1368/2/6 1373/2/6
f 1369/2/6 1370/2/6 1373/2/6
f 1370/2/6 1371/2/6 1373/2/6
f 1368/2/6 1369/2/6 1373/2/6
f 1366/2/6 1367/2/6 1373/2/6
f 1365/2/6 1366/2/6 1373/2/6
f 1364/2/6 1365/2/6 1373/2/6
f 1363/2/6 1364/2/6 1373/2/6
f 1362/2/6 1363/2/6 1373/2/6
f 1361/2/6 1362/2/6 1373/2/6
f 1360/2/6 1361/2/6 1373/2/6
f 1359/2/6 1360/2/6 1373/2/6
f 1358/2/6 1359/2/6 1373/2/6
f 1357/2/6 1358/2/6 1373/2/6
f 1356/2/6 1357/2/6 1373/2/6
f 1355/2/6 1356/2/6 1373/2/6
f 1354/2/6 1355/2/6 1373/2/6
f 1353/2/6 1354/2/6 1373/2/6
f 1352/2/6 1353/2/6 1373/2/6
f 1351/2/6 1352/2/6 1373/2/6
f 1350/2/6 1351/2/6 1373/2/6
f 1349/2/6 1350/2/6 1373/2/6
f 1348/2/6 1349/2/6 1373/2/6
f 1347/2/6 1348/2/6 1373/2/6
f 1346/2/6 1347/2/6 1373/2/6
f 1345/2/6 1346/2/6 1373/2/6
f 1344/2/6 1345/2/6 1373/2/6
f 1343/2/6 1344/2/6 1373/2/6
f 1342/2/6 1343/2/6 1373/2/6
f 1341/2/6 1342/2/6 1373/2/6
f 1340/2/6 1341/2/6 1373/2/6
f 1339/2/6 1340/2/6 1373/2/6
f 1338/2/6 1339/2/6 1373/2/6
f 1337/2/6 1338/2/6 1373/2/6
f 1336/2/6 1337/2/6 1373/2/6
f 1335/2/6 1336/2/6 1373/2/6
f 1334/2/6 1335/2/6 1373/2/6
f 1333/2/6 1334/2/6 1373/2/6
f 1332/2/6 1333/2/6 1373/2/6
f 1373/2/6 1371/2/6 1374/2/6
f 1374/2/6 1371/2/6 1375/2/6
f 1375/2/6 1371/2/6 1376/2/6
f 1376/2/6 1371/2/6 1377/2/6
f 1377/2/6 1371/2/6 1378/2/6
f 1378/2/6 1371/2/6 1379/2/6
f 1379/2/6 1371/2/6 1380/2/6
f 1380/2/6 1371/2/6 1381/2/6
f 1381/2/6 1371/2/6 1382/2/6
f 1382/2/6 1371/2/6 1383/2/6
f 1383/2/6 1371/2/6 1384/2/6
f 1384/2/6 1371/2/6 1385/2/6
f 1385/2/6 1371/2/6 1386/2/6
f 1386/2/6 1371/2/6 1387/2/6
f 1387/2/6 1371/2/6 1388/2/6
f 1388/2/6 1371/2/6 1389/2/6
f 1389/2/6 1371/2/6 1390/2/6
f 1390/2/6 1371/2/6 1391/2/6
f 1391/2/6 1371/2/6 1392/2/6
f 1392/2/6 1371/2/6 1393/2/6
f 1393/2/6 1371/2/6 1394/2/6
f 1394/2/6 1371/2/6 1395/2/6
f 1395/2/6 1371/2/6 1396/2/6
f 1396/2/6 1371/2/6 1397/2/6
f 1397/2/6 1371/2/6 1398/2/6
f 1398/2/6 1371/2/6 1399/2/6
f 1399/2/6 1371/2/6 1400/2/6
f 1400/2/6 1371/2/6 1401/2/6
f 1401/2/6 1371/2/6 1402/2/6
f 1402/2/6 1371/2/6 1403/2/6
f 1403/2/6 1371/2/6 1404/2/6
f 1404/2/6 1371/2/6 1405/2/6
f 1405/2/6 1371/2/6 1406/2/6
f 1406/2/6 1371/2/6 1407/2/6
f 1407/2/6 1371/2/6 1408/2/6
f 1332/2/6 1373/2/6 1409/2/6
f 1373/3/6 1374/3/6 1409/3/6
f 1374/2/6 1375/2/6 1410/2/6
f 1409/3/6 1374/3/6 1410/3/6
f 1375/3/6 1376/3/6 1411/3/6
f 1410/2/6 1375/2/6 1411/2/6
f 1376/2/6 1377/2/6 1412/2/6
f 1411/3/6 1376/3/6 1412/3/6
f 1377/3/6 1378/3/6 1413/3/6
f 1412/2/6 1377/2/6 1413/2/6
f 1378/2/6 1379/2/6 1414/2/6
f 1413/3/6 1378/3/6 1414/3/6
f 1379/3/6 1380/3/6 1415/3/6
f 1414/2/6 1379/2/6 1415/2/6
f 1380/2/6 1381/2/6 1416/2/6
f 1415/3/6 1380/3/6 1416/3/6
f 1381/3/6 1382/3/6 1417/3/6
f 1416/2/6 1381/2/6 1417/2/6
f 1382/2/6 1383/2/6 1418/2/6
f 1417/3/6 1382/3/6 1418/3/6
f 1383/3/6 1384/3/6 1419/3/6
f 1418/2/6 1383/2/6 1419/2/6
f 1384/2/6 1385/2/6 1420/2/6
f 1419/3/6 1384/3/6 1420/3/6
f 1385/3/6 1386/3/6 1421/3/6
f 1420/2/6 1385/2/6 1421/2/6
f 1386/2/6 1387/2/6 1422/2/6
f 1421/3/6 1386/3/6 1422/3/6
f 1387/3/6 1388/3/6 1423/3/6
f 1422/2/6 1387/2/6 1423/2/6
f 1388/2/6 1389/2/6 1424/2/6
f 1423/3/6 1388/3/6 1424/3/6
f 1389/3/6 1390/3/6 1425/3/6
f 1424/2/6 1389/2/6 1425/2/6
f 1390/2/6 1391/2/6 1426/2/6
f 1425/3/6 1390/3/6 1426/3/6
f 1391/3/6 1392/3/6 1427/3/6
f 1426/2/6 1391/2/6 1427/2/6
f 1392/2/6 1393/2/6 1428/2/6
f 1427/3/6 1392/3/6 1428/3/6
f 1393/3/6 1394/3/6 1429/3/6
f 1428/2/6 1393/2/6 1429/2/6
f 1394/2/6 1395/2/6 1430/2/6
f 1429/3/6 1394/3/6 1430/3/6
f 1395/3/6 1396/3/6 1431/3/6
f 1430/2/6 1395/2/6 1431/2/6
f 1396/2/6 1397/2/6 1432/2/6
f 1431/3/6 1396/3/6 1432/3/6
f 1397/3/6 1398/3/6 1433/3/6
f 1432/2/6 1397/2/6 1433/2/6
f 1398/2/6 1399/2/6 1434/2/6
f 1433/3/6 1398/3/6 1434/3/6
f 1399/3/6 1400/3/6 1435/3/6
f 1434/2/6 1399/2/6 1435/2/6
f 1400/2/6 1401/2/6 1436/2/6
f 1435/3/6 1400/3/6 1436/3/6
f 1401/3/6 1402/3/6 1437/3/6
f 1436/2/6 1401/2/6 1437/2/6
f 1402/2/6 1403/2/6 1438/2/6
f 1437/3/6 1402/3/6 1438/3/6
f 1403/3/6 1404/3/6 1439/3/6
f 1438/2/6 1403/2/6 1439/2/6
f 1404/2/6 1405/2/6 1440/2/6
f 1439/3/6 1404/3/6 1440/3/6
f 1405/3/6 1406/3/6 1441/3/6
f 1440/2/6 1405/2/6 1441/2/6
f 1406/2/6 1407/2/6 1442/2/6
f 1441/3/6 1406/3/6 1442/3/6
f 1407/3/6 1408/3/6 1443/3/6
f 1442/2/6 1407/2/6 1443/2/6
f 1408/2/6 1371/2/6 1444/2/6
f 1443/3/6 1408/3/6 1444/3/6
f 1442/2/6 1443/2/6 1445/2/6
f 1441/2/6 1442/2/6 1445/2/6
f 1443/2/6 1444/2/6 1445/2/6
f 1440/2/6 1441/2/6 1445/2/6
f 1439/2/6 1440/2/6 1445/2/6
f 1438/2/6 1439/2/6 1445/2/6
f 1437/2/6 1438/2/6 1445/2/6
f 1436/2/6 1437/2/6 1445/2/6
f 1435/2/6 1436/2/6 1445/2/6
f 1434/2/6 1435/2/6 1445/2/6
f 1433/2/6 1434/2/6 1445/2/6
f 1432/2/6 1433/2/6 1445/2/6
f 1431/2/6 1432/2/6 1445/2/6
f 1430/2/6 1431/2/6 1445/2/6
f 1429/2/6 1430/2/6 1445/2/6
f 1428/2/6 1429/2/6 1445/2/6
f 1427/2/6 1428/2/6 1445/2/6
f 1426/2/6 1427/2/6 1445/2/6
f 1425/2/6 1426/2/6 1445/2/6
f 1424/2/6 1425/2/6 1445/2/6
f 1423/2/6 1424/2/6 1445/2/6
f 1422/2/6 1423/2/6 1445/2/6
f 1421/2/6 1422/2/6 1445/2/6
f 1420/2/6 1421/2/6 1445/2/6
f 1419/2/6 1420/2/6 1445/2/6
f 1418/2/6 1419/2/6 1445/2/6
f 1417/2/6 1418/2/6 1445/2/6
f 1416/2/6 1417/2/6 1445/2/6
f 1415/2/6 1416/2/6 1445/2/6
f 1414/2/6 1415/2/6 1445/2/6
f 1413/2/6 1414/2/6 1445/2/6
f 1412/2/6 1413/2/6 1445/2/6
f 1411/2/6 1412/2/6 1445/2/6
f 1410/2/6 1411/2/6 1445/2/6
f 1409/2/6 1410/2/6 1445/2/6
f 1332/2/6 1409/2/6 1445/2/6
f 1445/2/6 1444/2/6 1446/2/6
f 1446/2/6 1444/2/6 1447/2/6
f 1447/2/6 1444/2/6 1448/2/6
f 1448/2/6 1444/2/6 1449/2/6
f 1449/2/6 1444/2/6 1450/2/6
f 1450/2/6 1444/2/6 1451/2/6
f 1451/2/6 1444/2/6 1452/2/6
f 1452/2/6 1444/2/6 1453/2/6
f 1453/2/6 1444/2/6 1454/2/6
f 1454/2/6 1444/2/6 1455/2/6
f 1455/2/6 1444/2/6 1456/2/6
f 1456/2/6 1444/2/6 1457/2/6
f 1457/2/6 1444/2/6 1458/2/6
f 1458/2/6 1444/2/6 1459/2/6
f 1459/2/6 1444/2/6 1460/2/6
f 1460/2/6 1444/2/6 1461/2/6
f 1461/2/6 1444/2/6 1462/2/6
f 1462/2/6 1444/2/6 1463/2/6
f 1463/2/6 1444/2/6 1464/2/6
f 1464/2/6 1444/2/6 1465/2/6
f 1465/2/6 1444/2/6 1466/2/6
f 1466/2/6 1444/2/6 1467/2/6
f 1467/2/6 1444/2/6 1468/2/6
f 1468/2/6 1444/2/6 1469/2/6
f 1469/2/6 1444/2/6 1470/2/6
f 1470/2/6 1444/2/6 1471/2/6
f 1471/2/6 1444/2/6 1472/2/6
f 1472/2/6 1444/2/6 1473/2/6
f 1473/2/6 1444/2/6 1474/2/6
f 1474/2/6 1444/2/6 1475/2/6
f 1475/2/6 1444/2/6 1476/2/6
f 1476/2/6 1444/2/6 1477/2/6
f 1477/2/6 1444/2/6 1478/2/6
f 1478/2/6 1444/2/6 1479/2/6
f 1479/2/6 1444/2/6 1480/2/6
f 1480/2/6 1444/2/6 1481/2/6
f 1444/2/6 1371/2/6 1482/2/6
f 1481/2/6 1444/2/6 1482/2/6
f 1482/2/6 1371/2/6 1483/2/6
f 1483/2/6 1371/2/6 1484/2/6
f 1446/2/6 1447/2/6 1485/2/6
f 1447/3/6 1448/3/6 1486/3/6
f 1485/2/6 1447/2/6 1486/2/6
f 1448/2/6 1449/2/6 1487/2/6
f 1486/3/6 1448/3/6 1487/3/6
f 1449/3/6 1450/3/6 1488/3/6
f 1487/2/6 1449/2/6 1488/2/6
f 1450/2/6 1451/2/6 1489/2/6
f 1488/3/6 1450/3/6 1489/3/6
f 1451/3/6 1452/3/6 1490/3/6
f 1489/2/6 1451/2/6 1490/2/6
f 1452/2/6 1453/2/6 1491/2/6
f 1490/3/6 1452/3/6 1491/3/6
f 1453/3/6 1454/3/6 1492/3/6
f 1491/2/6 1453/2/6 1492/2/6
f 1454/2/6 1455/2/6 1493/2/6
f 1492/3/6 1454/3/6 1493/3/6
f 1455/3/6 1456/3/6 1494/3/6
f 1493/2/6 1455/2/6 1494/2/6
f 1456/2/6 1457/2/6 1495/2/6
f 1494/3/6 1456/3/6 1495/3/6
f 1457/3/6 1458/3/6 1496/3/6
f 1495/2/6 1457/2/6 1496/2/6
f 1458/2/6 1459/2/6 1497/2/6
f 1496/3/6 1458/3/6 1497/3/6
f 1459/3/6 1460/3/6 1498/3/6
f 1497/2/6 1459/2/6 1498/2/6
f 1460/2/6 1461/2/6 1499/2/6
f 1498/3/6 1460/3/6 1499/3/6
f 1461/3/6 1462/3/6 1500/3/6
f 1499/2/6 1461/2/6 1500/2/6
f 1462/2/6 1463/2/6 1501/2/6
f 1500/3/6 1462/3/6 1501/3/6
f 1463/3/6 1464/3/6 1502/3/6
f 1501/2/6 1463/2/6 1502/2/6
f 1464/2/6 1465/2/6 1503/2/6
f 1502/3/6 1464/3/6 1503/3/6
f 1465/3/6 1466/3/6 1504/3/6
f 1503/2/6 1465/2/6 1504/2/6
f 1466/2/6 1467/2/6 1505/2/6
f 1504/3/6 1466/3/6 1505/3/6
f 1467/3/6 1468/3/6 1506/3/6
f 1505/2/6 1467/2/6 1506/2/6
f 1468/2/6 1469/2/6 1507/2/6
f 1506/3/6 1468/3/6 1507/3/6
f 1469/3/6 1470/3/6 1508/3/6
f 1507/2/6 1469/2/6 1508/2/6
f 1470/2/6 1471/2/6 1509/2/6
f 1508/3/6 1470/3/6 1509/3/6
f 1471/3/6 1472/3/6 1510/3/6
f 1509/2/6 1471/2/6 1510/2/6
f 1472/2/6 1473/2/6 1511/2/6
f 1510/3/6 1472/3/6 1511/3/6
f 1473/3/6 1474/3/6 1512/3/6
f 1511/2/6 1473/2/6 1512/2/6
f 1474/2/6 1475/2/6 1513/2/6
f 1512/3/6 1474/3/6 1513/3/6
f 1475/3/6 1476/3/6 1514/3/6
f 1513/2/6 1475/2/6 1514/2/6
f 1476/2/6 1477/2/6 1515/2/6
f 1514/3/6 1476/3/6 1515/3/6
f 1477/3/6 1478/3/6 1516/3/6
f 1515/2/6 1477/2/6 1516/2/6
f 1478/2/6 1479/2/6 1517/2/6
f 1516/3/6 1478/3/6 1517/3/6
f 1479/3/6 1480/3/6 1518/3/6
f 1517/2/6 1479/2/6 1518/2/6
f 1480/2/6 1481/2/6 1519/2/6
f 1518/3/6 1480/3/6 1519/3/6
f 1481/3/6 1482/3/6 1520/3/6
f 1519/2/6 1481/2/6 1520/2/6
f 1482/2/6 1483/2/6 1521/2/6
f 1520/3/6 1482/3/6 1521/3/6
f 1521/2/6 1483/2/6 1522/2/6
f 1517/2/6 1518/2/6 1523/2/6
f 1519/2/6 1520/2/6 1523/2/6
f 1520/2/6 1521/2/6 1523/2/6
f 1518/2/6 1519/2/6 1523/2/6
f 1516/2/6 1517/2/6 1523/2/6
f 1515/2/6 1516/2/6 1523/2/6
f 1514/2/6 1515/2/6 1523/2/6
f 1513/2/6 1514/2/6 1523/2/6
f 1512/2/6 1513/2/6 1523/2/6
f 1511/2/6 1512/2/6 1523/2/6
f 1510/2/6 1511/2/6 1523/2/6
f 1509/2/6 1510/2/6 1523/2/6
f 1508/2/6 1509/2/6 1523/2/6
f 1507/2/6 1508/2/6 1523/2/6
f 1506/2/6 1507/2/6 1523/2/6
f 1505/2/6 1506/2/6 1523/2/6
f 1504/2/6 1505/2/6 1523/2/6
f 1503/2/6 1504/2/6 1523/2/6
f 1502/2/6 1503/2/6 1523/2/6
f 1501/2/6 1502/2/6 1523/2/6
f 1500/2/6 1501/2/6 1523/2/6
f 1499/2/6 1500/2/6 1523/2/6
f 1498/2/6 1499/2/6 1523/2/6
f 1497/2/6 1498/2/6 1523/2/6
f 1496/2/6 1497/2/6 1523/2/6
f 1495/2/6 1496/2/6 1523/2/6
f 1494/2/6 1495/2/6 1523/2/6
f 1493/2/6 1494/2/6 1523/2/6
f 1492/2/6 1493/2/6 1523/2/6
f 1491/2/6 1492/2/6 1523/2/6
f 1490/2/6 1491/2/6 1523/2/6
f 1489/2/6 1490/2/6 1523/2/6
f 1488/2/6 1489/2/6 1523/2/6
f 1487/2/6 1488/2/6 1523/2/6
f 1486/2/6 1487/2/6 1523/2/6
f 1523/2/6 1521/2/6 1524/2/6
f 1524/2/6 1521/2/6 1525/2/6
f 1525/2/6 1521/2/6 1526/2/6
f 1526/2/6 1521/2/6 1527/2/6
f 1527/2/6 1521/2/6 1528/2/6
f 1528/2/6 1521/2/6 1529/2/6
f 1529/2/6 1521/2/6 1530/2/6
f 1530/2/6 1521/2/6 1531/2/6
f 1531/2/6 1521/2/6 1532/2/6
f 1532/2/6 1521/2/6 1533/2/6
f 1533/2/6 1521/2/6 1534/2/6
f 1534/2/6 1521/2/6 1535/2/6
f 1535/2/6 1521/2/6 1536/2/6
f 1536/2/6 1521/2/6 1537/2/6
f 1537/2/6 1521/2/6 1538/2/6
f 1538/2/6 1521/2/6 1539/2/6
f 1539/2/6 1521/2/6 1540/2/6
f 1540/2/6 1521/2/6 1541/2/6
f 1541/2/6 1521/2/6 1542/2/6
f 1542/2/6 1521/2/6 1543/2/6
f 1543/2/6 1521/2/6 1544/2/6
f 1544/2/6 1521/2/6 1545/2/6
f 1545/2/6 1521/2/6 1546/2/6
f 1546/2/6 1521/2/6 1547/2/6
f 1547/2/6 1521/2/6 1548/2/6
f 1548/2/6 1521/2/6 1549/2/6
f 1549/2/6 1521/2/6 1550/2/6
f 1550/2/6 1521/2/6 1551/2/6
f 1551/2/6 1521/2/6 1552/2/6
f 1552/2/6 1521/2/6 1553/2/6
f 1553/2/6 1521/2/6 1554/2/6
f 1554/2/6 1521/2/6 1555/2/6
f 1555/2/6 1521/2/6 1556/2/6
f 1556/2/6 1521/2/6 1557/2/6
f 1557/2/6 1521/2/6 1558/2/6
f 1524/2/6 1525/2/6 1559/2/6
f 1525/3/6 1526/3/6 1560/3/6
f 1559/2/6 1525/2/6 1560/2/6
f 1526/2/6 1527/2/6 1561/2/6
f 1560/3/6 1526/3/6 1561/3/6
f 1527/3/6 1528/3/6 1562/3/6
f 1561/2/6 1527/2/6 1562/2/6
f 1528/2/6 1529/2/6 1563/2/6
f 1562/3/6 1528/3/6 1563/3/6
f 1529/3/6 1530/3/6 1564/3/6
f 1563/2/6 1529/2/6 1564/2/6
f 1530/2/6 1531/2/6 1565/2/6
f 1564/3/6 1530/3/6 1565/3/6
f 1531/3/6 1532/3/6 1566/3/6
f 1565/2/6 1531/2/6 1566/2/6
f 1532/2/6 1533/2/6 1567/2/6
f 1566/3/6 1532/3/6 1567/3/6
f 1533/3/6 1534/3/6 1568/3/6
f 1567/2/6 1533/2/6 1568/2/6
f 1534/2/6 1535/2/6 1569/2/6
f 1568/3/6 1534/3/6 1569/3/6
f 1535/3/6 1536/3/6 1570/3/6
f 1569/2/6 1535/2/6 1570/2/6
f 1536/2/6 1537/2/6 1571/2/6
f 1570/3/6 1536/3/6 1571/3/6
f 1537/3/6 1538/3/6 1572/3/6
f 1571/2/6 1537/2/6 1572/2/6
f 1538/2/6 1539/2/6 1573/2/6
f 1572/3/6 1538/3/6 1573/3/6
f 1539/3/6 1540/3/6 1574/3/6
f 1573/2/6 1539/2/6 1574/2/6
f 1540/2/6 1541/2/6 1575/2/6
f 1574/3/6 1540/3/6 1575/3/6
f 1541/3/6 1542/3/6 1576/3/6
f 1575/2/6 1541/2/6 1576/2/6
f 1542/2/6 1543/2/6 1577/2/6
f 1576/3/6 1542/3/6 1577/3/6
f 1543/3/6 1544/3/6 1578/3/6
f 1577/2/6 1543/2/6 1578/2/6
f 1544/2/6 1545/2/6 1579/2/6
f 1578/3/6 1544/3/6 1579/3/6
f 1545/3/6 1546/3/6 1580/3/6
f 1579/2/6 1545/2/6 1580/2/6
f 1546/2/6 1547/2/6 1581/2/6
f 1580/3/6 1546/3/6 1581/3/6
f 1547/3/6 1548/3/6 1582/3/6
f 1581/2/6 1547/2/6 1582/2/6
f 1548/2/6 1549/2/6 1583/2/6
f 1582/3/6 1548/3/6 1583/3/6
f 1549/3/6 1550/3/6 1584/3/6
f 1583/2/6 1549/2/6 1584/2/6
f 1550/2/6 1551/2/6 1585/2/6
f 1584/3/6 1550/3/6 1585/3/6
f 1551/3/6 1552/3/6 1586/3/6
f 1585/2/6 1551/2/6 1586/2/6
f 1552/2/6 1553/2/6 1587/2/6
f 1586/3/6 1552/3/6 1587/3/6
f 1553/3/6 1554/3/6 1588/3/6
f 1587/2/6 1553/2/6 1588/2/6
f 1554/2/6 1555/2/6 1589/2/6
f 1588/3/6 1554/3/6 1589/3/6
f 1555/3/6 1556/3/6 1590/3/6
f 1589/2/6 1555/2/6 1590/2/6
f 1556/2/6 1557/2/6 1591/2/6
f 1590/3/6 1556/3/6 1591/3/6
f 1591/2/6 1557/2/6 1592/2/6
f 1589/2/6 1590/2/6 1593/2/6
f 1590/2/6 1591/2/6 1593/2/6
f 1588/2/6 1589/2/6 1593/2/6
f 1587/2/6 1588/2/6 1593/2/6
f 1586/2/6 1587/2/6 1593/2/6
f 1585/2/6 1586/2/6 1593/2/6
f 1584/2/6 1585/2/6 1593/2/6
f 1583/2/6 1584/2/6 1593/2/6
f 1582/2/6 1583/2/6 1593/2/6
f 1581/2/6 1582/2/6 1593/2/6
f 1580/2/6 1581/2/6 1593/2/6
f 1579/2/6 1580/2/6 1593/2/6
f 1578/2/6 1579/2/6 1593/2/6
f 1577/2/6 1578/2/6 1593/2/6
f 1576/2/6 1577/2/6 1593/2/6
f 1575/2/6 1576/2/6 1593/2/6
f 1574/2/6 1575/2/6 1593/2/6
f 1573/2/6 1574/2/6 1593/2/6
f 1572/2/6 1573/2/6 1593/2/6
f 1571/2/6 1572/2/6 1593/2/6
f 1570/2/6 1571/2/6 1593/2/6
f 1569/2/6 1570/2/6 1593/2/6
f 1568/2/6 1569/2/6 1593/2/6
f 1567/2/6 1568/2/6 1593/2/6
f 1566/2/6 1567/2/6 1593/2/6
f 1565/2/6 1566/2/6 1593/2/6
f 1564/2/6 1565/2/6 1593/2/6
f 1563/2/6 1564/2/6 1593/2/6
f 1562/2/6 1563/2/6 1593/2/6
f 1561/2/6 1562/2/6 1593/2/6
f 1560/2/6 1561/2/6 1593/2/6
f 1593/2/6 1591/2/6 1594/2/6
f 1594/2/6 1591/2/6 1595/2/6
f 1595/2/6 1591/2/6 1596/2/6
f 1596/2/6 1591/2/6 1597/2/6
f 1597/2/6 1591/2/6 1598/2/6
f 1598/2/6 1591/2/6 1599/2/6
f 1599/2/6 1591/2/6 1600/2/6
f 1600/2/6 1591/2/6 1601/2/6
f 1601/2/6 1591/2/6 1602/2/6
f 1602/2/6 1591/2/6 1603/2/6
f 1603/2/6 1591/2/6 1604/2/6
f 1604/2/6 1591/2/6 1605/2/6
f 1605/2/6 1591/2/6 1606/2/6
f 1606/2/6 1591/2/6 1607/2/6
f 1607/2/6 1591/2/6 1608/2/6
f 1608/2/6 1591/2/6 1609/2/6
f 1609/2/6 1591/2/6 1610/2/6
f 1610/2/6 1591/2/6 1611/2/6
f 1611/2/6 1591/2/6 1612/2/6
f 1612/2/6 1591/2/6 1613/2/6
f 1613/2/6 1591/2/6 1614/2/6
f 1614/2/6 1591/2/6 1615/2/6
f 1615/2/6 1591/2/6 1616/2/6
f 1616/2/6 1591/2/6 1617/2/6
f 1617/2/6 1591/2/6 1618/2/6
f 1618/2/6 1591/2/6 1619/2/6
f 1619/2/6 1591/2/6 1620/2/6
f 1620/2/6 1591/2/6 1621/2/6
f 1621/2/6 1591/2/6 1622/2/6
f 1622/2/6 1591/2/6 1623/2/6
f 1623/2/6 1591/2/6 1624/2/6
f 1594/2/6 1595/2/6 1625/2/6
f 1595/3/6 1596/3/6 1626/3/6
f 1625/2/6 1595/2/6 1626/2/6
f 1596/2/6 1597/2/6 1627/2/6
f 1626/3/6 1596/3/6 1627/3/6
f 1620/2/6 1621/2/6 1628/2/6
f 1621/3/6 1622/3/6 1628/3/6
f 1622/2/6 1623/2/6 1629/2/6
f 1628/3/6 1622/3/6 1629/3/6
f 1629/2/6 1623/2/6 1630/2/6
f 1626/2/6 1627/2/6 1631/2/6
f 1627/2/6 1597/2/6 1632/2/6
f 1631/2/6 1627/2/6 1632/2/6
f 1597/3/6 1598/3/6 1633/3/6
f 1632/2/6 1597/2/6 1633/2/6
f 1598/2/6 1599/2/6 1634/2/6
f 1633/3/6 1598/3/6 1634/3/6
f 1599/3/6 1600/3/6 1635/3/6
f 1634/2/6 1599/2/6 1635/2/6
f 1600/2/6 1601/2/6 1636/2/6
f 1635/3/6 1600/3/6 1636/3/6
f 1601/3/6 1602/3/6 1637/3/6
f 1636/2/6 1601/2/6 1637/2/6
f 1602/2/6 1603/2/6 1638/2/6
f 1637/3/6 1602/3/6 1638/3/6
f 1603/3/6 1604/3/6 1639/3/6
f 1638/2/6 1603/2/6 1639/2/6
f 1604/2/6 1605/2/6 1640/2/6
f 1639/3/6 1604/3/6 1640/3/6
f 1605/3/6 1606/3/6 1641/3/6
f 1640/2/6 1605/2/6 1641/2/6
f 1606/2/6 1607/2/6 1642/2/6
f 1641/3/6 1606/3/6 1642/3/6
f 1607/3/6 1608/3/6 1643/3/6
f 1642/2/6 1607/2/6 1643/2/6
f 1608/2/6 1609/2/6 1644/2/6
f 1643/3/6 1608/3/6 1644/3/6
f 1609/3/6 1610/3/6 1645/3/6
f 1644/2/6 1609/2/6 1645/2/6
f 1610/2/6 1611/2/6 1646/2/6
f 1645/3/6 1610/3/6 1646/3/6
f 1611/3/6 1612/3/6 1647/3/6
f 1646/2/6 1611/2/6 1647/2/6
f 1612/2/6 1613/2/6 1648/2/6
f 1647/3/6 1612/3/6 1648/3/6
f 1613/3/6 1614/3/6 1649/3/6
f 1648/2/6 1613/2/6 1649/2/6
f 1614/2/6 1615/2/6 1650/2/6
f 1649/3/6 1614/3/6 1650/3/6
f 1615/3/6 1616/3/6 1651/3/6
f 1650/2/6 1615/2/6 1651/2/6
f 1616/2/6 1617/2/6 1652/2/6
f 1651/3/6 1616/3/6 1652/3/6
f 1617/3/6 1618/3/6 1653/3/6
f 1652/2/6 1617/2/6 1653/2/6
f 1618/2/6 1619/2/6 1654/2/6
f 1653/3/6 1618/3/6 1654/3/6
f 1619/3/6 1620/3/6 1655/3/6
f 1654/2/6 1619/2/6 1655/2/6
f 1620/2/6 1628/2/6 1656/2/6
f 1655/3/6 1620/3/6 1656/3/6
f 1628/2/6 1629/2/6 1656/2/6
f 1656/2/6 1629/2/6 1657/2/6
f 1657/2/6 1629/2/6 1658/2/6
f 1654/2/6 1655/2/6 1659/2/6
f 1656/2/6 1657/2/6 1659/2/6
f 1655/2/6 1656/2/6 1659/2/6
f 1632/2/6 1633/2/6 1659/2/6
f 1653/2/6 1654/2/6 1659/2/6
f 1652/2/6 1653/2/6 1659/2/6
f 1651/2/6 1652/2/6 1659/2/6
f 1650/2/6 1651/2/6 1659/2/6
f 1649/2/6 1650/2/6 1659/2/6
f 1648/2/6 1649/2/6 1659/2/6
f 1647/2/6 1648/2/6 1659/2/6
f 1646/2/6 1647/2/6 1659/2/6
f 1645/2/6 1646/2/6 1659/2/6
f 1644/2/6 1645/2/6 1659/2/6
f 1643/2/6 1644/2/6 1659/2/6
f 1642/2/6 1643/2/6 1659/2/6
f 1641/2/6 1642/2/6 1659/2/6
f 1640/2/6 1641/2/6 1659/2/6
f 1639/2/6 1640/2/6 1659/2/6
f 1638/2/6 1639/2/6 1659/2/6
f 1637/2/6 1638/2/6 1659/2/6
f 1636/2/6 1637/2/6 1659/2/6
f 1635/2/6 1636/2/6 1659/2/6
f 1634/2/6 1635/2/6 1659/2/6
f 1633/2/6 1634/2/6 1659/2/6
f 1659/2/6 1657/2/6 1660/2/6
f 1660/2/6 1657/2/6 1661/2/6
f 1661/2/6 1657/2/6 1662/2/6
f 1662/2/6 1657/2/6 1663/2/6
f 1663/2/6 1657/2/6 1664/2/6
f 1664/2/6 1657/2/6 1665/2/6
f 1665/2/6 1657/2/6 1666/2/6
f 1666/2/6 1657/2/6 1667/2/6
f 1667/2/6 1657/2/6 1668/2/6
f 1668/2/6 1657/2/6 1669/2/6
f 1669/2/6 1657/2/6 1670/2/6
f 1670/2/6 1657/2/6 1671/2/6
f 1671/2/6 1657/2/6 1672/2/6
f 1672/2/6 1657/2/6 1673/2/6
f 1673/2/6 1657/2/6 1674/2/6
f 1674/2/6 1657/2/6 1675/2/6
f 1675/2/6 1657/2/6 1676/2/6
f 1676/2/6 1657/2/6 1677/2/6
f 1677/2/6 1657/2/6 1678/2/6
f 1678/2/6 1657/2/6 1679/2/6
f 1679/2/6 1657/2/6 1680/2/6
f 1680/2/6 1657/2/6 1681/2/6
f 1681/2/6 1657/2/6 1682/2/6
f 1660/2/6 1661/2/6 1683/2/6
f 1661/3/6 1662/3/6 1684/3/6
f 1683/2/6 1661/2/6 1684/2/6
f 1662/2/6 1663/2/6 1685/2/6
f 1684/3/6 1662/3/6 1685/3/6
f 1678/2/6 1679/2/6 1686/2/6
f 1679/3/6 1680/3/6 1686/3/6
f 1680/2/6 1681/2/6 1687/2/6
f 1686/3/6 1680/3/6 1687/3/6
f 1687/2/6 1681/2/6 1688/2/6
f 1684/2/6 1685/2/6 1689/2/6
f 1663/3/6 1664/3/6 1690/3/6
f 1689/2/6 1685/2/6 1690/2/6
f 1685/2/6 1663/2/6 1690/2/6
f 1664/2/6 1665/2/6 1691/2/6
f 1690/3/6 1664/3/6 1691/3/6
f 1665/3/6 1666/3/6 1692/3/6
f 1691/2/6 1665/2/6 1692/2/6
f 1666/2/6 1667/2/6 1693/2/6
f 1692/3/6 1666/3/6 1693/3/6
f 1667/3/6 1668/3/6 1694/3/6
f 1693/2/6 1667/2/6 1694/2/6
f 1668/2/6 1669/2/6 1695/2/6
f 1694/3/6 1668/3/6 1695/3/6
f 1669/3/6 1670/3/6 1696/3/6
f 1695/2/6 1669/2/6 1696/2/6
f 1670/2/6 1671/2/6 1697/2/6
f 1696/3/6 1670/3/6 1697/3/6
f 1671/3/6 1672/3/6 1698/3/6
f 1697/2/6 1671/2/6 1698/2/6
f 1672/2/6 1673/2/6 1699/2/6
f 1698/3/6 1672/3/6 1699/3/6
f 1673/3/6 1674/3/6 1700/3/6
f 1699/2/6 1673/2/6 1700/2/6
f 1674/2/6 1675/2/6 1701/2/6
f 1700/3/6 1674/3/6 1701/3/6
f 1675/3/6 1676/3/6 1702/3/6
f 1701/2/6 1675/2/6 1702/2/6
f 1676/2/6 1677/2/6 1703/2/6
f 1702/3/6 1676/3/6 1703/3/6
f 1677/3/6 1678/3/6 1704/3/6
f 1703/2/6 1677/2/6 1704/2/6
f 1678/2/6 1686/2/6 1705/2/6
f 1704/3/6 1678/3/6 1705/3/6
f 1686/2/6 1687/2/6 1705/2/6
f 1705/2/6 1687/2/6 1706/2/6
f 1703/2/6 1704/2/6 1707/2/6
f 1704/2/6 1705/2/6 1707/2/6
f 1702/2/6 1703/2/6 1707/2/6
f 1701/2/6 1702/2/6 1707/2/6
f 1700/2/6 1701/2/6 1707/2/6
f 1699/2/6 1700/2/6 1707/2/6
f 1698/2/6 1699/2/6 1707/2/6
f 1697/2/6 1698/2/6 1707/2/6
f 1696/2/6 1697/2/6 1707/2/6
f 1695/2/6 1696/2/6 1707/2/6
f 1694/2/6 1695/2/6 1707/2/6
f 1693/2/6 1694/2/6 1707/2/6
f 1692/2/6 1693/2/6 1707/2/6
f 1691/2/6 1692/2/6 1707/2/6
f 1690/2/6 1691/2/6 1707/2/6
f 1707/2/6 1705/2/6 1708/2/6
f 1708/2/6 1705/2/6 1709/2/6
f 1709/2/6 1705/2/6 1710/2/6
f 1708/2/6 1709/2/6 1711/2/6
f 1711/2/6 1709/2/6 1712/2/6
