# MagicaVoxel @ Ephtracy

# group
o 

# material
mtllib cohete.mtl
usemtl palette

# normals
vn -1 0 0
vn 1 0 0
vn 0 0 1
vn 0 0 -1
vn 0 -1 0
vn 0 1 0

# texcoords
vt 0.447266 0.5
vt 0.455078 0.5
vt 0.794922 0.5
vt 0.798828 0.5
vt 0.802734 0.5
vt 0.888672 0.5
vt 0.892578 0.5
vt 0.919922 0.5
vt 0.947266 0.5

# verts
v -8 9.2 -7.6
v -8 9.2 -7.8
v -8 9.5 -7.6
v -8 9.5 -7.8
v -7.9 9.2 -7.5
v -7.9 9.2 -7.6
v -7.9 9.2 -7.8
v -7.9 9.2 -7.9
v -7.9 9.3 -7.5
v -7.9 9.3 -7.6
v -7.9 9.3 -7.8
v -7.9 9.3 -7.9
v -7.9 9.5 -7.6
v -7.9 9.5 -7.8
v -7.9 9.7 -7.6
v -7.9 9.7 -7.8
v -7.8 9.3 -7.5
v -7.8 9.3 -7.6
v -7.8 9.3 -7.8
v -7.8 9.3 -7.9
v -7.8 9.4 -7.5
v -7.8 9.4 -7.6
v -7.8 9.4 -7.8
v -7.8 9.4 -7.9
v -7.7 9.4 -7.5
v -7.7 9.4 -7.6
v -7.7 9.4 -7.8
v -7.7 9.4 -7.9
v -7.7 9.5 -7.5
v -7.7 9.5 -7.6
v -7.7 9.5 -7.8
v -7.7 9.5 -7.9
v -7.7 9.7 -7.6
v -7.7 9.7 -7.8
v -7.7 10 -7.6
v -7.7 10 -7.8
v -7.6 9.5 -7.5
v -7.6 9.5 -7.6
v -7.6 9.5 -7.8
v -7.6 9.5 -7.9
v -7.6 9.7 -7.5
v -7.6 9.7 -7.6
v -7.6 9.7 -7.8
v -7.6 9.7 -7.9
v -7.6 10 -7.6
v -7.6 10 -7.8
v -7.6 10.2 -7.6
v -7.6 10.2 -7.8
v -7.5 9.7 -7.5
v -7.5 9.7 -7.6
v -7.5 9.7 -7.8
v -7.5 9.7 -7.9
v -7.5 9.8 -7.5
v -7.5 9.8 -7.6
v -7.5 9.8 -7.8
v -7.5 9.8 -7.9
v -7.5 10.2 -7.6
v -7.5 10.2 -7.8
v -7.5 10.3 -7.6
v -7.5 10.3 -7.8
v -7.4 9.8 -7.5
v -7.4 9.8 -7.6
v -7.4 9.8 -7.8
v -7.4 9.8 -7.9
v -7.4 10.1 -7.5
v -7.4 10.1 -7.6
v -7.4 10.1 -7.8
v -7.4 10.1 -7.9
v -7.4 10.3 -7.6
v -7.4 10.3 -7.8
v -7.4 10.4 -7.6
v -7.4 10.4 -7.8
v -7.3 9.2 -7.4
v -7.3 9.2 -7.5
v -7.3 9.2 -7.9
v -7.3 9.2 -8
v -7.3 10.1 -7.5
v -7.3 10.1 -7.6
v -7.3 10.1 -7.8
v -7.3 10.1 -7.9
v -7.3 10.4 -7.6
v -7.3 10.4 -7.8
v -7.3 10.8 -7.4
v -7.3 10.8 -8
v -7.3 10.9 -7.4
v -7.3 10.9 -8
v -7.2 9.2 -7.2
v -7.2 9.2 -7.4
v -7.2 9.2 -8
v -7.2 9.2 -8.2
v -7.2 10.8 -7.2
v -7.2 10.8 -7.4
v -7.2 10.8 -8
v -7.2 10.8 -8.2
v -7.2 10.9 -7.2
v -7.2 10.9 -7.4
v -7.2 10.9 -8
v -7.2 10.9 -8.2
v -7.2 11.2 -7.4
v -7.2 11.2 -8
v -7.2 11.3 -7.4
v -7.2 11.3 -8
v -7.1 9.2 -7.1
v -7.1 9.2 -7.2
v -7.1 9.2 -8.2
v -7.1 9.2 -8.3
v -7.1 10.8 -7.1
v -7.1 10.8 -7.2
v -7.1 10.8 -8.2
v -7.1 10.8 -8.3
v -7.1 10.9 -7.1
v -7.1 10.9 -7.2
v -7.1 10.9 -7.3
v -7.1 10.9 -7.4
v -7.1 10.9 -8
v -7.1 10.9 -8.1
v -7.1 10.9 -8.2
v -7.1 10.9 -8.3
v -7.1 11.2 -7.3
v -7.1 11.2 -7.4
v -7.1 11.2 -8
v -7.1 11.2 -8.1
v -7.1 11.3 -7.3
v -7.1 11.3 -7.4
v -7.1 11.3 -7.5
v -7.1 11.3 -7.9
v -7.1 11.3 -8
v -7.1 11.3 -8.1
v -7.1 11.7 -7.5
v -7.1 11.7 -7.9
v -7.1 11.8 -7.5
v -7.1 11.8 -7.9
v -7 9.2 -7
v -7 9.2 -7.1
v -7 9.2 -8.3
v -7 9.2 -8.4
v -7 10.8 -7
v -7 10.8 -7.1
v -7 10.8 -8.3
v -7 10.8 -8.4
v -7 10.9 -7
v -7 10.9 -7.1
v -7 10.9 -7.2
v -7 10.9 -7.3
v -7 10.9 -8.1
v -7 10.9 -8.2
v -7 10.9 -8.3
v -7 10.9 -8.4
v -7 11.2 -7.2
v -7 11.2 -7.3
v -7 11.2 -8.1
v -7 11.2 -8.2
v -7 11.3 -7.2
v -7 11.3 -7.3
v -7 11.3 -7.5
v -7 11.3 -7.9
v -7 11.3 -8.1
v -7 11.3 -8.2
v -7 11.7 -7.3
v -7 11.7 -7.5
v -7 11.7 -7.9
v -7 11.7 -8.1
v -7 11.8 -7.3
v -7 11.8 -7.5
v -7 11.8 -7.9
v -7 11.8 -8.1
v -7 12.1 -7.5
v -7 12.1 -7.9
v -7 12.2 -7.5
v -7 12.2 -7.9
v -6.9 9.7 -6.9
v -6.9 9.7 -7
v -6.9 9.7 -8.4
v -6.9 9.7 -8.5
v -6.9 10.6 -6.9
v -6.9 10.6 -7
v -6.9 10.6 -8.4
v -6.9 10.6 -8.5
v -6.9 10.9 -7.1
v -6.9 10.9 -7.2
v -6.9 10.9 -8.2
v -6.9 10.9 -8.3
v -6.9 11.2 -7.1
v -6.9 11.2 -7.2
v -6.9 11.2 -8.2
v -6.9 11.2 -8.3
v -6.9 11.3 -7.1
v -6.9 11.3 -7.2
v -6.9 11.3 -7.3
v -6.9 11.3 -8.1
v -6.9 11.3 -8.2
v -6.9 11.3 -8.3
v -6.9 11.7 -7.2
v -6.9 11.7 -7.3
v -6.9 11.7 -8.1
v -6.9 11.7 -8.2
v -6.9 11.8 -7.2
v -6.9 11.8 -7.3
v -6.9 11.8 -7.5
v -6.9 11.8 -7.9
v -6.9 11.8 -8.1
v -6.9 11.8 -8.2
v -6.9 12.1 -7.3
v -6.9 12.1 -7.5
v -6.9 12.1 -7.9
v -6.9 12.1 -8.1
v -6.9 12.2 -7.3
v -6.9 12.2 -7.5
v -6.9 12.2 -7.9
v -6.9 12.2 -8.1
v -6.9 12.4 -7.5
v -6.9 12.4 -7.9
v -6.9 12.5 -7.5
v -6.9 12.5 -7.9
v -6.8 9.2 -6.9
v -6.8 9.2 -7
v -6.8 9.2 -8.4
v -6.8 9.2 -8.5
v -6.8 9.6 -6.9
v -6.8 9.6 -7
v -6.8 9.6 -8.4
v -6.8 9.6 -8.5
v -6.8 9.7 -6.9
v -6.8 9.7 -7
v -6.8 9.7 -8.4
v -6.8 9.7 -8.5
v -6.8 10.6 -6.9
v -6.8 10.6 -7
v -6.8 10.6 -8.4
v -6.8 10.6 -8.5
v -6.8 10.7 -6.9
v -6.8 10.7 -7
v -6.8 10.7 -8.4
v -6.8 10.7 -8.5
v -6.8 10.8 -6.9
v -6.8 10.8 -7
v -6.8 10.8 -8.4
v -6.8 10.8 -8.5
v -6.8 10.9 -6.9
v -6.8 10.9 -7
v -6.8 10.9 -7.1
v -6.8 10.9 -8.3
v -6.8 10.9 -8.4
v -6.8 10.9 -8.5
v -6.8 11.2 -7
v -6.8 11.2 -7.1
v -6.8 11.2 -8.3
v -6.8 11.2 -8.4
v -6.8 11.3 -7
v -6.8 11.3 -7.1
v -6.8 11.3 -8.3
v -6.8 11.3 -8.4
v -6.8 12.2 -7.4
v -6.8 12.2 -7.5
v -6.8 12.2 -7.9
v -6.8 12.2 -8
v -6.8 12.4 -7.4
v -6.8 12.4 -7.5
v -6.8 12.4 -7.9
v -6.8 12.4 -8
v -6.8 12.5 -7.4
v -6.8 12.5 -7.5
v -6.8 12.5 -7.9
v -6.8 12.5 -8
v -6.8 13.3 -7.5
v -6.8 13.3 -7.9
v -6.8 13.6 -7.5
v -6.8 13.6 -7.9
v -6.7 11.3 -7.1
v -6.7 11.3 -7.2
v -6.7 11.3 -8.2
v -6.7 11.3 -8.3
v -6.7 11.7 -7.1
v -6.7 11.7 -7.2
v -6.7 11.7 -8.2
v -6.7 11.7 -8.3
v -6.7 11.8 -7.1
v -6.7 11.8 -7.2
v -6.7 11.8 -7.3
v -6.7 11.8 -8.1
v -6.7 11.8 -8.2
v -6.7 11.8 -8.3
v -6.7 12.1 -7.2
v -6.7 12.1 -7.3
v -6.7 12.1 -8.1
v -6.7 12.1 -8.2
v -6.7 12.2 -7.2
v -6.7 12.2 -7.3
v -6.7 12.2 -7.4
v -6.7 12.2 -8
v -6.7 12.2 -8.1
v -6.7 12.2 -8.2
v -6.7 12.4 -7.3
v -6.7 12.4 -7.4
v -6.7 12.4 -8
v -6.7 12.4 -8.1
v -6.7 12.5 -7.3
v -6.7 12.5 -7.4
v -6.7 12.5 -7.6
v -6.7 12.5 -7.8
v -6.7 12.5 -8
v -6.7 12.5 -8.1
v -6.7 12.7 -7.6
v -6.7 12.7 -7.8
v -6.7 12.8 -7.6
v -6.7 12.8 -7.8
v -6.7 13.2 -7.6
v -6.7 13.2 -7.8
v -6.7 13.3 -7.4
v -6.7 13.3 -7.5
v -6.7 13.3 -7.6
v -6.7 13.3 -7.8
v -6.7 13.3 -7.9
v -6.7 13.3 -8
v -6.7 13.6 -7.4
v -6.7 13.6 -7.5
v -6.7 13.6 -7.6
v -6.7 13.6 -7.8
v -6.7 13.6 -7.9
v -6.7 13.6 -8
v -6.7 13.7 -7.6
v -6.7 13.7 -7.8
v -6.6 12.5 -7.5
v -6.6 12.5 -7.6
v -6.6 12.5 -7.8
v -6.6 12.5 -7.9
v -6.6 12.7 -7.5
v -6.6 12.7 -7.6
v -6.6 12.7 -7.8
v -6.6 12.7 -7.9
v -6.6 12.8 -7.5
v -6.6 12.8 -7.6
v -6.6 12.8 -7.8
v -6.6 12.8 -7.9
v -6.6 13.2 -7.5
v -6.6 13.2 -7.6
v -6.6 13.2 -7.8
v -6.6 13.2 -7.9
v -6.6 13.3 -7.5
v -6.6 13.3 -7.6
v -6.6 13.3 -7.8
v -6.6 13.3 -7.9
v -6.6 13.6 -7.5
v -6.6 13.6 -7.6
v -6.6 13.6 -7.8
v -6.6 13.6 -7.9
v -6.6 13.7 -7.5
v -6.6 13.7 -7.6
v -6.6 13.7 -7.8
v -6.6 13.7 -7.9
v -6.2 9.7 -6.9
v -6.2 9.7 -7
v -6.2 9.7 -8.4
v -6.2 9.7 -8.5
v -6.2 10.6 -6.9
v -6.2 10.6 -7
v -6.2 10.6 -8.4
v -6.2 10.6 -8.5
v -6.8 9.7 -6.9
v -6.8 9.7 -7
v -6.8 9.7 -8.4
v -6.8 9.7 -8.5
v -6.8 10.6 -6.9
v -6.8 10.6 -7
v -6.8 10.6 -8.4
v -6.8 10.6 -8.5
v -6.4 12.5 -7.5
v -6.4 12.5 -7.6
v -6.4 12.5 -7.8
v -6.4 12.5 -7.9
v -6.4 12.7 -7.5
v -6.4 12.7 -7.6
v -6.4 12.7 -7.8
v -6.4 12.7 -7.9
v -6.4 12.8 -7.5
v -6.4 12.8 -7.6
v -6.4 12.8 -7.8
v -6.4 12.8 -7.9
v -6.4 13.2 -7.5
v -6.4 13.2 -7.6
v -6.4 13.2 -7.8
v -6.4 13.2 -7.9
v -6.4 13.3 -7.5
v -6.4 13.3 -7.6
v -6.4 13.3 -7.8
v -6.4 13.3 -7.9
v -6.4 13.6 -7.5
v -6.4 13.6 -7.6
v -6.4 13.6 -7.8
v -6.4 13.6 -7.9
v -6.4 13.7 -7.5
v -6.4 13.7 -7.6
v -6.4 13.7 -7.8
v -6.4 13.7 -7.9
v -6.3 11.3 -7.1
v -6.3 11.3 -7.2
v -6.3 11.3 -8.2
v -6.3 11.3 -8.3
v -6.3 11.7 -7.1
v -6.3 11.7 -7.2
v -6.3 11.7 -8.2
v -6.3 11.7 -8.3
v -6.3 11.8 -7.1
v -6.3 11.8 -7.2
v -6.3 11.8 -7.3
v -6.3 11.8 -8.1
v -6.3 11.8 -8.2
v -6.3 11.8 -8.3
v -6.3 12.1 -7.2
v -6.3 12.1 -7.3
v -6.3 12.1 -8.1
v -6.3 12.1 -8.2
v -6.3 12.2 -7.2
v -6.3 12.2 -7.3
v -6.3 12.2 -7.4
v -6.3 12.2 -8
v -6.3 12.2 -8.1
v -6.3 12.2 -8.2
v -6.3 12.4 -7.3
v -6.3 12.4 -7.4
v -6.3 12.4 -8
v -6.3 12.4 -8.1
v -6.3 12.5 -7.3
v -6.3 12.5 -7.4
v -6.3 12.5 -7.6
v -6.3 12.5 -7.8
v -6.3 12.5 -8
v -6.3 12.5 -8.1
v -6.3 12.7 -7.6
v -6.3 12.7 -7.8
v -6.3 12.8 -7.6
v -6.3 12.8 -7.8
v -6.3 13.2 -7.6
v -6.3 13.2 -7.8
v -6.3 13.3 -7.4
v -6.3 13.3 -7.5
v -6.3 13.3 -7.6
v -6.3 13.3 -7.8
v -6.3 13.3 -7.9
v -6.3 13.3 -8
v -6.3 13.6 -7.4
v -6.3 13.6 -7.5
v -6.3 13.6 -7.6
v -6.3 13.6 -7.8
v -6.3 13.6 -7.9
v -6.3 13.6 -8
v -6.3 13.7 -7.6
v -6.3 13.7 -7.8
v -6.2 9.2 -6.9
v -6.2 9.2 -7
v -6.2 9.2 -8.4
v -6.2 9.2 -8.5
v -6.2 9.6 -6.9
v -6.2 9.6 -7
v -6.2 9.6 -8.4
v -6.2 9.6 -8.5
v -6.2 9.7 -6.9
v -6.2 9.7 -7
v -6.2 9.7 -8.4
v -6.2 9.7 -8.5
v -6.2 10.6 -6.9
v -6.2 10.6 -7
v -6.2 10.6 -8.4
v -6.2 10.6 -8.5
v -6.2 10.7 -6.9
v -6.2 10.7 -7
v -6.2 10.7 -8.4
v -6.2 10.7 -8.5
v -6.2 10.8 -6.9
v -6.2 10.8 -7
v -6.2 10.8 -8.4
v -6.2 10.8 -8.5
v -6.2 10.9 -6.9
v -6.2 10.9 -7
v -6.2 10.9 -7.1
v -6.2 10.9 -8.3
v -6.2 10.9 -8.4
v -6.2 10.9 -8.5
v -6.2 11.2 -7
v -6.2 11.2 -7.1
v -6.2 11.2 -8.3
v -6.2 11.2 -8.4
v -6.2 11.3 -7
v -6.2 11.3 -7.1
v -6.2 11.3 -8.3
v -6.2 11.3 -8.4
v -6.2 12.2 -7.4
v -6.2 12.2 -7.5
v -6.2 12.2 -7.9
v -6.2 12.2 -8
v -6.2 12.4 -7.4
v -6.2 12.4 -7.5
v -6.2 12.4 -7.9
v -6.2 12.4 -8
v -6.2 12.5 -7.4
v -6.2 12.5 -7.5
v -6.2 12.5 -7.9
v -6.2 12.5 -8
v -6.2 13.3 -7.5
v -6.2 13.3 -7.9
v -6.2 13.6 -7.5
v -6.2 13.6 -7.9
v -6.1 9.7 -6.9
v -6.1 9.7 -7
v -6.1 9.7 -8.4
v -6.1 9.7 -8.5
v -6.1 10.6 -6.9
v -6.1 10.6 -7
v -6.1 10.6 -8.4
v -6.1 10.6 -8.5
v -6.1 10.9 -7.1
v -6.1 10.9 -7.2
v -6.1 10.9 -8.2
v -6.1 10.9 -8.3
v -6.1 11.2 -7.1
v -6.1 11.2 -7.2
v -6.1 11.2 -8.2
v -6.1 11.2 -8.3
v -6.1 11.3 -7.1
v -6.1 11.3 -7.2
v -6.1 11.3 -7.3
v -6.1 11.3 -8.1
v -6.1 11.3 -8.2
v -6.1 11.3 -8.3
v -6.1 11.7 -7.2
v -6.1 11.7 -7.3
v -6.1 11.7 -8.1
v -6.1 11.7 -8.2
v -6.1 11.8 -7.2
v -6.1 11.8 -7.3
v -6.1 11.8 -7.5
v -6.1 11.8 -7.9
v -6.1 11.8 -8.1
v -6.1 11.8 -8.2
v -6.1 12.1 -7.3
v -6.1 12.1 -7.5
v -6.1 12.1 -7.9
v -6.1 12.1 -8.1
v -6.1 12.2 -7.3
v -6.1 12.2 -7.5
v -6.1 12.2 -7.9
v -6.1 12.2 -8.1
v -6.1 12.4 -7.5
v -6.1 12.4 -7.9
v -6.1 12.5 -7.5
v -6.1 12.5 -7.9
v -6 9.2 -7
v -6 9.2 -7.1
v -6 9.2 -8.3
v -6 9.2 -8.4
v -6 10.8 -7
v -6 10.8 -7.1
v -6 10.8 -8.3
v -6 10.8 -8.4
v -6 10.9 -7
v -6 10.9 -7.1
v -6 10.9 -7.2
v -6 10.9 -7.3
v -6 10.9 -8.1
v -6 10.9 -8.2
v -6 10.9 -8.3
v -6 10.9 -8.4
v -6 11.2 -7.2
v -6 11.2 -7.3
v -6 11.2 -8.1
v -6 11.2 -8.2
v -6 11.3 -7.2
v -6 11.3 -7.3
v -6 11.3 -7.5
v -6 11.3 -7.9
v -6 11.3 -8.1
v -6 11.3 -8.2
v -6 11.7 -7.3
v -6 11.7 -7.5
v -6 11.7 -7.9
v -6 11.7 -8.1
v -6 11.8 -7.3
v -6 11.8 -7.5
v -6 11.8 -7.9
v -6 11.8 -8.1
v -6 12.1 -7.5
v -6 12.1 -7.9
v -6 12.2 -7.5
v -6 12.2 -7.9
v -5.9 9.2 -7.1
v -5.9 9.2 -7.2
v -5.9 9.2 -8.2
v -5.9 9.2 -8.3
v -5.9 10.8 -7.1
v -5.9 10.8 -7.2
v -5.9 10.8 -8.2
v -5.9 10.8 -8.3
v -5.9 10.9 -7.1
v -5.9 10.9 -7.2
v -5.9 10.9 -7.3
v -5.9 10.9 -7.4
v -5.9 10.9 -8
v -5.9 10.9 -8.1
v -5.9 10.9 -8.2
v -5.9 10.9 -8.3
v -5.9 11.2 -7.3
v -5.9 11.2 -7.4
v -5.9 11.2 -8
v -5.9 11.2 -8.1
v -5.9 11.3 -7.3
v -5.9 11.3 -7.4
v -5.9 11.3 -7.5
v -5.9 11.3 -7.9
v -5.9 11.3 -8
v -5.9 11.3 -8.1
v -5.9 11.7 -7.5
v -5.9 11.7 -7.9
v -5.9 11.8 -7.5
v -5.9 11.8 -7.9
v -5.8 9.2 -7.2
v -5.8 9.2 -7.4
v -5.8 9.2 -8
v -5.8 9.2 -8.2
v -5.8 10.8 -7.2
v -5.8 10.8 -7.4
v -5.8 10.8 -8
v -5.8 10.8 -8.2
v -5.8 10.9 -7.2
v -5.8 10.9 -7.4
v -5.8 10.9 -8
v -5.8 10.9 -8.2
v -5.8 11.2 -7.4
v -5.8 11.2 -8
v -5.8 11.3 -7.4
v -5.8 11.3 -8
v -5.7 9.2 -7.4
v -5.7 9.2 -7.5
v -5.7 9.2 -7.9
v -5.7 9.2 -8
v -5.7 10.1 -7.5
v -5.7 10.1 -7.6
v -5.7 10.1 -7.8
v -5.7 10.1 -7.9
v -5.7 10.4 -7.6
v -5.7 10.4 -7.8
v -5.7 10.8 -7.4
v -5.7 10.8 -8
v -5.7 10.9 -7.4
v -5.7 10.9 -8
v -5.6 9.8 -7.5
v -5.6 9.8 -7.6
v -5.6 9.8 -7.8
v -5.6 9.8 -7.9
v -5.6 10.1 -7.5
v -5.6 10.1 -7.6
v -5.6 10.1 -7.8
v -5.6 10.1 -7.9
v -5.6 10.3 -7.6
v -5.6 10.3 -7.8
v -5.6 10.4 -7.6
v -5.6 10.4 -7.8
v -5.5 9.7 -7.5
v -5.5 9.7 -7.6
v -5.5 9.7 -7.8
v -5.5 9.7 -7.9
v -5.5 9.8 -7.5
v -5.5 9.8 -7.6
v -5.5 9.8 -7.8
v -5.5 9.8 -7.9
v -5.5 10.2 -7.6
v -5.5 10.2 -7.8
v -5.5 10.3 -7.6
v -5.5 10.3 -7.8
v -5.4 9.5 -7.5
v -5.4 9.5 -7.6
v -5.4 9.5 -7.8
v -5.4 9.5 -7.9
v -5.4 9.7 -7.5
v -5.4 9.7 -7.6
v -5.4 9.7 -7.8
v -5.4 9.7 -7.9
v -5.4 10 -7.6
v -5.4 10 -7.8
v -5.4 10.2 -7.6
v -5.4 10.2 -7.8
v -5.3 9.4 -7.5
v -5.3 9.4 -7.6
v -5.3 9.4 -7.8
v -5.3 9.4 -7.9
v -5.3 9.5 -7.5
v -5.3 9.5 -7.6
v -5.3 9.5 -7.8
v -5.3 9.5 -7.9
v -5.3 9.7 -7.6
v -5.3 9.7 -7.8
v -5.3 10 -7.6
v -5.3 10 -7.8
v -5.2 9.3 -7.5
v -5.2 9.3 -7.6
v -5.2 9.3 -7.8
v -5.2 9.3 -7.9
v -5.2 9.4 -7.5
v -5.2 9.4 -7.6
v -5.2 9.4 -7.8
v -5.2 9.4 -7.9
v -5.1 9.2 -7.5
v -5.1 9.2 -7.6
v -5.1 9.2 -7.8
v -5.1 9.2 -7.9
v -5.1 9.3 -7.5
v -5.1 9.3 -7.6
v -5.1 9.3 -7.8
v -5.1 9.3 -7.9
v -5.1 9.5 -7.6
v -5.1 9.5 -7.8
v -5.1 9.7 -7.6
v -5.1 9.7 -7.8
v -5 9.3 -7.6
v -5 9.3 -7.8
v -5 9.5 -7.6
v -5 9.5 -7.8
v -4.9 9.2 -7.6
v -4.9 9.2 -7.8
v -4.9 9.3 -7.6
v -4.9 9.3 -7.8
v -6.9 9.7 -6.9
v -6.9 10.6 -6.9
v -6.8 9.2 -6.9
v -6.8 9.6 -6.9
v -6.8 9.7 -6.9
v -6.8 10.6 -6.9
v -6.8 10.7 -6.9
v -6.8 10.8 -6.9
v -6.8 10.9 -6.9
v -6.2 9.2 -6.9
v -6.2 9.6 -6.9
v -6.2 9.7 -6.9
v -6.2 10.6 -6.9
v -6.2 10.7 -6.9
v -6.2 10.8 -6.9
v -6.2 10.9 -6.9
v -6.1 9.7 -6.9
v -6.1 10.6 -6.9
v -7 9.2 -7
v -7 10.8 -7
v -7 10.9 -7
v -6.9 9.7 -7
v -6.9 10.6 -7
v -6.8 9.2 -7
v -6.8 9.6 -7
v -6.8 9.7 -7
v -6.8 10.6 -7
v -6.8 10.7 -7
v -6.8 10.8 -7
v -6.8 10.9 -7
v -6.8 11.2 -7
v -6.8 11.3 -7
v -6.7 9.8 -7
v -6.7 10.5 -7
v -6.6 9.9 -7
v -6.6 10.4 -7
v -6.4 9.9 -7
v -6.4 10.4 -7
v -6.3 9.8 -7
v -6.3 10.5 -7
v -6.2 9.2 -7
v -6.2 9.6 -7
v -6.2 9.7 -7
v -6.2 10.6 -7
v -6.2 10.7 -7
v -6.2 10.8 -7
v -6.2 10.9 -7
v -6.2 11.2 -7
v -6.2 11.3 -7
v -6.1 9.7 -7
v -6.1 10.6 -7
v -6 9.2 -7
v -6 10.8 -7
v -6 10.9 -7
v -7.1 9.2 -7.1
v -7.1 10.8 -7.1
v -7.1 10.9 -7.1
v -7 9.2 -7.1
v -7 10.8 -7.1
v -7 10.9 -7.1
v -6.9 10.9 -7.1
v -6.9 11.2 -7.1
v -6.9 11.3 -7.1
v -6.8 10.9 -7.1
v -6.8 11.2 -7.1
v -6.8 11.3 -7.1
v -6.7 11.3 -7.1
v -6.7 11.7 -7.1
v -6.7 11.8 -7.1
v -6.3 11.3 -7.1
v -6.3 11.7 -7.1
v -6.3 11.8 -7.1
v -6.2 10.9 -7.1
v -6.2 11.2 -7.1
v -6.2 11.3 -7.1
v -6.1 10.9 -7.1
v -6.1 11.2 -7.1
v -6.1 11.3 -7.1
v -6 9.2 -7.1
v -6 10.8 -7.1
v -6 10.9 -7.1
v -5.9 9.2 -7.1
v -5.9 10.8 -7.1
v -5.9 10.9 -7.1
v -7.2 9.2 -7.2
v -7.2 10.8 -7.2
v -7.2 10.9 -7.2
v -7.1 9.2 -7.2
v -7.1 10.8 -7.2
v -7.1 10.9 -7.2
v -7 10.9 -7.2
v -7 11.2 -7.2
v -7 11.3 -7.2
v -6.9 10.9 -7.2
v -6.9 11.2 -7.2
v -6.9 11.3 -7.2
v -6.9 11.7 -7.2
v -6.9 11.8 -7.2
v -6.7 11.3 -7.2
v -6.7 11.7 -7.2
v -6.7 11.8 -7.2
v -6.7 12.1 -7.2
v -6.7 12.2 -7.2
v -6.3 11.3 -7.2
v -6.3 11.7 -7.2
v -6.3 11.8 -7.2
v -6.3 12.1 -7.2
v -6.3 12.2 -7.2
v -6.1 10.9 -7.2
v -6.1 11.2 -7.2
v -6.1 11.3 -7.2
v -6.1 11.7 -7.2
v -6.1 11.8 -7.2
v -6 10.9 -7.2
v -6 11.2 -7.2
v -6 11.3 -7.2
v -5.9 9.2 -7.2
v -5.9 10.8 -7.2
v -5.9 10.9 -7.2
v -5.8 9.2 -7.2
v -5.8 10.8 -7.2
v -5.8 10.9 -7.2
v -7.1 10.9 -7.3
v -7.1 11.2 -7.3
v -7.1 11.3 -7.3
v -7 10.9 -7.3
v -7 11.2 -7.3
v -7 11.3 -7.3
v -7 11.7 -7.3
v -7 11.8 -7.3
v -6.9 11.3 -7.3
v -6.9 11.7 -7.3
v -6.9 11.8 -7.3
v -6.9 12.1 -7.3
v -6.9 12.2 -7.3
v -6.7 11.8 -7.3
v -6.7 12.1 -7.3
v -6.7 12.2 -7.3
v -6.7 12.4 -7.3
v -6.7 12.5 -7.3
v -6.3 11.8 -7.3
v -6.3 12.1 -7.3
v -6.3 12.2 -7.3
v -6.3 12.4 -7.3
v -6.3 12.5 -7.3
v -6.1 11.3 -7.3
v -6.1 11.7 -7.3
v -6.1 11.8 -7.3
v -6.1 12.1 -7.3
v -6.1 12.2 -7.3
v -6 10.9 -7.3
v -6 11.2 -7.3
v -6 11.3 -7.3
v -6 11.7 -7.3
v -6 11.8 -7.3
v -5.9 10.9 -7.3
v -5.9 11.2 -7.3
v -5.9 11.3 -7.3
v -7.3 9.2 -7.4
v -7.3 10.8 -7.4
v -7.3 10.9 -7.4
v -7.2 9.2 -7.4
v -7.2 10.8 -7.4
v -7.2 10.9 -7.4
v -7.2 11.2 -7.4
v -7.2 11.3 -7.4
v -7.1 10.9 -7.4
v -7.1 11.2 -7.4
v -7.1 11.3 -7.4
v -6.8 12.2 -7.4
v -6.8 12.4 -7.4
v -6.8 12.5 -7.4
v -6.7 12.2 -7.4
v -6.7 12.4 -7.4
v -6.7 12.5 -7.4
v -6.7 13.3 -7.4
v -6.7 13.6 -7.4
v -6.3 12.2 -7.4
v -6.3 12.4 -7.4
v -6.3 12.5 -7.4
v -6.3 13.3 -7.4
v -6.3 13.6 -7.4
v -6.2 12.2 -7.4
v -6.2 12.4 -7.4
v -6.2 12.5 -7.4
v -5.9 10.9 -7.4
v -5.9 11.2 -7.4
v -5.9 11.3 -7.4
v -5.8 9.2 -7.4
v -5.8 10.8 -7.4
v -5.8 10.9 -7.4
v -5.8 11.2 -7.4
v -5.8 11.3 -7.4
v -5.7 9.2 -7.4
v -5.7 10.8 -7.4
v -5.7 10.9 -7.4
v -7.9 9.2 -7.5
v -7.9 9.3 -7.5
v -7.8 9.3 -7.5
v -7.8 9.4 -7.5
v -7.7 9.4 -7.5
v -7.7 9.5 -7.5
v -7.6 9.5 -7.5
v -7.6 9.7 -7.5
v -7.5 9.7 -7.5
v -7.5 9.8 -7.5
v -7.4 9.8 -7.5
v -7.4 10.1 -7.5
v -7.3 9.2 -7.5
v -7.3 10.1 -7.5
v -7.1 11.3 -7.5
v -7.1 11.7 -7.5
v -7.1 11.8 -7.5
v -7 11.3 -7.5
v -7 11.7 -7.5
v -7 11.8 -7.5
v -7 12.1 -7.5
v -7 12.2 -7.5
v -6.9 11.8 -7.5
v -6.9 12.1 -7.5
v -6.9 12.2 -7.5
v -6.9 12.4 -7.5
v -6.9 12.5 -7.5
v -6.8 12.2 -7.5
v -6.8 12.4 -7.5
v -6.8 12.5 -7.5
v -6.8 13.3 -7.5
v -6.8 13.6 -7.5
v -6.7 13.3 -7.5
v -6.7 13.6 -7.5
v -6.6 12.5 -7.5
v -6.6 12.7 -7.5
v -6.6 12.8 -7.5
v -6.6 13.2 -7.5
v -6.6 13.3 -7.5
v -6.6 13.6 -7.5
v -6.6 13.7 -7.5
v -6.4 12.5 -7.5
v -6.4 12.7 -7.5
v -6.4 12.8 -7.5
v -6.4 13.2 -7.5
v -6.4 13.3 -7.5
v -6.4 13.6 -7.5
v -6.4 13.7 -7.5
v -6.3 13.3 -7.5
v -6.3 13.6 -7.5
v -6.2 12.2 -7.5
v -6.2 12.4 -7.5
v -6.2 12.5 -7.5
v -6.2 13.3 -7.5
v -6.2 13.6 -7.5
v -6.1 11.8 -7.5
v -6.1 12.1 -7.5
v -6.1 12.2 -7.5
v -6.1 12.4 -7.5
v -6.1 12.5 -7.5
v -6 11.3 -7.5
v -6 11.7 -7.5
v -6 11.8 -7.5
v -6 12.1 -7.5
v -6 12.2 -7.5
v -5.9 11.3 -7.5
v -5.9 11.7 -7.5
v -5.9 11.8 -7.5
v -5.7 9.2 -7.5
v -5.7 10.1 -7.5
v -5.6 9.8 -7.5
v -5.6 10.1 -7.5
v -5.5 9.7 -7.5
v -5.5 9.8 -7.5
v -5.4 9.5 -7.5
v -5.4 9.7 -7.5
v -5.3 9.4 -7.5
v -5.3 9.5 -7.5
v -5.2 9.3 -7.5
v -5.2 9.4 -7.5
v -5.1 9.2 -7.5
v -5.1 9.3 -7.5
v -8 9.2 -7.6
v -8 9.5 -7.6
v -7.9 9.2 -7.6
v -7.9 9.3 -7.6
v -7.9 9.5 -7.6
v -7.9 9.7 -7.6
v -7.8 9.3 -7.6
v -7.8 9.4 -7.6
v -7.7 9.4 -7.6
v -7.7 9.5 -7.6
v -7.7 9.7 -7.6
v -7.7 10 -7.6
v -7.6 9.5 -7.6
v -7.6 9.7 -7.6
v -7.6 10 -7.6
v -7.6 10.2 -7.6
v -7.5 9.7 -7.6
v -7.5 9.8 -7.6
v -7.5 10.2 -7.6
v -7.5 10.3 -7.6
v -7.4 9.8 -7.6
v -7.4 10.1 -7.6
v -7.4 10.3 -7.6
v -7.4 10.4 -7.6
v -7.3 10.1 -7.6
v -7.3 10.4 -7.6
v -6.7 12.5 -7.6
v -6.7 12.7 -7.6
v -6.7 12.8 -7.6
v -6.7 13.2 -7.6
v -6.7 13.3 -7.6
v -6.7 13.6 -7.6
v -6.7 13.7 -7.6
v -6.6 12.5 -7.6
v -6.6 12.7 -7.6
v -6.6 12.8 -7.6
v -6.6 13.2 -7.6
v -6.6 13.3 -7.6
v -6.6 13.6 -7.6
v -6.6 13.7 -7.6
v -6.4 12.5 -7.6
v -6.4 12.7 -7.6
v -6.4 12.8 -7.6
v -6.4 13.2 -7.6
v -6.4 13.3 -7.6
v -6.4 13.6 -7.6
v -6.4 13.7 -7.6
v -6.3 12.5 -7.6
v -6.3 12.7 -7.6
v -6.3 12.8 -7.6
v -6.3 13.2 -7.6
v -6.3 13.3 -7.6
v -6.3 13.6 -7.6
v -6.3 13.7 -7.6
v -5.7 10.1 -7.6
v -5.7 10.4 -7.6
v -5.6 9.8 -7.6
v -5.6 10.1 -7.6
v -5.6 10.3 -7.6
v -5.6 10.4 -7.6
v -5.5 9.7 -7.6
v -5.5 9.8 -7.6
v -5.5 10.2 -7.6
v -5.5 10.3 -7.6
v -5.4 9.5 -7.6
v -5.4 9.7 -7.6
v -5.4 10 -7.6
v -5.4 10.2 -7.6
v -5.3 9.4 -7.6
v -5.3 9.5 -7.6
v -5.3 9.7 -7.6
v -5.3 10 -7.6
v -5.2 9.3 -7.6
v -5.2 9.4 -7.6
v -5.1 9.2 -7.6
v -5.1 9.3 -7.6
v -5.1 9.5 -7.6
v -5.1 9.7 -7.6
v -5 9.3 -7.6
v -5 9.5 -7.6
v -4.9 9.2 -7.6
v -4.9 9.3 -7.6
v -8 9.2 -7.8
v -8 9.5 -7.8
v -7.9 9.2 -7.8
v -7.9 9.3 -7.8
v -7.9 9.5 -7.8
v -7.9 9.7 -7.8
v -7.8 9.3 -7.8
v -7.8 9.4 -7.8
v -7.7 9.4 -7.8
v -7.7 9.5 -7.8
v -7.7 9.7 -7.8
v -7.7 10 -7.8
v -7.6 9.5 -7.8
v -7.6 9.7 -7.8
v -7.6 10 -7.8
v -7.6 10.2 -7.8
v -7.5 9.7 -7.8
v -7.5 9.8 -7.8
v -7.5 10.2 -7.8
v -7.5 10.3 -7.8
v -7.4 9.8 -7.8
v -7.4 10.1 -7.8
v -7.4 10.3 -7.8
v -7.4 10.4 -7.8
v -7.3 10.1 -7.8
v -7.3 10.4 -7.8
v -6.7 12.5 -7.8
v -6.7 12.7 -7.8
v -6.7 12.8 -7.8
v -6.7 13.2 -7.8
v -6.7 13.3 -7.8
v -6.7 13.6 -7.8
v -6.7 13.7 -7.8
v -6.6 12.5 -7.8
v -6.6 12.7 -7.8
v -6.6 12.8 -7.8
v -6.6 13.2 -7.8
v -6.6 13.3 -7.8
v -6.6 13.6 -7.8
v -6.6 13.7 -7.8
v -6.4 12.5 -7.8
v -6.4 12.7 -7.8
v -6.4 12.8 -7.8
v -6.4 13.2 -7.8
v -6.4 13.3 -7.8
v -6.4 13.6 -7.8
v -6.4 13.7 -7.8
v -6.3 12.5 -7.8
v -6.3 12.7 -7.8
v -6.3 12.8 -7.8
v -6.3 13.2 -7.8
v -6.3 13.3 -7.8
v -6.3 13.6 -7.8
v -6.3 13.7 -7.8
v -5.7 10.1 -7.8
v -5.7 10.4 -7.8
v -5.6 9.8 -7.8
v -5.6 10.1 -7.8
v -5.6 10.3 -7.8
v -5.6 10.4 -7.8
v -5.5 9.7 -7.8
v -5.5 9.8 -7.8
v -5.5 10.2 -7.8
v -5.5 10.3 -7.8
v -5.4 9.5 -7.8
v -5.4 9.7 -7.8
v -5.4 10 -7.8
v -5.4 10.2 -7.8
v -5.3 9.4 -7.8
v -5.3 9.5 -7.8
v -5.3 9.7 -7.8
v -5.3 10 -7.8
v -5.2 9.3 -7.8
v -5.2 9.4 -7.8
v -5.1 9.2 -7.8
v -5.1 9.3 -7.8
v -5.1 9.5 -7.8
v -5.1 9.7 -7.8
v -5 9.3 -7.8
v -5 9.5 -7.8
v -4.9 9.2 -7.8
v -4.9 9.3 -7.8
v -7.9 9.2 -7.9
v -7.9 9.3 -7.9
v -7.8 9.3 -7.9
v -7.8 9.4 -7.9
v -7.7 9.4 -7.9
v -7.7 9.5 -7.9
v -7.6 9.5 -7.9
v -7.6 9.7 -7.9
v -7.5 9.7 -7.9
v -7.5 9.8 -7.9
v -7.4 9.8 -7.9
v -7.4 10.1 -7.9
v -7.3 9.2 -7.9
v -7.3 10.1 -7.9
v -7.1 11.3 -7.9
v -7.1 11.7 -7.9
v -7.1 11.8 -7.9
v -7 11.3 -7.9
v -7 11.7 -7.9
v -7 11.8 -7.9
v -7 12.1 -7.9
v -7 12.2 -7.9
v -6.9 11.8 -7.9
v -6.9 12.1 -7.9
v -6.9 12.2 -7.9
v -6.9 12.4 -7.9
v -6.9 12.5 -7.9
v -6.8 12.2 -7.9
v -6.8 12.4 -7.9
v -6.8 12.5 -7.9
v -6.8 13.3 -7.9
v -6.8 13.6 -7.9
v -6.7 13.3 -7.9
v -6.7 13.6 -7.9
v -6.6 12.5 -7.9
v -6.6 12.7 -7.9
v -6.6 12.8 -7.9
v -6.6 13.2 -7.9
v -6.6 13.3 -7.9
v -6.6 13.6 -7.9
v -6.6 13.7 -7.9
v -6.4 12.5 -7.9
v -6.4 12.7 -7.9
v -6.4 12.8 -7.9
v -6.4 13.2 -7.9
v -6.4 13.3 -7.9
v -6.4 13.6 -7.9
v -6.4 13.7 -7.9
v -6.3 13.3 -7.9
v -6.3 13.6 -7.9
v -6.2 12.2 -7.9
v -6.2 12.4 -7.9
v -6.2 12.5 -7.9
v -6.2 13.3 -7.9
v -6.2 13.6 -7.9
v -6.1 11.8 -7.9
v -6.1 12.1 -7.9
v -6.1 12.2 -7.9
v -6.1 12.4 -7.9
v -6.1 12.5 -7.9
v -6 11.3 -7.9
v -6 11.7 -7.9
v -6 11.8 -7.9
v -6 12.1 -7.9
v -6 12.2 -7.9
v -5.9 11.3 -7.9
v -5.9 11.7 -7.9
v -5.9 11.8 -7.9
v -5.7 9.2 -7.9
v -5.7 10.1 -7.9
v -5.6 9.8 -7.9
v -5.6 10.1 -7.9
v -5.5 9.7 -7.9
v -5.5 9.8 -7.9
v -5.4 9.5 -7.9
v -5.4 9.7 -7.9
v -5.3 9.4 -7.9
v -5.3 9.5 -7.9
v -5.2 9.3 -7.9
v -5.2 9.4 -7.9
v -5.1 9.2 -7.9
v -5.1 9.3 -7.9
v -7.3 9.2 -8
v -7.3 10.8 -8
v -7.3 10.9 -8
v -7.2 9.2 -8
v -7.2 10.8 -8
v -7.2 10.9 -8
v -7.2 11.2 -8
v -7.2 11.3 -8
v -7.1 10.9 -8
v -7.1 11.2 -8
v -7.1 11.3 -8
v -6.8 12.2 -8
v -6.8 12.4 -8
v -6.8 12.5 -8
v -6.7 12.2 -8
v -6.7 12.4 -8
v -6.7 12.5 -8
v -6.7 13.3 -8
v -6.7 13.6 -8
v -6.3 12.2 -8
v -6.3 12.4 -8
v -6.3 12.5 -8
v -6.3 13.3 -8
v -6.3 13.6 -8
v -6.2 12.2 -8
v -6.2 12.4 -8
v -6.2 12.5 -8
v -5.9 10.9 -8
v -5.9 11.2 -8
v -5.9 11.3 -8
v -5.8 9.2 -8
v -5.8 10.8 -8
v -5.8 10.9 -8
v -5.8 11.2 -8
v -5.8 11.3 -8
v -5.7 9.2 -8
v -5.7 10.8 -8
v -5.7 10.9 -8
v -7.1 10.9 -8.1
v -7.1 11.2 -8.1
v -7.1 11.3 -8.1
v -7 10.9 -8.1
v -7 11.2 -8.1
v -7 11.3 -8.1
v -7 11.7 -8.1
v -7 11.8 -8.1
v -6.9 11.3 -8.1
v -6.9 11.7 -8.1
v -6.9 11.8 -8.1
v -6.9 12.1 -8.1
v -6.9 12.2 -8.1
v -6.7 11.8 -8.1
v -6.7 12.1 -8.1
v -6.7 12.2 -8.1
v -6.7 12.4 -8.1
v -6.7 12.5 -8.1
v -6.3 11.8 -8.1
v -6.3 12.1 -8.1
v -6.3 12.2 -8.1
v -6.3 12.4 -8.1
v -6.3 12.5 -8.1
v -6.1 11.3 -8.1
v -6.1 11.7 -8.1
v -6.1 11.8 -8.1
v -6.1 12.1 -8.1
v -6.1 12.2 -8.1
v -6 10.9 -8.1
v -6 11.2 -8.1
v -6 11.3 -8.1
v -6 11.7 -8.1
v -6 11.8 -8.1
v -5.9 10.9 -8.1
v -5.9 11.2 -8.1
v -5.9 11.3 -8.1
v -7.2 9.2 -8.2
v -7.2 10.8 -8.2
v -7.2 10.9 -8.2
v -7.1 9.2 -8.2
v -7.1 10.8 -8.2
v -7.1 10.9 -8.2
v -7 10.9 -8.2
v -7 11.2 -8.2
v -7 11.3 -8.2
v -6.9 10.9 -8.2
v -6.9 11.2 -8.2
v -6.9 11.3 -8.2
v -6.9 11.7 -8.2
v -6.9 11.8 -8.2
v -6.7 11.3 -8.2
v -6.7 11.7 -8.2
v -6.7 11.8 -8.2
v -6.7 12.1 -8.2
v -6.7 12.2 -8.2
v -6.3 11.3 -8.2
v -6.3 11.7 -8.2
v -6.3 11.8 -8.2
v -6.3 12.1 -8.2
v -6.3 12.2 -8.2
v -6.1 10.9 -8.2
v -6.1 11.2 -8.2
v -6.1 11.3 -8.2
v -6.1 11.7 -8.2
v -6.1 11.8 -8.2
v -6 10.9 -8.2
v -6 11.2 -8.2
v -6 11.3 -8.2
v -5.9 9.2 -8.2
v -5.9 10.8 -8.2
v -5.9 10.9 -8.2
v -5.8 9.2 -8.2
v -5.8 10.8 -8.2
v -5.8 10.9 -8.2
v -7.1 9.2 -8.3
v -7.1 10.8 -8.3
v -7.1 10.9 -8.3
v -7 9.2 -8.3
v -7 10.8 -8.3
v -7 10.9 -8.3
v -6.9 10.9 -8.3
v -6.9 11.2 -8.3
v -6.9 11.3 -8.3
v -6.8 10.9 -8.3
v -6.8 11.2 -8.3
v -6.8 11.3 -8.3
v -6.7 11.3 -8.3
v -6.7 11.7 -8.3
v -6.7 11.8 -8.3
v -6.3 11.3 -8.3
v -6.3 11.7 -8.3
v -6.3 11.8 -8.3
v -6.2 10.9 -8.3
v -6.2 11.2 -8.3
v -6.2 11.3 -8.3
v -6.1 10.9 -8.3
v -6.1 11.2 -8.3
v -6.1 11.3 -8.3
v -6 9.2 -8.3
v -6 10.8 -8.3
v -6 10.9 -8.3
v -5.9 9.2 -8.3
v -5.9 10.8 -8.3
v -5.9 10.9 -8.3
v -7 9.2 -8.4
v -7 10.8 -8.4
v -7 10.9 -8.4
v -6.9 9.7 -8.4
v -6.9 10.6 -8.4
v -6.8 9.2 -8.4
v -6.8 9.6 -8.4
v -6.8 9.7 -8.4
v -6.8 10.6 -8.4
v -6.8 10.7 -8.4
v -6.8 10.8 -8.4
v -6.8 10.9 -8.4
v -6.8 11.2 -8.4
v -6.8 11.3 -8.4
v -6.7 9.8 -8.4
v -6.7 10.5 -8.4
v -6.6 9.9 -8.4
v -6.6 10.4 -8.4
v -6.4 9.9 -8.4
v -6.4 10.4 -8.4
v -6.3 9.8 -8.4
v -6.3 10.5 -8.4
v -6.2 9.2 -8.4
v -6.2 9.6 -8.4
v -6.2 9.7 -8.4
v -6.2 10.6 -8.4
v -6.2 10.7 -8.4
v -6.2 10.8 -8.4
v -6.2 10.9 -8.4
v -6.2 11.2 -8.4
v -6.2 11.3 -8.4
v -6.1 9.7 -8.4
v -6.1 10.6 -8.4
v -6 9.2 -8.4
v -6 10.8 -8.4
v -6 10.9 -8.4
v -6.9 9.7 -8.5
v -6.9 10.6 -8.5
v -6.8 9.2 -8.5
v -6.8 9.6 -8.5
v -6.8 9.7 -8.5
v -6.8 10.6 -8.5
v -6.8 10.7 -8.5
v -6.8 10.8 -8.5
v -6.8 10.9 -8.5
v -6.2 9.2 -8.5
v -6.2 9.6 -8.5
v -6.2 9.7 -8.5
v -6.2 10.6 -8.5
v -6.2 10.7 -8.5
v -6.2 10.8 -8.5
v -6.2 10.9 -8.5
v -6.1 9.7 -8.5
v -6.1 10.6 -8.5
v -6.8 9.2 -6.9
v -6.2 9.2 -6.9
v -7 9.2 -7
v -6.8 9.2 -7
v -6.2 9.2 -7
v -6 9.2 -7
v -7.1 9.2 -7.1
v -7 9.2 -7.1
v -6 9.2 -7.1
v -5.9 9.2 -7.1
v -7.2 9.2 -7.2
v -7.1 9.2 -7.2
v -5.9 9.2 -7.2
v -5.8 9.2 -7.2
v -7.3 9.2 -7.4
v -7.2 9.2 -7.4
v -5.8 9.2 -7.4
v -5.7 9.2 -7.4
v -7.9 9.2 -7.5
v -7.3 9.2 -7.5
v -5.7 9.2 -7.5
v -5.1 9.2 -7.5
v -8 9.2 -7.6
v -7.9 9.2 -7.6
v -5.1 9.2 -7.6
v -4.9 9.2 -7.6
v -8 9.2 -7.8
v -7.9 9.2 -7.8
v -5.1 9.2 -7.8
v -4.9 9.2 -7.8
v -7.9 9.2 -7.9
v -7.3 9.2 -7.9
v -5.7 9.2 -7.9
v -5.1 9.2 -7.9
v -7.3 9.2 -8
v -7.2 9.2 -8
v -5.8 9.2 -8
v -5.7 9.2 -8
v -7.2 9.2 -8.2
v -7.1 9.2 -8.2
v -5.9 9.2 -8.2
v -5.8 9.2 -8.2
v -7.1 9.2 -8.3
v -7 9.2 -8.3
v -6 9.2 -8.3
v -5.9 9.2 -8.3
v -7 9.2 -8.4
v -6.8 9.2 -8.4
v -6.2 9.2 -8.4
v -6 9.2 -8.4
v -6.8 9.2 -8.5
v -6.2 9.2 -8.5
v -6.9 9.7 -6.9
v -6.8 9.7 -6.9
v -6.2 9.7 -6.9
v -6.1 9.7 -6.9
v -6.9 9.7 -7
v -6.8 9.7 -7
v -6.2 9.7 -7
v -6.1 9.7 -7
v -6.9 9.7 -8.4
v -6.8 9.7 -8.4
v -6.2 9.7 -8.4
v -6.1 9.7 -8.4
v -6.9 9.7 -8.5
v -6.8 9.7 -8.5
v -6.2 9.7 -8.5
v -6.1 9.7 -8.5
v -6.8 10.6 -6.9
v -6.2 10.6 -6.9
v -6.8 10.6 -7
v -6.2 10.6 -7
v -6.8 10.6 -8.4
v -6.2 10.6 -8.4
v -6.8 10.6 -8.5
v -6.2 10.6 -8.5
v -6.6 13.2 -7.5
v -6.4 13.2 -7.5
v -6.7 13.2 -7.6
v -6.6 13.2 -7.6
v -6.4 13.2 -7.6
v -6.3 13.2 -7.6
v -6.7 13.2 -7.8
v -6.6 13.2 -7.8
v -6.4 13.2 -7.8
v -6.3 13.2 -7.8
v -6.6 13.2 -7.9
v -6.4 13.2 -7.9
v -6.7 13.3 -7.4
v -6.3 13.3 -7.4
v -6.8 13.3 -7.5
v -6.7 13.3 -7.5
v -6.6 13.3 -7.5
v -6.4 13.3 -7.5
v -6.3 13.3 -7.5
v -6.2 13.3 -7.5
v -6.7 13.3 -7.6
v -6.6 13.3 -7.6
v -6.4 13.3 -7.6
v -6.3 13.3 -7.6
v -6.7 13.3 -7.8
v -6.6 13.3 -7.8
v -6.4 13.3 -7.8
v -6.3 13.3 -7.8
v -6.8 13.3 -7.9
v -6.7 13.3 -7.9
v -6.6 13.3 -7.9
v -6.4 13.3 -7.9
v -6.3 13.3 -7.9
v -6.2 13.3 -7.9
v -6.7 13.3 -8
v -6.3 13.3 -8
v -7.9 9.3 -7.5
v -7.8 9.3 -7.5
v -5.2 9.3 -7.5
v -5.1 9.3 -7.5
v -7.9 9.3 -7.6
v -7.8 9.3 -7.6
v -5.2 9.3 -7.6
v -5.1 9.3 -7.6
v -5 9.3 -7.6
v -4.9 9.3 -7.6
v -7.9 9.3 -7.8
v -7.8 9.3 -7.8
v -5.2 9.3 -7.8
v -5.1 9.3 -7.8
v -5 9.3 -7.8
v -4.9 9.3 -7.8
v -7.9 9.3 -7.9
v -7.8 9.3 -7.9
v -5.2 9.3 -7.9
v -5.1 9.3 -7.9
v -7.8 9.4 -7.5
v -7.7 9.4 -7.5
v -5.3 9.4 -7.5
v -5.2 9.4 -7.5
v -7.8 9.4 -7.6
v -7.7 9.4 -7.6
v -5.3 9.4 -7.6
v -5.2 9.4 -7.6
v -7.8 9.4 -7.8
v -7.7 9.4 -7.8
v -5.3 9.4 -7.8
v -5.2 9.4 -7.8
v -7.8 9.4 -7.9
v -7.7 9.4 -7.9
v -5.3 9.4 -7.9
v -5.2 9.4 -7.9
v -7.7 9.5 -7.5
v -7.6 9.5 -7.5
v -5.4 9.5 -7.5
v -5.3 9.5 -7.5
v -8 9.5 -7.6
v -7.9 9.5 -7.6
v -7.7 9.5 -7.6
v -7.6 9.5 -7.6
v -5.4 9.5 -7.6
v -5.3 9.5 -7.6
v -5.1 9.5 -7.6
v -5 9.5 -7.6
v -8 9.5 -7.8
v -7.9 9.5 -7.8
v -7.7 9.5 -7.8
v -7.6 9.5 -7.8
v -5.4 9.5 -7.8
v -5.3 9.5 -7.8
v -5.1 9.5 -7.8
v -5 9.5 -7.8
v -7.7 9.5 -7.9
v -7.6 9.5 -7.9
v -5.4 9.5 -7.9
v -5.3 9.5 -7.9
v -6.8 9.7 -6.9
v -6.2 9.7 -6.9
v -6.8 9.7 -7
v -6.2 9.7 -7
v -7.6 9.7 -7.5
v -7.5 9.7 -7.5
v -5.5 9.7 -7.5
v -5.4 9.7 -7.5
v -7.9 9.7 -7.6
v -7.7 9.7 -7.6
v -7.6 9.7 -7.6
v -7.5 9.7 -7.6
v -5.5 9.7 -7.6
v -5.4 9.7 -7.6
v -5.3 9.7 -7.6
v -5.1 9.7 -7.6
v -7.9 9.7 -7.8
v -7.7 9.7 -7.8
v -7.6 9.7 -7.8
v -7.5 9.7 -7.8
v -5.5 9.7 -7.8
v -5.4 9.7 -7.8
v -5.3 9.7 -7.8
v -5.1 9.7 -7.8
v -7.6 9.7 -7.9
v -7.5 9.7 -7.9
v -5.5 9.7 -7.9
v -5.4 9.7 -7.9
v -6.8 9.7 -8.4
v -6.2 9.7 -8.4
v -6.8 9.7 -8.5
v -6.2 9.7 -8.5
v -7.5 9.8 -7.5
v -7.4 9.8 -7.5
v -5.6 9.8 -7.5
v -5.5 9.8 -7.5
v -7.5 9.8 -7.6
v -7.4 9.8 -7.6
v -5.6 9.8 -7.6
v -5.5 9.8 -7.6
v -7.5 9.8 -7.8
v -7.4 9.8 -7.8
v -5.6 9.8 -7.8
v -5.5 9.8 -7.8
v -7.5 9.8 -7.9
v -7.4 9.8 -7.9
v -5.6 9.8 -7.9
v -5.5 9.8 -7.9
v -7.7 10 -7.6
v -7.6 10 -7.6
v -5.4 10 -7.6
v -5.3 10 -7.6
v -7.7 10 -7.8
v -7.6 10 -7.8
v -5.4 10 -7.8
v -5.3 10 -7.8
v -7.4 10.1 -7.5
v -7.3 10.1 -7.5
v -5.7 10.1 -7.5
v -5.6 10.1 -7.5
v -7.4 10.1 -7.6
v -7.3 10.1 -7.6
v -5.7 10.1 -7.6
v -5.6 10.1 -7.6
v -7.4 10.1 -7.8
v -7.3 10.1 -7.8
v -5.7 10.1 -7.8
v -5.6 10.1 -7.8
v -7.4 10.1 -7.9
v -7.3 10.1 -7.9
v -5.7 10.1 -7.9
v -5.6 10.1 -7.9
v -7.6 10.2 -7.6
v -7.5 10.2 -7.6
v -5.5 10.2 -7.6
v -5.4 10.2 -7.6
v -7.6 10.2 -7.8
v -7.5 10.2 -7.8
v -5.5 10.2 -7.8
v -5.4 10.2 -7.8
v -7.5 10.3 -7.6
v -7.4 10.3 -7.6
v -5.6 10.3 -7.6
v -5.5 10.3 -7.6
v -7.5 10.3 -7.8
v -7.4 10.3 -7.8
v -5.6 10.3 -7.8
v -5.5 10.3 -7.8
v -7.4 10.4 -7.6
v -7.3 10.4 -7.6
v -5.7 10.4 -7.6
v -5.6 10.4 -7.6
v -7.4 10.4 -7.8
v -7.3 10.4 -7.8
v -5.7 10.4 -7.8
v -5.6 10.4 -7.8
v -6.9 10.6 -6.9
v -6.8 10.6 -6.9
v -6.2 10.6 -6.9
v -6.1 10.6 -6.9
v -6.9 10.6 -7
v -6.8 10.6 -7
v -6.2 10.6 -7
v -6.1 10.6 -7
v -6.9 10.6 -8.4
v -6.8 10.6 -8.4
v -6.2 10.6 -8.4
v -6.1 10.6 -8.4
v -6.9 10.6 -8.5
v -6.8 10.6 -8.5
v -6.2 10.6 -8.5
v -6.1 10.6 -8.5
v -6.8 10.9 -6.9
v -6.2 10.9 -6.9
v -7 10.9 -7
v -6.8 10.9 -7
v -6.2 10.9 -7
v -6 10.9 -7
v -7.1 10.9 -7.1
v -7 10.9 -7.1
v -6.9 10.9 -7.1
v -6.8 10.9 -7.1
v -6.2 10.9 -7.1
v -6.1 10.9 -7.1
v -6 10.9 -7.1
v -5.9 10.9 -7.1
v -7.2 10.9 -7.2
v -7.1 10.9 -7.2
v -7 10.9 -7.2
v -6.9 10.9 -7.2
v -6.1 10.9 -7.2
v -6 10.9 -7.2
v -5.9 10.9 -7.2
v -5.8 10.9 -7.2
v -7.1 10.9 -7.3
v -7 10.9 -7.3
v -6 10.9 -7.3
v -5.9 10.9 -7.3
v -7.3 10.9 -7.4
v -7.2 10.9 -7.4
v -7.1 10.9 -7.4
v -5.9 10.9 -7.4
v -5.8 10.9 -7.4
v -5.7 10.9 -7.4
v -7.3 10.9 -8
v -7.2 10.9 -8
v -7.1 10.9 -8
v -5.9 10.9 -8
v -5.8 10.9 -8
v -5.7 10.9 -8
v -7.1 10.9 -8.1
v -7 10.9 -8.1
v -6 10.9 -8.1
v -5.9 10.9 -8.1
v -7.2 10.9 -8.2
v -7.1 10.9 -8.2
v -7 10.9 -8.2
v -6.9 10.9 -8.2
v -6.1 10.9 -8.2
v -6 10.9 -8.2
v -5.9 10.9 -8.2
v -5.8 10.9 -8.2
v -7.1 10.9 -8.3
v -7 10.9 -8.3
v -6.9 10.9 -8.3
v -6.8 10.9 -8.3
v -6.2 10.9 -8.3
v -6.1 10.9 -8.3
v -6 10.9 -8.3
v -5.9 10.9 -8.3
v -7 10.9 -8.4
v -6.8 10.9 -8.4
v -6.2 10.9 -8.4
v -6 10.9 -8.4
v -6.8 10.9 -8.5
v -6.2 10.9 -8.5
v -6.8 11.3 -7
v -6.2 11.3 -7
v -6.9 11.3 -7.1
v -6.8 11.3 -7.1
v -6.7 11.3 -7.1
v -6.3 11.3 -7.1
v -6.2 11.3 -7.1
v -6.1 11.3 -7.1
v -7 11.3 -7.2
v -6.9 11.3 -7.2
v -6.7 11.3 -7.2
v -6.3 11.3 -7.2
v -6.1 11.3 -7.2
v -6 11.3 -7.2
v -7.1 11.3 -7.3
v -7 11.3 -7.3
v -6.9 11.3 -7.3
v -6.1 11.3 -7.3
v -6 11.3 -7.3
v -5.9 11.3 -7.3
v -7.2 11.3 -7.4
v -7.1 11.3 -7.4
v -5.9 11.3 -7.4
v -5.8 11.3 -7.4
v -7.1 11.3 -7.5
v -7 11.3 -7.5
v -6 11.3 -7.5
v -5.9 11.3 -7.5
v -7.1 11.3 -7.9
v -7 11.3 -7.9
v -6 11.3 -7.9
v -5.9 11.3 -7.9
v -7.2 11.3 -8
v -7.1 11.3 -8
v -5.9 11.3 -8
v -5.8 11.3 -8
v -7.1 11.3 -8.1
v -7 11.3 -8.1
v -6.9 11.3 -8.1
v -6.1 11.3 -8.1
v -6 11.3 -8.1
v -5.9 11.3 -8.1
v -7 11.3 -8.2
v -6.9 11.3 -8.2
v -6.7 11.3 -8.2
v -6.3 11.3 -8.2
v -6.1 11.3 -8.2
v -6 11.3 -8.2
v -6.9 11.3 -8.3
v -6.8 11.3 -8.3
v -6.7 11.3 -8.3
v -6.3 11.3 -8.3
v -6.2 11.3 -8.3
v -6.1 11.3 -8.3
v -6.8 11.3 -8.4
v -6.2 11.3 -8.4
v -6.7 11.8 -7.1
v -6.3 11.8 -7.1
v -6.9 11.8 -7.2
v -6.7 11.8 -7.2
v -6.3 11.8 -7.2
v -6.1 11.8 -7.2
v -7 11.8 -7.3
v -6.9 11.8 -7.3
v -6.7 11.8 -7.3
v -6.3 11.8 -7.3
v -6.1 11.8 -7.3
v -6 11.8 -7.3
v -7.1 11.8 -7.5
v -7 11.8 -7.5
v -6.9 11.8 -7.5
v -6.1 11.8 -7.5
v -6 11.8 -7.5
v -5.9 11.8 -7.5
v -7.1 11.8 -7.9
v -7 11.8 -7.9
v -6.9 11.8 -7.9
v -6.1 11.8 -7.9
v -6 11.8 -7.9
v -5.9 11.8 -7.9
v -7 11.8 -8.1
v -6.9 11.8 -8.1
v -6.7 11.8 -8.1
v -6.3 11.8 -8.1
v -6.1 11.8 -8.1
v -6 11.8 -8.1
v -6.9 11.8 -8.2
v -6.7 11.8 -8.2
v -6.3 11.8 -8.2
v -6.1 11.8 -8.2
v -6.7 11.8 -8.3
v -6.3 11.8 -8.3
v -6.7 12.2 -7.2
v -6.3 12.2 -7.2
v -6.9 12.2 -7.3
v -6.7 12.2 -7.3
v -6.3 12.2 -7.3
v -6.1 12.2 -7.3
v -6.8 12.2 -7.4
v -6.7 12.2 -7.4
v -6.3 12.2 -7.4
v -6.2 12.2 -7.4
v -7 12.2 -7.5
v -6.9 12.2 -7.5
v -6.8 12.2 -7.5
v -6.2 12.2 -7.5
v -6.1 12.2 -7.5
v -6 12.2 -7.5
v -7 12.2 -7.9
v -6.9 12.2 -7.9
v -6.8 12.2 -7.9
v -6.2 12.2 -7.9
v -6.1 12.2 -7.9
v -6 12.2 -7.9
v -6.8 12.2 -8
v -6.7 12.2 -8
v -6.3 12.2 -8
v -6.2 12.2 -8
v -6.9 12.2 -8.1
v -6.7 12.2 -8.1
v -6.3 12.2 -8.1
v -6.1 12.2 -8.1
v -6.7 12.2 -8.2
v -6.3 12.2 -8.2
v -6.7 12.5 -7.3
v -6.3 12.5 -7.3
v -6.8 12.5 -7.4
v -6.7 12.5 -7.4
v -6.3 12.5 -7.4
v -6.2 12.5 -7.4
v -6.9 12.5 -7.5
v -6.8 12.5 -7.5
v -6.6 12.5 -7.5
v -6.4 12.5 -7.5
v -6.2 12.5 -7.5
v -6.1 12.5 -7.5
v -6.7 12.5 -7.6
v -6.6 12.5 -7.6
v -6.4 12.5 -7.6
v -6.3 12.5 -7.6
v -6.7 12.5 -7.8
v -6.6 12.5 -7.8
v -6.4 12.5 -7.8
v -6.3 12.5 -7.8
v -6.9 12.5 -7.9
v -6.8 12.5 -7.9
v -6.6 12.5 -7.9
v -6.4 12.5 -7.9
v -6.2 12.5 -7.9
v -6.1 12.5 -7.9
v -6.8 12.5 -8
v -6.7 12.5 -8
v -6.3 12.5 -8
v -6.2 12.5 -8
v -6.7 12.5 -8.1
v -6.3 12.5 -8.1
v -6.6 12.8 -7.5
v -6.4 12.8 -7.5
v -6.7 12.8 -7.6
v -6.6 12.8 -7.6
v -6.4 12.8 -7.6
v -6.3 12.8 -7.6
v -6.7 12.8 -7.8
v -6.6 12.8 -7.8
v -6.4 12.8 -7.8
v -6.3 12.8 -7.8
v -6.6 12.8 -7.9
v -6.4 12.8 -7.9
v -6.7 13.6 -7.4
v -6.3 13.6 -7.4
v -6.8 13.6 -7.5
v -6.7 13.6 -7.5
v -6.6 13.6 -7.5
v -6.4 13.6 -7.5
v -6.3 13.6 -7.5
v -6.2 13.6 -7.5
v -6.7 13.6 -7.6
v -6.6 13.6 -7.6
v -6.4 13.6 -7.6
v -6.3 13.6 -7.6
v -6.7 13.6 -7.8
v -6.6 13.6 -7.8
v -6.4 13.6 -7.8
v -6.3 13.6 -7.8
v -6.8 13.6 -7.9
v -6.7 13.6 -7.9
v -6.6 13.6 -7.9
v -6.4 13.6 -7.9
v -6.3 13.6 -7.9
v -6.2 13.6 -7.9
v -6.7 13.6 -8
v -6.3 13.6 -8
v -6.6 13.7 -7.5
v -6.4 13.7 -7.5
v -6.7 13.7 -7.6
v -6.6 13.7 -7.6
v -6.4 13.7 -7.6
v -6.3 13.7 -7.6
v -6.7 13.7 -7.8
v -6.6 13.7 -7.8
v -6.4 13.7 -7.8
v -6.3 13.7 -7.8
v -6.6 13.7 -7.9
v -6.4 13.7 -7.9

# faces
f 3/1/1 2/1/1 1/1/1
f 4/1/1 2/1/1 3/1/1
f 9/1/1 6/1/1 5/1/1
f 10/1/1 6/1/1 9/1/1
f 11/1/1 8/1/1 7/1/1
f 12/1/1 8/1/1 11/1/1
f 15/1/1 14/1/1 13/1/1
f 16/1/1 14/1/1 15/1/1
f 21/1/1 18/1/1 17/1/1
f 22/1/1 18/1/1 21/1/1
f 23/1/1 20/1/1 19/1/1
f 24/1/1 20/1/1 23/1/1
f 29/1/1 26/1/1 25/1/1
f 30/1/1 26/1/1 29/1/1
f 31/1/1 28/1/1 27/1/1
f 32/1/1 28/1/1 31/1/1
f 35/1/1 34/1/1 33/1/1
f 36/1/1 34/1/1 35/1/1
f 41/1/1 38/1/1 37/1/1
f 42/1/1 38/1/1 41/1/1
f 43/1/1 40/1/1 39/1/1
f 44/1/1 40/1/1 43/1/1
f 47/1/1 46/1/1 45/1/1
f 48/1/1 46/1/1 47/1/1
f 53/1/1 50/1/1 49/1/1
f 54/1/1 50/1/1 53/1/1
f 55/1/1 52/1/1 51/1/1
f 56/1/1 52/1/1 55/1/1
f 59/1/1 58/1/1 57/1/1
f 60/1/1 58/1/1 59/1/1
f 65/1/1 62/1/1 61/1/1
f 66/1/1 62/1/1 65/1/1
f 67/1/1 64/1/1 63/1/1
f 68/1/1 64/1/1 67/1/1
f 71/1/1 70/1/1 69/1/1
f 72/1/1 70/1/1 71/1/1
f 77/6/1 74/6/1 73/6/1
f 80/6/1 76/6/1 75/6/1
f 81/6/1 78/6/1 77/6/1
f 82/6/1 80/6/1 79/6/1
f 83/6/1 81/6/1 77/6/1
f 83/6/1 82/6/1 81/6/1
f 83/6/1 77/6/1 73/6/1
f 84/6/1 80/6/1 82/6/1
f 84/6/1 82/6/1 83/6/1
f 84/6/1 76/6/1 80/6/1
f 85/8/1 84/8/1 83/8/1
f 86/8/1 84/8/1 85/8/1
f 91/6/1 88/6/1 87/6/1
f 92/6/1 88/6/1 91/6/1
f 93/6/1 90/6/1 89/6/1
f 94/6/1 90/6/1 93/6/1
f 95/8/1 92/8/1 91/8/1
f 96/8/1 92/8/1 95/8/1
f 97/8/1 94/8/1 93/8/1
f 98/8/1 94/8/1 97/8/1
f 99/6/1 97/6/1 96/6/1
f 100/6/1 97/6/1 99/6/1
f 101/4/1 100/4/1 99/4/1
f 102/4/1 100/4/1 101/4/1
f 107/6/1 104/6/1 103/6/1
f 108/6/1 104/6/1 107/6/1
f 109/6/1 106/6/1 105/6/1
f 110/6/1 106/6/1 109/6/1
f 111/8/1 108/8/1 107/8/1
f 112/8/1 108/8/1 111/8/1
f 117/8/1 110/8/1 109/8/1
f 118/8/1 110/8/1 117/8/1
f 119/6/1 114/6/1 113/6/1
f 120/6/1 114/6/1 119/6/1
f 121/6/1 116/6/1 115/6/1
f 122/6/1 116/6/1 121/6/1
f 123/4/1 120/4/1 119/4/1
f 124/4/1 120/4/1 123/4/1
f 127/4/1 122/4/1 121/4/1
f 128/4/1 122/4/1 127/4/1
f 129/6/1 126/6/1 125/6/1
f 130/6/1 126/6/1 129/6/1
f 131/2/1 130/2/1 129/2/1
f 132/2/1 130/2/1 131/2/1
f 137/6/1 134/6/1 133/6/1
f 138/6/1 134/6/1 137/6/1
f 139/6/1 136/6/1 135/6/1
f 140/6/1 136/6/1 139/6/1
f 141/8/1 138/8/1 137/8/1
f 142/8/1 138/8/1 141/8/1
f 147/8/1 140/8/1 139/8/1
f 148/8/1 140/8/1 147/8/1
f 149/6/1 144/6/1 143/6/1
f 150/6/1 144/6/1 149/6/1
f 151/6/1 146/6/1 145/6/1
f 152/6/1 146/6/1 151/6/1
f 153/4/1 150/4/1 149/4/1
f 154/4/1 150/4/1 153/4/1
f 157/4/1 152/4/1 151/4/1
f 158/4/1 152/4/1 157/4/1
f 159/6/1 155/6/1 154/6/1
f 160/6/1 155/6/1 159/6/1
f 161/6/1 157/6/1 156/6/1
f 162/6/1 157/6/1 161/6/1
f 163/2/1 160/2/1 159/2/1
f 164/2/1 160/2/1 163/2/1
f 165/2/1 162/2/1 161/2/1
f 166/2/1 162/2/1 165/2/1
f 167/6/1 165/6/1 164/6/1
f 168/6/1 165/6/1 167/6/1
f 169/8/1 168/8/1 167/8/1
f 170/8/1 168/8/1 169/8/1
f 175/8/1 172/8/1 171/8/1
f 176/8/1 172/8/1 175/8/1
f 177/8/1 174/8/1 173/8/1
f 178/8/1 174/8/1 177/8/1
f 183/6/1 180/6/1 179/6/1
f 184/6/1 180/6/1 183/6/1
f 185/6/1 182/6/1 181/6/1
f 186/6/1 182/6/1 185/6/1
f 187/4/1 184/4/1 183/4/1
f 188/4/1 184/4/1 187/4/1
f 191/4/1 186/4/1 185/4/1
f 192/4/1 186/4/1 191/4/1
f 193/6/1 189/6/1 188/6/1
f 194/6/1 189/6/1 193/6/1
f 195/6/1 191/6/1 190/6/1
f 196/6/1 191/6/1 195/6/1
f 197/2/1 194/2/1 193/2/1
f 198/2/1 194/2/1 197/2/1
f 201/2/1 196/2/1 195/2/1
f 202/2/1 196/2/1 201/2/1
f 203/6/1 199/6/1 198/6/1
f 204/6/1 199/6/1 203/6/1
f 205/6/1 201/6/1 200/6/1
f 206/6/1 201/6/1 205/6/1
f 207/8/1 204/8/1 203/8/1
f 208/8/1 204/8/1 207/8/1
f 209/8/1 206/8/1 205/8/1
f 210/8/1 206/8/1 209/8/1
f 211/6/1 209/6/1 208/6/1
f 212/6/1 209/6/1 211/6/1
f 213/3/1 212/3/1 211/3/1
f 214/3/1 212/3/1 213/3/1
f 219/6/1 216/6/1 215/6/1
f 220/6/1 216/6/1 219/6/1
f 221/6/1 218/6/1 217/6/1
f 222/6/1 218/6/1 221/6/1
f 223/8/1 220/8/1 219/8/1
f 224/8/1 220/8/1 223/8/1
f 225/8/1 222/8/1 221/8/1
f 226/8/1 222/8/1 225/8/1
f 231/8/1 228/8/1 227/8/1
f 232/8/1 228/8/1 231/8/1
f 233/8/1 230/8/1 229/8/1
f 234/8/1 230/8/1 233/8/1
f 235/6/1 232/6/1 231/6/1
f 236/6/1 232/6/1 235/6/1
f 237/6/1 234/6/1 233/6/1
f 238/6/1 234/6/1 237/6/1
f 239/8/1 236/8/1 235/8/1
f 240/8/1 236/8/1 239/8/1
f 243/8/1 238/8/1 237/8/1
f 244/8/1 238/8/1 243/8/1
f 245/6/1 241/6/1 240/6/1
f 246/6/1 241/6/1 245/6/1
f 247/6/1 243/6/1 242/6/1
f 248/6/1 243/6/1 247/6/1
f 249/4/1 246/4/1 245/4/1
f 250/4/1 246/4/1 249/4/1
f 251/4/1 248/4/1 247/4/1
f 252/4/1 248/4/1 251/4/1
f 257/6/1 254/6/1 253/6/1
f 258/6/1 254/6/1 257/6/1
f 259/6/1 256/6/1 255/6/1
f 260/6/1 256/6/1 259/6/1
f 261/3/1 258/3/1 257/3/1
f 262/3/1 258/3/1 261/3/1
f 263/3/1 260/3/1 259/3/1
f 264/3/1 260/3/1 263/3/1
f 267/3/1 266/3/1 265/3/1
f 268/3/1 266/3/1 267/3/1
f 273/6/1 270/6/1 269/6/1
f 274/6/1 270/6/1 273/6/1
f 275/6/1 272/6/1 271/6/1
f 276/6/1 272/6/1 275/6/1
f 277/2/1 274/2/1 273/2/1
f 278/2/1 274/2/1 277/2/1
f 281/2/1 276/2/1 275/2/1
f 282/2/1 276/2/1 281/2/1
f 283/6/1 279/6/1 278/6/1
f 284/6/1 279/6/1 283/6/1
f 285/6/1 281/6/1 280/6/1
f 286/6/1 281/6/1 285/6/1
f 287/8/1 284/8/1 283/8/1
f 288/8/1 284/8/1 287/8/1
f 291/8/1 286/8/1 285/8/1
f 292/8/1 286/8/1 291/8/1
f 293/6/1 289/6/1 288/6/1
f 294/6/1 289/6/1 293/6/1
f 295/6/1 291/6/1 290/6/1
f 296/6/1 291/6/1 295/6/1
f 297/3/1 294/3/1 293/3/1
f 298/3/1 294/3/1 297/3/1
f 301/3/1 296/3/1 295/3/1
f 302/3/1 296/3/1 301/3/1
f 303/6/1 300/6/1 299/6/1
f 304/6/1 300/6/1 303/6/1
f 305/2/1 304/2/1 303/2/1
f 306/2/1 304/2/1 305/2/1
f 311/3/1 308/3/1 307/3/1
f 312/3/1 308/3/1 311/3/1
f 315/3/1 310/3/1 309/3/1
f 316/3/1 310/3/1 315/3/1
f 319/3/1 314/3/1 313/3/1
f 320/3/1 314/3/1 319/3/1
f 321/3/1 318/3/1 317/3/1
f 322/3/1 318/3/1 321/3/1
f 327/6/1 324/6/1 323/6/1
f 328/6/1 324/6/1 327/6/1
f 329/6/1 326/6/1 325/6/1
f 330/6/1 326/6/1 329/6/1
f 331/2/1 328/2/1 327/2/1
f 332/2/1 328/2/1 331/2/1
f 333/2/1 330/2/1 329/2/1
f 334/2/1 330/2/1 333/2/1
f 336/9/1 333/9/1 332/9/1
f 337/9/1 333/9/1 336/9/1
f 339/3/1 336/3/1 335/3/1
f 340/3/1 336/3/1 339/3/1
f 341/3/1 338/3/1 337/3/1
f 342/3/1 338/3/1 341/3/1
f 347/3/1 344/3/1 343/3/1
f 348/3/1 344/3/1 347/3/1
f 349/3/1 346/3/1 345/3/1
f 350/3/1 346/3/1 349/3/1
f 355/8/1 352/8/1 351/8/1
f 356/8/1 352/8/1 355/8/1
f 357/8/1 354/8/1 353/8/1
f 358/8/1 354/8/1 357/8/1
f 359/8/2 360/8/2 363/8/2
f 363/8/2 360/8/2 364/8/2
f 361/8/2 362/8/2 365/8/2
f 365/8/2 362/8/2 366/8/2
f 367/6/2 368/6/2 371/6/2
f 371/6/2 368/6/2 372/6/2
f 369/6/2 370/6/2 373/6/2
f 373/6/2 370/6/2 374/6/2
f 371/2/2 372/2/2 375/2/2
f 375/2/2 372/2/2 376/2/2
f 373/2/2 374/2/2 377/2/2
f 377/2/2 374/2/2 378/2/2
f 376/9/2 377/9/2 380/9/2
f 380/9/2 377/9/2 381/9/2
f 379/3/2 380/3/2 383/3/2
f 383/3/2 380/3/2 384/3/2
f 381/3/2 382/3/2 385/3/2
f 385/3/2 382/3/2 386/3/2
f 387/3/2 388/3/2 391/3/2
f 391/3/2 388/3/2 392/3/2
f 389/3/2 390/3/2 393/3/2
f 393/3/2 390/3/2 394/3/2
f 395/6/2 396/6/2 399/6/2
f 399/6/2 396/6/2 400/6/2
f 397/6/2 398/6/2 401/6/2
f 401/6/2 398/6/2 402/6/2
f 399/2/2 400/2/2 403/2/2
f 403/2/2 400/2/2 404/2/2
f 401/2/2 402/2/2 407/2/2
f 407/2/2 402/2/2 408/2/2
f 404/6/2 405/6/2 409/6/2
f 409/6/2 405/6/2 410/6/2
f 406/6/2 407/6/2 411/6/2
f 411/6/2 407/6/2 412/6/2
f 409/8/2 410/8/2 413/8/2
f 413/8/2 410/8/2 414/8/2
f 411/8/2 412/8/2 417/8/2
f 417/8/2 412/8/2 418/8/2
f 414/6/2 415/6/2 419/6/2
f 419/6/2 415/6/2 420/6/2
f 416/6/2 417/6/2 421/6/2
f 421/6/2 417/6/2 422/6/2
f 419/3/2 420/3/2 423/3/2
f 423/3/2 420/3/2 424/3/2
f 421/3/2 422/3/2 427/3/2
f 427/3/2 422/3/2 428/3/2
f 425/6/2 426/6/2 429/6/2
f 429/6/2 426/6/2 430/6/2
f 429/2/2 430/2/2 431/2/2
f 431/2/2 430/2/2 432/2/2
f 433/3/2 434/3/2 437/3/2
f 437/3/2 434/3/2 438/3/2
f 435/3/2 436/3/2 441/3/2
f 441/3/2 436/3/2 442/3/2
f 439/3/2 440/3/2 445/3/2
f 445/3/2 440/3/2 446/3/2
f 443/3/2 444/3/2 447/3/2
f 447/3/2 444/3/2 448/3/2
f 449/6/2 450/6/2 453/6/2
f 453/6/2 450/6/2 454/6/2
f 451/6/2 452/6/2 455/6/2
f 455/6/2 452/6/2 456/6/2
f 453/8/2 454/8/2 457/8/2
f 457/8/2 454/8/2 458/8/2
f 455/8/2 456/8/2 459/8/2
f 459/8/2 456/8/2 460/8/2
f 461/8/2 462/8/2 465/8/2
f 465/8/2 462/8/2 466/8/2
f 463/8/2 464/8/2 467/8/2
f 467/8/2 464/8/2 468/8/2
f 465/6/2 466/6/2 469/6/2
f 469/6/2 466/6/2 470/6/2
f 467/6/2 468/6/2 471/6/2
f 471/6/2 468/6/2 472/6/2
f 469/8/2 470/8/2 473/8/2
f 473/8/2 470/8/2 474/8/2
f 471/8/2 472/8/2 477/8/2
f 477/8/2 472/8/2 478/8/2
f 474/6/2 475/6/2 479/6/2
f 479/6/2 475/6/2 480/6/2
f 476/6/2 477/6/2 481/6/2
f 481/6/2 477/6/2 482/6/2
f 479/4/2 480/4/2 483/4/2
f 483/4/2 480/4/2 484/4/2
f 481/4/2 482/4/2 485/4/2
f 485/4/2 482/4/2 486/4/2
f 487/6/2 488/6/2 491/6/2
f 491/6/2 488/6/2 492/6/2
f 489/6/2 490/6/2 493/6/2
f 493/6/2 490/6/2 494/6/2
f 491/3/2 492/3/2 495/3/2
f 495/3/2 492/3/2 496/3/2
f 493/3/2 494/3/2 497/3/2
f 497/3/2 494/3/2 498/3/2
f 499/3/2 500/3/2 501/3/2
f 501/3/2 500/3/2 502/3/2
f 503/8/2 504/8/2 507/8/2
f 507/8/2 504/8/2 508/8/2
f 505/8/2 506/8/2 509/8/2
f 509/8/2 506/8/2 510/8/2
f 511/6/2 512/6/2 515/6/2
f 515/6/2 512/6/2 516/6/2
f 513/6/2 514/6/2 517/6/2
f 517/6/2 514/6/2 518/6/2
f 515/4/2 516/4/2 519/4/2
f 519/4/2 516/4/2 520/4/2
f 517/4/2 518/4/2 523/4/2
f 523/4/2 518/4/2 524/4/2
f 520/6/2 521/6/2 525/6/2
f 525/6/2 521/6/2 526/6/2
f 522/6/2 523/6/2 527/6/2
f 527/6/2 523/6/2 528/6/2
f 525/2/2 526/2/2 529/2/2
f 529/2/2 526/2/2 530/2/2
f 527/2/2 528/2/2 533/2/2
f 533/2/2 528/2/2 534/2/2
f 530/6/2 531/6/2 535/6/2
f 535/6/2 531/6/2 536/6/2
f 532/6/2 533/6/2 537/6/2
f 537/6/2 533/6/2 538/6/2
f 535/8/2 536/8/2 539/8/2
f 539/8/2 536/8/2 540/8/2
f 537/8/2 538/8/2 541/8/2
f 541/8/2 538/8/2 542/8/2
f 540/6/2 541/6/2 543/6/2
f 543/6/2 541/6/2 544/6/2
f 543/3/2 544/3/2 545/3/2
f 545/3/2 544/3/2 546/3/2
f 547/6/2 548/6/2 551/6/2
f 551/6/2 548/6/2 552/6/2
f 549/6/2 550/6/2 553/6/2
f 553/6/2 550/6/2 554/6/2
f 551/8/2 552/8/2 555/8/2
f 555/8/2 552/8/2 556/8/2
f 553/8/2 554/8/2 561/8/2
f 561/8/2 554/8/2 562/8/2
f 557/6/2 558/6/2 563/6/2
f 563/6/2 558/6/2 564/6/2
f 559/6/2 560/6/2 565/6/2
f 565/6/2 560/6/2 566/6/2
f 563/4/2 564/4/2 567/4/2
f 567/4/2 564/4/2 568/4/2
f 565/4/2 566/4/2 571/4/2
f 571/4/2 566/4/2 572/4/2
f 568/6/2 569/6/2 573/6/2
f 573/6/2 569/6/2 574/6/2
f 570/6/2 571/6/2 575/6/2
f 575/6/2 571/6/2 576/6/2
f 573/2/2 574/2/2 577/2/2
f 577/2/2 574/2/2 578/2/2
f 575/2/2 576/2/2 579/2/2
f 579/2/2 576/2/2 580/2/2
f 578/6/2 579/6/2 581/6/2
f 581/6/2 579/6/2 582/6/2
f 581/8/2 582/8/2 583/8/2
f 583/8/2 582/8/2 584/8/2
f 585/6/2 586/6/2 589/6/2
f 589/6/2 586/6/2 590/6/2
f 587/6/2 588/6/2 591/6/2
f 591/6/2 588/6/2 592/6/2
f 589/8/2 590/8/2 593/8/2
f 593/8/2 590/8/2 594/8/2
f 591/8/2 592/8/2 599/8/2
f 599/8/2 592/8/2 600/8/2
f 595/6/2 596/6/2 601/6/2
f 601/6/2 596/6/2 602/6/2
f 597/6/2 598/6/2 603/6/2
f 603/6/2 598/6/2 604/6/2
f 601/4/2 602/4/2 605/4/2
f 605/4/2 602/4/2 606/4/2
f 603/4/2 604/4/2 609/4/2
f 609/4/2 604/4/2 610/4/2
f 607/6/2 608/6/2 611/6/2
f 611/6/2 608/6/2 612/6/2
f 611/2/2 612/2/2 613/2/2
f 613/2/2 612/2/2 614/2/2
f 615/6/2 616/6/2 619/6/2
f 619/6/2 616/6/2 620/6/2
f 617/6/2 618/6/2 621/6/2
f 621/6/2 618/6/2 622/6/2
f 619/8/2 620/8/2 623/8/2
f 623/8/2 620/8/2 624/8/2
f 621/8/2 622/8/2 625/8/2
f 625/8/2 622/8/2 626/8/2
f 624/6/2 625/6/2 627/6/2
f 627/6/2 625/6/2 628/6/2
f 627/4/2 628/4/2 629/4/2
f 629/4/2 628/4/2 630/4/2
f 631/6/2 632/6/2 635/6/2
f 633/6/2 634/6/2 638/6/2
f 635/6/2 636/6/2 639/6/2
f 637/6/2 638/6/2 640/6/2
f 635/6/2 639/6/2 641/6/2
f 639/6/2 640/6/2 641/6/2
f 631/6/2 635/6/2 641/6/2
f 640/6/2 638/6/2 642/6/2
f 641/6/2 640/6/2 642/6/2
f 638/6/2 634/6/2 642/6/2
f 641/8/2 642/8/2 643/8/2
f 643/8/2 642/8/2 644/8/2
f 645/1/2 646/1/2 649/1/2
f 649/1/2 646/1/2 650/1/2
f 647/1/2 648/1/2 651/1/2
f 651/1/2 648/1/2 652/1/2
f 653/1/2 654/1/2 655/1/2
f 655/1/2 654/1/2 656/1/2
f 657/1/2 658/1/2 661/1/2
f 661/1/2 658/1/2 662/1/2
f 659/1/2 660/1/2 663/1/2
f 663/1/2 660/1/2 664/1/2
f 665/1/2 666/1/2 667/1/2
f 667/1/2 666/1/2 668/1/2
f 669/1/2 670/1/2 673/1/2
f 673/1/2 670/1/2 674/1/2
f 671/1/2 672/1/2 675/1/2
f 675/1/2 672/1/2 676/1/2
f 677/1/2 678/1/2 679/1/2
f 679/1/2 678/1/2 680/1/2
f 681/1/2 682/1/2 685/1/2
f 685/1/2 682/1/2 686/1/2
f 683/1/2 684/1/2 687/1/2
f 687/1/2 684/1/2 688/1/2
f 689/1/2 690/1/2 691/1/2
f 691/1/2 690/1/2 692/1/2
f 693/1/2 694/1/2 697/1/2
f 697/1/2 694/1/2 698/1/2
f 695/1/2 696/1/2 699/1/2
f 699/1/2 696/1/2 700/1/2
f 701/1/2 702/1/2 705/1/2
f 705/1/2 702/1/2 706/1/2
f 703/1/2 704/1/2 707/1/2
f 707/1/2 704/1/2 708/1/2
f 709/1/2 710/1/2 711/1/2
f 711/1/2 710/1/2 712/1/2
f 713/1/2 714/1/2 715/1/2
f 715/1/2 714/1/2 716/1/2
f 717/1/2 718/1/2 719/1/2
f 719/1/2 718/1/2 720/1/2
f 725/8/3 722/8/3 721/8/3
f 726/8/3 722/8/3 725/8/3
f 730/6/3 724/6/3 723/6/3
f 731/8/3 725/8/3 724/8/3
f 731/6/3 724/6/3 730/6/3
f 732/8/3 725/8/3 731/8/3
f 733/8/3 727/8/3 726/8/3
f 734/6/3 728/6/3 727/6/3
f 734/8/3 727/8/3 733/8/3
f 735/8/3 729/8/3 728/8/3
f 735/6/3 728/6/3 734/6/3
f 736/8/3 729/8/3 735/8/3
f 737/8/3 733/8/3 732/8/3
f 738/8/3 733/8/3 737/8/3
f 742/6/3 740/6/3 739/6/3
f 743/6/3 740/6/3 742/6/3
f 744/6/3 742/6/3 739/6/3
f 745/6/3 742/6/3 744/6/3
f 746/6/3 742/6/3 745/6/3
f 747/6/3 740/6/3 743/6/3
f 748/6/3 740/6/3 747/6/3
f 749/8/3 741/8/3 740/8/3
f 749/6/3 740/6/3 748/6/3
f 750/8/3 741/8/3 749/8/3
f 753/4/3 747/4/3 746/4/3
f 754/4/3 747/4/3 753/4/3
f 755/5/3 754/5/3 753/5/3
f 756/5/3 754/5/3 755/5/3
f 757/5/3 755/5/3 753/5/3
f 757/7/3 756/7/3 755/7/3
f 758/5/3 754/5/3 756/5/3
f 758/7/3 756/7/3 757/7/3
f 759/4/3 753/4/3 746/4/3
f 759/5/3 757/5/3 753/5/3
f 759/5/3 758/5/3 757/5/3
f 760/5/3 754/5/3 758/5/3
f 760/5/3 758/5/3 759/5/3
f 760/4/3 747/4/3 754/4/3
f 763/4/3 759/4/3 746/4/3
f 763/4/3 760/4/3 759/4/3
f 764/4/3 747/4/3 760/4/3
f 764/4/3 760/4/3 763/4/3
f 767/6/3 751/6/3 750/6/3
f 768/4/3 752/4/3 751/4/3
f 768/6/3 751/6/3 767/6/3
f 769/4/3 752/4/3 768/4/3
f 770/6/3 762/6/3 761/6/3
f 770/6/3 763/6/3 762/6/3
f 771/6/3 766/6/3 765/6/3
f 771/6/3 765/6/3 764/6/3
f 772/6/3 770/6/3 761/6/3
f 772/6/3 771/6/3 770/6/3
f 773/8/3 767/8/3 766/8/3
f 773/6/3 771/6/3 772/6/3
f 773/6/3 766/6/3 771/6/3
f 774/8/3 767/8/3 773/8/3
f 778/6/3 776/6/3 775/6/3
f 779/8/3 777/8/3 776/8/3
f 779/6/3 776/6/3 778/6/3
f 780/8/3 777/8/3 779/8/3
f 784/6/3 782/6/3 781/6/3
f 785/4/3 783/4/3 782/4/3
f 785/6/3 782/6/3 784/6/3
f 786/4/3 783/4/3 785/4/3
f 790/6/3 788/6/3 787/6/3
f 791/2/3 789/2/3 788/2/3
f 791/6/3 788/6/3 790/6/3
f 792/2/3 789/2/3 791/2/3
f 796/6/3 794/6/3 793/6/3
f 797/4/3 795/4/3 794/4/3
f 797/6/3 794/6/3 796/6/3
f 798/4/3 795/4/3 797/4/3
f 802/6/3 800/6/3 799/6/3
f 803/8/3 801/8/3 800/8/3
f 803/6/3 800/6/3 802/6/3
f 804/8/3 801/8/3 803/8/3
f 808/6/3 806/6/3 805/6/3
f 809/8/3 807/8/3 806/8/3
f 809/6/3 806/6/3 808/6/3
f 810/8/3 807/8/3 809/8/3
f 814/6/3 812/6/3 811/6/3
f 815/4/3 813/4/3 812/4/3
f 815/6/3 812/6/3 814/6/3
f 816/4/3 813/4/3 815/4/3
f 819/6/3 817/6/3 816/6/3
f 820/2/3 818/2/3 817/2/3
f 820/6/3 817/6/3 819/6/3
f 821/2/3 818/2/3 820/2/3
f 826/6/3 822/6/3 821/6/3
f 827/8/3 823/8/3 822/8/3
f 827/6/3 822/6/3 826/6/3
f 828/8/3 823/8/3 827/8/3
f 831/6/3 825/6/3 824/6/3
f 832/2/3 826/2/3 825/2/3
f 832/6/3 825/6/3 831/6/3
f 833/2/3 826/2/3 832/2/3
f 834/6/3 830/6/3 829/6/3
f 835/4/3 831/4/3 830/4/3
f 835/6/3 830/6/3 834/6/3
f 836/4/3 831/4/3 835/4/3
f 840/6/3 838/6/3 837/6/3
f 841/8/3 839/8/3 838/8/3
f 841/6/3 838/6/3 840/6/3
f 842/8/3 839/8/3 841/8/3
f 846/6/3 844/6/3 843/6/3
f 847/4/3 845/4/3 844/4/3
f 847/6/3 844/6/3 846/6/3
f 848/4/3 845/4/3 847/4/3
f 851/6/3 849/6/3 848/6/3
f 852/2/3 850/2/3 849/2/3
f 852/6/3 849/6/3 851/6/3
f 853/2/3 850/2/3 852/2/3
f 856/6/3 854/6/3 853/6/3
f 857/8/3 855/8/3 854/8/3
f 857/6/3 854/6/3 856/6/3
f 858/8/3 855/8/3 857/8/3
f 863/6/3 859/6/3 858/6/3
f 864/3/3 860/3/3 859/3/3
f 864/6/3 859/6/3 863/6/3
f 865/3/3 860/3/3 864/3/3
f 868/6/3 862/6/3 861/6/3
f 869/8/3 863/8/3 862/8/3
f 869/6/3 862/6/3 868/6/3
f 870/8/3 863/8/3 869/8/3
f 873/6/3 867/6/3 866/6/3
f 874/2/3 868/2/3 867/2/3
f 874/6/3 867/6/3 873/6/3
f 875/2/3 868/2/3 874/2/3
f 876/6/3 872/6/3 871/6/3
f 877/4/3 873/4/3 872/4/3
f 877/6/3 872/6/3 876/6/3
f 878/4/3 873/4/3 877/4/3
f 882/6/3 880/6/3 879/6/3
f 883/8/3 881/8/3 880/8/3
f 883/6/3 880/6/3 882/6/3
f 884/8/3 881/8/3 883/8/3
f 887/6/3 885/6/3 884/6/3
f 888/4/3 886/4/3 885/4/3
f 888/6/3 885/6/3 887/6/3
f 889/4/3 886/4/3 888/4/3
f 893/6/3 891/6/3 890/6/3
f 894/3/3 892/3/3 891/3/3
f 894/6/3 891/6/3 893/6/3
f 895/3/3 892/3/3 894/3/3
f 901/3/3 897/3/3 896/3/3
f 902/3/3 897/3/3 901/3/3
f 903/6/3 899/6/3 898/6/3
f 904/3/3 900/3/3 899/3/3
f 904/6/3 899/6/3 903/6/3
f 905/3/3 900/3/3 904/3/3
f 911/6/3 907/6/3 906/6/3
f 912/4/3 908/4/3 907/4/3
f 912/6/3 907/6/3 911/6/3
f 913/4/3 908/4/3 912/4/3
f 914/6/3 910/6/3 909/6/3
f 915/8/3 911/8/3 910/8/3
f 915/6/3 910/6/3 914/6/3
f 916/8/3 911/8/3 915/8/3
f 919/1/3 918/1/3 917/1/3
f 921/1/3 920/1/3 919/1/3
f 923/1/3 922/1/3 921/1/3
f 925/1/3 924/1/3 923/1/3
f 927/1/3 926/1/3 925/1/3
f 929/1/3 919/1/3 917/1/3
f 929/1/3 928/1/3 927/1/3
f 929/1/3 927/1/3 925/1/3
f 929/1/3 925/1/3 923/1/3
f 929/1/3 923/1/3 921/1/3
f 929/1/3 921/1/3 919/1/3
f 930/1/3 928/1/3 929/1/3
f 934/6/3 932/6/3 931/6/3
f 935/2/3 933/2/3 932/2/3
f 935/6/3 932/6/3 934/6/3
f 936/2/3 933/2/3 935/2/3
f 939/6/3 937/6/3 936/6/3
f 940/8/3 938/8/3 937/8/3
f 940/6/3 937/6/3 939/6/3
f 941/8/3 938/8/3 940/8/3
f 944/6/3 942/6/3 941/6/3
f 945/3/3 943/3/3 942/3/3
f 945/6/3 942/6/3 944/6/3
f 946/3/3 943/3/3 945/3/3
f 949/3/3 948/3/3 947/3/3
f 950/3/3 948/3/3 949/3/3
f 958/6/3 952/6/3 951/6/3
f 959/2/3 953/2/3 952/2/3
f 959/6/3 952/6/3 958/6/3
f 960/2/3 953/2/3 959/2/3
f 961/3/3 955/3/3 954/3/3
f 962/3/3 955/3/3 961/3/3
f 963/3/3 957/3/3 956/3/3
f 964/3/3 957/3/3 963/3/3
f 970/3/3 966/3/3 965/3/3
f 971/3/3 966/3/3 970/3/3
f 974/6/3 968/6/3 967/6/3
f 975/3/3 969/3/3 968/3/3
f 975/6/3 968/6/3 974/6/3
f 976/3/3 969/3/3 975/3/3
f 979/6/3 973/6/3 972/6/3
f 980/8/3 974/8/3 973/8/3
f 980/6/3 973/6/3 979/6/3
f 981/8/3 974/8/3 980/8/3
f 982/6/3 978/6/3 977/6/3
f 983/2/3 979/2/3 978/2/3
f 983/6/3 978/6/3 982/6/3
f 984/2/3 979/2/3 983/2/3
f 987/1/3 986/1/3 985/1/3
f 988/1/3 986/1/3 987/1/3
f 989/1/3 987/1/3 985/1/3
f 990/1/3 987/1/3 989/1/3
f 991/1/3 989/1/3 985/1/3
f 992/1/3 989/1/3 991/1/3
f 993/1/3 991/1/3 985/1/3
f 994/1/3 991/1/3 993/1/3
f 995/1/3 993/1/3 985/1/3
f 996/1/3 993/1/3 995/1/3
f 997/1/3 995/1/3 985/1/3
f 998/1/3 995/1/3 997/1/3
f 1001/1/3 1000/1/3 999/1/3
f 1002/1/3 1000/1/3 1001/1/3
f 1003/1/3 1000/1/3 1002/1/3
f 1005/1/3 1004/1/3 1003/1/3
f 1005/1/3 1003/1/3 1002/1/3
f 1006/1/3 1004/1/3 1005/1/3
f 1007/1/3 1004/1/3 1006/1/3
f 1008/1/3 1004/1/3 1007/1/3
f 1009/1/3 1004/1/3 1008/1/3
f 1011/1/3 1010/1/3 1009/1/3
f 1011/1/3 1009/1/3 1008/1/3
f 1012/1/3 1010/1/3 1011/1/3
f 1013/1/3 1010/1/3 1012/1/3
f 1015/1/3 1014/1/3 1013/1/3
f 1015/1/3 1013/1/3 1012/1/3
f 1016/1/3 1014/1/3 1015/1/3
f 1017/1/3 1014/1/3 1016/1/3
f 1019/1/3 1018/1/3 1017/1/3
f 1019/1/3 1017/1/3 1016/1/3
f 1020/1/3 1018/1/3 1019/1/3
f 1021/1/3 1018/1/3 1020/1/3
f 1023/1/3 1022/1/3 1021/1/3
f 1023/1/3 1021/1/3 1020/1/3
f 1024/1/3 1022/1/3 1023/1/3
f 1032/6/3 1026/6/3 1025/6/3
f 1033/2/3 1027/2/3 1026/2/3
f 1033/6/3 1026/6/3 1032/6/3
f 1034/2/3 1027/2/3 1033/2/3
f 1035/3/3 1029/3/3 1028/3/3
f 1036/3/3 1029/3/3 1035/3/3
f 1037/3/3 1031/3/3 1030/3/3
f 1038/3/3 1031/3/3 1037/3/3
f 1041/9/3 1035/9/3 1034/9/3
f 1042/9/3 1035/9/3 1041/9/3
f 1046/6/3 1040/6/3 1039/6/3
f 1047/2/3 1041/2/3 1040/2/3
f 1047/6/3 1040/6/3 1046/6/3
f 1048/2/3 1041/2/3 1047/2/3
f 1049/3/3 1043/3/3 1042/3/3
f 1050/3/3 1043/3/3 1049/3/3
f 1051/3/3 1045/3/3 1044/3/3
f 1052/3/3 1045/3/3 1051/3/3
f 1056/1/3 1054/1/3 1053/1/3
f 1057/1/3 1054/1/3 1056/1/3
f 1058/1/3 1054/1/3 1057/1/3
f 1060/1/3 1056/1/3 1055/1/3
f 1060/1/3 1057/1/3 1056/1/3
f 1061/1/3 1057/1/3 1060/1/3
f 1062/1/3 1057/1/3 1061/1/3
f 1064/1/3 1060/1/3 1059/1/3
f 1064/1/3 1061/1/3 1060/1/3
f 1065/1/3 1061/1/3 1064/1/3
f 1066/1/3 1061/1/3 1065/1/3
f 1068/1/3 1064/1/3 1063/1/3
f 1068/1/3 1065/1/3 1064/1/3
f 1069/1/3 1065/1/3 1068/1/3
f 1070/1/3 1065/1/3 1069/1/3
f 1072/1/3 1068/1/3 1067/1/3
f 1072/1/3 1069/1/3 1068/1/3
f 1074/1/3 1072/1/3 1071/1/3
f 1075/1/3 1069/1/3 1072/1/3
f 1075/1/3 1072/1/3 1074/1/3
f 1076/1/3 1069/1/3 1075/1/3
f 1077/1/3 1074/1/3 1073/1/3
f 1077/1/3 1075/1/3 1074/1/3
f 1078/1/3 1075/1/3 1077/1/3
f 1079/1/3 1077/1/3 1073/1/3
f 1080/1/3 1077/1/3 1079/1/3
f 1081/1/4 1082/1/4 1083/1/4
f 1083/1/4 1082/1/4 1084/1/4
f 1084/1/4 1082/1/4 1085/1/4
f 1085/1/4 1086/1/4 1087/1/4
f 1084/1/4 1085/1/4 1087/1/4
f 1087/1/4 1086/1/4 1088/1/4
f 1088/1/4 1086/1/4 1089/1/4
f 1089/1/4 1086/1/4 1090/1/4
f 1090/1/4 1086/1/4 1091/1/4
f 1091/1/4 1092/1/4 1093/1/4
f 1090/1/4 1091/1/4 1093/1/4
f 1093/1/4 1092/1/4 1094/1/4
f 1094/1/4 1092/1/4 1095/1/4
f 1095/1/4 1096/1/4 1097/1/4
f 1094/1/4 1095/1/4 1097/1/4
f 1097/1/4 1096/1/4 1098/1/4
f 1098/1/4 1096/1/4 1099/1/4
f 1099/1/4 1100/1/4 1101/1/4
f 1098/1/4 1099/1/4 1101/1/4
f 1101/1/4 1100/1/4 1102/1/4
f 1102/1/4 1100/1/4 1103/1/4
f 1103/1/4 1104/1/4 1105/1/4
f 1102/1/4 1103/1/4 1105/1/4
f 1105/1/4 1104/1/4 1106/1/4
f 1107/6/4 1108/6/4 1114/6/4
f 1108/2/4 1109/2/4 1115/2/4
f 1114/6/4 1108/6/4 1115/6/4
f 1115/2/4 1109/2/4 1116/2/4
f 1110/3/4 1111/3/4 1117/3/4
f 1117/3/4 1111/3/4 1118/3/4
f 1112/3/4 1113/3/4 1119/3/4
f 1119/3/4 1113/3/4 1120/3/4
f 1116/9/4 1117/9/4 1123/9/4
f 1123/9/4 1117/9/4 1124/9/4
f 1121/6/4 1122/6/4 1128/6/4
f 1122/2/4 1123/2/4 1129/2/4
f 1128/6/4 1122/6/4 1129/6/4
f 1129/2/4 1123/2/4 1130/2/4
f 1124/3/4 1125/3/4 1131/3/4
f 1131/3/4 1125/3/4 1132/3/4
f 1126/3/4 1127/3/4 1133/3/4
f 1133/3/4 1127/3/4 1134/3/4
f 1135/1/4 1136/1/4 1138/1/4
f 1138/1/4 1136/1/4 1139/1/4
f 1139/1/4 1136/1/4 1140/1/4
f 1137/1/4 1138/1/4 1142/1/4
f 1138/1/4 1139/1/4 1142/1/4
f 1142/1/4 1139/1/4 1143/1/4
f 1143/1/4 1139/1/4 1144/1/4
f 1141/1/4 1142/1/4 1146/1/4
f 1142/1/4 1143/1/4 1146/1/4
f 1146/1/4 1143/1/4 1147/1/4
f 1147/1/4 1143/1/4 1148/1/4
f 1145/1/4 1146/1/4 1150/1/4
f 1146/1/4 1147/1/4 1150/1/4
f 1150/1/4 1147/1/4 1151/1/4
f 1151/1/4 1147/1/4 1152/1/4
f 1149/1/4 1150/1/4 1154/1/4
f 1150/1/4 1151/1/4 1154/1/4
f 1153/1/4 1154/1/4 1156/1/4
f 1154/1/4 1151/1/4 1157/1/4
f 1156/1/4 1154/1/4 1157/1/4
f 1157/1/4 1151/1/4 1158/1/4
f 1155/1/4 1156/1/4 1159/1/4
f 1156/1/4 1157/1/4 1159/1/4
f 1159/1/4 1157/1/4 1160/1/4
f 1155/1/4 1159/1/4 1161/1/4
f 1161/1/4 1159/1/4 1162/1/4
f 1163/1/4 1164/1/4 1165/1/4
f 1165/1/4 1166/1/4 1167/1/4
f 1167/1/4 1168/1/4 1169/1/4
f 1169/1/4 1170/1/4 1171/1/4
f 1171/1/4 1172/1/4 1173/1/4
f 1163/1/4 1165/1/4 1175/1/4
f 1173/1/4 1174/1/4 1175/1/4
f 1171/1/4 1173/1/4 1175/1/4
f 1169/1/4 1171/1/4 1175/1/4
f 1167/1/4 1169/1/4 1175/1/4
f 1165/1/4 1167/1/4 1175/1/4
f 1175/1/4 1174/1/4 1176/1/4
f 1177/6/4 1178/6/4 1180/6/4
f 1178/2/4 1179/2/4 1181/2/4
f 1180/6/4 1178/6/4 1181/6/4
f 1181/2/4 1179/2/4 1182/2/4
f 1182/6/4 1183/6/4 1185/6/4
f 1183/8/4 1184/8/4 1186/8/4
f 1185/6/4 1183/6/4 1186/6/4
f 1186/8/4 1184/8/4 1187/8/4
f 1187/6/4 1188/6/4 1190/6/4
f 1188/3/4 1189/3/4 1191/3/4
f 1190/6/4 1188/6/4 1191/6/4
f 1191/3/4 1189/3/4 1192/3/4
f 1193/3/4 1194/3/4 1195/3/4
f 1195/3/4 1194/3/4 1196/3/4
f 1197/6/4 1198/6/4 1204/6/4
f 1198/2/4 1199/2/4 1205/2/4
f 1204/6/4 1198/6/4 1205/6/4
f 1205/2/4 1199/2/4 1206/2/4
f 1200/3/4 1201/3/4 1207/3/4
f 1207/3/4 1201/3/4 1208/3/4
f 1202/3/4 1203/3/4 1209/3/4
f 1209/3/4 1203/3/4 1210/3/4
f 1211/3/4 1212/3/4 1216/3/4
f 1216/3/4 1212/3/4 1217/3/4
f 1213/6/4 1214/6/4 1220/6/4
f 1214/3/4 1215/3/4 1221/3/4
f 1220/6/4 1214/6/4 1221/6/4
f 1221/3/4 1215/3/4 1222/3/4
f 1218/6/4 1219/6/4 1225/6/4
f 1219/8/4 1220/8/4 1226/8/4
f 1225/6/4 1219/6/4 1226/6/4
f 1226/8/4 1220/8/4 1227/8/4
f 1223/6/4 1224/6/4 1228/6/4
f 1224/2/4 1225/2/4 1229/2/4
f 1228/6/4 1224/6/4 1229/6/4
f 1229/2/4 1225/2/4 1230/2/4
f 1231/1/4 1232/1/4 1233/1/4
f 1233/1/4 1232/1/4 1234/1/4
f 1231/1/4 1233/1/4 1235/1/4
f 1235/1/4 1233/1/4 1236/1/4
f 1231/1/4 1235/1/4 1237/1/4
f 1237/1/4 1235/1/4 1238/1/4
f 1231/1/4 1237/1/4 1239/1/4
f 1239/1/4 1237/1/4 1240/1/4
f 1231/1/4 1239/1/4 1241/1/4
f 1241/1/4 1239/1/4 1242/1/4
f 1231/1/4 1241/1/4 1243/1/4
f 1243/1/4 1241/1/4 1244/1/4
f 1245/6/4 1246/6/4 1248/6/4
f 1246/8/4 1247/8/4 1249/8/4
f 1248/6/4 1246/6/4 1249/6/4
f 1249/8/4 1247/8/4 1250/8/4
f 1250/6/4 1251/6/4 1253/6/4
f 1251/4/4 1252/4/4 1254/4/4
f 1253/6/4 1251/6/4 1254/6/4
f 1254/4/4 1252/4/4 1255/4/4
f 1256/6/4 1257/6/4 1259/6/4
f 1257/3/4 1258/3/4 1260/3/4
f 1259/6/4 1257/6/4 1260/6/4
f 1260/3/4 1258/3/4 1261/3/4
f 1262/3/4 1263/3/4 1267/3/4
f 1267/3/4 1263/3/4 1268/3/4
f 1264/6/4 1265/6/4 1269/6/4
f 1265/3/4 1266/3/4 1270/3/4
f 1269/6/4 1265/6/4 1270/6/4
f 1270/3/4 1266/3/4 1271/3/4
f 1272/6/4 1273/6/4 1277/6/4
f 1273/4/4 1274/4/4 1278/4/4
f 1277/6/4 1273/6/4 1278/6/4
f 1278/4/4 1274/4/4 1279/4/4
f 1275/6/4 1276/6/4 1280/6/4
f 1276/8/4 1277/8/4 1281/8/4
f 1280/6/4 1276/6/4 1281/6/4
f 1281/8/4 1277/8/4 1282/8/4
f 1283/6/4 1284/6/4 1286/6/4
f 1284/4/4 1285/4/4 1287/4/4
f 1286/6/4 1284/6/4 1287/6/4
f 1287/4/4 1285/4/4 1288/4/4
f 1288/6/4 1289/6/4 1291/6/4
f 1289/2/4 1290/2/4 1292/2/4
f 1291/6/4 1289/6/4 1292/6/4
f 1292/2/4 1290/2/4 1293/2/4
f 1293/6/4 1294/6/4 1296/6/4
f 1294/8/4 1295/8/4 1297/8/4
f 1296/6/4 1294/6/4 1297/6/4
f 1297/8/4 1295/8/4 1298/8/4
f 1298/6/4 1299/6/4 1303/6/4
f 1299/3/4 1300/3/4 1304/3/4
f 1303/6/4 1299/6/4 1304/6/4
f 1304/3/4 1300/3/4 1305/3/4
f 1301/6/4 1302/6/4 1308/6/4
f 1302/8/4 1303/8/4 1309/8/4
f 1308/6/4 1302/6/4 1309/6/4
f 1309/8/4 1303/8/4 1310/8/4
f 1306/6/4 1307/6/4 1313/6/4
f 1307/2/4 1308/2/4 1314/2/4
f 1313/6/4 1307/6/4 1314/6/4
f 1314/2/4 1308/2/4 1315/2/4
f 1311/6/4 1312/6/4 1316/6/4
f 1312/4/4 1313/4/4 1317/4/4
f 1316/6/4 1312/6/4 1317/6/4
f 1317/4/4 1313/4/4 1318/4/4
f 1319/6/4 1320/6/4 1322/6/4
f 1320/8/4 1321/8/4 1323/8/4
f 1322/6/4 1320/6/4 1323/6/4
f 1323/8/4 1321/8/4 1324/8/4
f 1325/6/4 1326/6/4 1328/6/4
f 1326/4/4 1327/4/4 1329/4/4
f 1328/6/4 1326/6/4 1329/6/4
f 1329/4/4 1327/4/4 1330/4/4
f 1330/6/4 1331/6/4 1333/6/4
f 1331/2/4 1332/2/4 1334/2/4
f 1333/6/4 1331/6/4 1334/6/4
f 1334/2/4 1332/2/4 1335/2/4
f 1335/6/4 1336/6/4 1340/6/4
f 1336/8/4 1337/8/4 1341/8/4
f 1340/6/4 1336/6/4 1341/6/4
f 1341/8/4 1337/8/4 1342/8/4
f 1338/6/4 1339/6/4 1345/6/4
f 1339/2/4 1340/2/4 1346/2/4
f 1345/6/4 1339/6/4 1346/6/4
f 1346/2/4 1340/2/4 1347/2/4
f 1343/6/4 1344/6/4 1348/6/4
f 1344/4/4 1345/4/4 1349/4/4
f 1348/6/4 1344/6/4 1349/6/4
f 1349/4/4 1345/4/4 1350/4/4
f 1351/6/4 1352/6/4 1354/6/4
f 1352/8/4 1353/8/4 1355/8/4
f 1354/6/4 1352/6/4 1355/6/4
f 1355/8/4 1353/8/4 1356/8/4
f 1357/6/4 1358/6/4 1360/6/4
f 1358/8/4 1359/8/4 1361/8/4
f 1360/6/4 1358/6/4 1361/6/4
f 1361/8/4 1359/8/4 1362/8/4
f 1363/6/4 1364/6/4 1366/6/4
f 1364/4/4 1365/4/4 1367/4/4
f 1366/6/4 1364/6/4 1367/6/4
f 1367/4/4 1365/4/4 1368/4/4
f 1369/6/4 1370/6/4 1372/6/4
f 1370/2/4 1371/2/4 1373/2/4
f 1372/6/4 1370/6/4 1373/6/4
f 1373/2/4 1371/2/4 1374/2/4
f 1375/6/4 1376/6/4 1378/6/4
f 1376/4/4 1377/4/4 1379/4/4
f 1378/6/4 1376/6/4 1379/6/4
f 1379/4/4 1377/4/4 1380/4/4
f 1381/6/4 1382/6/4 1384/6/4
f 1382/8/4 1383/8/4 1385/8/4
f 1384/6/4 1382/6/4 1385/6/4
f 1385/8/4 1383/8/4 1386/8/4
f 1387/6/4 1388/6/4 1390/6/4
f 1390/6/4 1388/6/4 1391/6/4
f 1387/6/4 1390/6/4 1392/6/4
f 1392/6/4 1390/6/4 1393/6/4
f 1393/6/4 1390/6/4 1394/6/4
f 1391/6/4 1388/6/4 1395/6/4
f 1395/6/4 1388/6/4 1396/6/4
f 1388/8/4 1389/8/4 1397/8/4
f 1396/6/4 1388/6/4 1397/6/4
f 1397/8/4 1389/8/4 1398/8/4
f 1394/4/4 1395/4/4 1401/4/4
f 1401/4/4 1395/4/4 1402/4/4
f 1401/5/4 1402/5/4 1403/5/4
f 1403/5/4 1402/5/4 1404/5/4
f 1401/5/4 1403/5/4 1405/5/4
f 1403/7/4 1404/7/4 1405/7/4
f 1404/5/4 1402/5/4 1406/5/4
f 1405/7/4 1404/7/4 1406/7/4
f 1394/4/4 1401/4/4 1407/4/4
f 1401/5/4 1405/5/4 1407/5/4
f 1405/5/4 1406/5/4 1407/5/4
f 1406/5/4 1402/5/4 1408/5/4
f 1407/5/4 1406/5/4 1408/5/4
f 1402/4/4 1395/4/4 1408/4/4
f 1394/4/4 1407/4/4 1411/4/4
f 1407/4/4 1408/4/4 1411/4/4
f 1408/4/4 1395/4/4 1412/4/4
f 1411/4/4 1408/4/4 1412/4/4
f 1398/6/4 1399/6/4 1415/6/4
f 1399/4/4 1400/4/4 1416/4/4
f 1415/6/4 1399/6/4 1416/6/4
f 1416/4/4 1400/4/4 1417/4/4
f 1409/6/4 1410/6/4 1418/6/4
f 1410/6/4 1411/6/4 1418/6/4
f 1413/6/4 1414/6/4 1419/6/4
f 1412/6/4 1413/6/4 1419/6/4
f 1409/6/4 1418/6/4 1420/6/4
f 1418/6/4 1419/6/4 1420/6/4
f 1414/8/4 1415/8/4 1421/8/4
f 1420/6/4 1419/6/4 1421/6/4
f 1419/6/4 1414/6/4 1421/6/4
f 1421/8/4 1415/8/4 1422/8/4
f 1423/8/4 1424/8/4 1427/8/4
f 1427/8/4 1424/8/4 1428/8/4
f 1425/6/4 1426/6/4 1432/6/4
f 1426/8/4 1427/8/4 1433/8/4
f 1432/6/4 1426/6/4 1433/6/4
f 1433/8/4 1427/8/4 1434/8/4
f 1428/8/4 1429/8/4 1435/8/4
f 1429/6/4 1430/6/4 1436/6/4
f 1435/8/4 1429/8/4 1436/8/4
f 1430/8/4 1431/8/4 1437/8/4
f 1436/6/4 1430/6/4 1437/6/4
f 1437/8/4 1431/8/4 1438/8/4
f 1434/8/4 1435/8/4 1439/8/4
f 1439/8/4 1435/8/4 1440/8/4
f 1444/6/5 1442/6/5 1441/6/5
f 1445/6/5 1442/6/5 1444/6/5
f 1448/6/5 1444/6/5 1443/6/5
f 1448/6/5 1446/6/5 1445/6/5
f 1448/6/5 1445/6/5 1444/6/5
f 1449/6/5 1446/6/5 1448/6/5
f 1452/6/5 1448/6/5 1447/6/5
f 1452/6/5 1450/6/5 1449/6/5
f 1452/6/5 1449/6/5 1448/6/5
f 1453/6/5 1450/6/5 1452/6/5
f 1456/6/5 1452/6/5 1451/6/5
f 1456/6/5 1454/6/5 1453/6/5
f 1456/6/5 1453/6/5 1452/6/5
f 1457/6/5 1454/6/5 1456/6/5
f 1460/6/5 1456/6/5 1455/6/5
f 1460/6/5 1458/6/5 1457/6/5
f 1460/6/5 1457/6/5 1456/6/5
f 1461/6/5 1458/6/5 1460/6/5
f 1464/1/5 1460/1/5 1459/1/5
f 1465/1/5 1462/1/5 1461/1/5
f 1467/1/5 1464/1/5 1463/1/5
f 1468/1/5 1460/1/5 1464/1/5
f 1468/1/5 1464/1/5 1467/1/5
f 1469/1/5 1466/1/5 1465/1/5
f 1469/1/5 1465/1/5 1461/1/5
f 1470/1/5 1466/1/5 1469/1/5
f 1471/1/5 1460/1/5 1468/1/5
f 1472/6/5 1461/6/5 1460/6/5
f 1472/1/5 1460/1/5 1471/1/5
f 1473/1/5 1469/1/5 1461/1/5
f 1473/6/5 1461/6/5 1472/6/5
f 1474/1/5 1469/1/5 1473/1/5
f 1475/6/5 1473/6/5 1472/6/5
f 1476/6/5 1473/6/5 1475/6/5
f 1477/6/5 1473/6/5 1476/6/5
f 1478/6/5 1473/6/5 1477/6/5
f 1479/6/5 1477/6/5 1476/6/5
f 1480/6/5 1477/6/5 1479/6/5
f 1481/6/5 1477/6/5 1480/6/5
f 1482/6/5 1477/6/5 1481/6/5
f 1483/6/5 1481/6/5 1480/6/5
f 1484/6/5 1481/6/5 1483/6/5
f 1485/6/5 1481/6/5 1484/6/5
f 1486/6/5 1481/6/5 1485/6/5
f 1487/6/5 1485/6/5 1484/6/5
f 1488/6/5 1485/6/5 1487/6/5
f 1489/6/5 1485/6/5 1488/6/5
f 1490/6/5 1485/6/5 1489/6/5
f 1491/6/5 1489/6/5 1488/6/5
f 1492/6/5 1489/6/5 1491/6/5
f 1497/8/5 1494/8/5 1493/8/5
f 1498/8/5 1494/8/5 1497/8/5
f 1499/8/5 1496/8/5 1495/8/5
f 1500/8/5 1496/8/5 1499/8/5
f 1505/8/5 1502/8/5 1501/8/5
f 1506/8/5 1502/8/5 1505/8/5
f 1507/8/5 1504/8/5 1503/8/5
f 1508/8/5 1504/8/5 1507/8/5
f 1511/8/5 1510/8/5 1509/8/5
f 1512/8/5 1510/8/5 1511/8/5
f 1515/8/5 1514/8/5 1513/8/5
f 1516/8/5 1514/8/5 1515/8/5
f 1520/3/5 1518/3/5 1517/3/5
f 1521/3/5 1518/3/5 1520/3/5
f 1523/3/5 1520/3/5 1519/3/5
f 1524/3/5 1520/3/5 1523/3/5
f 1525/3/5 1522/3/5 1521/3/5
f 1526/3/5 1522/3/5 1525/3/5
f 1527/3/5 1525/3/5 1524/3/5
f 1528/3/5 1525/3/5 1527/3/5
f 1532/3/5 1530/3/5 1529/3/5
f 1533/3/5 1530/3/5 1532/3/5
f 1534/3/5 1530/3/5 1533/3/5
f 1535/3/5 1530/3/5 1534/3/5
f 1537/3/5 1532/3/5 1531/3/5
f 1537/3/5 1533/3/5 1532/3/5
f 1538/3/5 1533/3/5 1537/3/5
f 1539/3/5 1536/3/5 1535/3/5
f 1539/3/5 1535/3/5 1534/3/5
f 1540/3/5 1536/3/5 1539/3/5
f 1541/3/5 1537/3/5 1531/3/5
f 1544/3/5 1536/3/5 1540/3/5
f 1545/3/5 1542/3/5 1541/3/5
f 1545/3/5 1541/3/5 1531/3/5
f 1546/3/5 1542/3/5 1545/3/5
f 1547/3/5 1542/3/5 1546/3/5
f 1548/3/5 1544/3/5 1543/3/5
f 1549/3/5 1536/3/5 1544/3/5
f 1549/3/5 1544/3/5 1548/3/5
f 1550/3/5 1536/3/5 1549/3/5
f 1551/3/5 1547/3/5 1546/3/5
f 1551/3/5 1548/3/5 1547/3/5
f 1551/3/5 1549/3/5 1548/3/5
f 1552/3/5 1549/3/5 1551/3/5
f 1553/1/6 1554/1/6 1557/1/6
f 1557/1/6 1554/1/6 1558/1/6
f 1555/1/6 1556/1/6 1559/1/6
f 1559/1/6 1556/1/6 1560/1/6
f 1561/1/6 1562/1/6 1567/1/6
f 1567/1/6 1562/1/6 1568/1/6
f 1563/1/6 1564/1/6 1569/1/6
f 1569/1/6 1564/1/6 1570/1/6
f 1565/1/6 1566/1/6 1571/1/6
f 1571/1/6 1566/1/6 1572/1/6
f 1573/1/6 1574/1/6 1577/1/6
f 1577/1/6 1574/1/6 1578/1/6
f 1575/1/6 1576/1/6 1579/1/6
f 1579/1/6 1576/1/6 1580/1/6
f 1581/1/6 1582/1/6 1585/1/6
f 1585/1/6 1582/1/6 1586/1/6
f 1583/1/6 1584/1/6 1587/1/6
f 1587/1/6 1584/1/6 1588/1/6
f 1589/1/6 1590/1/6 1595/1/6
f 1595/1/6 1590/1/6 1596/1/6
f 1591/1/6 1592/1/6 1597/1/6
f 1597/1/6 1592/1/6 1598/1/6
f 1593/1/6 1594/1/6 1601/1/6
f 1601/1/6 1594/1/6 1602/1/6
f 1599/1/6 1600/1/6 1607/1/6
f 1607/1/6 1600/1/6 1608/1/6
f 1603/1/6 1604/1/6 1609/1/6
f 1609/1/6 1604/1/6 1610/1/6
f 1605/1/6 1606/1/6 1611/1/6
f 1611/1/6 1606/1/6 1612/1/6
f 1613/8/6 1614/8/6 1615/8/6
f 1615/8/6 1614/8/6 1616/8/6
f 1617/1/6 1618/1/6 1623/1/6
f 1623/1/6 1618/1/6 1624/1/6
f 1619/1/6 1620/1/6 1625/1/6
f 1625/1/6 1620/1/6 1626/1/6
f 1621/1/6 1622/1/6 1629/1/6
f 1629/1/6 1622/1/6 1630/1/6
f 1627/1/6 1628/1/6 1635/1/6
f 1635/1/6 1628/1/6 1636/1/6
f 1631/1/6 1632/1/6 1637/1/6
f 1637/1/6 1632/1/6 1638/1/6
f 1633/1/6 1634/1/6 1639/1/6
f 1639/1/6 1634/1/6 1640/1/6
f 1641/8/6 1642/8/6 1643/8/6
f 1643/8/6 1642/8/6 1644/8/6
f 1645/1/6 1646/1/6 1649/1/6
f 1649/1/6 1646/1/6 1650/1/6
f 1647/1/6 1648/1/6 1651/1/6
f 1651/1/6 1648/1/6 1652/1/6
f 1653/1/6 1654/1/6 1657/1/6
f 1657/1/6 1654/1/6 1658/1/6
f 1655/1/6 1656/1/6 1659/1/6
f 1659/1/6 1656/1/6 1660/1/6
f 1661/1/6 1662/1/6 1665/1/6
f 1665/1/6 1662/1/6 1666/1/6
f 1663/1/6 1664/1/6 1667/1/6
f 1667/1/6 1664/1/6 1668/1/6
f 1669/1/6 1670/1/6 1673/1/6
f 1673/1/6 1670/1/6 1674/1/6
f 1671/1/6 1672/1/6 1675/1/6
f 1675/1/6 1672/1/6 1676/1/6
f 1677/1/6 1678/1/6 1681/1/6
f 1681/1/6 1678/1/6 1682/1/6
f 1679/1/6 1680/1/6 1683/1/6
f 1683/1/6 1680/1/6 1684/1/6
f 1685/1/6 1686/1/6 1689/1/6
f 1689/1/6 1686/1/6 1690/1/6
f 1687/1/6 1688/1/6 1691/1/6
f 1691/1/6 1688/1/6 1692/1/6
f 1693/1/6 1694/1/6 1697/1/6
f 1697/1/6 1694/1/6 1698/1/6
f 1695/1/6 1696/1/6 1699/1/6
f 1699/1/6 1696/1/6 1700/1/6
f 1701/1/6 1702/1/6 1705/1/6
f 1705/1/6 1702/1/6 1706/1/6
f 1703/1/6 1704/1/6 1707/1/6
f 1707/1/6 1704/1/6 1708/1/6
f 1709/8/6 1710/8/6 1713/8/6
f 1713/8/6 1710/8/6 1714/8/6
f 1711/8/6 1712/8/6 1715/8/6
f 1715/8/6 1712/8/6 1716/8/6
f 1717/8/6 1718/8/6 1721/8/6
f 1721/8/6 1718/8/6 1722/8/6
f 1719/8/6 1720/8/6 1723/8/6
f 1723/8/6 1720/8/6 1724/8/6
f 1725/8/6 1726/8/6 1728/8/6
f 1728/8/6 1726/8/6 1729/8/6
f 1727/8/6 1728/8/6 1732/8/6
f 1732/8/6 1728/8/6 1733/8/6
f 1733/8/6 1728/8/6 1734/8/6
f 1729/8/6 1730/8/6 1735/8/6
f 1735/8/6 1730/8/6 1736/8/6
f 1736/8/6 1730/8/6 1737/8/6
f 1731/8/6 1732/8/6 1740/8/6
f 1732/8/6 1733/8/6 1740/8/6
f 1740/8/6 1733/8/6 1741/8/6
f 1741/8/6 1733/8/6 1742/8/6
f 1737/8/6 1738/8/6 1743/8/6
f 1736/8/6 1737/8/6 1743/8/6
f 1743/8/6 1738/8/6 1744/8/6
f 1744/8/6 1738/8/6 1745/8/6
f 1740/8/6 1741/8/6 1747/8/6
f 1739/8/6 1740/8/6 1747/8/6
f 1747/8/6 1741/8/6 1748/8/6
f 1745/8/6 1746/8/6 1749/8/6
f 1744/8/6 1745/8/6 1749/8/6
f 1749/8/6 1746/8/6 1750/8/6
f 1739/8/6 1747/8/6 1752/8/6
f 1752/8/6 1747/8/6 1753/8/6
f 1750/8/6 1746/8/6 1754/8/6
f 1754/8/6 1746/8/6 1755/8/6
f 1751/8/6 1752/8/6 1757/8/6
f 1757/8/6 1752/8/6 1758/8/6
f 1755/8/6 1756/8/6 1761/8/6
f 1761/8/6 1756/8/6 1762/8/6
f 1758/8/6 1759/8/6 1763/8/6
f 1760/8/6 1761/8/6 1766/8/6
f 1763/8/6 1764/8/6 1767/8/6
f 1758/8/6 1763/8/6 1767/8/6
f 1767/8/6 1764/8/6 1768/8/6
f 1768/8/6 1764/8/6 1769/8/6
f 1765/8/6 1766/8/6 1772/8/6
f 1766/8/6 1761/8/6 1773/8/6
f 1772/8/6 1766/8/6 1773/8/6
f 1773/8/6 1761/8/6 1774/8/6
f 1769/8/6 1770/8/6 1775/8/6
f 1768/8/6 1769/8/6 1775/8/6
f 1775/8/6 1770/8/6 1776/8/6
f 1776/8/6 1770/8/6 1777/8/6
f 1771/8/6 1772/8/6 1780/8/6
f 1772/8/6 1773/8/6 1780/8/6
f 1780/8/6 1773/8/6 1781/8/6
f 1781/8/6 1773/8/6 1782/8/6
f 1777/8/6 1778/8/6 1783/8/6
f 1776/8/6 1777/8/6 1783/8/6
f 1783/8/6 1778/8/6 1784/8/6
f 1780/8/6 1781/8/6 1785/8/6
f 1779/8/6 1780/8/6 1785/8/6
f 1785/8/6 1781/8/6 1786/8/6
f 1784/8/6 1785/8/6 1787/8/6
f 1787/8/6 1785/8/6 1788/8/6
f 1789/4/6 1790/4/6 1792/4/6
f 1792/4/6 1790/4/6 1793/4/6
f 1793/4/6 1790/4/6 1794/4/6
f 1794/4/6 1790/4/6 1795/4/6
f 1791/4/6 1792/4/6 1798/4/6
f 1792/4/6 1793/4/6 1798/4/6
f 1798/4/6 1793/4/6 1799/4/6
f 1794/4/6 1795/4/6 1800/4/6
f 1795/4/6 1796/4/6 1800/4/6
f 1800/4/6 1796/4/6 1801/4/6
f 1797/4/6 1798/4/6 1804/4/6
f 1804/4/6 1798/4/6 1805/4/6
f 1801/4/6 1802/4/6 1806/4/6
f 1806/4/6 1802/4/6 1807/4/6
f 1803/4/6 1804/4/6 1810/4/6
f 1807/4/6 1808/4/6 1811/4/6
f 1809/4/6 1810/4/6 1813/4/6
f 1810/4/6 1804/4/6 1813/4/6
f 1813/4/6 1804/4/6 1814/4/6
f 1811/4/6 1812/4/6 1815/4/6
f 1807/4/6 1811/4/6 1815/4/6
f 1815/4/6 1812/4/6 1816/4/6
f 1809/4/6 1813/4/6 1817/4/6
f 1816/4/6 1812/4/6 1820/4/6
f 1817/4/6 1818/4/6 1821/4/6
f 1809/4/6 1817/4/6 1821/4/6
f 1821/4/6 1818/4/6 1822/4/6
f 1819/4/6 1820/4/6 1823/4/6
f 1820/4/6 1812/4/6 1823/4/6
f 1823/4/6 1812/4/6 1824/4/6
f 1822/4/6 1818/4/6 1825/4/6
f 1825/4/6 1818/4/6 1826/4/6
f 1819/4/6 1823/4/6 1829/4/6
f 1829/4/6 1823/4/6 1830/4/6
f 1826/4/6 1827/4/6 1831/4/6
f 1831/4/6 1827/4/6 1832/4/6
f 1828/4/6 1829/4/6 1835/4/6
f 1835/4/6 1829/4/6 1836/4/6
f 1832/4/6 1833/4/6 1837/4/6
f 1837/4/6 1833/4/6 1838/4/6
f 1838/4/6 1833/4/6 1839/4/6
f 1834/4/6 1835/4/6 1840/4/6
f 1840/4/6 1835/4/6 1841/4/6
f 1841/4/6 1835/4/6 1842/4/6
f 1838/4/6 1839/4/6 1843/4/6
f 1840/4/6 1841/4/6 1843/4/6
f 1839/4/6 1840/4/6 1843/4/6
f 1843/4/6 1841/4/6 1844/4/6
f 1845/2/6 1846/2/6 1848/2/6
f 1848/2/6 1846/2/6 1849/2/6
f 1847/2/6 1848/2/6 1852/2/6
f 1852/2/6 1848/2/6 1853/2/6
f 1849/2/6 1850/2/6 1854/2/6
f 1854/2/6 1850/2/6 1855/2/6
f 1851/2/6 1852/2/6 1858/2/6
f 1858/2/6 1852/2/6 1859/2/6
f 1855/2/6 1856/2/6 1860/2/6
f 1860/2/6 1856/2/6 1861/2/6
f 1857/2/6 1858/2/6 1863/2/6
f 1863/2/6 1858/2/6 1864/2/6
f 1861/2/6 1862/2/6 1867/2/6
f 1867/2/6 1862/2/6 1868/2/6
f 1864/2/6 1865/2/6 1869/2/6
f 1869/2/6 1865/2/6 1870/2/6
f 1866/2/6 1867/2/6 1873/2/6
f 1873/2/6 1867/2/6 1874/2/6
f 1870/2/6 1871/2/6 1875/2/6
f 1875/2/6 1871/2/6 1876/2/6
f 1872/2/6 1873/2/6 1877/2/6
f 1877/2/6 1873/2/6 1878/2/6
f 1876/2/6 1877/2/6 1879/2/6
f 1879/2/6 1877/2/6 1880/2/6
f 1881/8/6 1882/8/6 1884/8/6
f 1884/8/6 1882/8/6 1885/8/6
f 1883/8/6 1884/8/6 1887/8/6
f 1887/8/6 1884/8/6 1888/8/6
f 1885/8/6 1886/8/6 1889/8/6
f 1889/8/6 1886/8/6 1890/8/6
f 1883/8/6 1887/8/6 1892/8/6
f 1892/8/6 1887/8/6 1893/8/6
f 1890/8/6 1886/8/6 1894/8/6
f 1894/8/6 1886/8/6 1895/8/6
f 1891/8/6 1892/8/6 1897/8/6
f 1897/8/6 1892/8/6 1898/8/6
f 1895/8/6 1896/8/6 1901/8/6
f 1901/8/6 1896/8/6 1902/8/6
f 1898/8/6 1899/8/6 1903/8/6
f 1900/8/6 1901/8/6 1906/8/6
f 1903/8/6 1904/8/6 1907/8/6
f 1898/8/6 1903/8/6 1907/8/6
f 1907/8/6 1904/8/6 1908/8/6
f 1905/8/6 1906/8/6 1909/8/6
f 1906/8/6 1901/8/6 1910/8/6
f 1909/8/6 1906/8/6 1910/8/6
f 1908/8/6 1909/8/6 1911/8/6
f 1911/8/6 1909/8/6 1912/8/6
f 1913/3/6 1914/3/6 1916/3/6
f 1916/3/6 1914/3/6 1917/3/6
f 1915/3/6 1916/3/6 1920/3/6
f 1917/3/6 1918/3/6 1920/3/6
f 1916/3/6 1917/3/6 1920/3/6
f 1920/3/6 1918/3/6 1921/3/6
f 1921/3/6 1918/3/6 1922/3/6
f 1922/3/6 1918/3/6 1923/3/6
f 1919/3/6 1920/3/6 1925/3/6
f 1920/3/6 1921/3/6 1925/3/6
f 1925/3/6 1921/3/6 1926/3/6
f 1923/3/6 1924/3/6 1927/3/6
f 1922/3/6 1923/3/6 1927/3/6
f 1927/3/6 1924/3/6 1928/3/6
f 1919/3/6 1925/3/6 1929/3/6
f 1928/3/6 1924/3/6 1932/3/6
f 1929/3/6 1930/3/6 1933/3/6
f 1919/3/6 1929/3/6 1933/3/6
f 1933/3/6 1930/3/6 1934/3/6
f 1934/3/6 1930/3/6 1935/3/6
f 1931/3/6 1932/3/6 1936/3/6
f 1932/3/6 1924/3/6 1937/3/6
f 1936/3/6 1932/3/6 1937/3/6
f 1937/3/6 1924/3/6 1938/3/6
f 1934/3/6 1935/3/6 1939/3/6
f 1935/3/6 1936/3/6 1939/3/6
f 1936/3/6 1937/3/6 1939/3/6
f 1939/3/6 1937/3/6 1940/3/6
f 1940/3/6 1937/3/6 1941/3/6
f 1941/3/6 1937/3/6 1942/3/6
f 1940/3/6 1941/3/6 1943/3/6
f 1943/3/6 1941/3/6 1944/3/6
f 1945/2/6 1946/2/6 1948/2/6
f 1948/2/6 1946/2/6 1949/2/6
f 1947/2/6 1948/2/6 1951/2/6
f 1951/2/6 1948/2/6 1952/2/6
f 1949/2/6 1950/2/6 1953/2/6
f 1953/2/6 1950/2/6 1954/2/6
f 1952/2/6 1953/2/6 1955/2/6
f 1955/2/6 1953/2/6 1956/2/6
f 1957/3/6 1958/3/6 1960/3/6
f 1960/3/6 1958/3/6 1961/3/6
f 1961/3/6 1958/3/6 1962/3/6
f 1962/3/6 1958/3/6 1963/3/6
f 1959/3/6 1960/3/6 1965/3/6
f 1960/3/6 1961/3/6 1965/3/6
f 1965/3/6 1961/3/6 1966/3/6
f 1963/3/6 1964/3/6 1967/3/6
f 1962/3/6 1963/3/6 1967/3/6
f 1967/3/6 1964/3/6 1968/3/6
f 1959/3/6 1965/3/6 1969/3/6
f 1968/3/6 1964/3/6 1972/3/6
f 1969/3/6 1970/3/6 1973/3/6
f 1959/3/6 1969/3/6 1973/3/6
f 1973/3/6 1970/3/6 1974/3/6
f 1974/3/6 1970/3/6 1975/3/6
f 1971/3/6 1972/3/6 1976/3/6
f 1972/3/6 1964/3/6 1977/3/6
f 1976/3/6 1972/3/6 1977/3/6
f 1977/3/6 1964/3/6 1978/3/6
f 1974/3/6 1975/3/6 1979/3/6
f 1975/3/6 1976/3/6 1979/3/6
f 1976/3/6 1977/3/6 1979/3/6
f 1979/3/6 1977/3/6 1980/3/6
f 1981/3/6 1982/3/6 1984/3/6
f 1984/3/6 1982/3/6 1985/3/6
f 1983/3/6 1984/3/6 1987/3/6
f 1985/3/6 1986/3/6 1987/3/6
f 1984/3/6 1985/3/6 1987/3/6
f 1987/3/6 1986/3/6 1988/3/6
f 1988/3/6 1986/3/6 1989/3/6
f 1989/3/6 1986/3/6 1990/3/6
f 1988/3/6 1989/3/6 1991/3/6
f 1991/3/6 1989/3/6 1992/3/6
