# MagicaVoxel @ Ephtracy

# group
o 

# material
mtllib energia nuclear.mtl
usemtl palette

# normals
vn -1 0 0
vn 1 0 0
vn 0 0 1
vn 0 0 -1
vn 0 -1 0
vn 0 1 0

# texcoords
vt 0.326172 0.5
vt 0.330078 0.5
vt 0.333984 0.5
vt 0.337891 0.5
vt 0.638672 0.5
vt 0.916016 0.5
vt 0.923828 0.5

# verts
v -5.4 5.6 6.8
v -5.4 5.6 6.2
v -5.4 5.7 6.8
v -5.4 5.7 6.2
v -5.3 5.6 6.9
v -5.3 5.6 6.8
v -5.3 5.6 6.2
v -5.3 5.6 6.1
v -5.3 5.7 6.9
v -5.3 5.7 6.8
v -5.3 5.7 6.2
v -5.3 5.7 6.1
v -5.2 5.6 7
v -5.2 5.6 6.9
v -5.2 5.6 6.1
v -5.2 5.6 6
v -5.2 5.7 7
v -5.2 5.7 6.9
v -5.2 5.7 6.8
v -5.2 5.7 6.2
v -5.2 5.7 6.1
v -5.2 5.7 6
v -5.2 9.9 6.8
v -5.2 9.9 6.2
v -5.1 5.6 7.1
v -5.1 5.6 7
v -5.1 5.6 6
v -5.1 5.6 5.9
v -5.1 5.7 7.1
v -5.1 5.7 7
v -5.1 5.7 6
v -5.1 5.7 5.9
v -5.1 9.9 6.8
v -5.1 9.9 6.2
v -5.1 10 6.8
v -5.1 10 6.2
v -5 10.2 6.6
v -5 10.2 6.4
v -5 10.3 6.6
v -5 10.3 6.4
v -5 10.7 6.6
v -5 10.7 6.4
v -5 10.8 6.6
v -5 10.8 6.4
v -4.9 10.3 6.6
v -4.9 10.3 6.4
v -4.9 10.5 6.6
v -4.9 10.5 6.4
v -4.9 10.8 6.6
v -4.9 10.8 6.4
v -4.9 10.9 6.6
v -4.9 10.9 6.4
v -4.8 10.5 6.6
v -4.8 10.5 6.4
v -4.8 10.6 6.6
v -4.8 10.6 6.4
v -4.8 10.9 6.6
v -4.8 10.9 6.4
v -4.8 11 6.6
v -4.8 11 6.4
v -4.7 10.6 6.6
v -4.7 10.6 6.4
v -4.7 10.7 6.6
v -4.7 10.7 6.4
v -4.7 11 6.6
v -4.7 11 6.4
v -4.7 11.1 6.6
v -4.7 11.1 6.4
v -4.6 5.7 6.8
v -4.6 5.7 6.7
v -4.6 5.7 6.3
v -4.6 5.7 6.2
v -4.6 6.8 6.7
v -4.6 6.8 6.3
v -4.6 7.9 6.7
v -4.6 7.9 6.3
v -4.6 9 6.7
v -4.6 9 6.3
v -4.6 9.8 6.8
v -4.6 9.8 6.7
v -4.6 9.8 6.3
v -4.6 9.8 6.2
v -4.6 11.1 6.6
v -4.6 11.1 6.4
v -4.6 11.2 6.6
v -4.6 11.2 6.4
v -4.5 11.2 6.6
v -4.5 11.2 6.4
v -4.5 11.3 6.6
v -4.5 11.3 6.4
v -4.4 11.3 6.6
v -4.4 11.3 6.4
v -4.4 11.4 6.6
v -4.4 11.4 6.4
v -5 5.7 6.8
v -5 5.7 6.7
v -5 5.7 6.3
v -5 5.7 6.2
v -5 6.5 6.7
v -5 6.5 6.3
v -5 7.6 6.7
v -5 7.6 6.3
v -5 8.7 6.7
v -5 8.7 6.3
v -5 9.8 6.8
v -5 9.8 6.7
v -5 9.8 6.3
v -5 9.8 6.2
v -4.8 10.2 6.6
v -4.8 10.2 6.4
v -4.8 10.3 6.6
v -4.8 10.3 6.4
v -4.7 10.3 6.6
v -4.7 10.3 6.4
v -4.7 10.4 6.6
v -4.7 10.4 6.4
v -4.6 10.4 6.6
v -4.6 10.4 6.4
v -4.6 10.5 6.6
v -4.6 10.5 6.4
v -4.6 10.8 6.6
v -4.6 10.8 6.4
v -4.6 10.9 6.6
v -4.6 10.9 6.4
v -4.5 5.6 7.1
v -4.5 5.6 7
v -4.5 5.6 6
v -4.5 5.6 5.9
v -4.5 5.7 7.1
v -4.5 5.7 7
v -4.5 5.7 6
v -4.5 5.7 5.9
v -4.5 9.9 6.8
v -4.5 9.9 6.2
v -4.5 10 6.8
v -4.5 10 6.2
v -4.5 10.5 6.6
v -4.5 10.5 6.4
v -4.5 10.6 6.6
v -4.5 10.6 6.4
v -4.5 10.9 6.6
v -4.5 10.9 6.4
v -4.5 11 6.6
v -4.5 11 6.4
v -4.4 5.6 7
v -4.4 5.6 6.9
v -4.4 5.6 6.1
v -4.4 5.6 6
v -4.4 5.7 7
v -4.4 5.7 6.9
v -4.4 5.7 6.8
v -4.4 5.7 6.2
v -4.4 5.7 6.1
v -4.4 5.7 6
v -4.4 9.9 6.8
v -4.4 9.9 6.2
v -4.4 10.6 6.6
v -4.4 10.6 6.4
v -4.4 10.7 6.6
v -4.4 10.7 6.4
v -4.4 11 6.6
v -4.4 11 6.4
v -4.4 11.2 6.6
v -4.4 11.2 6.4
v -4.3 5.6 6.9
v -4.3 5.6 6.8
v -4.3 5.6 6.2
v -4.3 5.6 6.1
v -4.3 5.7 6.9
v -4.3 5.7 6.8
v -4.3 5.7 6.2
v -4.3 5.7 6.1
v -4.3 10.7 6.6
v -4.3 10.7 6.4
v -4.3 10.8 6.6
v -4.3 10.8 6.4
v -4.3 11.2 6.6
v -4.3 11.2 6.4
v -4.3 11.4 6.6
v -4.3 11.4 6.4
v -4.2 5.6 6.8
v -4.2 5.6 6.2
v -4.2 5.7 6.8
v -4.2 5.7 6.2
v -5.1 5.6 7.1
v -5.1 5.7 7.1
v -4.5 5.6 7.1
v -4.5 5.7 7.1
v -5.2 5.6 7
v -5.2 5.7 7
v -5.1 5.6 7
v -5.1 5.7 7
v -4.5 5.6 7
v -4.5 5.7 7
v -4.4 5.6 7
v -4.4 5.7 7
v -5.3 5.6 6.9
v -5.3 5.7 6.9
v -5.2 5.6 6.9
v -5.2 5.7 6.9
v -4.4 5.6 6.9
v -4.4 5.7 6.9
v -4.3 5.6 6.9
v -4.3 5.7 6.9
v -5.4 5.6 6.8
v -5.4 5.7 6.8
v -5.3 5.6 6.8
v -5.3 5.7 6.8
v -5.2 5.7 6.8
v -5.2 9.9 6.8
v -5.1 5.7 6.8
v -5.1 9.9 6.8
v -5.1 10 6.8
v -5 5.7 6.8
v -5 9.8 6.8
v -4.6 5.7 6.8
v -4.6 9.8 6.8
v -4.5 5.7 6.8
v -4.5 9.9 6.8
v -4.5 10 6.8
v -4.4 5.7 6.8
v -4.4 9.9 6.8
v -4.3 5.6 6.8
v -4.3 5.7 6.8
v -4.2 5.6 6.8
v -4.2 5.7 6.8
v -5 5.7 6.7
v -5 6.5 6.7
v -5 7.6 6.7
v -5 8.7 6.7
v -5 9.8 6.7
v -4.9 6.5 6.7
v -4.9 6.6 6.7
v -4.9 7.6 6.7
v -4.9 7.7 6.7
v -4.9 8.7 6.7
v -4.9 8.8 6.7
v -4.8 6.6 6.7
v -4.8 6.7 6.7
v -4.8 7.7 6.7
v -4.8 7.8 6.7
v -4.8 8.8 6.7
v -4.8 8.9 6.7
v -4.7 6.7 6.7
v -4.7 6.8 6.7
v -4.7 7.8 6.7
v -4.7 7.9 6.7
v -4.7 8.9 6.7
v -4.7 9 6.7
v -4.6 5.7 6.7
v -4.6 6.8 6.7
v -4.6 7.9 6.7
v -4.6 9 6.7
v -4.6 9.8 6.7
v -5 10.2 6.6
v -5 10.3 6.6
v -5 10.7 6.6
v -5 10.8 6.6
v -4.9 10.3 6.6
v -4.9 10.5 6.6
v -4.9 10.8 6.6
v -4.9 10.9 6.6
v -4.8 10.2 6.6
v -4.8 10.3 6.6
v -4.8 10.5 6.6
v -4.8 10.6 6.6
v -4.8 10.9 6.6
v -4.8 11 6.6
v -4.7 10.3 6.6
v -4.7 10.4 6.6
v -4.7 10.6 6.6
v -4.7 10.7 6.6
v -4.7 11 6.6
v -4.7 11.1 6.6
v -4.6 10.4 6.6
v -4.6 10.5 6.6
v -4.6 10.8 6.6
v -4.6 10.9 6.6
v -4.6 11.1 6.6
v -4.6 11.2 6.6
v -4.5 10.5 6.6
v -4.5 10.6 6.6
v -4.5 10.9 6.6
v -4.5 11 6.6
v -4.5 11.2 6.6
v -4.5 11.3 6.6
v -4.4 10.6 6.6
v -4.4 10.7 6.6
v -4.4 11 6.6
v -4.4 11.2 6.6
v -4.4 11.3 6.6
v -4.4 11.4 6.6
v -4.3 10.7 6.6
v -4.3 10.8 6.6
v -4.3 11.2 6.6
v -4.3 11.4 6.6
v -5 10.2 6.4
v -5 10.3 6.4
v -5 10.7 6.4
v -5 10.8 6.4
v -4.9 10.3 6.4
v -4.9 10.5 6.4
v -4.9 10.8 6.4
v -4.9 10.9 6.4
v -4.8 10.2 6.4
v -4.8 10.3 6.4
v -4.8 10.5 6.4
v -4.8 10.6 6.4
v -4.8 10.9 6.4
v -4.8 11 6.4
v -4.7 10.3 6.4
v -4.7 10.4 6.4
v -4.7 10.6 6.4
v -4.7 10.7 6.4
v -4.7 11 6.4
v -4.7 11.1 6.4
v -4.6 10.4 6.4
v -4.6 10.5 6.4
v -4.6 10.8 6.4
v -4.6 10.9 6.4
v -4.6 11.1 6.4
v -4.6 11.2 6.4
v -4.5 10.5 6.4
v -4.5 10.6 6.4
v -4.5 10.9 6.4
v -4.5 11 6.4
v -4.5 11.2 6.4
v -4.5 11.3 6.4
v -4.4 10.6 6.4
v -4.4 10.7 6.4
v -4.4 11 6.4
v -4.4 11.2 6.4
v -4.4 11.3 6.4
v -4.4 11.4 6.4
v -4.3 10.7 6.4
v -4.3 10.8 6.4
v -4.3 11.2 6.4
v -4.3 11.4 6.4
v -5 5.7 6.3
v -5 6.5 6.3
v -5 7.6 6.3
v -5 8.7 6.3
v -5 9.8 6.3
v -4.9 6.5 6.3
v -4.9 6.6 6.3
v -4.9 7.6 6.3
v -4.9 7.7 6.3
v -4.9 8.7 6.3
v -4.9 8.8 6.3
v -4.8 6.6 6.3
v -4.8 6.7 6.3
v -4.8 7.7 6.3
v -4.8 7.8 6.3
v -4.8 8.8 6.3
v -4.8 8.9 6.3
v -4.7 6.7 6.3
v -4.7 6.8 6.3
v -4.7 7.8 6.3
v -4.7 7.9 6.3
v -4.7 8.9 6.3
v -4.7 9 6.3
v -4.6 5.7 6.3
v -4.6 6.8 6.3
v -4.6 7.9 6.3
v -4.6 9 6.3
v -4.6 9.8 6.3
v -5.4 5.6 6.2
v -5.4 5.7 6.2
v -5.3 5.6 6.2
v -5.3 5.7 6.2
v -5.2 5.7 6.2
v -5.2 9.9 6.2
v -5.1 5.7 6.2
v -5.1 9.9 6.2
v -5.1 10 6.2
v -5 5.7 6.2
v -5 9.8 6.2
v -4.6 5.7 6.2
v -4.6 9.8 6.2
v -4.5 5.7 6.2
v -4.5 9.9 6.2
v -4.5 10 6.2
v -4.4 5.7 6.2
v -4.4 9.9 6.2
v -4.3 5.6 6.2
v -4.3 5.7 6.2
v -4.2 5.6 6.2
v -4.2 5.7 6.2
v -5.3 5.6 6.1
v -5.3 5.7 6.1
v -5.2 5.6 6.1
v -5.2 5.7 6.1
v -4.4 5.6 6.1
v -4.4 5.7 6.1
v -4.3 5.6 6.1
v -4.3 5.7 6.1
v -5.2 5.6 6
v -5.2 5.7 6
v -5.1 5.6 6
v -5.1 5.7 6
v -4.5 5.6 6
v -4.5 5.7 6
v -4.4 5.6 6
v -4.4 5.7 6
v -5.1 5.6 5.9
v -5.1 5.7 5.9
v -4.5 5.6 5.9
v -4.5 5.7 5.9
v -5.1 5.6 7.1
v -4.5 5.6 7.1
v -5.2 5.6 7
v -5.1 5.6 7
v -4.5 5.6 7
v -4.4 5.6 7
v -5.3 5.6 6.9
v -5.2 5.6 6.9
v -4.4 5.6 6.9
v -4.3 5.6 6.9
v -5.4 5.6 6.8
v -5.3 5.6 6.8
v -5.1 5.6 6.8
v -5 5.6 6.8
v -4.6 5.6 6.8
v -4.5 5.6 6.8
v -4.3 5.6 6.8
v -4.2 5.6 6.8
v -5 5.6 6.7
v -4.6 5.6 6.7
v -5 5.6 6.6
v -4.6 5.6 6.6
v -5 5.6 6.3
v -4.6 5.6 6.3
v -5.4 5.6 6.2
v -5.3 5.6 6.2
v -5.1 5.6 6.2
v -5 5.6 6.2
v -4.6 5.6 6.2
v -4.5 5.6 6.2
v -4.3 5.6 6.2
v -4.2 5.6 6.2
v -5.3 5.6 6.1
v -5.2 5.6 6.1
v -4.4 5.6 6.1
v -4.3 5.6 6.1
v -5.2 5.6 6
v -5.1 5.6 6
v -4.5 5.6 6
v -4.4 5.6 6
v -5.1 5.6 5.9
v -4.5 5.6 5.9
v -5 9.8 6.8
v -4.6 9.8 6.8
v -5 9.8 6.7
v -4.6 9.8 6.7
v -5 9.8 6.3
v -4.6 9.8 6.3
v -5 9.8 6.2
v -4.6 9.8 6.2
v -5 10.2 6.6
v -4.8 10.2 6.6
v -5 10.2 6.4
v -4.8 10.2 6.4
v -4.8 10.3 6.6
v -4.7 10.3 6.6
v -4.8 10.3 6.4
v -4.7 10.3 6.4
v -4.7 10.4 6.6
v -4.6 10.4 6.6
v -4.7 10.4 6.4
v -4.6 10.4 6.4
v -4.6 10.5 6.6
v -4.5 10.5 6.6
v -4.6 10.5 6.4
v -4.5 10.5 6.4
v -4.5 10.6 6.6
v -4.4 10.6 6.6
v -4.5 10.6 6.4
v -4.4 10.6 6.4
v -5 10.7 6.6
v -4.7 10.7 6.6
v -4.4 10.7 6.6
v -4.3 10.7 6.6
v -5 10.7 6.4
v -4.7 10.7 6.4
v -4.4 10.7 6.4
v -4.3 10.7 6.4
v -4.6 10.9 6.6
v -4.5 10.9 6.6
v -4.6 10.9 6.4
v -4.5 10.9 6.4
v -4.5 11 6.6
v -4.4 11 6.6
v -4.5 11 6.4
v -4.4 11 6.4
v -4.4 11.2 6.6
v -4.3 11.2 6.6
v -4.4 11.2 6.4
v -4.3 11.2 6.4
v -5.1 5.7 7.1
v -4.5 5.7 7.1
v -5.2 5.7 7
v -5.1 5.7 7
v -4.5 5.7 7
v -4.4 5.7 7
v -5.3 5.7 6.9
v -5.2 5.7 6.9
v -4.4 5.7 6.9
v -4.3 5.7 6.9
v -5.4 5.7 6.8
v -5.3 5.7 6.8
v -5.2 5.7 6.8
v -5.1 5.7 6.8
v -5 5.7 6.8
v -4.6 5.7 6.8
v -4.5 5.7 6.8
v -4.4 5.7 6.8
v -4.3 5.7 6.8
v -4.2 5.7 6.8
v -5 5.7 6.7
v -4.6 5.7 6.7
v -5 5.7 6.3
v -4.6 5.7 6.3
v -5.4 5.7 6.2
v -5.3 5.7 6.2
v -5.2 5.7 6.2
v -5.1 5.7 6.2
v -5 5.7 6.2
v -4.6 5.7 6.2
v -4.5 5.7 6.2
v -4.4 5.7 6.2
v -4.3 5.7 6.2
v -4.2 5.7 6.2
v -5.3 5.7 6.1
v -5.2 5.7 6.1
v -4.4 5.7 6.1
v -4.3 5.7 6.1
v -5.2 5.7 6
v -5.1 5.7 6
v -4.5 5.7 6
v -4.4 5.7 6
v -5.1 5.7 5.9
v -4.5 5.7 5.9
v -5.2 9.9 6.8
v -5.1 9.9 6.8
v -4.5 9.9 6.8
v -4.4 9.9 6.8
v -5.2 9.9 6.2
v -5.1 9.9 6.2
v -4.5 9.9 6.2
v -4.4 9.9 6.2
v -5.1 10 6.8
v -4.5 10 6.8
v -5.1 10 6.2
v -4.5 10 6.2
v -5 10.3 6.6
v -4.9 10.3 6.6
v -5 10.3 6.4
v -4.9 10.3 6.4
v -4.9 10.5 6.6
v -4.8 10.5 6.6
v -4.9 10.5 6.4
v -4.8 10.5 6.4
v -4.8 10.6 6.6
v -4.7 10.6 6.6
v -4.8 10.6 6.4
v -4.7 10.6 6.4
v -5 10.8 6.6
v -4.9 10.8 6.6
v -4.6 10.8 6.6
v -4.3 10.8 6.6
v -5 10.8 6.4
v -4.9 10.8 6.4
v -4.6 10.8 6.4
v -4.3 10.8 6.4
v -4.9 10.9 6.6
v -4.8 10.9 6.6
v -4.9 10.9 6.4
v -4.8 10.9 6.4
v -4.8 11 6.6
v -4.7 11 6.6
v -4.8 11 6.4
v -4.7 11 6.4
v -4.7 11.1 6.6
v -4.6 11.1 6.6
v -4.7 11.1 6.4
v -4.6 11.1 6.4
v -4.6 11.2 6.6
v -4.5 11.2 6.6
v -4.6 11.2 6.4
v -4.5 11.2 6.4
v -4.5 11.3 6.6
v -4.4 11.3 6.6
v -4.5 11.3 6.4
v -4.4 11.3 6.4
v -4.4 11.4 6.6
v -4.3 11.4 6.6
v -4.4 11.4 6.4
v -4.3 11.4 6.4

# faces
f 3/6/1 2/6/1 1/6/1
f 4/6/1 2/6/1 3/6/1
f 9/6/1 6/6/1 5/6/1
f 10/6/1 6/6/1 9/6/1
f 11/6/1 8/6/1 7/6/1
f 12/6/1 8/6/1 11/6/1
f 17/6/1 14/6/1 13/6/1
f 18/6/1 14/6/1 17/6/1
f 21/6/1 16/6/1 15/6/1
f 22/6/1 16/6/1 21/6/1
f 23/6/1 20/6/1 19/6/1
f 24/6/1 20/6/1 23/6/1
f 29/6/1 26/6/1 25/6/1
f 30/6/1 26/6/1 29/6/1
f 31/6/1 28/6/1 27/6/1
f 32/6/1 28/6/1 31/6/1
f 35/6/1 34/6/1 33/6/1
f 36/6/1 34/6/1 35/6/1
f 39/4/1 38/4/1 37/4/1
f 40/4/1 38/4/1 39/4/1
f 43/4/1 42/4/1 41/4/1
f 44/4/1 42/4/1 43/4/1
f 47/4/1 46/4/1 45/4/1
f 48/4/1 46/4/1 47/4/1
f 51/4/1 50/4/1 49/4/1
f 52/4/1 50/4/1 51/4/1
f 55/4/1 54/4/1 53/4/1
f 56/4/1 54/4/1 55/4/1
f 59/4/1 58/4/1 57/4/1
f 60/4/1 58/4/1 59/4/1
f 63/4/1 62/4/1 61/4/1
f 64/4/1 62/4/1 63/4/1
f 67/4/1 66/4/1 65/4/1
f 68/4/1 66/4/1 67/4/1
f 73/7/1 70/7/1 69/7/1
f 74/7/1 72/7/1 71/7/1
f 75/7/1 73/7/1 69/7/1
f 76/7/1 72/7/1 74/7/1
f 77/7/1 75/7/1 69/7/1
f 78/7/1 72/7/1 76/7/1
f 79/7/1 77/7/1 69/7/1
f 80/7/1 77/7/1 79/7/1
f 81/7/1 72/7/1 78/7/1
f 82/7/1 72/7/1 81/7/1
f 85/4/1 84/4/1 83/4/1
f 86/4/1 84/4/1 85/4/1
f 89/4/1 88/4/1 87/4/1
f 90/4/1 88/4/1 89/4/1
f 93/4/1 92/4/1 91/4/1
f 94/4/1 92/4/1 93/4/1
f 95/7/2 96/7/2 99/7/2
f 97/7/2 98/7/2 100/7/2
f 95/7/2 99/7/2 101/7/2
f 100/7/2 98/7/2 102/7/2
f 95/7/2 101/7/2 103/7/2
f 102/7/2 98/7/2 104/7/2
f 95/7/2 103/7/2 105/7/2
f 105/7/2 103/7/2 106/7/2
f 104/7/2 98/7/2 107/7/2
f 107/7/2 98/7/2 108/7/2
f 109/4/2 110/4/2 111/4/2
f 111/4/2 110/4/2 112/4/2
f 113/4/2 114/4/2 115/4/2
f 115/4/2 114/4/2 116/4/2
f 117/4/2 118/4/2 119/4/2
f 119/4/2 118/4/2 120/4/2
f 121/4/2 122/4/2 123/4/2
f 123/4/2 122/4/2 124/4/2
f 125/6/2 126/6/2 129/6/2
f 129/6/2 126/6/2 130/6/2
f 127/6/2 128/6/2 131/6/2
f 131/6/2 128/6/2 132/6/2
f 133/6/2 134/6/2 135/6/2
f 135/6/2 134/6/2 136/6/2
f 137/4/2 138/4/2 139/4/2
f 139/4/2 138/4/2 140/4/2
f 141/4/2 142/4/2 143/4/2
f 143/4/2 142/4/2 144/4/2
f 145/6/2 146/6/2 149/6/2
f 149/6/2 146/6/2 150/6/2
f 147/6/2 148/6/2 153/6/2
f 153/6/2 148/6/2 154/6/2
f 151/6/2 152/6/2 155/6/2
f 155/6/2 152/6/2 156/6/2
f 157/4/2 158/4/2 159/4/2
f 159/4/2 158/4/2 160/4/2
f 161/4/2 162/4/2 163/4/2
f 163/4/2 162/4/2 164/4/2
f 165/6/2 166/6/2 169/6/2
f 169/6/2 166/6/2 170/6/2
f 167/6/2 168/6/2 171/6/2
f 171/6/2 168/6/2 172/6/2
f 173/4/2 174/4/2 175/4/2
f 175/4/2 174/4/2 176/4/2
f 177/4/2 178/4/2 179/4/2
f 179/4/2 178/4/2 180/4/2
f 181/6/2 182/6/2 183/6/2
f 183/6/2 182/6/2 184/6/2
f 187/6/3 186/6/3 185/6/3
f 188/6/3 186/6/3 187/6/3
f 191/6/3 190/6/3 189/6/3
f 192/6/3 190/6/3 191/6/3
f 195/6/3 194/6/3 193/6/3
f 196/6/3 194/6/3 195/6/3
f 199/6/3 198/6/3 197/6/3
f 200/6/3 198/6/3 199/6/3
f 203/6/3 202/6/3 201/6/3
f 204/6/3 202/6/3 203/6/3
f 207/6/3 206/6/3 205/6/3
f 208/6/3 206/6/3 207/6/3
f 211/6/3 210/6/3 209/6/3
f 212/6/3 210/6/3 211/6/3
f 214/7/3 212/7/3 211/7/3
f 215/7/3 212/7/3 214/7/3
f 217/7/3 212/7/3 215/7/3
f 218/7/3 217/7/3 216/7/3
f 219/6/3 213/6/3 212/6/3
f 219/7/3 217/7/3 218/7/3
f 219/7/3 212/7/3 217/7/3
f 220/6/3 213/6/3 219/6/3
f 221/6/3 219/6/3 218/6/3
f 222/6/3 219/6/3 221/6/3
f 225/6/3 224/6/3 223/6/3
f 226/6/3 224/6/3 225/6/3
f 232/1/3 228/1/3 227/1/3
f 232/2/3 229/2/3 228/2/3
f 233/2/3 229/2/3 232/2/3
f 234/3/3 230/3/3 229/3/3
f 234/2/3 229/2/3 233/2/3
f 235/3/3 230/3/3 234/3/3
f 236/4/3 231/4/3 230/4/3
f 236/3/3 230/3/3 235/3/3
f 237/4/3 231/4/3 236/4/3
f 238/2/3 235/2/3 234/2/3
f 238/1/3 233/1/3 232/1/3
f 238/2/3 234/2/3 233/2/3
f 239/2/3 235/2/3 238/2/3
f 240/3/3 237/3/3 236/3/3
f 240/2/3 235/2/3 239/2/3
f 240/3/3 236/3/3 235/3/3
f 241/3/3 237/3/3 240/3/3
f 242/4/3 231/4/3 237/4/3
f 242/3/3 237/3/3 241/3/3
f 243/4/3 231/4/3 242/4/3
f 244/2/3 241/2/3 240/2/3
f 244/1/3 239/1/3 238/1/3
f 244/2/3 240/2/3 239/2/3
f 245/2/3 241/2/3 244/2/3
f 246/3/3 243/3/3 242/3/3
f 246/2/3 241/2/3 245/2/3
f 246/3/3 242/3/3 241/3/3
f 247/3/3 243/3/3 246/3/3
f 248/4/3 231/4/3 243/4/3
f 248/3/3 243/3/3 247/3/3
f 249/4/3 231/4/3 248/4/3
f 250/1/3 245/1/3 244/1/3
f 250/1/3 232/1/3 227/1/3
f 250/1/3 238/1/3 232/1/3
f 250/1/3 244/1/3 238/1/3
f 251/2/3 247/2/3 246/2/3
f 251/1/3 245/1/3 250/1/3
f 251/2/3 246/2/3 245/2/3
f 252/3/3 249/3/3 248/3/3
f 252/2/3 247/2/3 251/2/3
f 252/3/3 248/3/3 247/3/3
f 253/4/3 231/4/3 249/4/3
f 253/3/3 249/3/3 252/3/3
f 254/4/3 231/4/3 253/4/3
f 259/4/3 256/4/3 255/4/3
f 261/4/3 258/4/3 257/4/3
f 263/4/3 260/4/3 259/4/3
f 263/4/3 259/4/3 255/4/3
f 264/4/3 260/4/3 263/4/3
f 265/4/3 260/4/3 264/4/3
f 267/4/3 262/4/3 261/4/3
f 269/4/3 266/4/3 265/4/3
f 269/4/3 265/4/3 264/4/3
f 270/4/3 266/4/3 269/4/3
f 271/4/3 266/4/3 270/4/3
f 272/4/3 268/4/3 267/4/3
f 272/4/3 261/4/3 257/4/3
f 272/4/3 267/4/3 261/4/3
f 273/4/3 268/4/3 272/4/3
f 275/4/3 271/4/3 270/4/3
f 275/4/3 274/4/3 273/4/3
f 275/4/3 273/4/3 272/4/3
f 275/4/3 272/4/3 271/4/3
f 276/4/3 274/4/3 275/4/3
f 277/4/3 274/4/3 276/4/3
f 278/4/3 274/4/3 277/4/3
f 279/4/3 274/4/3 278/4/3
f 281/4/3 277/4/3 276/4/3
f 282/4/3 277/4/3 281/4/3
f 283/4/3 280/4/3 279/4/3
f 283/4/3 279/4/3 278/4/3
f 284/4/3 280/4/3 283/4/3
f 285/4/3 280/4/3 284/4/3
f 287/4/3 277/4/3 282/4/3
f 288/4/3 277/4/3 287/4/3
f 289/4/3 286/4/3 285/4/3
f 289/4/3 285/4/3 284/4/3
f 290/4/3 286/4/3 289/4/3
f 291/4/3 286/4/3 290/4/3
f 293/4/3 277/4/3 288/4/3
f 294/4/3 277/4/3 293/4/3
f 295/4/3 292/4/3 291/4/3
f 295/4/3 291/4/3 290/4/3
f 296/4/3 292/4/3 295/4/3
f 297/4/4 298/4/4 301/4/4
f 299/4/4 300/4/4 303/4/4
f 301/4/4 302/4/4 305/4/4
f 297/4/4 301/4/4 305/4/4
f 305/4/4 302/4/4 306/4/4
f 306/4/4 302/4/4 307/4/4
f 303/4/4 304/4/4 309/4/4
f 307/4/4 308/4/4 311/4/4
f 306/4/4 307/4/4 311/4/4
f 311/4/4 308/4/4 312/4/4
f 312/4/4 308/4/4 313/4/4
f 309/4/4 310/4/4 314/4/4
f 299/4/4 303/4/4 314/4/4
f 303/4/4 309/4/4 314/4/4
f 314/4/4 310/4/4 315/4/4
f 312/4/4 313/4/4 317/4/4
f 315/4/4 316/4/4 317/4/4
f 314/4/4 315/4/4 317/4/4
f 313/4/4 314/4/4 317/4/4
f 317/4/4 316/4/4 318/4/4
f 318/4/4 316/4/4 319/4/4
f 319/4/4 316/4/4 320/4/4
f 320/4/4 316/4/4 321/4/4
f 318/4/4 319/4/4 323/4/4
f 323/4/4 319/4/4 324/4/4
f 321/4/4 322/4/4 325/4/4
f 320/4/4 321/4/4 325/4/4
f 325/4/4 322/4/4 326/4/4
f 326/4/4 322/4/4 327/4/4
f 324/4/4 319/4/4 329/4/4
f 329/4/4 319/4/4 330/4/4
f 327/4/4 328/4/4 331/4/4
f 326/4/4 327/4/4 331/4/4
f 331/4/4 328/4/4 332/4/4
f 332/4/4 328/4/4 333/4/4
f 330/4/4 319/4/4 335/4/4
f 335/4/4 319/4/4 336/4/4
f 333/4/4 334/4/4 337/4/4
f 332/4/4 333/4/4 337/4/4
f 337/4/4 334/4/4 338/4/4
f 339/1/4 340/1/4 344/1/4
f 340/2/4 341/2/4 344/2/4
f 344/2/4 341/2/4 345/2/4
f 341/3/4 342/3/4 346/3/4
f 345/2/4 341/2/4 346/2/4
f 346/3/4 342/3/4 347/3/4
f 342/4/4 343/4/4 348/4/4
f 347/3/4 342/3/4 348/3/4
f 348/4/4 343/4/4 349/4/4
f 346/2/4 347/2/4 350/2/4
f 344/1/4 345/1/4 350/1/4
f 345/2/4 346/2/4 350/2/4
f 350/2/4 347/2/4 351/2/4
f 348/3/4 349/3/4 352/3/4
f 351/2/4 347/2/4 352/2/4
f 347/3/4 348/3/4 352/3/4
f 352/3/4 349/3/4 353/3/4
f 349/4/4 343/4/4 354/4/4
f 353/3/4 349/3/4 354/3/4
f 354/4/4 343/4/4 355/4/4
f 352/2/4 353/2/4 356/2/4
f 350/1/4 351/1/4 356/1/4
f 351/2/4 352/2/4 356/2/4
f 356/2/4 353/2/4 357/2/4
f 354/3/4 355/3/4 358/3/4
f 357/2/4 353/2/4 358/2/4
f 353/3/4 354/3/4 358/3/4
f 358/3/4 355/3/4 359/3/4
f 355/4/4 343/4/4 360/4/4
f 359/3/4 355/3/4 360/3/4
f 360/4/4 343/4/4 361/4/4
f 356/1/4 357/1/4 362/1/4
f 339/1/4 344/1/4 362/1/4
f 344/1/4 350/1/4 362/1/4
f 350/1/4 356/1/4 362/1/4
f 358/2/4 359/2/4 363/2/4
f 362/1/4 357/1/4 363/1/4
f 357/2/4 358/2/4 363/2/4
f 360/3/4 361/3/4 364/3/4
f 363/2/4 359/2/4 364/2/4
f 359/3/4 360/3/4 364/3/4
f 361/4/4 343/4/4 365/4/4
f 364/3/4 361/3/4 365/3/4
f 365/4/4 343/4/4 366/4/4
f 367/6/4 368/6/4 369/6/4
f 369/6/4 368/6/4 370/6/4
f 371/6/4 372/6/4 373/6/4
f 373/6/4 372/6/4 374/6/4
f 373/7/4 374/7/4 376/7/4
f 376/7/4 374/7/4 377/7/4
f 377/7/4 374/7/4 379/7/4
f 378/7/4 379/7/4 380/7/4
f 374/6/4 375/6/4 381/6/4
f 380/7/4 379/7/4 381/7/4
f 379/7/4 374/7/4 381/7/4
f 381/6/4 375/6/4 382/6/4
f 380/6/4 381/6/4 383/6/4
f 383/6/4 381/6/4 384/6/4
f 385/6/4 386/6/4 387/6/4
f 387/6/4 386/6/4 388/6/4
f 389/6/4 390/6/4 391/6/4
f 391/6/4 390/6/4 392/6/4
f 393/6/4 394/6/4 395/6/4
f 395/6/4 394/6/4 396/6/4
f 397/6/4 398/6/4 399/6/4
f 399/6/4 398/6/4 400/6/4
f 401/6/4 402/6/4 403/6/4
f 403/6/4 402/6/4 404/6/4
f 405/6/4 406/6/4 407/6/4
f 407/6/4 406/6/4 408/6/4
f 412/6/5 410/6/5 409/6/5
f 413/6/5 410/6/5 412/6/5
f 416/6/5 412/6/5 411/6/5
f 416/6/5 414/6/5 413/6/5
f 416/6/5 413/6/5 412/6/5
f 417/6/5 414/6/5 416/6/5
f 420/6/5 416/6/5 415/6/5
f 420/6/5 418/6/5 417/6/5
f 420/6/5 417/6/5 416/6/5
f 421/6/5 418/6/5 420/6/5
f 422/6/5 418/6/5 421/6/5
f 423/6/5 418/6/5 422/6/5
f 424/6/5 418/6/5 423/6/5
f 425/6/5 418/6/5 424/6/5
f 427/7/5 422/7/5 421/7/5
f 427/6/5 423/6/5 422/6/5
f 428/7/5 424/7/5 423/7/5
f 428/6/5 423/6/5 427/6/5
f 429/7/5 427/7/5 421/7/5
f 429/5/5 428/5/5 427/5/5
f 430/7/5 424/7/5 428/7/5
f 430/5/5 428/5/5 429/5/5
f 431/7/5 429/7/5 421/7/5
f 431/7/5 430/7/5 429/7/5
f 432/7/5 424/7/5 430/7/5
f 432/7/5 430/7/5 431/7/5
f 433/6/5 420/6/5 419/6/5
f 433/6/5 421/6/5 420/6/5
f 434/6/5 421/6/5 433/6/5
f 435/7/5 431/7/5 421/7/5
f 435/6/5 421/6/5 434/6/5
f 436/6/5 432/6/5 431/6/5
f 436/7/5 431/7/5 435/7/5
f 437/7/5 424/7/5 432/7/5
f 437/6/5 432/6/5 436/6/5
f 438/6/5 426/6/5 425/6/5
f 438/7/5 424/7/5 437/7/5
f 438/6/5 425/6/5 424/6/5
f 439/6/5 426/6/5 438/6/5
f 440/6/5 426/6/5 439/6/5
f 441/6/5 436/6/5 435/6/5
f 441/6/5 435/6/5 434/6/5
f 441/6/5 439/6/5 438/6/5
f 441/6/5 438/6/5 437/6/5
f 441/6/5 437/6/5 436/6/5
f 442/6/5 439/6/5 441/6/5
f 443/6/5 439/6/5 442/6/5
f 444/6/5 439/6/5 443/6/5
f 445/6/5 443/6/5 442/6/5
f 446/6/5 443/6/5 445/6/5
f 447/6/5 443/6/5 446/6/5
f 448/6/5 443/6/5 447/6/5
f 449/6/5 447/6/5 446/6/5
f 450/6/5 447/6/5 449/6/5
f 453/7/5 452/7/5 451/7/5
f 454/7/5 452/7/5 453/7/5
f 457/7/5 456/7/5 455/7/5
f 458/7/5 456/7/5 457/7/5
f 461/4/5 460/4/5 459/4/5
f 462/4/5 460/4/5 461/4/5
f 465/4/5 464/4/5 463/4/5
f 466/4/5 464/4/5 465/4/5
f 469/4/5 468/4/5 467/4/5
f 470/4/5 468/4/5 469/4/5
f 473/4/5 472/4/5 471/4/5
f 474/4/5 472/4/5 473/4/5
f 477/4/5 476/4/5 475/4/5
f 478/4/5 476/4/5 477/4/5
f 483/4/5 480/4/5 479/4/5
f 484/4/5 480/4/5 483/4/5
f 485/4/5 482/4/5 481/4/5
f 486/4/5 482/4/5 485/4/5
f 489/4/5 488/4/5 487/4/5
f 490/4/5 488/4/5 489/4/5
f 493/4/5 492/4/5 491/4/5
f 494/4/5 492/4/5 493/4/5
f 497/4/5 496/4/5 495/4/5
f 498/4/5 496/4/5 497/4/5
f 499/6/6 500/6/6 502/6/6
f 502/6/6 500/6/6 503/6/6
f 501/6/6 502/6/6 506/6/6
f 503/6/6 504/6/6 506/6/6
f 502/6/6 503/6/6 506/6/6
f 506/6/6 504/6/6 507/6/6
f 505/6/6 506/6/6 510/6/6
f 507/6/6 508/6/6 510/6/6
f 506/6/6 507/6/6 510/6/6
f 510/6/6 508/6/6 511/6/6
f 511/6/6 508/6/6 512/6/6
f 512/6/6 508/6/6 513/6/6
f 513/6/6 508/6/6 514/6/6
f 514/6/6 508/6/6 515/6/6
f 515/6/6 508/6/6 516/6/6
f 516/6/6 508/6/6 517/6/6
f 513/6/6 514/6/6 519/6/6
f 519/6/6 514/6/6 520/6/6
f 509/6/6 510/6/6 523/6/6
f 510/6/6 511/6/6 523/6/6
f 523/6/6 511/6/6 524/6/6
f 524/6/6 511/6/6 525/6/6
f 521/6/6 522/6/6 527/6/6
f 527/6/6 522/6/6 528/6/6
f 517/6/6 518/6/6 530/6/6
f 516/6/6 517/6/6 530/6/6
f 530/6/6 518/6/6 531/6/6
f 531/6/6 518/6/6 532/6/6
f 525/6/6 526/6/6 533/6/6
f 527/6/6 528/6/6 533/6/6
f 530/6/6 531/6/6 533/6/6
f 529/6/6 530/6/6 533/6/6
f 528/6/6 529/6/6 533/6/6
f 526/6/6 527/6/6 533/6/6
f 524/6/6 525/6/6 533/6/6
f 533/6/6 531/6/6 534/6/6
f 534/6/6 531/6/6 535/6/6
f 535/6/6 531/6/6 536/6/6
f 534/6/6 535/6/6 537/6/6
f 537/6/6 535/6/6 538/6/6
f 538/6/6 535/6/6 539/6/6
f 539/6/6 535/6/6 540/6/6
f 538/6/6 539/6/6 541/6/6
f 541/6/6 539/6/6 542/6/6
f 543/6/6 544/6/6 547/6/6
f 547/6/6 544/6/6 548/6/6
f 545/6/6 546/6/6 549/6/6
f 549/6/6 546/6/6 550/6/6
f 551/6/6 552/6/6 553/6/6
f 553/6/6 552/6/6 554/6/6
f 555/4/6 556/4/6 557/4/6
f 557/4/6 556/4/6 558/4/6
f 559/4/6 560/4/6 561/4/6
f 561/4/6 560/4/6 562/4/6
f 563/4/6 564/4/6 565/4/6
f 565/4/6 564/4/6 566/4/6
f 567/4/6 568/4/6 571/4/6
f 571/4/6 568/4/6 572/4/6
f 569/4/6 570/4/6 573/4/6
f 573/4/6 570/4/6 574/4/6
f 575/4/6 576/4/6 577/4/6
f 577/4/6 576/4/6 578/4/6
f 579/4/6 580/4/6 581/4/6
f 581/4/6 580/4/6 582/4/6
f 583/4/6 584/4/6 585/4/6
f 585/4/6 584/4/6 586/4/6
f 587/4/6 588/4/6 589/4/6
f 589/4/6 588/4/6 590/4/6
f 591/4/6 592/4/6 593/4/6
f 593/4/6 592/4/6 594/4/6
f 595/4/6 596/4/6 597/4/6
f 597/4/6 596/4/6 598/4/6
