# MagicaVoxel @ Ephtracy

# group
o 

# material
mtllib energia panel torre.mtl
usemtl palette

# normals
vn -1 0 0
vn 1 0 0
vn 0 0 1
vn 0 0 -1
vn 0 -1 0
vn 0 1 0

# texcoords
vt 0.455078 0.5
vt 0.458984 0.5
vt 0.638672 0.5
vt 0.642578 0.5
vt 0.646484 0.5
vt 0.650391 0.5
vt 0.798828 0.5
vt 0.802734 0.5
vt 0.916016 0.5
vt 0.919922 0.5
vt 0.923828 0.5

# verts
v 4.1 8.5 -2.9
v 4.1 8.5 -3.5
v 4.1 8.6 -2.9
v 4.1 8.6 -3.5
v 4.2 8.5 -2.8
v 4.2 8.5 -2.9
v 4.2 8.5 -3.5
v 4.2 8.5 -3.6
v 4.2 8.6 -2.8
v 4.2 8.6 -2.9
v 4.2 8.6 -3.5
v 4.2 8.6 -3.6
v 4.3 8.5 -2.7
v 4.3 8.5 -2.8
v 4.3 8.5 -3.6
v 4.3 8.5 -3.7
v 4.3 8.5 -4.3
v 4.3 8.6 -2.7
v 4.3 8.6 -2.8
v 4.3 8.6 -2.9
v 4.3 8.6 -3.5
v 4.3 8.6 -3.6
v 4.3 8.6 -3.7
v 4.3 8.6 -4.3
v 4.3 12.8 -2.9
v 4.3 12.8 -3.5
v 4.4 8.5 -2.6
v 4.4 8.5 -2.7
v 4.4 8.6 -2.6
v 4.4 8.6 -2.7
v 4.4 12.8 -2.9
v 4.4 12.8 -3.5
v 4.4 12.9 -2.9
v 4.4 12.9 -3.5
v 4.5 13.1 -3.1
v 4.5 13.1 -3.3
v 4.5 13.2 -3.1
v 4.5 13.2 -3.3
v 4.5 13.6 -3.1
v 4.5 13.6 -3.3
v 4.5 13.7 -3.1
v 4.5 13.7 -3.3
v 4.6 8.5 -1.6
v 4.6 8.5 -2.6
v 4.6 8.6 -1.6
v 4.6 8.6 -2.6
v 4.6 13.2 -3.1
v 4.6 13.2 -3.3
v 4.6 13.4 -3.1
v 4.6 13.4 -3.3
v 4.6 13.7 -3.1
v 4.6 13.7 -3.3
v 4.6 13.8 -3.1
v 4.6 13.8 -3.3
v 4.7 13.4 -3.1
v 4.7 13.4 -3.3
v 4.7 13.5 -3.1
v 4.7 13.5 -3.3
v 4.7 13.8 -3.1
v 4.7 13.8 -3.3
v 4.7 13.9 -3.1
v 4.7 13.9 -3.3
v 4.8 13.5 -3.1
v 4.8 13.5 -3.3
v 4.8 13.6 -3.1
v 4.8 13.6 -3.3
v 4.8 13.9 -3.1
v 4.8 13.9 -3.3
v 4.8 14 -3.1
v 4.8 14 -3.3
v 4.9 8.6 -2.9
v 4.9 8.6 -3
v 4.9 8.6 -3.4
v 4.9 8.6 -3.5
v 4.9 9.7 -3
v 4.9 9.7 -3.4
v 4.9 10.8 -3
v 4.9 10.8 -3.4
v 4.9 11.9 -3
v 4.9 11.9 -3.4
v 4.9 12.7 -2.9
v 4.9 12.7 -3
v 4.9 12.7 -3.4
v 4.9 12.7 -3.5
v 4.9 14 -3.1
v 4.9 14 -3.3
v 4.9 14.1 -3.1
v 4.9 14.1 -3.3
v 5 14.1 -3.1
v 5 14.1 -3.3
v 5 14.2 -3.1
v 5 14.2 -3.3
v 5.1 14.2 -3.1
v 5.1 14.2 -3.3
v 5.1 14.3 -3.1
v 5.1 14.3 -3.3
v 5.7 8.9 -2
v 5.7 8.9 -3.9
v 5.7 9.1 -2
v 5.7 9.1 -3.9
v 5.8 8.5 -1.7
v 5.8 8.5 -2.1
v 5.8 8.5 -2.3
v 5.8 8.5 -3.6
v 5.8 8.5 -3.8
v 5.8 8.6 -1.7
v 5.8 8.6 -2.1
v 5.8 8.9 -2.1
v 5.8 8.9 -2.3
v 5.8 8.9 -3.6
v 5.8 8.9 -3.8
v 6.7 8.5 -2.1
v 6.7 8.5 -2.3
v 6.7 8.5 -3.6
v 6.7 8.5 -3.8
v 6.7 8.5 -4.2
v 6.7 8.6 -3.8
v 6.7 8.6 -4.2
v 6.7 8.9 -2.1
v 6.7 8.9 -2.3
v 6.7 8.9 -3.6
v 6.7 8.9 -3.8
v 7.1 8.5 -2.3
v 7.1 8.5 -3
v 7.1 8.6 -2.3
v 7.1 8.6 -3
v 4.4 8.5 -3.8
v 4.4 8.5 -4.2
v 4.4 8.6 -3.8
v 4.4 8.6 -4.2
v 4.5 8.6 -2.9
v 4.5 8.6 -3
v 4.5 8.6 -3.4
v 4.5 8.6 -3.5
v 4.5 9.4 -3
v 4.5 9.4 -3.4
v 4.5 10.5 -3
v 4.5 10.5 -3.4
v 4.5 11.6 -3
v 4.5 11.6 -3.4
v 4.5 12.7 -2.9
v 4.5 12.7 -3
v 4.5 12.7 -3.4
v 4.5 12.7 -3.5
v 4.7 8.5 -1.7
v 4.7 8.5 -2.6
v 4.7 8.6 -1.7
v 4.7 8.6 -2.6
v 4.7 13.1 -3.1
v 4.7 13.1 -3.3
v 4.7 13.2 -3.1
v 4.7 13.2 -3.3
v 4.8 13.2 -3.1
v 4.8 13.2 -3.3
v 4.8 13.3 -3.1
v 4.8 13.3 -3.3
v 4.9 13.3 -3.1
v 4.9 13.3 -3.3
v 4.9 13.4 -3.1
v 4.9 13.4 -3.3
v 4.9 13.7 -3.1
v 4.9 13.7 -3.3
v 4.9 13.8 -3.1
v 4.9 13.8 -3.3
v 5 8.5 -2.6
v 5 8.5 -2.7
v 5 8.5 -3.7
v 5 8.5 -3.8
v 5 8.6 -2.6
v 5 8.6 -2.7
v 5 8.6 -3.7
v 5 8.6 -3.8
v 5 12.8 -2.9
v 5 12.8 -3.5
v 5 12.9 -2.9
v 5 12.9 -3.5
v 5 13.4 -3.1
v 5 13.4 -3.3
v 5 13.5 -3.1
v 5 13.5 -3.3
v 5 13.8 -3.1
v 5 13.8 -3.3
v 5 13.9 -3.1
v 5 13.9 -3.3
v 5.1 8.5 -2.7
v 5.1 8.5 -2.8
v 5.1 8.5 -3.6
v 5.1 8.5 -3.7
v 5.1 8.6 -2.7
v 5.1 8.6 -2.8
v 5.1 8.6 -2.9
v 5.1 8.6 -3.5
v 5.1 8.6 -3.6
v 5.1 8.6 -3.7
v 5.1 12.8 -2.9
v 5.1 12.8 -3.5
v 5.1 13.5 -3.1
v 5.1 13.5 -3.3
v 5.1 13.6 -3.1
v 5.1 13.6 -3.3
v 5.1 13.9 -3.1
v 5.1 13.9 -3.3
v 5.1 14.1 -3.1
v 5.1 14.1 -3.3
v 5.2 8.5 -2.8
v 5.2 8.5 -2.9
v 5.2 8.5 -3.5
v 5.2 8.5 -3.6
v 5.2 8.6 -2.8
v 5.2 8.6 -2.9
v 5.2 8.6 -3.5
v 5.2 8.6 -3.6
v 5.2 13.6 -3.1
v 5.2 13.6 -3.3
v 5.2 13.7 -3.1
v 5.2 13.7 -3.3
v 5.2 14.1 -3.1
v 5.2 14.1 -3.3
v 5.2 14.3 -3.1
v 5.2 14.3 -3.3
v 5.3 8.5 -2.9
v 5.3 8.5 -3
v 5.3 8.5 -3.1
v 5.3 8.5 -3.5
v 5.3 8.6 -2.9
v 5.3 8.6 -3
v 5.3 8.6 -3.1
v 5.3 8.6 -3.5
v 5.9 8.5 -1.6
v 5.9 8.5 -2.1
v 5.9 8.6 -1.6
v 5.9 8.6 -2.1
v 6 8.5 -2.1
v 6 8.5 -2.3
v 6 8.5 -3.6
v 6 8.5 -3.8
v 6 8.9 -2.1
v 6 8.9 -2.3
v 6 8.9 -3.6
v 6 8.9 -3.8
v 6.8 8.5 -3.8
v 6.8 8.5 -4.3
v 6.8 8.6 -3.8
v 6.8 8.6 -4.3
v 6.9 8.5 -2.1
v 6.9 8.5 -2.2
v 6.9 8.5 -3.6
v 6.9 8.5 -3.8
v 6.9 8.6 -2.2
v 6.9 8.6 -2.3
v 6.9 8.9 -2.1
v 6.9 8.9 -2.3
v 6.9 8.9 -3.6
v 6.9 8.9 -3.8
v 7 8.9 -2
v 7 8.9 -3.9
v 7 9.1 -2
v 7 9.1 -3.9
v 7.2 8.5 -2.2
v 7.2 8.5 -3.1
v 7.2 8.6 -2.2
v 7.2 8.6 -3.1
v 4.6 8.5 -1.6
v 4.6 8.6 -1.6
v 5.9 8.5 -1.6
v 5.9 8.6 -1.6
v 5.7 8.9 -2
v 5.7 9.1 -2
v 7 8.9 -2
v 7 9.1 -2
v 5.8 8.6 -2.1
v 5.8 8.9 -2.1
v 5.9 8.5 -2.1
v 5.9 8.6 -2.1
v 6 8.5 -2.1
v 6 8.9 -2.1
v 6.7 8.5 -2.1
v 6.7 8.9 -2.1
v 6.9 8.5 -2.1
v 6.9 8.9 -2.1
v 6.9 8.5 -2.2
v 6.9 8.6 -2.2
v 7.2 8.5 -2.2
v 7.2 8.6 -2.2
v 4.4 8.5 -2.6
v 4.4 8.6 -2.6
v 4.6 8.5 -2.6
v 4.6 8.6 -2.6
v 4.7 8.5 -2.6
v 4.7 8.6 -2.6
v 5 8.5 -2.6
v 5 8.6 -2.6
v 4.3 8.5 -2.7
v 4.3 8.6 -2.7
v 4.4 8.5 -2.7
v 4.4 8.6 -2.7
v 5 8.5 -2.7
v 5 8.6 -2.7
v 5.1 8.5 -2.7
v 5.1 8.6 -2.7
v 4.2 8.5 -2.8
v 4.2 8.6 -2.8
v 4.3 8.5 -2.8
v 4.3 8.6 -2.8
v 5.1 8.5 -2.8
v 5.1 8.6 -2.8
v 5.2 8.5 -2.8
v 5.2 8.6 -2.8
v 4.1 8.5 -2.9
v 4.1 8.6 -2.9
v 4.2 8.5 -2.9
v 4.2 8.6 -2.9
v 4.3 8.6 -2.9
v 4.3 12.8 -2.9
v 4.4 8.6 -2.9
v 4.4 12.8 -2.9
v 4.4 12.9 -2.9
v 4.5 8.6 -2.9
v 4.5 12.7 -2.9
v 4.9 8.6 -2.9
v 4.9 12.7 -2.9
v 5 8.6 -2.9
v 5 12.8 -2.9
v 5 12.9 -2.9
v 5.1 8.6 -2.9
v 5.1 12.8 -2.9
v 5.2 8.5 -2.9
v 5.2 8.6 -2.9
v 5.3 8.5 -2.9
v 5.3 8.6 -2.9
v 4.5 8.6 -3
v 4.5 9.4 -3
v 4.5 10.5 -3
v 4.5 11.6 -3
v 4.5 12.7 -3
v 4.6 9.4 -3
v 4.6 9.5 -3
v 4.6 10.5 -3
v 4.6 10.6 -3
v 4.6 11.6 -3
v 4.6 11.7 -3
v 4.7 9.5 -3
v 4.7 9.6 -3
v 4.7 10.6 -3
v 4.7 10.7 -3
v 4.7 11.7 -3
v 4.7 11.8 -3
v 4.8 9.6 -3
v 4.8 9.7 -3
v 4.8 10.7 -3
v 4.8 10.8 -3
v 4.8 11.8 -3
v 4.8 11.9 -3
v 4.9 8.6 -3
v 4.9 9.7 -3
v 4.9 10.8 -3
v 4.9 11.9 -3
v 4.9 12.7 -3
v 5.3 8.5 -3
v 5.3 8.6 -3
v 7.1 8.5 -3
v 7.1 8.6 -3
v 4.5 13.1 -3.1
v 4.5 13.2 -3.1
v 4.5 13.6 -3.1
v 4.5 13.7 -3.1
v 4.6 13.2 -3.1
v 4.6 13.4 -3.1
v 4.6 13.7 -3.1
v 4.6 13.8 -3.1
v 4.7 13.1 -3.1
v 4.7 13.2 -3.1
v 4.7 13.4 -3.1
v 4.7 13.5 -3.1
v 4.7 13.8 -3.1
v 4.7 13.9 -3.1
v 4.8 13.2 -3.1
v 4.8 13.3 -3.1
v 4.8 13.5 -3.1
v 4.8 13.6 -3.1
v 4.8 13.9 -3.1
v 4.8 14 -3.1
v 4.9 13.3 -3.1
v 4.9 13.4 -3.1
v 4.9 13.7 -3.1
v 4.9 13.8 -3.1
v 4.9 14 -3.1
v 4.9 14.1 -3.1
v 5 13.4 -3.1
v 5 13.5 -3.1
v 5 13.8 -3.1
v 5 13.9 -3.1
v 5 14.1 -3.1
v 5 14.2 -3.1
v 5.1 13.5 -3.1
v 5.1 13.6 -3.1
v 5.1 13.9 -3.1
v 5.1 14.1 -3.1
v 5.1 14.2 -3.1
v 5.1 14.3 -3.1
v 5.2 13.6 -3.1
v 5.2 13.7 -3.1
v 5.2 14.1 -3.1
v 5.2 14.3 -3.1
v 5.8 8.5 -3.6
v 5.8 8.9 -3.6
v 6 8.5 -3.6
v 6 8.9 -3.6
v 6.7 8.5 -3.6
v 6.7 8.9 -3.6
v 6.9 8.5 -3.6
v 6.9 8.9 -3.6
v 4.4 8.5 -4.2
v 4.4 8.6 -4.2
v 6.7 8.5 -4.2
v 6.7 8.6 -4.2
v 4.7 8.5 -1.7
v 4.7 8.6 -1.7
v 5.8 8.5 -1.7
v 5.8 8.6 -1.7
v 5.8 8.5 -2.3
v 5.8 8.9 -2.3
v 6 8.5 -2.3
v 6 8.9 -2.3
v 6.7 8.5 -2.3
v 6.7 8.9 -2.3
v 6.9 8.5 -2.3
v 6.9 8.6 -2.3
v 6.9 8.9 -2.3
v 7.1 8.5 -2.3
v 7.1 8.6 -2.3
v 5.3 8.5 -3.1
v 5.3 8.6 -3.1
v 7.2 8.5 -3.1
v 7.2 8.6 -3.1
v 4.5 13.1 -3.3
v 4.5 13.2 -3.3
v 4.5 13.6 -3.3
v 4.5 13.7 -3.3
v 4.6 13.2 -3.3
v 4.6 13.4 -3.3
v 4.6 13.7 -3.3
v 4.6 13.8 -3.3
v 4.7 13.1 -3.3
v 4.7 13.2 -3.3
v 4.7 13.4 -3.3
v 4.7 13.5 -3.3
v 4.7 13.8 -3.3
v 4.7 13.9 -3.3
v 4.8 13.2 -3.3
v 4.8 13.3 -3.3
v 4.8 13.5 -3.3
v 4.8 13.6 -3.3
v 4.8 13.9 -3.3
v 4.8 14 -3.3
v 4.9 13.3 -3.3
v 4.9 13.4 -3.3
v 4.9 13.7 -3.3
v 4.9 13.8 -3.3
v 4.9 14 -3.3
v 4.9 14.1 -3.3
v 5 13.4 -3.3
v 5 13.5 -3.3
v 5 13.8 -3.3
v 5 13.9 -3.3
v 5 14.1 -3.3
v 5 14.2 -3.3
v 5.1 13.5 -3.3
v 5.1 13.6 -3.3
v 5.1 13.9 -3.3
v 5.1 14.1 -3.3
v 5.1 14.2 -3.3
v 5.1 14.3 -3.3
v 5.2 13.6 -3.3
v 5.2 13.7 -3.3
v 5.2 14.1 -3.3
v 5.2 14.3 -3.3
v 4.5 8.6 -3.4
v 4.5 9.4 -3.4
v 4.5 10.5 -3.4
v 4.5 11.6 -3.4
v 4.5 12.7 -3.4
v 4.6 9.4 -3.4
v 4.6 9.5 -3.4
v 4.6 10.5 -3.4
v 4.6 10.6 -3.4
v 4.6 11.6 -3.4
v 4.6 11.7 -3.4
v 4.7 9.5 -3.4
v 4.7 9.6 -3.4
v 4.7 10.6 -3.4
v 4.7 10.7 -3.4
v 4.7 11.7 -3.4
v 4.7 11.8 -3.4
v 4.8 9.6 -3.4
v 4.8 9.7 -3.4
v 4.8 10.7 -3.4
v 4.8 10.8 -3.4
v 4.8 11.8 -3.4
v 4.8 11.9 -3.4
v 4.9 8.6 -3.4
v 4.9 9.7 -3.4
v 4.9 10.8 -3.4
v 4.9 11.9 -3.4
v 4.9 12.7 -3.4
v 4.1 8.5 -3.5
v 4.1 8.6 -3.5
v 4.2 8.5 -3.5
v 4.2 8.6 -3.5
v 4.3 8.6 -3.5
v 4.3 12.8 -3.5
v 4.4 8.6 -3.5
v 4.4 12.8 -3.5
v 4.4 12.9 -3.5
v 4.5 8.6 -3.5
v 4.5 12.7 -3.5
v 4.9 8.6 -3.5
v 4.9 12.7 -3.5
v 5 8.6 -3.5
v 5 12.8 -3.5
v 5 12.9 -3.5
v 5.1 8.6 -3.5
v 5.1 12.8 -3.5
v 5.2 8.5 -3.5
v 5.2 8.6 -3.5
v 5.3 8.5 -3.5
v 5.3 8.6 -3.5
v 4.2 8.5 -3.6
v 4.2 8.6 -3.6
v 4.3 8.5 -3.6
v 4.3 8.6 -3.6
v 5.1 8.5 -3.6
v 5.1 8.6 -3.6
v 5.2 8.5 -3.6
v 5.2 8.6 -3.6
v 5 8.5 -3.7
v 5 8.6 -3.7
v 5.1 8.5 -3.7
v 5.1 8.6 -3.7
v 4.4 8.5 -3.8
v 4.4 8.6 -3.8
v 5 8.5 -3.8
v 5 8.6 -3.8
v 5.8 8.5 -3.8
v 5.8 8.9 -3.8
v 6 8.5 -3.8
v 6 8.9 -3.8
v 6.7 8.6 -3.8
v 6.7 8.9 -3.8
v 6.8 8.5 -3.8
v 6.8 8.6 -3.8
v 6.9 8.5 -3.8
v 6.9 8.9 -3.8
v 5.7 8.9 -3.9
v 5.7 9.1 -3.9
v 7 8.9 -3.9
v 7 9.1 -3.9
v 4.3 8.5 -4.3
v 4.3 8.6 -4.3
v 6.8 8.5 -4.3
v 6.8 8.6 -4.3
v 4.6 8.5 -1.6
v 5.9 8.5 -1.6
v 4.7 8.5 -1.7
v 5.8 8.5 -1.7
v 5.8 8.5 -2.1
v 5.9 8.5 -2.1
v 6 8.5 -2.1
v 6.7 8.5 -2.1
v 6.9 8.5 -2.1
v 6.9 8.5 -2.2
v 7.2 8.5 -2.2
v 5.8 8.5 -2.3
v 6 8.5 -2.3
v 6.7 8.5 -2.3
v 6.9 8.5 -2.3
v 7.1 8.5 -2.3
v 4.4 8.5 -2.6
v 4.6 8.5 -2.6
v 4.7 8.5 -2.6
v 5 8.5 -2.6
v 4.3 8.5 -2.7
v 4.4 8.5 -2.7
v 5 8.5 -2.7
v 5.1 8.5 -2.7
v 4.2 8.5 -2.8
v 4.3 8.5 -2.8
v 5.1 8.5 -2.8
v 5.2 8.5 -2.8
v 4.1 8.5 -2.9
v 4.2 8.5 -2.9
v 4.4 8.5 -2.9
v 4.5 8.5 -2.9
v 4.9 8.5 -2.9
v 5 8.5 -2.9
v 5.2 8.5 -2.9
v 5.3 8.5 -2.9
v 4.5 8.5 -3
v 4.9 8.5 -3
v 5.3 8.5 -3
v 7.1 8.5 -3
v 4.5 8.5 -3.1
v 4.9 8.5 -3.1
v 5.3 8.5 -3.1
v 7.2 8.5 -3.1
v 4.5 8.5 -3.4
v 4.9 8.5 -3.4
v 4.1 8.5 -3.5
v 4.2 8.5 -3.5
v 4.4 8.5 -3.5
v 4.5 8.5 -3.5
v 4.9 8.5 -3.5
v 5 8.5 -3.5
v 5.2 8.5 -3.5
v 5.3 8.5 -3.5
v 4.2 8.5 -3.6
v 4.3 8.5 -3.6
v 5.1 8.5 -3.6
v 5.2 8.5 -3.6
v 5.8 8.5 -3.6
v 6 8.5 -3.6
v 6.7 8.5 -3.6
v 6.9 8.5 -3.6
v 4.3 8.5 -3.7
v 4.4 8.5 -3.7
v 5 8.5 -3.7
v 5.1 8.5 -3.7
v 4.4 8.5 -3.8
v 5 8.5 -3.8
v 5.8 8.5 -3.8
v 6 8.5 -3.8
v 6.7 8.5 -3.8
v 6.8 8.5 -3.8
v 6.9 8.5 -3.8
v 4.4 8.5 -4.2
v 6.7 8.5 -4.2
v 4.3 8.5 -4.3
v 6.8 8.5 -4.3
v 5.7 8.9 -2
v 7 8.9 -2
v 5.8 8.9 -2.1
v 6 8.9 -2.1
v 6.7 8.9 -2.1
v 6.9 8.9 -2.1
v 5.8 8.9 -2.3
v 6 8.9 -2.3
v 6.7 8.9 -2.3
v 6.9 8.9 -2.3
v 5.8 8.9 -3.6
v 6 8.9 -3.6
v 6.7 8.9 -3.6
v 6.9 8.9 -3.6
v 5.8 8.9 -3.8
v 6 8.9 -3.8
v 6.7 8.9 -3.8
v 6.9 8.9 -3.8
v 5.7 8.9 -3.9
v 7 8.9 -3.9
v 4.5 12.7 -2.9
v 4.9 12.7 -2.9
v 4.5 12.7 -3
v 4.9 12.7 -3
v 4.5 12.7 -3.4
v 4.9 12.7 -3.4
v 4.5 12.7 -3.5
v 4.9 12.7 -3.5
v 4.5 13.1 -3.1
v 4.7 13.1 -3.1
v 4.5 13.1 -3.3
v 4.7 13.1 -3.3
v 4.7 13.2 -3.1
v 4.8 13.2 -3.1
v 4.7 13.2 -3.3
v 4.8 13.2 -3.3
v 4.8 13.3 -3.1
v 4.9 13.3 -3.1
v 4.8 13.3 -3.3
v 4.9 13.3 -3.3
v 4.9 13.4 -3.1
v 5 13.4 -3.1
v 4.9 13.4 -3.3
v 5 13.4 -3.3
v 5 13.5 -3.1
v 5.1 13.5 -3.1
v 5 13.5 -3.3
v 5.1 13.5 -3.3
v 4.5 13.6 -3.1
v 4.8 13.6 -3.1
v 5.1 13.6 -3.1
v 5.2 13.6 -3.1
v 4.5 13.6 -3.3
v 4.8 13.6 -3.3
v 5.1 13.6 -3.3
v 5.2 13.6 -3.3
v 4.9 13.8 -3.1
v 5 13.8 -3.1
v 4.9 13.8 -3.3
v 5 13.8 -3.3
v 5 13.9 -3.1
v 5.1 13.9 -3.1
v 5 13.9 -3.3
v 5.1 13.9 -3.3
v 5.1 14.1 -3.1
v 5.2 14.1 -3.1
v 5.1 14.1 -3.3
v 5.2 14.1 -3.3
v 4.6 8.6 -1.6
v 5.9 8.6 -1.6
v 4.7 8.6 -1.7
v 5.8 8.6 -1.7
v 5.8 8.6 -2.1
v 5.9 8.6 -2.1
v 6.9 8.6 -2.2
v 7.2 8.6 -2.2
v 6.9 8.6 -2.3
v 7.1 8.6 -2.3
v 4.4 8.6 -2.6
v 4.6 8.6 -2.6
v 4.7 8.6 -2.6
v 5 8.6 -2.6
v 4.3 8.6 -2.7
v 4.4 8.6 -2.7
v 5 8.6 -2.7
v 5.1 8.6 -2.7
v 4.2 8.6 -2.8
v 4.3 8.6 -2.8
v 5.1 8.6 -2.8
v 5.2 8.6 -2.8
v 4.1 8.6 -2.9
v 4.2 8.6 -2.9
v 4.3 8.6 -2.9
v 4.4 8.6 -2.9
v 4.5 8.6 -2.9
v 4.9 8.6 -2.9
v 5 8.6 -2.9
v 5.1 8.6 -2.9
v 5.2 8.6 -2.9
v 5.3 8.6 -2.9
v 4.5 8.6 -3
v 4.9 8.6 -3
v 5.3 8.6 -3
v 7.1 8.6 -3
v 5.3 8.6 -3.1
v 7.2 8.6 -3.1
v 4.5 8.6 -3.4
v 4.9 8.6 -3.4
v 4.1 8.6 -3.5
v 4.2 8.6 -3.5
v 4.3 8.6 -3.5
v 4.4 8.6 -3.5
v 4.5 8.6 -3.5
v 4.9 8.6 -3.5
v 5 8.6 -3.5
v 5.1 8.6 -3.5
v 5.2 8.6 -3.5
v 5.3 8.6 -3.5
v 4.2 8.6 -3.6
v 4.3 8.6 -3.6
v 5.1 8.6 -3.6
v 5.2 8.6 -3.6
v 4.3 8.6 -3.7
v 4.4 8.6 -3.7
v 5 8.6 -3.7
v 5.1 8.6 -3.7
v 4.4 8.6 -3.8
v 5 8.6 -3.8
v 6.7 8.6 -3.8
v 6.8 8.6 -3.8
v 4.4 8.6 -4.2
v 6.7 8.6 -4.2
v 4.3 8.6 -4.3
v 6.8 8.6 -4.3
v 5.7 9.1 -2
v 7 9.1 -2
v 5.8 9.1 -2.1
v 6 9.1 -2.1
v 6.1 9.1 -2.1
v 6.3 9.1 -2.1
v 6.4 9.1 -2.1
v 6.6 9.1 -2.1
v 6.7 9.1 -2.1
v 6.9 9.1 -2.1
v 5.8 9.1 -2.3
v 6 9.1 -2.3
v 6.1 9.1 -2.3
v 6.3 9.1 -2.3
v 6.4 9.1 -2.3
v 6.6 9.1 -2.3
v 6.7 9.1 -2.3
v 6.9 9.1 -2.3
v 5.8 9.1 -2.4
v 6 9.1 -2.4
v 6.1 9.1 -2.4
v 6.3 9.1 -2.4
v 6.4 9.1 -2.4
v 6.6 9.1 -2.4
v 6.7 9.1 -2.4
v 6.9 9.1 -2.4
v 5.8 9.1 -2.5
v 6 9.1 -2.5
v 6.1 9.1 -2.5
v 6.3 9.1 -2.5
v 6.4 9.1 -2.5
v 6.6 9.1 -2.5
v 6.7 9.1 -2.5
v 6.9 9.1 -2.5
v 5.8 9.1 -2.6
v 6 9.1 -2.6
v 6.1 9.1 -2.6
v 6.3 9.1 -2.6
v 6.4 9.1 -2.6
v 6.6 9.1 -2.6
v 6.7 9.1 -2.6
v 6.9 9.1 -2.6
v 5.8 9.1 -2.8
v 6 9.1 -2.8
v 6.1 9.1 -2.8
v 6.3 9.1 -2.8
v 6.4 9.1 -2.8
v 6.6 9.1 -2.8
v 6.7 9.1 -2.8
v 6.9 9.1 -2.8
v 5.8 9.1 -2.9
v 6 9.1 -2.9
v 6.1 9.1 -2.9
v 6.3 9.1 -2.9
v 6.4 9.1 -2.9
v 6.6 9.1 -2.9
v 6.7 9.1 -2.9
v 6.9 9.1 -2.9
v 5.8 9.1 -3
v 6 9.1 -3
v 6.1 9.1 -3
v 6.3 9.1 -3
v 6.4 9.1 -3
v 6.6 9.1 -3
v 6.7 9.1 -3
v 6.9 9.1 -3
v 5.8 9.1 -3.1
v 6 9.1 -3.1
v 6.1 9.1 -3.1
v 6.3 9.1 -3.1
v 6.4 9.1 -3.1
v 6.6 9.1 -3.1
v 6.7 9.1 -3.1
v 6.9 9.1 -3.1
v 5.8 9.1 -3.3
v 6 9.1 -3.3
v 6.1 9.1 -3.3
v 6.3 9.1 -3.3
v 6.4 9.1 -3.3
v 6.6 9.1 -3.3
v 6.7 9.1 -3.3
v 6.9 9.1 -3.3
v 5.8 9.1 -3.4
v 6 9.1 -3.4
v 6.1 9.1 -3.4
v 6.3 9.1 -3.4
v 6.4 9.1 -3.4
v 6.6 9.1 -3.4
v 6.7 9.1 -3.4
v 6.9 9.1 -3.4
v 5.8 9.1 -3.5
v 6 9.1 -3.5
v 6.1 9.1 -3.5
v 6.3 9.1 -3.5
v 6.4 9.1 -3.5
v 6.6 9.1 -3.5
v 6.7 9.1 -3.5
v 6.9 9.1 -3.5
v 5.8 9.1 -3.6
v 6 9.1 -3.6
v 6.1 9.1 -3.6
v 6.3 9.1 -3.6
v 6.4 9.1 -3.6
v 6.6 9.1 -3.6
v 6.7 9.1 -3.6
v 6.9 9.1 -3.6
v 5.8 9.1 -3.8
v 6 9.1 -3.8
v 6.1 9.1 -3.8
v 6.3 9.1 -3.8
v 6.4 9.1 -3.8
v 6.6 9.1 -3.8
v 6.7 9.1 -3.8
v 6.9 9.1 -3.8
v 5.7 9.1 -3.9
v 7 9.1 -3.9
v 4.3 12.8 -2.9
v 4.4 12.8 -2.9
v 5 12.8 -2.9
v 5.1 12.8 -2.9
v 4.3 12.8 -3.5
v 4.4 12.8 -3.5
v 5 12.8 -3.5
v 5.1 12.8 -3.5
v 4.4 12.9 -2.9
v 5 12.9 -2.9
v 4.4 12.9 -3.5
v 5 12.9 -3.5
v 4.5 13.2 -3.1
v 4.6 13.2 -3.1
v 4.5 13.2 -3.3
v 4.6 13.2 -3.3
v 4.6 13.4 -3.1
v 4.7 13.4 -3.1
v 4.6 13.4 -3.3
v 4.7 13.4 -3.3
v 4.7 13.5 -3.1
v 4.8 13.5 -3.1
v 4.7 13.5 -3.3
v 4.8 13.5 -3.3
v 4.5 13.7 -3.1
v 4.6 13.7 -3.1
v 4.9 13.7 -3.1
v 5.2 13.7 -3.1
v 4.5 13.7 -3.3
v 4.6 13.7 -3.3
v 4.9 13.7 -3.3
v 5.2 13.7 -3.3
v 4.6 13.8 -3.1
v 4.7 13.8 -3.1
v 4.6 13.8 -3.3
v 4.7 13.8 -3.3
v 4.7 13.9 -3.1
v 4.8 13.9 -3.1
v 4.7 13.9 -3.3
v 4.8 13.9 -3.3
v 4.8 14 -3.1
v 4.9 14 -3.1
v 4.8 14 -3.3
v 4.9 14 -3.3
v 4.9 14.1 -3.1
v 5 14.1 -3.1
v 4.9 14.1 -3.3
v 5 14.1 -3.3
v 5 14.2 -3.1
v 5.1 14.2 -3.1
v 5 14.2 -3.3
v 5.1 14.2 -3.3
v 5.1 14.3 -3.1
v 5.2 14.3 -3.1
v 5.1 14.3 -3.3
v 5.2 14.3 -3.3

# faces
f 3/9/1 2/9/1 1/9/1
f 4/9/1 2/9/1 3/9/1
f 9/9/1 6/9/1 5/9/1
f 10/9/1 6/9/1 9/9/1
f 11/9/1 8/9/1 7/9/1
f 12/9/1 8/9/1 11/9/1
f 18/9/1 14/9/1 13/9/1
f 19/9/1 14/9/1 18/9/1
f 22/9/1 16/9/1 15/9/1
f 23/6/1 17/6/1 16/6/1
f 23/9/1 16/9/1 22/9/1
f 24/6/1 17/6/1 23/6/1
f 25/9/1 21/9/1 20/9/1
f 26/9/1 21/9/1 25/9/1
f 29/9/1 28/9/1 27/9/1
f 30/9/1 28/9/1 29/9/1
f 33/9/1 32/9/1 31/9/1
f 34/9/1 32/9/1 33/9/1
f 37/6/1 36/6/1 35/6/1
f 38/6/1 36/6/1 37/6/1
f 41/6/1 40/6/1 39/6/1
f 42/6/1 40/6/1 41/6/1
f 45/1/1 44/1/1 43/1/1
f 46/1/1 44/1/1 45/1/1
f 49/6/1 48/6/1 47/6/1
f 50/6/1 48/6/1 49/6/1
f 53/6/1 52/6/1 51/6/1
f 54/6/1 52/6/1 53/6/1
f 57/6/1 56/6/1 55/6/1
f 58/6/1 56/6/1 57/6/1
f 61/6/1 60/6/1 59/6/1
f 62/6/1 60/6/1 61/6/1
f 65/6/1 64/6/1 63/6/1
f 66/6/1 64/6/1 65/6/1
f 69/6/1 68/6/1 67/6/1
f 70/6/1 68/6/1 69/6/1
f 75/11/1 72/11/1 71/11/1
f 76/11/1 74/11/1 73/11/1
f 77/11/1 75/11/1 71/11/1
f 78/11/1 74/11/1 76/11/1
f 79/11/1 77/11/1 71/11/1
f 80/11/1 74/11/1 78/11/1
f 81/11/1 79/11/1 71/11/1
f 82/11/1 79/11/1 81/11/1
f 83/11/1 74/11/1 80/11/1
f 84/11/1 74/11/1 83/11/1
f 87/6/1 86/6/1 85/6/1
f 88/6/1 86/6/1 87/6/1
f 91/6/1 90/6/1 89/6/1
f 92/6/1 90/6/1 91/6/1
f 95/6/1 94/6/1 93/6/1
f 96/6/1 94/6/1 95/6/1
f 99/10/1 98/10/1 97/10/1
f 100/10/1 98/10/1 99/10/1
f 106/1/1 102/1/1 101/1/1
f 107/9/1 103/9/1 102/9/1
f 107/1/1 102/1/1 106/1/1
f 108/9/1 103/9/1 107/9/1
f 109/9/1 103/9/1 108/9/1
f 110/9/1 105/9/1 104/9/1
f 111/9/1 105/9/1 110/9/1
f 117/9/1 115/9/1 114/9/1
f 117/6/1 116/6/1 115/6/1
f 118/6/1 116/6/1 117/6/1
f 119/9/1 113/9/1 112/9/1
f 120/9/1 113/9/1 119/9/1
f 121/9/1 117/9/1 114/9/1
f 122/9/1 117/9/1 121/9/1
f 125/7/1 124/7/1 123/7/1
f 126/7/1 124/7/1 125/7/1
f 127/6/2 128/6/2 129/6/2
f 129/6/2 128/6/2 130/6/2
f 131/11/2 132/11/2 135/11/2
f 133/11/2 134/11/2 136/11/2
f 131/11/2 135/11/2 137/11/2
f 136/11/2 134/11/2 138/11/2
f 131/11/2 137/11/2 139/11/2
f 138/11/2 134/11/2 140/11/2
f 131/11/2 139/11/2 141/11/2
f 141/11/2 139/11/2 142/11/2
f 140/11/2 134/11/2 143/11/2
f 143/11/2 134/11/2 144/11/2
f 145/1/2 146/1/2 147/1/2
f 147/1/2 146/1/2 148/1/2
f 149/6/2 150/6/2 151/6/2
f 151/6/2 150/6/2 152/6/2
f 153/6/2 154/6/2 155/6/2
f 155/6/2 154/6/2 156/6/2
f 157/6/2 158/6/2 159/6/2
f 159/6/2 158/6/2 160/6/2
f 161/6/2 162/6/2 163/6/2
f 163/6/2 162/6/2 164/6/2
f 165/9/2 166/9/2 169/9/2
f 169/9/2 166/9/2 170/9/2
f 167/9/2 168/9/2 171/9/2
f 171/9/2 168/9/2 172/9/2
f 173/9/2 174/9/2 175/9/2
f 175/9/2 174/9/2 176/9/2
f 177/6/2 178/6/2 179/6/2
f 179/6/2 178/6/2 180/6/2
f 181/6/2 182/6/2 183/6/2
f 183/6/2 182/6/2 184/6/2
f 185/9/2 186/9/2 189/9/2
f 189/9/2 186/9/2 190/9/2
f 187/9/2 188/9/2 193/9/2
f 193/9/2 188/9/2 194/9/2
f 191/9/2 192/9/2 195/9/2
f 195/9/2 192/9/2 196/9/2
f 197/6/2 198/6/2 199/6/2
f 199/6/2 198/6/2 200/6/2
f 201/6/2 202/6/2 203/6/2
f 203/6/2 202/6/2 204/6/2
f 205/9/2 206/9/2 209/9/2
f 209/9/2 206/9/2 210/9/2
f 207/9/2 208/9/2 211/9/2
f 211/9/2 208/9/2 212/9/2
f 213/6/2 214/6/2 215/6/2
f 215/6/2 214/6/2 216/6/2
f 217/6/2 218/6/2 219/6/2
f 219/6/2 218/6/2 220/6/2
f 221/9/2 222/9/2 225/9/2
f 225/9/2 222/9/2 226/9/2
f 223/9/2 224/9/2 227/9/2
f 227/9/2 224/9/2 228/9/2
f 229/1/2 230/1/2 231/1/2
f 231/1/2 230/1/2 232/1/2
f 233/9/2 234/9/2 237/9/2
f 237/9/2 234/9/2 238/9/2
f 235/9/2 236/9/2 239/9/2
f 239/9/2 236/9/2 240/9/2
f 241/6/2 242/6/2 243/6/2
f 243/6/2 242/6/2 244/6/2
f 245/9/2 246/9/2 249/9/2
f 245/9/2 249/9/2 251/9/2
f 249/9/2 250/9/2 251/9/2
f 251/9/2 250/9/2 252/9/2
f 247/9/2 248/9/2 253/9/2
f 253/9/2 248/9/2 254/9/2
f 255/10/2 256/10/2 257/10/2
f 257/10/2 256/10/2 258/10/2
f 259/7/2 260/7/2 261/7/2
f 261/7/2 260/7/2 262/7/2
f 265/1/3 264/1/3 263/1/3
f 266/1/3 264/1/3 265/1/3
f 269/10/3 268/10/3 267/10/3
f 270/10/3 268/10/3 269/10/3
f 274/9/3 272/9/3 271/9/3
f 275/9/3 274/9/3 273/9/3
f 276/9/3 272/9/3 274/9/3
f 276/9/3 274/9/3 275/9/3
f 279/9/3 278/9/3 277/9/3
f 280/9/3 278/9/3 279/9/3
f 283/7/3 282/7/3 281/7/3
f 284/7/3 282/7/3 283/7/3
f 287/9/3 286/9/3 285/9/3
f 288/9/3 286/9/3 287/9/3
f 291/9/3 290/9/3 289/9/3
f 292/9/3 290/9/3 291/9/3
f 295/9/3 294/9/3 293/9/3
f 296/9/3 294/9/3 295/9/3
f 299/9/3 298/9/3 297/9/3
f 300/9/3 298/9/3 299/9/3
f 303/9/3 302/9/3 301/9/3
f 304/9/3 302/9/3 303/9/3
f 307/9/3 306/9/3 305/9/3
f 308/9/3 306/9/3 307/9/3
f 311/9/3 310/9/3 309/9/3
f 312/9/3 310/9/3 311/9/3
f 315/9/3 314/9/3 313/9/3
f 316/9/3 314/9/3 315/9/3
f 318/11/3 316/11/3 315/11/3
f 319/11/3 316/11/3 318/11/3
f 321/11/3 316/11/3 319/11/3
f 322/11/3 321/11/3 320/11/3
f 323/9/3 317/9/3 316/9/3
f 323/11/3 321/11/3 322/11/3
f 323/11/3 316/11/3 321/11/3
f 324/9/3 317/9/3 323/9/3
f 325/9/3 323/9/3 322/9/3
f 326/9/3 323/9/3 325/9/3
f 329/9/3 328/9/3 327/9/3
f 330/9/3 328/9/3 329/9/3
f 336/3/3 332/3/3 331/3/3
f 336/4/3 333/4/3 332/4/3
f 337/4/3 333/4/3 336/4/3
f 338/5/3 334/5/3 333/5/3
f 338/4/3 333/4/3 337/4/3
f 339/5/3 334/5/3 338/5/3
f 340/6/3 335/6/3 334/6/3
f 340/5/3 334/5/3 339/5/3
f 341/6/3 335/6/3 340/6/3
f 342/4/3 339/4/3 338/4/3
f 342/3/3 337/3/3 336/3/3
f 342/4/3 338/4/3 337/4/3
f 343/4/3 339/4/3 342/4/3
f 344/5/3 341/5/3 340/5/3
f 344/4/3 339/4/3 343/4/3
f 344/5/3 340/5/3 339/5/3
f 345/5/3 341/5/3 344/5/3
f 346/6/3 335/6/3 341/6/3
f 346/5/3 341/5/3 345/5/3
f 347/6/3 335/6/3 346/6/3
f 348/4/3 345/4/3 344/4/3
f 348/3/3 343/3/3 342/3/3
f 348/4/3 344/4/3 343/4/3
f 349/4/3 345/4/3 348/4/3
f 350/5/3 347/5/3 346/5/3
f 350/4/3 345/4/3 349/4/3
f 350/5/3 346/5/3 345/5/3
f 351/5/3 347/5/3 350/5/3
f 352/6/3 335/6/3 347/6/3
f 352/5/3 347/5/3 351/5/3
f 353/6/3 335/6/3 352/6/3
f 354/3/3 349/3/3 348/3/3
f 354/3/3 336/3/3 331/3/3
f 354/3/3 342/3/3 336/3/3
f 354/3/3 348/3/3 342/3/3
f 355/4/3 351/4/3 350/4/3
f 355/3/3 349/3/3 354/3/3
f 355/4/3 350/4/3 349/4/3
f 356/5/3 353/5/3 352/5/3
f 356/4/3 351/4/3 355/4/3
f 356/5/3 352/5/3 351/5/3
f 357/6/3 335/6/3 353/6/3
f 357/5/3 353/5/3 356/5/3
f 358/6/3 335/6/3 357/6/3
f 361/7/3 360/7/3 359/7/3
f 362/7/3 360/7/3 361/7/3
f 367/6/3 364/6/3 363/6/3
f 369/6/3 366/6/3 365/6/3
f 371/6/3 368/6/3 367/6/3
f 371/6/3 367/6/3 363/6/3
f 372/6/3 368/6/3 371/6/3
f 373/6/3 368/6/3 372/6/3
f 375/6/3 370/6/3 369/6/3
f 377/6/3 374/6/3 373/6/3
f 377/6/3 373/6/3 372/6/3
f 378/6/3 374/6/3 377/6/3
f 379/6/3 374/6/3 378/6/3
f 380/6/3 376/6/3 375/6/3
f 380/6/3 369/6/3 365/6/3
f 380/6/3 375/6/3 369/6/3
f 381/6/3 376/6/3 380/6/3
f 383/6/3 379/6/3 378/6/3
f 383/6/3 382/6/3 381/6/3
f 383/6/3 381/6/3 380/6/3
f 383/6/3 380/6/3 379/6/3
f 384/6/3 382/6/3 383/6/3
f 385/6/3 382/6/3 384/6/3
f 386/6/3 382/6/3 385/6/3
f 387/6/3 382/6/3 386/6/3
f 389/6/3 385/6/3 384/6/3
f 390/6/3 385/6/3 389/6/3
f 391/6/3 388/6/3 387/6/3
f 391/6/3 387/6/3 386/6/3
f 392/6/3 388/6/3 391/6/3
f 393/6/3 388/6/3 392/6/3
f 395/6/3 385/6/3 390/6/3
f 396/6/3 385/6/3 395/6/3
f 397/6/3 394/6/3 393/6/3
f 397/6/3 393/6/3 392/6/3
f 398/6/3 394/6/3 397/6/3
f 399/6/3 394/6/3 398/6/3
f 401/6/3 385/6/3 396/6/3
f 402/6/3 385/6/3 401/6/3
f 403/6/3 400/6/3 399/6/3
f 403/6/3 399/6/3 398/6/3
f 404/6/3 400/6/3 403/6/3
f 407/9/3 406/9/3 405/9/3
f 408/9/3 406/9/3 407/9/3
f 411/9/3 410/9/3 409/9/3
f 412/9/3 410/9/3 411/9/3
f 415/6/3 414/6/3 413/6/3
f 416/6/3 414/6/3 415/6/3
f 417/1/4 418/1/4 419/1/4
f 419/1/4 418/1/4 420/1/4
f 421/9/4 422/9/4 423/9/4
f 423/9/4 422/9/4 424/9/4
f 425/9/4 426/9/4 427/9/4
f 427/9/4 426/9/4 428/9/4
f 428/9/4 426/9/4 429/9/4
f 427/7/4 428/7/4 430/7/4
f 430/7/4 428/7/4 431/7/4
f 432/7/4 433/7/4 434/7/4
f 434/7/4 433/7/4 435/7/4
f 436/6/4 437/6/4 440/6/4
f 438/6/4 439/6/4 442/6/4
f 440/6/4 441/6/4 444/6/4
f 436/6/4 440/6/4 444/6/4
f 444/6/4 441/6/4 445/6/4
f 445/6/4 441/6/4 446/6/4
f 442/6/4 443/6/4 448/6/4
f 446/6/4 447/6/4 450/6/4
f 445/6/4 446/6/4 450/6/4
f 450/6/4 447/6/4 451/6/4
f 451/6/4 447/6/4 452/6/4
f 448/6/4 449/6/4 453/6/4
f 438/6/4 442/6/4 453/6/4
f 442/6/4 448/6/4 453/6/4
f 453/6/4 449/6/4 454/6/4
f 451/6/4 452/6/4 456/6/4
f 454/6/4 455/6/4 456/6/4
f 453/6/4 454/6/4 456/6/4
f 452/6/4 453/6/4 456/6/4
f 456/6/4 455/6/4 457/6/4
f 457/6/4 455/6/4 458/6/4
f 458/6/4 455/6/4 459/6/4
f 459/6/4 455/6/4 460/6/4
f 457/6/4 458/6/4 462/6/4
f 462/6/4 458/6/4 463/6/4
f 460/6/4 461/6/4 464/6/4
f 459/6/4 460/6/4 464/6/4
f 464/6/4 461/6/4 465/6/4
f 465/6/4 461/6/4 466/6/4
f 463/6/4 458/6/4 468/6/4
f 468/6/4 458/6/4 469/6/4
f 466/6/4 467/6/4 470/6/4
f 465/6/4 466/6/4 470/6/4
f 470/6/4 467/6/4 471/6/4
f 471/6/4 467/6/4 472/6/4
f 469/6/4 458/6/4 474/6/4
f 474/6/4 458/6/4 475/6/4
f 472/6/4 473/6/4 476/6/4
f 471/6/4 472/6/4 476/6/4
f 476/6/4 473/6/4 477/6/4
f 478/3/4 479/3/4 483/3/4
f 479/4/4 480/4/4 483/4/4
f 483/4/4 480/4/4 484/4/4
f 480/5/4 481/5/4 485/5/4
f 484/4/4 480/4/4 485/4/4
f 485/5/4 481/5/4 486/5/4
f 481/6/4 482/6/4 487/6/4
f 486/5/4 481/5/4 487/5/4
f 487/6/4 482/6/4 488/6/4
f 485/4/4 486/4/4 489/4/4
f 483/3/4 484/3/4 489/3/4
f 484/4/4 485/4/4 489/4/4
f 489/4/4 486/4/4 490/4/4
f 487/5/4 488/5/4 491/5/4
f 490/4/4 486/4/4 491/4/4
f 486/5/4 487/5/4 491/5/4
f 491/5/4 488/5/4 492/5/4
f 488/6/4 482/6/4 493/6/4
f 492/5/4 488/5/4 493/5/4
f 493/6/4 482/6/4 494/6/4
f 491/4/4 492/4/4 495/4/4
f 489/3/4 490/3/4 495/3/4
f 490/4/4 491/4/4 495/4/4
f 495/4/4 492/4/4 496/4/4
f 493/5/4 494/5/4 497/5/4
f 496/4/4 492/4/4 497/4/4
f 492/5/4 493/5/4 497/5/4
f 497/5/4 494/5/4 498/5/4
f 494/6/4 482/6/4 499/6/4
f 498/5/4 494/5/4 499/5/4
f 499/6/4 482/6/4 500/6/4
f 495/3/4 496/3/4 501/3/4
f 478/3/4 483/3/4 501/3/4
f 483/3/4 489/3/4 501/3/4
f 489/3/4 495/3/4 501/3/4
f 497/4/4 498/4/4 502/4/4
f 501/3/4 496/3/4 502/3/4
f 496/4/4 497/4/4 502/4/4
f 499/5/4 500/5/4 503/5/4
f 502/4/4 498/4/4 503/4/4
f 498/5/4 499/5/4 503/5/4
f 500/6/4 482/6/4 504/6/4
f 503/5/4 500/5/4 504/5/4
f 504/6/4 482/6/4 505/6/4
f 506/9/4 507/9/4 508/9/4
f 508/9/4 507/9/4 509/9/4
f 510/9/4 511/9/4 512/9/4
f 512/9/4 511/9/4 513/9/4
f 512/11/4 513/11/4 515/11/4
f 515/11/4 513/11/4 516/11/4
f 516/11/4 513/11/4 518/11/4
f 517/11/4 518/11/4 519/11/4
f 513/9/4 514/9/4 520/9/4
f 519/11/4 518/11/4 520/11/4
f 518/11/4 513/11/4 520/11/4
f 520/9/4 514/9/4 521/9/4
f 519/9/4 520/9/4 522/9/4
f 522/9/4 520/9/4 523/9/4
f 524/9/4 525/9/4 526/9/4
f 526/9/4 525/9/4 527/9/4
f 528/9/4 529/9/4 530/9/4
f 530/9/4 529/9/4 531/9/4
f 532/9/4 533/9/4 534/9/4
f 534/9/4 533/9/4 535/9/4
f 536/9/4 537/9/4 538/9/4
f 538/9/4 537/9/4 539/9/4
f 540/9/4 541/9/4 542/9/4
f 542/9/4 541/9/4 543/9/4
f 544/9/4 545/9/4 546/9/4
f 546/9/4 545/9/4 547/9/4
f 548/9/4 549/9/4 551/9/4
f 550/9/4 551/9/4 552/9/4
f 551/9/4 549/9/4 553/9/4
f 552/9/4 551/9/4 553/9/4
f 554/10/4 555/10/4 556/10/4
f 556/10/4 555/10/4 557/10/4
f 558/6/4 559/6/4 560/6/4
f 560/6/4 559/6/4 561/6/4
f 564/1/5 563/1/5 562/1/5
f 565/1/5 563/1/5 564/1/5
f 566/1/5 563/1/5 565/1/5
f 567/1/5 563/1/5 566/1/5
f 571/9/5 570/9/5 569/9/5
f 573/9/5 567/9/5 566/9/5
f 573/9/5 568/9/5 567/9/5
f 574/9/5 568/9/5 573/9/5
f 575/9/5 571/9/5 569/9/5
f 576/7/5 572/7/5 571/7/5
f 576/9/5 571/9/5 575/9/5
f 577/7/5 572/7/5 576/7/5
f 579/1/5 564/1/5 562/1/5
f 580/1/5 564/1/5 579/1/5
f 583/9/5 579/9/5 578/9/5
f 583/9/5 581/9/5 580/9/5
f 583/9/5 580/9/5 579/9/5
f 584/9/5 581/9/5 583/9/5
f 587/9/5 583/9/5 582/9/5
f 587/9/5 585/9/5 584/9/5
f 587/9/5 584/9/5 583/9/5
f 588/9/5 585/9/5 587/9/5
f 591/9/5 587/9/5 586/9/5
f 591/9/5 589/9/5 588/9/5
f 591/9/5 588/9/5 587/9/5
f 592/9/5 589/9/5 591/9/5
f 593/9/5 589/9/5 592/9/5
f 594/9/5 589/9/5 593/9/5
f 595/9/5 589/9/5 594/9/5
f 596/9/5 589/9/5 595/9/5
f 598/11/5 593/11/5 592/11/5
f 598/9/5 594/9/5 593/9/5
f 599/11/5 595/11/5 594/11/5
f 599/9/5 594/9/5 598/9/5
f 600/9/5 597/9/5 596/9/5
f 600/9/5 596/9/5 595/9/5
f 601/7/5 572/7/5 577/7/5
f 602/3/5 599/3/5 598/3/5
f 602/11/5 598/11/5 592/11/5
f 603/11/5 595/11/5 599/11/5
f 603/3/5 599/3/5 602/3/5
f 604/9/5 600/9/5 595/9/5
f 604/7/5 601/7/5 600/7/5
f 605/7/5 572/7/5 601/7/5
f 605/7/5 601/7/5 604/7/5
f 606/11/5 602/11/5 592/11/5
f 606/11/5 603/11/5 602/11/5
f 607/11/5 595/11/5 603/11/5
f 607/11/5 603/11/5 606/11/5
f 608/9/5 591/9/5 590/9/5
f 608/9/5 592/9/5 591/9/5
f 609/9/5 592/9/5 608/9/5
f 610/11/5 606/11/5 592/11/5
f 610/9/5 592/9/5 609/9/5
f 611/9/5 607/9/5 606/9/5
f 611/11/5 606/11/5 610/11/5
f 612/11/5 595/11/5 607/11/5
f 612/9/5 607/9/5 611/9/5
f 613/9/5 604/9/5 595/9/5
f 613/11/5 595/11/5 612/11/5
f 614/9/5 604/9/5 613/9/5
f 615/9/5 604/9/5 614/9/5
f 616/9/5 611/9/5 610/9/5
f 616/9/5 614/9/5 613/9/5
f 616/9/5 613/9/5 612/9/5
f 616/9/5 610/9/5 609/9/5
f 616/9/5 612/9/5 611/9/5
f 617/9/5 614/9/5 616/9/5
f 618/9/5 614/9/5 617/9/5
f 619/9/5 614/9/5 618/9/5
f 624/9/5 618/9/5 617/9/5
f 625/9/5 618/9/5 624/9/5
f 626/9/5 618/9/5 625/9/5
f 627/9/5 618/9/5 626/9/5
f 628/6/5 625/6/5 624/6/5
f 628/9/5 626/9/5 625/9/5
f 629/9/5 626/9/5 628/9/5
f 630/9/5 621/9/5 620/9/5
f 631/9/5 621/9/5 630/9/5
f 632/9/5 623/9/5 622/9/5
f 633/9/5 623/9/5 632/9/5
f 634/9/5 623/9/5 633/9/5
f 635/6/5 628/6/5 624/6/5
f 636/6/5 633/6/5 632/6/5
f 637/6/5 635/6/5 624/6/5
f 637/6/5 636/6/5 635/6/5
f 638/6/5 633/6/5 636/6/5
f 638/6/5 636/6/5 637/6/5
f 641/10/5 640/10/5 639/10/5
f 642/10/5 640/10/5 641/10/5
f 643/10/5 640/10/5 642/10/5
f 644/10/5 640/10/5 643/10/5
f 645/10/5 641/10/5 639/10/5
f 646/10/5 643/10/5 642/10/5
f 647/10/5 643/10/5 646/10/5
f 648/10/5 640/10/5 644/10/5
f 649/10/5 647/10/5 646/10/5
f 649/10/5 648/10/5 647/10/5
f 649/10/5 645/10/5 639/10/5
f 649/10/5 646/10/5 645/10/5
f 650/10/5 648/10/5 649/10/5
f 651/10/5 648/10/5 650/10/5
f 652/10/5 640/10/5 648/10/5
f 652/10/5 648/10/5 651/10/5
f 653/10/5 649/10/5 639/10/5
f 654/10/5 651/10/5 650/10/5
f 655/10/5 651/10/5 654/10/5
f 656/10/5 640/10/5 652/10/5
f 657/10/5 653/10/5 639/10/5
f 657/10/5 656/10/5 655/10/5
f 657/10/5 655/10/5 654/10/5
f 657/10/5 654/10/5 653/10/5
f 658/10/5 640/10/5 656/10/5
f 658/10/5 656/10/5 657/10/5
f 661/11/5 660/11/5 659/11/5
f 662/11/5 660/11/5 661/11/5
f 665/11/5 664/11/5 663/11/5
f 666/11/5 664/11/5 665/11/5
f 669/6/5 668/6/5 667/6/5
f 670/6/5 668/6/5 669/6/5
f 673/6/5 672/6/5 671/6/5
f 674/6/5 672/6/5 673/6/5
f 677/6/5 676/6/5 675/6/5
f 678/6/5 676/6/5 677/6/5
f 681/6/5 680/6/5 679/6/5
f 682/6/5 680/6/5 681/6/5
f 685/6/5 684/6/5 683/6/5
f 686/6/5 684/6/5 685/6/5
f 691/6/5 688/6/5 687/6/5
f 692/6/5 688/6/5 691/6/5
f 693/6/5 690/6/5 689/6/5
f 694/6/5 690/6/5 693/6/5
f 697/6/5 696/6/5 695/6/5
f 698/6/5 696/6/5 697/6/5
f 701/6/5 700/6/5 699/6/5
f 702/6/5 700/6/5 701/6/5
f 705/6/5 704/6/5 703/6/5
f 706/6/5 704/6/5 705/6/5
f 707/1/6 708/1/6 709/1/6
f 709/1/6 708/1/6 710/1/6
f 710/1/6 708/1/6 711/1/6
f 711/1/6 708/1/6 712/1/6
f 713/7/6 714/7/6 715/7/6
f 715/7/6 714/7/6 716/7/6
f 707/1/6 709/1/6 718/1/6
f 718/1/6 709/1/6 719/1/6
f 717/9/6 718/9/6 722/9/6
f 719/9/6 720/9/6 722/9/6
f 718/9/6 719/9/6 722/9/6
f 722/9/6 720/9/6 723/9/6
f 721/9/6 722/9/6 726/9/6
f 723/9/6 724/9/6 726/9/6
f 722/9/6 723/9/6 726/9/6
f 726/9/6 724/9/6 727/9/6
f 725/9/6 726/9/6 730/9/6
f 727/9/6 728/9/6 730/9/6
f 726/9/6 727/9/6 730/9/6
f 730/9/6 728/9/6 731/9/6
f 731/9/6 728/9/6 732/9/6
f 732/9/6 728/9/6 733/9/6
f 733/9/6 728/9/6 734/9/6
f 734/9/6 728/9/6 735/9/6
f 735/9/6 728/9/6 736/9/6
f 736/9/6 728/9/6 737/9/6
f 733/9/6 734/9/6 739/9/6
f 739/9/6 734/9/6 740/9/6
f 737/9/6 738/9/6 741/9/6
f 736/9/6 737/9/6 741/9/6
f 716/7/6 714/7/6 742/7/6
f 736/9/6 741/9/6 743/9/6
f 741/7/6 742/7/6 743/7/6
f 742/7/6 714/7/6 744/7/6
f 743/7/6 742/7/6 744/7/6
f 729/9/6 730/9/6 747/9/6
f 730/9/6 731/9/6 747/9/6
f 747/9/6 731/9/6 748/9/6
f 748/9/6 731/9/6 749/9/6
f 745/9/6 746/9/6 751/9/6
f 751/9/6 746/9/6 752/9/6
f 736/9/6 743/9/6 754/9/6
f 754/9/6 743/9/6 755/9/6
f 755/9/6 743/9/6 756/9/6
f 752/9/6 753/9/6 757/9/6
f 749/9/6 750/9/6 757/9/6
f 754/9/6 755/9/6 757/9/6
f 753/9/6 754/9/6 757/9/6
f 751/9/6 752/9/6 757/9/6
f 750/9/6 751/9/6 757/9/6
f 748/9/6 749/9/6 757/9/6
f 757/9/6 755/9/6 758/9/6
f 758/9/6 755/9/6 759/9/6
f 759/9/6 755/9/6 760/9/6
f 758/9/6 759/9/6 761/9/6
f 761/9/6 759/9/6 762/9/6
f 762/9/6 759/9/6 763/9/6
f 763/9/6 759/9/6 764/9/6
f 761/6/6 762/6/6 765/6/6
f 762/9/6 763/9/6 765/9/6
f 765/9/6 763/9/6 766/9/6
f 761/6/6 765/6/6 769/6/6
f 767/6/6 768/6/6 770/6/6
f 761/6/6 769/6/6 771/6/6
f 769/6/6 770/6/6 771/6/6
f 770/6/6 768/6/6 772/6/6
f 771/6/6 770/6/6 772/6/6
f 773/10/6 774/10/6 775/10/6
f 775/10/6 774/10/6 776/10/6
f 776/10/6 774/10/6 777/10/6
f 777/10/6 774/10/6 778/10/6
f 778/10/6 774/10/6 779/10/6
f 779/10/6 774/10/6 780/10/6
f 780/10/6 774/10/6 781/10/6
f 781/10/6 774/10/6 782/10/6
f 773/10/6 775/10/6 783/10/6
f 775/2/6 776/2/6 783/2/6
f 776/10/6 777/10/6 784/10/6
f 783/2/6 776/2/6 784/2/6
f 777/11/6 778/11/6 785/11/6
f 784/10/6 777/10/6 785/10/6
f 778/10/6 779/10/6 786/10/6
f 785/11/6 778/11/6 786/11/6
f 779/11/6 780/11/6 787/11/6
f 786/10/6 779/10/6 787/10/6
f 780/10/6 781/10/6 788/10/6
f 787/11/6 780/11/6 788/11/6
f 781/11/6 782/11/6 789/11/6
f 788/10/6 781/10/6 789/10/6
f 782/10/6 774/10/6 790/10/6
f 789/11/6 782/11/6 790/11/6
f 788/10/6 789/10/6 791/10/6
f 787/10/6 788/10/6 791/10/6
f 789/10/6 790/10/6 791/10/6
f 786/10/6 787/10/6 791/10/6
f 785/10/6 786/10/6 791/10/6
f 784/10/6 785/10/6 791/10/6
f 783/10/6 784/10/6 791/10/6
f 773/10/6 783/10/6 791/10/6
f 791/10/6 790/10/6 792/10/6
f 792/10/6 790/10/6 793/10/6
f 793/10/6 790/10/6 794/10/6
f 794/10/6 790/10/6 795/10/6
f 795/10/6 790/10/6 796/10/6
f 796/10/6 790/10/6 797/10/6
f 790/10/6 774/10/6 798/10/6
f 797/10/6 790/10/6 798/10/6
f 773/10/6 791/10/6 799/10/6
f 791/11/6 792/11/6 799/11/6
f 792/10/6 793/10/6 800/10/6
f 799/11/6 792/11/6 800/11/6
f 793/11/6 794/11/6 801/11/6
f 800/10/6 793/10/6 801/10/6
f 794/10/6 795/10/6 802/10/6
f 801/11/6 794/11/6 802/11/6
f 795/11/6 796/11/6 803/11/6
f 802/10/6 795/10/6 803/10/6
f 796/10/6 797/10/6 804/10/6
f 803/11/6 796/11/6 804/11/6
f 797/8/6 798/8/6 805/8/6
f 804/10/6 797/10/6 805/10/6
f 798/10/6 774/10/6 806/10/6
f 805/8/6 798/8/6 806/8/6
f 802/10/6 803/10/6 807/10/6
f 804/10/6 805/10/6 807/10/6
f 805/10/6 806/10/6 807/10/6
f 801/10/6 802/10/6 807/10/6
f 800/10/6 801/10/6 807/10/6
f 799/10/6 800/10/6 807/10/6
f 773/10/6 799/10/6 807/10/6
f 803/10/6 804/10/6 807/10/6
f 807/10/6 806/10/6 808/10/6
f 808/10/6 806/10/6 809/10/6
f 809/10/6 806/10/6 810/10/6
f 810/10/6 806/10/6 811/10/6
f 811/10/6 806/10/6 812/10/6
f 812/10/6 806/10/6 813/10/6
f 806/10/6 774/10/6 814/10/6
f 813/10/6 806/10/6 814/10/6
f 773/10/6 807/10/6 815/10/6
f 807/8/6 808/8/6 815/8/6
f 808/10/6 809/10/6 816/10/6
f 815/8/6 808/8/6 816/8/6
f 809/11/6 810/11/6 817/11/6
f 816/10/6 809/10/6 817/10/6
f 810/10/6 811/10/6 818/10/6
f 817/11/6 810/11/6 818/11/6
f 811/6/6 812/6/6 819/6/6
f 818/10/6 811/10/6 819/10/6
f 812/10/6 813/10/6 820/10/6
f 819/6/6 812/6/6 820/6/6
f 813/11/6 814/11/6 821/11/6
f 820/10/6 813/10/6 821/10/6
f 814/10/6 774/10/6 822/10/6
f 821/11/6 814/11/6 822/11/6
f 818/10/6 819/10/6 823/10/6
f 820/10/6 821/10/6 823/10/6
f 821/10/6 822/10/6 823/10/6
f 817/10/6 818/10/6 823/10/6
f 816/10/6 817/10/6 823/10/6
f 815/10/6 816/10/6 823/10/6
f 773/10/6 815/10/6 823/10/6
f 819/10/6 820/10/6 823/10/6
f 823/10/6 822/10/6 824/10/6
f 824/10/6 822/10/6 825/10/6
f 825/10/6 822/10/6 826/10/6
f 826/10/6 822/10/6 827/10/6
f 827/10/6 822/10/6 828/10/6
f 828/10/6 822/10/6 829/10/6
f 822/10/6 774/10/6 830/10/6
f 829/10/6 822/10/6 830/10/6
f 773/10/6 823/10/6 831/10/6
f 823/11/6 824/11/6 831/11/6
f 824/10/6 825/10/6 832/10/6
f 831/11/6 824/11/6 832/11/6
f 825/2/6 826/2/6 833/2/6
f 832/10/6 825/10/6 833/10/6
f 826/10/6 827/10/6 834/10/6
f 833/2/6 826/2/6 834/2/6
f 827/11/6 828/11/6 835/11/6
f 834/10/6 827/10/6 835/10/6
f 828/10/6 829/10/6 836/10/6
f 835/11/6 828/11/6 836/11/6
f 829/11/6 830/11/6 837/11/6
f 836/10/6 829/10/6 837/10/6
f 830/10/6 774/10/6 838/10/6
f 837/11/6 830/11/6 838/11/6
f 834/10/6 835/10/6 839/10/6
f 836/10/6 837/10/6 839/10/6
f 837/10/6 838/10/6 839/10/6
f 833/10/6 834/10/6 839/10/6
f 832/10/6 833/10/6 839/10/6
f 831/10/6 832/10/6 839/10/6
f 773/10/6 831/10/6 839/10/6
f 835/10/6 836/10/6 839/10/6
f 839/10/6 838/10/6 840/10/6
f 840/10/6 838/10/6 841/10/6
f 841/10/6 838/10/6 842/10/6
f 842/10/6 838/10/6 843/10/6
f 843/10/6 838/10/6 844/10/6
f 844/10/6 838/10/6 845/10/6
f 838/10/6 774/10/6 846/10/6
f 845/10/6 838/10/6 846/10/6
f 773/10/6 839/10/6 847/10/6
f 839/11/6 840/11/6 847/11/6
f 840/10/6 841/10/6 848/10/6
f 847/11/6 840/11/6 848/11/6
f 841/11/6 842/11/6 849/11/6
f 848/10/6 841/10/6 849/10/6
f 842/10/6 843/10/6 850/10/6
f 849/11/6 842/11/6 850/11/6
f 843/8/6 844/8/6 851/8/6
f 850/10/6 843/10/6 851/10/6
f 844/10/6 845/10/6 852/10/6
f 851/8/6 844/8/6 852/8/6
f 845/11/6 846/11/6 853/11/6
f 852/10/6 845/10/6 853/10/6
f 846/10/6 774/10/6 854/10/6
f 853/11/6 846/11/6 854/11/6
f 850/10/6 851/10/6 855/10/6
f 852/10/6 853/10/6 855/10/6
f 853/10/6 854/10/6 855/10/6
f 849/10/6 850/10/6 855/10/6
f 848/10/6 849/10/6 855/10/6
f 847/10/6 848/10/6 855/10/6
f 773/10/6 847/10/6 855/10/6
f 851/10/6 852/10/6 855/10/6
f 855/10/6 854/10/6 856/10/6
f 856/10/6 854/10/6 857/10/6
f 857/10/6 854/10/6 858/10/6
f 858/10/6 854/10/6 859/10/6
f 859/10/6 854/10/6 860/10/6
f 860/10/6 854/10/6 861/10/6
f 854/10/6 774/10/6 862/10/6
f 861/10/6 854/10/6 862/10/6
f 773/10/6 855/10/6 863/10/6
f 855/8/6 856/8/6 863/8/6
f 856/10/6 857/10/6 864/10/6
f 863/8/6 856/8/6 864/8/6
f 857/11/6 858/11/6 865/11/6
f 864/10/6 857/10/6 865/10/6
f 858/10/6 859/10/6 866/10/6
f 865/11/6 858/11/6 866/11/6
f 859/11/6 860/11/6 867/11/6
f 866/10/6 859/10/6 867/10/6
f 860/10/6 861/10/6 868/10/6
f 867/11/6 860/11/6 868/11/6
f 861/11/6 862/11/6 869/11/6
f 868/10/6 861/10/6 869/10/6
f 862/10/6 774/10/6 870/10/6
f 869/11/6 862/11/6 870/11/6
f 866/10/6 867/10/6 871/10/6
f 868/10/6 869/10/6 871/10/6
f 869/10/6 870/10/6 871/10/6
f 865/10/6 866/10/6 871/10/6
f 864/10/6 865/10/6 871/10/6
f 863/10/6 864/10/6 871/10/6
f 773/10/6 863/10/6 871/10/6
f 867/10/6 868/10/6 871/10/6
f 871/10/6 870/10/6 872/10/6
f 872/10/6 870/10/6 873/10/6
f 873/10/6 870/10/6 874/10/6
f 874/10/6 870/10/6 875/10/6
f 875/10/6 870/10/6 876/10/6
f 876/10/6 870/10/6 877/10/6
f 870/10/6 774/10/6 878/10/6
f 877/10/6 870/10/6 878/10/6
f 773/10/6 871/10/6 879/10/6
f 871/11/6 872/11/6 879/11/6
f 872/10/6 873/10/6 880/10/6
f 879/11/6 872/11/6 880/11/6
f 873/11/6 874/11/6 881/11/6
f 880/10/6 873/10/6 881/10/6
f 874/10/6 875/10/6 882/10/6
f 881/11/6 874/11/6 882/11/6
f 875/11/6 876/11/6 883/11/6
f 882/10/6 875/10/6 883/10/6
f 876/10/6 877/10/6 884/10/6
f 883/11/6 876/11/6 884/11/6
f 877/2/6 878/2/6 885/2/6
f 884/10/6 877/10/6 885/10/6
f 878/10/6 774/10/6 886/10/6
f 885/2/6 878/2/6 886/2/6
f 882/10/6 883/10/6 887/10/6
f 884/10/6 885/10/6 887/10/6
f 885/10/6 886/10/6 887/10/6
f 881/10/6 882/10/6 887/10/6
f 880/10/6 881/10/6 887/10/6
f 879/10/6 880/10/6 887/10/6
f 773/10/6 879/10/6 887/10/6
f 883/10/6 884/10/6 887/10/6
f 886/10/6 774/10/6 888/10/6
f 887/10/6 886/10/6 888/10/6
f 889/9/6 890/9/6 893/9/6
f 893/9/6 890/9/6 894/9/6
f 891/9/6 892/9/6 895/9/6
f 895/9/6 892/9/6 896/9/6
f 897/9/6 898/9/6 899/9/6
f 899/9/6 898/9/6 900/9/6
f 901/6/6 902/6/6 903/6/6
f 903/6/6 902/6/6 904/6/6
f 905/6/6 906/6/6 907/6/6
f 907/6/6 906/6/6 908/6/6
f 909/6/6 910/6/6 911/6/6
f 911/6/6 910/6/6 912/6/6
f 913/6/6 914/6/6 917/6/6
f 917/6/6 914/6/6 918/6/6
f 915/6/6 916/6/6 919/6/6
f 919/6/6 916/6/6 920/6/6
f 921/6/6 922/6/6 923/6/6
f 923/6/6 922/6/6 924/6/6
f 925/6/6 926/6/6 927/6/6
f 927/6/6 926/6/6 928/6/6
f 929/6/6 930/6/6 931/6/6
f 931/6/6 930/6/6 932/6/6
f 933/6/6 934/6/6 935/6/6
f 935/6/6 934/6/6 936/6/6
f 937/6/6 938/6/6 939/6/6
f 939/6/6 938/6/6 940/6/6
f 941/6/6 942/6/6 943/6/6
f 943/6/6 942/6/6 944/6/6
