# MagicaVoxel @ Ephtracy

# group
o 

# material
mtllib mid stonks.mtl
usemtl palette

# normals
vn -1 0 0
vn 1 0 0
vn 0 0 1
vn 0 0 -1
vn 0 -1 0
vn 0 1 0

# texcoords
vt 0.650391 0.5
vt 0.798828 0.5
vt 0.802734 0.5
vt 0.884766 0.5

# verts
v -9.4 6.4 2.4
v -9.4 6.4 2.1
v -9.4 7.7 2.4
v -9.4 7.7 2.1
v -9.3 6.5 2.1
v -9.3 6.5 1.3
v -9.3 7.6 2.1
v -9.3 7.6 1.3
v -9.1 6.5 1.3
v -9.1 6.5 1
v -9.1 6.6 1
v -9.1 6.6 0.8
v -9.1 7.2 1
v -9.1 7.2 0.8
v -9.1 7.3 1.1
v -9.1 7.3 1
v -9.1 7.4 1.3
v -9.1 7.4 1.1
v -8.2 6.6 2.4
v -8.2 6.6 2.3
v -8.2 7 2.3
v -8.2 7.1 2.3
v -8.2 7.5 2.4
v -8.2 7.5 2.3
v -9.2 6.6 2.4
v -9.2 6.6 2.3
v -9.2 7 2.3
v -9.2 7.1 2.3
v -9.2 7.5 2.4
v -9.2 7.5 2.3
v -8.3 6.5 1.3
v -8.3 6.5 1
v -8.3 6.6 1
v -8.3 6.6 0.8
v -8.3 7.2 1
v -8.3 7.2 0.8
v -8.3 7.3 1.1
v -8.3 7.3 1
v -8.3 7.4 1.3
v -8.3 7.4 1.1
v -8.1 6.5 2.1
v -8.1 6.5 1.3
v -8.1 7.6 2.1
v -8.1 7.6 1.3
v -8 6.4 2.4
v -8 6.4 2.1
v -8 7.7 2.4
v -8 7.7 2.1
v -9.4 6.4 2.4
v -9.4 7.7 2.4
v -9.2 6.6 2.4
v -9.2 7.5 2.4
v -8.2 6.6 2.4
v -8.2 7.5 2.4
v -8 6.4 2.4
v -8 7.7 2.4
v -9.2 6.6 2.3
v -9.2 7 2.3
v -9.2 7.1 2.3
v -9.2 7.5 2.3
v -9.1 6.7 2.3
v -9.1 7 2.3
v -9.1 7.1 2.3
v -9.1 7.4 2.3
v -8.3 6.7 2.3
v -8.3 7 2.3
v -8.3 7.1 2.3
v -8.3 7.4 2.3
v -8.2 6.6 2.3
v -8.2 7 2.3
v -8.2 7.1 2.3
v -8.2 7.5 2.3
v -9.4 6.4 2.1
v -9.4 7.7 2.1
v -9.3 6.5 2.1
v -9.3 7.6 2.1
v -8.1 6.5 2.1
v -8.1 7.6 2.1
v -8 6.4 2.1
v -8 7.7 2.1
v -9.3 6.5 1.3
v -9.3 7.6 1.3
v -9.1 6.5 1.3
v -9.1 7.4 1.3
v -8.3 6.5 1.3
v -8.3 7.4 1.3
v -8.1 6.5 1.3
v -8.1 7.6 1.3
v -9.1 7.3 1.1
v -9.1 7.4 1.1
v -8.3 7.3 1.1
v -8.3 7.4 1.1
v -9.1 6.5 1
v -9.1 6.6 1
v -9.1 7.2 1
v -9.1 7.3 1
v -8.3 6.5 1
v -8.3 6.6 1
v -8.3 7.2 1
v -8.3 7.3 1
v -9.1 6.6 0.8
v -9.1 7.2 0.8
v -8.3 6.6 0.8
v -8.3 7.2 0.8
v -9.4 6.4 2.4
v -8 6.4 2.4
v -9.4 6.4 2.1
v -8 6.4 2.1
v -9.3 6.5 2.1
v -8.1 6.5 2.1
v -9.3 6.5 1.3
v -9.1 6.5 1.3
v -8.3 6.5 1.3
v -8.1 6.5 1.3
v -9.1 6.5 1
v -8.3 6.5 1
v -9.1 6.6 1
v -8.3 6.6 1
v -9.1 6.6 0.8
v -8.3 6.6 0.8
v -9.2 7.5 2.4
v -8.2 7.5 2.4
v -9.2 7.5 2.3
v -8.2 7.5 2.3
v -9.2 6.6 2.4
v -8.2 6.6 2.4
v -9.2 6.6 2.3
v -8.2 6.6 2.3
v -9.1 7.2 1
v -8.3 7.2 1
v -9.1 7.2 0.8
v -8.3 7.2 0.8
v -9.1 7.3 1.1
v -8.3 7.3 1.1
v -9.1 7.3 1
v -8.3 7.3 1
v -9.1 7.4 1.3
v -8.3 7.4 1.3
v -9.1 7.4 1.1
v -8.3 7.4 1.1
v -9.3 7.6 2.1
v -8.1 7.6 2.1
v -9.3 7.6 1.3
v -8.1 7.6 1.3
v -9.4 7.7 2.4
v -8 7.7 2.4
v -9.4 7.7 2.1
v -8 7.7 2.1

# faces
f 3/4/1 2/4/1 1/4/1
f 4/4/1 2/4/1 3/4/1
f 7/4/1 6/4/1 5/4/1
f 8/4/1 6/4/1 7/4/1
f 11/4/1 10/4/1 9/4/1
f 13/4/1 11/4/1 9/4/1
f 13/4/1 12/4/1 11/4/1
f 14/4/1 12/4/1 13/4/1
f 15/4/1 13/4/1 9/4/1
f 16/4/1 13/4/1 15/4/1
f 17/4/1 15/4/1 9/4/1
f 18/4/1 15/4/1 17/4/1
f 21/4/1 20/4/1 19/4/1
f 22/4/1 21/4/1 19/4/1
f 23/4/1 22/4/1 19/4/1
f 24/4/1 22/4/1 23/4/1
f 25/4/2 26/4/2 27/4/2
f 25/4/2 27/4/2 28/4/2
f 25/4/2 28/4/2 29/4/2
f 29/4/2 28/4/2 30/4/2
f 31/4/2 32/4/2 33/4/2
f 31/4/2 33/4/2 35/4/2
f 33/4/2 34/4/2 35/4/2
f 35/4/2 34/4/2 36/4/2
f 31/4/2 35/4/2 37/4/2
f 37/4/2 35/4/2 38/4/2
f 31/4/2 37/4/2 39/4/2
f 39/4/2 37/4/2 40/4/2
f 41/4/2 42/4/2 43/4/2
f 43/4/2 42/4/2 44/4/2
f 45/4/2 46/4/2 47/4/2
f 47/4/2 46/4/2 48/4/2
f 51/4/3 50/4/3 49/4/3
f 52/4/3 50/4/3 51/4/3
f 53/4/3 51/4/3 49/4/3
f 54/4/3 50/4/3 52/4/3
f 55/4/3 53/4/3 49/4/3
f 55/4/3 54/4/3 53/4/3
f 56/4/3 50/4/3 54/4/3
f 56/4/3 54/4/3 55/4/3
f 61/2/3 58/2/3 57/2/3
f 62/1/3 59/1/3 58/1/3
f 62/2/3 58/2/3 61/2/3
f 63/2/3 60/2/3 59/2/3
f 63/1/3 59/1/3 62/1/3
f 64/2/3 60/2/3 63/2/3
f 65/3/3 62/3/3 61/3/3
f 65/2/3 61/2/3 57/2/3
f 66/1/3 63/1/3 62/1/3
f 66/3/3 62/3/3 65/3/3
f 67/3/3 64/3/3 63/3/3
f 67/1/3 63/1/3 66/1/3
f 68/2/3 60/2/3 64/2/3
f 68/3/3 64/3/3 67/3/3
f 69/2/3 66/2/3 65/2/3
f 69/2/3 65/2/3 57/2/3
f 70/1/3 67/1/3 66/1/3
f 70/2/3 66/2/3 69/2/3
f 71/2/3 68/2/3 67/2/3
f 71/1/3 67/1/3 70/1/3
f 72/2/3 60/2/3 68/2/3
f 72/2/3 68/2/3 71/2/3
f 73/4/4 74/4/4 75/4/4
f 75/4/4 74/4/4 76/4/4
f 73/4/4 75/4/4 77/4/4
f 76/4/4 74/4/4 78/4/4
f 73/4/4 77/4/4 79/4/4
f 77/4/4 78/4/4 79/4/4
f 78/4/4 74/4/4 80/4/4
f 79/4/4 78/4/4 80/4/4
f 81/4/4 82/4/4 83/4/4
f 83/4/4 82/4/4 84/4/4
f 84/4/4 82/4/4 86/4/4
f 85/4/4 86/4/4 87/4/4
f 86/4/4 82/4/4 88/4/4
f 87/4/4 86/4/4 88/4/4
f 89/4/4 90/4/4 91/4/4
f 91/4/4 90/4/4 92/4/4
f 93/4/4 94/4/4 97/4/4
f 97/4/4 94/4/4 98/4/4
f 95/4/4 96/4/4 99/4/4
f 99/4/4 96/4/4 100/4/4
f 101/4/4 102/4/4 103/4/4
f 103/4/4 102/4/4 104/4/4
f 107/4/5 106/4/5 105/4/5
f 108/4/5 106/4/5 107/4/5
f 111/4/5 110/4/5 109/4/5
f 112/4/5 110/4/5 111/4/5
f 113/4/5 110/4/5 112/4/5
f 114/4/5 110/4/5 113/4/5
f 115/4/5 113/4/5 112/4/5
f 116/4/5 113/4/5 115/4/5
f 119/4/5 118/4/5 117/4/5
f 120/4/5 118/4/5 119/4/5
f 123/4/5 122/4/5 121/4/5
f 124/4/5 122/4/5 123/4/5
f 125/4/6 126/4/6 127/4/6
f 127/4/6 126/4/6 128/4/6
f 129/4/6 130/4/6 131/4/6
f 131/4/6 130/4/6 132/4/6
f 133/4/6 134/4/6 135/4/6
f 135/4/6 134/4/6 136/4/6
f 137/4/6 138/4/6 139/4/6
f 139/4/6 138/4/6 140/4/6
f 141/4/6 142/4/6 143/4/6
f 143/4/6 142/4/6 144/4/6
f 145/4/6 146/4/6 147/4/6
f 147/4/6 146/4/6 148/4/6
