# MagicaVoxel @ Ephtracy

# group
o 

# material
mtllib not stonks.mtl
usemtl palette

# normals
vn -1 0 0
vn 1 0 0
vn 0 0 1
vn 0 0 -1
vn 0 -1 0
vn 0 1 0

# texcoords
vt 0.458984 0.5
vt 0.798828 0.5
vt 0.802734 0.5
vt 0.884766 0.5

# verts
v -7.8 6.4 2.4
v -7.8 6.4 2.1
v -7.8 7.7 2.4
v -7.8 7.7 2.1
v -7.7 6.5 2.1
v -7.7 6.5 1.3
v -7.7 7.6 2.1
v -7.7 7.6 1.3
v -7.5 6.5 1.3
v -7.5 6.5 1
v -7.5 6.6 1
v -7.5 6.6 0.8
v -7.5 7.2 1
v -7.5 7.2 0.8
v -7.5 7.3 1.1
v -7.5 7.3 1
v -7.5 7.4 1.3
v -7.5 7.4 1.1
v -6.6 6.6 2.4
v -6.6 6.6 2.3
v -6.6 7.5 2.4
v -6.6 7.5 2.3
v -7.6 6.6 2.4
v -7.6 6.6 2.3
v -7.6 7.3 2.3
v -7.6 7.4 2.3
v -7.6 7.5 2.4
v -7.6 7.5 2.3
v -6.7 6.5 1.3
v -6.7 6.5 1
v -6.7 6.6 1
v -6.7 6.6 0.8
v -6.7 7.2 1
v -6.7 7.2 0.8
v -6.7 7.3 1.1
v -6.7 7.3 1
v -6.7 7.4 1.3
v -6.7 7.4 1.1
v -6.5 6.5 2.1
v -6.5 6.5 1.3
v -6.5 7.6 2.1
v -6.5 7.6 1.3
v -6.4 6.4 2.4
v -6.4 6.4 2.1
v -6.4 7.7 2.4
v -6.4 7.7 2.1
v -7.8 6.4 2.4
v -7.8 7.7 2.4
v -7.6 6.6 2.4
v -7.6 7.5 2.4
v -6.6 6.6 2.4
v -6.6 7.5 2.4
v -6.4 6.4 2.4
v -6.4 7.7 2.4
v -7.6 6.6 2.3
v -7.6 7.3 2.3
v -7.6 7.4 2.3
v -7.6 7.5 2.3
v -7.5 6.7 2.3
v -7.5 7.3 2.3
v -7.3 7.1 2.3
v -7.3 7.3 2.3
v -7.2 6.9 2.3
v -7.2 7 2.3
v -7.2 7.2 2.3
v -7.2 7.4 2.3
v -7.1 6.8 2.3
v -7.1 6.9 2.3
v -7 6.7 2.3
v -7 6.8 2.3
v -7 7 2.3
v -7 7.1 2.3
v -6.9 6.7 2.3
v -6.9 6.8 2.3
v -6.9 7 2.3
v -6.9 7.2 2.3
v -6.8 6.8 2.3
v -6.8 6.9 2.3
v -6.7 6.7 2.3
v -6.7 6.9 2.3
v -6.7 7 2.3
v -6.7 7.4 2.3
v -6.6 6.6 2.3
v -6.6 7.5 2.3
v -7.8 6.4 2.1
v -7.8 7.7 2.1
v -7.7 6.5 2.1
v -7.7 7.6 2.1
v -6.5 6.5 2.1
v -6.5 7.6 2.1
v -6.4 6.4 2.1
v -6.4 7.7 2.1
v -7.7 6.5 1.3
v -7.7 7.6 1.3
v -7.5 6.5 1.3
v -7.5 7.4 1.3
v -6.7 6.5 1.3
v -6.7 7.4 1.3
v -6.5 6.5 1.3
v -6.5 7.6 1.3
v -7.5 7.3 1.1
v -7.5 7.4 1.1
v -6.7 7.3 1.1
v -6.7 7.4 1.1
v -7.5 6.5 1
v -7.5 6.6 1
v -7.5 7.2 1
v -7.5 7.3 1
v -6.7 6.5 1
v -6.7 6.6 1
v -6.7 7.2 1
v -6.7 7.3 1
v -7.5 6.6 0.8
v -7.5 7.2 0.8
v -6.7 6.6 0.8
v -6.7 7.2 0.8
v -7.8 6.4 2.4
v -6.4 6.4 2.4
v -7.8 6.4 2.1
v -6.4 6.4 2.1
v -7.7 6.5 2.1
v -6.5 6.5 2.1
v -7.7 6.5 1.3
v -7.5 6.5 1.3
v -6.7 6.5 1.3
v -6.5 6.5 1.3
v -7.5 6.5 1
v -6.7 6.5 1
v -7.5 6.6 1
v -6.7 6.6 1
v -7.5 6.6 0.8
v -6.7 6.6 0.8
v -7.6 7.5 2.4
v -6.6 7.5 2.4
v -7.6 7.5 2.3
v -6.6 7.5 2.3
v -7.6 6.6 2.4
v -6.6 6.6 2.4
v -7.6 6.6 2.3
v -6.6 6.6 2.3
v -7.5 7.2 1
v -6.7 7.2 1
v -7.5 7.2 0.8
v -6.7 7.2 0.8
v -7.5 7.3 1.1
v -6.7 7.3 1.1
v -7.5 7.3 1
v -6.7 7.3 1
v -7.5 7.4 1.3
v -6.7 7.4 1.3
v -7.5 7.4 1.1
v -6.7 7.4 1.1
v -7.7 7.6 2.1
v -6.5 7.6 2.1
v -7.7 7.6 1.3
v -6.5 7.6 1.3
v -7.8 7.7 2.4
v -6.4 7.7 2.4
v -7.8 7.7 2.1
v -6.4 7.7 2.1

# faces
f 3/4/1 2/4/1 1/4/1
f 4/4/1 2/4/1 3/4/1
f 7/4/1 6/4/1 5/4/1
f 8/4/1 6/4/1 7/4/1
f 11/4/1 10/4/1 9/4/1
f 13/4/1 11/4/1 9/4/1
f 13/4/1 12/4/1 11/4/1
f 14/4/1 12/4/1 13/4/1
f 15/4/1 13/4/1 9/4/1
f 16/4/1 13/4/1 15/4/1
f 17/4/1 15/4/1 9/4/1
f 18/4/1 15/4/1 17/4/1
f 21/4/1 20/4/1 19/4/1
f 22/4/1 20/4/1 21/4/1
f 23/4/2 24/4/2 25/4/2
f 23/4/2 25/4/2 26/4/2
f 23/4/2 26/4/2 27/4/2
f 27/4/2 26/4/2 28/4/2
f 29/4/2 30/4/2 31/4/2
f 29/4/2 31/4/2 33/4/2
f 31/4/2 32/4/2 33/4/2
f 33/4/2 32/4/2 34/4/2
f 29/4/2 33/4/2 35/4/2
f 35/4/2 33/4/2 36/4/2
f 29/4/2 35/4/2 37/4/2
f 37/4/2 35/4/2 38/4/2
f 39/4/2 40/4/2 41/4/2
f 41/4/2 40/4/2 42/4/2
f 43/4/2 44/4/2 45/4/2
f 45/4/2 44/4/2 46/4/2
f 49/4/3 48/4/3 47/4/3
f 50/4/3 48/4/3 49/4/3
f 51/4/3 49/4/3 47/4/3
f 52/4/3 48/4/3 50/4/3
f 53/4/3 51/4/3 47/4/3
f 53/4/3 52/4/3 51/4/3
f 54/4/3 48/4/3 52/4/3
f 54/4/3 52/4/3 53/4/3
f 59/2/3 56/2/3 55/2/3
f 60/1/3 57/1/3 56/1/3
f 60/2/3 56/2/3 59/2/3
f 61/3/3 60/3/3 59/3/3
f 62/1/3 57/1/3 60/1/3
f 62/3/3 60/3/3 61/3/3
f 63/3/3 61/3/3 59/3/3
f 64/3/3 61/3/3 63/3/3
f 65/1/3 62/1/3 61/1/3
f 66/2/3 58/2/3 57/2/3
f 66/1/3 62/1/3 65/1/3
f 66/1/3 57/1/3 62/1/3
f 67/3/3 63/3/3 59/3/3
f 68/1/3 64/1/3 63/1/3
f 68/3/3 63/3/3 67/3/3
f 69/2/3 59/2/3 55/2/3
f 69/3/3 67/3/3 59/3/3
f 70/1/3 68/1/3 67/1/3
f 70/3/3 67/3/3 69/3/3
f 71/1/3 64/1/3 68/1/3
f 71/1/3 68/1/3 70/1/3
f 71/3/3 61/3/3 64/3/3
f 72/1/3 65/1/3 61/1/3
f 72/3/3 61/3/3 71/3/3
f 73/1/3 71/1/3 70/1/3
f 73/1/3 70/1/3 69/1/3
f 73/1/3 72/1/3 71/1/3
f 73/2/3 69/2/3 55/2/3
f 74/1/3 72/1/3 73/1/3
f 75/1/3 72/1/3 74/1/3
f 76/1/3 65/1/3 72/1/3
f 76/1/3 72/1/3 75/1/3
f 76/3/3 66/3/3 65/3/3
f 77/1/3 75/1/3 74/1/3
f 77/3/3 74/3/3 73/3/3
f 78/1/3 75/1/3 77/1/3
f 79/2/3 73/2/3 55/2/3
f 79/3/3 77/3/3 73/3/3
f 79/3/3 78/3/3 77/3/3
f 80/1/3 75/1/3 78/1/3
f 80/3/3 78/3/3 79/3/3
f 81/3/3 76/3/3 75/3/3
f 81/1/3 75/1/3 80/1/3
f 82/3/3 66/3/3 76/3/3
f 82/3/3 76/3/3 81/3/3
f 82/2/3 58/2/3 66/2/3
f 83/2/3 81/2/3 80/2/3
f 83/2/3 79/2/3 55/2/3
f 83/2/3 82/2/3 81/2/3
f 83/2/3 80/2/3 79/2/3
f 84/2/3 58/2/3 82/2/3
f 84/2/3 82/2/3 83/2/3
f 85/4/4 86/4/4 87/4/4
f 87/4/4 86/4/4 88/4/4
f 85/4/4 87/4/4 89/4/4
f 88/4/4 86/4/4 90/4/4
f 85/4/4 89/4/4 91/4/4
f 89/4/4 90/4/4 91/4/4
f 90/4/4 86/4/4 92/4/4
f 91/4/4 90/4/4 92/4/4
f 93/4/4 94/4/4 95/4/4
f 95/4/4 94/4/4 96/4/4
f 96/4/4 94/4/4 98/4/4
f 97/4/4 98/4/4 99/4/4
f 98/4/4 94/4/4 100/4/4
f 99/4/4 98/4/4 100/4/4
f 101/4/4 102/4/4 103/4/4
f 103/4/4 102/4/4 104/4/4
f 105/4/4 106/4/4 109/4/4
f 109/4/4 106/4/4 110/4/4
f 107/4/4 108/4/4 111/4/4
f 111/4/4 108/4/4 112/4/4
f 113/4/4 114/4/4 115/4/4
f 115/4/4 114/4/4 116/4/4
f 119/4/5 118/4/5 117/4/5
f 120/4/5 118/4/5 119/4/5
f 123/4/5 122/4/5 121/4/5
f 124/4/5 122/4/5 123/4/5
f 125/4/5 122/4/5 124/4/5
f 126/4/5 122/4/5 125/4/5
f 127/4/5 125/4/5 124/4/5
f 128/4/5 125/4/5 127/4/5
f 131/4/5 130/4/5 129/4/5
f 132/4/5 130/4/5 131/4/5
f 135/4/5 134/4/5 133/4/5
f 136/4/5 134/4/5 135/4/5
f 137/4/6 138/4/6 139/4/6
f 139/4/6 138/4/6 140/4/6
f 141/4/6 142/4/6 143/4/6
f 143/4/6 142/4/6 144/4/6
f 145/4/6 146/4/6 147/4/6
f 147/4/6 146/4/6 148/4/6
f 149/4/6 150/4/6 151/4/6
f 151/4/6 150/4/6 152/4/6
f 153/4/6 154/4/6 155/4/6
f 155/4/6 154/4/6 156/4/6
f 157/4/6 158/4/6 159/4/6
f 159/4/6 158/4/6 160/4/6
