# MagicaVoxel @ Ephtracy

# group
o 

# material
mtllib observatorio.mtl
usemtl palette

# normals
vn -1 0 0
vn 1 0 0
vn 0 0 1
vn 0 0 -1
vn 0 -1 0
vn 0 1 0

# texcoords
vt 0.798828 0.5
vt 0.802734 0.5
vt 0.892578 0.5
vt 0.916016 0.5
vt 0.919922 0.5
vt 0.947266 0.5
vt 0.951172 0.5

# verts
v -8.9 7 -1.9
v -8.9 7 -2.5
v -8.9 7.3 -1.9
v -8.9 7.3 -2.5
v -8.9 7.4 -2
v -8.9 7.4 -2.4
v -8.9 7.9 -2
v -8.9 7.9 -2.4
v -8.9 8 -1.9
v -8.9 8 -2.5
v -8.9 8.4 -1.9
v -8.9 8.4 -2.5
v -8.8 7 -1.6
v -8.8 7 -1.9
v -8.8 7 -2.5
v -8.8 7 -2.8
v -8.8 7.3 -1.9
v -8.8 7.3 -2.5
v -8.8 7.4 -2
v -8.8 7.4 -2.4
v -8.8 7.5 -2.1
v -8.8 7.5 -2.3
v -8.8 7.8 -2.1
v -8.8 7.8 -2.3
v -8.8 7.9 -2
v -8.8 7.9 -2.4
v -8.8 8 -1.9
v -8.8 8 -2.5
v -8.8 8.4 -1.6
v -8.8 8.4 -1.9
v -8.8 8.4 -2.5
v -8.8 8.4 -2.8
v -8.8 8.8 -1.9
v -8.8 8.8 -2.5
v -8.7 7 -1.5
v -8.7 7 -1.6
v -8.7 7 -2.8
v -8.7 7 -2.9
v -8.7 8.4 -1.5
v -8.7 8.4 -1.6
v -8.7 8.4 -1.7
v -8.7 8.4 -1.9
v -8.7 8.4 -2.5
v -8.7 8.4 -2.7
v -8.7 8.4 -2.8
v -8.7 8.4 -2.9
v -8.7 8.8 -1.7
v -8.7 8.8 -1.9
v -8.7 8.8 -2.5
v -8.7 8.8 -2.7
v -8.7 8.9 -1.9
v -8.7 8.9 -2.5
v -8.6 7 -1.4
v -8.6 7 -1.5
v -8.6 7 -2.9
v -8.6 7 -3
v -8.6 8.4 -1.4
v -8.6 8.4 -1.5
v -8.6 8.4 -1.7
v -8.6 8.4 -2.7
v -8.6 8.4 -2.9
v -8.6 8.4 -3
v -8.6 8.8 -1.5
v -8.6 8.8 -1.7
v -8.6 8.8 -1.9
v -8.6 8.8 -2.5
v -8.6 8.8 -2.7
v -8.6 8.8 -2.9
v -8.6 8.9 -1.7
v -8.6 8.9 -1.9
v -8.6 8.9 -2.5
v -8.6 8.9 -2.7
v -8.6 9 -1.9
v -8.6 9 -2.5
v -8.5 7 -1.3
v -8.5 7 -1.4
v -8.5 7 -3
v -8.5 7 -3.1
v -8.5 8.4 -1.3
v -8.5 8.4 -1.4
v -8.5 8.4 -1.5
v -8.5 8.4 -2.9
v -8.5 8.4 -3
v -8.5 8.4 -3.1
v -8.5 8.8 -1.4
v -8.5 8.8 -1.5
v -8.5 8.8 -1.6
v -8.5 8.8 -1.7
v -8.5 8.8 -2.7
v -8.5 8.8 -2.8
v -8.5 8.8 -2.9
v -8.5 8.8 -3
v -8.5 8.9 -1.6
v -8.5 8.9 -1.7
v -8.5 8.9 -1.9
v -8.5 8.9 -2.5
v -8.5 8.9 -2.7
v -8.5 8.9 -2.8
v -8.5 9 -1.7
v -8.5 9 -1.9
v -8.5 9 -2.5
v -8.5 9 -2.7
v -8.5 9.1 -1.9
v -8.5 9.1 -2.5
v -8.4 7 -1.2
v -8.4 7 -1.3
v -8.4 7 -3.1
v -8.4 7 -3.2
v -8.4 8.4 -1.2
v -8.4 8.4 -1.3
v -8.4 8.4 -3.1
v -8.4 8.4 -3.2
v -8.4 8.8 -1.5
v -8.4 8.8 -1.6
v -8.4 8.8 -2.8
v -8.4 8.8 -2.9
v -8.4 8.9 -1.5
v -8.4 8.9 -1.6
v -8.4 8.9 -1.7
v -8.4 8.9 -2.7
v -8.4 8.9 -2.8
v -8.4 8.9 -2.9
v -8.4 9 -1.6
v -8.4 9 -1.7
v -8.4 9 -1.8
v -8.4 9 -1.9
v -8.4 9 -2.5
v -8.4 9 -2.6
v -8.4 9 -2.7
v -8.4 9 -2.8
v -8.4 9.1 -1.8
v -8.4 9.1 -1.9
v -8.4 9.1 -2
v -8.4 9.1 -2.4
v -8.4 9.1 -2.5
v -8.4 9.1 -2.6
v -8.4 9.2 -2
v -8.4 9.2 -2.4
v -8.3 8.4 -1.3
v -8.3 8.4 -1.4
v -8.3 8.4 -3
v -8.3 8.4 -3.1
v -8.3 8.8 -1.3
v -8.3 8.8 -1.4
v -8.3 8.8 -1.5
v -8.3 8.8 -2.9
v -8.3 8.8 -3
v -8.3 8.8 -3.1
v -8.3 8.9 -1.4
v -8.3 8.9 -1.5
v -8.3 8.9 -1.6
v -8.3 8.9 -2.8
v -8.3 8.9 -2.9
v -8.3 8.9 -3
v -8.3 9 -1.5
v -8.3 9 -1.6
v -8.3 9 -1.7
v -8.3 9 -1.8
v -8.3 9 -2.6
v -8.3 9 -2.7
v -8.3 9 -2.8
v -8.3 9 -2.9
v -8.3 9.1 -1.7
v -8.3 9.1 -1.8
v -8.3 9.1 -2
v -8.3 9.1 -2.4
v -8.3 9.1 -2.6
v -8.3 9.1 -2.7
v -8.3 9.2 -1.8
v -8.3 9.2 -2
v -8.3 9.2 -2.4
v -8.3 9.2 -2.6
v -8.3 9.3 -2
v -8.3 9.3 -2.4
v -8.2 9 -0.8
v -8.2 9 -1
v -8.2 9 -1.6
v -8.2 9 -1.7
v -8.2 9 -2.7
v -8.2 9 -2.8
v -8.2 9.1 -0.8
v -8.2 9.1 -0.9
v -8.2 9.1 -1
v -8.2 9.1 -1.1
v -8.2 9.1 -1.6
v -8.2 9.1 -1.7
v -8.2 9.1 -1.8
v -8.2 9.1 -2.6
v -8.2 9.1 -2.7
v -8.2 9.1 -2.8
v -8.2 9.2 -0.9
v -8.2 9.2 -1
v -8.2 9.2 -1.1
v -8.2 9.2 -1.2
v -8.2 9.2 -1.7
v -8.2 9.2 -1.8
v -8.2 9.2 -2
v -8.2 9.2 -2.4
v -8.2 9.2 -2.6
v -8.2 9.2 -2.7
v -8.2 9.3 -1
v -8.2 9.3 -1.1
v -8.2 9.3 -1.2
v -8.2 9.3 -1.3
v -8.2 9.3 -1.8
v -8.2 9.3 -2
v -8.2 9.3 -2.4
v -8.2 9.3 -2.6
v -8.2 9.4 -1.1
v -8.2 9.4 -1.2
v -8.2 9.4 -1.3
v -8.2 9.4 -1.4
v -8.2 9.4 -2
v -8.2 9.4 -2.4
v -8.2 9.5 -1.2
v -8.2 9.5 -1.3
v -8.2 9.6 -1.3
v -8.2 9.6 -1.4
v -8.1 7 -1.1
v -8.1 7 -1.2
v -8.1 7 -3.2
v -8.1 7 -3.3
v -8.1 7.7 -1.1
v -8.1 7.7 -1.2
v -8.1 8.4 -1.1
v -8.1 8.4 -1.2
v -8.1 8.4 -1.3
v -8.1 8.4 -3.1
v -8.1 8.4 -3.2
v -8.1 8.4 -3.3
v -8.1 8.8 -1.2
v -8.1 8.8 -1.3
v -8.1 8.8 -1.4
v -8.1 8.8 -3
v -8.1 8.8 -3.1
v -8.1 8.8 -3.2
v -8.1 8.9 -0.8
v -8.1 8.9 -1
v -8.1 8.9 -1.3
v -8.1 8.9 -1.4
v -8.1 8.9 -1.5
v -8.1 8.9 -2.9
v -8.1 8.9 -3
v -8.1 8.9 -3.1
v -8.1 9 -0.8
v -8.1 9 -1
v -8.1 9 -1.1
v -8.1 9 -1.4
v -8.1 9 -1.5
v -8.1 9 -1.6
v -8.1 9 -2.8
v -8.1 9 -2.9
v -8.1 9 -3
v -8.1 9.1 -1
v -8.1 9.1 -1.1
v -8.1 9.1 -1.2
v -8.1 9.1 -1.5
v -8.1 9.1 -1.6
v -8.1 9.1 -2.8
v -8.1 9.1 -2.9
v -8.1 9.2 -1.1
v -8.1 9.2 -1.2
v -8.1 9.2 -1.3
v -8.1 9.3 -1.2
v -8.1 9.3 -1.3
v -8.1 9.3 -1.4
v -8.1 9.3 -1.9
v -8.1 9.3 -2
v -8.1 9.3 -2.4
v -8.1 9.3 -2.5
v -8.1 9.4 -1.3
v -8.1 9.4 -1.4
v -8.1 9.4 -1.5
v -8.1 9.4 -1.9
v -8.1 9.4 -2
v -8.1 9.4 -2.4
v -8.1 9.4 -2.5
v -8.1 9.6 -1.4
v -8.1 9.6 -1.5
v -8 8.9 -1.2
v -8 8.9 -1.3
v -8 8.9 -1.4
v -8 9 -1.1
v -8 9 -1.2
v -8 9 -1.4
v -8 9 -1.5
v -8 9.1 -1.1
v -8 9.1 -1.2
v -8 9.1 -1.4
v -8 9.1 -1.5
v -8 9.1 -2.7
v -8 9.1 -2.8
v -8 9.2 -1.2
v -8 9.2 -1.3
v -8 9.2 -1.4
v -8 9.2 -2.6
v -8 9.2 -2.7
v -8 9.2 -2.8
v -8 9.3 -2.5
v -8 9.3 -2.6
v -8 9.3 -2.7
v -8 9.4 -2.5
v -8 9.4 -2.6
v -7.6 7 -1.1
v -7.6 7 -1.2
v -7.6 7.6 -1.1
v -7.6 7.6 -1.2
v -7.6 8.5 -1.2
v -7.6 8.5 -1.4
v -7.6 8.8 -1.2
v -7.6 8.8 -1.3
v -7.6 8.8 -1.4
v -7.6 8.8 -1.7
v -7.6 8.8 -1.9
v -7.6 8.9 -1.6
v -7.6 8.9 -1.7
v -7.6 9 -1.5
v -7.6 9 -1.6
v -7.6 9.1 -1.5
v -7.6 9.1 -1.7
v -7.6 9.2 -1.7
v -7.6 9.2 -1.8
v -7.6 9.3 -1.8
v -7.6 9.3 -1.9
v -7.5 9.1 -0.9
v -7.5 9.1 -1
v -7.5 9.2 -0.9
v -7.5 9.2 -1
v -7.5 9.2 -1.1
v -7.5 9.3 -1
v -7.5 9.3 -1.1
v -7.5 9.3 -1.2
v -7.5 9.4 -1.1
v -7.5 9.4 -1.2
v -7.5 9.4 -1.3
v -7.5 9.5 -1.2
v -7.5 9.5 -1.3
v -8.1 9.1 -0.9
v -8.1 9.1 -1
v -8.1 9.2 -0.9
v -8.1 9.2 -1
v -8.1 9.2 -1.1
v -8.1 9.3 -1
v -8.1 9.3 -1.1
v -8.1 9.3 -1.2
v -8.1 9.4 -1.1
v -8.1 9.4 -1.2
v -8.1 9.4 -1.3
v -8.1 9.5 -1.2
v -8.1 9.5 -1.3
v -8 7 -1.1
v -8 7 -1.2
v -8 7.6 -1.1
v -8 7.6 -1.2
v -8 8.5 -1.2
v -8 8.5 -1.4
v -8 8.8 -1.2
v -8 8.8 -1.3
v -8 8.8 -1.4
v -8 8.8 -1.7
v -8 8.8 -1.9
v -8 8.9 -1.6
v -8 8.9 -1.7
v -8 9 -1.5
v -8 9 -1.6
v -8 9.1 -1.5
v -8 9.1 -1.7
v -8 9.2 -1.7
v -8 9.2 -1.8
v -8 9.3 -1.8
v -8 9.3 -1.9
v -7.6 8.9 -1.2
v -7.6 8.9 -1.3
v -7.6 8.9 -1.4
v -7.6 9 -1.1
v -7.6 9 -1.2
v -7.6 9 -1.4
v -7.6 9 -1.5
v -7.6 9.1 -1.1
v -7.6 9.1 -1.2
v -7.6 9.1 -1.4
v -7.6 9.1 -1.5
v -7.6 9.1 -2.7
v -7.6 9.1 -2.8
v -7.6 9.2 -1.2
v -7.6 9.2 -1.3
v -7.6 9.2 -1.4
v -7.6 9.2 -2.6
v -7.6 9.2 -2.7
v -7.6 9.2 -2.8
v -7.6 9.3 -2.5
v -7.6 9.3 -2.6
v -7.6 9.3 -2.7
v -7.6 9.4 -2.5
v -7.6 9.4 -2.6
v -7.5 7 -1.1
v -7.5 7 -1.2
v -7.5 7 -3.2
v -7.5 7 -3.3
v -7.5 7.7 -1.1
v -7.5 7.7 -1.2
v -7.5 8.4 -1.1
v -7.5 8.4 -1.2
v -7.5 8.4 -1.3
v -7.5 8.4 -3.1
v -7.5 8.4 -3.2
v -7.5 8.4 -3.3
v -7.5 8.8 -1.2
v -7.5 8.8 -1.3
v -7.5 8.8 -1.4
v -7.5 8.8 -3
v -7.5 8.8 -3.1
v -7.5 8.8 -3.2
v -7.5 8.9 -0.8
v -7.5 8.9 -1
v -7.5 8.9 -1.3
v -7.5 8.9 -1.4
v -7.5 8.9 -1.5
v -7.5 8.9 -2.9
v -7.5 8.9 -3
v -7.5 8.9 -3.1
v -7.5 9 -0.8
v -7.5 9 -1
v -7.5 9 -1.1
v -7.5 9 -1.4
v -7.5 9 -1.5
v -7.5 9 -1.6
v -7.5 9 -2.8
v -7.5 9 -2.9
v -7.5 9 -3
v -7.5 9.1 -1
v -7.5 9.1 -1.1
v -7.5 9.1 -1.2
v -7.5 9.1 -1.5
v -7.5 9.1 -1.6
v -7.5 9.1 -2.8
v -7.5 9.1 -2.9
v -7.5 9.2 -1.1
v -7.5 9.2 -1.2
v -7.5 9.2 -1.3
v -7.5 9.3 -1.2
v -7.5 9.3 -1.3
v -7.5 9.3 -1.4
v -7.5 9.3 -1.9
v -7.5 9.3 -2
v -7.5 9.3 -2.4
v -7.5 9.3 -2.5
v -7.5 9.4 -1.3
v -7.5 9.4 -1.4
v -7.5 9.4 -1.5
v -7.5 9.4 -1.9
v -7.5 9.4 -2
v -7.5 9.4 -2.4
v -7.5 9.4 -2.5
v -7.5 9.6 -1.4
v -7.5 9.6 -1.5
v -7.4 9 -0.8
v -7.4 9 -1
v -7.4 9 -1.6
v -7.4 9 -1.7
v -7.4 9 -2.7
v -7.4 9 -2.8
v -7.4 9.1 -0.8
v -7.4 9.1 -0.9
v -7.4 9.1 -1
v -7.4 9.1 -1.1
v -7.4 9.1 -1.6
v -7.4 9.1 -1.7
v -7.4 9.1 -1.8
v -7.4 9.1 -2.6
v -7.4 9.1 -2.7
v -7.4 9.1 -2.8
v -7.4 9.2 -0.9
v -7.4 9.2 -1
v -7.4 9.2 -1.1
v -7.4 9.2 -1.2
v -7.4 9.2 -1.7
v -7.4 9.2 -1.8
v -7.4 9.2 -2
v -7.4 9.2 -2.4
v -7.4 9.2 -2.6
v -7.4 9.2 -2.7
v -7.4 9.3 -1
v -7.4 9.3 -1.1
v -7.4 9.3 -1.2
v -7.4 9.3 -1.3
v -7.4 9.3 -1.8
v -7.4 9.3 -2
v -7.4 9.3 -2.4
v -7.4 9.3 -2.6
v -7.4 9.4 -1.1
v -7.4 9.4 -1.2
v -7.4 9.4 -1.3
v -7.4 9.4 -1.4
v -7.4 9.4 -2
v -7.4 9.4 -2.4
v -7.4 9.5 -1.2
v -7.4 9.5 -1.3
v -7.4 9.6 -1.3
v -7.4 9.6 -1.4
v -7.3 8.4 -1.3
v -7.3 8.4 -1.4
v -7.3 8.4 -3
v -7.3 8.4 -3.1
v -7.3 8.8 -1.3
v -7.3 8.8 -1.4
v -7.3 8.8 -1.5
v -7.3 8.8 -2.9
v -7.3 8.8 -3
v -7.3 8.8 -3.1
v -7.3 8.9 -1.4
v -7.3 8.9 -1.5
v -7.3 8.9 -1.6
v -7.3 8.9 -2.8
v -7.3 8.9 -2.9
v -7.3 8.9 -3
v -7.3 9 -1.5
v -7.3 9 -1.6
v -7.3 9 -1.7
v -7.3 9 -1.8
v -7.3 9 -2.6
v -7.3 9 -2.7
v -7.3 9 -2.8
v -7.3 9 -2.9
v -7.3 9.1 -1.7
v -7.3 9.1 -1.8
v -7.3 9.1 -2
v -7.3 9.1 -2.4
v -7.3 9.1 -2.6
v -7.3 9.1 -2.7
v -7.3 9.2 -1.8
v -7.3 9.2 -2
v -7.3 9.2 -2.4
v -7.3 9.2 -2.6
v -7.3 9.3 -2
v -7.3 9.3 -2.4
v -7.2 7 -1.2
v -7.2 7 -1.3
v -7.2 7 -3.1
v -7.2 7 -3.2
v -7.2 8.4 -1.2
v -7.2 8.4 -1.3
v -7.2 8.4 -3.1
v -7.2 8.4 -3.2
v -7.2 8.8 -1.5
v -7.2 8.8 -1.6
v -7.2 8.8 -2.8
v -7.2 8.8 -2.9
v -7.2 8.9 -1.5
v -7.2 8.9 -1.6
v -7.2 8.9 -1.7
v -7.2 8.9 -2.7
v -7.2 8.9 -2.8
v -7.2 8.9 -2.9
v -7.2 9 -1.6
v -7.2 9 -1.7
v -7.2 9 -1.8
v -7.2 9 -1.9
v -7.2 9 -2.5
v -7.2 9 -2.6
v -7.2 9 -2.7
v -7.2 9 -2.8
v -7.2 9.1 -1.8
v -7.2 9.1 -1.9
v -7.2 9.1 -2
v -7.2 9.1 -2.4
v -7.2 9.1 -2.5
v -7.2 9.1 -2.6
v -7.2 9.2 -2
v -7.2 9.2 -2.4
v -7.1 7 -1.3
v -7.1 7 -1.4
v -7.1 7 -3
v -7.1 7 -3.1
v -7.1 8.4 -1.3
v -7.1 8.4 -1.4
v -7.1 8.4 -1.5
v -7.1 8.4 -2.9
v -7.1 8.4 -3
v -7.1 8.4 -3.1
v -7.1 8.8 -1.4
v -7.1 8.8 -1.5
v -7.1 8.8 -1.6
v -7.1 8.8 -1.7
v -7.1 8.8 -2.7
v -7.1 8.8 -2.8
v -7.1 8.8 -2.9
v -7.1 8.8 -3
v -7.1 8.9 -1.6
v -7.1 8.9 -1.7
v -7.1 8.9 -1.9
v -7.1 8.9 -2.5
v -7.1 8.9 -2.7
v -7.1 8.9 -2.8
v -7.1 9 -1.7
v -7.1 9 -1.9
v -7.1 9 -2.5
v -7.1 9 -2.7
v -7.1 9.1 -1.9
v -7.1 9.1 -2.5
v -7 7 -1.4
v -7 7 -1.5
v -7 7 -2.9
v -7 7 -3
v -7 8.4 -1.4
v -7 8.4 -1.5
v -7 8.4 -1.7
v -7 8.4 -2.7
v -7 8.4 -2.9
v -7 8.4 -3
v -7 8.8 -1.5
v -7 8.8 -1.7
v -7 8.8 -1.9
v -7 8.8 -2.5
v -7 8.8 -2.7
v -7 8.8 -2.9
v -7 8.9 -1.7
v -7 8.9 -1.9
v -7 8.9 -2.5
v -7 8.9 -2.7
v -7 9 -1.9
v -7 9 -2.5
v -6.9 7 -1.5
v -6.9 7 -1.6
v -6.9 7 -2.8
v -6.9 7 -2.9
v -6.9 8.4 -1.5
v -6.9 8.4 -1.6
v -6.9 8.4 -1.7
v -6.9 8.4 -1.9
v -6.9 8.4 -2.5
v -6.9 8.4 -2.7
v -6.9 8.4 -2.8
v -6.9 8.4 -2.9
v -6.9 8.8 -1.7
v -6.9 8.8 -1.9
v -6.9 8.8 -2.5
v -6.9 8.8 -2.7
v -6.9 8.9 -1.9
v -6.9 8.9 -2.5
v -6.8 7 -1.6
v -6.8 7 -1.9
v -6.8 7 -2.5
v -6.8 7 -2.8
v -6.8 7.3 -1.9
v -6.8 7.3 -2.5
v -6.8 7.4 -2
v -6.8 7.4 -2.4
v -6.8 7.5 -2.1
v -6.8 7.5 -2.3
v -6.8 7.8 -2.1
v -6.8 7.8 -2.3
v -6.8 7.9 -2
v -6.8 7.9 -2.4
v -6.8 8 -1.9
v -6.8 8 -2.5
v -6.8 8.4 -1.6
v -6.8 8.4 -1.9
v -6.8 8.4 -2.5
v -6.8 8.4 -2.8
v -6.8 8.8 -1.9
v -6.8 8.8 -2.5
v -6.7 7 -1.9
v -6.7 7 -2.5
v -6.7 7.3 -1.9
v -6.7 7.3 -2.5
v -6.7 7.4 -2
v -6.7 7.4 -2.4
v -6.7 7.9 -2
v -6.7 7.9 -2.4
v -6.7 8 -1.9
v -6.7 8 -2.5
v -6.7 8.4 -1.9
v -6.7 8.4 -2.5
v -8.2 9 -0.8
v -8.2 9.1 -0.8
v -8.1 8.9 -0.8
v -8.1 9 -0.8
v -7.5 8.9 -0.8
v -7.5 9 -0.8
v -7.4 9 -0.8
v -7.4 9.1 -0.8
v -8.2 9.1 -0.9
v -8.2 9.2 -0.9
v -8.1 9.1 -0.9
v -8.1 9.2 -0.9
v -7.5 9.1 -0.9
v -7.5 9.2 -0.9
v -7.4 9.1 -0.9
v -7.4 9.2 -0.9
v -8.2 9.2 -1
v -8.2 9.3 -1
v -8.1 9.1 -1
v -8.1 9.2 -1
v -8.1 9.3 -1
v -7.6 9.1 -1
v -7.6 9.2 -1
v -7.5 9.1 -1
v -7.5 9.2 -1
v -7.5 9.3 -1
v -7.4 9.2 -1
v -7.4 9.3 -1
v -8.2 9.3 -1.1
v -8.2 9.4 -1.1
v -8.1 7 -1.1
v -8.1 7.7 -1.1
v -8.1 8.4 -1.1
v -8.1 9.2 -1.1
v -8.1 9.3 -1.1
v -8.1 9.4 -1.1
v -8 7 -1.1
v -8 7.6 -1.1
v -7.8 9.2 -1.1
v -7.8 9.3 -1.1
v -7.6 7 -1.1
v -7.6 7.6 -1.1
v -7.6 9.2 -1.1
v -7.6 9.3 -1.1
v -7.5 7 -1.1
v -7.5 7.7 -1.1
v -7.5 8.4 -1.1
v -7.5 9.2 -1.1
v -7.5 9.3 -1.1
v -7.5 9.4 -1.1
v -7.4 9.3 -1.1
v -7.4 9.4 -1.1
v -8.4 7 -1.2
v -8.4 8.4 -1.2
v -8.2 9.4 -1.2
v -8.2 9.5 -1.2
v -8.1 7 -1.2
v -8.1 7.7 -1.2
v -8.1 8.4 -1.2
v -8.1 8.8 -1.2
v -8.1 9.3 -1.2
v -8.1 9.4 -1.2
v -8.1 9.5 -1.2
v -8 7 -1.2
v -8 7.6 -1.2
v -8 8.5 -1.2
v -8 8.8 -1.2
v -8 8.9 -1.2
v -8 9 -1.2
v -8 9.3 -1.2
v -8 9.4 -1.2
v -7.9 7 -1.2
v -7.9 7.5 -1.2
v -7.8 9.3 -1.2
v -7.8 9.4 -1.2
v -7.7 7 -1.2
v -7.7 7.5 -1.2
v -7.6 7 -1.2
v -7.6 7.6 -1.2
v -7.6 8.5 -1.2
v -7.6 8.8 -1.2
v -7.6 8.9 -1.2
v -7.6 9 -1.2
v -7.6 9.3 -1.2
v -7.5 7 -1.2
v -7.5 7.7 -1.2
v -7.5 8.4 -1.2
v -7.5 8.8 -1.2
v -7.5 9.3 -1.2
v -7.5 9.4 -1.2
v -7.5 9.5 -1.2
v -7.4 9.4 -1.2
v -7.4 9.5 -1.2
v -7.2 7 -1.2
v -7.2 8.4 -1.2
v -8.5 7 -1.3
v -8.5 8.4 -1.3
v -8.4 7 -1.3
v -8.4 8.4 -1.3
v -8.3 8.4 -1.3
v -8.3 8.8 -1.3
v -8.2 9.5 -1.3
v -8.2 9.6 -1.3
v -8.1 8.4 -1.3
v -8.1 8.8 -1.3
v -8.1 8.9 -1.3
v -8.1 9.4 -1.3
v -8.1 9.5 -1.3
v -8 8.8 -1.3
v -8 8.9 -1.3
v -8 9.4 -1.3
v -8 9.5 -1.3
v -7.8 9.4 -1.3
v -7.6 8.8 -1.3
v -7.6 8.9 -1.3
v -7.5 8.4 -1.3
v -7.5 8.8 -1.3
v -7.5 8.9 -1.3
v -7.5 9.4 -1.3
v -7.5 9.5 -1.3
v -7.4 9.5 -1.3
v -7.4 9.6 -1.3
v -7.3 8.4 -1.3
v -7.3 8.8 -1.3
v -7.2 7 -1.3
v -7.2 8.4 -1.3
v -7.1 7 -1.3
v -7.1 8.4 -1.3
v -8.6 7 -1.4
v -8.6 8.4 -1.4
v -8.5 7 -1.4
v -8.5 8.4 -1.4
v -8.5 8.8 -1.4
v -8.3 8.4 -1.4
v -8.3 8.8 -1.4
v -8.3 8.9 -1.4
v -8.1 8.8 -1.4
v -8.1 8.9 -1.4
v -8.1 9 -1.4
v -8 8.5 -1.4
v -8 8.8 -1.4
v -8 8.9 -1.4
v -8 9 -1.4
v -7.6 8.5 -1.4
v -7.6 8.8 -1.4
v -7.6 8.9 -1.4
v -7.6 9 -1.4
v -7.5 8.8 -1.4
v -7.5 8.9 -1.4
v -7.5 9 -1.4
v -7.3 8.4 -1.4
v -7.3 8.8 -1.4
v -7.3 8.9 -1.4
v -7.1 7 -1.4
v -7.1 8.4 -1.4
v -7.1 8.8 -1.4
v -7 7 -1.4
v -7 8.4 -1.4
v -8.7 7 -1.5
v -8.7 8.4 -1.5
v -8.6 7 -1.5
v -8.6 8.4 -1.5
v -8.6 8.8 -1.5
v -8.5 8.4 -1.5
v -8.5 8.8 -1.5
v -8.4 8.8 -1.5
v -8.4 8.9 -1.5
v -8.3 8.8 -1.5
v -8.3 8.9 -1.5
v -8.3 9 -1.5
v -8.1 8.9 -1.5
v -8.1 9 -1.5
v -8.1 9.1 -1.5
v -8 9 -1.5
v -8 9.1 -1.5
v -7.6 9 -1.5
v -7.6 9.1 -1.5
v -7.5 8.9 -1.5
v -7.5 9 -1.5
v -7.5 9.1 -1.5
v -7.3 8.8 -1.5
v -7.3 8.9 -1.5
v -7.3 9 -1.5
v -7.2 8.8 -1.5
v -7.2 8.9 -1.5
v -7.1 8.4 -1.5
v -7.1 8.8 -1.5
v -7 7 -1.5
v -7 8.4 -1.5
v -7 8.8 -1.5
v -6.9 7 -1.5
v -6.9 8.4 -1.5
v -8.8 7 -1.6
v -8.8 8.4 -1.6
v -8.7 7 -1.6
v -8.7 8.4 -1.6
v -8.5 8.8 -1.6
v -8.5 8.9 -1.6
v -8.4 8.8 -1.6
v -8.4 8.9 -1.6
v -8.4 9 -1.6
v -8.3 8.9 -1.6
v -8.3 9 -1.6
v -8.2 9 -1.6
v -8.2 9.1 -1.6
v -8.1 9 -1.6
v -8.1 9.1 -1.6
v -7.5 9 -1.6
v -7.5 9.1 -1.6
v -7.4 9 -1.6
v -7.4 9.1 -1.6
v -7.3 8.9 -1.6
v -7.3 9 -1.6
v -7.2 8.8 -1.6
v -7.2 8.9 -1.6
v -7.2 9 -1.6
v -7.1 8.8 -1.6
v -7.1 8.9 -1.6
v -6.9 7 -1.6
v -6.9 8.4 -1.6
v -6.8 7 -1.6
v -6.8 8.4 -1.6
v -8.7 8.4 -1.7
v -8.7 8.8 -1.7
v -8.6 8.4 -1.7
v -8.6 8.8 -1.7
v -8.6 8.9 -1.7
v -8.5 8.8 -1.7
v -8.5 8.9 -1.7
v -8.5 9 -1.7
v -8.4 8.9 -1.7
v -8.4 9 -1.7
v -8.3 9 -1.7
v -8.3 9.1 -1.7
v -8.2 9 -1.7
v -8.2 9.1 -1.7
v -8.2 9.2 -1.7
v -8 9.1 -1.7
v -8 9.2 -1.7
v -7.6 9.1 -1.7
v -7.6 9.2 -1.7
v -7.4 9 -1.7
v -7.4 9.1 -1.7
v -7.4 9.2 -1.7
v -7.3 9 -1.7
v -7.3 9.1 -1.7
v -7.2 8.9 -1.7
v -7.2 9 -1.7
v -7.1 8.8 -1.7
v -7.1 8.9 -1.7
v -7.1 9 -1.7
v -7 8.4 -1.7
v -7 8.8 -1.7
v -7 8.9 -1.7
v -6.9 8.4 -1.7
v -6.9 8.8 -1.7
v -8.4 9 -1.8
v -8.4 9.1 -1.8
v -8.3 9 -1.8
v -8.3 9.1 -1.8
v -8.3 9.2 -1.8
v -8.2 9.1 -1.8
v -8.2 9.2 -1.8
v -8.2 9.3 -1.8
v -8 9.2 -1.8
v -8 9.3 -1.8
v -7.6 9.2 -1.8
v -7.6 9.3 -1.8
v -7.4 9.1 -1.8
v -7.4 9.2 -1.8
v -7.4 9.3 -1.8
v -7.3 9 -1.8
v -7.3 9.1 -1.8
v -7.3 9.2 -1.8
v -7.2 9 -1.8
v -7.2 9.1 -1.8
v -8.9 7 -1.9
v -8.9 7.3 -1.9
v -8.9 8 -1.9
v -8.9 8.4 -1.9
v -8.8 7 -1.9
v -8.8 7.3 -1.9
v -8.8 8 -1.9
v -8.8 8.4 -1.9
v -8.8 8.8 -1.9
v -8.7 8.4 -1.9
v -8.7 8.8 -1.9
v -8.7 8.9 -1.9
v -8.6 8.8 -1.9
v -8.6 8.9 -1.9
v -8.6 9 -1.9
v -8.5 8.9 -1.9
v -8.5 9 -1.9
v -8.5 9.1 -1.9
v -8.4 9 -1.9
v -8.4 9.1 -1.9
v -8.1 9.3 -1.9
v -8.1 9.4 -1.9
v -8 8.8 -1.9
v -8 9.3 -1.9
v -7.6 8.8 -1.9
v -7.6 9.3 -1.9
v -7.5 9.3 -1.9
v -7.5 9.4 -1.9
v -7.2 9 -1.9
v -7.2 9.1 -1.9
v -7.1 8.9 -1.9
v -7.1 9 -1.9
v -7.1 9.1 -1.9
v -7 8.8 -1.9
v -7 8.9 -1.9
v -7 9 -1.9
v -6.9 8.4 -1.9
v -6.9 8.8 -1.9
v -6.9 8.9 -1.9
v -6.8 7 -1.9
v -6.8 7.3 -1.9
v -6.8 8 -1.9
v -6.8 8.4 -1.9
v -6.8 8.8 -1.9
v -6.7 7 -1.9
v -6.7 7.3 -1.9
v -6.7 8 -1.9
v -6.7 8.4 -1.9
v -8.4 9.1 -2
v -8.4 9.2 -2
v -8.3 9.1 -2
v -8.3 9.2 -2
v -8.3 9.3 -2
v -8.2 9.2 -2
v -8.2 9.3 -2
v -8.2 9.4 -2
v -8.1 9.3 -2
v -8.1 9.4 -2
v -7.5 9.3 -2
v -7.5 9.4 -2
v -7.4 9.2 -2
v -7.4 9.3 -2
v -7.4 9.4 -2
v -7.3 9.1 -2
v -7.3 9.2 -2
v -7.3 9.3 -2
v -7.2 9.1 -2
v -7.2 9.2 -2
v -8.9 7.4 -2.4
v -8.9 7.9 -2.4
v -8.8 7.4 -2.4
v -8.8 7.9 -2.4
v -6.8 7.4 -2.4
v -6.8 7.9 -2.4
v -6.7 7.4 -2.4
v -6.7 7.9 -2.4
v -8.2 9 -1
v -8.2 9.1 -1
v -8.1 8.9 -1
v -8.1 9 -1
v -8.1 9.1 -1
v -7.5 8.9 -1
v -7.5 9 -1
v -7.5 9.1 -1
v -7.4 9 -1
v -7.4 9.1 -1
v -8.2 9.1 -1.1
v -8.2 9.2 -1.1
v -8.1 9 -1.1
v -8.1 9.1 -1.1
v -8.1 9.2 -1.1
v -8 9 -1.1
v -8 9.1 -1.1
v -7.6 9 -1.1
v -7.6 9.1 -1.1
v -7.5 9 -1.1
v -7.5 9.1 -1.1
v -7.5 9.2 -1.1
v -7.4 9.1 -1.1
v -7.4 9.2 -1.1
v -8.2 9.2 -1.2
v -8.2 9.3 -1.2
v -8.1 9.1 -1.2
v -8.1 9.2 -1.2
v -8.1 9.3 -1.2
v -8 9.1 -1.2
v -8 9.2 -1.2
v -7.6 9.1 -1.2
v -7.6 9.2 -1.2
v -7.5 9.1 -1.2
v -7.5 9.2 -1.2
v -7.5 9.3 -1.2
v -7.4 9.2 -1.2
v -7.4 9.3 -1.2
v -8.2 9.3 -1.3
v -8.2 9.4 -1.3
v -8.1 9.2 -1.3
v -8.1 9.3 -1.3
v -8.1 9.4 -1.3
v -8 9.2 -1.3
v -7.6 9.2 -1.3
v -7.5 9.2 -1.3
v -7.5 9.3 -1.3
v -7.5 9.4 -1.3
v -7.4 9.3 -1.3
v -7.4 9.4 -1.3
v -8.2 9.4 -1.4
v -8.2 9.6 -1.4
v -8.1 9.3 -1.4
v -8.1 9.4 -1.4
v -8.1 9.6 -1.4
v -8 9.1 -1.4
v -8 9.2 -1.4
v -7.6 9.1 -1.4
v -7.6 9.2 -1.4
v -7.5 9.3 -1.4
v -7.5 9.4 -1.4
v -7.5 9.6 -1.4
v -7.4 9.4 -1.4
v -7.4 9.6 -1.4
v -8.1 9.4 -1.5
v -8.1 9.6 -1.5
v -8 9 -1.5
v -8 9.1 -1.5
v -7.6 9 -1.5
v -7.6 9.1 -1.5
v -7.5 9.4 -1.5
v -7.5 9.6 -1.5
v -8 8.9 -1.6
v -8 9 -1.6
v -7.6 8.9 -1.6
v -7.6 9 -1.6
v -8 8.8 -1.7
v -8 8.9 -1.7
v -7.6 8.8 -1.7
v -7.6 8.9 -1.7
v -8.9 7.4 -2
v -8.9 7.9 -2
v -8.8 7.4 -2
v -8.8 7.9 -2
v -6.8 7.4 -2
v -6.8 7.9 -2
v -6.7 7.4 -2
v -6.7 7.9 -2
v -8.4 9.1 -2.4
v -8.4 9.2 -2.4
v -8.3 9.1 -2.4
v -8.3 9.2 -2.4
v -8.3 9.3 -2.4
v -8.2 9.2 -2.4
v -8.2 9.3 -2.4
v -8.2 9.4 -2.4
v -8.1 9.3 -2.4
v -8.1 9.4 -2.4
v -7.5 9.3 -2.4
v -7.5 9.4 -2.4
v -7.4 9.2 -2.4
v -7.4 9.3 -2.4
v -7.4 9.4 -2.4
v -7.3 9.1 -2.4
v -7.3 9.2 -2.4
v -7.3 9.3 -2.4
v -7.2 9.1 -2.4
v -7.2 9.2 -2.4
v -8.9 7 -2.5
v -8.9 7.3 -2.5
v -8.9 8 -2.5
v -8.9 8.4 -2.5
v -8.8 7 -2.5
v -8.8 7.3 -2.5
v -8.8 8 -2.5
v -8.8 8.4 -2.5
v -8.8 8.8 -2.5
v -8.7 8.4 -2.5
v -8.7 8.8 -2.5
v -8.7 8.9 -2.5
v -8.6 8.8 -2.5
v -8.6 8.9 -2.5
v -8.6 9 -2.5
v -8.5 8.9 -2.5
v -8.5 9 -2.5
v -8.5 9.1 -2.5
v -8.4 9 -2.5
v -8.4 9.1 -2.5
v -8.1 9.3 -2.5
v -8.1 9.4 -2.5
v -8 9.3 -2.5
v -8 9.4 -2.5
v -7.6 9.3 -2.5
v -7.6 9.4 -2.5
v -7.5 9.3 -2.5
v -7.5 9.4 -2.5
v -7.2 9 -2.5
v -7.2 9.1 -2.5
v -7.1 8.9 -2.5
v -7.1 9 -2.5
v -7.1 9.1 -2.5
v -7 8.8 -2.5
v -7 8.9 -2.5
v -7 9 -2.5
v -6.9 8.4 -2.5
v -6.9 8.8 -2.5
v -6.9 8.9 -2.5
v -6.8 7 -2.5
v -6.8 7.3 -2.5
v -6.8 8 -2.5
v -6.8 8.4 -2.5
v -6.8 8.8 -2.5
v -6.7 7 -2.5
v -6.7 7.3 -2.5
v -6.7 8 -2.5
v -6.7 8.4 -2.5
v -8.4 9 -2.6
v -8.4 9.1 -2.6
v -8.3 9 -2.6
v -8.3 9.1 -2.6
v -8.3 9.2 -2.6
v -8.2 9.1 -2.6
v -8.2 9.2 -2.6
v -8.2 9.3 -2.6
v -8 9.2 -2.6
v -8 9.3 -2.6
v -8 9.4 -2.6
v -7.6 9.2 -2.6
v -7.6 9.3 -2.6
v -7.6 9.4 -2.6
v -7.4 9.1 -2.6
v -7.4 9.2 -2.6
v -7.4 9.3 -2.6
v -7.3 9 -2.6
v -7.3 9.1 -2.6
v -7.3 9.2 -2.6
v -7.2 9 -2.6
v -7.2 9.1 -2.6
v -8.7 8.4 -2.7
v -8.7 8.8 -2.7
v -8.6 8.4 -2.7
v -8.6 8.8 -2.7
v -8.6 8.9 -2.7
v -8.5 8.8 -2.7
v -8.5 8.9 -2.7
v -8.5 9 -2.7
v -8.4 8.9 -2.7
v -8.4 9 -2.7
v -8.3 9 -2.7
v -8.3 9.1 -2.7
v -8.2 9 -2.7
v -8.2 9.1 -2.7
v -8.2 9.2 -2.7
v -8 9.1 -2.7
v -8 9.2 -2.7
v -8 9.3 -2.7
v -7.6 9.1 -2.7
v -7.6 9.2 -2.7
v -7.6 9.3 -2.7
v -7.4 9 -2.7
v -7.4 9.1 -2.7
v -7.4 9.2 -2.7
v -7.3 9 -2.7
v -7.3 9.1 -2.7
v -7.2 8.9 -2.7
v -7.2 9 -2.7
v -7.1 8.8 -2.7
v -7.1 8.9 -2.7
v -7.1 9 -2.7
v -7 8.4 -2.7
v -7 8.8 -2.7
v -7 8.9 -2.7
v -6.9 8.4 -2.7
v -6.9 8.8 -2.7
v -8.8 7 -2.8
v -8.8 8.4 -2.8
v -8.7 7 -2.8
v -8.7 8.4 -2.8
v -8.5 8.8 -2.8
v -8.5 8.9 -2.8
v -8.4 8.8 -2.8
v -8.4 8.9 -2.8
v -8.4 9 -2.8
v -8.3 8.9 -2.8
v -8.3 9 -2.8
v -8.2 9 -2.8
v -8.2 9.1 -2.8
v -8.1 9 -2.8
v -8.1 9.1 -2.8
v -8 9.1 -2.8
v -8 9.2 -2.8
v -7.6 9.1 -2.8
v -7.6 9.2 -2.8
v -7.5 9 -2.8
v -7.5 9.1 -2.8
v -7.4 9 -2.8
v -7.4 9.1 -2.8
v -7.3 8.9 -2.8
v -7.3 9 -2.8
v -7.2 8.8 -2.8
v -7.2 8.9 -2.8
v -7.2 9 -2.8
v -7.1 8.8 -2.8
v -7.1 8.9 -2.8
v -6.9 7 -2.8
v -6.9 8.4 -2.8
v -6.8 7 -2.8
v -6.8 8.4 -2.8
v -8.7 7 -2.9
v -8.7 8.4 -2.9
v -8.6 7 -2.9
v -8.6 8.4 -2.9
v -8.6 8.8 -2.9
v -8.5 8.4 -2.9
v -8.5 8.8 -2.9
v -8.4 8.8 -2.9
v -8.4 8.9 -2.9
v -8.3 8.8 -2.9
v -8.3 8.9 -2.9
v -8.3 9 -2.9
v -8.1 8.9 -2.9
v -8.1 9 -2.9
v -8.1 9.1 -2.9
v -7.5 8.9 -2.9
v -7.5 9 -2.9
v -7.5 9.1 -2.9
v -7.3 8.8 -2.9
v -7.3 8.9 -2.9
v -7.3 9 -2.9
v -7.2 8.8 -2.9
v -7.2 8.9 -2.9
v -7.1 8.4 -2.9
v -7.1 8.8 -2.9
v -7 7 -2.9
v -7 8.4 -2.9
v -7 8.8 -2.9
v -6.9 7 -2.9
v -6.9 8.4 -2.9
v -8.6 7 -3
v -8.6 8.4 -3
v -8.5 7 -3
v -8.5 8.4 -3
v -8.5 8.8 -3
v -8.3 8.4 -3
v -8.3 8.8 -3
v -8.3 8.9 -3
v -8.1 8.8 -3
v -8.1 8.9 -3
v -8.1 9 -3
v -7.5 8.8 -3
v -7.5 8.9 -3
v -7.5 9 -3
v -7.3 8.4 -3
v -7.3 8.8 -3
v -7.3 8.9 -3
v -7.1 7 -3
v -7.1 8.4 -3
v -7.1 8.8 -3
v -7 7 -3
v -7 8.4 -3
v -8.5 7 -3.1
v -8.5 8.4 -3.1
v -8.4 7 -3.1
v -8.4 8.4 -3.1
v -8.3 8.4 -3.1
v -8.3 8.8 -3.1
v -8.1 8.4 -3.1
v -8.1 8.8 -3.1
v -8.1 8.9 -3.1
v -7.5 8.4 -3.1
v -7.5 8.8 -3.1
v -7.5 8.9 -3.1
v -7.3 8.4 -3.1
v -7.3 8.8 -3.1
v -7.2 7 -3.1
v -7.2 8.4 -3.1
v -7.1 7 -3.1
v -7.1 8.4 -3.1
v -8.4 7 -3.2
v -8.4 8.4 -3.2
v -8.1 7 -3.2
v -8.1 8.4 -3.2
v -8.1 8.8 -3.2
v -7.5 7 -3.2
v -7.5 8.4 -3.2
v -7.5 8.8 -3.2
v -7.2 7 -3.2
v -7.2 8.4 -3.2
v -8.1 7 -3.3
v -8.1 8.4 -3.3
v -7.5 7 -3.3
v -7.5 8.4 -3.3
v -8.1 7 -1.1
v -8 7 -1.1
v -7.6 7 -1.1
v -7.5 7 -1.1
v -8.4 7 -1.2
v -8.1 7 -1.2
v -8 7 -1.2
v -7.9 7 -1.2
v -7.7 7 -1.2
v -7.6 7 -1.2
v -7.5 7 -1.2
v -7.2 7 -1.2
v -8.5 7 -1.3
v -8.4 7 -1.3
v -8 7 -1.3
v -7.9 7 -1.3
v -7.7 7 -1.3
v -7.6 7 -1.3
v -7.2 7 -1.3
v -7.1 7 -1.3
v -8.6 7 -1.4
v -8.5 7 -1.4
v -7.1 7 -1.4
v -7 7 -1.4
v -8.7 7 -1.5
v -8.6 7 -1.5
v -7 7 -1.5
v -6.9 7 -1.5
v -8.8 7 -1.6
v -8.7 7 -1.6
v -6.9 7 -1.6
v -6.8 7 -1.6
v -8.9 7 -1.9
v -8.8 7 -1.9
v -6.8 7 -1.9
v -6.7 7 -1.9
v -8.9 7 -2.5
v -8.8 7 -2.5
v -6.8 7 -2.5
v -6.7 7 -2.5
v -8.8 7 -2.8
v -8.7 7 -2.8
v -6.9 7 -2.8
v -6.8 7 -2.8
v -8.7 7 -2.9
v -8.6 7 -2.9
v -7 7 -2.9
v -6.9 7 -2.9
v -8.6 7 -3
v -8.5 7 -3
v -7.1 7 -3
v -7 7 -3
v -8.5 7 -3.1
v -8.4 7 -3.1
v -7.2 7 -3.1
v -7.1 7 -3.1
v -8.4 7 -3.2
v -8.1 7 -3.2
v -7.5 7 -3.2
v -7.2 7 -3.2
v -8.1 7 -3.3
v -7.5 7 -3.3
v -8 7.6 -1.1
v -7.6 7.6 -1.1
v -8 7.6 -1.2
v -7.6 7.6 -1.2
v -8.9 7.9 -2
v -8.8 7.9 -2
v -6.8 7.9 -2
v -6.7 7.9 -2
v -8.9 7.9 -2.4
v -8.8 7.9 -2.4
v -6.8 7.9 -2.4
v -6.7 7.9 -2.4
v -8 8.8 -1.3
v -7.6 8.8 -1.3
v -8 8.8 -1.4
v -7.6 8.8 -1.4
v -8.1 8.9 -0.8
v -7.5 8.9 -0.8
v -8.1 8.9 -1
v -7.5 8.9 -1
v -8 8.9 -1.2
v -7.6 8.9 -1.2
v -8 8.9 -1.3
v -7.6 8.9 -1.3
v -8.2 9 -0.8
v -8.1 9 -0.8
v -7.5 9 -0.8
v -7.4 9 -0.8
v -8.2 9 -1
v -8.1 9 -1
v -7.5 9 -1
v -7.4 9 -1
v -8.1 9 -1.1
v -8 9 -1.1
v -7.6 9 -1.1
v -7.5 9 -1.1
v -8 9 -1.2
v -7.6 9 -1.2
v -8.2 9.1 -1
v -8.1 9.1 -1
v -7.5 9.1 -1
v -7.4 9.1 -1
v -8.2 9.1 -1.1
v -8.1 9.1 -1.1
v -8 9.1 -1.1
v -7.6 9.1 -1.1
v -7.5 9.1 -1.1
v -7.4 9.1 -1.1
v -8.1 9.1 -1.2
v -8 9.1 -1.2
v -7.6 9.1 -1.2
v -7.5 9.1 -1.2
v -8.2 9.2 -1.1
v -8.1 9.2 -1.1
v -7.5 9.2 -1.1
v -7.4 9.2 -1.1
v -8.2 9.2 -1.2
v -8.1 9.2 -1.2
v -8 9.2 -1.2
v -7.6 9.2 -1.2
v -7.5 9.2 -1.2
v -7.4 9.2 -1.2
v -8.1 9.2 -1.3
v -8 9.2 -1.3
v -7.6 9.2 -1.3
v -7.5 9.2 -1.3
v -8.2 9.3 -1.2
v -8.1 9.3 -1.2
v -7.5 9.3 -1.2
v -7.4 9.3 -1.2
v -8.2 9.3 -1.3
v -8.1 9.3 -1.3
v -7.5 9.3 -1.3
v -7.4 9.3 -1.3
v -8.1 9.3 -1.4
v -7.5 9.3 -1.4
v -8.2 9.4 -1.3
v -8.1 9.4 -1.3
v -7.5 9.4 -1.3
v -7.4 9.4 -1.3
v -8.2 9.4 -1.4
v -8.1 9.4 -1.4
v -7.5 9.4 -1.4
v -7.4 9.4 -1.4
v -8.1 9.4 -1.5
v -7.5 9.4 -1.5
v -8.9 7.4 -2
v -8.8 7.4 -2
v -6.8 7.4 -2
v -6.7 7.4 -2
v -8.9 7.4 -2.4
v -8.8 7.4 -2.4
v -6.8 7.4 -2.4
v -6.7 7.4 -2.4
v -8.1 8.4 -1.1
v -7.5 8.4 -1.1
v -8.4 8.4 -1.2
v -8.1 8.4 -1.2
v -7.5 8.4 -1.2
v -7.2 8.4 -1.2
v -8.5 8.4 -1.3
v -8.4 8.4 -1.3
v -8.3 8.4 -1.3
v -8.1 8.4 -1.3
v -7.5 8.4 -1.3
v -7.3 8.4 -1.3
v -7.2 8.4 -1.3
v -7.1 8.4 -1.3
v -8.6 8.4 -1.4
v -8.5 8.4 -1.4
v -8.3 8.4 -1.4
v -7.3 8.4 -1.4
v -7.1 8.4 -1.4
v -7 8.4 -1.4
v -8.7 8.4 -1.5
v -8.6 8.4 -1.5
v -8.5 8.4 -1.5
v -7.1 8.4 -1.5
v -7 8.4 -1.5
v -6.9 8.4 -1.5
v -8.8 8.4 -1.6
v -8.7 8.4 -1.6
v -6.9 8.4 -1.6
v -6.8 8.4 -1.6
v -8.7 8.4 -1.7
v -8.6 8.4 -1.7
v -7 8.4 -1.7
v -6.9 8.4 -1.7
v -8.9 8.4 -1.9
v -8.8 8.4 -1.9
v -8.7 8.4 -1.9
v -6.9 8.4 -1.9
v -6.8 8.4 -1.9
v -6.7 8.4 -1.9
v -8.9 8.4 -2.5
v -8.8 8.4 -2.5
v -8.7 8.4 -2.5
v -6.9 8.4 -2.5
v -6.8 8.4 -2.5
v -6.7 8.4 -2.5
v -8.7 8.4 -2.7
v -8.6 8.4 -2.7
v -7 8.4 -2.7
v -6.9 8.4 -2.7
v -8.8 8.4 -2.8
v -8.7 8.4 -2.8
v -6.9 8.4 -2.8
v -6.8 8.4 -2.8
v -8.7 8.4 -2.9
v -8.6 8.4 -2.9
v -8.5 8.4 -2.9
v -7.1 8.4 -2.9
v -7 8.4 -2.9
v -6.9 8.4 -2.9
v -8.6 8.4 -3
v -8.5 8.4 -3
v -8.3 8.4 -3
v -7.3 8.4 -3
v -7.1 8.4 -3
v -7 8.4 -3
v -8.5 8.4 -3.1
v -8.4 8.4 -3.1
v -8.3 8.4 -3.1
v -8.1 8.4 -3.1
v -7.5 8.4 -3.1
v -7.3 8.4 -3.1
v -7.2 8.4 -3.1
v -7.1 8.4 -3.1
v -8.4 8.4 -3.2
v -8.1 8.4 -3.2
v -7.5 8.4 -3.2
v -7.2 8.4 -3.2
v -8.1 8.4 -3.3
v -7.5 8.4 -3.3
v -8 8.5 -1.2
v -7.6 8.5 -1.2
v -8 8.5 -1.4
v -7.6 8.5 -1.4
v -8.1 8.8 -1.2
v -8 8.8 -1.2
v -7.6 8.8 -1.2
v -7.5 8.8 -1.2
v -8.3 8.8 -1.3
v -8.1 8.8 -1.3
v -8 8.8 -1.3
v -7.6 8.8 -1.3
v -7.5 8.8 -1.3
v -7.3 8.8 -1.3
v -8.5 8.8 -1.4
v -8.3 8.8 -1.4
v -8.1 8.8 -1.4
v -7.5 8.8 -1.4
v -7.3 8.8 -1.4
v -7.1 8.8 -1.4
v -8.6 8.8 -1.5
v -8.5 8.8 -1.5
v -8.4 8.8 -1.5
v -8.3 8.8 -1.5
v -7.3 8.8 -1.5
v -7.2 8.8 -1.5
v -7.1 8.8 -1.5
v -7 8.8 -1.5
v -8.5 8.8 -1.6
v -8.4 8.8 -1.6
v -7.2 8.8 -1.6
v -7.1 8.8 -1.6
v -8.7 8.8 -1.7
v -8.6 8.8 -1.7
v -8.5 8.8 -1.7
v -8 8.8 -1.7
v -7.6 8.8 -1.7
v -7.1 8.8 -1.7
v -7 8.8 -1.7
v -6.9 8.8 -1.7
v -8.8 8.8 -1.9
v -8.7 8.8 -1.9
v -8.6 8.8 -1.9
v -8 8.8 -1.9
v -7.6 8.8 -1.9
v -7 8.8 -1.9
v -6.9 8.8 -1.9
v -6.8 8.8 -1.9
v -8.8 8.8 -2.5
v -8.7 8.8 -2.5
v -8.6 8.8 -2.5
v -7 8.8 -2.5
v -6.9 8.8 -2.5
v -6.8 8.8 -2.5
v -8.7 8.8 -2.7
v -8.6 8.8 -2.7
v -8.5 8.8 -2.7
v -7.1 8.8 -2.7
v -7 8.8 -2.7
v -6.9 8.8 -2.7
v -8.5 8.8 -2.8
v -8.4 8.8 -2.8
v -7.2 8.8 -2.8
v -7.1 8.8 -2.8
v -8.6 8.8 -2.9
v -8.5 8.8 -2.9
v -8.4 8.8 -2.9
v -8.3 8.8 -2.9
v -7.3 8.8 -2.9
v -7.2 8.8 -2.9
v -7.1 8.8 -2.9
v -7 8.8 -2.9
v -8.5 8.8 -3
v -8.3 8.8 -3
v -8.1 8.8 -3
v -7.5 8.8 -3
v -7.3 8.8 -3
v -7.1 8.8 -3
v -8.3 8.8 -3.1
v -8.1 8.8 -3.1
v -7.5 8.8 -3.1
v -7.3 8.8 -3.1
v -8.1 8.8 -3.2
v -7.5 8.8 -3.2
v -8.1 8.9 -1.3
v -8 8.9 -1.3
v -7.6 8.9 -1.3
v -7.5 8.9 -1.3
v -8.3 8.9 -1.4
v -8.1 8.9 -1.4
v -8 8.9 -1.4
v -7.6 8.9 -1.4
v -7.5 8.9 -1.4
v -7.3 8.9 -1.4
v -8.4 8.9 -1.5
v -8.3 8.9 -1.5
v -8.1 8.9 -1.5
v -7.5 8.9 -1.5
v -7.3 8.9 -1.5
v -7.2 8.9 -1.5
v -8.5 8.9 -1.6
v -8.4 8.9 -1.6
v -8.3 8.9 -1.6
v -8 8.9 -1.6
v -7.6 8.9 -1.6
v -7.3 8.9 -1.6
v -7.2 8.9 -1.6
v -7.1 8.9 -1.6
v -8.6 8.9 -1.7
v -8.5 8.9 -1.7
v -8.4 8.9 -1.7
v -8 8.9 -1.7
v -7.6 8.9 -1.7
v -7.2 8.9 -1.7
v -7.1 8.9 -1.7
v -7 8.9 -1.7
v -8.7 8.9 -1.9
v -8.6 8.9 -1.9
v -8.5 8.9 -1.9
v -7.1 8.9 -1.9
v -7 8.9 -1.9
v -6.9 8.9 -1.9
v -8.7 8.9 -2.5
v -8.6 8.9 -2.5
v -8.5 8.9 -2.5
v -7.1 8.9 -2.5
v -7 8.9 -2.5
v -6.9 8.9 -2.5
v -8.6 8.9 -2.7
v -8.5 8.9 -2.7
v -8.4 8.9 -2.7
v -7.2 8.9 -2.7
v -7.1 8.9 -2.7
v -7 8.9 -2.7
v -8.5 8.9 -2.8
v -8.4 8.9 -2.8
v -8.3 8.9 -2.8
v -7.3 8.9 -2.8
v -7.2 8.9 -2.8
v -7.1 8.9 -2.8
v -8.4 8.9 -2.9
v -8.3 8.9 -2.9
v -8.1 8.9 -2.9
v -7.5 8.9 -2.9
v -7.3 8.9 -2.9
v -7.2 8.9 -2.9
v -8.3 8.9 -3
v -8.1 8.9 -3
v -7.5 8.9 -3
v -7.3 8.9 -3
v -8.1 8.9 -3.1
v -7.5 8.9 -3.1
v -8.1 9 -1.4
v -8 9 -1.4
v -7.6 9 -1.4
v -7.5 9 -1.4
v -8.3 9 -1.5
v -8.1 9 -1.5
v -8 9 -1.5
v -7.6 9 -1.5
v -7.5 9 -1.5
v -7.3 9 -1.5
v -8.4 9 -1.6
v -8.3 9 -1.6
v -8.2 9 -1.6
v -8.1 9 -1.6
v -8 9 -1.6
v -7.6 9 -1.6
v -7.5 9 -1.6
v -7.4 9 -1.6
v -7.3 9 -1.6
v -7.2 9 -1.6
v -8.5 9 -1.7
v -8.4 9 -1.7
v -8.3 9 -1.7
v -8.2 9 -1.7
v -7.4 9 -1.7
v -7.3 9 -1.7
v -7.2 9 -1.7
v -7.1 9 -1.7
v -8.4 9 -1.8
v -8.3 9 -1.8
v -7.3 9 -1.8
v -7.2 9 -1.8
v -8.6 9 -1.9
v -8.5 9 -1.9
v -8.4 9 -1.9
v -7.2 9 -1.9
v -7.1 9 -1.9
v -7 9 -1.9
v -8.6 9 -2.5
v -8.5 9 -2.5
v -8.4 9 -2.5
v -7.2 9 -2.5
v -7.1 9 -2.5
v -7 9 -2.5
v -8.4 9 -2.6
v -8.3 9 -2.6
v -7.3 9 -2.6
v -7.2 9 -2.6
v -8.5 9 -2.7
v -8.4 9 -2.7
v -8.3 9 -2.7
v -8.2 9 -2.7
v -7.4 9 -2.7
v -7.3 9 -2.7
v -7.2 9 -2.7
v -7.1 9 -2.7
v -8.4 9 -2.8
v -8.3 9 -2.8
v -8.2 9 -2.8
v -8.1 9 -2.8
v -7.5 9 -2.8
v -7.4 9 -2.8
v -7.3 9 -2.8
v -7.2 9 -2.8
v -8.3 9 -2.9
v -8.1 9 -2.9
v -7.5 9 -2.9
v -7.3 9 -2.9
v -8.1 9 -3
v -7.5 9 -3
v -8.2 9.1 -0.8
v -7.4 9.1 -0.8
v -8.2 9.1 -0.9
v -8.1 9.1 -0.9
v -7.5 9.1 -0.9
v -7.4 9.1 -0.9
v -8.1 9.1 -1
v -7.6 9.1 -1
v -7.5 9.1 -1
v -8 9.1 -1.4
v -7.6 9.1 -1.4
v -8.1 9.1 -1.5
v -8 9.1 -1.5
v -7.6 9.1 -1.5
v -7.5 9.1 -1.5
v -8.2 9.1 -1.6
v -8.1 9.1 -1.6
v -7.5 9.1 -1.6
v -7.4 9.1 -1.6
v -8.3 9.1 -1.7
v -8.2 9.1 -1.7
v -8 9.1 -1.7
v -7.6 9.1 -1.7
v -7.4 9.1 -1.7
v -7.3 9.1 -1.7
v -8.4 9.1 -1.8
v -8.3 9.1 -1.8
v -8.2 9.1 -1.8
v -7.4 9.1 -1.8
v -7.3 9.1 -1.8
v -7.2 9.1 -1.8
v -8.5 9.1 -1.9
v -8.4 9.1 -1.9
v -7.2 9.1 -1.9
v -7.1 9.1 -1.9
v -8.4 9.1 -2
v -8.3 9.1 -2
v -7.3 9.1 -2
v -7.2 9.1 -2
v -8.4 9.1 -2.4
v -8.3 9.1 -2.4
v -7.3 9.1 -2.4
v -7.2 9.1 -2.4
v -8.5 9.1 -2.5
v -8.4 9.1 -2.5
v -7.2 9.1 -2.5
v -7.1 9.1 -2.5
v -8.4 9.1 -2.6
v -8.3 9.1 -2.6
v -8.2 9.1 -2.6
v -7.4 9.1 -2.6
v -7.3 9.1 -2.6
v -7.2 9.1 -2.6
v -8.3 9.1 -2.7
v -8.2 9.1 -2.7
v -8 9.1 -2.7
v -7.6 9.1 -2.7
v -7.4 9.1 -2.7
v -7.3 9.1 -2.7
v -8.2 9.1 -2.8
v -8.1 9.1 -2.8
v -8 9.1 -2.8
v -7.6 9.1 -2.8
v -7.5 9.1 -2.8
v -7.4 9.1 -2.8
v -8.1 9.1 -2.9
v -7.5 9.1 -2.9
v -8.2 9.2 -0.9
v -8.1 9.2 -0.9
v -7.5 9.2 -0.9
v -7.4 9.2 -0.9
v -8.2 9.2 -1
v -8.1 9.2 -1
v -7.6 9.2 -1
v -7.5 9.2 -1
v -7.4 9.2 -1
v -8.1 9.2 -1.1
v -7.8 9.2 -1.1
v -7.6 9.2 -1.1
v -7.5 9.2 -1.1
v -8 9.2 -1.3
v -7.6 9.2 -1.3
v -8 9.2 -1.4
v -7.6 9.2 -1.4
v -8.2 9.2 -1.7
v -8 9.2 -1.7
v -7.6 9.2 -1.7
v -7.4 9.2 -1.7
v -8.3 9.2 -1.8
v -8.2 9.2 -1.8
v -8 9.2 -1.8
v -7.6 9.2 -1.8
v -7.4 9.2 -1.8
v -7.3 9.2 -1.8
v -8.4 9.2 -2
v -8.3 9.2 -2
v -8.2 9.2 -2
v -7.4 9.2 -2
v -7.3 9.2 -2
v -7.2 9.2 -2
v -8.4 9.2 -2.4
v -8.3 9.2 -2.4
v -8.2 9.2 -2.4
v -7.4 9.2 -2.4
v -7.3 9.2 -2.4
v -7.2 9.2 -2.4
v -8.3 9.2 -2.6
v -8.2 9.2 -2.6
v -8 9.2 -2.6
v -7.6 9.2 -2.6
v -7.4 9.2 -2.6
v -7.3 9.2 -2.6
v -8.2 9.2 -2.7
v -8 9.2 -2.7
v -7.6 9.2 -2.7
v -7.4 9.2 -2.7
v -8 9.2 -2.8
v -7.6 9.2 -2.8
v -8.2 9.3 -1
v -8.1 9.3 -1
v -7.5 9.3 -1
v -7.4 9.3 -1
v -8.2 9.3 -1.1
v -8.1 9.3 -1.1
v -7.8 9.3 -1.1
v -7.6 9.3 -1.1
v -7.5 9.3 -1.1
v -7.4 9.3 -1.1
v -8.1 9.3 -1.2
v -8 9.3 -1.2
v -7.8 9.3 -1.2
v -7.6 9.3 -1.2
v -7.5 9.3 -1.2
v -8.2 9.3 -1.8
v -8 9.3 -1.8
v -7.6 9.3 -1.8
v -7.4 9.3 -1.8
v -8.1 9.3 -1.9
v -8 9.3 -1.9
v -7.6 9.3 -1.9
v -7.5 9.3 -1.9
v -8.3 9.3 -2
v -8.2 9.3 -2
v -8.1 9.3 -2
v -7.5 9.3 -2
v -7.4 9.3 -2
v -7.3 9.3 -2
v -8.3 9.3 -2.4
v -8.2 9.3 -2.4
v -8.1 9.3 -2.4
v -7.5 9.3 -2.4
v -7.4 9.3 -2.4
v -7.3 9.3 -2.4
v -8.1 9.3 -2.5
v -8 9.3 -2.5
v -7.6 9.3 -2.5
v -7.5 9.3 -2.5
v -8.2 9.3 -2.6
v -8 9.3 -2.6
v -7.6 9.3 -2.6
v -7.4 9.3 -2.6
v -8 9.3 -2.7
v -7.6 9.3 -2.7
v -8.2 9.4 -1.1
v -8.1 9.4 -1.1
v -7.5 9.4 -1.1
v -7.4 9.4 -1.1
v -8.2 9.4 -1.2
v -8.1 9.4 -1.2
v -8 9.4 -1.2
v -7.8 9.4 -1.2
v -7.5 9.4 -1.2
v -7.4 9.4 -1.2
v -8.1 9.4 -1.3
v -8 9.4 -1.3
v -7.8 9.4 -1.3
v -7.5 9.4 -1.3
v -8.1 9.4 -1.9
v -7.5 9.4 -1.9
v -8.2 9.4 -2
v -8.1 9.4 -2
v -7.5 9.4 -2
v -7.4 9.4 -2
v -8.2 9.4 -2.4
v -8.1 9.4 -2.4
v -7.5 9.4 -2.4
v -7.4 9.4 -2.4
v -8.1 9.4 -2.5
v -8 9.4 -2.5
v -7.6 9.4 -2.5
v -7.5 9.4 -2.5
v -8 9.4 -2.6
v -7.6 9.4 -2.6
v -8.2 9.5 -1.2
v -8.1 9.5 -1.2
v -7.5 9.5 -1.2
v -7.4 9.5 -1.2
v -8.2 9.5 -1.3
v -8.1 9.5 -1.3
v -7.5 9.5 -1.3
v -7.4 9.5 -1.3
v -8.2 9.6 -1.3
v -7.4 9.6 -1.3
v -8.2 9.6 -1.4
v -8.1 9.6 -1.4
v -7.5 9.6 -1.4
v -7.4 9.6 -1.4
v -8.1 9.6 -1.5
v -7.5 9.6 -1.5

# faces
f 3/3/1 2/3/1 1/3/1
f 4/3/1 2/3/1 3/3/1
f 5/4/1 4/4/1 3/4/1
f 6/4/1 4/4/1 5/4/1
f 7/4/1 5/4/1 3/4/1
f 8/4/1 4/4/1 6/4/1
f 9/4/1 7/4/1 3/4/1
f 9/4/1 8/4/1 7/4/1
f 10/4/1 4/4/1 8/4/1
f 10/4/1 8/4/1 9/4/1
f 11/3/1 10/3/1 9/3/1
f 12/3/1 10/3/1 11/3/1
f 17/3/1 14/3/1 13/3/1
f 18/3/1 16/3/1 15/3/1
f 21/1/1 20/1/1 19/1/1
f 22/1/1 20/1/1 21/1/1
f 23/1/1 21/1/1 19/1/1
f 23/2/1 22/2/1 21/2/1
f 24/1/1 20/1/1 22/1/1
f 24/2/1 22/2/1 23/2/1
f 25/1/1 23/1/1 19/1/1
f 25/1/1 24/1/1 23/1/1
f 26/1/1 20/1/1 24/1/1
f 26/1/1 24/1/1 25/1/1
f 27/3/1 17/3/1 13/3/1
f 28/3/1 16/3/1 18/3/1
f 29/3/1 27/3/1 13/3/1
f 30/3/1 27/3/1 29/3/1
f 31/3/1 16/3/1 28/3/1
f 32/3/1 16/3/1 31/3/1
f 33/4/1 31/4/1 30/4/1
f 34/4/1 31/4/1 33/4/1
f 39/3/1 36/3/1 35/3/1
f 40/3/1 36/3/1 39/3/1
f 45/3/1 38/3/1 37/3/1
f 46/3/1 38/3/1 45/3/1
f 47/4/1 42/4/1 41/4/1
f 48/4/1 42/4/1 47/4/1
f 49/4/1 44/4/1 43/4/1
f 50/4/1 44/4/1 49/4/1
f 51/4/1 49/4/1 48/4/1
f 52/4/1 49/4/1 51/4/1
f 57/3/1 54/3/1 53/3/1
f 58/3/1 54/3/1 57/3/1
f 61/3/1 56/3/1 55/3/1
f 62/3/1 56/3/1 61/3/1
f 63/4/1 59/4/1 58/4/1
f 64/4/1 59/4/1 63/4/1
f 67/4/1 61/4/1 60/4/1
f 68/4/1 61/4/1 67/4/1
f 69/4/1 65/4/1 64/4/1
f 70/4/1 65/4/1 69/4/1
f 71/4/1 67/4/1 66/4/1
f 72/4/1 67/4/1 71/4/1
f 73/4/1 71/4/1 70/4/1
f 74/4/1 71/4/1 73/4/1
f 79/3/1 76/3/1 75/3/1
f 80/3/1 76/3/1 79/3/1
f 83/3/1 78/3/1 77/3/1
f 84/3/1 78/3/1 83/3/1
f 85/4/1 81/4/1 80/4/1
f 86/4/1 81/4/1 85/4/1
f 91/4/1 83/4/1 82/4/1
f 92/4/1 83/4/1 91/4/1
f 93/4/1 88/4/1 87/4/1
f 94/4/1 88/4/1 93/4/1
f 97/4/1 90/4/1 89/4/1
f 98/4/1 90/4/1 97/4/1
f 99/4/1 95/4/1 94/4/1
f 100/4/1 95/4/1 99/4/1
f 101/4/1 97/4/1 96/4/1
f 102/4/1 97/4/1 101/4/1
f 103/4/1 101/4/1 100/4/1
f 104/4/1 101/4/1 103/4/1
f 109/3/1 106/3/1 105/3/1
f 110/3/1 106/3/1 109/3/1
f 111/3/1 108/3/1 107/3/1
f 112/3/1 108/3/1 111/3/1
f 117/4/1 114/4/1 113/4/1
f 118/4/1 114/4/1 117/4/1
f 121/4/1 116/4/1 115/4/1
f 122/4/1 116/4/1 121/4/1
f 123/4/1 119/4/1 118/4/1
f 124/4/1 119/4/1 123/4/1
f 129/4/1 121/4/1 120/4/1
f 130/4/1 121/4/1 129/4/1
f 131/4/1 126/4/1 125/4/1
f 132/4/1 126/4/1 131/4/1
f 135/4/1 128/4/1 127/4/1
f 136/4/1 128/4/1 135/4/1
f 137/4/1 134/4/1 133/4/1
f 138/4/1 134/4/1 137/4/1
f 143/4/1 140/4/1 139/4/1
f 144/4/1 140/4/1 143/4/1
f 147/4/1 142/4/1 141/4/1
f 148/4/1 142/4/1 147/4/1
f 149/4/1 145/4/1 144/4/1
f 150/4/1 145/4/1 149/4/1
f 153/4/1 147/4/1 146/4/1
f 154/4/1 147/4/1 153/4/1
f 155/4/1 151/4/1 150/4/1
f 156/4/1 151/4/1 155/4/1
f 161/4/1 153/4/1 152/4/1
f 162/4/1 153/4/1 161/4/1
f 163/4/1 158/4/1 157/4/1
f 164/4/1 158/4/1 163/4/1
f 167/4/1 160/4/1 159/4/1
f 168/4/1 160/4/1 167/4/1
f 169/4/1 165/4/1 164/4/1
f 170/4/1 165/4/1 169/4/1
f 171/4/1 167/4/1 166/4/1
f 172/4/1 167/4/1 171/4/1
f 173/4/1 171/4/1 170/4/1
f 174/4/1 171/4/1 173/4/1
f 181/5/1 176/5/1 175/5/1
f 182/5/1 176/5/1 181/5/1
f 183/5/1 176/5/1 182/5/1
f 185/4/1 178/4/1 177/4/1
f 186/4/1 178/4/1 185/4/1
f 189/4/1 180/4/1 179/4/1
f 190/4/1 180/4/1 189/4/1
f 191/5/1 184/5/1 183/5/1
f 191/5/1 183/5/1 182/5/1
f 192/5/1 184/5/1 191/5/1
f 193/5/1 184/5/1 192/5/1
f 195/4/1 187/4/1 186/4/1
f 196/4/1 187/4/1 195/4/1
f 199/4/1 189/4/1 188/4/1
f 200/4/1 189/4/1 199/4/1
f 201/5/1 194/5/1 193/5/1
f 201/5/1 193/5/1 192/5/1
f 202/5/1 194/5/1 201/5/1
f 203/5/1 194/5/1 202/5/1
f 205/4/1 197/4/1 196/4/1
f 206/4/1 197/4/1 205/4/1
f 207/4/1 199/4/1 198/4/1
f 208/4/1 199/4/1 207/4/1
f 209/5/1 204/5/1 203/5/1
f 209/5/1 203/5/1 202/5/1
f 210/5/1 204/5/1 209/5/1
f 211/5/1 204/5/1 210/5/1
f 213/4/1 207/4/1 206/4/1
f 214/4/1 207/4/1 213/4/1
f 215/5/1 212/5/1 211/5/1
f 215/5/1 211/5/1 210/5/1
f 216/5/1 212/5/1 215/5/1
f 217/5/1 212/5/1 216/5/1
f 218/5/1 212/5/1 217/5/1
f 223/4/1 220/4/1 219/4/1
f 224/4/1 220/4/1 223/4/1
f 225/3/1 224/3/1 223/3/1
f 226/3/1 224/3/1 225/3/1
f 229/3/1 222/3/1 221/3/1
f 230/3/1 222/3/1 229/3/1
f 231/4/1 227/4/1 226/4/1
f 232/4/1 227/4/1 231/4/1
f 235/4/1 229/4/1 228/4/1
f 236/4/1 229/4/1 235/4/1
f 239/4/1 233/4/1 232/4/1
f 240/4/1 233/4/1 239/4/1
f 243/4/1 235/4/1 234/4/1
f 244/4/1 235/4/1 243/4/1
f 245/5/1 238/5/1 237/5/1
f 246/5/1 238/5/1 245/5/1
f 248/4/1 241/4/1 240/4/1
f 249/4/1 241/4/1 248/4/1
f 252/4/1 243/4/1 242/4/1
f 253/4/1 243/4/1 252/4/1
f 254/5/1 247/5/1 246/5/1
f 255/5/1 247/5/1 254/5/1
f 257/4/1 250/4/1 249/4/1
f 258/4/1 250/4/1 257/4/1
f 259/4/1 252/4/1 251/4/1
f 260/4/1 252/4/1 259/4/1
f 261/5/1 256/5/1 255/5/1
f 262/5/1 256/5/1 261/5/1
f 264/5/1 263/5/1 262/5/1
f 265/5/1 263/5/1 264/5/1
f 271/5/1 266/5/1 265/5/1
f 272/5/1 266/5/1 271/5/1
f 274/4/1 268/4/1 267/4/1
f 275/4/1 268/4/1 274/4/1
f 276/4/1 270/4/1 269/4/1
f 277/4/1 270/4/1 276/4/1
f 278/5/1 273/5/1 272/5/1
f 279/5/1 273/5/1 278/5/1
f 284/5/1 281/5/1 280/5/1
f 284/5/1 282/5/1 281/5/1
f 285/5/1 282/5/1 284/5/1
f 287/5/1 284/5/1 283/5/1
f 287/5/1 286/5/1 285/5/1
f 287/5/1 285/5/1 284/5/1
f 288/5/1 286/5/1 287/5/1
f 289/5/1 286/5/1 288/5/1
f 290/5/1 286/5/1 289/5/1
f 293/5/1 289/5/1 288/5/1
f 294/5/1 289/5/1 293/5/1
f 295/5/1 289/5/1 294/5/1
f 297/4/1 292/4/1 291/4/1
f 298/4/1 292/4/1 297/4/1
f 300/4/1 297/4/1 296/4/1
f 301/4/1 297/4/1 300/4/1
f 302/4/1 300/4/1 299/4/1
f 303/4/1 300/4/1 302/4/1
f 306/4/1 305/4/1 304/4/1
f 307/4/1 305/4/1 306/4/1
f 310/4/1 309/4/1 308/4/1
f 311/4/1 309/4/1 310/4/1
f 312/4/1 309/4/1 311/4/1
f 316/4/1 314/4/1 313/4/1
f 318/4/1 316/4/1 315/4/1
f 319/4/1 318/4/1 317/4/1
f 320/4/1 314/4/1 316/4/1
f 320/4/1 318/4/1 319/4/1
f 320/4/1 316/4/1 318/4/1
f 321/4/1 314/4/1 320/4/1
f 322/4/1 314/4/1 321/4/1
f 323/4/1 314/4/1 322/4/1
f 324/4/1 314/4/1 323/4/1
f 327/5/1 326/5/1 325/5/1
f 328/5/1 326/5/1 327/5/1
f 330/5/1 329/5/1 328/5/1
f 331/5/1 329/5/1 330/5/1
f 333/5/1 332/5/1 331/5/1
f 334/5/1 332/5/1 333/5/1
f 336/5/1 335/5/1 334/5/1
f 337/5/1 335/5/1 336/5/1
f 338/5/2 339/5/2 340/5/2
f 340/5/2 339/5/2 341/5/2
f 341/5/2 342/5/2 343/5/2
f 343/5/2 342/5/2 344/5/2
f 344/5/2 345/5/2 346/5/2
f 346/5/2 345/5/2 347/5/2
f 347/5/2 348/5/2 349/5/2
f 349/5/2 348/5/2 350/5/2
f 351/4/2 352/4/2 353/4/2
f 353/4/2 352/4/2 354/4/2
f 355/4/2 356/4/2 357/4/2
f 357/4/2 356/4/2 358/4/2
f 358/4/2 356/4/2 359/4/2
f 360/4/2 361/4/2 363/4/2
f 362/4/2 363/4/2 365/4/2
f 364/4/2 365/4/2 366/4/2
f 363/4/2 361/4/2 367/4/2
f 366/4/2 365/4/2 367/4/2
f 365/4/2 363/4/2 367/4/2
f 367/4/2 361/4/2 368/4/2
f 368/4/2 361/4/2 369/4/2
f 369/4/2 361/4/2 370/4/2
f 370/4/2 361/4/2 371/4/2
f 372/5/2 373/5/2 376/5/2
f 373/5/2 374/5/2 376/5/2
f 376/5/2 374/5/2 377/5/2
f 375/5/2 376/5/2 379/5/2
f 377/5/2 378/5/2 379/5/2
f 376/5/2 377/5/2 379/5/2
f 379/5/2 378/5/2 380/5/2
f 380/5/2 378/5/2 381/5/2
f 381/5/2 378/5/2 382/5/2
f 380/5/2 381/5/2 385/5/2
f 385/5/2 381/5/2 386/5/2
f 386/5/2 381/5/2 387/5/2
f 383/4/2 384/4/2 389/4/2
f 389/4/2 384/4/2 390/4/2
f 388/4/2 389/4/2 392/4/2
f 392/4/2 389/4/2 393/4/2
f 391/4/2 392/4/2 394/4/2
f 394/4/2 392/4/2 395/4/2
f 396/4/2 397/4/2 400/4/2
f 400/4/2 397/4/2 401/4/2
f 400/3/2 401/3/2 402/3/2
f 402/3/2 401/3/2 403/3/2
f 398/3/2 399/3/2 406/3/2
f 406/3/2 399/3/2 407/3/2
f 403/4/2 404/4/2 408/4/2
f 408/4/2 404/4/2 409/4/2
f 405/4/2 406/4/2 412/4/2
f 412/4/2 406/4/2 413/4/2
f 409/4/2 410/4/2 416/4/2
f 416/4/2 410/4/2 417/4/2
f 411/4/2 412/4/2 420/4/2
f 420/4/2 412/4/2 421/4/2
f 414/5/2 415/5/2 422/5/2
f 422/5/2 415/5/2 423/5/2
f 417/4/2 418/4/2 425/4/2
f 425/4/2 418/4/2 426/4/2
f 419/4/2 420/4/2 429/4/2
f 429/4/2 420/4/2 430/4/2
f 423/5/2 424/5/2 431/5/2
f 431/5/2 424/5/2 432/5/2
f 426/4/2 427/4/2 434/4/2
f 434/4/2 427/4/2 435/4/2
f 428/4/2 429/4/2 436/4/2
f 436/4/2 429/4/2 437/4/2
f 432/5/2 433/5/2 438/5/2
f 438/5/2 433/5/2 439/5/2
f 439/5/2 440/5/2 441/5/2
f 441/5/2 440/5/2 442/5/2
f 442/5/2 443/5/2 448/5/2
f 448/5/2 443/5/2 449/5/2
f 444/4/2 445/4/2 451/4/2
f 451/4/2 445/4/2 452/4/2
f 446/4/2 447/4/2 453/4/2
f 453/4/2 447/4/2 454/4/2
f 449/5/2 450/5/2 455/5/2
f 455/5/2 450/5/2 456/5/2
f 457/5/2 458/5/2 463/5/2
f 463/5/2 458/5/2 464/5/2
f 464/5/2 458/5/2 465/5/2
f 459/4/2 460/4/2 467/4/2
f 467/4/2 460/4/2 468/4/2
f 461/4/2 462/4/2 471/4/2
f 471/4/2 462/4/2 472/4/2
f 465/5/2 466/5/2 473/5/2
f 464/5/2 465/5/2 473/5/2
f 473/5/2 466/5/2 474/5/2
f 474/5/2 466/5/2 475/5/2
f 468/4/2 469/4/2 477/4/2
f 477/4/2 469/4/2 478/4/2
f 470/4/2 471/4/2 481/4/2
f 481/4/2 471/4/2 482/4/2
f 475/5/2 476/5/2 483/5/2
f 474/5/2 475/5/2 483/5/2
f 483/5/2 476/5/2 484/5/2
f 484/5/2 476/5/2 485/5/2
f 478/4/2 479/4/2 487/4/2
f 487/4/2 479/4/2 488/4/2
f 480/4/2 481/4/2 489/4/2
f 489/4/2 481/4/2 490/4/2
f 485/5/2 486/5/2 491/5/2
f 484/5/2 485/5/2 491/5/2
f 491/5/2 486/5/2 492/5/2
f 492/5/2 486/5/2 493/5/2
f 488/4/2 489/4/2 495/4/2
f 495/4/2 489/4/2 496/4/2
f 493/5/2 494/5/2 497/5/2
f 492/5/2 493/5/2 497/5/2
f 497/5/2 494/5/2 498/5/2
f 498/5/2 494/5/2 499/5/2
f 499/5/2 494/5/2 500/5/2
f 501/4/2 502/4/2 505/4/2
f 505/4/2 502/4/2 506/4/2
f 503/4/2 504/4/2 509/4/2
f 509/4/2 504/4/2 510/4/2
f 506/4/2 507/4/2 511/4/2
f 511/4/2 507/4/2 512/4/2
f 508/4/2 509/4/2 515/4/2
f 515/4/2 509/4/2 516/4/2
f 512/4/2 513/4/2 517/4/2
f 517/4/2 513/4/2 518/4/2
f 514/4/2 515/4/2 523/4/2
f 523/4/2 515/4/2 524/4/2
f 519/4/2 520/4/2 525/4/2
f 525/4/2 520/4/2 526/4/2
f 521/4/2 522/4/2 529/4/2
f 529/4/2 522/4/2 530/4/2
f 526/4/2 527/4/2 531/4/2
f 531/4/2 527/4/2 532/4/2
f 528/4/2 529/4/2 533/4/2
f 533/4/2 529/4/2 534/4/2
f 532/4/2 533/4/2 535/4/2
f 535/4/2 533/4/2 536/4/2
f 537/3/2 538/3/2 541/3/2
f 541/3/2 538/3/2 542/3/2
f 539/3/2 540/3/2 543/3/2
f 543/3/2 540/3/2 544/3/2
f 545/4/2 546/4/2 549/4/2
f 549/4/2 546/4/2 550/4/2
f 547/4/2 548/4/2 553/4/2
f 553/4/2 548/4/2 554/4/2
f 550/4/2 551/4/2 555/4/2
f 555/4/2 551/4/2 556/4/2
f 552/4/2 553/4/2 561/4/2
f 561/4/2 553/4/2 562/4/2
f 557/4/2 558/4/2 563/4/2
f 563/4/2 558/4/2 564/4/2
f 559/4/2 560/4/2 567/4/2
f 567/4/2 560/4/2 568/4/2
f 565/4/2 566/4/2 569/4/2
f 569/4/2 566/4/2 570/4/2
f 571/3/2 572/3/2 575/3/2
f 575/3/2 572/3/2 576/3/2
f 573/3/2 574/3/2 579/3/2
f 579/3/2 574/3/2 580/3/2
f 576/4/2 577/4/2 581/4/2
f 581/4/2 577/4/2 582/4/2
f 578/4/2 579/4/2 587/4/2
f 587/4/2 579/4/2 588/4/2
f 583/4/2 584/4/2 589/4/2
f 589/4/2 584/4/2 590/4/2
f 585/4/2 586/4/2 593/4/2
f 593/4/2 586/4/2 594/4/2
f 590/4/2 591/4/2 595/4/2
f 595/4/2 591/4/2 596/4/2
f 592/4/2 593/4/2 597/4/2
f 597/4/2 593/4/2 598/4/2
f 596/4/2 597/4/2 599/4/2
f 599/4/2 597/4/2 600/4/2
f 601/3/2 602/3/2 605/3/2
f 605/3/2 602/3/2 606/3/2
f 603/3/2 604/3/2 609/3/2
f 609/3/2 604/3/2 610/3/2
f 606/4/2 607/4/2 611/4/2
f 611/4/2 607/4/2 612/4/2
f 608/4/2 609/4/2 615/4/2
f 615/4/2 609/4/2 616/4/2
f 612/4/2 613/4/2 617/4/2
f 617/4/2 613/4/2 618/4/2
f 614/4/2 615/4/2 619/4/2
f 619/4/2 615/4/2 620/4/2
f 618/4/2 619/4/2 621/4/2
f 621/4/2 619/4/2 622/4/2
f 623/3/2 624/3/2 627/3/2
f 627/3/2 624/3/2 628/3/2
f 625/3/2 626/3/2 633/3/2
f 633/3/2 626/3/2 634/3/2
f 629/4/2 630/4/2 635/4/2
f 635/4/2 630/4/2 636/4/2
f 631/4/2 632/4/2 637/4/2
f 637/4/2 632/4/2 638/4/2
f 636/4/2 637/4/2 639/4/2
f 639/4/2 637/4/2 640/4/2
f 641/3/2 642/3/2 645/3/2
f 643/3/2 644/3/2 646/3/2
f 647/1/2 648/1/2 649/1/2
f 649/1/2 648/1/2 650/1/2
f 647/1/2 649/1/2 651/1/2
f 649/2/2 650/2/2 651/2/2
f 650/1/2 648/1/2 652/1/2
f 651/2/2 650/2/2 652/2/2
f 647/1/2 651/1/2 653/1/2
f 651/1/2 652/1/2 653/1/2
f 652/1/2 648/1/2 654/1/2
f 653/1/2 652/1/2 654/1/2
f 641/3/2 645/3/2 655/3/2
f 646/3/2 644/3/2 656/3/2
f 641/3/2 655/3/2 657/3/2
f 657/3/2 655/3/2 658/3/2
f 656/3/2 644/3/2 659/3/2
f 659/3/2 644/3/2 660/3/2
f 658/4/2 659/4/2 661/4/2
f 661/4/2 659/4/2 662/4/2
f 663/3/2 664/3/2 665/3/2
f 665/3/2 664/3/2 666/3/2
f 665/4/2 666/4/2 667/4/2
f 667/4/2 666/4/2 668/4/2
f 665/4/2 667/4/2 669/4/2
f 668/4/2 666/4/2 670/4/2
f 665/4/2 669/4/2 671/4/2
f 669/4/2 670/4/2 671/4/2
f 670/4/2 666/4/2 672/4/2
f 671/4/2 670/4/2 672/4/2
f 671/3/2 672/3/2 673/3/2
f 673/3/2 672/3/2 674/3/2
f 678/5/3 676/5/3 675/5/3
f 679/5/3 678/5/3 677/5/3
f 680/5/3 676/5/3 678/5/3
f 680/5/3 678/5/3 679/5/3
f 681/5/3 676/5/3 680/5/3
f 682/5/3 676/5/3 681/5/3
f 685/5/3 684/5/3 683/5/3
f 686/5/3 684/5/3 685/5/3
f 689/5/3 688/5/3 687/5/3
f 690/5/3 688/5/3 689/5/3
f 694/5/3 692/5/3 691/5/3
f 695/5/3 692/5/3 694/5/3
f 696/1/3 694/1/3 693/1/3
f 697/1/3 694/1/3 696/1/3
f 698/3/3 697/3/3 696/3/3
f 699/3/3 697/3/3 698/3/3
f 701/5/3 700/5/3 699/5/3
f 702/5/3 700/5/3 701/5/3
f 709/5/3 704/5/3 703/5/3
f 710/5/3 704/5/3 709/5/3
f 711/4/3 706/4/3 705/4/3
f 712/4/3 706/4/3 711/4/3
f 713/1/3 709/1/3 708/1/3
f 714/1/3 709/1/3 713/1/3
f 716/4/3 706/4/3 712/4/3
f 717/3/3 714/3/3 713/3/3
f 718/3/3 714/3/3 717/3/3
f 719/4/3 716/4/3 715/4/3
f 720/3/3 707/3/3 706/3/3
f 720/4/3 716/4/3 719/4/3
f 720/4/3 706/4/3 716/4/3
f 721/3/3 707/3/3 720/3/3
f 722/1/3 718/1/3 717/1/3
f 723/1/3 718/1/3 722/1/3
f 725/5/3 724/5/3 723/5/3
f 726/5/3 724/5/3 725/5/3
f 731/3/3 728/3/3 727/3/3
f 732/3/3 728/3/3 731/3/3
f 733/3/3 728/3/3 732/3/3
f 736/5/3 730/5/3 729/5/3
f 737/5/3 730/5/3 736/5/3
f 740/4/3 734/4/3 733/4/3
f 741/4/3 734/4/3 740/4/3
f 744/1/3 736/1/3 735/1/3
f 745/1/3 736/1/3 744/1/3
f 746/7/3 739/7/3 738/7/3
f 747/7/3 739/7/3 746/7/3
f 748/3/3 745/3/3 744/3/3
f 749/3/3 745/3/3 748/3/3
f 750/6/3 747/6/3 746/6/3
f 751/7/3 739/7/3 747/7/3
f 751/6/3 747/6/3 750/6/3
f 752/7/3 751/7/3 750/7/3
f 753/7/3 739/7/3 751/7/3
f 753/7/3 751/7/3 752/7/3
f 754/4/3 740/4/3 733/4/3
f 756/5/3 743/5/3 742/5/3
f 757/5/3 743/5/3 756/5/3
f 758/1/3 749/1/3 748/1/3
f 761/4/3 755/4/3 754/4/3
f 761/4/3 754/4/3 733/4/3
f 762/4/3 755/4/3 761/4/3
f 763/1/3 749/1/3 758/1/3
f 764/1/3 749/1/3 763/1/3
f 766/5/3 765/5/3 764/5/3
f 767/5/3 765/5/3 766/5/3
f 768/3/3 761/3/3 760/3/3
f 768/3/3 760/3/3 759/3/3
f 769/3/3 761/3/3 768/3/3
f 772/3/3 771/3/3 770/3/3
f 773/3/3 771/3/3 772/3/3
f 778/4/3 775/4/3 774/4/3
f 779/4/3 775/4/3 778/4/3
f 782/5/3 777/5/3 776/5/3
f 783/4/3 780/4/3 779/4/3
f 784/4/3 780/4/3 783/4/3
f 785/3/3 782/3/3 781/3/3
f 786/5/3 777/5/3 782/5/3
f 786/3/3 782/3/3 785/3/3
f 787/1/3 786/1/3 785/1/3
f 788/5/3 784/5/3 783/5/3
f 789/5/3 784/5/3 788/5/3
f 791/4/3 789/4/3 788/4/3
f 792/4/3 789/4/3 791/4/3
f 793/1/3 786/1/3 787/1/3
f 794/5/3 777/5/3 786/5/3
f 794/1/3 786/1/3 793/1/3
f 795/5/3 777/5/3 794/5/3
f 796/5/3 777/5/3 795/5/3
f 797/4/3 791/4/3 790/4/3
f 798/4/3 791/4/3 797/4/3
f 801/3/3 800/3/3 799/3/3
f 802/3/3 800/3/3 801/3/3
f 805/3/3 804/3/3 803/3/3
f 806/3/3 804/3/3 805/3/3
f 808/4/3 807/4/3 806/4/3
f 809/4/3 807/4/3 808/4/3
f 811/4/3 810/4/3 809/4/3
f 812/4/3 810/4/3 811/4/3
f 816/4/3 813/4/3 812/4/3
f 817/4/3 813/4/3 816/4/3
f 818/5/3 815/5/3 814/5/3
f 819/5/3 815/5/3 818/5/3
f 823/4/3 821/4/3 820/4/3
f 824/4/3 821/4/3 823/4/3
f 826/4/3 823/4/3 822/4/3
f 827/4/3 823/4/3 826/4/3
f 829/4/3 826/4/3 825/4/3
f 830/4/3 826/4/3 829/4/3
f 831/3/3 829/3/3 828/3/3
f 832/3/3 829/3/3 831/3/3
f 835/3/3 834/3/3 833/3/3
f 836/3/3 834/3/3 835/3/3
f 838/4/3 837/4/3 836/4/3
f 839/4/3 837/4/3 838/4/3
f 842/4/3 841/4/3 840/4/3
f 843/4/3 841/4/3 842/4/3
f 845/4/3 844/4/3 843/4/3
f 846/4/3 844/4/3 845/4/3
f 848/4/3 847/4/3 846/4/3
f 849/4/3 847/4/3 848/4/3
f 853/4/3 851/4/3 850/4/3
f 854/4/3 851/4/3 853/4/3
f 856/4/3 853/4/3 852/4/3
f 857/4/3 853/4/3 856/4/3
f 858/4/3 856/4/3 855/4/3
f 859/4/3 856/4/3 858/4/3
f 863/4/3 861/4/3 860/4/3
f 864/4/3 861/4/3 863/4/3
f 865/3/3 863/3/3 862/3/3
f 866/3/3 863/3/3 865/3/3
f 869/3/3 868/3/3 867/3/3
f 870/3/3 868/3/3 869/3/3
f 873/4/3 872/4/3 871/4/3
f 874/4/3 872/4/3 873/4/3
f 876/4/3 875/4/3 874/4/3
f 877/4/3 875/4/3 876/4/3
f 880/4/3 879/4/3 878/4/3
f 881/4/3 879/4/3 880/4/3
f 884/4/3 883/4/3 882/4/3
f 885/4/3 883/4/3 884/4/3
f 889/4/3 887/4/3 886/4/3
f 890/4/3 887/4/3 889/4/3
f 891/4/3 889/4/3 888/4/3
f 892/4/3 889/4/3 891/4/3
f 895/3/3 894/3/3 893/3/3
f 896/3/3 894/3/3 895/3/3
f 899/4/3 898/4/3 897/4/3
f 900/4/3 898/4/3 899/4/3
f 902/4/3 901/4/3 900/4/3
f 903/4/3 901/4/3 902/4/3
f 905/4/3 904/4/3 903/4/3
f 906/4/3 904/4/3 905/4/3
f 909/4/3 908/4/3 907/4/3
f 910/4/3 908/4/3 909/4/3
f 912/4/3 911/4/3 910/4/3
f 913/4/3 911/4/3 912/4/3
f 917/4/3 915/4/3 914/4/3
f 918/4/3 915/4/3 917/4/3
f 919/4/3 917/4/3 916/4/3
f 920/4/3 917/4/3 919/4/3
f 924/4/3 922/4/3 921/4/3
f 925/4/3 922/4/3 924/4/3
f 927/4/3 924/4/3 923/4/3
f 928/4/3 924/4/3 927/4/3
f 929/4/3 927/4/3 926/4/3
f 930/4/3 927/4/3 929/4/3
f 933/4/3 932/4/3 931/4/3
f 934/4/3 932/4/3 933/4/3
f 936/4/3 935/4/3 934/4/3
f 937/4/3 935/4/3 936/4/3
f 939/4/3 938/4/3 937/4/3
f 940/4/3 938/4/3 939/4/3
f 944/4/3 942/4/3 941/4/3
f 945/4/3 942/4/3 944/4/3
f 947/4/3 944/4/3 943/4/3
f 948/4/3 944/4/3 947/4/3
f 949/4/3 947/4/3 946/4/3
f 950/4/3 947/4/3 949/4/3
f 955/3/3 952/3/3 951/3/3
f 956/4/3 953/4/3 952/4/3
f 956/3/3 952/3/3 955/3/3
f 957/3/3 954/3/3 953/3/3
f 957/4/3 953/4/3 956/4/3
f 958/3/3 954/3/3 957/3/3
f 960/4/3 959/4/3 958/4/3
f 961/4/3 959/4/3 960/4/3
f 963/4/3 962/4/3 961/4/3
f 964/4/3 962/4/3 963/4/3
f 966/4/3 965/4/3 964/4/3
f 967/4/3 965/4/3 966/4/3
f 969/4/3 968/4/3 967/4/3
f 970/4/3 968/4/3 969/4/3
f 974/4/3 972/4/3 971/4/3
f 975/4/3 974/4/3 973/4/3
f 976/4/3 972/4/3 974/4/3
f 976/4/3 974/4/3 975/4/3
f 977/4/3 972/4/3 976/4/3
f 978/4/3 972/4/3 977/4/3
f 982/4/3 980/4/3 979/4/3
f 983/4/3 980/4/3 982/4/3
f 985/4/3 982/4/3 981/4/3
f 986/4/3 982/4/3 985/4/3
f 988/4/3 985/4/3 984/4/3
f 989/4/3 985/4/3 988/4/3
f 993/4/3 988/4/3 987/4/3
f 994/4/3 988/4/3 993/4/3
f 995/3/3 991/3/3 990/3/3
f 996/4/3 992/4/3 991/4/3
f 996/3/3 991/3/3 995/3/3
f 997/3/3 993/3/3 992/3/3
f 997/4/3 992/4/3 996/4/3
f 998/3/3 993/3/3 997/3/3
f 1001/4/3 1000/4/3 999/4/3
f 1002/4/3 1000/4/3 1001/4/3
f 1004/4/3 1003/4/3 1002/4/3
f 1005/4/3 1003/4/3 1004/4/3
f 1007/4/3 1006/4/3 1005/4/3
f 1008/4/3 1006/4/3 1007/4/3
f 1012/4/3 1010/4/3 1009/4/3
f 1013/4/3 1010/4/3 1012/4/3
f 1015/4/3 1012/4/3 1011/4/3
f 1016/4/3 1012/4/3 1015/4/3
f 1017/4/3 1015/4/3 1014/4/3
f 1018/4/3 1015/4/3 1017/4/3
f 1021/4/3 1020/4/3 1019/4/3
f 1022/4/3 1020/4/3 1021/4/3
f 1025/4/3 1024/4/3 1023/4/3
f 1026/4/3 1024/4/3 1025/4/3
f 1027/5/4 1028/5/4 1030/5/4
f 1030/5/4 1028/5/4 1031/5/4
f 1029/5/4 1030/5/4 1032/5/4
f 1032/5/4 1030/5/4 1033/5/4
f 1033/5/4 1034/5/4 1035/5/4
f 1035/5/4 1034/5/4 1036/5/4
f 1037/5/4 1038/5/4 1040/5/4
f 1040/5/4 1038/5/4 1041/5/4
f 1039/5/4 1040/5/4 1042/5/4
f 1042/5/4 1040/5/4 1043/5/4
f 1044/5/4 1045/5/4 1046/5/4
f 1046/5/4 1045/5/4 1047/5/4
f 1047/5/4 1048/5/4 1049/5/4
f 1049/5/4 1048/5/4 1050/5/4
f 1051/5/4 1052/5/4 1054/5/4
f 1054/5/4 1052/5/4 1055/5/4
f 1053/5/4 1054/5/4 1056/5/4
f 1056/5/4 1054/5/4 1057/5/4
f 1058/5/4 1059/5/4 1060/5/4
f 1060/5/4 1059/5/4 1061/5/4
f 1061/5/4 1062/5/4 1063/5/4
f 1063/5/4 1062/5/4 1064/5/4
f 1065/5/4 1066/5/4 1068/5/4
f 1068/5/4 1066/5/4 1069/5/4
f 1067/5/4 1068/5/4 1070/5/4
f 1070/5/4 1068/5/4 1071/5/4
f 1071/5/4 1068/5/4 1072/5/4
f 1072/5/4 1068/5/4 1073/5/4
f 1073/5/4 1074/5/4 1075/5/4
f 1075/5/4 1074/5/4 1076/5/4
f 1077/5/4 1078/5/4 1080/5/4
f 1080/5/4 1078/5/4 1081/5/4
f 1082/5/4 1083/5/4 1084/5/4
f 1084/5/4 1083/5/4 1085/5/4
f 1079/5/4 1080/5/4 1086/5/4
f 1086/5/4 1080/5/4 1087/5/4
f 1087/5/4 1088/5/4 1089/5/4
f 1089/5/4 1088/5/4 1090/5/4
f 1093/5/4 1094/5/4 1095/5/4
f 1095/5/4 1094/5/4 1096/5/4
f 1091/5/4 1092/5/4 1097/5/4
f 1097/5/4 1092/5/4 1098/5/4
f 1099/5/4 1100/5/4 1101/5/4
f 1101/5/4 1100/5/4 1102/5/4
f 1103/5/4 1104/5/4 1105/5/4
f 1105/5/4 1104/5/4 1106/5/4
f 1107/4/4 1108/4/4 1109/4/4
f 1109/4/4 1108/4/4 1110/4/4
f 1111/4/4 1112/4/4 1113/4/4
f 1113/4/4 1112/4/4 1114/4/4
f 1115/4/4 1116/4/4 1117/4/4
f 1117/4/4 1116/4/4 1118/4/4
f 1118/4/4 1119/4/4 1120/4/4
f 1120/4/4 1119/4/4 1121/4/4
f 1121/4/4 1122/4/4 1123/4/4
f 1123/4/4 1122/4/4 1124/4/4
f 1125/4/4 1126/4/4 1128/4/4
f 1128/4/4 1126/4/4 1129/4/4
f 1127/4/4 1128/4/4 1131/4/4
f 1131/4/4 1128/4/4 1132/4/4
f 1130/4/4 1131/4/4 1133/4/4
f 1133/4/4 1131/4/4 1134/4/4
f 1135/3/4 1136/3/4 1139/3/4
f 1136/4/4 1137/4/4 1140/4/4
f 1139/3/4 1136/3/4 1140/3/4
f 1137/3/4 1138/3/4 1141/3/4
f 1140/4/4 1137/4/4 1141/4/4
f 1141/3/4 1138/3/4 1142/3/4
f 1142/4/4 1143/4/4 1144/4/4
f 1144/4/4 1143/4/4 1145/4/4
f 1145/4/4 1146/4/4 1147/4/4
f 1147/4/4 1146/4/4 1148/4/4
f 1148/4/4 1149/4/4 1150/4/4
f 1150/4/4 1149/4/4 1151/4/4
f 1151/4/4 1152/4/4 1153/4/4
f 1153/4/4 1152/4/4 1154/4/4
f 1155/4/4 1156/4/4 1157/4/4
f 1157/4/4 1156/4/4 1158/4/4
f 1159/4/4 1160/4/4 1161/4/4
f 1161/4/4 1160/4/4 1162/4/4
f 1163/4/4 1164/4/4 1166/4/4
f 1166/4/4 1164/4/4 1167/4/4
f 1165/4/4 1166/4/4 1169/4/4
f 1169/4/4 1166/4/4 1170/4/4
f 1168/4/4 1169/4/4 1172/4/4
f 1172/4/4 1169/4/4 1173/4/4
f 1171/4/4 1172/4/4 1177/4/4
f 1177/4/4 1172/4/4 1178/4/4
f 1174/3/4 1175/3/4 1179/3/4
f 1175/4/4 1176/4/4 1180/4/4
f 1179/3/4 1175/3/4 1180/3/4
f 1176/3/4 1177/3/4 1181/3/4
f 1180/4/4 1176/4/4 1181/4/4
f 1181/3/4 1177/3/4 1182/3/4
f 1183/4/4 1184/4/4 1185/4/4
f 1185/4/4 1184/4/4 1186/4/4
f 1186/4/4 1187/4/4 1188/4/4
f 1188/4/4 1187/4/4 1189/4/4
f 1189/4/4 1190/4/4 1191/4/4
f 1191/4/4 1190/4/4 1192/4/4
f 1192/4/4 1193/4/4 1195/4/4
f 1195/4/4 1193/4/4 1196/4/4
f 1194/4/4 1195/4/4 1198/4/4
f 1198/4/4 1195/4/4 1199/4/4
f 1197/4/4 1198/4/4 1201/4/4
f 1201/4/4 1198/4/4 1202/4/4
f 1200/4/4 1201/4/4 1203/4/4
f 1203/4/4 1201/4/4 1204/4/4
f 1205/4/4 1206/4/4 1207/4/4
f 1207/4/4 1206/4/4 1208/4/4
f 1208/4/4 1209/4/4 1210/4/4
f 1210/4/4 1209/4/4 1211/4/4
f 1211/4/4 1212/4/4 1213/4/4
f 1213/4/4 1212/4/4 1214/4/4
f 1215/4/4 1216/4/4 1217/4/4
f 1217/4/4 1216/4/4 1218/4/4
f 1218/4/4 1219/4/4 1220/4/4
f 1220/4/4 1219/4/4 1221/4/4
f 1221/4/4 1222/4/4 1224/4/4
f 1224/4/4 1222/4/4 1225/4/4
f 1223/4/4 1224/4/4 1227/4/4
f 1227/4/4 1224/4/4 1228/4/4
f 1226/4/4 1227/4/4 1229/4/4
f 1229/4/4 1227/4/4 1230/4/4
f 1231/4/4 1232/4/4 1234/4/4
f 1234/4/4 1232/4/4 1235/4/4
f 1233/4/4 1234/4/4 1237/4/4
f 1237/4/4 1234/4/4 1238/4/4
f 1236/4/4 1237/4/4 1239/4/4
f 1239/4/4 1237/4/4 1240/4/4
f 1241/3/4 1242/3/4 1243/3/4
f 1243/3/4 1242/3/4 1244/3/4
f 1245/4/4 1246/4/4 1247/4/4
f 1247/4/4 1246/4/4 1248/4/4
f 1248/4/4 1249/4/4 1250/4/4
f 1250/4/4 1249/4/4 1251/4/4
f 1252/4/4 1253/4/4 1254/4/4
f 1254/4/4 1253/4/4 1255/4/4
f 1256/4/4 1257/4/4 1258/4/4
f 1258/4/4 1257/4/4 1259/4/4
f 1260/4/4 1261/4/4 1262/4/4
f 1262/4/4 1261/4/4 1263/4/4
f 1264/4/4 1265/4/4 1267/4/4
f 1267/4/4 1265/4/4 1268/4/4
f 1266/4/4 1267/4/4 1269/4/4
f 1269/4/4 1267/4/4 1270/4/4
f 1271/3/4 1272/3/4 1273/3/4
f 1273/3/4 1272/3/4 1274/3/4
f 1275/3/4 1276/3/4 1277/3/4
f 1277/3/4 1276/3/4 1278/3/4
f 1278/4/4 1279/4/4 1280/4/4
f 1280/4/4 1279/4/4 1281/4/4
f 1282/4/4 1283/4/4 1284/4/4
f 1284/4/4 1283/4/4 1285/4/4
f 1285/4/4 1286/4/4 1287/4/4
f 1287/4/4 1286/4/4 1288/4/4
f 1288/4/4 1289/4/4 1291/4/4
f 1291/4/4 1289/4/4 1292/4/4
f 1290/4/4 1291/4/4 1294/4/4
f 1294/4/4 1291/4/4 1295/4/4
f 1293/4/4 1294/4/4 1296/4/4
f 1296/4/4 1294/4/4 1297/4/4
f 1298/4/4 1299/4/4 1301/4/4
f 1301/4/4 1299/4/4 1302/4/4
f 1300/3/4 1301/3/4 1303/3/4
f 1303/3/4 1301/3/4 1304/3/4
f 1305/3/4 1306/3/4 1307/3/4
f 1307/3/4 1306/3/4 1308/3/4
f 1308/4/4 1309/4/4 1310/4/4
f 1310/4/4 1309/4/4 1311/4/4
f 1311/4/4 1312/4/4 1313/4/4
f 1313/4/4 1312/4/4 1314/4/4
f 1314/4/4 1315/4/4 1317/4/4
f 1317/4/4 1315/4/4 1318/4/4
f 1316/4/4 1317/4/4 1320/4/4
f 1320/4/4 1317/4/4 1321/4/4
f 1319/4/4 1320/4/4 1323/4/4
f 1323/4/4 1320/4/4 1324/4/4
f 1322/3/4 1323/3/4 1325/3/4
f 1325/3/4 1323/3/4 1326/3/4
f 1327/3/4 1328/3/4 1329/3/4
f 1329/3/4 1328/3/4 1330/3/4
f 1331/4/4 1332/4/4 1333/4/4
f 1333/4/4 1332/4/4 1334/4/4
f 1334/4/4 1335/4/4 1337/4/4
f 1337/4/4 1335/4/4 1338/4/4
f 1336/4/4 1337/4/4 1339/4/4
f 1339/4/4 1337/4/4 1340/4/4
f 1341/3/4 1342/3/4 1343/3/4
f 1343/3/4 1342/3/4 1344/3/4
f 1345/3/4 1346/3/4 1347/3/4
f 1347/3/4 1346/3/4 1348/3/4
f 1348/4/4 1349/4/4 1351/4/4
f 1351/4/4 1349/4/4 1352/4/4
f 1350/3/4 1351/3/4 1353/3/4
f 1353/3/4 1351/3/4 1354/3/4
f 1355/3/4 1356/3/4 1357/3/4
f 1357/3/4 1356/3/4 1358/3/4
f 1364/4/5 1360/4/5 1359/4/5
f 1365/4/5 1360/4/5 1364/4/5
f 1368/4/5 1362/4/5 1361/4/5
f 1369/4/5 1362/4/5 1368/4/5
f 1372/3/5 1364/3/5 1363/3/5
f 1372/3/5 1365/3/5 1364/3/5
f 1373/7/5 1366/7/5 1365/7/5
f 1373/3/5 1365/3/5 1372/3/5
f 1374/6/5 1367/6/5 1366/6/5
f 1374/7/5 1366/7/5 1373/7/5
f 1375/7/5 1368/7/5 1367/7/5
f 1375/6/5 1367/6/5 1374/6/5
f 1376/3/5 1370/3/5 1369/3/5
f 1376/7/5 1368/7/5 1375/7/5
f 1376/3/5 1369/3/5 1368/3/5
f 1377/3/5 1370/3/5 1376/3/5
f 1380/3/5 1373/3/5 1372/3/5
f 1380/3/5 1378/3/5 1377/3/5
f 1380/3/5 1377/3/5 1376/3/5
f 1380/3/5 1376/3/5 1375/3/5
f 1380/3/5 1374/3/5 1373/3/5
f 1380/3/5 1375/3/5 1374/3/5
f 1380/3/5 1372/3/5 1371/3/5
f 1381/3/5 1378/3/5 1380/3/5
f 1384/3/5 1380/3/5 1379/3/5
f 1384/3/5 1382/3/5 1381/3/5
f 1384/3/5 1381/3/5 1380/3/5
f 1385/3/5 1382/3/5 1384/3/5
f 1388/3/5 1384/3/5 1383/3/5
f 1388/3/5 1386/3/5 1385/3/5
f 1388/3/5 1385/3/5 1384/3/5
f 1389/3/5 1386/3/5 1388/3/5
f 1392/3/5 1388/3/5 1387/3/5
f 1392/3/5 1390/3/5 1389/3/5
f 1392/3/5 1389/3/5 1388/3/5
f 1393/3/5 1390/3/5 1392/3/5
f 1395/3/5 1392/3/5 1391/3/5
f 1395/3/5 1394/3/5 1393/3/5
f 1395/3/5 1393/3/5 1392/3/5
f 1396/3/5 1394/3/5 1395/3/5
f 1397/3/5 1394/3/5 1396/3/5
f 1398/3/5 1394/3/5 1397/3/5
f 1399/3/5 1397/3/5 1396/3/5
f 1400/3/5 1397/3/5 1399/3/5
f 1401/3/5 1397/3/5 1400/3/5
f 1402/3/5 1397/3/5 1401/3/5
f 1403/3/5 1401/3/5 1400/3/5
f 1404/3/5 1401/3/5 1403/3/5
f 1405/3/5 1401/3/5 1404/3/5
f 1406/3/5 1401/3/5 1405/3/5
f 1407/3/5 1405/3/5 1404/3/5
f 1408/3/5 1405/3/5 1407/3/5
f 1409/3/5 1405/3/5 1408/3/5
f 1410/3/5 1405/3/5 1409/3/5
f 1411/3/5 1409/3/5 1408/3/5
f 1412/3/5 1409/3/5 1411/3/5
f 1413/3/5 1409/3/5 1412/3/5
f 1414/3/5 1409/3/5 1413/3/5
f 1415/3/5 1413/3/5 1412/3/5
f 1416/3/5 1413/3/5 1415/3/5
f 1417/3/5 1413/3/5 1416/3/5
f 1418/3/5 1413/3/5 1417/3/5
f 1419/3/5 1417/3/5 1416/3/5
f 1420/3/5 1417/3/5 1419/3/5
f 1423/4/5 1422/4/5 1421/4/5
f 1424/4/5 1422/4/5 1423/4/5
f 1429/4/5 1426/4/5 1425/4/5
f 1430/4/5 1426/4/5 1429/4/5
f 1431/4/5 1428/4/5 1427/4/5
f 1432/4/5 1428/4/5 1431/4/5
f 1435/5/5 1434/5/5 1433/5/5
f 1436/5/5 1434/5/5 1435/5/5
f 1439/5/5 1438/5/5 1437/5/5
f 1440/5/5 1438/5/5 1439/5/5
f 1443/5/5 1442/5/5 1441/5/5
f 1444/5/5 1442/5/5 1443/5/5
f 1449/5/5 1446/5/5 1445/5/5
f 1450/5/5 1446/5/5 1449/5/5
f 1451/5/5 1448/5/5 1447/5/5
f 1452/5/5 1448/5/5 1451/5/5
f 1453/5/5 1451/5/5 1450/5/5
f 1454/5/5 1451/5/5 1453/5/5
f 1455/5/5 1451/5/5 1454/5/5
f 1456/5/5 1451/5/5 1455/5/5
f 1457/5/5 1455/5/5 1454/5/5
f 1458/5/5 1455/5/5 1457/5/5
f 1463/5/5 1460/5/5 1459/5/5
f 1464/5/5 1460/5/5 1463/5/5
f 1467/5/5 1462/5/5 1461/5/5
f 1468/5/5 1462/5/5 1467/5/5
f 1469/5/5 1465/5/5 1464/5/5
f 1470/5/5 1465/5/5 1469/5/5
f 1471/5/5 1467/5/5 1466/5/5
f 1472/5/5 1467/5/5 1471/5/5
f 1477/5/5 1474/5/5 1473/5/5
f 1478/5/5 1474/5/5 1477/5/5
f 1481/5/5 1476/5/5 1475/5/5
f 1482/5/5 1476/5/5 1481/5/5
f 1483/5/5 1479/5/5 1478/5/5
f 1484/5/5 1479/5/5 1483/5/5
f 1485/5/5 1481/5/5 1480/5/5
f 1486/5/5 1481/5/5 1485/5/5
f 1491/5/5 1488/5/5 1487/5/5
f 1492/5/5 1488/5/5 1491/5/5
f 1493/5/5 1490/5/5 1489/5/5
f 1494/5/5 1490/5/5 1493/5/5
f 1495/5/5 1493/5/5 1492/5/5
f 1496/5/5 1493/5/5 1495/5/5
f 1501/5/5 1498/5/5 1497/5/5
f 1502/5/5 1498/5/5 1501/5/5
f 1503/5/5 1500/5/5 1499/5/5
f 1504/5/5 1500/5/5 1503/5/5
f 1505/5/5 1503/5/5 1502/5/5
f 1506/5/5 1503/5/5 1505/5/5
f 1507/4/6 1508/4/6 1511/4/6
f 1511/4/6 1508/4/6 1512/4/6
f 1509/4/6 1510/4/6 1513/4/6
f 1513/4/6 1510/4/6 1514/4/6
f 1515/3/6 1516/3/6 1518/3/6
f 1518/3/6 1516/3/6 1519/3/6
f 1517/3/6 1518/3/6 1522/3/6
f 1522/3/6 1518/3/6 1523/3/6
f 1523/3/6 1518/3/6 1524/3/6
f 1519/3/6 1520/3/6 1525/3/6
f 1525/3/6 1520/3/6 1526/3/6
f 1526/3/6 1520/3/6 1527/3/6
f 1521/3/6 1522/3/6 1530/3/6
f 1522/3/6 1523/3/6 1530/3/6
f 1530/3/6 1523/3/6 1531/3/6
f 1527/3/6 1528/3/6 1532/3/6
f 1526/3/6 1527/3/6 1532/3/6
f 1532/3/6 1528/3/6 1533/3/6
f 1529/3/6 1530/3/6 1536/3/6
f 1536/3/6 1530/3/6 1537/3/6
f 1533/3/6 1534/3/6 1538/3/6
f 1538/3/6 1534/3/6 1539/3/6
f 1535/3/6 1536/3/6 1542/3/6
f 1539/3/6 1540/3/6 1543/3/6
f 1541/3/6 1542/3/6 1545/3/6
f 1542/3/6 1536/3/6 1545/3/6
f 1545/3/6 1536/3/6 1546/3/6
f 1543/3/6 1544/3/6 1547/3/6
f 1539/3/6 1543/3/6 1547/3/6
f 1547/3/6 1544/3/6 1548/3/6
f 1541/3/6 1545/3/6 1550/3/6
f 1550/3/6 1545/3/6 1551/3/6
f 1548/3/6 1544/3/6 1552/3/6
f 1552/3/6 1544/3/6 1553/3/6
f 1549/3/6 1550/3/6 1555/3/6
f 1555/3/6 1550/3/6 1556/3/6
f 1553/3/6 1554/3/6 1559/3/6
f 1559/3/6 1554/3/6 1560/3/6
f 1556/3/6 1557/3/6 1561/3/6
f 1558/3/6 1559/3/6 1564/3/6
f 1561/3/6 1562/3/6 1565/3/6
f 1556/3/6 1561/3/6 1565/3/6
f 1565/3/6 1562/3/6 1566/3/6
f 1563/3/6 1564/3/6 1567/3/6
f 1564/3/6 1559/3/6 1567/3/6
f 1567/3/6 1559/3/6 1568/3/6
f 1566/3/6 1562/3/6 1569/3/6
f 1569/3/6 1562/3/6 1570/3/6
f 1563/3/6 1567/3/6 1573/3/6
f 1573/3/6 1567/3/6 1574/3/6
f 1570/3/6 1571/3/6 1575/3/6
f 1575/3/6 1571/3/6 1576/3/6
f 1572/3/6 1573/3/6 1579/3/6
f 1579/3/6 1573/3/6 1580/3/6
f 1576/3/6 1577/3/6 1581/3/6
f 1581/3/6 1577/3/6 1582/3/6
f 1582/3/6 1577/3/6 1583/3/6
f 1578/3/6 1579/3/6 1586/3/6
f 1586/3/6 1579/3/6 1587/3/6
f 1587/3/6 1579/3/6 1588/3/6
f 1583/3/6 1584/3/6 1589/3/6
f 1582/3/6 1583/3/6 1589/3/6
f 1589/3/6 1584/3/6 1590/3/6
f 1586/3/6 1587/3/6 1591/3/6
f 1585/3/6 1586/3/6 1591/3/6
f 1591/3/6 1587/3/6 1592/3/6
f 1590/3/6 1591/3/6 1593/3/6
f 1593/3/6 1591/3/6 1594/3/6
f 1595/4/6 1596/4/6 1597/4/6
f 1597/4/6 1596/4/6 1598/4/6
f 1599/4/6 1600/4/6 1604/4/6
f 1604/4/6 1600/4/6 1605/4/6
f 1601/4/6 1602/4/6 1606/4/6
f 1606/4/6 1602/4/6 1607/4/6
f 1603/4/6 1604/4/6 1610/4/6
f 1610/4/6 1604/4/6 1611/4/6
f 1607/4/6 1608/4/6 1612/4/6
f 1612/4/6 1608/4/6 1613/4/6
f 1609/4/6 1610/4/6 1616/4/6
f 1616/4/6 1610/4/6 1617/4/6
f 1617/4/6 1610/4/6 1618/4/6
f 1613/4/6 1614/4/6 1619/4/6
f 1619/4/6 1614/4/6 1620/4/6
f 1620/4/6 1614/4/6 1621/4/6
f 1615/4/6 1616/4/6 1623/4/6
f 1616/4/6 1617/4/6 1623/4/6
f 1623/4/6 1617/4/6 1624/4/6
f 1621/4/6 1622/4/6 1625/4/6
f 1620/4/6 1621/4/6 1625/4/6
f 1625/4/6 1622/4/6 1626/4/6
f 1615/4/6 1623/4/6 1628/4/6
f 1628/4/6 1623/4/6 1629/4/6
f 1626/4/6 1622/4/6 1632/4/6
f 1632/4/6 1622/4/6 1633/4/6
f 1627/4/6 1628/4/6 1636/4/6
f 1636/4/6 1628/4/6 1637/4/6
f 1630/5/6 1631/5/6 1638/5/6
f 1638/5/6 1631/5/6 1639/5/6
f 1633/4/6 1634/4/6 1640/4/6
f 1640/4/6 1634/4/6 1641/4/6
f 1635/4/6 1636/4/6 1643/4/6
f 1643/4/6 1636/4/6 1644/4/6
f 1641/4/6 1642/4/6 1647/4/6
f 1647/4/6 1642/4/6 1648/4/6
f 1644/4/6 1645/4/6 1649/4/6
f 1649/4/6 1645/4/6 1650/4/6
f 1646/4/6 1647/4/6 1653/4/6
f 1653/4/6 1647/4/6 1654/4/6
f 1650/4/6 1651/4/6 1655/4/6
f 1652/4/6 1653/4/6 1658/4/6
f 1655/4/6 1656/4/6 1659/4/6
f 1650/4/6 1655/4/6 1659/4/6
f 1659/4/6 1656/4/6 1660/4/6
f 1660/4/6 1656/4/6 1661/4/6
f 1657/4/6 1658/4/6 1664/4/6
f 1658/4/6 1653/4/6 1665/4/6
f 1664/4/6 1658/4/6 1665/4/6
f 1665/4/6 1653/4/6 1666/4/6
f 1661/4/6 1662/4/6 1667/4/6
f 1660/4/6 1661/4/6 1667/4/6
f 1667/4/6 1662/4/6 1668/4/6
f 1663/4/6 1664/4/6 1671/4/6
f 1664/4/6 1665/4/6 1671/4/6
f 1671/4/6 1665/4/6 1672/4/6
f 1668/4/6 1669/4/6 1673/4/6
f 1673/4/6 1669/4/6 1674/4/6
f 1670/4/6 1671/4/6 1675/4/6
f 1675/4/6 1671/4/6 1676/4/6
f 1674/4/6 1675/4/6 1677/4/6
f 1677/4/6 1675/4/6 1678/4/6
f 1679/4/6 1680/4/6 1684/4/6
f 1684/4/6 1680/4/6 1685/4/6
f 1681/4/6 1682/4/6 1686/4/6
f 1686/4/6 1682/4/6 1687/4/6
f 1683/4/6 1684/4/6 1690/4/6
f 1690/4/6 1684/4/6 1691/4/6
f 1687/4/6 1688/4/6 1692/4/6
f 1692/4/6 1688/4/6 1693/4/6
f 1689/4/6 1690/4/6 1696/4/6
f 1696/4/6 1690/4/6 1697/4/6
f 1693/4/6 1694/4/6 1700/4/6
f 1700/4/6 1694/4/6 1701/4/6
f 1695/4/6 1696/4/6 1704/4/6
f 1704/4/6 1696/4/6 1705/4/6
f 1698/5/6 1699/5/6 1706/5/6
f 1706/5/6 1699/5/6 1707/5/6
f 1701/4/6 1702/4/6 1708/4/6
f 1708/4/6 1702/4/6 1709/4/6
f 1703/4/6 1704/4/6 1712/4/6
f 1712/4/6 1704/4/6 1713/4/6
f 1709/4/6 1710/4/6 1714/4/6
f 1714/4/6 1710/4/6 1715/4/6
f 1711/4/6 1712/4/6 1717/4/6
f 1717/4/6 1712/4/6 1718/4/6
f 1715/4/6 1716/4/6 1721/4/6
f 1721/4/6 1716/4/6 1722/4/6
f 1718/4/6 1719/4/6 1723/4/6
f 1723/4/6 1719/4/6 1724/4/6
f 1720/4/6 1721/4/6 1727/4/6
f 1727/4/6 1721/4/6 1728/4/6
f 1724/4/6 1725/4/6 1729/4/6
f 1729/4/6 1725/4/6 1730/4/6
f 1726/4/6 1727/4/6 1733/4/6
f 1733/4/6 1727/4/6 1734/4/6
f 1730/4/6 1731/4/6 1735/4/6
f 1735/4/6 1731/4/6 1736/4/6
f 1732/4/6 1733/4/6 1739/4/6
f 1739/4/6 1733/4/6 1740/4/6
f 1736/4/6 1737/4/6 1741/4/6
f 1741/4/6 1737/4/6 1742/4/6
f 1738/4/6 1739/4/6 1743/4/6
f 1743/4/6 1739/4/6 1744/4/6
f 1742/4/6 1743/4/6 1745/4/6
f 1745/4/6 1743/4/6 1746/4/6
f 1747/4/6 1748/4/6 1752/4/6
f 1752/4/6 1748/4/6 1753/4/6
f 1749/4/6 1750/4/6 1754/4/6
f 1754/4/6 1750/4/6 1755/4/6
f 1751/4/6 1752/4/6 1758/4/6
f 1758/4/6 1752/4/6 1759/4/6
f 1759/4/6 1752/4/6 1760/4/6
f 1753/5/6 1754/5/6 1761/5/6
f 1761/5/6 1754/5/6 1762/5/6
f 1755/4/6 1756/4/6 1763/4/6
f 1763/4/6 1756/4/6 1764/4/6
f 1764/4/6 1756/4/6 1765/4/6
f 1757/4/6 1758/4/6 1768/4/6
f 1758/4/6 1759/4/6 1768/4/6
f 1768/4/6 1759/4/6 1769/4/6
f 1769/4/6 1759/4/6 1770/4/6
f 1765/4/6 1766/4/6 1771/4/6
f 1764/4/6 1765/4/6 1771/4/6
f 1771/4/6 1766/4/6 1772/4/6
f 1772/4/6 1766/4/6 1773/4/6
f 1768/4/6 1769/4/6 1775/4/6
f 1767/4/6 1768/4/6 1775/4/6
f 1775/4/6 1769/4/6 1776/4/6
f 1773/4/6 1774/4/6 1777/4/6
f 1772/4/6 1773/4/6 1777/4/6
f 1777/4/6 1774/4/6 1778/4/6
f 1767/4/6 1775/4/6 1780/4/6
f 1780/4/6 1775/4/6 1781/4/6
f 1778/4/6 1774/4/6 1782/4/6
f 1782/4/6 1774/4/6 1783/4/6
f 1779/4/6 1780/4/6 1785/4/6
f 1785/4/6 1780/4/6 1786/4/6
f 1783/4/6 1784/4/6 1789/4/6
f 1789/4/6 1784/4/6 1790/4/6
f 1786/4/6 1787/4/6 1791/4/6
f 1788/4/6 1789/4/6 1794/4/6
f 1791/4/6 1792/4/6 1795/4/6
f 1786/4/6 1791/4/6 1795/4/6
f 1795/4/6 1792/4/6 1796/4/6
f 1796/4/6 1792/4/6 1797/4/6
f 1793/4/6 1794/4/6 1800/4/6
f 1794/4/6 1789/4/6 1801/4/6
f 1800/4/6 1794/4/6 1801/4/6
f 1801/4/6 1789/4/6 1802/4/6
f 1797/4/6 1798/4/6 1803/4/6
f 1796/4/6 1797/4/6 1803/4/6
f 1803/4/6 1798/4/6 1804/4/6
f 1804/4/6 1798/4/6 1805/4/6
f 1799/4/6 1800/4/6 1808/4/6
f 1800/4/6 1801/4/6 1808/4/6
f 1808/4/6 1801/4/6 1809/4/6
f 1809/4/6 1801/4/6 1810/4/6
f 1805/4/6 1806/4/6 1811/4/6
f 1804/4/6 1805/4/6 1811/4/6
f 1811/4/6 1806/4/6 1812/4/6
f 1808/4/6 1809/4/6 1813/4/6
f 1807/4/6 1808/4/6 1813/4/6
f 1813/4/6 1809/4/6 1814/4/6
f 1812/4/6 1813/4/6 1815/4/6
f 1815/4/6 1813/4/6 1816/4/6
f 1817/5/6 1818/5/6 1819/5/6
f 1819/5/6 1818/5/6 1820/5/6
f 1820/5/6 1818/5/6 1821/5/6
f 1821/5/6 1818/5/6 1822/5/6
f 1820/1/6 1821/1/6 1823/1/6
f 1823/1/6 1821/1/6 1824/1/6
f 1824/1/6 1821/1/6 1825/1/6
f 1826/5/6 1827/5/6 1829/5/6
f 1829/5/6 1827/5/6 1830/5/6
f 1828/4/6 1829/4/6 1833/4/6
f 1830/4/6 1831/4/6 1834/4/6
f 1832/4/6 1833/4/6 1837/4/6
f 1833/4/6 1829/4/6 1838/4/6
f 1837/4/6 1833/4/6 1838/4/6
f 1830/4/6 1834/4/6 1839/4/6
f 1834/4/6 1835/4/6 1839/4/6
f 1839/4/6 1835/4/6 1840/4/6
f 1836/4/6 1837/4/6 1843/4/6
f 1843/4/6 1837/4/6 1844/4/6
f 1840/4/6 1841/4/6 1845/4/6
f 1845/4/6 1841/4/6 1846/4/6
f 1842/4/6 1843/4/6 1849/4/6
f 1846/4/6 1847/4/6 1850/4/6
f 1848/4/6 1849/4/6 1852/4/6
f 1849/4/6 1843/4/6 1852/4/6
f 1852/4/6 1843/4/6 1853/4/6
f 1850/4/6 1851/4/6 1854/4/6
f 1846/4/6 1850/4/6 1854/4/6
f 1854/4/6 1851/4/6 1855/4/6
f 1848/4/6 1852/4/6 1856/4/6
f 1855/4/6 1851/4/6 1859/4/6
f 1856/4/6 1857/4/6 1860/4/6
f 1848/4/6 1856/4/6 1860/4/6
f 1860/4/6 1857/4/6 1861/4/6
f 1858/4/6 1859/4/6 1862/4/6
f 1859/4/6 1851/4/6 1862/4/6
f 1862/4/6 1851/4/6 1863/4/6
f 1861/4/6 1857/4/6 1864/4/6
f 1864/4/6 1857/4/6 1865/4/6
f 1858/4/6 1862/4/6 1868/4/6
f 1868/4/6 1862/4/6 1869/4/6
f 1865/4/6 1866/4/6 1870/4/6
f 1870/4/6 1866/4/6 1871/4/6
f 1867/4/6 1868/4/6 1874/4/6
f 1874/4/6 1868/4/6 1875/4/6
f 1871/4/6 1872/4/6 1876/4/6
f 1876/4/6 1872/4/6 1877/4/6
f 1877/4/6 1872/4/6 1878/4/6
f 1873/4/6 1874/4/6 1879/4/6
f 1879/4/6 1874/4/6 1880/4/6
f 1880/4/6 1874/4/6 1881/4/6
f 1877/4/6 1878/4/6 1882/4/6
f 1879/4/6 1880/4/6 1882/4/6
f 1878/4/6 1879/4/6 1882/4/6
f 1882/4/6 1880/4/6 1883/4/6
f 1884/5/6 1885/5/6 1888/5/6
f 1888/5/6 1885/5/6 1889/5/6
f 1886/5/6 1887/5/6 1891/5/6
f 1891/5/6 1887/5/6 1892/5/6
f 1889/1/6 1890/1/6 1893/1/6
f 1893/1/6 1890/1/6 1894/1/6
f 1890/3/6 1891/3/6 1895/3/6
f 1894/1/6 1890/1/6 1895/1/6
f 1895/3/6 1891/3/6 1896/3/6
f 1897/5/6 1898/5/6 1899/5/6
f 1899/5/6 1898/5/6 1900/5/6
f 1901/4/6 1902/4/6 1906/4/6
f 1906/4/6 1902/4/6 1907/4/6
f 1903/4/6 1904/4/6 1908/4/6
f 1908/4/6 1904/4/6 1909/4/6
f 1905/4/6 1906/4/6 1912/4/6
f 1912/4/6 1906/4/6 1913/4/6
f 1909/4/6 1910/4/6 1914/4/6
f 1914/4/6 1910/4/6 1915/4/6
f 1911/4/6 1912/4/6 1917/4/6
f 1917/4/6 1912/4/6 1918/4/6
f 1915/4/6 1916/4/6 1921/4/6
f 1921/4/6 1916/4/6 1922/4/6
f 1918/4/6 1919/4/6 1923/4/6
f 1923/4/6 1919/4/6 1924/4/6
f 1920/4/6 1921/4/6 1927/4/6
f 1927/4/6 1921/4/6 1928/4/6
f 1924/4/6 1925/4/6 1929/4/6
f 1929/4/6 1925/4/6 1930/4/6
f 1926/4/6 1927/4/6 1931/4/6
f 1931/4/6 1927/4/6 1932/4/6
f 1930/4/6 1931/4/6 1933/4/6
f 1933/4/6 1931/4/6 1934/4/6
f 1935/5/6 1936/5/6 1939/5/6
f 1939/5/6 1936/5/6 1940/5/6
f 1937/5/6 1938/5/6 1943/5/6
f 1943/5/6 1938/5/6 1944/5/6
f 1940/1/6 1941/1/6 1945/1/6
f 1945/1/6 1941/1/6 1946/1/6
f 1941/3/6 1942/3/6 1947/3/6
f 1946/1/6 1941/1/6 1947/1/6
f 1942/1/6 1943/1/6 1948/1/6
f 1947/3/6 1942/3/6 1948/3/6
f 1948/1/6 1943/1/6 1949/1/6
f 1950/4/6 1951/4/6 1954/4/6
f 1954/4/6 1951/4/6 1955/4/6
f 1952/4/6 1953/4/6 1956/4/6
f 1956/4/6 1953/4/6 1957/4/6
f 1950/4/6 1954/4/6 1959/4/6
f 1959/4/6 1954/4/6 1960/4/6
f 1957/4/6 1953/4/6 1961/4/6
f 1961/4/6 1953/4/6 1962/4/6
f 1958/4/6 1959/4/6 1964/4/6
f 1964/4/6 1959/4/6 1965/4/6
f 1962/4/6 1963/4/6 1968/4/6
f 1968/4/6 1963/4/6 1969/4/6
f 1965/4/6 1966/4/6 1970/4/6
f 1967/4/6 1968/4/6 1973/4/6
f 1970/4/6 1971/4/6 1974/4/6
f 1965/4/6 1970/4/6 1974/4/6
f 1974/4/6 1971/4/6 1975/4/6
f 1972/4/6 1973/4/6 1976/4/6
f 1973/4/6 1968/4/6 1977/4/6
f 1976/4/6 1973/4/6 1977/4/6
f 1975/4/6 1976/4/6 1978/4/6
f 1978/4/6 1976/4/6 1979/4/6
f 1980/5/6 1981/5/6 1984/5/6
f 1984/5/6 1981/5/6 1985/5/6
f 1982/5/6 1983/5/6 1988/5/6
f 1988/5/6 1983/5/6 1989/5/6
f 1985/1/6 1986/1/6 1990/1/6
f 1986/3/6 1987/3/6 1991/3/6
f 1990/1/6 1986/1/6 1991/1/6
f 1987/1/6 1988/1/6 1992/1/6
f 1991/3/6 1987/3/6 1992/3/6
f 1992/1/6 1988/1/6 1993/1/6
f 1994/4/6 1995/4/6 1997/4/6
f 1997/4/6 1995/4/6 1998/4/6
f 1997/4/6 1998/4/6 2000/4/6
f 1998/4/6 1999/4/6 2000/4/6
f 1996/4/6 1997/4/6 2000/4/6
f 2000/4/6 1999/4/6 2001/4/6
f 2001/4/6 1999/4/6 2002/4/6
f 2002/4/6 1999/4/6 2003/4/6
f 2001/4/6 2002/4/6 2004/4/6
f 2004/4/6 2002/4/6 2005/4/6
f 2005/4/6 2002/4/6 2006/4/6
f 2006/4/6 2002/4/6 2007/4/6
f 2005/4/6 2006/4/6 2008/4/6
f 2008/4/6 2006/4/6 2009/4/6
f 2010/5/6 2011/5/6 2014/5/6
f 2014/5/6 2011/5/6 2015/5/6
f 2012/5/6 2013/5/6 2016/5/6
f 2016/5/6 2013/5/6 2017/5/6
f 2018/5/6 2019/5/6 2020/5/6
f 2020/5/6 2019/5/6 2021/5/6
f 2021/5/6 2019/5/6 2022/5/6
f 2022/5/6 2019/5/6 2023/5/6
f 2021/5/6 2022/5/6 2024/5/6
f 2024/5/6 2022/5/6 2025/5/6
