# MagicaVoxel @ Ephtracy

# group
o 

# material
mtllib panel 2.mtl
usemtl palette

# normals
vn -1 0 0
vn 1 0 0
vn 0 0 1
vn 0 0 -1
vn 0 -1 0
vn 0 1 0

# texcoords
vt 0.458984 0.5
vt 0.650391 0.5
vt 0.802734 0.5
vt 0.919922 0.5
vt 0.923828 0.5

# verts
v 5.2 8.5 -7.7
v 5.2 8.5 -8.7
v 5.2 8.6 -7.7
v 5.2 8.6 -8.7
v 5.9 8.5 -7.7
v 5.9 8.5 -8.7
v 5.9 8.6 -7.7
v 5.9 8.6 -8.7
v 5.2 8.5 -7.7
v 5.2 8.6 -7.7
v 5.9 8.5 -7.7
v 5.9 8.6 -7.7
v 5.2 8.5 -8.7
v 5.2 8.6 -8.7
v 5.9 8.5 -8.7
v 5.9 8.6 -8.7
v 5.2 8.5 -7.7
v 5.9 8.5 -7.7
v 5.3 8.5 -7.8
v 5.5 8.5 -7.8
v 5.6 8.5 -7.8
v 5.8 8.5 -7.8
v 5.3 8.5 -8
v 5.5 8.5 -8
v 5.6 8.5 -8
v 5.8 8.5 -8
v 5.3 8.5 -8.1
v 5.5 8.5 -8.1
v 5.6 8.5 -8.1
v 5.8 8.5 -8.1
v 5.3 8.5 -8.2
v 5.5 8.5 -8.2
v 5.6 8.5 -8.2
v 5.8 8.5 -8.2
v 5.3 8.5 -8.3
v 5.5 8.5 -8.3
v 5.6 8.5 -8.3
v 5.8 8.5 -8.3
v 5.3 8.5 -8.4
v 5.5 8.5 -8.4
v 5.3 8.5 -8.5
v 5.5 8.5 -8.5
v 5.3 8.5 -8.6
v 5.5 8.5 -8.6
v 5.6 8.5 -8.6
v 5.8 8.5 -8.6
v 5.2 8.5 -8.7
v 5.9 8.5 -8.7
v 5.2 8.6 -7.7
v 5.9 8.6 -7.7
v 5.3 8.6 -7.8
v 5.5 8.6 -7.8
v 5.6 8.6 -7.8
v 5.8 8.6 -7.8
v 5.3 8.6 -8
v 5.5 8.6 -8
v 5.6 8.6 -8
v 5.8 8.6 -8
v 5.3 8.6 -8.1
v 5.5 8.6 -8.1
v 5.6 8.6 -8.1
v 5.8 8.6 -8.1
v 5.3 8.6 -8.2
v 5.5 8.6 -8.2
v 5.6 8.6 -8.2
v 5.8 8.6 -8.2
v 5.3 8.6 -8.3
v 5.5 8.6 -8.3
v 5.6 8.6 -8.3
v 5.8 8.6 -8.3
v 5.3 8.6 -8.4
v 5.5 8.6 -8.4
v 5.3 8.6 -8.5
v 5.5 8.6 -8.5
v 5.3 8.6 -8.6
v 5.5 8.6 -8.6
v 5.6 8.6 -8.6
v 5.8 8.6 -8.6
v 5.2 8.6 -8.7
v 5.9 8.6 -8.7

# faces
f 3/4/1 2/4/1 1/4/1
f 4/4/1 2/4/1 3/4/1
f 5/4/2 6/4/2 7/4/2
f 7/4/2 6/4/2 8/4/2
f 11/4/3 10/4/3 9/4/3
f 12/4/3 10/4/3 11/4/3
f 13/4/4 14/4/4 15/4/4
f 15/4/4 14/4/4 16/4/4
f 19/4/5 18/4/5 17/4/5
f 20/4/5 18/4/5 19/4/5
f 21/4/5 18/4/5 20/4/5
f 22/4/5 18/4/5 21/4/5
f 23/4/5 19/4/5 17/4/5
f 23/2/5 20/2/5 19/2/5
f 24/4/5 21/4/5 20/4/5
f 24/2/5 20/2/5 23/2/5
f 25/1/5 22/1/5 21/1/5
f 25/4/5 21/4/5 24/4/5
f 26/4/5 18/4/5 22/4/5
f 26/1/5 22/1/5 25/1/5
f 27/4/5 25/4/5 24/4/5
f 27/4/5 24/4/5 23/4/5
f 27/4/5 26/4/5 25/4/5
f 27/4/5 23/4/5 17/4/5
f 28/4/5 26/4/5 27/4/5
f 29/4/5 26/4/5 28/4/5
f 30/4/5 18/4/5 26/4/5
f 30/4/5 26/4/5 29/4/5
f 31/4/5 27/4/5 17/4/5
f 31/5/5 28/5/5 27/5/5
f 32/4/5 29/4/5 28/4/5
f 32/5/5 28/5/5 31/5/5
f 33/2/5 30/2/5 29/2/5
f 33/4/5 29/4/5 32/4/5
f 34/4/5 18/4/5 30/4/5
f 34/2/5 30/2/5 33/2/5
f 35/4/5 31/4/5 17/4/5
f 35/4/5 33/4/5 32/4/5
f 35/4/5 34/4/5 33/4/5
f 35/4/5 32/4/5 31/4/5
f 36/4/5 34/4/5 35/4/5
f 37/4/5 34/4/5 36/4/5
f 38/4/5 18/4/5 34/4/5
f 38/4/5 34/4/5 37/4/5
f 39/4/5 35/4/5 17/4/5
f 39/3/5 36/3/5 35/3/5
f 40/4/5 37/4/5 36/4/5
f 40/3/5 36/3/5 39/3/5
f 41/4/5 39/4/5 17/4/5
f 41/4/5 40/4/5 39/4/5
f 42/4/5 37/4/5 40/4/5
f 42/4/5 40/4/5 41/4/5
f 43/4/5 41/4/5 17/4/5
f 43/1/5 42/1/5 41/1/5
f 44/4/5 37/4/5 42/4/5
f 44/1/5 42/1/5 43/1/5
f 45/5/5 38/5/5 37/5/5
f 45/4/5 37/4/5 44/4/5
f 46/4/5 18/4/5 38/4/5
f 46/5/5 38/5/5 45/5/5
f 47/4/5 43/4/5 17/4/5
f 47/4/5 45/4/5 44/4/5
f 47/4/5 46/4/5 45/4/5
f 47/4/5 44/4/5 43/4/5
f 48/4/5 18/4/5 46/4/5
f 48/4/5 46/4/5 47/4/5
f 49/4/6 50/4/6 51/4/6
f 51/4/6 50/4/6 52/4/6
f 52/4/6 50/4/6 53/4/6
f 53/4/6 50/4/6 54/4/6
f 49/4/6 51/4/6 55/4/6
f 51/2/6 52/2/6 55/2/6
f 52/4/6 53/4/6 56/4/6
f 55/2/6 52/2/6 56/2/6
f 53/1/6 54/1/6 57/1/6
f 56/4/6 53/4/6 57/4/6
f 54/4/6 50/4/6 58/4/6
f 57/1/6 54/1/6 58/1/6
f 56/4/6 57/4/6 59/4/6
f 55/4/6 56/4/6 59/4/6
f 57/4/6 58/4/6 59/4/6
f 49/4/6 55/4/6 59/4/6
f 59/4/6 58/4/6 60/4/6
f 60/4/6 58/4/6 61/4/6
f 58/4/6 50/4/6 62/4/6
f 61/4/6 58/4/6 62/4/6
f 49/4/6 59/4/6 63/4/6
f 59/5/6 60/5/6 63/5/6
f 60/4/6 61/4/6 64/4/6
f 63/5/6 60/5/6 64/5/6
f 61/2/6 62/2/6 65/2/6
f 64/4/6 61/4/6 65/4/6
f 62/4/6 50/4/6 66/4/6
f 65/2/6 62/2/6 66/2/6
f 49/4/6 63/4/6 67/4/6
f 64/4/6 65/4/6 67/4/6
f 65/4/6 66/4/6 67/4/6
f 63/4/6 64/4/6 67/4/6
f 67/4/6 66/4/6 68/4/6
f 68/4/6 66/4/6 69/4/6
f 66/4/6 50/4/6 70/4/6
f 69/4/6 66/4/6 70/4/6
f 49/4/6 67/4/6 71/4/6
f 67/3/6 68/3/6 71/3/6
f 68/4/6 69/4/6 72/4/6
f 71/3/6 68/3/6 72/3/6
f 49/4/6 71/4/6 73/4/6
f 71/4/6 72/4/6 73/4/6
f 72/4/6 69/4/6 74/4/6
f 73/4/6 72/4/6 74/4/6
f 49/4/6 73/4/6 75/4/6
f 73/1/6 74/1/6 75/1/6
f 74/4/6 69/4/6 76/4/6
f 75/1/6 74/1/6 76/1/6
f 69/5/6 70/5/6 77/5/6
f 76/4/6 69/4/6 77/4/6
f 70/4/6 50/4/6 78/4/6
f 77/5/6 70/5/6 78/5/6
f 49/4/6 75/4/6 79/4/6
f 76/4/6 77/4/6 79/4/6
f 77/4/6 78/4/6 79/4/6
f 75/4/6 76/4/6 79/4/6
f 78/4/6 50/4/6 80/4/6
f 79/4/6 78/4/6 80/4/6
