# MagicaVoxel @ Ephtracy

# group
o 

# material
mtllib panel 5.mtl
usemtl palette

# normals
vn -1 0 0
vn 1 0 0
vn 0 0 1
vn 0 0 -1
vn 0 -1 0
vn 0 1 0

# texcoords
vt 0.458984 0.5
vt 0.650391 0.5
vt 0.802734 0.5
vt 0.919922 0.5
vt 0.923828 0.5

# verts
v 8.1 8.5 -7.1
v 8.1 8.5 -8.5
v 8.1 8.6 -7.1
v 8.1 8.6 -8.5
v 9.1 8.5 -7.1
v 9.1 8.5 -8.5
v 9.1 8.6 -7.1
v 9.1 8.6 -8.5
v 8.1 8.5 -7.1
v 8.1 8.6 -7.1
v 9.1 8.5 -7.1
v 9.1 8.6 -7.1
v 8.1 8.5 -8.5
v 8.1 8.6 -8.5
v 9.1 8.5 -8.5
v 9.1 8.6 -8.5
v 8.1 8.5 -7.1
v 9.1 8.5 -7.1
v 8.2 8.5 -7.2
v 8.4 8.5 -7.2
v 8.5 8.5 -7.2
v 8.7 8.5 -7.2
v 8.8 8.5 -7.2
v 9 8.5 -7.2
v 8.2 8.5 -7.3
v 8.4 8.5 -7.3
v 8.5 8.5 -7.3
v 8.7 8.5 -7.3
v 8.8 8.5 -7.3
v 9 8.5 -7.3
v 8.2 8.5 -7.4
v 8.4 8.5 -7.4
v 8.5 8.5 -7.4
v 8.7 8.5 -7.4
v 8.8 8.5 -7.4
v 9 8.5 -7.4
v 8.2 8.5 -7.7
v 8.4 8.5 -7.7
v 8.5 8.5 -7.7
v 8.7 8.5 -7.7
v 8.8 8.5 -7.7
v 9 8.5 -7.7
v 8.2 8.5 -7.8
v 8.4 8.5 -7.8
v 8.5 8.5 -7.8
v 8.7 8.5 -7.8
v 8.8 8.5 -7.8
v 9 8.5 -7.8
v 8.2 8.5 -7.9
v 8.4 8.5 -7.9
v 8.5 8.5 -7.9
v 8.7 8.5 -7.9
v 8.8 8.5 -7.9
v 9 8.5 -7.9
v 8.2 8.5 -8
v 8.4 8.5 -8
v 8.5 8.5 -8
v 8.7 8.5 -8
v 8.8 8.5 -8
v 9 8.5 -8
v 8.2 8.5 -8.2
v 8.4 8.5 -8.2
v 8.5 8.5 -8.2
v 8.7 8.5 -8.2
v 8.8 8.5 -8.2
v 9 8.5 -8.2
v 8.2 8.5 -8.3
v 8.4 8.5 -8.3
v 8.5 8.5 -8.3
v 8.7 8.5 -8.3
v 8.8 8.5 -8.3
v 9 8.5 -8.3
v 8.2 8.5 -8.4
v 8.4 8.5 -8.4
v 8.5 8.5 -8.4
v 8.7 8.5 -8.4
v 8.8 8.5 -8.4
v 9 8.5 -8.4
v 8.1 8.5 -8.5
v 9.1 8.5 -8.5
v 8.1 8.6 -7.1
v 9.1 8.6 -7.1
v 8.2 8.6 -7.2
v 8.4 8.6 -7.2
v 8.5 8.6 -7.2
v 8.7 8.6 -7.2
v 8.8 8.6 -7.2
v 9 8.6 -7.2
v 8.2 8.6 -7.3
v 8.4 8.6 -7.3
v 8.5 8.6 -7.3
v 8.7 8.6 -7.3
v 8.8 8.6 -7.3
v 9 8.6 -7.3
v 8.2 8.6 -7.4
v 8.4 8.6 -7.4
v 8.5 8.6 -7.4
v 8.7 8.6 -7.4
v 8.8 8.6 -7.4
v 9 8.6 -7.4
v 8.2 8.6 -7.7
v 8.4 8.6 -7.7
v 8.5 8.6 -7.7
v 8.7 8.6 -7.7
v 8.8 8.6 -7.7
v 9 8.6 -7.7
v 8.2 8.6 -7.8
v 8.4 8.6 -7.8
v 8.5 8.6 -7.8
v 8.7 8.6 -7.8
v 8.8 8.6 -7.8
v 9 8.6 -7.8
v 8.2 8.6 -7.9
v 8.4 8.6 -7.9
v 8.5 8.6 -7.9
v 8.7 8.6 -7.9
v 8.8 8.6 -7.9
v 9 8.6 -7.9
v 8.2 8.6 -8
v 8.4 8.6 -8
v 8.5 8.6 -8
v 8.7 8.6 -8
v 8.8 8.6 -8
v 9 8.6 -8
v 8.2 8.6 -8.2
v 8.4 8.6 -8.2
v 8.5 8.6 -8.2
v 8.7 8.6 -8.2
v 8.8 8.6 -8.2
v 9 8.6 -8.2
v 8.2 8.6 -8.3
v 8.4 8.6 -8.3
v 8.5 8.6 -8.3
v 8.7 8.6 -8.3
v 8.8 8.6 -8.3
v 9 8.6 -8.3
v 8.2 8.6 -8.4
v 8.4 8.6 -8.4
v 8.5 8.6 -8.4
v 8.7 8.6 -8.4
v 8.8 8.6 -8.4
v 9 8.6 -8.4
v 8.1 8.6 -8.5
v 9.1 8.6 -8.5

# faces
f 3/4/1 2/4/1 1/4/1
f 4/4/1 2/4/1 3/4/1
f 5/4/2 6/4/2 7/4/2
f 7/4/2 6/4/2 8/4/2
f 11/4/3 10/4/3 9/4/3
f 12/4/3 10/4/3 11/4/3
f 13/4/4 14/4/4 15/4/4
f 15/4/4 14/4/4 16/4/4
f 19/4/5 18/4/5 17/4/5
f 20/4/5 18/4/5 19/4/5
f 21/4/5 18/4/5 20/4/5
f 22/4/5 18/4/5 21/4/5
f 23/4/5 18/4/5 22/4/5
f 24/4/5 18/4/5 23/4/5
f 25/4/5 19/4/5 17/4/5
f 25/3/5 20/3/5 19/3/5
f 26/4/5 21/4/5 20/4/5
f 26/3/5 20/3/5 25/3/5
f 27/5/5 22/5/5 21/5/5
f 27/4/5 21/4/5 26/4/5
f 28/4/5 23/4/5 22/4/5
f 28/5/5 22/5/5 27/5/5
f 29/2/5 24/2/5 23/2/5
f 29/4/5 23/4/5 28/4/5
f 30/4/5 18/4/5 24/4/5
f 30/2/5 24/2/5 29/2/5
f 31/4/5 29/4/5 28/4/5
f 31/4/5 28/4/5 27/4/5
f 31/4/5 30/4/5 29/4/5
f 31/4/5 27/4/5 26/4/5
f 31/4/5 26/4/5 25/4/5
f 31/4/5 25/4/5 17/4/5
f 32/4/5 30/4/5 31/4/5
f 33/4/5 30/4/5 32/4/5
f 34/4/5 30/4/5 33/4/5
f 35/4/5 30/4/5 34/4/5
f 36/4/5 18/4/5 30/4/5
f 36/4/5 30/4/5 35/4/5
f 37/4/5 31/4/5 17/4/5
f 37/5/5 32/5/5 31/5/5
f 38/4/5 33/4/5 32/4/5
f 38/5/5 32/5/5 37/5/5
f 39/1/5 34/1/5 33/1/5
f 39/4/5 33/4/5 38/4/5
f 40/4/5 35/4/5 34/4/5
f 40/1/5 34/1/5 39/1/5
f 41/5/5 36/5/5 35/5/5
f 41/4/5 35/4/5 40/4/5
f 42/4/5 18/4/5 36/4/5
f 42/5/5 36/5/5 41/5/5
f 43/4/5 39/4/5 38/4/5
f 43/4/5 41/4/5 40/4/5
f 43/4/5 42/4/5 41/4/5
f 43/4/5 38/4/5 37/4/5
f 43/4/5 37/4/5 17/4/5
f 43/4/5 40/4/5 39/4/5
f 44/4/5 42/4/5 43/4/5
f 45/4/5 42/4/5 44/4/5
f 46/4/5 42/4/5 45/4/5
f 47/4/5 42/4/5 46/4/5
f 48/4/5 18/4/5 42/4/5
f 48/4/5 42/4/5 47/4/5
f 49/4/5 43/4/5 17/4/5
f 49/5/5 44/5/5 43/5/5
f 50/4/5 45/4/5 44/4/5
f 50/5/5 44/5/5 49/5/5
f 51/5/5 46/5/5 45/5/5
f 51/4/5 45/4/5 50/4/5
f 52/4/5 47/4/5 46/4/5
f 52/5/5 46/5/5 51/5/5
f 53/5/5 48/5/5 47/5/5
f 53/4/5 47/4/5 52/4/5
f 54/4/5 18/4/5 48/4/5
f 54/5/5 48/5/5 53/5/5
f 55/4/5 51/4/5 50/4/5
f 55/4/5 53/4/5 52/4/5
f 55/4/5 54/4/5 53/4/5
f 55/4/5 50/4/5 49/4/5
f 55/4/5 49/4/5 17/4/5
f 55/4/5 52/4/5 51/4/5
f 56/4/5 54/4/5 55/4/5
f 57/4/5 54/4/5 56/4/5
f 58/4/5 54/4/5 57/4/5
f 59/4/5 54/4/5 58/4/5
f 60/4/5 18/4/5 54/4/5
f 60/4/5 54/4/5 59/4/5
f 61/4/5 55/4/5 17/4/5
f 61/2/5 56/2/5 55/2/5
f 62/4/5 57/4/5 56/4/5
f 62/2/5 56/2/5 61/2/5
f 63/5/5 58/5/5 57/5/5
f 63/4/5 57/4/5 62/4/5
f 64/4/5 59/4/5 58/4/5
f 64/5/5 58/5/5 63/5/5
f 65/5/5 60/5/5 59/5/5
f 65/4/5 59/4/5 64/4/5
f 66/4/5 18/4/5 60/4/5
f 66/5/5 60/5/5 65/5/5
f 67/4/5 63/4/5 62/4/5
f 67/4/5 65/4/5 64/4/5
f 67/4/5 66/4/5 65/4/5
f 67/4/5 62/4/5 61/4/5
f 67/4/5 61/4/5 17/4/5
f 67/4/5 64/4/5 63/4/5
f 68/4/5 66/4/5 67/4/5
f 69/4/5 66/4/5 68/4/5
f 70/4/5 66/4/5 69/4/5
f 71/4/5 66/4/5 70/4/5
f 72/4/5 18/4/5 66/4/5
f 72/4/5 66/4/5 71/4/5
f 73/4/5 67/4/5 17/4/5
f 73/5/5 68/5/5 67/5/5
f 74/4/5 69/4/5 68/4/5
f 74/5/5 68/5/5 73/5/5
f 75/5/5 70/5/5 69/5/5
f 75/4/5 69/4/5 74/4/5
f 76/4/5 71/4/5 70/4/5
f 76/5/5 70/5/5 75/5/5
f 77/3/5 72/3/5 71/3/5
f 77/4/5 71/4/5 76/4/5
f 78/4/5 18/4/5 72/4/5
f 78/3/5 72/3/5 77/3/5
f 79/4/5 75/4/5 74/4/5
f 79/4/5 77/4/5 76/4/5
f 79/4/5 78/4/5 77/4/5
f 79/4/5 74/4/5 73/4/5
f 79/4/5 73/4/5 17/4/5
f 79/4/5 76/4/5 75/4/5
f 80/4/5 18/4/5 78/4/5
f 80/4/5 78/4/5 79/4/5
f 81/4/6 82/4/6 83/4/6
f 83/4/6 82/4/6 84/4/6
f 84/4/6 82/4/6 85/4/6
f 85/4/6 82/4/6 86/4/6
f 86/4/6 82/4/6 87/4/6
f 87/4/6 82/4/6 88/4/6
f 81/4/6 83/4/6 89/4/6
f 83/3/6 84/3/6 89/3/6
f 84/4/6 85/4/6 90/4/6
f 89/3/6 84/3/6 90/3/6
f 85/5/6 86/5/6 91/5/6
f 90/4/6 85/4/6 91/4/6
f 86/4/6 87/4/6 92/4/6
f 91/5/6 86/5/6 92/5/6
f 87/2/6 88/2/6 93/2/6
f 92/4/6 87/4/6 93/4/6
f 88/4/6 82/4/6 94/4/6
f 93/2/6 88/2/6 94/2/6
f 92/4/6 93/4/6 95/4/6
f 91/4/6 92/4/6 95/4/6
f 93/4/6 94/4/6 95/4/6
f 90/4/6 91/4/6 95/4/6
f 89/4/6 90/4/6 95/4/6
f 81/4/6 89/4/6 95/4/6
f 95/4/6 94/4/6 96/4/6
f 96/4/6 94/4/6 97/4/6
f 97/4/6 94/4/6 98/4/6
f 98/4/6 94/4/6 99/4/6
f 94/4/6 82/4/6 100/4/6
f 99/4/6 94/4/6 100/4/6
f 81/4/6 95/4/6 101/4/6
f 95/5/6 96/5/6 101/5/6
f 96/4/6 97/4/6 102/4/6
f 101/5/6 96/5/6 102/5/6
f 97/1/6 98/1/6 103/1/6
f 102/4/6 97/4/6 103/4/6
f 98/4/6 99/4/6 104/4/6
f 103/1/6 98/1/6 104/1/6
f 99/5/6 100/5/6 105/5/6
f 104/4/6 99/4/6 105/4/6
f 100/4/6 82/4/6 106/4/6
f 105/5/6 100/5/6 106/5/6
f 102/4/6 103/4/6 107/4/6
f 104/4/6 105/4/6 107/4/6
f 105/4/6 106/4/6 107/4/6
f 101/4/6 102/4/6 107/4/6
f 81/4/6 101/4/6 107/4/6
f 103/4/6 104/4/6 107/4/6
f 107/4/6 106/4/6 108/4/6
f 108/4/6 106/4/6 109/4/6
f 109/4/6 106/4/6 110/4/6
f 110/4/6 106/4/6 111/4/6
f 106/4/6 82/4/6 112/4/6
f 111/4/6 106/4/6 112/4/6
f 81/4/6 107/4/6 113/4/6
f 107/5/6 108/5/6 113/5/6
f 108/4/6 109/4/6 114/4/6
f 113/5/6 108/5/6 114/5/6
f 109/5/6 110/5/6 115/5/6
f 114/4/6 109/4/6 115/4/6
f 110/4/6 111/4/6 116/4/6
f 115/5/6 110/5/6 116/5/6
f 111/5/6 112/5/6 117/5/6
f 116/4/6 111/4/6 117/4/6
f 112/4/6 82/4/6 118/4/6
f 117/5/6 112/5/6 118/5/6
f 114/4/6 115/4/6 119/4/6
f 116/4/6 117/4/6 119/4/6
f 117/4/6 118/4/6 119/4/6
f 113/4/6 114/4/6 119/4/6
f 81/4/6 113/4/6 119/4/6
f 115/4/6 116/4/6 119/4/6
f 119/4/6 118/4/6 120/4/6
f 120/4/6 118/4/6 121/4/6
f 121/4/6 118/4/6 122/4/6
f 122/4/6 118/4/6 123/4/6
f 118/4/6 82/4/6 124/4/6
f 123/4/6 118/4/6 124/4/6
f 81/4/6 119/4/6 125/4/6
f 119/2/6 120/2/6 125/2/6
f 120/4/6 121/4/6 126/4/6
f 125/2/6 120/2/6 126/2/6
f 121/5/6 122/5/6 127/5/6
f 126/4/6 121/4/6 127/4/6
f 122/4/6 123/4/6 128/4/6
f 127/5/6 122/5/6 128/5/6
f 123/5/6 124/5/6 129/5/6
f 128/4/6 123/4/6 129/4/6
f 124/4/6 82/4/6 130/4/6
f 129/5/6 124/5/6 130/5/6
f 126/4/6 127/4/6 131/4/6
f 128/4/6 129/4/6 131/4/6
f 129/4/6 130/4/6 131/4/6
f 125/4/6 126/4/6 131/4/6
f 81/4/6 125/4/6 131/4/6
f 127/4/6 128/4/6 131/4/6
f 131/4/6 130/4/6 132/4/6
f 132/4/6 130/4/6 133/4/6
f 133/4/6 130/4/6 134/4/6
f 134/4/6 130/4/6 135/4/6
f 130/4/6 82/4/6 136/4/6
f 135/4/6 130/4/6 136/4/6
f 81/4/6 131/4/6 137/4/6
f 131/5/6 132/5/6 137/5/6
f 132/4/6 133/4/6 138/4/6
f 137/5/6 132/5/6 138/5/6
f 133/5/6 134/5/6 139/5/6
f 138/4/6 133/4/6 139/4/6
f 134/4/6 135/4/6 140/4/6
f 139/5/6 134/5/6 140/5/6
f 135/3/6 136/3/6 141/3/6
f 140/4/6 135/4/6 141/4/6
f 136/4/6 82/4/6 142/4/6
f 141/3/6 136/3/6 142/3/6
f 138/4/6 139/4/6 143/4/6
f 140/4/6 141/4/6 143/4/6
f 141/4/6 142/4/6 143/4/6
f 137/4/6 138/4/6 143/4/6
f 81/4/6 137/4/6 143/4/6
f 139/4/6 140/4/6 143/4/6
f 142/4/6 82/4/6 144/4/6
f 143/4/6 142/4/6 144/4/6
