# MagicaVoxel @ Ephtracy

# group
o 

# material
mtllib panel 6.mtl
usemtl palette

# normals
vn -1 0 0
vn 1 0 0
vn 0 0 1
vn 0 0 -1
vn 0 -1 0
vn 0 1 0

# texcoords
vt 0.650391 0.5
vt 0.802734 0.5
vt 0.919922 0.5
vt 0.923828 0.5

# verts
v 9.3 8.5 -7.2
v 9.3 8.5 -8
v 9.3 8.6 -7.2
v 9.3 8.6 -8
v 9.8 8.5 -7.2
v 9.8 8.5 -8
v 9.8 8.6 -7.2
v 9.8 8.6 -8
v 9.3 8.5 -7.2
v 9.3 8.6 -7.2
v 9.8 8.5 -7.2
v 9.8 8.6 -7.2
v 9.3 8.5 -8
v 9.3 8.6 -8
v 9.8 8.5 -8
v 9.8 8.6 -8
v 9.3 8.5 -7.2
v 9.8 8.5 -7.2
v 9.4 8.5 -7.3
v 9.5 8.5 -7.3
v 9.6 8.5 -7.3
v 9.7 8.5 -7.3
v 9.4 8.5 -7.5
v 9.5 8.5 -7.5
v 9.6 8.5 -7.5
v 9.7 8.5 -7.5
v 9.4 8.5 -7.6
v 9.5 8.5 -7.6
v 9.6 8.5 -7.6
v 9.7 8.5 -7.6
v 9.4 8.5 -7.7
v 9.5 8.5 -7.7
v 9.6 8.5 -7.7
v 9.7 8.5 -7.7
v 9.4 8.5 -7.8
v 9.5 8.5 -7.8
v 9.6 8.5 -7.8
v 9.7 8.5 -7.8
v 9.4 8.5 -7.9
v 9.5 8.5 -7.9
v 9.6 8.5 -7.9
v 9.7 8.5 -7.9
v 9.3 8.5 -8
v 9.8 8.5 -8
v 9.3 8.6 -7.2
v 9.8 8.6 -7.2
v 9.4 8.6 -7.3
v 9.5 8.6 -7.3
v 9.6 8.6 -7.3
v 9.7 8.6 -7.3
v 9.4 8.6 -7.5
v 9.5 8.6 -7.5
v 9.6 8.6 -7.5
v 9.7 8.6 -7.5
v 9.4 8.6 -7.6
v 9.5 8.6 -7.6
v 9.6 8.6 -7.6
v 9.7 8.6 -7.6
v 9.4 8.6 -7.7
v 9.5 8.6 -7.7
v 9.6 8.6 -7.7
v 9.7 8.6 -7.7
v 9.4 8.6 -7.8
v 9.5 8.6 -7.8
v 9.6 8.6 -7.8
v 9.7 8.6 -7.8
v 9.4 8.6 -7.9
v 9.5 8.6 -7.9
v 9.6 8.6 -7.9
v 9.7 8.6 -7.9
v 9.3 8.6 -8
v 9.8 8.6 -8

# faces
f 3/3/1 2/3/1 1/3/1
f 4/3/1 2/3/1 3/3/1
f 5/3/2 6/3/2 7/3/2
f 7/3/2 6/3/2 8/3/2
f 11/3/3 10/3/3 9/3/3
f 12/3/3 10/3/3 11/3/3
f 13/3/4 14/3/4 15/3/4
f 15/3/4 14/3/4 16/3/4
f 19/3/5 18/3/5 17/3/5
f 20/3/5 18/3/5 19/3/5
f 21/3/5 18/3/5 20/3/5
f 22/3/5 18/3/5 21/3/5
f 23/3/5 19/3/5 17/3/5
f 23/2/5 20/2/5 19/2/5
f 24/3/5 21/3/5 20/3/5
f 24/2/5 20/2/5 23/2/5
f 25/4/5 22/4/5 21/4/5
f 25/3/5 21/3/5 24/3/5
f 26/3/5 18/3/5 22/3/5
f 26/4/5 22/4/5 25/4/5
f 27/3/5 25/3/5 24/3/5
f 27/3/5 24/3/5 23/3/5
f 27/3/5 26/3/5 25/3/5
f 27/3/5 23/3/5 17/3/5
f 28/3/5 26/3/5 27/3/5
f 29/3/5 26/3/5 28/3/5
f 30/3/5 18/3/5 26/3/5
f 30/3/5 26/3/5 29/3/5
f 31/3/5 27/3/5 17/3/5
f 31/4/5 28/4/5 27/4/5
f 32/3/5 29/3/5 28/3/5
f 32/4/5 28/4/5 31/4/5
f 33/4/5 30/4/5 29/4/5
f 33/3/5 29/3/5 32/3/5
f 34/3/5 18/3/5 30/3/5
f 34/4/5 30/4/5 33/4/5
f 35/3/5 31/3/5 17/3/5
f 35/3/5 33/3/5 32/3/5
f 35/3/5 34/3/5 33/3/5
f 35/3/5 32/3/5 31/3/5
f 36/3/5 34/3/5 35/3/5
f 37/3/5 34/3/5 36/3/5
f 38/3/5 18/3/5 34/3/5
f 38/3/5 34/3/5 37/3/5
f 39/3/5 35/3/5 17/3/5
f 39/2/5 36/2/5 35/2/5
f 40/3/5 37/3/5 36/3/5
f 40/2/5 36/2/5 39/2/5
f 41/1/5 38/1/5 37/1/5
f 41/3/5 37/3/5 40/3/5
f 42/3/5 18/3/5 38/3/5
f 42/1/5 38/1/5 41/1/5
f 43/3/5 39/3/5 17/3/5
f 43/3/5 41/3/5 40/3/5
f 43/3/5 42/3/5 41/3/5
f 43/3/5 40/3/5 39/3/5
f 44/3/5 18/3/5 42/3/5
f 44/3/5 42/3/5 43/3/5
f 45/3/6 46/3/6 47/3/6
f 47/3/6 46/3/6 48/3/6
f 48/3/6 46/3/6 49/3/6
f 49/3/6 46/3/6 50/3/6
f 45/3/6 47/3/6 51/3/6
f 47/2/6 48/2/6 51/2/6
f 48/3/6 49/3/6 52/3/6
f 51/2/6 48/2/6 52/2/6
f 49/4/6 50/4/6 53/4/6
f 52/3/6 49/3/6 53/3/6
f 50/3/6 46/3/6 54/3/6
f 53/4/6 50/4/6 54/4/6
f 52/3/6 53/3/6 55/3/6
f 51/3/6 52/3/6 55/3/6
f 53/3/6 54/3/6 55/3/6
f 45/3/6 51/3/6 55/3/6
f 55/3/6 54/3/6 56/3/6
f 56/3/6 54/3/6 57/3/6
f 54/3/6 46/3/6 58/3/6
f 57/3/6 54/3/6 58/3/6
f 45/3/6 55/3/6 59/3/6
f 55/4/6 56/4/6 59/4/6
f 56/3/6 57/3/6 60/3/6
f 59/4/6 56/4/6 60/4/6
f 57/4/6 58/4/6 61/4/6
f 60/3/6 57/3/6 61/3/6
f 58/3/6 46/3/6 62/3/6
f 61/4/6 58/4/6 62/4/6
f 45/3/6 59/3/6 63/3/6
f 60/3/6 61/3/6 63/3/6
f 61/3/6 62/3/6 63/3/6
f 59/3/6 60/3/6 63/3/6
f 63/3/6 62/3/6 64/3/6
f 64/3/6 62/3/6 65/3/6
f 62/3/6 46/3/6 66/3/6
f 65/3/6 62/3/6 66/3/6
f 45/3/6 63/3/6 67/3/6
f 63/2/6 64/2/6 67/2/6
f 64/3/6 65/3/6 68/3/6
f 67/2/6 64/2/6 68/2/6
f 65/1/6 66/1/6 69/1/6
f 68/3/6 65/3/6 69/3/6
f 66/3/6 46/3/6 70/3/6
f 69/1/6 66/1/6 70/1/6
f 45/3/6 67/3/6 71/3/6
f 68/3/6 69/3/6 71/3/6
f 69/3/6 70/3/6 71/3/6
f 67/3/6 68/3/6 71/3/6
f 70/3/6 46/3/6 72/3/6
f 71/3/6 70/3/6 72/3/6
