# MagicaVoxel @ Ephtracy

# group
o 

# material
mtllib panel 1.mtl
usemtl palette

# normals
vn -1 0 0
vn 1 0 0
vn 0 0 1
vn 0 0 -1
vn 0 -1 0
vn 0 1 0

# texcoords
vt 0.458984 0.5
vt 0.650391 0.5
vt 0.919922 0.5
vt 0.923828 0.5

# verts
v 4 8.5 -8.2
v 4 8.5 -8.9
v 4 8.6 -8.2
v 4 8.6 -8.9
v 4.5 8.5 -8.2
v 4.5 8.5 -8.9
v 4.5 8.6 -8.2
v 4.5 8.6 -8.9
v 4 8.5 -8.2
v 4 8.6 -8.2
v 4.5 8.5 -8.2
v 4.5 8.6 -8.2
v 4 8.5 -8.9
v 4 8.6 -8.9
v 4.5 8.5 -8.9
v 4.5 8.6 -8.9
v 4 8.5 -8.2
v 4.5 8.5 -8.2
v 4.1 8.5 -8.3
v 4.2 8.5 -8.3
v 4.3 8.5 -8.3
v 4.4 8.5 -8.3
v 4.1 8.5 -8.4
v 4.2 8.5 -8.4
v 4.3 8.5 -8.4
v 4.4 8.5 -8.4
v 4.1 8.5 -8.5
v 4.4 8.5 -8.5
v 4.1 8.5 -8.6
v 4.4 8.5 -8.6
v 4.1 8.5 -8.7
v 4.2 8.5 -8.7
v 4.3 8.5 -8.7
v 4.4 8.5 -8.7
v 4.1 8.5 -8.8
v 4.2 8.5 -8.8
v 4.3 8.5 -8.8
v 4.4 8.5 -8.8
v 4 8.5 -8.9
v 4.5 8.5 -8.9
v 4 8.6 -8.2
v 4.5 8.6 -8.2
v 4.1 8.6 -8.3
v 4.2 8.6 -8.3
v 4.3 8.6 -8.3
v 4.4 8.6 -8.3
v 4.1 8.6 -8.4
v 4.2 8.6 -8.4
v 4.3 8.6 -8.4
v 4.4 8.6 -8.4
v 4.1 8.6 -8.5
v 4.4 8.6 -8.5
v 4.1 8.6 -8.6
v 4.4 8.6 -8.6
v 4.1 8.6 -8.7
v 4.2 8.6 -8.7
v 4.3 8.6 -8.7
v 4.4 8.6 -8.7
v 4.1 8.6 -8.8
v 4.2 8.6 -8.8
v 4.3 8.6 -8.8
v 4.4 8.6 -8.8
v 4 8.6 -8.9
v 4.5 8.6 -8.9

# faces
f 3/3/1 2/3/1 1/3/1
f 4/3/1 2/3/1 3/3/1
f 5/3/2 6/3/2 7/3/2
f 7/3/2 6/3/2 8/3/2
f 11/3/3 10/3/3 9/3/3
f 12/3/3 10/3/3 11/3/3
f 13/3/4 14/3/4 15/3/4
f 15/3/4 14/3/4 16/3/4
f 19/3/5 18/3/5 17/3/5
f 20/3/5 18/3/5 19/3/5
f 21/3/5 18/3/5 20/3/5
f 22/3/5 18/3/5 21/3/5
f 23/3/5 19/3/5 17/3/5
f 23/4/5 20/4/5 19/4/5
f 24/3/5 21/3/5 20/3/5
f 24/4/5 20/4/5 23/4/5
f 25/2/5 22/2/5 21/2/5
f 25/3/5 21/3/5 24/3/5
f 26/3/5 18/3/5 22/3/5
f 26/2/5 22/2/5 25/2/5
f 27/3/5 25/3/5 24/3/5
f 27/3/5 24/3/5 23/3/5
f 27/3/5 26/3/5 25/3/5
f 27/3/5 23/3/5 17/3/5
f 28/3/5 18/3/5 26/3/5
f 28/3/5 26/3/5 27/3/5
f 29/3/5 27/3/5 17/3/5
f 29/1/5 28/1/5 27/1/5
f 30/3/5 18/3/5 28/3/5
f 30/1/5 28/1/5 29/1/5
f 31/3/5 29/3/5 17/3/5
f 31/3/5 30/3/5 29/3/5
f 32/3/5 30/3/5 31/3/5
f 33/3/5 30/3/5 32/3/5
f 34/3/5 18/3/5 30/3/5
f 34/3/5 30/3/5 33/3/5
f 35/3/5 31/3/5 17/3/5
f 35/2/5 32/2/5 31/2/5
f 36/3/5 33/3/5 32/3/5
f 36/2/5 32/2/5 35/2/5
f 37/4/5 34/4/5 33/4/5
f 37/3/5 33/3/5 36/3/5
f 38/3/5 18/3/5 34/3/5
f 38/4/5 34/4/5 37/4/5
f 39/3/5 35/3/5 17/3/5
f 39/3/5 37/3/5 36/3/5
f 39/3/5 38/3/5 37/3/5
f 39/3/5 36/3/5 35/3/5
f 40/3/5 18/3/5 38/3/5
f 40/3/5 38/3/5 39/3/5
f 41/3/6 42/3/6 43/3/6
f 43/3/6 42/3/6 44/3/6
f 44/3/6 42/3/6 45/3/6
f 45/3/6 42/3/6 46/3/6
f 41/3/6 43/3/6 47/3/6
f 43/4/6 44/4/6 47/4/6
f 44/3/6 45/3/6 48/3/6
f 47/4/6 44/4/6 48/4/6
f 45/2/6 46/2/6 49/2/6
f 48/3/6 45/3/6 49/3/6
f 46/3/6 42/3/6 50/3/6
f 49/2/6 46/2/6 50/2/6
f 48/3/6 49/3/6 51/3/6
f 47/3/6 48/3/6 51/3/6
f 49/3/6 50/3/6 51/3/6
f 41/3/6 47/3/6 51/3/6
f 50/3/6 42/3/6 52/3/6
f 51/3/6 50/3/6 52/3/6
f 41/3/6 51/3/6 53/3/6
f 51/1/6 52/1/6 53/1/6
f 52/3/6 42/3/6 54/3/6
f 53/1/6 52/1/6 54/1/6
f 41/3/6 53/3/6 55/3/6
f 53/3/6 54/3/6 55/3/6
f 55/3/6 54/3/6 56/3/6
f 56/3/6 54/3/6 57/3/6
f 54/3/6 42/3/6 58/3/6
f 57/3/6 54/3/6 58/3/6
f 41/3/6 55/3/6 59/3/6
f 55/2/6 56/2/6 59/2/6
f 56/3/6 57/3/6 60/3/6
f 59/2/6 56/2/6 60/2/6
f 57/4/6 58/4/6 61/4/6
f 60/3/6 57/3/6 61/3/6
f 58/3/6 42/3/6 62/3/6
f 61/4/6 58/4/6 62/4/6
f 41/3/6 59/3/6 63/3/6
f 60/3/6 61/3/6 63/3/6
f 61/3/6 62/3/6 63/3/6
f 59/3/6 60/3/6 63/3/6
f 62/3/6 42/3/6 64/3/6
f 63/3/6 62/3/6 64/3/6
