# MagicaVoxel @ Ephtracy

# group
o 

# material
mtllib pizarra.mtl
usemtl palette

# normals
vn -1 0 0
vn 1 0 0
vn 0 0 1
vn 0 0 -1
vn 0 -1 0
vn 0 1 0

# texcoords
vt 0.302734 0.5
vt 0.732422 0.5
vt 0.888672 0.5

# verts
v -10.1 6 4.9
v -10.1 6 4.7
v -10.1 8.3 4.9
v -10.1 8.3 4.7
v -9.1 5.1 4.8
v -9.1 5.1 4.6
v -9.1 6 4.8
v -9.1 6 4.7
v -9.1 7.1 4.7
v -9.1 7.1 4.6
v -7.9 5.1 4.8
v -7.9 5.1 4.6
v -7.9 6 4.8
v -7.9 6 4.7
v -7.9 7.1 4.7
v -7.9 7.1 4.6
v -8.9 5.1 4.8
v -8.9 5.1 4.6
v -8.9 6 4.8
v -8.9 6 4.7
v -8.9 7.1 4.7
v -8.9 7.1 4.6
v -7.7 5.1 4.8
v -7.7 5.1 4.6
v -7.7 6 4.8
v -7.7 6 4.7
v -7.7 7.1 4.7
v -7.7 7.1 4.6
v -6.7 6 4.9
v -6.7 6 4.7
v -6.7 8.3 4.9
v -6.7 8.3 4.7
v -10.1 6 4.9
v -10.1 8.3 4.9
v -10 6.1 4.9
v -10 8.2 4.9
v -9.9 7.5 4.9
v -9.9 7.8 4.9
v -9.9 7.9 4.9
v -9.9 8 4.9
v -9.8 6.5 4.9
v -9.8 6.6 4.9
v -9.8 6.8 4.9
v -9.8 6.9 4.9
v -9.8 7.1 4.9
v -9.8 7.2 4.9
v -9.8 7.6 4.9
v -9.8 7.7 4.9
v -9.6 7.1 4.9
v -9.6 7.2 4.9
v -9.6 7.8 4.9
v -9.6 7.9 4.9
v -9.5 6.8 4.9
v -9.5 6.9 4.9
v -9.5 7.1 4.9
v -9.5 7.2 4.9
v -9.5 7.5 4.9
v -9.5 7.6 4.9
v -9.5 7.7 4.9
v -9.5 8 4.9
v -9.4 7.1 4.9
v -9.4 7.2 4.9
v -9.3 6.8 4.9
v -9.3 6.9 4.9
v -9.3 7.1 4.9
v -9.3 7.2 4.9
v -9.3 7.7 4.9
v -9.3 7.8 4.9
v -9.2 6.5 4.9
v -9.2 6.6 4.9
v -9.2 6.8 4.9
v -9.2 6.9 4.9
v -9.2 7.1 4.9
v -9.2 7.2 4.9
v -9.2 7.6 4.9
v -9.2 7.7 4.9
v -9.2 7.8 4.9
v -9.2 7.9 4.9
v -9.1 6.5 4.9
v -9.1 6.6 4.9
v -9.1 7.6 4.9
v -9.1 7.7 4.9
v -9.1 7.8 4.9
v -9.1 7.9 4.9
v -9 6.8 4.9
v -9 6.9 4.9
v -9 7.1 4.9
v -9 7.2 4.9
v -9 7.7 4.9
v -9 7.8 4.9
v -8.9 7.1 4.9
v -8.9 7.2 4.9
v -8.8 7.1 4.9
v -8.8 7.2 4.9
v -8.8 7.5 4.9
v -8.8 7.8 4.9
v -8.8 7.9 4.9
v -8.8 8 4.9
v -8.7 7.6 4.9
v -8.7 7.7 4.9
v -8.6 6.5 4.9
v -8.6 6.6 4.9
v -8.5 6.5 4.9
v -8.5 6.6 4.9
v -8.5 7.8 4.9
v -8.5 7.9 4.9
v -8.4 6.5 4.9
v -8.4 6.6 4.9
v -8.4 7.5 4.9
v -8.4 7.6 4.9
v -8.4 7.7 4.9
v -8.4 8 4.9
v -8.3 6.5 4.9
v -8.3 6.6 4.9
v -8.3 7.1 4.9
v -8.3 7.2 4.9
v -8.2 6.5 4.9
v -8.2 6.6 4.9
v -8.2 7.1 4.9
v -8.2 7.2 4.9
v -8.1 7.1 4.9
v -8.1 7.2 4.9
v -8.1 7.6 4.9
v -8.1 7.7 4.9
v -8.1 7.8 4.9
v -8.1 7.9 4.9
v -8 6.5 4.9
v -8 6.6 4.9
v -8 7.1 4.9
v -8 7.2 4.9
v -7.9 6.5 4.9
v -7.9 6.6 4.9
v -7.9 6.8 4.9
v -7.9 6.9 4.9
v -7.8 6.8 4.9
v -7.8 6.9 4.9
v -7.8 7.6 4.9
v -7.8 7.7 4.9
v -7.8 7.8 4.9
v -7.8 7.9 4.9
v -7.7 6.5 4.9
v -7.7 6.6 4.9
v -7.7 6.8 4.9
v -7.7 6.9 4.9
v -7.6 6.8 4.9
v -7.6 6.9 4.9
v -7.6 7.1 4.9
v -7.6 7.2 4.9
v -7.6 8 4.9
v -7.6 8.1 4.9
v -7.5 7.1 4.9
v -7.5 7.2 4.9
v -7.5 7.5 4.9
v -7.5 7.6 4.9
v -7.5 7.7 4.9
v -7.5 7.9 4.9
v -7.4 7.1 4.9
v -7.4 7.2 4.9
v -7.4 7.5 4.9
v -7.4 7.6 4.9
v -7.4 7.7 4.9
v -7.4 7.8 4.9
v -7.4 7.9 4.9
v -7.4 8 4.9
v -7.3 6.5 4.9
v -7.3 6.6 4.9
v -7.3 7.8 4.9
v -7.3 8.1 4.9
v -7.2 6.4 4.9
v -7.2 6.7 4.9
v -7.2 6.8 4.9
v -7.2 6.9 4.9
v -7.1 6.5 4.9
v -7.1 6.7 4.9
v -7 6.2 4.9
v -7 6.4 4.9
v -7 6.5 4.9
v -7 6.7 4.9
v -6.9 6.2 4.9
v -6.9 6.7 4.9
v -6.8 6.1 4.9
v -6.8 8.2 4.9
v -6.7 6 4.9
v -6.7 8.3 4.9
v -9.1 5.1 4.8
v -9.1 6 4.8
v -8.9 5.1 4.8
v -8.9 6 4.8
v -7.9 5.1 4.8
v -7.9 6 4.8
v -7.7 5.1 4.8
v -7.7 6 4.8
v -10.1 6 4.7
v -10.1 8.3 4.7
v -9.1 6 4.7
v -9.1 7.1 4.7
v -8.9 6 4.7
v -8.9 7.1 4.7
v -7.9 6 4.7
v -7.9 7.1 4.7
v -7.7 6 4.7
v -7.7 7.1 4.7
v -6.7 6 4.7
v -6.7 8.3 4.7
v -9.1 5.1 4.6
v -9.1 7.1 4.6
v -8.9 5.1 4.6
v -8.9 7.1 4.6
v -7.9 5.1 4.6
v -7.9 7.1 4.6
v -7.7 5.1 4.6
v -7.7 7.1 4.6
v -9.1 5.1 4.8
v -8.9 5.1 4.8
v -7.9 5.1 4.8
v -7.7 5.1 4.8
v -9.1 5.1 4.6
v -8.9 5.1 4.6
v -7.9 5.1 4.6
v -7.7 5.1 4.6
v -10.1 6 4.9
v -6.7 6 4.9
v -9.1 6 4.8
v -8.9 6 4.8
v -7.9 6 4.8
v -7.7 6 4.8
v -10.1 6 4.7
v -9.1 6 4.7
v -8.9 6 4.7
v -7.9 6 4.7
v -7.7 6 4.7
v -6.7 6 4.7
v -9.1 7.1 4.7
v -8.9 7.1 4.7
v -7.9 7.1 4.7
v -7.7 7.1 4.7
v -9.1 7.1 4.6
v -8.9 7.1 4.6
v -7.9 7.1 4.6
v -7.7 7.1 4.6
v -10.1 8.3 4.9
v -6.7 8.3 4.9
v -10.1 8.3 4.7
v -6.7 8.3 4.7

# faces
f 3/2/1 2/2/1 1/2/1
f 4/2/1 2/2/1 3/2/1
f 7/2/1 6/2/1 5/2/1
f 8/2/1 6/2/1 7/2/1
f 9/2/1 6/2/1 8/2/1
f 10/2/1 6/2/1 9/2/1
f 13/2/1 12/2/1 11/2/1
f 14/2/1 12/2/1 13/2/1
f 15/2/1 12/2/1 14/2/1
f 16/2/1 12/2/1 15/2/1
f 17/2/2 18/2/2 19/2/2
f 19/2/2 18/2/2 20/2/2
f 20/2/2 18/2/2 21/2/2
f 21/2/2 18/2/2 22/2/2
f 23/2/2 24/2/2 25/2/2
f 25/2/2 24/2/2 26/2/2
f 26/2/2 24/2/2 27/2/2
f 27/2/2 24/2/2 28/2/2
f 29/2/2 30/2/2 31/2/2
f 31/2/2 30/2/2 32/2/2
f 35/2/3 34/2/3 33/2/3
f 36/2/3 34/2/3 35/2/3
f 37/1/3 36/1/3 35/1/3
f 38/1/3 36/1/3 37/1/3
f 39/1/3 36/1/3 38/1/3
f 40/1/3 36/1/3 39/1/3
f 41/1/3 37/1/3 35/1/3
f 42/1/3 37/1/3 41/1/3
f 43/1/3 37/1/3 42/1/3
f 44/1/3 37/1/3 43/1/3
f 45/1/3 37/1/3 44/1/3
f 46/1/3 37/1/3 45/1/3
f 47/3/3 38/3/3 37/3/3
f 48/3/3 38/3/3 47/3/3
f 49/1/3 45/1/3 44/1/3
f 49/3/3 46/3/3 45/3/3
f 50/1/3 37/1/3 46/1/3
f 50/3/3 46/3/3 49/3/3
f 51/1/3 39/1/3 38/1/3
f 51/3/3 38/3/3 48/3/3
f 52/3/3 40/3/3 39/3/3
f 52/1/3 39/1/3 51/1/3
f 53/1/3 43/1/3 42/1/3
f 53/3/3 44/3/3 43/3/3
f 54/1/3 49/1/3 44/1/3
f 54/3/3 44/3/3 53/3/3
f 54/1/3 50/1/3 49/1/3
f 55/1/3 50/1/3 54/1/3
f 56/1/3 37/1/3 50/1/3
f 56/1/3 50/1/3 55/1/3
f 57/3/3 47/3/3 37/3/3
f 57/1/3 37/1/3 56/1/3
f 58/1/3 48/1/3 47/1/3
f 58/3/3 47/3/3 57/3/3
f 59/3/3 51/3/3 48/3/3
f 59/1/3 48/1/3 58/1/3
f 59/3/3 52/3/3 51/3/3
f 60/1/3 36/1/3 40/1/3
f 60/3/3 52/3/3 59/3/3
f 60/3/3 40/3/3 52/3/3
f 61/1/3 55/1/3 54/1/3
f 61/1/3 54/1/3 53/1/3
f 61/3/3 56/3/3 55/3/3
f 62/1/3 59/1/3 58/1/3
f 62/3/3 56/3/3 61/3/3
f 62/1/3 58/1/3 57/1/3
f 62/1/3 60/1/3 59/1/3
f 62/1/3 57/1/3 56/1/3
f 63/1/3 61/1/3 53/1/3
f 63/1/3 53/1/3 42/1/3
f 63/1/3 62/1/3 61/1/3
f 64/1/3 62/1/3 63/1/3
f 65/1/3 62/1/3 64/1/3
f 66/1/3 60/1/3 62/1/3
f 66/1/3 62/1/3 65/1/3
f 67/1/3 60/1/3 66/1/3
f 68/1/3 60/1/3 67/1/3
f 69/1/3 41/1/3 35/1/3
f 69/3/3 42/3/3 41/3/3
f 70/1/3 63/1/3 42/1/3
f 70/3/3 42/3/3 69/3/3
f 71/3/3 64/3/3 63/3/3
f 71/1/3 63/1/3 70/1/3
f 72/1/3 65/1/3 64/1/3
f 72/3/3 64/3/3 71/3/3
f 73/3/3 66/3/3 65/3/3
f 73/1/3 65/1/3 72/1/3
f 74/1/3 67/1/3 66/1/3
f 74/3/3 66/3/3 73/3/3
f 75/1/3 67/1/3 74/1/3
f 76/3/3 68/3/3 67/3/3
f 76/1/3 67/1/3 75/1/3
f 77/1/3 60/1/3 68/1/3
f 77/3/3 68/3/3 76/3/3
f 78/1/3 60/1/3 77/1/3
f 79/1/3 71/1/3 70/1/3
f 79/1/3 75/1/3 74/1/3
f 79/1/3 69/1/3 35/1/3
f 79/1/3 70/1/3 69/1/3
f 79/1/3 74/1/3 73/1/3
f 79/1/3 73/1/3 72/1/3
f 79/1/3 72/1/3 71/1/3
f 80/1/3 75/1/3 79/1/3
f 81/3/3 76/3/3 75/3/3
f 81/1/3 75/1/3 80/1/3
f 81/3/3 78/3/3 77/3/3
f 81/3/3 77/3/3 76/3/3
f 82/3/3 78/3/3 81/3/3
f 83/3/3 78/3/3 82/3/3
f 84/1/3 60/1/3 78/1/3
f 84/3/3 78/3/3 83/3/3
f 85/1/3 81/1/3 80/1/3
f 85/1/3 82/1/3 81/1/3
f 86/1/3 82/1/3 85/1/3
f 87/1/3 82/1/3 86/1/3
f 88/1/3 82/1/3 87/1/3
f 89/3/3 83/3/3 82/3/3
f 89/1/3 82/1/3 88/1/3
f 90/1/3 84/1/3 83/1/3
f 90/3/3 83/3/3 89/3/3
f 91/3/3 88/3/3 87/3/3
f 91/1/3 87/1/3 86/1/3
f 92/1/3 89/1/3 88/1/3
f 92/3/3 88/3/3 91/3/3
f 92/1/3 90/1/3 89/1/3
f 93/1/3 91/1/3 86/1/3
f 93/1/3 92/1/3 91/1/3
f 94/1/3 90/1/3 92/1/3
f 94/1/3 92/1/3 93/1/3
f 95/1/3 90/1/3 94/1/3
f 96/1/3 84/1/3 90/1/3
f 96/1/3 90/1/3 95/1/3
f 97/1/3 60/1/3 84/1/3
f 97/1/3 84/1/3 96/1/3
f 98/1/3 36/1/3 60/1/3
f 98/1/3 60/1/3 97/1/3
f 99/3/3 96/3/3 95/3/3
f 100/3/3 96/3/3 99/3/3
f 101/3/3 80/3/3 79/3/3
f 101/1/3 79/1/3 35/1/3
f 102/1/3 85/1/3 80/1/3
f 102/3/3 80/3/3 101/3/3
f 103/1/3 101/1/3 35/1/3
f 103/1/3 102/1/3 101/1/3
f 104/1/3 85/1/3 102/1/3
f 104/1/3 102/1/3 103/1/3
f 105/3/3 96/3/3 100/3/3
f 105/1/3 97/1/3 96/1/3
f 106/3/3 98/3/3 97/3/3
f 106/1/3 97/1/3 105/1/3
f 107/3/3 104/3/3 103/3/3
f 107/1/3 103/1/3 35/1/3
f 108/1/3 85/1/3 104/1/3
f 108/3/3 104/3/3 107/3/3
f 109/1/3 95/1/3 94/1/3
f 109/3/3 99/3/3 95/3/3
f 110/1/3 100/1/3 99/1/3
f 110/3/3 99/3/3 109/3/3
f 111/3/3 106/3/3 105/3/3
f 111/1/3 100/1/3 110/1/3
f 111/3/3 105/3/3 100/3/3
f 112/3/3 98/3/3 106/3/3
f 112/3/3 106/3/3 111/3/3
f 112/1/3 36/1/3 98/1/3
f 113/1/3 107/1/3 35/1/3
f 113/1/3 108/1/3 107/1/3
f 114/1/3 85/1/3 108/1/3
f 114/1/3 108/1/3 113/1/3
f 115/1/3 93/1/3 86/1/3
f 115/3/3 94/3/3 93/3/3
f 116/1/3 111/1/3 110/1/3
f 116/3/3 94/3/3 115/3/3
f 116/1/3 109/1/3 94/1/3
f 116/1/3 112/1/3 111/1/3
f 116/1/3 110/1/3 109/1/3
f 117/1/3 113/1/3 35/1/3
f 117/3/3 114/3/3 113/3/3
f 118/1/3 85/1/3 114/1/3
f 118/3/3 114/3/3 117/3/3
f 119/1/3 115/1/3 86/1/3
f 119/1/3 116/1/3 115/1/3
f 120/1/3 112/1/3 116/1/3
f 120/1/3 116/1/3 119/1/3
f 121/1/3 119/1/3 86/1/3
f 121/3/3 120/3/3 119/3/3
f 122/1/3 112/1/3 120/1/3
f 122/3/3 120/3/3 121/3/3
f 123/1/3 112/1/3 122/1/3
f 124/1/3 112/1/3 123/1/3
f 125/1/3 112/1/3 124/1/3
f 126/1/3 112/1/3 125/1/3
f 127/1/3 118/1/3 117/1/3
f 127/1/3 117/1/3 35/1/3
f 128/1/3 85/1/3 118/1/3
f 128/1/3 118/1/3 127/1/3
f 129/1/3 121/1/3 86/1/3
f 129/1/3 122/1/3 121/1/3
f 129/1/3 123/1/3 122/1/3
f 130/1/3 123/1/3 129/1/3
f 131/1/3 127/1/3 35/1/3
f 131/3/3 128/3/3 127/3/3
f 132/1/3 85/1/3 128/1/3
f 132/3/3 128/3/3 131/3/3
f 133/3/3 86/3/3 85/3/3
f 133/1/3 85/1/3 132/1/3
f 134/1/3 129/1/3 86/1/3
f 134/3/3 86/3/3 133/3/3
f 135/1/3 132/1/3 131/1/3
f 135/1/3 133/1/3 132/1/3
f 135/1/3 134/1/3 133/1/3
f 136/1/3 129/1/3 134/1/3
f 136/1/3 134/1/3 135/1/3
f 137/1/3 123/1/3 130/1/3
f 137/3/3 124/3/3 123/3/3
f 138/1/3 125/1/3 124/1/3
f 138/3/3 124/3/3 137/3/3
f 139/3/3 126/3/3 125/3/3
f 139/1/3 125/1/3 138/1/3
f 140/1/3 112/1/3 126/1/3
f 140/3/3 126/3/3 139/3/3
f 141/1/3 131/1/3 35/1/3
f 141/1/3 135/1/3 131/1/3
f 142/1/3 135/1/3 141/1/3
f 143/3/3 136/3/3 135/3/3
f 143/1/3 135/1/3 142/1/3
f 144/1/3 129/1/3 136/1/3
f 144/3/3 136/3/3 143/3/3
f 145/1/3 143/1/3 142/1/3
f 145/1/3 144/1/3 143/1/3
f 146/1/3 129/1/3 144/1/3
f 146/1/3 144/1/3 145/1/3
f 147/3/3 130/3/3 129/3/3
f 147/1/3 129/1/3 146/1/3
f 148/1/3 139/1/3 138/1/3
f 148/3/3 130/3/3 147/3/3
f 148/1/3 140/1/3 139/1/3
f 148/1/3 138/1/3 137/1/3
f 148/1/3 137/1/3 130/1/3
f 149/1/3 112/1/3 140/1/3
f 149/1/3 140/1/3 148/1/3
f 149/1/3 36/1/3 112/1/3
f 150/1/3 36/1/3 149/1/3
f 151/1/3 148/1/3 147/1/3
f 151/1/3 147/1/3 146/1/3
f 151/1/3 149/1/3 148/1/3
f 152/1/3 149/1/3 151/1/3
f 153/1/3 149/1/3 152/1/3
f 154/1/3 149/1/3 153/1/3
f 155/1/3 149/1/3 154/1/3
f 156/1/3 149/1/3 155/1/3
f 157/1/3 151/1/3 146/1/3
f 157/3/3 152/3/3 151/3/3
f 158/1/3 153/1/3 152/1/3
f 158/3/3 152/3/3 157/3/3
f 159/3/3 154/3/3 153/3/3
f 159/1/3 153/1/3 158/1/3
f 160/1/3 155/1/3 154/1/3
f 160/3/3 154/3/3 159/3/3
f 161/3/3 156/3/3 155/3/3
f 161/1/3 155/1/3 160/1/3
f 162/3/3 156/3/3 161/3/3
f 163/1/3 149/1/3 156/1/3
f 163/3/3 156/3/3 162/3/3
f 164/3/3 150/3/3 149/3/3
f 164/1/3 149/1/3 163/1/3
f 165/1/3 141/1/3 35/1/3
f 165/3/3 142/3/3 141/3/3
f 166/1/3 145/1/3 142/1/3
f 166/3/3 142/3/3 165/3/3
f 167/3/3 163/3/3 162/3/3
f 167/3/3 164/3/3 163/3/3
f 167/1/3 162/1/3 161/1/3
f 167/1/3 161/1/3 160/1/3
f 167/1/3 159/1/3 158/1/3
f 167/1/3 158/1/3 157/1/3
f 167/1/3 160/1/3 159/1/3
f 168/1/3 36/1/3 150/1/3
f 168/3/3 164/3/3 167/3/3
f 168/3/3 150/3/3 164/3/3
f 169/1/3 165/1/3 35/1/3
f 169/1/3 166/1/3 165/1/3
f 170/1/3 145/1/3 166/1/3
f 170/1/3 166/1/3 169/1/3
f 171/3/3 146/3/3 145/3/3
f 171/1/3 145/1/3 170/1/3
f 172/1/3 167/1/3 157/1/3
f 172/3/3 146/3/3 171/3/3
f 172/1/3 157/1/3 146/1/3
f 172/1/3 168/1/3 167/1/3
f 173/3/3 170/3/3 169/3/3
f 174/1/3 171/1/3 170/1/3
f 174/3/3 170/3/3 173/3/3
f 174/1/3 172/1/3 171/1/3
f 175/1/3 169/1/3 35/1/3
f 176/3/3 173/3/3 169/3/3
f 176/1/3 169/1/3 175/1/3
f 177/1/3 174/1/3 173/1/3
f 177/3/3 173/3/3 176/3/3
f 178/1/3 172/1/3 174/1/3
f 178/1/3 174/1/3 177/1/3
f 179/1/3 175/1/3 35/1/3
f 179/3/3 177/3/3 176/3/3
f 179/3/3 178/3/3 177/3/3
f 179/3/3 176/3/3 175/3/3
f 180/1/3 172/1/3 178/1/3
f 180/3/3 178/3/3 179/3/3
f 181/2/3 35/2/3 33/2/3
f 181/1/3 179/1/3 35/1/3
f 181/1/3 180/1/3 179/1/3
f 182/1/3 172/1/3 180/1/3
f 182/1/3 180/1/3 181/1/3
f 182/2/3 34/2/3 36/2/3
f 182/1/3 168/1/3 172/1/3
f 182/1/3 36/1/3 168/1/3
f 183/2/3 181/2/3 33/2/3
f 183/2/3 182/2/3 181/2/3
f 184/2/3 34/2/3 182/2/3
f 184/2/3 182/2/3 183/2/3
f 187/2/3 186/2/3 185/2/3
f 188/2/3 186/2/3 187/2/3
f 191/2/3 190/2/3 189/2/3
f 192/2/3 190/2/3 191/2/3
f 193/2/4 194/2/4 195/2/4
f 195/2/4 194/2/4 196/2/4
f 196/2/4 194/2/4 198/2/4
f 197/2/4 198/2/4 199/2/4
f 198/2/4 194/2/4 200/2/4
f 199/2/4 198/2/4 200/2/4
f 200/2/4 194/2/4 202/2/4
f 201/2/4 202/2/4 203/2/4
f 202/2/4 194/2/4 204/2/4
f 203/2/4 202/2/4 204/2/4
f 205/2/4 206/2/4 207/2/4
f 207/2/4 206/2/4 208/2/4
f 209/2/4 210/2/4 211/2/4
f 211/2/4 210/2/4 212/2/4
f 217/2/5 214/2/5 213/2/5
f 218/2/5 214/2/5 217/2/5
f 219/2/5 216/2/5 215/2/5
f 220/2/5 216/2/5 219/2/5
f 223/2/5 222/2/5 221/2/5
f 224/2/5 222/2/5 223/2/5
f 225/2/5 222/2/5 224/2/5
f 226/2/5 222/2/5 225/2/5
f 227/2/5 223/2/5 221/2/5
f 228/2/5 223/2/5 227/2/5
f 229/2/5 225/2/5 224/2/5
f 230/2/5 225/2/5 229/2/5
f 231/2/5 222/2/5 226/2/5
f 232/2/5 222/2/5 231/2/5
f 233/2/6 234/2/6 237/2/6
f 237/2/6 234/2/6 238/2/6
f 235/2/6 236/2/6 239/2/6
f 239/2/6 236/2/6 240/2/6
f 241/2/6 242/2/6 243/2/6
f 243/2/6 242/2/6 244/2/6
