# MagicaVoxel @ Ephtracy

# group
o 

# material
mtllib planta nuclear.mtl
usemtl palette

# normals
vn -1 0 0
vn 1 0 0
vn 0 0 1
vn 0 0 -1
vn 0 -1 0
vn 0 1 0

# texcoords
vt 0.326172 0.5
vt 0.333984 0.5
vt 0.337891 0.5
vt 0.892578 0.5
vt 0.919922 0.5
vt 0.923828 0.5

# verts
v -3.2 6.6 9.9
v -3.2 6.6 9.7
v -3.2 6.6 9.3
v -3.2 6.7 9.9
v -3.2 6.7 9.8
v -3.2 6.8 9.8
v -3.2 6.8 9.7
v -3.2 6.9 9.9
v -3.2 6.9 9.3
v -3.1 5.1 9.9
v -3.1 5.1 9.4
v -3.1 5.1 9.3
v -3.1 5.2 9.9
v -3.1 5.2 9.4
v -3.1 5.2 9.3
v -3.1 6.5 9.9
v -3.1 6.5 9.8
v -3.1 6.5 9.3
v -3.1 6.6 10.1
v -3.1 6.6 9.9
v -3.1 6.6 9.8
v -3.1 6.6 9.7
v -3.1 6.6 9.3
v -3.1 6.6 9.1
v -3.1 6.7 9.9
v -3.1 6.9 10.1
v -3.1 6.9 9.9
v -3.1 6.9 9.3
v -3.1 6.9 9.1
v -3 5.1 10
v -3 5.1 9.9
v -3 5.1 9.3
v -3 5.1 9.2
v -3 5.2 10
v -3 5.2 9.9
v -3 5.2 9.8
v -3 5.2 9.4
v -3 5.2 9.3
v -3 5.2 9.2
v -3 5.5 9.8
v -3 5.5 9.4
v -3 6.4 9.8
v -3 6.4 9.5
v -3 6.4 9.4
v -3 6.5 10
v -3 6.5 9.9
v -3 6.5 9.8
v -3 6.5 9.5
v -3 6.5 9.4
v -3 6.5 9.3
v -3 6.5 9.2
v -3 6.6 10.2
v -3 6.6 10.1
v -3 6.6 10
v -3 6.6 9.9
v -3 6.6 9.3
v -3 6.6 9.2
v -3 6.6 9.1
v -3 6.6 9
v -3 6.9 10.2
v -3 6.9 10.1
v -3 6.9 9.1
v -3 6.9 9
v -2.9 5.1 10.1
v -2.9 5.1 10
v -2.9 5.1 9.2
v -2.9 5.1 9.1
v -2.9 5.2 10.1
v -2.9 5.2 10
v -2.9 5.2 9.8
v -2.9 5.2 9.4
v -2.9 5.2 9.3
v -2.9 5.2 9.2
v -2.9 5.2 9.1
v -2.9 5.5 10
v -2.9 5.5 9.8
v -2.9 5.5 9.5
v -2.9 5.5 9.4
v -2.9 5.5 9.3
v -2.9 5.5 9.2
v -2.9 6.4 10
v -2.9 6.4 9.9
v -2.9 6.4 9.8
v -2.9 6.4 9.5
v -2.9 6.4 9.4
v -2.9 6.4 9.3
v -2.9 6.4 9.2
v -2.9 6.5 10.1
v -2.9 6.5 10
v -2.9 6.5 9.9
v -2.9 6.5 9.8
v -2.9 6.5 9.4
v -2.9 6.5 9.3
v -2.9 6.5 9.2
v -2.9 6.5 9.1
v -2.9 6.6 10.3
v -2.9 6.6 10.2
v -2.9 6.6 10.1
v -2.9 6.6 10
v -2.9 6.6 9.2
v -2.9 6.6 9.1
v -2.9 6.6 9
v -2.9 6.6 8.9
v -2.9 6.9 10.3
v -2.9 6.9 10.2
v -2.9 6.9 9
v -2.9 6.9 8.9
v -2.8 5.1 10.2
v -2.8 5.1 10.1
v -2.8 5.1 9.1
v -2.8 5.1 9
v -2.8 5.2 10.2
v -2.8 5.2 10.1
v -2.8 5.2 10
v -2.8 5.2 9.2
v -2.8 5.2 9.1
v -2.8 5.2 9
v -2.8 5.5 10.1
v -2.8 5.5 10
v -2.8 5.5 9.8
v -2.8 5.5 9.4
v -2.8 5.5 9.3
v -2.8 5.5 9.2
v -2.8 5.5 9.1
v -2.8 6.2 9.9
v -2.8 6.2 9.8
v -2.8 6.4 10.1
v -2.8 6.4 10
v -2.8 6.4 9.9
v -2.8 6.4 9.8
v -2.8 6.4 9.4
v -2.8 6.4 9.3
v -2.8 6.4 9.2
v -2.8 6.4 9.1
v -2.8 6.5 10.2
v -2.8 6.5 10.1
v -2.8 6.5 10
v -2.8 6.5 9.2
v -2.8 6.5 9.1
v -2.8 6.5 9
v -2.8 6.6 10.2
v -2.8 6.6 10.1
v -2.8 6.6 10
v -2.8 6.6 9.8
v -2.8 6.6 9.1
v -2.8 6.6 9
v -2.8 6.7 10
v -2.8 6.7 9.8
v -2.8 7.8 9.4
v -2.8 7.8 9.3
v -2.8 7.9 9.4
v -2.8 7.9 9.3
v -2.7 5.1 10.3
v -2.7 5.1 10.2
v -2.7 5.1 9
v -2.7 5.1 8.9
v -2.7 5.2 10.3
v -2.7 5.2 10.2
v -2.7 5.2 9
v -2.7 5.2 8.9
v -2.7 6.5 10.3
v -2.7 6.5 10.2
v -2.7 6.5 9
v -2.7 6.5 8.9
v -2.7 6.6 10.4
v -2.7 6.6 10.3
v -2.7 6.6 10.2
v -2.7 6.6 9
v -2.7 6.6 8.9
v -2.7 6.6 8.8
v -2.7 6.9 10.4
v -2.7 6.9 10.3
v -2.7 6.9 8.9
v -2.7 6.9 8.8
v -2.7 7.1 9.9
v -2.7 7.1 9.8
v -2.7 7.2 9.9
v -2.7 7.2 9.8
v -2.7 7.7 9.4
v -2.7 7.7 9.3
v -2.7 7.8 9.5
v -2.7 7.8 9.4
v -2.7 7.8 9.3
v -2.7 7.8 9.2
v -2.7 7.9 9.5
v -2.7 7.9 9.4
v -2.7 7.9 9.3
v -2.7 7.9 9.2
v -2.7 8 9.4
v -2.7 8 9.3
v -2.6 5.2 10.2
v -2.6 5.2 10.1
v -2.6 5.2 9.1
v -2.6 5.2 9
v -2.6 5.3 10.2
v -2.6 5.3 10.1
v -2.6 5.4 10.1
v -2.6 5.5 10.2
v -2.6 5.5 10.1
v -2.6 5.5 10
v -2.6 5.5 9.2
v -2.6 5.5 9.1
v -2.6 5.5 9
v -2.6 5.6 10.1
v -2.6 5.6 10
v -2.6 6.4 10.2
v -2.6 6.4 10.1
v -2.6 6.4 10
v -2.6 6.4 9.2
v -2.6 6.4 9.1
v -2.6 6.4 9
v -2.6 6.5 10.2
v -2.6 6.5 10.1
v -2.6 6.5 9.1
v -2.6 6.5 9
v -2.6 7 9.9
v -2.6 7 9.8
v -2.6 7.1 10
v -2.6 7.1 9.9
v -2.6 7.1 9.8
v -2.6 7.1 9.7
v -2.6 7.2 10
v -2.6 7.2 9.9
v -2.6 7.2 9.8
v -2.6 7.2 9.7
v -2.6 7.3 9.9
v -2.6 7.3 9.8
v -2.5 7.8 10
v -2.5 7.8 9.9
v -2.5 7.9 10
v -2.5 7.9 9.9
v -2.4 7.3 9.6
v -2.4 7.3 9.5
v -2.4 7.4 9.6
v -2.4 7.4 9.5
v -2.4 7.7 10
v -2.4 7.7 9.9
v -2.4 7.8 10.1
v -2.4 7.8 10
v -2.4 7.8 9.9
v -2.4 7.8 9.8
v -2.4 7.9 10.1
v -2.4 7.9 10
v -2.4 7.9 9.9
v -2.4 7.9 9.8
v -2.4 8 10
v -2.4 8 9.9
v -2.3 6.6 10
v -2.3 6.6 9.9
v -2.3 6.6 9.8
v -2.3 6.6 9.4
v -2.3 6.6 9.2
v -2.3 6.7 10
v -2.3 6.7 9.8
v -2.3 6.7 9.4
v -2.3 6.7 9.2
v -2.3 7.2 9.6
v -2.3 7.2 9.5
v -2.3 7.3 9.7
v -2.3 7.3 9.6
v -2.3 7.3 9.5
v -2.3 7.3 9.4
v -2.3 7.4 9.7
v -2.3 7.4 9.6
v -2.3 7.4 9.5
v -2.3 7.4 9.4
v -2.3 7.5 9.6
v -2.3 7.5 9.5
v -2.2 6.6 10.2
v -2.2 6.6 10.1
v -2.2 6.6 9.1
v -2.2 6.6 9
v -2.2 6.7 10.2
v -2.2 6.7 10.1
v -2.2 6.7 9.1
v -2.2 6.7 9
v -2.1 6.7 10.3
v -2.1 6.7 10.2
v -2.1 6.7 9
v -2.1 6.7 8.9
v -2.1 6.9 10.3
v -2.1 6.9 10.2
v -2.1 6.9 9
v -2.1 6.9 8.9
v -2.1 8 9.5
v -2.1 8 9.4
v -2.1 8.1 9.5
v -2.1 8.1 9.4
v -2 6.6 10.1
v -2 6.6 10
v -2 6.6 9.2
v -2 6.6 9.1
v -2 6.7 10.2
v -2 6.7 10.1
v -2 6.7 10
v -2 6.7 9.2
v -2 6.7 9.1
v -2 6.7 9
v -2 6.9 10.2
v -2 6.9 10.1
v -2 6.9 9.1
v -2 6.9 9
v -2 7.9 9.5
v -2 7.9 9.4
v -2 8 9.6
v -2 8 9.5
v -2 8 9.4
v -2 8 9.3
v -2 8.1 9.6
v -2 8.1 9.5
v -2 8.1 9.4
v -2 8.1 9.3
v -2 8.2 9.5
v -2 8.2 9.4
v -1.9 6.6 10
v -1.9 6.6 9.8
v -1.9 6.6 9.4
v -1.9 6.6 9.2
v -1.9 6.7 10.1
v -1.9 6.7 10
v -1.9 6.7 9.8
v -1.9 6.7 9.4
v -1.9 6.7 9.2
v -1.9 6.7 9.1
v -1.9 6.9 10.1
v -1.9 6.9 10
v -1.9 6.9 9.2
v -1.9 6.9 9.1
v -1.8 6.6 9.8
v -1.8 6.6 9.4
v -1.8 6.7 10
v -1.8 6.7 9.9
v -1.8 6.7 9.8
v -1.8 6.7 9.4
v -1.8 6.7 9.3
v -1.8 6.7 9.2
v -1.8 6.9 10
v -1.8 6.9 9.9
v -1.8 6.9 9.3
v -1.8 6.9 9.2
v -1.7 6.7 9.9
v -1.7 6.7 9.4
v -1.7 6.7 9.3
v -1.7 6.8 9.5
v -1.7 6.8 9.4
v -1.7 6.9 9.9
v -1.7 6.9 9.5
v -1.7 6.9 9.3
v -3.1 6.7 9.9
v -3.1 6.7 9.8
v -3.1 6.7 9.7
v -3.1 6.7 9.3
v -3.1 6.8 9.8
v -3.1 6.8 9.7
v -3.1 6.9 9.9
v -3.1 6.9 9.3
v -3 6.6 9.8
v -3 6.6 9.4
v -3 6.7 10
v -3 6.7 9.9
v -3 6.7 9.8
v -3 6.7 9.4
v -3 6.7 9.3
v -3 6.7 9.2
v -3 6.9 10
v -3 6.9 9.9
v -3 6.9 9.3
v -3 6.9 9.2
v -2.9 6.6 10
v -2.9 6.6 9.8
v -2.9 6.6 9.4
v -2.9 6.6 9.2
v -2.9 6.7 10.1
v -2.9 6.7 10
v -2.9 6.7 9.8
v -2.9 6.7 9.4
v -2.9 6.7 9.2
v -2.9 6.7 9.1
v -2.9 6.9 10.1
v -2.9 6.9 10
v -2.9 6.9 9.2
v -2.9 6.9 9.1
v -2.8 6.6 10.1
v -2.8 6.6 10
v -2.8 6.6 9.2
v -2.8 6.6 9.1
v -2.8 6.7 10.2
v -2.8 6.7 10.1
v -2.8 6.7 10
v -2.8 6.7 9.2
v -2.8 6.7 9.1
v -2.8 6.7 9
v -2.8 6.9 10.2
v -2.8 6.9 10.1
v -2.8 6.9 9.1
v -2.8 6.9 9
v -2.7 6.7 10.3
v -2.7 6.7 10.2
v -2.7 6.7 9
v -2.7 6.7 8.9
v -2.7 6.9 10.3
v -2.7 6.9 10.2
v -2.7 6.9 9
v -2.7 6.9 8.9
v -2.6 6.6 10.2
v -2.6 6.6 10.1
v -2.6 6.6 10
v -2.6 6.6 9.8
v -2.6 6.6 9.1
v -2.6 6.6 9
v -2.6 6.7 10.2
v -2.6 6.7 10.1
v -2.6 6.7 10
v -2.6 6.7 9.8
v -2.6 6.7 9.1
v -2.6 6.7 9
v -2.6 7.7 9.4
v -2.6 7.7 9.3
v -2.6 7.8 9.5
v -2.6 7.8 9.4
v -2.6 7.8 9.3
v -2.6 7.8 9.2
v -2.6 7.9 9.5
v -2.6 7.9 9.4
v -2.6 7.9 9.3
v -2.6 7.9 9.2
v -2.6 8 9.4
v -2.6 8 9.3
v -2.5 7 9.9
v -2.5 7 9.8
v -2.5 7.1 10
v -2.5 7.1 9.9
v -2.5 7.1 9.8
v -2.5 7.1 9.7
v -2.5 7.2 10
v -2.5 7.2 9.9
v -2.5 7.2 9.8
v -2.5 7.2 9.7
v -2.5 7.3 9.9
v -2.5 7.3 9.8
v -2.5 7.8 9.4
v -2.5 7.8 9.3
v -2.5 7.9 9.4
v -2.5 7.9 9.3
v -2.4 7.1 9.9
v -2.4 7.1 9.8
v -2.4 7.2 9.9
v -2.4 7.2 9.8
v -2.3 7.7 10
v -2.3 7.7 9.9
v -2.3 7.8 10.1
v -2.3 7.8 10
v -2.3 7.8 9.9
v -2.3 7.8 9.8
v -2.3 7.9 10.1
v -2.3 7.9 10
v -2.3 7.9 9.9
v -2.3 7.9 9.8
v -2.3 8 10
v -2.3 8 9.9
v -2.2 5.2 10.2
v -2.2 5.2 10.1
v -2.2 5.2 9.1
v -2.2 5.2 9
v -2.2 5.5 10.2
v -2.2 5.5 10.1
v -2.2 5.5 10
v -2.2 5.5 9.2
v -2.2 5.5 9.1
v -2.2 5.5 9
v -2.2 6.4 10.2
v -2.2 6.4 10.1
v -2.2 6.4 10
v -2.2 6.4 9.2
v -2.2 6.4 9.1
v -2.2 6.4 9
v -2.2 6.5 10.2
v -2.2 6.5 10.1
v -2.2 6.5 9.1
v -2.2 6.5 9
v -2.2 7.2 9.6
v -2.2 7.2 9.5
v -2.2 7.3 9.7
v -2.2 7.3 9.6
v -2.2 7.3 9.5
v -2.2 7.3 9.4
v -2.2 7.4 9.7
v -2.2 7.4 9.6
v -2.2 7.4 9.5
v -2.2 7.4 9.4
v -2.2 7.5 9.6
v -2.2 7.5 9.5
v -2.2 7.8 10
v -2.2 7.8 9.9
v -2.2 7.9 10
v -2.2 7.9 9.9
v -2.1 5.1 10.3
v -2.1 5.1 10.2
v -2.1 5.1 9
v -2.1 5.1 8.9
v -2.1 5.2 10.3
v -2.1 5.2 10.2
v -2.1 5.2 9
v -2.1 5.2 8.9
v -2.1 6.5 10.3
v -2.1 6.5 10.2
v -2.1 6.5 9
v -2.1 6.5 8.9
v -2.1 6.6 10.4
v -2.1 6.6 10.3
v -2.1 6.6 10.2
v -2.1 6.6 10
v -2.1 6.6 9.8
v -2.1 6.6 9.4
v -2.1 6.6 9.2
v -2.1 6.6 9
v -2.1 6.6 8.9
v -2.1 6.6 8.8
v -2.1 6.7 10
v -2.1 6.7 9.8
v -2.1 6.7 9.4
v -2.1 6.7 9.2
v -2.1 6.9 10.4
v -2.1 6.9 10.3
v -2.1 6.9 8.9
v -2.1 6.9 8.8
v -2.1 7.3 9.6
v -2.1 7.3 9.5
v -2.1 7.4 9.6
v -2.1 7.4 9.5
v -2 5.1 10.2
v -2 5.1 10.1
v -2 5.1 9.1
v -2 5.1 9
v -2 5.2 10.2
v -2 5.2 10.1
v -2 5.2 10
v -2 5.2 9.2
v -2 5.2 9.1
v -2 5.2 9
v -2 5.5 10.1
v -2 5.5 10
v -2 5.5 9.8
v -2 5.5 9.4
v -2 5.5 9.3
v -2 5.5 9.2
v -2 5.5 9.1
v -2 5.9 9.8
v -2 5.9 9.4
v -2 5.9 9.3
v -2 6 9.3
v -2 6 9.2
v -2 6.2 9.8
v -2 6.3 9.3
v -2 6.3 9.2
v -2 6.4 10.1
v -2 6.4 10
v -2 6.4 9.8
v -2 6.4 9.4
v -2 6.4 9.2
v -2 6.4 9.1
v -2 6.5 10.2
v -2 6.5 10.1
v -2 6.5 10
v -2 6.5 9.2
v -2 6.5 9.1
v -2 6.5 9
v -2 6.6 10.2
v -2 6.6 10.1
v -2 6.6 9.1
v -2 6.6 9
v -1.9 5.1 10.1
v -1.9 5.1 10
v -1.9 5.1 9.2
v -1.9 5.1 9.1
v -1.9 5.2 10.1
v -1.9 5.2 10
v -1.9 5.2 9.8
v -1.9 5.2 9.4
v -1.9 5.2 9.2
v -1.9 5.2 9.1
v -1.9 5.3 9.8
v -1.9 5.5 10
v -1.9 5.5 9.8
v -1.9 5.5 9.7
v -1.9 5.5 9.6
v -1.9 5.5 9.4
v -1.9 5.5 9.2
v -1.9 5.9 9.8
v -1.9 5.9 9.7
v -1.9 6 9.7
v -1.9 6 9.6
v -1.9 6.2 9.8
v -1.9 6.2 9.7
v -1.9 6.4 10
v -1.9 6.4 9.8
v -1.9 6.4 9.4
v -1.9 6.4 9.2
v -1.9 6.5 10.1
v -1.9 6.5 10
v -1.9 6.5 9.8
v -1.9 6.5 9.4
v -1.9 6.5 9.2
v -1.9 6.5 9.1
v -1.9 6.6 10.3
v -1.9 6.6 10.2
v -1.9 6.6 10.1
v -1.9 6.6 10
v -1.9 6.6 9.2
v -1.9 6.6 9.1
v -1.9 6.6 9
v -1.9 6.6 8.9
v -1.9 6.9 10.3
v -1.9 6.9 10.2
v -1.9 6.9 9
v -1.9 6.9 8.9
v -1.9 7.9 9.5
v -1.9 7.9 9.4
v -1.9 8 9.6
v -1.9 8 9.5
v -1.9 8 9.4
v -1.9 8 9.3
v -1.9 8.1 9.6
v -1.9 8.1 9.5
v -1.9 8.1 9.4
v -1.9 8.1 9.3
v -1.9 8.2 9.5
v -1.9 8.2 9.4
v -1.8 5.1 10
v -1.8 5.1 9.9
v -1.8 5.1 9.3
v -1.8 5.1 9.2
v -1.8 5.2 10
v -1.8 5.2 9.9
v -1.8 5.2 9.8
v -1.8 5.2 9.7
v -1.8 5.2 9.6
v -1.8 5.2 9.4
v -1.8 5.2 9.3
v -1.8 5.2 9.2
v -1.8 5.3 9.8
v -1.8 5.3 9.7
v -1.8 5.4 9.7
v -1.8 5.4 9.6
v -1.8 5.5 9.8
v -1.8 5.5 9.7
v -1.8 5.5 9.4
v -1.8 6.4 9.8
v -1.8 6.4 9.4
v -1.8 6.5 10
v -1.8 6.5 9.9
v -1.8 6.5 9.8
v -1.8 6.5 9.4
v -1.8 6.5 9.3
v -1.8 6.5 9.2
v -1.8 6.6 10.2
v -1.8 6.6 10.1
v -1.8 6.6 10
v -1.8 6.6 9.9
v -1.8 6.6 9.3
v -1.8 6.6 9.2
v -1.8 6.6 9.1
v -1.8 6.6 9
v -1.8 6.9 10.2
v -1.8 6.9 10.1
v -1.8 6.9 9.1
v -1.8 6.9 9
v -1.8 8 9.5
v -1.8 8 9.4
v -1.8 8.1 9.5
v -1.8 8.1 9.4
v -1.7 5.1 9.9
v -1.7 5.1 9.8
v -1.7 5.1 9.7
v -1.7 5.1 9.3
v -1.7 5.2 9.9
v -1.7 5.2 9.8
v -1.7 5.2 9.7
v -1.7 5.2 9.3
v -1.7 6.5 9.9
v -1.7 6.5 9.4
v -1.7 6.5 9.3
v -1.7 6.6 10.1
v -1.7 6.6 9.9
v -1.7 6.6 9.5
v -1.7 6.6 9.4
v -1.7 6.6 9.3
v -1.7 6.6 9.1
v -1.7 6.9 10.1
v -1.7 6.9 9.9
v -1.7 6.9 9.3
v -1.7 6.9 9.1
v -1.6 6.6 9.9
v -1.6 6.6 9.5
v -1.6 6.6 9.3
v -1.6 6.7 9.5
v -1.6 6.7 9.4
v -1.6 6.8 9.5
v -1.6 6.8 9.4
v -1.6 6.9 9.9
v -1.6 6.9 9.5
v -1.6 6.9 9.3
v -2.7 6.6 10.4
v -2.7 6.9 10.4
v -2.5 6.6 10.4
v -2.5 6.9 10.4
v -2.4 6.6 10.4
v -2.4 6.9 10.4
v -2.1 6.6 10.4
v -2.1 6.9 10.4
v -2.9 6.6 10.3
v -2.9 6.9 10.3
v -2.7 5.1 10.3
v -2.7 5.2 10.3
v -2.7 6.5 10.3
v -2.7 6.6 10.3
v -2.7 6.9 10.3
v -2.6 5.1 10.3
v -2.6 5.2 10.3
v -2.5 6.5 10.3
v -2.5 6.6 10.3
v -2.4 6.5 10.3
v -2.4 6.6 10.3
v -2.1 5.1 10.3
v -2.1 5.2 10.3
v -2.1 6.5 10.3
v -2.1 6.6 10.3
v -2.1 6.9 10.3
v -1.9 6.6 10.3
v -1.9 6.9 10.3
v -3 6.6 10.2
v -3 6.9 10.2
v -2.9 6.6 10.2
v -2.9 6.9 10.2
v -2.8 5.1 10.2
v -2.8 5.2 10.2
v -2.8 6.5 10.2
v -2.8 6.6 10.2
v -2.7 5.1 10.2
v -2.7 5.2 10.2
v -2.7 6.5 10.2
v -2.7 6.6 10.2
v -2.6 5.2 10.2
v -2.6 5.3 10.2
v -2.6 5.5 10.2
v -2.6 6.4 10.2
v -2.6 6.5 10.2
v -2.5 5.3 10.2
v -2.5 5.5 10.2
v -2.5 6.4 10.2
v -2.5 6.5 10.2
v -2.4 6.5 10.2
v -2.3 6.4 10.2
v -2.3 6.5 10.2
v -2.2 5.2 10.2
v -2.2 5.5 10.2
v -2.2 6.4 10.2
v -2.2 6.5 10.2
v -2.1 5.1 10.2
v -2.1 5.2 10.2
v -2.1 6.5 10.2
v -2.1 6.6 10.2
v -2 5.1 10.2
v -2 5.2 10.2
v -2 6.5 10.2
v -2 6.6 10.2
v -1.9 6.6 10.2
v -1.9 6.9 10.2
v -1.8 6.6 10.2
v -1.8 6.9 10.2
v -3.1 6.6 10.1
v -3.1 6.9 10.1
v -3 6.6 10.1
v -3 6.9 10.1
v -2.9 5.1 10.1
v -2.9 5.2 10.1
v -2.9 6.5 10.1
v -2.9 6.6 10.1
v -2.8 5.1 10.1
v -2.8 5.2 10.1
v -2.8 5.5 10.1
v -2.8 6.4 10.1
v -2.8 6.5 10.1
v -2.8 6.6 10.1
v -2.7 5.2 10.1
v -2.7 5.4 10.1
v -2.6 5.2 10.1
v -2.6 5.3 10.1
v -2.6 5.4 10.1
v -2.6 5.5 10.1
v -2.6 5.6 10.1
v -2.6 6.4 10.1
v -2.6 6.5 10.1
v -2.5 5.5 10.1
v -2.5 5.6 10.1
v -2.5 6.1 10.1
v -2.5 6.4 10.1
v -2.4 5.5 10.1
v -2.4 6.1 10.1
v -2.4 6.3 10.1
v -2.4 6.4 10.1
v -2.4 7.8 10.1
v -2.4 7.9 10.1
v -2.3 6.3 10.1
v -2.3 6.4 10.1
v -2.3 7.8 10.1
v -2.3 7.9 10.1
v -2.2 5.2 10.1
v -2.2 5.5 10.1
v -2.2 6.4 10.1
v -2.2 6.5 10.1
v -2 5.1 10.1
v -2 5.2 10.1
v -2 5.5 10.1
v -2 6.4 10.1
v -2 6.5 10.1
v -2 6.6 10.1
v -1.9 5.1 10.1
v -1.9 5.2 10.1
v -1.9 6.5 10.1
v -1.9 6.6 10.1
v -1.8 6.6 10.1
v -1.8 6.9 10.1
v -1.7 6.6 10.1
v -1.7 6.9 10.1
v -3 5.1 10
v -3 5.2 10
v -3 6.5 10
v -3 6.6 10
v -2.9 5.1 10
v -2.9 5.2 10
v -2.9 5.5 10
v -2.9 6.4 10
v -2.9 6.5 10
v -2.9 6.6 10
v -2.8 5.2 10
v -2.8 5.5 10
v -2.8 6.4 10
v -2.8 6.5 10
v -2.8 6.6 10
v -2.8 6.7 10
v -2.6 5.5 10
v -2.6 5.6 10
v -2.6 6.4 10
v -2.6 6.6 10
v -2.6 6.7 10
v -2.6 7.1 10
v -2.6 7.2 10
v -2.5 7.1 10
v -2.5 7.2 10
v -2.5 7.8 10
v -2.5 7.9 10
v -2.4 7.7 10
v -2.4 7.8 10
v -2.4 7.9 10
v -2.4 8 10
v -2.3 6.6 10
v -2.3 6.7 10
v -2.3 7.7 10
v -2.3 7.8 10
v -2.3 7.9 10
v -2.3 8 10
v -2.2 5.5 10
v -2.2 6.4 10
v -2.2 7.8 10
v -2.2 7.9 10
v -2.1 6.6 10
v -2.1 6.7 10
v -2 5.2 10
v -2 5.5 10
v -2 6.4 10
v -2 6.5 10
v -1.9 5.1 10
v -1.9 5.2 10
v -1.9 5.5 10
v -1.9 6.4 10
v -1.9 6.5 10
v -1.9 6.6 10
v -1.8 5.1 10
v -1.8 5.2 10
v -1.8 6.5 10
v -1.8 6.6 10
v -3.2 6.6 9.9
v -3.2 6.7 9.9
v -3.2 6.9 9.9
v -3.1 5.1 9.9
v -3.1 5.2 9.9
v -3.1 6.5 9.9
v -3.1 6.6 9.9
v -3.1 6.7 9.9
v -3.1 6.9 9.9
v -3 5.1 9.9
v -3 5.2 9.9
v -3 6.5 9.9
v -3 6.6 9.9
v -2.7 7.1 9.9
v -2.7 7.2 9.9
v -2.6 7 9.9
v -2.6 7.1 9.9
v -2.6 7.2 9.9
v -2.6 7.3 9.9
v -2.5 7 9.9
v -2.5 7.1 9.9
v -2.5 7.2 9.9
v -2.5 7.3 9.9
v -2.4 7.1 9.9
v -2.4 7.2 9.9
v -1.8 5.1 9.9
v -1.8 5.2 9.9
v -1.8 6.5 9.9
v -1.8 6.6 9.9
v -1.7 5.1 9.9
v -1.7 5.2 9.9
v -1.7 6.5 9.9
v -1.7 6.6 9.9
v -1.7 6.9 9.9
v -1.6 6.6 9.9
v -1.6 6.9 9.9
v -3 5.2 9.8
v -3 5.5 9.8
v -3 6.4 9.8
v -3 6.5 9.8
v -2.9 5.2 9.8
v -2.9 5.5 9.8
v -2.9 6.4 9.8
v -2.9 6.5 9.8
v -2.8 5.5 9.8
v -2.8 6.2 9.8
v -2.8 6.4 9.8
v -2 5.5 9.8
v -2 5.9 9.8
v -2 6.2 9.8
v -2 6.4 9.8
v -1.9 5.2 9.8
v -1.9 5.3 9.8
v -1.9 5.5 9.8
v -1.9 5.9 9.8
v -1.9 6.2 9.8
v -1.9 6.4 9.8
v -1.9 6.5 9.8
v -1.8 5.2 9.8
v -1.8 5.3 9.8
v -1.8 5.5 9.8
v -1.8 6.4 9.8
v -1.8 6.5 9.8
v -2.3 7.3 9.7
v -2.3 7.4 9.7
v -2.2 7.3 9.7
v -2.2 7.4 9.7
v -2.4 7.3 9.6
v -2.4 7.4 9.6
v -2.3 7.2 9.6
v -2.3 7.3 9.6
v -2.3 7.4 9.6
v -2.3 7.5 9.6
v -2.2 7.2 9.6
v -2.2 7.3 9.6
v -2.2 7.4 9.6
v -2.2 7.5 9.6
v -2.1 7.3 9.6
v -2.1 7.4 9.6
v -2 8 9.6
v -2 8.1 9.6
v -1.9 8 9.6
v -1.9 8.1 9.6
v -2.7 7.8 9.5
v -2.7 7.9 9.5
v -2.6 7.8 9.5
v -2.6 7.9 9.5
v -2.1 8 9.5
v -2.1 8.1 9.5
v -2 7.9 9.5
v -2 8 9.5
v -2 8.1 9.5
v -2 8.2 9.5
v -1.9 7.9 9.5
v -1.9 8 9.5
v -1.9 8.1 9.5
v -1.9 8.2 9.5
v -1.8 8 9.5
v -1.8 8.1 9.5
v -3 6.6 9.4
v -3 6.7 9.4
v -2.9 6.6 9.4
v -2.9 6.7 9.4
v -2.8 7.8 9.4
v -2.8 7.9 9.4
v -2.7 7.7 9.4
v -2.7 7.8 9.4
v -2.7 7.9 9.4
v -2.7 8 9.4
v -2.6 7.7 9.4
v -2.6 7.8 9.4
v -2.6 7.9 9.4
v -2.6 8 9.4
v -2.5 7.8 9.4
v -2.5 7.9 9.4
v -2.3 6.6 9.4
v -2.3 6.7 9.4
v -2.1 6.6 9.4
v -2.1 6.7 9.4
v -1.9 6.6 9.4
v -1.9 6.7 9.4
v -1.8 6.6 9.4
v -1.8 6.7 9.4
v -3.1 6.7 9.3
v -3.1 6.9 9.3
v -3 6.7 9.3
v -3 6.9 9.3
v -1.8 6.7 9.3
v -1.8 6.9 9.3
v -1.7 6.7 9.3
v -1.7 6.9 9.3
v -3 6.7 9.2
v -3 6.9 9.2
v -2.9 6.6 9.2
v -2.9 6.7 9.2
v -2.9 6.9 9.2
v -2.8 6.6 9.2
v -2.8 6.7 9.2
v -2 6.6 9.2
v -2 6.7 9.2
v -1.9 6.6 9.2
v -1.9 6.7 9.2
v -1.9 6.9 9.2
v -1.8 6.7 9.2
v -1.8 6.9 9.2
v -2.9 6.7 9.1
v -2.9 6.9 9.1
v -2.8 6.6 9.1
v -2.8 6.7 9.1
v -2.8 6.9 9.1
v -2.6 6.6 9.1
v -2.6 6.7 9.1
v -2.2 6.6 9.1
v -2.2 6.7 9.1
v -2.1 6.6 9.1
v -2 6.6 9.1
v -2 6.7 9.1
v -2 6.9 9.1
v -1.9 6.7 9.1
v -1.9 6.9 9.1
v -2.8 6.7 9
v -2.8 6.9 9
v -2.7 6.7 9
v -2.7 6.9 9
v -2.6 6.6 9
v -2.6 6.7 9
v -2.2 6.6 9
v -2.2 6.7 9
v -2.1 6.7 9
v -2.1 6.9 9
v -2 6.7 9
v -2 6.9 9
v -2.7 6.7 8.9
v -2.7 6.9 8.9
v -2.1 6.7 8.9
v -2.1 6.9 8.9
v -2.7 6.7 10.3
v -2.7 6.9 10.3
v -2.5 6.7 10.3
v -2.5 6.9 10.3
v -2.4 6.7 10.3
v -2.4 6.9 10.3
v -2.1 6.7 10.3
v -2.1 6.9 10.3
v -2.8 6.7 10.2
v -2.8 6.9 10.2
v -2.7 6.7 10.2
v -2.7 6.9 10.2
v -2.6 6.6 10.2
v -2.6 6.7 10.2
v -2.5 6.6 10.2
v -2.2 6.6 10.2
v -2.2 6.7 10.2
v -2.1 6.7 10.2
v -2.1 6.9 10.2
v -2 6.7 10.2
v -2 6.9 10.2
v -2.9 6.7 10.1
v -2.9 6.9 10.1
v -2.8 6.6 10.1
v -2.8 6.7 10.1
v -2.8 6.9 10.1
v -2.6 6.6 10.1
v -2.6 6.7 10.1
v -2.2 6.6 10.1
v -2.2 6.7 10.1
v -2 6.6 10.1
v -2 6.7 10.1
v -2 6.9 10.1
v -1.9 6.7 10.1
v -1.9 6.9 10.1
v -3 6.7 10
v -3 6.9 10
v -2.9 6.6 10
v -2.9 6.7 10
v -2.9 6.9 10
v -2.8 6.6 10
v -2.8 6.7 10
v -2 6.6 10
v -2 6.7 10
v -1.9 6.6 10
v -1.9 6.7 10
v -1.9 6.9 10
v -1.8 6.7 10
v -1.8 6.9 10
v -3.1 6.7 9.9
v -3.1 6.9 9.9
v -3 6.7 9.9
v -3 6.9 9.9
v -2.5 7.8 9.9
v -2.5 7.9 9.9
v -2.4 7.7 9.9
v -2.4 7.8 9.9
v -2.4 7.9 9.9
v -2.4 8 9.9
v -2.3 7.7 9.9
v -2.3 7.8 9.9
v -2.3 7.9 9.9
v -2.3 8 9.9
v -2.2 7.8 9.9
v -2.2 7.9 9.9
v -1.8 6.7 9.9
v -1.8 6.9 9.9
v -1.7 6.7 9.9
v -1.7 6.9 9.9
v -3 6.6 9.8
v -3 6.7 9.8
v -2.9 6.6 9.8
v -2.9 6.7 9.8
v -2.8 6.6 9.8
v -2.8 6.7 9.8
v -2.7 7.1 9.8
v -2.7 7.2 9.8
v -2.6 6.6 9.8
v -2.6 6.7 9.8
v -2.6 7 9.8
v -2.6 7.1 9.8
v -2.6 7.2 9.8
v -2.6 7.3 9.8
v -2.5 7 9.8
v -2.5 7.1 9.8
v -2.5 7.2 9.8
v -2.5 7.3 9.8
v -2.4 7.1 9.8
v -2.4 7.2 9.8
v -2.4 7.8 9.8
v -2.4 7.9 9.8
v -2.3 6.6 9.8
v -2.3 6.7 9.8
v -2.3 7.8 9.8
v -2.3 7.9 9.8
v -2.1 6.6 9.8
v -2.1 6.7 9.8
v -1.9 6.6 9.8
v -1.9 6.7 9.8
v -1.8 6.6 9.8
v -1.8 6.7 9.8
v -2.6 7.1 9.7
v -2.6 7.2 9.7
v -2.5 7.1 9.7
v -2.5 7.2 9.7
v -2.4 7.3 9.5
v -2.4 7.4 9.5
v -2.3 7.2 9.5
v -2.3 7.3 9.5
v -2.3 7.4 9.5
v -2.3 7.5 9.5
v -2.2 7.2 9.5
v -2.2 7.3 9.5
v -2.2 7.4 9.5
v -2.2 7.5 9.5
v -2.1 7.3 9.5
v -2.1 7.4 9.5
v -3 5.2 9.4
v -3 5.5 9.4
v -3 6.4 9.4
v -3 6.5 9.4
v -2.9 5.2 9.4
v -2.9 5.5 9.4
v -2.9 6.4 9.4
v -2.9 6.5 9.4
v -2.8 5.5 9.4
v -2.8 6.4 9.4
v -2.3 7.3 9.4
v -2.3 7.4 9.4
v -2.2 7.3 9.4
v -2.2 7.4 9.4
v -2.1 8 9.4
v -2.1 8.1 9.4
v -2 5.5 9.4
v -2 5.9 9.4
v -2 6.4 9.4
v -2 7.9 9.4
v -2 8 9.4
v -2 8.1 9.4
v -2 8.2 9.4
v -1.9 5.2 9.4
v -1.9 5.5 9.4
v -1.9 6.4 9.4
v -1.9 6.5 9.4
v -1.9 7.9 9.4
v -1.9 8 9.4
v -1.9 8.1 9.4
v -1.9 8.2 9.4
v -1.8 5.2 9.4
v -1.8 5.5 9.4
v -1.8 6.4 9.4
v -1.8 6.5 9.4
v -1.8 8 9.4
v -1.8 8.1 9.4
v -3.2 6.6 9.3
v -3.2 6.9 9.3
v -3.1 5.1 9.3
v -3.1 5.2 9.3
v -3.1 6.5 9.3
v -3.1 6.6 9.3
v -3.1 6.9 9.3
v -3 5.1 9.3
v -3 5.2 9.3
v -3 6.5 9.3
v -3 6.6 9.3
v -2.8 7.8 9.3
v -2.8 7.9 9.3
v -2.7 7.7 9.3
v -2.7 7.8 9.3
v -2.7 7.9 9.3
v -2.7 8 9.3
v -2.6 7.7 9.3
v -2.6 7.8 9.3
v -2.6 7.9 9.3
v -2.6 8 9.3
v -2.5 7.8 9.3
v -2.5 7.9 9.3
v -2 8 9.3
v -2 8.1 9.3
v -1.9 8 9.3
v -1.9 8.1 9.3
v -1.8 5.1 9.3
v -1.8 5.2 9.3
v -1.8 6.5 9.3
v -1.8 6.6 9.3
v -1.7 5.1 9.3
v -1.7 5.2 9.3
v -1.7 6.5 9.3
v -1.7 6.6 9.3
v -1.7 6.9 9.3
v -1.6 6.6 9.3
v -1.6 6.9 9.3
v -3 5.1 9.2
v -3 5.2 9.2
v -3 6.5 9.2
v -3 6.6 9.2
v -2.9 5.1 9.2
v -2.9 5.2 9.2
v -2.9 5.5 9.2
v -2.9 6.4 9.2
v -2.9 6.5 9.2
v -2.9 6.6 9.2
v -2.8 5.2 9.2
v -2.8 5.5 9.2
v -2.8 6.4 9.2
v -2.8 6.5 9.2
v -2.7 7.8 9.2
v -2.7 7.9 9.2
v -2.6 5.5 9.2
v -2.6 6.4 9.2
v -2.6 7.8 9.2
v -2.6 7.9 9.2
v -2.3 6.6 9.2
v -2.3 6.7 9.2
v -2.2 5.5 9.2
v -2.2 6.4 9.2
v -2.1 5.5 9.2
v -2.1 6 9.2
v -2.1 6.3 9.2
v -2.1 6.4 9.2
v -2.1 6.6 9.2
v -2.1 6.7 9.2
v -2 5.2 9.2
v -2 5.5 9.2
v -2 6 9.2
v -2 6.3 9.2
v -2 6.4 9.2
v -2 6.5 9.2
v -1.9 5.1 9.2
v -1.9 5.2 9.2
v -1.9 5.5 9.2
v -1.9 6.4 9.2
v -1.9 6.5 9.2
v -1.9 6.6 9.2
v -1.8 5.1 9.2
v -1.8 5.2 9.2
v -1.8 6.5 9.2
v -1.8 6.6 9.2
v -3.1 6.6 9.1
v -3.1 6.9 9.1
v -3 6.6 9.1
v -3 6.9 9.1
v -2.9 5.1 9.1
v -2.9 5.2 9.1
v -2.9 6.5 9.1
v -2.9 6.6 9.1
v -2.8 5.1 9.1
v -2.8 5.2 9.1
v -2.8 5.5 9.1
v -2.8 6.4 9.1
v -2.8 6.5 9.1
v -2.8 6.6 9.1
v -2.7 6.5 9.1
v -2.6 5.2 9.1
v -2.6 5.5 9.1
v -2.6 6.4 9.1
v -2.6 6.5 9.1
v -2.5 5.9 9.1
v -2.5 6.2 9.1
v -2.4 5.5 9.1
v -2.4 5.9 9.1
v -2.4 6 9.1
v -2.4 6.2 9.1
v -2.3 5.5 9.1
v -2.3 6 9.1
v -2.2 5.2 9.1
v -2.2 5.5 9.1
v -2.2 6.4 9.1
v -2.2 6.5 9.1
v -2 5.1 9.1
v -2 5.2 9.1
v -2 5.5 9.1
v -2 6.4 9.1
v -2 6.5 9.1
v -2 6.6 9.1
v -1.9 5.1 9.1
v -1.9 5.2 9.1
v -1.9 6.5 9.1
v -1.9 6.6 9.1
v -1.8 6.6 9.1
v -1.8 6.9 9.1
v -1.7 6.6 9.1
v -1.7 6.9 9.1
v -3 6.6 9
v -3 6.9 9
v -2.9 6.6 9
v -2.9 6.9 9
v -2.8 5.1 9
v -2.8 5.2 9
v -2.8 6.5 9
v -2.8 6.6 9
v -2.7 5.1 9
v -2.7 5.2 9
v -2.7 6.5 9
v -2.7 6.6 9
v -2.6 5.2 9
v -2.6 5.5 9
v -2.6 6.4 9
v -2.6 6.5 9
v -2.4 5.2 9
v -2.4 5.5 9
v -2.3 5.2 9
v -2.3 5.5 9
v -2.2 5.2 9
v -2.2 5.5 9
v -2.2 6.4 9
v -2.2 6.5 9
v -2.1 5.1 9
v -2.1 5.2 9
v -2.1 6.5 9
v -2.1 6.6 9
v -2 5.1 9
v -2 5.2 9
v -2 6.5 9
v -2 6.6 9
v -1.9 6.6 9
v -1.9 6.9 9
v -1.8 6.6 9
v -1.8 6.9 9
v -2.9 6.6 8.9
v -2.9 6.9 8.9
v -2.8 6.6 8.9
v -2.8 6.9 8.9
v -2.7 5.1 8.9
v -2.7 5.2 8.9
v -2.7 6.5 8.9
v -2.7 6.6 8.9
v -2.7 6.9 8.9
v -2.4 5.1 8.9
v -2.4 5.2 8.9
v -2.3 5.1 8.9
v -2.3 5.2 8.9
v -2.1 5.1 8.9
v -2.1 5.2 8.9
v -2.1 6.5 8.9
v -2.1 6.6 8.9
v -2.1 6.9 8.9
v -1.9 6.6 8.9
v -1.9 6.9 8.9
v -2.7 6.6 8.8
v -2.7 6.9 8.8
v -2.1 6.6 8.8
v -2.1 6.9 8.8
v -2.7 5.1 10.3
v -2.6 5.1 10.3
v -2.1 5.1 10.3
v -2.8 5.1 10.2
v -2.7 5.1 10.2
v -2.6 5.1 10.2
v -2.2 5.1 10.2
v -2.1 5.1 10.2
v -2 5.1 10.2
v -2.9 5.1 10.1
v -2.8 5.1 10.1
v -2.6 5.1 10.1
v -2.2 5.1 10.1
v -2 5.1 10.1
v -1.9 5.1 10.1
v -3 5.1 10
v -2.9 5.1 10
v -2.8 5.1 10
v -2 5.1 10
v -1.9 5.1 10
v -1.8 5.1 10
v -3.1 5.1 9.9
v -3 5.1 9.9
v -1.8 5.1 9.9
v -1.7 5.1 9.9
v -3 5.1 9.8
v -2.9 5.1 9.8
v -1.9 5.1 9.8
v -1.7 5.1 9.8
v -1.8 5.1 9.7
v -1.7 5.1 9.7
v -3.1 5.1 9.4
v -3 5.1 9.4
v -2.9 5.1 9.4
v -1.9 5.1 9.4
v -1.8 5.1 9.4
v -3.1 5.1 9.3
v -3 5.1 9.3
v -1.8 5.1 9.3
v -1.7 5.1 9.3
v -3 5.1 9.2
v -2.9 5.1 9.2
v -2.8 5.1 9.2
v -1.9 5.1 9.2
v -1.8 5.1 9.2
v -2.9 5.1 9.1
v -2.8 5.1 9.1
v -2.6 5.1 9.1
v -2.2 5.1 9.1
v -2 5.1 9.1
v -1.9 5.1 9.1
v -2.8 5.1 9
v -2.7 5.1 9
v -2.6 5.1 9
v -2.4 5.1 9
v -2.3 5.1 9
v -2.2 5.1 9
v -2.1 5.1 9
v -2 5.1 9
v -2.7 5.1 8.9
v -2.4 5.1 8.9
v -2.3 5.1 8.9
v -2.1 5.1 8.9
v -2.6 6.4 10.2
v -2.5 6.4 10.2
v -2.3 6.4 10.2
v -2.2 6.4 10.2
v -2.8 6.4 10.1
v -2.6 6.4 10.1
v -2.5 6.4 10.1
v -2.4 6.4 10.1
v -2.3 6.4 10.1
v -2.2 6.4 10.1
v -2 6.4 10.1
v -2.9 6.4 10
v -2.8 6.4 10
v -2.6 6.4 10
v -2.2 6.4 10
v -2 6.4 10
v -1.9 6.4 10
v -2.9 6.4 9.9
v -2.8 6.4 9.9
v -3 6.4 9.8
v -2.9 6.4 9.8
v -2.8 6.4 9.8
v -2 6.4 9.8
v -1.9 6.4 9.8
v -1.8 6.4 9.8
v -3 6.4 9.5
v -2.9 6.4 9.5
v -3 6.4 9.4
v -2.9 6.4 9.4
v -2.8 6.4 9.4
v -2 6.4 9.4
v -1.9 6.4 9.4
v -1.8 6.4 9.4
v -2.9 6.4 9.3
v -2.8 6.4 9.3
v -2.9 6.4 9.2
v -2.8 6.4 9.2
v -2.6 6.4 9.2
v -2.2 6.4 9.2
v -2.1 6.4 9.2
v -2 6.4 9.2
v -1.9 6.4 9.2
v -2.8 6.4 9.1
v -2.6 6.4 9.1
v -2.2 6.4 9.1
v -2 6.4 9.1
v -2.6 6.4 9
v -2.2 6.4 9
v -2.7 6.5 10.3
v -2.5 6.5 10.3
v -2.4 6.5 10.3
v -2.1 6.5 10.3
v -2.8 6.5 10.2
v -2.7 6.5 10.2
v -2.6 6.5 10.2
v -2.5 6.5 10.2
v -2.4 6.5 10.2
v -2.3 6.5 10.2
v -2.2 6.5 10.2
v -2.1 6.5 10.2
v -2 6.5 10.2
v -2.9 6.5 10.1
v -2.8 6.5 10.1
v -2.6 6.5 10.1
v -2.2 6.5 10.1
v -2 6.5 10.1
v -1.9 6.5 10.1
v -3 6.5 10
v -2.9 6.5 10
v -2.8 6.5 10
v -2 6.5 10
v -1.9 6.5 10
v -1.8 6.5 10
v -3.1 6.5 9.9
v -3 6.5 9.9
v -2.9 6.5 9.9
v -1.8 6.5 9.9
v -1.7 6.5 9.9
v -3.1 6.5 9.8
v -3 6.5 9.8
v -2.9 6.5 9.8
v -1.9 6.5 9.8
v -1.8 6.5 9.8
v -3 6.5 9.5
v -3 6.5 9.4
v -2.9 6.5 9.4
v -1.9 6.5 9.4
v -1.8 6.5 9.4
v -1.7 6.5 9.4
v -3.1 6.5 9.3
v -3 6.5 9.3
v -2.9 6.5 9.3
v -1.8 6.5 9.3
v -1.7 6.5 9.3
v -3 6.5 9.2
v -2.9 6.5 9.2
v -2.8 6.5 9.2
v -2 6.5 9.2
v -1.9 6.5 9.2
v -1.8 6.5 9.2
v -2.9 6.5 9.1
v -2.8 6.5 9.1
v -2.7 6.5 9.1
v -2.6 6.5 9.1
v -2.2 6.5 9.1
v -2 6.5 9.1
v -1.9 6.5 9.1
v -2.8 6.5 9
v -2.7 6.5 9
v -2.6 6.5 9
v -2.2 6.5 9
v -2.1 6.5 9
v -2 6.5 9
v -2.7 6.5 8.9
v -2.1 6.5 8.9
v -2.7 6.6 10.4
v -2.5 6.6 10.4
v -2.4 6.6 10.4
v -2.1 6.6 10.4
v -2.9 6.6 10.3
v -2.7 6.6 10.3
v -2.5 6.6 10.3
v -2.4 6.6 10.3
v -2.1 6.6 10.3
v -1.9 6.6 10.3
v -3 6.6 10.2
v -2.9 6.6 10.2
v -2.8 6.6 10.2
v -2.7 6.6 10.2
v -2.1 6.6 10.2
v -2 6.6 10.2
v -1.9 6.6 10.2
v -1.8 6.6 10.2
v -3.1 6.6 10.1
v -3 6.6 10.1
v -2.9 6.6 10.1
v -2.8 6.6 10.1
v -2 6.6 10.1
v -1.9 6.6 10.1
v -1.8 6.6 10.1
v -1.7 6.6 10.1
v -3 6.6 10
v -2.9 6.6 10
v -1.9 6.6 10
v -1.8 6.6 10
v -3.2 6.6 9.9
v -3.1 6.6 9.9
v -3 6.6 9.9
v -1.8 6.6 9.9
v -1.7 6.6 9.9
v -1.6 6.6 9.9
v -3.1 6.6 9.8
v -3.2 6.6 9.7
v -3.1 6.6 9.7
v -1.7 6.6 9.5
v -1.6 6.6 9.5
v -1.7 6.6 9.4
v -3.2 6.6 9.3
v -3.1 6.6 9.3
v -3 6.6 9.3
v -1.8 6.6 9.3
v -1.7 6.6 9.3
v -1.6 6.6 9.3
v -3 6.6 9.2
v -2.9 6.6 9.2
v -1.9 6.6 9.2
v -1.8 6.6 9.2
v -3.1 6.6 9.1
v -3 6.6 9.1
v -2.9 6.6 9.1
v -2.8 6.6 9.1
v -2 6.6 9.1
v -1.9 6.6 9.1
v -1.8 6.6 9.1
v -1.7 6.6 9.1
v -3 6.6 9
v -2.9 6.6 9
v -2.8 6.6 9
v -2.7 6.6 9
v -2.1 6.6 9
v -2 6.6 9
v -1.9 6.6 9
v -1.8 6.6 9
v -2.9 6.6 8.9
v -2.8 6.6 8.9
v -2.7 6.6 8.9
v -2.1 6.6 8.9
v -1.9 6.6 8.9
v -2.7 6.6 8.8
v -2.1 6.6 8.8
v -2.6 7 9.9
v -2.5 7 9.9
v -2.6 7 9.8
v -2.5 7 9.8
v -2.6 7.1 10
v -2.5 7.1 10
v -2.7 7.1 9.9
v -2.6 7.1 9.9
v -2.5 7.1 9.9
v -2.4 7.1 9.9
v -2.7 7.1 9.8
v -2.6 7.1 9.8
v -2.5 7.1 9.8
v -2.4 7.1 9.8
v -2.6 7.1 9.7
v -2.5 7.1 9.7
v -2.3 7.2 9.6
v -2.2 7.2 9.6
v -2.3 7.2 9.5
v -2.2 7.2 9.5
v -2.3 7.3 9.7
v -2.2 7.3 9.7
v -2.4 7.3 9.6
v -2.3 7.3 9.6
v -2.2 7.3 9.6
v -2.1 7.3 9.6
v -2.4 7.3 9.5
v -2.3 7.3 9.5
v -2.2 7.3 9.5
v -2.1 7.3 9.5
v -2.3 7.3 9.4
v -2.2 7.3 9.4
v -2.4 7.7 10
v -2.3 7.7 10
v -2.4 7.7 9.9
v -2.3 7.7 9.9
v -2.7 7.7 9.4
v -2.6 7.7 9.4
v -2.7 7.7 9.3
v -2.6 7.7 9.3
v -2.4 7.8 10.1
v -2.3 7.8 10.1
v -2.5 7.8 10
v -2.4 7.8 10
v -2.3 7.8 10
v -2.2 7.8 10
v -2.5 7.8 9.9
v -2.4 7.8 9.9
v -2.3 7.8 9.9
v -2.2 7.8 9.9
v -2.4 7.8 9.8
v -2.3 7.8 9.8
v -2.7 7.8 9.5
v -2.6 7.8 9.5
v -2.8 7.8 9.4
v -2.7 7.8 9.4
v -2.6 7.8 9.4
v -2.5 7.8 9.4
v -2.8 7.8 9.3
v -2.7 7.8 9.3
v -2.6 7.8 9.3
v -2.5 7.8 9.3
v -2.7 7.8 9.2
v -2.6 7.8 9.2
v -2 7.9 9.5
v -1.9 7.9 9.5
v -2 7.9 9.4
v -1.9 7.9 9.4
v -2 8 9.6
v -1.9 8 9.6
v -2.1 8 9.5
v -2 8 9.5
v -1.9 8 9.5
v -1.8 8 9.5
v -2.1 8 9.4
v -2 8 9.4
v -1.9 8 9.4
v -1.8 8 9.4
v -2 8 9.3
v -1.9 8 9.3
v -2.7 5.2 10.3
v -2.6 5.2 10.3
v -2.1 5.2 10.3
v -2.8 5.2 10.2
v -2.7 5.2 10.2
v -2.6 5.2 10.2
v -2.2 5.2 10.2
v -2.1 5.2 10.2
v -2 5.2 10.2
v -2.9 5.2 10.1
v -2.8 5.2 10.1
v -2.7 5.2 10.1
v -2.6 5.2 10.1
v -2.2 5.2 10.1
v -2 5.2 10.1
v -1.9 5.2 10.1
v -3 5.2 10
v -2.9 5.2 10
v -2.8 5.2 10
v -2 5.2 10
v -1.9 5.2 10
v -1.8 5.2 10
v -3.1 5.2 9.9
v -3 5.2 9.9
v -1.8 5.2 9.9
v -1.7 5.2 9.9
v -3 5.2 9.8
v -2.9 5.2 9.8
v -1.9 5.2 9.8
v -1.8 5.2 9.8
v -1.7 5.2 9.8
v -1.8 5.2 9.7
v -1.7 5.2 9.7
v -1.8 5.2 9.6
v -3.1 5.2 9.4
v -3 5.2 9.4
v -2.9 5.2 9.4
v -1.9 5.2 9.4
v -1.8 5.2 9.4
v -3.1 5.2 9.3
v -3 5.2 9.3
v -2.9 5.2 9.3
v -1.8 5.2 9.3
v -1.7 5.2 9.3
v -3 5.2 9.2
v -2.9 5.2 9.2
v -2.8 5.2 9.2
v -2 5.2 9.2
v -1.9 5.2 9.2
v -1.8 5.2 9.2
v -2.9 5.2 9.1
v -2.8 5.2 9.1
v -2.6 5.2 9.1
v -2.2 5.2 9.1
v -2 5.2 9.1
v -1.9 5.2 9.1
v -2.8 5.2 9
v -2.7 5.2 9
v -2.6 5.2 9
v -2.4 5.2 9
v -2.3 5.2 9
v -2.2 5.2 9
v -2.1 5.2 9
v -2 5.2 9
v -2.7 5.2 8.9
v -2.4 5.2 8.9
v -2.3 5.2 8.9
v -2.1 5.2 8.9
v -2.6 5.5 10.2
v -2.5 5.5 10.2
v -2.2 5.5 10.2
v -2.8 5.5 10.1
v -2.6 5.5 10.1
v -2.5 5.5 10.1
v -2.4 5.5 10.1
v -2.2 5.5 10.1
v -2 5.5 10.1
v -2.9 5.5 10
v -2.8 5.5 10
v -2.6 5.5 10
v -2.2 5.5 10
v -2 5.5 10
v -1.9 5.5 10
v -3 5.5 9.8
v -2.9 5.5 9.8
v -2.8 5.5 9.8
v -2 5.5 9.8
v -1.9 5.5 9.8
v -1.8 5.5 9.8
v -1.9 5.5 9.7
v -1.8 5.5 9.7
v -1.9 5.5 9.6
v -2.9 5.5 9.5
v -3 5.5 9.4
v -2.9 5.5 9.4
v -2.8 5.5 9.4
v -2 5.5 9.4
v -1.9 5.5 9.4
v -1.8 5.5 9.4
v -2.9 5.5 9.3
v -2.8 5.5 9.3
v -2 5.5 9.3
v -2.9 5.5 9.2
v -2.8 5.5 9.2
v -2.6 5.5 9.2
v -2.2 5.5 9.2
v -2.1 5.5 9.2
v -2 5.5 9.2
v -1.9 5.5 9.2
v -2.8 5.5 9.1
v -2.6 5.5 9.1
v -2.4 5.5 9.1
v -2.3 5.5 9.1
v -2.2 5.5 9.1
v -2 5.5 9.1
v -2.6 5.5 9
v -2.4 5.5 9
v -2.3 5.5 9
v -2.2 5.5 9
v -2.6 6.6 10.2
v -2.5 6.6 10.2
v -2.2 6.6 10.2
v -2.8 6.6 10.1
v -2.6 6.6 10.1
v -2.5 6.6 10.1
v -2.4 6.6 10.1
v -2.3 6.6 10.1
v -2.2 6.6 10.1
v -2 6.6 10.1
v -2.9 6.6 10
v -2.8 6.6 10
v -2.6 6.6 10
v -2.5 6.6 10
v -2.4 6.6 10
v -2.3 6.6 10
v -2.1 6.6 10
v -2 6.6 10
v -1.9 6.6 10
v -2.5 6.6 9.9
v -2.3 6.6 9.9
v -3 6.6 9.8
v -2.9 6.6 9.8
v -2.8 6.6 9.8
v -2.6 6.6 9.8
v -2.3 6.6 9.8
v -2.1 6.6 9.8
v -2 6.6 9.8
v -1.9 6.6 9.8
v -1.8 6.6 9.8
v -2.9 6.6 9.7
v -2.7 6.6 9.7
v -2.6 6.6 9.7
v -2.5 6.6 9.7
v -2.2 6.6 9.7
v -2 6.6 9.7
v -1.9 6.6 9.7
v -2.6 6.6 9.6
v -2.5 6.6 9.6
v -2.3 6.6 9.6
v -2.2 6.6 9.6
v -2.9 6.6 9.5
v -2.7 6.6 9.5
v -3 6.6 9.4
v -2.9 6.6 9.4
v -2.8 6.6 9.4
v -2.7 6.6 9.4
v -2.6 6.6 9.4
v -2.4 6.6 9.4
v -2.3 6.6 9.4
v -2.1 6.6 9.4
v -2 6.6 9.4
v -1.9 6.6 9.4
v -1.8 6.6 9.4
v -2.8 6.6 9.3
v -2.7 6.6 9.3
v -2.9 6.6 9.2
v -2.8 6.6 9.2
v -2.6 6.6 9.2
v -2.4 6.6 9.2
v -2.3 6.6 9.2
v -2.1 6.6 9.2
v -2 6.6 9.2
v -1.9 6.6 9.2
v -2.8 6.6 9.1
v -2.6 6.6 9.1
v -2.2 6.6 9.1
v -2.1 6.6 9.1
v -2 6.6 9.1
v -2.6 6.6 9
v -2.2 6.6 9
v -2.7 6.7 10.3
v -2.5 6.7 10.3
v -2.4 6.7 10.3
v -2.1 6.7 10.3
v -2.8 6.7 10.2
v -2.7 6.7 10.2
v -2.6 6.7 10.2
v -2.2 6.7 10.2
v -2.1 6.7 10.2
v -2 6.7 10.2
v -2.9 6.7 10.1
v -2.8 6.7 10.1
v -2.6 6.7 10.1
v -2.2 6.7 10.1
v -2 6.7 10.1
v -1.9 6.7 10.1
v -3 6.7 10
v -2.9 6.7 10
v -2.8 6.7 10
v -2.6 6.7 10
v -2.3 6.7 10
v -2.1 6.7 10
v -2 6.7 10
v -1.9 6.7 10
v -1.8 6.7 10
v -3.1 6.7 9.9
v -3 6.7 9.9
v -1.8 6.7 9.9
v -1.7 6.7 9.9
v -3.1 6.7 9.8
v -3 6.7 9.8
v -2.9 6.7 9.8
v -2.8 6.7 9.8
v -2.6 6.7 9.8
v -2.3 6.7 9.8
v -2.1 6.7 9.8
v -1.9 6.7 9.8
v -1.8 6.7 9.8
v -3.1 6.7 9.7
v -3 6.7 9.4
v -2.9 6.7 9.4
v -2.3 6.7 9.4
v -2.1 6.7 9.4
v -1.9 6.7 9.4
v -1.8 6.7 9.4
v -1.7 6.7 9.4
v -3.1 6.7 9.3
v -3 6.7 9.3
v -1.8 6.7 9.3
v -1.7 6.7 9.3
v -3 6.7 9.2
v -2.9 6.7 9.2
v -2.8 6.7 9.2
v -2.3 6.7 9.2
v -2.1 6.7 9.2
v -2 6.7 9.2
v -1.9 6.7 9.2
v -1.8 6.7 9.2
v -2.9 6.7 9.1
v -2.8 6.7 9.1
v -2.6 6.7 9.1
v -2.2 6.7 9.1
v -2 6.7 9.1
v -1.9 6.7 9.1
v -2.8 6.7 9
v -2.7 6.7 9
v -2.6 6.7 9
v -2.2 6.7 9
v -2.1 6.7 9
v -2 6.7 9
v -2.7 6.7 8.9
v -2.1 6.7 8.9
v -2.7 6.9 10.4
v -2.5 6.9 10.4
v -2.4 6.9 10.4
v -2.1 6.9 10.4
v -2.9 6.9 10.3
v -2.7 6.9 10.3
v -2.5 6.9 10.3
v -2.4 6.9 10.3
v -2.1 6.9 10.3
v -1.9 6.9 10.3
v -3 6.9 10.2
v -2.9 6.9 10.2
v -2.8 6.9 10.2
v -2.7 6.9 10.2
v -2.1 6.9 10.2
v -2 6.9 10.2
v -1.9 6.9 10.2
v -1.8 6.9 10.2
v -3.1 6.9 10.1
v -3 6.9 10.1
v -2.9 6.9 10.1
v -2.8 6.9 10.1
v -2 6.9 10.1
v -1.9 6.9 10.1
v -1.8 6.9 10.1
v -1.7 6.9 10.1
v -3 6.9 10
v -2.9 6.9 10
v -1.9 6.9 10
v -1.8 6.9 10
v -3.2 6.9 9.9
v -3.1 6.9 9.9
v -3 6.9 9.9
v -1.8 6.9 9.9
v -1.7 6.9 9.9
v -1.6 6.9 9.9
v -1.7 6.9 9.5
v -1.6 6.9 9.5
v -3.2 6.9 9.3
v -3.1 6.9 9.3
v -3 6.9 9.3
v -1.8 6.9 9.3
v -1.7 6.9 9.3
v -1.6 6.9 9.3
v -3 6.9 9.2
v -2.9 6.9 9.2
v -1.9 6.9 9.2
v -1.8 6.9 9.2
v -3.1 6.9 9.1
v -3 6.9 9.1
v -2.9 6.9 9.1
v -2.8 6.9 9.1
v -2 6.9 9.1
v -1.9 6.9 9.1
v -1.8 6.9 9.1
v -1.7 6.9 9.1
v -3 6.9 9
v -2.9 6.9 9
v -2.8 6.9 9
v -2.7 6.9 9
v -2.1 6.9 9
v -2 6.9 9
v -1.9 6.9 9
v -1.8 6.9 9
v -2.9 6.9 8.9
v -2.8 6.9 8.9
v -2.7 6.9 8.9
v -2.1 6.9 8.9
v -1.9 6.9 8.9
v -2.7 6.9 8.8
v -2.1 6.9 8.8
v -2.6 7.2 10
v -2.5 7.2 10
v -2.7 7.2 9.9
v -2.6 7.2 9.9
v -2.5 7.2 9.9
v -2.4 7.2 9.9
v -2.7 7.2 9.8
v -2.6 7.2 9.8
v -2.5 7.2 9.8
v -2.4 7.2 9.8
v -2.6 7.2 9.7
v -2.5 7.2 9.7
v -2.6 7.3 9.9
v -2.5 7.3 9.9
v -2.6 7.3 9.8
v -2.5 7.3 9.8
v -2.3 7.4 9.7
v -2.2 7.4 9.7
v -2.4 7.4 9.6
v -2.3 7.4 9.6
v -2.2 7.4 9.6
v -2.1 7.4 9.6
v -2.4 7.4 9.5
v -2.3 7.4 9.5
v -2.2 7.4 9.5
v -2.1 7.4 9.5
v -2.3 7.4 9.4
v -2.2 7.4 9.4
v -2.3 7.5 9.6
v -2.2 7.5 9.6
v -2.3 7.5 9.5
v -2.2 7.5 9.5
v -2.4 7.9 10.1
v -2.3 7.9 10.1
v -2.5 7.9 10
v -2.4 7.9 10
v -2.3 7.9 10
v -2.2 7.9 10
v -2.5 7.9 9.9
v -2.4 7.9 9.9
v -2.3 7.9 9.9
v -2.2 7.9 9.9
v -2.4 7.9 9.8
v -2.3 7.9 9.8
v -2.7 7.9 9.5
v -2.6 7.9 9.5
v -2.8 7.9 9.4
v -2.7 7.9 9.4
v -2.6 7.9 9.4
v -2.5 7.9 9.4
v -2.8 7.9 9.3
v -2.7 7.9 9.3
v -2.6 7.9 9.3
v -2.5 7.9 9.3
v -2.7 7.9 9.2
v -2.6 7.9 9.2
v -2.4 8 10
v -2.3 8 10
v -2.4 8 9.9
v -2.3 8 9.9
v -2.7 8 9.4
v -2.6 8 9.4
v -2.7 8 9.3
v -2.6 8 9.3
v -2 8.1 9.6
v -1.9 8.1 9.6
v -2.1 8.1 9.5
v -2 8.1 9.5
v -1.9 8.1 9.5
v -1.8 8.1 9.5
v -2.1 8.1 9.4
v -2 8.1 9.4
v -1.9 8.1 9.4
v -1.8 8.1 9.4
v -2 8.1 9.3
v -1.9 8.1 9.3
v -2 8.2 9.5
v -1.9 8.2 9.5
v -2 8.2 9.4
v -1.9 8.2 9.4

# faces
f 4/6/1 2/6/1 1/6/1
f 5/6/1 2/6/1 4/6/1
f 6/5/1 5/5/1 4/5/1
f 6/6/1 2/6/1 5/6/1
f 7/5/1 3/5/1 2/5/1
f 7/6/1 2/6/1 6/6/1
f 8/5/1 6/5/1 4/5/1
f 8/5/1 7/5/1 6/5/1
f 9/5/1 3/5/1 7/5/1
f 9/5/1 7/5/1 8/5/1
f 13/5/1 11/5/1 10/5/1
f 14/6/1 12/6/1 11/6/1
f 14/5/1 11/5/1 13/5/1
f 15/6/1 12/6/1 14/6/1
f 20/6/1 17/6/1 16/6/1
f 21/5/1 18/5/1 17/5/1
f 21/6/1 17/6/1 20/6/1
f 22/5/1 18/5/1 21/5/1
f 23/5/1 18/5/1 22/5/1
f 25/5/1 20/5/1 19/5/1
f 26/5/1 25/5/1 19/5/1
f 27/5/1 25/5/1 26/5/1
f 28/5/1 24/5/1 23/5/1
f 29/5/1 24/5/1 28/5/1
f 34/5/1 31/5/1 30/5/1
f 35/5/1 31/5/1 34/5/1
f 38/5/1 33/5/1 32/5/1
f 39/5/1 33/5/1 38/5/1
f 40/5/1 37/5/1 36/5/1
f 41/5/1 37/5/1 40/5/1
f 47/5/1 43/5/1 42/5/1
f 48/6/1 44/6/1 43/6/1
f 48/5/1 43/5/1 47/5/1
f 49/6/1 44/6/1 48/6/1
f 54/5/1 46/5/1 45/5/1
f 55/5/1 46/5/1 54/5/1
f 56/6/1 51/6/1 50/6/1
f 57/6/1 51/6/1 56/6/1
f 60/5/1 53/5/1 52/5/1
f 61/5/1 53/5/1 60/5/1
f 62/5/1 59/5/1 58/5/1
f 63/5/1 59/5/1 62/5/1
f 68/5/1 65/5/1 64/5/1
f 69/5/1 65/5/1 68/5/1
f 73/5/1 67/5/1 66/5/1
f 74/5/1 67/5/1 73/5/1
f 75/5/1 70/5/1 69/5/1
f 76/5/1 70/5/1 75/5/1
f 78/6/1 72/6/1 71/6/1
f 79/5/1 73/5/1 72/5/1
f 79/6/1 72/6/1 78/6/1
f 80/5/1 73/5/1 79/5/1
f 83/5/1 77/5/1 76/5/1
f 84/6/1 78/6/1 77/6/1
f 84/5/1 77/5/1 83/5/1
f 85/6/1 78/6/1 84/6/1
f 89/5/1 82/5/1 81/5/1
f 90/6/1 83/6/1 82/6/1
f 90/5/1 82/5/1 89/5/1
f 91/6/1 83/6/1 90/6/1
f 92/6/1 86/6/1 85/6/1
f 93/5/1 87/5/1 86/5/1
f 93/6/1 86/6/1 92/6/1
f 94/5/1 87/5/1 93/5/1
f 98/5/1 89/5/1 88/5/1
f 99/5/1 89/5/1 98/5/1
f 100/5/1 95/5/1 94/5/1
f 101/5/1 95/5/1 100/5/1
f 104/5/1 97/5/1 96/5/1
f 105/5/1 97/5/1 104/5/1
f 106/5/1 103/5/1 102/5/1
f 107/5/1 103/5/1 106/5/1
f 112/5/1 109/5/1 108/5/1
f 113/5/1 109/5/1 112/5/1
f 116/5/1 111/5/1 110/5/1
f 117/5/1 111/5/1 116/5/1
f 118/5/1 114/5/1 113/5/1
f 119/5/1 114/5/1 118/5/1
f 123/5/1 116/5/1 115/5/1
f 124/5/1 116/5/1 123/5/1
f 125/5/1 120/5/1 119/5/1
f 126/5/1 120/5/1 125/5/1
f 128/5/1 125/5/1 119/5/1
f 129/6/1 126/6/1 125/6/1
f 129/5/1 125/5/1 128/5/1
f 130/6/1 126/6/1 129/6/1
f 131/5/1 122/5/1 121/5/1
f 131/5/1 123/5/1 122/5/1
f 132/5/1 123/5/1 131/5/1
f 133/5/1 123/5/1 132/5/1
f 136/5/1 128/5/1 127/5/1
f 137/5/1 128/5/1 136/5/1
f 138/5/1 134/5/1 133/5/1
f 139/5/1 134/5/1 138/5/1
f 141/5/1 136/5/1 135/5/1
f 142/5/1 136/5/1 141/5/1
f 145/6/1 140/6/1 139/6/1
f 146/6/1 140/6/1 145/6/1
f 147/3/1 144/3/1 143/3/1
f 148/3/1 144/3/1 147/3/1
f 151/4/1 150/4/1 149/4/1
f 152/4/1 150/4/1 151/4/1
f 157/6/1 154/6/1 153/6/1
f 158/6/1 154/6/1 157/6/1
f 159/5/1 156/5/1 155/5/1
f 160/5/1 156/5/1 159/5/1
f 166/5/1 162/5/1 161/5/1
f 167/5/1 162/5/1 166/5/1
f 168/5/1 164/5/1 163/5/1
f 169/5/1 164/5/1 168/5/1
f 171/5/1 166/5/1 165/5/1
f 172/5/1 166/5/1 171/5/1
f 173/5/1 170/5/1 169/5/1
f 174/5/1 170/5/1 173/5/1
f 177/4/1 176/4/1 175/4/1
f 178/4/1 176/4/1 177/4/1
f 182/4/1 180/4/1 179/4/1
f 183/4/1 180/4/1 182/4/1
f 185/4/1 182/4/1 181/4/1
f 186/4/1 182/4/1 185/4/1
f 187/4/1 184/4/1 183/4/1
f 188/4/1 184/4/1 187/4/1
f 189/4/1 187/4/1 186/4/1
f 190/4/1 187/4/1 189/4/1
f 195/5/1 192/5/1 191/5/1
f 196/5/1 192/5/1 195/5/1
f 197/6/1 196/6/1 195/6/1
f 198/6/1 197/6/1 195/6/1
f 199/6/1 197/6/1 198/6/1
f 202/5/1 194/5/1 193/5/1
f 203/5/1 194/5/1 202/5/1
f 204/6/1 200/6/1 199/6/1
f 205/6/1 200/6/1 204/6/1
f 207/5/1 205/5/1 204/5/1
f 208/5/1 205/5/1 207/5/1
f 209/5/1 202/5/1 201/5/1
f 210/5/1 202/5/1 209/5/1
f 212/5/1 207/5/1 206/5/1
f 213/5/1 207/5/1 212/5/1
f 214/5/1 211/5/1 210/5/1
f 215/5/1 211/5/1 214/5/1
f 219/4/1 217/4/1 216/4/1
f 220/4/1 217/4/1 219/4/1
f 222/4/1 219/4/1 218/4/1
f 223/4/1 219/4/1 222/4/1
f 224/4/1 221/4/1 220/4/1
f 225/4/1 221/4/1 224/4/1
f 226/4/1 224/4/1 223/4/1
f 227/4/1 224/4/1 226/4/1
f 230/4/1 229/4/1 228/4/1
f 231/4/1 229/4/1 230/4/1
f 234/4/1 233/4/1 232/4/1
f 235/4/1 233/4/1 234/4/1
f 239/4/1 237/4/1 236/4/1
f 240/4/1 237/4/1 239/4/1
f 242/4/1 239/4/1 238/4/1
f 243/4/1 239/4/1 242/4/1
f 244/4/1 241/4/1 240/4/1
f 245/4/1 241/4/1 244/4/1
f 246/4/1 244/4/1 243/4/1
f 247/4/1 244/4/1 246/4/1
f 253/3/1 249/3/1 248/3/1
f 253/3/1 250/3/1 249/3/1
f 254/3/1 250/3/1 253/3/1
f 255/3/1 252/3/1 251/3/1
f 256/3/1 252/3/1 255/3/1
f 260/4/1 258/4/1 257/4/1
f 261/4/1 258/4/1 260/4/1
f 263/4/1 260/4/1 259/4/1
f 264/4/1 260/4/1 263/4/1
f 265/4/1 262/4/1 261/4/1
f 266/4/1 262/4/1 265/4/1
f 267/4/1 265/4/1 264/4/1
f 268/4/1 265/4/1 267/4/1
f 273/5/1 270/5/1 269/5/1
f 274/5/1 270/5/1 273/5/1
f 275/5/1 272/5/1 271/5/1
f 276/5/1 272/5/1 275/5/1
f 281/5/1 278/5/1 277/5/1
f 282/5/1 278/5/1 281/5/1
f 283/5/1 280/5/1 279/5/1
f 284/5/1 280/5/1 283/5/1
f 287/4/1 286/4/1 285/4/1
f 288/4/1 286/4/1 287/4/1
f 294/5/1 290/5/1 289/5/1
f 295/5/1 290/5/1 294/5/1
f 296/5/1 292/5/1 291/5/1
f 297/5/1 292/5/1 296/5/1
f 299/5/1 294/5/1 293/5/1
f 300/5/1 294/5/1 299/5/1
f 301/5/1 298/5/1 297/5/1
f 302/5/1 298/5/1 301/5/1
f 306/4/1 304/4/1 303/4/1
f 307/4/1 304/4/1 306/4/1
f 309/4/1 306/4/1 305/4/1
f 310/4/1 306/4/1 309/4/1
f 311/4/1 308/4/1 307/4/1
f 312/4/1 308/4/1 311/4/1
f 313/4/1 311/4/1 310/4/1
f 314/4/1 311/4/1 313/4/1
f 320/5/1 316/5/1 315/5/1
f 321/5/1 316/5/1 320/5/1
f 322/5/1 318/5/1 317/5/1
f 323/5/1 318/5/1 322/5/1
f 325/5/1 320/5/1 319/5/1
f 326/5/1 320/5/1 325/5/1
f 327/5/1 324/5/1 323/5/1
f 328/5/1 324/5/1 327/5/1
f 333/5/1 330/5/1 329/5/1
f 334/5/1 330/5/1 333/5/1
f 337/5/1 332/5/1 331/5/1
f 338/5/1 332/5/1 337/5/1
f 339/5/1 336/5/1 335/5/1
f 340/5/1 336/5/1 339/5/1
f 344/5/1 342/5/1 341/5/1
f 345/6/1 343/6/1 342/6/1
f 345/5/1 342/5/1 344/5/1
f 346/5/1 344/5/1 341/5/1
f 347/6/1 345/6/1 344/6/1
f 347/5/1 344/5/1 346/5/1
f 348/6/1 343/6/1 345/6/1
f 348/6/1 345/6/1 347/6/1
f 349/5/2 350/5/2 353/5/2
f 350/6/2 351/6/2 353/6/2
f 351/5/2 352/5/2 354/5/2
f 353/6/2 351/6/2 354/6/2
f 349/5/2 353/5/2 355/5/2
f 353/5/2 354/5/2 355/5/2
f 354/5/2 352/5/2 356/5/2
f 355/5/2 354/5/2 356/5/2
f 357/5/2 358/5/2 361/5/2
f 361/5/2 358/5/2 362/5/2
f 359/5/2 360/5/2 365/5/2
f 365/5/2 360/5/2 366/5/2
f 363/5/2 364/5/2 367/5/2
f 367/5/2 364/5/2 368/5/2
f 369/5/2 370/5/2 374/5/2
f 374/5/2 370/5/2 375/5/2
f 371/5/2 372/5/2 376/5/2
f 376/5/2 372/5/2 377/5/2
f 373/5/2 374/5/2 379/5/2
f 379/5/2 374/5/2 380/5/2
f 377/5/2 378/5/2 381/5/2
f 381/5/2 378/5/2 382/5/2
f 383/5/2 384/5/2 388/5/2
f 388/5/2 384/5/2 389/5/2
f 385/5/2 386/5/2 390/5/2
f 390/5/2 386/5/2 391/5/2
f 387/5/2 388/5/2 393/5/2
f 393/5/2 388/5/2 394/5/2
f 391/5/2 392/5/2 395/5/2
f 395/5/2 392/5/2 396/5/2
f 397/5/2 398/5/2 401/5/2
f 401/5/2 398/5/2 402/5/2
f 399/6/2 400/6/2 403/6/2
f 403/6/2 400/6/2 404/6/2
f 405/5/2 406/5/2 411/5/2
f 411/5/2 406/5/2 412/5/2
f 407/3/2 408/3/2 413/3/2
f 413/3/2 408/3/2 414/3/2
f 409/5/2 410/5/2 415/5/2
f 415/5/2 410/5/2 416/5/2
f 417/4/2 418/4/2 420/4/2
f 420/4/2 418/4/2 421/4/2
f 419/4/2 420/4/2 423/4/2
f 423/4/2 420/4/2 424/4/2
f 421/4/2 422/4/2 425/4/2
f 425/4/2 422/4/2 426/4/2
f 424/4/2 425/4/2 427/4/2
f 427/4/2 425/4/2 428/4/2
f 429/4/2 430/4/2 432/4/2
f 432/4/2 430/4/2 433/4/2
f 431/4/2 432/4/2 435/4/2
f 435/4/2 432/4/2 436/4/2
f 433/4/2 434/4/2 437/4/2
f 437/4/2 434/4/2 438/4/2
f 436/4/2 437/4/2 439/4/2
f 439/4/2 437/4/2 440/4/2
f 441/4/2 442/4/2 443/4/2
f 443/4/2 442/4/2 444/4/2
f 445/4/2 446/4/2 447/4/2
f 447/4/2 446/4/2 448/4/2
f 449/4/2 450/4/2 452/4/2
f 452/4/2 450/4/2 453/4/2
f 451/4/2 452/4/2 455/4/2
f 455/4/2 452/4/2 456/4/2
f 453/4/2 454/4/2 457/4/2
f 457/4/2 454/4/2 458/4/2
f 456/4/2 457/4/2 459/4/2
f 459/4/2 457/4/2 460/4/2
f 461/5/2 462/5/2 465/5/2
f 465/5/2 462/5/2 466/5/2
f 463/5/2 464/5/2 469/5/2
f 469/5/2 464/5/2 470/5/2
f 466/5/2 467/5/2 472/5/2
f 472/5/2 467/5/2 473/5/2
f 468/5/2 469/5/2 474/5/2
f 474/5/2 469/5/2 475/5/2
f 471/5/2 472/5/2 477/5/2
f 477/5/2 472/5/2 478/5/2
f 475/5/2 476/5/2 479/5/2
f 479/5/2 476/5/2 480/5/2
f 481/4/2 482/4/2 484/4/2
f 484/4/2 482/4/2 485/4/2
f 483/4/2 484/4/2 487/4/2
f 487/4/2 484/4/2 488/4/2
f 485/4/2 486/4/2 489/4/2
f 489/4/2 486/4/2 490/4/2
f 488/4/2 489/4/2 491/4/2
f 491/4/2 489/4/2 492/4/2
f 493/4/2 494/4/2 495/4/2
f 495/4/2 494/4/2 496/4/2
f 497/5/2 498/5/2 501/5/2
f 501/5/2 498/5/2 502/5/2
f 499/5/2 500/5/2 503/5/2
f 503/5/2 500/5/2 504/5/2
f 505/5/2 506/5/2 510/5/2
f 510/5/2 506/5/2 511/5/2
f 507/5/2 508/5/2 516/5/2
f 516/5/2 508/5/2 517/5/2
f 512/3/2 513/3/2 519/3/2
f 519/3/2 513/3/2 520/3/2
f 514/3/2 515/3/2 521/3/2
f 521/3/2 515/3/2 522/3/2
f 509/5/2 510/5/2 523/5/2
f 523/5/2 510/5/2 524/5/2
f 517/5/2 518/5/2 525/5/2
f 525/5/2 518/5/2 526/5/2
f 527/4/2 528/4/2 529/4/2
f 529/4/2 528/4/2 530/4/2
f 531/5/2 532/5/2 535/5/2
f 535/5/2 532/5/2 536/5/2
f 533/5/2 534/5/2 539/5/2
f 539/5/2 534/5/2 540/5/2
f 536/5/2 537/5/2 541/5/2
f 541/5/2 537/5/2 542/5/2
f 538/5/2 539/5/2 546/5/2
f 546/5/2 539/5/2 547/5/2
f 542/5/2 543/5/2 548/5/2
f 544/5/2 545/5/2 549/5/2
f 545/6/2 546/6/2 550/6/2
f 549/5/2 545/5/2 550/5/2
f 549/6/2 550/6/2 551/6/2
f 550/6/2 546/6/2 551/6/2
f 551/6/2 546/6/2 552/6/2
f 542/5/2 548/5/2 553/5/2
f 549/6/2 551/6/2 554/6/2
f 551/5/2 552/5/2 554/5/2
f 554/5/2 552/5/2 555/5/2
f 542/5/2 553/5/2 557/5/2
f 557/5/2 553/5/2 558/5/2
f 549/6/2 554/6/2 559/6/2
f 554/6/2 555/6/2 559/6/2
f 559/6/2 555/6/2 560/6/2
f 556/5/2 557/5/2 563/5/2
f 563/5/2 557/5/2 564/5/2
f 560/5/2 561/5/2 565/5/2
f 565/5/2 561/5/2 566/5/2
f 562/5/2 563/5/2 568/5/2
f 568/5/2 563/5/2 569/5/2
f 566/5/2 567/5/2 570/5/2
f 570/5/2 567/5/2 571/5/2
f 572/5/2 573/5/2 576/5/2
f 576/5/2 573/5/2 577/5/2
f 574/6/2 575/6/2 580/6/2
f 580/6/2 575/6/2 581/6/2
f 577/5/2 578/5/2 582/5/2
f 577/5/2 582/5/2 583/5/2
f 583/5/2 582/5/2 584/5/2
f 579/5/2 580/5/2 587/5/2
f 587/5/2 580/5/2 588/5/2
f 584/5/2 585/5/2 589/5/2
f 585/6/2 586/6/2 590/6/2
f 589/5/2 585/5/2 590/5/2
f 589/6/2 590/6/2 591/6/2
f 590/6/2 586/6/2 591/6/2
f 586/5/2 587/5/2 592/5/2
f 591/6/2 586/6/2 592/6/2
f 589/6/2 591/6/2 593/6/2
f 591/5/2 592/5/2 594/5/2
f 593/6/2 591/6/2 594/6/2
f 593/5/2 594/5/2 596/5/2
f 592/5/2 587/5/2 597/5/2
f 594/5/2 592/5/2 597/5/2
f 596/5/2 594/5/2 597/5/2
f 595/5/2 596/5/2 600/5/2
f 600/5/2 596/5/2 601/5/2
f 597/5/2 598/5/2 602/5/2
f 602/5/2 598/5/2 603/5/2
f 599/5/2 600/5/2 607/5/2
f 607/5/2 600/5/2 608/5/2
f 603/5/2 604/5/2 609/5/2
f 609/5/2 604/5/2 610/5/2
f 605/5/2 606/5/2 613/5/2
f 613/5/2 606/5/2 614/5/2
f 611/5/2 612/5/2 615/5/2
f 615/5/2 612/5/2 616/5/2
f 617/4/2 618/4/2 620/4/2
f 620/4/2 618/4/2 621/4/2
f 619/4/2 620/4/2 623/4/2
f 623/4/2 620/4/2 624/4/2
f 621/4/2 622/4/2 625/4/2
f 625/4/2 622/4/2 626/4/2
f 624/4/2 625/4/2 627/4/2
f 627/4/2 625/4/2 628/4/2
f 629/5/2 630/5/2 633/5/2
f 633/5/2 630/5/2 634/5/2
f 631/5/2 632/5/2 639/5/2
f 639/5/2 632/5/2 640/5/2
f 635/5/2 636/5/2 641/5/2
f 636/6/2 637/6/2 642/6/2
f 641/5/2 636/5/2 642/5/2
f 641/6/2 642/6/2 643/6/2
f 642/6/2 637/6/2 643/6/2
f 637/5/2 638/5/2 644/5/2
f 643/6/2 637/6/2 644/6/2
f 641/6/2 643/6/2 645/6/2
f 643/5/2 644/5/2 646/5/2
f 645/6/2 643/6/2 646/6/2
f 644/5/2 638/5/2 647/5/2
f 646/5/2 644/5/2 647/5/2
f 648/5/2 649/5/2 652/5/2
f 652/5/2 649/5/2 653/5/2
f 650/5/2 651/5/2 658/5/2
f 658/5/2 651/5/2 659/5/2
f 654/5/2 655/5/2 660/5/2
f 660/5/2 655/5/2 661/5/2
f 656/5/2 657/5/2 664/5/2
f 664/5/2 657/5/2 665/5/2
f 662/5/2 663/5/2 666/5/2
f 666/5/2 663/5/2 667/5/2
f 668/4/2 669/4/2 670/4/2
f 670/4/2 669/4/2 671/4/2
f 672/5/2 673/5/2 676/5/2
f 673/6/2 674/6/2 677/6/2
f 676/5/2 673/5/2 677/5/2
f 674/5/2 675/5/2 678/5/2
f 677/6/2 674/6/2 678/6/2
f 678/5/2 675/5/2 679/5/2
f 680/5/2 681/5/2 684/5/2
f 684/5/2 681/5/2 685/5/2
f 681/6/2 682/6/2 686/6/2
f 685/5/2 681/5/2 686/5/2
f 686/6/2 682/6/2 687/6/2
f 683/5/2 684/5/2 689/5/2
f 689/5/2 684/5/2 690/5/2
f 687/5/2 688/5/2 691/5/2
f 691/5/2 688/5/2 692/5/2
f 693/5/2 694/5/2 696/5/2
f 694/6/2 695/6/2 696/6/2
f 696/6/2 695/6/2 697/6/2
f 693/5/2 696/5/2 698/5/2
f 696/5/2 697/5/2 698/5/2
f 697/6/2 695/6/2 699/6/2
f 698/5/2 697/5/2 699/5/2
f 693/5/2 698/5/2 700/5/2
f 698/6/2 699/6/2 701/6/2
f 700/5/2 698/5/2 701/5/2
f 699/6/2 695/6/2 702/6/2
f 701/6/2 699/6/2 702/6/2
f 705/5/3 704/5/3 703/5/3
f 706/5/3 704/5/3 705/5/3
f 707/6/3 706/6/3 705/6/3
f 708/6/3 706/6/3 707/6/3
f 709/5/3 708/5/3 707/5/3
f 710/5/3 708/5/3 709/5/3
f 716/5/3 712/5/3 711/5/3
f 717/5/3 712/5/3 716/5/3
f 718/6/3 714/6/3 713/6/3
f 719/6/3 714/6/3 718/6/3
f 720/5/3 716/5/3 715/5/3
f 721/5/3 716/5/3 720/5/3
f 722/6/3 721/6/3 720/6/3
f 723/6/3 721/6/3 722/6/3
f 724/5/3 719/5/3 718/5/3
f 725/5/3 719/5/3 724/5/3
f 726/5/3 723/5/3 722/5/3
f 727/5/3 723/5/3 726/5/3
f 729/5/3 728/5/3 727/5/3
f 730/5/3 728/5/3 729/5/3
f 733/5/3 732/5/3 731/5/3
f 734/5/3 732/5/3 733/5/3
f 739/5/3 736/5/3 735/5/3
f 740/5/3 736/5/3 739/5/3
f 741/5/3 738/5/3 737/5/3
f 742/5/3 738/5/3 741/5/3
f 748/5/3 744/5/3 743/5/3
f 748/6/3 745/6/3 744/6/3
f 749/6/3 745/6/3 748/6/3
f 750/5/3 747/5/3 746/5/3
f 751/5/3 747/5/3 750/5/3
f 752/6/3 751/6/3 750/6/3
f 753/6/3 752/6/3 750/6/3
f 754/6/3 752/6/3 753/6/3
f 755/5/3 749/5/3 748/5/3
f 755/5/3 748/5/3 743/5/3
f 756/5/3 749/5/3 755/5/3
f 757/5/3 754/5/3 753/5/3
f 758/5/3 754/5/3 757/5/3
f 763/5/3 760/5/3 759/5/3
f 764/5/3 760/5/3 763/5/3
f 765/5/3 762/5/3 761/5/3
f 766/5/3 762/5/3 765/5/3
f 769/5/3 768/5/3 767/5/3
f 770/5/3 768/5/3 769/5/3
f 773/5/3 772/5/3 771/5/3
f 774/5/3 772/5/3 773/5/3
f 779/5/3 776/5/3 775/5/3
f 780/5/3 776/5/3 779/5/3
f 783/5/3 778/5/3 777/5/3
f 784/5/3 778/5/3 783/5/3
f 785/5/3 781/5/3 780/5/3
f 786/5/3 781/5/3 785/5/3
f 787/6/3 786/6/3 785/6/3
f 788/6/3 786/6/3 787/6/3
f 789/5/3 781/5/3 786/5/3
f 789/6/3 786/6/3 788/6/3
f 790/5/3 781/5/3 789/5/3
f 792/5/3 783/5/3 782/5/3
f 793/5/3 783/5/3 792/5/3
f 794/6/3 791/6/3 790/6/3
f 795/5/3 792/5/3 791/5/3
f 795/6/3 791/6/3 794/6/3
f 796/5/3 792/5/3 795/5/3
f 797/5/3 792/5/3 796/5/3
f 798/6/3 795/6/3 794/6/3
f 798/6/3 796/6/3 795/6/3
f 799/5/3 797/5/3 796/5/3
f 799/6/3 796/6/3 798/6/3
f 800/5/3 797/5/3 799/5/3
f 801/5/3 797/5/3 800/5/3
f 804/6/3 801/6/3 800/6/3
f 804/5/3 800/5/3 799/5/3
f 804/5/3 799/5/3 798/5/3
f 805/6/3 801/6/3 804/6/3
f 806/4/3 803/4/3 802/4/3
f 807/4/3 803/4/3 806/4/3
f 809/5/3 805/5/3 804/5/3
f 809/5/3 804/5/3 798/5/3
f 810/5/3 805/5/3 809/5/3
f 813/5/3 809/5/3 808/5/3
f 814/5/3 809/5/3 813/5/3
f 815/5/3 811/5/3 810/5/3
f 816/5/3 811/5/3 815/5/3
f 818/5/3 813/5/3 812/5/3
f 819/5/3 813/5/3 818/5/3
f 820/5/3 817/5/3 816/5/3
f 821/5/3 817/5/3 820/5/3
f 824/5/3 823/5/3 822/5/3
f 825/5/3 823/5/3 824/5/3
f 830/5/3 827/5/3 826/5/3
f 831/5/3 827/5/3 830/5/3
f 834/5/3 829/5/3 828/5/3
f 835/5/3 829/5/3 834/5/3
f 836/5/3 832/5/3 831/5/3
f 837/5/3 832/5/3 836/5/3
f 838/5/3 834/5/3 833/5/3
f 839/5/3 834/5/3 838/5/3
f 842/5/3 838/5/3 837/5/3
f 843/5/3 838/5/3 842/5/3
f 844/5/3 838/5/3 843/5/3
f 845/3/3 841/3/3 840/3/3
f 846/3/3 841/3/3 845/3/3
f 849/4/3 848/4/3 847/4/3
f 850/4/3 848/4/3 849/4/3
f 854/4/3 852/4/3 851/4/3
f 855/4/3 852/4/3 854/4/3
f 859/4/3 854/4/3 853/4/3
f 860/4/3 854/4/3 859/4/3
f 861/4/3 856/4/3 855/4/3
f 862/4/3 856/4/3 861/4/3
f 865/4/3 861/4/3 860/4/3
f 866/4/3 861/4/3 865/4/3
f 867/3/3 858/3/3 857/3/3
f 868/3/3 858/3/3 867/3/3
f 870/5/3 864/5/3 863/5/3
f 871/5/3 864/5/3 870/5/3
f 874/5/3 870/5/3 869/5/3
f 875/5/3 870/5/3 874/5/3
f 876/5/3 872/5/3 871/5/3
f 877/5/3 872/5/3 876/5/3
f 879/5/3 874/5/3 873/5/3
f 880/5/3 874/5/3 879/5/3
f 881/5/3 878/5/3 877/5/3
f 882/5/3 878/5/3 881/5/3
f 889/6/3 884/6/3 883/6/3
f 890/5/3 885/5/3 884/5/3
f 890/6/3 884/6/3 889/6/3
f 891/5/3 885/5/3 890/5/3
f 892/5/3 887/5/3 886/5/3
f 893/5/3 887/5/3 892/5/3
f 894/6/3 889/6/3 888/6/3
f 895/6/3 889/6/3 894/6/3
f 899/4/3 897/4/3 896/4/3
f 900/4/3 897/4/3 899/4/3
f 902/4/3 899/4/3 898/4/3
f 903/4/3 899/4/3 902/4/3
f 904/4/3 901/4/3 900/4/3
f 905/4/3 901/4/3 904/4/3
f 906/4/3 904/4/3 903/4/3
f 907/4/3 904/4/3 906/4/3
f 912/5/3 909/5/3 908/5/3
f 913/5/3 909/5/3 912/5/3
f 914/5/3 911/5/3 910/5/3
f 915/5/3 911/5/3 914/5/3
f 917/5/3 916/5/3 915/5/3
f 918/5/3 916/5/3 917/5/3
f 923/5/3 920/5/3 919/5/3
f 924/5/3 920/5/3 923/5/3
f 925/5/3 922/5/3 921/5/3
f 926/5/3 922/5/3 925/5/3
f 927/5/3 925/5/3 924/5/3
f 928/5/3 925/5/3 927/5/3
f 929/5/3 925/5/3 928/5/3
f 936/5/3 931/5/3 930/5/3
f 937/6/3 932/6/3 931/6/3
f 937/5/3 931/5/3 936/5/3
f 938/5/3 933/5/3 932/5/3
f 938/6/3 932/6/3 937/6/3
f 939/5/3 933/5/3 938/5/3
f 941/5/3 935/5/3 934/5/3
f 942/6/3 936/6/3 935/6/3
f 942/5/3 935/5/3 941/5/3
f 943/6/3 936/6/3 942/6/3
f 944/5/3 940/5/3 939/5/3
f 945/5/3 940/5/3 944/5/3
f 948/4/3 947/4/3 946/4/3
f 949/4/3 947/4/3 948/4/3
f 953/4/3 951/4/3 950/4/3
f 954/4/3 951/4/3 953/4/3
f 956/4/3 953/4/3 952/4/3
f 957/4/3 953/4/3 956/4/3
f 958/4/3 955/4/3 954/4/3
f 959/4/3 955/4/3 958/4/3
f 960/4/3 958/4/3 957/4/3
f 961/4/3 958/4/3 960/4/3
f 964/4/3 963/4/3 962/4/3
f 965/4/3 963/4/3 964/4/3
f 968/4/3 967/4/3 966/4/3
f 969/4/3 967/4/3 968/4/3
f 973/4/3 971/4/3 970/4/3
f 974/4/3 971/4/3 973/4/3
f 976/4/3 973/4/3 972/4/3
f 977/4/3 973/4/3 976/4/3
f 978/4/3 975/4/3 974/4/3
f 979/4/3 975/4/3 978/4/3
f 980/4/3 978/4/3 977/4/3
f 981/4/3 978/4/3 980/4/3
f 984/5/3 983/5/3 982/5/3
f 985/5/3 983/5/3 984/5/3
f 989/4/3 987/4/3 986/4/3
f 990/4/3 987/4/3 989/4/3
f 992/4/3 989/4/3 988/4/3
f 993/4/3 989/4/3 992/4/3
f 994/4/3 991/4/3 990/4/3
f 995/4/3 991/4/3 994/4/3
f 996/4/3 994/4/3 993/4/3
f 997/4/3 994/4/3 996/4/3
f 1000/3/3 999/3/3 998/3/3
f 1001/3/3 999/3/3 1000/3/3
f 1004/5/3 1003/5/3 1002/5/3
f 1005/5/3 1003/5/3 1004/5/3
f 1008/5/3 1007/5/3 1006/5/3
f 1009/5/3 1007/5/3 1008/5/3
f 1012/5/3 1011/5/3 1010/5/3
f 1013/5/3 1011/5/3 1012/5/3
f 1017/5/3 1015/5/3 1014/5/3
f 1018/5/3 1015/5/3 1017/5/3
f 1019/5/3 1017/5/3 1016/5/3
f 1020/5/3 1017/5/3 1019/5/3
f 1023/5/3 1022/5/3 1021/5/3
f 1024/5/3 1022/5/3 1023/5/3
f 1026/5/3 1025/5/3 1024/5/3
f 1027/5/3 1025/5/3 1026/5/3
f 1031/5/3 1029/5/3 1028/5/3
f 1032/5/3 1029/5/3 1031/5/3
f 1033/5/3 1031/5/3 1030/5/3
f 1034/5/3 1031/5/3 1033/5/3
f 1037/5/3 1036/5/3 1035/5/3
f 1038/5/3 1036/5/3 1037/5/3
f 1039/5/3 1036/5/3 1038/5/3
f 1041/5/3 1040/5/3 1039/5/3
f 1042/5/3 1040/5/3 1041/5/3
f 1045/6/3 1044/6/3 1043/6/3
f 1046/6/3 1044/6/3 1045/6/3
f 1049/5/3 1048/5/3 1047/5/3
f 1050/5/3 1048/5/3 1049/5/3
f 1053/5/3 1052/5/3 1051/5/3
f 1054/5/3 1052/5/3 1053/5/3
f 1057/5/3 1056/5/3 1055/5/3
f 1058/5/3 1056/5/3 1057/5/3
f 1059/5/4 1060/5/4 1061/5/4
f 1061/5/4 1060/5/4 1062/5/4
f 1061/6/4 1062/6/4 1063/6/4
f 1063/6/4 1062/6/4 1064/6/4
f 1063/5/4 1064/5/4 1065/5/4
f 1065/5/4 1064/5/4 1066/5/4
f 1067/5/4 1068/5/4 1069/5/4
f 1069/5/4 1068/5/4 1070/5/4
f 1071/5/4 1072/5/4 1073/5/4
f 1073/5/4 1072/5/4 1074/5/4
f 1074/5/4 1072/5/4 1075/5/4
f 1076/5/4 1077/5/4 1078/5/4
f 1078/5/4 1077/5/4 1079/5/4
f 1080/5/4 1081/5/4 1083/5/4
f 1083/5/4 1081/5/4 1084/5/4
f 1082/5/4 1083/5/4 1085/5/4
f 1085/5/4 1083/5/4 1086/5/4
f 1087/5/4 1088/5/4 1089/5/4
f 1089/5/4 1088/5/4 1090/5/4
f 1090/5/4 1091/5/4 1092/5/4
f 1092/5/4 1091/5/4 1093/5/4
f 1094/5/4 1095/5/4 1097/5/4
f 1097/5/4 1095/5/4 1098/5/4
f 1096/5/4 1097/5/4 1099/5/4
f 1099/5/4 1097/5/4 1100/5/4
f 1101/5/4 1102/5/4 1103/5/4
f 1103/5/4 1102/5/4 1104/5/4
f 1104/5/4 1105/5/4 1106/5/4
f 1106/5/4 1105/5/4 1107/5/4
f 1108/5/4 1109/5/4 1110/5/4
f 1110/5/4 1109/5/4 1111/5/4
f 1112/4/4 1113/4/4 1115/4/4
f 1115/4/4 1113/4/4 1116/4/4
f 1114/4/4 1115/4/4 1118/4/4
f 1118/4/4 1115/4/4 1119/4/4
f 1116/4/4 1117/4/4 1120/4/4
f 1120/4/4 1117/4/4 1121/4/4
f 1119/4/4 1120/4/4 1122/4/4
f 1122/4/4 1120/4/4 1123/4/4
f 1124/5/4 1125/5/4 1126/5/4
f 1126/5/4 1125/5/4 1127/5/4
f 1128/5/4 1129/5/4 1130/5/4
f 1130/5/4 1129/5/4 1131/5/4
f 1132/3/4 1133/3/4 1136/3/4
f 1136/3/4 1133/3/4 1137/3/4
f 1134/4/4 1135/4/4 1139/4/4
f 1139/4/4 1135/4/4 1140/4/4
f 1138/4/4 1139/4/4 1142/4/4
f 1142/4/4 1139/4/4 1143/4/4
f 1140/4/4 1141/4/4 1144/4/4
f 1144/4/4 1141/4/4 1145/4/4
f 1143/4/4 1144/4/4 1146/4/4
f 1146/4/4 1144/4/4 1147/4/4
f 1148/4/4 1149/4/4 1152/4/4
f 1152/4/4 1149/4/4 1153/4/4
f 1150/3/4 1151/3/4 1154/3/4
f 1154/3/4 1151/3/4 1155/3/4
f 1156/5/4 1157/5/4 1158/5/4
f 1158/5/4 1157/5/4 1159/5/4
f 1160/4/4 1161/4/4 1162/4/4
f 1162/4/4 1161/4/4 1163/4/4
f 1164/4/4 1165/4/4 1167/4/4
f 1167/4/4 1165/4/4 1168/4/4
f 1166/4/4 1167/4/4 1170/4/4
f 1170/4/4 1167/4/4 1171/4/4
f 1168/4/4 1169/4/4 1172/4/4
f 1172/4/4 1169/4/4 1173/4/4
f 1171/4/4 1172/4/4 1174/4/4
f 1174/4/4 1172/4/4 1175/4/4
f 1176/5/4 1177/5/4 1180/5/4
f 1180/5/4 1177/5/4 1181/5/4
f 1178/6/4 1179/6/4 1182/6/4
f 1182/6/4 1179/6/4 1183/6/4
f 1181/6/4 1182/6/4 1184/6/4
f 1184/6/4 1182/6/4 1185/6/4
f 1186/4/4 1187/4/4 1188/4/4
f 1188/4/4 1187/4/4 1189/4/4
f 1190/4/4 1191/4/4 1196/4/4
f 1196/4/4 1191/4/4 1197/4/4
f 1193/5/4 1194/5/4 1200/5/4
f 1192/5/4 1193/5/4 1200/5/4
f 1200/5/4 1194/5/4 1201/5/4
f 1195/4/4 1196/4/4 1203/4/4
f 1203/4/4 1196/4/4 1204/4/4
f 1197/4/4 1198/4/4 1205/4/4
f 1205/4/4 1198/4/4 1206/4/4
f 1199/5/4 1200/5/4 1207/5/4
f 1207/5/4 1200/5/4 1208/5/4
f 1201/5/4 1202/5/4 1209/5/4
f 1209/5/4 1202/5/4 1210/5/4
f 1204/4/4 1205/4/4 1211/4/4
f 1211/4/4 1205/4/4 1212/4/4
f 1213/5/4 1214/5/4 1218/5/4
f 1218/5/4 1214/5/4 1219/5/4
f 1215/6/4 1216/6/4 1220/6/4
f 1220/6/4 1216/6/4 1221/6/4
f 1217/5/4 1218/5/4 1222/5/4
f 1222/5/4 1218/5/4 1223/5/4
f 1224/4/4 1225/4/4 1227/4/4
f 1227/4/4 1225/4/4 1228/4/4
f 1226/4/4 1227/4/4 1230/4/4
f 1230/4/4 1227/4/4 1231/4/4
f 1228/4/4 1229/4/4 1232/4/4
f 1232/4/4 1229/4/4 1233/4/4
f 1231/4/4 1232/4/4 1234/4/4
f 1234/4/4 1232/4/4 1235/4/4
f 1236/4/4 1237/4/4 1238/4/4
f 1238/4/4 1237/4/4 1239/4/4
f 1240/5/4 1241/5/4 1244/5/4
f 1244/5/4 1241/5/4 1245/5/4
f 1242/6/4 1243/6/4 1246/6/4
f 1246/6/4 1243/6/4 1247/6/4
f 1247/6/4 1248/6/4 1249/6/4
f 1249/6/4 1248/6/4 1250/6/4
f 1251/5/4 1252/5/4 1255/5/4
f 1255/5/4 1252/5/4 1256/5/4
f 1253/6/4 1254/6/4 1259/6/4
f 1259/6/4 1254/6/4 1260/6/4
f 1256/5/4 1257/5/4 1261/5/4
f 1261/5/4 1257/5/4 1262/5/4
f 1258/5/4 1259/5/4 1263/5/4
f 1263/5/4 1259/5/4 1264/5/4
f 1262/5/4 1263/5/4 1267/5/4
f 1267/5/4 1263/5/4 1268/5/4
f 1265/4/4 1266/4/4 1269/4/4
f 1269/4/4 1266/4/4 1270/4/4
f 1273/5/4 1274/5/4 1275/5/4
f 1275/5/4 1274/5/4 1276/5/4
f 1276/5/4 1274/5/4 1277/5/4
f 1277/5/4 1274/5/4 1278/5/4
f 1271/3/4 1272/3/4 1279/3/4
f 1279/3/4 1272/3/4 1280/3/4
f 1275/6/4 1276/6/4 1282/6/4
f 1276/5/4 1277/5/4 1283/5/4
f 1282/6/4 1276/6/4 1283/6/4
f 1277/6/4 1278/6/4 1284/6/4
f 1283/5/4 1277/5/4 1284/5/4
f 1284/6/4 1278/6/4 1285/6/4
f 1281/5/4 1282/5/4 1288/5/4
f 1288/5/4 1282/5/4 1289/5/4
f 1285/5/4 1286/5/4 1290/5/4
f 1290/5/4 1286/5/4 1291/5/4
f 1287/5/4 1288/5/4 1293/5/4
f 1293/5/4 1288/5/4 1294/5/4
f 1291/5/4 1292/5/4 1295/5/4
f 1295/5/4 1292/5/4 1296/5/4
f 1297/5/4 1298/5/4 1299/5/4
f 1299/5/4 1298/5/4 1300/5/4
f 1301/5/4 1302/5/4 1305/5/4
f 1305/5/4 1302/5/4 1306/5/4
f 1303/5/4 1304/5/4 1309/5/4
f 1309/5/4 1304/5/4 1310/5/4
f 1308/5/4 1309/5/4 1311/5/4
f 1306/5/4 1307/5/4 1312/5/4
f 1312/5/4 1307/5/4 1313/5/4
f 1308/5/4 1311/5/4 1314/5/4
f 1314/5/4 1311/5/4 1315/5/4
f 1313/5/4 1314/5/4 1316/5/4
f 1316/5/4 1314/5/4 1317/5/4
f 1313/5/4 1316/5/4 1318/5/4
f 1316/6/4 1317/6/4 1319/6/4
f 1318/5/4 1316/5/4 1319/5/4
f 1319/6/4 1317/6/4 1320/6/4
f 1317/5/4 1314/5/4 1321/5/4
f 1320/6/4 1317/6/4 1321/6/4
f 1319/6/4 1320/6/4 1322/6/4
f 1318/6/4 1319/6/4 1322/6/4
f 1320/5/4 1321/5/4 1323/5/4
f 1322/6/4 1320/6/4 1323/6/4
f 1322/5/4 1323/5/4 1325/5/4
f 1321/5/4 1314/5/4 1326/5/4
f 1323/5/4 1321/5/4 1326/5/4
f 1325/5/4 1323/5/4 1326/5/4
f 1324/5/4 1325/5/4 1329/5/4
f 1329/5/4 1325/5/4 1330/5/4
f 1326/5/4 1327/5/4 1331/5/4
f 1331/5/4 1327/5/4 1332/5/4
f 1328/6/4 1329/6/4 1334/6/4
f 1334/6/4 1329/6/4 1335/6/4
f 1332/5/4 1333/5/4 1336/5/4
f 1336/5/4 1333/5/4 1337/5/4
f 1338/5/4 1339/5/4 1340/5/4
f 1340/5/4 1339/5/4 1341/5/4
f 1342/5/4 1343/5/4 1344/5/4
f 1344/5/4 1343/5/4 1345/5/4
f 1346/5/4 1347/5/4 1350/5/4
f 1350/5/4 1347/5/4 1351/5/4
f 1348/6/4 1349/6/4 1352/6/4
f 1352/6/4 1349/6/4 1353/6/4
f 1354/5/4 1355/5/4 1358/5/4
f 1358/5/4 1355/5/4 1359/5/4
f 1358/6/4 1359/6/4 1360/6/4
f 1360/6/4 1359/6/4 1361/6/4
f 1360/5/4 1361/5/4 1362/5/4
f 1362/5/4 1361/5/4 1363/5/4
f 1356/5/4 1357/5/4 1364/5/4
f 1364/5/4 1357/5/4 1365/5/4
f 1366/5/4 1367/5/4 1370/5/4
f 1370/5/4 1367/5/4 1371/5/4
f 1368/5/4 1369/5/4 1372/5/4
f 1372/5/4 1369/5/4 1373/5/4
f 1374/5/4 1375/5/4 1376/5/4
f 1376/5/4 1375/5/4 1377/5/4
f 1378/5/4 1379/5/4 1380/5/4
f 1380/5/4 1379/5/4 1381/5/4
f 1380/6/4 1381/6/4 1385/6/4
f 1385/6/4 1381/6/4 1386/6/4
f 1382/5/4 1383/5/4 1387/5/4
f 1387/5/4 1383/5/4 1388/5/4
f 1387/6/4 1388/6/4 1389/6/4
f 1389/6/4 1388/6/4 1390/6/4
f 1389/5/4 1390/5/4 1391/5/4
f 1391/5/4 1390/5/4 1392/5/4
f 1384/5/4 1385/5/4 1393/5/4
f 1393/5/4 1385/5/4 1394/5/4
f 1394/5/4 1395/5/4 1396/5/4
f 1396/5/4 1395/5/4 1397/5/4
f 1398/5/4 1399/5/4 1400/5/4
f 1400/5/4 1399/5/4 1401/5/4
f 1406/6/5 1403/6/5 1402/6/5
f 1407/5/5 1404/5/5 1403/5/5
f 1407/6/5 1403/6/5 1406/6/5
f 1408/5/5 1404/5/5 1407/5/5
f 1409/5/5 1404/5/5 1408/5/5
f 1412/5/5 1406/5/5 1405/5/5
f 1412/5/5 1407/5/5 1406/5/5
f 1413/6/5 1408/6/5 1407/6/5
f 1413/5/5 1407/5/5 1412/5/5
f 1414/5/5 1410/5/5 1409/5/5
f 1414/6/5 1408/6/5 1413/6/5
f 1414/5/5 1409/5/5 1408/5/5
f 1415/5/5 1410/5/5 1414/5/5
f 1418/5/5 1412/5/5 1411/5/5
f 1419/6/5 1413/6/5 1412/6/5
f 1419/6/5 1414/6/5 1413/6/5
f 1419/5/5 1412/5/5 1418/5/5
f 1419/6/5 1415/6/5 1414/6/5
f 1420/5/5 1416/5/5 1415/5/5
f 1420/6/5 1415/6/5 1419/6/5
f 1421/5/5 1416/5/5 1420/5/5
f 1424/5/5 1418/5/5 1417/5/5
f 1425/5/5 1422/5/5 1421/5/5
f 1427/5/5 1424/5/5 1423/5/5
f 1427/5/5 1418/5/5 1424/5/5
f 1428/6/5 1419/6/5 1418/6/5
f 1428/5/5 1418/5/5 1427/5/5
f 1428/6/5 1420/6/5 1419/6/5
f 1428/6/5 1421/6/5 1420/6/5
f 1429/5/5 1426/5/5 1425/5/5
f 1429/6/5 1421/6/5 1428/6/5
f 1429/5/5 1425/5/5 1421/5/5
f 1430/5/5 1426/5/5 1429/5/5
f 1431/6/5 1428/6/5 1427/6/5
f 1431/6/5 1429/6/5 1428/6/5
f 1431/6/5 1430/6/5 1429/6/5
f 1432/6/5 1430/6/5 1431/6/5
f 1433/5/5 1427/5/5 1423/5/5
f 1434/6/5 1431/6/5 1427/6/5
f 1434/5/5 1427/5/5 1433/5/5
f 1435/6/5 1431/6/5 1434/6/5
f 1436/6/5 1431/6/5 1435/6/5
f 1437/5/5 1432/5/5 1431/5/5
f 1437/6/5 1431/6/5 1436/6/5
f 1438/6/5 1434/6/5 1433/6/5
f 1439/5/5 1435/5/5 1434/5/5
f 1439/6/5 1434/6/5 1438/6/5
f 1440/5/5 1432/5/5 1437/5/5
f 1440/5/5 1437/5/5 1436/5/5
f 1441/5/5 1432/5/5 1440/5/5
f 1442/5/5 1435/5/5 1439/5/5
f 1443/6/5 1436/6/5 1435/6/5
f 1443/5/5 1435/5/5 1442/5/5
f 1444/6/5 1436/6/5 1443/6/5
f 1445/5/5 1440/5/5 1436/5/5
f 1445/6/5 1436/6/5 1444/6/5
f 1446/5/5 1440/5/5 1445/5/5
f 1447/5/5 1444/5/5 1443/5/5
f 1448/6/5 1445/6/5 1444/6/5
f 1448/5/5 1444/5/5 1447/5/5
f 1449/6/5 1445/6/5 1448/6/5
f 1450/6/5 1445/6/5 1449/6/5
f 1451/6/5 1445/6/5 1450/6/5
f 1452/6/5 1445/6/5 1451/6/5
f 1453/5/5 1449/5/5 1448/5/5
f 1454/5/5 1449/5/5 1453/5/5
f 1455/6/5 1450/6/5 1449/6/5
f 1455/5/5 1449/5/5 1454/5/5
f 1456/6/5 1450/6/5 1455/6/5
f 1457/6/5 1450/6/5 1456/6/5
f 1458/5/5 1451/5/5 1450/5/5
f 1458/6/5 1450/6/5 1457/6/5
f 1459/5/5 1451/5/5 1458/5/5
f 1460/5/5 1451/5/5 1459/5/5
f 1461/5/5 1455/5/5 1454/5/5
f 1461/5/5 1456/5/5 1455/5/5
f 1462/6/5 1457/6/5 1456/6/5
f 1462/5/5 1456/5/5 1461/5/5
f 1463/5/5 1459/5/5 1458/5/5
f 1463/6/5 1457/6/5 1462/6/5
f 1463/5/5 1458/5/5 1457/5/5
f 1464/5/5 1459/5/5 1463/5/5
f 1470/5/5 1466/5/5 1465/5/5
f 1471/6/5 1467/6/5 1466/6/5
f 1471/5/5 1466/5/5 1470/5/5
f 1472/6/5 1467/6/5 1471/6/5
f 1473/5/5 1468/5/5 1467/5/5
f 1473/6/5 1467/6/5 1472/6/5
f 1474/5/5 1468/5/5 1473/5/5
f 1477/5/5 1470/5/5 1469/5/5
f 1478/5/5 1470/5/5 1477/5/5
f 1479/5/5 1475/5/5 1474/5/5
f 1480/5/5 1475/5/5 1479/5/5
f 1482/5/5 1477/5/5 1476/5/5
f 1483/5/5 1477/5/5 1482/5/5
f 1485/6/5 1483/6/5 1482/6/5
f 1486/6/5 1483/6/5 1485/6/5
f 1487/5/5 1481/5/5 1480/5/5
f 1488/5/5 1481/5/5 1487/5/5
f 1490/5/5 1485/5/5 1484/5/5
f 1491/5/5 1485/5/5 1490/5/5
f 1492/6/5 1491/6/5 1490/6/5
f 1493/6/5 1491/6/5 1492/6/5
f 1496/5/5 1489/5/5 1488/5/5
f 1497/5/5 1489/5/5 1496/5/5
f 1498/6/5 1494/6/5 1493/6/5
f 1499/6/5 1494/6/5 1498/6/5
f 1500/5/5 1499/5/5 1498/5/5
f 1501/5/5 1499/5/5 1500/5/5
f 1505/5/5 1496/5/5 1495/5/5
f 1506/5/5 1496/5/5 1505/5/5
f 1507/5/5 1502/5/5 1501/5/5
f 1508/5/5 1502/5/5 1507/5/5
f 1509/5/5 1504/5/5 1503/5/5
f 1509/5/5 1505/5/5 1504/5/5
f 1510/5/5 1505/5/5 1509/5/5
f 1511/5/5 1509/5/5 1508/5/5
f 1512/5/5 1509/5/5 1511/5/5
f 1518/5/5 1514/5/5 1513/5/5
f 1519/5/5 1514/5/5 1518/5/5
f 1520/6/5 1515/6/5 1514/6/5
f 1520/5/5 1514/5/5 1519/5/5
f 1521/5/5 1516/5/5 1515/5/5
f 1521/6/5 1515/6/5 1520/6/5
f 1522/5/5 1516/5/5 1521/5/5
f 1523/5/5 1516/5/5 1522/5/5
f 1524/5/5 1516/5/5 1523/5/5
f 1527/5/5 1519/5/5 1518/5/5
f 1527/5/5 1518/5/5 1517/5/5
f 1528/5/5 1519/5/5 1527/5/5
f 1529/5/5 1525/5/5 1524/5/5
f 1529/5/5 1524/5/5 1523/5/5
f 1530/5/5 1525/5/5 1529/5/5
f 1533/5/5 1527/5/5 1526/5/5
f 1534/5/5 1527/5/5 1533/5/5
f 1535/5/5 1531/5/5 1530/5/5
f 1536/5/5 1531/5/5 1535/5/5
f 1539/5/5 1533/5/5 1532/5/5
f 1540/5/5 1533/5/5 1539/5/5
f 1541/5/5 1537/5/5 1536/5/5
f 1543/6/5 1539/6/5 1538/6/5
f 1544/5/5 1540/5/5 1539/5/5
f 1544/6/5 1539/6/5 1543/6/5
f 1545/5/5 1540/5/5 1544/5/5
f 1546/5/5 1542/5/5 1541/5/5
f 1546/5/5 1541/5/5 1536/5/5
f 1547/5/5 1542/5/5 1546/5/5
f 1548/5/5 1544/5/5 1543/5/5
f 1549/5/5 1548/5/5 1543/5/5
f 1552/5/5 1542/5/5 1547/5/5
f 1553/5/5 1542/5/5 1552/5/5
f 1554/5/5 1549/5/5 1543/5/5
f 1555/6/5 1550/6/5 1549/6/5
f 1555/5/5 1549/5/5 1554/5/5
f 1556/6/5 1550/6/5 1555/6/5
f 1557/5/5 1552/5/5 1551/5/5
f 1557/6/5 1553/6/5 1552/6/5
f 1558/6/5 1553/6/5 1557/6/5
f 1559/6/5 1556/6/5 1555/6/5
f 1560/6/5 1556/6/5 1559/6/5
f 1563/5/5 1557/5/5 1551/5/5
f 1564/5/5 1557/5/5 1563/5/5
f 1565/5/5 1561/5/5 1560/5/5
f 1566/5/5 1561/5/5 1565/5/5
f 1570/5/5 1563/5/5 1562/5/5
f 1571/5/5 1563/5/5 1570/5/5
f 1572/6/5 1567/6/5 1566/6/5
f 1573/5/5 1568/5/5 1567/5/5
f 1573/6/5 1567/6/5 1572/6/5
f 1574/5/5 1568/5/5 1573/5/5
f 1575/5/5 1570/5/5 1569/5/5
f 1576/5/5 1570/5/5 1575/5/5
f 1577/5/5 1570/5/5 1576/5/5
f 1578/5/5 1574/5/5 1573/5/5
f 1578/5/5 1576/5/5 1575/5/5
f 1578/5/5 1575/5/5 1574/5/5
f 1579/5/5 1576/5/5 1578/5/5
f 1585/5/5 1581/5/5 1580/5/5
f 1586/6/5 1582/6/5 1581/6/5
f 1586/5/5 1581/5/5 1585/5/5
f 1587/5/5 1583/5/5 1582/5/5
f 1587/6/5 1582/6/5 1586/6/5
f 1588/5/5 1583/5/5 1587/5/5
f 1591/5/5 1585/5/5 1584/5/5
f 1592/5/5 1585/5/5 1591/5/5
f 1593/5/5 1585/5/5 1592/5/5
f 1594/5/5 1589/5/5 1588/5/5
f 1595/5/5 1589/5/5 1594/5/5
f 1596/5/5 1589/5/5 1595/5/5
f 1599/5/5 1591/5/5 1590/5/5
f 1599/5/5 1592/5/5 1591/5/5
f 1600/5/5 1592/5/5 1599/5/5
f 1601/5/5 1592/5/5 1600/5/5
f 1602/5/5 1597/5/5 1596/5/5
f 1602/5/5 1596/5/5 1595/5/5
f 1603/5/5 1597/5/5 1602/5/5
f 1604/5/5 1597/5/5 1603/5/5
f 1606/5/5 1600/5/5 1599/5/5
f 1606/5/5 1599/5/5 1598/5/5
f 1607/5/5 1600/5/5 1606/5/5
f 1608/5/5 1605/5/5 1604/5/5
f 1608/5/5 1604/5/5 1603/5/5
f 1609/5/5 1605/5/5 1608/5/5
f 1611/5/5 1606/5/5 1598/5/5
f 1612/5/5 1606/5/5 1611/5/5
f 1613/5/5 1605/5/5 1609/5/5
f 1614/5/5 1605/5/5 1613/5/5
f 1616/6/5 1611/6/5 1610/6/5
f 1617/6/5 1616/6/5 1610/6/5
f 1618/6/5 1616/6/5 1617/6/5
f 1619/5/5 1615/5/5 1614/5/5
f 1620/5/5 1615/5/5 1619/5/5
f 1621/6/5 1620/6/5 1619/6/5
f 1622/5/5 1618/5/5 1617/5/5
f 1623/5/5 1618/5/5 1622/5/5
f 1626/6/5 1620/6/5 1621/6/5
f 1627/6/5 1620/6/5 1626/6/5
f 1628/5/5 1624/5/5 1623/5/5
f 1631/5/5 1626/5/5 1625/5/5
f 1632/5/5 1629/5/5 1628/5/5
f 1632/5/5 1628/5/5 1623/5/5
f 1633/5/5 1629/5/5 1632/5/5
f 1634/5/5 1629/5/5 1633/5/5
f 1637/5/5 1631/5/5 1630/5/5
f 1638/5/5 1626/5/5 1631/5/5
f 1638/5/5 1631/5/5 1637/5/5
f 1639/5/5 1626/5/5 1638/5/5
f 1640/5/5 1635/5/5 1634/5/5
f 1640/5/5 1634/5/5 1633/5/5
f 1641/5/5 1635/5/5 1640/5/5
f 1642/5/5 1635/5/5 1641/5/5
f 1645/5/5 1637/5/5 1636/5/5
f 1645/5/5 1638/5/5 1637/5/5
f 1646/5/5 1638/5/5 1645/5/5
f 1647/5/5 1638/5/5 1646/5/5
f 1648/5/5 1642/5/5 1641/5/5
f 1649/6/5 1643/6/5 1642/6/5
f 1649/5/5 1642/5/5 1648/5/5
f 1650/6/5 1643/6/5 1649/6/5
f 1651/5/5 1646/5/5 1645/5/5
f 1651/5/5 1645/5/5 1644/5/5
f 1652/5/5 1646/5/5 1651/5/5
f 1653/5/5 1651/5/5 1650/5/5
f 1654/5/5 1651/5/5 1653/5/5
f 1657/4/5 1656/4/5 1655/4/5
f 1658/4/5 1656/4/5 1657/4/5
f 1662/4/5 1660/4/5 1659/4/5
f 1663/4/5 1660/4/5 1662/4/5
f 1665/4/5 1662/4/5 1661/4/5
f 1666/4/5 1662/4/5 1665/4/5
f 1667/4/5 1664/4/5 1663/4/5
f 1668/4/5 1664/4/5 1667/4/5
f 1669/4/5 1667/4/5 1666/4/5
f 1670/4/5 1667/4/5 1669/4/5
f 1673/4/5 1672/4/5 1671/4/5
f 1674/4/5 1672/4/5 1673/4/5
f 1678/4/5 1676/4/5 1675/4/5
f 1679/4/5 1676/4/5 1678/4/5
f 1681/4/5 1678/4/5 1677/4/5
f 1682/4/5 1678/4/5 1681/4/5
f 1683/4/5 1680/4/5 1679/4/5
f 1684/4/5 1680/4/5 1683/4/5
f 1685/4/5 1683/4/5 1682/4/5
f 1686/4/5 1683/4/5 1685/4/5
f 1689/4/5 1688/4/5 1687/4/5
f 1690/4/5 1688/4/5 1689/4/5
f 1693/4/5 1692/4/5 1691/4/5
f 1694/4/5 1692/4/5 1693/4/5
f 1698/4/5 1696/4/5 1695/4/5
f 1699/4/5 1696/4/5 1698/4/5
f 1701/4/5 1698/4/5 1697/4/5
f 1702/4/5 1698/4/5 1701/4/5
f 1703/4/5 1700/4/5 1699/4/5
f 1704/4/5 1700/4/5 1703/4/5
f 1705/4/5 1703/4/5 1702/4/5
f 1706/4/5 1703/4/5 1705/4/5
f 1710/4/5 1708/4/5 1707/4/5
f 1711/4/5 1708/4/5 1710/4/5
f 1713/4/5 1710/4/5 1709/4/5
f 1714/4/5 1710/4/5 1713/4/5
f 1715/4/5 1712/4/5 1711/4/5
f 1716/4/5 1712/4/5 1715/4/5
f 1717/4/5 1715/4/5 1714/4/5
f 1718/4/5 1715/4/5 1717/4/5
f 1721/4/5 1720/4/5 1719/4/5
f 1722/4/5 1720/4/5 1721/4/5
f 1726/4/5 1724/4/5 1723/4/5
f 1727/4/5 1724/4/5 1726/4/5
f 1729/4/5 1726/4/5 1725/4/5
f 1730/4/5 1726/4/5 1729/4/5
f 1731/4/5 1728/4/5 1727/4/5
f 1732/4/5 1728/4/5 1731/4/5
f 1733/4/5 1731/4/5 1730/4/5
f 1734/4/5 1731/4/5 1733/4/5
f 1735/6/6 1736/6/6 1739/6/6
f 1736/5/6 1737/5/6 1740/5/6
f 1739/6/6 1736/6/6 1740/6/6
f 1740/5/6 1737/5/6 1741/5/6
f 1741/5/6 1737/5/6 1742/5/6
f 1738/5/6 1739/5/6 1745/5/6
f 1739/5/6 1740/5/6 1745/5/6
f 1745/5/6 1740/5/6 1746/5/6
f 1746/5/6 1740/5/6 1747/5/6
f 1741/5/6 1742/5/6 1748/5/6
f 1742/5/6 1743/5/6 1748/5/6
f 1748/5/6 1743/5/6 1749/5/6
f 1744/5/6 1745/5/6 1752/5/6
f 1752/5/6 1745/5/6 1753/5/6
f 1749/5/6 1750/5/6 1754/5/6
f 1754/5/6 1750/5/6 1755/5/6
f 1751/5/6 1752/5/6 1758/5/6
f 1755/5/6 1756/5/6 1759/5/6
f 1757/5/6 1758/5/6 1761/5/6
f 1758/5/6 1752/5/6 1761/5/6
f 1761/5/6 1752/5/6 1762/5/6
f 1759/5/6 1760/5/6 1763/5/6
f 1755/5/6 1759/5/6 1763/5/6
f 1763/5/6 1760/5/6 1764/5/6
f 1764/5/6 1760/5/6 1765/5/6
f 1764/6/6 1765/6/6 1766/6/6
f 1766/6/6 1765/6/6 1767/6/6
f 1766/5/6 1767/5/6 1768/5/6
f 1757/5/6 1761/5/6 1769/5/6
f 1769/5/6 1761/5/6 1770/5/6
f 1768/5/6 1767/5/6 1773/5/6
f 1769/6/6 1770/6/6 1774/6/6
f 1770/5/6 1771/5/6 1775/5/6
f 1774/6/6 1770/6/6 1775/6/6
f 1775/5/6 1771/5/6 1776/5/6
f 1772/5/6 1773/5/6 1777/5/6
f 1773/5/6 1767/5/6 1777/5/6
f 1777/5/6 1767/5/6 1778/5/6
f 1775/5/6 1776/5/6 1779/5/6
f 1779/5/6 1776/5/6 1780/5/6
f 1772/5/6 1777/5/6 1783/5/6
f 1783/5/6 1777/5/6 1784/5/6
f 1780/5/6 1781/5/6 1785/5/6
f 1785/5/6 1781/5/6 1786/5/6
f 1782/6/6 1783/6/6 1789/6/6
f 1789/6/6 1783/6/6 1790/6/6
f 1786/5/6 1787/5/6 1791/5/6
f 1791/5/6 1787/5/6 1792/5/6
f 1792/5/6 1787/5/6 1793/5/6
f 1788/5/6 1789/5/6 1796/5/6
f 1796/5/6 1789/5/6 1797/5/6
f 1797/5/6 1789/5/6 1798/5/6
f 1792/5/6 1793/5/6 1799/5/6
f 1793/5/6 1794/5/6 1799/5/6
f 1794/6/6 1795/6/6 1800/6/6
f 1799/5/6 1794/5/6 1800/5/6
f 1796/5/6 1797/5/6 1801/5/6
f 1800/6/6 1795/6/6 1801/6/6
f 1795/5/6 1796/5/6 1801/5/6
f 1801/5/6 1797/5/6 1802/5/6
f 1803/6/6 1804/6/6 1807/6/6
f 1804/5/6 1805/5/6 1808/5/6
f 1807/6/6 1804/6/6 1808/6/6
f 1808/5/6 1805/5/6 1809/5/6
f 1809/5/6 1805/5/6 1810/5/6
f 1806/5/6 1807/5/6 1813/5/6
f 1813/5/6 1807/5/6 1814/5/6
f 1810/5/6 1811/5/6 1815/5/6
f 1815/5/6 1811/5/6 1816/5/6
f 1812/5/6 1813/5/6 1819/5/6
f 1819/5/6 1813/5/6 1820/5/6
f 1816/5/6 1817/5/6 1821/5/6
f 1821/5/6 1817/5/6 1822/5/6
f 1822/6/6 1823/6/6 1824/6/6
f 1824/6/6 1823/6/6 1825/6/6
f 1824/5/6 1825/5/6 1826/5/6
f 1818/5/6 1819/5/6 1827/5/6
f 1818/5/6 1827/5/6 1828/5/6
f 1828/5/6 1827/5/6 1829/5/6
f 1826/5/6 1825/5/6 1832/5/6
f 1832/5/6 1825/5/6 1833/5/6
f 1829/6/6 1830/6/6 1834/6/6
f 1834/6/6 1830/6/6 1835/6/6
f 1831/5/6 1832/5/6 1836/5/6
f 1834/5/6 1835/5/6 1837/5/6
f 1837/5/6 1835/5/6 1838/5/6
f 1836/5/6 1832/5/6 1842/5/6
f 1842/5/6 1832/5/6 1843/5/6
f 1838/5/6 1839/5/6 1844/5/6
f 1844/5/6 1839/5/6 1845/5/6
f 1840/5/6 1841/5/6 1848/5/6
f 1841/5/6 1842/5/6 1848/5/6
f 1848/5/6 1842/5/6 1849/5/6
f 1845/5/6 1846/5/6 1850/5/6
f 1846/6/6 1847/6/6 1851/6/6
f 1850/5/6 1846/5/6 1851/5/6
f 1847/5/6 1848/5/6 1852/5/6
f 1851/6/6 1847/6/6 1852/6/6
f 1852/5/6 1848/5/6 1853/5/6
f 1854/1/6 1855/1/6 1858/1/6
f 1855/3/6 1856/3/6 1859/3/6
f 1858/1/6 1855/1/6 1859/1/6
f 1859/3/6 1856/3/6 1860/3/6
f 1860/3/6 1856/3/6 1861/3/6
f 1861/3/6 1856/3/6 1862/3/6
f 1857/3/6 1858/3/6 1865/3/6
f 1858/3/6 1859/3/6 1865/3/6
f 1859/3/6 1860/3/6 1865/3/6
f 1865/3/6 1860/3/6 1866/3/6
f 1866/3/6 1860/3/6 1867/3/6
f 1860/2/6 1861/2/6 1868/2/6
f 1867/3/6 1860/3/6 1868/3/6
f 1862/3/6 1863/3/6 1869/3/6
f 1868/2/6 1861/2/6 1869/2/6
f 1861/3/6 1862/3/6 1869/3/6
f 1869/3/6 1863/3/6 1870/3/6
f 1870/3/6 1863/3/6 1871/3/6
f 1867/2/6 1868/2/6 1873/2/6
f 1866/3/6 1867/3/6 1873/3/6
f 1868/2/6 1869/2/6 1873/2/6
f 1873/2/6 1869/2/6 1874/2/6
f 1864/3/6 1865/3/6 1876/3/6
f 1876/3/6 1865/3/6 1877/3/6
f 1866/3/6 1873/3/6 1878/3/6
f 1873/3/6 1874/3/6 1878/3/6
f 1878/3/6 1874/3/6 1879/3/6
f 1871/3/6 1872/3/6 1880/3/6
f 1870/3/6 1871/3/6 1880/3/6
f 1880/3/6 1872/3/6 1881/3/6
f 1881/3/6 1872/3/6 1882/3/6
f 1878/3/6 1879/3/6 1884/3/6
f 1877/3/6 1878/3/6 1884/3/6
f 1876/3/6 1877/3/6 1884/3/6
f 1880/3/6 1881/3/6 1884/3/6
f 1879/3/6 1880/3/6 1884/3/6
f 1875/3/6 1876/3/6 1884/3/6
f 1884/3/6 1881/3/6 1885/3/6
f 1885/3/6 1881/3/6 1886/3/6
f 1886/3/6 1881/3/6 1887/3/6
f 1887/3/6 1881/3/6 1888/3/6
f 1881/1/6 1882/1/6 1889/1/6
f 1888/3/6 1881/3/6 1889/3/6
f 1882/3/6 1883/3/6 1890/3/6
f 1889/1/6 1882/1/6 1890/1/6
f 1885/3/6 1886/3/6 1891/3/6
f 1886/1/6 1887/1/6 1891/1/6
f 1887/3/6 1888/3/6 1892/3/6
f 1891/1/6 1887/1/6 1892/1/6
f 1892/3/6 1888/3/6 1893/3/6
f 1888/2/6 1889/2/6 1894/2/6
f 1893/3/6 1888/3/6 1894/3/6
f 1875/3/6 1884/3/6 1895/3/6
f 1884/2/6 1885/2/6 1895/2/6
f 1892/3/6 1893/3/6 1896/3/6
f 1895/2/6 1885/2/6 1896/2/6
f 1885/3/6 1891/3/6 1896/3/6
f 1891/3/6 1892/3/6 1896/3/6
f 1875/3/6 1895/3/6 1897/3/6
f 1895/3/6 1896/3/6 1897/3/6
f 1897/3/6 1896/3/6 1898/3/6
f 1898/3/6 1896/3/6 1899/3/6
f 1896/3/6 1893/3/6 1900/3/6
f 1899/3/6 1896/3/6 1900/3/6
f 1900/3/6 1893/3/6 1901/3/6
f 1901/3/6 1893/3/6 1902/3/6
f 1893/2/6 1894/2/6 1903/2/6
f 1902/3/6 1893/3/6 1903/3/6
f 1894/2/6 1889/2/6 1904/2/6
f 1903/2/6 1894/2/6 1904/2/6
f 1889/3/6 1890/3/6 1905/3/6
f 1904/2/6 1889/2/6 1905/2/6
f 1890/3/6 1883/3/6 1906/3/6
f 1905/3/6 1890/3/6 1906/3/6
f 1906/3/6 1883/3/6 1907/3/6
f 1898/3/6 1899/3/6 1908/3/6
f 1899/1/6 1900/1/6 1908/1/6
f 1900/3/6 1901/3/6 1909/3/6
f 1908/1/6 1900/1/6 1909/1/6
f 1898/3/6 1908/3/6 1910/3/6
f 1908/3/6 1909/3/6 1910/3/6
f 1910/3/6 1909/3/6 1911/3/6
f 1901/2/6 1902/2/6 1912/2/6
f 1911/3/6 1909/3/6 1912/3/6
f 1909/3/6 1901/3/6 1912/3/6
f 1902/3/6 1903/3/6 1913/3/6
f 1912/2/6 1902/2/6 1913/2/6
f 1913/3/6 1903/3/6 1914/3/6
f 1905/3/6 1906/3/6 1915/3/6
f 1904/3/6 1905/3/6 1915/3/6
f 1915/3/6 1906/3/6 1916/3/6
f 1916/3/6 1906/3/6 1917/3/6
f 1913/3/6 1914/3/6 1918/3/6
f 1911/3/6 1912/3/6 1918/3/6
f 1914/3/6 1915/3/6 1918/3/6
f 1912/3/6 1913/3/6 1918/3/6
f 1918/3/6 1915/3/6 1919/3/6
f 1919/3/6 1915/3/6 1920/3/6
f 1915/1/6 1916/1/6 1921/1/6
f 1920/3/6 1915/3/6 1921/3/6
f 1921/1/6 1916/1/6 1922/1/6
f 1919/3/6 1920/3/6 1923/3/6
f 1923/3/6 1920/3/6 1924/3/6
f 1925/5/6 1926/5/6 1930/5/6
f 1927/5/6 1928/5/6 1930/5/6
f 1926/5/6 1927/5/6 1930/5/6
f 1930/5/6 1928/5/6 1931/5/6
f 1931/5/6 1928/5/6 1932/5/6
f 1932/5/6 1928/5/6 1933/5/6
f 1929/5/6 1930/5/6 1936/5/6
f 1930/5/6 1931/5/6 1936/5/6
f 1936/5/6 1931/5/6 1937/5/6
f 1932/5/6 1933/5/6 1938/5/6
f 1933/5/6 1934/5/6 1938/5/6
f 1938/5/6 1934/5/6 1939/5/6
f 1935/5/6 1936/5/6 1942/5/6
f 1942/5/6 1936/5/6 1943/5/6
f 1939/5/6 1940/5/6 1947/5/6
f 1947/5/6 1940/5/6 1948/5/6
f 1941/5/6 1942/5/6 1951/5/6
f 1948/5/6 1949/5/6 1952/5/6
f 1950/5/6 1951/5/6 1954/5/6
f 1951/5/6 1942/5/6 1955/5/6
f 1954/5/6 1951/5/6 1955/5/6
f 1955/5/6 1942/5/6 1956/5/6
f 1943/3/6 1944/3/6 1957/3/6
f 1957/3/6 1944/3/6 1958/3/6
f 1945/3/6 1946/3/6 1959/3/6
f 1959/3/6 1946/3/6 1960/3/6
f 1952/5/6 1953/5/6 1961/5/6
f 1948/5/6 1952/5/6 1961/5/6
f 1961/5/6 1953/5/6 1962/5/6
f 1954/5/6 1955/5/6 1963/5/6
f 1963/5/6 1955/5/6 1964/5/6
f 1962/5/6 1953/5/6 1969/5/6
f 1969/5/6 1953/5/6 1970/5/6
f 1963/5/6 1964/5/6 1971/5/6
f 1964/5/6 1965/5/6 1971/5/6
f 1971/5/6 1965/5/6 1972/5/6
f 1969/5/6 1970/5/6 1973/5/6
f 1968/5/6 1969/5/6 1973/5/6
f 1973/5/6 1970/5/6 1974/5/6
f 1972/5/6 1965/5/6 1975/5/6
f 1975/5/6 1965/5/6 1976/5/6
f 1966/3/6 1967/3/6 1978/3/6
f 1978/3/6 1967/3/6 1979/3/6
f 1968/5/6 1973/5/6 1981/5/6
f 1981/5/6 1973/5/6 1982/5/6
f 1976/5/6 1977/5/6 1983/5/6
f 1983/5/6 1977/5/6 1984/5/6
f 1980/5/6 1981/5/6 1987/5/6
f 1987/5/6 1981/5/6 1988/5/6
f 1984/5/6 1985/5/6 1989/5/6
f 1989/5/6 1985/5/6 1990/5/6
f 1990/5/6 1985/5/6 1991/5/6
f 1986/5/6 1987/5/6 1992/5/6
f 1992/5/6 1987/5/6 1993/5/6
f 1993/5/6 1987/5/6 1994/5/6
f 1990/5/6 1991/5/6 1995/5/6
f 1992/5/6 1993/5/6 1995/5/6
f 1991/5/6 1992/5/6 1995/5/6
f 1995/5/6 1993/5/6 1996/5/6
f 1997/5/6 1998/5/6 2002/5/6
f 1998/6/6 1999/6/6 2003/6/6
f 2002/5/6 1998/5/6 2003/5/6
f 1999/5/6 2000/5/6 2004/5/6
f 2003/6/6 1999/6/6 2004/6/6
f 2004/5/6 2000/5/6 2005/5/6
f 2001/5/6 2002/5/6 2008/5/6
f 2008/5/6 2002/5/6 2009/5/6
f 2009/5/6 2002/5/6 2010/5/6
f 2005/5/6 2006/5/6 2011/5/6
f 2011/5/6 2006/5/6 2012/5/6
f 2012/5/6 2006/5/6 2013/5/6
f 2007/5/6 2008/5/6 2016/5/6
f 2008/5/6 2009/5/6 2016/5/6
f 2016/5/6 2009/5/6 2017/5/6
f 2017/5/6 2009/5/6 2018/5/6
f 2013/5/6 2014/5/6 2019/5/6
f 2012/5/6 2013/5/6 2019/5/6
f 2019/5/6 2014/5/6 2020/5/6
f 2020/5/6 2014/5/6 2021/5/6
f 2016/5/6 2017/5/6 2023/5/6
f 2015/5/6 2016/5/6 2023/5/6
f 2023/5/6 2017/5/6 2024/5/6
f 2021/5/6 2022/5/6 2025/5/6
f 2020/5/6 2021/5/6 2025/5/6
f 2025/5/6 2022/5/6 2026/5/6
f 2015/5/6 2023/5/6 2028/5/6
f 2028/5/6 2023/5/6 2029/5/6
f 2026/5/6 2022/5/6 2030/5/6
f 2030/5/6 2022/5/6 2031/5/6
f 2031/5/6 2032/5/6 2033/5/6
f 2033/5/6 2032/5/6 2034/5/6
f 2027/5/6 2028/5/6 2035/5/6
f 2035/5/6 2028/5/6 2036/5/6
f 2033/6/6 2034/6/6 2039/6/6
f 2039/6/6 2034/6/6 2040/6/6
f 2036/5/6 2037/5/6 2041/5/6
f 2038/5/6 2039/5/6 2044/5/6
f 2041/5/6 2042/5/6 2045/5/6
f 2036/5/6 2041/5/6 2045/5/6
f 2045/5/6 2042/5/6 2046/5/6
f 2046/5/6 2042/5/6 2047/5/6
f 2043/5/6 2044/5/6 2050/5/6
f 2044/5/6 2039/5/6 2051/5/6
f 2050/5/6 2044/5/6 2051/5/6
f 2051/5/6 2039/5/6 2052/5/6
f 2047/5/6 2048/5/6 2053/5/6
f 2046/5/6 2047/5/6 2053/5/6
f 2053/5/6 2048/5/6 2054/5/6
f 2054/5/6 2048/5/6 2055/5/6
f 2049/5/6 2050/5/6 2058/5/6
f 2050/5/6 2051/5/6 2058/5/6
f 2058/5/6 2051/5/6 2059/5/6
f 2059/5/6 2051/5/6 2060/5/6
f 2054/5/6 2055/5/6 2061/5/6
f 2055/6/6 2056/6/6 2062/6/6
f 2061/5/6 2055/5/6 2062/5/6
f 2062/6/6 2056/6/6 2063/6/6
f 2058/5/6 2059/5/6 2064/5/6
f 2057/5/6 2058/5/6 2064/5/6
f 2064/5/6 2059/5/6 2065/5/6
f 2063/5/6 2064/5/6 2066/5/6
f 2066/5/6 2064/5/6 2067/5/6
f 2068/4/6 2069/4/6 2071/4/6
f 2071/4/6 2069/4/6 2072/4/6
f 2070/4/6 2071/4/6 2074/4/6
f 2074/4/6 2071/4/6 2075/4/6
f 2072/4/6 2073/4/6 2076/4/6
f 2076/4/6 2073/4/6 2077/4/6
f 2075/4/6 2076/4/6 2078/4/6
f 2078/4/6 2076/4/6 2079/4/6
f 2080/4/6 2081/4/6 2082/4/6
f 2082/4/6 2081/4/6 2083/4/6
f 2084/4/6 2085/4/6 2087/4/6
f 2087/4/6 2085/4/6 2088/4/6
f 2086/4/6 2087/4/6 2090/4/6
f 2090/4/6 2087/4/6 2091/4/6
f 2088/4/6 2089/4/6 2092/4/6
f 2092/4/6 2089/4/6 2093/4/6
f 2091/4/6 2092/4/6 2094/4/6
f 2094/4/6 2092/4/6 2095/4/6
f 2096/4/6 2097/4/6 2098/4/6
f 2098/4/6 2097/4/6 2099/4/6
f 2100/4/6 2101/4/6 2103/4/6
f 2103/4/6 2101/4/6 2104/4/6
f 2102/4/6 2103/4/6 2106/4/6
f 2106/4/6 2103/4/6 2107/4/6
f 2104/4/6 2105/4/6 2108/4/6
f 2108/4/6 2105/4/6 2109/4/6
f 2107/4/6 2108/4/6 2110/4/6
f 2110/4/6 2108/4/6 2111/4/6
f 2112/4/6 2113/4/6 2115/4/6
f 2115/4/6 2113/4/6 2116/4/6
f 2114/4/6 2115/4/6 2118/4/6
f 2118/4/6 2115/4/6 2119/4/6
f 2116/4/6 2117/4/6 2120/4/6
f 2120/4/6 2117/4/6 2121/4/6
f 2119/4/6 2120/4/6 2122/4/6
f 2122/4/6 2120/4/6 2123/4/6
f 2124/4/6 2125/4/6 2126/4/6
f 2126/4/6 2125/4/6 2127/4/6
f 2128/4/6 2129/4/6 2130/4/6
f 2130/4/6 2129/4/6 2131/4/6
f 2132/4/6 2133/4/6 2135/4/6
f 2135/4/6 2133/4/6 2136/4/6
f 2134/4/6 2135/4/6 2138/4/6
f 2138/4/6 2135/4/6 2139/4/6
f 2136/4/6 2137/4/6 2140/4/6
f 2140/4/6 2137/4/6 2141/4/6
f 2139/4/6 2140/4/6 2142/4/6
f 2142/4/6 2140/4/6 2143/4/6
f 2144/4/6 2145/4/6 2146/4/6
f 2146/4/6 2145/4/6 2147/4/6
