# MagicaVoxel @ Ephtracy

# group
o 

# material
mtllib arbol caido-1.mtl
usemtl palette

# normals
vn -1 0 0
vn 1 0 0
vn 0 0 1
vn 0 0 -1
vn 0 -1 0
vn 0 1 0

# texcoords
vt 0.318359 0.5
vt 0.322266 0.5
vt 0.724609 0.5
vt 0.728516 0.5

# verts
v -11.3 9.9 -25.8
v -11.3 9.9 -26.1
v -11.3 10.1 -25.7
v -11.3 10.1 -25.8
v -11.3 10.1 -26
v -11.3 10.1 -26.1
v -11.3 10.3 -25.8
v -11.3 10.3 -26
v -11.3 10.4 -25.7
v -11.3 10.4 -25.8
v -11.3 10.4 -26
v -11.2 9.7 -25.8
v -11.2 9.7 -26
v -11.2 9.7 -26.1
v -11.2 9.9 -25.8
v -11.2 9.9 -26
v -11.2 9.9 -26.1
v -11.2 9.9 -26.4
v -11.2 10 -26.4
v -11.2 10 -26.5
v -11.2 10.1 -26
v -11.2 10.1 -26.1
v -11.2 10.1 -26.3
v -11.2 10.2 -26.3
v -11.2 10.2 -26.4
v -11.2 10.2 -26.5
v -11.2 10.3 -26
v -11.2 10.3 -26.1
v -11.2 10.4 -25.7
v -11.2 10.4 -25.8
v -11.2 10.4 -26
v -11.2 10.4 -26.1
v -11.2 10.4 -26.4
v -11.2 10.5 -24.3
v -11.2 10.5 -24.4
v -11.2 10.6 -24.3
v -11.2 10.6 -24.4
v -11.2 10.6 -25.7
v -11.2 10.6 -25.8
v -11.2 10.6 -26
v -11.1 9.7 -24.4
v -11.1 9.7 -24.5
v -11.1 9.8 -24.4
v -11.1 9.8 -24.5
v -11.1 9.8 -26.1
v -11.1 9.8 -26.4
v -11.1 9.9 -26.1
v -11.1 9.9 -26.4
v -11.1 9.9 -26.5
v -11.1 10 -26.4
v -11.1 10 -26.5
v -11.1 10.1 -26.5
v -11.1 10.1 -26.7
v -11.1 10.1 -27
v -11.1 10.2 -26.4
v -11.1 10.2 -26.5
v -11.1 10.2 -26.7
v -11.1 10.2 -26.9
v -11.1 10.2 -27
v -11.1 10.3 -24.3
v -11.1 10.3 -24.4
v -11.1 10.3 -26.4
v -11.1 10.3 -26.5
v -11.1 10.4 -26
v -11.1 10.4 -26.1
v -11.1 10.4 -26.4
v -11.1 10.4 -26.9
v -11.1 10.5 -24.3
v -11.1 10.5 -24.4
v -11.1 10.5 -26
v -11.1 10.5 -26.1
v -11.1 10.5 -26.4
v -11 9.6 -25.8
v -11 9.6 -26.1
v -11 9.7 -25.8
v -11 9.7 -26.1
v -11 9.7 -26.4
v -11 9.8 -24.4
v -11 9.8 -24.5
v -11 9.8 -26.1
v -11 9.8 -26.4
v -11 9.8 -26.5
v -11 9.9 -24.4
v -11 9.9 -24.5
v -11 9.9 -26.4
v -11 9.9 -26.5
v -11 9.9 -26.9
v -11 9.9 -27
v -11 10 -24.4
v -11 10 -24.5
v -11 10 -26.8
v -11 10 -26.9
v -11 10.1 -26.5
v -11 10.1 -26.7
v -11 10.1 -26.8
v -11 10.1 -27
v -11 10.1 -27.5
v -11 10.2 -26.9
v -11 10.2 -27
v -11 10.2 -27.4
v -11 10.2 -27.5
v -11 10.4 -24.4
v -11 10.4 -24.5
v -11 10.4 -26.4
v -11 10.4 -26.9
v -11 10.4 -27.4
v -11 10.5 -24.4
v -11 10.5 -24.5
v -11 10.5 -26
v -11 10.5 -26.1
v -11 10.5 -26.2
v -11 10.5 -26.4
v -11 10.6 -25.7
v -11 10.6 -25.8
v -11 10.6 -25.9
v -11 10.6 -26
v -11 10.6 -26.2
v -11 10.6 -26.9
v -11 10.7 -25.7
v -11 10.7 -25.8
v -11 10.7 -26
v -10.9 9.7 -26.4
v -10.9 9.7 -26.5
v -10.9 9.8 -24.5
v -10.9 9.8 -24.6
v -10.9 9.8 -26.4
v -10.9 9.8 -26.5
v -10.9 9.8 -26.7
v -10.9 9.8 -27
v -10.9 9.9 -24.5
v -10.9 9.9 -24.6
v -10.9 9.9 -26.5
v -10.9 9.9 -26.7
v -10.9 9.9 -26.9
v -10.9 9.9 -27
v -10.9 9.9 -27.5
v -10.9 10 -24.4
v -10.9 10 -24.5
v -10.9 10.1 -24.3
v -10.9 10.1 -24.4
v -10.9 10.1 -24.5
v -10.9 10.1 -27
v -10.9 10.1 -27.5
v -10.9 10.1 -27.8
v -10.9 10.2 -27.4
v -10.9 10.2 -27.5
v -10.9 10.2 -27.7
v -10.9 10.2 -27.8
v -10.9 10.3 -24.3
v -10.9 10.3 -24.4
v -10.9 10.3 -24.5
v -10.9 10.4 -24.4
v -10.9 10.4 -24.5
v -10.9 10.4 -26.9
v -10.9 10.4 -27.4
v -10.9 10.4 -27.7
v -10.9 10.6 -26.9
v -10.9 10.6 -27.4
v -10.8 9.5 -25.8
v -10.8 9.5 -26.1
v -10.8 9.6 -25.8
v -10.8 9.6 -26.1
v -10.8 9.6 -26.3
v -10.8 9.6 -26.4
v -10.8 9.7 -26.1
v -10.8 9.7 -26.3
v -10.8 9.7 -26.4
v -10.8 9.9 -24.5
v -10.8 9.9 -24.6
v -10.8 10 -24.5
v -10.8 10 -24.6
v -10.8 10 -24.7
v -10.8 10 -24.9
v -10.8 10 -27.5
v -10.8 10 -27.8
v -10.8 10.1 -24.4
v -10.8 10.1 -24.5
v -10.8 10.1 -24.6
v -10.8 10.1 -24.7
v -10.8 10.1 -24.8
v -10.8 10.1 -24.9
v -10.8 10.1 -25.3
v -10.8 10.1 -27.5
v -10.8 10.1 -27.8
v -10.8 10.1 -28.1
v -10.8 10.2 -24.5
v -10.8 10.2 -24.6
v -10.8 10.2 -24.8
v -10.8 10.2 -25.3
v -10.8 10.2 -27.7
v -10.8 10.2 -27.8
v -10.8 10.2 -28
v -10.8 10.2 -28.1
v -10.8 10.3 -24.4
v -10.8 10.3 -24.5
v -10.8 10.3 -24.8
v -10.8 10.4 -27.4
v -10.8 10.4 -27.7
v -10.8 10.4 -28
v -10.8 10.5 -27.4
v -10.8 10.5 -27.7
v -10.8 10.6 -26
v -10.8 10.6 -26.4
v -10.8 10.7 -25.7
v -10.8 10.7 -25.8
v -10.8 10.7 -25.9
v -10.8 10.7 -26
v -10.8 10.7 -26.4
v -10.8 10.8 -25.7
v -10.8 10.8 -25.8
v -10.8 10.8 -26
v -10.7 9.7 -26.5
v -10.7 9.7 -26.6
v -10.7 9.7 -27
v -10.7 9.8 -26.5
v -10.7 9.8 -26.6
v -10.7 9.8 -27
v -10.7 9.8 -27.5
v -10.7 9.9 -24.6
v -10.7 9.9 -24.7
v -10.7 9.9 -24.9
v -10.7 9.9 -27
v -10.7 9.9 -27.5
v -10.7 9.9 -27.8
v -10.7 10 -24.6
v -10.7 10 -24.7
v -10.7 10 -24.9
v -10.7 10 -25.4
v -10.7 10 -27.5
v -10.7 10 -27.8
v -10.7 10 -28.1
v -10.7 10.1 -24.9
v -10.7 10.1 -25.3
v -10.7 10.1 -25.4
v -10.7 10.1 -25.7
v -10.7 10.1 -27.8
v -10.7 10.1 -28.1
v -10.7 10.1 -28.3
v -10.7 10.2 -24.8
v -10.7 10.2 -25.3
v -10.7 10.2 -25.7
v -10.7 10.2 -28
v -10.7 10.2 -28.1
v -10.7 10.2 -28.2
v -10.7 10.2 -28.3
v -10.7 10.3 -24.5
v -10.7 10.3 -24.8
v -10.7 10.3 -25.3
v -10.7 10.3 -28
v -10.7 10.3 -28.2
v -10.7 10.4 -24.5
v -10.7 10.4 -24.8
v -10.7 10.4 -27.7
v -10.7 10.4 -28
v -10.7 10.5 -27.4
v -10.7 10.5 -27.6
v -10.7 10.5 -27.7
v -10.7 10.5 -28
v -10.7 10.6 -26.4
v -10.7 10.6 -26.9
v -10.7 10.6 -27.4
v -10.7 10.6 -27.6
v -10.7 10.6 -27.7
v -10.7 10.7 -26.4
v -10.7 10.7 -26.9
v -10.6 9.9 -24.9
v -10.6 9.9 -25
v -10.6 9.9 -25.4
v -10.6 10 -24.9
v -10.6 10 -25
v -10.6 10 -25.4
v -10.6 10 -25.6
v -10.6 10 -25.8
v -10.6 10.1 -25.4
v -10.6 10.1 -25.6
v -10.6 10.1 -25.7
v -10.6 10.1 -25.8
v -10.6 10.1 -28.3
v -10.6 10.1 -28.5
v -10.6 10.2 -25.3
v -10.6 10.2 -25.7
v -10.6 10.2 -28.2
v -10.6 10.2 -28.3
v -10.6 10.2 -28.4
v -10.6 10.2 -28.5
v -10.6 10.3 -24.8
v -10.6 10.3 -25.2
v -10.6 10.3 -25.3
v -10.6 10.3 -25.7
v -10.6 10.3 -28
v -10.6 10.3 -28.2
v -10.6 10.3 -28.4
v -10.6 10.4 -24.8
v -10.6 10.4 -25.2
v -10.6 10.4 -25.3
v -10.6 10.4 -28
v -10.6 10.4 -28.2
v -10.4 10.4 -24.4
v -10.4 10.4 -24.5
v -10.4 10.5 -24.4
v -10.4 10.5 -24.5
v -10.3 9.7 -24.4
v -10.3 9.7 -24.5
v -10.3 9.8 -24.4
v -10.3 9.8 -24.5
v -10.3 10.5 -24.3
v -10.3 10.5 -24.4
v -10.3 10.6 -24.3
v -10.3 10.6 -24.4
v -10.9 10.4 -24.4
v -10.9 10.4 -24.5
v -10.9 10.5 -24.4
v -10.9 10.5 -24.5
v -10.7 9.8 -24.5
v -10.7 9.8 -24.6
v -10.7 9.9 -24.5
v -10.7 9.9 -24.6
v -10.7 10.5 -24.3
v -10.7 10.5 -24.4
v -10.7 10.6 -24.3
v -10.7 10.6 -24.4
v -10.6 9.7 -24.4
v -10.6 9.7 -24.5
v -10.6 9.8 -24.4
v -10.6 9.8 -24.5
v -10.5 9.9 -24.9
v -10.5 9.9 -25
v -10.5 9.9 -25.4
v -10.5 10 -24.9
v -10.5 10 -25
v -10.5 10 -25.4
v -10.5 10 -25.6
v -10.5 10 -25.8
v -10.5 10.1 -25.4
v -10.5 10.1 -25.6
v -10.5 10.1 -25.7
v -10.5 10.1 -25.8
v -10.5 10.1 -28.3
v -10.5 10.1 -28.5
v -10.5 10.2 -25.3
v -10.5 10.2 -25.7
v -10.5 10.2 -28.2
v -10.5 10.2 -28.3
v -10.5 10.2 -28.4
v -10.5 10.2 -28.5
v -10.5 10.3 -24.8
v -10.5 10.3 -25.2
v -10.5 10.3 -25.3
v -10.5 10.3 -25.7
v -10.5 10.3 -28
v -10.5 10.3 -28.2
v -10.5 10.3 -28.4
v -10.5 10.4 -24.8
v -10.5 10.4 -25.2
v -10.5 10.4 -25.3
v -10.5 10.4 -28
v -10.5 10.4 -28.2
v -10.4 9.7 -26.5
v -10.4 9.7 -27
v -10.4 9.8 -26.5
v -10.4 9.8 -27
v -10.4 9.8 -27.5
v -10.4 9.9 -24.6
v -10.4 9.9 -24.9
v -10.4 9.9 -27
v -10.4 9.9 -27.5
v -10.4 9.9 -27.8
v -10.4 10 -24.6
v -10.4 10 -24.7
v -10.4 10 -24.9
v -10.4 10 -25.4
v -10.4 10 -27.5
v -10.4 10 -27.8
v -10.4 10 -28.1
v -10.4 10.1 -24.9
v -10.4 10.1 -25.3
v -10.4 10.1 -25.4
v -10.4 10.1 -25.7
v -10.4 10.1 -27.8
v -10.4 10.1 -28.1
v -10.4 10.1 -28.3
v -10.4 10.2 -24.8
v -10.4 10.2 -25.3
v -10.4 10.2 -25.7
v -10.4 10.2 -28
v -10.4 10.2 -28.1
v -10.4 10.2 -28.2
v -10.4 10.2 -28.3
v -10.4 10.3 -24.5
v -10.4 10.3 -24.6
v -10.4 10.3 -24.7
v -10.4 10.3 -24.8
v -10.4 10.3 -25.3
v -10.4 10.3 -28
v -10.4 10.3 -28.2
v -10.4 10.4 -24.5
v -10.4 10.4 -24.7
v -10.4 10.4 -24.8
v -10.4 10.4 -27.7
v -10.4 10.4 -28
v -10.4 10.5 -27.4
v -10.4 10.5 -27.7
v -10.4 10.5 -28
v -10.4 10.6 -26.4
v -10.4 10.6 -26.9
v -10.4 10.6 -27.4
v -10.4 10.6 -27.7
v -10.4 10.7 -26.4
v -10.4 10.7 -26.9
v -10.3 9.5 -25.8
v -10.3 9.5 -26.1
v -10.3 9.6 -25.8
v -10.3 9.6 -26.1
v -10.3 9.6 -26.4
v -10.3 9.7 -26.1
v -10.3 9.7 -26.4
v -10.3 9.9 -24.5
v -10.3 9.9 -24.6
v -10.3 10 -24.5
v -10.3 10 -24.6
v -10.3 10 -24.7
v -10.3 10 -24.9
v -10.3 10 -27.5
v -10.3 10 -27.8
v -10.3 10.1 -24.4
v -10.3 10.1 -24.5
v -10.3 10.1 -24.6
v -10.3 10.1 -24.7
v -10.3 10.1 -24.9
v -10.3 10.1 -25.3
v -10.3 10.1 -27.5
v -10.3 10.1 -27.8
v -10.3 10.1 -28.1
v -10.3 10.2 -24.8
v -10.3 10.2 -25.3
v -10.3 10.2 -27.7
v -10.3 10.2 -27.8
v -10.3 10.2 -28
v -10.3 10.2 -28.1
v -10.3 10.3 -24.4
v -10.3 10.3 -24.5
v -10.3 10.3 -24.6
v -10.3 10.3 -24.8
v -10.3 10.3 -27.7
v -10.3 10.4 -27.4
v -10.3 10.4 -27.7
v -10.3 10.4 -28
v -10.3 10.5 -27.4
v -10.3 10.5 -27.7
v -10.3 10.6 -26
v -10.3 10.6 -26.2
v -10.3 10.6 -26.3
v -10.3 10.6 -26.4
v -10.3 10.7 -25.7
v -10.3 10.7 -25.9
v -10.3 10.7 -26
v -10.3 10.7 -26.2
v -10.3 10.7 -26.4
v -10.3 10.8 -25.7
v -10.3 10.8 -26
v -10.2 9.7 -26.4
v -10.2 9.7 -26.5
v -10.2 9.8 -26.4
v -10.2 9.8 -26.5
v -10.2 9.8 -27
v -10.2 9.9 -26.5
v -10.2 9.9 -27
v -10.2 9.9 -27.5
v -10.2 10 -24.4
v -10.2 10 -24.5
v -10.2 10.1 -24.3
v -10.2 10.1 -24.4
v -10.2 10.1 -24.5
v -10.2 10.1 -27
v -10.2 10.1 -27.5
v -10.2 10.1 -27.8
v -10.2 10.2 -27.4
v -10.2 10.2 -27.5
v -10.2 10.2 -27.7
v -10.2 10.2 -27.8
v -10.2 10.3 -24.4
v -10.2 10.3 -24.5
v -10.2 10.3 -27.4
v -10.2 10.3 -27.7
v -10.2 10.4 -24.3
v -10.2 10.4 -24.4
v -10.2 10.4 -26.9
v -10.2 10.4 -27.3
v -10.2 10.4 -27.4
v -10.2 10.4 -27.7
v -10.2 10.5 -24.4
v -10.2 10.5 -24.5
v -10.2 10.5 -27
v -10.2 10.5 -27.3
v -10.2 10.6 -26.9
v -10.2 10.6 -27
v -10.2 10.6 -27.4
v -10.1 9.6 -25.8
v -10.1 9.6 -26.1
v -10.1 9.7 -25.8
v -10.1 9.7 -26.1
v -10.1 9.7 -26.4
v -10.1 9.8 -24.4
v -10.1 9.8 -24.5
v -10.1 9.8 -26.1
v -10.1 9.8 -26.4
v -10.1 9.8 -26.5
v -10.1 9.9 -26.4
v -10.1 9.9 -26.5
v -10.1 9.9 -27
v -10.1 10 -24.4
v -10.1 10 -24.5
v -10.1 10.1 -26.5
v -10.1 10.1 -27
v -10.1 10.1 -27.5
v -10.1 10.2 -26.9
v -10.1 10.2 -27
v -10.1 10.2 -27.4
v -10.1 10.2 -27.5
v -10.1 10.4 -26.4
v -10.1 10.4 -26.9
v -10.1 10.4 -27.4
v -10.1 10.5 -26
v -10.1 10.5 -26.3
v -10.1 10.5 -26.4
v -10.1 10.6 -25.7
v -10.1 10.6 -25.8
v -10.1 10.6 -25.9
v -10.1 10.6 -26
v -10.1 10.6 -26.3
v -10.1 10.6 -26.9
v -10.1 10.7 -25.7
v -10.1 10.7 -25.8
v -10.1 10.7 -26
v -10 9.7 -24.4
v -10 9.7 -24.5
v -10 9.8 -24.4
v -10 9.8 -24.5
v -10 9.8 -26.1
v -10 9.8 -26.4
v -10 9.9 -26.1
v -10 9.9 -26.4
v -10 9.9 -26.5
v -10 10 -26.4
v -10 10 -26.5
v -10 10.1 -26.5
v -10 10.1 -27
v -10 10.2 -26.4
v -10 10.2 -26.5
v -10 10.2 -26.9
v -10 10.2 -27
v -10 10.4 -24.3
v -10 10.4 -24.4
v -10 10.4 -26
v -10 10.4 -26.3
v -10 10.4 -26.4
v -10 10.4 -26.9
v -10 10.5 -26
v -10 10.5 -26.3
v -10 10.5 -26.4
v -10 10.6 -24.3
v -10 10.6 -24.4
v -9.9 9.7 -25.8
v -9.9 9.7 -26.1
v -9.9 9.9 -25.8
v -9.9 9.9 -25.9
v -9.9 9.9 -26.1
v -9.9 9.9 -26.4
v -9.9 10 -26.4
v -9.9 10 -26.5
v -9.9 10.1 -26
v -9.9 10.1 -26.1
v -9.9 10.2 -26.4
v -9.9 10.2 -26.5
v -9.9 10.4 -25.7
v -9.9 10.4 -25.9
v -9.9 10.4 -26
v -9.9 10.4 -26.4
v -9.9 10.6 -25.7
v -9.9 10.6 -25.9
v -9.9 10.6 -26
v -9.8 9.9 -25.8
v -9.8 9.9 -25.9
v -9.8 9.9 -26.1
v -9.8 10.1 -25.7
v -9.8 10.1 -25.8
v -9.8 10.1 -25.9
v -9.8 10.1 -26
v -9.8 10.1 -26.1
v -9.8 10.4 -25.7
v -9.8 10.4 -26
v -11.2 10.5 -24.3
v -11.2 10.6 -24.3
v -11.1 10.3 -24.3
v -11.1 10.5 -24.3
v -10.9 10.1 -24.3
v -10.9 10.3 -24.3
v -10.7 10.5 -24.3
v -10.7 10.6 -24.3
v -10.4 10.1 -24.3
v -10.4 10.3 -24.3
v -10.3 10.1 -24.3
v -10.3 10.3 -24.3
v -10.3 10.5 -24.3
v -10.3 10.6 -24.3
v -10.2 10.1 -24.3
v -10.2 10.4 -24.3
v -10 10.4 -24.3
v -10 10.6 -24.3
v -11.1 9.7 -24.4
v -11.1 9.8 -24.4
v -11 9.8 -24.4
v -11 9.9 -24.4
v -11 10 -24.4
v -10.9 9.9 -24.4
v -10.9 10 -24.4
v -10.9 10.1 -24.4
v -10.8 9.8 -24.4
v -10.8 10 -24.4
v -10.6 9.7 -24.4
v -10.6 9.8 -24.4
v -10.4 10.1 -24.4
v -10.3 9.7 -24.4
v -10.3 9.8 -24.4
v -10.3 10.1 -24.4
v -10.2 10 -24.4
v -10.2 10.1 -24.4
v -10.1 9.8 -24.4
v -10.1 10 -24.4
v -10 9.7 -24.4
v -10 9.8 -24.4
v -11.3 10.1 -25.7
v -11.3 10.4 -25.7
v -11.2 10.4 -25.7
v -11.2 10.6 -25.7
v -11 10.6 -25.7
v -11 10.7 -25.7
v -10.8 10.4 -25.7
v -10.8 10.7 -25.7
v -10.8 10.8 -25.7
v -10.7 10.1 -25.7
v -10.7 10.2 -25.7
v -10.6 10.2 -25.7
v -10.6 10.3 -25.7
v -10.6 10.4 -25.7
v -10.6 10.6 -25.7
v -10.5 10.2 -25.7
v -10.5 10.3 -25.7
v -10.4 10.1 -25.7
v -10.4 10.2 -25.7
v -10.4 10.6 -25.7
v -10.4 10.8 -25.7
v -10.3 10.7 -25.7
v -10.3 10.8 -25.7
v -10.1 10.1 -25.7
v -10.1 10.2 -25.7
v -10.1 10.6 -25.7
v -10.1 10.7 -25.7
v -9.9 10.1 -25.7
v -9.9 10.2 -25.7
v -9.9 10.4 -25.7
v -9.9 10.6 -25.7
v -9.8 10.1 -25.7
v -9.8 10.4 -25.7
v -11.3 9.9 -25.8
v -11.3 10.1 -25.8
v -11.2 9.7 -25.8
v -11.2 9.9 -25.8
v -11.1 9.7 -25.8
v -11.1 9.8 -25.8
v -11 9.6 -25.8
v -11 9.7 -25.8
v -11 9.8 -25.8
v -10.9 9.6 -25.8
v -10.9 9.7 -25.8
v -10.8 9.5 -25.8
v -10.8 9.6 -25.8
v -10.6 10 -25.8
v -10.6 10.1 -25.8
v -10.5 10 -25.8
v -10.5 10.1 -25.8
v -10.3 9.5 -25.8
v -10.3 9.6 -25.8
v -10.1 9.6 -25.8
v -10.1 9.7 -25.8
v -10.1 10 -25.8
v -10.1 10.1 -25.8
v -10 9.9 -25.8
v -10 10 -25.8
v -9.9 9.7 -25.8
v -9.9 9.9 -25.8
v -9.9 10.1 -25.8
v -9.8 9.9 -25.8
v -9.8 10.1 -25.8
v -11.2 10.5 -24.4
v -11.2 10.6 -24.4
v -11.1 10.3 -24.4
v -11.1 10.5 -24.4
v -11 10.4 -24.4
v -11 10.5 -24.4
v -10.9 10.1 -24.4
v -10.9 10.3 -24.4
v -10.9 10.4 -24.4
v -10.9 10.5 -24.4
v -10.8 10.1 -24.4
v -10.8 10.3 -24.4
v -10.8 10.4 -24.4
v -10.7 10.5 -24.4
v -10.7 10.6 -24.4
v -10.5 10.4 -24.4
v -10.4 10.4 -24.4
v -10.4 10.5 -24.4
v -10.3 10.1 -24.4
v -10.3 10.3 -24.4
v -10.3 10.5 -24.4
v -10.3 10.6 -24.4
v -10.2 10.1 -24.4
v -10.2 10.3 -24.4
v -10.2 10.4 -24.4
v -10.2 10.5 -24.4
v -10 10.4 -24.4
v -10 10.6 -24.4
v -11.1 9.7 -24.5
v -11.1 9.8 -24.5
v -11 9.8 -24.5
v -11 9.9 -24.5
v -11 10 -24.5
v -11 10.4 -24.5
v -11 10.5 -24.5
v -10.9 9.8 -24.5
v -10.9 9.9 -24.5
v -10.9 10 -24.5
v -10.9 10.1 -24.5
v -10.9 10.3 -24.5
v -10.9 10.4 -24.5
v -10.9 10.5 -24.5
v -10.8 9.9 -24.5
v -10.8 10 -24.5
v -10.8 10.1 -24.5
v -10.8 10.3 -24.5
v -10.8 10.4 -24.5
v -10.7 9.8 -24.5
v -10.7 9.9 -24.5
v -10.7 10.3 -24.5
v -10.7 10.4 -24.5
v -10.6 9.7 -24.5
v -10.6 9.8 -24.5
v -10.6 9.9 -24.5
v -10.4 10.3 -24.5
v -10.4 10.4 -24.5
v -10.4 10.5 -24.5
v -10.3 9.7 -24.5
v -10.3 9.8 -24.5
v -10.3 9.9 -24.5
v -10.3 10 -24.5
v -10.3 10.1 -24.5
v -10.3 10.3 -24.5
v -10.2 10 -24.5
v -10.2 10.1 -24.5
v -10.2 10.3 -24.5
v -10.2 10.5 -24.5
v -10.1 9.8 -24.5
v -10.1 10 -24.5
v -10 9.7 -24.5
v -10 9.8 -24.5
v -10.9 9.8 -24.6
v -10.9 9.9 -24.6
v -10.8 9.9 -24.6
v -10.8 10 -24.6
v -10.7 9.8 -24.6
v -10.7 9.9 -24.6
v -10.7 10 -24.6
v -10.4 9.9 -24.6
v -10.4 10 -24.6
v -10.3 9.9 -24.6
v -10.3 10 -24.6
v -10.8 10.2 -24.8
v -10.8 10.3 -24.8
v -10.7 10.2 -24.8
v -10.7 10.3 -24.8
v -10.7 10.4 -24.8
v -10.6 10.3 -24.8
v -10.6 10.4 -24.8
v -10.5 10.3 -24.8
v -10.5 10.4 -24.8
v -10.4 10.2 -24.8
v -10.4 10.3 -24.8
v -10.4 10.4 -24.8
v -10.3 10.2 -24.8
v -10.3 10.3 -24.8
v -10.8 10 -24.9
v -10.8 10.1 -24.9
v -10.7 9.9 -24.9
v -10.7 10 -24.9
v -10.7 10.1 -24.9
v -10.6 9.9 -24.9
v -10.6 10 -24.9
v -10.5 9.9 -24.9
v -10.5 10 -24.9
v -10.4 9.9 -24.9
v -10.4 10 -24.9
v -10.4 10.1 -24.9
v -10.3 10 -24.9
v -10.3 10.1 -24.9
v -10.8 10.1 -25.3
v -10.8 10.2 -25.3
v -10.7 10.1 -25.3
v -10.7 10.2 -25.3
v -10.7 10.3 -25.3
v -10.6 10.2 -25.3
v -10.6 10.3 -25.3
v -10.6 10.4 -25.3
v -10.5 10.2 -25.3
v -10.5 10.3 -25.3
v -10.5 10.4 -25.3
v -10.4 10.1 -25.3
v -10.4 10.2 -25.3
v -10.4 10.3 -25.3
v -10.3 10.1 -25.3
v -10.3 10.2 -25.3
v -10.7 10 -25.4
v -10.7 10.1 -25.4
v -10.6 9.9 -25.4
v -10.6 10 -25.4
v -10.6 10.1 -25.4
v -10.5 9.9 -25.4
v -10.5 10 -25.4
v -10.5 10.1 -25.4
v -10.4 10 -25.4
v -10.4 10.1 -25.4
v -11.3 10.1 -26
v -11.3 10.3 -26
v -11.3 10.4 -26
v -11.2 10.1 -26
v -11.2 10.3 -26
v -11.2 10.4 -26
v -11.2 10.6 -26
v -11.1 10.4 -26
v -11.1 10.5 -26
v -11 10.5 -26
v -11 10.6 -26
v -11 10.7 -26
v -10.9 10.6 -26
v -10.8 10.6 -26
v -10.8 10.7 -26
v -10.8 10.8 -26
v -10.4 10.7 -26
v -10.3 10.6 -26
v -10.3 10.7 -26
v -10.3 10.8 -26
v -10.1 10.5 -26
v -10.1 10.6 -26
v -10.1 10.7 -26
v -10 10.4 -26
v -10 10.5 -26
v -9.9 10.1 -26
v -9.9 10.4 -26
v -9.9 10.6 -26
v -9.8 10.1 -26
v -9.8 10.4 -26
v -11.3 9.9 -26.1
v -11.3 10.1 -26.1
v -11.2 9.7 -26.1
v -11.2 9.9 -26.1
v -11.2 10.1 -26.1
v -11.1 9.8 -26.1
v -11.1 9.9 -26.1
v -11 9.6 -26.1
v -11 9.7 -26.1
v -11 9.8 -26.1
v -10.9 9.6 -26.1
v -10.9 9.7 -26.1
v -10.8 9.5 -26.1
v -10.8 9.6 -26.1
v -10.8 9.7 -26.1
v -10.3 9.5 -26.1
v -10.3 9.6 -26.1
v -10.3 9.7 -26.1
v -10.1 9.6 -26.1
v -10.1 9.7 -26.1
v -10.1 9.8 -26.1
v -10 9.8 -26.1
v -10 9.9 -26.1
v -9.9 9.7 -26.1
v -9.9 9.9 -26.1
v -9.9 10.1 -26.1
v -9.8 9.9 -26.1
v -9.8 10.1 -26.1
v -11.2 9.9 -26.4
v -11.2 10 -26.4
v -11.2 10.2 -26.4
v -11.2 10.4 -26.4
v -11.1 9.8 -26.4
v -11.1 9.9 -26.4
v -11.1 10 -26.4
v -11.1 10.2 -26.4
v -11.1 10.3 -26.4
v -11.1 10.4 -26.4
v -11.1 10.5 -26.4
v -11 9.7 -26.4
v -11 9.8 -26.4
v -11 9.9 -26.4
v -11 10.4 -26.4
v -11 10.5 -26.4
v -10.9 9.7 -26.4
v -10.9 9.8 -26.4
v -10.8 9.6 -26.4
v -10.8 9.7 -26.4
v -10.8 10.6 -26.4
v -10.8 10.7 -26.4
v -10.7 9.6 -26.4
v -10.7 9.7 -26.4
v -10.7 10.6 -26.4
v -10.7 10.7 -26.4
v -10.6 9.7 -26.4
v -10.4 10.6 -26.4
v -10.4 10.7 -26.4
v -10.3 9.6 -26.4
v -10.3 9.7 -26.4
v -10.3 10.6 -26.4
v -10.3 10.7 -26.4
v -10.2 9.7 -26.4
v -10.2 9.8 -26.4
v -10.1 9.7 -26.4
v -10.1 9.8 -26.4
v -10.1 9.9 -26.4
v -10.1 10.4 -26.4
v -10.1 10.5 -26.4
v -10 9.8 -26.4
v -10 9.9 -26.4
v -10 10 -26.4
v -10 10.2 -26.4
v -10 10.4 -26.4
v -10 10.5 -26.4
v -9.9 9.9 -26.4
v -9.9 10 -26.4
v -9.9 10.2 -26.4
v -9.9 10.4 -26.4
v -11.2 10 -26.5
v -11.2 10.2 -26.5
v -11.1 9.9 -26.5
v -11.1 10 -26.5
v -11.1 10.1 -26.5
v -11.1 10.2 -26.5
v -11 9.8 -26.5
v -11 9.9 -26.5
v -11 10.1 -26.5
v -10.9 9.7 -26.5
v -10.9 9.8 -26.5
v -10.9 9.9 -26.5
v -10.7 9.7 -26.5
v -10.7 9.8 -26.5
v -10.4 9.7 -26.5
v -10.4 9.8 -26.5
v -10.2 9.7 -26.5
v -10.2 9.8 -26.5
v -10.2 9.9 -26.5
v -10.1 9.8 -26.5
v -10.1 9.9 -26.5
v -10.1 10.1 -26.5
v -10 9.9 -26.5
v -10 10 -26.5
v -10 10.1 -26.5
v -10 10.2 -26.5
v -9.9 10 -26.5
v -9.9 10.2 -26.5
v -11.1 10.2 -26.9
v -11.1 10.4 -26.9
v -11 10.2 -26.9
v -11 10.4 -26.9
v -11 10.6 -26.9
v -10.9 10.4 -26.9
v -10.9 10.6 -26.9
v -10.7 10.6 -26.9
v -10.7 10.7 -26.9
v -10.4 10.6 -26.9
v -10.4 10.7 -26.9
v -10.2 10.4 -26.9
v -10.2 10.6 -26.9
v -10.1 10.2 -26.9
v -10.1 10.4 -26.9
v -10.1 10.6 -26.9
v -10 10.2 -26.9
v -10 10.4 -26.9
v -11.1 10.1 -27
v -11.1 10.2 -27
v -11 9.9 -27
v -11 10.1 -27
v -11 10.2 -27
v -10.9 9.8 -27
v -10.9 9.9 -27
v -10.9 10.1 -27
v -10.7 9.7 -27
v -10.7 9.8 -27
v -10.7 9.9 -27
v -10.4 9.7 -27
v -10.4 9.8 -27
v -10.4 9.9 -27
v -10.2 9.8 -27
v -10.2 9.9 -27
v -10.2 10.1 -27
v -10.1 9.9 -27
v -10.1 10.1 -27
v -10.1 10.2 -27
v -10 10.1 -27
v -10 10.2 -27
v -11 10.2 -27.4
v -11 10.4 -27.4
v -10.9 10.2 -27.4
v -10.9 10.4 -27.4
v -10.9 10.6 -27.4
v -10.8 10.4 -27.4
v -10.8 10.5 -27.4
v -10.7 10.5 -27.4
v -10.7 10.6 -27.4
v -10.4 10.5 -27.4
v -10.4 10.6 -27.4
v -10.3 10.4 -27.4
v -10.3 10.5 -27.4
v -10.2 10.2 -27.4
v -10.2 10.3 -27.4
v -10.2 10.4 -27.4
v -10.2 10.6 -27.4
v -10.1 10.2 -27.4
v -10.1 10.4 -27.4
v -11 10.1 -27.5
v -11 10.2 -27.5
v -10.9 9.9 -27.5
v -10.9 10.1 -27.5
v -10.9 10.2 -27.5
v -10.8 10 -27.5
v -10.8 10.1 -27.5
v -10.7 9.8 -27.5
v -10.7 9.9 -27.5
v -10.7 10 -27.5
v -10.4 9.8 -27.5
v -10.4 9.9 -27.5
v -10.4 10 -27.5
v -10.3 10 -27.5
v -10.3 10.1 -27.5
v -10.2 9.9 -27.5
v -10.2 10.1 -27.5
v -10.2 10.2 -27.5
v -10.1 10.1 -27.5
v -10.1 10.2 -27.5
v -10.9 10.2 -27.7
v -10.9 10.4 -27.7
v -10.8 10.2 -27.7
v -10.8 10.4 -27.7
v -10.8 10.5 -27.7
v -10.7 10.4 -27.7
v -10.7 10.5 -27.7
v -10.7 10.6 -27.7
v -10.6 10.5 -27.7
v -10.6 10.6 -27.7
v -10.4 10.4 -27.7
v -10.4 10.5 -27.7
v -10.4 10.6 -27.7
v -10.3 10.2 -27.7
v -10.3 10.3 -27.7
v -10.3 10.4 -27.7
v -10.3 10.5 -27.7
v -10.2 10.2 -27.7
v -10.2 10.3 -27.7
v -10.2 10.4 -27.7
v -10.9 10.1 -27.8
v -10.9 10.2 -27.8
v -10.8 10 -27.8
v -10.8 10.1 -27.8
v -10.8 10.2 -27.8
v -10.7 9.9 -27.8
v -10.7 10 -27.8
v -10.7 10.1 -27.8
v -10.4 9.9 -27.8
v -10.4 10 -27.8
v -10.4 10.1 -27.8
v -10.3 10 -27.8
v -10.3 10.1 -27.8
v -10.3 10.2 -27.8
v -10.2 10.1 -27.8
v -10.2 10.2 -27.8
v -10.8 10.2 -28
v -10.8 10.4 -28
v -10.7 10.2 -28
v -10.7 10.3 -28
v -10.7 10.4 -28
v -10.7 10.5 -28
v -10.6 10.3 -28
v -10.6 10.4 -28
v -10.5 10.3 -28
v -10.5 10.4 -28
v -10.4 10.2 -28
v -10.4 10.3 -28
v -10.4 10.4 -28
v -10.4 10.5 -28
v -10.3 10.2 -28
v -10.3 10.4 -28
v -10.8 10.1 -28.1
v -10.8 10.2 -28.1
v -10.7 10 -28.1
v -10.7 10.1 -28.1
v -10.7 10.2 -28.1
v -10.4 10 -28.1
v -10.4 10.1 -28.1
v -10.4 10.2 -28.1
v -10.3 10.1 -28.1
v -10.3 10.2 -28.1
v -10.7 10.2 -28.2
v -10.7 10.3 -28.2
v -10.6 10.2 -28.2
v -10.6 10.3 -28.2
v -10.6 10.4 -28.2
v -10.5 10.2 -28.2
v -10.5 10.3 -28.2
v -10.5 10.4 -28.2
v -10.4 10.2 -28.2
v -10.4 10.3 -28.2
v -10.7 10.1 -28.3
v -10.7 10.2 -28.3
v -10.6 10.1 -28.3
v -10.6 10.2 -28.3
v -10.5 10.1 -28.3
v -10.5 10.2 -28.3
v -10.4 10.1 -28.3
v -10.4 10.2 -28.3
v -10.6 10.2 -28.4
v -10.6 10.3 -28.4
v -10.5 10.2 -28.4
v -10.5 10.3 -28.4
v -10.6 10.1 -28.5
v -10.6 10.2 -28.5
v -10.5 10.1 -28.5
v -10.5 10.2 -28.5
v -10.8 9.5 -25.8
v -10.3 9.5 -25.8
v -10.8 9.5 -26.1
v -10.3 9.5 -26.1
v -11 9.6 -25.8
v -10.9 9.6 -25.8
v -10.8 9.6 -25.8
v -10.3 9.6 -25.8
v -10.1 9.6 -25.8
v -11 9.6 -26.1
v -10.9 9.6 -26.1
v -10.8 9.6 -26.1
v -10.3 9.6 -26.1
v -10.1 9.6 -26.1
v -10.8 9.6 -26.3
v -10.7 9.6 -26.3
v -10.8 9.6 -26.4
v -10.7 9.6 -26.4
v -10.3 9.6 -26.4
v -11.1 9.7 -24.4
v -10.6 9.7 -24.4
v -10.3 9.7 -24.4
v -10 9.7 -24.4
v -11.1 9.7 -24.5
v -10.6 9.7 -24.5
v -10.3 9.7 -24.5
v -10 9.7 -24.5
v -11.2 9.7 -25.8
v -11.1 9.7 -25.8
v -11 9.7 -25.8
v -10.1 9.7 -25.8
v -9.9 9.7 -25.8
v -11.2 9.7 -26
v -11.1 9.7 -26
v -11.2 9.7 -26.1
v -11 9.7 -26.1
v -10.9 9.7 -26.1
v -10.8 9.7 -26.1
v -10.3 9.7 -26.1
v -10.1 9.7 -26.1
v -9.9 9.7 -26.1
v -10.8 9.7 -26.3
v -11 9.7 -26.4
v -10.9 9.7 -26.4
v -10.8 9.7 -26.4
v -10.7 9.7 -26.4
v -10.6 9.7 -26.4
v -10.3 9.7 -26.4
v -10.2 9.7 -26.4
v -10.1 9.7 -26.4
v -10.9 9.7 -26.5
v -10.7 9.7 -26.5
v -10.4 9.7 -26.5
v -10.2 9.7 -26.5
v -10.7 9.7 -26.6
v -10.6 9.7 -26.6
v -10.7 9.7 -27
v -10.4 9.7 -27
v -10.6 9.8 -24.4
v -10.3 9.8 -24.4
v -10.9 9.8 -24.5
v -10.7 9.8 -24.5
v -10.6 9.8 -24.5
v -10.3 9.8 -24.5
v -10.9 9.8 -24.6
v -10.7 9.8 -24.6
v -11.1 9.8 -26.1
v -11 9.8 -26.1
v -10.1 9.8 -26.1
v -10 9.8 -26.1
v -11.1 9.8 -26.4
v -11 9.8 -26.4
v -10.9 9.8 -26.4
v -10.2 9.8 -26.4
v -10.1 9.8 -26.4
v -10 9.8 -26.4
v -11 9.8 -26.5
v -10.9 9.8 -26.5
v -10.7 9.8 -26.5
v -10.4 9.8 -26.5
v -10.2 9.8 -26.5
v -10.1 9.8 -26.5
v -10.8 9.8 -26.6
v -10.7 9.8 -26.6
v -10.9 9.8 -26.7
v -10.8 9.8 -26.7
v -10.9 9.8 -27
v -10.7 9.8 -27
v -10.4 9.8 -27
v -10.2 9.8 -27
v -10.7 9.8 -27.5
v -10.4 9.8 -27.5
v -10.7 9.9 -24.5
v -10.6 9.9 -24.5
v -10.3 9.9 -24.5
v -10.7 9.9 -24.6
v -10.4 9.9 -24.6
v -10.3 9.9 -24.6
v -10.7 9.9 -24.7
v -10.6 9.9 -24.7
v -10.7 9.9 -24.9
v -10.6 9.9 -24.9
v -10.5 9.9 -24.9
v -10.4 9.9 -24.9
v -10.6 9.9 -25
v -10.5 9.9 -25
v -10.6 9.9 -25.4
v -10.5 9.9 -25.4
v -11.3 9.9 -25.8
v -11.2 9.9 -25.8
v -9.9 9.9 -25.8
v -9.8 9.9 -25.8
v -9.9 9.9 -25.9
v -9.8 9.9 -25.9
v -11.2 9.9 -26
v -11.3 9.9 -26.1
v -11.2 9.9 -26.1
v -11.1 9.9 -26.1
v -10 9.9 -26.1
v -9.9 9.9 -26.1
v -9.8 9.9 -26.1
v -11.2 9.9 -26.4
v -11.1 9.9 -26.4
v -11 9.9 -26.4
v -10.1 9.9 -26.4
v -10 9.9 -26.4
v -9.9 9.9 -26.4
v -11.1 9.9 -26.5
v -11 9.9 -26.5
v -10.9 9.9 -26.5
v -10.2 9.9 -26.5
v -10.1 9.9 -26.5
v -10 9.9 -26.5
v -10.9 9.9 -26.7
v -11 9.9 -26.9
v -10.9 9.9 -26.9
v -11 9.9 -27
v -10.9 9.9 -27
v -10.7 9.9 -27
v -10.4 9.9 -27
v -10.2 9.9 -27
v -10.1 9.9 -27
v -10.9 9.9 -27.5
v -10.7 9.9 -27.5
v -10.4 9.9 -27.5
v -10.2 9.9 -27.5
v -10.7 9.9 -27.8
v -10.4 9.9 -27.8
v -10.8 10 -24.6
v -10.7 10 -24.6
v -10.4 10 -24.6
v -10.3 10 -24.6
v -10.8 10 -24.7
v -10.7 10 -24.7
v -10.4 10 -24.7
v -10.3 10 -24.7
v -10.8 10 -24.9
v -10.7 10 -24.9
v -10.6 10 -24.9
v -10.5 10 -24.9
v -10.4 10 -24.9
v -10.3 10 -24.9
v -10.6 10 -25
v -10.5 10 -25
v -10.7 10 -25.4
v -10.6 10 -25.4
v -10.5 10 -25.4
v -10.4 10 -25.4
v -10.6 10 -25.6
v -10.5 10 -25.6
v -10.6 10 -25.8
v -10.5 10 -25.8
v -11.2 10 -26.4
v -11.1 10 -26.4
v -10 10 -26.4
v -9.9 10 -26.4
v -11.2 10 -26.5
v -11.1 10 -26.5
v -10 10 -26.5
v -9.9 10 -26.5
v -10.8 10 -27.5
v -10.7 10 -27.5
v -10.4 10 -27.5
v -10.3 10 -27.5
v -10.8 10 -27.8
v -10.7 10 -27.8
v -10.4 10 -27.8
v -10.3 10 -27.8
v -10.7 10 -28.1
v -10.4 10 -28.1
v -10.9 10.1 -24.3
v -10.4 10.1 -24.3
v -10.3 10.1 -24.3
v -10.2 10.1 -24.3
v -10.9 10.1 -24.4
v -10.4 10.1 -24.4
v -10.3 10.1 -24.4
v -10.2 10.1 -24.4
v -10.8 10.1 -24.9
v -10.7 10.1 -24.9
v -10.4 10.1 -24.9
v -10.3 10.1 -24.9
v -10.8 10.1 -25.3
v -10.7 10.1 -25.3
v -10.4 10.1 -25.3
v -10.3 10.1 -25.3
v -10.7 10.1 -25.4
v -10.6 10.1 -25.4
v -10.5 10.1 -25.4
v -10.4 10.1 -25.4
v -10.6 10.1 -25.6
v -10.5 10.1 -25.6
v -11.3 10.1 -25.7
v -10.7 10.1 -25.7
v -10.6 10.1 -25.7
v -10.5 10.1 -25.7
v -10.4 10.1 -25.7
v -10.1 10.1 -25.7
v -9.9 10.1 -25.7
v -9.8 10.1 -25.7
v -11.3 10.1 -25.8
v -10.6 10.1 -25.8
v -10.5 10.1 -25.8
v -10.1 10.1 -25.8
v -9.9 10.1 -25.8
v -9.8 10.1 -25.8
v -11.1 10.1 -26.5
v -11 10.1 -26.5
v -10.1 10.1 -26.5
v -10 10.1 -26.5
v -11.1 10.1 -26.7
v -11 10.1 -26.7
v -11 10.1 -26.8
v -11.1 10.1 -27
v -11 10.1 -27
v -10.9 10.1 -27
v -10.2 10.1 -27
v -10.1 10.1 -27
v -10 10.1 -27
v -11 10.1 -27.5
v -10.9 10.1 -27.5
v -10.8 10.1 -27.5
v -10.3 10.1 -27.5
v -10.2 10.1 -27.5
v -10.1 10.1 -27.5
v -10.9 10.1 -27.8
v -10.8 10.1 -27.8
v -10.7 10.1 -27.8
v -10.4 10.1 -27.8
v -10.3 10.1 -27.8
v -10.2 10.1 -27.8
v -10.8 10.1 -28.1
v -10.7 10.1 -28.1
v -10.4 10.1 -28.1
v -10.3 10.1 -28.1
v -10.7 10.1 -28.3
v -10.6 10.1 -28.3
v -10.5 10.1 -28.3
v -10.4 10.1 -28.3
v -10.6 10.1 -28.5
v -10.5 10.1 -28.5
v -11.1 10.3 -24.3
v -10.9 10.3 -24.3
v -11.1 10.3 -24.4
v -10.9 10.3 -24.4
v -10.8 10.3 -24.4
v -10.3 10.3 -24.4
v -10.2 10.3 -24.4
v -10.9 10.3 -24.5
v -10.8 10.3 -24.5
v -10.3 10.3 -24.5
v -10.2 10.3 -24.5
v -10.2 10.4 -24.3
v -10 10.4 -24.3
v -11 10.4 -24.4
v -10.9 10.4 -24.4
v -10.2 10.4 -24.4
v -10 10.4 -24.4
v -11 10.4 -24.5
v -10.9 10.4 -24.5
v -11.2 10.5 -24.3
v -11.1 10.5 -24.3
v -11.2 10.5 -24.4
v -11.1 10.5 -24.4
v -11.1 9.8 -24.4
v -11 9.8 -24.4
v -10.1 9.8 -24.4
v -10 9.8 -24.4
v -11.1 9.8 -24.5
v -11 9.8 -24.5
v -10.1 9.8 -24.5
v -10 9.8 -24.5
v -10.9 9.9 -24.5
v -10.8 9.9 -24.5
v -10.9 9.9 -24.6
v -10.8 9.9 -24.6
v -11 10 -24.4
v -10.9 10 -24.4
v -10.2 10 -24.4
v -10.1 10 -24.4
v -11 10 -24.5
v -10.9 10 -24.5
v -10.2 10 -24.5
v -10.1 10 -24.5
v -10.9 10.1 -24.4
v -10.8 10.1 -24.4
v -10.3 10.1 -24.4
v -10.2 10.1 -24.4
v -10.9 10.1 -24.5
v -10.8 10.1 -24.5
v -10.3 10.1 -24.5
v -10.2 10.1 -24.5
v -11.3 10.1 -26
v -11.2 10.1 -26
v -9.9 10.1 -26
v -9.8 10.1 -26
v -11.3 10.1 -26.1
v -11.2 10.1 -26.1
v -9.9 10.1 -26.1
v -9.8 10.1 -26.1
v -10.8 10.2 -24.8
v -10.7 10.2 -24.8
v -10.4 10.2 -24.8
v -10.3 10.2 -24.8
v -10.8 10.2 -25.3
v -10.7 10.2 -25.3
v -10.6 10.2 -25.3
v -10.5 10.2 -25.3
v -10.4 10.2 -25.3
v -10.3 10.2 -25.3
v -10.7 10.2 -25.7
v -10.6 10.2 -25.7
v -10.5 10.2 -25.7
v -10.4 10.2 -25.7
v -11.2 10.2 -26.4
v -11.1 10.2 -26.4
v -10 10.2 -26.4
v -9.9 10.2 -26.4
v -11.2 10.2 -26.5
v -11.1 10.2 -26.5
v -10 10.2 -26.5
v -9.9 10.2 -26.5
v -11.1 10.2 -26.9
v -11 10.2 -26.9
v -10.1 10.2 -26.9
v -10 10.2 -26.9
v -11.1 10.2 -27
v -11 10.2 -27
v -10.1 10.2 -27
v -10 10.2 -27
v -11 10.2 -27.4
v -10.9 10.2 -27.4
v -10.2 10.2 -27.4
v -10.1 10.2 -27.4
v -11 10.2 -27.5
v -10.9 10.2 -27.5
v -10.2 10.2 -27.5
v -10.1 10.2 -27.5
v -10.9 10.2 -27.7
v -10.8 10.2 -27.7
v -10.3 10.2 -27.7
v -10.2 10.2 -27.7
v -10.9 10.2 -27.8
v -10.8 10.2 -27.8
v -10.3 10.2 -27.8
v -10.2 10.2 -27.8
v -10.8 10.2 -28
v -10.7 10.2 -28
v -10.4 10.2 -28
v -10.3 10.2 -28
v -10.8 10.2 -28.1
v -10.7 10.2 -28.1
v -10.4 10.2 -28.1
v -10.3 10.2 -28.1
v -10.7 10.2 -28.2
v -10.6 10.2 -28.2
v -10.5 10.2 -28.2
v -10.4 10.2 -28.2
v -10.7 10.2 -28.3
v -10.6 10.2 -28.3
v -10.5 10.2 -28.3
v -10.4 10.2 -28.3
v -10.6 10.2 -28.4
v -10.5 10.2 -28.4
v -10.6 10.2 -28.5
v -10.5 10.2 -28.5
v -10.8 10.3 -24.5
v -10.7 10.3 -24.5
v -10.4 10.3 -24.5
v -10.3 10.3 -24.5
v -10.4 10.3 -24.6
v -10.3 10.3 -24.6
v -10.4 10.3 -24.7
v -10.8 10.3 -24.8
v -10.7 10.3 -24.8
v -10.6 10.3 -24.8
v -10.5 10.3 -24.8
v -10.4 10.3 -24.8
v -10.3 10.3 -24.8
v -10.6 10.3 -25.2
v -10.5 10.3 -25.2
v -10.7 10.3 -25.3
v -10.6 10.3 -25.3
v -10.5 10.3 -25.3
v -10.4 10.3 -25.3
v -10.6 10.3 -25.7
v -10.5 10.3 -25.7
v -10.7 10.3 -28
v -10.6 10.3 -28
v -10.5 10.3 -28
v -10.4 10.3 -28
v -10.7 10.3 -28.2
v -10.6 10.3 -28.2
v -10.5 10.3 -28.2
v -10.4 10.3 -28.2
v -10.6 10.3 -28.4
v -10.5 10.3 -28.4
v -10.9 10.4 -24.4
v -10.8 10.4 -24.4
v -10.5 10.4 -24.4
v -10.4 10.4 -24.4
v -10.9 10.4 -24.5
v -10.8 10.4 -24.5
v -10.7 10.4 -24.5
v -10.5 10.4 -24.5
v -10.4 10.4 -24.5
v -10.5 10.4 -24.7
v -10.4 10.4 -24.7
v -10.7 10.4 -24.8
v -10.6 10.4 -24.8
v -10.5 10.4 -24.8
v -10.4 10.4 -24.8
v -10.6 10.4 -25.2
v -10.5 10.4 -25.2
v -10.6 10.4 -25.3
v -10.5 10.4 -25.3
v -11.3 10.4 -25.7
v -11.2 10.4 -25.7
v -9.9 10.4 -25.7
v -9.8 10.4 -25.7
v -11.3 10.4 -25.8
v -11.2 10.4 -25.8
v -9.9 10.4 -25.9
v -11.3 10.4 -26
v -11.2 10.4 -26
v -11.1 10.4 -26
v -10 10.4 -26
v -9.9 10.4 -26
v -9.8 10.4 -26
v -11.2 10.4 -26.1
v -11.1 10.4 -26.1
v -10 10.4 -26.3
v -11.2 10.4 -26.4
v -11.1 10.4 -26.4
v -11 10.4 -26.4
v -10.1 10.4 -26.4
v -10 10.4 -26.4
v -9.9 10.4 -26.4
v -11.1 10.4 -26.9
v -11 10.4 -26.9
v -10.9 10.4 -26.9
v -10.2 10.4 -26.9
v -10.1 10.4 -26.9
v -10 10.4 -26.9
v -10.2 10.4 -27.3
v -11 10.4 -27.4
v -10.9 10.4 -27.4
v -10.8 10.4 -27.4
v -10.3 10.4 -27.4
v -10.2 10.4 -27.4
v -10.1 10.4 -27.4
v -10.9 10.4 -27.7
v -10.8 10.4 -27.7
v -10.7 10.4 -27.7
v -10.4 10.4 -27.7
v -10.3 10.4 -27.7
v -10.2 10.4 -27.7
v -10.8 10.4 -28
v -10.7 10.4 -28
v -10.6 10.4 -28
v -10.5 10.4 -28
v -10.4 10.4 -28
v -10.3 10.4 -28
v -10.6 10.4 -28.2
v -10.5 10.4 -28.2
v -10.7 10.5 -24.3
v -10.3 10.5 -24.3
v -11 10.5 -24.4
v -10.9 10.5 -24.4
v -10.7 10.5 -24.4
v -10.4 10.5 -24.4
v -10.3 10.5 -24.4
v -10.2 10.5 -24.4
v -11 10.5 -24.5
v -10.9 10.5 -24.5
v -10.4 10.5 -24.5
v -10.2 10.5 -24.5
v -11.1 10.5 -26
v -11 10.5 -26
v -10.1 10.5 -26
v -10 10.5 -26
v -11.1 10.5 -26.1
v -11 10.5 -26.1
v -11 10.5 -26.2
v -10.1 10.5 -26.3
v -10 10.5 -26.3
v -11.1 10.5 -26.4
v -11 10.5 -26.4
v -10.1 10.5 -26.4
v -10 10.5 -26.4
v -10.8 10.5 -27.4
v -10.7 10.5 -27.4
v -10.4 10.5 -27.4
v -10.3 10.5 -27.4
v -10.7 10.5 -27.6
v -10.8 10.5 -27.7
v -10.7 10.5 -27.7
v -10.6 10.5 -27.7
v -10.4 10.5 -27.7
v -10.3 10.5 -27.7
v -10.7 10.5 -28
v -10.4 10.5 -28
v -11.2 10.6 -24.3
v -10.7 10.6 -24.3
v -10.3 10.6 -24.3
v -10 10.6 -24.3
v -11.2 10.6 -24.4
v -10.7 10.6 -24.4
v -10.3 10.6 -24.4
v -10 10.6 -24.4
v -11.2 10.6 -25.7
v -11 10.6 -25.7
v -10.1 10.6 -25.7
v -9.9 10.6 -25.7
v -11.2 10.6 -25.8
v -11.1 10.6 -25.8
v -11 10.6 -25.8
v -10.1 10.6 -25.8
v -11.1 10.6 -25.9
v -11 10.6 -25.9
v -10.1 10.6 -25.9
v -9.9 10.6 -25.9
v -11.2 10.6 -26
v -11 10.6 -26
v -10.9 10.6 -26
v -10.8 10.6 -26
v -10.3 10.6 -26
v -10.1 10.6 -26
v -9.9 10.6 -26
v -11 10.6 -26.2
v -10.9 10.6 -26.2
v -10.3 10.6 -26.2
v -10.3 10.6 -26.3
v -10.1 10.6 -26.3
v -10.8 10.6 -26.4
v -10.7 10.6 -26.4
v -10.4 10.6 -26.4
v -10.3 10.6 -26.4
v -11 10.6 -26.9
v -10.9 10.6 -26.9
v -10.7 10.6 -26.9
v -10.4 10.6 -26.9
v -10.2 10.6 -26.9
v -10.1 10.6 -26.9
v -10.5 10.6 -27
v -10.2 10.6 -27
v -10.6 10.6 -27.3
v -10.5 10.6 -27.3
v -10.9 10.6 -27.4
v -10.7 10.6 -27.4
v -10.6 10.6 -27.4
v -10.4 10.6 -27.4
v -10.2 10.6 -27.4
v -10.7 10.6 -27.6
v -10.6 10.6 -27.6
v -10.7 10.6 -27.7
v -10.6 10.6 -27.7
v -10.4 10.6 -27.7
v -11 10.7 -25.7
v -10.8 10.7 -25.7
v -10.3 10.7 -25.7
v -10.1 10.7 -25.7
v -11 10.7 -25.8
v -10.9 10.7 -25.8
v -10.8 10.7 -25.8
v -10.2 10.7 -25.8
v -10.1 10.7 -25.8
v -10.9 10.7 -25.9
v -10.8 10.7 -25.9
v -10.3 10.7 -25.9
v -10.2 10.7 -25.9
v -11 10.7 -26
v -10.8 10.7 -26
v -10.4 10.7 -26
v -10.3 10.7 -26
v -10.1 10.7 -26
v -10.4 10.7 -26.2
v -10.3 10.7 -26.2
v -10.8 10.7 -26.4
v -10.7 10.7 -26.4
v -10.4 10.7 -26.4
v -10.3 10.7 -26.4
v -10.7 10.7 -26.9
v -10.4 10.7 -26.9
v -10.8 10.8 -25.7
v -10.4 10.8 -25.7
v -10.3 10.8 -25.7
v -10.8 10.8 -25.8
v -10.4 10.8 -25.8
v -10.8 10.8 -26
v -10.3 10.8 -26

# faces
f 4/1/1 2/1/1 1/1/1
f 5/1/1 2/1/1 4/1/1
f 6/1/1 2/1/1 5/1/1
f 7/1/1 4/1/1 3/1/1
f 7/1/1 5/1/1 4/1/1
f 8/1/1 5/1/1 7/1/1
f 9/1/1 7/1/1 3/1/1
f 10/2/1 8/2/1 7/2/1
f 10/1/1 7/1/1 9/1/1
f 11/2/1 8/2/1 10/2/1
f 15/1/1 13/1/1 12/1/1
f 16/2/1 14/2/1 13/2/1
f 16/1/1 13/1/1 15/1/1
f 17/2/1 14/2/1 16/2/1
f 19/2/1 18/2/1 17/2/1
f 22/2/1 19/2/1 17/2/1
f 22/2/1 20/2/1 19/2/1
f 23/2/1 20/2/1 22/2/1
f 24/1/1 22/1/1 21/1/1
f 24/2/1 20/2/1 23/2/1
f 24/1/1 23/1/1 22/1/1
f 25/2/1 20/2/1 24/2/1
f 26/2/1 20/2/1 25/2/1
f 27/1/1 24/1/1 21/1/1
f 27/1/1 25/1/1 24/1/1
f 28/1/1 25/1/1 27/1/1
f 31/2/1 28/2/1 27/2/1
f 32/1/1 25/1/1 28/1/1
f 32/2/1 28/2/1 31/2/1
f 33/1/1 25/1/1 32/1/1
f 36/4/1 35/4/1 34/4/1
f 37/4/1 35/4/1 36/4/1
f 38/1/1 30/1/1 29/1/1
f 39/2/1 31/2/1 30/2/1
f 39/1/1 30/1/1 38/1/1
f 40/2/1 31/2/1 39/2/1
f 43/4/1 42/4/1 41/4/1
f 44/4/1 42/4/1 43/4/1
f 47/2/1 46/2/1 45/2/1
f 48/2/1 46/2/1 47/2/1
f 50/2/1 49/2/1 48/2/1
f 51/2/1 49/2/1 50/2/1
f 56/2/1 53/2/1 52/2/1
f 57/1/1 54/1/1 53/1/1
f 57/2/1 53/2/1 56/2/1
f 58/1/1 54/1/1 57/1/1
f 59/1/1 54/1/1 58/1/1
f 62/2/1 56/2/1 55/2/1
f 63/1/1 57/1/1 56/1/1
f 63/2/1 56/2/1 62/2/1
f 63/1/1 58/1/1 57/1/1
f 66/1/1 63/1/1 62/1/1
f 67/1/1 58/1/1 63/1/1
f 67/1/1 63/1/1 66/1/1
f 68/4/1 61/4/1 60/4/1
f 69/4/1 61/4/1 68/4/1
f 70/2/1 65/2/1 64/2/1
f 71/1/1 66/1/1 65/1/1
f 71/2/1 65/2/1 70/2/1
f 72/1/1 66/1/1 71/1/1
f 75/2/1 74/2/1 73/2/1
f 76/2/1 74/2/1 75/2/1
f 80/2/1 77/2/1 76/2/1
f 81/2/1 77/2/1 80/2/1
f 83/3/1 79/3/1 78/3/1
f 84/3/1 79/3/1 83/3/1
f 85/2/1 82/2/1 81/2/1
f 86/2/1 82/2/1 85/2/1
f 89/4/1 84/4/1 83/4/1
f 90/4/1 84/4/1 89/4/1
f 91/2/1 87/2/1 86/2/1
f 92/1/1 88/1/1 87/1/1
f 92/2/1 87/2/1 91/2/1
f 93/2/1 91/2/1 86/2/1
f 94/2/1 91/2/1 93/2/1
f 95/1/1 92/1/1 91/1/1
f 95/2/1 91/2/1 94/2/1
f 96/1/1 88/1/1 92/1/1
f 96/1/1 92/1/1 95/1/1
f 99/1/1 97/1/1 96/1/1
f 100/1/1 97/1/1 99/1/1
f 101/1/1 97/1/1 100/1/1
f 105/1/1 99/1/1 98/1/1
f 105/1/1 100/1/1 99/1/1
f 106/1/1 100/1/1 105/1/1
f 107/4/1 103/4/1 102/4/1
f 108/4/1 103/4/1 107/4/1
f 112/1/1 105/1/1 104/1/1
f 116/2/1 111/2/1 110/2/1
f 116/2/1 110/2/1 109/2/1
f 117/1/1 112/1/1 111/1/1
f 117/2/1 111/2/1 116/2/1
f 118/1/1 105/1/1 112/1/1
f 118/1/1 112/1/1 117/1/1
f 119/1/1 114/1/1 113/1/1
f 120/2/1 115/2/1 114/2/1
f 120/1/1 114/1/1 119/1/1
f 120/2/1 116/2/1 115/2/1
f 121/2/1 116/2/1 120/2/1
f 126/2/1 123/2/1 122/2/1
f 127/2/1 123/2/1 126/2/1
f 130/3/1 125/3/1 124/3/1
f 131/3/1 125/3/1 130/3/1
f 132/2/1 128/2/1 127/2/1
f 133/1/1 129/1/1 128/1/1
f 133/2/1 128/2/1 132/2/1
f 134/1/1 129/1/1 133/1/1
f 135/1/1 129/1/1 134/1/1
f 140/4/1 138/4/1 137/4/1
f 141/4/1 138/4/1 140/4/1
f 142/1/1 136/1/1 135/1/1
f 143/1/1 136/1/1 142/1/1
f 146/1/1 144/1/1 143/1/1
f 147/1/1 144/1/1 146/1/1
f 148/1/1 144/1/1 147/1/1
f 149/4/1 140/4/1 139/4/1
f 150/4/1 140/4/1 149/4/1
f 152/4/1 151/4/1 150/4/1
f 153/4/1 151/4/1 152/4/1
f 155/1/1 146/1/1 145/1/1
f 155/1/1 147/1/1 146/1/1
f 156/1/1 147/1/1 155/1/1
f 157/1/1 155/1/1 154/1/1
f 158/1/1 155/1/1 157/1/1
f 161/1/1 160/1/1 159/1/1
f 162/1/1 160/1/1 161/1/1
f 165/1/1 163/1/1 162/1/1
f 166/2/1 164/2/1 163/2/1
f 166/1/1 163/1/1 165/1/1
f 167/2/1 164/2/1 166/2/1
f 170/3/1 169/3/1 168/3/1
f 171/3/1 169/3/1 170/3/1
f 177/3/1 171/3/1 170/3/1
f 177/3/1 172/3/1 171/3/1
f 178/3/1 172/3/1 177/3/1
f 179/4/1 173/4/1 172/4/1
f 179/3/1 172/3/1 178/3/1
f 180/4/1 173/4/1 179/4/1
f 181/4/1 173/4/1 180/4/1
f 183/1/1 175/1/1 174/1/1
f 184/1/1 175/1/1 183/1/1
f 186/4/1 178/4/1 177/4/1
f 186/4/1 177/4/1 176/4/1
f 187/3/1 179/3/1 178/3/1
f 187/4/1 178/4/1 186/4/1
f 187/3/1 180/3/1 179/3/1
f 188/4/1 182/4/1 181/4/1
f 188/3/1 180/3/1 187/3/1
f 188/4/1 181/4/1 180/4/1
f 189/4/1 182/4/1 188/4/1
f 191/1/1 185/1/1 184/1/1
f 192/1/1 185/1/1 191/1/1
f 193/1/1 185/1/1 192/1/1
f 194/4/1 186/4/1 176/4/1
f 195/3/1 187/3/1 186/3/1
f 195/4/1 186/4/1 194/4/1
f 195/3/1 188/3/1 187/3/1
f 196/3/1 188/3/1 195/3/1
f 198/1/1 192/1/1 191/1/1
f 198/1/1 191/1/1 190/1/1
f 199/1/1 192/1/1 198/1/1
f 200/1/1 198/1/1 197/1/1
f 201/1/1 198/1/1 200/1/1
f 207/1/1 203/1/1 202/1/1
f 208/1/1 203/1/1 207/1/1
f 209/2/1 205/2/1 204/2/1
f 210/1/1 206/1/1 205/1/1
f 210/2/1 205/2/1 209/2/1
f 210/1/1 207/1/1 206/1/1
f 211/1/1 207/1/1 210/1/1
f 215/2/1 213/2/1 212/2/1
f 216/1/1 214/1/1 213/1/1
f 216/2/1 213/2/1 215/2/1
f 217/1/1 214/1/1 216/1/1
f 222/1/1 218/1/1 217/1/1
f 223/1/1 218/1/1 222/1/1
f 225/3/1 220/3/1 219/3/1
f 226/4/1 221/4/1 220/4/1
f 226/3/1 220/3/1 225/3/1
f 227/4/1 221/4/1 226/4/1
f 229/1/1 224/1/1 223/1/1
f 230/1/1 224/1/1 229/1/1
f 232/4/1 228/4/1 227/4/1
f 233/4/1 228/4/1 232/4/1
f 234/4/1 228/4/1 233/4/1
f 236/1/1 231/1/1 230/1/1
f 237/1/1 231/1/1 236/1/1
f 240/4/1 235/4/1 234/4/1
f 240/4/1 234/4/1 233/4/1
f 241/4/1 235/4/1 240/4/1
f 243/1/1 238/1/1 237/1/1
f 244/1/1 238/1/1 243/1/1
f 245/1/1 238/1/1 244/1/1
f 247/4/1 240/4/1 239/4/1
f 248/4/1 240/4/1 247/4/1
f 249/1/1 244/1/1 243/1/1
f 249/1/1 243/1/1 242/1/1
f 250/1/1 244/1/1 249/1/1
f 251/3/1 247/3/1 246/3/1
f 252/3/1 247/3/1 251/3/1
f 257/1/1 254/1/1 253/1/1
f 258/1/1 254/1/1 257/1/1
f 261/2/1 256/2/1 255/2/1
f 262/1/1 257/1/1 256/1/1
f 262/2/1 256/2/1 261/2/1
f 263/1/1 257/1/1 262/1/1
f 264/1/1 260/1/1 259/1/1
f 265/1/1 260/1/1 264/1/1
f 269/4/1 267/4/1 266/4/1
f 270/3/1 268/3/1 267/3/1
f 270/4/1 267/4/1 269/4/1
f 271/3/1 268/3/1 270/3/1
f 274/3/1 272/3/1 271/3/1
f 275/4/1 273/4/1 272/4/1
f 275/3/1 272/3/1 274/3/1
f 276/4/1 273/4/1 275/4/1
f 277/4/1 273/4/1 276/4/1
f 283/1/1 279/1/1 278/1/1
f 284/1/1 279/1/1 283/1/1
f 285/1/1 279/1/1 284/1/1
f 288/4/1 281/4/1 280/4/1
f 289/4/1 281/4/1 288/4/1
f 291/1/1 283/1/1 282/1/1
f 291/1/1 284/1/1 283/1/1
f 292/1/1 284/1/1 291/1/1
f 293/3/1 287/3/1 286/3/1
f 294/4/1 288/4/1 287/4/1
f 294/3/1 287/3/1 293/3/1
f 295/4/1 288/4/1 294/4/1
f 296/1/1 291/1/1 290/1/1
f 297/1/1 291/1/1 296/1/1
f 300/4/1 299/4/1 298/4/1
f 301/4/1 299/4/1 300/4/1
f 304/4/1 303/4/1 302/4/1
f 305/4/1 303/4/1 304/4/1
f 308/4/1 307/4/1 306/4/1
f 309/4/1 307/4/1 308/4/1
f 310/4/2 311/4/2 312/4/2
f 312/4/2 311/4/2 313/4/2
f 314/3/2 315/3/2 316/3/2
f 316/3/2 315/3/2 317/3/2
f 318/4/2 319/4/2 320/4/2
f 320/4/2 319/4/2 321/4/2
f 322/4/2 323/4/2 324/4/2
f 324/4/2 323/4/2 325/4/2
f 326/4/2 327/4/2 329/4/2
f 327/3/2 328/3/2 330/3/2
f 329/4/2 327/4/2 330/4/2
f 330/3/2 328/3/2 331/3/2
f 331/3/2 332/3/2 334/3/2
f 332/4/2 333/4/2 335/4/2
f 334/3/2 332/3/2 335/3/2
f 335/4/2 333/4/2 336/4/2
f 336/4/2 333/4/2 337/4/2
f 338/1/2 339/1/2 343/1/2
f 343/1/2 339/1/2 344/1/2
f 344/1/2 339/1/2 345/1/2
f 340/4/2 341/4/2 348/4/2
f 348/4/2 341/4/2 349/4/2
f 342/1/2 343/1/2 351/1/2
f 343/1/2 344/1/2 351/1/2
f 351/1/2 344/1/2 352/1/2
f 346/3/2 347/3/2 353/3/2
f 347/4/2 348/4/2 354/4/2
f 353/3/2 347/3/2 354/3/2
f 354/4/2 348/4/2 355/4/2
f 350/1/2 351/1/2 356/1/2
f 356/1/2 351/1/2 357/1/2
f 358/1/2 359/1/2 360/1/2
f 360/1/2 359/1/2 361/1/2
f 361/1/2 362/1/2 365/1/2
f 365/1/2 362/1/2 366/1/2
f 363/4/2 364/4/2 368/4/2
f 368/4/2 364/4/2 369/4/2
f 369/4/2 364/4/2 370/4/2
f 366/1/2 367/1/2 372/1/2
f 372/1/2 367/1/2 373/1/2
f 370/4/2 371/4/2 375/4/2
f 375/4/2 371/4/2 376/4/2
f 376/4/2 371/4/2 377/4/2
f 373/1/2 374/1/2 379/1/2
f 379/1/2 374/1/2 380/1/2
f 377/4/2 378/4/2 383/4/2
f 376/4/2 377/4/2 383/4/2
f 383/4/2 378/4/2 384/4/2
f 380/1/2 381/1/2 386/1/2
f 386/1/2 381/1/2 387/1/2
f 387/1/2 381/1/2 388/1/2
f 382/4/2 383/4/2 392/4/2
f 392/4/2 383/4/2 393/4/2
f 385/1/2 386/1/2 394/1/2
f 386/1/2 387/1/2 394/1/2
f 394/1/2 387/1/2 395/1/2
f 390/3/2 391/3/2 396/3/2
f 389/3/2 390/3/2 396/3/2
f 391/4/2 392/4/2 397/4/2
f 396/3/2 391/3/2 397/3/2
f 397/4/2 392/4/2 398/4/2
f 399/1/2 400/1/2 402/1/2
f 402/1/2 400/1/2 403/1/2
f 401/2/2 402/2/2 406/2/2
f 406/2/2 402/2/2 407/2/2
f 404/1/2 405/1/2 408/1/2
f 408/1/2 405/1/2 409/1/2
f 410/1/2 411/1/2 412/1/2
f 412/1/2 411/1/2 413/1/2
f 413/1/2 414/1/2 415/1/2
f 415/1/2 414/1/2 416/1/2
f 417/4/2 418/4/2 419/4/2
f 419/4/2 418/4/2 420/4/2
f 419/3/2 420/3/2 426/3/2
f 420/3/2 421/3/2 426/3/2
f 426/3/2 421/3/2 427/3/2
f 421/4/2 422/4/2 428/4/2
f 427/3/2 421/3/2 428/3/2
f 428/4/2 422/4/2 429/4/2
f 423/1/2 424/1/2 431/1/2
f 431/1/2 424/1/2 432/1/2
f 429/4/2 430/4/2 434/4/2
f 427/4/2 428/4/2 434/4/2
f 428/4/2 429/4/2 434/4/2
f 434/4/2 430/4/2 435/4/2
f 432/1/2 433/1/2 437/1/2
f 437/1/2 433/1/2 438/1/2
f 438/1/2 433/1/2 439/1/2
f 426/3/2 427/3/2 440/3/2
f 425/3/2 426/3/2 440/3/2
f 440/3/2 427/3/2 441/3/2
f 427/4/2 434/4/2 442/4/2
f 441/3/2 427/3/2 442/3/2
f 442/4/2 434/4/2 443/4/2
f 437/1/2 438/1/2 444/1/2
f 436/1/2 437/1/2 444/1/2
f 444/1/2 438/1/2 446/1/2
f 446/1/2 438/1/2 447/1/2
f 445/2/2 446/2/2 448/2/2
f 448/2/2 446/2/2 449/2/2
f 450/2/2 451/2/2 456/2/2
f 451/1/2 452/1/2 457/1/2
f 452/1/2 453/1/2 457/1/2
f 456/2/2 451/2/2 457/2/2
f 457/1/2 453/1/2 458/1/2
f 454/1/2 455/1/2 459/1/2
f 455/1/2 456/1/2 459/1/2
f 459/1/2 456/1/2 460/1/2
f 461/1/2 462/1/2 463/1/2
f 463/1/2 462/1/2 464/1/2
f 464/1/2 465/1/2 466/1/2
f 466/1/2 465/1/2 467/1/2
f 469/4/2 470/4/2 472/4/2
f 472/4/2 470/4/2 473/4/2
f 467/1/2 468/1/2 474/1/2
f 474/1/2 468/1/2 475/1/2
f 475/1/2 476/1/2 478/1/2
f 478/1/2 476/1/2 479/1/2
f 479/1/2 476/1/2 480/1/2
f 471/4/2 472/4/2 481/4/2
f 477/1/2 478/1/2 483/1/2
f 478/1/2 479/1/2 483/1/2
f 483/1/2 479/1/2 484/1/2
f 481/4/2 482/4/2 485/4/2
f 471/4/2 481/4/2 485/4/2
f 485/4/2 482/4/2 486/4/2
f 483/2/2 484/2/2 489/2/2
f 489/2/2 484/2/2 490/2/2
f 486/4/2 482/4/2 491/4/2
f 491/4/2 482/4/2 492/4/2
f 487/1/2 488/1/2 493/1/2
f 488/2/2 489/2/2 494/2/2
f 493/1/2 488/1/2 494/1/2
f 487/1/2 493/1/2 495/1/2
f 493/2/2 494/2/2 496/2/2
f 495/1/2 493/1/2 496/1/2
f 494/2/2 489/2/2 497/2/2
f 496/2/2 494/2/2 497/2/2
f 498/1/2 499/1/2 500/1/2
f 500/1/2 499/1/2 501/1/2
f 501/1/2 502/1/2 505/1/2
f 505/1/2 502/1/2 506/1/2
f 506/1/2 507/1/2 508/1/2
f 508/1/2 507/1/2 509/1/2
f 503/4/2 504/4/2 511/4/2
f 511/4/2 504/4/2 512/4/2
f 509/1/2 510/1/2 513/1/2
f 513/1/2 510/1/2 514/1/2
f 514/1/2 515/1/2 517/1/2
f 517/1/2 515/1/2 518/1/2
f 518/1/2 515/1/2 519/1/2
f 516/1/2 517/1/2 521/1/2
f 517/1/2 518/1/2 521/1/2
f 521/1/2 518/1/2 522/1/2
f 520/1/2 521/1/2 525/1/2
f 523/2/2 524/2/2 529/2/2
f 524/1/2 525/1/2 530/1/2
f 529/2/2 524/2/2 530/2/2
f 525/1/2 521/1/2 531/1/2
f 530/1/2 525/1/2 531/1/2
f 526/1/2 527/1/2 532/1/2
f 527/2/2 528/2/2 533/2/2
f 532/1/2 527/1/2 533/1/2
f 528/2/2 529/2/2 533/2/2
f 533/2/2 529/2/2 534/2/2
f 535/4/2 536/4/2 537/4/2
f 537/4/2 536/4/2 538/4/2
f 539/1/2 540/1/2 541/1/2
f 541/1/2 540/1/2 542/1/2
f 542/1/2 543/1/2 544/1/2
f 544/1/2 543/1/2 545/1/2
f 546/1/2 547/1/2 549/1/2
f 549/1/2 547/1/2 550/1/2
f 550/1/2 547/1/2 551/1/2
f 548/1/2 549/1/2 556/1/2
f 549/1/2 550/1/2 556/1/2
f 556/1/2 550/1/2 557/1/2
f 554/2/2 555/2/2 558/2/2
f 555/1/2 556/1/2 559/1/2
f 558/2/2 555/2/2 559/2/2
f 559/1/2 556/1/2 560/1/2
f 552/4/2 553/4/2 561/4/2
f 561/4/2 553/4/2 562/4/2
f 563/1/2 564/1/2 565/1/2
f 565/1/2 564/1/2 566/1/2
f 566/1/2 564/1/2 567/1/2
f 567/1/2 568/1/2 569/1/2
f 567/1/2 569/1/2 572/1/2
f 569/1/2 570/1/2 572/1/2
f 572/1/2 570/1/2 573/1/2
f 571/1/2 572/1/2 573/1/2
f 573/1/2 570/1/2 574/1/2
f 571/1/2 573/1/2 577/1/2
f 577/1/2 573/1/2 578/1/2
f 575/1/2 576/1/2 579/1/2
f 576/2/2 577/2/2 580/2/2
f 579/1/2 576/1/2 580/1/2
f 580/2/2 577/2/2 581/2/2
f 582/2/2 583/2/2 586/2/2
f 583/1/2 584/1/2 587/1/2
f 586/2/2 583/2/2 587/2/2
f 587/1/2 584/1/2 588/1/2
f 588/1/2 584/1/2 589/1/2
f 585/1/2 586/1/2 590/1/2
f 586/1/2 587/1/2 590/1/2
f 587/1/2 588/1/2 590/1/2
f 590/1/2 588/1/2 591/1/2
f 595/4/3 593/4/3 592/4/3
f 597/4/3 595/4/3 594/4/3
f 598/4/3 593/4/3 595/4/3
f 598/4/3 597/4/3 596/4/3
f 598/4/3 595/4/3 597/4/3
f 599/4/3 593/4/3 598/4/3
f 600/4/3 598/4/3 596/4/3
f 601/4/3 598/4/3 600/4/3
f 602/3/3 601/3/3 600/3/3
f 603/4/3 598/4/3 601/4/3
f 603/3/3 601/3/3 602/3/3
f 604/4/3 598/4/3 603/4/3
f 606/4/3 603/4/3 602/4/3
f 606/4/3 605/4/3 604/4/3
f 606/4/3 604/4/3 603/4/3
f 607/4/3 605/4/3 606/4/3
f 608/4/3 605/4/3 607/4/3
f 609/4/3 605/4/3 608/4/3
f 612/4/3 611/4/3 610/4/3
f 615/3/3 613/3/3 612/3/3
f 615/4/3 614/4/3 613/4/3
f 616/4/3 614/4/3 615/4/3
f 618/4/3 612/4/3 610/4/3
f 618/3/3 615/3/3 612/3/3
f 618/3/3 616/3/3 615/3/3
f 619/4/3 617/4/3 616/4/3
f 619/3/3 616/3/3 618/3/3
f 620/4/3 618/4/3 610/4/3
f 620/4/3 619/4/3 618/4/3
f 621/4/3 619/4/3 620/4/3
f 622/4/3 617/4/3 619/4/3
f 622/4/3 619/4/3 621/4/3
f 624/4/3 622/4/3 621/4/3
f 625/4/3 622/4/3 624/4/3
f 626/4/3 624/4/3 623/4/3
f 626/4/3 625/4/3 624/4/3
f 627/4/3 625/4/3 626/4/3
f 628/4/3 626/4/3 623/4/3
f 629/4/3 626/4/3 628/4/3
f 630/4/3 628/4/3 623/4/3
f 631/4/3 628/4/3 630/4/3
f 634/1/3 633/1/3 632/1/3
f 636/1/3 635/1/3 634/1/3
f 638/1/3 634/1/3 632/1/3
f 638/1/3 637/1/3 636/1/3
f 638/1/3 636/1/3 634/1/3
f 639/1/3 637/1/3 638/1/3
f 641/1/3 638/1/3 632/1/3
f 642/1/3 638/1/3 641/1/3
f 643/1/3 638/1/3 642/1/3
f 644/1/3 638/1/3 643/1/3
f 645/2/3 640/2/3 639/2/3
f 645/1/3 638/1/3 644/1/3
f 645/2/3 639/2/3 638/2/3
f 646/2/3 640/2/3 645/2/3
f 648/1/3 645/1/3 644/1/3
f 648/1/3 646/1/3 645/1/3
f 650/1/3 648/1/3 647/1/3
f 651/2/3 640/2/3 646/2/3
f 651/1/3 646/1/3 648/1/3
f 651/1/3 648/1/3 650/1/3
f 652/2/3 640/2/3 651/2/3
f 653/1/3 650/1/3 649/1/3
f 653/1/3 651/1/3 650/1/3
f 653/1/3 652/1/3 651/1/3
f 654/1/3 652/1/3 653/1/3
f 655/1/3 653/1/3 649/1/3
f 656/1/3 653/1/3 655/1/3
f 657/1/3 653/1/3 656/1/3
f 658/1/3 653/1/3 657/1/3
f 659/2/3 656/2/3 655/2/3
f 660/1/3 657/1/3 656/1/3
f 660/2/3 656/2/3 659/2/3
f 661/1/3 657/1/3 660/1/3
f 662/1/3 657/1/3 661/1/3
f 663/1/3 660/1/3 659/1/3
f 663/1/3 661/1/3 660/1/3
f 664/1/3 661/1/3 663/1/3
f 668/1/3 666/1/3 665/1/3
f 669/1/3 668/1/3 667/1/3
f 670/1/3 668/1/3 669/1/3
f 672/2/3 670/2/3 669/2/3
f 673/1/3 668/1/3 670/1/3
f 673/2/3 670/2/3 672/2/3
f 674/2/3 672/2/3 671/2/3
f 675/1/3 673/1/3 672/1/3
f 675/2/3 672/2/3 674/2/3
f 677/1/3 675/1/3 674/1/3
f 678/1/3 666/1/3 668/1/3
f 678/1/3 677/1/3 676/1/3
f 678/1/3 675/1/3 677/1/3
f 678/1/3 668/1/3 673/1/3
f 678/1/3 673/1/3 675/1/3
f 679/1/3 666/1/3 678/1/3
f 680/1/3 678/1/3 676/1/3
f 682/1/3 680/1/3 676/1/3
f 682/1/3 681/1/3 680/1/3
f 683/1/3 681/1/3 682/1/3
f 684/1/3 681/1/3 683/1/3
f 685/1/3 681/1/3 684/1/3
f 686/1/3 681/1/3 685/1/3
f 687/1/3 681/1/3 686/1/3
f 688/1/3 686/1/3 685/1/3
f 689/2/3 687/2/3 686/2/3
f 689/1/3 686/1/3 688/1/3
f 690/1/3 688/1/3 685/1/3
f 691/2/3 689/2/3 688/2/3
f 691/1/3 688/1/3 690/1/3
f 692/2/3 687/2/3 689/2/3
f 692/2/3 689/2/3 691/2/3
f 693/2/3 692/2/3 691/2/3
f 694/2/3 692/2/3 693/2/3
f 695/4/4 696/4/4 698/4/4
f 697/4/4 698/4/4 699/4/4
f 698/4/4 696/4/4 700/4/4
f 699/4/4 698/4/4 700/4/4
f 697/4/4 699/4/4 702/4/4
f 702/4/4 699/4/4 703/4/4
f 700/4/4 696/4/4 704/4/4
f 701/4/4 702/4/4 705/4/4
f 705/4/4 702/4/4 706/4/4
f 703/4/4 704/4/4 707/4/4
f 707/4/4 704/4/4 708/4/4
f 704/4/4 696/4/4 708/4/4
f 708/4/4 696/4/4 709/4/4
f 707/4/4 708/4/4 710/4/4
f 710/4/4 708/4/4 711/4/4
f 711/4/4 708/4/4 712/4/4
f 713/4/4 714/4/4 717/4/4
f 717/4/4 714/4/4 718/4/4
f 715/4/4 716/4/4 720/4/4
f 719/4/4 720/4/4 721/4/4
f 720/4/4 716/4/4 722/4/4
f 721/4/4 720/4/4 722/4/4
f 723/4/4 724/4/4 725/4/4
f 723/4/4 725/4/4 730/4/4
f 725/3/4 726/3/4 730/3/4
f 726/4/4 727/4/4 731/4/4
f 730/3/4 726/3/4 731/3/4
f 731/4/4 727/4/4 732/4/4
f 728/4/4 729/4/4 735/4/4
f 735/4/4 729/4/4 736/4/4
f 731/3/4 732/3/4 737/3/4
f 732/4/4 733/4/4 738/4/4
f 737/3/4 732/3/4 738/3/4
f 738/4/4 733/4/4 739/4/4
f 734/4/4 735/4/4 740/4/4
f 740/4/4 735/4/4 741/4/4
f 723/4/4 730/4/4 742/4/4
f 740/3/4 741/3/4 744/3/4
f 744/3/4 741/3/4 745/3/4
f 742/4/4 743/4/4 746/4/4
f 723/4/4 742/4/4 746/4/4
f 746/4/4 743/4/4 747/4/4
f 747/4/4 743/4/4 748/4/4
f 747/4/4 748/4/4 753/4/4
f 753/4/4 748/4/4 754/4/4
f 749/4/4 750/4/4 757/4/4
f 750/4/4 751/4/4 757/4/4
f 755/4/4 756/4/4 758/4/4
f 754/4/4 755/4/4 758/4/4
f 752/4/4 753/4/4 758/4/4
f 753/4/4 754/4/4 758/4/4
f 758/4/4 756/4/4 759/4/4
f 757/4/4 751/4/4 760/4/4
f 760/4/4 751/4/4 761/4/4
f 752/4/4 758/4/4 762/4/4
f 762/4/4 758/4/4 763/4/4
f 752/4/4 762/4/4 764/4/4
f 764/4/4 762/4/4 765/4/4
f 766/3/4 767/3/4 768/3/4
f 766/3/4 768/3/4 770/3/4
f 768/3/4 769/3/4 770/3/4
f 770/3/4 769/3/4 771/3/4
f 771/3/4 769/3/4 772/3/4
f 773/4/4 774/4/4 775/4/4
f 775/4/4 774/4/4 776/4/4
f 777/3/4 778/3/4 779/3/4
f 779/3/4 778/3/4 780/3/4
f 780/3/4 781/3/4 782/3/4
f 782/3/4 781/3/4 783/3/4
f 784/4/4 785/4/4 787/4/4
f 787/4/4 785/4/4 788/4/4
f 786/4/4 787/4/4 789/4/4
f 789/4/4 787/4/4 790/4/4
f 791/4/4 792/4/4 794/4/4
f 794/4/4 792/4/4 795/4/4
f 793/4/4 794/4/4 796/4/4
f 796/4/4 794/4/4 797/4/4
f 798/4/4 799/4/4 800/4/4
f 800/4/4 799/4/4 801/4/4
f 801/4/4 802/4/4 803/4/4
f 803/4/4 802/4/4 804/4/4
f 805/4/4 806/4/4 807/4/4
f 807/4/4 806/4/4 808/4/4
f 808/4/4 809/4/4 810/4/4
f 810/4/4 809/4/4 811/4/4
f 811/4/4 812/4/4 814/4/4
f 814/4/4 812/4/4 815/4/4
f 813/4/4 814/4/4 817/4/4
f 817/4/4 814/4/4 818/4/4
f 816/4/4 817/4/4 819/4/4
f 819/4/4 817/4/4 820/4/4
f 821/4/4 822/4/4 824/4/4
f 824/4/4 822/4/4 825/4/4
f 823/3/4 824/3/4 826/3/4
f 826/3/4 824/3/4 827/3/4
f 827/4/4 828/4/4 829/4/4
f 829/4/4 828/4/4 830/4/4
f 831/1/4 832/1/4 834/1/4
f 832/2/4 833/2/4 835/2/4
f 834/1/4 832/1/4 835/1/4
f 835/2/4 833/2/4 836/2/4
f 836/2/4 837/2/4 838/2/4
f 838/2/4 837/2/4 839/2/4
f 839/2/4 837/2/4 840/2/4
f 840/2/4 837/2/4 841/2/4
f 841/2/4 842/2/4 843/2/4
f 843/2/4 842/2/4 844/2/4
f 844/2/4 842/2/4 845/2/4
f 845/1/4 846/1/4 847/1/4
f 847/1/4 846/1/4 849/1/4
f 849/1/4 846/1/4 850/1/4
f 848/2/4 849/2/4 852/2/4
f 852/2/4 849/2/4 853/2/4
f 851/2/4 852/2/4 855/2/4
f 854/2/4 855/2/4 857/2/4
f 855/2/4 852/2/4 858/2/4
f 857/2/4 855/2/4 858/2/4
f 856/1/4 857/1/4 859/1/4
f 859/1/4 857/1/4 860/1/4
f 861/1/4 862/1/4 864/1/4
f 864/1/4 862/1/4 865/1/4
f 863/2/4 864/2/4 866/2/4
f 866/2/4 864/2/4 867/2/4
f 863/2/4 866/2/4 869/2/4
f 869/2/4 866/2/4 870/2/4
f 868/2/4 869/2/4 871/2/4
f 871/2/4 869/2/4 872/2/4
f 871/1/4 872/1/4 874/1/4
f 874/1/4 872/1/4 875/1/4
f 873/1/4 874/1/4 876/1/4
f 876/1/4 874/1/4 877/1/4
f 877/1/4 878/1/4 879/1/4
f 879/1/4 878/1/4 880/1/4
f 880/1/4 881/1/4 882/1/4
f 880/1/4 882/1/4 884/1/4
f 882/1/4 883/1/4 884/1/4
f 884/1/4 883/1/4 885/1/4
f 885/1/4 886/1/4 887/1/4
f 887/1/4 886/1/4 888/1/4
f 889/2/4 890/2/4 894/2/4
f 894/2/4 890/2/4 895/2/4
f 891/1/4 892/1/4 896/1/4
f 896/1/4 892/1/4 897/1/4
f 897/1/4 892/1/4 898/1/4
f 893/2/4 894/2/4 901/2/4
f 901/2/4 894/2/4 902/2/4
f 898/1/4 899/1/4 903/1/4
f 903/1/4 899/1/4 904/1/4
f 900/2/4 901/2/4 905/2/4
f 905/2/4 901/2/4 906/2/4
f 907/2/4 908/2/4 911/2/4
f 911/2/4 908/2/4 912/2/4
f 909/1/4 910/1/4 913/1/4
f 913/1/4 910/1/4 914/1/4
f 911/1/4 912/1/4 915/1/4
f 911/1/4 915/1/4 918/1/4
f 918/1/4 915/1/4 919/1/4
f 916/1/4 917/1/4 920/1/4
f 920/1/4 917/1/4 921/1/4
f 922/1/4 923/1/4 924/1/4
f 924/1/4 923/1/4 925/1/4
f 925/1/4 926/1/4 929/1/4
f 929/1/4 926/1/4 930/1/4
f 927/1/4 928/1/4 933/1/4
f 933/1/4 928/1/4 934/1/4
f 930/1/4 931/1/4 935/1/4
f 935/1/4 931/1/4 936/1/4
f 932/1/4 933/1/4 937/1/4
f 937/1/4 933/1/4 938/1/4
f 939/2/4 940/2/4 942/2/4
f 942/2/4 940/2/4 943/2/4
f 943/2/4 940/2/4 944/2/4
f 941/2/4 942/2/4 946/2/4
f 942/2/4 943/2/4 946/2/4
f 946/2/4 943/2/4 947/2/4
f 945/2/4 946/2/4 949/2/4
f 949/2/4 946/2/4 950/2/4
f 948/2/4 949/2/4 951/2/4
f 951/2/4 949/2/4 952/2/4
f 953/1/4 954/1/4 955/1/4
f 955/1/4 954/1/4 956/1/4
f 956/1/4 957/1/4 958/1/4
f 958/1/4 957/1/4 959/1/4
f 959/1/4 960/1/4 961/1/4
f 961/1/4 960/1/4 962/1/4
f 962/1/4 960/1/4 963/1/4
f 962/1/4 963/1/4 965/1/4
f 963/1/4 964/1/4 965/1/4
f 965/1/4 964/1/4 966/1/4
f 967/1/4 968/1/4 969/1/4
f 969/1/4 968/1/4 970/1/4
f 970/1/4 971/1/4 972/1/4
f 972/1/4 971/1/4 973/1/4
f 974/1/4 975/1/4 976/1/4
f 976/1/4 975/1/4 977/1/4
f 978/1/4 979/1/4 981/1/4
f 981/1/4 979/1/4 982/1/4
f 980/1/4 981/1/4 983/1/4
f 983/1/4 981/1/4 984/1/4
f 985/1/4 986/1/4 988/1/4
f 988/1/4 986/1/4 989/1/4
f 987/1/4 988/1/4 991/1/4
f 991/1/4 988/1/4 992/1/4
f 990/1/4 991/1/4 994/1/4
f 994/1/4 991/1/4 995/1/4
f 993/1/4 994/1/4 996/1/4
f 996/1/4 994/1/4 997/1/4
f 997/1/4 998/1/4 999/1/4
f 999/1/4 998/1/4 1000/1/4
f 1000/1/4 1001/1/4 1002/1/4
f 1002/1/4 1001/1/4 1003/1/4
f 1003/1/4 1004/1/4 1005/1/4
f 1005/1/4 1004/1/4 1006/1/4
f 1007/1/4 1008/1/4 1009/1/4
f 1009/1/4 1008/1/4 1010/1/4
f 1010/1/4 1011/1/4 1012/1/4
f 1012/1/4 1011/1/4 1013/1/4
f 1013/1/4 1011/1/4 1014/1/4
f 1014/1/4 1011/1/4 1015/1/4
f 1016/2/4 1017/2/4 1019/2/4
f 1018/2/4 1019/2/4 1022/2/4
f 1019/2/4 1017/2/4 1023/2/4
f 1022/2/4 1019/2/4 1023/2/4
f 1021/1/4 1022/1/4 1024/1/4
f 1020/1/4 1021/1/4 1024/1/4
f 1024/1/4 1022/1/4 1025/1/4
f 1026/1/4 1027/1/4 1029/1/4
f 1029/1/4 1027/1/4 1030/1/4
f 1028/1/4 1029/1/4 1031/1/4
f 1031/1/4 1029/1/4 1032/1/4
f 1028/1/4 1031/1/4 1034/1/4
f 1034/1/4 1031/1/4 1035/1/4
f 1033/1/4 1034/1/4 1036/1/4
f 1036/1/4 1034/1/4 1037/1/4
f 1037/1/4 1038/1/4 1039/1/4
f 1037/1/4 1039/1/4 1041/1/4
f 1039/1/4 1040/1/4 1041/1/4
f 1041/1/4 1040/1/4 1042/1/4
f 1042/1/4 1043/1/4 1044/1/4
f 1044/1/4 1043/1/4 1045/1/4
f 1046/1/4 1047/1/4 1048/1/4
f 1048/1/4 1047/1/4 1049/1/4
f 1049/1/4 1050/1/4 1051/1/4
f 1051/1/4 1050/1/4 1052/1/4
f 1052/1/4 1053/1/4 1054/1/4
f 1054/1/4 1053/1/4 1055/1/4
f 1054/2/4 1055/2/4 1057/2/4
f 1057/2/4 1055/2/4 1058/2/4
f 1056/2/4 1057/2/4 1061/2/4
f 1061/2/4 1057/2/4 1062/2/4
f 1059/1/4 1060/1/4 1063/1/4
f 1060/2/4 1061/2/4 1064/2/4
f 1063/1/4 1060/1/4 1064/1/4
f 1064/2/4 1061/2/4 1065/2/4
f 1066/1/4 1067/1/4 1069/1/4
f 1069/1/4 1067/1/4 1070/1/4
f 1068/1/4 1069/1/4 1072/1/4
f 1072/1/4 1069/1/4 1073/1/4
f 1071/1/4 1072/1/4 1074/1/4
f 1074/1/4 1072/1/4 1075/1/4
f 1075/1/4 1076/1/4 1077/1/4
f 1077/1/4 1076/1/4 1078/1/4
f 1078/1/4 1079/1/4 1080/1/4
f 1080/1/4 1079/1/4 1081/1/4
f 1082/1/4 1083/1/4 1084/1/4
f 1084/1/4 1083/1/4 1085/1/4
f 1085/1/4 1083/1/4 1086/1/4
f 1086/1/4 1087/1/4 1088/1/4
f 1085/1/4 1086/1/4 1088/1/4
f 1088/1/4 1087/1/4 1089/1/4
f 1089/1/4 1087/1/4 1091/1/4
f 1090/1/4 1091/1/4 1093/1/4
f 1091/1/4 1087/1/4 1094/1/4
f 1093/1/4 1091/1/4 1094/1/4
f 1094/1/4 1087/1/4 1095/1/4
f 1092/1/4 1093/1/4 1096/1/4
f 1093/1/4 1094/1/4 1096/1/4
f 1096/1/4 1094/1/4 1097/1/4
f 1098/1/4 1099/1/4 1101/1/4
f 1101/1/4 1099/1/4 1102/1/4
f 1100/1/4 1101/1/4 1103/1/4
f 1103/1/4 1101/1/4 1104/1/4
f 1104/1/4 1105/1/4 1106/1/4
f 1106/1/4 1105/1/4 1107/1/4
f 1108/1/4 1109/1/4 1110/1/4
f 1110/1/4 1109/1/4 1111/1/4
f 1111/1/4 1112/1/4 1114/1/4
f 1114/1/4 1112/1/4 1115/1/4
f 1113/1/4 1114/1/4 1116/1/4
f 1116/1/4 1114/1/4 1117/1/4
f 1118/1/4 1119/1/4 1120/1/4
f 1120/1/4 1119/1/4 1121/1/4
f 1122/1/4 1123/1/4 1124/1/4
f 1124/1/4 1123/1/4 1125/1/4
f 1126/1/4 1127/1/4 1128/1/4
f 1128/1/4 1127/1/4 1129/1/4
f 1130/1/4 1131/1/4 1132/1/4
f 1132/1/4 1131/1/4 1133/1/4
f 1136/1/5 1135/1/5 1134/1/5
f 1137/1/5 1135/1/5 1136/1/5
f 1143/2/5 1139/2/5 1138/2/5
f 1144/1/5 1140/1/5 1139/1/5
f 1144/2/5 1139/2/5 1143/2/5
f 1145/1/5 1140/1/5 1144/1/5
f 1146/1/5 1142/1/5 1141/1/5
f 1147/1/5 1142/1/5 1146/1/5
f 1148/1/5 1146/1/5 1145/1/5
f 1149/1/5 1146/1/5 1148/1/5
f 1150/2/5 1149/2/5 1148/2/5
f 1151/1/5 1146/1/5 1149/1/5
f 1151/2/5 1149/2/5 1150/2/5
f 1152/1/5 1146/1/5 1151/1/5
f 1157/4/5 1154/4/5 1153/4/5
f 1158/4/5 1154/4/5 1157/4/5
f 1159/4/5 1156/4/5 1155/4/5
f 1160/4/5 1156/4/5 1159/4/5
f 1166/1/5 1162/1/5 1161/1/5
f 1167/2/5 1163/2/5 1162/2/5
f 1167/1/5 1162/1/5 1166/1/5
f 1168/2/5 1167/2/5 1166/2/5
f 1169/2/5 1163/2/5 1167/2/5
f 1169/2/5 1167/2/5 1168/2/5
f 1173/1/5 1165/1/5 1164/1/5
f 1174/1/5 1165/1/5 1173/1/5
f 1175/2/5 1171/2/5 1170/2/5
f 1175/2/5 1170/2/5 1169/2/5
f 1176/2/5 1175/2/5 1169/2/5
f 1177/2/5 1175/2/5 1176/2/5
f 1178/2/5 1175/2/5 1177/2/5
f 1181/1/5 1173/1/5 1172/1/5
f 1182/1/5 1173/1/5 1181/1/5
f 1183/1/5 1173/1/5 1182/1/5
f 1184/2/5 1180/2/5 1179/2/5
f 1184/2/5 1178/2/5 1177/2/5
f 1184/2/5 1179/2/5 1178/2/5
f 1185/2/5 1180/2/5 1184/2/5
f 1186/1/5 1182/1/5 1181/1/5
f 1186/1/5 1181/1/5 1180/1/5
f 1187/1/5 1182/1/5 1186/1/5
f 1188/2/5 1180/2/5 1185/2/5
f 1189/1/5 1186/1/5 1180/1/5
f 1189/2/5 1180/2/5 1188/2/5
f 1190/1/5 1189/1/5 1188/1/5
f 1191/1/5 1186/1/5 1189/1/5
f 1191/1/5 1189/1/5 1190/1/5
f 1196/4/5 1193/4/5 1192/4/5
f 1197/4/5 1193/4/5 1196/4/5
f 1198/3/5 1195/3/5 1194/3/5
f 1199/3/5 1195/3/5 1198/3/5
f 1204/2/5 1201/2/5 1200/2/5
f 1205/2/5 1201/2/5 1204/2/5
f 1208/1/5 1203/1/5 1202/1/5
f 1209/1/5 1203/1/5 1208/1/5
f 1210/2/5 1206/2/5 1205/2/5
f 1211/2/5 1206/2/5 1210/2/5
f 1214/1/5 1208/1/5 1207/1/5
f 1215/1/5 1208/1/5 1214/1/5
f 1216/2/5 1212/2/5 1211/2/5
f 1217/2/5 1212/2/5 1216/2/5
f 1218/2/5 1216/2/5 1211/2/5
f 1219/1/5 1217/1/5 1216/1/5
f 1219/2/5 1216/2/5 1218/2/5
f 1220/1/5 1219/1/5 1218/1/5
f 1221/1/5 1217/1/5 1219/1/5
f 1221/1/5 1219/1/5 1220/1/5
f 1222/1/5 1214/1/5 1213/1/5
f 1223/1/5 1214/1/5 1222/1/5
f 1224/1/5 1222/1/5 1221/1/5
f 1225/1/5 1222/1/5 1224/1/5
f 1229/3/5 1227/3/5 1226/3/5
f 1230/4/5 1228/4/5 1227/4/5
f 1231/4/5 1228/4/5 1230/4/5
f 1232/3/5 1227/3/5 1229/3/5
f 1233/4/5 1230/4/5 1227/4/5
f 1233/3/5 1227/3/5 1232/3/5
f 1234/4/5 1233/4/5 1232/4/5
f 1235/4/5 1230/4/5 1233/4/5
f 1235/4/5 1233/4/5 1234/4/5
f 1236/4/5 1230/4/5 1235/4/5
f 1237/4/5 1230/4/5 1236/4/5
f 1238/4/5 1236/4/5 1235/4/5
f 1239/4/5 1236/4/5 1238/4/5
f 1240/3/5 1239/3/5 1238/3/5
f 1241/3/5 1239/3/5 1240/3/5
f 1246/2/5 1245/2/5 1244/2/5
f 1247/2/5 1245/2/5 1246/2/5
f 1248/1/5 1243/1/5 1242/1/5
f 1249/1/5 1248/1/5 1242/1/5
f 1250/1/5 1248/1/5 1249/1/5
f 1253/1/5 1247/1/5 1246/1/5
f 1254/1/5 1247/1/5 1253/1/5
f 1255/2/5 1251/2/5 1250/2/5
f 1256/2/5 1251/2/5 1255/2/5
f 1259/1/5 1253/1/5 1252/1/5
f 1260/1/5 1253/1/5 1259/1/5
f 1261/2/5 1257/2/5 1256/2/5
f 1262/2/5 1257/2/5 1261/2/5
f 1265/1/5 1259/1/5 1258/1/5
f 1266/1/5 1259/1/5 1265/1/5
f 1267/2/5 1263/2/5 1262/2/5
f 1268/2/5 1267/2/5 1262/2/5
f 1269/2/5 1267/2/5 1268/2/5
f 1270/1/5 1269/1/5 1268/1/5
f 1271/1/5 1269/1/5 1270/1/5
f 1274/1/5 1265/1/5 1264/1/5
f 1275/1/5 1265/1/5 1274/1/5
f 1276/1/5 1272/1/5 1271/1/5
f 1277/1/5 1272/1/5 1276/1/5
f 1278/1/5 1274/1/5 1273/1/5
f 1279/1/5 1274/1/5 1278/1/5
f 1280/1/5 1278/1/5 1277/1/5
f 1281/1/5 1278/1/5 1280/1/5
f 1286/3/5 1283/3/5 1282/3/5
f 1287/3/5 1283/3/5 1286/3/5
f 1288/3/5 1285/3/5 1284/3/5
f 1289/3/5 1285/3/5 1288/3/5
f 1290/4/5 1287/4/5 1286/4/5
f 1291/4/5 1287/4/5 1290/4/5
f 1294/4/5 1289/4/5 1288/4/5
f 1295/4/5 1289/4/5 1294/4/5
f 1296/4/5 1292/4/5 1291/4/5
f 1297/4/5 1294/4/5 1293/4/5
f 1298/4/5 1296/4/5 1291/4/5
f 1299/4/5 1296/4/5 1298/4/5
f 1300/4/5 1294/4/5 1297/4/5
f 1301/4/5 1294/4/5 1300/4/5
f 1302/3/5 1300/3/5 1299/3/5
f 1303/3/5 1300/3/5 1302/3/5
f 1304/4/5 1303/4/5 1302/4/5
f 1305/4/5 1303/4/5 1304/4/5
f 1310/2/5 1307/2/5 1306/2/5
f 1311/2/5 1307/2/5 1310/2/5
f 1312/1/5 1309/1/5 1308/1/5
f 1313/1/5 1309/1/5 1312/1/5
f 1318/1/5 1315/1/5 1314/1/5
f 1319/1/5 1315/1/5 1318/1/5
f 1320/1/5 1317/1/5 1316/1/5
f 1321/1/5 1317/1/5 1320/1/5
f 1322/1/5 1320/1/5 1319/1/5
f 1323/1/5 1320/1/5 1322/1/5
f 1328/4/5 1325/4/5 1324/4/5
f 1329/3/5 1326/3/5 1325/3/5
f 1329/4/5 1325/4/5 1328/4/5
f 1330/4/5 1327/4/5 1326/4/5
f 1330/3/5 1326/3/5 1329/3/5
f 1331/4/5 1327/4/5 1330/4/5
f 1336/4/5 1333/4/5 1332/4/5
f 1337/4/5 1333/4/5 1336/4/5
f 1338/4/5 1335/4/5 1334/4/5
f 1339/4/5 1335/4/5 1338/4/5
f 1344/4/5 1341/4/5 1340/4/5
f 1345/4/5 1343/4/5 1342/4/5
f 1347/4/5 1344/4/5 1340/4/5
f 1348/4/5 1344/4/5 1347/4/5
f 1349/4/5 1343/4/5 1345/4/5
f 1350/4/5 1343/4/5 1349/4/5
f 1354/1/5 1348/1/5 1347/1/5
f 1354/1/5 1347/1/5 1346/1/5
f 1355/1/5 1348/1/5 1354/1/5
f 1356/1/5 1350/1/5 1349/1/5
f 1356/1/5 1351/1/5 1350/1/5
f 1357/2/5 1352/2/5 1351/2/5
f 1357/1/5 1351/1/5 1356/1/5
f 1358/1/5 1353/1/5 1352/1/5
f 1358/2/5 1352/2/5 1357/2/5
f 1359/1/5 1353/1/5 1358/1/5
f 1364/2/5 1361/2/5 1360/2/5
f 1365/2/5 1361/2/5 1364/2/5
f 1366/1/5 1365/1/5 1364/1/5
f 1367/1/5 1366/1/5 1364/1/5
f 1368/1/5 1366/1/5 1367/1/5
f 1371/1/5 1363/1/5 1362/1/5
f 1372/1/5 1363/1/5 1371/1/5
f 1373/1/5 1369/1/5 1368/1/5
f 1374/1/5 1369/1/5 1373/1/5
f 1377/1/5 1371/1/5 1370/1/5
f 1378/1/5 1371/1/5 1377/1/5
f 1379/1/5 1375/1/5 1374/1/5
f 1380/1/5 1375/1/5 1379/1/5
f 1383/1/5 1377/1/5 1376/1/5
f 1384/1/5 1377/1/5 1383/1/5
f 1385/1/5 1381/1/5 1380/1/5
f 1386/1/5 1381/1/5 1385/1/5
f 1387/1/5 1383/1/5 1382/1/5
f 1388/1/5 1383/1/5 1387/1/5
f 1389/1/5 1387/1/5 1386/1/5
f 1390/1/5 1387/1/5 1389/1/5
f 1391/1/5 1387/1/5 1390/1/5
f 1392/1/5 1387/1/5 1391/1/5
f 1393/1/5 1391/1/5 1390/1/5
f 1394/1/5 1391/1/5 1393/1/5
f 1397/4/5 1396/4/5 1395/4/5
f 1398/4/5 1396/4/5 1397/4/5
f 1402/4/5 1399/4/5 1398/4/5
f 1403/4/5 1399/4/5 1402/4/5
f 1404/4/5 1401/4/5 1400/4/5
f 1405/4/5 1401/4/5 1404/4/5
f 1410/4/5 1407/4/5 1406/4/5
f 1411/4/5 1407/4/5 1410/4/5
f 1412/4/5 1409/4/5 1408/4/5
f 1413/4/5 1409/4/5 1412/4/5
f 1416/4/5 1415/4/5 1414/4/5
f 1417/4/5 1415/4/5 1416/4/5
f 1418/4/6 1419/4/6 1422/4/6
f 1422/4/6 1419/4/6 1423/4/6
f 1420/4/6 1421/4/6 1424/4/6
f 1424/4/6 1421/4/6 1425/4/6
f 1426/3/6 1427/3/6 1428/3/6
f 1428/3/6 1427/3/6 1429/3/6
f 1430/4/6 1431/4/6 1434/4/6
f 1434/4/6 1431/4/6 1435/4/6
f 1432/4/6 1433/4/6 1436/4/6
f 1436/4/6 1433/4/6 1437/4/6
f 1438/4/6 1439/4/6 1442/4/6
f 1442/4/6 1439/4/6 1443/4/6
f 1440/4/6 1441/4/6 1444/4/6
f 1444/4/6 1441/4/6 1445/4/6
f 1446/1/6 1447/1/6 1450/1/6
f 1450/1/6 1447/1/6 1451/1/6
f 1448/1/6 1449/1/6 1452/1/6
f 1452/1/6 1449/1/6 1453/1/6
f 1454/4/6 1455/4/6 1458/4/6
f 1458/4/6 1455/4/6 1459/4/6
f 1456/4/6 1457/4/6 1462/4/6
f 1462/4/6 1457/4/6 1463/4/6
f 1459/4/6 1460/4/6 1464/4/6
f 1464/4/6 1460/4/6 1465/4/6
f 1461/4/6 1462/4/6 1466/4/6
f 1466/4/6 1462/4/6 1467/4/6
f 1468/2/6 1469/2/6 1472/2/6
f 1472/2/6 1469/2/6 1473/2/6
f 1470/1/6 1471/1/6 1474/1/6
f 1474/1/6 1471/1/6 1475/1/6
f 1476/1/6 1477/1/6 1480/1/6
f 1480/1/6 1477/1/6 1481/1/6
f 1478/1/6 1479/1/6 1482/1/6
f 1482/1/6 1479/1/6 1483/1/6
f 1484/1/6 1485/1/6 1488/1/6
f 1488/1/6 1485/1/6 1489/1/6
f 1486/1/6 1487/1/6 1490/1/6
f 1490/1/6 1487/1/6 1491/1/6
f 1492/1/6 1493/1/6 1496/1/6
f 1496/1/6 1493/1/6 1497/1/6
f 1494/1/6 1495/1/6 1498/1/6
f 1498/1/6 1495/1/6 1499/1/6
f 1500/1/6 1501/1/6 1504/1/6
f 1504/1/6 1501/1/6 1505/1/6
f 1502/1/6 1503/1/6 1506/1/6
f 1506/1/6 1503/1/6 1507/1/6
f 1508/1/6 1509/1/6 1512/1/6
f 1512/1/6 1509/1/6 1513/1/6
f 1510/1/6 1511/1/6 1514/1/6
f 1514/1/6 1511/1/6 1515/1/6
f 1516/1/6 1517/1/6 1518/1/6
f 1518/1/6 1517/1/6 1519/1/6
f 1522/3/6 1523/3/6 1524/3/6
f 1524/3/6 1523/3/6 1525/3/6
f 1524/4/6 1525/4/6 1526/4/6
f 1520/3/6 1521/3/6 1527/3/6
f 1527/3/6 1521/3/6 1528/3/6
f 1526/4/6 1525/4/6 1531/4/6
f 1531/4/6 1525/4/6 1532/4/6
f 1528/4/6 1529/4/6 1533/4/6
f 1530/4/6 1531/4/6 1534/4/6
f 1528/4/6 1533/4/6 1535/4/6
f 1535/4/6 1533/4/6 1536/4/6
f 1534/4/6 1531/4/6 1537/4/6
f 1537/4/6 1531/4/6 1538/4/6
f 1536/4/6 1537/4/6 1539/4/6
f 1539/4/6 1537/4/6 1540/4/6
f 1541/1/6 1542/1/6 1545/1/6
f 1545/1/6 1542/1/6 1546/1/6
f 1543/1/6 1544/1/6 1547/1/6
f 1547/1/6 1544/1/6 1548/1/6
f 1546/1/6 1547/1/6 1549/1/6
f 1549/1/6 1547/1/6 1550/1/6
f 1551/4/6 1552/4/6 1555/4/6
f 1552/3/6 1553/3/6 1556/3/6
f 1555/4/6 1552/4/6 1556/4/6
f 1556/3/6 1553/3/6 1557/3/6
f 1553/4/6 1554/4/6 1558/4/6
f 1557/3/6 1553/3/6 1558/3/6
f 1558/4/6 1554/4/6 1559/4/6
f 1558/3/6 1559/3/6 1560/3/6
f 1557/3/6 1558/3/6 1560/3/6
f 1560/3/6 1559/3/6 1561/3/6
f 1557/3/6 1560/3/6 1562/3/6
f 1562/3/6 1560/3/6 1563/3/6
f 1560/4/6 1561/4/6 1564/4/6
f 1563/3/6 1560/3/6 1564/3/6
f 1564/4/6 1561/4/6 1565/4/6
f 1563/3/6 1564/3/6 1566/3/6
f 1566/3/6 1564/3/6 1567/3/6
f 1566/4/6 1567/4/6 1568/4/6
f 1568/4/6 1567/4/6 1569/4/6
f 1570/1/6 1571/1/6 1574/1/6
f 1574/1/6 1571/1/6 1575/1/6
f 1572/1/6 1573/1/6 1576/1/6
f 1574/2/6 1575/2/6 1577/2/6
f 1577/2/6 1575/2/6 1578/2/6
f 1576/1/6 1573/1/6 1581/1/6
f 1581/1/6 1573/1/6 1582/1/6
f 1578/2/6 1579/2/6 1583/2/6
f 1583/2/6 1579/2/6 1584/2/6
f 1580/1/6 1581/1/6 1585/1/6
f 1583/1/6 1584/1/6 1586/1/6
f 1586/1/6 1584/1/6 1587/1/6
f 1585/1/6 1581/1/6 1590/1/6
f 1590/1/6 1581/1/6 1591/1/6
f 1587/1/6 1588/1/6 1592/1/6
f 1592/1/6 1588/1/6 1593/1/6
f 1589/1/6 1590/1/6 1596/1/6
f 1596/1/6 1590/1/6 1597/1/6
f 1595/1/6 1596/1/6 1598/1/6
f 1593/1/6 1594/1/6 1599/1/6
f 1599/1/6 1594/1/6 1600/1/6
f 1598/1/6 1596/1/6 1603/1/6
f 1603/1/6 1596/1/6 1604/1/6
f 1600/1/6 1601/1/6 1605/1/6
f 1605/1/6 1601/1/6 1606/1/6
f 1602/2/6 1603/2/6 1609/2/6
f 1609/2/6 1603/2/6 1610/2/6
f 1606/1/6 1607/1/6 1611/1/6
f 1611/1/6 1607/1/6 1612/1/6
f 1608/1/6 1609/1/6 1615/1/6
f 1615/1/6 1609/1/6 1616/1/6
f 1613/1/6 1614/1/6 1617/1/6
f 1617/1/6 1614/1/6 1618/1/6
f 1619/4/6 1620/4/6 1623/4/6
f 1623/4/6 1620/4/6 1624/4/6
f 1624/4/6 1620/4/6 1625/4/6
f 1621/4/6 1622/4/6 1627/4/6
f 1627/4/6 1622/4/6 1628/4/6
f 1625/4/6 1626/4/6 1629/4/6
f 1624/4/6 1625/4/6 1629/4/6
f 1629/4/6 1626/4/6 1630/4/6
f 1631/2/6 1632/2/6 1635/2/6
f 1635/2/6 1632/2/6 1636/2/6
f 1635/1/6 1636/1/6 1637/1/6
f 1633/2/6 1634/2/6 1638/2/6
f 1638/2/6 1634/2/6 1639/2/6
f 1635/1/6 1637/1/6 1640/1/6
f 1640/1/6 1637/1/6 1641/1/6
f 1638/1/6 1639/1/6 1642/1/6
f 1642/1/6 1639/1/6 1643/1/6
f 1644/1/6 1645/1/6 1648/1/6
f 1644/1/6 1648/1/6 1649/1/6
f 1649/1/6 1648/1/6 1650/1/6
f 1646/2/6 1647/2/6 1652/2/6
f 1652/2/6 1647/2/6 1653/2/6
f 1650/1/6 1651/1/6 1654/1/6
f 1651/1/6 1652/1/6 1654/1/6
f 1654/1/6 1652/1/6 1655/1/6
f 1656/4/6 1657/4/6 1660/4/6
f 1660/4/6 1657/4/6 1661/4/6
f 1658/4/6 1659/4/6 1662/4/6
f 1662/4/6 1659/4/6 1663/4/6
f 1664/1/6 1665/1/6 1668/1/6
f 1668/1/6 1665/1/6 1669/1/6
f 1669/1/6 1665/1/6 1670/1/6
f 1666/1/6 1667/1/6 1671/1/6
f 1669/1/6 1670/1/6 1672/1/6
f 1668/2/6 1669/2/6 1672/2/6
f 1672/1/6 1670/1/6 1673/1/6
f 1671/1/6 1667/1/6 1674/1/6
f 1674/1/6 1667/1/6 1675/1/6
f 1672/2/6 1673/2/6 1676/2/6
f 1668/2/6 1672/2/6 1676/2/6
f 1676/2/6 1673/2/6 1677/2/6
f 1674/2/6 1675/2/6 1681/2/6
f 1681/2/6 1675/2/6 1682/2/6
f 1677/2/6 1678/2/6 1683/2/6
f 1678/1/6 1679/1/6 1684/1/6
f 1683/2/6 1678/2/6 1684/2/6
f 1680/2/6 1681/2/6 1685/2/6
f 1685/2/6 1681/2/6 1686/2/6
f 1686/2/6 1681/2/6 1687/2/6
f 1684/1/6 1679/1/6 1688/1/6
f 1683/1/6 1684/1/6 1688/1/6
f 1686/1/6 1687/1/6 1691/1/6
f 1688/1/6 1689/1/6 1692/1/6
f 1683/1/6 1688/1/6 1692/1/6
f 1692/1/6 1689/1/6 1693/1/6
f 1693/1/6 1689/1/6 1694/1/6
f 1690/1/6 1691/1/6 1695/1/6
f 1691/1/6 1687/1/6 1696/1/6
f 1695/1/6 1691/1/6 1696/1/6
f 1696/1/6 1687/1/6 1697/1/6
f 1693/1/6 1694/1/6 1698/1/6
f 1694/1/6 1695/1/6 1698/1/6
f 1695/1/6 1696/1/6 1698/1/6
f 1698/1/6 1696/1/6 1699/1/6
f 1693/1/6 1698/1/6 1700/1/6
f 1698/2/6 1699/2/6 1701/2/6
f 1700/1/6 1698/1/6 1701/1/6
f 1693/1/6 1700/1/6 1702/1/6
f 1702/1/6 1700/1/6 1703/1/6
f 1700/2/6 1701/2/6 1704/2/6
f 1703/1/6 1700/1/6 1704/1/6
f 1701/2/6 1699/2/6 1705/2/6
f 1704/2/6 1701/2/6 1705/2/6
f 1705/2/6 1699/2/6 1706/2/6
f 1703/2/6 1704/2/6 1707/2/6
f 1704/2/6 1705/2/6 1707/2/6
f 1707/2/6 1705/2/6 1708/2/6
f 1707/1/6 1708/1/6 1709/1/6
f 1708/2/6 1705/2/6 1710/2/6
f 1709/1/6 1708/1/6 1710/1/6
f 1710/2/6 1705/2/6 1711/2/6
f 1712/1/6 1713/1/6 1716/1/6
f 1716/1/6 1713/1/6 1717/1/6
f 1717/1/6 1713/1/6 1718/1/6
f 1714/1/6 1715/1/6 1719/1/6
f 1719/1/6 1715/1/6 1720/1/6
f 1717/1/6 1718/1/6 1721/1/6
f 1716/2/6 1717/2/6 1721/2/6
f 1721/1/6 1718/1/6 1722/1/6
f 1714/1/6 1719/1/6 1723/1/6
f 1719/2/6 1720/2/6 1724/2/6
f 1723/1/6 1719/1/6 1724/1/6
f 1721/2/6 1722/2/6 1725/2/6
f 1716/2/6 1721/2/6 1725/2/6
f 1725/2/6 1722/2/6 1726/2/6
f 1723/2/6 1724/2/6 1728/2/6
f 1724/2/6 1720/2/6 1729/2/6
f 1728/2/6 1724/2/6 1729/2/6
f 1727/2/6 1728/2/6 1730/2/6
f 1726/1/6 1727/1/6 1730/1/6
f 1730/2/6 1728/2/6 1731/2/6
f 1726/1/6 1730/1/6 1732/1/6
f 1730/1/6 1731/1/6 1732/1/6
f 1732/1/6 1731/1/6 1733/1/6
f 1733/1/6 1731/1/6 1734/1/6
f 1734/1/6 1731/1/6 1735/1/6
f 1733/1/6 1734/1/6 1736/1/6
f 1736/1/6 1734/1/6 1737/1/6
f 1738/2/6 1739/2/6 1741/2/6
f 1739/1/6 1740/1/6 1742/1/6
f 1741/2/6 1739/2/6 1742/2/6
f 1741/1/6 1742/1/6 1743/1/6
f 1742/1/6 1740/1/6 1744/1/6
f 1743/1/6 1742/1/6 1744/1/6
