# MagicaVoxel @ Ephtracy

# group
o 

# material
mtllib nuke.mtl
usemtl palette

# normals
vn -1 0 0
vn 1 0 0
vn 0 0 1
vn 0 0 -1
vn 0 -1 0
vn 0 1 0

# texcoords
vt 0.646484 0.5
vt 0.892578 0.5
vt 0.912109 0.5
vt 0.955078 0.5

# verts
v -0.8 0.2 0.3
v -0.8 0.2 -0.6
v -0.8 0.5 0.3
v -0.8 0.5 -0.6
v -0.8 0.6 0.3
v -0.8 0.6 -0.6
v -0.8 0.8 0.3
v -0.8 0.8 -0.6
v -0.8 1 0.3
v -0.8 1 -0.6
v -0.8 1.5 0.3
v -0.8 1.5 -0.6
v -0.8 1.6 0.3
v -0.8 1.6 -0.6
v -0.7 0.1 0.3
v -0.7 0.1 -0.6
v -0.7 0.2 0.4
v -0.7 0.2 0.3
v -0.7 0.2 -0.6
v -0.7 0.2 -0.7
v -0.7 0.5 0.4
v -0.7 0.5 0.3
v -0.7 0.5 -0.6
v -0.7 0.5 -0.7
v -0.7 0.6 0.4
v -0.7 0.6 0.3
v -0.7 0.6 -0.6
v -0.7 0.6 -0.7
v -0.7 0.8 0.4
v -0.7 0.8 0.3
v -0.7 0.8 -0.6
v -0.7 0.8 -0.7
v -0.7 1 0.4
v -0.7 1 0.3
v -0.7 1 -0.6
v -0.7 1 -0.7
v -0.7 1.5 0.4
v -0.7 1.5 0.3
v -0.7 1.5 -0.6
v -0.7 1.5 -0.7
v -0.7 1.6 0.4
v -0.7 1.6 0.3
v -0.7 1.6 -0.6
v -0.7 1.6 -0.7
v -0.7 1.8 0.3
v -0.7 1.8 -0.6
v -0.6 0 0.3
v -0.6 0 -0.6
v -0.6 0.1 0.4
v -0.6 0.1 0.3
v -0.6 0.1 -0.6
v -0.6 0.1 -0.7
v -0.6 0.2 0.5
v -0.6 0.2 0.4
v -0.6 0.2 0.3
v -0.6 0.2 -0.6
v -0.6 0.2 -0.7
v -0.6 0.2 -0.8
v -0.6 0.5 0.5
v -0.6 0.5 0.4
v -0.6 0.5 -0.7
v -0.6 0.5 -0.8
v -0.6 0.6 0.5
v -0.6 0.6 0.4
v -0.6 0.6 -0.7
v -0.6 0.6 -0.8
v -0.6 0.8 0.5
v -0.6 0.8 0.4
v -0.6 0.8 -0.7
v -0.6 0.8 -0.8
v -0.6 1 0.5
v -0.6 1 0.4
v -0.6 1 -0.7
v -0.6 1 -0.8
v -0.6 1.5 0.5
v -0.6 1.5 0.4
v -0.6 1.5 -0.7
v -0.6 1.5 -0.8
v -0.6 1.6 0.5
v -0.6 1.6 0.4
v -0.6 1.6 0.3
v -0.6 1.6 -0.6
v -0.6 1.6 -0.7
v -0.6 1.6 -0.8
v -0.6 1.8 0.4
v -0.6 1.8 0.3
v -0.6 1.8 -0.6
v -0.6 1.8 -0.7
v -0.6 1.9 0.3
v -0.6 1.9 -0.6
v -0.5 1.9 0.2
v -0.5 1.9 -0.5
v -0.5 2 0.2
v -0.5 2 -0.5
v -0.4 2 0.1
v -0.4 2 -0.4
v -0.4 2.1 0.1
v -0.4 2.1 -0.4
v -0.3 2.1 0
v -0.3 2.1 -0.3
v -0.3 2.5 0.1
v -0.3 2.5 0
v -0.3 2.5 -0.3
v -0.3 2.5 -0.4
v -0.3 2.6 0.2
v -0.3 2.6 0.1
v -0.3 2.6 -0.1
v -0.3 2.6 -0.2
v -0.3 2.6 -0.4
v -0.3 2.6 -0.5
v -0.3 2.7 0.4
v -0.3 2.7 0.2
v -0.3 2.7 0
v -0.3 2.7 -0.1
v -0.3 2.7 -0.2
v -0.3 2.7 -0.3
v -0.3 2.7 -0.5
v -0.3 2.7 -0.7
v -0.3 2.8 0.4
v -0.3 2.8 0
v -0.3 2.8 -0.3
v -0.3 2.8 -0.7
v 5.96046e-08 2.1 0
v 5.96046e-08 2.1 -0.3
v 5.96046e-08 2.5 0.1
v 5.96046e-08 2.5 0
v 5.96046e-08 2.5 -0.3
v 5.96046e-08 2.5 -0.4
v 5.96046e-08 2.6 0.2
v 5.96046e-08 2.6 0.1
v 5.96046e-08 2.6 -0.1
v 5.96046e-08 2.6 -0.2
v 5.96046e-08 2.6 -0.4
v 5.96046e-08 2.6 -0.5
v 5.96046e-08 2.7 0.4
v 5.96046e-08 2.7 0.2
v 5.96046e-08 2.7 0
v 5.96046e-08 2.7 -0.1
v 5.96046e-08 2.7 -0.2
v 5.96046e-08 2.7 -0.3
v 5.96046e-08 2.7 -0.5
v 5.96046e-08 2.7 -0.7
v 5.96046e-08 2.8 0.4
v 5.96046e-08 2.8 0
v 5.96046e-08 2.8 -0.3
v 5.96046e-08 2.8 -0.7
v 0.1 2 0.1
v 0.1 2 -0.4
v 0.1 2.1 0.1
v 0.1 2.1 -0.4
v 0.2 1.9 0.2
v 0.2 1.9 -0.5
v 0.2 2 0.2
v 0.2 2 -0.5
v 0.3 0 0.3
v 0.3 0 -0.6
v 0.3 0.1 0.4
v 0.3 0.1 0.3
v 0.3 0.1 -0.6
v 0.3 0.1 -0.7
v 0.3 0.2 0.5
v 0.3 0.2 0.4
v 0.3 0.2 0.3
v 0.3 0.2 -0.6
v 0.3 0.2 -0.7
v 0.3 0.2 -0.8
v 0.3 0.5 0.5
v 0.3 0.5 0.4
v 0.3 0.5 -0.7
v 0.3 0.5 -0.8
v 0.3 0.6 0.5
v 0.3 0.6 0.4
v 0.3 0.6 -0.7
v 0.3 0.6 -0.8
v 0.3 0.8 0.5
v 0.3 0.8 0.4
v 0.3 0.8 -0.7
v 0.3 0.8 -0.8
v 0.3 1 0.5
v 0.3 1 0.4
v 0.3 1 -0.7
v 0.3 1 -0.8
v 0.3 1.5 0.5
v 0.3 1.5 0.4
v 0.3 1.5 -0.7
v 0.3 1.5 -0.8
v 0.3 1.6 0.5
v 0.3 1.6 0.4
v 0.3 1.6 0.3
v 0.3 1.6 -0.6
v 0.3 1.6 -0.7
v 0.3 1.6 -0.8
v 0.3 1.8 0.4
v 0.3 1.8 0.3
v 0.3 1.8 -0.6
v 0.3 1.8 -0.7
v 0.3 1.9 0.3
v 0.3 1.9 -0.6
v 0.4 0.1 0.3
v 0.4 0.1 -0.6
v 0.4 0.2 0.4
v 0.4 0.2 0.3
v 0.4 0.2 -0.6
v 0.4 0.2 -0.7
v 0.4 0.5 0.4
v 0.4 0.5 0.3
v 0.4 0.5 -0.6
v 0.4 0.5 -0.7
v 0.4 0.6 0.4
v 0.4 0.6 0.3
v 0.4 0.6 -0.6
v 0.4 0.6 -0.7
v 0.4 0.7 0.3
v 0.4 0.7 -0.6
v 0.4 0.8 0.4
v 0.4 0.8 0.3
v 0.4 0.8 -0.6
v 0.4 0.8 -0.7
v 0.4 1 0.4
v 0.4 1 0.3
v 0.4 1 -0.6
v 0.4 1 -0.7
v 0.4 1.5 0.4
v 0.4 1.5 0.3
v 0.4 1.5 -0.6
v 0.4 1.5 -0.7
v 0.4 1.6 0.4
v 0.4 1.6 0.3
v 0.4 1.6 -0.6
v 0.4 1.6 -0.7
v 0.4 1.8 0.3
v 0.4 1.8 -0.6
v 0.5 0.2 0.3
v 0.5 0.2 -0.6
v 0.5 0.5 0.3
v 0.5 0.5 -0.6
v 0.5 0.6 0.3
v 0.5 0.6 -0.6
v 0.5 0.7 0.3
v 0.5 0.7 -0.6
v 0.5 0.8 -0.1
v 0.5 0.8 -0.2
v 0.5 0.9 -0.1
v 0.5 0.9 -0.2
v 0.5 1 0.3
v 0.5 1 0.2
v 0.5 1 -0.1
v 0.5 1 -0.2
v 0.5 1 -0.5
v 0.5 1 -0.6
v 0.5 1.1 0.2
v 0.5 1.1 0.1
v 0.5 1.1 -0.4
v 0.5 1.1 -0.5
v 0.5 1.2 0.1
v 0.5 1.2 0
v 0.5 1.2 -0.1
v 0.5 1.2 -0.2
v 0.5 1.2 -0.3
v 0.5 1.2 -0.4
v 0.5 1.3 0
v 0.5 1.3 -0.1
v 0.5 1.3 -0.2
v 0.5 1.3 -0.3
v 0.5 1.4 -0.1
v 0.5 1.4 -0.2
v 0.5 1.5 0.3
v 0.5 1.5 -0.6
v 0.5 1.6 0.3
v 0.5 1.6 -0.6
v -0.6 0.2 0.5
v -0.6 0.5 0.5
v -0.6 0.6 0.5
v -0.6 0.8 0.5
v -0.6 1 0.5
v -0.6 1.5 0.5
v -0.6 1.6 0.5
v 0.3 0.2 0.5
v 0.3 0.5 0.5
v 0.3 0.6 0.5
v 0.3 0.8 0.5
v 0.3 1 0.5
v 0.3 1.5 0.5
v 0.3 1.6 0.5
v -0.7 0.2 0.4
v -0.7 0.5 0.4
v -0.7 0.6 0.4
v -0.7 0.8 0.4
v -0.7 1 0.4
v -0.7 1.5 0.4
v -0.7 1.6 0.4
v -0.6 0.1 0.4
v -0.6 0.2 0.4
v -0.6 0.5 0.4
v -0.6 0.6 0.4
v -0.6 0.8 0.4
v -0.6 1 0.4
v -0.6 1.5 0.4
v -0.6 1.6 0.4
v -0.6 1.8 0.4
v -0.3 2.7 0.4
v -0.3 2.8 0.4
v 5.96046e-08 2.7 0.4
v 5.96046e-08 2.8 0.4
v 0.3 0.1 0.4
v 0.3 0.2 0.4
v 0.3 0.5 0.4
v 0.3 0.6 0.4
v 0.3 0.8 0.4
v 0.3 1 0.4
v 0.3 1.5 0.4
v 0.3 1.6 0.4
v 0.3 1.8 0.4
v 0.4 0.2 0.4
v 0.4 0.5 0.4
v 0.4 0.6 0.4
v 0.4 0.8 0.4
v 0.4 1 0.4
v 0.4 1.5 0.4
v 0.4 1.6 0.4
v -0.8 0.2 0.3
v -0.8 0.5 0.3
v -0.8 0.6 0.3
v -0.8 0.8 0.3
v -0.8 1 0.3
v -0.8 1.5 0.3
v -0.8 1.6 0.3
v -0.7 0.1 0.3
v -0.7 0.2 0.3
v -0.7 0.5 0.3
v -0.7 0.6 0.3
v -0.7 0.8 0.3
v -0.7 1 0.3
v -0.7 1.5 0.3
v -0.7 1.6 0.3
v -0.7 1.8 0.3
v -0.6 0 0.3
v -0.6 0.1 0.3
v -0.6 0.2 0.3
v -0.6 1.6 0.3
v -0.6 1.8 0.3
v -0.6 1.9 0.3
v 0.3 0 0.3
v 0.3 0.1 0.3
v 0.3 0.2 0.3
v 0.3 1.6 0.3
v 0.3 1.8 0.3
v 0.3 1.9 0.3
v 0.4 0.1 0.3
v 0.4 0.2 0.3
v 0.4 0.5 0.3
v 0.4 0.6 0.3
v 0.4 0.7 0.3
v 0.4 0.8 0.3
v 0.4 1 0.3
v 0.4 1.5 0.3
v 0.4 1.6 0.3
v 0.4 1.8 0.3
v 0.5 0.2 0.3
v 0.5 0.5 0.3
v 0.5 0.6 0.3
v 0.5 0.7 0.3
v 0.5 1 0.3
v 0.5 1.5 0.3
v 0.5 1.6 0.3
v -0.5 1.9 0.2
v -0.5 2 0.2
v -0.3 2.6 0.2
v -0.3 2.7 0.2
v 5.96046e-08 2.6 0.2
v 5.96046e-08 2.7 0.2
v 0.2 1.9 0.2
v 0.2 2 0.2
v -0.4 2 0.1
v -0.4 2.1 0.1
v -0.3 2.5 0.1
v -0.3 2.6 0.1
v 5.96046e-08 2.5 0.1
v 5.96046e-08 2.6 0.1
v 0.1 2 0.1
v 0.1 2.1 0.1
v -0.3 2.1 0
v -0.3 2.5 0
v 5.96046e-08 2.1 0
v 5.96046e-08 2.5 0
v -0.3 2.6 -0.2
v -0.3 2.7 -0.2
v 5.96046e-08 2.6 -0.2
v 5.96046e-08 2.7 -0.2
v -0.3 2.7 -0.3
v -0.3 2.8 -0.3
v 5.96046e-08 2.7 -0.3
v 5.96046e-08 2.8 -0.3
v -0.3 2.7 0
v -0.3 2.8 0
v 5.96046e-08 2.7 0
v 5.96046e-08 2.8 0
v -0.3 2.6 -0.1
v -0.3 2.7 -0.1
v 5.96046e-08 2.6 -0.1
v 5.96046e-08 2.7 -0.1
v -0.3 2.1 -0.3
v -0.3 2.5 -0.3
v 5.96046e-08 2.1 -0.3
v 5.96046e-08 2.5 -0.3
v -0.4 2 -0.4
v -0.4 2.1 -0.4
v -0.3 2.5 -0.4
v -0.3 2.6 -0.4
v 5.96046e-08 2.5 -0.4
v 5.96046e-08 2.6 -0.4
v 0.1 2 -0.4
v 0.1 2.1 -0.4
v -0.5 1.9 -0.5
v -0.5 2 -0.5
v -0.3 2.6 -0.5
v -0.3 2.7 -0.5
v 5.96046e-08 2.6 -0.5
v 5.96046e-08 2.7 -0.5
v 0.2 1.9 -0.5
v 0.2 2 -0.5
v -0.8 0.2 -0.6
v -0.8 0.5 -0.6
v -0.8 0.6 -0.6
v -0.8 0.8 -0.6
v -0.8 1 -0.6
v -0.8 1.5 -0.6
v -0.8 1.6 -0.6
v -0.7 0.1 -0.6
v -0.7 0.2 -0.6
v -0.7 0.5 -0.6
v -0.7 0.6 -0.6
v -0.7 0.8 -0.6
v -0.7 1 -0.6
v -0.7 1.5 -0.6
v -0.7 1.6 -0.6
v -0.7 1.8 -0.6
v -0.6 0 -0.6
v -0.6 0.1 -0.6
v -0.6 0.2 -0.6
v -0.6 1.6 -0.6
v -0.6 1.8 -0.6
v -0.6 1.9 -0.6
v 0.3 0 -0.6
v 0.3 0.1 -0.6
v 0.3 0.2 -0.6
v 0.3 1.6 -0.6
v 0.3 1.8 -0.6
v 0.3 1.9 -0.6
v 0.4 0.1 -0.6
v 0.4 0.2 -0.6
v 0.4 0.5 -0.6
v 0.4 0.6 -0.6
v 0.4 0.7 -0.6
v 0.4 0.8 -0.6
v 0.4 1 -0.6
v 0.4 1.5 -0.6
v 0.4 1.6 -0.6
v 0.4 1.8 -0.6
v 0.5 0.2 -0.6
v 0.5 0.5 -0.6
v 0.5 0.6 -0.6
v 0.5 0.7 -0.6
v 0.5 1 -0.6
v 0.5 1.5 -0.6
v 0.5 1.6 -0.6
v -0.7 0.2 -0.7
v -0.7 0.5 -0.7
v -0.7 0.6 -0.7
v -0.7 0.8 -0.7
v -0.7 1 -0.7
v -0.7 1.5 -0.7
v -0.7 1.6 -0.7
v -0.6 0.1 -0.7
v -0.6 0.2 -0.7
v -0.6 0.5 -0.7
v -0.6 0.6 -0.7
v -0.6 0.8 -0.7
v -0.6 1 -0.7
v -0.6 1.5 -0.7
v -0.6 1.6 -0.7
v -0.6 1.8 -0.7
v -0.3 2.7 -0.7
v -0.3 2.8 -0.7
v 5.96046e-08 2.7 -0.7
v 5.96046e-08 2.8 -0.7
v 0.3 0.1 -0.7
v 0.3 0.2 -0.7
v 0.3 0.5 -0.7
v 0.3 0.6 -0.7
v 0.3 0.8 -0.7
v 0.3 1 -0.7
v 0.3 1.5 -0.7
v 0.3 1.6 -0.7
v 0.3 1.8 -0.7
v 0.4 0.2 -0.7
v 0.4 0.5 -0.7
v 0.4 0.6 -0.7
v 0.4 0.8 -0.7
v 0.4 1 -0.7
v 0.4 1.5 -0.7
v 0.4 1.6 -0.7
v -0.6 0.2 -0.8
v -0.6 0.5 -0.8
v -0.6 0.6 -0.8
v -0.6 0.8 -0.8
v -0.6 1 -0.8
v -0.6 1.5 -0.8
v -0.6 1.6 -0.8
v 0.3 0.2 -0.8
v 0.3 0.5 -0.8
v 0.3 0.6 -0.8
v 0.3 0.8 -0.8
v 0.3 1 -0.8
v 0.3 1.5 -0.8
v 0.3 1.6 -0.8
v -0.6 0 0.3
v 0.3 0 0.3
v -0.6 0 -0.6
v 0.3 0 -0.6
v -0.6 0.1 0.4
v 0.3 0.1 0.4
v -0.7 0.1 0.3
v -0.6 0.1 0.3
v 0.3 0.1 0.3
v 0.4 0.1 0.3
v -0.7 0.1 -0.6
v -0.6 0.1 -0.6
v 0.3 0.1 -0.6
v 0.4 0.1 -0.6
v -0.6 0.1 -0.7
v 0.3 0.1 -0.7
v -0.6 0.2 0.5
v 0.3 0.2 0.5
v -0.7 0.2 0.4
v -0.6 0.2 0.4
v 0.3 0.2 0.4
v 0.4 0.2 0.4
v -0.8 0.2 0.3
v -0.7 0.2 0.3
v -0.6 0.2 0.3
v 0.3 0.2 0.3
v 0.4 0.2 0.3
v 0.5 0.2 0.3
v -0.8 0.2 -0.6
v -0.7 0.2 -0.6
v -0.6 0.2 -0.6
v 0.3 0.2 -0.6
v 0.4 0.2 -0.6
v 0.5 0.2 -0.6
v -0.7 0.2 -0.7
v -0.6 0.2 -0.7
v 0.3 0.2 -0.7
v 0.4 0.2 -0.7
v -0.6 0.2 -0.8
v 0.3 0.2 -0.8
v -0.3 2.5 0.1
v 5.96046e-08 2.5 0.1
v -0.3 2.5 0
v 5.96046e-08 2.5 0
v -0.3 2.5 -0.3
v 5.96046e-08 2.5 -0.3
v -0.3 2.5 -0.4
v 5.96046e-08 2.5 -0.4
v -0.3 2.6 0.2
v 5.96046e-08 2.6 0.2
v -0.3 2.6 0.1
v 5.96046e-08 2.6 0.1
v -0.3 2.6 -0.4
v 5.96046e-08 2.6 -0.4
v -0.3 2.6 -0.5
v 5.96046e-08 2.6 -0.5
v -0.3 2.7 0.4
v 5.96046e-08 2.7 0.4
v -0.3 2.7 0.2
v 5.96046e-08 2.7 0.2
v -0.3 2.7 -0.5
v 5.96046e-08 2.7 -0.5
v -0.3 2.7 -0.7
v 5.96046e-08 2.7 -0.7
v -0.6 1.6 0.5
v 0.3 1.6 0.5
v -0.7 1.6 0.4
v -0.6 1.6 0.4
v 0.3 1.6 0.4
v 0.4 1.6 0.4
v -0.8 1.6 0.3
v -0.7 1.6 0.3
v -0.6 1.6 0.3
v 0.3 1.6 0.3
v 0.4 1.6 0.3
v 0.5 1.6 0.3
v -0.8 1.6 -0.6
v -0.7 1.6 -0.6
v -0.6 1.6 -0.6
v 0.3 1.6 -0.6
v 0.4 1.6 -0.6
v 0.5 1.6 -0.6
v -0.7 1.6 -0.7
v -0.6 1.6 -0.7
v 0.3 1.6 -0.7
v 0.4 1.6 -0.7
v -0.6 1.6 -0.8
v 0.3 1.6 -0.8
v -0.6 1.8 0.4
v 0.3 1.8 0.4
v -0.7 1.8 0.3
v -0.6 1.8 0.3
v 0.3 1.8 0.3
v 0.4 1.8 0.3
v -0.7 1.8 -0.6
v -0.6 1.8 -0.6
v 0.3 1.8 -0.6
v 0.4 1.8 -0.6
v -0.6 1.8 -0.7
v 0.3 1.8 -0.7
v -0.6 1.9 0.3
v 0.3 1.9 0.3
v -0.5 1.9 0.2
v 0.2 1.9 0.2
v -0.5 1.9 -0.5
v 0.2 1.9 -0.5
v -0.6 1.9 -0.6
v 0.3 1.9 -0.6
v -0.5 2 0.2
v 0.2 2 0.2
v -0.4 2 0.1
v 0.1 2 0.1
v -0.4 2 -0.4
v 0.1 2 -0.4
v -0.5 2 -0.5
v 0.2 2 -0.5
v -0.4 2.1 0.1
v 0.1 2.1 0.1
v -0.3 2.1 0
v 5.96046e-08 2.1 0
v -0.3 2.1 -0.3
v 5.96046e-08 2.1 -0.3
v -0.4 2.1 -0.4
v 0.1 2.1 -0.4
v -0.3 2.6 -0.1
v 5.96046e-08 2.6 -0.1
v -0.3 2.6 -0.2
v 5.96046e-08 2.6 -0.2
v -0.3 2.7 0
v 5.96046e-08 2.7 0
v -0.3 2.7 -0.1
v 5.96046e-08 2.7 -0.1
v -0.3 2.7 -0.2
v 5.96046e-08 2.7 -0.2
v -0.3 2.7 -0.3
v 5.96046e-08 2.7 -0.3
v -0.3 2.8 0.4
v 5.96046e-08 2.8 0.4
v -0.3 2.8 0
v 5.96046e-08 2.8 0
v -0.3 2.8 -0.3
v 5.96046e-08 2.8 -0.3
v -0.3 2.8 -0.7
v 5.96046e-08 2.8 -0.7

# faces
f 3/3/1 2/3/1 1/3/1
f 4/3/1 2/3/1 3/3/1
f 5/1/1 4/1/1 3/1/1
f 6/1/1 4/1/1 5/1/1
f 7/3/1 6/3/1 5/3/1
f 8/3/1 6/3/1 7/3/1
f 9/1/1 8/1/1 7/1/1
f 10/1/1 8/1/1 9/1/1
f 11/3/1 10/3/1 9/3/1
f 12/3/1 10/3/1 11/3/1
f 13/4/1 12/4/1 11/4/1
f 14/4/1 12/4/1 13/4/1
f 18/3/1 16/3/1 15/3/1
f 19/3/1 16/3/1 18/3/1
f 21/3/1 18/3/1 17/3/1
f 22/3/1 18/3/1 21/3/1
f 23/3/1 20/3/1 19/3/1
f 24/3/1 20/3/1 23/3/1
f 25/1/1 22/1/1 21/1/1
f 26/1/1 22/1/1 25/1/1
f 27/1/1 24/1/1 23/1/1
f 28/1/1 24/1/1 27/1/1
f 29/3/1 26/3/1 25/3/1
f 30/3/1 26/3/1 29/3/1
f 31/3/1 28/3/1 27/3/1
f 32/3/1 28/3/1 31/3/1
f 33/1/1 30/1/1 29/1/1
f 34/1/1 30/1/1 33/1/1
f 35/1/1 32/1/1 31/1/1
f 36/1/1 32/1/1 35/1/1
f 37/3/1 34/3/1 33/3/1
f 38/3/1 34/3/1 37/3/1
f 39/3/1 36/3/1 35/3/1
f 40/3/1 36/3/1 39/3/1
f 41/4/1 38/4/1 37/4/1
f 42/4/1 38/4/1 41/4/1
f 43/4/1 40/4/1 39/4/1
f 44/4/1 40/4/1 43/4/1
f 45/3/1 43/3/1 42/3/1
f 46/3/1 43/3/1 45/3/1
f 50/3/1 48/3/1 47/3/1
f 51/3/1 48/3/1 50/3/1
f 54/3/1 50/3/1 49/3/1
f 55/3/1 50/3/1 54/3/1
f 56/3/1 52/3/1 51/3/1
f 57/3/1 52/3/1 56/3/1
f 59/3/1 54/3/1 53/3/1
f 60/3/1 54/3/1 59/3/1
f 61/3/1 58/3/1 57/3/1
f 62/3/1 58/3/1 61/3/1
f 63/1/1 60/1/1 59/1/1
f 64/1/1 60/1/1 63/1/1
f 65/1/1 62/1/1 61/1/1
f 66/1/1 62/1/1 65/1/1
f 67/3/1 64/3/1 63/3/1
f 68/3/1 64/3/1 67/3/1
f 69/3/1 66/3/1 65/3/1
f 70/3/1 66/3/1 69/3/1
f 71/1/1 68/1/1 67/1/1
f 72/1/1 68/1/1 71/1/1
f 73/1/1 70/1/1 69/1/1
f 74/1/1 70/1/1 73/1/1
f 75/3/1 72/3/1 71/3/1
f 76/3/1 72/3/1 75/3/1
f 77/3/1 74/3/1 73/3/1
f 78/3/1 74/3/1 77/3/1
f 79/4/1 76/4/1 75/4/1
f 80/4/1 76/4/1 79/4/1
f 83/4/1 78/4/1 77/4/1
f 84/4/1 78/4/1 83/4/1
f 85/3/1 81/3/1 80/3/1
f 86/3/1 81/3/1 85/3/1
f 87/3/1 83/3/1 82/3/1
f 88/3/1 83/3/1 87/3/1
f 89/4/1 87/4/1 86/4/1
f 90/4/1 87/4/1 89/4/1
f 93/3/1 92/3/1 91/3/1
f 94/3/1 92/3/1 93/3/1
f 97/4/1 96/4/1 95/4/1
f 98/4/1 96/4/1 97/4/1
f 102/3/1 100/3/1 99/3/1
f 103/3/1 100/3/1 102/3/1
f 106/3/1 102/3/1 101/3/1
f 106/3/1 104/3/1 103/3/1
f 106/3/1 103/3/1 102/3/1
f 107/3/1 104/3/1 106/3/1
f 108/3/1 104/3/1 107/3/1
f 109/3/1 104/3/1 108/3/1
f 112/3/1 106/3/1 105/3/1
f 112/3/1 107/3/1 106/3/1
f 113/3/1 107/3/1 112/3/1
f 114/3/1 107/3/1 113/3/1
f 115/3/1 109/3/1 108/3/1
f 115/3/1 110/3/1 109/3/1
f 116/3/1 110/3/1 115/3/1
f 117/3/1 110/3/1 116/3/1
f 119/3/1 113/3/1 112/3/1
f 119/3/1 112/3/1 111/3/1
f 120/3/1 113/3/1 119/3/1
f 121/3/1 118/3/1 117/3/1
f 121/3/1 117/3/1 116/3/1
f 122/3/1 118/3/1 121/3/1
f 123/3/2 124/3/2 126/3/2
f 126/3/2 124/3/2 127/3/2
f 125/3/2 126/3/2 130/3/2
f 127/3/2 128/3/2 130/3/2
f 126/3/2 127/3/2 130/3/2
f 130/3/2 128/3/2 131/3/2
f 131/3/2 128/3/2 132/3/2
f 132/3/2 128/3/2 133/3/2
f 129/3/2 130/3/2 136/3/2
f 130/3/2 131/3/2 136/3/2
f 136/3/2 131/3/2 137/3/2
f 137/3/2 131/3/2 138/3/2
f 132/3/2 133/3/2 139/3/2
f 133/3/2 134/3/2 139/3/2
f 139/3/2 134/3/2 140/3/2
f 140/3/2 134/3/2 141/3/2
f 136/3/2 137/3/2 143/3/2
f 135/3/2 136/3/2 143/3/2
f 143/3/2 137/3/2 144/3/2
f 141/3/2 142/3/2 145/3/2
f 140/3/2 141/3/2 145/3/2
f 145/3/2 142/3/2 146/3/2
f 147/4/2 148/4/2 149/4/2
f 149/4/2 148/4/2 150/4/2
f 151/3/2 152/3/2 153/3/2
f 153/3/2 152/3/2 154/3/2
f 155/3/2 156/3/2 158/3/2
f 158/3/2 156/3/2 159/3/2
f 157/3/2 158/3/2 162/3/2
f 162/3/2 158/3/2 163/3/2
f 159/3/2 160/3/2 164/3/2
f 164/3/2 160/3/2 165/3/2
f 161/3/2 162/3/2 167/3/2
f 167/3/2 162/3/2 168/3/2
f 165/3/2 166/3/2 169/3/2
f 169/3/2 166/3/2 170/3/2
f 167/1/2 168/1/2 171/1/2
f 171/1/2 168/1/2 172/1/2
f 169/1/2 170/1/2 173/1/2
f 173/1/2 170/1/2 174/1/2
f 171/3/2 172/3/2 175/3/2
f 175/3/2 172/3/2 176/3/2
f 173/3/2 174/3/2 177/3/2
f 177/3/2 174/3/2 178/3/2
f 175/1/2 176/1/2 179/1/2
f 179/1/2 176/1/2 180/1/2
f 177/1/2 178/1/2 181/1/2
f 181/1/2 178/1/2 182/1/2
f 179/3/2 180/3/2 183/3/2
f 183/3/2 180/3/2 184/3/2
f 181/3/2 182/3/2 185/3/2
f 185/3/2 182/3/2 186/3/2
f 183/4/2 184/4/2 187/4/2
f 187/4/2 184/4/2 188/4/2
f 185/4/2 186/4/2 191/4/2
f 191/4/2 186/4/2 192/4/2
f 188/3/2 189/3/2 193/3/2
f 193/3/2 189/3/2 194/3/2
f 190/3/2 191/3/2 195/3/2
f 195/3/2 191/3/2 196/3/2
f 194/4/2 195/4/2 197/4/2
f 197/4/2 195/4/2 198/4/2
f 199/3/2 200/3/2 202/3/2
f 202/3/2 200/3/2 203/3/2
f 201/3/2 202/3/2 205/3/2
f 205/3/2 202/3/2 206/3/2
f 203/3/2 204/3/2 207/3/2
f 207/3/2 204/3/2 208/3/2
f 205/1/2 206/1/2 209/1/2
f 209/1/2 206/1/2 210/1/2
f 207/1/2 208/1/2 211/1/2
f 211/1/2 208/1/2 212/1/2
f 209/3/2 210/3/2 213/3/2
f 211/3/2 212/3/2 214/3/2
f 209/3/2 213/3/2 215/3/2
f 215/3/2 213/3/2 216/3/2
f 214/3/2 212/3/2 217/3/2
f 217/3/2 212/3/2 218/3/2
f 215/1/2 216/1/2 219/1/2
f 219/1/2 216/1/2 220/1/2
f 217/1/2 218/1/2 221/1/2
f 221/1/2 218/1/2 222/1/2
f 219/3/2 220/3/2 223/3/2
f 223/3/2 220/3/2 224/3/2
f 221/3/2 222/3/2 225/3/2
f 225/3/2 222/3/2 226/3/2
f 223/4/2 224/4/2 227/4/2
f 227/4/2 224/4/2 228/4/2
f 225/4/2 226/4/2 229/4/2
f 229/4/2 226/4/2 230/4/2
f 228/3/2 229/3/2 231/3/2
f 231/3/2 229/3/2 232/3/2
f 233/3/2 234/3/2 235/3/2
f 235/3/2 234/3/2 236/3/2
f 235/1/2 236/1/2 237/1/2
f 237/1/2 236/1/2 238/1/2
f 237/3/2 238/3/2 239/3/2
f 239/3/2 238/3/2 240/3/2
f 239/1/2 240/1/2 241/1/2
f 241/1/2 240/1/2 242/1/2
f 239/1/2 241/1/2 243/1/2
f 241/2/2 242/2/2 243/2/2
f 242/1/2 240/1/2 244/1/2
f 243/2/2 242/2/2 244/2/2
f 239/1/2 243/1/2 245/1/2
f 243/1/2 244/1/2 245/1/2
f 245/1/2 244/1/2 246/1/2
f 246/1/2 244/1/2 247/1/2
f 244/1/2 240/1/2 248/1/2
f 247/1/2 244/1/2 248/1/2
f 248/1/2 240/1/2 249/1/2
f 249/1/2 240/1/2 250/1/2
f 246/1/2 247/1/2 251/1/2
f 245/3/2 246/3/2 251/3/2
f 251/1/2 247/1/2 252/1/2
f 248/1/2 249/1/2 253/1/2
f 249/3/2 250/3/2 254/3/2
f 253/1/2 249/1/2 254/1/2
f 252/1/2 247/1/2 255/1/2
f 251/3/2 252/3/2 255/3/2
f 255/1/2 247/1/2 256/1/2
f 247/2/2 248/2/2 257/2/2
f 256/1/2 247/1/2 257/1/2
f 248/1/2 253/1/2 258/1/2
f 257/2/2 248/2/2 258/2/2
f 258/1/2 253/1/2 259/1/2
f 253/3/2 254/3/2 260/3/2
f 259/1/2 253/1/2 260/1/2
f 256/1/2 257/1/2 261/1/2
f 255/3/2 256/3/2 261/3/2
f 258/1/2 259/1/2 261/1/2
f 257/1/2 258/1/2 261/1/2
f 261/1/2 259/1/2 262/1/2
f 262/1/2 259/1/2 263/1/2
f 259/3/2 260/3/2 264/3/2
f 263/1/2 259/1/2 264/1/2
f 262/1/2 263/1/2 265/1/2
f 261/3/2 262/3/2 265/3/2
f 263/3/2 264/3/2 266/3/2
f 265/1/2 263/1/2 266/1/2
f 245/3/2 251/3/2 267/3/2
f 251/3/2 255/3/2 267/3/2
f 265/3/2 266/3/2 267/3/2
f 261/3/2 265/3/2 267/3/2
f 255/3/2 261/3/2 267/3/2
f 260/3/2 254/3/2 268/3/2
f 267/3/2 266/3/2 268/3/2
f 264/3/2 260/3/2 268/3/2
f 266/3/2 264/3/2 268/3/2
f 254/3/2 250/3/2 268/3/2
f 267/4/2 268/4/2 269/4/2
f 269/4/2 268/4/2 270/4/2
f 278/3/3 272/3/3 271/3/3
f 279/1/3 273/1/3 272/1/3
f 279/3/3 272/3/3 278/3/3
f 280/3/3 274/3/3 273/3/3
f 280/1/3 273/1/3 279/1/3
f 281/1/3 275/1/3 274/1/3
f 281/3/3 274/3/3 280/3/3
f 282/3/3 276/3/3 275/3/3
f 282/1/3 275/1/3 281/1/3
f 283/4/3 277/4/3 276/4/3
f 283/3/3 276/3/3 282/3/3
f 284/4/3 277/4/3 283/4/3
f 293/3/3 286/3/3 285/3/3
f 294/1/3 287/1/3 286/1/3
f 294/3/3 286/3/3 293/3/3
f 295/3/3 288/3/3 287/3/3
f 295/1/3 287/1/3 294/1/3
f 296/1/3 289/1/3 288/1/3
f 296/3/3 288/3/3 295/3/3
f 297/3/3 290/3/3 289/3/3
f 297/1/3 289/1/3 296/1/3
f 298/4/3 291/4/3 290/4/3
f 298/3/3 290/3/3 297/3/3
f 299/4/3 291/4/3 298/4/3
f 303/3/3 302/3/3 301/3/3
f 304/3/3 302/3/3 303/3/3
f 305/3/3 293/3/3 292/3/3
f 306/3/3 293/3/3 305/3/3
f 312/3/3 300/3/3 299/3/3
f 313/3/3 300/3/3 312/3/3
f 314/3/3 307/3/3 306/3/3
f 315/1/3 308/1/3 307/1/3
f 315/3/3 307/3/3 314/3/3
f 316/3/3 309/3/3 308/3/3
f 316/1/3 308/1/3 315/1/3
f 317/1/3 310/1/3 309/1/3
f 317/3/3 309/3/3 316/3/3
f 318/3/3 311/3/3 310/3/3
f 318/1/3 310/1/3 317/1/3
f 319/4/3 312/4/3 311/4/3
f 319/3/3 311/3/3 318/3/3
f 320/4/3 312/4/3 319/4/3
f 329/3/3 322/3/3 321/3/3
f 330/1/3 323/1/3 322/1/3
f 330/3/3 322/3/3 329/3/3
f 331/3/3 324/3/3 323/3/3
f 331/1/3 323/1/3 330/1/3
f 332/1/3 325/1/3 324/1/3
f 332/3/3 324/3/3 331/3/3
f 333/3/3 326/3/3 325/3/3
f 333/1/3 325/1/3 332/1/3
f 334/4/3 327/4/3 326/4/3
f 334/3/3 326/3/3 333/3/3
f 335/4/3 327/4/3 334/4/3
f 338/3/3 329/3/3 328/3/3
f 339/3/3 329/3/3 338/3/3
f 340/3/3 336/3/3 335/3/3
f 341/3/3 336/3/3 340/3/3
f 343/3/3 338/3/3 337/3/3
f 344/3/3 338/3/3 343/3/3
f 347/4/3 342/4/3 341/4/3
f 348/4/3 342/4/3 347/4/3
f 349/3/3 345/3/3 344/3/3
f 350/3/3 345/3/3 349/3/3
f 357/3/3 347/3/3 346/3/3
f 358/3/3 347/3/3 357/3/3
f 359/3/3 351/3/3 350/3/3
f 360/1/3 352/1/3 351/1/3
f 360/3/3 351/3/3 359/3/3
f 361/3/3 353/3/3 352/3/3
f 361/1/3 352/1/3 360/1/3
f 362/1/3 354/1/3 353/1/3
f 362/3/3 353/3/3 361/3/3
f 362/1/3 355/1/3 354/1/3
f 363/3/3 356/3/3 355/3/3
f 363/1/3 355/1/3 362/1/3
f 364/4/3 357/4/3 356/4/3
f 364/3/3 356/3/3 363/3/3
f 365/4/3 357/4/3 364/4/3
f 370/3/3 369/3/3 368/3/3
f 371/3/3 369/3/3 370/3/3
f 372/3/3 367/3/3 366/3/3
f 373/3/3 367/3/3 372/3/3
f 378/3/3 377/3/3 376/3/3
f 379/3/3 377/3/3 378/3/3
f 380/4/3 375/4/3 374/4/3
f 381/4/3 375/4/3 380/4/3
f 384/3/3 383/3/3 382/3/3
f 385/3/3 383/3/3 384/3/3
f 388/3/3 387/3/3 386/3/3
f 389/3/3 387/3/3 388/3/3
f 392/3/3 391/3/3 390/3/3
f 393/3/3 391/3/3 392/3/3
f 394/3/4 395/3/4 396/3/4
f 396/3/4 395/3/4 397/3/4
f 398/3/4 399/3/4 400/3/4
f 400/3/4 399/3/4 401/3/4
f 402/3/4 403/3/4 404/3/4
f 404/3/4 403/3/4 405/3/4
f 408/3/4 409/3/4 410/3/4
f 410/3/4 409/3/4 411/3/4
f 406/4/4 407/4/4 412/4/4
f 412/4/4 407/4/4 413/4/4
f 416/3/4 417/3/4 418/3/4
f 418/3/4 417/3/4 419/3/4
f 414/3/4 415/3/4 420/3/4
f 420/3/4 415/3/4 421/3/4
f 422/3/4 423/3/4 430/3/4
f 423/1/4 424/1/4 431/1/4
f 430/3/4 423/3/4 431/3/4
f 424/3/4 425/3/4 432/3/4
f 431/1/4 424/1/4 432/1/4
f 425/1/4 426/1/4 433/1/4
f 432/3/4 425/3/4 433/3/4
f 426/3/4 427/3/4 434/3/4
f 433/1/4 426/1/4 434/1/4
f 427/4/4 428/4/4 435/4/4
f 434/3/4 427/3/4 435/3/4
f 435/4/4 428/4/4 436/4/4
f 429/3/4 430/3/4 439/3/4
f 439/3/4 430/3/4 440/3/4
f 436/3/4 437/3/4 441/3/4
f 441/3/4 437/3/4 442/3/4
f 438/3/4 439/3/4 444/3/4
f 444/3/4 439/3/4 445/3/4
f 442/4/4 443/4/4 448/4/4
f 448/4/4 443/4/4 449/4/4
f 445/3/4 446/3/4 450/3/4
f 450/3/4 446/3/4 451/3/4
f 447/3/4 448/3/4 458/3/4
f 458/3/4 448/3/4 459/3/4
f 451/3/4 452/3/4 460/3/4
f 452/1/4 453/1/4 461/1/4
f 460/3/4 452/3/4 461/3/4
f 453/3/4 454/3/4 462/3/4
f 461/1/4 453/1/4 462/1/4
f 454/1/4 455/1/4 463/1/4
f 462/3/4 454/3/4 463/3/4
f 455/1/4 456/1/4 463/1/4
f 456/3/4 457/3/4 464/3/4
f 463/1/4 456/1/4 464/1/4
f 457/4/4 458/4/4 465/4/4
f 464/3/4 457/3/4 465/3/4
f 465/4/4 458/4/4 466/4/4
f 467/3/4 468/3/4 475/3/4
f 468/1/4 469/1/4 476/1/4
f 475/3/4 468/3/4 476/3/4
f 469/3/4 470/3/4 477/3/4
f 476/1/4 469/1/4 477/1/4
f 470/1/4 471/1/4 478/1/4
f 477/3/4 470/3/4 478/3/4
f 471/3/4 472/3/4 479/3/4
f 478/1/4 471/1/4 479/1/4
f 472/4/4 473/4/4 480/4/4
f 479/3/4 472/3/4 480/3/4
f 480/4/4 473/4/4 481/4/4
f 483/3/4 484/3/4 485/3/4
f 485/3/4 484/3/4 486/3/4
f 474/3/4 475/3/4 487/3/4
f 487/3/4 475/3/4 488/3/4
f 481/3/4 482/3/4 494/3/4
f 494/3/4 482/3/4 495/3/4
f 488/3/4 489/3/4 496/3/4
f 489/1/4 490/1/4 497/1/4
f 496/3/4 489/3/4 497/3/4
f 490/3/4 491/3/4 498/3/4
f 497/1/4 490/1/4 498/1/4
f 491/1/4 492/1/4 499/1/4
f 498/3/4 491/3/4 499/3/4
f 492/3/4 493/3/4 500/3/4
f 499/1/4 492/1/4 500/1/4
f 493/4/4 494/4/4 501/4/4
f 500/3/4 493/3/4 501/3/4
f 501/4/4 494/4/4 502/4/4
f 503/3/4 504/3/4 510/3/4
f 504/1/4 505/1/4 511/1/4
f 510/3/4 504/3/4 511/3/4
f 505/3/4 506/3/4 512/3/4
f 511/1/4 505/1/4 512/1/4
f 506/1/4 507/1/4 513/1/4
f 512/3/4 506/3/4 513/3/4
f 507/3/4 508/3/4 514/3/4
f 513/1/4 507/1/4 514/1/4
f 508/4/4 509/4/4 515/4/4
f 514/3/4 508/3/4 515/3/4
f 515/4/4 509/4/4 516/4/4
f 519/3/5 518/3/5 517/3/5
f 520/3/5 518/3/5 519/3/5
f 524/3/5 522/3/5 521/3/5
f 525/3/5 522/3/5 524/3/5
f 527/3/5 524/3/5 523/3/5
f 528/3/5 524/3/5 527/3/5
f 529/3/5 526/3/5 525/3/5
f 530/3/5 526/3/5 529/3/5
f 531/3/5 529/3/5 528/3/5
f 532/3/5 529/3/5 531/3/5
f 536/3/5 534/3/5 533/3/5
f 537/3/5 534/3/5 536/3/5
f 540/3/5 536/3/5 535/3/5
f 541/3/5 536/3/5 540/3/5
f 542/3/5 538/3/5 537/3/5
f 543/3/5 538/3/5 542/3/5
f 545/3/5 540/3/5 539/3/5
f 546/3/5 540/3/5 545/3/5
f 549/3/5 544/3/5 543/3/5
f 550/3/5 544/3/5 549/3/5
f 551/3/5 547/3/5 546/3/5
f 552/3/5 547/3/5 551/3/5
f 553/3/5 549/3/5 548/3/5
f 554/3/5 549/3/5 553/3/5
f 555/3/5 553/3/5 552/3/5
f 556/3/5 553/3/5 555/3/5
f 559/3/5 558/3/5 557/3/5
f 560/3/5 558/3/5 559/3/5
f 563/3/5 562/3/5 561/3/5
f 564/3/5 562/3/5 563/3/5
f 567/3/5 566/3/5 565/3/5
f 568/3/5 566/3/5 567/3/5
f 571/3/5 570/3/5 569/3/5
f 572/3/5 570/3/5 571/3/5
f 575/3/5 574/3/5 573/3/5
f 576/3/5 574/3/5 575/3/5
f 579/3/5 578/3/5 577/3/5
f 580/3/5 578/3/5 579/3/5
f 581/4/6 582/4/6 584/4/6
f 584/4/6 582/4/6 585/4/6
f 583/4/6 584/4/6 588/4/6
f 588/4/6 584/4/6 589/4/6
f 585/4/6 586/4/6 590/4/6
f 590/4/6 586/4/6 591/4/6
f 587/4/6 588/4/6 593/4/6
f 593/4/6 588/4/6 594/4/6
f 591/4/6 592/4/6 597/4/6
f 597/4/6 592/4/6 598/4/6
f 594/4/6 595/4/6 599/4/6
f 599/4/6 595/4/6 600/4/6
f 596/4/6 597/4/6 601/4/6
f 601/4/6 597/4/6 602/4/6
f 600/4/6 601/4/6 603/4/6
f 603/4/6 601/4/6 604/4/6
f 605/3/6 606/3/6 608/3/6
f 608/3/6 606/3/6 609/3/6
f 607/3/6 608/3/6 611/3/6
f 611/3/6 608/3/6 612/3/6
f 609/3/6 610/3/6 613/3/6
f 613/3/6 610/3/6 614/3/6
f 612/3/6 613/3/6 615/3/6
f 615/3/6 613/3/6 616/3/6
f 617/4/6 618/4/6 619/4/6
f 619/4/6 618/4/6 620/4/6
f 617/4/6 619/4/6 621/4/6
f 620/4/6 618/4/6 622/4/6
f 617/4/6 621/4/6 623/4/6
f 621/4/6 622/4/6 623/4/6
f 622/4/6 618/4/6 624/4/6
f 623/4/6 622/4/6 624/4/6
f 625/3/6 626/3/6 627/3/6
f 627/3/6 626/3/6 628/3/6
f 625/3/6 627/3/6 629/3/6
f 628/3/6 626/3/6 630/3/6
f 625/3/6 629/3/6 631/3/6
f 629/3/6 630/3/6 631/3/6
f 630/3/6 626/3/6 632/3/6
f 631/3/6 630/3/6 632/3/6
f 633/4/6 634/4/6 635/4/6
f 635/4/6 634/4/6 636/4/6
f 633/4/6 635/4/6 637/4/6
f 636/4/6 634/4/6 638/4/6
f 633/4/6 637/4/6 639/4/6
f 637/4/6 638/4/6 639/4/6
f 638/4/6 634/4/6 640/4/6
f 639/4/6 638/4/6 640/4/6
f 641/3/6 642/3/6 643/3/6
f 643/3/6 642/3/6 644/3/6
f 645/3/6 646/3/6 647/3/6
f 647/3/6 646/3/6 648/3/6
f 649/3/6 650/3/6 651/3/6
f 651/3/6 650/3/6 652/3/6
f 653/3/6 654/3/6 655/3/6
f 655/3/6 654/3/6 656/3/6
f 657/3/6 658/3/6 659/3/6
f 659/3/6 658/3/6 660/3/6
