# MagicaVoxel @ Ephtracy

# group
o 

# material
mtllib tronco.mtl
usemtl palette

# normals
vn -1 0 0
vn 1 0 0
vn 0 0 1
vn 0 0 -1
vn 0 -1 0
vn 0 1 0

# texcoords
vt 0.693359 0.5
vt 0.697266 0.5
vt 0.705078 0.5
vt 0.724609 0.5
vt 0.728516 0.5
vt 0.884766 0.5

# verts
v -1.7 16.7 -2.6
v -1.7 16.7 -2.8
v -1.7 16.8 -2.6
v -1.7 16.8 -2.8
v -1.6 16.7 -1.3
v -1.6 16.7 -1.5
v -1.6 16.8 -1.3
v -1.6 16.8 -1.5
v -1.6 16.8 -2.8
v -1.6 16.8 -2.9
v -1.6 16.9 -2.8
v -1.6 16.9 -2.9
v -1.4 16.7 -1.1
v -1.4 16.7 -1.3
v -1.4 16.7 -2.8
v -1.4 16.7 -2.9
v -1.4 16.8 -1.1
v -1.4 16.8 -1.3
v -1.4 16.8 -2.8
v -1.4 16.8 -2.9
v -1.4 16.9 -2.8
v -1.4 16.9 -2.9
v -1.4 17 -2.8
v -1.4 17 -2.9
v -1.3 16.7 -1
v -1.3 16.7 -1.1
v -1.3 16.8 -1
v -1.3 16.8 -1.1
v -1.3 16.8 -1.2
v -1.3 16.8 -2.7
v -1.3 16.8 -2.8
v -1.3 16.9 -1.1
v -1.3 16.9 -1.2
v -1.3 16.9 -2.7
v -1.3 16.9 -2.8
v -1.2 16.7 -0.9
v -1.2 16.7 -1
v -1.2 16.7 -2.6
v -1.2 16.7 -2.7
v -1.2 16.8 -0.9
v -1.2 16.8 -1
v -1.2 16.8 -2.6
v -1.2 16.8 -2.7
v -1.1 16.7 -0.8
v -1.1 16.7 -0.9
v -1.1 16.8 -0.8
v -1.1 16.8 -0.9
v -1.1 16.8 -1
v -1.1 16.8 -2.6
v -1.1 16.8 -2.7
v -1.1 16.9 -0.9
v -1.1 16.9 -1
v -1.1 16.9 -2.6
v -1.1 16.9 -2.7
v -1 16.7 -2.4
v -1 16.7 -2.6
v -1 16.8 -2.4
v -1 16.8 -2.5
v -1 16.9 -0.9
v -1 16.9 -1
v -1 16.9 -2.5
v -1 16.9 -2.6
v -1 17 -0.9
v -1 17 -1
v -0.9 16.7 -2.3
v -0.9 16.7 -2.4
v -0.9 16.8 -1
v -0.9 16.8 -1.1
v -0.9 16.8 -2.4
v -0.9 16.8 -2.5
v -0.9 16.9 -1
v -0.9 16.9 -1.1
v -0.9 16.9 -2.3
v -0.9 16.9 -2.4
v -0.9 16.9 -2.5
v -0.9 17 -2.4
v -0.9 17 -2.5
v -0.9 19.1 -1.6
v -0.9 19.1 -1.8
v -0.9 19.3 -1.6
v -0.9 19.3 -1.8
v -0.8 16.7 -2
v -0.8 16.7 -2.3
v -0.8 16.8 -2
v -0.8 16.8 -2.2
v -0.8 16.9 -2.2
v -0.8 16.9 -2.3
v -0.8 16.9 -2.4
v -0.8 17 -2.3
v -0.8 17 -2.4
v -0.8 19 -1.6
v -0.8 19 -1.8
v -0.8 19.1 -1.6
v -0.8 19.1 -1.8
v -0.7 16.7 -1.1
v -0.7 16.7 -1.2
v -0.7 16.7 -2
v -0.7 16.8 -1.1
v -0.7 16.8 -1.2
v -0.7 16.8 -2
v -0.7 16.8 -2.1
v -0.7 16.8 -2.2
v -0.7 16.9 -1
v -0.7 16.9 -1.1
v -0.7 16.9 -2.1
v -0.7 16.9 -2.2
v -0.7 16.9 -2.3
v -0.7 17 -1
v -0.7 17 -1.1
v -0.7 17 -2.2
v -0.7 17 -2.3
v -0.7 18.9 -1.6
v -0.7 18.9 -1.8
v -0.7 19 -1.6
v -0.7 19 -1.8
v -0.6 16.8 -1.1
v -0.6 16.8 -1.2
v -0.6 16.8 -1.9
v -0.6 16.8 -2
v -0.6 16.8 -2.1
v -0.6 16.9 -1.6
v -0.6 16.9 -1.7
v -0.6 16.9 -2.1
v -0.6 16.9 -2.2
v -0.6 17 -1.1
v -0.6 17 -2.2
v -0.6 17.1 -1.1
v -0.6 17.1 -1.2
v -0.6 17.2 -2.1
v -0.6 17.2 -2.2
v -0.6 17.3 -1.2
v -0.6 17.3 -1.3
v -0.6 17.3 -1.5
v -0.6 17.3 -1.6
v -0.6 17.4 -1.6
v -0.6 17.4 -1.7
v -0.6 17.6 -1.4
v -0.6 17.6 -1.5
v -0.6 17.6 -1.9
v -0.6 17.6 -2
v -0.6 17.7 -1.5
v -0.6 17.7 -1.6
v -0.6 17.7 -2
v -0.6 17.7 -2.1
v -0.6 17.8 -1.3
v -0.6 17.8 -1.4
v -0.6 17.8 -1.5
v -0.6 17.8 -2
v -0.6 18.8 -1.6
v -0.6 18.8 -1.8
v -0.6 18.9 -1.6
v -0.6 18.9 -1.8
v -0.5 17 -1
v -0.5 17 -1.1
v -0.5 17 -2.2
v -0.5 17 -2.3
v -0.5 17.1 -1
v -0.5 17.1 -1.1
v -0.5 17.1 -1.2
v -0.5 17.2 -2.1
v -0.5 17.2 -2.2
v -0.5 17.2 -2.3
v -0.5 17.3 -1.2
v -0.5 17.3 -1.3
v -0.5 17.5 -1.1
v -0.5 17.5 -1.2
v -0.5 17.7 -2
v -0.5 17.7 -2.1
v -0.5 17.7 -2.2
v -0.5 17.8 -1.2
v -0.5 17.8 -1.3
v -0.5 17.8 -2
v -0.5 17.8 -2.1
v -0.5 18.7 -1.6
v -0.5 18.7 -1.8
v -0.5 18.8 -1.6
v -0.5 18.8 -1.8
v -0.4 17 -0.9
v -0.4 17 -1
v -0.4 17 -2.3
v -0.4 17 -2.4
v -0.4 17.1 -0.9
v -0.4 17.1 -1
v -0.4 17.1 -1.1
v -0.4 17.1 -2.3
v -0.4 17.1 -2.4
v -0.4 17.2 -2.2
v -0.4 17.2 -2.3
v -0.4 17.5 -1
v -0.4 17.5 -1.1
v -0.4 17.5 -1.2
v -0.4 17.7 -2.1
v -0.4 17.7 -2.2
v -0.4 17.7 -2.3
v -0.4 17.8 -1.1
v -0.4 17.8 -1.2
v -0.4 17.8 -1.5
v -0.4 17.8 -1.6
v -0.4 17.8 -2.1
v -0.4 17.8 -2.2
v -0.4 17.9 -1.5
v -0.4 17.9 -1.6
v -0.4 18.6 -1.6
v -0.4 18.6 -1.8
v -0.4 18.7 -1.6
v -0.4 18.7 -1.8
v -0.3 17.1 -2.3
v -0.3 17.1 -2.4
v -0.3 17.5 -1
v -0.3 17.5 -1.1
v -0.3 17.7 -1
v -0.3 17.7 -1.1
v -0.3 17.7 -2.2
v -0.3 17.7 -2.3
v -0.3 17.7 -2.4
v -0.3 17.8 -1.6
v -0.3 17.8 -1.8
v -0.3 17.8 -1.9
v -0.3 17.8 -2.2
v -0.3 17.8 -2.3
v -0.3 17.9 -1.6
v -0.3 17.9 -1.8
v -0.3 17.9 -1.9
v -0.3 18.1 -1.6
v -0.3 18.1 -1.8
v -0.3 18.5 -1.6
v -0.3 18.5 -1.8
v -0.3 18.6 -1.6
v -0.3 18.6 -1.8
v -0.2 16.8 -2.4
v -0.2 16.8 -2.5
v -0.2 16.9 -2.4
v -0.2 16.9 -2.5
v -0.2 17.7 -1
v -0.2 17.7 -1.1
v -0.2 17.7 -2.3
v -0.2 17.7 -2.4
v -0.2 17.8 -1
v -0.2 17.8 -1.1
v -0.2 17.8 -2.3
v -0.2 17.8 -2.4
v -0.2 18.1 -1.6
v -0.2 18.1 -1.8
v -0.2 18.2 -1.6
v -0.2 18.2 -1.8
v -0.2 18.4 -1.6
v -0.2 18.4 -1.8
v -0.2 18.5 -1.6
v -0.2 18.5 -1.8
v -0.1 17.8 -1.5
v -0.1 17.8 -1.6
v -0.1 17.9 -1.5
v -0.1 17.9 -1.6
v -0.1 18.2 -1.6
v -0.1 18.2 -1.8
v -0.1 18.4 -1.6
v -0.1 18.4 -1.8
v -1.19209e-07 16.7 -2.5
v -1.19209e-07 16.7 -2.6
v -1.19209e-07 16.8 -2.5
v -1.19209e-07 16.8 -2.6
v -1.19209e-07 17.8 -1.8
v -1.19209e-07 17.8 -1.9
v -1.19209e-07 17.9 -1.8
v -1.19209e-07 17.9 -1.9
v 0.0999998 16.7 -2.6
v 0.0999998 16.7 -2.7
v 0.0999998 16.8 -2.5
v 0.0999998 16.8 -2.6
v 0.0999998 16.8 -2.7
v 0.0999998 16.9 -2.5
v 0.0999998 16.9 -2.6
v 0.0999998 17.8 -1.3
v 0.0999998 17.8 -1.4
v 0.0999998 17.8 -2
v 0.0999998 17.8 -2.1
v 0.0999998 17.9 -1.3
v 0.0999998 17.9 -1.4
v 0.0999998 17.9 -2
v 0.0999998 17.9 -2.1
v 0.2 16.9 -2.4
v 0.2 16.9 -2.6
v 0.2 17 -2.4
v 0.2 17 -2.6
v 0.2 18.5 -1.6
v 0.2 18.5 -1.8
v 0.2 18.6 -1.6
v 0.2 18.6 -1.8
v 0.3 16.8 -2.6
v 0.3 16.8 -2.7
v 0.3 17 -2.4
v 0.3 17 -2.5
v 0.3 17 -2.6
v 0.3 17 -2.7
v 0.3 17.1 -2.4
v 0.3 17.1 -2.5
v 0.5 16.7 -2.7
v 0.5 16.7 -3
v 0.5 16.8 -0.9
v 0.5 16.8 -1
v 0.5 16.8 -2.8
v 0.5 16.8 -3
v 0.5 17 -2.7
v 0.5 17 -2.8
v 0.5 17.2 -0.9
v 0.5 17.2 -1
v 0.6 16.7 -0.8
v 0.6 16.7 -0.9
v 0.6 16.7 -3
v 0.6 16.7 -3.1
v 0.6 16.8 -0.8
v 0.6 16.8 -0.9
v 0.6 16.8 -2.8
v 0.6 16.8 -3
v 0.6 16.8 -3.1
v 0.6 16.9 -2.9
v 0.6 16.9 -3
v 0.6 17 -2.8
v 0.6 17 -2.9
v 0.7 16.7 -0.7
v 0.7 16.7 -0.8
v 0.7 16.8 -0.7
v 0.7 16.8 -0.8
v 0.7 16.8 -0.9
v 0.7 16.8 -3
v 0.7 16.8 -3.1
v 0.7 16.9 -2.9
v 0.7 16.9 -3
v 0.7 16.9 -3.1
v 0.7 17 -0.8
v 0.7 17 -0.9
v 0.7 17 -2.9
v 0.7 17 -3
v 0.9 16.8 -3.1
v 0.9 16.8 -3.3
v 0.9 16.9 -3.1
v 0.9 16.9 -3.3
v 1 16.7 -0.6
v 1 16.7 -0.7
v 1 16.8 -0.6
v 1 16.8 -0.7
v 1 16.8 -3.3
v 1 16.8 -3.4
v 1 16.9 -3.3
v 1 16.9 -3.4
v 1.2 16.7 -0.5
v 1.2 16.7 -0.6
v 1.2 16.8 -0.5
v 1.2 16.8 -0.6
v 1.3 16.7 -0.3
v 1.3 16.7 -0.5
v 1.3 16.8 -0.3
v 1.3 16.8 -0.5
v 1.4 16.7 -0.2
v 1.4 16.7 -0.3
v 1.4 16.8 -0.2
v 1.4 16.8 -0.3
v -1.6 16.7 -2.6
v -1.6 16.7 -2.7
v -1.6 16.8 -2.6
v -1.6 16.8 -2.7
v -1.5 16.7 -1.4
v -1.5 16.7 -1.5
v -1.5 16.8 -1.4
v -1.5 16.8 -1.5
v -1.3 16.7 -1.3
v -1.3 16.7 -1.4
v -1.3 16.8 -1.3
v -1.3 16.8 -1.4
v -1.3 16.9 -2.8
v -1.3 16.9 -2.9
v -1.3 17 -2.8
v -1.3 17 -2.9
v -1.2 16.7 -1.2
v -1.2 16.7 -1.3
v -1.2 16.8 -1.1
v -1.2 16.8 -1.2
v -1.2 16.8 -1.3
v -1.2 16.8 -2.8
v -1.2 16.8 -2.9
v -1.2 16.9 -1.1
v -1.2 16.9 -1.2
v -1.2 16.9 -2.8
v -1.2 16.9 -2.9
v -1 16.7 -1.1
v -1 16.7 -1.2
v -1 16.7 -2.8
v -1 16.7 -2.9
v -1 16.8 -1.1
v -1 16.8 -1.2
v -1 16.8 -2.7
v -1 16.8 -2.8
v -1 16.8 -2.9
v -1 16.9 -2.7
v -1 16.9 -2.8
v -0.9 16.7 -2.7
v -0.9 16.7 -2.8
v -0.9 16.8 -2.6
v -0.9 16.8 -2.7
v -0.9 16.8 -2.8
v -0.9 16.9 -2.6
v -0.9 16.9 -2.7
v -0.7 16.7 -2.6
v -0.7 16.7 -2.7
v -0.7 16.8 -2.5
v -0.7 16.8 -2.6
v -0.7 16.8 -2.7
v -0.7 16.9 -2.4
v -0.7 16.9 -2.5
v -0.7 16.9 -2.6
v -0.7 17 -2.4
v -0.7 17 -2.5
v -0.7 19.2 -1.6
v -0.7 19.2 -1.8
v -0.7 19.3 -1.6
v -0.7 19.3 -1.8
v -0.6 16.7 -2.5
v -0.6 16.7 -2.6
v -0.6 16.8 -2.5
v -0.6 16.8 -2.6
v -0.6 19.1 -1.6
v -0.6 19.1 -1.8
v -0.6 19.2 -1.6
v -0.6 19.2 -1.8
v -0.5 16.8 -2.4
v -0.5 16.8 -2.5
v -0.5 16.9 -2.4
v -0.5 16.9 -2.5
v -0.5 19 -1.6
v -0.5 19 -1.8
v -0.5 19.1 -1.6
v -0.5 19.1 -1.8
v -0.4 16.7 -0.8
v -0.4 16.7 -0.9
v -0.4 16.8 -0.8
v -0.4 16.8 -0.9
v -0.4 18.9 -1.6
v -0.4 18.9 -1.8
v -0.4 19 -1.6
v -0.4 19 -1.8
v -0.3 16.9 -0.9
v -0.3 16.9 -1
v -0.3 17.1 -0.9
v -0.3 17.1 -1
v -0.3 18.8 -1.6
v -0.3 18.8 -1.8
v -0.3 18.9 -1.6
v -0.3 18.9 -1.8
v -0.2 17.8 -1.5
v -0.2 17.8 -1.6
v -0.2 17.9 -1.5
v -0.2 17.9 -1.6
v -0.2 18.7 -1.6
v -0.2 18.7 -1.8
v -0.2 18.8 -1.6
v -0.2 18.8 -1.8
v -0.1 17.8 -1.8
v -0.1 17.8 -1.9
v -0.1 17.9 -1.8
v -0.1 17.9 -1.9
v -0.1 18.6 -1.6
v -0.1 18.6 -1.8
v -0.1 18.7 -1.6
v -0.1 18.7 -1.8
v -1.19209e-07 18.5 -1.6
v -1.19209e-07 18.5 -1.8
v -1.19209e-07 18.6 -1.6
v -1.19209e-07 18.6 -1.8
v 0.0999998 16.8 -0.9
v 0.0999998 16.8 -1
v 0.0999998 16.9 -0.9
v 0.0999998 16.9 -1
v 0.2 17.8 -1.3
v 0.2 17.8 -1.4
v 0.2 17.8 -2
v 0.2 17.8 -2.1
v 0.2 17.9 -1.3
v 0.2 17.9 -1.4
v 0.2 17.9 -2
v 0.2 17.9 -2.1
v 0.3 17.8 -1.5
v 0.3 17.8 -1.6
v 0.3 17.8 -1.8
v 0.3 17.8 -1.9
v 0.3 17.9 -1.5
v 0.3 17.9 -1.6
v 0.3 17.9 -1.8
v 0.3 17.9 -1.9
v 0.3 18.1 -1.6
v 0.3 18.1 -1.8
v 0.3 18.3 -1.6
v 0.3 18.3 -1.8
v 0.3 18.6 -1.6
v 0.3 18.6 -1.8
v 0.4 17 -2.4
v 0.4 17 -2.5
v 0.4 17.1 -2.4
v 0.4 17.1 -2.5
v 0.4 17.8 -1.6
v 0.4 17.8 -1.8
v 0.4 17.9 -1.6
v 0.4 17.9 -1.8
v 0.4 18.1 -1.6
v 0.4 18.1 -1.8
v 0.4 18.3 -1.6
v 0.4 18.3 -1.8
v 0.5 16.7 -2.6
v 0.5 16.7 -2.7
v 0.5 16.8 -2.6
v 0.5 16.8 -2.7
v 0.5 16.9 -2.3
v 0.5 16.9 -2.6
v 0.5 17 -2.4
v 0.5 17 -2.6
v 0.5 17.8 -2.3
v 0.5 17.8 -2.4
v 0.6 16.7 -2.7
v 0.6 16.7 -3
v 0.6 16.8 -2.3
v 0.6 16.8 -2.5
v 0.6 16.8 -2.7
v 0.6 16.8 -3
v 0.6 16.9 -2.2
v 0.6 16.9 -2.3
v 0.6 16.9 -2.5
v 0.6 16.9 -2.6
v 0.6 16.9 -2.7
v 0.6 17 -2.6
v 0.6 17 -2.7
v 0.6 17.4 -1
v 0.6 17.4 -1.2
v 0.6 17.8 -1
v 0.6 17.8 -1.2
v 0.6 17.8 -2.2
v 0.6 17.8 -2.3
v 0.7 16.7 -2.5
v 0.7 16.7 -2.6
v 0.7 16.7 -3
v 0.7 16.7 -3.1
v 0.7 16.8 -2.5
v 0.7 16.8 -2.6
v 0.7 16.8 -2.7
v 0.7 16.8 -3
v 0.7 16.8 -3.1
v 0.7 16.9 -2.5
v 0.7 16.9 -2.7
v 0.7 16.9 -2.8
v 0.7 17 -2.7
v 0.7 17 -2.8
v 0.7 17.3 -1
v 0.7 17.3 -1.2
v 0.7 17.4 -1
v 0.7 17.4 -1.2
v 0.7 17.4 -1.3
v 0.7 17.8 -1.2
v 0.7 17.8 -1.3
v 0.8 16.7 -2.4
v 0.8 16.7 -2.5
v 0.8 16.8 -1.1
v 0.8 16.8 -1.3
v 0.8 16.8 -1.4
v 0.8 16.8 -1.5
v 0.8 16.8 -1.9
v 0.8 16.8 -2.3
v 0.8 16.8 -2.4
v 0.8 16.8 -2.5
v 0.8 16.8 -2.7
v 0.8 16.8 -2.8
v 0.8 16.9 -2
v 0.8 16.9 -2.1
v 0.8 16.9 -2.2
v 0.8 16.9 -2.3
v 0.8 16.9 -2.7
v 0.8 16.9 -2.8
v 0.8 16.9 -3
v 0.8 17 -1.5
v 0.8 17 -1.6
v 0.8 17 -2.8
v 0.8 17 -3
v 0.8 17.1 -0.9
v 0.8 17.1 -1.1
v 0.8 17.1 -1.4
v 0.8 17.1 -1.5
v 0.8 17.2 -0.9
v 0.8 17.2 -1
v 0.8 17.3 -1
v 0.8 17.3 -1.2
v 0.8 17.4 -1.2
v 0.8 17.4 -1.3
v 0.8 17.4 -1.9
v 0.8 17.4 -2
v 0.8 17.5 -2
v 0.8 17.5 -2.1
v 0.8 17.7 -1.5
v 0.8 17.7 -1.6
v 0.8 17.8 -1.3
v 0.8 17.8 -1.9
v 0.8 17.8 -2
v 0.8 17.8 -2.2
v 0.9 16.7 -1.1
v 0.9 16.7 -1.3
v 0.9 16.7 -1.9
v 0.9 16.7 -2.4
v 0.9 16.8 -1
v 0.9 16.8 -1.1
v 0.9 16.8 -1.3
v 0.9 16.8 -1.9
v 0.9 16.8 -2.4
v 0.9 16.8 -2.8
v 0.9 16.8 -3
v 0.9 16.9 -0.9
v 0.9 16.9 -1
v 0.9 16.9 -2.8
v 0.9 16.9 -3
v 0.9 17 -0.9
v 0.9 17.1 -0.9
v 0.9 17.1 -1.1
v 1 16.8 -3
v 1 16.8 -3.2
v 1 16.9 -3
v 1 16.9 -3.2
v 1.1 16.7 -0.9
v 1.1 16.7 -1.1
v 1.1 16.8 -1
v 1.1 16.8 -1.1
v 1.1 16.8 -3.2
v 1.1 16.8 -3.4
v 1.1 16.9 -0.8
v 1.1 16.9 -0.9
v 1.1 16.9 -1
v 1.1 16.9 -3.2
v 1.1 16.9 -3.4
v 1.1 17 -0.8
v 1.1 17 -0.9
v 1.2 16.8 -0.8
v 1.2 16.8 -0.9
v 1.2 16.9 -0.8
v 1.2 16.9 -0.9
v 1.3 16.7 -0.7
v 1.3 16.7 -0.9
v 1.3 16.8 -0.7
v 1.3 16.8 -0.9
v 1.4 16.7 -0.6
v 1.4 16.7 -0.7
v 1.4 16.8 -0.6
v 1.4 16.8 -0.7
v 1.5 16.7 -0.2
v 1.5 16.7 -0.6
v 1.5 16.8 -0.2
v 1.5 16.8 -0.6
v 1.4 16.7 -0.2
v 1.4 16.8 -0.2
v 1.5 16.7 -0.2
v 1.5 16.8 -0.2
v 1.3 16.7 -0.3
v 1.3 16.8 -0.3
v 1.4 16.7 -0.3
v 1.4 16.8 -0.3
v 1.2 16.7 -0.5
v 1.2 16.8 -0.5
v 1.3 16.7 -0.5
v 1.3 16.8 -0.5
v 1 16.7 -0.6
v 1 16.8 -0.6
v 1.2 16.7 -0.6
v 1.2 16.8 -0.6
v 0.7 16.7 -0.7
v 0.7 16.8 -0.7
v 1 16.7 -0.7
v 1 16.8 -0.7
v -1.1 16.7 -0.8
v -1.1 16.8 -0.8
v -0.4 16.7 -0.8
v -0.4 16.8 -0.8
v 0.6 16.7 -0.8
v 0.6 16.8 -0.8
v 0.7 16.7 -0.8
v 0.7 16.8 -0.8
v 0.7 17 -0.8
v 1.1 16.9 -0.8
v 1.1 17 -0.8
v 1.2 16.8 -0.8
v 1.2 16.9 -0.8
v -1.2 16.7 -0.9
v -1.2 16.8 -0.9
v -1.1 16.7 -0.9
v -1.1 16.8 -0.9
v -1.1 16.9 -0.9
v -1 16.9 -0.9
v -1 17 -0.9
v -0.4 16.7 -0.9
v -0.4 16.8 -0.9
v -0.4 17 -0.9
v -0.4 17.1 -0.9
v -0.3 16.9 -0.9
v -0.3 17.1 -0.9
v -0.1 16.7 -0.9
v -0.1 16.8 -0.9
v 0.0999998 16.8 -0.9
v 0.0999998 16.9 -0.9
v 0.5 16.7 -0.9
v 0.5 16.8 -0.9
v 0.5 17.2 -0.9
v 0.6 16.7 -0.9
v 0.6 16.8 -0.9
v 0.7 16.8 -0.9
v 0.7 17 -0.9
v 0.8 17.1 -0.9
v 0.8 17.2 -0.9
v 0.9 17 -0.9
v 0.9 17.1 -0.9
v -1.3 16.7 -1
v -1.3 16.8 -1
v -1.2 16.7 -1
v -1.2 16.8 -1
v -0.5 17 -1
v -0.5 17.1 -1
v -0.4 17 -1
v -0.4 17.1 -1
v -0.4 17.5 -1
v -0.3 16.9 -1
v -0.3 17.1 -1
v -0.3 17.5 -1
v -0.3 17.7 -1
v -0.2 17.6 -1
v -0.2 17.7 -1
v -0.2 17.8 -1
v -0.1 16.9 -1
v -0.1 17.6 -1
v -0.1 17.7 -1
v -0.1 17.8 -1
v -1.19209e-07 16.9 -1
v -1.19209e-07 17.7 -1
v 0.0999998 16.8 -1
v 0.0999998 16.9 -1
v 0.2 16.8 -1
v 0.2 17.4 -1
v 0.3 16.8 -1
v 0.3 17.3 -1
v 0.3 17.4 -1
v 0.3 17.6 -1
v 0.4 17.3 -1
v 0.4 17.6 -1
v 0.4 17.7 -1
v 0.5 16.8 -1
v 0.5 17.2 -1
v 0.5 17.6 -1
v 0.5 17.7 -1
v 0.6 17.4 -1
v 0.6 17.8 -1
v 0.7 17.3 -1
v 0.7 17.4 -1
v 0.8 17.2 -1
v 0.8 17.3 -1
v -1.4 16.7 -1.1
v -1.4 16.8 -1.1
v -1.3 16.7 -1.1
v -1.3 16.8 -1.1
v -1.3 16.9 -1.1
v -1.2 16.8 -1.1
v -1.2 16.9 -1.1
v -0.6 17 -1.1
v -0.6 17.1 -1.1
v -0.5 17 -1.1
v -0.5 17.1 -1.1
v -0.5 17.5 -1.1
v -0.4 17.1 -1.1
v -0.4 17.5 -1.1
v -0.4 17.8 -1.1
v -0.3 17.5 -1.1
v -0.3 17.7 -1.1
v -0.2 17.7 -1.1
v -0.2 17.8 -1.1
v -0.6 17.1 -1.2
v -0.6 17.3 -1.2
v -0.5 17.1 -1.2
v -0.5 17.3 -1.2
v -0.5 17.5 -1.2
v -0.5 17.8 -1.2
v -0.4 17.5 -1.2
v -0.4 17.8 -1.2
v 0.6 17.4 -1.2
v 0.6 17.8 -1.2
v 0.7 17.3 -1.2
v 0.7 17.4 -1.2
v 0.7 17.8 -1.2
v 0.8 17.3 -1.2
v 0.8 17.4 -1.2
v -1.6 16.7 -1.3
v -1.6 16.8 -1.3
v -1.4 16.7 -1.3
v -1.4 16.8 -1.3
v -0.6 17.3 -1.3
v -0.6 17.8 -1.3
v -0.5 17.3 -1.3
v -0.5 17.8 -1.3
v 0.0999998 17.8 -1.3
v 0.0999998 17.9 -1.3
v 0.2 17.8 -1.3
v 0.2 17.9 -1.3
v 0.7 17.4 -1.3
v 0.7 17.8 -1.3
v 0.8 17.4 -1.3
v 0.8 17.8 -1.3
v -0.4 17.8 -1.5
v -0.4 17.9 -1.5
v -0.3 17.8 -1.5
v -0.2 17.8 -1.5
v -0.2 17.9 -1.5
v -0.1 17.8 -1.5
v -0.1 17.9 -1.5
v 0.3 17.8 -1.5
v 0.3 17.9 -1.5
v -0.9 19.1 -1.6
v -0.9 19.3 -1.6
v -0.8 19 -1.6
v -0.8 19.1 -1.6
v -0.7 18.9 -1.6
v -0.7 19 -1.6
v -0.7 19.1 -1.6
v -0.7 19.2 -1.6
v -0.7 19.3 -1.6
v -0.6 18.8 -1.6
v -0.6 18.9 -1.6
v -0.6 19 -1.6
v -0.6 19.1 -1.6
v -0.6 19.2 -1.6
v -0.5 18.7 -1.6
v -0.5 18.8 -1.6
v -0.5 18.9 -1.6
v -0.5 19 -1.6
v -0.5 19.1 -1.6
v -0.4 18.6 -1.6
v -0.4 18.7 -1.6
v -0.4 18.8 -1.6
v -0.4 18.9 -1.6
v -0.4 19 -1.6
v -0.3 17.9 -1.6
v -0.3 18.1 -1.6
v -0.3 18.5 -1.6
v -0.3 18.6 -1.6
v -0.3 18.7 -1.6
v -0.3 18.8 -1.6
v -0.3 18.9 -1.6
v -0.2 17.8 -1.6
v -0.2 17.9 -1.6
v -0.2 18.1 -1.6
v -0.2 18.2 -1.6
v -0.2 18.4 -1.6
v -0.2 18.5 -1.6
v -0.2 18.6 -1.6
v -0.2 18.7 -1.6
v -0.2 18.8 -1.6
v -0.1 17.8 -1.6
v -0.1 17.9 -1.6
v -0.1 18.2 -1.6
v -0.1 18.4 -1.6
v -0.1 18.5 -1.6
v -0.1 18.6 -1.6
v -0.1 18.7 -1.6
v -1.19209e-07 18.2 -1.6
v -1.19209e-07 18.4 -1.6
v -1.19209e-07 18.5 -1.6
v -1.19209e-07 18.6 -1.6
v 0.0999998 18.4 -1.6
v 0.0999998 18.5 -1.6
v 0.2 18.5 -1.6
v 0.2 18.6 -1.6
v 0.3 17.8 -1.6
v 0.3 17.9 -1.6
v 0.3 18.1 -1.6
v 0.3 18.3 -1.6
v 0.3 18.6 -1.6
v 0.4 17.8 -1.6
v 0.4 17.9 -1.6
v 0.4 18.1 -1.6
v 0.4 18.3 -1.6
v -0.8 16.7 -2
v -0.8 16.8 -2
v -0.7 16.7 -2
v -0.7 16.8 -2
v 0.0999998 17.8 -2
v 0.0999998 17.9 -2
v 0.2 17.8 -2
v 0.2 17.9 -2
v -0.7 16.8 -2.1
v -0.7 16.9 -2.1
v -0.6 16.8 -2.1
v -0.6 16.9 -2.1
v -0.8 16.8 -2.2
v -0.8 16.9 -2.2
v -0.7 16.8 -2.2
v -0.7 16.9 -2.2
v -0.7 17 -2.2
v -0.6 16.9 -2.2
v -0.6 17 -2.2
v -0.9 16.7 -2.3
v -0.9 16.9 -2.3
v -0.8 16.7 -2.3
v -0.8 16.9 -2.3
v -0.8 17 -2.3
v -0.7 16.9 -2.3
v -0.7 17 -2.3
v -1 16.7 -2.4
v -1 16.8 -2.4
v -0.9 16.7 -2.4
v -0.9 16.8 -2.4
v -0.9 16.9 -2.4
v -0.9 17 -2.4
v -0.8 16.9 -2.4
v -0.8 17 -2.4
v -1 16.8 -2.5
v -1 16.9 -2.5
v -0.9 16.8 -2.5
v -0.9 16.9 -2.5
v 0.6 16.8 -2.5
v 0.6 16.9 -2.5
v 0.7 16.8 -2.5
v 0.7 16.9 -2.5
v -1.7 16.7 -2.6
v -1.7 16.8 -2.6
v -1.6 16.7 -2.6
v -1.6 16.8 -2.6
v -1.2 16.7 -2.6
v -1.2 16.8 -2.6
v -1.1 16.8 -2.6
v -1.1 16.9 -2.6
v -1 16.7 -2.6
v -1 16.9 -2.6
v 0.5 16.9 -2.6
v 0.5 17 -2.6
v 0.6 16.9 -2.6
v 0.6 17 -2.6
v -1.6 16.7 -2.7
v -1.6 16.8 -2.7
v -1.3 16.8 -2.7
v -1.3 16.9 -2.7
v -1.2 16.7 -2.7
v -1.2 16.8 -2.7
v -1.1 16.8 -2.7
v -1.1 16.9 -2.7
v 0.5 16.7 -2.7
v 0.5 16.8 -2.7
v 0.6 16.7 -2.7
v 0.6 16.8 -2.7
v 0.6 16.9 -2.7
v 0.6 17 -2.7
v 0.7 16.8 -2.7
v 0.7 16.9 -2.7
v 0.7 17 -2.7
v 0.8 16.8 -2.7
v 0.8 16.9 -2.7
v -1.6 16.8 -2.8
v -1.6 16.9 -2.8
v -1.4 16.9 -2.8
v -1.4 17 -2.8
v -1.3 16.8 -2.8
v -1.3 16.9 -2.8
v -1.3 17 -2.8
v 0.7 16.9 -2.8
v 0.7 17 -2.8
v 0.8 16.8 -2.8
v 0.8 16.9 -2.8
v 0.8 17 -2.8
v 0.9 16.8 -2.8
v 0.9 16.9 -2.8
v 0.6 16.7 -3
v 0.6 16.8 -3
v 0.7 16.7 -3
v 0.7 16.8 -3
v 0.9 16.8 -3
v 0.9 16.9 -3
v 1 16.8 -3
v 1 16.9 -3
v 1 16.8 -3.2
v 1 16.9 -3.2
v 1.1 16.8 -3.2
v 1.1 16.9 -3.2
v 1.4 16.7 -0.6
v 1.4 16.8 -0.6
v 1.5 16.7 -0.6
v 1.5 16.8 -0.6
v 1.3 16.7 -0.7
v 1.3 16.8 -0.7
v 1.4 16.7 -0.7
v 1.4 16.8 -0.7
v 0.9 16.9 -0.9
v 0.9 17 -0.9
v 1.1 16.7 -0.9
v 1.1 16.9 -0.9
v 1.1 17 -0.9
v 1.2 16.8 -0.9
v 1.2 16.9 -0.9
v 1.3 16.7 -0.9
v 1.3 16.8 -0.9
v -1.1 16.8 -1
v -1.1 16.9 -1
v -1 16.9 -1
v -1 17 -1
v -0.9 16.8 -1
v -0.9 16.9 -1
v -0.7 16.9 -1
v -0.7 17 -1
v 0.9 16.8 -1
v 0.9 16.9 -1
v 1.1 16.8 -1
v 1.1 16.9 -1
v -1 16.7 -1.1
v -1 16.8 -1.1
v -0.9 16.8 -1.1
v -0.9 16.9 -1.1
v -0.7 16.7 -1.1
v -0.7 16.8 -1.1
v -0.7 16.9 -1.1
v -0.7 17 -1.1
v -0.6 16.8 -1.1
v -0.6 17 -1.1
v 0.8 16.8 -1.1
v 0.8 17.1 -1.1
v 0.9 16.7 -1.1
v 0.9 16.8 -1.1
v 0.9 17.1 -1.1
v 1.1 16.7 -1.1
v 1.1 16.8 -1.1
v -1.3 16.8 -1.2
v -1.3 16.9 -1.2
v -1.2 16.7 -1.2
v -1.2 16.8 -1.2
v -1.2 16.9 -1.2
v -1 16.7 -1.2
v -1 16.8 -1.2
v -1.3 16.7 -1.3
v -1.3 16.8 -1.3
v -1.2 16.7 -1.3
v -1.2 16.8 -1.3
v -1.5 16.7 -1.4
v -1.5 16.8 -1.4
v -1.3 16.7 -1.4
v -1.3 16.8 -1.4
v 0.0999998 17.8 -1.4
v 0.0999998 17.9 -1.4
v 0.2 17.8 -1.4
v 0.2 17.9 -1.4
v -1.6 16.7 -1.5
v -1.6 16.8 -1.5
v -1.5 16.7 -1.5
v -1.5 16.8 -1.5
v -0.4 17.8 -1.6
v -0.4 17.9 -1.6
v -0.3 17.8 -1.6
v -0.3 17.9 -1.6
v -0.9 19.1 -1.8
v -0.9 19.3 -1.8
v -0.8 19 -1.8
v -0.8 19.1 -1.8
v -0.7 18.9 -1.8
v -0.7 19 -1.8
v -0.7 19.1 -1.8
v -0.7 19.2 -1.8
v -0.7 19.3 -1.8
v -0.6 18.8 -1.8
v -0.6 18.9 -1.8
v -0.6 19 -1.8
v -0.6 19.1 -1.8
v -0.6 19.2 -1.8
v -0.5 18.7 -1.8
v -0.5 18.8 -1.8
v -0.5 18.9 -1.8
v -0.5 19 -1.8
v -0.5 19.1 -1.8
v -0.4 18.6 -1.8
v -0.4 18.7 -1.8
v -0.4 18.8 -1.8
v -0.4 18.9 -1.8
v -0.4 19 -1.8
v -0.3 17.9 -1.8
v -0.3 18.1 -1.8
v -0.3 18.5 -1.8
v -0.3 18.6 -1.8
v -0.3 18.7 -1.8
v -0.3 18.8 -1.8
v -0.3 18.9 -1.8
v -0.2 18.1 -1.8
v -0.2 18.2 -1.8
v -0.2 18.4 -1.8
v -0.2 18.5 -1.8
v -0.2 18.6 -1.8
v -0.2 18.7 -1.8
v -0.2 18.8 -1.8
v -0.1 17.8 -1.8
v -0.1 17.9 -1.8
v -0.1 18.2 -1.8
v -0.1 18.4 -1.8
v -0.1 18.5 -1.8
v -0.1 18.6 -1.8
v -0.1 18.7 -1.8
v -1.19209e-07 17.8 -1.8
v -1.19209e-07 17.9 -1.8
v -1.19209e-07 18.2 -1.8
v -1.19209e-07 18.4 -1.8
v -1.19209e-07 18.5 -1.8
v -1.19209e-07 18.6 -1.8
v 0.0999998 18.4 -1.8
v 0.0999998 18.5 -1.8
v 0.2 18.5 -1.8
v 0.2 18.6 -1.8
v 0.3 17.8 -1.8
v 0.3 17.9 -1.8
v 0.3 18.1 -1.8
v 0.3 18.3 -1.8
v 0.3 18.6 -1.8
v 0.4 17.8 -1.8
v 0.4 17.9 -1.8
v 0.4 18.1 -1.8
v 0.4 18.3 -1.8
v -0.3 17.8 -1.9
v -0.3 17.9 -1.9
v -0.1 17.8 -1.9
v -0.1 17.9 -1.9
v -1.19209e-07 17.8 -1.9
v -1.19209e-07 17.9 -1.9
v 0.3 17.8 -1.9
v 0.3 17.9 -1.9
v -0.6 17.7 -2
v -0.6 17.8 -2
v -0.5 17.7 -2
v -0.5 17.8 -2
v -0.6 17.2 -2.1
v -0.6 17.7 -2.1
v -0.5 17.2 -2.1
v -0.5 17.7 -2.1
v -0.5 17.8 -2.1
v -0.4 17.7 -2.1
v -0.4 17.8 -2.1
v 0.0999998 17.8 -2.1
v 0.0999998 17.9 -2.1
v 0.2 17.8 -2.1
v 0.2 17.9 -2.1
v -0.6 17 -2.2
v -0.6 17.2 -2.2
v -0.5 17 -2.2
v -0.5 17.2 -2.2
v -0.5 17.7 -2.2
v -0.4 17.2 -2.2
v -0.4 17.7 -2.2
v -0.4 17.8 -2.2
v -0.3 17.7 -2.2
v -0.3 17.8 -2.2
v 0.6 16.9 -2.2
v 0.6 17.8 -2.2
v 0.8 16.9 -2.2
v 0.8 17.8 -2.2
v -0.5 17 -2.3
v -0.5 17.2 -2.3
v -0.4 17 -2.3
v -0.4 17.1 -2.3
v -0.4 17.2 -2.3
v -0.4 17.7 -2.3
v -0.3 17.1 -2.3
v -0.3 17.7 -2.3
v -0.3 17.8 -2.3
v -0.2 17.7 -2.3
v -0.2 17.8 -2.3
v 0.5 16.9 -2.3
v 0.5 17.8 -2.3
v 0.6 16.8 -2.3
v 0.6 16.9 -2.3
v 0.6 17.8 -2.3
v 0.8 16.8 -2.3
v 0.8 16.9 -2.3
v -0.7 16.9 -2.4
v -0.7 17 -2.4
v -0.5 16.8 -2.4
v -0.5 16.9 -2.4
v -0.4 17 -2.4
v -0.4 17.1 -2.4
v -0.3 17.1 -2.4
v -0.3 17.7 -2.4
v -0.2 16.8 -2.4
v -0.2 16.9 -2.4
v -0.2 17.3 -2.4
v -0.2 17.7 -2.4
v -0.2 17.8 -2.4
v -0.1 16.9 -2.4
v -0.1 17.2 -2.4
v -0.1 17.3 -2.4
v -0.1 17.5 -2.4
v -1.19209e-07 17.2 -2.4
v -1.19209e-07 17.4 -2.4
v -1.19209e-07 17.5 -2.4
v -1.19209e-07 17.7 -2.4
v 0.0999998 17.4 -2.4
v 0.0999998 17.7 -2.4
v 0.2 16.9 -2.4
v 0.2 17 -2.4
v 0.3 17 -2.4
v 0.3 17.1 -2.4
v 0.3 17.8 -2.4
v 0.4 17 -2.4
v 0.4 17.1 -2.4
v 0.4 17.8 -2.4
v 0.5 17 -2.4
v 0.5 17.8 -2.4
v 0.8 16.7 -2.4
v 0.8 16.8 -2.4
v 0.9 16.7 -2.4
v 0.9 16.8 -2.4
v -0.9 16.9 -2.5
v -0.9 17 -2.5
v -0.7 16.8 -2.5
v -0.7 16.9 -2.5
v -0.7 17 -2.5
v -0.6 16.7 -2.5
v -0.6 16.8 -2.5
v -0.5 16.8 -2.5
v -0.5 16.9 -2.5
v -0.2 16.8 -2.5
v -0.2 16.9 -2.5
v -1.19209e-07 16.7 -2.5
v -1.19209e-07 16.8 -2.5
v 0.0999998 16.8 -2.5
v 0.0999998 16.9 -2.5
v 0.3 17 -2.5
v 0.3 17.1 -2.5
v 0.4 17 -2.5
v 0.4 17.1 -2.5
v 0.7 16.7 -2.5
v 0.7 16.8 -2.5
v 0.8 16.7 -2.5
v 0.8 16.8 -2.5
v -0.9 16.8 -2.6
v -0.9 16.9 -2.6
v -0.7 16.7 -2.6
v -0.7 16.8 -2.6
v -0.7 16.9 -2.6
v -0.6 16.7 -2.6
v -0.6 16.8 -2.6
v -1.19209e-07 16.7 -2.6
v -1.19209e-07 16.8 -2.6
v 0.0999998 16.7 -2.6
v 0.0999998 16.8 -2.6
v 0.0999998 16.9 -2.6
v 0.2 16.9 -2.6
v 0.2 17 -2.6
v 0.3 16.8 -2.6
v 0.3 17 -2.6
v 0.5 16.7 -2.6
v 0.5 16.8 -2.6
v 0.7 16.7 -2.6
v 0.7 16.8 -2.6
v -1 16.8 -2.7
v -1 16.9 -2.7
v -0.9 16.7 -2.7
v -0.9 16.8 -2.7
v -0.9 16.9 -2.7
v -0.7 16.7 -2.7
v -0.7 16.8 -2.7
v 0.0999998 16.7 -2.7
v 0.0999998 16.8 -2.7
v 0.3 16.8 -2.7
v 0.3 17 -2.7
v 0.5 16.7 -2.7
v 0.5 17 -2.7
v -1.7 16.7 -2.8
v -1.7 16.8 -2.8
v -1.6 16.8 -2.8
v -1.4 16.7 -2.8
v -1.4 16.8 -2.8
v -1.2 16.8 -2.8
v -1.2 16.9 -2.8
v -1 16.7 -2.8
v -1 16.8 -2.8
v -1 16.9 -2.8
v -0.9 16.7 -2.8
v -0.9 16.8 -2.8
v 0.5 16.8 -2.8
v 0.5 17 -2.8
v 0.6 16.8 -2.8
v 0.6 17 -2.8
v -1.6 16.8 -2.9
v -1.6 16.9 -2.9
v -1.4 16.7 -2.9
v -1.4 16.8 -2.9
v -1.4 16.9 -2.9
v -1.4 17 -2.9
v -1.3 16.9 -2.9
v -1.3 17 -2.9
v -1.2 16.8 -2.9
v -1.2 16.9 -2.9
v -1 16.7 -2.9
v -1 16.8 -2.9
v 0.6 16.9 -2.9
v 0.6 17 -2.9
v 0.7 16.9 -2.9
v 0.7 17 -2.9
v 0.5 16.7 -3
v 0.5 16.8 -3
v 0.6 16.7 -3
v 0.6 16.8 -3
v 0.6 16.9 -3
v 0.7 16.8 -3
v 0.7 16.9 -3
v 0.7 17 -3
v 0.8 16.9 -3
v 0.8 17 -3
v 0.6 16.7 -3.1
v 0.6 16.8 -3.1
v 0.7 16.7 -3.1
v 0.7 16.8 -3.1
v 0.7 16.9 -3.1
v 0.9 16.8 -3.1
v 0.9 16.9 -3.1
v 0.9 16.8 -3.3
v 0.9 16.9 -3.3
v 1 16.8 -3.3
v 1 16.9 -3.3
v 1 16.8 -3.4
v 1 16.9 -3.4
v 1.1 16.8 -3.4
v 1.1 16.9 -3.4
v 1.4 16.7 -0.2
v 1.5 16.7 -0.2
v 1.3 16.7 -0.3
v 1.4 16.7 -0.3
v 1.2 16.7 -0.5
v 1.3 16.7 -0.5
v 1 16.7 -0.6
v 1.2 16.7 -0.6
v 1.4 16.7 -0.6
v 1.5 16.7 -0.6
v 0.7 16.7 -0.7
v 1 16.7 -0.7
v 1.3 16.7 -0.7
v 1.4 16.7 -0.7
v -1.1 16.7 -0.8
v -0.4 16.7 -0.8
v 0.6 16.7 -0.8
v 0.7 16.7 -0.8
v -1.2 16.7 -0.9
v -1.1 16.7 -0.9
v -0.4 16.7 -0.9
v -0.1 16.7 -0.9
v 0.5 16.7 -0.9
v 0.6 16.7 -0.9
v 1.1 16.7 -0.9
v 1.3 16.7 -0.9
v -1.3 16.7 -1
v -1.2 16.7 -1
v -0.1 16.7 -1
v 0.5 16.7 -1
v -1.4 16.7 -1.1
v -1.3 16.7 -1.1
v -1 16.7 -1.1
v -0.7 16.7 -1.1
v 0.9 16.7 -1.1
v 1.1 16.7 -1.1
v -1.2 16.7 -1.2
v -1 16.7 -1.2
v -0.7 16.7 -1.2
v -0.6 16.7 -1.2
v -1.6 16.7 -1.3
v -1.4 16.7 -1.3
v -1.3 16.7 -1.3
v -1.2 16.7 -1.3
v 0.8 16.7 -1.3
v 0.9 16.7 -1.3
v -1.5 16.7 -1.4
v -1.3 16.7 -1.4
v -1.6 16.7 -1.5
v -1.5 16.7 -1.5
v 0.8 16.7 -1.9
v 0.9 16.7 -1.9
v -0.8 16.7 -2
v -0.7 16.7 -2
v -0.6 16.7 -2
v -0.9 16.7 -2.3
v -0.8 16.7 -2.3
v -1 16.7 -2.4
v -0.9 16.7 -2.4
v 0.8 16.7 -2.4
v 0.9 16.7 -2.4
v -0.6 16.7 -2.5
v -1.19209e-07 16.7 -2.5
v 0.7 16.7 -2.5
v 0.8 16.7 -2.5
v -1.7 16.7 -2.6
v -1.6 16.7 -2.6
v -1.2 16.7 -2.6
v -1 16.7 -2.6
v -0.7 16.7 -2.6
v -0.6 16.7 -2.6
v -1.19209e-07 16.7 -2.6
v 0.0999998 16.7 -2.6
v 0.5 16.7 -2.6
v 0.7 16.7 -2.6
v -1.6 16.7 -2.7
v -1.2 16.7 -2.7
v -0.9 16.7 -2.7
v -0.7 16.7 -2.7
v 0.0999998 16.7 -2.7
v 0.5 16.7 -2.7
v 0.6 16.7 -2.7
v -1.7 16.7 -2.8
v -1.4 16.7 -2.8
v -1 16.7 -2.8
v -0.9 16.7 -2.8
v -1.4 16.7 -2.9
v -1 16.7 -2.9
v 0.5 16.7 -3
v 0.6 16.7 -3
v 0.7 16.7 -3
v 0.6 16.7 -3.1
v 0.7 16.7 -3.1
v 0.5 16.8 -2.6
v 0.7 16.8 -2.6
v 0.5 16.8 -2.7
v 0.6 16.8 -2.7
v 0.7 16.8 -2.7
v 0.8 16.8 -2.7
v -1.6 16.8 -2.8
v -1.4 16.8 -2.8
v 0.8 16.8 -2.8
v 0.9 16.8 -2.8
v -1.6 16.8 -2.9
v -1.4 16.8 -2.9
v 0.6 16.8 -3
v 0.7 16.8 -3
v 0.9 16.8 -3
v 1 16.8 -3
v 0.7 16.8 -3.1
v 0.9 16.8 -3.1
v 1 16.8 -3.2
v 1.1 16.8 -3.2
v 0.9 16.8 -3.3
v 1 16.8 -3.3
v 1 16.8 -3.4
v 1.1 16.8 -3.4
v 0.3 18.1 -1.6
v 0.4 18.1 -1.6
v 0.3 18.1 -1.8
v 0.4 18.1 -1.8
v -0.2 18.4 -1.6
v -0.1 18.4 -1.6
v -0.2 18.4 -1.8
v -0.1 18.4 -1.8
v -0.3 18.5 -1.6
v -0.2 18.5 -1.6
v -0.3 18.5 -1.8
v -0.2 18.5 -1.8
v -0.4 18.6 -1.6
v -0.3 18.6 -1.6
v -0.4 18.6 -1.8
v -0.3 18.6 -1.8
v -0.5 18.7 -1.6
v -0.4 18.7 -1.6
v -0.5 18.7 -1.8
v -0.4 18.7 -1.8
v -0.6 18.8 -1.6
v -0.5 18.8 -1.6
v -0.6 18.8 -1.8
v -0.5 18.8 -1.8
v -0.7 18.9 -1.6
v -0.6 18.9 -1.6
v -0.7 18.9 -1.8
v -0.6 18.9 -1.8
v -0.8 19 -1.6
v -0.7 19 -1.6
v -0.8 19 -1.8
v -0.7 19 -1.8
v -0.9 19.1 -1.6
v -0.8 19.1 -1.6
v -0.9 19.1 -1.8
v -0.8 19.1 -1.8
v 1.4 16.8 -0.2
v 1.5 16.8 -0.2
v 1.3 16.8 -0.3
v 1.4 16.8 -0.3
v 1.2 16.8 -0.5
v 1.3 16.8 -0.5
v 1 16.8 -0.6
v 1.2 16.8 -0.6
v 1.4 16.8 -0.6
v 1.5 16.8 -0.6
v 0.7 16.8 -0.7
v 1 16.8 -0.7
v 1.3 16.8 -0.7
v 1.4 16.8 -0.7
v -1.1 16.8 -0.8
v -0.4 16.8 -0.8
v 0.6 16.8 -0.8
v 0.7 16.8 -0.8
v 1.2 16.8 -0.8
v -1.2 16.8 -0.9
v -1.1 16.8 -0.9
v -0.4 16.8 -0.9
v 0.0999998 16.8 -0.9
v 0.5 16.8 -0.9
v 0.6 16.8 -0.9
v 0.7 16.8 -0.9
v 1.2 16.8 -0.9
v 1.3 16.8 -0.9
v -1.3 16.8 -1
v -1.2 16.8 -1
v -1.1 16.8 -1
v -0.9 16.8 -1
v 0.0999998 16.8 -1
v 0.2 16.8 -1
v 0.3 16.8 -1
v 0.5 16.8 -1
v 0.9 16.8 -1
v 1.1 16.8 -1
v -1.4 16.8 -1.1
v -1.3 16.8 -1.1
v -1.2 16.8 -1.1
v -1 16.8 -1.1
v -0.9 16.8 -1.1
v -0.7 16.8 -1.1
v -0.6 16.8 -1.1
v 0.8 16.8 -1.1
v 0.9 16.8 -1.1
v 1.1 16.8 -1.1
v -1.3 16.8 -1.2
v -1.2 16.8 -1.2
v -1 16.8 -1.2
v -0.7 16.8 -1.2
v -0.6 16.8 -1.2
v -1.6 16.8 -1.3
v -1.4 16.8 -1.3
v -1.3 16.8 -1.3
v -1.2 16.8 -1.3
v 0.8 16.8 -1.3
v 0.9 16.8 -1.3
v -1.5 16.8 -1.4
v -1.3 16.8 -1.4
v 0.8 16.8 -1.4
v -1.6 16.8 -1.5
v -1.5 16.8 -1.5
v 0.8 16.8 -1.5
v -0.6 16.8 -1.9
v 0.8 16.8 -1.9
v 0.9 16.8 -1.9
v -0.8 16.8 -2
v -0.7 16.8 -2
v -0.6 16.8 -2
v -0.7 16.8 -2.1
v -0.6 16.8 -2.1
v -0.8 16.8 -2.2
v -0.7 16.8 -2.2
v 0.6 16.8 -2.3
v 0.8 16.8 -2.3
v -1 16.8 -2.4
v -0.9 16.8 -2.4
v -0.5 16.8 -2.4
v -0.2 16.8 -2.4
v 0.8 16.8 -2.4
v 0.9 16.8 -2.4
v -1 16.8 -2.5
v -0.9 16.8 -2.5
v -0.7 16.8 -2.5
v -0.6 16.8 -2.5
v -0.5 16.8 -2.5
v -0.2 16.8 -2.5
v -1.19209e-07 16.8 -2.5
v 0.0999998 16.8 -2.5
v 0.6 16.8 -2.5
v 0.7 16.8 -2.5
v 0.8 16.8 -2.5
v -1.7 16.8 -2.6
v -1.6 16.8 -2.6
v -1.2 16.8 -2.6
v -1.1 16.8 -2.6
v -0.9 16.8 -2.6
v -0.7 16.8 -2.6
v -0.6 16.8 -2.6
v -1.19209e-07 16.8 -2.6
v 0.0999998 16.8 -2.6
v 0.3 16.8 -2.6
v -1.6 16.8 -2.7
v -1.3 16.8 -2.7
v -1.2 16.8 -2.7
v -1.1 16.8 -2.7
v -1 16.8 -2.7
v -0.9 16.8 -2.7
v -0.7 16.8 -2.7
v 0.0999998 16.8 -2.7
v 0.3 16.8 -2.7
v -1.7 16.8 -2.8
v -1.6 16.8 -2.8
v -1.3 16.8 -2.8
v -1.2 16.8 -2.8
v -1 16.8 -2.8
v -0.9 16.8 -2.8
v 0.5 16.8 -2.8
v 0.6 16.8 -2.8
v -1.2 16.8 -2.9
v -1 16.8 -2.9
v 0.5 16.8 -3
v 0.6 16.8 -3
v 0.7 16.8 -3
v 0.6 16.8 -3.1
v 0.7 16.8 -3.1
v 1.1 16.9 -0.8
v 1.2 16.9 -0.8
v -1.1 16.9 -0.9
v -1 16.9 -0.9
v -0.3 16.9 -0.9
v 0.0999998 16.9 -0.9
v 0.9 16.9 -0.9
v 1.1 16.9 -0.9
v 1.2 16.9 -0.9
v -1.1 16.9 -1
v -1 16.9 -1
v -0.9 16.9 -1
v -0.7 16.9 -1
v -0.3 16.9 -1
v -0.1 16.9 -1
v -1.19209e-07 16.9 -1
v 0.0999998 16.9 -1
v 0.9 16.9 -1
v 1.1 16.9 -1
v -1.3 16.9 -1.1
v -1.2 16.9 -1.1
v -0.9 16.9 -1.1
v -0.7 16.9 -1.1
v -1.3 16.9 -1.2
v -1.2 16.9 -1.2
v -0.7 16.9 -2.1
v -0.6 16.9 -2.1
v -0.8 16.9 -2.2
v -0.7 16.9 -2.2
v -0.6 16.9 -2.2
v 0.6 16.9 -2.2
v 0.8 16.9 -2.2
v -0.9 16.9 -2.3
v -0.8 16.9 -2.3
v -0.7 16.9 -2.3
v 0.5 16.9 -2.3
v 0.6 16.9 -2.3
v 0.8 16.9 -2.3
v -0.9 16.9 -2.4
v -0.8 16.9 -2.4
v -0.7 16.9 -2.4
v -0.5 16.9 -2.4
v -0.2 16.9 -2.4
v -0.1 16.9 -2.4
v 0.2 16.9 -2.4
v -1 16.9 -2.5
v -0.9 16.9 -2.5
v -0.7 16.9 -2.5
v -0.5 16.9 -2.5
v -0.2 16.9 -2.5
v 0.0999998 16.9 -2.5
v 0.6 16.9 -2.5
v 0.7 16.9 -2.5
v -1.1 16.9 -2.6
v -1 16.9 -2.6
v -0.9 16.9 -2.6
v -0.7 16.9 -2.6
v 0.0999998 16.9 -2.6
v 0.2 16.9 -2.6
v 0.5 16.9 -2.6
v 0.6 16.9 -2.6
v -1.3 16.9 -2.7
v -1.1 16.9 -2.7
v -1 16.9 -2.7
v -0.9 16.9 -2.7
v 0.6 16.9 -2.7
v 0.7 16.9 -2.7
v 0.8 16.9 -2.7
v -1.6 16.9 -2.8
v -1.4 16.9 -2.8
v -1.3 16.9 -2.8
v -1.2 16.9 -2.8
v -1 16.9 -2.8
v 0.7 16.9 -2.8
v 0.8 16.9 -2.8
v 0.9 16.9 -2.8
v -1.6 16.9 -2.9
v -1.4 16.9 -2.9
v -1.3 16.9 -2.9
v -1.2 16.9 -2.9
v 0.6 16.9 -2.9
v 0.7 16.9 -2.9
v 0.6 16.9 -3
v 0.7 16.9 -3
v 0.8 16.9 -3
v 0.9 16.9 -3
v 1 16.9 -3
v 0.7 16.9 -3.1
v 0.9 16.9 -3.1
v 1 16.9 -3.2
v 1.1 16.9 -3.2
v 0.9 16.9 -3.3
v 1 16.9 -3.3
v 1 16.9 -3.4
v 1.1 16.9 -3.4
v 0.7 17 -0.8
v 1.1 17 -0.8
v -1 17 -0.9
v -0.4 17 -0.9
v 0.7 17 -0.9
v 0.9 17 -0.9
v 1.1 17 -0.9
v -1 17 -1
v -0.7 17 -1
v -0.5 17 -1
v -0.4 17 -1
v -0.7 17 -1.1
v -0.6 17 -1.1
v -0.5 17 -1.1
v -0.7 17 -2.2
v -0.6 17 -2.2
v -0.5 17 -2.2
v -0.8 17 -2.3
v -0.7 17 -2.3
v -0.5 17 -2.3
v -0.4 17 -2.3
v -0.9 17 -2.4
v -0.8 17 -2.4
v -0.7 17 -2.4
v -0.4 17 -2.4
v 0.2 17 -2.4
v 0.3 17 -2.4
v 0.4 17 -2.4
v 0.5 17 -2.4
v -0.9 17 -2.5
v -0.7 17 -2.5
v 0.3 17 -2.5
v 0.4 17 -2.5
v 0.2 17 -2.6
v 0.3 17 -2.6
v 0.5 17 -2.6
v 0.6 17 -2.6
v 0.3 17 -2.7
v 0.5 17 -2.7
v 0.6 17 -2.7
v 0.7 17 -2.7
v -1.4 17 -2.8
v -1.3 17 -2.8
v 0.5 17 -2.8
v 0.6 17 -2.8
v 0.7 17 -2.8
v 0.8 17 -2.8
v -1.4 17 -2.9
v -1.3 17 -2.9
v 0.6 17 -2.9
v 0.7 17 -2.9
v 0.7 17 -3
v 0.8 17 -3
v -0.4 17.1 -0.9
v -0.3 17.1 -0.9
v 0.8 17.1 -0.9
v 0.9 17.1 -0.9
v -0.5 17.1 -1
v -0.4 17.1 -1
v -0.3 17.1 -1
v -0.6 17.1 -1.1
v -0.5 17.1 -1.1
v -0.4 17.1 -1.1
v 0.8 17.1 -1.1
v 0.9 17.1 -1.1
v -0.6 17.1 -1.2
v -0.5 17.1 -1.2
v -0.4 17.1 -2.3
v -0.3 17.1 -2.3
v -0.4 17.1 -2.4
v -0.3 17.1 -2.4
v 0.3 17.1 -2.4
v 0.4 17.1 -2.4
v 0.3 17.1 -2.5
v 0.4 17.1 -2.5
v 0.5 17.2 -0.9
v 0.8 17.2 -0.9
v 0.5 17.2 -1
v 0.8 17.2 -1
v -0.6 17.2 -2.1
v -0.5 17.2 -2.1
v -0.6 17.2 -2.2
v -0.5 17.2 -2.2
v -0.4 17.2 -2.2
v -0.5 17.2 -2.3
v -0.4 17.2 -2.3
v 0.7 17.3 -1
v 0.8 17.3 -1
v -0.6 17.3 -1.2
v -0.5 17.3 -1.2
v 0.7 17.3 -1.2
v 0.8 17.3 -1.2
v -0.6 17.3 -1.3
v -0.5 17.3 -1.3
v 0.6 17.4 -1
v 0.7 17.4 -1
v 0.6 17.4 -1.2
v 0.7 17.4 -1.2
v 0.8 17.4 -1.2
v 0.7 17.4 -1.3
v 0.8 17.4 -1.3
v -0.4 17.5 -1
v -0.3 17.5 -1
v -0.5 17.5 -1.1
v -0.4 17.5 -1.1
v -0.3 17.5 -1.1
v -0.5 17.5 -1.2
v -0.4 17.5 -1.2
v -0.3 17.7 -1
v -0.2 17.7 -1
v -0.3 17.7 -1.1
v -0.2 17.7 -1.1
v -0.6 17.7 -2
v -0.5 17.7 -2
v -0.6 17.7 -2.1
v -0.5 17.7 -2.1
v -0.4 17.7 -2.1
v -0.5 17.7 -2.2
v -0.4 17.7 -2.2
v -0.3 17.7 -2.2
v -0.4 17.7 -2.3
v -0.3 17.7 -2.3
v -0.2 17.7 -2.3
v -0.3 17.7 -2.4
v -0.2 17.7 -2.4
v -0.2 17.8 -1
v -0.1 17.8 -1
v 0.6 17.8 -1
v -0.4 17.8 -1.1
v -0.2 17.8 -1.1
v -0.1 17.8 -1.1
v 0.5 17.8 -1.1
v -0.5 17.8 -1.2
v -0.4 17.8 -1.2
v -0.3 17.8 -1.2
v -0.2 17.8 -1.2
v 0.5 17.8 -1.2
v 0.6 17.8 -1.2
v 0.7 17.8 -1.2
v -0.6 17.8 -1.3
v -0.5 17.8 -1.3
v -0.4 17.8 -1.3
v -0.3 17.8 -1.3
v -0.2 17.8 -1.3
v 0.0999998 17.8 -1.3
v 0.2 17.8 -1.3
v 0.5 17.8 -1.3
v 0.6 17.8 -1.3
v 0.7 17.8 -1.3
v 0.8 17.8 -1.3
v -0.6 17.8 -1.4
v -0.5 17.8 -1.4
v -0.4 17.8 -1.4
v -0.3 17.8 -1.4
v -0.2 17.8 -1.4
v -0.1 17.8 -1.4
v 0.0999998 17.8 -1.4
v 0.2 17.8 -1.4
v 0.6 17.8 -1.4
v -0.6 17.8 -1.5
v -0.5 17.8 -1.5
v -0.4 17.8 -1.5
v -0.3 17.8 -1.5
v -0.2 17.8 -1.5
v -0.1 17.8 -1.5
v 0.3 17.8 -1.5
v 0.5 17.8 -1.5
v -0.4 17.8 -1.6
v -0.3 17.8 -1.6
v -0.2 17.8 -1.6
v -0.1 17.8 -1.6
v 0.3 17.8 -1.6
v 0.4 17.8 -1.6
v -0.3 17.8 -1.8
v -0.1 17.8 -1.8
v -1.19209e-07 17.8 -1.8
v 0.3 17.8 -1.8
v 0.4 17.8 -1.8
v -0.3 17.8 -1.9
v -0.1 17.8 -1.9
v -1.19209e-07 17.8 -1.9
v 0.3 17.8 -1.9
v 0.7 17.8 -1.9
v 0.8 17.8 -1.9
v -0.6 17.8 -2
v -0.5 17.8 -2
v -0.4 17.8 -2
v -0.3 17.8 -2
v -0.2 17.8 -2
v -1.19209e-07 17.8 -2
v 0.0999998 17.8 -2
v 0.2 17.8 -2
v 0.4 17.8 -2
v 0.7 17.8 -2
v 0.8 17.8 -2
v -0.5 17.8 -2.1
v -0.4 17.8 -2.1
v -0.3 17.8 -2.1
v -0.2 17.8 -2.1
v 0.0999998 17.8 -2.1
v 0.2 17.8 -2.1
v 0.5 17.8 -2.1
v 0.6 17.8 -2.1
v 0.7 17.8 -2.1
v -0.4 17.8 -2.2
v -0.3 17.8 -2.2
v -0.2 17.8 -2.2
v 0.5 17.8 -2.2
v 0.6 17.8 -2.2
v 0.8 17.8 -2.2
v -0.3 17.8 -2.3
v -0.2 17.8 -2.3
v 0.3 17.8 -2.3
v 0.4 17.8 -2.3
v 0.5 17.8 -2.3
v 0.6 17.8 -2.3
v -0.2 17.8 -2.4
v 0.3 17.8 -2.4
v 0.4 17.8 -2.4
v 0.5 17.8 -2.4
v 0.0999998 17.9 -1.3
v 0.2 17.9 -1.3
v 0.0999998 17.9 -1.4
v 0.2 17.9 -1.4
v -0.4 17.9 -1.5
v -0.2 17.9 -1.5
v -0.1 17.9 -1.5
v 0.3 17.9 -1.5
v -0.4 17.9 -1.6
v -0.3 17.9 -1.6
v -0.2 17.9 -1.6
v -0.1 17.9 -1.6
v 0.3 17.9 -1.6
v 0.4 17.9 -1.6
v -0.3 17.9 -1.8
v -0.1 17.9 -1.8
v -1.19209e-07 17.9 -1.8
v 0.3 17.9 -1.8
v 0.4 17.9 -1.8
v -0.3 17.9 -1.9
v -0.1 17.9 -1.9
v -1.19209e-07 17.9 -1.9
v 0.3 17.9 -1.9
v 0.0999998 17.9 -2
v 0.2 17.9 -2
v 0.0999998 17.9 -2.1
v 0.2 17.9 -2.1
v -0.3 18.1 -1.6
v -0.2 18.1 -1.6
v -0.3 18.1 -1.8
v -0.2 18.1 -1.8
v -0.2 18.2 -1.6
v -0.1 18.2 -1.6
v -0.2 18.2 -1.8
v -0.1 18.2 -1.8
v 0.3 18.3 -1.6
v 0.4 18.3 -1.6
v 0.3 18.3 -1.8
v 0.4 18.3 -1.8
v -1.19209e-07 18.5 -1.6
v 0.0999998 18.5 -1.6
v 0.2 18.5 -1.6
v -1.19209e-07 18.5 -1.8
v 0.0999998 18.5 -1.8
v 0.2 18.5 -1.8
v -0.1 18.6 -1.6
v -1.19209e-07 18.6 -1.6
v 0.2 18.6 -1.6
v 0.3 18.6 -1.6
v -0.1 18.6 -1.8
v -1.19209e-07 18.6 -1.8
v 0.2 18.6 -1.8
v 0.3 18.6 -1.8
v -0.2 18.7 -1.6
v -0.1 18.7 -1.6
v -0.2 18.7 -1.8
v -0.1 18.7 -1.8
v -0.3 18.8 -1.6
v -0.2 18.8 -1.6
v -0.3 18.8 -1.8
v -0.2 18.8 -1.8
v -0.4 18.9 -1.6
v -0.3 18.9 -1.6
v -0.4 18.9 -1.8
v -0.3 18.9 -1.8
v -0.5 19 -1.6
v -0.4 19 -1.6
v -0.5 19 -1.8
v -0.4 19 -1.8
v -0.6 19.1 -1.6
v -0.5 19.1 -1.6
v -0.6 19.1 -1.8
v -0.5 19.1 -1.8
v -0.7 19.2 -1.6
v -0.6 19.2 -1.6
v -0.7 19.2 -1.8
v -0.6 19.2 -1.8
v -0.9 19.3 -1.6
v -0.7 19.3 -1.6
v -0.9 19.3 -1.8
v -0.7 19.3 -1.8

# faces
f 3/5/1 2/5/1 1/5/1
f 4/5/1 2/5/1 3/5/1
f 7/5/1 6/5/1 5/5/1
f 8/5/1 6/5/1 7/5/1
f 11/5/1 10/5/1 9/5/1
f 12/5/1 10/5/1 11/5/1
f 17/5/1 14/5/1 13/5/1
f 18/5/1 14/5/1 17/5/1
f 19/5/1 16/5/1 15/5/1
f 20/5/1 16/5/1 19/5/1
f 23/5/1 22/5/1 21/5/1
f 24/5/1 22/5/1 23/5/1
f 27/5/1 26/5/1 25/5/1
f 28/5/1 26/5/1 27/5/1
f 32/5/1 29/5/1 28/5/1
f 33/5/1 29/5/1 32/5/1
f 34/5/1 31/5/1 30/5/1
f 35/5/1 31/5/1 34/5/1
f 40/5/1 37/5/1 36/5/1
f 41/5/1 37/5/1 40/5/1
f 42/5/1 39/5/1 38/5/1
f 43/5/1 39/5/1 42/5/1
f 46/5/1 45/5/1 44/5/1
f 47/5/1 45/5/1 46/5/1
f 51/5/1 48/5/1 47/5/1
f 52/5/1 48/5/1 51/5/1
f 53/5/1 50/5/1 49/5/1
f 54/5/1 50/5/1 53/5/1
f 57/5/1 56/5/1 55/5/1
f 58/5/1 56/5/1 57/5/1
f 61/5/1 56/5/1 58/5/1
f 62/5/1 56/5/1 61/5/1
f 63/5/1 60/5/1 59/5/1
f 64/5/1 60/5/1 63/5/1
f 69/5/1 66/5/1 65/5/1
f 71/5/1 68/5/1 67/5/1
f 72/5/1 68/5/1 71/5/1
f 73/5/1 70/5/1 69/5/1
f 73/5/1 69/5/1 65/5/1
f 74/5/1 70/5/1 73/5/1
f 75/5/1 70/5/1 74/5/1
f 76/5/1 75/5/1 74/5/1
f 77/5/1 75/5/1 76/5/1
f 80/4/1 79/4/1 78/4/1
f 81/4/1 79/4/1 80/4/1
f 84/5/1 83/5/1 82/5/1
f 85/5/1 83/5/1 84/5/1
f 86/5/1 83/5/1 85/5/1
f 87/5/1 83/5/1 86/5/1
f 89/5/1 88/5/1 87/5/1
f 90/5/1 88/5/1 89/5/1
f 93/5/1 92/5/1 91/5/1
f 94/5/1 92/5/1 93/5/1
f 98/5/1 96/5/1 95/5/1
f 99/4/1 97/4/1 96/4/1
f 99/5/1 96/5/1 98/5/1
f 100/4/1 97/4/1 99/4/1
f 105/5/1 102/5/1 101/5/1
f 106/5/1 102/5/1 105/5/1
f 108/5/1 104/5/1 103/5/1
f 109/5/1 104/5/1 108/5/1
f 110/5/1 107/5/1 106/5/1
f 111/5/1 107/5/1 110/5/1
f 114/5/1 113/5/1 112/5/1
f 115/5/1 113/5/1 114/5/1
f 121/5/1 117/5/1 116/5/1
f 121/5/1 118/5/1 117/5/1
f 122/5/1 118/5/1 121/5/1
f 123/5/1 120/5/1 119/5/1
f 125/5/1 121/5/1 116/5/1
f 126/5/1 124/5/1 123/5/1
f 127/5/1 121/5/1 125/5/1
f 128/5/1 121/5/1 127/5/1
f 129/5/1 123/5/1 119/5/1
f 129/5/1 126/5/1 123/5/1
f 130/5/1 126/5/1 129/5/1
f 131/5/1 121/5/1 128/5/1
f 132/5/1 121/5/1 131/5/1
f 133/5/1 121/5/1 132/5/1
f 134/4/1 122/4/1 121/4/1
f 134/5/1 121/5/1 133/5/1
f 135/4/1 122/4/1 134/4/1
f 135/4/1 134/4/1 133/4/1
f 136/5/1 118/5/1 122/5/1
f 136/4/1 122/4/1 135/4/1
f 137/5/1 133/5/1 132/5/1
f 138/4/1 135/4/1 133/4/1
f 138/5/1 133/5/1 137/5/1
f 139/4/1 119/4/1 118/4/1
f 139/5/1 118/5/1 136/5/1
f 139/5/1 136/5/1 135/5/1
f 140/5/1 129/5/1 119/5/1
f 140/4/1 119/4/1 139/4/1
f 141/4/1 135/4/1 138/4/1
f 141/4/1 138/4/1 137/4/1
f 142/5/1 140/5/1 139/5/1
f 142/4/1 135/4/1 141/4/1
f 142/5/1 139/5/1 135/5/1
f 143/5/1 129/5/1 140/5/1
f 143/5/1 140/5/1 142/5/1
f 144/5/1 129/5/1 143/5/1
f 145/5/1 137/5/1 132/5/1
f 146/4/1 141/4/1 137/4/1
f 146/5/1 137/5/1 145/5/1
f 147/5/1 142/5/1 141/5/1
f 147/4/1 141/4/1 146/4/1
f 147/5/1 143/5/1 142/5/1
f 148/5/1 143/5/1 147/5/1
f 151/5/1 150/5/1 149/5/1
f 152/5/1 150/5/1 151/5/1
f 157/5/1 154/5/1 153/5/1
f 158/5/1 154/5/1 157/5/1
f 161/5/1 156/5/1 155/5/1
f 162/5/1 156/5/1 161/5/1
f 163/5/1 159/5/1 158/5/1
f 165/5/1 163/5/1 158/5/1
f 165/5/1 164/5/1 163/5/1
f 166/5/1 164/5/1 165/5/1
f 168/5/1 161/5/1 160/5/1
f 169/5/1 161/5/1 168/5/1
f 170/5/1 164/5/1 166/5/1
f 171/5/1 164/5/1 170/5/1
f 172/5/1 168/5/1 167/5/1
f 173/5/1 168/5/1 172/5/1
f 176/5/1 175/5/1 174/5/1
f 177/5/1 175/5/1 176/5/1
f 182/5/1 179/5/1 178/5/1
f 183/5/1 179/5/1 182/5/1
f 185/5/1 181/5/1 180/5/1
f 186/5/1 181/5/1 185/5/1
f 189/5/1 184/5/1 183/5/1
f 190/5/1 184/5/1 189/5/1
f 193/5/1 188/5/1 187/5/1
f 194/5/1 188/5/1 193/5/1
f 195/5/1 191/5/1 190/5/1
f 196/5/1 191/5/1 195/5/1
f 199/5/1 193/5/1 192/5/1
f 200/5/1 193/5/1 199/5/1
f 201/1/1 198/1/1 197/1/1
f 202/1/1 198/1/1 201/1/1
f 205/5/1 204/5/1 203/5/1
f 206/5/1 204/5/1 205/5/1
f 211/5/1 210/5/1 209/5/1
f 212/5/1 210/5/1 211/5/1
f 214/5/1 208/5/1 207/5/1
f 215/5/1 208/5/1 214/5/1
f 219/5/1 214/5/1 213/5/1
f 220/5/1 214/5/1 219/5/1
f 221/6/1 217/6/1 216/6/1
f 222/1/1 218/1/1 217/1/1
f 222/6/1 217/6/1 221/6/1
f 223/1/1 218/1/1 222/1/1
f 224/6/1 222/6/1 221/6/1
f 225/6/1 222/6/1 224/6/1
f 228/5/1 227/5/1 226/5/1
f 229/5/1 227/5/1 228/5/1
f 232/5/1 231/5/1 230/5/1
f 233/5/1 231/5/1 232/5/1
f 238/4/1 235/4/1 234/4/1
f 239/4/1 235/4/1 238/4/1
f 240/5/1 237/5/1 236/5/1
f 241/5/1 237/5/1 240/5/1
f 244/6/1 243/6/1 242/6/1
f 245/6/1 243/6/1 244/6/1
f 248/5/1 247/5/1 246/5/1
f 249/5/1 247/5/1 248/5/1
f 252/1/1 251/1/1 250/1/1
f 253/1/1 251/1/1 252/1/1
f 256/4/1 255/4/1 254/4/1
f 257/4/1 255/4/1 256/4/1
f 260/5/1 259/5/1 258/5/1
f 261/5/1 259/5/1 260/5/1
f 264/1/1 263/1/1 262/1/1
f 265/1/1 263/1/1 264/1/1
f 269/5/1 267/5/1 266/5/1
f 270/5/1 267/5/1 269/5/1
f 271/5/1 269/5/1 268/5/1
f 272/5/1 269/5/1 271/5/1
f 277/1/1 274/1/1 273/1/1
f 278/1/1 274/1/1 277/1/1
f 279/1/1 276/1/1 275/1/1
f 280/1/1 276/1/1 279/1/1
f 283/5/1 282/5/1 281/5/1
f 284/5/1 282/5/1 283/5/1
f 287/6/1 286/6/1 285/6/1
f 288/6/1 286/6/1 287/6/1
f 293/5/1 290/5/1 289/5/1
f 294/5/1 290/5/1 293/5/1
f 295/5/1 292/5/1 291/5/1
f 296/5/1 292/5/1 295/5/1
f 301/5/1 298/5/1 297/5/1
f 302/5/1 298/5/1 301/5/1
f 303/5/1 301/5/1 297/5/1
f 304/5/1 301/5/1 303/5/1
f 305/5/1 300/5/1 299/5/1
f 306/5/1 300/5/1 305/5/1
f 311/5/1 308/5/1 307/5/1
f 312/5/1 308/5/1 311/5/1
f 314/5/1 310/5/1 309/5/1
f 315/5/1 310/5/1 314/5/1
f 316/5/1 314/5/1 313/5/1
f 317/5/1 314/5/1 316/5/1
f 318/5/1 316/5/1 313/5/1
f 319/5/1 316/5/1 318/5/1
f 322/5/1 321/5/1 320/5/1
f 323/5/1 321/5/1 322/5/1
f 328/5/1 326/5/1 325/5/1
f 329/5/1 326/5/1 328/5/1
f 330/5/1 324/5/1 323/5/1
f 331/5/1 324/5/1 330/5/1
f 332/5/1 328/5/1 327/5/1
f 333/5/1 328/5/1 332/5/1
f 336/5/1 335/5/1 334/5/1
f 337/5/1 335/5/1 336/5/1
f 340/5/1 339/5/1 338/5/1
f 341/5/1 339/5/1 340/5/1
f 344/5/1 343/5/1 342/5/1
f 345/5/1 343/5/1 344/5/1
f 348/5/1 347/5/1 346/5/1
f 349/5/1 347/5/1 348/5/1
f 352/5/1 351/5/1 350/5/1
f 353/5/1 351/5/1 352/5/1
f 356/5/1 355/5/1 354/5/1
f 357/5/1 355/5/1 356/5/1
f 358/5/2 359/5/2 360/5/2
f 360/5/2 359/5/2 361/5/2
f 362/5/2 363/5/2 364/5/2
f 364/5/2 363/5/2 365/5/2
f 366/5/2 367/5/2 368/5/2
f 368/5/2 367/5/2 369/5/2
f 370/5/2 371/5/2 372/5/2
f 372/5/2 371/5/2 373/5/2
f 374/5/2 375/5/2 377/5/2
f 377/5/2 375/5/2 378/5/2
f 376/5/2 377/5/2 381/5/2
f 381/5/2 377/5/2 382/5/2
f 379/5/2 380/5/2 383/5/2
f 383/5/2 380/5/2 384/5/2
f 385/5/2 386/5/2 389/5/2
f 389/5/2 386/5/2 390/5/2
f 387/5/2 388/5/2 392/5/2
f 392/5/2 388/5/2 393/5/2
f 391/5/2 392/5/2 394/5/2
f 394/5/2 392/5/2 395/5/2
f 396/5/2 397/5/2 399/5/2
f 399/5/2 397/5/2 400/5/2
f 398/5/2 399/5/2 401/5/2
f 401/5/2 399/5/2 402/5/2
f 403/5/2 404/5/2 406/5/2
f 406/5/2 404/5/2 407/5/2
f 405/5/2 406/5/2 409/5/2
f 409/5/2 406/5/2 410/5/2
f 408/5/2 409/5/2 411/5/2
f 411/5/2 409/5/2 412/5/2
f 413/4/2 414/4/2 415/4/2
f 415/4/2 414/4/2 416/4/2
f 417/5/2 418/5/2 419/5/2
f 419/5/2 418/5/2 420/5/2
f 421/5/2 422/5/2 423/5/2
f 423/5/2 422/5/2 424/5/2
f 425/5/2 426/5/2 427/5/2
f 427/5/2 426/5/2 428/5/2
f 429/5/2 430/5/2 431/5/2
f 431/5/2 430/5/2 432/5/2
f 433/5/2 434/5/2 435/5/2
f 435/5/2 434/5/2 436/5/2
f 437/5/2 438/5/2 439/5/2
f 439/5/2 438/5/2 440/5/2
f 441/5/2 442/5/2 443/5/2
f 443/5/2 442/5/2 444/5/2
f 445/5/2 446/5/2 447/5/2
f 447/5/2 446/5/2 448/5/2
f 449/1/2 450/1/2 451/1/2
f 451/1/2 450/1/2 452/1/2
f 453/5/2 454/5/2 455/5/2
f 455/5/2 454/5/2 456/5/2
f 457/1/2 458/1/2 459/1/2
f 459/1/2 458/1/2 460/1/2
f 461/5/2 462/5/2 463/5/2
f 463/5/2 462/5/2 464/5/2
f 465/5/2 466/5/2 467/5/2
f 467/5/2 466/5/2 468/5/2
f 469/5/2 470/5/2 471/5/2
f 471/5/2 470/5/2 472/5/2
f 473/1/2 474/1/2 477/1/2
f 477/1/2 474/1/2 478/1/2
f 475/1/2 476/1/2 479/1/2
f 479/1/2 476/1/2 480/1/2
f 481/1/2 482/1/2 485/1/2
f 485/1/2 482/1/2 486/1/2
f 483/1/2 484/1/2 487/1/2
f 487/1/2 484/1/2 488/1/2
f 486/6/2 487/6/2 489/6/2
f 489/6/2 487/6/2 490/6/2
f 491/6/2 492/6/2 493/6/2
f 493/6/2 492/6/2 494/6/2
f 495/5/2 496/5/2 497/5/2
f 497/5/2 496/5/2 498/5/2
f 499/1/2 500/1/2 501/1/2
f 501/1/2 500/1/2 502/1/2
f 503/4/2 504/4/2 505/4/2
f 505/4/2 504/4/2 506/4/2
f 507/5/2 508/5/2 509/5/2
f 509/5/2 508/5/2 510/5/2
f 511/5/2 512/5/2 513/5/2
f 513/5/2 512/5/2 514/5/2
f 511/5/2 513/5/2 515/5/2
f 515/5/2 513/5/2 516/5/2
f 517/5/2 518/5/2 521/5/2
f 521/5/2 518/5/2 522/5/2
f 519/5/2 520/5/2 524/5/2
f 524/5/2 520/5/2 525/5/2
f 526/5/2 527/5/2 528/5/2
f 528/5/2 527/5/2 529/5/2
f 530/5/2 531/5/2 532/5/2
f 532/5/2 531/5/2 533/5/2
f 523/5/2 524/5/2 534/5/2
f 534/5/2 524/5/2 535/5/2
f 536/5/2 537/5/2 540/5/2
f 540/5/2 537/5/2 541/5/2
f 538/5/2 539/5/2 543/5/2
f 543/5/2 539/5/2 544/5/2
f 541/5/2 542/5/2 545/5/2
f 540/5/2 541/5/2 545/5/2
f 545/5/2 542/5/2 546/5/2
f 546/5/2 547/5/2 548/5/2
f 548/5/2 547/5/2 549/5/2
f 550/5/2 551/5/2 552/5/2
f 552/5/2 551/5/2 553/5/2
f 553/5/2 554/5/2 555/5/2
f 555/5/2 554/5/2 556/5/2
f 557/5/2 558/5/2 565/5/2
f 565/5/2 558/5/2 566/5/2
f 563/5/2 564/5/2 569/5/2
f 562/5/2 563/5/2 569/5/2
f 569/5/2 564/5/2 570/5/2
f 570/5/2 564/5/2 571/5/2
f 571/5/2 564/5/2 572/5/2
f 567/5/2 568/5/2 573/5/2
f 573/5/2 568/5/2 574/5/2
f 561/4/2 562/4/2 576/4/2
f 562/5/2 569/5/2 576/5/2
f 576/5/2 569/5/2 577/5/2
f 574/5/2 575/5/2 578/5/2
f 578/5/2 575/5/2 579/5/2
f 559/5/2 560/5/2 581/5/2
f 560/5/2 561/5/2 581/5/2
f 561/4/2 576/4/2 582/4/2
f 576/4/2 577/4/2 582/4/2
f 581/5/2 561/5/2 582/5/2
f 582/4/2 577/4/2 583/4/2
f 580/5/2 581/5/2 584/5/2
f 581/5/2 582/5/2 584/5/2
f 582/5/2 583/5/2 584/5/2
f 584/5/2 583/5/2 585/5/2
f 585/5/2 583/5/2 586/5/2
f 586/5/2 583/5/2 587/5/2
f 587/5/2 583/5/2 588/5/2
f 588/5/2 583/5/2 589/5/2
f 577/5/2 569/5/2 590/5/2
f 569/4/2 570/4/2 591/4/2
f 590/5/2 569/5/2 591/5/2
f 591/4/2 570/4/2 592/4/2
f 590/4/2 591/4/2 592/4/2
f 570/5/2 571/5/2 593/5/2
f 592/4/2 570/4/2 593/4/2
f 589/5/2 583/5/2 594/5/2
f 583/4/2 577/4/2 594/4/2
f 577/5/2 590/5/2 595/5/2
f 594/4/2 577/4/2 595/4/2
f 589/5/2 594/5/2 596/5/2
f 594/5/2 595/5/2 596/5/2
f 590/4/2 592/4/2 597/4/2
f 596/5/2 595/5/2 597/5/2
f 595/5/2 590/5/2 597/5/2
f 592/5/2 593/5/2 598/5/2
f 597/4/2 592/4/2 598/4/2
f 593/5/2 571/5/2 599/5/2
f 598/5/2 593/5/2 599/5/2
f 600/5/2 601/5/2 605/5/2
f 601/4/2 602/4/2 606/4/2
f 605/5/2 601/5/2 606/5/2
f 602/5/2 603/5/2 607/5/2
f 606/4/2 602/4/2 607/4/2
f 607/5/2 603/5/2 608/5/2
f 604/5/2 605/5/2 612/5/2
f 609/5/2 610/5/2 613/5/2
f 613/5/2 610/5/2 614/5/2
f 611/5/2 612/5/2 615/5/2
f 615/5/2 612/5/2 616/5/2
f 612/5/2 605/5/2 617/5/2
f 616/5/2 612/5/2 617/5/2
f 618/5/2 619/5/2 620/5/2
f 620/5/2 619/5/2 621/5/2
f 622/5/2 623/5/2 624/5/2
f 624/5/2 623/5/2 625/5/2
f 622/5/2 624/5/2 629/5/2
f 629/5/2 624/5/2 630/5/2
f 626/5/2 627/5/2 631/5/2
f 631/5/2 627/5/2 632/5/2
f 628/5/2 629/5/2 633/5/2
f 633/5/2 629/5/2 634/5/2
f 635/5/2 636/5/2 637/5/2
f 637/5/2 636/5/2 638/5/2
f 639/5/2 640/5/2 641/5/2
f 641/5/2 640/5/2 642/5/2
f 643/5/2 644/5/2 645/5/2
f 645/5/2 644/5/2 646/5/2
f 647/5/2 648/5/2 649/5/2
f 649/5/2 648/5/2 650/5/2
f 653/5/3 652/5/3 651/5/3
f 654/5/3 652/5/3 653/5/3
f 657/5/3 656/5/3 655/5/3
f 658/5/3 656/5/3 657/5/3
f 661/5/3 660/5/3 659/5/3
f 662/5/3 660/5/3 661/5/3
f 665/5/3 664/5/3 663/5/3
f 666/5/3 664/5/3 665/5/3
f 669/5/3 668/5/3 667/5/3
f 670/5/3 668/5/3 669/5/3
f 673/5/3 672/5/3 671/5/3
f 674/5/3 672/5/3 673/5/3
f 677/5/3 676/5/3 675/5/3
f 678/5/3 676/5/3 677/5/3
f 680/5/3 679/5/3 678/5/3
f 681/5/3 679/5/3 680/5/3
f 682/5/3 680/5/3 678/5/3
f 683/5/3 680/5/3 682/5/3
f 686/5/3 685/5/3 684/5/3
f 687/5/3 685/5/3 686/5/3
f 689/5/3 688/5/3 687/5/3
f 692/5/3 689/5/3 687/5/3
f 692/5/3 690/5/3 689/5/3
f 693/5/3 690/5/3 692/5/3
f 695/5/3 692/5/3 691/5/3
f 695/5/3 694/5/3 693/5/3
f 695/5/3 693/5/3 692/5/3
f 696/5/3 694/5/3 695/5/3
f 697/5/3 695/5/3 691/5/3
f 698/5/3 695/5/3 697/5/3
f 699/4/3 698/4/3 697/4/3
f 699/5/3 695/5/3 698/5/3
f 700/5/3 695/5/3 699/5/3
f 701/4/3 699/4/3 697/4/3
f 702/4/3 699/4/3 701/4/3
f 704/5/3 702/5/3 701/5/3
f 704/5/3 703/5/3 702/5/3
f 705/5/3 703/5/3 704/5/3
f 706/5/3 703/5/3 705/5/3
f 707/5/3 703/5/3 706/5/3
f 708/5/3 703/5/3 707/5/3
f 709/5/3 703/5/3 708/5/3
f 710/5/3 708/5/3 707/5/3
f 711/5/3 708/5/3 710/5/3
f 714/5/3 713/5/3 712/5/3
f 715/5/3 713/5/3 714/5/3
f 718/5/3 717/5/3 716/5/3
f 719/5/3 717/5/3 718/5/3
f 722/5/3 720/5/3 719/5/3
f 723/5/3 720/5/3 722/5/3
f 725/5/3 722/5/3 721/5/3
f 725/5/3 724/5/3 723/5/3
f 725/5/3 723/5/3 722/5/3
f 726/5/3 724/5/3 725/5/3
f 728/5/3 725/5/3 721/5/3
f 729/4/3 727/4/3 726/4/3
f 729/5/3 725/5/3 728/5/3
f 729/4/3 726/4/3 725/4/3
f 730/4/3 727/4/3 729/4/3
f 731/4/3 727/4/3 730/4/3
f 732/4/3 729/4/3 728/4/3
f 732/4/3 730/4/3 729/4/3
f 733/5/3 731/5/3 730/5/3
f 733/4/3 730/4/3 732/4/3
f 735/5/3 733/5/3 732/5/3
f 736/5/3 735/5/3 734/5/3
f 737/5/3 733/5/3 735/5/3
f 737/5/3 735/5/3 736/5/3
f 738/4/3 737/4/3 736/4/3
f 739/4/3 737/4/3 738/4/3
f 740/5/3 733/5/3 737/5/3
f 740/4/3 737/4/3 739/4/3
f 741/5/3 733/5/3 740/5/3
f 742/5/3 739/5/3 738/5/3
f 742/4/3 740/4/3 739/4/3
f 742/4/3 741/4/3 740/4/3
f 743/5/3 733/5/3 741/5/3
f 743/4/3 741/4/3 742/4/3
f 744/5/3 731/5/3 733/5/3
f 744/5/3 733/5/3 743/5/3
f 745/5/3 743/5/3 742/5/3
f 745/5/3 742/5/3 738/5/3
f 746/5/3 743/5/3 745/5/3
f 747/4/3 744/4/3 743/4/3
f 747/5/3 743/5/3 746/5/3
f 748/5/3 731/5/3 744/5/3
f 748/4/3 744/4/3 747/4/3
f 749/5/3 747/5/3 746/5/3
f 749/5/3 748/5/3 747/5/3
f 750/5/3 731/5/3 748/5/3
f 750/5/3 748/5/3 749/5/3
f 751/5/3 749/5/3 746/5/3
f 752/5/3 749/5/3 751/5/3
f 753/5/3 751/5/3 746/5/3
f 754/5/3 751/5/3 753/5/3
f 757/5/3 756/5/3 755/5/3
f 758/5/3 756/5/3 757/5/3
f 760/5/3 759/5/3 758/5/3
f 761/5/3 759/5/3 760/5/3
f 764/5/3 763/5/3 762/5/3
f 765/5/3 763/5/3 764/5/3
f 767/5/3 766/5/3 765/5/3
f 768/5/3 766/5/3 767/5/3
f 770/5/3 769/5/3 768/5/3
f 771/5/3 769/5/3 770/5/3
f 772/5/3 769/5/3 771/5/3
f 773/5/3 769/5/3 772/5/3
f 776/5/3 775/5/3 774/5/3
f 777/5/3 775/5/3 776/5/3
f 780/5/3 779/5/3 778/5/3
f 781/5/3 779/5/3 780/5/3
f 785/5/3 783/5/3 782/5/3
f 786/5/3 783/5/3 785/5/3
f 787/5/3 785/5/3 784/5/3
f 788/5/3 785/5/3 787/5/3
f 791/5/3 790/5/3 789/5/3
f 792/5/3 790/5/3 791/5/3
f 795/5/3 794/5/3 793/5/3
f 796/5/3 794/5/3 795/5/3
f 799/1/3 798/1/3 797/1/3
f 800/1/3 798/1/3 799/1/3
f 803/5/3 802/5/3 801/5/3
f 804/5/3 802/5/3 803/5/3
f 807/1/3 806/1/3 805/1/3
f 808/1/3 806/1/3 807/1/3
f 809/1/3 806/1/3 808/1/3
f 812/1/3 811/1/3 810/1/3
f 813/1/3 811/1/3 812/1/3
f 817/4/3 815/4/3 814/4/3
f 819/5/3 817/5/3 816/5/3
f 820/4/3 815/4/3 817/4/3
f 820/5/3 817/5/3 819/5/3
f 821/4/3 815/4/3 820/4/3
f 822/4/3 815/4/3 821/4/3
f 824/5/3 819/5/3 818/5/3
f 825/4/3 820/4/3 819/4/3
f 825/5/3 819/5/3 824/5/3
f 826/5/3 821/5/3 820/5/3
f 826/4/3 820/4/3 825/4/3
f 827/5/3 821/5/3 826/5/3
f 829/5/3 824/5/3 823/5/3
f 830/4/3 825/4/3 824/4/3
f 830/5/3 824/5/3 829/5/3
f 831/5/3 826/5/3 825/5/3
f 831/4/3 825/4/3 830/4/3
f 832/5/3 826/5/3 831/5/3
f 834/5/3 829/5/3 828/5/3
f 835/4/3 830/4/3 829/4/3
f 835/5/3 829/5/3 834/5/3
f 836/5/3 831/5/3 830/5/3
f 836/4/3 830/4/3 835/4/3
f 837/5/3 831/5/3 836/5/3
f 841/5/3 834/5/3 833/5/3
f 842/4/3 835/4/3 834/4/3
f 842/5/3 834/5/3 841/5/3
f 843/5/3 836/5/3 835/5/3
f 843/4/3 835/4/3 842/4/3
f 844/5/3 836/5/3 843/5/3
f 846/6/3 839/6/3 838/6/3
f 847/6/3 839/6/3 846/6/3
f 850/5/3 841/5/3 840/5/3
f 851/4/3 842/4/3 841/4/3
f 851/5/3 841/5/3 850/5/3
f 852/5/3 843/5/3 842/5/3
f 852/4/3 842/4/3 851/4/3
f 853/5/3 843/5/3 852/5/3
f 854/6/3 848/6/3 847/6/3
f 854/6/3 846/6/3 845/6/3
f 854/6/3 847/6/3 846/6/3
f 855/6/3 848/6/3 854/6/3
f 856/6/3 848/6/3 855/6/3
f 857/5/3 850/5/3 849/5/3
f 858/4/3 851/4/3 850/4/3
f 858/5/3 850/5/3 857/5/3
f 859/5/3 852/5/3 851/5/3
f 859/4/3 851/4/3 858/4/3
f 860/5/3 852/5/3 859/5/3
f 861/6/3 856/6/3 855/6/3
f 861/4/3 857/4/3 856/4/3
f 861/4/3 858/4/3 857/4/3
f 862/4/3 858/4/3 861/4/3
f 863/5/3 859/5/3 858/5/3
f 863/4/3 858/4/3 862/4/3
f 864/5/3 859/5/3 863/5/3
f 865/6/3 862/6/3 861/6/3
f 865/4/3 863/4/3 862/4/3
f 866/4/3 863/4/3 865/4/3
f 867/6/3 866/6/3 865/6/3
f 870/6/3 861/6/3 855/6/3
f 870/6/3 868/6/3 867/6/3
f 870/6/3 867/6/3 865/6/3
f 870/6/3 865/6/3 861/6/3
f 871/6/3 868/6/3 870/6/3
f 872/6/3 868/6/3 871/6/3
f 873/6/3 868/6/3 872/6/3
f 874/1/3 870/1/3 869/1/3
f 875/1/3 870/1/3 874/1/3
f 876/4/3 872/4/3 871/4/3
f 877/4/3 872/4/3 876/4/3
f 880/5/3 879/5/3 878/5/3
f 881/5/3 879/5/3 880/5/3
f 884/1/3 883/1/3 882/1/3
f 885/1/3 883/1/3 884/1/3
f 888/5/3 887/5/3 886/5/3
f 889/5/3 887/5/3 888/5/3
f 892/5/3 891/5/3 890/5/3
f 893/5/3 891/5/3 892/5/3
f 895/5/3 894/5/3 893/5/3
f 896/5/3 894/5/3 895/5/3
f 899/5/3 898/5/3 897/5/3
f 900/5/3 898/5/3 899/5/3
f 902/5/3 901/5/3 900/5/3
f 903/5/3 901/5/3 902/5/3
f 906/5/3 905/5/3 904/5/3
f 907/5/3 905/5/3 906/5/3
f 910/5/3 909/5/3 908/5/3
f 911/5/3 909/5/3 910/5/3
f 914/5/3 913/5/3 912/5/3
f 915/5/3 913/5/3 914/5/3
f 918/5/3 917/5/3 916/5/3
f 919/5/3 917/5/3 918/5/3
f 922/5/3 921/5/3 920/5/3
f 923/5/3 921/5/3 922/5/3
f 926/5/3 925/5/3 924/5/3
f 928/5/3 926/5/3 924/5/3
f 928/5/3 927/5/3 926/5/3
f 929/5/3 927/5/3 928/5/3
f 932/5/3 931/5/3 930/5/3
f 933/5/3 931/5/3 932/5/3
f 936/5/3 935/5/3 934/5/3
f 938/5/3 936/5/3 934/5/3
f 938/5/3 937/5/3 936/5/3
f 939/5/3 937/5/3 938/5/3
f 940/5/3 937/5/3 939/5/3
f 941/5/3 937/5/3 940/5/3
f 944/5/3 943/5/3 942/5/3
f 945/5/3 943/5/3 944/5/3
f 949/5/3 947/5/3 946/5/3
f 950/5/3 947/5/3 949/5/3
f 951/5/3 949/5/3 948/5/3
f 952/5/3 949/5/3 951/5/3
f 955/5/3 954/5/3 953/5/3
f 957/5/3 955/5/3 953/5/3
f 957/5/3 956/5/3 955/5/3
f 958/5/3 956/5/3 957/5/3
f 959/5/3 956/5/3 958/5/3
f 963/5/3 961/5/3 960/5/3
f 964/5/3 961/5/3 963/5/3
f 965/5/3 963/5/3 962/5/3
f 966/5/3 963/5/3 965/5/3
f 969/5/3 968/5/3 967/5/3
f 970/5/3 968/5/3 969/5/3
f 973/5/3 972/5/3 971/5/3
f 974/5/3 972/5/3 973/5/3
f 977/5/3 976/5/3 975/5/3
f 978/5/3 976/5/3 977/5/3
f 979/5/4 980/5/4 981/5/4
f 981/5/4 980/5/4 982/5/4
f 983/5/4 984/5/4 985/5/4
f 985/5/4 984/5/4 986/5/4
f 987/5/4 988/5/4 990/5/4
f 990/5/4 988/5/4 991/5/4
f 989/5/4 990/5/4 992/5/4
f 992/5/4 990/5/4 993/5/4
f 989/5/4 992/5/4 994/5/4
f 994/5/4 992/5/4 995/5/4
f 996/5/4 997/5/4 998/5/4
f 996/5/4 998/5/4 1000/5/4
f 998/5/4 999/5/4 1000/5/4
f 1000/5/4 999/5/4 1001/5/4
f 1001/5/4 999/5/4 1002/5/4
f 1002/5/4 999/5/4 1003/5/4
f 1004/5/4 1005/5/4 1006/5/4
f 1006/5/4 1005/5/4 1007/5/4
f 1008/5/4 1009/5/4 1010/5/4
f 1008/5/4 1010/5/4 1012/5/4
f 1010/5/4 1011/5/4 1012/5/4
f 1012/5/4 1011/5/4 1013/5/4
f 1013/5/4 1011/5/4 1014/5/4
f 1014/5/4 1015/5/4 1016/5/4
f 1013/5/4 1014/5/4 1016/5/4
f 1016/5/4 1015/5/4 1017/5/4
f 1018/5/4 1019/5/4 1021/5/4
f 1021/5/4 1019/5/4 1022/5/4
f 1020/5/4 1021/5/4 1023/5/4
f 1023/5/4 1021/5/4 1024/5/4
f 1025/5/4 1026/5/4 1028/5/4
f 1028/5/4 1026/5/4 1029/5/4
f 1027/5/4 1028/5/4 1030/5/4
f 1030/5/4 1028/5/4 1031/5/4
f 1032/5/4 1033/5/4 1034/5/4
f 1034/5/4 1033/5/4 1035/5/4
f 1036/5/4 1037/5/4 1038/5/4
f 1038/5/4 1037/5/4 1039/5/4
f 1040/1/4 1041/1/4 1042/1/4
f 1042/1/4 1041/1/4 1043/1/4
f 1044/5/4 1045/5/4 1046/5/4
f 1046/5/4 1045/5/4 1047/5/4
f 1048/1/4 1049/1/4 1050/1/4
f 1050/1/4 1049/1/4 1051/1/4
f 1052/4/4 1053/4/4 1055/4/4
f 1054/5/4 1055/5/4 1057/5/4
f 1055/4/4 1053/4/4 1058/4/4
f 1057/5/4 1055/5/4 1058/5/4
f 1058/4/4 1053/4/4 1059/4/4
f 1059/4/4 1053/4/4 1060/4/4
f 1056/5/4 1057/5/4 1062/5/4
f 1057/4/4 1058/4/4 1063/4/4
f 1062/5/4 1057/5/4 1063/5/4
f 1058/5/4 1059/5/4 1064/5/4
f 1063/4/4 1058/4/4 1064/4/4
f 1064/5/4 1059/5/4 1065/5/4
f 1061/5/4 1062/5/4 1067/5/4
f 1062/4/4 1063/4/4 1068/4/4
f 1067/5/4 1062/5/4 1068/5/4
f 1063/5/4 1064/5/4 1069/5/4
f 1068/4/4 1063/4/4 1069/4/4
f 1069/5/4 1064/5/4 1070/5/4
f 1066/5/4 1067/5/4 1072/5/4
f 1067/4/4 1068/4/4 1073/4/4
f 1072/5/4 1067/5/4 1073/5/4
f 1068/5/4 1069/5/4 1074/5/4
f 1073/4/4 1068/4/4 1074/4/4
f 1074/5/4 1069/5/4 1075/5/4
f 1071/5/4 1072/5/4 1079/5/4
f 1072/4/4 1073/4/4 1080/4/4
f 1079/5/4 1072/5/4 1080/5/4
f 1073/5/4 1074/5/4 1081/5/4
f 1080/4/4 1073/4/4 1081/4/4
f 1081/5/4 1074/5/4 1082/5/4
f 1076/6/4 1077/6/4 1083/6/4
f 1078/5/4 1079/5/4 1086/5/4
f 1079/4/4 1080/4/4 1087/4/4
f 1086/5/4 1079/5/4 1087/5/4
f 1080/5/4 1081/5/4 1088/5/4
f 1087/4/4 1080/4/4 1088/4/4
f 1088/5/4 1081/5/4 1089/5/4
f 1083/6/4 1084/6/4 1091/6/4
f 1076/6/4 1083/6/4 1091/6/4
f 1091/6/4 1084/6/4 1092/6/4
f 1085/5/4 1086/5/4 1093/5/4
f 1086/4/4 1087/4/4 1094/4/4
f 1093/5/4 1086/5/4 1094/5/4
f 1087/5/4 1088/5/4 1095/5/4
f 1094/4/4 1087/4/4 1095/4/4
f 1095/5/4 1088/5/4 1096/5/4
f 1091/6/4 1092/6/4 1097/6/4
f 1090/6/4 1091/6/4 1097/6/4
f 1097/6/4 1092/6/4 1098/6/4
f 1092/4/4 1093/4/4 1099/4/4
f 1098/6/4 1092/6/4 1099/6/4
f 1093/4/4 1094/4/4 1099/4/4
f 1099/4/4 1094/4/4 1100/4/4
f 1094/5/4 1095/5/4 1101/5/4
f 1100/4/4 1094/4/4 1101/4/4
f 1101/5/4 1095/5/4 1102/5/4
f 1099/6/4 1100/6/4 1103/6/4
f 1100/4/4 1101/4/4 1103/4/4
f 1098/6/4 1099/6/4 1103/6/4
f 1103/4/4 1101/4/4 1104/4/4
f 1103/6/4 1104/6/4 1105/6/4
f 1098/6/4 1103/6/4 1108/6/4
f 1105/6/4 1106/6/4 1108/6/4
f 1103/6/4 1105/6/4 1108/6/4
f 1108/6/4 1106/6/4 1109/6/4
f 1109/6/4 1106/6/4 1110/6/4
f 1110/6/4 1106/6/4 1111/6/4
f 1107/1/4 1108/1/4 1112/1/4
f 1112/1/4 1108/1/4 1113/1/4
f 1109/4/4 1110/4/4 1114/4/4
f 1114/4/4 1110/4/4 1115/4/4
f 1116/1/4 1117/1/4 1118/1/4
f 1118/1/4 1117/1/4 1119/1/4
f 1120/1/4 1121/1/4 1122/1/4
f 1122/1/4 1121/1/4 1123/1/4
f 1124/5/4 1125/5/4 1126/5/4
f 1126/5/4 1125/5/4 1127/5/4
f 1128/5/4 1129/5/4 1130/5/4
f 1130/5/4 1129/5/4 1131/5/4
f 1131/5/4 1132/5/4 1133/5/4
f 1133/5/4 1132/5/4 1134/5/4
f 1135/1/4 1136/1/4 1137/1/4
f 1137/1/4 1136/1/4 1138/1/4
f 1139/5/4 1140/5/4 1141/5/4
f 1141/5/4 1140/5/4 1142/5/4
f 1142/5/4 1143/5/4 1144/5/4
f 1144/5/4 1143/5/4 1145/5/4
f 1145/5/4 1146/5/4 1147/5/4
f 1147/5/4 1146/5/4 1148/5/4
f 1149/5/4 1150/5/4 1151/5/4
f 1151/5/4 1150/5/4 1152/5/4
f 1153/5/4 1154/5/4 1155/5/4
f 1155/5/4 1154/5/4 1156/5/4
f 1156/5/4 1154/5/4 1157/5/4
f 1157/5/4 1158/5/4 1159/5/4
f 1156/5/4 1157/5/4 1159/5/4
f 1159/5/4 1158/5/4 1160/5/4
f 1160/5/4 1161/5/4 1162/5/4
f 1162/5/4 1161/5/4 1163/5/4
f 1164/5/4 1165/5/4 1167/5/4
f 1167/5/4 1165/5/4 1168/5/4
f 1166/5/4 1167/5/4 1169/5/4
f 1169/5/4 1167/5/4 1170/5/4
f 1171/5/4 1172/5/4 1174/5/4
f 1174/5/4 1172/5/4 1175/5/4
f 1173/5/4 1174/5/4 1175/5/4
f 1175/5/4 1176/5/4 1177/5/4
f 1173/5/4 1175/5/4 1179/5/4
f 1177/5/4 1178/5/4 1179/5/4
f 1175/5/4 1177/5/4 1179/5/4
f 1179/5/4 1178/5/4 1180/5/4
f 1180/5/4 1178/5/4 1181/5/4
f 1181/5/4 1178/5/4 1182/5/4
f 1180/4/4 1181/4/4 1184/4/4
f 1184/4/4 1181/4/4 1185/4/4
f 1182/5/4 1183/5/4 1186/5/4
f 1185/4/4 1181/4/4 1186/4/4
f 1181/5/4 1182/5/4 1186/5/4
f 1186/5/4 1183/5/4 1187/5/4
f 1184/5/4 1185/5/4 1188/5/4
f 1185/4/4 1186/4/4 1188/4/4
f 1186/4/4 1187/4/4 1188/4/4
f 1188/4/4 1187/4/4 1189/4/4
f 1187/5/4 1183/5/4 1190/5/4
f 1189/4/4 1187/4/4 1190/4/4
f 1190/5/4 1183/5/4 1191/5/4
f 1188/5/4 1189/5/4 1192/5/4
f 1189/4/4 1190/4/4 1192/4/4
f 1190/4/4 1191/4/4 1192/4/4
f 1191/5/4 1183/5/4 1193/5/4
f 1192/4/4 1191/4/4 1193/4/4
f 1188/5/4 1192/5/4 1194/5/4
f 1184/5/4 1188/5/4 1194/5/4
f 1192/5/4 1193/5/4 1194/5/4
f 1194/5/4 1193/5/4 1195/5/4
f 1195/5/4 1193/5/4 1196/5/4
f 1196/5/4 1193/5/4 1197/5/4
f 1193/5/4 1183/5/4 1198/5/4
f 1197/5/4 1193/5/4 1198/5/4
f 1197/4/4 1198/4/4 1200/4/4
f 1200/4/4 1198/4/4 1201/4/4
f 1199/5/4 1200/5/4 1202/5/4
f 1200/5/4 1201/5/4 1202/5/4
f 1202/5/4 1201/5/4 1203/5/4
f 1204/5/4 1205/5/4 1206/5/4
f 1206/5/4 1205/5/4 1207/5/4
f 1208/5/4 1209/5/4 1211/5/4
f 1211/5/4 1209/5/4 1212/5/4
f 1210/5/4 1211/5/4 1214/5/4
f 1214/5/4 1211/5/4 1215/5/4
f 1213/5/4 1214/5/4 1215/5/4
f 1215/5/4 1211/5/4 1216/5/4
f 1213/5/4 1215/5/4 1217/5/4
f 1213/5/4 1217/5/4 1219/5/4
f 1217/5/4 1218/5/4 1219/5/4
f 1219/5/4 1218/5/4 1220/5/4
f 1220/5/4 1218/5/4 1221/5/4
f 1221/5/4 1218/5/4 1222/5/4
f 1223/5/4 1224/5/4 1225/5/4
f 1225/5/4 1224/5/4 1226/5/4
f 1227/5/4 1228/5/4 1229/5/4
f 1229/5/4 1228/5/4 1230/5/4
f 1231/5/4 1232/5/4 1234/5/4
f 1234/5/4 1232/5/4 1235/5/4
f 1233/5/4 1234/5/4 1236/5/4
f 1236/5/4 1234/5/4 1237/5/4
f 1238/5/4 1239/5/4 1240/5/4
f 1240/5/4 1239/5/4 1241/5/4
f 1241/5/4 1242/5/4 1243/5/4
f 1241/5/4 1243/5/4 1245/5/4
f 1243/5/4 1244/5/4 1245/5/4
f 1245/5/4 1244/5/4 1246/5/4
f 1247/5/4 1248/5/4 1249/5/4
f 1249/5/4 1248/5/4 1250/5/4
f 1251/5/4 1252/5/4 1254/5/4
f 1254/5/4 1252/5/4 1255/5/4
f 1253/5/4 1254/5/4 1256/5/4
f 1256/5/4 1254/5/4 1257/5/4
f 1258/5/4 1259/5/4 1260/5/4
f 1258/5/4 1260/5/4 1262/5/4
f 1260/5/4 1261/5/4 1262/5/4
f 1262/5/4 1261/5/4 1263/5/4
f 1264/5/4 1265/5/4 1266/5/4
f 1264/5/4 1266/5/4 1267/5/4
f 1267/5/4 1266/5/4 1268/5/4
f 1269/5/4 1270/5/4 1272/5/4
f 1272/5/4 1270/5/4 1273/5/4
f 1271/5/4 1272/5/4 1274/5/4
f 1274/5/4 1272/5/4 1275/5/4
f 1276/5/4 1277/5/4 1278/5/4
f 1278/5/4 1277/5/4 1279/5/4
f 1280/5/4 1281/5/4 1283/5/4
f 1283/5/4 1281/5/4 1284/5/4
f 1282/5/4 1283/5/4 1286/5/4
f 1284/5/4 1285/5/4 1286/5/4
f 1283/5/4 1284/5/4 1286/5/4
f 1286/5/4 1285/5/4 1287/5/4
f 1282/5/4 1286/5/4 1288/5/4
f 1288/5/4 1286/5/4 1289/5/4
f 1282/5/4 1288/5/4 1290/5/4
f 1290/5/4 1288/5/4 1291/5/4
f 1292/5/4 1293/5/4 1294/5/4
f 1294/5/4 1293/5/4 1295/5/4
f 1296/5/4 1297/5/4 1298/5/4
f 1298/5/4 1297/5/4 1299/5/4
f 1299/5/4 1300/5/4 1301/5/4
f 1301/5/4 1300/5/4 1302/5/4
f 1302/5/4 1303/5/4 1304/5/4
f 1304/5/4 1303/5/4 1305/5/4
f 1306/5/4 1307/5/4 1308/5/4
f 1308/5/4 1307/5/4 1309/5/4
f 1309/5/4 1310/5/4 1311/5/4
f 1311/5/4 1310/5/4 1312/5/4
f 1313/5/4 1314/5/4 1315/5/4
f 1315/5/4 1314/5/4 1316/5/4
f 1317/5/4 1318/5/4 1319/5/4
f 1319/5/4 1318/5/4 1320/5/4
f 1324/5/5 1322/5/5 1321/5/5
f 1326/5/5 1324/5/5 1323/5/5
f 1328/5/5 1326/5/5 1325/5/5
f 1329/5/5 1322/5/5 1324/5/5
f 1329/5/5 1324/5/5 1326/5/5
f 1329/5/5 1326/5/5 1328/5/5
f 1330/5/5 1322/5/5 1329/5/5
f 1332/5/5 1328/5/5 1327/5/5
f 1332/5/5 1329/5/5 1328/5/5
f 1333/5/5 1329/5/5 1332/5/5
f 1334/5/5 1329/5/5 1333/5/5
f 1338/5/5 1332/5/5 1331/5/5
f 1338/5/5 1333/5/5 1332/5/5
f 1340/5/5 1336/5/5 1335/5/5
f 1341/5/5 1336/5/5 1340/5/5
f 1344/5/5 1338/5/5 1337/5/5
f 1345/5/5 1333/5/5 1338/5/5
f 1345/5/5 1338/5/5 1344/5/5
f 1346/5/5 1333/5/5 1345/5/5
f 1348/5/5 1340/5/5 1339/5/5
f 1348/5/5 1341/5/5 1340/5/5
f 1348/5/5 1342/5/5 1341/5/5
f 1349/4/5 1343/4/5 1342/4/5
f 1349/5/5 1342/5/5 1348/5/5
f 1350/5/5 1344/5/5 1343/5/5
f 1350/4/5 1343/4/5 1349/4/5
f 1350/5/5 1345/5/5 1344/5/5
f 1352/5/5 1348/5/5 1347/5/5
f 1352/5/5 1349/5/5 1348/5/5
f 1352/5/5 1350/5/5 1349/5/5
f 1353/5/5 1350/5/5 1352/5/5
f 1354/5/5 1350/5/5 1353/5/5
f 1355/5/5 1345/5/5 1350/5/5
f 1355/5/5 1350/5/5 1354/5/5
f 1356/5/5 1345/5/5 1355/5/5
f 1357/5/5 1352/5/5 1351/5/5
f 1357/5/5 1353/5/5 1352/5/5
f 1358/5/5 1353/5/5 1357/5/5
f 1359/5/5 1355/5/5 1354/5/5
f 1360/5/5 1355/5/5 1359/5/5
f 1362/5/5 1357/5/5 1351/5/5
f 1363/5/5 1357/5/5 1362/5/5
f 1364/5/5 1357/5/5 1363/5/5
f 1365/5/5 1355/5/5 1360/5/5
f 1366/5/5 1355/5/5 1365/5/5
f 1367/5/5 1362/5/5 1361/5/5
f 1367/5/5 1363/5/5 1362/5/5
f 1368/5/5 1363/5/5 1367/5/5
f 1369/5/5 1367/5/5 1361/5/5
f 1370/5/5 1367/5/5 1369/5/5
f 1371/4/5 1366/4/5 1365/4/5
f 1371/5/5 1365/5/5 1360/5/5
f 1372/4/5 1366/4/5 1371/4/5
f 1374/4/5 1360/4/5 1359/4/5
f 1375/5/5 1371/5/5 1360/5/5
f 1375/5/5 1372/5/5 1371/5/5
f 1375/4/5 1360/4/5 1374/4/5
f 1377/5/5 1374/5/5 1373/5/5
f 1377/5/5 1375/5/5 1374/5/5
f 1379/5/5 1377/5/5 1376/5/5
f 1380/5/5 1372/5/5 1375/5/5
f 1380/5/5 1375/5/5 1377/5/5
f 1380/5/5 1377/5/5 1379/5/5
f 1381/5/5 1372/5/5 1380/5/5
f 1382/5/5 1379/5/5 1378/5/5
f 1382/5/5 1380/5/5 1379/5/5
f 1383/5/5 1380/5/5 1382/5/5
f 1384/5/5 1380/5/5 1383/5/5
f 1385/5/5 1380/5/5 1384/5/5
f 1389/5/5 1382/5/5 1378/5/5
f 1390/5/5 1382/5/5 1389/5/5
f 1391/5/5 1382/5/5 1390/5/5
f 1392/5/5 1384/5/5 1383/5/5
f 1393/5/5 1384/5/5 1392/5/5
f 1394/5/5 1384/5/5 1393/5/5
f 1395/5/5 1384/5/5 1394/5/5
f 1396/5/5 1387/5/5 1386/5/5
f 1397/5/5 1389/5/5 1388/5/5
f 1397/5/5 1390/5/5 1389/5/5
f 1398/5/5 1390/5/5 1397/5/5
f 1399/5/5 1390/5/5 1398/5/5
f 1400/5/5 1394/5/5 1393/5/5
f 1401/5/5 1394/5/5 1400/5/5
f 1403/5/5 1396/5/5 1386/5/5
f 1403/5/5 1397/5/5 1396/5/5
f 1403/5/5 1398/5/5 1397/5/5
f 1404/5/5 1398/5/5 1403/5/5
f 1405/5/5 1398/5/5 1404/5/5
f 1406/5/5 1398/5/5 1405/5/5
f 1407/5/5 1405/5/5 1404/5/5
f 1408/5/5 1405/5/5 1407/5/5
f 1409/5/5 1402/5/5 1401/5/5
f 1410/5/5 1402/5/5 1409/5/5
f 1412/5/5 1411/5/5 1410/5/5
f 1413/5/5 1411/5/5 1412/5/5
f 1416/5/5 1415/5/5 1414/5/5
f 1417/5/5 1415/5/5 1416/5/5
f 1418/5/5 1415/5/5 1417/5/5
f 1422/5/5 1419/5/5 1418/5/5
f 1422/5/5 1418/5/5 1417/5/5
f 1424/5/5 1421/5/5 1420/5/5
f 1425/5/5 1421/5/5 1424/5/5
f 1426/5/5 1423/5/5 1422/5/5
f 1426/5/5 1422/5/5 1417/5/5
f 1427/5/5 1423/5/5 1426/5/5
f 1428/5/5 1423/5/5 1427/5/5
f 1430/5/5 1429/5/5 1428/5/5
f 1430/5/5 1428/5/5 1427/5/5
f 1431/5/5 1429/5/5 1430/5/5
f 1432/5/5 1429/5/5 1431/5/5
f 1434/5/5 1432/5/5 1431/5/5
f 1434/5/5 1433/5/5 1432/5/5
f 1435/5/5 1433/5/5 1434/5/5
f 1436/5/5 1433/5/5 1435/5/5
f 1437/5/5 1433/5/5 1436/5/5
f 1440/4/5 1439/4/5 1438/4/5
f 1441/4/5 1439/4/5 1440/4/5
f 1444/5/5 1443/5/5 1442/5/5
f 1445/5/5 1443/5/5 1444/5/5
f 1448/5/5 1447/5/5 1446/5/5
f 1449/5/5 1447/5/5 1448/5/5
f 1452/5/5 1451/5/5 1450/5/5
f 1453/5/5 1451/5/5 1452/5/5
f 1456/5/5 1455/5/5 1454/5/5
f 1457/5/5 1455/5/5 1456/5/5
f 1460/5/5 1459/5/5 1458/5/5
f 1461/5/5 1459/5/5 1460/5/5
f 1464/5/5 1463/5/5 1462/5/5
f 1465/5/5 1463/5/5 1464/5/5
f 1468/5/5 1467/5/5 1466/5/5
f 1469/5/5 1467/5/5 1468/5/5
f 1472/4/5 1471/4/5 1470/4/5
f 1473/4/5 1471/4/5 1472/4/5
f 1474/5/6 1475/5/6 1477/5/6
f 1476/5/6 1477/5/6 1479/5/6
f 1478/5/6 1479/5/6 1481/5/6
f 1477/5/6 1475/5/6 1482/5/6
f 1479/5/6 1477/5/6 1482/5/6
f 1481/5/6 1479/5/6 1482/5/6
f 1482/5/6 1475/5/6 1483/5/6
f 1480/5/6 1481/5/6 1485/5/6
f 1481/5/6 1482/5/6 1485/5/6
f 1485/5/6 1482/5/6 1486/5/6
f 1486/5/6 1482/5/6 1487/5/6
f 1484/5/6 1485/5/6 1491/5/6
f 1485/5/6 1486/5/6 1491/5/6
f 1491/5/6 1486/5/6 1492/5/6
f 1488/5/6 1489/5/6 1494/5/6
f 1494/5/6 1489/5/6 1495/5/6
f 1490/5/6 1491/5/6 1498/5/6
f 1498/5/6 1491/5/6 1499/5/6
f 1492/5/6 1486/5/6 1500/5/6
f 1500/5/6 1486/5/6 1501/5/6
f 1493/5/6 1494/5/6 1503/5/6
f 1503/5/6 1494/5/6 1504/5/6
f 1496/4/6 1497/4/6 1506/4/6
f 1506/4/6 1497/4/6 1507/4/6
f 1507/4/6 1497/4/6 1508/4/6
f 1508/4/6 1497/4/6 1509/4/6
f 1504/5/6 1505/5/6 1513/5/6
f 1502/5/6 1503/5/6 1513/5/6
f 1503/5/6 1504/5/6 1513/5/6
f 1513/5/6 1505/5/6 1514/5/6
f 1514/5/6 1505/5/6 1515/5/6
f 1515/5/6 1505/5/6 1516/5/6
f 1510/5/6 1511/5/6 1520/5/6
f 1520/5/6 1511/5/6 1521/5/6
f 1512/5/6 1513/5/6 1522/5/6
f 1514/5/6 1515/5/6 1523/5/6
f 1523/5/6 1515/5/6 1524/5/6
f 1517/5/6 1518/5/6 1525/5/6
f 1525/5/6 1518/5/6 1526/5/6
f 1512/5/6 1522/5/6 1528/5/6
f 1522/5/6 1523/5/6 1528/5/6
f 1528/5/6 1523/5/6 1529/5/6
f 1529/5/6 1523/5/6 1530/5/6
f 1519/5/6 1520/5/6 1531/5/6
f 1531/5/6 1520/5/6 1532/5/6
f 1528/5/6 1529/5/6 1533/5/6
f 1527/5/6 1528/5/6 1533/5/6
f 1533/5/6 1529/5/6 1534/5/6
f 1531/4/6 1532/4/6 1535/4/6
f 1527/5/6 1533/5/6 1536/5/6
f 1536/5/6 1533/5/6 1537/5/6
f 1535/4/6 1532/4/6 1538/4/6
f 1525/4/6 1526/4/6 1539/4/6
f 1538/4/6 1532/4/6 1540/4/6
f 1540/4/6 1532/4/6 1541/4/6
f 1525/4/6 1539/4/6 1543/4/6
f 1543/4/6 1539/4/6 1544/4/6
f 1542/5/6 1543/5/6 1545/5/6
f 1543/5/6 1544/5/6 1545/5/6
f 1545/5/6 1544/5/6 1546/5/6
f 1542/5/6 1545/5/6 1547/5/6
f 1547/5/6 1545/5/6 1548/5/6
f 1540/5/6 1541/5/6 1550/5/6
f 1550/5/6 1541/5/6 1555/5/6
f 1549/5/6 1550/5/6 1555/5/6
f 1555/5/6 1541/5/6 1556/5/6
f 1551/5/6 1552/5/6 1557/5/6
f 1557/5/6 1552/5/6 1558/5/6
f 1553/5/6 1554/5/6 1561/5/6
f 1561/5/6 1554/5/6 1562/5/6
f 1549/5/6 1555/5/6 1565/5/6
f 1565/5/6 1555/5/6 1566/5/6
f 1566/5/6 1555/5/6 1567/5/6
f 1559/5/6 1560/5/6 1573/5/6
f 1573/5/6 1560/5/6 1574/5/6
f 1563/5/6 1564/5/6 1575/5/6
f 1575/5/6 1564/5/6 1576/5/6
f 1568/5/6 1569/5/6 1578/5/6
f 1570/5/6 1571/5/6 1580/5/6
f 1580/5/6 1571/5/6 1581/5/6
f 1572/5/6 1573/5/6 1583/5/6
f 1583/5/6 1573/5/6 1584/5/6
f 1576/5/6 1577/5/6 1585/5/6
f 1585/5/6 1577/5/6 1586/5/6
f 1578/5/6 1579/5/6 1587/5/6
f 1568/5/6 1578/5/6 1587/5/6
f 1587/5/6 1579/5/6 1588/5/6
f 1588/5/6 1579/5/6 1589/5/6
f 1582/5/6 1583/5/6 1591/5/6
f 1591/5/6 1583/5/6 1592/5/6
f 1590/5/6 1591/5/6 1595/5/6
f 1595/5/6 1591/5/6 1596/5/6
f 1593/5/6 1594/5/6 1597/5/6
f 1597/5/6 1594/5/6 1598/5/6
f 1598/5/6 1599/5/6 1600/5/6
f 1600/5/6 1599/5/6 1601/5/6
f 1602/5/6 1603/5/6 1609/5/6
f 1609/5/6 1603/5/6 1610/5/6
f 1604/5/6 1605/5/6 1611/5/6
f 1611/5/6 1605/5/6 1612/5/6
f 1606/5/6 1607/5/6 1615/5/6
f 1615/5/6 1607/5/6 1616/5/6
f 1616/5/6 1607/5/6 1617/5/6
f 1617/5/6 1607/5/6 1618/5/6
f 1608/5/6 1609/5/6 1619/5/6
f 1619/5/6 1609/5/6 1620/5/6
f 1613/5/6 1614/5/6 1623/5/6
f 1623/5/6 1614/5/6 1624/5/6
f 1621/5/6 1622/5/6 1625/5/6
f 1625/5/6 1622/5/6 1626/5/6
f 1627/5/6 1628/5/6 1630/5/6
f 1630/5/6 1628/5/6 1631/5/6
f 1629/5/6 1630/5/6 1635/5/6
f 1635/5/6 1630/5/6 1636/5/6
f 1632/5/6 1633/5/6 1638/5/6
f 1638/5/6 1633/5/6 1639/5/6
f 1634/5/6 1635/5/6 1640/5/6
f 1640/5/6 1635/5/6 1641/5/6
f 1642/5/6 1643/5/6 1649/5/6
f 1649/5/6 1643/5/6 1650/5/6
f 1645/5/6 1646/5/6 1651/5/6
f 1644/5/6 1645/5/6 1651/5/6
f 1651/5/6 1646/5/6 1652/5/6
f 1637/5/6 1638/5/6 1653/5/6
f 1647/5/6 1648/5/6 1656/5/6
f 1648/5/6 1649/5/6 1656/5/6
f 1656/5/6 1649/5/6 1657/5/6
f 1657/5/6 1649/5/6 1658/5/6
f 1652/5/6 1646/5/6 1659/5/6
f 1659/5/6 1646/5/6 1660/5/6
f 1653/5/6 1654/5/6 1661/5/6
f 1637/5/6 1653/5/6 1661/5/6
f 1661/5/6 1654/5/6 1662/5/6
f 1655/5/6 1656/5/6 1664/5/6
f 1656/5/6 1657/5/6 1664/5/6
f 1664/5/6 1657/5/6 1665/5/6
f 1665/5/6 1657/5/6 1666/5/6
f 1662/5/6 1654/5/6 1667/5/6
f 1667/5/6 1654/5/6 1668/5/6
f 1663/5/6 1664/5/6 1672/5/6
f 1664/5/6 1665/5/6 1672/5/6
f 1672/5/6 1665/5/6 1673/5/6
f 1673/5/6 1665/5/6 1674/5/6
f 1668/5/6 1669/5/6 1675/5/6
f 1675/5/6 1669/5/6 1676/5/6
f 1670/5/6 1671/5/6 1678/5/6
f 1678/5/6 1671/5/6 1679/5/6
f 1672/5/6 1673/5/6 1680/5/6
f 1680/5/6 1673/5/6 1681/5/6
f 1682/5/6 1683/5/6 1684/5/6
f 1684/5/6 1683/5/6 1685/5/6
f 1676/5/6 1677/5/6 1686/5/6
f 1686/5/6 1677/5/6 1687/5/6
f 1687/5/6 1688/5/6 1689/5/6
f 1686/5/6 1687/5/6 1689/5/6
f 1685/5/6 1686/5/6 1689/5/6
f 1689/5/6 1688/5/6 1690/5/6
f 1690/5/6 1688/5/6 1691/5/6
f 1690/5/6 1691/5/6 1693/5/6
f 1691/5/6 1692/5/6 1693/5/6
f 1693/5/6 1692/5/6 1694/5/6
f 1694/5/6 1692/5/6 1695/5/6
f 1695/5/6 1692/5/6 1696/5/6
f 1697/5/6 1698/5/6 1701/5/6
f 1701/5/6 1698/5/6 1702/5/6
f 1702/5/6 1698/5/6 1703/5/6
f 1699/5/6 1700/5/6 1704/5/6
f 1704/5/6 1700/5/6 1705/5/6
f 1705/5/6 1700/5/6 1706/5/6
f 1706/5/6 1700/5/6 1707/5/6
f 1705/5/6 1706/5/6 1708/5/6
f 1708/5/6 1706/5/6 1709/5/6
f 1709/5/6 1706/5/6 1710/5/6
f 1711/5/6 1712/5/6 1715/5/6
f 1712/5/6 1713/5/6 1715/5/6
f 1715/5/6 1713/5/6 1716/5/6
f 1715/5/6 1716/5/6 1719/5/6
f 1716/5/6 1717/5/6 1719/5/6
f 1714/5/6 1715/5/6 1719/5/6
f 1719/5/6 1717/5/6 1720/5/6
f 1720/5/6 1717/5/6 1721/5/6
f 1718/5/6 1719/5/6 1726/5/6
f 1719/5/6 1720/5/6 1726/5/6
f 1726/5/6 1720/5/6 1727/5/6
f 1722/5/6 1723/5/6 1728/5/6
f 1724/5/6 1725/5/6 1729/5/6
f 1722/5/6 1728/5/6 1730/5/6
f 1728/5/6 1729/5/6 1730/5/6
f 1730/5/6 1729/5/6 1731/5/6
f 1729/5/6 1725/5/6 1732/5/6
f 1731/5/6 1729/5/6 1732/5/6
f 1732/5/6 1733/5/6 1734/5/6
f 1731/5/6 1732/5/6 1734/5/6
f 1734/5/6 1733/5/6 1735/5/6
f 1735/5/6 1733/5/6 1736/5/6
f 1736/5/6 1737/5/6 1740/5/6
f 1735/5/6 1736/5/6 1740/5/6
f 1740/5/6 1737/5/6 1741/5/6
f 1741/5/6 1737/5/6 1742/5/6
f 1738/5/6 1739/5/6 1744/5/6
f 1744/5/6 1739/5/6 1745/5/6
f 1742/5/6 1743/5/6 1746/5/6
f 1741/5/6 1742/5/6 1746/5/6
f 1746/5/6 1743/5/6 1747/5/6
f 1747/5/6 1743/5/6 1748/5/6
f 1748/5/6 1743/5/6 1749/5/6
f 1750/5/6 1751/5/6 1755/5/6
f 1755/5/6 1751/5/6 1756/5/6
f 1754/5/6 1755/5/6 1758/5/6
f 1758/5/6 1755/5/6 1759/5/6
f 1752/5/6 1753/5/6 1760/5/6
f 1760/5/6 1753/5/6 1761/5/6
f 1757/5/6 1758/5/6 1762/5/6
f 1762/5/6 1758/5/6 1763/5/6
f 1764/5/6 1765/5/6 1766/5/6
f 1766/5/6 1765/5/6 1767/5/6
f 1768/5/6 1769/5/6 1770/5/6
f 1770/5/6 1769/5/6 1771/5/6
f 1772/5/6 1773/5/6 1774/5/6
f 1774/5/6 1773/5/6 1775/5/6
f 1776/5/6 1777/5/6 1778/5/6
f 1778/5/6 1777/5/6 1779/5/6
f 1779/5/6 1780/5/6 1781/5/6
f 1781/5/6 1780/5/6 1782/5/6
f 1783/5/6 1784/5/6 1787/5/6
f 1787/5/6 1784/5/6 1788/5/6
f 1785/5/6 1786/5/6 1789/5/6
f 1789/5/6 1786/5/6 1790/5/6
f 1791/5/6 1792/5/6 1793/5/6
f 1793/5/6 1792/5/6 1794/5/6
f 1794/5/6 1795/5/6 1796/5/6
f 1796/5/6 1795/5/6 1797/5/6
f 1798/5/6 1799/5/6 1801/5/6
f 1801/5/6 1799/5/6 1802/5/6
f 1800/5/6 1801/5/6 1803/5/6
f 1803/5/6 1801/5/6 1804/5/6
f 1805/5/6 1806/5/6 1807/5/6
f 1807/5/6 1806/5/6 1808/5/6
f 1809/5/6 1810/5/6 1811/5/6
f 1811/5/6 1810/5/6 1812/5/6
f 1812/5/6 1813/5/6 1814/5/6
f 1814/5/6 1813/5/6 1815/5/6
f 1815/5/6 1816/5/6 1817/5/6
f 1817/5/6 1816/5/6 1818/5/6
f 1818/5/6 1819/5/6 1820/5/6
f 1820/5/6 1819/5/6 1821/5/6
f 1822/4/6 1823/4/6 1826/4/6
f 1823/5/6 1824/5/6 1827/5/6
f 1826/4/6 1823/4/6 1827/4/6
f 1827/5/6 1824/5/6 1828/5/6
f 1825/5/6 1826/5/6 1830/5/6
f 1830/5/6 1826/5/6 1831/5/6
f 1826/3/6 1827/3/6 1832/3/6
f 1831/5/6 1826/5/6 1832/5/6
f 1827/3/6 1828/3/6 1832/3/6
f 1828/5/6 1824/5/6 1833/5/6
f 1832/3/6 1828/3/6 1833/3/6
f 1833/5/6 1824/5/6 1834/5/6
f 1830/5/6 1831/5/6 1837/5/6
f 1829/5/6 1830/5/6 1837/5/6
f 1837/5/6 1831/5/6 1838/5/6
f 1831/3/6 1832/3/6 1839/3/6
f 1838/5/6 1831/5/6 1839/5/6
f 1832/2/6 1833/2/6 1840/2/6
f 1839/3/6 1832/3/6 1840/3/6
f 1840/2/6 1833/2/6 1841/2/6
f 1841/2/6 1833/2/6 1842/2/6
f 1833/3/6 1834/3/6 1843/3/6
f 1842/2/6 1833/2/6 1843/2/6
f 1834/5/6 1835/5/6 1844/5/6
f 1843/3/6 1834/3/6 1844/3/6
f 1844/5/6 1835/5/6 1845/5/6
f 1837/5/6 1838/5/6 1847/5/6
f 1836/5/6 1837/5/6 1847/5/6
f 1847/5/6 1838/5/6 1848/5/6
f 1838/3/6 1839/3/6 1849/3/6
f 1848/5/6 1838/5/6 1849/5/6
f 1839/2/6 1840/2/6 1850/2/6
f 1849/3/6 1839/3/6 1850/3/6
f 1840/3/6 1841/3/6 1851/3/6
f 1850/2/6 1840/2/6 1851/2/6
f 1851/3/6 1841/3/6 1852/3/6
f 1852/3/6 1841/3/6 1853/3/6
f 1842/3/6 1843/3/6 1854/3/6
f 1844/3/6 1845/3/6 1854/3/6
f 1843/3/6 1844/3/6 1854/3/6
f 1854/3/6 1845/3/6 1855/3/6
f 1847/4/6 1848/4/6 1856/4/6
f 1848/3/6 1849/3/6 1857/3/6
f 1856/4/6 1848/4/6 1857/4/6
f 1849/2/6 1850/2/6 1858/2/6
f 1857/3/6 1849/3/6 1858/3/6
f 1851/3/6 1852/3/6 1859/3/6
f 1858/2/6 1850/2/6 1859/2/6
f 1850/3/6 1851/3/6 1859/3/6
f 1859/3/6 1852/3/6 1860/3/6
f 1852/2/6 1853/2/6 1861/2/6
f 1860/3/6 1852/3/6 1861/3/6
f 1854/2/6 1855/2/6 1861/2/6
f 1853/2/6 1854/2/6 1861/2/6
f 1861/2/6 1855/2/6 1862/2/6
f 1862/2/6 1855/2/6 1863/2/6
f 1857/3/6 1858/3/6 1864/3/6
f 1860/2/6 1861/2/6 1866/2/6
f 1866/2/6 1861/2/6 1867/2/6
f 1862/3/6 1863/3/6 1868/3/6
f 1868/3/6 1863/3/6 1869/3/6
f 1864/2/6 1865/2/6 1870/2/6
f 1869/3/6 1863/3/6 1874/3/6
f 1864/2/6 1870/2/6 1875/2/6
f 1871/2/6 1872/2/6 1876/2/6
f 1876/2/6 1872/2/6 1877/2/6
f 1873/2/6 1874/2/6 1878/2/6
f 1845/5/6 1846/5/6 1879/5/6
f 1855/3/6 1845/3/6 1879/3/6
f 1879/5/6 1846/5/6 1880/5/6
f 1856/5/6 1857/5/6 1881/5/6
f 1857/3/6 1864/3/6 1882/3/6
f 1881/5/6 1857/5/6 1882/5/6
f 1864/2/6 1875/2/6 1883/2/6
f 1882/3/6 1864/3/6 1883/3/6
f 1876/3/6 1877/3/6 1884/3/6
f 1883/2/6 1875/2/6 1884/2/6
f 1875/3/6 1876/3/6 1884/3/6
f 1884/3/6 1877/3/6 1885/3/6
f 1877/2/6 1878/2/6 1886/2/6
f 1885/3/6 1877/3/6 1886/3/6
f 1886/2/6 1878/2/6 1887/2/6
f 1887/2/6 1878/2/6 1888/2/6
f 1878/2/6 1874/2/6 1889/2/6
f 1888/2/6 1878/2/6 1889/2/6
f 1874/3/6 1863/3/6 1889/3/6
f 1879/4/6 1880/4/6 1890/4/6
f 1855/3/6 1879/3/6 1890/3/6
f 1890/4/6 1880/4/6 1891/4/6
f 1882/5/6 1883/5/6 1892/5/6
f 1883/3/6 1884/3/6 1893/3/6
f 1892/5/6 1883/5/6 1893/5/6
f 1884/2/6 1885/2/6 1894/2/6
f 1893/3/6 1884/3/6 1894/3/6
f 1886/3/6 1887/3/6 1895/3/6
f 1894/2/6 1885/2/6 1895/2/6
f 1885/3/6 1886/3/6 1895/3/6
f 1895/3/6 1887/3/6 1896/3/6
f 1888/3/6 1889/3/6 1897/3/6
f 1863/2/6 1855/2/6 1898/2/6
f 1889/3/6 1863/3/6 1898/3/6
f 1897/3/6 1889/3/6 1898/3/6
f 1855/3/6 1890/3/6 1899/3/6
f 1898/2/6 1855/2/6 1899/2/6
f 1890/5/6 1891/5/6 1900/5/6
f 1899/3/6 1890/3/6 1900/3/6
f 1893/5/6 1894/5/6 1901/5/6
f 1894/3/6 1895/3/6 1902/3/6
f 1901/5/6 1894/5/6 1902/5/6
f 1896/2/6 1897/2/6 1903/2/6
f 1902/3/6 1895/3/6 1903/3/6
f 1897/2/6 1898/2/6 1903/2/6
f 1895/2/6 1896/2/6 1903/2/6
f 1898/3/6 1899/3/6 1904/3/6
f 1903/2/6 1898/2/6 1904/2/6
f 1899/5/6 1900/5/6 1905/5/6
f 1904/3/6 1899/3/6 1905/3/6
f 1900/5/6 1891/5/6 1906/5/6
f 1905/5/6 1900/5/6 1906/5/6
f 1902/5/6 1903/5/6 1907/5/6
f 1903/3/6 1904/3/6 1908/3/6
f 1907/5/6 1903/5/6 1908/5/6
f 1908/3/6 1904/3/6 1909/3/6
f 1909/3/6 1904/3/6 1910/3/6
f 1904/5/6 1905/5/6 1911/5/6
f 1910/3/6 1904/3/6 1911/3/6
f 1911/5/6 1905/5/6 1912/5/6
f 1908/5/6 1909/5/6 1913/5/6
f 1909/4/6 1910/4/6 1914/4/6
f 1913/5/6 1909/5/6 1914/5/6
f 1910/5/6 1911/5/6 1915/5/6
f 1914/4/6 1910/4/6 1915/4/6
f 1915/5/6 1911/5/6 1916/5/6
f 1917/1/6 1918/1/6 1919/1/6
f 1919/1/6 1918/1/6 1920/1/6
f 1921/1/6 1922/1/6 1925/1/6
f 1925/1/6 1922/1/6 1926/1/6
f 1926/1/6 1922/1/6 1927/1/6
f 1923/1/6 1924/1/6 1928/1/6
f 1928/1/6 1924/1/6 1929/1/6
f 1929/1/6 1930/1/6 1934/1/6
f 1934/1/6 1930/1/6 1935/1/6
f 1931/1/6 1932/1/6 1936/1/6
f 1936/1/6 1932/1/6 1937/1/6
f 1933/1/6 1934/1/6 1938/1/6
f 1938/1/6 1934/1/6 1939/1/6
f 1940/1/6 1941/1/6 1942/1/6
f 1942/1/6 1941/1/6 1943/1/6
f 1944/6/6 1945/6/6 1946/6/6
f 1946/6/6 1945/6/6 1947/6/6
f 1948/6/6 1949/6/6 1950/6/6
f 1950/6/6 1949/6/6 1951/6/6
f 1952/4/6 1953/4/6 1954/4/6
f 1954/4/6 1953/4/6 1955/4/6
f 1956/4/6 1957/4/6 1959/4/6
f 1957/6/6 1958/6/6 1960/6/6
f 1959/4/6 1957/4/6 1960/4/6
f 1960/6/6 1958/6/6 1961/6/6
f 1962/5/6 1963/5/6 1966/5/6
f 1966/5/6 1963/5/6 1967/5/6
f 1964/6/6 1965/6/6 1968/6/6
f 1968/6/6 1965/6/6 1969/6/6
f 1970/5/6 1971/5/6 1972/5/6
f 1972/5/6 1971/5/6 1973/5/6
f 1974/5/6 1975/5/6 1976/5/6
f 1976/5/6 1975/5/6 1977/5/6
f 1978/5/6 1979/5/6 1980/5/6
f 1980/5/6 1979/5/6 1981/5/6
f 1982/5/6 1983/5/6 1984/5/6
f 1984/5/6 1983/5/6 1985/5/6
f 1986/5/6 1987/5/6 1988/5/6
f 1988/5/6 1987/5/6 1989/5/6
f 1990/5/6 1991/5/6 1992/5/6
f 1992/5/6 1991/5/6 1993/5/6
f 1994/4/6 1995/4/6 1996/4/6
f 1996/4/6 1995/4/6 1997/4/6
