# MagicaVoxel @ Ephtracy

# group
o 

# material
mtllib meteorito.mtl
usemtl palette

# normals
vn -1 0 0
vn 1 0 0
vn 0 0 1
vn 0 0 -1
vn 0 -1 0
vn 0 1 0

# texcoords
vt 0.388672 0.5
vt 0.392578 0.5
vt 0.396484 0.5

# verts
v -1.2 3.3 -1.9
v -1.2 3.3 -2
v -1.2 3.3 -2.2
v -1.2 3.4 -1.8
v -1.2 3.4 -1.9
v -1.2 3.4 -2.2
v -1.2 3.4 -2.3
v -1.2 3.7 -1.8
v -1.2 3.7 -2
v -1.2 3.7 -2.3
v -1.2 3.8 -1.8
v -1.2 3.8 -1.9
v -1.2 3.8 -2.2
v -1.2 3.8 -2.3
v -1.2 3.9 -1.9
v -1.2 3.9 -2.2
v -1.1 3.1 -1.9
v -1.1 3.1 -2
v -1.1 3.1 -2.2
v -1.1 3.2 -1.8
v -1.1 3.2 -1.9
v -1.1 3.2 -2.2
v -1.1 3.2 -2.3
v -1.1 3.3 -1.7
v -1.1 3.3 -1.8
v -1.1 3.3 -1.9
v -1.1 3.3 -2
v -1.1 3.3 -2.2
v -1.1 3.3 -2.3
v -1.1 3.3 -2.4
v -1.1 3.4 -1.6
v -1.1 3.4 -1.7
v -1.1 3.4 -1.8
v -1.1 3.4 -1.9
v -1.1 3.4 -2.2
v -1.1 3.4 -2.3
v -1.1 3.4 -2.4
v -1.1 3.4 -2.5
v -1.1 3.5 -2.4
v -1.1 3.5 -2.5
v -1.1 3.7 -1.8
v -1.1 3.7 -2.3
v -1.1 3.8 -1.6
v -1.1 3.8 -1.7
v -1.1 3.8 -1.8
v -1.1 3.8 -1.9
v -1.1 3.8 -2.2
v -1.1 3.8 -2.3
v -1.1 3.8 -2.4
v -1.1 3.8 -2.5
v -1.1 3.9 -1.7
v -1.1 3.9 -1.8
v -1.1 3.9 -1.9
v -1.1 3.9 -2.2
v -1.1 3.9 -2.3
v -1.1 3.9 -2.4
v -1.1 4 -1.8
v -1.1 4 -1.9
v -1.1 4 -2.2
v -1.1 4 -2.3
v -1.1 4.1 -1.9
v -1.1 4.1 -2.2
v -1 3 -1.9
v -1 3 -2.1
v -1 3 -2.2
v -1 3.1 -1.7
v -1 3.1 -1.8
v -1 3.1 -1.9
v -1 3.1 -2
v -1 3.1 -2.1
v -1 3.1 -2.2
v -1 3.1 -2.4
v -1 3.2 -1.6
v -1 3.2 -1.7
v -1 3.2 -1.8
v -1 3.2 -1.9
v -1 3.2 -2.2
v -1 3.2 -2.3
v -1 3.2 -2.4
v -1 3.2 -2.5
v -1 3.3 -1.7
v -1 3.3 -1.8
v -1 3.3 -2.3
v -1 3.3 -2.4
v -1 3.4 -1.5
v -1 3.4 -1.6
v -1 3.4 -1.7
v -1 3.4 -2.4
v -1 3.4 -2.5
v -1 3.4 -2.6
v -1 3.5 -2.5
v -1 3.6 -1.5
v -1 3.6 -1.6
v -1 3.6 -2.5
v -1 3.6 -2.6
v -1 3.7 -1.5
v -1 3.7 -1.6
v -1 3.8 -1.5
v -1 3.8 -1.6
v -1 3.8 -1.7
v -1 3.8 -2.4
v -1 3.8 -2.5
v -1 3.8 -2.6
v -1 3.9 -1.7
v -1 3.9 -1.8
v -1 3.9 -2.3
v -1 3.9 -2.4
v -1 4 -1.6
v -1 4 -1.7
v -1 4 -1.8
v -1 4 -1.9
v -1 4 -2.2
v -1 4 -2.3
v -1 4 -2.4
v -1 4 -2.5
v -1 4.1 -1.7
v -1 4.1 -1.9
v -1 4.1 -2.2
v -1 4.1 -2.4
v -1 4.2 -1.9
v -1 4.2 -2.2
v -0.9 3 -1.8
v -0.9 3 -1.9
v -0.9 3 -2.2
v -0.9 3 -2.3
v -0.9 3.1 -1.6
v -0.9 3.1 -1.7
v -0.9 3.1 -1.8
v -0.9 3.1 -1.9
v -0.9 3.1 -2.2
v -0.9 3.1 -2.3
v -0.9 3.1 -2.4
v -0.9 3.1 -2.5
v -0.9 3.2 -1.6
v -0.9 3.2 -1.7
v -0.9 3.2 -2.4
v -0.9 3.2 -2.5
v -0.9 3.3 -1.5
v -0.9 3.3 -1.6
v -0.9 3.3 -2.5
v -0.9 3.3 -2.6
v -0.9 3.4 -1.5
v -0.9 3.4 -1.6
v -0.9 3.4 -2.5
v -0.9 3.4 -2.6
v -0.9 3.8 -1.5
v -0.9 3.8 -1.6
v -0.9 3.8 -2.5
v -0.9 3.8 -2.6
v -0.9 3.9 -1.5
v -0.9 3.9 -1.6
v -0.9 3.9 -2.5
v -0.9 3.9 -2.6
v -0.9 4 -1.6
v -0.9 4 -1.7
v -0.9 4 -2.4
v -0.9 4 -2.5
v -0.9 4.1 -1.6
v -0.9 4.1 -1.7
v -0.9 4.1 -1.8
v -0.9 4.1 -1.9
v -0.9 4.1 -2.2
v -0.9 4.1 -2.3
v -0.9 4.1 -2.4
v -0.9 4.1 -2.5
v -0.9 4.2 -1.8
v -0.9 4.2 -1.9
v -0.9 4.2 -2.2
v -0.9 4.2 -2.3
v -0.8 2.9 -1.9
v -0.8 2.9 -2.2
v -0.8 3 -1.7
v -0.8 3 -1.8
v -0.8 3 -1.9
v -0.8 3 -2.2
v -0.8 3 -2.3
v -0.8 3 -2.4
v -0.8 3.1 -1.7
v -0.8 3.1 -1.8
v -0.8 3.1 -2.3
v -0.8 3.1 -2.4
v -0.8 3.2 -1.5
v -0.8 3.2 -1.6
v -0.8 3.2 -2.5
v -0.8 3.2 -2.6
v -0.8 3.3 -1.5
v -0.8 3.3 -1.6
v -0.8 3.3 -2.5
v -0.8 3.3 -2.6
v -0.8 3.4 -1.4
v -0.8 3.4 -1.5
v -0.8 3.4 -2.6
v -0.8 3.4 -2.7
v -0.8 3.5 -2.6
v -0.8 3.5 -2.7
v -0.8 3.6 -2.6
v -0.8 3.7 -2.6
v -0.8 3.7 -2.7
v -0.8 3.8 -1.4
v -0.8 3.8 -1.5
v -0.8 3.8 -2.6
v -0.8 3.8 -2.7
v -0.8 3.9 -1.5
v -0.8 3.9 -1.6
v -0.8 3.9 -2.5
v -0.8 3.9 -2.6
v -0.8 4 -1.5
v -0.8 4 -1.6
v -0.8 4 -2.5
v -0.8 4 -2.6
v -0.8 4.1 -1.7
v -0.8 4.1 -1.8
v -0.8 4.1 -2.3
v -0.8 4.1 -2.4
v -0.8 4.2 -1.7
v -0.8 4.2 -1.8
v -0.8 4.2 -1.9
v -0.8 4.2 -2.2
v -0.8 4.2 -2.3
v -0.8 4.2 -2.4
v -0.8 4.3 -1.9
v -0.8 4.3 -2.2
v -0.7 2.9 -1.8
v -0.7 2.9 -1.9
v -0.7 2.9 -2.2
v -0.7 2.9 -2.3
v -0.7 3 -1.6
v -0.7 3 -1.7
v -0.7 3 -1.8
v -0.7 3 -1.9
v -0.7 3 -2.2
v -0.7 3 -2.3
v -0.7 3 -2.4
v -0.7 3 -2.5
v -0.7 3.1 -1.5
v -0.7 3.1 -1.6
v -0.7 3.1 -1.7
v -0.7 3.1 -2.4
v -0.7 3.1 -2.5
v -0.7 3.1 -2.6
v -0.7 3.2 -1.5
v -0.7 3.2 -1.6
v -0.7 3.2 -2.5
v -0.7 3.2 -2.6
v -0.7 3.3 -1.4
v -0.7 3.3 -1.5
v -0.7 3.3 -2.6
v -0.7 3.3 -2.7
v -0.7 3.4 -1.4
v -0.7 3.4 -1.5
v -0.7 3.4 -2.6
v -0.7 3.4 -2.7
v -0.7 3.8 -1.4
v -0.7 3.8 -1.5
v -0.7 3.8 -2.6
v -0.7 3.8 -2.7
v -0.7 3.9 -1.4
v -0.7 3.9 -1.5
v -0.7 3.9 -2.6
v -0.7 3.9 -2.7
v -0.7 4 -1.5
v -0.7 4 -1.6
v -0.7 4 -2.5
v -0.7 4 -2.6
v -0.7 4.1 -1.5
v -0.7 4.1 -1.6
v -0.7 4.1 -1.7
v -0.7 4.1 -2.4
v -0.7 4.1 -2.5
v -0.7 4.1 -2.6
v -0.7 4.2 -1.6
v -0.7 4.2 -1.7
v -0.7 4.2 -1.8
v -0.7 4.2 -1.9
v -0.7 4.2 -2.2
v -0.7 4.2 -2.3
v -0.7 4.2 -2.4
v -0.7 4.2 -2.5
v -0.7 4.3 -1.8
v -0.7 4.3 -1.9
v -0.7 4.3 -2.2
v -0.7 4.3 -2.3
v -0.4 2.9 -1.8
v -0.4 2.9 -1.9
v -0.4 2.9 -2.2
v -0.4 2.9 -2.3
v -0.4 3 -1.6
v -0.4 3 -1.7
v -0.4 3 -1.8
v -0.4 3 -1.9
v -0.4 3 -2.2
v -0.4 3 -2.3
v -0.4 3 -2.4
v -0.4 3 -2.5
v -0.4 3.1 -1.5
v -0.4 3.1 -1.6
v -0.4 3.1 -1.7
v -0.4 3.1 -2.4
v -0.4 3.1 -2.5
v -0.4 3.1 -2.6
v -0.4 3.2 -1.5
v -0.4 3.2 -1.6
v -0.4 3.2 -2.5
v -0.4 3.2 -2.6
v -0.4 3.3 -1.4
v -0.4 3.3 -1.5
v -0.4 3.3 -2.6
v -0.4 3.3 -2.7
v -0.4 3.4 -1.4
v -0.4 3.4 -1.5
v -0.4 3.4 -2.6
v -0.4 3.4 -2.7
v -0.4 3.8 -1.4
v -0.4 3.8 -1.5
v -0.4 3.8 -2.6
v -0.4 3.8 -2.7
v -0.4 3.9 -1.4
v -0.4 3.9 -1.5
v -0.4 3.9 -2.6
v -0.4 3.9 -2.7
v -0.4 4 -1.5
v -0.4 4 -1.6
v -0.4 4 -2.5
v -0.4 4 -2.6
v -0.4 4.1 -1.5
v -0.4 4.1 -1.6
v -0.4 4.1 -1.7
v -0.4 4.1 -2.4
v -0.4 4.1 -2.5
v -0.4 4.1 -2.6
v -0.4 4.2 -1.6
v -0.4 4.2 -1.7
v -0.4 4.2 -1.8
v -0.4 4.2 -1.9
v -0.4 4.2 -2.2
v -0.4 4.2 -2.3
v -0.4 4.2 -2.4
v -0.4 4.2 -2.5
v -0.4 4.3 -1.8
v -0.4 4.3 -1.9
v -0.4 4.3 -2.2
v -0.4 4.3 -2.3
v -0.3 2.9 -1.9
v -0.3 2.9 -2.2
v -0.3 3 -1.7
v -0.3 3 -1.8
v -0.3 3 -1.9
v -0.3 3 -2.2
v -0.3 3 -2.3
v -0.3 3 -2.4
v -0.3 3.1 -1.7
v -0.3 3.1 -1.8
v -0.3 3.1 -2.3
v -0.3 3.1 -2.4
v -0.3 3.2 -1.5
v -0.3 3.2 -1.6
v -0.3 3.2 -2.5
v -0.3 3.2 -2.6
v -0.3 3.3 -1.5
v -0.3 3.3 -1.6
v -0.3 3.3 -2.5
v -0.3 3.3 -2.6
v -0.3 3.4 -1.4
v -0.3 3.4 -1.5
v -0.3 3.4 -2.6
v -0.3 3.4 -2.7
v -0.3 3.5 -1.4
v -0.3 3.5 -1.5
v -0.3 3.6 -1.5
v -0.3 3.6 -2.6
v -0.3 3.6 -2.7
v -0.3 3.8 -1.4
v -0.3 3.8 -1.5
v -0.3 3.8 -2.6
v -0.3 3.8 -2.7
v -0.3 3.9 -1.5
v -0.3 3.9 -1.6
v -0.3 3.9 -2.5
v -0.3 3.9 -2.6
v -0.3 4 -1.5
v -0.3 4 -1.6
v -0.3 4 -2.5
v -0.3 4 -2.6
v -0.3 4.1 -1.7
v -0.3 4.1 -1.8
v -0.3 4.1 -2.3
v -0.3 4.1 -2.4
v -0.3 4.2 -1.7
v -0.3 4.2 -1.8
v -0.3 4.2 -1.9
v -0.3 4.2 -2.2
v -0.3 4.2 -2.3
v -0.3 4.2 -2.4
v -0.3 4.3 -1.9
v -0.3 4.3 -2.2
v -0.2 3 -1.8
v -0.2 3 -1.9
v -0.2 3 -2.2
v -0.2 3 -2.3
v -0.2 3.1 -1.6
v -0.2 3.1 -1.7
v -0.2 3.1 -1.8
v -0.2 3.1 -1.9
v -0.2 3.1 -2.2
v -0.2 3.1 -2.3
v -0.2 3.1 -2.4
v -0.2 3.1 -2.5
v -0.2 3.2 -1.6
v -0.2 3.2 -1.7
v -0.2 3.2 -2.4
v -0.2 3.2 -2.5
v -0.2 3.3 -1.5
v -0.2 3.3 -1.6
v -0.2 3.3 -2.5
v -0.2 3.3 -2.6
v -0.2 3.4 -1.5
v -0.2 3.4 -1.6
v -0.2 3.4 -2.5
v -0.2 3.4 -2.6
v -0.2 3.8 -1.5
v -0.2 3.8 -1.6
v -0.2 3.8 -2.5
v -0.2 3.8 -2.6
v -0.2 3.9 -1.5
v -0.2 3.9 -1.6
v -0.2 3.9 -2.5
v -0.2 3.9 -2.6
v -0.2 4 -1.6
v -0.2 4 -1.7
v -0.2 4 -2.4
v -0.2 4 -2.5
v -0.2 4.1 -1.6
v -0.2 4.1 -1.7
v -0.2 4.1 -1.8
v -0.2 4.1 -1.9
v -0.2 4.1 -2.2
v -0.2 4.1 -2.3
v -0.2 4.1 -2.4
v -0.2 4.1 -2.5
v -0.2 4.2 -1.8
v -0.2 4.2 -1.9
v -0.2 4.2 -2.2
v -0.2 4.2 -2.3
v -0.1 3 -1.9
v -0.1 3 -2.2
v -0.1 3.1 -1.7
v -0.1 3.1 -1.8
v -0.1 3.1 -1.9
v -0.1 3.1 -2.1
v -0.1 3.1 -2.2
v -0.1 3.1 -2.4
v -0.1 3.2 -1.6
v -0.1 3.2 -1.7
v -0.1 3.2 -1.8
v -0.1 3.2 -1.9
v -0.1 3.2 -2.2
v -0.1 3.2 -2.3
v -0.1 3.2 -2.4
v -0.1 3.2 -2.5
v -0.1 3.3 -1.6
v -0.1 3.3 -1.7
v -0.1 3.3 -1.8
v -0.1 3.3 -2.3
v -0.1 3.3 -2.4
v -0.1 3.3 -2.5
v -0.1 3.4 -1.5
v -0.1 3.4 -1.6
v -0.1 3.4 -1.7
v -0.1 3.4 -2.4
v -0.1 3.4 -2.5
v -0.1 3.4 -2.6
v -0.1 3.5 -2.5
v -0.1 3.6 -1.5
v -0.1 3.6 -1.6
v -0.1 3.6 -2.5
v -0.1 3.6 -2.6
v -0.1 3.8 -1.5
v -0.1 3.8 -1.6
v -0.1 3.8 -1.7
v -0.1 3.8 -2.4
v -0.1 3.8 -2.5
v -0.1 3.8 -2.6
v -0.1 3.9 -1.7
v -0.1 3.9 -1.8
v -0.1 3.9 -2.3
v -0.1 3.9 -2.4
v -0.1 3.9 -2.5
v -0.1 4 -1.6
v -0.1 4 -1.7
v -0.1 4 -1.8
v -0.1 4 -1.9
v -0.1 4 -2.2
v -0.1 4 -2.3
v -0.1 4 -2.4
v -0.1 4 -2.5
v -0.1 4.1 -1.7
v -0.1 4.1 -1.8
v -0.1 4.1 -1.9
v -0.1 4.1 -2.2
v -0.1 4.1 -2.3
v -0.1 4.1 -2.4
v -0.1 4.2 -1.9
v -0.1 4.2 -2.2
v -1.19209e-07 3.1 -1.9
v -1.19209e-07 3.1 -2.1
v -1.19209e-07 3.1 -2.2
v -1.19209e-07 3.2 -1.8
v -1.19209e-07 3.2 -1.9
v -1.19209e-07 3.2 -2.1
v -1.19209e-07 3.2 -2.2
v -1.19209e-07 3.2 -2.3
v -1.19209e-07 3.3 -1.7
v -1.19209e-07 3.3 -1.8
v -1.19209e-07 3.3 -1.9
v -1.19209e-07 3.3 -2.2
v -1.19209e-07 3.3 -2.3
v -1.19209e-07 3.3 -2.4
v -1.19209e-07 3.4 -1.6
v -1.19209e-07 3.4 -1.7
v -1.19209e-07 3.4 -1.8
v -1.19209e-07 3.4 -1.9
v -1.19209e-07 3.4 -2.2
v -1.19209e-07 3.4 -2.3
v -1.19209e-07 3.4 -2.4
v -1.19209e-07 3.4 -2.5
v -1.19209e-07 3.5 -2.4
v -1.19209e-07 3.5 -2.5
v -1.19209e-07 3.6 -1.6
v -1.19209e-07 3.6 -1.8
v -1.19209e-07 3.8 -1.6
v -1.19209e-07 3.8 -1.7
v -1.19209e-07 3.8 -1.8
v -1.19209e-07 3.8 -1.9
v -1.19209e-07 3.8 -2.2
v -1.19209e-07 3.8 -2.3
v -1.19209e-07 3.8 -2.4
v -1.19209e-07 3.8 -2.5
v -1.19209e-07 3.9 -1.7
v -1.19209e-07 3.9 -1.8
v -1.19209e-07 3.9 -1.9
v -1.19209e-07 3.9 -2
v -1.19209e-07 3.9 -2.2
v -1.19209e-07 3.9 -2.3
v -1.19209e-07 3.9 -2.4
v -1.19209e-07 4 -1.8
v -1.19209e-07 4 -1.9
v -1.19209e-07 4 -2.2
v -1.19209e-07 4 -2.3
v -1.19209e-07 4.1 -1.9
v -1.19209e-07 4.1 -2.2
v 0.0999998 3.3 -1.9
v 0.0999998 3.3 -2.2
v 0.0999998 3.4 -1.8
v 0.0999998 3.4 -1.9
v 0.0999998 3.4 -2
v 0.0999998 3.4 -2.2
v 0.0999998 3.4 -2.3
v 0.0999998 3.8 -1.8
v 0.0999998 3.8 -1.9
v 0.0999998 3.8 -2.2
v 0.0999998 3.8 -2.3
v 0.0999998 3.9 -1.9
v 0.0999998 3.9 -2
v 0.0999998 3.9 -2.2
v -0.8 3.4 -1.4
v -0.8 3.8 -1.4
v -0.7 3.3 -1.4
v -0.7 3.4 -1.4
v -0.7 3.8 -1.4
v -0.7 3.9 -1.4
v -0.6 3.3 -1.4
v -0.6 3.4 -1.4
v -0.4 3.3 -1.4
v -0.4 3.4 -1.4
v -0.4 3.5 -1.4
v -0.4 3.8 -1.4
v -0.4 3.9 -1.4
v -0.3 3.4 -1.4
v -0.3 3.5 -1.4
v -0.3 3.8 -1.4
v -1 3.4 -1.5
v -1 3.6 -1.5
v -1 3.7 -1.5
v -1 3.8 -1.5
v -0.9 3.3 -1.5
v -0.9 3.4 -1.5
v -0.9 3.6 -1.5
v -0.9 3.7 -1.5
v -0.9 3.8 -1.5
v -0.9 3.9 -1.5
v -0.8 3.2 -1.5
v -0.8 3.3 -1.5
v -0.8 3.4 -1.5
v -0.8 3.8 -1.5
v -0.8 3.9 -1.5
v -0.8 4 -1.5
v -0.7 3.1 -1.5
v -0.7 3.2 -1.5
v -0.7 3.3 -1.5
v -0.7 3.4 -1.5
v -0.7 3.8 -1.5
v -0.7 3.9 -1.5
v -0.7 4 -1.5
v -0.7 4.1 -1.5
v -0.6 3.1 -1.5
v -0.6 3.3 -1.5
v -0.4 3.1 -1.5
v -0.4 3.2 -1.5
v -0.4 3.3 -1.5
v -0.4 3.4 -1.5
v -0.4 3.8 -1.5
v -0.4 3.9 -1.5
v -0.4 4 -1.5
v -0.4 4.1 -1.5
v -0.3 3.2 -1.5
v -0.3 3.3 -1.5
v -0.3 3.4 -1.5
v -0.3 3.5 -1.5
v -0.3 3.6 -1.5
v -0.3 3.8 -1.5
v -0.3 3.9 -1.5
v -0.3 4 -1.5
v -0.2 3.3 -1.5
v -0.2 3.4 -1.5
v -0.2 3.8 -1.5
v -0.2 3.9 -1.5
v -0.1 3.4 -1.5
v -0.1 3.6 -1.5
v -0.1 3.8 -1.5
v -1.1 3.4 -1.6
v -1.1 3.8 -1.6
v -1 3.2 -1.6
v -1 3.4 -1.6
v -1 3.6 -1.6
v -1 3.7 -1.6
v -1 3.8 -1.6
v -1 4 -1.6
v -0.9 3.1 -1.6
v -0.9 3.2 -1.6
v -0.9 3.3 -1.6
v -0.9 3.4 -1.6
v -0.9 3.8 -1.6
v -0.9 3.9 -1.6
v -0.9 4 -1.6
v -0.9 4.1 -1.6
v -0.8 3.2 -1.6
v -0.8 3.3 -1.6
v -0.8 3.9 -1.6
v -0.8 4 -1.6
v -0.8 4.1 -1.6
v -0.7 3 -1.6
v -0.7 3.1 -1.6
v -0.7 3.2 -1.6
v -0.7 4 -1.6
v -0.7 4.1 -1.6
v -0.7 4.2 -1.6
v -0.6 3 -1.6
v -0.6 3.1 -1.6
v -0.4 3 -1.6
v -0.4 3.1 -1.6
v -0.4 3.2 -1.6
v -0.4 4 -1.6
v -0.4 4.1 -1.6
v -0.4 4.2 -1.6
v -0.3 3.2 -1.6
v -0.3 3.3 -1.6
v -0.3 3.9 -1.6
v -0.3 4 -1.6
v -0.2 3.1 -1.6
v -0.2 3.2 -1.6
v -0.2 3.3 -1.6
v -0.2 3.4 -1.6
v -0.2 3.8 -1.6
v -0.2 3.9 -1.6
v -0.2 4 -1.6
v -0.2 4.1 -1.6
v -0.1 3.2 -1.6
v -0.1 3.3 -1.6
v -0.1 3.4 -1.6
v -0.1 3.6 -1.6
v -0.1 3.8 -1.6
v -0.1 4 -1.6
v -1.19209e-07 3.4 -1.6
v -1.19209e-07 3.6 -1.6
v -1.19209e-07 3.8 -1.6
v -1.1 3.3 -1.7
v -1.1 3.4 -1.7
v -1.1 3.8 -1.7
v -1.1 3.9 -1.7
v -1 3.1 -1.7
v -1 3.2 -1.7
v -1 3.3 -1.7
v -1 3.4 -1.7
v -1 3.8 -1.7
v -1 3.9 -1.7
v -1 4 -1.7
v -1 4.1 -1.7
v -0.9 3.1 -1.7
v -0.9 3.2 -1.7
v -0.9 4 -1.7
v -0.9 4.1 -1.7
v -0.8 3 -1.7
v -0.8 3.1 -1.7
v -0.8 4.1 -1.7
v -0.8 4.2 -1.7
v -0.7 3 -1.7
v -0.7 3.1 -1.7
v -0.7 4.1 -1.7
v -0.7 4.2 -1.7
v -0.4 3 -1.7
v -0.4 3.1 -1.7
v -0.4 4.1 -1.7
v -0.4 4.2 -1.7
v -0.3 3 -1.7
v -0.3 3.1 -1.7
v -0.3 4.1 -1.7
v -0.3 4.2 -1.7
v -0.2 3.1 -1.7
v -0.2 3.2 -1.7
v -0.2 4 -1.7
v -0.2 4.1 -1.7
v -0.1 3.1 -1.7
v -0.1 3.2 -1.7
v -0.1 3.3 -1.7
v -0.1 3.4 -1.7
v -0.1 3.8 -1.7
v -0.1 3.9 -1.7
v -0.1 4 -1.7
v -0.1 4.1 -1.7
v -1.19209e-07 3.3 -1.7
v -1.19209e-07 3.4 -1.7
v -1.19209e-07 3.8 -1.7
v -1.19209e-07 3.9 -1.7
v -1.2 3.4 -1.8
v -1.2 3.7 -1.8
v -1.2 3.8 -1.8
v -1.1 3.2 -1.8
v -1.1 3.3 -1.8
v -1.1 3.4 -1.8
v -1.1 3.7 -1.8
v -1.1 3.8 -1.8
v -1.1 3.9 -1.8
v -1.1 4 -1.8
v -1 3.2 -1.8
v -1 3.3 -1.8
v -1 3.9 -1.8
v -1 4 -1.8
v -0.9 3 -1.8
v -0.9 3.1 -1.8
v -0.9 4.1 -1.8
v -0.9 4.2 -1.8
v -0.8 3 -1.8
v -0.8 3.1 -1.8
v -0.8 4.1 -1.8
v -0.8 4.2 -1.8
v -0.7 2.9 -1.8
v -0.7 3 -1.8
v -0.7 4.2 -1.8
v -0.7 4.3 -1.8
v -0.5 4.2 -1.8
v -0.5 4.3 -1.8
v -0.4 2.9 -1.8
v -0.4 3 -1.8
v -0.4 4.2 -1.8
v -0.4 4.3 -1.8
v -0.3 3 -1.8
v -0.3 3.1 -1.8
v -0.3 4.1 -1.8
v -0.3 4.2 -1.8
v -0.2 3 -1.8
v -0.2 3.1 -1.8
v -0.2 4.1 -1.8
v -0.2 4.2 -1.8
v -0.1 3.2 -1.8
v -0.1 3.3 -1.8
v -0.1 3.9 -1.8
v -0.1 4 -1.8
v -1.19209e-07 3.2 -1.8
v -1.19209e-07 3.3 -1.8
v -1.19209e-07 3.4 -1.8
v -1.19209e-07 3.6 -1.8
v -1.19209e-07 3.8 -1.8
v -1.19209e-07 3.9 -1.8
v -1.19209e-07 4 -1.8
v 0.0999998 3.4 -1.8
v 0.0999998 3.8 -1.8
v -1.2 3.3 -1.9
v -1.2 3.4 -1.9
v -1.2 3.8 -1.9
v -1.2 3.9 -1.9
v -1.1 3.1 -1.9
v -1.1 3.2 -1.9
v -1.1 3.3 -1.9
v -1.1 3.4 -1.9
v -1.1 3.8 -1.9
v -1.1 3.9 -1.9
v -1.1 4 -1.9
v -1.1 4.1 -1.9
v -1 3 -1.9
v -1 3.1 -1.9
v -1 3.2 -1.9
v -1 4 -1.9
v -1 4.1 -1.9
v -1 4.2 -1.9
v -0.9 3 -1.9
v -0.9 3.1 -1.9
v -0.9 4.1 -1.9
v -0.9 4.2 -1.9
v -0.8 2.9 -1.9
v -0.8 3 -1.9
v -0.8 4.2 -1.9
v -0.8 4.3 -1.9
v -0.7 2.9 -1.9
v -0.7 3 -1.9
v -0.7 4.2 -1.9
v -0.7 4.3 -1.9
v -0.4 2.9 -1.9
v -0.4 3 -1.9
v -0.4 4.2 -1.9
v -0.4 4.3 -1.9
v -0.3 2.9 -1.9
v -0.3 3 -1.9
v -0.3 4.2 -1.9
v -0.3 4.3 -1.9
v -0.2 3 -1.9
v -0.2 3.1 -1.9
v -0.2 4.1 -1.9
v -0.2 4.2 -1.9
v -0.1 3 -1.9
v -0.1 3.1 -1.9
v -0.1 3.2 -1.9
v -0.1 4 -1.9
v -0.1 4.1 -1.9
v -0.1 4.2 -1.9
v -1.19209e-07 3.1 -1.9
v -1.19209e-07 3.2 -1.9
v -1.19209e-07 3.3 -1.9
v -1.19209e-07 3.4 -1.9
v -1.19209e-07 3.8 -1.9
v -1.19209e-07 3.9 -1.9
v -1.19209e-07 4 -1.9
v -1.19209e-07 4.1 -1.9
v 0.0999998 3.3 -1.9
v 0.0999998 3.4 -1.9
v 0.0999998 3.8 -1.9
v 0.0999998 3.9 -1.9
v -1.2 3.3 -2.2
v -1.2 3.4 -2.2
v -1.2 3.8 -2.2
v -1.2 3.9 -2.2
v -1.1 3.1 -2.2
v -1.1 3.2 -2.2
v -1.1 3.3 -2.2
v -1.1 3.4 -2.2
v -1.1 3.8 -2.2
v -1.1 3.9 -2.2
v -1.1 4 -2.2
v -1.1 4.1 -2.2
v -1 3 -2.2
v -1 3.1 -2.2
v -1 3.2 -2.2
v -1 4 -2.2
v -1 4.1 -2.2
v -1 4.2 -2.2
v -0.9 3 -2.2
v -0.9 3.1 -2.2
v -0.9 4.1 -2.2
v -0.9 4.2 -2.2
v -0.8 2.9 -2.2
v -0.8 3 -2.2
v -0.8 4.2 -2.2
v -0.8 4.3 -2.2
v -0.7 2.9 -2.2
v -0.7 3 -2.2
v -0.7 4.2 -2.2
v -0.7 4.3 -2.2
v -0.4 2.9 -2.2
v -0.4 3 -2.2
v -0.4 4.2 -2.2
v -0.4 4.3 -2.2
v -0.3 2.9 -2.2
v -0.3 3 -2.2
v -0.3 4.2 -2.2
v -0.3 4.3 -2.2
v -0.2 3 -2.2
v -0.2 3.1 -2.2
v -0.2 4.1 -2.2
v -0.2 4.2 -2.2
v -0.1 3 -2.2
v -0.1 3.1 -2.2
v -0.1 3.2 -2.2
v -0.1 4 -2.2
v -0.1 4.1 -2.2
v -0.1 4.2 -2.2
v -1.19209e-07 3.1 -2.2
v -1.19209e-07 3.2 -2.2
v -1.19209e-07 3.3 -2.2
v -1.19209e-07 3.4 -2.2
v -1.19209e-07 3.8 -2.2
v -1.19209e-07 3.9 -2.2
v -1.19209e-07 4 -2.2
v -1.19209e-07 4.1 -2.2
v 0.0999998 3.3 -2.2
v 0.0999998 3.4 -2.2
v 0.0999998 3.8 -2.2
v 0.0999998 3.9 -2.2
v -1.2 3.4 -2.3
v -1.2 3.7 -2.3
v -1.2 3.8 -2.3
v -1.1 3.2 -2.3
v -1.1 3.3 -2.3
v -1.1 3.4 -2.3
v -1.1 3.7 -2.3
v -1.1 3.8 -2.3
v -1.1 3.9 -2.3
v -1.1 4 -2.3
v -1 3.2 -2.3
v -1 3.3 -2.3
v -1 3.9 -2.3
v -1 4 -2.3
v -0.9 3 -2.3
v -0.9 3.1 -2.3
v -0.9 4.1 -2.3
v -0.9 4.2 -2.3
v -0.8 3 -2.3
v -0.8 3.1 -2.3
v -0.8 4.1 -2.3
v -0.8 4.2 -2.3
v -0.7 2.9 -2.3
v -0.7 3 -2.3
v -0.7 4.2 -2.3
v -0.7 4.3 -2.3
v -0.4 2.9 -2.3
v -0.4 3 -2.3
v -0.4 4.2 -2.3
v -0.4 4.3 -2.3
v -0.3 3 -2.3
v -0.3 3.1 -2.3
v -0.3 4.1 -2.3
v -0.3 4.2 -2.3
v -0.2 3 -2.3
v -0.2 3.1 -2.3
v -0.2 4.1 -2.3
v -0.2 4.2 -2.3
v -0.1 3.2 -2.3
v -0.1 3.3 -2.3
v -0.1 3.9 -2.3
v -0.1 4 -2.3
v -1.19209e-07 3.2 -2.3
v -1.19209e-07 3.3 -2.3
v -1.19209e-07 3.4 -2.3
v -1.19209e-07 3.8 -2.3
v -1.19209e-07 3.9 -2.3
v -1.19209e-07 4 -2.3
v 0.0999998 3.4 -2.3
v 0.0999998 3.8 -2.3
v -1.1 3.3 -2.4
v -1.1 3.4 -2.4
v -1.1 3.8 -2.4
v -1.1 3.9 -2.4
v -1 3.1 -2.4
v -1 3.2 -2.4
v -1 3.3 -2.4
v -1 3.4 -2.4
v -1 3.8 -2.4
v -1 3.9 -2.4
v -1 4 -2.4
v -1 4.1 -2.4
v -0.9 3.1 -2.4
v -0.9 3.2 -2.4
v -0.9 4 -2.4
v -0.9 4.1 -2.4
v -0.8 3 -2.4
v -0.8 3.1 -2.4
v -0.8 4.1 -2.4
v -0.8 4.2 -2.4
v -0.7 3 -2.4
v -0.7 3.1 -2.4
v -0.7 4.1 -2.4
v -0.7 4.2 -2.4
v -0.4 3 -2.4
v -0.4 3.1 -2.4
v -0.4 4.1 -2.4
v -0.4 4.2 -2.4
v -0.3 3 -2.4
v -0.3 3.1 -2.4
v -0.3 4.1 -2.4
v -0.3 4.2 -2.4
v -0.2 3.1 -2.4
v -0.2 3.2 -2.4
v -0.2 4 -2.4
v -0.2 4.1 -2.4
v -0.1 3.1 -2.4
v -0.1 3.2 -2.4
v -0.1 3.3 -2.4
v -0.1 3.4 -2.4
v -0.1 3.8 -2.4
v -0.1 3.9 -2.4
v -0.1 4 -2.4
v -0.1 4.1 -2.4
v -1.19209e-07 3.3 -2.4
v -1.19209e-07 3.4 -2.4
v -1.19209e-07 3.8 -2.4
v -1.19209e-07 3.9 -2.4
v -1.1 3.4 -2.5
v -1.1 3.5 -2.5
v -1.1 3.8 -2.5
v -1 3.2 -2.5
v -1 3.4 -2.5
v -1 3.5 -2.5
v -1 3.6 -2.5
v -1 3.8 -2.5
v -1 4 -2.5
v -0.9 3.1 -2.5
v -0.9 3.2 -2.5
v -0.9 3.3 -2.5
v -0.9 3.4 -2.5
v -0.9 3.8 -2.5
v -0.9 3.9 -2.5
v -0.9 4 -2.5
v -0.9 4.1 -2.5
v -0.8 3.2 -2.5
v -0.8 3.3 -2.5
v -0.8 3.9 -2.5
v -0.8 4 -2.5
v -0.7 3 -2.5
v -0.7 3.1 -2.5
v -0.7 3.2 -2.5
v -0.7 4 -2.5
v -0.7 4.1 -2.5
v -0.7 4.2 -2.5
v -0.6 3.1 -2.5
v -0.4 3 -2.5
v -0.4 3.1 -2.5
v -0.4 3.2 -2.5
v -0.4 4 -2.5
v -0.4 4.1 -2.5
v -0.4 4.2 -2.5
v -0.3 3.2 -2.5
v -0.3 3.3 -2.5
v -0.3 3.9 -2.5
v -0.3 4 -2.5
v -0.3 4.1 -2.5
v -0.2 3.1 -2.5
v -0.2 3.2 -2.5
v -0.2 3.3 -2.5
v -0.2 3.4 -2.5
v -0.2 3.8 -2.5
v -0.2 3.9 -2.5
v -0.2 4 -2.5
v -0.2 4.1 -2.5
v -0.1 3.2 -2.5
v -0.1 3.3 -2.5
v -0.1 3.4 -2.5
v -0.1 3.5 -2.5
v -0.1 3.6 -2.5
v -0.1 3.8 -2.5
v -0.1 3.9 -2.5
v -0.1 4 -2.5
v -1.19209e-07 3.4 -2.5
v -1.19209e-07 3.5 -2.5
v -1.19209e-07 3.8 -2.5
v -1 3.4 -2.6
v -1 3.6 -2.6
v -1 3.8 -2.6
v -0.9 3.3 -2.6
v -0.9 3.4 -2.6
v -0.9 3.7 -2.6
v -0.9 3.8 -2.6
v -0.9 3.9 -2.6
v -0.8 3.2 -2.6
v -0.8 3.3 -2.6
v -0.8 3.4 -2.6
v -0.8 3.5 -2.6
v -0.8 3.6 -2.6
v -0.8 3.7 -2.6
v -0.8 3.8 -2.6
v -0.8 3.9 -2.6
v -0.8 4 -2.6
v -0.7 3.1 -2.6
v -0.7 3.2 -2.6
v -0.7 3.3 -2.6
v -0.7 3.4 -2.6
v -0.7 3.8 -2.6
v -0.7 3.9 -2.6
v -0.7 4 -2.6
v -0.7 4.1 -2.6
v -0.6 3.1 -2.6
v -0.6 3.3 -2.6
v -0.6 3.9 -2.6
v -0.5 3.2 -2.6
v -0.5 3.3 -2.6
v -0.4 3.1 -2.6
v -0.4 3.2 -2.6
v -0.4 3.3 -2.6
v -0.4 3.4 -2.6
v -0.4 3.8 -2.6
v -0.4 3.9 -2.6
v -0.4 4 -2.6
v -0.4 4.1 -2.6
v -0.3 3.2 -2.6
v -0.3 3.3 -2.6
v -0.3 3.4 -2.6
v -0.3 3.6 -2.6
v -0.3 3.8 -2.6
v -0.3 3.9 -2.6
v -0.3 4 -2.6
v -0.2 3.3 -2.6
v -0.2 3.4 -2.6
v -0.2 3.6 -2.6
v -0.2 3.8 -2.6
v -0.2 3.9 -2.6
v -0.1 3.4 -2.6
v -0.1 3.6 -2.6
v -0.1 3.8 -2.6
v -0.8 3.4 -2.7
v -0.8 3.5 -2.7
v -0.8 3.7 -2.7
v -0.8 3.8 -2.7
v -0.7 3.3 -2.7
v -0.7 3.4 -2.7
v -0.7 3.5 -2.7
v -0.7 3.7 -2.7
v -0.7 3.8 -2.7
v -0.7 3.9 -2.7
v -0.6 3.3 -2.7
v -0.6 3.4 -2.7
v -0.6 3.5 -2.7
v -0.6 3.8 -2.7
v -0.6 3.9 -2.7
v -0.5 3.5 -2.7
v -0.5 3.6 -2.7
v -0.4 3.3 -2.7
v -0.4 3.4 -2.7
v -0.4 3.8 -2.7
v -0.4 3.9 -2.7
v -0.3 3.4 -2.7
v -0.3 3.6 -2.7
v -0.3 3.8 -2.7
v -0.7 2.9 -1.8
v -0.4 2.9 -1.8
v -0.8 2.9 -1.9
v -0.7 2.9 -1.9
v -0.5 2.9 -1.9
v -0.4 2.9 -1.9
v -0.3 2.9 -1.9
v -0.8 2.9 -2.2
v -0.7 2.9 -2.2
v -0.5 2.9 -2.2
v -0.4 2.9 -2.2
v -0.3 2.9 -2.2
v -0.7 2.9 -2.3
v -0.4 2.9 -2.3
v -0.7 3 -1.6
v -0.6 3 -1.6
v -0.4 3 -1.6
v -0.8 3 -1.7
v -0.7 3 -1.7
v -0.6 3 -1.7
v -0.4 3 -1.7
v -0.3 3 -1.7
v -0.9 3 -1.8
v -0.8 3 -1.8
v -0.7 3 -1.8
v -0.4 3 -1.8
v -0.3 3 -1.8
v -0.2 3 -1.8
v -1 3 -1.9
v -0.9 3 -1.9
v -0.8 3 -1.9
v -0.7 3 -1.9
v -0.4 3 -1.9
v -0.3 3 -1.9
v -0.2 3 -1.9
v -0.1 3 -1.9
v -1 3 -2.1
v -0.9 3 -2.1
v -1 3 -2.2
v -0.9 3 -2.2
v -0.8 3 -2.2
v -0.7 3 -2.2
v -0.4 3 -2.2
v -0.3 3 -2.2
v -0.2 3 -2.2
v -0.1 3 -2.2
v -0.9 3 -2.3
v -0.8 3 -2.3
v -0.7 3 -2.3
v -0.4 3 -2.3
v -0.3 3 -2.3
v -0.2 3 -2.3
v -0.8 3 -2.4
v -0.7 3 -2.4
v -0.4 3 -2.4
v -0.3 3 -2.4
v -0.7 3 -2.5
v -0.4 3 -2.5
v -0.7 3.1 -1.5
v -0.6 3.1 -1.5
v -0.4 3.1 -1.5
v -0.9 3.1 -1.6
v -0.7 3.1 -1.6
v -0.6 3.1 -1.6
v -0.4 3.1 -1.6
v -0.2 3.1 -1.6
v -1 3.1 -1.7
v -0.9 3.1 -1.7
v -0.8 3.1 -1.7
v -0.7 3.1 -1.7
v -0.4 3.1 -1.7
v -0.3 3.1 -1.7
v -0.2 3.1 -1.7
v -0.1 3.1 -1.7
v -1 3.1 -1.8
v -0.9 3.1 -1.8
v -0.8 3.1 -1.8
v -0.3 3.1 -1.8
v -0.2 3.1 -1.8
v -0.1 3.1 -1.8
v -1.1 3.1 -1.9
v -1 3.1 -1.9
v -0.9 3.1 -1.9
v -0.2 3.1 -1.9
v -0.1 3.1 -1.9
v -1.19209e-07 3.1 -1.9
v -1.1 3.1 -2
v -1 3.1 -2
v -1 3.1 -2.1
v -0.1 3.1 -2.1
v -1.19209e-07 3.1 -2.1
v -1.1 3.1 -2.2
v -1 3.1 -2.2
v -0.9 3.1 -2.2
v -0.2 3.1 -2.2
v -0.1 3.1 -2.2
v -1.19209e-07 3.1 -2.2
v -0.9 3.1 -2.3
v -0.8 3.1 -2.3
v -0.3 3.1 -2.3
v -0.2 3.1 -2.3
v -1 3.1 -2.4
v -0.9 3.1 -2.4
v -0.8 3.1 -2.4
v -0.7 3.1 -2.4
v -0.4 3.1 -2.4
v -0.3 3.1 -2.4
v -0.2 3.1 -2.4
v -0.1 3.1 -2.4
v -0.9 3.1 -2.5
v -0.7 3.1 -2.5
v -0.6 3.1 -2.5
v -0.4 3.1 -2.5
v -0.2 3.1 -2.5
v -0.7 3.1 -2.6
v -0.6 3.1 -2.6
v -0.4 3.1 -2.6
v -0.8 3.2 -1.5
v -0.7 3.2 -1.5
v -0.4 3.2 -1.5
v -0.3 3.2 -1.5
v -1 3.2 -1.6
v -0.9 3.2 -1.6
v -0.8 3.2 -1.6
v -0.7 3.2 -1.6
v -0.4 3.2 -1.6
v -0.3 3.2 -1.6
v -0.2 3.2 -1.6
v -0.1 3.2 -1.6
v -1 3.2 -1.7
v -0.9 3.2 -1.7
v -0.2 3.2 -1.7
v -0.1 3.2 -1.7
v -1.1 3.2 -1.8
v -1 3.2 -1.8
v -0.1 3.2 -1.8
v -1.19209e-07 3.2 -1.8
v -1.1 3.2 -1.9
v -1 3.2 -1.9
v -0.1 3.2 -1.9
v -1.19209e-07 3.2 -1.9
v -1.1 3.2 -2.2
v -1 3.2 -2.2
v -0.1 3.2 -2.2
v -1.19209e-07 3.2 -2.2
v -1.1 3.2 -2.3
v -1 3.2 -2.3
v -0.1 3.2 -2.3
v -1.19209e-07 3.2 -2.3
v -1 3.2 -2.4
v -0.9 3.2 -2.4
v -0.2 3.2 -2.4
v -0.1 3.2 -2.4
v -1 3.2 -2.5
v -0.9 3.2 -2.5
v -0.8 3.2 -2.5
v -0.7 3.2 -2.5
v -0.4 3.2 -2.5
v -0.3 3.2 -2.5
v -0.2 3.2 -2.5
v -0.1 3.2 -2.5
v -0.8 3.2 -2.6
v -0.7 3.2 -2.6
v -0.4 3.2 -2.6
v -0.3 3.2 -2.6
v -0.7 3.3 -1.4
v -0.6 3.3 -1.4
v -0.4 3.3 -1.4
v -0.9 3.3 -1.5
v -0.8 3.3 -1.5
v -0.7 3.3 -1.5
v -0.6 3.3 -1.5
v -0.4 3.3 -1.5
v -0.3 3.3 -1.5
v -0.2 3.3 -1.5
v -0.9 3.3 -1.6
v -0.8 3.3 -1.6
v -0.3 3.3 -1.6
v -0.2 3.3 -1.6
v -1.1 3.3 -1.7
v -1 3.3 -1.7
v -0.1 3.3 -1.7
v -1.19209e-07 3.3 -1.7
v -1.1 3.3 -1.8
v -1 3.3 -1.8
v -0.1 3.3 -1.8
v -1.19209e-07 3.3 -1.8
v -1.2 3.3 -1.9
v -1.1 3.3 -1.9
v -1.19209e-07 3.3 -1.9
v 0.0999998 3.3 -1.9
v -1.2 3.3 -2
v -1.1 3.3 -2
v -1.2 3.3 -2.2
v -1.1 3.3 -2.2
v -1.19209e-07 3.3 -2.2
v 0.0999998 3.3 -2.2
v -1.1 3.3 -2.3
v -1 3.3 -2.3
v -0.1 3.3 -2.3
v -1.19209e-07 3.3 -2.3
v -1.1 3.3 -2.4
v -1 3.3 -2.4
v -0.1 3.3 -2.4
v -1.19209e-07 3.3 -2.4
v -0.9 3.3 -2.5
v -0.8 3.3 -2.5
v -0.3 3.3 -2.5
v -0.2 3.3 -2.5
v -0.9 3.3 -2.6
v -0.8 3.3 -2.6
v -0.7 3.3 -2.6
v -0.6 3.3 -2.6
v -0.5 3.3 -2.6
v -0.4 3.3 -2.6
v -0.3 3.3 -2.6
v -0.2 3.3 -2.6
v -0.7 3.3 -2.7
v -0.6 3.3 -2.7
v -0.4 3.3 -2.7
v -0.8 3.4 -1.4
v -0.7 3.4 -1.4
v -0.4 3.4 -1.4
v -0.3 3.4 -1.4
v -1 3.4 -1.5
v -0.9 3.4 -1.5
v -0.8 3.4 -1.5
v -0.7 3.4 -1.5
v -0.4 3.4 -1.5
v -0.3 3.4 -1.5
v -0.2 3.4 -1.5
v -0.1 3.4 -1.5
v -1.1 3.4 -1.6
v -1 3.4 -1.6
v -0.9 3.4 -1.6
v -0.2 3.4 -1.6
v -0.1 3.4 -1.6
v -1.19209e-07 3.4 -1.6
v -1.1 3.4 -1.7
v -1 3.4 -1.7
v -0.1 3.4 -1.7
v -1.19209e-07 3.4 -1.7
v -1.2 3.4 -1.8
v -1.1 3.4 -1.8
v -1.19209e-07 3.4 -1.8
v 0.0999998 3.4 -1.8
v -1.2 3.4 -1.9
v -1.1 3.4 -1.9
v -1.19209e-07 3.4 -1.9
v 0.0999998 3.4 -1.9
v -1.2 3.4 -2.2
v -1.1 3.4 -2.2
v -1.19209e-07 3.4 -2.2
v 0.0999998 3.4 -2.2
v -1.2 3.4 -2.3
v -1.1 3.4 -2.3
v -1.19209e-07 3.4 -2.3
v 0.0999998 3.4 -2.3
v -1.1 3.4 -2.4
v -1 3.4 -2.4
v -0.1 3.4 -2.4
v -1.19209e-07 3.4 -2.4
v -1.1 3.4 -2.5
v -1 3.4 -2.5
v -0.9 3.4 -2.5
v -0.2 3.4 -2.5
v -0.1 3.4 -2.5
v -1.19209e-07 3.4 -2.5
v -1 3.4 -2.6
v -0.9 3.4 -2.6
v -0.8 3.4 -2.6
v -0.7 3.4 -2.6
v -0.4 3.4 -2.6
v -0.3 3.4 -2.6
v -0.2 3.4 -2.6
v -0.1 3.4 -2.6
v -0.8 3.4 -2.7
v -0.7 3.4 -2.7
v -0.4 3.4 -2.7
v -0.3 3.4 -2.7
v -0.8 3.8 -1.4
v -0.7 3.8 -1.4
v -0.4 3.8 -1.4
v -0.3 3.8 -1.4
v -1 3.8 -1.5
v -0.9 3.8 -1.5
v -0.8 3.8 -1.5
v -0.7 3.8 -1.5
v -0.4 3.8 -1.5
v -0.3 3.8 -1.5
v -0.2 3.8 -1.5
v -0.1 3.8 -1.5
v -1.1 3.8 -1.6
v -1 3.8 -1.6
v -0.9 3.8 -1.6
v -0.2 3.8 -1.6
v -0.1 3.8 -1.6
v -1.19209e-07 3.8 -1.6
v -1.1 3.8 -1.7
v -1 3.8 -1.7
v -0.1 3.8 -1.7
v -1.19209e-07 3.8 -1.7
v -1.2 3.8 -1.8
v -1.1 3.8 -1.8
v -1.19209e-07 3.8 -1.8
v 0.0999998 3.8 -1.8
v -1.2 3.8 -1.9
v -1.1 3.8 -1.9
v -1.19209e-07 3.8 -1.9
v 0.0999998 3.8 -1.9
v -1.2 3.8 -2.2
v -1.1 3.8 -2.2
v -1.19209e-07 3.8 -2.2
v 0.0999998 3.8 -2.2
v -1.2 3.8 -2.3
v -1.1 3.8 -2.3
v -1.19209e-07 3.8 -2.3
v 0.0999998 3.8 -2.3
v -1.1 3.8 -2.4
v -1 3.8 -2.4
v -0.1 3.8 -2.4
v -1.19209e-07 3.8 -2.4
v -1.1 3.8 -2.5
v -1 3.8 -2.5
v -0.9 3.8 -2.5
v -0.2 3.8 -2.5
v -0.1 3.8 -2.5
v -1.19209e-07 3.8 -2.5
v -1 3.8 -2.6
v -0.9 3.8 -2.6
v -0.8 3.8 -2.6
v -0.7 3.8 -2.6
v -0.4 3.8 -2.6
v -0.3 3.8 -2.6
v -0.2 3.8 -2.6
v -0.1 3.8 -2.6
v -0.8 3.8 -2.7
v -0.7 3.8 -2.7
v -0.4 3.8 -2.7
v -0.3 3.8 -2.7
v -0.7 3.9 -1.4
v -0.4 3.9 -1.4
v -0.9 3.9 -1.5
v -0.8 3.9 -1.5
v -0.7 3.9 -1.5
v -0.4 3.9 -1.5
v -0.3 3.9 -1.5
v -0.2 3.9 -1.5
v -0.9 3.9 -1.6
v -0.8 3.9 -1.6
v -0.3 3.9 -1.6
v -0.2 3.9 -1.6
v -1.1 3.9 -1.7
v -1 3.9 -1.7
v -0.1 3.9 -1.7
v -1.19209e-07 3.9 -1.7
v -1.1 3.9 -1.8
v -1 3.9 -1.8
v -0.1 3.9 -1.8
v -1.19209e-07 3.9 -1.8
v -1.2 3.9 -1.9
v -1.1 3.9 -1.9
v -1.19209e-07 3.9 -1.9
v 0.0999998 3.9 -1.9
v -1.19209e-07 3.9 -2
v 0.0999998 3.9 -2
v -1.2 3.9 -2.2
v -1.1 3.9 -2.2
v -1.19209e-07 3.9 -2.2
v 0.0999998 3.9 -2.2
v -1.1 3.9 -2.3
v -1 3.9 -2.3
v -0.1 3.9 -2.3
v -1.19209e-07 3.9 -2.3
v -1.1 3.9 -2.4
v -1 3.9 -2.4
v -0.1 3.9 -2.4
v -1.19209e-07 3.9 -2.4
v -0.9 3.9 -2.5
v -0.8 3.9 -2.5
v -0.3 3.9 -2.5
v -0.2 3.9 -2.5
v -0.9 3.9 -2.6
v -0.8 3.9 -2.6
v -0.7 3.9 -2.6
v -0.6 3.9 -2.6
v -0.4 3.9 -2.6
v -0.3 3.9 -2.6
v -0.2 3.9 -2.6
v -0.7 3.9 -2.7
v -0.6 3.9 -2.7
v -0.4 3.9 -2.7
v -0.8 4 -1.5
v -0.7 4 -1.5
v -0.4 4 -1.5
v -0.3 4 -1.5
v -1 4 -1.6
v -0.9 4 -1.6
v -0.8 4 -1.6
v -0.7 4 -1.6
v -0.4 4 -1.6
v -0.3 4 -1.6
v -0.2 4 -1.6
v -0.1 4 -1.6
v -1 4 -1.7
v -0.9 4 -1.7
v -0.2 4 -1.7
v -0.1 4 -1.7
v -1.1 4 -1.8
v -1 4 -1.8
v -0.1 4 -1.8
v -1.19209e-07 4 -1.8
v -1.1 4 -1.9
v -1 4 -1.9
v -0.1 4 -1.9
v -1.19209e-07 4 -1.9
v -1.1 4 -2.2
v -1 4 -2.2
v -0.1 4 -2.2
v -1.19209e-07 4 -2.2
v -1.1 4 -2.3
v -1 4 -2.3
v -0.1 4 -2.3
v -1.19209e-07 4 -2.3
v -1 4 -2.4
v -0.9 4 -2.4
v -0.2 4 -2.4
v -0.1 4 -2.4
v -1 4 -2.5
v -0.9 4 -2.5
v -0.8 4 -2.5
v -0.7 4 -2.5
v -0.4 4 -2.5
v -0.3 4 -2.5
v -0.2 4 -2.5
v -0.1 4 -2.5
v -0.8 4 -2.6
v -0.7 4 -2.6
v -0.4 4 -2.6
v -0.3 4 -2.6
v -0.7 4.1 -1.5
v -0.4 4.1 -1.5
v -0.9 4.1 -1.6
v -0.8 4.1 -1.6
v -0.7 4.1 -1.6
v -0.4 4.1 -1.6
v -0.2 4.1 -1.6
v -1 4.1 -1.7
v -0.9 4.1 -1.7
v -0.8 4.1 -1.7
v -0.7 4.1 -1.7
v -0.4 4.1 -1.7
v -0.3 4.1 -1.7
v -0.2 4.1 -1.7
v -0.1 4.1 -1.7
v -0.9 4.1 -1.8
v -0.8 4.1 -1.8
v -0.3 4.1 -1.8
v -0.2 4.1 -1.8
v -0.1 4.1 -1.8
v -1.1 4.1 -1.9
v -1 4.1 -1.9
v -0.9 4.1 -1.9
v -0.2 4.1 -1.9
v -0.1 4.1 -1.9
v -1.19209e-07 4.1 -1.9
v -1.1 4.1 -2.2
v -1 4.1 -2.2
v -0.9 4.1 -2.2
v -0.2 4.1 -2.2
v -0.1 4.1 -2.2
v -1.19209e-07 4.1 -2.2
v -0.9 4.1 -2.3
v -0.8 4.1 -2.3
v -0.3 4.1 -2.3
v -0.2 4.1 -2.3
v -0.1 4.1 -2.3
v -1 4.1 -2.4
v -0.9 4.1 -2.4
v -0.8 4.1 -2.4
v -0.7 4.1 -2.4
v -0.4 4.1 -2.4
v -0.3 4.1 -2.4
v -0.2 4.1 -2.4
v -0.1 4.1 -2.4
v -0.9 4.1 -2.5
v -0.7 4.1 -2.5
v -0.4 4.1 -2.5
v -0.3 4.1 -2.5
v -0.2 4.1 -2.5
v -0.7 4.1 -2.6
v -0.4 4.1 -2.6
v -0.7 4.2 -1.6
v -0.4 4.2 -1.6
v -0.8 4.2 -1.7
v -0.7 4.2 -1.7
v -0.4 4.2 -1.7
v -0.3 4.2 -1.7
v -0.9 4.2 -1.8
v -0.8 4.2 -1.8
v -0.7 4.2 -1.8
v -0.5 4.2 -1.8
v -0.4 4.2 -1.8
v -0.3 4.2 -1.8
v -0.2 4.2 -1.8
v -1 4.2 -1.9
v -0.9 4.2 -1.9
v -0.8 4.2 -1.9
v -0.7 4.2 -1.9
v -0.4 4.2 -1.9
v -0.3 4.2 -1.9
v -0.2 4.2 -1.9
v -0.1 4.2 -1.9
v -1 4.2 -2.2
v -0.9 4.2 -2.2
v -0.8 4.2 -2.2
v -0.7 4.2 -2.2
v -0.4 4.2 -2.2
v -0.3 4.2 -2.2
v -0.2 4.2 -2.2
v -0.1 4.2 -2.2
v -0.9 4.2 -2.3
v -0.8 4.2 -2.3
v -0.7 4.2 -2.3
v -0.4 4.2 -2.3
v -0.3 4.2 -2.3
v -0.2 4.2 -2.3
v -0.8 4.2 -2.4
v -0.7 4.2 -2.4
v -0.4 4.2 -2.4
v -0.3 4.2 -2.4
v -0.7 4.2 -2.5
v -0.4 4.2 -2.5
v -0.7 4.3 -1.8
v -0.5 4.3 -1.8
v -0.4 4.3 -1.8
v -0.8 4.3 -1.9
v -0.7 4.3 -1.9
v -0.4 4.3 -1.9
v -0.3 4.3 -1.9
v -0.8 4.3 -2.2
v -0.7 4.3 -2.2
v -0.5 4.3 -2.2
v -0.4 4.3 -2.2
v -0.3 4.3 -2.2
v -0.7 4.3 -2.3
v -0.4 4.3 -2.3

# faces
f 5/1/1 2/1/1 1/1/1
f 6/3/1 3/3/1 2/3/1
f 8/1/1 5/1/1 4/1/1
f 9/3/1 7/3/1 6/3/1
f 9/1/1 5/1/1 8/1/1
f 9/1/1 2/1/1 5/1/1
f 9/3/1 6/3/1 2/3/1
f 10/3/1 7/3/1 9/3/1
f 11/2/1 9/2/1 8/2/1
f 11/2/1 10/2/1 9/2/1
f 12/2/1 10/2/1 11/2/1
f 13/2/1 10/2/1 12/2/1
f 14/2/1 10/2/1 13/2/1
f 15/2/1 13/2/1 12/2/1
f 16/2/1 13/2/1 15/2/1
f 21/3/1 18/3/1 17/3/1
f 22/2/1 19/2/1 18/2/1
f 25/3/1 21/3/1 20/3/1
f 26/3/1 18/3/1 21/3/1
f 26/3/1 21/3/1 25/3/1
f 27/2/1 23/2/1 22/2/1
f 27/3/1 18/3/1 26/3/1
f 27/2/1 22/2/1 18/2/1
f 28/2/1 23/2/1 27/2/1
f 29/2/1 23/2/1 28/2/1
f 32/1/1 26/1/1 25/1/1
f 32/1/1 25/1/1 24/1/1
f 33/1/1 26/1/1 32/1/1
f 34/1/1 26/1/1 33/1/1
f 35/2/1 29/2/1 28/2/1
f 35/2/1 30/2/1 29/2/1
f 36/2/1 30/2/1 35/2/1
f 37/2/1 30/2/1 36/2/1
f 39/2/1 38/2/1 37/2/1
f 39/3/1 37/3/1 36/3/1
f 40/2/1 38/2/1 39/2/1
f 41/1/1 33/1/1 32/1/1
f 41/1/1 32/1/1 31/1/1
f 42/3/1 40/3/1 39/3/1
f 42/3/1 39/3/1 36/3/1
f 43/1/1 41/1/1 31/1/1
f 44/1/1 41/1/1 43/1/1
f 45/1/1 41/1/1 44/1/1
f 48/3/1 40/3/1 42/3/1
f 49/3/1 40/3/1 48/3/1
f 50/3/1 40/3/1 49/3/1
f 51/2/1 46/2/1 45/2/1
f 51/2/1 45/2/1 44/2/1
f 52/2/1 46/2/1 51/2/1
f 53/2/1 46/2/1 52/2/1
f 54/2/1 48/2/1 47/2/1
f 55/3/1 49/3/1 48/3/1
f 55/2/1 48/2/1 54/2/1
f 56/3/1 49/3/1 55/3/1
f 57/2/1 54/2/1 53/2/1
f 57/2/1 53/2/1 52/2/1
f 57/2/1 55/2/1 54/2/1
f 58/2/1 55/2/1 57/2/1
f 59/2/1 55/2/1 58/2/1
f 60/2/1 55/2/1 59/2/1
f 61/2/1 59/2/1 58/2/1
f 62/2/1 59/2/1 61/2/1
f 68/3/1 64/3/1 63/3/1
f 69/3/1 64/3/1 68/3/1
f 70/2/1 65/2/1 64/2/1
f 70/3/1 64/3/1 69/3/1
f 71/2/1 65/2/1 70/2/1
f 74/1/1 67/1/1 66/1/1
f 75/3/1 68/3/1 67/3/1
f 75/1/1 67/1/1 74/1/1
f 76/3/1 68/3/1 75/3/1
f 77/2/1 72/2/1 71/2/1
f 78/2/1 72/2/1 77/2/1
f 79/2/1 72/2/1 78/2/1
f 81/1/1 74/1/1 73/1/1
f 81/1/1 75/1/1 74/1/1
f 82/1/1 75/1/1 81/1/1
f 83/2/1 80/2/1 79/2/1
f 83/2/1 79/2/1 78/2/1
f 84/2/1 80/2/1 83/2/1
f 86/1/1 81/1/1 73/1/1
f 87/1/1 81/1/1 86/1/1
f 88/2/1 80/2/1 84/2/1
f 89/2/1 80/2/1 88/2/1
f 91/2/1 90/2/1 89/2/1
f 92/3/1 86/3/1 85/3/1
f 93/3/1 86/3/1 92/3/1
f 94/2/1 90/2/1 91/2/1
f 95/2/1 90/2/1 94/2/1
f 96/1/1 93/1/1 92/1/1
f 97/1/1 93/1/1 96/1/1
f 98/2/1 97/2/1 96/2/1
f 99/2/1 97/2/1 98/2/1
f 102/3/1 95/3/1 94/3/1
f 103/3/1 95/3/1 102/3/1
f 104/2/1 100/2/1 99/2/1
f 107/3/1 102/3/1 101/3/1
f 108/2/1 105/2/1 104/2/1
f 108/2/1 104/2/1 99/2/1
f 109/2/1 105/2/1 108/2/1
f 110/2/1 105/2/1 109/2/1
f 113/3/1 107/3/1 106/3/1
f 114/3/1 102/3/1 107/3/1
f 114/3/1 107/3/1 113/3/1
f 115/3/1 102/3/1 114/3/1
f 116/2/1 111/2/1 110/2/1
f 116/2/1 110/2/1 109/2/1
f 117/2/1 111/2/1 116/2/1
f 118/3/1 113/3/1 112/3/1
f 118/3/1 114/3/1 113/3/1
f 119/3/1 114/3/1 118/3/1
f 120/3/1 118/3/1 117/3/1
f 121/3/1 118/3/1 120/3/1
f 128/3/1 123/3/1 122/3/1
f 129/3/1 123/3/1 128/3/1
f 130/3/1 125/3/1 124/3/1
f 131/3/1 125/3/1 130/3/1
f 134/1/1 127/1/1 126/1/1
f 135/1/1 127/1/1 134/1/1
f 136/2/1 133/2/1 132/2/1
f 137/2/1 133/2/1 136/2/1
f 142/1/1 139/1/1 138/1/1
f 143/1/1 139/1/1 142/1/1
f 144/2/1 141/2/1 140/2/1
f 145/2/1 141/2/1 144/2/1
f 150/2/1 147/2/1 146/2/1
f 151/2/1 147/2/1 150/2/1
f 152/1/1 149/1/1 148/1/1
f 153/1/1 149/1/1 152/1/1
f 158/2/1 155/2/1 154/2/1
f 159/2/1 155/2/1 158/2/1
f 164/1/1 157/1/1 156/1/1
f 165/1/1 157/1/1 164/1/1
f 166/3/1 161/3/1 160/3/1
f 167/3/1 161/3/1 166/3/1
f 168/3/1 163/3/1 162/3/1
f 169/3/1 163/3/1 168/3/1
f 174/3/1 171/3/1 170/3/1
f 175/3/1 171/3/1 174/3/1
f 178/1/1 173/1/1 172/1/1
f 179/1/1 173/1/1 178/1/1
f 180/3/1 177/3/1 176/3/1
f 181/3/1 177/3/1 180/3/1
f 186/1/1 183/1/1 182/1/1
f 187/1/1 183/1/1 186/1/1
f 188/2/1 185/2/1 184/2/1
f 189/2/1 185/2/1 188/2/1
f 194/2/1 193/2/1 192/2/1
f 195/2/1 193/2/1 194/2/1
f 196/3/1 195/3/1 194/3/1
f 197/3/1 195/3/1 196/3/1
f 198/3/1 195/3/1 197/3/1
f 199/1/1 191/1/1 190/1/1
f 200/1/1 191/1/1 199/1/1
f 201/1/1 198/1/1 197/1/1
f 202/1/1 198/1/1 201/1/1
f 207/3/1 204/3/1 203/3/1
f 208/3/1 204/3/1 207/3/1
f 209/1/1 206/1/1 205/1/1
f 210/1/1 206/1/1 209/1/1
f 215/3/1 212/3/1 211/3/1
f 216/3/1 212/3/1 215/3/1
f 219/1/1 214/1/1 213/1/1
f 220/1/1 214/1/1 219/1/1
f 221/3/1 218/3/1 217/3/1
f 222/3/1 218/3/1 221/3/1
f 229/3/1 224/3/1 223/3/1
f 230/3/1 224/3/1 229/3/1
f 231/3/1 226/3/1 225/3/1
f 232/3/1 226/3/1 231/3/1
f 236/1/1 228/1/1 227/1/1
f 237/1/1 228/1/1 236/1/1
f 238/3/1 234/3/1 233/3/1
f 239/3/1 234/3/1 238/3/1
f 241/1/1 236/1/1 235/1/1
f 242/1/1 236/1/1 241/1/1
f 243/2/1 240/2/1 239/2/1
f 244/2/1 240/2/1 243/2/1
f 249/3/1 246/3/1 245/3/1
f 250/3/1 246/3/1 249/3/1
f 251/2/1 248/2/1 247/2/1
f 252/2/1 248/2/1 251/2/1
f 257/1/1 254/1/1 253/1/1
f 258/1/1 254/1/1 257/1/1
f 259/1/1 256/1/1 255/1/1
f 260/1/1 256/1/1 259/1/1
f 265/3/1 262/3/1 261/3/1
f 266/3/1 262/3/1 265/3/1
f 269/1/1 264/1/1 263/1/1
f 270/1/1 264/1/1 269/1/1
f 271/3/1 267/3/1 266/3/1
f 272/3/1 267/3/1 271/3/1
f 277/1/1 269/1/1 268/1/1
f 278/1/1 269/1/1 277/1/1
f 279/3/1 274/3/1 273/3/1
f 280/3/1 274/3/1 279/3/1
f 281/3/1 276/3/1 275/3/1
f 282/3/1 276/3/1 281/3/1
f 283/3/2 284/3/2 289/3/2
f 289/3/2 284/3/2 290/3/2
f 285/3/2 286/3/2 291/3/2
f 291/3/2 286/3/2 292/3/2
f 287/3/2 288/3/2 296/3/2
f 296/3/2 288/3/2 297/3/2
f 293/3/2 294/3/2 298/3/2
f 298/3/2 294/3/2 299/3/2
f 295/2/2 296/2/2 301/2/2
f 301/2/2 296/2/2 302/2/2
f 299/3/2 300/3/2 303/3/2
f 303/3/2 300/3/2 304/3/2
f 305/2/2 306/2/2 309/2/2
f 309/2/2 306/2/2 310/2/2
f 307/1/2 308/1/2 311/1/2
f 311/1/2 308/1/2 312/1/2
f 313/1/2 314/1/2 317/1/2
f 317/1/2 314/1/2 318/1/2
f 315/3/2 316/3/2 319/3/2
f 319/3/2 316/3/2 320/3/2
f 321/3/2 322/3/2 325/3/2
f 325/3/2 322/3/2 326/3/2
f 323/1/2 324/1/2 329/1/2
f 329/1/2 324/1/2 330/1/2
f 326/3/2 327/3/2 331/3/2
f 331/3/2 327/3/2 332/3/2
f 328/1/2 329/1/2 337/1/2
f 337/1/2 329/1/2 338/1/2
f 333/2/2 334/2/2 339/2/2
f 339/2/2 334/2/2 340/2/2
f 335/3/2 336/3/2 341/3/2
f 341/3/2 336/3/2 342/3/2
f 343/1/2 344/1/2 347/1/2
f 347/1/2 344/1/2 348/1/2
f 345/3/2 346/3/2 351/3/2
f 351/3/2 346/3/2 352/3/2
f 349/3/2 350/3/2 353/3/2
f 353/3/2 350/3/2 354/3/2
f 355/2/2 356/2/2 359/2/2
f 359/2/2 356/2/2 360/2/2
f 357/1/2 358/1/2 361/1/2
f 361/1/2 358/1/2 362/1/2
f 363/2/2 364/2/2 367/2/2
f 367/2/2 364/2/2 368/2/2
f 367/1/2 368/1/2 369/1/2
f 365/1/2 366/1/2 370/1/2
f 370/1/2 366/1/2 371/1/2
f 367/1/2 369/1/2 372/1/2
f 372/1/2 369/1/2 373/1/2
f 370/3/2 371/3/2 374/3/2
f 374/3/2 371/3/2 375/3/2
f 376/1/2 377/1/2 380/1/2
f 380/1/2 377/1/2 381/1/2
f 378/3/2 379/3/2 382/3/2
f 382/3/2 379/3/2 383/3/2
f 384/2/2 385/2/2 388/2/2
f 388/2/2 385/2/2 389/2/2
f 386/1/2 387/1/2 392/1/2
f 392/1/2 387/1/2 393/1/2
f 390/2/2 391/2/2 394/2/2
f 394/2/2 391/2/2 395/2/2
f 396/1/2 397/1/2 402/1/2
f 402/1/2 397/1/2 403/1/2
f 398/3/2 399/3/2 404/3/2
f 404/3/2 399/3/2 405/3/2
f 400/3/2 401/3/2 408/3/2
f 408/3/2 401/3/2 409/3/2
f 406/3/2 407/3/2 410/3/2
f 410/3/2 407/3/2 411/3/2
f 412/2/2 413/2/2 416/2/2
f 416/2/2 413/2/2 417/2/2
f 414/1/2 415/1/2 418/1/2
f 418/1/2 415/1/2 419/1/2
f 420/1/2 421/1/2 424/1/2
f 424/1/2 421/1/2 425/1/2
f 422/3/2 423/3/2 426/3/2
f 426/3/2 423/3/2 427/3/2
f 428/3/2 429/3/2 432/3/2
f 432/3/2 429/3/2 433/3/2
f 430/3/2 431/3/2 438/3/2
f 438/3/2 431/3/2 439/3/2
f 434/2/2 435/2/2 440/2/2
f 440/2/2 435/2/2 441/2/2
f 436/3/2 437/3/2 442/3/2
f 442/3/2 437/3/2 443/3/2
f 444/1/2 445/1/2 448/1/2
f 448/1/2 445/1/2 449/1/2
f 449/1/2 445/1/2 450/1/2
f 446/3/2 447/3/2 453/3/2
f 447/1/2 448/1/2 454/1/2
f 453/3/2 447/3/2 454/3/2
f 454/1/2 448/1/2 455/1/2
f 450/3/2 451/3/2 456/3/2
f 456/3/2 451/3/2 457/3/2
f 457/3/2 451/3/2 458/3/2
f 452/3/2 453/3/2 460/3/2
f 453/3/2 454/3/2 460/3/2
f 460/3/2 454/3/2 461/3/2
f 461/3/2 454/3/2 462/3/2
f 458/3/2 459/3/2 463/3/2
f 457/3/2 458/3/2 463/3/2
f 463/3/2 459/3/2 464/3/2
f 464/3/2 459/3/2 465/3/2
f 460/2/2 461/2/2 467/2/2
f 467/2/2 461/2/2 468/2/2
f 464/1/2 465/1/2 469/1/2
f 469/1/2 465/1/2 470/1/2
f 470/1/2 471/1/2 472/1/2
f 466/2/2 467/2/2 473/2/2
f 473/2/2 467/2/2 474/2/2
f 472/1/2 471/1/2 475/1/2
f 475/1/2 471/1/2 476/1/2
f 473/1/2 474/1/2 477/1/2
f 477/1/2 474/1/2 478/1/2
f 475/2/2 476/2/2 481/2/2
f 481/2/2 476/2/2 482/2/2
f 478/3/2 479/3/2 483/3/2
f 480/2/2 481/2/2 486/2/2
f 486/2/2 481/2/2 487/2/2
f 483/3/2 484/3/2 488/3/2
f 478/3/2 483/3/2 488/3/2
f 488/3/2 484/3/2 489/3/2
f 489/3/2 484/3/2 490/3/2
f 486/3/2 487/3/2 493/3/2
f 485/3/2 486/3/2 493/3/2
f 493/3/2 487/3/2 494/3/2
f 494/3/2 487/3/2 495/3/2
f 489/3/2 490/3/2 496/3/2
f 490/2/2 491/2/2 497/2/2
f 496/3/2 490/3/2 497/3/2
f 497/2/2 491/2/2 498/2/2
f 492/2/2 493/2/2 499/2/2
f 493/3/2 494/3/2 500/3/2
f 499/2/2 493/2/2 500/2/2
f 500/3/2 494/3/2 501/3/2
f 498/2/2 499/2/2 502/2/2
f 502/2/2 499/2/2 503/2/2
f 504/1/2 505/1/2 508/1/2
f 505/3/2 506/3/2 509/3/2
f 508/1/2 505/1/2 509/1/2
f 509/3/2 506/3/2 510/3/2
f 507/3/2 508/3/2 513/3/2
f 510/3/2 511/3/2 513/3/2
f 509/3/2 510/3/2 513/3/2
f 508/3/2 509/3/2 513/3/2
f 513/3/2 511/3/2 514/3/2
f 514/3/2 511/3/2 515/3/2
f 515/3/2 511/3/2 516/3/2
f 512/2/2 513/2/2 519/2/2
f 513/2/2 514/2/2 519/2/2
f 519/2/2 514/2/2 520/2/2
f 520/2/2 514/2/2 521/2/2
f 515/2/2 516/2/2 522/2/2
f 516/2/2 517/2/2 522/2/2
f 522/2/2 517/2/2 523/2/2
f 523/2/2 517/2/2 524/2/2
f 524/1/2 525/1/2 526/1/2
f 523/2/2 524/2/2 526/2/2
f 526/1/2 525/1/2 527/1/2
f 519/2/2 520/2/2 528/2/2
f 518/2/2 519/2/2 528/2/2
f 528/2/2 520/2/2 529/2/2
f 528/3/2 529/3/2 530/3/2
f 530/3/2 529/3/2 531/3/2
f 531/3/2 529/3/2 532/3/2
f 526/2/2 527/2/2 535/2/2
f 523/2/2 526/2/2 535/2/2
f 535/2/2 527/2/2 536/2/2
f 536/2/2 527/2/2 537/2/2
f 532/3/2 533/3/2 538/3/2
f 531/3/2 532/3/2 538/3/2
f 538/3/2 533/3/2 539/3/2
f 539/3/2 533/3/2 540/3/2
f 535/2/2 536/2/2 542/2/2
f 534/2/2 535/2/2 542/2/2
f 542/2/2 536/2/2 543/2/2
f 543/2/2 536/2/2 544/2/2
f 539/3/2 540/3/2 545/3/2
f 540/2/2 541/2/2 546/2/2
f 545/3/2 540/3/2 546/3/2
f 542/2/2 543/2/2 546/2/2
f 541/2/2 542/2/2 546/2/2
f 546/2/2 543/2/2 547/2/2
f 547/2/2 543/2/2 548/2/2
f 546/2/2 547/2/2 549/2/2
f 549/2/2 547/2/2 550/2/2
f 551/3/2 552/3/2 554/3/2
f 554/3/2 552/3/2 555/3/2
f 555/3/2 552/3/2 556/3/2
f 553/3/2 554/3/2 558/3/2
f 554/3/2 555/3/2 558/3/2
f 558/3/2 555/3/2 559/3/2
f 556/2/2 557/2/2 560/2/2
f 555/2/2 556/2/2 560/2/2
f 560/2/2 557/2/2 561/2/2
f 559/3/2 555/3/2 562/3/2
f 555/2/2 560/2/2 563/2/2
f 562/3/2 555/3/2 563/3/2
f 563/2/2 560/2/2 564/2/2
f 568/1/3 566/1/3 565/1/3
f 569/1/3 566/1/3 568/1/3
f 571/3/3 568/3/3 567/3/3
f 572/1/3 570/1/3 569/1/3
f 572/3/3 568/3/3 571/3/3
f 572/1/3 569/1/3 568/1/3
f 573/2/3 572/2/3 571/2/3
f 574/1/3 570/1/3 572/1/3
f 574/2/3 572/2/3 573/2/3
f 575/1/3 570/1/3 574/1/3
f 576/1/3 570/1/3 575/1/3
f 577/1/3 570/1/3 576/1/3
f 578/2/3 575/2/3 574/2/3
f 579/1/3 576/1/3 575/1/3
f 579/2/3 575/2/3 578/2/3
f 580/1/3 576/1/3 579/1/3
f 586/3/3 582/3/3 581/3/3
f 587/1/3 583/1/3 582/1/3
f 587/3/3 582/3/3 586/3/3
f 588/2/3 584/2/3 583/2/3
f 588/1/3 583/1/3 587/1/3
f 589/2/3 584/2/3 588/2/3
f 592/1/3 586/1/3 585/1/3
f 593/3/3 587/3/3 586/3/3
f 593/3/3 588/3/3 587/3/3
f 593/1/3 586/1/3 592/1/3
f 593/3/3 589/3/3 588/3/3
f 594/2/3 590/2/3 589/2/3
f 594/3/3 589/3/3 593/3/3
f 595/2/3 590/2/3 594/2/3
f 598/1/3 592/1/3 591/1/3
f 598/1/3 593/1/3 592/1/3
f 599/1/3 593/1/3 598/1/3
f 600/1/3 593/1/3 599/1/3
f 601/1/3 595/1/3 594/1/3
f 602/3/3 596/3/3 595/3/3
f 602/1/3 595/1/3 601/1/3
f 603/3/3 596/3/3 602/3/3
f 605/1/3 598/1/3 597/1/3
f 605/1/3 599/1/3 598/1/3
f 606/1/3 599/1/3 605/1/3
f 607/2/3 606/2/3 605/2/3
f 608/2/3 606/2/3 607/2/3
f 609/2/3 606/2/3 608/2/3
f 612/1/3 603/1/3 602/1/3
f 613/3/3 604/3/3 603/3/3
f 613/1/3 603/1/3 612/1/3
f 614/3/3 604/3/3 613/3/3
f 615/2/3 610/2/3 609/2/3
f 615/2/3 609/2/3 608/2/3
f 616/2/3 610/2/3 615/2/3
f 617/2/3 610/2/3 616/2/3
f 620/1/3 612/1/3 611/1/3
f 620/1/3 613/1/3 612/1/3
f 621/1/3 613/1/3 620/1/3
f 622/1/3 613/1/3 621/1/3
f 623/2/3 619/2/3 618/2/3
f 623/2/3 618/2/3 617/2/3
f 623/2/3 617/2/3 616/2/3
f 624/2/3 619/2/3 623/2/3
f 625/1/3 621/1/3 620/1/3
f 625/1/3 620/1/3 619/1/3
f 626/1/3 621/1/3 625/1/3
f 627/2/3 619/2/3 624/2/3
f 628/1/3 625/1/3 619/1/3
f 628/2/3 619/2/3 627/2/3
f 629/1/3 625/1/3 628/1/3
f 633/1/3 631/1/3 630/1/3
f 634/1/3 631/1/3 633/1/3
f 635/1/3 631/1/3 634/1/3
f 636/1/3 631/1/3 635/1/3
f 639/1/3 633/1/3 632/1/3
f 640/1/3 633/1/3 639/1/3
f 641/1/3 633/1/3 640/1/3
f 642/2/3 637/2/3 636/2/3
f 643/2/3 637/2/3 642/2/3
f 644/2/3 637/2/3 643/2/3
f 646/1/3 639/1/3 638/1/3
f 646/1/3 640/1/3 639/1/3
f 647/1/3 640/1/3 646/1/3
f 648/2/3 645/2/3 644/2/3
f 648/2/3 644/2/3 643/2/3
f 649/2/3 645/2/3 648/2/3
f 650/2/3 645/2/3 649/2/3
f 652/1/3 646/1/3 638/1/3
f 653/1/3 646/1/3 652/1/3
f 654/3/3 650/3/3 649/3/3
f 655/3/3 650/3/3 654/3/3
f 657/1/3 652/1/3 651/1/3
f 658/1/3 652/1/3 657/1/3
f 659/3/3 658/3/3 657/3/3
f 660/3/3 658/3/3 659/3/3
f 663/3/3 656/3/3 655/3/3
f 664/3/3 656/3/3 663/3/3
f 665/3/3 661/3/3 660/3/3
f 668/3/3 663/3/3 662/3/3
f 669/3/3 666/3/3 665/3/3
f 669/3/3 665/3/3 660/3/3
f 670/3/3 666/3/3 669/3/3
f 671/3/3 666/3/3 670/3/3
f 674/3/3 668/3/3 667/3/3
f 675/3/3 663/3/3 668/3/3
f 675/3/3 668/3/3 674/3/3
f 676/3/3 663/3/3 675/3/3
f 677/3/3 671/3/3 670/3/3
f 678/2/3 672/2/3 671/2/3
f 678/3/3 671/3/3 677/3/3
f 679/2/3 672/2/3 678/2/3
f 681/3/3 674/3/3 673/3/3
f 681/3/3 675/3/3 674/3/3
f 682/3/3 675/3/3 681/3/3
f 683/2/3 680/2/3 679/2/3
f 684/3/3 681/3/3 680/3/3
f 684/2/3 680/2/3 683/2/3
f 685/3/3 681/3/3 684/3/3
f 692/1/3 687/1/3 686/1/3
f 693/1/3 687/1/3 692/1/3
f 694/2/3 689/2/3 688/2/3
f 695/2/3 689/2/3 694/2/3
f 698/1/3 691/1/3 690/1/3
f 699/1/3 691/1/3 698/1/3
f 700/2/3 697/2/3 696/2/3
f 701/2/3 697/2/3 700/2/3
f 706/1/3 703/1/3 702/1/3
f 707/1/3 703/1/3 706/1/3
f 708/3/3 705/3/3 704/3/3
f 709/3/3 705/3/3 708/3/3
f 714/3/3 711/3/3 710/3/3
f 715/3/3 711/3/3 714/3/3
f 716/2/3 713/2/3 712/2/3
f 717/2/3 713/2/3 716/2/3
f 722/3/3 719/3/3 718/3/3
f 723/3/3 719/3/3 722/3/3
f 728/3/3 721/3/3 720/3/3
f 729/3/3 721/3/3 728/3/3
f 730/2/3 725/2/3 724/2/3
f 731/2/3 725/2/3 730/2/3
f 732/3/3 727/3/3 726/3/3
f 733/3/3 727/3/3 732/3/3
f 739/1/3 735/1/3 734/1/3
f 740/2/3 736/2/3 735/2/3
f 740/1/3 735/1/3 739/1/3
f 741/2/3 736/2/3 740/2/3
f 744/3/3 738/3/3 737/3/3
f 745/3/3 738/3/3 744/3/3
f 746/2/3 743/2/3 742/2/3
f 747/2/3 743/2/3 746/2/3
f 752/3/3 749/3/3 748/3/3
f 753/3/3 749/3/3 752/3/3
f 754/3/3 751/3/3 750/3/3
f 755/3/3 751/3/3 754/3/3
f 760/3/3 759/3/3 758/3/3
f 761/3/3 759/3/3 760/3/3
f 762/3/3 757/3/3 756/3/3
f 763/3/3 757/3/3 762/3/3
f 764/2/3 761/2/3 760/2/3
f 765/2/3 761/2/3 764/2/3
f 770/1/3 767/1/3 766/1/3
f 771/1/3 767/1/3 770/1/3
f 772/2/3 769/2/3 768/2/3
f 773/2/3 769/2/3 772/2/3
f 778/3/3 775/3/3 774/3/3
f 779/3/3 775/3/3 778/3/3
f 783/3/3 777/3/3 776/3/3
f 784/3/3 777/3/3 783/3/3
f 785/3/3 782/3/3 781/3/3
f 785/3/3 781/3/3 780/3/3
f 786/3/3 782/3/3 785/3/3
f 793/1/3 788/1/3 787/1/3
f 794/1/3 788/1/3 793/1/3
f 795/2/3 790/2/3 789/2/3
f 796/2/3 790/2/3 795/2/3
f 800/3/3 792/3/3 791/3/3
f 801/3/3 792/3/3 800/3/3
f 802/2/3 798/2/3 797/2/3
f 803/2/3 798/2/3 802/2/3
f 805/3/3 800/3/3 799/3/3
f 806/3/3 800/3/3 805/3/3
f 807/3/3 804/3/3 803/3/3
f 808/3/3 804/3/3 807/3/3
f 813/3/3 810/3/3 809/3/3
f 814/3/3 810/3/3 813/3/3
f 815/3/3 812/3/3 811/3/3
f 816/3/3 812/3/3 815/3/3
f 821/1/3 818/1/3 817/1/3
f 822/1/3 818/1/3 821/1/3
f 823/2/3 820/2/3 819/2/3
f 824/2/3 820/2/3 823/2/3
f 829/1/3 826/1/3 825/1/3
f 830/1/3 826/1/3 829/1/3
f 833/2/3 828/2/3 827/2/3
f 834/2/3 828/2/3 833/2/3
f 835/1/3 831/1/3 830/1/3
f 836/1/3 831/1/3 835/1/3
f 841/2/3 833/2/3 832/2/3
f 842/2/3 833/2/3 841/2/3
f 843/3/3 838/3/3 837/3/3
f 844/3/3 838/3/3 843/3/3
f 845/3/3 840/3/3 839/3/3
f 846/3/3 840/3/3 845/3/3
f 847/3/4 848/3/4 853/3/4
f 853/3/4 848/3/4 854/3/4
f 849/2/4 850/2/4 855/2/4
f 855/2/4 850/2/4 856/2/4
f 851/2/4 852/2/4 860/2/4
f 860/2/4 852/2/4 861/2/4
f 857/2/4 858/2/4 862/2/4
f 862/2/4 858/2/4 863/2/4
f 859/2/4 860/2/4 865/2/4
f 865/2/4 860/2/4 866/2/4
f 863/3/4 864/3/4 867/3/4
f 867/3/4 864/3/4 868/3/4
f 869/3/4 870/3/4 873/3/4
f 873/3/4 870/3/4 874/3/4
f 871/3/4 872/3/4 875/3/4
f 875/3/4 872/3/4 876/3/4
f 877/1/4 878/1/4 881/1/4
f 881/1/4 878/1/4 882/1/4
f 879/2/4 880/2/4 883/2/4
f 883/2/4 880/2/4 884/2/4
f 885/1/4 886/1/4 889/1/4
f 889/1/4 886/1/4 890/1/4
f 887/2/4 888/2/4 893/2/4
f 893/2/4 888/2/4 894/2/4
f 890/3/4 891/3/4 895/3/4
f 895/3/4 891/3/4 896/3/4
f 892/2/4 893/2/4 901/2/4
f 901/2/4 893/2/4 902/2/4
f 897/3/4 898/3/4 903/3/4
f 903/3/4 898/3/4 904/3/4
f 899/2/4 900/2/4 905/2/4
f 905/2/4 900/2/4 906/2/4
f 907/3/4 908/3/4 912/3/4
f 908/2/4 909/2/4 913/2/4
f 912/3/4 908/3/4 913/3/4
f 913/2/4 909/2/4 914/2/4
f 910/2/4 911/2/4 917/2/4
f 917/2/4 911/2/4 918/2/4
f 915/2/4 916/2/4 919/2/4
f 919/2/4 916/2/4 920/2/4
f 921/3/4 922/3/4 925/3/4
f 925/3/4 922/3/4 926/3/4
f 923/3/4 924/3/4 927/3/4
f 927/3/4 924/3/4 928/3/4
f 929/3/4 930/3/4 933/3/4
f 933/3/4 930/3/4 934/3/4
f 931/3/4 932/3/4 935/3/4
f 935/3/4 932/3/4 936/3/4
f 937/3/4 938/3/4 941/3/4
f 941/3/4 938/3/4 942/3/4
f 939/3/4 940/3/4 943/3/4
f 943/3/4 940/3/4 944/3/4
f 945/3/4 946/3/4 949/3/4
f 949/3/4 946/3/4 950/3/4
f 947/2/4 948/2/4 953/2/4
f 953/2/4 948/2/4 954/2/4
f 951/2/4 952/2/4 955/2/4
f 955/2/4 952/2/4 956/2/4
f 957/2/4 958/2/4 963/2/4
f 963/2/4 958/2/4 964/2/4
f 959/3/4 960/3/4 965/3/4
f 965/3/4 960/3/4 966/3/4
f 961/2/4 962/2/4 969/2/4
f 969/2/4 962/2/4 970/2/4
f 967/3/4 968/3/4 971/3/4
f 971/3/4 968/3/4 972/3/4
f 973/3/4 974/3/4 977/3/4
f 977/3/4 974/3/4 978/3/4
f 975/1/4 976/1/4 979/1/4
f 979/1/4 976/1/4 980/1/4
f 981/3/4 982/3/4 985/3/4
f 985/3/4 982/3/4 986/3/4
f 983/1/4 984/1/4 987/1/4
f 987/1/4 984/1/4 988/1/4
f 989/3/4 990/3/4 993/3/4
f 993/3/4 990/3/4 994/3/4
f 991/3/4 992/3/4 999/3/4
f 999/3/4 992/3/4 1000/3/4
f 995/2/4 996/2/4 1001/2/4
f 1001/2/4 996/2/4 1002/2/4
f 997/2/4 998/2/4 1003/2/4
f 1003/2/4 998/2/4 1004/2/4
f 1005/2/4 1006/2/4 1009/2/4
f 1006/3/4 1007/3/4 1010/3/4
f 1009/2/4 1006/2/4 1010/2/4
f 1010/3/4 1007/3/4 1011/3/4
f 1011/3/4 1007/3/4 1012/3/4
f 1008/2/4 1009/2/4 1015/2/4
f 1015/2/4 1009/2/4 1016/2/4
f 1016/2/4 1009/2/4 1017/2/4
f 1012/3/4 1013/3/4 1018/3/4
f 1018/3/4 1013/3/4 1019/3/4
f 1019/3/4 1013/3/4 1020/3/4
f 1014/2/4 1015/2/4 1022/2/4
f 1015/2/4 1016/2/4 1022/2/4
f 1022/2/4 1016/2/4 1023/2/4
f 1020/1/4 1021/1/4 1024/1/4
f 1019/1/4 1020/1/4 1024/1/4
f 1024/1/4 1021/1/4 1025/1/4
f 1014/2/4 1022/2/4 1027/2/4
f 1027/2/4 1022/2/4 1028/2/4
f 1025/1/4 1021/1/4 1029/1/4
f 1029/1/4 1021/1/4 1030/1/4
f 1026/3/4 1027/3/4 1032/3/4
f 1026/3/4 1032/3/4 1033/3/4
f 1033/3/4 1032/3/4 1034/3/4
f 1030/1/4 1031/1/4 1037/1/4
f 1037/1/4 1031/1/4 1038/1/4
f 1034/3/4 1035/3/4 1039/3/4
f 1036/1/4 1037/1/4 1042/1/4
f 1042/1/4 1037/1/4 1043/1/4
f 1034/3/4 1039/3/4 1044/3/4
f 1039/1/4 1040/1/4 1045/1/4
f 1044/3/4 1039/3/4 1045/3/4
f 1045/1/4 1040/1/4 1046/1/4
f 1041/3/4 1042/3/4 1049/3/4
f 1042/3/4 1043/3/4 1049/3/4
f 1049/3/4 1043/3/4 1050/3/4
f 1050/3/4 1043/3/4 1051/3/4
f 1045/3/4 1046/3/4 1052/3/4
f 1046/1/4 1047/1/4 1053/1/4
f 1052/3/4 1046/3/4 1053/3/4
f 1053/1/4 1047/1/4 1054/1/4
f 1048/2/4 1049/2/4 1057/2/4
f 1049/3/4 1050/3/4 1058/3/4
f 1057/2/4 1049/2/4 1058/2/4
f 1058/3/4 1050/3/4 1059/3/4
f 1054/1/4 1055/1/4 1060/1/4
f 1056/2/4 1057/2/4 1061/2/4
f 1060/1/4 1055/1/4 1061/1/4
f 1055/2/4 1056/2/4 1061/2/4
f 1061/2/4 1057/2/4 1062/2/4
f 1063/2/4 1064/2/4 1067/2/4
f 1064/3/4 1065/3/4 1068/3/4
f 1068/3/4 1065/3/4 1069/3/4
f 1066/2/4 1067/2/4 1072/2/4
f 1067/2/4 1064/2/4 1073/2/4
f 1072/2/4 1067/2/4 1073/2/4
f 1073/2/4 1064/2/4 1074/2/4
f 1064/3/4 1068/3/4 1075/3/4
f 1074/2/4 1064/2/4 1075/2/4
f 1069/1/4 1070/1/4 1076/1/4
f 1075/3/4 1068/3/4 1076/3/4
f 1068/1/4 1069/1/4 1076/1/4
f 1076/1/4 1070/1/4 1077/1/4
f 1077/1/4 1070/1/4 1078/1/4
f 1071/2/4 1072/2/4 1081/2/4
f 1072/2/4 1073/2/4 1081/2/4
f 1081/2/4 1073/2/4 1082/2/4
f 1082/2/4 1073/2/4 1083/2/4
f 1078/1/4 1079/1/4 1084/1/4
f 1077/1/4 1078/1/4 1084/1/4
f 1084/1/4 1079/1/4 1085/1/4
f 1085/1/4 1079/1/4 1086/1/4
f 1081/2/4 1082/2/4 1088/2/4
f 1080/2/4 1081/2/4 1088/2/4
f 1088/2/4 1082/2/4 1089/2/4
f 1086/1/4 1087/1/4 1090/1/4
f 1085/1/4 1086/1/4 1090/1/4
f 1088/3/4 1089/3/4 1091/3/4
f 1091/3/4 1089/3/4 1092/3/4
f 1088/3/4 1091/3/4 1093/3/4
f 1091/1/4 1092/1/4 1094/1/4
f 1093/3/4 1091/3/4 1094/3/4
f 1094/1/4 1092/1/4 1095/1/4
f 1090/1/4 1087/1/4 1098/1/4
f 1098/1/4 1087/1/4 1099/1/4
f 1099/1/4 1087/1/4 1100/1/4
f 1095/1/4 1096/1/4 1101/1/4
f 1094/1/4 1095/1/4 1101/1/4
f 1101/1/4 1096/1/4 1102/1/4
f 1102/1/4 1096/1/4 1103/1/4
f 1098/3/4 1099/3/4 1105/3/4
f 1097/3/4 1098/3/4 1105/3/4
f 1105/3/4 1099/3/4 1106/3/4
f 1106/3/4 1099/3/4 1107/3/4
f 1103/1/4 1104/1/4 1108/1/4
f 1102/1/4 1103/1/4 1108/1/4
f 1108/1/4 1104/1/4 1109/1/4
f 1105/3/4 1106/3/4 1110/3/4
f 1109/1/4 1104/1/4 1110/1/4
f 1104/3/4 1105/3/4 1110/3/4
f 1110/3/4 1106/3/4 1111/3/4
f 1111/3/4 1106/3/4 1112/3/4
f 1109/1/4 1110/1/4 1113/1/4
f 1110/2/4 1111/2/4 1114/2/4
f 1113/1/4 1110/1/4 1114/1/4
f 1114/2/4 1111/2/4 1115/2/4
f 1116/2/4 1117/2/4 1121/2/4
f 1117/3/4 1118/3/4 1122/3/4
f 1121/2/4 1117/2/4 1122/2/4
f 1118/1/4 1119/1/4 1123/1/4
f 1122/3/4 1118/3/4 1123/3/4
f 1123/1/4 1119/1/4 1124/1/4
f 1120/2/4 1121/2/4 1126/2/4
f 1121/3/4 1122/3/4 1127/3/4
f 1126/2/4 1121/2/4 1127/2/4
f 1122/3/4 1123/3/4 1127/3/4
f 1123/3/4 1124/3/4 1127/3/4
f 1127/3/4 1124/3/4 1128/3/4
f 1124/1/4 1125/1/4 1129/1/4
f 1128/3/4 1124/3/4 1129/3/4
f 1129/1/4 1125/1/4 1130/1/4
f 1127/1/4 1128/1/4 1131/1/4
f 1126/1/4 1127/1/4 1131/1/4
f 1129/3/4 1130/3/4 1131/3/4
f 1128/3/4 1129/3/4 1131/3/4
f 1131/3/4 1130/3/4 1132/3/4
f 1126/1/4 1131/1/4 1133/1/4
f 1131/1/4 1132/1/4 1133/1/4
f 1133/1/4 1132/1/4 1134/1/4
f 1132/3/4 1130/3/4 1135/3/4
f 1135/3/4 1130/3/4 1136/3/4
f 1134/1/4 1132/1/4 1137/1/4
f 1132/3/4 1135/3/4 1138/3/4
f 1137/1/4 1132/1/4 1138/1/4
f 1138/3/4 1135/3/4 1139/3/4
f 1143/3/5 1141/3/5 1140/3/5
f 1144/3/5 1141/3/5 1143/3/5
f 1145/3/5 1141/3/5 1144/3/5
f 1147/3/5 1143/3/5 1142/3/5
f 1147/3/5 1144/3/5 1143/3/5
f 1148/3/5 1144/3/5 1147/3/5
f 1149/1/5 1146/1/5 1145/1/5
f 1149/3/5 1144/3/5 1148/3/5
f 1149/1/5 1145/1/5 1144/1/5
f 1150/1/5 1146/1/5 1149/1/5
f 1151/1/5 1146/1/5 1150/1/5
f 1152/3/5 1149/3/5 1148/3/5
f 1152/3/5 1150/3/5 1149/3/5
f 1153/3/5 1150/3/5 1152/3/5
f 1158/1/5 1155/1/5 1154/1/5
f 1159/3/5 1156/3/5 1155/3/5
f 1159/1/5 1155/1/5 1158/1/5
f 1160/3/5 1156/3/5 1159/3/5
f 1163/1/5 1158/1/5 1157/1/5
f 1164/3/5 1161/3/5 1160/3/5
f 1164/3/5 1159/3/5 1158/3/5
f 1164/1/5 1158/1/5 1163/1/5
f 1164/3/5 1160/3/5 1159/3/5
f 1165/3/5 1161/3/5 1164/3/5
f 1166/3/5 1161/3/5 1165/3/5
f 1169/3/5 1163/3/5 1162/3/5
f 1169/3/5 1164/3/5 1163/3/5
f 1170/3/5 1164/3/5 1169/3/5
f 1171/3/5 1164/3/5 1170/3/5
f 1172/1/5 1166/1/5 1165/1/5
f 1172/1/5 1167/1/5 1166/1/5
f 1173/1/5 1167/1/5 1172/1/5
f 1174/1/5 1167/1/5 1173/1/5
f 1176/3/5 1170/3/5 1169/3/5
f 1176/3/5 1169/3/5 1168/3/5
f 1177/3/5 1170/3/5 1176/3/5
f 1178/2/5 1177/2/5 1176/2/5
f 1179/3/5 1170/3/5 1177/3/5
f 1179/2/5 1177/2/5 1178/2/5
f 1180/3/5 1170/3/5 1179/3/5
f 1183/1/5 1175/1/5 1174/1/5
f 1183/1/5 1174/1/5 1173/1/5
f 1184/1/5 1175/1/5 1183/1/5
f 1185/1/5 1175/1/5 1184/1/5
f 1186/3/5 1181/3/5 1180/3/5
f 1186/3/5 1180/3/5 1179/3/5
f 1187/3/5 1181/3/5 1186/3/5
f 1188/3/5 1181/3/5 1187/3/5
f 1189/3/5 1184/3/5 1183/3/5
f 1189/3/5 1183/3/5 1182/3/5
f 1190/3/5 1184/3/5 1189/3/5
f 1191/3/5 1184/3/5 1190/3/5
f 1192/3/5 1188/3/5 1187/3/5
f 1192/3/5 1190/3/5 1189/3/5
f 1192/3/5 1189/3/5 1188/3/5
f 1193/3/5 1190/3/5 1192/3/5
f 1194/3/5 1190/3/5 1193/3/5
f 1195/3/5 1190/3/5 1194/3/5
f 1196/3/5 1194/3/5 1193/3/5
f 1197/3/5 1194/3/5 1196/3/5
f 1202/1/5 1199/1/5 1198/1/5
f 1203/2/5 1200/2/5 1199/2/5
f 1203/1/5 1199/1/5 1202/1/5
f 1204/2/5 1200/2/5 1203/2/5
f 1207/1/5 1202/1/5 1201/1/5
f 1208/1/5 1202/1/5 1207/1/5
f 1209/1/5 1202/1/5 1208/1/5
f 1210/3/5 1205/3/5 1204/3/5
f 1211/3/5 1205/3/5 1210/3/5
f 1212/3/5 1205/3/5 1211/3/5
f 1214/1/5 1207/1/5 1206/1/5
f 1214/1/5 1208/1/5 1207/1/5
f 1215/1/5 1208/1/5 1214/1/5
f 1216/1/5 1208/1/5 1215/1/5
f 1217/3/5 1213/3/5 1212/3/5
f 1217/3/5 1212/3/5 1211/3/5
f 1218/3/5 1213/3/5 1217/3/5
f 1219/3/5 1213/3/5 1218/3/5
f 1221/3/5 1215/3/5 1214/3/5
f 1222/3/5 1215/3/5 1221/3/5
f 1223/1/5 1219/1/5 1218/1/5
f 1224/1/5 1219/1/5 1223/1/5
f 1226/3/5 1221/3/5 1220/3/5
f 1227/3/5 1221/3/5 1226/3/5
f 1228/2/5 1227/2/5 1226/2/5
f 1229/1/5 1225/1/5 1224/1/5
f 1230/1/5 1225/1/5 1229/1/5
f 1231/2/5 1228/2/5 1226/2/5
f 1232/2/5 1228/2/5 1231/2/5
f 1235/3/5 1230/3/5 1229/3/5
f 1236/3/5 1230/3/5 1235/3/5
f 1237/2/5 1233/2/5 1232/2/5
f 1240/3/5 1235/3/5 1234/3/5
f 1241/2/5 1238/2/5 1237/2/5
f 1241/2/5 1237/2/5 1232/2/5
f 1242/2/5 1238/2/5 1241/2/5
f 1243/2/5 1238/2/5 1242/2/5
f 1246/3/5 1240/3/5 1239/3/5
f 1247/3/5 1235/3/5 1240/3/5
f 1247/3/5 1240/3/5 1246/3/5
f 1248/3/5 1235/3/5 1247/3/5
f 1249/2/5 1244/2/5 1243/2/5
f 1249/2/5 1243/2/5 1242/2/5
f 1250/2/5 1244/2/5 1249/2/5
f 1252/3/5 1246/3/5 1245/3/5
f 1252/3/5 1247/3/5 1246/3/5
f 1253/3/5 1247/3/5 1252/3/5
f 1254/2/5 1251/2/5 1250/2/5
f 1255/3/5 1252/3/5 1251/3/5
f 1255/2/5 1251/2/5 1254/2/5
f 1256/3/5 1252/3/5 1255/3/5
f 1263/1/5 1258/1/5 1257/1/5
f 1264/1/5 1258/1/5 1263/1/5
f 1265/2/5 1260/2/5 1259/2/5
f 1266/2/5 1260/2/5 1265/2/5
f 1269/1/5 1262/1/5 1261/1/5
f 1270/1/5 1262/1/5 1269/1/5
f 1271/3/5 1268/3/5 1267/3/5
f 1272/3/5 1268/3/5 1271/3/5
f 1277/3/5 1274/3/5 1273/3/5
f 1278/3/5 1274/3/5 1277/3/5
f 1279/3/5 1276/3/5 1275/3/5
f 1280/3/5 1276/3/5 1279/3/5
f 1285/2/5 1282/2/5 1281/2/5
f 1286/2/5 1282/2/5 1285/2/5
f 1287/3/5 1284/3/5 1283/3/5
f 1288/3/5 1284/3/5 1287/3/5
f 1293/2/5 1290/2/5 1289/2/5
f 1294/2/5 1290/2/5 1293/2/5
f 1299/3/5 1292/3/5 1291/3/5
f 1300/3/5 1292/3/5 1299/3/5
f 1301/2/5 1296/2/5 1295/2/5
f 1302/2/5 1296/2/5 1301/2/5
f 1303/1/5 1298/1/5 1297/1/5
f 1304/1/5 1298/1/5 1303/1/5
f 1310/3/5 1306/3/5 1305/3/5
f 1311/2/5 1307/2/5 1306/2/5
f 1311/3/5 1306/3/5 1310/3/5
f 1312/2/5 1307/2/5 1311/2/5
f 1315/1/5 1309/1/5 1308/1/5
f 1316/1/5 1309/1/5 1315/1/5
f 1317/2/5 1314/2/5 1313/2/5
f 1318/2/5 1314/2/5 1317/2/5
f 1323/1/5 1320/1/5 1319/1/5
f 1324/1/5 1320/1/5 1323/1/5
f 1325/2/5 1322/2/5 1321/2/5
f 1326/2/5 1322/2/5 1325/2/5
f 1331/1/5 1328/1/5 1327/1/5
f 1332/1/5 1328/1/5 1331/1/5
f 1333/3/5 1332/3/5 1331/3/5
f 1334/3/5 1332/3/5 1333/3/5
f 1335/3/5 1330/3/5 1329/3/5
f 1336/3/5 1330/3/5 1335/3/5
f 1341/2/5 1338/2/5 1337/2/5
f 1342/2/5 1338/2/5 1341/2/5
f 1343/2/5 1340/2/5 1339/2/5
f 1344/2/5 1340/2/5 1343/2/5
f 1349/2/5 1346/2/5 1345/2/5
f 1350/2/5 1346/2/5 1349/2/5
f 1355/1/5 1348/1/5 1347/1/5
f 1356/1/5 1348/1/5 1355/1/5
f 1357/2/5 1352/2/5 1351/2/5
f 1358/1/5 1354/1/5 1353/1/5
f 1358/2/5 1352/2/5 1357/2/5
f 1358/1/5 1353/1/5 1352/1/5
f 1359/1/5 1354/1/5 1358/1/5
f 1366/1/5 1361/1/5 1360/1/5
f 1367/1/5 1361/1/5 1366/1/5
f 1368/2/5 1363/2/5 1362/2/5
f 1369/2/5 1363/2/5 1368/2/5
f 1373/3/5 1365/3/5 1364/3/5
f 1374/3/5 1365/3/5 1373/3/5
f 1375/2/5 1371/2/5 1370/2/5
f 1376/2/5 1371/2/5 1375/2/5
f 1378/1/5 1373/1/5 1372/1/5
f 1379/1/5 1373/1/5 1378/1/5
f 1380/2/5 1377/2/5 1376/2/5
f 1381/2/5 1377/2/5 1380/2/5
f 1386/1/5 1383/1/5 1382/1/5
f 1387/1/5 1383/1/5 1386/1/5
f 1388/3/5 1385/3/5 1384/3/5
f 1389/3/5 1385/3/5 1388/3/5
f 1394/3/5 1391/3/5 1390/3/5
f 1395/3/5 1391/3/5 1394/3/5
f 1396/2/5 1393/2/5 1392/2/5
f 1397/2/5 1393/2/5 1396/2/5
f 1402/2/5 1399/2/5 1398/2/5
f 1403/2/5 1399/2/5 1402/2/5
f 1406/1/5 1401/1/5 1400/1/5
f 1407/1/5 1401/1/5 1406/1/5
f 1408/2/5 1404/2/5 1403/2/5
f 1409/2/5 1404/2/5 1408/2/5
f 1414/1/5 1406/1/5 1405/1/5
f 1415/1/5 1406/1/5 1414/1/5
f 1416/2/5 1411/2/5 1410/2/5
f 1417/2/5 1411/2/5 1416/2/5
f 1418/1/5 1413/1/5 1412/1/5
f 1419/1/5 1413/1/5 1418/1/5
f 1420/1/6 1421/1/6 1426/1/6
f 1426/1/6 1421/1/6 1427/1/6
f 1422/1/6 1423/1/6 1428/1/6
f 1428/1/6 1423/1/6 1429/1/6
f 1424/2/6 1425/2/6 1433/2/6
f 1433/2/6 1425/2/6 1434/2/6
f 1430/1/6 1431/1/6 1435/1/6
f 1435/1/6 1431/1/6 1436/1/6
f 1432/1/6 1433/1/6 1438/1/6
f 1438/1/6 1433/1/6 1439/1/6
f 1436/3/6 1437/3/6 1440/3/6
f 1440/3/6 1437/3/6 1441/3/6
f 1442/2/6 1443/2/6 1446/2/6
f 1446/2/6 1443/2/6 1447/2/6
f 1444/3/6 1445/3/6 1448/3/6
f 1448/3/6 1445/3/6 1449/3/6
f 1450/2/6 1451/2/6 1454/2/6
f 1454/2/6 1451/2/6 1455/2/6
f 1452/2/6 1453/2/6 1456/2/6
f 1456/2/6 1453/2/6 1457/2/6
f 1458/3/6 1459/3/6 1462/3/6
f 1462/3/6 1459/3/6 1463/3/6
f 1460/2/6 1461/2/6 1466/2/6
f 1466/2/6 1461/2/6 1467/2/6
f 1463/3/6 1464/3/6 1468/3/6
f 1468/3/6 1464/3/6 1469/3/6
f 1465/2/6 1466/2/6 1474/2/6
f 1474/2/6 1466/2/6 1475/2/6
f 1470/1/6 1471/1/6 1476/1/6
f 1476/1/6 1471/1/6 1477/1/6
f 1472/3/6 1473/3/6 1478/3/6
f 1478/3/6 1473/3/6 1479/3/6
f 1480/1/6 1481/1/6 1484/1/6
f 1484/1/6 1481/1/6 1485/1/6
f 1482/2/6 1483/2/6 1488/2/6
f 1488/2/6 1483/2/6 1489/2/6
f 1486/1/6 1487/1/6 1490/1/6
f 1490/1/6 1487/1/6 1491/1/6
f 1492/2/6 1493/2/6 1496/2/6
f 1496/2/6 1493/2/6 1497/2/6
f 1494/3/6 1495/3/6 1498/3/6
f 1498/3/6 1495/3/6 1499/3/6
f 1502/3/6 1503/3/6 1504/3/6
f 1504/3/6 1503/3/6 1505/3/6
f 1500/2/6 1501/2/6 1506/2/6
f 1506/2/6 1501/2/6 1507/2/6
f 1504/2/6 1505/2/6 1508/2/6
f 1508/2/6 1505/2/6 1509/2/6
f 1510/3/6 1511/3/6 1514/3/6
f 1514/3/6 1511/3/6 1515/3/6
f 1512/2/6 1513/2/6 1516/2/6
f 1516/2/6 1513/2/6 1517/2/6
f 1518/1/6 1519/1/6 1522/1/6
f 1522/1/6 1519/1/6 1523/1/6
f 1520/3/6 1521/3/6 1527/3/6
f 1527/3/6 1521/3/6 1528/3/6
f 1524/1/6 1525/1/6 1529/1/6
f 1525/3/6 1526/3/6 1530/3/6
f 1529/1/6 1525/1/6 1530/1/6
f 1530/3/6 1526/3/6 1531/3/6
f 1532/3/6 1533/3/6 1538/3/6
f 1538/3/6 1533/3/6 1539/3/6
f 1534/1/6 1535/1/6 1540/1/6
f 1540/1/6 1535/1/6 1541/1/6
f 1536/2/6 1537/2/6 1544/2/6
f 1544/2/6 1537/2/6 1545/2/6
f 1542/3/6 1543/3/6 1546/3/6
f 1546/3/6 1543/3/6 1547/3/6
f 1548/2/6 1549/2/6 1552/2/6
f 1552/2/6 1549/2/6 1553/2/6
f 1550/3/6 1551/3/6 1554/3/6
f 1554/3/6 1551/3/6 1555/3/6
f 1556/2/6 1557/2/6 1560/2/6
f 1560/2/6 1557/2/6 1561/2/6
f 1558/2/6 1559/2/6 1562/2/6
f 1562/2/6 1559/2/6 1563/2/6
f 1564/3/6 1565/3/6 1568/3/6
f 1568/3/6 1565/3/6 1569/3/6
f 1566/3/6 1567/3/6 1574/3/6
f 1574/3/6 1567/3/6 1575/3/6
f 1570/1/6 1571/1/6 1576/1/6
f 1576/1/6 1571/1/6 1577/1/6
f 1572/3/6 1573/3/6 1578/3/6
f 1578/3/6 1573/3/6 1579/3/6
f 1580/3/6 1581/3/6 1584/3/6
f 1584/3/6 1581/3/6 1585/3/6
f 1582/2/6 1583/2/6 1588/2/6
f 1583/3/6 1584/3/6 1589/3/6
f 1588/2/6 1583/2/6 1589/2/6
f 1589/3/6 1584/3/6 1590/3/6
f 1585/3/6 1586/3/6 1591/3/6
f 1591/3/6 1586/3/6 1592/3/6
f 1592/3/6 1586/3/6 1593/3/6
f 1587/2/6 1588/2/6 1595/2/6
f 1588/2/6 1589/2/6 1595/2/6
f 1595/2/6 1589/2/6 1596/2/6
f 1592/2/6 1593/2/6 1597/2/6
f 1593/3/6 1594/3/6 1598/3/6
f 1597/2/6 1593/2/6 1598/2/6
f 1598/3/6 1594/3/6 1599/3/6
f 1587/2/6 1595/2/6 1601/2/6
f 1601/2/6 1595/2/6 1602/2/6
f 1598/2/6 1599/2/6 1603/2/6
f 1603/2/6 1599/2/6 1604/2/6
f 1600/2/6 1601/2/6 1606/2/6
f 1606/2/6 1601/2/6 1607/2/6
f 1604/2/6 1605/2/6 1610/2/6
f 1610/2/6 1605/2/6 1611/2/6
f 1607/3/6 1608/3/6 1612/3/6
f 1609/2/6 1610/2/6 1615/2/6
f 1615/2/6 1610/2/6 1616/2/6
f 1607/3/6 1612/3/6 1617/3/6
f 1612/1/6 1613/1/6 1618/1/6
f 1617/3/6 1612/3/6 1618/3/6
f 1618/1/6 1613/1/6 1619/1/6
f 1614/3/6 1615/3/6 1622/3/6
f 1615/3/6 1616/3/6 1622/3/6
f 1622/3/6 1616/3/6 1623/3/6
f 1623/3/6 1616/3/6 1624/3/6
f 1619/1/6 1620/1/6 1625/1/6
f 1618/1/6 1619/1/6 1625/1/6
f 1625/1/6 1620/1/6 1626/1/6
f 1621/1/6 1622/1/6 1627/1/6
f 1622/3/6 1623/3/6 1628/3/6
f 1627/1/6 1622/1/6 1628/1/6
f 1628/3/6 1623/3/6 1629/3/6
f 1626/1/6 1627/1/6 1630/1/6
f 1630/1/6 1627/1/6 1631/1/6
f 1632/3/6 1633/3/6 1635/3/6
f 1635/3/6 1633/3/6 1636/3/6
f 1634/3/6 1635/3/6 1639/3/6
f 1635/3/6 1636/3/6 1639/3/6
f 1639/3/6 1636/3/6 1640/3/6
f 1640/3/6 1636/3/6 1641/3/6
f 1636/2/6 1637/2/6 1642/2/6
f 1641/3/6 1636/3/6 1642/3/6
f 1642/2/6 1637/2/6 1643/2/6
f 1638/3/6 1639/3/6 1646/3/6
f 1639/3/6 1640/3/6 1646/3/6
f 1646/3/6 1640/3/6 1647/3/6
f 1647/3/6 1640/3/6 1648/3/6
f 1643/2/6 1644/2/6 1649/2/6
f 1642/2/6 1643/2/6 1649/2/6
f 1649/2/6 1644/2/6 1650/2/6
f 1650/2/6 1644/2/6 1651/2/6
f 1646/3/6 1647/3/6 1653/3/6
f 1645/3/6 1646/3/6 1653/3/6
f 1653/3/6 1647/3/6 1654/3/6
f 1654/3/6 1647/3/6 1655/3/6
f 1651/2/6 1652/2/6 1658/2/6
f 1650/2/6 1651/2/6 1658/2/6
f 1658/2/6 1652/2/6 1659/2/6
f 1659/2/6 1652/2/6 1660/2/6
f 1655/3/6 1656/3/6 1661/3/6
f 1654/3/6 1655/3/6 1661/3/6
f 1661/3/6 1656/3/6 1662/3/6
f 1662/3/6 1656/3/6 1663/3/6
f 1658/3/6 1659/3/6 1664/3/6
f 1657/3/6 1658/3/6 1664/3/6
f 1664/3/6 1659/3/6 1665/3/6
f 1665/3/6 1659/3/6 1666/3/6
f 1662/1/6 1663/1/6 1667/1/6
f 1664/1/6 1665/1/6 1667/1/6
f 1663/1/6 1664/1/6 1667/1/6
f 1667/1/6 1665/1/6 1668/1/6
f 1668/1/6 1665/1/6 1669/1/6
f 1669/1/6 1665/1/6 1670/1/6
f 1668/1/6 1669/1/6 1671/1/6
f 1671/1/6 1669/1/6 1672/1/6
f 1673/3/6 1674/3/6 1677/3/6
f 1674/2/6 1675/2/6 1678/2/6
f 1676/3/6 1677/3/6 1680/3/6
f 1677/3/6 1674/3/6 1681/3/6
f 1680/3/6 1677/3/6 1681/3/6
f 1678/2/6 1679/2/6 1682/2/6
f 1681/3/6 1674/3/6 1682/3/6
f 1674/2/6 1678/2/6 1682/2/6
f 1682/2/6 1679/2/6 1683/2/6
f 1683/2/6 1679/2/6 1684/2/6
f 1681/3/6 1682/3/6 1685/3/6
f 1682/3/6 1683/3/6 1685/3/6
f 1685/3/6 1683/3/6 1686/3/6
