# MagicaVoxel @ Ephtracy

# group
o 

# material
mtllib sierra.mtl
usemtl palette

# normals
vn -1 0 0
vn 1 0 0
vn 0 0 1
vn 0 0 -1
vn 0 -1 0
vn 0 1 0

# texcoords
vt 0.697266 0.5
vt 0.705078 0.5
vt 0.728516 0.5
vt 0.736328 0.5
vt 0.880859 0.5
vt 0.884766 0.5
vt 0.919922 0.5

# verts
v -9.3 6.5 -34
v -9.3 6.5 -34.1
v -9.3 6.5 -34.8
v -9.3 6.5 -34.9
v -9.3 6.7 -34
v -9.3 6.7 -34.1
v -9.3 6.7 -34.8
v -9.3 6.7 -34.9
v -9.2 6.2 -34
v -9.2 6.2 -34.1
v -9.2 6.2 -34.8
v -9.2 6.2 -34.9
v -9.2 6.5 -34
v -9.2 6.5 -34.1
v -9.2 6.5 -34.8
v -9.2 6.5 -34.9
v -9.2 6.6 -33.9
v -9.2 6.6 -34
v -9.2 6.6 -34.1
v -9.2 6.6 -34.8
v -9.2 6.6 -34.9
v -9.2 6.6 -35
v -9.2 6.7 -33.9
v -9.2 6.7 -34
v -9.2 6.7 -34.1
v -9.2 6.7 -34.8
v -9.2 6.7 -34.9
v -9.2 6.7 -35
v -9.1 6.5 -33.9
v -9.1 6.5 -34
v -9.1 6.5 -34.1
v -9.1 6.5 -34.8
v -9.1 6.5 -34.9
v -9.1 6.5 -35
v -9.1 6.6 -33.9
v -9.1 6.6 -34
v -9.1 6.6 -34.1
v -9.1 6.6 -34.8
v -9.1 6.6 -34.9
v -9.1 6.6 -35
v -9 6.7 -34.2
v -9 6.7 -34.3
v -9 6.7 -34.4
v -9 6.7 -34.5
v -9 6.7 -34.6
v -9 6.7 -34.7
v -9 6.8 -34.2
v -9 6.8 -34.3
v -9 6.8 -34.4
v -9 6.8 -34.5
v -9 6.8 -34.6
v -9 6.8 -34.7
v -9 6.9 -34.2
v -9 6.9 -34.3
v -9 6.9 -34.4
v -9 6.9 -34.5
v -9 6.9 -34.6
v -9 6.9 -34.7
v -9 7 -34.2
v -9 7 -34.3
v -9 7 -34.4
v -9 7 -34.5
v -9 7 -34.6
v -9 7 -34.7
v -8.8 6.2 -34
v -8.8 6.2 -34.1
v -8.8 6.2 -34.8
v -8.8 6.2 -34.9
v -8.8 6.4 -34
v -8.8 6.4 -34.1
v -8.8 6.4 -34.8
v -8.8 6.4 -34.9
v -9.1 6.2 -34
v -9.1 6.2 -34.1
v -9.1 6.2 -34.8
v -9.1 6.2 -34.9
v -9.1 6.4 -34
v -9.1 6.4 -34.1
v -9.1 6.4 -34.8
v -9.1 6.4 -34.9
v -8.9 6.7 -34.2
v -8.9 6.7 -34.3
v -8.9 6.7 -34.4
v -8.9 6.7 -34.5
v -8.9 6.7 -34.6
v -8.9 6.7 -34.7
v -8.9 6.8 -34.2
v -8.9 6.8 -34.3
v -8.9 6.8 -34.4
v -8.9 6.8 -34.5
v -8.9 6.8 -34.6
v -8.9 6.8 -34.7
v -8.9 6.9 -34.2
v -8.9 6.9 -34.3
v -8.9 6.9 -34.4
v -8.9 6.9 -34.5
v -8.9 6.9 -34.6
v -8.9 6.9 -34.7
v -8.9 7 -34.2
v -8.9 7 -34.3
v -8.9 7 -34.4
v -8.9 7 -34.5
v -8.9 7 -34.6
v -8.9 7 -34.7
v -8.8 6.5 -33.9
v -8.8 6.5 -34
v -8.8 6.5 -34.1
v -8.8 6.5 -34.8
v -8.8 6.5 -34.9
v -8.8 6.5 -35
v -8.8 6.6 -33.9
v -8.8 6.6 -34
v -8.8 6.6 -34.1
v -8.8 6.6 -34.8
v -8.8 6.6 -34.9
v -8.8 6.6 -35
v -8.7 6.2 -34
v -8.7 6.2 -34.1
v -8.7 6.2 -34.8
v -8.7 6.2 -34.9
v -8.7 6.5 -34
v -8.7 6.5 -34.1
v -8.7 6.5 -34.8
v -8.7 6.5 -34.9
v -8.7 6.6 -33.9
v -8.7 6.6 -34
v -8.7 6.6 -34.1
v -8.7 6.6 -34.8
v -8.7 6.6 -34.9
v -8.7 6.6 -35
v -8.7 6.7 -33.9
v -8.7 6.7 -34
v -8.7 6.7 -34.1
v -8.7 6.7 -34.8
v -8.7 6.7 -34.9
v -8.7 6.7 -35
v -8.6 6.5 -34
v -8.6 6.5 -34.1
v -8.6 6.5 -34.8
v -8.6 6.5 -34.9
v -8.6 6.7 -34
v -8.6 6.7 -34.1
v -8.6 6.7 -34.8
v -8.6 6.7 -34.9
v -9.2 6.6 -33.9
v -9.2 6.7 -33.9
v -9.1 6.5 -33.9
v -9.1 6.6 -33.9
v -9.1 6.7 -33.9
v -8.8 6.5 -33.9
v -8.8 6.6 -33.9
v -8.8 6.7 -33.9
v -8.7 6.6 -33.9
v -8.7 6.7 -33.9
v -9.3 6.5 -34
v -9.3 6.7 -34
v -9.2 6.2 -34
v -9.2 6.5 -34
v -9.2 6.6 -34
v -9.2 6.7 -34
v -9.1 6.2 -34
v -9.1 6.4 -34
v -9.1 6.5 -34
v -9.1 6.6 -34
v -8.8 6.2 -34
v -8.8 6.4 -34
v -8.8 6.5 -34
v -8.8 6.6 -34
v -8.7 6.2 -34
v -8.7 6.5 -34
v -8.7 6.6 -34
v -8.7 6.7 -34
v -8.6 6.5 -34
v -8.6 6.7 -34
v -9 6.7 -34.2
v -9 6.8 -34.2
v -9 6.9 -34.2
v -9 7 -34.2
v -8.9 6.7 -34.2
v -8.9 6.8 -34.2
v -8.9 6.9 -34.2
v -8.9 7 -34.2
v -9 6.8 -34.3
v -9 6.9 -34.3
v -8.9 6.8 -34.3
v -8.9 6.9 -34.3
v -9 6.9 -34.4
v -9 7 -34.4
v -8.9 6.9 -34.4
v -8.9 7 -34.4
v -9 6.9 -34.6
v -9 7 -34.6
v -8.9 6.9 -34.6
v -8.9 7 -34.6
v -9.3 6.5 -34.8
v -9.3 6.7 -34.8
v -9.2 6.2 -34.8
v -9.2 6.5 -34.8
v -9.2 6.6 -34.8
v -9.2 6.7 -34.8
v -9.1 6.2 -34.8
v -9.1 6.4 -34.8
v -9.1 6.5 -34.8
v -9.1 6.6 -34.8
v -9 6.5 -34.8
v -8.9 6.5 -34.8
v -8.8 6.2 -34.8
v -8.8 6.4 -34.8
v -8.8 6.5 -34.8
v -8.8 6.6 -34.8
v -8.7 6.2 -34.8
v -8.7 6.5 -34.8
v -8.7 6.6 -34.8
v -8.7 6.7 -34.8
v -8.6 6.5 -34.8
v -8.6 6.7 -34.8
v -9.3 6.5 -34.1
v -9.3 6.7 -34.1
v -9.2 6.2 -34.1
v -9.2 6.5 -34.1
v -9.2 6.6 -34.1
v -9.2 6.7 -34.1
v -9.1 6.2 -34.1
v -9.1 6.4 -34.1
v -9.1 6.5 -34.1
v -9.1 6.6 -34.1
v -9 6.5 -34.1
v -8.9 6.5 -34.1
v -8.8 6.2 -34.1
v -8.8 6.4 -34.1
v -8.8 6.5 -34.1
v -8.8 6.6 -34.1
v -8.7 6.2 -34.1
v -8.7 6.5 -34.1
v -8.7 6.6 -34.1
v -8.7 6.7 -34.1
v -8.6 6.5 -34.1
v -8.6 6.7 -34.1
v -9 6.9 -34.3
v -9 7 -34.3
v -8.9 6.9 -34.3
v -8.9 7 -34.3
v -9 6.9 -34.5
v -9 7 -34.5
v -8.9 6.9 -34.5
v -8.9 7 -34.5
v -9 6.8 -34.6
v -9 6.9 -34.6
v -8.9 6.8 -34.6
v -8.9 6.9 -34.6
v -9 6.7 -34.7
v -9 6.8 -34.7
v -9 6.9 -34.7
v -9 7 -34.7
v -8.9 6.7 -34.7
v -8.9 6.8 -34.7
v -8.9 6.9 -34.7
v -8.9 7 -34.7
v -9.3 6.5 -34.9
v -9.3 6.7 -34.9
v -9.2 6.2 -34.9
v -9.2 6.5 -34.9
v -9.2 6.6 -34.9
v -9.2 6.7 -34.9
v -9.1 6.2 -34.9
v -9.1 6.4 -34.9
v -9.1 6.5 -34.9
v -9.1 6.6 -34.9
v -8.8 6.2 -34.9
v -8.8 6.4 -34.9
v -8.8 6.5 -34.9
v -8.8 6.6 -34.9
v -8.7 6.2 -34.9
v -8.7 6.5 -34.9
v -8.7 6.6 -34.9
v -8.7 6.7 -34.9
v -8.6 6.5 -34.9
v -8.6 6.7 -34.9
v -9.2 6.6 -35
v -9.2 6.7 -35
v -9.1 6.5 -35
v -9.1 6.6 -35
v -9.1 6.7 -35
v -8.8 6.5 -35
v -8.8 6.6 -35
v -8.8 6.7 -35
v -8.7 6.6 -35
v -8.7 6.7 -35
v -9.2 6.2 -34
v -9.1 6.2 -34
v -8.8 6.2 -34
v -8.7 6.2 -34
v -9.2 6.2 -34.1
v -9.1 6.2 -34.1
v -8.8 6.2 -34.1
v -8.7 6.2 -34.1
v -9.2 6.2 -34.8
v -9.1 6.2 -34.8
v -8.8 6.2 -34.8
v -8.7 6.2 -34.8
v -9.2 6.2 -34.9
v -9.1 6.2 -34.9
v -8.8 6.2 -34.9
v -8.7 6.2 -34.9
v -9.1 6.4 -34
v -8.8 6.4 -34
v -9.1 6.4 -34.1
v -8.8 6.4 -34.1
v -9.1 6.4 -34.8
v -8.8 6.4 -34.8
v -9.1 6.4 -34.9
v -8.8 6.4 -34.9
v -9.1 6.5 -33.9
v -8.8 6.5 -33.9
v -9.3 6.5 -34
v -9.2 6.5 -34
v -9.1 6.5 -34
v -8.8 6.5 -34
v -8.7 6.5 -34
v -8.6 6.5 -34
v -9.3 6.5 -34.1
v -9.2 6.5 -34.1
v -9.1 6.5 -34.1
v -9 6.5 -34.1
v -8.9 6.5 -34.1
v -8.8 6.5 -34.1
v -8.7 6.5 -34.1
v -8.6 6.5 -34.1
v -9.3 6.5 -34.8
v -9.2 6.5 -34.8
v -9.1 6.5 -34.8
v -9 6.5 -34.8
v -8.9 6.5 -34.8
v -8.8 6.5 -34.8
v -8.7 6.5 -34.8
v -8.6 6.5 -34.8
v -9.3 6.5 -34.9
v -9.2 6.5 -34.9
v -9.1 6.5 -34.9
v -8.8 6.5 -34.9
v -8.7 6.5 -34.9
v -8.6 6.5 -34.9
v -9.1 6.5 -35
v -8.8 6.5 -35
v -9.2 6.6 -33.9
v -9.1 6.6 -33.9
v -8.8 6.6 -33.9
v -8.7 6.6 -33.9
v -9.2 6.6 -34
v -9.1 6.6 -34
v -8.8 6.6 -34
v -8.7 6.6 -34
v -9.2 6.6 -34.1
v -9.1 6.6 -34.1
v -8.8 6.6 -34.1
v -8.7 6.6 -34.1
v -9.2 6.6 -34.8
v -9.1 6.6 -34.8
v -8.8 6.6 -34.8
v -8.7 6.6 -34.8
v -9.2 6.6 -34.9
v -9.1 6.6 -34.9
v -8.8 6.6 -34.9
v -8.7 6.6 -34.9
v -9.2 6.6 -35
v -9.1 6.6 -35
v -8.8 6.6 -35
v -8.7 6.6 -35
v -9 6.9 -34.2
v -8.9 6.9 -34.2
v -9 6.9 -34.3
v -8.9 6.9 -34.3
v -9 6.9 -34.6
v -8.9 6.9 -34.6
v -9 6.9 -34.7
v -8.9 6.9 -34.7
v -9.2 6.7 -33.9
v -9.1 6.7 -33.9
v -8.8 6.7 -33.9
v -8.7 6.7 -33.9
v -9.3 6.7 -34
v -9.2 6.7 -34
v -8.7 6.7 -34
v -8.6 6.7 -34
v -9.3 6.7 -34.1
v -9.2 6.7 -34.1
v -8.7 6.7 -34.1
v -8.6 6.7 -34.1
v -9 6.7 -34.2
v -8.9 6.7 -34.2
v -9 6.7 -34.3
v -8.9 6.7 -34.3
v -9 6.7 -34.4
v -8.9 6.7 -34.4
v -9 6.7 -34.5
v -8.9 6.7 -34.5
v -9 6.7 -34.6
v -8.9 6.7 -34.6
v -9 6.7 -34.7
v -8.9 6.7 -34.7
v -9.3 6.7 -34.8
v -9.2 6.7 -34.8
v -8.7 6.7 -34.8
v -8.6 6.7 -34.8
v -9.3 6.7 -34.9
v -9.2 6.7 -34.9
v -8.7 6.7 -34.9
v -8.6 6.7 -34.9
v -9.2 6.7 -35
v -9.1 6.7 -35
v -8.8 6.7 -35
v -8.7 6.7 -35
v -9 6.8 -34.2
v -8.9 6.8 -34.2
v -9 6.8 -34.3
v -8.9 6.8 -34.3
v -9 6.8 -34.6
v -8.9 6.8 -34.6
v -9 6.8 -34.7
v -8.9 6.8 -34.7
v -9 6.9 -34.3
v -8.9 6.9 -34.3
v -9 6.9 -34.4
v -8.9 6.9 -34.4
v -9 6.9 -34.5
v -8.9 6.9 -34.5
v -9 6.9 -34.6
v -8.9 6.9 -34.6
v -9 7 -34.2
v -8.9 7 -34.2
v -9 7 -34.3
v -8.9 7 -34.3
v -9 7 -34.4
v -8.9 7 -34.4
v -9 7 -34.5
v -8.9 7 -34.5
v -9 7 -34.6
v -8.9 7 -34.6
v -9 7 -34.7
v -8.9 7 -34.7

# faces
f 5/3/1 2/3/1 1/3/1
f 6/3/1 2/3/1 5/3/1
f 7/3/1 4/3/1 3/3/1
f 8/3/1 4/3/1 7/3/1
f 13/3/1 10/3/1 9/3/1
f 14/3/1 10/3/1 13/3/1
f 15/3/1 12/3/1 11/3/1
f 16/3/1 12/3/1 15/3/1
f 23/3/1 18/3/1 17/3/1
f 24/3/1 18/3/1 23/3/1
f 25/3/1 20/3/1 19/3/1
f 26/3/1 20/3/1 25/3/1
f 27/3/1 22/3/1 21/3/1
f 28/3/1 22/3/1 27/3/1
f 35/3/1 30/3/1 29/3/1
f 36/3/1 30/3/1 35/3/1
f 37/3/1 32/3/1 31/3/1
f 38/3/1 32/3/1 37/3/1
f 39/3/1 34/3/1 33/3/1
f 40/3/1 34/3/1 39/3/1
f 47/7/1 42/7/1 41/7/1
f 48/6/1 43/6/1 42/6/1
f 48/7/1 42/7/1 47/7/1
f 49/5/1 44/5/1 43/5/1
f 49/6/1 43/6/1 48/6/1
f 50/6/1 45/6/1 44/6/1
f 50/5/1 44/5/1 49/5/1
f 51/7/1 46/7/1 45/7/1
f 51/6/1 45/6/1 50/6/1
f 52/7/1 46/7/1 51/7/1
f 54/7/1 49/7/1 48/7/1
f 55/6/1 50/6/1 49/6/1
f 55/7/1 49/7/1 54/7/1
f 56/7/1 51/7/1 50/7/1
f 56/6/1 50/6/1 55/6/1
f 57/7/1 51/7/1 56/7/1
f 59/7/1 54/7/1 53/7/1
f 60/7/1 54/7/1 59/7/1
f 61/7/1 56/7/1 55/7/1
f 62/7/1 56/7/1 61/7/1
f 63/7/1 58/7/1 57/7/1
f 64/7/1 58/7/1 63/7/1
f 69/3/1 66/3/1 65/3/1
f 70/3/1 66/3/1 69/3/1
f 71/3/1 68/3/1 67/3/1
f 72/3/1 68/3/1 71/3/1
f 73/3/2 74/3/2 77/3/2
f 77/3/2 74/3/2 78/3/2
f 75/3/2 76/3/2 79/3/2
f 79/3/2 76/3/2 80/3/2
f 81/7/2 82/7/2 87/7/2
f 82/6/2 83/6/2 88/6/2
f 87/7/2 82/7/2 88/7/2
f 83/5/2 84/5/2 89/5/2
f 88/6/2 83/6/2 89/6/2
f 84/6/2 85/6/2 90/6/2
f 89/5/2 84/5/2 90/5/2
f 85/7/2 86/7/2 91/7/2
f 90/6/2 85/6/2 91/6/2
f 91/7/2 86/7/2 92/7/2
f 88/7/2 89/7/2 94/7/2
f 89/6/2 90/6/2 95/6/2
f 94/7/2 89/7/2 95/7/2
f 90/7/2 91/7/2 96/7/2
f 95/6/2 90/6/2 96/6/2
f 96/7/2 91/7/2 97/7/2
f 93/7/2 94/7/2 99/7/2
f 99/7/2 94/7/2 100/7/2
f 95/7/2 96/7/2 101/7/2
f 101/7/2 96/7/2 102/7/2
f 97/7/2 98/7/2 103/7/2
f 103/7/2 98/7/2 104/7/2
f 105/3/2 106/3/2 111/3/2
f 111/3/2 106/3/2 112/3/2
f 107/3/2 108/3/2 113/3/2
f 113/3/2 108/3/2 114/3/2
f 109/3/2 110/3/2 115/3/2
f 115/3/2 110/3/2 116/3/2
f 117/3/2 118/3/2 121/3/2
f 121/3/2 118/3/2 122/3/2
f 119/3/2 120/3/2 123/3/2
f 123/3/2 120/3/2 124/3/2
f 125/3/2 126/3/2 131/3/2
f 131/3/2 126/3/2 132/3/2
f 127/3/2 128/3/2 133/3/2
f 133/3/2 128/3/2 134/3/2
f 129/3/2 130/3/2 135/3/2
f 135/3/2 130/3/2 136/3/2
f 137/3/2 138/3/2 141/3/2
f 141/3/2 138/3/2 142/3/2
f 139/3/2 140/3/2 143/3/2
f 143/3/2 140/3/2 144/3/2
f 148/3/3 146/3/3 145/3/3
f 149/3/3 146/3/3 148/3/3
f 150/3/3 148/3/3 147/3/3
f 151/1/3 149/1/3 148/1/3
f 151/3/3 148/3/3 150/3/3
f 152/1/3 149/1/3 151/1/3
f 153/3/3 152/3/3 151/3/3
f 154/3/3 152/3/3 153/3/3
f 158/3/3 156/3/3 155/3/3
f 159/3/3 156/3/3 158/3/3
f 160/3/3 156/3/3 159/3/3
f 161/3/3 158/3/3 157/3/3
f 162/3/3 158/3/3 161/3/3
f 163/1/3 159/1/3 158/1/3
f 163/3/3 158/3/3 162/3/3
f 164/1/3 159/1/3 163/1/3
f 166/3/3 163/3/3 162/3/3
f 167/3/3 163/3/3 166/3/3
f 169/3/3 166/3/3 165/3/3
f 169/3/3 167/3/3 166/3/3
f 170/1/3 168/1/3 167/1/3
f 170/3/3 167/3/3 169/3/3
f 171/1/3 168/1/3 170/1/3
f 173/3/3 171/3/3 170/3/3
f 173/3/3 172/3/3 171/3/3
f 174/3/3 172/3/3 173/3/3
f 179/7/3 176/7/3 175/7/3
f 180/7/3 176/7/3 179/7/3
f 181/7/3 178/7/3 177/7/3
f 182/7/3 178/7/3 181/7/3
f 185/7/3 184/7/3 183/7/3
f 186/7/3 184/7/3 185/7/3
f 189/7/3 188/7/3 187/7/3
f 190/7/3 188/7/3 189/7/3
f 193/7/3 192/7/3 191/7/3
f 194/7/3 192/7/3 193/7/3
f 198/3/3 196/3/3 195/3/3
f 199/3/3 196/3/3 198/3/3
f 200/3/3 196/3/3 199/3/3
f 201/3/3 198/3/3 197/3/3
f 202/3/3 198/3/3 201/3/3
f 203/1/3 199/1/3 198/1/3
f 203/3/3 198/3/3 202/3/3
f 204/1/3 199/1/3 203/1/3
f 205/3/3 203/3/3 202/3/3
f 206/3/3 205/3/3 202/3/3
f 208/3/3 206/3/3 202/3/3
f 209/3/3 206/3/3 208/3/3
f 211/3/3 209/3/3 208/3/3
f 211/3/3 208/3/3 207/3/3
f 212/1/3 210/1/3 209/1/3
f 212/3/3 209/3/3 211/3/3
f 213/1/3 210/1/3 212/1/3
f 215/3/3 213/3/3 212/3/3
f 215/3/3 214/3/3 213/3/3
f 216/3/3 214/3/3 215/3/3
f 217/3/4 218/3/4 220/3/4
f 220/3/4 218/3/4 221/3/4
f 221/3/4 218/3/4 222/3/4
f 219/3/4 220/3/4 223/3/4
f 223/3/4 220/3/4 224/3/4
f 220/1/4 221/1/4 225/1/4
f 224/3/4 220/3/4 225/3/4
f 225/1/4 221/1/4 226/1/4
f 224/3/4 225/3/4 227/3/4
f 224/3/4 227/3/4 228/3/4
f 224/3/4 228/3/4 230/3/4
f 230/3/4 228/3/4 231/3/4
f 230/3/4 231/3/4 233/3/4
f 229/3/4 230/3/4 233/3/4
f 231/1/4 232/1/4 234/1/4
f 233/3/4 231/3/4 234/3/4
f 234/1/4 232/1/4 235/1/4
f 234/3/4 235/3/4 237/3/4
f 235/3/4 236/3/4 237/3/4
f 237/3/4 236/3/4 238/3/4
f 239/7/4 240/7/4 241/7/4
f 241/7/4 240/7/4 242/7/4
f 243/7/4 244/7/4 245/7/4
f 245/7/4 244/7/4 246/7/4
f 247/7/4 248/7/4 249/7/4
f 249/7/4 248/7/4 250/7/4
f 251/7/4 252/7/4 255/7/4
f 255/7/4 252/7/4 256/7/4
f 253/7/4 254/7/4 257/7/4
f 257/7/4 254/7/4 258/7/4
f 259/3/4 260/3/4 262/3/4
f 262/3/4 260/3/4 263/3/4
f 263/3/4 260/3/4 264/3/4
f 261/3/4 262/3/4 265/3/4
f 265/3/4 262/3/4 266/3/4
f 262/1/4 263/1/4 267/1/4
f 266/3/4 262/3/4 267/3/4
f 267/1/4 263/1/4 268/1/4
f 266/3/4 267/3/4 270/3/4
f 270/3/4 267/3/4 271/3/4
f 269/3/4 270/3/4 273/3/4
f 270/3/4 271/3/4 273/3/4
f 271/1/4 272/1/4 274/1/4
f 273/3/4 271/3/4 274/3/4
f 274/1/4 272/1/4 275/1/4
f 274/3/4 275/3/4 277/3/4
f 275/3/4 276/3/4 277/3/4
f 277/3/4 276/3/4 278/3/4
f 279/3/4 280/3/4 282/3/4
f 282/3/4 280/3/4 283/3/4
f 281/3/4 282/3/4 284/3/4
f 282/1/4 283/1/4 285/1/4
f 284/3/4 282/3/4 285/3/4
f 285/1/4 283/1/4 286/1/4
f 285/3/4 286/3/4 287/3/4
f 287/3/4 286/3/4 288/3/4
f 293/3/5 290/3/5 289/3/5
f 294/3/5 290/3/5 293/3/5
f 295/3/5 292/3/5 291/3/5
f 296/3/5 292/3/5 295/3/5
f 301/3/5 298/3/5 297/3/5
f 302/3/5 298/3/5 301/3/5
f 303/3/5 300/3/5 299/3/5
f 304/3/5 300/3/5 303/3/5
f 307/3/5 306/3/5 305/3/5
f 308/3/5 306/3/5 307/3/5
f 311/3/5 310/3/5 309/3/5
f 312/3/5 310/3/5 311/3/5
f 317/3/5 314/3/5 313/3/5
f 318/3/5 314/3/5 317/3/5
f 321/3/5 316/3/5 315/3/5
f 322/3/5 316/3/5 321/3/5
f 327/3/5 320/3/5 319/3/5
f 328/3/5 320/3/5 327/3/5
f 331/3/5 324/3/5 323/3/5
f 332/4/5 325/4/5 324/4/5
f 332/3/5 324/3/5 331/3/5
f 333/3/5 326/3/5 325/3/5
f 333/4/5 325/4/5 332/4/5
f 334/3/5 326/3/5 333/3/5
f 337/3/5 330/3/5 329/3/5
f 338/3/5 330/3/5 337/3/5
f 341/3/5 336/3/5 335/3/5
f 342/3/5 336/3/5 341/3/5
f 343/3/5 340/3/5 339/3/5
f 344/3/5 340/3/5 343/3/5
f 349/3/5 346/3/5 345/3/5
f 350/3/5 346/3/5 349/3/5
f 351/3/5 348/3/5 347/3/5
f 352/3/5 348/3/5 351/3/5
f 357/3/5 354/3/5 353/3/5
f 358/3/5 354/3/5 357/3/5
f 359/3/5 356/3/5 355/3/5
f 360/3/5 356/3/5 359/3/5
f 365/3/5 362/3/5 361/3/5
f 366/3/5 362/3/5 365/3/5
f 367/3/5 364/3/5 363/3/5
f 368/3/5 364/3/5 367/3/5
f 371/7/5 370/7/5 369/7/5
f 372/7/5 370/7/5 371/7/5
f 375/7/5 374/7/5 373/7/5
f 376/7/5 374/7/5 375/7/5
f 377/3/6 378/3/6 382/3/6
f 379/3/6 380/3/6 383/3/6
f 381/3/6 382/3/6 385/3/6
f 382/3/6 378/3/6 386/3/6
f 385/3/6 382/3/6 386/3/6
f 383/3/6 384/3/6 387/3/6
f 379/3/6 383/3/6 387/3/6
f 387/3/6 384/3/6 388/3/6
f 378/1/6 379/1/6 389/1/6
f 389/1/6 379/1/6 390/1/6
f 378/1/6 389/1/6 391/1/6
f 390/1/6 379/1/6 392/1/6
f 378/1/6 391/1/6 393/1/6
f 392/1/6 379/1/6 394/1/6
f 378/1/6 393/1/6 395/1/6
f 394/1/6 379/1/6 396/1/6
f 378/1/6 395/1/6 397/1/6
f 396/1/6 379/1/6 398/1/6
f 378/1/6 397/1/6 399/1/6
f 398/1/6 379/1/6 400/1/6
f 386/3/6 378/3/6 402/3/6
f 379/3/6 387/3/6 403/3/6
f 401/3/6 402/3/6 405/3/6
f 402/3/6 378/3/6 406/3/6
f 405/3/6 402/3/6 406/3/6
f 403/3/6 404/3/6 407/3/6
f 379/3/6 403/3/6 407/3/6
f 407/3/6 404/3/6 408/3/6
f 406/3/6 378/3/6 409/3/6
f 399/1/6 400/1/6 410/1/6
f 409/3/6 378/3/6 410/3/6
f 378/1/6 399/1/6 410/1/6
f 379/3/6 407/3/6 411/3/6
f 410/1/6 400/1/6 411/1/6
f 400/1/6 379/1/6 411/1/6
f 411/3/6 407/3/6 412/3/6
f 413/7/6 414/7/6 415/7/6
f 415/7/6 414/7/6 416/7/6
f 417/7/6 418/7/6 419/7/6
f 419/7/6 418/7/6 420/7/6
f 421/7/6 422/7/6 423/7/6
f 423/7/6 422/7/6 424/7/6
f 425/7/6 426/7/6 427/7/6
f 427/7/6 426/7/6 428/7/6
f 429/7/6 430/7/6 431/7/6
f 431/7/6 430/7/6 432/7/6
f 433/7/6 434/7/6 435/7/6
f 435/7/6 434/7/6 436/7/6
f 437/7/6 438/7/6 439/7/6
f 439/7/6 438/7/6 440/7/6
