# MagicaVoxel @ Ephtracy

# group
o 

# material
mtllib carbon7.mtl
usemtl palette

# normals
vn -1 0 0
vn 1 0 0
vn 0 0 1
vn 0 0 -1
vn 0 -1 0
vn 0 1 0

# texcoords
vt 0.947266 0.5
vt 0.951172 0.5

# verts
v -2.7 3.7 -2.4
v -2.7 3.7 -2.5
v -2.7 3.8 -2.3
v -2.7 3.8 -2.4
v -2.7 3.8 -2.5
v -2.7 3.9 -2.3
v -2.7 3.9 -2.4
v -2.6 3.7 -2.3
v -2.6 3.7 -2.4
v -2.6 3.8 -2.2
v -2.6 3.8 -2.3
v -2.6 3.8 -2.4
v -2.6 3.9 -2.2
v -2.6 3.9 -2.3
v -2.6 4 -2.1
v -2.6 4 -2.2
v -2.6 4.1 -2.1
v -2.6 4.1 -2.2
v -2.5 3.9 -2.2
v -2.5 3.9 -2.3
v -2.5 4 -2.2
v -2.5 4.1 -2.1
v -2.5 4.1 -2.2
v -2.5 4.1 -2.3
v -2.5 4.2 -2.1
v -2.5 4.2 -2.2
v -2.4 3.8 -2.3
v -2.4 3.8 -2.4
v -2.4 3.9 -2.3
v -2.4 3.9 -2.4
v -2.5 3.7 -2.4
v -2.5 3.7 -2.5
v -2.5 3.8 -2.3
v -2.5 3.8 -2.4
v -2.5 3.8 -2.5
v -2.5 3.9 -2.3
v -2.5 3.9 -2.4
v -2.3 4 -2.2
v -2.3 4 -2.3
v -2.3 4.1 -2.1
v -2.3 4.1 -2.2
v -2.3 4.1 -2.3
v -2.3 4.2 -2.1
v -2.3 4.2 -2.2
v -2.2 3.7 -2.3
v -2.2 3.7 -2.4
v -2.2 3.8 -2.3
v -2.2 3.8 -2.4
v -2.2 3.9 -2.2
v -2.2 3.9 -2.3
v -2.2 3.9 -2.4
v -2.2 4 -2.1
v -2.2 4 -2.2
v -2.2 4 -2.3
v -2.2 4.1 -2.1
v -2.2 4.1 -2.2
v -2.1 3.8 -2.2
v -2.1 3.8 -2.3
v -2.1 3.9 -2.2
v -2.1 3.9 -2.3
v -2.6 4 -2.1
v -2.6 4.1 -2.1
v -2.5 4 -2.1
v -2.5 4.1 -2.1
v -2.5 4.2 -2.1
v -2.4 4.1 -2.1
v -2.4 4.2 -2.1
v -2.3 4 -2.1
v -2.3 4.1 -2.1
v -2.3 4.2 -2.1
v -2.2 4 -2.1
v -2.2 4.1 -2.1
v -2.6 3.8 -2.2
v -2.6 3.9 -2.2
v -2.5 3.9 -2.2
v -2.5 4 -2.2
v -2.4 3.9 -2.2
v -2.4 4 -2.2
v -2.3 4 -2.2
v -2.2 3.9 -2.2
v -2.2 4 -2.2
v -2.1 3.8 -2.2
v -2.1 3.9 -2.2
v -2.7 3.8 -2.3
v -2.7 3.9 -2.3
v -2.6 3.7 -2.3
v -2.6 3.8 -2.3
v -2.6 3.9 -2.3
v -2.5 3.7 -2.3
v -2.5 3.8 -2.3
v -2.4 3.7 -2.3
v -2.4 3.8 -2.3
v -2.2 3.7 -2.3
v -2.2 3.8 -2.3
v -2.7 3.7 -2.4
v -2.7 3.8 -2.4
v -2.6 3.7 -2.4
v -2.6 3.8 -2.4
v -2.6 4 -2.2
v -2.6 4.1 -2.2
v -2.5 4 -2.2
v -2.5 4.1 -2.2
v -2.5 4.2 -2.2
v -2.4 4.1 -2.2
v -2.4 4.2 -2.2
v -2.3 4 -2.2
v -2.3 4.1 -2.2
v -2.3 4.2 -2.2
v -2.2 4 -2.2
v -2.2 4.1 -2.2
v -2.5 3.8 -2.3
v -2.5 3.9 -2.3
v -2.5 4.1 -2.3
v -2.4 3.8 -2.3
v -2.4 3.9 -2.3
v -2.4 4.1 -2.3
v -2.3 3.9 -2.3
v -2.3 4 -2.3
v -2.3 4.1 -2.3
v -2.2 3.8 -2.3
v -2.2 3.9 -2.3
v -2.2 4 -2.3
v -2.1 3.8 -2.3
v -2.1 3.9 -2.3
v -2.7 3.8 -2.4
v -2.7 3.9 -2.4
v -2.6 3.8 -2.4
v -2.6 3.9 -2.4
v -2.5 3.7 -2.4
v -2.5 3.8 -2.4
v -2.5 3.9 -2.4
v -2.4 3.7 -2.4
v -2.4 3.8 -2.4
v -2.4 3.9 -2.4
v -2.3 3.8 -2.4
v -2.3 3.9 -2.4
v -2.2 3.7 -2.4
v -2.2 3.8 -2.4
v -2.2 3.9 -2.4
v -2.7 3.7 -2.5
v -2.7 3.8 -2.5
v -2.6 3.7 -2.5
v -2.6 3.8 -2.5
v -2.5 3.7 -2.5
v -2.5 3.8 -2.5
v -2.6 3.7 -2.3
v -2.5 3.7 -2.3
v -2.4 3.7 -2.3
v -2.2 3.7 -2.3
v -2.7 3.7 -2.4
v -2.6 3.7 -2.4
v -2.5 3.7 -2.4
v -2.4 3.7 -2.4
v -2.2 3.7 -2.4
v -2.7 3.7 -2.5
v -2.6 3.7 -2.5
v -2.5 3.7 -2.5
v -2.6 3.8 -2.2
v -2.1 3.8 -2.2
v -2.7 3.8 -2.3
v -2.6 3.8 -2.3
v -2.5 3.8 -2.3
v -2.4 3.8 -2.3
v -2.2 3.8 -2.3
v -2.1 3.8 -2.3
v -2.7 3.8 -2.4
v -2.6 3.8 -2.4
v -2.6 4 -2.1
v -2.5 4 -2.1
v -2.3 4 -2.1
v -2.2 4 -2.1
v -2.6 4 -2.2
v -2.5 4 -2.2
v -2.4 4 -2.2
v -2.3 4 -2.2
v -2.2 4 -2.2
v -2.5 3.8 -2.3
v -2.4 3.8 -2.3
v -2.7 3.8 -2.4
v -2.6 3.8 -2.4
v -2.5 3.8 -2.4
v -2.4 3.8 -2.4
v -2.7 3.8 -2.5
v -2.6 3.8 -2.5
v -2.5 3.8 -2.5
v -2.6 3.9 -2.2
v -2.5 3.9 -2.2
v -2.2 3.9 -2.2
v -2.1 3.9 -2.2
v -2.7 3.9 -2.3
v -2.6 3.9 -2.3
v -2.5 3.9 -2.3
v -2.4 3.9 -2.3
v -2.3 3.9 -2.3
v -2.2 3.9 -2.3
v -2.1 3.9 -2.3
v -2.7 3.9 -2.4
v -2.6 3.9 -2.4
v -2.5 3.9 -2.4
v -2.4 3.9 -2.4
v -2.3 3.9 -2.4
v -2.2 3.9 -2.4
v -2.3 4 -2.2
v -2.2 4 -2.2
v -2.3 4 -2.3
v -2.2 4 -2.3
v -2.6 4.1 -2.1
v -2.5 4.1 -2.1
v -2.3 4.1 -2.1
v -2.2 4.1 -2.1
v -2.6 4.1 -2.2
v -2.5 4.1 -2.2
v -2.4 4.1 -2.2
v -2.3 4.1 -2.2
v -2.2 4.1 -2.2
v -2.5 4.1 -2.3
v -2.4 4.1 -2.3
v -2.3 4.1 -2.3
v -2.5 4.2 -2.1
v -2.4 4.2 -2.1
v -2.3 4.2 -2.1
v -2.5 4.2 -2.2
v -2.4 4.2 -2.2
v -2.3 4.2 -2.2

# faces
f 4/1/1 2/1/1 1/1/1
f 5/1/1 2/1/1 4/1/1
f 6/2/1 4/2/1 3/2/1
f 7/2/1 4/2/1 6/2/1
f 11/1/1 9/1/1 8/1/1
f 12/1/1 9/1/1 11/1/1
f 13/1/1 11/1/1 10/1/1
f 14/1/1 11/1/1 13/1/1
f 17/2/1 16/2/1 15/2/1
f 18/2/1 16/2/1 17/2/1
f 21/2/1 20/2/1 19/2/1
f 23/2/1 20/2/1 21/2/1
f 24/2/1 20/2/1 23/2/1
f 25/2/1 23/2/1 22/2/1
f 26/2/1 23/2/1 25/2/1
f 29/1/1 28/1/1 27/1/1
f 30/1/1 28/1/1 29/1/1
f 31/2/2 32/2/2 34/2/2
f 34/2/2 32/2/2 35/2/2
f 33/1/2 34/1/2 36/1/2
f 36/1/2 34/1/2 37/1/2
f 38/1/2 39/1/2 41/1/2
f 41/1/2 39/1/2 42/1/2
f 40/1/2 41/1/2 43/1/2
f 43/1/2 41/1/2 44/1/2
f 45/1/2 46/1/2 47/1/2
f 47/1/2 46/1/2 48/1/2
f 47/2/2 48/2/2 50/2/2
f 50/2/2 48/2/2 51/2/2
f 49/1/2 50/1/2 53/1/2
f 53/1/2 50/1/2 54/1/2
f 52/2/2 53/2/2 55/2/2
f 55/2/2 53/2/2 56/2/2
f 57/1/2 58/1/2 59/1/2
f 59/1/2 58/1/2 60/1/2
f 63/2/3 62/2/3 61/2/3
f 64/2/3 62/2/3 63/2/3
f 66/1/3 64/1/3 63/1/3
f 66/2/3 65/2/3 64/2/3
f 67/2/3 65/2/3 66/2/3
f 68/1/3 66/1/3 63/1/3
f 68/1/3 67/1/3 66/1/3
f 69/1/3 67/1/3 68/1/3
f 70/1/3 67/1/3 69/1/3
f 71/2/3 69/2/3 68/2/3
f 72/2/3 69/2/3 71/2/3
f 75/1/3 74/1/3 73/1/3
f 77/1/3 75/1/3 73/1/3
f 77/2/3 76/2/3 75/2/3
f 78/2/3 76/2/3 77/2/3
f 79/1/3 78/1/3 77/1/3
f 80/1/3 77/1/3 73/1/3
f 80/1/3 79/1/3 77/1/3
f 81/1/3 79/1/3 80/1/3
f 82/1/3 80/1/3 73/1/3
f 83/1/3 80/1/3 82/1/3
f 87/2/3 85/2/3 84/2/3
f 88/2/3 85/2/3 87/2/3
f 89/1/3 87/1/3 86/1/3
f 90/1/3 87/1/3 89/1/3
f 91/2/3 90/2/3 89/2/3
f 92/2/3 90/2/3 91/2/3
f 93/1/3 92/1/3 91/1/3
f 94/1/3 92/1/3 93/1/3
f 97/1/3 96/1/3 95/1/3
f 98/1/3 96/1/3 97/1/3
f 99/2/4 100/2/4 101/2/4
f 101/2/4 100/2/4 102/2/4
f 102/2/4 103/2/4 104/2/4
f 104/2/4 103/2/4 105/2/4
f 104/1/4 105/1/4 107/1/4
f 107/1/4 105/1/4 108/1/4
f 106/2/4 107/2/4 109/2/4
f 109/2/4 107/2/4 110/2/4
f 111/1/4 112/1/4 114/1/4
f 112/2/4 113/2/4 115/2/4
f 114/1/4 112/1/4 115/1/4
f 115/2/4 113/2/4 116/2/4
f 115/1/4 116/1/4 117/1/4
f 117/1/4 116/1/4 118/1/4
f 118/1/4 116/1/4 119/1/4
f 117/1/4 118/1/4 121/1/4
f 121/1/4 118/1/4 122/1/4
f 120/1/4 121/1/4 123/1/4
f 123/1/4 121/1/4 124/1/4
f 125/2/4 126/2/4 127/2/4
f 127/2/4 126/2/4 128/2/4
f 127/1/4 128/1/4 130/1/4
f 130/1/4 128/1/4 131/1/4
f 129/2/4 130/2/4 132/2/4
f 132/2/4 130/2/4 133/2/4
f 132/1/4 133/1/4 135/1/4
f 133/1/4 134/1/4 135/1/4
f 135/1/4 134/1/4 136/1/4
f 132/1/4 135/1/4 137/1/4
f 135/2/4 136/2/4 138/2/4
f 137/1/4 135/1/4 138/1/4
f 138/2/4 136/2/4 139/2/4
f 140/1/4 141/1/4 142/1/4
f 142/1/4 141/1/4 143/1/4
f 142/2/4 143/2/4 144/2/4
f 144/2/4 143/2/4 145/2/4
f 151/1/5 147/1/5 146/1/5
f 152/2/5 148/2/5 147/2/5
f 152/1/5 147/1/5 151/1/5
f 153/1/5 149/1/5 148/1/5
f 153/2/5 148/2/5 152/2/5
f 154/1/5 149/1/5 153/1/5
f 155/1/5 151/1/5 150/1/5
f 156/2/5 152/2/5 151/2/5
f 156/1/5 151/1/5 155/1/5
f 157/2/5 152/2/5 156/2/5
f 161/1/5 159/1/5 158/1/5
f 162/1/5 159/1/5 161/1/5
f 163/1/5 159/1/5 162/1/5
f 164/1/5 159/1/5 163/1/5
f 165/1/5 159/1/5 164/1/5
f 166/2/5 161/2/5 160/2/5
f 167/2/5 161/2/5 166/2/5
f 172/2/5 169/2/5 168/2/5
f 173/1/5 170/1/5 169/1/5
f 173/2/5 169/2/5 172/2/5
f 174/1/5 170/1/5 173/1/5
f 175/2/5 171/2/5 170/2/5
f 175/1/5 170/1/5 174/1/5
f 176/2/5 171/2/5 175/2/5
f 177/2/6 178/2/6 181/2/6
f 181/2/6 178/2/6 182/2/6
f 179/1/6 180/1/6 183/1/6
f 180/2/6 181/2/6 184/2/6
f 183/1/6 180/1/6 184/1/6
f 184/2/6 181/2/6 185/2/6
f 186/1/6 187/1/6 191/1/6
f 191/1/6 187/1/6 192/1/6
f 188/1/6 189/1/6 195/1/6
f 195/1/6 189/1/6 196/1/6
f 190/2/6 191/2/6 197/2/6
f 191/1/6 192/1/6 198/1/6
f 197/2/6 191/2/6 198/2/6
f 198/1/6 192/1/6 199/1/6
f 193/1/6 194/1/6 200/1/6
f 194/2/6 195/2/6 201/2/6
f 200/1/6 194/1/6 201/1/6
f 201/2/6 195/2/6 202/2/6
f 203/1/6 204/1/6 205/1/6
f 205/1/6 204/1/6 206/1/6
f 207/2/6 208/2/6 211/2/6
f 211/2/6 208/2/6 212/2/6
f 209/2/6 210/2/6 214/2/6
f 214/2/6 210/2/6 215/2/6
f 212/2/6 213/2/6 216/2/6
f 213/1/6 214/1/6 217/1/6
f 216/2/6 213/2/6 217/2/6
f 217/1/6 214/1/6 218/1/6
f 219/2/6 220/2/6 222/2/6
f 220/1/6 221/1/6 223/1/6
f 222/2/6 220/2/6 223/2/6
f 223/1/6 221/1/6 224/1/6
