# MagicaVoxel @ Ephtracy

# group
o 

# material
mtllib carbon5.mtl
usemtl palette

# normals
vn -1 0 0
vn 1 0 0
vn 0 0 1
vn 0 0 -1
vn 0 -1 0
vn 0 1 0

# texcoords
vt 0.947266 0.5
vt 0.951172 0.5

# verts
v 1.7 4.2 -5.4
v 1.7 4.2 -5.6
v 1.7 4.3 -5.4
v 1.7 4.3 -5.5
v 1.7 4.4 -5.5
v 1.7 4.4 -5.6
v 1.8 4.2 -5.2
v 1.8 4.2 -5.3
v 1.8 4.2 -5.4
v 1.8 4.3 -5.2
v 1.8 4.3 -5.3
v 1.8 4.3 -5.4
v 1.8 4.3 -5.5
v 1.8 4.3 -5.6
v 1.8 4.3 -5.7
v 1.8 4.4 -5.2
v 1.8 4.4 -5.3
v 1.8 4.4 -5.4
v 1.8 4.4 -5.5
v 1.8 4.4 -5.6
v 1.8 4.4 -5.7
v 1.9 4.3 -5.1
v 1.9 4.3 -5.2
v 1.9 4.3 -5.3
v 1.9 4.3 -5.4
v 1.9 4.3 -5.7
v 1.9 4.3 -5.8
v 1.9 4.4 -5.1
v 1.9 4.4 -5.2
v 1.9 4.4 -5.3
v 1.9 4.4 -5.4
v 1.9 4.4 -5.5
v 1.9 4.4 -5.6
v 1.9 4.4 -5.7
v 1.9 4.4 -5.8
v 1.9 4.4 -5.9
v 1.9 4.5 -5.4
v 1.9 4.5 -5.5
v 1.9 4.5 -5.6
v 1.9 4.5 -5.7
v 1.9 4.5 -5.8
v 1.9 4.5 -5.9
v 1.9 4.6 -5.7
v 1.9 4.6 -5.8
v 2 4.3 -5.6
v 2 4.3 -5.7
v 2 4.4 -5.3
v 2 4.4 -5.4
v 2 4.4 -5.5
v 2 4.4 -5.6
v 2 4.4 -5.7
v 2 4.5 -5.3
v 2 4.5 -5.4
v 2 4.5 -5.5
v 2 4.5 -5.6
v 2 4.5 -5.7
v 2 4.5 -5.8
v 2 4.5 -5.9
v 2 4.6 -5.6
v 2 4.6 -5.7
v 2 4.6 -5.8
v 2 4.6 -5.9
v 1.9 4.3 -5.6
v 1.9 4.3 -5.7
v 1.9 4.4 -5.6
v 1.9 4.4 -5.7
v 2 4.2 -5.2
v 2 4.2 -5.6
v 2 4.3 -5.1
v 2 4.3 -5.2
v 2 4.3 -5.6
v 2 4.3 -5.7
v 2 4.3 -5.8
v 2 4.4 -5.1
v 2 4.4 -5.2
v 2 4.4 -5.7
v 2 4.4 -5.8
v 2 4.4 -5.9
v 2 4.5 -5.8
v 2 4.5 -5.9
v 2.1 4.3 -5.2
v 2.1 4.3 -5.3
v 2.1 4.3 -5.6
v 2.1 4.3 -5.7
v 2.1 4.4 -5.2
v 2.1 4.4 -5.3
v 2.1 4.4 -5.4
v 2.1 4.4 -5.5
v 2.1 4.4 -5.6
v 2.1 4.4 -5.7
v 2.1 4.4 -5.8
v 2.1 4.5 -5.3
v 2.1 4.5 -5.4
v 2.1 4.5 -5.5
v 2.1 4.5 -5.6
v 2.1 4.5 -5.7
v 2.1 4.5 -5.8
v 2.1 4.5 -5.9
v 2.1 4.6 -5.6
v 2.1 4.6 -5.7
v 2.1 4.6 -5.8
v 2.1 4.6 -5.9
v 2.2 4.3 -5.3
v 2.2 4.3 -5.6
v 2.2 4.4 -5.3
v 2.2 4.4 -5.4
v 2.2 4.4 -5.5
v 2.2 4.4 -5.6
v 2.2 4.4 -5.7
v 2.2 4.5 -5.4
v 2.2 4.5 -5.5
v 2.2 4.5 -5.6
v 2.2 4.5 -5.7
v 2.2 4.5 -5.8
v 2.2 4.6 -5.7
v 2.2 4.6 -5.8
v 1.9 4.3 -5.1
v 1.9 4.4 -5.1
v 2 4.3 -5.1
v 2 4.4 -5.1
v 1.8 4.2 -5.2
v 1.8 4.3 -5.2
v 1.8 4.4 -5.2
v 1.9 4.3 -5.2
v 1.9 4.4 -5.2
v 2 4.2 -5.2
v 2 4.3 -5.2
v 2 4.4 -5.2
v 2.1 4.3 -5.2
v 2.1 4.4 -5.2
v 2 4.4 -5.3
v 2 4.5 -5.3
v 2.1 4.3 -5.3
v 2.1 4.4 -5.3
v 2.1 4.5 -5.3
v 2.2 4.3 -5.3
v 2.2 4.4 -5.3
v 1.7 4.2 -5.4
v 1.7 4.3 -5.4
v 1.8 4.2 -5.4
v 1.8 4.3 -5.4
v 1.8 4.4 -5.4
v 1.9 4.3 -5.4
v 1.9 4.4 -5.4
v 1.9 4.5 -5.4
v 2 4.4 -5.4
v 2 4.5 -5.4
v 2.1 4.4 -5.4
v 2.1 4.5 -5.4
v 2.2 4.4 -5.4
v 2.2 4.5 -5.4
v 1.7 4.3 -5.5
v 1.7 4.4 -5.5
v 1.8 4.3 -5.5
v 1.8 4.4 -5.5
v 1.9 4.4 -5.6
v 1.9 4.5 -5.6
v 2 4.4 -5.6
v 2 4.5 -5.6
v 2 4.6 -5.6
v 2.1 4.4 -5.6
v 2.1 4.5 -5.6
v 2.1 4.6 -5.6
v 2.2 4.4 -5.6
v 2.2 4.5 -5.6
v 1.9 4.3 -5.7
v 1.9 4.4 -5.7
v 1.9 4.5 -5.7
v 1.9 4.6 -5.7
v 2 4.3 -5.7
v 2 4.4 -5.7
v 2 4.5 -5.7
v 2 4.6 -5.7
v 2.1 4.5 -5.7
v 2.1 4.6 -5.7
v 2.2 4.5 -5.7
v 2.2 4.6 -5.7
v 1.8 4.3 -5.3
v 1.8 4.4 -5.3
v 1.9 4.3 -5.3
v 1.9 4.4 -5.3
v 1.9 4.4 -5.5
v 1.9 4.5 -5.5
v 2 4.4 -5.5
v 2 4.5 -5.5
v 2.1 4.4 -5.5
v 2.1 4.5 -5.5
v 2.2 4.4 -5.5
v 2.2 4.5 -5.5
v 1.7 4.2 -5.6
v 1.7 4.4 -5.6
v 1.8 4.3 -5.6
v 1.8 4.4 -5.6
v 1.9 4.3 -5.6
v 1.9 4.4 -5.6
v 2 4.2 -5.6
v 2 4.3 -5.6
v 2 4.4 -5.6
v 2.1 4.3 -5.6
v 2.1 4.4 -5.6
v 2.2 4.3 -5.6
v 2.2 4.4 -5.6
v 1.8 4.3 -5.7
v 1.8 4.4 -5.7
v 1.9 4.3 -5.7
v 1.9 4.4 -5.7
v 2 4.3 -5.7
v 2 4.4 -5.7
v 2.1 4.3 -5.7
v 2.1 4.4 -5.7
v 2.1 4.5 -5.7
v 2.2 4.4 -5.7
v 2.2 4.5 -5.7
v 1.9 4.3 -5.8
v 1.9 4.4 -5.8
v 1.9 4.5 -5.8
v 1.9 4.6 -5.8
v 2 4.3 -5.8
v 2 4.4 -5.8
v 2 4.5 -5.8
v 2 4.6 -5.8
v 2.1 4.4 -5.8
v 2.1 4.5 -5.8
v 2.1 4.6 -5.8
v 2.2 4.5 -5.8
v 2.2 4.6 -5.8
v 1.9 4.4 -5.9
v 1.9 4.5 -5.9
v 2 4.4 -5.9
v 2 4.5 -5.9
v 2 4.6 -5.9
v 2.1 4.5 -5.9
v 2.1 4.6 -5.9
v 1.8 4.2 -5.2
v 2 4.2 -5.2
v 1.8 4.2 -5.3
v 1.9 4.2 -5.3
v 1.7 4.2 -5.4
v 1.8 4.2 -5.4
v 1.9 4.2 -5.4
v 1.7 4.2 -5.6
v 2 4.2 -5.6
v 1.9 4.3 -5.1
v 2 4.3 -5.1
v 1.9 4.3 -5.2
v 2 4.3 -5.2
v 2.1 4.3 -5.2
v 2.1 4.3 -5.3
v 2.2 4.3 -5.3
v 1.8 4.3 -5.6
v 1.9 4.3 -5.6
v 2 4.3 -5.6
v 2.1 4.3 -5.6
v 2.2 4.3 -5.6
v 1.8 4.3 -5.7
v 1.9 4.3 -5.7
v 2 4.3 -5.7
v 2.1 4.3 -5.7
v 1.9 4.3 -5.8
v 2 4.3 -5.8
v 1.9 4.4 -5.6
v 2 4.4 -5.6
v 2.1 4.4 -5.6
v 2.2 4.4 -5.6
v 1.9 4.4 -5.7
v 2 4.4 -5.7
v 2.1 4.4 -5.7
v 2.2 4.4 -5.7
v 1.9 4.4 -5.8
v 2 4.4 -5.8
v 2.1 4.4 -5.8
v 1.9 4.4 -5.9
v 2 4.4 -5.9
v 2.1 4.5 -5.7
v 2.2 4.5 -5.7
v 2 4.5 -5.8
v 2.1 4.5 -5.8
v 2.2 4.5 -5.8
v 2 4.5 -5.9
v 2.1 4.5 -5.9
v 1.8 4.3 -5.3
v 1.9 4.3 -5.3
v 1.7 4.3 -5.4
v 1.8 4.3 -5.4
v 1.9 4.3 -5.4
v 1.7 4.3 -5.5
v 1.8 4.3 -5.5
v 1.9 4.4 -5.1
v 2 4.4 -5.1
v 1.8 4.4 -5.2
v 1.9 4.4 -5.2
v 2 4.4 -5.2
v 2.1 4.4 -5.2
v 1.8 4.4 -5.3
v 1.9 4.4 -5.3
v 2 4.4 -5.3
v 2.1 4.4 -5.3
v 2.2 4.4 -5.3
v 1.8 4.4 -5.4
v 1.9 4.4 -5.4
v 2 4.4 -5.4
v 2.1 4.4 -5.4
v 2.2 4.4 -5.4
v 1.7 4.4 -5.5
v 1.8 4.4 -5.5
v 1.9 4.4 -5.5
v 2 4.4 -5.5
v 2.1 4.4 -5.5
v 2.2 4.4 -5.5
v 1.7 4.4 -5.6
v 1.8 4.4 -5.6
v 1.9 4.4 -5.6
v 2 4.4 -5.6
v 2.1 4.4 -5.6
v 2.2 4.4 -5.6
v 1.8 4.4 -5.7
v 1.9 4.4 -5.7
v 2 4.5 -5.3
v 2.1 4.5 -5.3
v 1.9 4.5 -5.4
v 2 4.5 -5.4
v 2.1 4.5 -5.4
v 2.2 4.5 -5.4
v 1.9 4.5 -5.5
v 2 4.5 -5.5
v 2.1 4.5 -5.5
v 2.2 4.5 -5.5
v 1.9 4.5 -5.6
v 2 4.5 -5.6
v 2.1 4.5 -5.6
v 2.2 4.5 -5.6
v 1.9 4.5 -5.7
v 2 4.5 -5.7
v 2.1 4.5 -5.7
v 2.2 4.5 -5.7
v 1.9 4.5 -5.8
v 2 4.5 -5.8
v 1.9 4.5 -5.9
v 2 4.5 -5.9
v 2 4.6 -5.6
v 2.1 4.6 -5.6
v 1.9 4.6 -5.7
v 2 4.6 -5.7
v 2.1 4.6 -5.7
v 2.2 4.6 -5.7
v 1.9 4.6 -5.8
v 2 4.6 -5.8
v 2.1 4.6 -5.8
v 2.2 4.6 -5.8
v 2 4.6 -5.9
v 2.1 4.6 -5.9

# faces
f 3/1/1 2/1/1 1/1/1
f 4/1/1 2/1/1 3/1/1
f 5/1/1 2/1/1 4/1/1
f 6/1/1 2/1/1 5/1/1
f 10/1/1 8/1/1 7/1/1
f 11/2/1 9/2/1 8/2/1
f 11/1/1 8/1/1 10/1/1
f 12/2/1 9/2/1 11/2/1
f 16/2/1 11/2/1 10/2/1
f 17/2/1 11/2/1 16/2/1
f 18/1/1 13/1/1 12/1/1
f 19/1/1 13/1/1 18/1/1
f 20/1/1 15/1/1 14/1/1
f 21/1/1 15/1/1 20/1/1
f 28/1/1 23/1/1 22/1/1
f 29/1/1 23/1/1 28/1/1
f 30/1/1 25/1/1 24/1/1
f 31/1/1 25/1/1 30/1/1
f 34/2/1 27/2/1 26/2/1
f 35/2/1 27/2/1 34/2/1
f 37/2/1 32/2/1 31/2/1
f 38/2/1 32/2/1 37/2/1
f 39/2/1 34/2/1 33/2/1
f 40/1/1 35/1/1 34/1/1
f 40/2/1 34/2/1 39/2/1
f 41/2/1 36/2/1 35/2/1
f 41/1/1 35/1/1 40/1/1
f 42/2/1 36/2/1 41/2/1
f 43/2/1 41/2/1 40/2/1
f 44/2/1 41/2/1 43/2/1
f 50/1/1 46/1/1 45/1/1
f 51/1/1 46/1/1 50/1/1
f 52/2/1 48/2/1 47/2/1
f 53/2/1 48/2/1 52/2/1
f 54/1/1 50/1/1 49/1/1
f 55/1/1 50/1/1 54/1/1
f 59/2/1 56/2/1 55/2/1
f 60/2/1 56/2/1 59/2/1
f 61/1/1 58/1/1 57/1/1
f 62/1/1 58/1/1 61/1/1
f 63/1/2 64/1/2 65/1/2
f 65/1/2 64/1/2 66/1/2
f 67/1/2 68/1/2 70/1/2
f 70/1/2 68/1/2 71/1/2
f 69/1/2 70/1/2 74/1/2
f 74/1/2 70/1/2 75/1/2
f 72/2/2 73/2/2 76/2/2
f 76/2/2 73/2/2 77/2/2
f 77/2/2 78/2/2 79/2/2
f 79/2/2 78/2/2 80/2/2
f 81/1/2 82/1/2 85/1/2
f 85/1/2 82/1/2 86/1/2
f 83/1/2 84/1/2 89/1/2
f 89/1/2 84/1/2 90/1/2
f 86/2/2 87/2/2 92/2/2
f 92/2/2 87/2/2 93/2/2
f 88/1/2 89/1/2 94/1/2
f 94/1/2 89/1/2 95/1/2
f 90/1/2 91/1/2 96/1/2
f 96/1/2 91/1/2 97/1/2
f 95/2/2 96/2/2 99/2/2
f 99/2/2 96/2/2 100/2/2
f 97/1/2 98/1/2 101/1/2
f 101/1/2 98/1/2 102/1/2
f 103/1/2 104/1/2 105/1/2
f 105/1/2 104/1/2 106/1/2
f 106/1/2 104/1/2 107/1/2
f 107/1/2 104/1/2 108/1/2
f 106/2/2 107/2/2 110/2/2
f 110/2/2 107/2/2 111/2/2
f 108/1/2 109/1/2 112/1/2
f 112/1/2 109/1/2 113/1/2
f 113/2/2 114/2/2 115/2/2
f 115/2/2 114/2/2 116/2/2
f 119/1/3 118/1/3 117/1/3
f 120/1/3 118/1/3 119/1/3
f 124/1/3 122/1/3 121/1/3
f 124/2/3 123/2/3 122/2/3
f 125/2/3 123/2/3 124/2/3
f 126/1/3 124/1/3 121/1/3
f 127/1/3 124/1/3 126/1/3
f 129/1/3 128/1/3 127/1/3
f 130/1/3 128/1/3 129/1/3
f 134/2/3 132/2/3 131/2/3
f 135/2/3 132/2/3 134/2/3
f 136/1/3 134/1/3 133/1/3
f 137/1/3 134/1/3 136/1/3
f 140/1/3 139/1/3 138/1/3
f 141/1/3 139/1/3 140/1/3
f 143/1/3 142/1/3 141/1/3
f 144/1/3 142/1/3 143/1/3
f 146/2/3 145/2/3 144/2/3
f 147/2/3 145/2/3 146/2/3
f 150/2/3 149/2/3 148/2/3
f 151/2/3 149/2/3 150/2/3
f 154/1/3 153/1/3 152/1/3
f 155/1/3 153/1/3 154/1/3
f 158/2/3 157/2/3 156/2/3
f 159/2/3 157/2/3 158/2/3
f 162/2/3 160/2/3 159/2/3
f 163/2/3 160/2/3 162/2/3
f 164/1/3 162/1/3 161/1/3
f 165/1/3 162/1/3 164/1/3
f 170/2/3 167/2/3 166/2/3
f 171/2/3 167/2/3 170/2/3
f 172/2/3 169/2/3 168/2/3
f 173/2/3 169/2/3 172/2/3
f 176/2/3 175/2/3 174/2/3
f 177/2/3 175/2/3 176/2/3
f 178/2/4 179/2/4 180/2/4
f 180/2/4 179/2/4 181/2/4
f 182/2/4 183/2/4 184/2/4
f 184/2/4 183/2/4 185/2/4
f 186/2/4 187/2/4 188/2/4
f 188/2/4 187/2/4 189/2/4
f 190/1/4 191/1/4 192/1/4
f 192/1/4 191/1/4 193/1/4
f 190/1/4 192/1/4 194/1/4
f 190/1/4 194/1/4 196/1/4
f 194/1/4 195/1/4 196/1/4
f 196/1/4 195/1/4 197/1/4
f 197/1/4 195/1/4 198/1/4
f 199/1/4 200/1/4 201/1/4
f 201/1/4 200/1/4 202/1/4
f 203/1/4 204/1/4 205/1/4
f 205/1/4 204/1/4 206/1/4
f 207/1/4 208/1/4 209/1/4
f 209/1/4 208/1/4 210/1/4
f 210/1/4 211/1/4 212/1/4
f 212/1/4 211/1/4 213/1/4
f 214/2/4 215/2/4 218/2/4
f 218/2/4 215/2/4 219/2/4
f 216/2/4 217/2/4 220/2/4
f 220/2/4 217/2/4 221/2/4
f 219/1/4 220/1/4 222/1/4
f 222/1/4 220/1/4 223/1/4
f 223/2/4 224/2/4 225/2/4
f 225/2/4 224/2/4 226/2/4
f 227/2/4 228/2/4 229/2/4
f 229/2/4 228/2/4 230/2/4
f 230/1/4 231/1/4 232/1/4
f 232/1/4 231/1/4 233/1/4
f 236/1/5 235/1/5 234/1/5
f 237/1/5 235/1/5 236/1/5
f 239/2/5 237/2/5 236/2/5
f 240/1/5 235/1/5 237/1/5
f 240/2/5 237/2/5 239/2/5
f 241/1/5 239/1/5 238/1/5
f 241/1/5 240/1/5 239/1/5
f 242/1/5 235/1/5 240/1/5
f 242/1/5 240/1/5 241/1/5
f 245/1/5 244/1/5 243/1/5
f 246/1/5 244/1/5 245/1/5
f 248/1/5 247/1/5 246/1/5
f 252/1/5 248/1/5 246/1/5
f 252/1/5 249/1/5 248/1/5
f 253/1/5 249/1/5 252/1/5
f 254/1/5 249/1/5 253/1/5
f 255/1/5 251/1/5 250/1/5
f 256/1/5 251/1/5 255/1/5
f 257/1/5 253/1/5 252/1/5
f 258/1/5 253/1/5 257/1/5
f 259/2/5 257/2/5 256/2/5
f 260/2/5 257/2/5 259/2/5
f 265/2/5 262/2/5 261/2/5
f 266/2/5 262/2/5 265/2/5
f 267/1/5 264/1/5 263/1/5
f 268/1/5 264/1/5 267/1/5
f 270/1/5 267/1/5 266/1/5
f 271/1/5 267/1/5 270/1/5
f 272/2/5 270/2/5 269/2/5
f 273/2/5 270/2/5 272/2/5
f 277/2/5 275/2/5 274/2/5
f 278/2/5 275/2/5 277/2/5
f 279/1/5 277/1/5 276/1/5
f 280/1/5 277/1/5 279/1/5
f 281/2/6 282/2/6 284/2/6
f 284/2/6 282/2/6 285/2/6
f 283/1/6 284/1/6 286/1/6
f 286/1/6 284/1/6 287/1/6
f 288/1/6 289/1/6 291/1/6
f 291/1/6 289/1/6 292/1/6
f 290/2/6 291/2/6 294/2/6
f 291/2/6 292/2/6 294/2/6
f 294/2/6 292/2/6 295/2/6
f 292/1/6 293/1/6 296/1/6
f 295/2/6 292/2/6 296/2/6
f 296/1/6 293/1/6 297/1/6
f 295/1/6 296/1/6 300/1/6
f 300/1/6 296/1/6 301/1/6
f 297/1/6 298/1/6 302/1/6
f 302/1/6 298/1/6 303/1/6
f 299/1/6 300/1/6 305/1/6
f 305/1/6 300/1/6 306/1/6
f 304/1/6 305/1/6 310/1/6
f 305/2/6 306/2/6 311/2/6
f 310/1/6 305/1/6 311/1/6
f 306/1/6 307/1/6 312/1/6
f 311/2/6 306/2/6 312/2/6
f 312/1/6 307/1/6 313/1/6
f 308/1/6 309/1/6 314/1/6
f 314/1/6 309/1/6 315/1/6
f 311/1/6 312/1/6 316/1/6
f 316/1/6 312/1/6 317/1/6
f 318/2/6 319/2/6 321/2/6
f 321/2/6 319/2/6 322/2/6
f 320/2/6 321/2/6 324/2/6
f 321/1/6 322/1/6 325/1/6
f 324/2/6 321/2/6 325/2/6
f 322/2/6 323/2/6 326/2/6
f 325/1/6 322/1/6 326/1/6
f 326/2/6 323/2/6 327/2/6
f 325/1/6 326/1/6 329/1/6
f 329/1/6 326/1/6 330/1/6
f 328/2/6 329/2/6 332/2/6
f 332/2/6 329/2/6 333/2/6
f 330/1/6 331/1/6 334/1/6
f 334/1/6 331/1/6 335/1/6
f 336/2/6 337/2/6 338/2/6
f 338/2/6 337/2/6 339/2/6
f 340/2/6 341/2/6 343/2/6
f 343/2/6 341/2/6 344/2/6
f 342/2/6 343/2/6 346/2/6
f 343/1/6 344/1/6 347/1/6
f 346/2/6 343/2/6 347/2/6
f 344/2/6 345/2/6 348/2/6
f 347/1/6 344/1/6 348/1/6
f 348/2/6 345/2/6 349/2/6
f 347/1/6 348/1/6 350/1/6
f 350/1/6 348/1/6 351/1/6
