# MagicaVoxel @ Ephtracy

# group
o 

# material
mtllib carbon2.mtl
usemtl palette

# normals
vn -1 0 0
vn 1 0 0
vn 0 0 1
vn 0 0 -1
vn 0 -1 0
vn 0 1 0

# texcoords
vt 0.947266 0.5
vt 0.951172 0.5

# verts
v 0 3.5 -4.3
v 0 3.5 -4.5
v 0 3.6 -4.3
v 0 3.6 -4.4
v 0 3.7 -4.3
v 0 3.7 -4.4
v 0 3.7 -4.5
v 0.1 3.4 -4.3
v 0.1 3.4 -4.5
v 0.1 3.5 -4.2
v 0.1 3.5 -4.3
v 0.1 3.5 -4.5
v 0.1 3.5 -4.6
v 0.1 3.6 -4.2
v 0.1 3.6 -4.3
v 0.1 3.6 -4.5
v 0.1 3.6 -4.6
v 0.1 3.7 -4.2
v 0.1 3.7 -4.3
v 0.1 3.7 -4.4
v 0.1 3.7 -4.5
v 0.1 3.7 -4.6
v 0.1 3.8 -4.3
v 0.1 3.8 -4.4
v 0.1 3.8 -4.5
v 0.4 3.4 -4.4
v 0.4 3.4 -4.6
v 0.4 3.5 -4.4
v 0.4 3.5 -4.6
v 0.4 3.5 -4.7
v 0.4 3.6 -4.6
v 0.4 3.6 -4.7
v 0.4 3.7 -4.4
v 0.4 3.7 -4.5
v 0.4 3.7 -4.6
v 0.4 3.7 -4.7
v 0.4 3.8 -4.4
v 0.4 3.8 -4.6
v 0.3 3.4 -4.3
v 0.3 3.4 -4.5
v 0.3 3.5 -4.2
v 0.3 3.5 -4.3
v 0.3 3.5 -4.5
v 0.3 3.7 -4.2
v 0.3 3.7 -4.3
v 0.3 3.7 -4.4
v 0.3 3.7 -4.5
v 0.3 3.8 -4.3
v 0.3 3.8 -4.4
v 0.3 3.8 -4.5
v 0.6 3.4 -4.4
v 0.6 3.4 -4.6
v 0.6 3.5 -4.3
v 0.6 3.5 -4.4
v 0.6 3.5 -4.6
v 0.6 3.5 -4.7
v 0.6 3.6 -4.3
v 0.6 3.6 -4.4
v 0.6 3.7 -4.3
v 0.6 3.7 -4.4
v 0.6 3.7 -4.5
v 0.6 3.7 -4.6
v 0.6 3.7 -4.7
v 0.6 3.8 -4.4
v 0.6 3.8 -4.5
v 0.6 3.8 -4.6
v 0.7 3.5 -4.4
v 0.7 3.5 -4.6
v 0.7 3.7 -4.4
v 0.7 3.7 -4.6
v 0.1 3.5 -4.2
v 0.1 3.6 -4.2
v 0.1 3.7 -4.2
v 0.2 3.6 -4.2
v 0.2 3.7 -4.2
v 0.3 3.5 -4.2
v 0.3 3.7 -4.2
v 0 3.5 -4.3
v 0 3.6 -4.3
v 0 3.7 -4.3
v 0.1 3.4 -4.3
v 0.1 3.5 -4.3
v 0.1 3.6 -4.3
v 0.1 3.7 -4.3
v 0.1 3.8 -4.3
v 0.2 3.7 -4.3
v 0.2 3.8 -4.3
v 0.3 3.4 -4.3
v 0.3 3.5 -4.3
v 0.3 3.7 -4.3
v 0.3 3.8 -4.3
v 0.5 3.6 -4.3
v 0.5 3.7 -4.3
v 0.6 3.5 -4.3
v 0.6 3.6 -4.3
v 0.6 3.7 -4.3
v 0.4 3.4 -4.4
v 0.4 3.5 -4.4
v 0.4 3.7 -4.4
v 0.4 3.8 -4.4
v 0.5 3.7 -4.4
v 0.6 3.4 -4.4
v 0.6 3.5 -4.4
v 0.6 3.6 -4.4
v 0.6 3.7 -4.4
v 0.6 3.8 -4.4
v 0.7 3.5 -4.4
v 0.7 3.7 -4.4
v 0 3.5 -4.5
v 0 3.7 -4.5
v 0.1 3.4 -4.5
v 0.1 3.5 -4.5
v 0.1 3.6 -4.5
v 0.1 3.7 -4.5
v 0.1 3.8 -4.5
v 0.2 3.7 -4.5
v 0.2 3.8 -4.5
v 0.3 3.4 -4.5
v 0.3 3.5 -4.5
v 0.3 3.7 -4.5
v 0.3 3.8 -4.5
v 0.1 3.5 -4.6
v 0.1 3.6 -4.6
v 0.1 3.7 -4.6
v 0.2 3.6 -4.6
v 0.2 3.7 -4.6
v 0.4 3.4 -4.6
v 0.4 3.5 -4.6
v 0.4 3.6 -4.6
v 0.4 3.7 -4.6
v 0.4 3.8 -4.6
v 0.5 3.7 -4.6
v 0.5 3.8 -4.6
v 0.6 3.4 -4.6
v 0.6 3.5 -4.6
v 0.6 3.7 -4.6
v 0.6 3.8 -4.6
v 0.7 3.5 -4.6
v 0.7 3.7 -4.6
v 0.4 3.5 -4.7
v 0.4 3.6 -4.7
v 0.4 3.7 -4.7
v 0.5 3.6 -4.7
v 0.5 3.7 -4.7
v 0.6 3.5 -4.7
v 0.6 3.7 -4.7
v 0.1 3.4 -4.3
v 0.3 3.4 -4.3
v 0.4 3.4 -4.4
v 0.6 3.4 -4.4
v 0.1 3.4 -4.5
v 0.3 3.4 -4.5
v 0.4 3.4 -4.6
v 0.6 3.4 -4.6
v 0.1 3.5 -4.2
v 0.3 3.5 -4.2
v 0 3.5 -4.3
v 0.1 3.5 -4.3
v 0.3 3.5 -4.3
v 0.6 3.5 -4.3
v 0.4 3.5 -4.4
v 0.6 3.5 -4.4
v 0.7 3.5 -4.4
v 0 3.5 -4.5
v 0.1 3.5 -4.5
v 0.3 3.5 -4.5
v 0.1 3.5 -4.6
v 0.4 3.5 -4.6
v 0.6 3.5 -4.6
v 0.7 3.5 -4.6
v 0.4 3.5 -4.7
v 0.6 3.5 -4.7
v 0.1 3.7 -4.2
v 0.2 3.7 -4.2
v 0.3 3.7 -4.2
v 0 3.7 -4.3
v 0.1 3.7 -4.3
v 0.2 3.7 -4.3
v 0.3 3.7 -4.3
v 0.5 3.7 -4.3
v 0.6 3.7 -4.3
v 0 3.7 -4.4
v 0.1 3.7 -4.4
v 0.3 3.7 -4.4
v 0.4 3.7 -4.4
v 0.5 3.7 -4.4
v 0.6 3.7 -4.4
v 0.7 3.7 -4.4
v 0 3.7 -4.5
v 0.1 3.7 -4.5
v 0.2 3.7 -4.5
v 0.3 3.7 -4.5
v 0.4 3.7 -4.5
v 0.6 3.7 -4.5
v 0.1 3.7 -4.6
v 0.2 3.7 -4.6
v 0.4 3.7 -4.6
v 0.5 3.7 -4.6
v 0.6 3.7 -4.6
v 0.7 3.7 -4.6
v 0.4 3.7 -4.7
v 0.5 3.7 -4.7
v 0.6 3.7 -4.7
v 0.1 3.8 -4.3
v 0.2 3.8 -4.3
v 0.3 3.8 -4.3
v 0.1 3.8 -4.4
v 0.2 3.8 -4.4
v 0.3 3.8 -4.4
v 0.4 3.8 -4.4
v 0.6 3.8 -4.4
v 0.1 3.8 -4.5
v 0.2 3.8 -4.5
v 0.3 3.8 -4.5
v 0.5 3.8 -4.5
v 0.6 3.8 -4.5
v 0.4 3.8 -4.6
v 0.5 3.8 -4.6
v 0.6 3.8 -4.6

# faces
f 3/1/1 2/1/1 1/1/1
f 4/1/1 2/1/1 3/1/1
f 5/2/1 4/2/1 3/2/1
f 6/1/1 2/1/1 4/1/1
f 6/2/1 4/2/1 5/2/1
f 7/1/1 2/1/1 6/1/1
f 11/1/1 9/1/1 8/1/1
f 12/1/1 9/1/1 11/1/1
f 14/1/1 11/1/1 10/1/1
f 15/1/1 11/1/1 14/1/1
f 16/1/1 13/1/1 12/1/1
f 17/1/1 13/1/1 16/1/1
f 18/2/1 15/2/1 14/2/1
f 19/2/1 15/2/1 18/2/1
f 21/2/1 17/2/1 16/2/1
f 22/2/1 17/2/1 21/2/1
f 23/2/1 20/2/1 19/2/1
f 24/1/1 21/1/1 20/1/1
f 24/2/1 20/2/1 23/2/1
f 25/1/1 21/1/1 24/1/1
f 28/1/1 27/1/1 26/1/1
f 29/1/1 27/1/1 28/1/1
f 31/1/1 30/1/1 29/1/1
f 32/1/1 30/1/1 31/1/1
f 35/2/1 32/2/1 31/2/1
f 36/2/1 32/2/1 35/2/1
f 37/1/1 34/1/1 33/1/1
f 37/1/1 35/1/1 34/1/1
f 38/1/1 35/1/1 37/1/1
f 39/1/2 40/1/2 42/1/2
f 42/1/2 40/1/2 43/1/2
f 41/1/2 42/1/2 44/1/2
f 44/1/2 42/1/2 45/1/2
f 45/1/2 46/1/2 48/1/2
f 46/2/2 47/2/2 49/2/2
f 48/1/2 46/1/2 49/1/2
f 49/2/2 47/2/2 50/2/2
f 51/1/2 52/1/2 54/1/2
f 54/1/2 52/1/2 55/1/2
f 53/1/2 54/1/2 57/1/2
f 57/1/2 54/1/2 58/1/2
f 57/2/2 58/2/2 59/2/2
f 59/2/2 58/2/2 60/2/2
f 55/1/2 56/1/2 62/1/2
f 62/1/2 56/1/2 63/1/2
f 60/1/2 61/1/2 64/1/2
f 61/2/2 62/2/2 65/2/2
f 64/1/2 61/1/2 65/1/2
f 65/2/2 62/2/2 66/2/2
f 67/1/2 68/1/2 69/1/2
f 69/1/2 68/1/2 70/1/2
f 74/1/3 72/1/3 71/1/3
f 74/2/3 73/2/3 72/2/3
f 75/2/3 73/2/3 74/2/3
f 76/1/3 74/1/3 71/1/3
f 76/1/3 75/1/3 74/1/3
f 77/1/3 75/1/3 76/1/3
f 82/1/3 79/1/3 78/1/3
f 83/2/3 80/2/3 79/2/3
f 83/1/3 79/1/3 82/1/3
f 84/2/3 80/2/3 83/2/3
f 86/2/3 85/2/3 84/2/3
f 87/2/3 85/2/3 86/2/3
f 88/1/3 82/1/3 81/1/3
f 89/1/3 82/1/3 88/1/3
f 90/1/3 87/1/3 86/1/3
f 91/1/3 87/1/3 90/1/3
f 92/1/3 90/1/3 89/1/3
f 93/1/3 90/1/3 92/1/3
f 94/1/3 92/1/3 89/1/3
f 95/2/3 93/2/3 92/2/3
f 95/1/3 92/1/3 94/1/3
f 96/2/3 93/2/3 95/2/3
f 101/1/3 100/1/3 99/1/3
f 102/1/3 98/1/3 97/1/3
f 103/1/3 98/1/3 102/1/3
f 105/1/3 100/1/3 101/1/3
f 106/1/3 100/1/3 105/1/3
f 107/1/3 104/1/3 103/1/3
f 107/1/3 105/1/3 104/1/3
f 108/1/3 105/1/3 107/1/3
f 109/1/4 110/1/4 112/1/4
f 112/1/4 110/1/4 113/1/4
f 113/1/4 110/1/4 114/1/4
f 114/1/4 115/1/4 116/1/4
f 116/1/4 115/1/4 117/1/4
f 111/1/4 112/1/4 118/1/4
f 118/1/4 112/1/4 119/1/4
f 116/2/4 117/2/4 120/2/4
f 120/2/4 117/2/4 121/2/4
f 122/1/4 123/1/4 125/1/4
f 123/2/4 124/2/4 125/2/4
f 125/2/4 124/2/4 126/2/4
f 122/1/4 125/1/4 128/1/4
f 125/1/4 126/1/4 128/1/4
f 128/1/4 126/1/4 129/1/4
f 129/1/4 126/1/4 130/1/4
f 130/1/4 131/1/4 132/1/4
f 132/1/4 131/1/4 133/1/4
f 127/1/4 128/1/4 134/1/4
f 134/1/4 128/1/4 135/1/4
f 132/2/4 133/2/4 136/2/4
f 136/2/4 133/2/4 137/2/4
f 135/1/4 136/1/4 138/1/4
f 138/1/4 136/1/4 139/1/4
f 140/1/4 141/1/4 143/1/4
f 141/2/4 142/2/4 143/2/4
f 143/2/4 142/2/4 144/2/4
f 140/1/4 143/1/4 145/1/4
f 143/1/4 144/1/4 145/1/4
f 145/1/4 144/1/4 146/1/4
f 151/1/5 148/1/5 147/1/5
f 152/1/5 148/1/5 151/1/5
f 153/1/5 150/1/5 149/1/5
f 154/1/5 150/1/5 153/1/5
f 158/1/5 156/1/5 155/1/5
f 159/1/5 156/1/5 158/1/5
f 161/1/5 160/1/5 159/1/5
f 162/1/5 160/1/5 161/1/5
f 164/1/5 158/1/5 157/1/5
f 165/1/5 158/1/5 164/1/5
f 166/1/5 161/1/5 159/1/5
f 167/1/5 166/1/5 165/1/5
f 168/1/5 161/1/5 166/1/5
f 168/1/5 166/1/5 167/1/5
f 169/1/5 163/1/5 162/1/5
f 170/1/5 163/1/5 169/1/5
f 171/1/5 169/1/5 168/1/5
f 172/1/5 169/1/5 171/1/5
f 173/2/6 174/2/6 177/2/6
f 174/1/6 175/1/6 178/1/6
f 177/2/6 174/2/6 178/2/6
f 178/1/6 175/1/6 179/1/6
f 176/2/6 177/2/6 182/2/6
f 182/2/6 177/2/6 183/2/6
f 179/1/6 180/1/6 184/1/6
f 184/1/6 180/1/6 185/1/6
f 180/2/6 181/2/6 186/2/6
f 185/1/6 180/1/6 186/1/6
f 186/2/6 181/2/6 187/2/6
f 182/1/6 183/1/6 189/1/6
f 189/1/6 183/1/6 190/1/6
f 184/2/6 185/2/6 192/2/6
f 192/2/6 185/2/6 193/2/6
f 187/1/6 188/1/6 194/1/6
f 190/2/6 191/2/6 195/2/6
f 192/1/6 193/1/6 196/1/6
f 195/2/6 191/2/6 196/2/6
f 191/1/6 192/1/6 196/1/6
f 196/1/6 193/1/6 197/1/6
f 194/1/6 188/1/6 199/1/6
f 199/1/6 188/1/6 200/1/6
f 197/2/6 198/2/6 201/2/6
f 198/1/6 199/1/6 202/1/6
f 201/2/6 198/2/6 202/2/6
f 202/1/6 199/1/6 203/1/6
f 204/2/6 205/2/6 207/2/6
f 205/1/6 206/1/6 208/1/6
f 207/2/6 205/2/6 208/2/6
f 208/1/6 206/1/6 209/1/6
f 207/1/6 208/1/6 212/1/6
f 208/2/6 209/2/6 213/2/6
f 212/1/6 208/1/6 213/1/6
f 213/2/6 209/2/6 214/2/6
f 210/1/6 211/1/6 215/1/6
f 215/1/6 211/1/6 216/1/6
f 210/1/6 215/1/6 217/1/6
f 215/2/6 216/2/6 218/2/6
f 217/1/6 215/1/6 218/1/6
f 218/2/6 216/2/6 219/2/6
