# MagicaVoxel @ Ephtracy

# group
o 

# material
mtllib carbon3.mtl
usemtl palette

# normals
vn -1 0 0
vn 1 0 0
vn 0 0 1
vn 0 0 -1
vn 0 -1 0
vn 0 1 0

# texcoords
vt 0.947266 0.5
vt 0.951172 0.5

# verts
v -0.4 3.6 -3.1
v -0.4 3.6 -3.2
v -0.4 3.6 -3.3
v -0.4 3.7 -2.9
v -0.4 3.7 -3.1
v -0.4 3.7 -3.2
v -0.4 3.7 -3.3
v -0.4 3.8 -2.9
v -0.4 3.8 -3
v -0.4 3.8 -3.2
v -0.4 3.9 -2.9
v -0.4 3.9 -3
v -0.3 3.7 -3.2
v -0.3 3.7 -3.3
v -0.3 3.8 -2.8
v -0.3 3.8 -2.9
v -0.3 3.8 -3
v -0.3 3.8 -3.1
v -0.3 3.8 -3.2
v -0.3 3.8 -3.3
v -0.3 3.9 -2.8
v -0.3 3.9 -2.9
v -0.3 3.9 -3
v -0.3 3.9 -3.1
v -0.2 3.6 -3.3
v -0.2 3.6 -3.4
v -0.2 3.6 -3.5
v -0.2 3.7 -3.4
v -0.2 3.7 -3.5
v -0.2 3.8 -3.1
v -0.2 3.8 -3.2
v -0.2 3.8 -3.3
v -0.2 3.8 -3.4
v -0.2 3.9 -2.8
v -0.2 3.9 -2.9
v -0.2 3.9 -3
v -0.2 3.9 -3.1
v -0.2 3.9 -3.2
v -0.2 4 -2.9
v -0.2 4 -3
v -0.2 4 -3.1
v -0.2 4.1 -2.9
v -0.2 4.1 -3
v -0.2 4.2 -2.8
v -0.2 4.2 -2.9
v -0.1 3.7 -3.2
v -0.1 3.7 -3.3
v -0.1 3.7 -3.4
v -0.1 3.7 -3.5
v -0.1 3.8 -3.2
v -0.1 3.8 -3.3
v -0.1 3.8 -3.4
v -0.1 3.8 -3.5
v -0.1 3.9 -2.9
v -0.1 3.9 -3
v -0.1 3.9 -3.1
v -0.1 3.9 -3.2
v -0.1 4 -2.9
v -0.1 4 -3
v -0.1 4 -3.1
v -0.1 4 -3.2
v -0.1 4.1 -2.9
v -0.1 4.1 -3
v -0.1 4.2 -2.9
v -0.1 4.2 -3
v -0.2 3.6 -3.1
v -0.2 3.6 -3.2
v -0.2 3.7 -2.9
v -0.2 3.7 -3
v -0.2 3.7 -3.1
v -0.2 3.7 -3.2
v -0.2 3.7 -3.3
v -0.2 3.8 -2.8
v -0.2 3.8 -2.9
v -0.2 3.8 -3
v -0.2 3.8 -3.2
v -0.2 3.8 -3.3
v -0.2 3.9 -2.8
v -0.2 3.9 -2.9
v -0.1 3.6 -3.2
v -0.1 3.6 -3.3
v -0.1 3.7 -3
v -0.1 3.7 -3.1
v -0.1 3.7 -3.2
v -0.1 3.7 -3.3
v -0.1 3.8 -2.9
v -0.1 3.8 -3
v -0.1 3.8 -3.1
v -0.1 3.9 -2.8
v -0.1 3.9 -2.9
v -0.1 3.9 -3
v -0.1 4 -2.8
v -0.1 4 -2.9
v 0 3.7 -3.1
v 0 3.7 -3.2
v 0 3.7 -3.3
v 0 3.7 -3.4
v 0 3.7 -3.5
v 0 3.8 -3.1
v 0 3.8 -3.2
v 0 3.8 -3.3
v 0 3.8 -3.4
v 0 3.8 -3.5
v 0 3.9 -2.9
v 0 3.9 -3
v 0 3.9 -3.1
v 0 3.9 -3.2
v 0 4 -2.8
v 0 4 -2.9
v 0 4 -3
v 0 4 -3.1
v 0 4 -3.2
v 0 4.1 -2.9
v 0 4.1 -3
v 0 4.2 -2.8
v 0 4.2 -2.9
v 0 4.2 -3
v 0.1 3.6 -3.3
v 0.1 3.6 -3.5
v 0.1 3.7 -3.4
v 0.1 3.7 -3.5
v 0.1 3.8 -3
v 0.1 3.8 -3.2
v 0.1 3.8 -3.3
v 0.1 3.8 -3.4
v 0.1 3.9 -3.1
v 0.1 3.9 -3.2
v 0.1 4 -2.9
v 0.1 4 -3
v 0.1 4 -3.1
v 0.1 4.1 -2.9
v 0.1 4.1 -3
v -0.3 3.8 -2.8
v -0.3 3.9 -2.8
v -0.2 3.8 -2.8
v -0.2 3.9 -2.8
v -0.2 4.2 -2.8
v -0.1 3.9 -2.8
v -0.1 4 -2.8
v 0 4 -2.8
v 0 4.2 -2.8
v -0.4 3.7 -2.9
v -0.4 3.8 -2.9
v -0.4 3.9 -2.9
v -0.3 3.8 -2.9
v -0.3 3.9 -2.9
v -0.2 3.7 -2.9
v -0.2 3.8 -2.9
v -0.2 3.9 -2.9
v -0.1 3.8 -2.9
v -0.1 3.9 -2.9
v -0.1 4 -2.9
v 0 3.9 -2.9
v 0 4 -2.9
v 0 4.1 -2.9
v 0.1 4 -2.9
v 0.1 4.1 -2.9
v -0.2 3.7 -3
v -0.2 3.8 -3
v -0.2 3.9 -3
v -0.2 4 -3
v -0.1 3.7 -3
v -0.1 3.8 -3
v -0.1 3.9 -3
v -0.1 4 -3
v 0 3.9 -3
v 0 4 -3
v 0.1 3.8 -3
v 0.1 4 -3
v -0.4 3.6 -3.1
v -0.4 3.7 -3.1
v -0.2 3.6 -3.1
v -0.2 3.7 -3.1
v -0.1 3.7 -3.1
v -0.1 3.8 -3.1
v 0 3.7 -3.1
v 0 3.8 -3.1
v -0.2 3.6 -3.2
v -0.2 3.7 -3.2
v -0.1 3.6 -3.2
v -0.1 3.7 -3.2
v -0.2 3.7 -3.3
v -0.2 3.8 -3.3
v -0.1 3.6 -3.3
v -0.1 3.7 -3.3
v -0.1 3.8 -3.3
v 0 3.7 -3.3
v 0 3.8 -3.3
v 0.1 3.6 -3.3
v 0.1 3.8 -3.3
v -0.2 3.9 -2.9
v -0.2 4 -2.9
v -0.2 4.1 -2.9
v -0.2 4.2 -2.9
v -0.1 3.9 -2.9
v -0.1 4 -2.9
v -0.1 4.1 -2.9
v -0.1 4.2 -2.9
v -0.4 3.8 -3
v -0.4 3.9 -3
v -0.3 3.8 -3
v -0.3 3.9 -3
v -0.2 4 -3
v -0.2 4.1 -3
v -0.1 4 -3
v -0.1 4.1 -3
v -0.1 4.2 -3
v 0 4.1 -3
v 0 4.2 -3
v 0.1 4 -3
v 0.1 4.1 -3
v -0.3 3.8 -3.1
v -0.3 3.9 -3.1
v -0.2 3.8 -3.1
v -0.2 3.9 -3.1
v -0.2 4 -3.1
v -0.1 3.9 -3.1
v -0.1 4 -3.1
v 0 3.9 -3.1
v 0 4 -3.1
v 0.1 3.9 -3.1
v 0.1 4 -3.1
v -0.4 3.7 -3.2
v -0.4 3.8 -3.2
v -0.3 3.7 -3.2
v -0.3 3.8 -3.2
v -0.2 3.7 -3.2
v -0.2 3.8 -3.2
v -0.2 3.9 -3.2
v -0.1 3.7 -3.2
v -0.1 3.8 -3.2
v -0.1 3.9 -3.2
v -0.1 4 -3.2
v 0 3.8 -3.2
v 0 3.9 -3.2
v 0 4 -3.2
v 0.1 3.8 -3.2
v 0.1 3.9 -3.2
v -0.4 3.6 -3.3
v -0.4 3.7 -3.3
v -0.3 3.6 -3.3
v -0.3 3.7 -3.3
v -0.3 3.8 -3.3
v -0.2 3.6 -3.3
v -0.2 3.8 -3.3
v -0.2 3.7 -3.4
v -0.2 3.8 -3.4
v -0.1 3.7 -3.4
v -0.1 3.8 -3.4
v 0 3.7 -3.4
v 0 3.8 -3.4
v 0.1 3.7 -3.4
v 0.1 3.8 -3.4
v -0.2 3.6 -3.5
v -0.2 3.7 -3.5
v -0.1 3.6 -3.5
v -0.1 3.7 -3.5
v -0.1 3.8 -3.5
v 0 3.7 -3.5
v 0 3.8 -3.5
v 0.1 3.6 -3.5
v 0.1 3.7 -3.5
v -0.4 3.6 -3.1
v -0.2 3.6 -3.1
v -0.4 3.6 -3.2
v -0.3 3.6 -3.2
v -0.2 3.6 -3.2
v -0.1 3.6 -3.2
v -0.4 3.6 -3.3
v -0.3 3.6 -3.3
v -0.2 3.6 -3.3
v -0.1 3.6 -3.3
v 0.1 3.6 -3.3
v -0.2 3.6 -3.4
v -0.1 3.6 -3.4
v -0.2 3.6 -3.5
v -0.1 3.6 -3.5
v 0.1 3.6 -3.5
v -0.4 3.7 -2.9
v -0.2 3.7 -2.9
v -0.2 3.7 -3
v -0.1 3.7 -3
v -0.4 3.7 -3.1
v -0.2 3.7 -3.1
v -0.1 3.7 -3.1
v 0 3.7 -3.1
v -0.2 3.7 -3.2
v -0.1 3.7 -3.2
v 0 3.7 -3.2
v -0.1 3.7 -3.3
v 0 3.7 -3.3
v -0.3 3.8 -2.8
v -0.2 3.8 -2.8
v -0.3 3.8 -2.9
v -0.2 3.8 -2.9
v -0.1 3.8 -2.9
v -0.2 3.8 -3
v -0.1 3.8 -3
v 0.1 3.8 -3
v -0.1 3.8 -3.1
v 0 3.8 -3.1
v 0 3.8 -3.2
v 0.1 3.8 -3.2
v -0.2 3.9 -2.8
v -0.1 3.9 -2.8
v -0.2 3.9 -2.9
v -0.1 3.9 -2.9
v 0 3.9 -2.9
v -0.1 3.9 -3
v 0 3.9 -3
v -0.1 4 -2.8
v 0 4 -2.8
v -0.2 4 -2.9
v -0.1 4 -2.9
v 0 4 -2.9
v 0.1 4 -2.9
v -0.2 4 -3
v -0.1 4 -3
v 0 4 -3
v 0.1 4 -3
v -0.4 3.7 -3.2
v -0.3 3.7 -3.2
v -0.2 3.7 -3.2
v -0.1 3.7 -3.2
v -0.4 3.7 -3.3
v -0.3 3.7 -3.3
v -0.2 3.7 -3.3
v -0.1 3.7 -3.3
v -0.2 3.7 -3.4
v -0.1 3.7 -3.4
v 0 3.7 -3.4
v 0.1 3.7 -3.4
v -0.2 3.7 -3.5
v -0.1 3.7 -3.5
v 0 3.7 -3.5
v 0.1 3.7 -3.5
v -0.4 3.8 -3
v -0.3 3.8 -3
v -0.3 3.8 -3.1
v -0.2 3.8 -3.1
v -0.4 3.8 -3.2
v -0.3 3.8 -3.2
v -0.2 3.8 -3.2
v -0.1 3.8 -3.2
v 0 3.8 -3.2
v -0.3 3.8 -3.3
v -0.2 3.8 -3.3
v -0.1 3.8 -3.3
v 0 3.8 -3.3
v 0.1 3.8 -3.3
v -0.2 3.8 -3.4
v -0.1 3.8 -3.4
v 0 3.8 -3.4
v 0.1 3.8 -3.4
v -0.1 3.8 -3.5
v 0 3.8 -3.5
v -0.3 3.9 -2.8
v -0.2 3.9 -2.8
v -0.4 3.9 -2.9
v -0.3 3.9 -2.9
v -0.2 3.9 -2.9
v -0.1 3.9 -2.9
v -0.4 3.9 -3
v -0.3 3.9 -3
v -0.2 3.9 -3
v -0.1 3.9 -3
v -0.3 3.9 -3.1
v -0.2 3.9 -3.1
v -0.1 3.9 -3.1
v 0 3.9 -3.1
v 0.1 3.9 -3.1
v -0.2 3.9 -3.2
v -0.1 3.9 -3.2
v 0 3.9 -3.2
v 0.1 3.9 -3.2
v -0.2 4 -3
v -0.1 4 -3
v 0.1 4 -3
v -0.2 4 -3.1
v -0.1 4 -3.1
v 0 4 -3.1
v 0.1 4 -3.1
v -0.1 4 -3.2
v 0 4 -3.2
v -0.2 4.1 -2.9
v -0.1 4.1 -2.9
v 0 4.1 -2.9
v 0.1 4.1 -2.9
v -0.2 4.1 -3
v -0.1 4.1 -3
v 0 4.1 -3
v 0.1 4.1 -3
v -0.2 4.2 -2.8
v 0 4.2 -2.8
v -0.2 4.2 -2.9
v -0.1 4.2 -2.9
v 0 4.2 -2.9
v -0.1 4.2 -3
v 0 4.2 -3

# faces
f 5/1/1 2/1/1 1/1/1
f 6/2/1 3/2/1 2/2/1
f 6/1/1 2/1/1 5/1/1
f 7/2/1 3/2/1 6/2/1
f 8/1/1 5/1/1 4/1/1
f 8/1/1 6/1/1 5/1/1
f 9/1/1 6/1/1 8/1/1
f 10/1/1 6/1/1 9/1/1
f 11/2/1 9/2/1 8/2/1
f 12/2/1 9/2/1 11/2/1
f 19/1/1 14/1/1 13/1/1
f 20/1/1 14/1/1 19/1/1
f 21/1/1 16/1/1 15/1/1
f 22/1/1 16/1/1 21/1/1
f 23/1/1 18/1/1 17/1/1
f 24/1/1 18/1/1 23/1/1
f 28/1/1 26/1/1 25/1/1
f 28/2/1 27/2/1 26/2/1
f 29/2/1 27/2/1 28/2/1
f 32/1/1 28/1/1 25/1/1
f 33/1/1 28/1/1 32/1/1
f 37/1/1 31/1/1 30/1/1
f 38/1/1 31/1/1 37/1/1
f 39/1/1 35/1/1 34/1/1
f 40/2/1 37/2/1 36/2/1
f 41/2/1 37/2/1 40/2/1
f 42/1/1 39/1/1 34/1/1
f 42/1/1 40/1/1 39/1/1
f 43/1/1 40/1/1 42/1/1
f 44/1/1 42/1/1 34/1/1
f 45/1/1 42/1/1 44/1/1
f 50/2/1 47/2/1 46/2/1
f 51/2/1 47/2/1 50/2/1
f 52/1/1 49/1/1 48/1/1
f 53/1/1 49/1/1 52/1/1
f 58/1/1 55/1/1 54/1/1
f 59/1/1 55/1/1 58/1/1
f 60/1/1 57/1/1 56/1/1
f 61/1/1 57/1/1 60/1/1
f 64/2/1 63/2/1 62/2/1
f 65/2/1 63/2/1 64/2/1
f 66/1/2 67/1/2 70/1/2
f 70/1/2 67/1/2 71/1/2
f 68/1/2 69/1/2 74/1/2
f 74/1/2 69/1/2 75/1/2
f 71/1/2 72/1/2 76/1/2
f 76/1/2 72/1/2 77/1/2
f 73/1/2 74/1/2 78/1/2
f 78/1/2 74/1/2 79/1/2
f 80/1/2 81/1/2 84/1/2
f 84/1/2 81/1/2 85/1/2
f 82/1/2 83/1/2 87/1/2
f 87/1/2 83/1/2 88/1/2
f 86/1/2 87/1/2 90/1/2
f 90/1/2 87/1/2 91/1/2
f 89/1/2 90/1/2 92/1/2
f 92/1/2 90/1/2 93/1/2
f 94/1/2 95/1/2 99/1/2
f 95/2/2 96/2/2 100/2/2
f 99/1/2 95/1/2 100/1/2
f 100/2/2 96/2/2 101/2/2
f 97/1/2 98/1/2 102/1/2
f 102/1/2 98/1/2 103/1/2
f 104/1/2 105/1/2 109/1/2
f 109/1/2 105/1/2 110/1/2
f 106/1/2 107/1/2 111/1/2
f 111/1/2 107/1/2 112/1/2
f 108/1/2 109/1/2 113/1/2
f 108/1/2 113/1/2 115/1/2
f 113/2/2 114/2/2 116/2/2
f 115/1/2 113/1/2 116/1/2
f 116/2/2 114/2/2 117/2/2
f 118/1/2 119/1/2 120/1/2
f 120/1/2 119/1/2 121/1/2
f 118/1/2 120/1/2 124/1/2
f 124/1/2 120/1/2 125/1/2
f 122/1/2 123/1/2 126/1/2
f 126/1/2 123/1/2 127/1/2
f 122/1/2 126/1/2 129/1/2
f 129/1/2 126/1/2 130/1/2
f 128/1/2 129/1/2 131/1/2
f 131/1/2 129/1/2 132/1/2
f 135/1/3 134/1/3 133/1/3
f 136/1/3 134/1/3 135/1/3
f 138/1/3 137/1/3 136/1/3
f 139/1/3 137/1/3 138/1/3
f 140/1/3 137/1/3 139/1/3
f 141/1/3 137/1/3 140/1/3
f 145/1/3 143/1/3 142/1/3
f 145/2/3 144/2/3 143/2/3
f 146/2/3 144/2/3 145/2/3
f 147/1/3 145/1/3 142/1/3
f 148/1/3 145/1/3 147/1/3
f 150/1/3 149/1/3 148/1/3
f 151/1/3 149/1/3 150/1/3
f 153/1/3 152/1/3 151/1/3
f 154/1/3 152/1/3 153/1/3
f 156/1/3 155/1/3 154/1/3
f 157/1/3 155/1/3 156/1/3
f 162/1/3 159/1/3 158/1/3
f 163/1/3 159/1/3 162/1/3
f 164/2/3 161/2/3 160/2/3
f 165/2/3 161/2/3 164/2/3
f 166/1/3 164/1/3 163/1/3
f 168/1/3 166/1/3 163/1/3
f 168/1/3 167/1/3 166/1/3
f 169/1/3 167/1/3 168/1/3
f 172/1/3 171/1/3 170/1/3
f 173/1/3 171/1/3 172/1/3
f 176/1/3 175/1/3 174/1/3
f 177/1/3 175/1/3 176/1/3
f 180/1/3 179/1/3 178/1/3
f 181/1/3 179/1/3 180/1/3
f 185/1/3 183/1/3 182/1/3
f 186/1/3 183/1/3 185/1/3
f 187/1/3 185/1/3 184/1/3
f 189/1/3 187/1/3 184/1/3
f 189/1/3 188/1/3 187/1/3
f 190/1/3 188/1/3 189/1/3
f 191/1/4 192/1/4 195/1/4
f 195/1/4 192/1/4 196/1/4
f 193/1/4 194/1/4 197/1/4
f 197/1/4 194/1/4 198/1/4
f 199/2/4 200/2/4 201/2/4
f 201/2/4 200/2/4 202/2/4
f 203/1/4 204/1/4 205/1/4
f 205/1/4 204/1/4 206/1/4
f 205/1/4 206/1/4 208/1/4
f 206/2/4 207/2/4 208/2/4
f 208/2/4 207/2/4 209/2/4
f 205/1/4 208/1/4 210/1/4
f 210/1/4 208/1/4 211/1/4
f 212/1/4 213/1/4 214/1/4
f 214/1/4 213/1/4 215/1/4
f 215/2/4 216/2/4 217/2/4
f 217/2/4 216/2/4 218/2/4
f 219/1/4 220/1/4 221/1/4
f 221/1/4 220/1/4 222/1/4
f 223/1/4 224/1/4 225/1/4
f 225/1/4 224/1/4 226/1/4
f 227/1/4 228/1/4 230/1/4
f 228/1/4 229/1/4 230/1/4
f 230/1/4 229/1/4 231/1/4
f 231/1/4 229/1/4 232/1/4
f 232/1/4 233/1/4 234/1/4
f 231/1/4 232/1/4 234/1/4
f 234/1/4 233/1/4 235/1/4
f 235/1/4 233/1/4 236/1/4
f 234/1/4 235/1/4 237/1/4
f 237/1/4 235/1/4 238/1/4
f 239/2/4 240/2/4 241/2/4
f 241/2/4 240/2/4 242/2/4
f 241/1/4 242/1/4 244/1/4
f 242/1/4 243/1/4 244/1/4
f 244/1/4 243/1/4 245/1/4
f 246/1/4 247/1/4 248/1/4
f 248/1/4 247/1/4 249/1/4
f 250/1/4 251/1/4 252/1/4
f 252/1/4 251/1/4 253/1/4
f 254/2/4 255/2/4 256/2/4
f 256/2/4 255/2/4 257/2/4
f 256/1/4 257/1/4 259/1/4
f 257/1/4 258/1/4 259/1/4
f 259/1/4 258/1/4 260/1/4
f 256/1/4 259/1/4 261/1/4
f 261/1/4 259/1/4 262/1/4
f 265/1/5 264/1/5 263/1/5
f 266/1/5 264/1/5 265/1/5
f 267/1/5 264/1/5 266/1/5
f 269/2/5 266/2/5 265/2/5
f 270/1/5 268/1/5 267/1/5
f 270/2/5 266/2/5 269/2/5
f 270/1/5 267/1/5 266/1/5
f 271/1/5 268/1/5 270/1/5
f 272/1/5 268/1/5 271/1/5
f 274/1/5 273/1/5 272/1/5
f 274/1/5 272/1/5 271/1/5
f 275/1/5 273/1/5 274/1/5
f 276/2/5 275/2/5 274/2/5
f 277/1/5 273/1/5 275/1/5
f 277/2/5 275/2/5 276/2/5
f 278/1/5 273/1/5 277/1/5
f 281/1/5 280/1/5 279/1/5
f 283/1/5 281/1/5 279/1/5
f 283/1/5 282/1/5 281/1/5
f 284/1/5 282/1/5 283/1/5
f 285/1/5 282/1/5 284/1/5
f 287/1/5 286/1/5 285/1/5
f 287/1/5 285/1/5 284/1/5
f 288/1/5 286/1/5 287/1/5
f 289/1/5 286/1/5 288/1/5
f 290/2/5 289/2/5 288/2/5
f 291/2/5 289/2/5 290/2/5
f 294/1/5 293/1/5 292/1/5
f 295/1/5 293/1/5 294/1/5
f 297/1/5 296/1/5 295/1/5
f 298/1/5 296/1/5 297/1/5
f 300/1/5 299/1/5 298/1/5
f 301/1/5 299/1/5 300/1/5
f 302/1/5 299/1/5 301/1/5
f 303/1/5 299/1/5 302/1/5
f 306/1/5 305/1/5 304/1/5
f 307/1/5 305/1/5 306/1/5
f 309/1/5 308/1/5 307/1/5
f 310/1/5 308/1/5 309/1/5
f 314/1/5 312/1/5 311/1/5
f 315/1/5 312/1/5 314/1/5
f 317/1/5 314/1/5 313/1/5
f 318/1/5 314/1/5 317/1/5
f 319/1/5 316/1/5 315/1/5
f 320/1/5 316/1/5 319/1/5
f 321/2/6 322/2/6 325/2/6
f 325/2/6 322/2/6 326/2/6
f 323/1/6 324/1/6 327/1/6
f 327/1/6 324/1/6 328/1/6
f 329/2/6 330/2/6 333/2/6
f 333/2/6 330/2/6 334/2/6
f 331/1/6 332/1/6 335/1/6
f 335/1/6 332/1/6 336/1/6
f 337/1/6 338/1/6 339/1/6
f 337/1/6 339/1/6 341/1/6
f 339/2/6 340/2/6 342/2/6
f 341/1/6 339/1/6 342/1/6
f 342/2/6 340/2/6 343/2/6
f 342/1/6 343/1/6 346/1/6
f 346/1/6 343/1/6 347/1/6
f 344/2/6 345/2/6 348/2/6
f 348/2/6 345/2/6 349/2/6
f 349/1/6 350/1/6 351/1/6
f 348/1/6 349/1/6 351/1/6
f 347/1/6 348/1/6 351/1/6
f 351/1/6 350/1/6 352/1/6
f 352/1/6 350/1/6 353/1/6
f 353/1/6 350/1/6 354/1/6
f 352/1/6 353/1/6 355/1/6
f 355/1/6 353/1/6 356/1/6
f 357/1/6 358/1/6 360/1/6
f 360/1/6 358/1/6 361/1/6
f 359/2/6 360/2/6 363/2/6
f 361/1/6 362/1/6 364/1/6
f 363/2/6 360/2/6 364/2/6
f 360/1/6 361/1/6 364/1/6
f 364/1/6 362/1/6 365/1/6
f 365/1/6 362/1/6 366/1/6
f 364/1/6 365/1/6 367/1/6
f 367/1/6 365/1/6 368/1/6
f 368/1/6 369/1/6 372/1/6
f 372/1/6 369/1/6 373/1/6
f 370/1/6 371/1/6 374/1/6
f 374/1/6 371/1/6 375/1/6
f 376/2/6 377/2/6 379/2/6
f 377/1/6 378/1/6 380/1/6
f 379/2/6 377/2/6 380/2/6
f 380/1/6 378/1/6 381/1/6
f 381/1/6 378/1/6 382/1/6
f 380/1/6 381/1/6 383/1/6
f 383/1/6 381/1/6 384/1/6
f 385/1/6 386/1/6 389/1/6
f 389/1/6 386/1/6 390/1/6
f 387/1/6 388/1/6 391/1/6
f 391/1/6 388/1/6 392/1/6
f 393/1/6 394/1/6 395/1/6
f 395/1/6 394/1/6 396/1/6
f 396/1/6 394/1/6 397/1/6
f 396/2/6 397/2/6 398/2/6
f 398/2/6 397/2/6 399/2/6
