# MagicaVoxel @ Ephtracy

# group
o 

# material
mtllib carbon6.mtl
usemtl palette

# normals
vn -1 0 0
vn 1 0 0
vn 0 0 1
vn 0 0 -1
vn 0 -1 0
vn 0 1 0

# texcoords
vt 0.947266 0.5
vt 0.951172 0.5

# verts
v -2.7 3.8 -4.4
v -2.7 3.8 -4.5
v -2.7 3.9 -4.4
v -2.7 3.9 -4.5
v -2.6 3.7 -4.3
v -2.6 3.7 -4.5
v -2.6 3.8 -4.3
v -2.6 3.8 -4.4
v -2.6 3.8 -4.5
v -2.6 3.8 -4.6
v -2.6 3.9 -4.3
v -2.6 3.9 -4.4
v -2.6 3.9 -4.5
v -2.6 4 -4.4
v -2.6 4 -4.5
v -2.6 4 -4.6
v -2.5 4 -4.5
v -2.5 4 -4.6
v -2.5 4 -4.7
v -2.5 4.1 -4.5
v -2.5 4.1 -4.6
v -2.5 4.1 -4.7
v -2.4 4 -4.4
v -2.4 4 -4.5
v -2.4 4.1 -4.4
v -2.4 4.1 -4.5
v -2.4 4.1 -4.6
v -2.4 4.1 -4.7
v -2.4 4.2 -4.5
v -2.4 4.2 -4.6
v -2.4 4.2 -4.7
v -2.4 3.7 -4.3
v -2.4 3.7 -4.4
v -2.4 3.8 -4.3
v -2.4 3.8 -4.4
v -2.4 3.9 -4.3
v -2.4 3.9 -4.4
v -2.3 3.7 -4.4
v -2.3 3.7 -4.5
v -2.3 3.8 -4.4
v -2.3 3.8 -4.5
v -2.3 3.9 -4.4
v -2.3 3.9 -4.5
v -2.2 3.8 -4.5
v -2.2 3.8 -4.6
v -2.2 3.9 -4.4
v -2.2 3.9 -4.5
v -2.2 3.9 -4.6
v -2.2 4 -4.5
v -2.2 4.1 -4.4
v -2.2 4.1 -4.5
v -2.2 4.1 -4.6
v -2.2 4.1 -4.7
v -2.2 4.2 -4.5
v -2.2 4.2 -4.6
v -2.2 4.2 -4.7
v -2.1 3.9 -4.5
v -2.1 3.9 -4.6
v -2.1 4 -4.5
v -2.1 4 -4.6
v -2.1 4 -4.7
v -2.1 4.1 -4.5
v -2.1 4.1 -4.6
v -2.1 4.1 -4.7
v -2.6 3.7 -4.3
v -2.6 3.8 -4.3
v -2.6 3.9 -4.3
v -2.5 3.7 -4.3
v -2.5 3.8 -4.3
v -2.5 3.9 -4.3
v -2.4 3.7 -4.3
v -2.4 3.8 -4.3
v -2.4 3.9 -4.3
v -2.7 3.8 -4.4
v -2.7 3.9 -4.4
v -2.6 3.8 -4.4
v -2.6 3.9 -4.4
v -2.6 4 -4.4
v -2.5 3.9 -4.4
v -2.5 4 -4.4
v -2.4 3.7 -4.4
v -2.4 3.8 -4.4
v -2.4 3.9 -4.4
v -2.4 4 -4.4
v -2.4 4.1 -4.4
v -2.3 3.7 -4.4
v -2.3 3.8 -4.4
v -2.3 3.9 -4.4
v -2.3 4.1 -4.4
v -2.2 3.9 -4.4
v -2.2 4.1 -4.4
v -2.5 4 -4.5
v -2.5 4.1 -4.5
v -2.4 4 -4.5
v -2.4 4.1 -4.5
v -2.4 4.2 -4.5
v -2.3 3.8 -4.5
v -2.3 3.9 -4.5
v -2.3 4.1 -4.5
v -2.3 4.2 -4.5
v -2.2 3.8 -4.5
v -2.2 3.9 -4.5
v -2.2 4 -4.5
v -2.2 4.1 -4.5
v -2.2 4.2 -4.5
v -2.1 3.9 -4.5
v -2.1 4 -4.5
v -2.1 4.1 -4.5
v -2.7 3.8 -4.5
v -2.7 3.9 -4.5
v -2.6 3.7 -4.5
v -2.6 3.8 -4.5
v -2.6 3.9 -4.5
v -2.3 3.7 -4.5
v -2.3 3.8 -4.5
v -2.6 3.8 -4.6
v -2.6 4 -4.6
v -2.5 4 -4.6
v -2.4 4 -4.6
v -2.2 3.8 -4.6
v -2.2 3.9 -4.6
v -2.1 3.9 -4.6
v -2.1 4 -4.6
v -2.5 4 -4.7
v -2.5 4.1 -4.7
v -2.4 4 -4.7
v -2.4 4.1 -4.7
v -2.4 4.2 -4.7
v -2.3 4.1 -4.7
v -2.3 4.2 -4.7
v -2.2 4.1 -4.7
v -2.2 4.2 -4.7
v -2.1 4 -4.7
v -2.1 4.1 -4.7
v -2.6 3.7 -4.3
v -2.5 3.7 -4.3
v -2.4 3.7 -4.3
v -2.5 3.7 -4.4
v -2.4 3.7 -4.4
v -2.3 3.7 -4.4
v -2.6 3.7 -4.5
v -2.3 3.7 -4.5
v -2.7 3.8 -4.4
v -2.6 3.8 -4.4
v -2.7 3.8 -4.5
v -2.6 3.8 -4.5
v -2.3 3.8 -4.5
v -2.2 3.8 -4.5
v -2.6 3.8 -4.6
v -2.2 3.8 -4.6
v -2.3 3.9 -4.4
v -2.2 3.9 -4.4
v -2.3 3.9 -4.5
v -2.2 3.9 -4.5
v -2.1 3.9 -4.5
v -2.2 3.9 -4.6
v -2.1 3.9 -4.6
v -2.5 4 -4.6
v -2.4 4 -4.6
v -2.1 4 -4.6
v -2.5 4 -4.7
v -2.4 4 -4.7
v -2.1 4 -4.7
v -2.6 3.9 -4.3
v -2.5 3.9 -4.3
v -2.4 3.9 -4.3
v -2.7 3.9 -4.4
v -2.6 3.9 -4.4
v -2.5 3.9 -4.4
v -2.4 3.9 -4.4
v -2.7 3.9 -4.5
v -2.6 3.9 -4.5
v -2.6 4 -4.4
v -2.5 4 -4.4
v -2.4 4 -4.4
v -2.6 4 -4.5
v -2.5 4 -4.5
v -2.4 4 -4.5
v -2.6 4 -4.6
v -2.5 4 -4.6
v -2.4 4.1 -4.4
v -2.3 4.1 -4.4
v -2.2 4.1 -4.4
v -2.5 4.1 -4.5
v -2.4 4.1 -4.5
v -2.3 4.1 -4.5
v -2.2 4.1 -4.5
v -2.1 4.1 -4.5
v -2.5 4.1 -4.6
v -2.4 4.1 -4.6
v -2.2 4.1 -4.6
v -2.1 4.1 -4.6
v -2.5 4.1 -4.7
v -2.4 4.1 -4.7
v -2.2 4.1 -4.7
v -2.1 4.1 -4.7
v -2.4 4.2 -4.5
v -2.3 4.2 -4.5
v -2.2 4.2 -4.5
v -2.4 4.2 -4.6
v -2.3 4.2 -4.6
v -2.2 4.2 -4.6
v -2.4 4.2 -4.7
v -2.3 4.2 -4.7
v -2.2 4.2 -4.7

# faces
f 3/1/1 2/1/1 1/1/1
f 4/1/1 2/1/1 3/1/1
f 7/1/1 6/1/1 5/1/1
f 8/1/1 6/1/1 7/1/1
f 9/1/1 6/1/1 8/1/1
f 11/2/1 8/2/1 7/2/1
f 12/2/1 8/2/1 11/2/1
f 13/1/1 10/1/1 9/1/1
f 14/2/1 13/2/1 12/2/1
f 15/1/1 10/1/1 13/1/1
f 15/2/1 13/2/1 14/2/1
f 16/1/1 10/1/1 15/1/1
f 20/1/1 18/1/1 17/1/1
f 21/2/1 19/2/1 18/2/1
f 21/1/1 18/1/1 20/1/1
f 22/2/1 19/2/1 21/2/1
f 25/1/1 24/1/1 23/1/1
f 26/1/1 24/1/1 25/1/1
f 29/2/1 27/2/1 26/2/1
f 30/1/1 28/1/1 27/1/1
f 30/2/1 27/2/1 29/2/1
f 31/1/1 28/1/1 30/1/1
f 32/2/2 33/2/2 34/2/2
f 34/2/2 33/2/2 35/2/2
f 34/1/2 35/1/2 36/1/2
f 36/1/2 35/1/2 37/1/2
f 38/1/2 39/1/2 40/1/2
f 40/1/2 39/1/2 41/1/2
f 40/2/2 41/2/2 42/2/2
f 42/2/2 41/2/2 43/2/2
f 44/1/2 45/1/2 47/1/2
f 47/1/2 45/1/2 48/1/2
f 46/2/2 47/2/2 49/2/2
f 46/2/2 49/2/2 50/2/2
f 50/2/2 49/2/2 51/2/2
f 51/1/2 52/1/2 54/1/2
f 52/2/2 53/2/2 55/2/2
f 54/1/2 52/1/2 55/1/2
f 55/2/2 53/2/2 56/2/2
f 57/1/2 58/1/2 59/1/2
f 59/1/2 58/1/2 60/1/2
f 59/2/2 60/2/2 62/2/2
f 60/1/2 61/1/2 63/1/2
f 62/2/2 60/2/2 63/2/2
f 63/1/2 61/1/2 64/1/2
f 68/1/3 66/1/3 65/1/3
f 69/2/3 67/2/3 66/2/3
f 69/1/3 66/1/3 68/1/3
f 70/2/3 67/2/3 69/2/3
f 71/2/3 69/2/3 68/2/3
f 72/1/3 70/1/3 69/1/3
f 72/2/3 69/2/3 71/2/3
f 73/1/3 70/1/3 72/1/3
f 76/1/3 75/1/3 74/1/3
f 77/1/3 75/1/3 76/1/3
f 79/2/3 78/2/3 77/2/3
f 80/2/3 78/2/3 79/2/3
f 83/1/3 80/1/3 79/1/3
f 84/1/3 80/1/3 83/1/3
f 86/1/3 82/1/3 81/1/3
f 87/2/3 83/2/3 82/2/3
f 87/1/3 82/1/3 86/1/3
f 88/1/3 85/1/3 84/1/3
f 88/2/3 83/2/3 87/2/3
f 88/1/3 84/1/3 83/1/3
f 89/1/3 85/1/3 88/1/3
f 90/2/3 89/2/3 88/2/3
f 91/2/3 89/2/3 90/2/3
f 94/1/3 93/1/3 92/1/3
f 95/1/3 93/1/3 94/1/3
f 99/2/3 96/2/3 95/2/3
f 100/2/3 96/2/3 99/2/3
f 101/1/3 98/1/3 97/1/3
f 102/1/3 98/1/3 101/1/3
f 104/1/3 100/1/3 99/1/3
f 105/1/3 100/1/3 104/1/3
f 106/1/3 103/1/3 102/1/3
f 107/2/3 104/2/3 103/2/3
f 107/1/3 103/1/3 106/1/3
f 108/2/3 104/2/3 107/2/3
f 109/1/4 110/1/4 112/1/4
f 112/1/4 110/1/4 113/1/4
f 111/1/4 112/1/4 114/1/4
f 114/1/4 112/1/4 115/1/4
f 116/1/4 117/1/4 118/1/4
f 116/1/4 118/1/4 119/1/4
f 116/1/4 119/1/4 120/1/4
f 120/1/4 119/1/4 121/1/4
f 121/1/4 119/1/4 122/1/4
f 122/1/4 119/1/4 123/1/4
f 124/2/4 125/2/4 126/2/4
f 126/2/4 125/2/4 127/2/4
f 126/1/4 127/1/4 129/1/4
f 127/1/4 128/1/4 129/1/4
f 129/1/4 128/1/4 130/1/4
f 126/1/4 129/1/4 131/1/4
f 129/2/4 130/2/4 131/2/4
f 131/2/4 130/2/4 132/2/4
f 126/1/4 131/1/4 133/1/4
f 133/1/4 131/1/4 134/1/4
f 138/1/5 136/1/5 135/1/5
f 138/2/5 137/2/5 136/2/5
f 139/2/5 137/2/5 138/2/5
f 141/1/5 138/1/5 135/1/5
f 141/1/5 140/1/5 139/1/5
f 141/1/5 139/1/5 138/1/5
f 142/1/5 140/1/5 141/1/5
f 145/1/5 144/1/5 143/1/5
f 146/1/5 144/1/5 145/1/5
f 149/1/5 148/1/5 147/1/5
f 149/1/5 147/1/5 146/1/5
f 150/1/5 148/1/5 149/1/5
f 153/2/5 152/2/5 151/2/5
f 154/2/5 152/2/5 153/2/5
f 156/1/5 155/1/5 154/1/5
f 157/1/5 155/1/5 156/1/5
f 161/2/5 159/2/5 158/2/5
f 162/1/5 160/1/5 159/1/5
f 162/2/5 159/2/5 161/2/5
f 163/1/5 160/1/5 162/1/5
f 164/2/6 165/2/6 168/2/6
f 165/1/6 166/1/6 169/1/6
f 168/2/6 165/2/6 169/2/6
f 169/1/6 166/1/6 170/1/6
f 167/1/6 168/1/6 171/1/6
f 171/1/6 168/1/6 172/1/6
f 173/2/6 174/2/6 176/2/6
f 174/1/6 175/1/6 177/1/6
f 176/2/6 174/2/6 177/2/6
f 177/1/6 175/1/6 178/1/6
f 176/1/6 177/1/6 179/1/6
f 179/1/6 177/1/6 180/1/6
f 181/1/6 182/1/6 185/1/6
f 182/2/6 183/2/6 186/2/6
f 185/1/6 182/1/6 186/1/6
f 186/2/6 183/2/6 187/2/6
f 184/1/6 185/1/6 189/1/6
f 189/1/6 185/1/6 190/1/6
f 187/2/6 188/2/6 191/2/6
f 191/2/6 188/2/6 192/2/6
f 189/2/6 190/2/6 193/2/6
f 193/2/6 190/2/6 194/2/6
f 191/1/6 192/1/6 195/1/6
f 195/1/6 192/1/6 196/1/6
f 197/2/6 198/2/6 200/2/6
f 198/1/6 199/1/6 201/1/6
f 200/2/6 198/2/6 201/2/6
f 201/1/6 199/1/6 202/1/6
f 200/1/6 201/1/6 203/1/6
f 201/2/6 202/2/6 204/2/6
f 203/1/6 201/1/6 204/1/6
f 204/2/6 202/2/6 205/2/6
