# MagicaVoxel @ Ephtracy

# group
o 

# material
mtllib carbon1.mtl
usemtl palette

# normals
vn -1 0 0
vn 1 0 0
vn 0 0 1
vn 0 0 -1
vn 0 -1 0
vn 0 1 0

# texcoords
vt 0.947266 0.5
vt 0.951172 0.5

# verts
v -1.4 3.6 -3.8
v -1.4 3.6 -4
v -1.4 3.7 -3.9
v -1.4 3.7 -4
v -1.4 3.8 -3.8
v -1.4 3.8 -3.9
v -1.4 3.8 -4
v -1.3 3.6 -4
v -1.3 3.6 -4.2
v -1.3 3.7 -3.7
v -1.3 3.7 -3.8
v -1.3 3.7 -4
v -1.3 3.7 -4.1
v -1.3 3.7 -4.2
v -1.3 3.8 -3.7
v -1.3 3.8 -3.8
v -1.3 3.8 -3.9
v -1.3 3.8 -4
v -1.3 3.8 -4.1
v -1.3 3.9 -3.8
v -1.3 3.9 -4
v -1.2 3.6 -4.2
v -1.2 3.6 -4.3
v -1.2 3.7 -4.1
v -1.2 3.7 -4.2
v -1.2 3.7 -4.3
v -1.2 3.8 -4.1
v -1.2 3.8 -4.2
v -0.9 3.7 -3.9
v -0.9 3.7 -4
v -0.9 3.7 -4.1
v -0.9 3.8 -3.9
v -0.9 3.8 -4
v -0.9 3.8 -4.1
v -0.6 3.6 -4.1
v -0.6 3.6 -4.2
v -0.6 3.7 -4.1
v -0.6 3.7 -4.2
v -0.5 3.6 -4.2
v -0.5 3.6 -4.3
v -0.5 3.7 -4
v -0.5 3.7 -4.1
v -0.5 3.7 -4.2
v -0.5 3.7 -4.3
v -0.5 3.8 -4
v -0.5 3.8 -4.1
v -0.5 3.8 -4.2
v -1.2 3.6 -3.8
v -1.2 3.6 -4
v -1.2 3.7 -3.8
v -1.2 3.7 -4
v -1.1 3.7 -3.7
v -1.1 3.7 -3.8
v -1.1 3.8 -3.7
v -1.1 3.8 -3.8
v -1.1 3.8 -3.9
v -1.1 3.8 -4
v -1.1 3.9 -3.8
v -1.1 3.9 -3.9
v -1.1 3.9 -4
v -1 3.6 -4.2
v -1 3.6 -4.3
v -1 3.7 -3.8
v -1 3.7 -3.9
v -1 3.7 -4
v -1 3.7 -4.1
v -1 3.7 -4.2
v -1 3.7 -4.3
v -1 3.8 -3.8
v -1 3.8 -3.9
v -1 3.8 -4
v -1 3.8 -4.1
v -1 3.8 -4.2
v -0.7 3.6 -4.1
v -0.7 3.6 -4.2
v -0.7 3.7 -3.9
v -0.7 3.7 -4
v -0.7 3.7 -4.1
v -0.7 3.7 -4.2
v -0.7 3.8 -3.9
v -0.7 3.8 -4
v -0.7 3.8 -4.1
v -0.3 3.6 -4
v -0.3 3.6 -4.1
v -0.3 3.6 -4.2
v -0.3 3.6 -4.3
v -0.3 3.7 -4.1
v -0.3 3.7 -4.2
v -0.3 3.7 -4.3
v -0.3 3.8 -4
v -0.3 3.8 -4.1
v -0.3 3.8 -4.2
v -0.2 3.6 -4.1
v -0.2 3.6 -4.2
v -0.2 3.7 -4.1
v -0.2 3.7 -4.2
v -1.3 3.7 -3.7
v -1.3 3.8 -3.7
v -1.2 3.7 -3.7
v -1.2 3.8 -3.7
v -1.1 3.7 -3.7
v -1.1 3.8 -3.7
v -1.4 3.6 -3.8
v -1.4 3.8 -3.8
v -1.3 3.7 -3.8
v -1.3 3.8 -3.8
v -1.3 3.9 -3.8
v -1.2 3.6 -3.8
v -1.2 3.7 -3.8
v -1.2 3.8 -3.8
v -1.2 3.9 -3.8
v -1.1 3.7 -3.8
v -1.1 3.8 -3.8
v -1.1 3.9 -3.8
v -1 3.7 -3.8
v -1 3.8 -3.8
v -0.9 3.7 -3.9
v -0.9 3.8 -3.9
v -0.8 3.7 -3.9
v -0.8 3.8 -3.9
v -0.7 3.7 -3.9
v -0.7 3.8 -3.9
v -1.2 3.6 -4
v -1.2 3.7 -4
v -1.1 3.7 -4
v -1 3.7 -4
v -0.9 3.7 -4
v -0.8 3.7 -4
v -0.7 3.6 -4
v -0.7 3.7 -4
v -0.6 3.6 -4
v -0.6 3.7 -4
v -0.5 3.7 -4
v -0.5 3.8 -4
v -0.3 3.6 -4
v -0.3 3.8 -4
v -0.3 3.6 -4.1
v -0.3 3.7 -4.1
v -0.2 3.6 -4.1
v -0.2 3.7 -4.1
v -1.4 3.6 -4
v -1.4 3.7 -4
v -1.4 3.8 -4
v -1.3 3.6 -4
v -1.3 3.7 -4
v -1.3 3.8 -4
v -1.3 3.9 -4
v -1.1 3.8 -4
v -1.1 3.9 -4
v -1.3 3.7 -4.1
v -1.3 3.8 -4.1
v -1.2 3.7 -4.1
v -1.2 3.8 -4.1
v -0.9 3.7 -4.1
v -0.9 3.8 -4.1
v -0.8 3.7 -4.1
v -0.8 3.8 -4.1
v -0.7 3.6 -4.1
v -0.7 3.7 -4.1
v -0.7 3.8 -4.1
v -0.6 3.6 -4.1
v -0.6 3.7 -4.1
v -1.3 3.6 -4.2
v -1.3 3.7 -4.2
v -1.2 3.6 -4.2
v -1.2 3.7 -4.2
v -1.2 3.8 -4.2
v -1.1 3.7 -4.2
v -1.1 3.8 -4.2
v -1 3.6 -4.2
v -1 3.7 -4.2
v -1 3.8 -4.2
v -0.8 3.6 -4.2
v -0.8 3.7 -4.2
v -0.7 3.6 -4.2
v -0.7 3.7 -4.2
v -0.6 3.6 -4.2
v -0.6 3.7 -4.2
v -0.5 3.6 -4.2
v -0.5 3.7 -4.2
v -0.5 3.8 -4.2
v -0.4 3.7 -4.2
v -0.3 3.6 -4.2
v -0.3 3.7 -4.2
v -0.3 3.8 -4.2
v -0.2 3.6 -4.2
v -0.2 3.7 -4.2
v -1.2 3.6 -4.3
v -1.2 3.7 -4.3
v -1.1 3.6 -4.3
v -1.1 3.7 -4.3
v -1 3.6 -4.3
v -1 3.7 -4.3
v -0.5 3.6 -4.3
v -0.5 3.7 -4.3
v -0.4 3.6 -4.3
v -0.4 3.7 -4.3
v -0.3 3.6 -4.3
v -0.3 3.7 -4.3
v -1.4 3.6 -3.8
v -1.2 3.6 -3.8
v -1.4 3.6 -4
v -1.3 3.6 -4
v -1.2 3.6 -4
v -0.7 3.6 -4
v -0.6 3.6 -4
v -0.3 3.6 -4
v -1 3.6 -4.1
v -0.8 3.6 -4.1
v -0.7 3.6 -4.1
v -0.6 3.6 -4.1
v -0.5 3.6 -4.1
v -0.3 3.6 -4.1
v -0.2 3.6 -4.1
v -1.3 3.6 -4.2
v -1.2 3.6 -4.2
v -1.1 3.6 -4.2
v -1 3.6 -4.2
v -0.8 3.6 -4.2
v -0.7 3.6 -4.2
v -0.6 3.6 -4.2
v -0.5 3.6 -4.2
v -0.4 3.6 -4.2
v -0.3 3.6 -4.2
v -0.2 3.6 -4.2
v -1.2 3.6 -4.3
v -1.1 3.6 -4.3
v -1 3.6 -4.3
v -0.5 3.6 -4.3
v -0.4 3.6 -4.3
v -0.3 3.6 -4.3
v -1.3 3.7 -3.7
v -1.2 3.7 -3.7
v -1.1 3.7 -3.7
v -1.3 3.7 -3.8
v -1.2 3.7 -3.8
v -1.1 3.7 -3.8
v -1 3.7 -3.8
v -1.1 3.7 -3.9
v -1 3.7 -3.9
v -0.9 3.7 -3.9
v -0.8 3.7 -3.9
v -0.7 3.7 -3.9
v -1.2 3.7 -4
v -1.1 3.7 -4
v -1 3.7 -4
v -0.9 3.7 -4
v -0.8 3.7 -4
v -0.7 3.7 -4
v -1 3.7 -4
v -0.9 3.7 -4
v -0.7 3.7 -4
v -0.6 3.7 -4
v -0.5 3.7 -4
v -1.3 3.7 -4.1
v -1.2 3.7 -4.1
v -1 3.7 -4.1
v -0.9 3.7 -4.1
v -0.8 3.7 -4.1
v -0.7 3.7 -4.1
v -0.6 3.7 -4.1
v -0.5 3.7 -4.1
v -0.3 3.7 -4.1
v -0.2 3.7 -4.1
v -1.3 3.7 -4.2
v -1.2 3.7 -4.2
v -1.1 3.7 -4.2
v -1 3.7 -4.2
v -0.8 3.7 -4.2
v -0.7 3.7 -4.2
v -0.6 3.7 -4.2
v -0.5 3.7 -4.2
v -0.4 3.7 -4.2
v -0.3 3.7 -4.2
v -0.2 3.7 -4.2
v -1.2 3.7 -4.3
v -1.1 3.7 -4.3
v -1 3.7 -4.3
v -0.5 3.7 -4.3
v -0.4 3.7 -4.3
v -0.3 3.7 -4.3
v -1.3 3.8 -3.7
v -1.2 3.8 -3.7
v -1.1 3.8 -3.7
v -1.4 3.8 -3.8
v -1.3 3.8 -3.8
v -1.2 3.8 -3.8
v -1.1 3.8 -3.8
v -1 3.8 -3.8
v -1.4 3.8 -3.9
v -1.3 3.8 -3.9
v -1.1 3.8 -3.9
v -1 3.8 -3.9
v -0.9 3.8 -3.9
v -0.8 3.8 -3.9
v -0.7 3.8 -3.9
v -1.4 3.8 -4
v -1.3 3.8 -4
v -1.1 3.8 -4
v -1 3.8 -4
v -0.9 3.8 -4
v -0.8 3.8 -4
v -0.7 3.8 -4
v -0.5 3.8 -4
v -0.3 3.8 -4
v -1.3 3.8 -4.1
v -1.2 3.8 -4.1
v -1.1 3.8 -4.1
v -1 3.8 -4.1
v -0.9 3.8 -4.1
v -0.8 3.8 -4.1
v -0.7 3.8 -4.1
v -0.5 3.8 -4.1
v -0.3 3.8 -4.1
v -1.2 3.8 -4.2
v -1.1 3.8 -4.2
v -1 3.8 -4.2
v -0.5 3.8 -4.2
v -0.3 3.8 -4.2
v -1.3 3.9 -3.8
v -1.2 3.9 -3.8
v -1.1 3.9 -3.8
v -1.2 3.9 -3.9
v -1.1 3.9 -3.9
v -1.3 3.9 -4
v -1.1 3.9 -4

# faces
f 3/1/1 2/1/1 1/1/1
f 4/1/1 2/1/1 3/1/1
f 5/1/1 3/1/1 1/1/1
f 6/2/1 4/2/1 3/2/1
f 6/1/1 3/1/1 5/1/1
f 7/2/1 4/2/1 6/2/1
f 12/1/1 9/1/1 8/1/1
f 13/1/1 9/1/1 12/1/1
f 14/1/1 9/1/1 13/1/1
f 15/1/1 11/1/1 10/1/1
f 16/1/1 11/1/1 15/1/1
f 18/2/1 13/2/1 12/2/1
f 19/2/1 13/2/1 18/2/1
f 20/1/1 17/1/1 16/1/1
f 20/1/1 18/1/1 17/1/1
f 21/1/1 18/1/1 20/1/1
f 25/1/1 23/1/1 22/1/1
f 26/1/1 23/1/1 25/1/1
f 27/1/1 25/1/1 24/1/1
f 28/1/1 25/1/1 27/1/1
f 32/2/1 30/2/1 29/2/1
f 33/1/1 31/1/1 30/1/1
f 33/2/1 30/2/1 32/2/1
f 34/1/1 31/1/1 33/1/1
f 37/2/1 36/2/1 35/2/1
f 38/2/1 36/2/1 37/2/1
f 43/1/1 40/1/1 39/1/1
f 44/1/1 40/1/1 43/1/1
f 45/1/1 42/1/1 41/1/1
f 46/2/1 43/2/1 42/2/1
f 46/1/1 42/1/1 45/1/1
f 47/2/1 43/2/1 46/2/1
f 48/1/2 49/1/2 50/1/2
f 50/1/2 49/1/2 51/1/2
f 52/2/2 53/2/2 54/2/2
f 54/2/2 53/2/2 55/2/2
f 55/2/2 56/2/2 58/2/2
f 56/1/2 57/1/2 59/1/2
f 58/2/2 56/2/2 59/2/2
f 59/1/2 57/1/2 60/1/2
f 61/2/2 62/2/2 67/2/2
f 67/2/2 62/2/2 68/2/2
f 63/1/2 64/1/2 69/1/2
f 64/2/2 65/2/2 70/2/2
f 69/1/2 64/1/2 70/1/2
f 65/1/2 66/1/2 71/1/2
f 70/2/2 65/2/2 71/2/2
f 66/2/2 67/2/2 72/2/2
f 71/1/2 66/1/2 72/1/2
f 72/2/2 67/2/2 73/2/2
f 74/1/2 75/1/2 78/1/2
f 78/1/2 75/1/2 79/1/2
f 76/1/2 77/1/2 80/1/2
f 77/2/2 78/2/2 81/2/2
f 80/1/2 77/1/2 81/1/2
f 81/2/2 78/2/2 82/2/2
f 83/1/2 84/1/2 87/1/2
f 85/2/2 86/2/2 88/2/2
f 88/2/2 86/2/2 89/2/2
f 83/1/2 87/1/2 90/1/2
f 87/2/2 88/2/2 91/2/2
f 90/1/2 87/1/2 91/1/2
f 91/2/2 88/2/2 92/2/2
f 93/1/2 94/1/2 95/1/2
f 95/1/2 94/1/2 96/1/2
f 99/1/3 98/1/3 97/1/3
f 100/1/3 98/1/3 99/1/3
f 101/2/3 100/2/3 99/2/3
f 102/2/3 100/2/3 101/2/3
f 105/1/3 104/1/3 103/1/3
f 106/1/3 104/1/3 105/1/3
f 108/1/3 105/1/3 103/1/3
f 109/1/3 105/1/3 108/1/3
f 110/1/3 107/1/3 106/1/3
f 111/1/3 107/1/3 110/1/3
f 113/2/3 111/2/3 110/2/3
f 114/2/3 111/2/3 113/2/3
f 115/1/3 113/1/3 112/1/3
f 116/1/3 113/1/3 115/1/3
f 119/2/3 118/2/3 117/2/3
f 120/2/3 118/2/3 119/2/3
f 121/1/3 120/1/3 119/1/3
f 122/1/3 120/1/3 121/1/3
f 125/1/3 124/1/3 123/1/3
f 126/1/3 125/1/3 123/1/3
f 127/1/3 126/1/3 123/1/3
f 128/1/3 127/1/3 123/1/3
f 129/1/3 128/1/3 123/1/3
f 130/1/3 128/1/3 129/1/3
f 131/2/3 130/2/3 129/2/3
f 132/2/3 130/2/3 131/2/3
f 133/1/3 132/1/3 131/1/3
f 135/1/3 133/1/3 131/1/3
f 135/1/3 134/1/3 133/1/3
f 136/1/3 134/1/3 135/1/3
f 139/1/3 138/1/3 137/1/3
f 140/1/3 138/1/3 139/1/3
f 141/1/4 142/1/4 144/1/4
f 142/2/4 143/2/4 145/2/4
f 144/1/4 142/1/4 145/1/4
f 145/2/4 143/2/4 146/2/4
f 146/1/4 147/1/4 148/1/4
f 148/1/4 147/1/4 149/1/4
f 150/2/4 151/2/4 152/2/4
f 152/2/4 151/2/4 153/2/4
f 154/1/4 155/1/4 156/1/4
f 156/1/4 155/1/4 157/1/4
f 156/2/4 157/2/4 159/2/4
f 159/2/4 157/2/4 160/2/4
f 158/2/4 159/2/4 161/2/4
f 161/2/4 159/2/4 162/2/4
f 163/1/4 164/1/4 165/1/4
f 165/1/4 164/1/4 166/1/4
f 166/1/4 167/1/4 168/1/4
f 168/1/4 167/1/4 169/1/4
f 168/2/4 169/2/4 171/2/4
f 171/2/4 169/2/4 172/2/4
f 170/2/4 171/2/4 173/2/4
f 173/2/4 171/2/4 174/2/4
f 173/1/4 174/1/4 175/1/4
f 175/1/4 174/1/4 176/1/4
f 177/2/4 178/2/4 179/2/4
f 179/2/4 178/2/4 180/2/4
f 180/2/4 181/2/4 182/2/4
f 182/2/4 181/2/4 184/2/4
f 184/2/4 181/2/4 185/2/4
f 183/1/4 184/1/4 186/1/4
f 186/1/4 184/1/4 187/1/4
f 188/1/4 189/1/4 190/1/4
f 190/1/4 189/1/4 191/1/4
f 190/2/4 191/2/4 192/2/4
f 192/2/4 191/2/4 193/2/4
f 194/1/4 195/1/4 196/1/4
f 196/1/4 195/1/4 197/1/4
f 196/2/4 197/2/4 198/2/4
f 198/2/4 197/2/4 199/2/4
f 202/1/5 201/1/5 200/1/5
f 203/1/5 201/1/5 202/1/5
f 204/1/5 201/1/5 203/1/5
f 208/1/5 204/1/5 203/1/5
f 208/1/5 205/1/5 204/1/5
f 209/1/5 205/1/5 208/1/5
f 210/2/5 206/2/5 205/2/5
f 210/1/5 205/1/5 209/1/5
f 211/1/5 207/1/5 206/1/5
f 211/2/5 206/2/5 210/2/5
f 212/1/5 207/1/5 211/1/5
f 213/1/5 207/1/5 212/1/5
f 215/1/5 208/1/5 203/1/5
f 216/1/5 208/1/5 215/1/5
f 217/1/5 208/1/5 216/1/5
f 218/2/5 209/2/5 208/2/5
f 218/1/5 208/1/5 217/1/5
f 219/1/5 210/1/5 209/1/5
f 219/2/5 209/2/5 218/2/5
f 220/1/5 210/1/5 219/1/5
f 221/2/5 212/2/5 211/2/5
f 222/1/5 214/1/5 213/1/5
f 222/2/5 212/2/5 221/2/5
f 222/1/5 213/1/5 212/1/5
f 223/1/5 214/1/5 222/1/5
f 224/1/5 214/1/5 223/1/5
f 225/1/5 214/1/5 224/1/5
f 226/1/5 217/1/5 216/1/5
f 227/2/5 218/2/5 217/2/5
f 227/1/5 217/1/5 226/1/5
f 228/2/5 218/2/5 227/2/5
f 229/1/5 223/1/5 222/1/5
f 230/2/5 224/2/5 223/2/5
f 230/1/5 223/1/5 229/1/5
f 231/2/5 224/2/5 230/2/5
f 235/1/5 233/1/5 232/1/5
f 236/2/5 234/2/5 233/2/5
f 236/1/5 233/1/5 235/1/5
f 237/2/5 234/2/5 236/2/5
f 239/1/5 238/1/5 237/1/5
f 239/1/5 237/1/5 236/1/5
f 240/1/5 238/1/5 239/1/5
f 244/1/5 239/1/5 236/1/5
f 245/2/5 240/2/5 239/2/5
f 245/1/5 239/1/5 244/1/5
f 246/2/5 240/2/5 245/2/5
f 247/2/5 242/2/5 241/2/5
f 248/1/5 243/1/5 242/1/5
f 248/2/5 242/2/5 247/2/5
f 249/1/5 243/1/5 248/1/5
f 250/1/6 251/1/6 257/1/6
f 257/1/6 251/1/6 258/1/6
f 252/2/6 253/2/6 260/2/6
f 253/1/6 254/1/6 261/1/6
f 260/2/6 253/2/6 261/2/6
f 261/1/6 254/1/6 262/1/6
f 255/1/6 256/1/6 265/1/6
f 265/1/6 256/1/6 266/1/6
f 258/2/6 259/2/6 268/2/6
f 257/2/6 258/2/6 268/2/6
f 259/1/6 260/1/6 269/1/6
f 268/2/6 259/2/6 269/2/6
f 269/1/6 260/1/6 270/1/6
f 261/2/6 262/2/6 271/2/6
f 271/2/6 262/2/6 272/2/6
f 263/1/6 264/1/6 274/1/6
f 274/1/6 264/1/6 275/1/6
f 266/1/6 267/1/6 276/1/6
f 267/2/6 268/2/6 277/2/6
f 276/1/6 267/1/6 277/1/6
f 277/2/6 268/2/6 278/2/6
f 272/1/6 273/1/6 279/1/6
f 273/2/6 274/2/6 280/2/6
f 279/1/6 273/1/6 280/1/6
f 280/2/6 274/2/6 281/2/6
f 282/1/6 283/1/6 286/1/6
f 283/2/6 284/2/6 287/2/6
f 286/1/6 283/1/6 287/1/6
f 287/2/6 284/2/6 288/2/6
f 285/1/6 286/1/6 290/1/6
f 290/1/6 286/1/6 291/1/6
f 288/1/6 289/1/6 292/1/6
f 292/1/6 289/1/6 293/1/6
f 290/2/6 291/2/6 297/2/6
f 297/2/6 291/2/6 298/2/6
f 292/2/6 293/2/6 299/2/6
f 299/2/6 293/2/6 300/2/6
f 294/2/6 295/2/6 301/2/6
f 295/1/6 296/1/6 302/1/6
f 301/2/6 295/2/6 302/2/6
f 302/1/6 296/1/6 303/1/6
f 298/2/6 299/2/6 306/2/6
f 306/2/6 299/2/6 307/2/6
f 299/1/6 300/1/6 308/1/6
f 307/2/6 299/2/6 308/2/6
f 308/1/6 300/1/6 309/1/6
f 301/1/6 302/1/6 310/1/6
f 302/2/6 303/2/6 311/2/6
f 310/1/6 302/1/6 311/1/6
f 311/2/6 303/2/6 312/2/6
f 304/1/6 305/1/6 313/1/6
f 313/1/6 305/1/6 314/1/6
f 307/1/6 308/1/6 315/1/6
f 308/2/6 309/2/6 316/2/6
f 315/1/6 308/1/6 316/1/6
f 316/2/6 309/2/6 317/2/6
f 313/2/6 314/2/6 318/2/6
f 318/2/6 314/2/6 319/2/6
f 320/1/6 321/1/6 323/1/6
f 321/2/6 322/2/6 323/2/6
f 323/2/6 322/2/6 324/2/6
f 320/1/6 323/1/6 325/1/6
f 323/1/6 324/1/6 325/1/6
f 325/1/6 324/1/6 326/1/6
