# MagicaVoxel @ Ephtracy

# group
o 

# material
mtllib carbon4.mtl
usemtl palette

# normals
vn -1 0 0
vn 1 0 0
vn 0 0 1
vn 0 0 -1
vn 0 -1 0
vn 0 1 0

# texcoords
vt 0.947266 0.5
vt 0.951172 0.5

# verts
v 1.2 3.6 -4.1
v 1.2 3.6 -4.2
v 1.2 3.6 -4.3
v 1.2 3.6 -4.4
v 1.2 3.7 -4.1
v 1.2 3.7 -4.2
v 1.2 3.7 -4.3
v 1.2 3.7 -4.4
v 1.2 3.8 -4.2
v 1.2 3.8 -4.3
v 1.3 3.7 -4
v 1.3 3.7 -4.1
v 1.3 3.7 -4.2
v 1.3 3.7 -4.3
v 1.3 3.7 -4.4
v 1.3 3.8 -4
v 1.3 3.8 -4.1
v 1.3 3.8 -4.2
v 1.3 3.8 -4.3
v 1.3 3.8 -4.4
v 1.3 3.9 -4.1
v 1.3 3.9 -4.2
v 1.4 3.7 -4.4
v 1.4 3.7 -4.5
v 1.4 3.8 -4
v 1.4 3.8 -4.1
v 1.4 3.8 -4.2
v 1.4 3.8 -4.3
v 1.4 3.8 -4.4
v 1.4 3.8 -4.5
v 1.4 3.9 -4
v 1.4 3.9 -4.1
v 1.4 3.9 -4.2
v 1.4 3.9 -4.3
v 1.4 3.9 -4.4
v 1.4 4 -4
v 1.4 4 -4.1
v 1.4 4 -4.2
v 1.4 4 -4.3
v 1.4 4.1 -4.1
v 1.4 4.1 -4.2
v 1.5 3.8 -4.4
v 1.5 3.8 -4.5
v 1.5 3.9 -4.4
v 1.5 3.9 -4.5
v 1.5 4 -4
v 1.5 4 -4.1
v 1.5 4 -4.2
v 1.5 4 -4.3
v 1.5 4.1 -4
v 1.5 4.1 -4.1
v 1.5 4.1 -4.2
v 1.5 4.1 -4.3
v 1.6 3.8 -4.5
v 1.6 3.8 -4.6
v 1.6 3.9 -4.4
v 1.6 3.9 -4.5
v 1.6 3.9 -4.6
v 1.6 4 -4.4
v 1.6 4 -4.5
v 1.7 3.9 -4.3
v 1.7 3.9 -4.4
v 1.7 3.9 -4.5
v 1.7 3.9 -4.6
v 1.7 4 -4.3
v 1.7 4 -4.4
v 1.7 4 -4.5
v 1.7 4 -4.6
v 1.3 3.6 -4.1
v 1.3 3.6 -4.2
v 1.3 3.7 -4.1
v 1.3 3.7 -4.2
v 1.4 3.6 -4.2
v 1.4 3.6 -4.4
v 1.4 3.7 -4
v 1.4 3.7 -4.1
v 1.4 3.7 -4.2
v 1.4 3.7 -4.4
v 1.4 3.8 -4
v 1.4 3.8 -4.1
v 1.5 3.7 -4.1
v 1.5 3.7 -4.2
v 1.5 3.8 -4
v 1.5 3.8 -4.1
v 1.5 3.8 -4.2
v 1.5 3.9 -4
v 1.5 3.9 -4.1
v 1.6 3.7 -4.2
v 1.6 3.7 -4.5
v 1.6 3.8 -4.1
v 1.6 3.8 -4.2
v 1.6 3.8 -4.3
v 1.6 3.8 -4.5
v 1.6 3.9 -4
v 1.6 3.9 -4.1
v 1.6 3.9 -4.3
v 1.6 4 -4.2
v 1.6 4 -4.3
v 1.6 4.1 -4
v 1.6 4.1 -4.1
v 1.6 4.1 -4.2
v 1.6 4.1 -4.3
v 1.7 3.8 -4.3
v 1.7 3.8 -4.4
v 1.7 3.9 -4.1
v 1.7 3.9 -4.3
v 1.7 3.9 -4.4
v 1.7 4 -4.2
v 1.7 4 -4.3
v 1.7 4.1 -4.1
v 1.7 4.1 -4.2
v 1.8 3.8 -4.4
v 1.8 3.8 -4.6
v 1.8 3.9 -4.3
v 1.8 3.9 -4.4
v 1.8 3.9 -4.5
v 1.8 4 -4.3
v 1.8 4 -4.4
v 1.8 4 -4.5
v 1.8 4 -4.6
v 1.9 3.9 -4.4
v 1.9 3.9 -4.5
v 1.9 4 -4.4
v 1.9 4 -4.5
v 1.3 3.7 -4
v 1.3 3.8 -4
v 1.4 3.7 -4
v 1.4 3.8 -4
v 1.4 3.9 -4
v 1.4 4 -4
v 1.5 3.8 -4
v 1.5 3.9 -4
v 1.5 4 -4
v 1.5 4.1 -4
v 1.6 3.9 -4
v 1.6 4.1 -4
v 1.2 3.6 -4.1
v 1.2 3.7 -4.1
v 1.3 3.6 -4.1
v 1.3 3.7 -4.1
v 1.3 3.8 -4.1
v 1.3 3.9 -4.1
v 1.4 3.7 -4.1
v 1.4 3.8 -4.1
v 1.4 3.9 -4.1
v 1.4 4 -4.1
v 1.4 4.1 -4.1
v 1.5 3.7 -4.1
v 1.5 3.8 -4.1
v 1.5 3.9 -4.1
v 1.5 4 -4.1
v 1.5 4.1 -4.1
v 1.6 3.8 -4.1
v 1.6 3.9 -4.1
v 1.6 4.1 -4.1
v 1.7 3.9 -4.1
v 1.7 4.1 -4.1
v 1.2 3.7 -4.2
v 1.2 3.8 -4.2
v 1.3 3.6 -4.2
v 1.3 3.7 -4.2
v 1.3 3.8 -4.2
v 1.4 3.6 -4.2
v 1.4 3.7 -4.2
v 1.5 3.7 -4.2
v 1.5 3.8 -4.2
v 1.6 3.7 -4.2
v 1.6 3.8 -4.2
v 1.6 3.8 -4.3
v 1.6 3.9 -4.3
v 1.7 3.8 -4.3
v 1.7 3.9 -4.3
v 1.7 4 -4.3
v 1.8 3.9 -4.3
v 1.8 4 -4.3
v 1.6 3.9 -4.4
v 1.6 4 -4.4
v 1.7 3.8 -4.4
v 1.7 3.9 -4.4
v 1.7 4 -4.4
v 1.8 3.8 -4.4
v 1.8 3.9 -4.4
v 1.8 4 -4.4
v 1.9 3.9 -4.4
v 1.9 4 -4.4
v 1.3 3.8 -4.2
v 1.3 3.9 -4.2
v 1.4 3.8 -4.2
v 1.4 3.9 -4.2
v 1.4 4 -4.2
v 1.4 4.1 -4.2
v 1.5 4 -4.2
v 1.5 4.1 -4.2
v 1.6 4 -4.2
v 1.6 4.1 -4.2
v 1.7 4 -4.2
v 1.7 4.1 -4.2
v 1.2 3.7 -4.3
v 1.2 3.8 -4.3
v 1.3 3.7 -4.3
v 1.3 3.8 -4.3
v 1.4 3.9 -4.3
v 1.4 4 -4.3
v 1.5 3.9 -4.3
v 1.5 4 -4.3
v 1.5 4.1 -4.3
v 1.6 3.9 -4.3
v 1.6 4 -4.3
v 1.6 4.1 -4.3
v 1.7 3.9 -4.3
v 1.7 4 -4.3
v 1.2 3.6 -4.4
v 1.2 3.7 -4.4
v 1.3 3.6 -4.4
v 1.3 3.7 -4.4
v 1.3 3.8 -4.4
v 1.4 3.6 -4.4
v 1.4 3.7 -4.4
v 1.4 3.8 -4.4
v 1.4 3.9 -4.4
v 1.5 3.8 -4.4
v 1.5 3.9 -4.4
v 1.4 3.7 -4.5
v 1.4 3.8 -4.5
v 1.5 3.7 -4.5
v 1.5 3.8 -4.5
v 1.5 3.9 -4.5
v 1.6 3.7 -4.5
v 1.6 3.8 -4.5
v 1.6 3.9 -4.5
v 1.6 4 -4.5
v 1.7 3.9 -4.5
v 1.7 4 -4.5
v 1.8 3.9 -4.5
v 1.8 4 -4.5
v 1.9 3.9 -4.5
v 1.9 4 -4.5
v 1.6 3.8 -4.6
v 1.6 3.9 -4.6
v 1.7 3.8 -4.6
v 1.7 3.9 -4.6
v 1.7 4 -4.6
v 1.8 3.8 -4.6
v 1.8 4 -4.6
v 1.2 3.6 -4.1
v 1.3 3.6 -4.1
v 1.2 3.6 -4.2
v 1.3 3.6 -4.2
v 1.4 3.6 -4.2
v 1.2 3.6 -4.3
v 1.3 3.6 -4.3
v 1.2 3.6 -4.4
v 1.3 3.6 -4.4
v 1.4 3.6 -4.4
v 1.3 3.7 -4
v 1.4 3.7 -4
v 1.3 3.7 -4.1
v 1.4 3.7 -4.1
v 1.5 3.7 -4.1
v 1.3 3.7 -4.2
v 1.4 3.7 -4.2
v 1.5 3.7 -4.2
v 1.6 3.7 -4.2
v 1.4 3.7 -4.4
v 1.5 3.7 -4.4
v 1.4 3.7 -4.5
v 1.5 3.7 -4.5
v 1.6 3.7 -4.5
v 1.4 3.8 -4
v 1.5 3.8 -4
v 1.4 3.8 -4.1
v 1.5 3.8 -4.1
v 1.6 3.8 -4.1
v 1.5 3.8 -4.2
v 1.6 3.8 -4.2
v 1.6 3.8 -4.3
v 1.7 3.8 -4.3
v 1.7 3.8 -4.4
v 1.8 3.8 -4.4
v 1.6 3.8 -4.5
v 1.7 3.8 -4.5
v 1.6 3.8 -4.6
v 1.7 3.8 -4.6
v 1.8 3.8 -4.6
v 1.5 3.9 -4
v 1.6 3.9 -4
v 1.5 3.9 -4.1
v 1.6 3.9 -4.1
v 1.7 3.9 -4.1
v 1.6 3.9 -4.3
v 1.7 3.9 -4.3
v 1.8 3.9 -4.3
v 1.7 3.9 -4.4
v 1.8 3.9 -4.4
v 1.9 3.9 -4.4
v 1.8 3.9 -4.5
v 1.9 3.9 -4.5
v 1.2 3.7 -4.1
v 1.3 3.7 -4.1
v 1.2 3.7 -4.2
v 1.3 3.7 -4.2
v 1.2 3.7 -4.3
v 1.3 3.7 -4.3
v 1.2 3.7 -4.4
v 1.3 3.7 -4.4
v 1.3 3.8 -4
v 1.4 3.8 -4
v 1.3 3.8 -4.1
v 1.4 3.8 -4.1
v 1.2 3.8 -4.2
v 1.3 3.8 -4.2
v 1.4 3.8 -4.2
v 1.2 3.8 -4.3
v 1.3 3.8 -4.3
v 1.4 3.8 -4.3
v 1.3 3.8 -4.4
v 1.4 3.8 -4.4
v 1.5 3.8 -4.4
v 1.4 3.8 -4.5
v 1.5 3.8 -4.5
v 1.3 3.9 -4.1
v 1.4 3.9 -4.1
v 1.3 3.9 -4.2
v 1.4 3.9 -4.2
v 1.4 3.9 -4.3
v 1.5 3.9 -4.3
v 1.6 3.9 -4.3
v 1.7 3.9 -4.3
v 1.4 3.9 -4.4
v 1.5 3.9 -4.4
v 1.6 3.9 -4.4
v 1.7 3.9 -4.4
v 1.5 3.9 -4.5
v 1.6 3.9 -4.5
v 1.7 3.9 -4.5
v 1.6 3.9 -4.6
v 1.7 3.9 -4.6
v 1.4 4 -4
v 1.5 4 -4
v 1.4 4 -4.1
v 1.5 4 -4.1
v 1.4 4 -4.2
v 1.5 4 -4.2
v 1.6 4 -4.2
v 1.7 4 -4.2
v 1.4 4 -4.3
v 1.5 4 -4.3
v 1.6 4 -4.3
v 1.7 4 -4.3
v 1.8 4 -4.3
v 1.6 4 -4.4
v 1.7 4 -4.4
v 1.8 4 -4.4
v 1.9 4 -4.4
v 1.6 4 -4.5
v 1.7 4 -4.5
v 1.8 4 -4.5
v 1.9 4 -4.5
v 1.7 4 -4.6
v 1.8 4 -4.6
v 1.5 4.1 -4
v 1.6 4.1 -4
v 1.4 4.1 -4.1
v 1.5 4.1 -4.1
v 1.6 4.1 -4.1
v 1.7 4.1 -4.1
v 1.4 4.1 -4.2
v 1.5 4.1 -4.2
v 1.6 4.1 -4.2
v 1.7 4.1 -4.2
v 1.5 4.1 -4.3
v 1.6 4.1 -4.3

# faces
f 5/2/1 2/2/1 1/2/1
f 6/1/1 3/1/1 2/1/1
f 6/2/1 2/2/1 5/2/1
f 7/2/1 4/2/1 3/2/1
f 7/1/1 3/1/1 6/1/1
f 8/2/1 4/2/1 7/2/1
f 9/1/1 7/1/1 6/1/1
f 10/1/1 7/1/1 9/1/1
f 16/1/1 12/1/1 11/1/1
f 16/1/1 13/1/1 12/1/1
f 17/1/1 13/1/1 16/1/1
f 18/1/1 13/1/1 17/1/1
f 19/1/1 15/1/1 14/1/1
f 20/1/1 15/1/1 19/1/1
f 21/1/1 18/1/1 17/1/1
f 22/1/1 18/1/1 21/1/1
f 29/2/1 24/2/1 23/2/1
f 30/2/1 24/2/1 29/2/1
f 31/1/1 26/1/1 25/1/1
f 32/1/1 26/1/1 31/1/1
f 33/1/1 28/1/1 27/1/1
f 33/1/1 29/1/1 28/1/1
f 34/1/1 29/1/1 33/1/1
f 35/1/1 29/1/1 34/1/1
f 36/2/1 32/2/1 31/2/1
f 37/1/1 33/1/1 32/1/1
f 37/2/1 32/2/1 36/2/1
f 38/2/1 34/2/1 33/2/1
f 38/1/1 33/1/1 37/1/1
f 39/2/1 34/2/1 38/2/1
f 40/1/1 38/1/1 37/1/1
f 41/1/1 38/1/1 40/1/1
f 44/1/1 43/1/1 42/1/1
f 45/1/1 43/1/1 44/1/1
f 50/1/1 47/1/1 46/1/1
f 51/1/1 47/1/1 50/1/1
f 52/1/1 49/1/1 48/1/1
f 53/1/1 49/1/1 52/1/1
f 57/2/1 55/2/1 54/2/1
f 58/2/1 55/2/1 57/2/1
f 59/2/1 57/2/1 56/2/1
f 60/2/1 57/2/1 59/2/1
f 65/2/1 62/2/1 61/2/1
f 66/2/1 62/2/1 65/2/1
f 67/1/1 64/1/1 63/1/1
f 68/1/1 64/1/1 67/1/1
f 69/2/2 70/2/2 71/2/2
f 71/2/2 70/2/2 72/2/2
f 73/1/2 74/1/2 77/1/2
f 77/1/2 74/1/2 78/1/2
f 75/1/2 76/1/2 79/1/2
f 79/1/2 76/1/2 80/1/2
f 81/1/2 82/1/2 84/1/2
f 84/1/2 82/1/2 85/1/2
f 83/1/2 84/1/2 86/1/2
f 86/1/2 84/1/2 87/1/2
f 88/1/2 89/1/2 91/1/2
f 91/1/2 89/1/2 92/1/2
f 92/1/2 89/1/2 93/1/2
f 90/1/2 91/1/2 95/1/2
f 91/1/2 92/1/2 95/1/2
f 95/1/2 92/1/2 96/1/2
f 94/1/2 95/1/2 99/1/2
f 99/1/2 95/1/2 100/1/2
f 97/1/2 98/1/2 101/1/2
f 101/1/2 98/1/2 102/1/2
f 103/1/2 104/1/2 106/1/2
f 106/1/2 104/1/2 107/1/2
f 105/1/2 106/1/2 108/1/2
f 108/1/2 106/1/2 109/1/2
f 105/1/2 108/1/2 110/1/2
f 110/1/2 108/1/2 111/1/2
f 112/1/2 113/1/2 115/1/2
f 115/1/2 113/1/2 116/1/2
f 114/2/2 115/2/2 117/2/2
f 117/2/2 115/2/2 118/2/2
f 116/1/2 113/1/2 119/1/2
f 119/1/2 113/1/2 120/1/2
f 121/1/2 122/1/2 123/1/2
f 123/1/2 122/1/2 124/1/2
f 127/1/3 126/1/3 125/1/3
f 128/1/3 126/1/3 127/1/3
f 131/1/3 129/1/3 128/1/3
f 132/2/3 130/2/3 129/2/3
f 132/1/3 129/1/3 131/1/3
f 133/2/3 130/2/3 132/2/3
f 135/1/3 134/1/3 133/1/3
f 135/1/3 133/1/3 132/1/3
f 136/1/3 134/1/3 135/1/3
f 139/2/3 138/2/3 137/2/3
f 140/2/3 138/2/3 139/2/3
f 144/1/3 142/1/3 141/1/3
f 145/1/3 142/1/3 144/1/3
f 148/1/3 144/1/3 143/1/3
f 149/1/3 144/1/3 148/1/3
f 151/1/3 147/1/3 146/1/3
f 152/1/3 147/1/3 151/1/3
f 153/1/3 150/1/3 149/1/3
f 154/1/3 150/1/3 153/1/3
f 156/1/3 155/1/3 154/1/3
f 157/1/3 155/1/3 156/1/3
f 161/1/3 159/1/3 158/1/3
f 162/1/3 159/1/3 161/1/3
f 163/1/3 161/1/3 160/1/3
f 164/1/3 161/1/3 163/1/3
f 167/1/3 166/1/3 165/1/3
f 168/1/3 166/1/3 167/1/3
f 171/1/3 170/1/3 169/1/3
f 172/1/3 170/1/3 171/1/3
f 174/2/3 173/2/3 172/2/3
f 175/2/3 173/2/3 174/2/3
f 179/2/3 177/2/3 176/2/3
f 180/2/3 177/2/3 179/2/3
f 181/1/3 179/1/3 178/1/3
f 182/1/3 179/1/3 181/1/3
f 184/1/3 183/1/3 182/1/3
f 185/1/3 183/1/3 184/1/3
f 186/1/4 187/1/4 188/1/4
f 188/1/4 187/1/4 189/1/4
f 190/1/4 191/1/4 192/1/4
f 192/1/4 191/1/4 193/1/4
f 194/1/4 195/1/4 196/1/4
f 196/1/4 195/1/4 197/1/4
f 198/1/4 199/1/4 200/1/4
f 200/1/4 199/1/4 201/1/4
f 202/2/4 203/2/4 204/2/4
f 204/2/4 203/2/4 205/2/4
f 204/1/4 205/1/4 207/1/4
f 205/1/4 206/1/4 207/1/4
f 207/1/4 206/1/4 208/1/4
f 208/1/4 206/1/4 209/1/4
f 207/1/4 208/1/4 210/1/4
f 210/1/4 208/1/4 211/1/4
f 212/2/4 213/2/4 214/2/4
f 214/2/4 213/2/4 215/2/4
f 214/1/4 215/1/4 217/1/4
f 215/1/4 216/1/4 217/1/4
f 217/1/4 216/1/4 218/1/4
f 218/1/4 216/1/4 219/1/4
f 219/1/4 220/1/4 221/1/4
f 221/1/4 220/1/4 222/1/4
f 223/2/4 224/2/4 225/2/4
f 225/2/4 224/2/4 226/2/4
f 225/1/4 226/1/4 228/1/4
f 226/1/4 227/1/4 228/1/4
f 228/1/4 227/1/4 229/1/4
f 229/1/4 227/1/4 230/1/4
f 230/2/4 231/2/4 232/2/4
f 232/2/4 231/2/4 233/2/4
f 234/1/4 235/1/4 236/1/4
f 236/1/4 235/1/4 237/1/4
f 238/2/4 239/2/4 240/2/4
f 240/2/4 239/2/4 241/2/4
f 240/1/4 241/1/4 243/1/4
f 241/1/4 242/1/4 243/1/4
f 243/1/4 242/1/4 244/1/4
f 247/2/5 246/2/5 245/2/5
f 248/2/5 246/2/5 247/2/5
f 250/1/5 248/1/5 247/1/5
f 250/1/5 249/1/5 248/1/5
f 251/1/5 249/1/5 250/1/5
f 252/2/5 251/2/5 250/2/5
f 253/1/5 249/1/5 251/1/5
f 253/2/5 251/2/5 252/2/5
f 254/1/5 249/1/5 253/1/5
f 257/1/5 256/1/5 255/1/5
f 258/1/5 256/1/5 257/1/5
f 260/1/5 258/1/5 257/1/5
f 260/1/5 259/1/5 258/1/5
f 261/1/5 259/1/5 260/1/5
f 262/1/5 259/1/5 261/1/5
f 264/1/5 263/1/5 262/1/5
f 264/1/5 262/1/5 261/1/5
f 265/1/5 263/1/5 264/1/5
f 266/2/5 265/2/5 264/2/5
f 267/1/5 263/1/5 265/1/5
f 267/2/5 265/2/5 266/2/5
f 268/1/5 263/1/5 267/1/5
f 271/1/5 270/1/5 269/1/5
f 272/1/5 270/1/5 271/1/5
f 274/1/5 273/1/5 272/1/5
f 275/1/5 273/1/5 274/1/5
f 278/1/5 277/1/5 276/1/5
f 280/1/5 278/1/5 276/1/5
f 280/1/5 279/1/5 278/1/5
f 281/1/5 279/1/5 280/1/5
f 282/2/5 281/2/5 280/2/5
f 283/1/5 279/1/5 281/1/5
f 283/2/5 281/2/5 282/2/5
f 284/1/5 279/1/5 283/1/5
f 287/1/5 286/1/5 285/1/5
f 288/1/5 286/1/5 287/1/5
f 290/1/5 289/1/5 288/1/5
f 291/1/5 289/1/5 290/1/5
f 293/2/5 292/2/5 291/2/5
f 294/2/5 292/2/5 293/2/5
f 296/1/5 295/1/5 294/1/5
f 297/1/5 295/1/5 296/1/5
f 298/2/6 299/2/6 300/2/6
f 300/2/6 299/2/6 301/2/6
f 302/2/6 303/2/6 304/2/6
f 304/2/6 303/2/6 305/2/6
f 306/1/6 307/1/6 308/1/6
f 308/1/6 307/1/6 309/1/6
f 310/1/6 311/1/6 313/1/6
f 311/2/6 312/2/6 314/2/6
f 313/1/6 311/1/6 314/1/6
f 314/2/6 312/2/6 315/2/6
f 314/1/6 315/1/6 316/1/6
f 316/1/6 315/1/6 317/1/6
f 317/2/6 318/2/6 319/2/6
f 319/2/6 318/2/6 320/2/6
f 321/1/6 322/1/6 323/1/6
f 323/1/6 322/1/6 324/1/6
f 325/1/6 326/1/6 329/1/6
f 326/2/6 327/2/6 330/2/6
f 329/1/6 326/1/6 330/1/6
f 327/1/6 328/1/6 331/1/6
f 330/2/6 327/2/6 331/2/6
f 331/1/6 328/1/6 332/1/6
f 330/1/6 331/1/6 333/1/6
f 333/1/6 331/1/6 334/1/6
f 334/2/6 335/2/6 336/2/6
f 336/2/6 335/2/6 337/2/6
f 338/2/6 339/2/6 340/2/6
f 340/2/6 339/2/6 341/2/6
f 342/2/6 343/2/6 346/2/6
f 346/2/6 343/2/6 347/2/6
f 344/1/6 345/1/6 348/1/6
f 348/1/6 345/1/6 349/1/6
f 349/2/6 350/2/6 352/2/6
f 352/2/6 350/2/6 353/2/6
f 351/2/6 352/2/6 355/2/6
f 353/1/6 354/1/6 356/1/6
f 355/2/6 352/2/6 356/2/6
f 352/1/6 353/1/6 356/1/6
f 356/1/6 354/1/6 357/1/6
f 357/1/6 354/1/6 358/1/6
f 356/1/6 357/1/6 359/1/6
f 359/1/6 357/1/6 360/1/6
f 361/1/6 362/1/6 364/1/6
f 364/1/6 362/1/6 365/1/6
f 363/1/6 364/1/6 367/1/6
f 364/2/6 365/2/6 368/2/6
f 367/1/6 364/1/6 368/1/6
f 365/1/6 366/1/6 369/1/6
f 368/2/6 365/2/6 369/2/6
f 369/1/6 366/1/6 370/1/6
f 368/1/6 369/1/6 371/1/6
f 371/1/6 369/1/6 372/1/6
