# MagicaVoxel @ Ephtracy

# group
o 

# material
mtllib carbon8.mtl
usemtl palette

# normals
vn -1 0 0
vn 1 0 0
vn 0 0 1
vn 0 0 -1
vn 0 -1 0
vn 0 1 0

# texcoords
vt 0.947266 0.5
vt 0.951172 0.5

# verts
v -4.7 4.3 -3.2
v -4.7 4.3 -3.3
v -4.7 4.4 -3.2
v -4.7 4.4 -3.3
v -4.6 4.3 -3.1
v -4.6 4.3 -3.2
v -4.6 4.3 -3.3
v -4.6 4.3 -3.4
v -4.6 4.4 -3.1
v -4.6 4.4 -3.2
v -4.6 4.4 -3.3
v -4.6 4.4 -3.4
v -4.6 4.5 -3.2
v -4.6 4.5 -3.3
v -4.6 4.5 -3.4
v -4.5 4.2 -3.1
v -4.5 4.2 -3.2
v -4.5 4.2 -3.3
v -4.5 4.3 -3.1
v -4.5 4.3 -3.2
v -4.5 4.3 -3.3
v -4.5 4.3 -3.4
v -4.5 4.3 -3.5
v -4.5 4.4 -3.4
v -4.5 4.4 -3.5
v -4.4 4.2 -3.3
v -4.4 4.2 -3.4
v -4.4 4.3 -3.3
v -4.4 4.3 -3.4
v -4.3 4.3 -3.4
v -4.3 4.3 -3.5
v -4.3 4.3 -3.6
v -4.3 4.4 -3.4
v -4.3 4.4 -3.5
v -4.3 4.4 -3.6
v -4.2 4.2 -3.4
v -4.2 4.2 -3.6
v -4.2 4.3 -3.4
v -4.2 4.3 -3.5
v -4.2 4.3 -3.6
v -4.1 4 -3.2
v -4.1 4 -3.3
v -4.1 4.2 -3.2
v -4.1 4.2 -3.3
v -4 4 -3.3
v -4 4 -3.4
v -4 4.2 -3.3
v -4 4.2 -3.4
v -4.4 4.2 -3.1
v -4.4 4.2 -3.2
v -4.4 4.3 -3.1
v -4.4 4.3 -3.2
v -4.4 4.3 -3.4
v -4.4 4.3 -3.5
v -4.4 4.4 -3.1
v -4.4 4.4 -3.2
v -4.4 4.4 -3.3
v -4.4 4.4 -3.4
v -4.4 4.4 -3.5
v -4.4 4.5 -3.2
v -4.4 4.5 -3.3
v -4.4 4.5 -3.4
v -4.3 4.2 -3.2
v -4.3 4.2 -3.3
v -4.3 4.3 -3.2
v -4.3 4.3 -3.3
v -4.3 4.3 -3.4
v -4.3 4.4 -3.2
v -4.3 4.4 -3.3
v -4.3 4.4 -3.4
v -4.1 4.3 -3.4
v -4.1 4.3 -3.5
v -4.1 4.3 -3.6
v -4.1 4.4 -3.4
v -4.1 4.4 -3.5
v -4.1 4.4 -3.6
v -4 4.2 -3.5
v -4 4.2 -3.6
v -4 4.3 -3.5
v -4 4.3 -3.6
v -3.9 4 -3.2
v -3.9 4 -3.3
v -3.9 4.1 -3.2
v -3.9 4.1 -3.3
v -3.9 4.2 -3.2
v -3.9 4.2 -3.3
v -3.9 4.2 -3.4
v -3.9 4.2 -3.5
v -3.9 4.3 -3.3
v -3.9 4.3 -3.4
v -3.9 4.3 -3.5
v -3.8 4 -3.3
v -3.8 4 -3.4
v -3.8 4.1 -3.3
v -3.8 4.1 -3.4
v -3.8 4.2 -3.3
v -3.8 4.2 -3.4
v -4.6 4.3 -3.1
v -4.6 4.4 -3.1
v -4.5 4.2 -3.1
v -4.5 4.3 -3.1
v -4.5 4.4 -3.1
v -4.4 4.2 -3.1
v -4.4 4.3 -3.1
v -4.4 4.4 -3.1
v -4.7 4.3 -3.2
v -4.7 4.4 -3.2
v -4.6 4.3 -3.2
v -4.6 4.4 -3.2
v -4.6 4.5 -3.2
v -4.5 4.4 -3.2
v -4.5 4.5 -3.2
v -4.4 4.2 -3.2
v -4.4 4.3 -3.2
v -4.4 4.4 -3.2
v -4.4 4.5 -3.2
v -4.3 4.2 -3.2
v -4.3 4.3 -3.2
v -4.3 4.4 -3.2
v -4.1 4 -3.2
v -4.1 4.2 -3.2
v -4 4 -3.2
v -4 4.1 -3.2
v -3.9 4 -3.2
v -3.9 4.1 -3.2
v -3.9 4.2 -3.2
v -4.3 4.2 -3.3
v -4.3 4.3 -3.3
v -4.1 4.2 -3.3
v -4.1 4.3 -3.3
v -4 4.2 -3.3
v -4 4.3 -3.3
v -3.9 4 -3.3
v -3.9 4.1 -3.3
v -3.9 4.2 -3.3
v -3.9 4.3 -3.3
v -3.8 4 -3.3
v -3.8 4.1 -3.3
v -3.8 4.2 -3.3
v -4.3 4.3 -3.4
v -4.3 4.4 -3.4
v -4.2 4.3 -3.4
v -4.2 4.4 -3.4
v -4.1 4.3 -3.4
v -4.1 4.4 -3.4
v -4.7 4.3 -3.3
v -4.7 4.4 -3.3
v -4.6 4.3 -3.3
v -4.6 4.4 -3.3
v -4.5 4.2 -3.3
v -4.5 4.3 -3.3
v -4.4 4.2 -3.3
v -4.4 4.3 -3.3
v -4.1 4 -3.3
v -4.1 4.2 -3.3
v -4 4 -3.3
v -4 4.2 -3.3
v -4.6 4.3 -3.4
v -4.6 4.4 -3.4
v -4.6 4.5 -3.4
v -4.5 4.3 -3.4
v -4.5 4.4 -3.4
v -4.5 4.5 -3.4
v -4.4 4.2 -3.4
v -4.4 4.3 -3.4
v -4.4 4.4 -3.4
v -4.4 4.5 -3.4
v -4.3 4.3 -3.4
v -4.3 4.4 -3.4
v -4.2 4.2 -3.4
v -4.2 4.3 -3.4
v -4 4 -3.4
v -4 4.2 -3.4
v -3.9 4 -3.4
v -3.9 4.1 -3.4
v -3.9 4.2 -3.4
v -3.8 4 -3.4
v -3.8 4.1 -3.4
v -3.8 4.2 -3.4
v -4.5 4.3 -3.5
v -4.5 4.4 -3.5
v -4.4 4.3 -3.5
v -4.4 4.4 -3.5
v -4 4.2 -3.5
v -4 4.3 -3.5
v -3.9 4.2 -3.5
v -3.9 4.3 -3.5
v -4.3 4.3 -3.6
v -4.3 4.4 -3.6
v -4.2 4.2 -3.6
v -4.2 4.3 -3.6
v -4.2 4.4 -3.6
v -4.1 4.2 -3.6
v -4.1 4.3 -3.6
v -4.1 4.4 -3.6
v -4 4.2 -3.6
v -4 4.3 -3.6
v -4.1 4 -3.2
v -4 4 -3.2
v -3.9 4 -3.2
v -4.1 4 -3.3
v -4 4 -3.3
v -3.9 4 -3.3
v -3.8 4 -3.3
v -4 4 -3.4
v -3.9 4 -3.4
v -3.8 4 -3.4
v -4.5 4.2 -3.1
v -4.4 4.2 -3.1
v -4.5 4.2 -3.2
v -4.4 4.2 -3.2
v -4.3 4.2 -3.2
v -4.5 4.2 -3.3
v -4.4 4.2 -3.3
v -4.3 4.2 -3.3
v -4.1 4.2 -3.3
v -4 4.2 -3.3
v -4.4 4.2 -3.4
v -4.2 4.2 -3.4
v -4.1 4.2 -3.4
v -4 4.2 -3.4
v -3.9 4.2 -3.4
v -4.1 4.2 -3.5
v -4 4.2 -3.5
v -3.9 4.2 -3.5
v -4.2 4.2 -3.6
v -4.1 4.2 -3.6
v -4 4.2 -3.6
v -4.6 4.3 -3.1
v -4.5 4.3 -3.1
v -4.7 4.3 -3.2
v -4.6 4.3 -3.2
v -4.5 4.3 -3.2
v -4.7 4.3 -3.3
v -4.6 4.3 -3.3
v -4.5 4.3 -3.3
v -4.4 4.3 -3.3
v -4.6 4.3 -3.4
v -4.5 4.3 -3.4
v -4.4 4.3 -3.4
v -4.3 4.3 -3.4
v -4.2 4.3 -3.4
v -4.5 4.3 -3.5
v -4.4 4.3 -3.5
v -4.3 4.3 -3.5
v -4.2 4.3 -3.5
v -4.3 4.3 -3.6
v -4.2 4.3 -3.6
v -4.1 4.2 -3.2
v -3.9 4.2 -3.2
v -4.1 4.2 -3.3
v -4 4.2 -3.3
v -3.9 4.2 -3.3
v -3.8 4.2 -3.3
v -3.9 4.2 -3.4
v -3.8 4.2 -3.4
v -4.3 4.3 -3.3
v -4.1 4.3 -3.3
v -4 4.3 -3.3
v -3.9 4.3 -3.3
v -4.3 4.3 -3.4
v -4.2 4.3 -3.4
v -4.1 4.3 -3.4
v -4 4.3 -3.4
v -3.9 4.3 -3.4
v -4.1 4.3 -3.5
v -4 4.3 -3.5
v -3.9 4.3 -3.5
v -4.1 4.3 -3.6
v -4 4.3 -3.6
v -4.6 4.4 -3.1
v -4.5 4.4 -3.1
v -4.4 4.4 -3.1
v -4.7 4.4 -3.2
v -4.6 4.4 -3.2
v -4.5 4.4 -3.2
v -4.4 4.4 -3.2
v -4.3 4.4 -3.2
v -4.7 4.4 -3.3
v -4.6 4.4 -3.3
v -4.4 4.4 -3.3
v -4.3 4.4 -3.3
v -4.5 4.4 -3.4
v -4.4 4.4 -3.4
v -4.3 4.4 -3.4
v -4.2 4.4 -3.4
v -4.1 4.4 -3.4
v -4.5 4.4 -3.5
v -4.4 4.4 -3.5
v -4.3 4.4 -3.5
v -4.2 4.4 -3.5
v -4.1 4.4 -3.5
v -4.3 4.4 -3.6
v -4.2 4.4 -3.6
v -4.1 4.4 -3.6
v -4.6 4.5 -3.2
v -4.5 4.5 -3.2
v -4.4 4.5 -3.2
v -4.6 4.5 -3.3
v -4.5 4.5 -3.3
v -4.4 4.5 -3.3
v -4.6 4.5 -3.4
v -4.5 4.5 -3.4
v -4.4 4.5 -3.4

# faces
f 3/2/1 2/2/1 1/2/1
f 4/2/1 2/2/1 3/2/1
f 9/2/1 6/2/1 5/2/1
f 10/2/1 6/2/1 9/2/1
f 11/1/1 8/1/1 7/1/1
f 12/1/1 8/1/1 11/1/1
f 13/1/1 11/1/1 10/1/1
f 14/2/1 12/2/1 11/2/1
f 14/1/1 11/1/1 13/1/1
f 15/2/1 12/2/1 14/2/1
f 19/2/1 17/2/1 16/2/1
f 20/1/1 18/1/1 17/1/1
f 20/2/1 17/2/1 19/2/1
f 21/1/1 18/1/1 20/1/1
f 24/1/1 23/1/1 22/1/1
f 25/1/1 23/1/1 24/1/1
f 28/1/1 27/1/1 26/1/1
f 29/1/1 27/1/1 28/1/1
f 33/2/1 31/2/1 30/2/1
f 34/1/1 32/1/1 31/1/1
f 34/2/1 31/2/1 33/2/1
f 35/1/1 32/1/1 34/1/1
f 38/1/1 37/1/1 36/1/1
f 39/1/1 37/1/1 38/1/1
f 40/1/1 37/1/1 39/1/1
f 43/2/1 42/2/1 41/2/1
f 44/2/1 42/2/1 43/2/1
f 47/1/1 46/1/1 45/1/1
f 48/1/1 46/1/1 47/1/1
f 49/2/2 50/2/2 51/2/2
f 51/2/2 50/2/2 52/2/2
f 51/1/2 52/1/2 55/1/2
f 55/1/2 52/1/2 56/1/2
f 53/1/2 54/1/2 58/1/2
f 58/1/2 54/1/2 59/1/2
f 56/2/2 57/2/2 60/2/2
f 57/1/2 58/1/2 61/1/2
f 60/2/2 57/2/2 61/2/2
f 61/1/2 58/1/2 62/1/2
f 63/2/2 64/2/2 65/2/2
f 65/2/2 64/2/2 66/2/2
f 65/1/2 66/1/2 68/1/2
f 66/2/2 67/2/2 69/2/2
f 68/1/2 66/1/2 69/1/2
f 69/2/2 67/2/2 70/2/2
f 71/1/2 72/1/2 74/1/2
f 72/2/2 73/2/2 75/2/2
f 74/1/2 72/1/2 75/1/2
f 75/2/2 73/2/2 76/2/2
f 77/2/2 78/2/2 79/2/2
f 79/2/2 78/2/2 80/2/2
f 81/1/2 82/1/2 83/1/2
f 83/1/2 82/1/2 84/1/2
f 83/2/2 84/2/2 85/2/2
f 85/2/2 84/2/2 86/2/2
f 86/1/2 87/1/2 89/1/2
f 87/2/2 88/2/2 90/2/2
f 89/1/2 87/1/2 90/1/2
f 90/2/2 88/2/2 91/2/2
f 92/2/2 93/2/2 94/2/2
f 94/2/2 93/2/2 95/2/2
f 94/1/2 95/1/2 96/1/2
f 96/1/2 95/1/2 97/1/2
f 101/2/3 99/2/3 98/2/3
f 102/2/3 99/2/3 101/2/3
f 103/2/3 101/2/3 100/2/3
f 104/1/3 102/1/3 101/1/3
f 104/2/3 101/2/3 103/2/3
f 105/1/3 102/1/3 104/1/3
f 108/2/3 107/2/3 106/2/3
f 109/2/3 107/2/3 108/2/3
f 111/1/3 110/1/3 109/1/3
f 112/1/3 110/1/3 111/1/3
f 115/2/3 112/2/3 111/2/3
f 116/2/3 112/2/3 115/2/3
f 117/2/3 114/2/3 113/2/3
f 118/1/3 115/1/3 114/1/3
f 118/2/3 114/2/3 117/2/3
f 119/1/3 115/1/3 118/1/3
f 122/2/3 121/2/3 120/2/3
f 123/2/3 121/2/3 122/2/3
f 124/1/3 123/1/3 122/1/3
f 125/2/3 121/2/3 123/2/3
f 125/1/3 123/1/3 124/1/3
f 126/2/3 121/2/3 125/2/3
f 129/1/3 128/1/3 127/1/3
f 130/1/3 128/1/3 129/1/3
f 131/2/3 130/2/3 129/2/3
f 132/2/3 130/2/3 131/2/3
f 135/1/3 132/1/3 131/1/3
f 136/1/3 132/1/3 135/1/3
f 137/2/3 134/2/3 133/2/3
f 138/1/3 135/1/3 134/1/3
f 138/2/3 134/2/3 137/2/3
f 139/1/3 135/1/3 138/1/3
f 142/2/3 141/2/3 140/2/3
f 143/2/3 141/2/3 142/2/3
f 144/1/3 143/1/3 142/1/3
f 145/1/3 143/1/3 144/1/3
f 146/2/4 147/2/4 148/2/4
f 148/2/4 147/2/4 149/2/4
f 150/1/4 151/1/4 152/1/4
f 152/1/4 151/1/4 153/1/4
f 154/2/4 155/2/4 156/2/4
f 156/2/4 155/2/4 157/2/4
f 158/1/4 159/1/4 161/1/4
f 159/2/4 160/2/4 162/2/4
f 161/1/4 159/1/4 162/1/4
f 162/2/4 160/2/4 163/2/4
f 162/1/4 163/1/4 166/1/4
f 166/1/4 163/1/4 167/1/4
f 164/1/4 165/1/4 168/1/4
f 165/2/4 166/2/4 168/2/4
f 168/2/4 166/2/4 169/2/4
f 164/1/4 168/1/4 170/1/4
f 170/1/4 168/1/4 171/1/4
f 172/1/4 173/1/4 174/1/4
f 174/1/4 173/1/4 175/1/4
f 175/1/4 173/1/4 176/1/4
f 174/2/4 175/2/4 177/2/4
f 175/1/4 176/1/4 178/1/4
f 177/2/4 175/2/4 178/2/4
f 178/1/4 176/1/4 179/1/4
f 180/1/4 181/1/4 182/1/4
f 182/1/4 181/1/4 183/1/4
f 184/2/4 185/2/4 186/2/4
f 186/2/4 185/2/4 187/2/4
f 188/1/4 189/1/4 191/1/4
f 191/1/4 189/1/4 192/1/4
f 190/1/4 191/1/4 193/1/4
f 191/2/4 192/2/4 194/2/4
f 193/1/4 191/1/4 194/1/4
f 194/2/4 192/2/4 195/2/4
f 193/2/4 194/2/4 196/2/4
f 196/2/4 194/2/4 197/2/4
f 201/2/5 199/2/5 198/2/5
f 202/1/5 200/1/5 199/1/5
f 202/2/5 199/2/5 201/2/5
f 203/1/5 200/1/5 202/1/5
f 205/1/5 203/1/5 202/1/5
f 206/2/5 204/2/5 203/2/5
f 206/1/5 203/1/5 205/1/5
f 207/2/5 204/2/5 206/2/5
f 210/2/5 209/2/5 208/2/5
f 211/2/5 209/2/5 210/2/5
f 213/1/5 211/1/5 210/1/5
f 214/2/5 212/2/5 211/2/5
f 214/1/5 211/1/5 213/1/5
f 215/2/5 212/2/5 214/2/5
f 218/1/5 215/1/5 214/1/5
f 218/1/5 216/1/5 215/1/5
f 219/1/5 216/1/5 218/1/5
f 220/2/5 217/2/5 216/2/5
f 220/1/5 216/1/5 219/1/5
f 221/2/5 217/2/5 220/2/5
f 223/1/5 220/1/5 219/1/5
f 223/1/5 221/1/5 220/1/5
f 224/2/5 222/2/5 221/2/5
f 224/1/5 221/1/5 223/1/5
f 225/2/5 222/2/5 224/2/5
f 226/1/5 223/1/5 219/1/5
f 227/2/5 224/2/5 223/2/5
f 227/1/5 223/1/5 226/1/5
f 228/2/5 224/2/5 227/2/5
f 232/2/5 230/2/5 229/2/5
f 233/2/5 230/2/5 232/2/5
f 234/2/5 232/2/5 231/2/5
f 235/1/5 233/1/5 232/1/5
f 235/2/5 232/2/5 234/2/5
f 236/1/5 233/1/5 235/1/5
f 238/1/5 236/1/5 235/1/5
f 238/1/5 237/1/5 236/1/5
f 239/1/5 237/1/5 238/1/5
f 240/1/5 237/1/5 239/1/5
f 243/1/5 240/1/5 239/1/5
f 244/1/5 240/1/5 243/1/5
f 245/2/5 242/2/5 241/2/5
f 246/2/5 242/2/5 245/2/5
f 247/1/5 246/1/5 245/1/5
f 248/1/5 246/1/5 247/1/5
f 249/2/6 250/2/6 251/2/6
f 251/2/6 250/2/6 252/2/6
f 252/2/6 250/2/6 253/2/6
f 253/1/6 254/1/6 255/1/6
f 255/1/6 254/1/6 256/1/6
f 257/1/6 258/1/6 261/1/6
f 261/1/6 258/1/6 262/1/6
f 258/2/6 259/2/6 263/2/6
f 262/1/6 258/1/6 263/1/6
f 259/1/6 260/1/6 264/1/6
f 263/2/6 259/2/6 264/2/6
f 264/1/6 260/1/6 265/1/6
f 263/1/6 264/1/6 266/1/6
f 264/2/6 265/2/6 267/2/6
f 266/1/6 264/1/6 267/1/6
f 267/2/6 265/2/6 268/2/6
f 266/2/6 267/2/6 269/2/6
f 269/2/6 267/2/6 270/2/6
f 271/2/6 272/2/6 275/2/6
f 272/1/6 273/1/6 276/1/6
f 275/2/6 272/2/6 276/2/6
f 276/1/6 273/1/6 277/1/6
f 274/2/6 275/2/6 279/2/6
f 279/2/6 275/2/6 280/2/6
f 277/1/6 278/1/6 281/1/6
f 281/1/6 278/1/6 282/1/6
f 281/2/6 282/2/6 284/2/6
f 284/2/6 282/2/6 285/2/6
f 283/1/6 284/1/6 288/1/6
f 288/1/6 284/1/6 289/1/6
f 285/2/6 286/2/6 290/2/6
f 286/1/6 287/1/6 291/1/6
f 290/2/6 286/2/6 291/2/6
f 291/1/6 287/1/6 292/1/6
f 290/1/6 291/1/6 293/1/6
f 291/2/6 292/2/6 294/2/6
f 293/1/6 291/1/6 294/1/6
f 294/2/6 292/2/6 295/2/6
f 296/1/6 297/1/6 299/1/6
f 297/2/6 298/2/6 300/2/6
f 299/1/6 297/1/6 300/1/6
f 300/2/6 298/2/6 301/2/6
f 299/2/6 300/2/6 302/2/6
f 300/1/6 301/1/6 303/1/6
f 302/2/6 300/2/6 303/2/6
f 303/1/6 301/1/6 304/1/6
