# MagicaVoxel @ Ephtracy

# group
o 

# material
mtllib drill.mtl
usemtl palette

# normals
vn -1 0 0
vn 1 0 0
vn 0 0 1
vn 0 0 -1
vn 0 -1 0
vn 0 1 0

# texcoords
vt 0.447266 0.5
vt 0.599609 0.5
vt 0.634766 0.5
vt 0.916016 0.5
vt 0.919922 0.5
vt 0.923828 0.5
vt 0.927734 0.5
vt 0.931641 0.5
vt 0.955078 0.5

# verts
v 3 5 -4.9
v 3 5 -5
v 3 5.1 -4.9
v 3 5.1 -5
v 3.2 4.9 -4.9
v 3.2 4.9 -5
v 3.2 5 -4.8
v 3.2 5 -4.9
v 3.2 5 -5
v 3.2 5 -5.1
v 3.2 5.1 -4.8
v 3.2 5.1 -4.9
v 3.2 5.1 -5
v 3.2 5.1 -5.1
v 3.2 5.2 -4.9
v 3.2 5.2 -5
v 3.4 4.8 -4.9
v 3.4 4.8 -5
v 3.4 4.9 -4.8
v 3.4 4.9 -4.9
v 3.4 4.9 -5
v 3.4 4.9 -5.1
v 3.4 5 -4.7
v 3.4 5 -4.8
v 3.4 5 -4.9
v 3.4 5 -5
v 3.4 5 -5.1
v 3.4 5 -5.2
v 3.4 5.1 -4.7
v 3.4 5.1 -4.8
v 3.4 5.1 -4.9
v 3.4 5.1 -5
v 3.4 5.1 -5.1
v 3.4 5.1 -5.2
v 3.4 5.2 -4.8
v 3.4 5.2 -4.9
v 3.4 5.2 -5
v 3.4 5.2 -5.1
v 3.4 5.3 -4.9
v 3.4 5.3 -5
v 3.5 4.9 -4.9
v 3.5 4.9 -5
v 3.5 5 -4.8
v 3.5 5 -4.9
v 3.5 5 -5
v 3.5 5 -5.1
v 3.5 5.1 -4.8
v 3.5 5.1 -4.9
v 3.5 5.1 -5
v 3.5 5.1 -5.1
v 3.5 5.2 -4.9
v 3.5 5.2 -5
v 3.6 4.8 -4.8
v 3.6 4.8 -4.9
v 3.6 4.8 -5
v 3.6 4.8 -5.1
v 3.6 4.9 -4.7
v 3.6 4.9 -4.8
v 3.6 4.9 -4.9
v 3.6 4.9 -5
v 3.6 4.9 -5.1
v 3.6 4.9 -5.2
v 3.6 5 -4.7
v 3.6 5 -4.8
v 3.6 5 -5.1
v 3.6 5 -5.2
v 3.6 5.1 -4.7
v 3.6 5.1 -4.8
v 3.6 5.1 -5.1
v 3.6 5.1 -5.2
v 3.6 5.2 -4.7
v 3.6 5.2 -4.8
v 3.6 5.2 -4.9
v 3.6 5.2 -5
v 3.6 5.2 -5.1
v 3.6 5.2 -5.2
v 3.6 5.3 -4.8
v 3.6 5.3 -4.9
v 3.6 5.3 -5
v 3.6 5.3 -5.1
v 3.8 4.8 -4.8
v 3.8 4.8 -4.9
v 3.8 4.8 -5
v 3.8 4.8 -5.1
v 3.8 4.9 -4.7
v 3.8 4.9 -4.8
v 3.8 4.9 -4.9
v 3.8 4.9 -5
v 3.8 4.9 -5.1
v 3.8 4.9 -5.2
v 3.8 5 -4.7
v 3.8 5 -4.8
v 3.8 5 -5.1
v 3.8 5 -5.2
v 3.8 5.1 -4.7
v 3.8 5.1 -4.8
v 3.8 5.1 -5.1
v 3.8 5.1 -5.2
v 3.8 5.2 -4.7
v 3.8 5.2 -4.8
v 3.8 5.2 -4.9
v 3.8 5.2 -5
v 3.8 5.2 -5.1
v 3.8 5.2 -5.2
v 3.8 5.3 -4.8
v 3.8 5.3 -4.9
v 3.8 5.3 -5
v 3.8 5.3 -5.1
v 4 4.8 -4.8
v 4 4.8 -4.9
v 4 4.8 -5
v 4 4.8 -5.1
v 4 4.9 -4.7
v 4 4.9 -4.8
v 4 4.9 -4.9
v 4 4.9 -5
v 4 4.9 -5.1
v 4 4.9 -5.2
v 4 5 -4.7
v 4 5 -4.8
v 4 5 -5.1
v 4 5 -5.2
v 4 5.1 -4.7
v 4 5.1 -4.8
v 4 5.1 -5.1
v 4 5.1 -5.2
v 4 5.2 -4.7
v 4 5.2 -4.8
v 4 5.2 -4.9
v 4 5.2 -5
v 4 5.2 -5.1
v 4 5.2 -5.2
v 4 5.3 -4.8
v 4 5.3 -4.9
v 4 5.3 -5
v 4 5.3 -5.1
v 3.2 5 -4.9
v 3.2 5 -5
v 3.2 5.1 -4.9
v 3.2 5.1 -5
v 3.4 4.9 -4.9
v 3.4 4.9 -5
v 3.4 5 -4.8
v 3.4 5 -4.9
v 3.4 5 -5
v 3.4 5 -5.1
v 3.4 5.1 -4.8
v 3.4 5.1 -4.9
v 3.4 5.1 -5
v 3.4 5.1 -5.1
v 3.4 5.2 -4.9
v 3.4 5.2 -5
v 3.7 4.8 -4.8
v 3.7 4.8 -4.9
v 3.7 4.8 -5
v 3.7 4.8 -5.1
v 3.7 4.9 -4.7
v 3.7 4.9 -4.8
v 3.7 4.9 -4.9
v 3.7 4.9 -5
v 3.7 4.9 -5.1
v 3.7 4.9 -5.2
v 3.7 5 -4.7
v 3.7 5 -4.8
v 3.7 5 -5.1
v 3.7 5 -5.2
v 3.7 5.1 -4.7
v 3.7 5.1 -4.8
v 3.7 5.1 -5.1
v 3.7 5.1 -5.2
v 3.7 5.2 -4.7
v 3.7 5.2 -4.8
v 3.7 5.2 -4.9
v 3.7 5.2 -5
v 3.7 5.2 -5.1
v 3.7 5.2 -5.2
v 3.7 5.3 -4.8
v 3.7 5.3 -4.9
v 3.7 5.3 -5
v 3.7 5.3 -5.1
v 3.9 4.8 -4.8
v 3.9 4.8 -4.9
v 3.9 4.8 -5
v 3.9 4.8 -5.1
v 3.9 4.9 -4.7
v 3.9 4.9 -4.8
v 3.9 4.9 -4.9
v 3.9 4.9 -5
v 3.9 4.9 -5.1
v 3.9 4.9 -5.2
v 3.9 5 -4.7
v 3.9 5 -4.8
v 3.9 5 -5.1
v 3.9 5 -5.2
v 3.9 5.1 -4.7
v 3.9 5.1 -4.8
v 3.9 5.1 -5.1
v 3.9 5.1 -5.2
v 3.9 5.2 -4.7
v 3.9 5.2 -4.8
v 3.9 5.2 -4.9
v 3.9 5.2 -5
v 3.9 5.2 -5.1
v 3.9 5.2 -5.2
v 3.9 5.3 -4.8
v 3.9 5.3 -4.9
v 3.9 5.3 -5
v 3.9 5.3 -5.1
v 4.1 4.9 -4.8
v 4.1 4.9 -4.9
v 4.1 4.9 -5
v 4.1 4.9 -5.1
v 4.1 5 -4.8
v 4.1 5 -4.9
v 4.1 5 -5
v 4.1 5 -5.1
v 4.1 5.1 -4.8
v 4.1 5.1 -4.9
v 4.1 5.1 -5
v 4.1 5.1 -5.1
v 4.1 5.2 -4.8
v 4.1 5.2 -4.9
v 4.1 5.2 -5
v 4.1 5.2 -5.1
v 4.2 4.9 -4.9
v 4.2 4.9 -5
v 4.2 5 -4.8
v 4.2 5 -4.9
v 4.2 5 -5
v 4.2 5 -5.1
v 4.2 5.1 -4.8
v 4.2 5.1 -4.9
v 4.2 5.1 -5
v 4.2 5.1 -5.1
v 4.2 5.2 -4.9
v 4.2 5.2 -5
v 4.3 4.8 -4.8
v 4.3 4.8 -5.1
v 4.3 4.9 -4.7
v 4.3 4.9 -4.8
v 4.3 4.9 -5.1
v 4.3 4.9 -5.2
v 4.3 5.2 -4.7
v 4.3 5.2 -4.8
v 4.3 5.2 -5.1
v 4.3 5.2 -5.2
v 4.3 5.3 -4.8
v 4.3 5.3 -5.1
v 3.4 5 -4.7
v 3.4 5.1 -4.7
v 3.5 5 -4.7
v 3.5 5.1 -4.7
v 3.6 4.9 -4.7
v 3.6 5 -4.7
v 3.6 5.1 -4.7
v 3.6 5.2 -4.7
v 3.7 4.9 -4.7
v 3.7 5 -4.7
v 3.7 5.1 -4.7
v 3.7 5.2 -4.7
v 3.8 4.9 -4.7
v 3.8 5 -4.7
v 3.8 5.1 -4.7
v 3.8 5.2 -4.7
v 3.9 4.9 -4.7
v 3.9 5 -4.7
v 3.9 5.1 -4.7
v 3.9 5.2 -4.7
v 4 4.9 -4.7
v 4 5 -4.7
v 4 5.1 -4.7
v 4 5.2 -4.7
v 4.3 4.9 -4.7
v 4.3 5.2 -4.7
v 3.2 5 -4.8
v 3.2 5.1 -4.8
v 3.3 5 -4.8
v 3.3 5.1 -4.8
v 3.4 4.9 -4.8
v 3.4 5 -4.8
v 3.4 5.1 -4.8
v 3.4 5.2 -4.8
v 3.5 4.9 -4.8
v 3.5 5 -4.8
v 3.5 5.1 -4.8
v 3.5 5.2 -4.8
v 3.6 4.8 -4.8
v 3.6 4.9 -4.8
v 3.6 5 -4.8
v 3.6 5.1 -4.8
v 3.6 5.2 -4.8
v 3.6 5.3 -4.8
v 3.7 4.8 -4.8
v 3.7 4.9 -4.8
v 3.7 5 -4.8
v 3.7 5.1 -4.8
v 3.7 5.2 -4.8
v 3.7 5.3 -4.8
v 3.8 4.8 -4.8
v 3.8 4.9 -4.8
v 3.8 5 -4.8
v 3.8 5.1 -4.8
v 3.8 5.2 -4.8
v 3.8 5.3 -4.8
v 3.9 4.8 -4.8
v 3.9 4.9 -4.8
v 3.9 5 -4.8
v 3.9 5.1 -4.8
v 3.9 5.2 -4.8
v 3.9 5.3 -4.8
v 4 4.8 -4.8
v 4 4.9 -4.8
v 4 5 -4.8
v 4 5.1 -4.8
v 4 5.2 -4.8
v 4 5.3 -4.8
v 4.3 4.8 -4.8
v 4.3 4.9 -4.8
v 4.3 5.2 -4.8
v 4.3 5.3 -4.8
v 3 5 -4.9
v 3 5.1 -4.9
v 3.1 5 -4.9
v 3.1 5.1 -4.9
v 3.2 4.9 -4.9
v 3.2 5 -4.9
v 3.2 5.1 -4.9
v 3.2 5.2 -4.9
v 3.3 4.9 -4.9
v 3.3 5 -4.9
v 3.3 5.1 -4.9
v 3.3 5.2 -4.9
v 3.4 4.8 -4.9
v 3.4 4.9 -4.9
v 3.4 5 -4.9
v 3.4 5.1 -4.9
v 3.4 5.2 -4.9
v 3.4 5.3 -4.9
v 3.5 4.8 -4.9
v 3.5 4.9 -4.9
v 3.5 5.2 -4.9
v 3.5 5.3 -4.9
v 3.6 4.8 -4.9
v 3.6 4.9 -4.9
v 3.6 5.2 -4.9
v 3.6 5.3 -4.9
v 3.7 4.8 -4.9
v 3.7 4.9 -4.9
v 3.7 5.2 -4.9
v 3.7 5.3 -4.9
v 3.8 4.8 -4.9
v 3.8 4.9 -4.9
v 3.8 5.2 -4.9
v 3.8 5.3 -4.9
v 3.9 4.8 -4.9
v 3.9 4.9 -4.9
v 3.9 5.2 -4.9
v 3.9 5.3 -4.9
v 4 4.8 -4.9
v 4 4.9 -4.9
v 4 5.2 -4.9
v 4 5.3 -4.9
v 4.1 4.9 -4.9
v 4.1 5 -4.9
v 4.1 5.1 -4.9
v 4.1 5.2 -4.9
v 4.2 4.9 -4.9
v 4.2 5 -4.9
v 4.2 5.1 -4.9
v 4.2 5.2 -4.9
v 3.2 5 -5
v 3.2 5.1 -5
v 3.3 5 -5
v 3.3 5.1 -5
v 3.4 4.9 -5
v 3.4 5 -5
v 3.4 5.1 -5
v 3.4 5.2 -5
v 3.5 4.9 -5
v 3.5 5 -5
v 3.5 5.1 -5
v 3.5 5.2 -5
v 4.1 5 -5
v 4.1 5.1 -5
v 4.2 5 -5
v 4.2 5.1 -5
v 3.4 5 -5.1
v 3.4 5.1 -5.1
v 3.5 5 -5.1
v 3.5 5.1 -5.1
v 4.1 4.9 -5.1
v 4.1 5 -5.1
v 4.1 5.1 -5.1
v 4.1 5.2 -5.1
v 4.2 5 -5.1
v 4.2 5.1 -5.1
v 4.3 4.9 -5.1
v 4.3 5.2 -5.1
v 3.4 5 -4.8
v 3.4 5.1 -4.8
v 3.5 5 -4.8
v 3.5 5.1 -4.8
v 4.1 4.9 -4.8
v 4.1 5 -4.8
v 4.1 5.1 -4.8
v 4.1 5.2 -4.8
v 4.2 5 -4.8
v 4.2 5.1 -4.8
v 4.3 4.9 -4.8
v 4.3 5.2 -4.8
v 3.2 5 -4.9
v 3.2 5.1 -4.9
v 3.3 5 -4.9
v 3.3 5.1 -4.9
v 3.4 4.9 -4.9
v 3.4 5 -4.9
v 3.4 5.1 -4.9
v 3.4 5.2 -4.9
v 3.5 4.9 -4.9
v 3.5 5 -4.9
v 3.5 5.1 -4.9
v 3.5 5.2 -4.9
v 4.1 5 -4.9
v 4.1 5.1 -4.9
v 4.2 5 -4.9
v 4.2 5.1 -4.9
v 3 5 -5
v 3 5.1 -5
v 3.1 5 -5
v 3.1 5.1 -5
v 3.2 4.9 -5
v 3.2 5 -5
v 3.2 5.1 -5
v 3.2 5.2 -5
v 3.3 4.9 -5
v 3.3 5 -5
v 3.3 5.1 -5
v 3.3 5.2 -5
v 3.4 4.8 -5
v 3.4 4.9 -5
v 3.4 5 -5
v 3.4 5.1 -5
v 3.4 5.2 -5
v 3.4 5.3 -5
v 3.5 4.8 -5
v 3.5 4.9 -5
v 3.5 5.2 -5
v 3.5 5.3 -5
v 3.6 4.8 -5
v 3.6 4.9 -5
v 3.6 5.2 -5
v 3.6 5.3 -5
v 3.7 4.8 -5
v 3.7 4.9 -5
v 3.7 5.2 -5
v 3.7 5.3 -5
v 3.8 4.8 -5
v 3.8 4.9 -5
v 3.8 5.2 -5
v 3.8 5.3 -5
v 3.9 4.8 -5
v 3.9 4.9 -5
v 3.9 5.2 -5
v 3.9 5.3 -5
v 4 4.8 -5
v 4 4.9 -5
v 4 5.2 -5
v 4 5.3 -5
v 4.1 4.9 -5
v 4.1 5 -5
v 4.1 5.1 -5
v 4.1 5.2 -5
v 4.2 4.9 -5
v 4.2 5 -5
v 4.2 5.1 -5
v 4.2 5.2 -5
v 3.2 5 -5.1
v 3.2 5.1 -5.1
v 3.3 5 -5.1
v 3.3 5.1 -5.1
v 3.4 4.9 -5.1
v 3.4 5 -5.1
v 3.4 5.1 -5.1
v 3.4 5.2 -5.1
v 3.5 4.9 -5.1
v 3.5 5 -5.1
v 3.5 5.1 -5.1
v 3.5 5.2 -5.1
v 3.6 4.8 -5.1
v 3.6 4.9 -5.1
v 3.6 5 -5.1
v 3.6 5.1 -5.1
v 3.6 5.2 -5.1
v 3.6 5.3 -5.1
v 3.7 4.8 -5.1
v 3.7 4.9 -5.1
v 3.7 5 -5.1
v 3.7 5.1 -5.1
v 3.7 5.2 -5.1
v 3.7 5.3 -5.1
v 3.8 4.8 -5.1
v 3.8 4.9 -5.1
v 3.8 5 -5.1
v 3.8 5.1 -5.1
v 3.8 5.2 -5.1
v 3.8 5.3 -5.1
v 3.9 4.8 -5.1
v 3.9 4.9 -5.1
v 3.9 5 -5.1
v 3.9 5.1 -5.1
v 3.9 5.2 -5.1
v 3.9 5.3 -5.1
v 4 4.8 -5.1
v 4 4.9 -5.1
v 4 5 -5.1
v 4 5.1 -5.1
v 4 5.2 -5.1
v 4 5.3 -5.1
v 4.3 4.8 -5.1
v 4.3 4.9 -5.1
v 4.3 5.2 -5.1
v 4.3 5.3 -5.1
v 3.4 5 -5.2
v 3.4 5.1 -5.2
v 3.5 5 -5.2
v 3.5 5.1 -5.2
v 3.6 4.9 -5.2
v 3.6 5 -5.2
v 3.6 5.1 -5.2
v 3.6 5.2 -5.2
v 3.7 4.9 -5.2
v 3.7 5 -5.2
v 3.7 5.1 -5.2
v 3.7 5.2 -5.2
v 3.8 4.9 -5.2
v 3.8 5 -5.2
v 3.8 5.1 -5.2
v 3.8 5.2 -5.2
v 3.9 4.9 -5.2
v 3.9 5 -5.2
v 3.9 5.1 -5.2
v 3.9 5.2 -5.2
v 4 4.9 -5.2
v 4 5 -5.2
v 4 5.1 -5.2
v 4 5.2 -5.2
v 4.3 4.9 -5.2
v 4.3 5.2 -5.2
v 3.6 4.8 -4.8
v 3.7 4.8 -4.8
v 3.8 4.8 -4.8
v 3.9 4.8 -4.8
v 4 4.8 -4.8
v 4.3 4.8 -4.8
v 3.4 4.8 -4.9
v 3.5 4.8 -4.9
v 3.6 4.8 -4.9
v 3.7 4.8 -4.9
v 3.8 4.8 -4.9
v 3.9 4.8 -4.9
v 4 4.8 -4.9
v 3.4 4.8 -5
v 3.5 4.8 -5
v 3.6 4.8 -5
v 3.7 4.8 -5
v 3.8 4.8 -5
v 3.9 4.8 -5
v 4 4.8 -5
v 3.6 4.8 -5.1
v 3.7 4.8 -5.1
v 3.8 4.8 -5.1
v 3.9 4.8 -5.1
v 4 4.8 -5.1
v 4.3 4.8 -5.1
v 3.6 4.9 -4.7
v 3.7 4.9 -4.7
v 3.8 4.9 -4.7
v 3.9 4.9 -4.7
v 4 4.9 -4.7
v 4.3 4.9 -4.7
v 3.4 4.9 -4.8
v 3.5 4.9 -4.8
v 3.6 4.9 -4.8
v 3.7 4.9 -4.8
v 3.8 4.9 -4.8
v 3.9 4.9 -4.8
v 4 4.9 -4.8
v 4.3 4.9 -4.8
v 3.2 4.9 -4.9
v 3.3 4.9 -4.9
v 3.4 4.9 -4.9
v 3.5 4.9 -4.9
v 3.6 4.9 -4.9
v 3.7 4.9 -4.9
v 3.8 4.9 -4.9
v 3.9 4.9 -4.9
v 4 4.9 -4.9
v 3.2 4.9 -5
v 3.3 4.9 -5
v 3.4 4.9 -5
v 3.5 4.9 -5
v 3.6 4.9 -5
v 3.7 4.9 -5
v 3.8 4.9 -5
v 3.9 4.9 -5
v 4 4.9 -5
v 3.4 4.9 -5.1
v 3.5 4.9 -5.1
v 3.6 4.9 -5.1
v 3.7 4.9 -5.1
v 3.8 4.9 -5.1
v 3.9 4.9 -5.1
v 4 4.9 -5.1
v 4.3 4.9 -5.1
v 3.6 4.9 -5.2
v 3.7 4.9 -5.2
v 3.8 4.9 -5.2
v 3.9 4.9 -5.2
v 4 4.9 -5.2
v 4.3 4.9 -5.2
v 3.4 5 -4.7
v 3.5 5 -4.7
v 3.6 5 -4.7
v 3.7 5 -4.7
v 3.8 5 -4.7
v 3.9 5 -4.7
v 4 5 -4.7
v 3.2 5 -4.8
v 3.3 5 -4.8
v 3.4 5 -4.8
v 3.5 5 -4.8
v 3.6 5 -4.8
v 3.7 5 -4.8
v 3.8 5 -4.8
v 3.9 5 -4.8
v 4 5 -4.8
v 4.1 5 -4.8
v 4.2 5 -4.8
v 3 5 -4.9
v 3.1 5 -4.9
v 3.2 5 -4.9
v 3.3 5 -4.9
v 3.4 5 -4.9
v 4.1 5 -4.9
v 4.2 5 -4.9
v 3 5 -5
v 3.1 5 -5
v 3.2 5 -5
v 3.3 5 -5
v 3.4 5 -5
v 4.1 5 -5
v 4.2 5 -5
v 3.2 5 -5.1
v 3.3 5 -5.1
v 3.4 5 -5.1
v 3.5 5 -5.1
v 3.6 5 -5.1
v 3.7 5 -5.1
v 3.8 5 -5.1
v 3.9 5 -5.1
v 4 5 -5.1
v 4.1 5 -5.1
v 4.2 5 -5.1
v 3.4 5 -5.2
v 3.5 5 -5.2
v 3.6 5 -5.2
v 3.7 5 -5.2
v 3.8 5 -5.2
v 3.9 5 -5.2
v 4 5 -5.2
v 3.4 5.1 -4.8
v 3.5 5.1 -4.8
v 3.2 5.1 -4.9
v 3.3 5.1 -4.9
v 3.4 5.1 -4.9
v 3.5 5.1 -4.9
v 4.1 5.1 -4.9
v 4.2 5.1 -4.9
v 3.2 5.1 -5
v 3.3 5.1 -5
v 3.4 5.1 -5
v 3.5 5.1 -5
v 4.1 5.1 -5
v 4.2 5.1 -5
v 3.4 5.1 -5.1
v 3.5 5.1 -5.1
v 4.1 5.2 -4.8
v 4.3 5.2 -4.8
v 3.4 5.2 -4.9
v 3.5 5.2 -4.9
v 4.1 5.2 -4.9
v 4.2 5.2 -4.9
v 3.4 5.2 -5
v 3.5 5.2 -5
v 4.1 5.2 -5
v 4.2 5.2 -5
v 4.1 5.2 -5.1
v 4.3 5.2 -5.1
v 4.1 4.9 -4.8
v 4.3 4.9 -4.8
v 3.4 4.9 -4.9
v 3.5 4.9 -4.9
v 4.1 4.9 -4.9
v 4.2 4.9 -4.9
v 3.4 4.9 -5
v 3.5 4.9 -5
v 4.1 4.9 -5
v 4.2 4.9 -5
v 4.1 4.9 -5.1
v 4.3 4.9 -5.1
v 3.4 5 -4.8
v 3.5 5 -4.8
v 3.2 5 -4.9
v 3.3 5 -4.9
v 3.4 5 -4.9
v 3.5 5 -4.9
v 4.1 5 -4.9
v 4.2 5 -4.9
v 3.2 5 -5
v 3.3 5 -5
v 3.4 5 -5
v 3.5 5 -5
v 4.1 5 -5
v 4.2 5 -5
v 3.4 5 -5.1
v 3.5 5 -5.1
v 3.4 5.1 -4.7
v 3.5 5.1 -4.7
v 3.6 5.1 -4.7
v 3.7 5.1 -4.7
v 3.8 5.1 -4.7
v 3.9 5.1 -4.7
v 4 5.1 -4.7
v 3.2 5.1 -4.8
v 3.3 5.1 -4.8
v 3.4 5.1 -4.8
v 3.5 5.1 -4.8
v 3.6 5.1 -4.8
v 3.7 5.1 -4.8
v 3.8 5.1 -4.8
v 3.9 5.1 -4.8
v 4 5.1 -4.8
v 4.1 5.1 -4.8
v 4.2 5.1 -4.8
v 3 5.1 -4.9
v 3.1 5.1 -4.9
v 3.2 5.1 -4.9
v 3.3 5.1 -4.9
v 3.4 5.1 -4.9
v 4.1 5.1 -4.9
v 4.2 5.1 -4.9
v 3 5.1 -5
v 3.1 5.1 -5
v 3.2 5.1 -5
v 3.3 5.1 -5
v 3.4 5.1 -5
v 4.1 5.1 -5
v 4.2 5.1 -5
v 3.2 5.1 -5.1
v 3.3 5.1 -5.1
v 3.4 5.1 -5.1
v 3.5 5.1 -5.1
v 3.6 5.1 -5.1
v 3.7 5.1 -5.1
v 3.8 5.1 -5.1
v 3.9 5.1 -5.1
v 4 5.1 -5.1
v 4.1 5.1 -5.1
v 4.2 5.1 -5.1
v 3.4 5.1 -5.2
v 3.5 5.1 -5.2
v 3.6 5.1 -5.2
v 3.7 5.1 -5.2
v 3.8 5.1 -5.2
v 3.9 5.1 -5.2
v 4 5.1 -5.2
v 3.6 5.2 -4.7
v 3.7 5.2 -4.7
v 3.8 5.2 -4.7
v 3.9 5.2 -4.7
v 4 5.2 -4.7
v 4.3 5.2 -4.7
v 3.4 5.2 -4.8
v 3.5 5.2 -4.8
v 3.6 5.2 -4.8
v 3.7 5.2 -4.8
v 3.8 5.2 -4.8
v 3.9 5.2 -4.8
v 4 5.2 -4.8
v 4.3 5.2 -4.8
v 3.2 5.2 -4.9
v 3.3 5.2 -4.9
v 3.4 5.2 -4.9
v 3.5 5.2 -4.9
v 3.6 5.2 -4.9
v 3.7 5.2 -4.9
v 3.8 5.2 -4.9
v 3.9 5.2 -4.9
v 4 5.2 -4.9
v 3.2 5.2 -5
v 3.3 5.2 -5
v 3.4 5.2 -5
v 3.5 5.2 -5
v 3.6 5.2 -5
v 3.7 5.2 -5
v 3.8 5.2 -5
v 3.9 5.2 -5
v 4 5.2 -5
v 3.4 5.2 -5.1
v 3.5 5.2 -5.1
v 3.6 5.2 -5.1
v 3.7 5.2 -5.1
v 3.8 5.2 -5.1
v 3.9 5.2 -5.1
v 4 5.2 -5.1
v 4.3 5.2 -5.1
v 3.6 5.2 -5.2
v 3.7 5.2 -5.2
v 3.8 5.2 -5.2
v 3.9 5.2 -5.2
v 4 5.2 -5.2
v 4.3 5.2 -5.2
v 3.6 5.3 -4.8
v 3.7 5.3 -4.8
v 3.8 5.3 -4.8
v 3.9 5.3 -4.8
v 4 5.3 -4.8
v 4.3 5.3 -4.8
v 3.4 5.3 -4.9
v 3.5 5.3 -4.9
v 3.6 5.3 -4.9
v 3.7 5.3 -4.9
v 3.8 5.3 -4.9
v 3.9 5.3 -4.9
v 4 5.3 -4.9
v 3.4 5.3 -5
v 3.5 5.3 -5
v 3.6 5.3 -5
v 3.7 5.3 -5
v 3.8 5.3 -5
v 3.9 5.3 -5
v 4 5.3 -5
v 3.6 5.3 -5.1
v 3.7 5.3 -5.1
v 3.8 5.3 -5.1
v 3.9 5.3 -5.1
v 4 5.3 -5.1
v 4.3 5.3 -5.1

# faces
f 3/8/1 2/8/1 1/8/1
f 4/8/1 2/8/1 3/8/1
f 8/6/1 6/6/1 5/6/1
f 9/6/1 6/6/1 8/6/1
f 11/6/1 8/6/1 7/6/1
f 12/6/1 8/6/1 11/6/1
f 13/6/1 10/6/1 9/6/1
f 14/6/1 10/6/1 13/6/1
f 15/6/1 13/6/1 12/6/1
f 16/6/1 13/6/1 15/6/1
f 20/4/1 18/4/1 17/4/1
f 21/4/1 18/4/1 20/4/1
f 24/4/1 20/4/1 19/4/1
f 25/4/1 20/4/1 24/4/1
f 26/4/1 22/4/1 21/4/1
f 27/4/1 22/4/1 26/4/1
f 29/4/1 24/4/1 23/4/1
f 30/4/1 24/4/1 29/4/1
f 33/4/1 28/4/1 27/4/1
f 34/4/1 28/4/1 33/4/1
f 35/4/1 31/4/1 30/4/1
f 36/4/1 31/4/1 35/4/1
f 37/4/1 33/4/1 32/4/1
f 38/4/1 33/4/1 37/4/1
f 39/4/1 37/4/1 36/4/1
f 40/4/1 37/4/1 39/4/1
f 44/3/1 42/3/1 41/3/1
f 45/3/1 42/3/1 44/3/1
f 47/3/1 44/3/1 43/3/1
f 47/3/1 46/3/1 45/3/1
f 47/3/1 45/3/1 44/3/1
f 48/3/1 46/3/1 47/3/1
f 49/3/1 46/3/1 48/3/1
f 50/3/1 46/3/1 49/3/1
f 51/3/1 49/3/1 48/3/1
f 52/3/1 49/3/1 51/3/1
f 58/3/1 54/3/1 53/3/1
f 59/3/1 54/3/1 58/3/1
f 60/3/1 56/3/1 55/3/1
f 61/3/1 56/3/1 60/3/1
f 63/3/1 58/3/1 57/3/1
f 64/3/1 58/3/1 63/3/1
f 65/3/1 62/3/1 61/3/1
f 66/3/1 62/3/1 65/3/1
f 71/3/1 68/3/1 67/3/1
f 72/3/1 68/3/1 71/3/1
f 75/3/1 70/3/1 69/3/1
f 76/3/1 70/3/1 75/3/1
f 77/3/1 73/3/1 72/3/1
f 78/3/1 73/3/1 77/3/1
f 79/3/1 75/3/1 74/3/1
f 80/3/1 75/3/1 79/3/1
f 86/3/1 82/3/1 81/3/1
f 87/3/1 82/3/1 86/3/1
f 88/3/1 84/3/1 83/3/1
f 89/3/1 84/3/1 88/3/1
f 91/3/1 86/3/1 85/3/1
f 92/3/1 86/3/1 91/3/1
f 93/3/1 90/3/1 89/3/1
f 94/3/1 90/3/1 93/3/1
f 99/3/1 96/3/1 95/3/1
f 100/3/1 96/3/1 99/3/1
f 103/3/1 98/3/1 97/3/1
f 104/3/1 98/3/1 103/3/1
f 105/3/1 101/3/1 100/3/1
f 106/3/1 101/3/1 105/3/1
f 107/3/1 103/3/1 102/3/1
f 108/3/1 103/3/1 107/3/1
f 114/3/1 110/3/1 109/3/1
f 115/3/1 110/3/1 114/3/1
f 116/3/1 112/3/1 111/3/1
f 117/3/1 112/3/1 116/3/1
f 119/3/1 114/3/1 113/3/1
f 120/3/1 114/3/1 119/3/1
f 121/3/1 118/3/1 117/3/1
f 122/3/1 118/3/1 121/3/1
f 127/3/1 124/3/1 123/3/1
f 128/3/1 124/3/1 127/3/1
f 131/3/1 126/3/1 125/3/1
f 132/3/1 126/3/1 131/3/1
f 133/3/1 129/3/1 128/3/1
f 134/3/1 129/3/1 133/3/1
f 135/3/1 131/3/1 130/3/1
f 136/3/1 131/3/1 135/3/1
f 137/7/2 138/7/2 139/7/2
f 139/7/2 138/7/2 140/7/2
f 141/5/2 142/5/2 144/5/2
f 144/5/2 142/5/2 145/5/2
f 143/5/2 144/5/2 147/5/2
f 147/5/2 144/5/2 148/5/2
f 145/5/2 146/5/2 149/5/2
f 149/5/2 146/5/2 150/5/2
f 148/5/2 149/5/2 151/5/2
f 151/5/2 149/5/2 152/5/2
f 153/3/2 154/3/2 158/3/2
f 158/3/2 154/3/2 159/3/2
f 155/3/2 156/3/2 160/3/2
f 160/3/2 156/3/2 161/3/2
f 157/3/2 158/3/2 163/3/2
f 163/3/2 158/3/2 164/3/2
f 161/3/2 162/3/2 165/3/2
f 165/3/2 162/3/2 166/3/2
f 167/3/2 168/3/2 171/3/2
f 171/3/2 168/3/2 172/3/2
f 169/3/2 170/3/2 175/3/2
f 175/3/2 170/3/2 176/3/2
f 172/3/2 173/3/2 177/3/2
f 177/3/2 173/3/2 178/3/2
f 174/3/2 175/3/2 179/3/2
f 179/3/2 175/3/2 180/3/2
f 181/3/2 182/3/2 186/3/2
f 186/3/2 182/3/2 187/3/2
f 183/3/2 184/3/2 188/3/2
f 188/3/2 184/3/2 189/3/2
f 185/3/2 186/3/2 191/3/2
f 191/3/2 186/3/2 192/3/2
f 189/3/2 190/3/2 193/3/2
f 193/3/2 190/3/2 194/3/2
f 195/3/2 196/3/2 199/3/2
f 199/3/2 196/3/2 200/3/2
f 197/3/2 198/3/2 203/3/2
f 203/3/2 198/3/2 204/3/2
f 200/3/2 201/3/2 205/3/2
f 205/3/2 201/3/2 206/3/2
f 202/3/2 203/3/2 207/3/2
f 207/3/2 203/3/2 208/3/2
f 209/2/2 210/2/2 213/2/2
f 213/2/2 210/2/2 214/2/2
f 211/2/2 212/2/2 215/2/2
f 215/2/2 212/2/2 216/2/2
f 214/2/2 215/2/2 218/2/2
f 218/2/2 215/2/2 219/2/2
f 217/2/2 218/2/2 221/2/2
f 221/2/2 218/2/2 222/2/2
f 219/2/2 220/2/2 223/2/2
f 223/2/2 220/2/2 224/2/2
f 225/9/2 226/9/2 228/9/2
f 228/9/2 226/9/2 229/9/2
f 227/9/2 228/9/2 231/9/2
f 231/9/2 228/9/2 232/9/2
f 229/9/2 230/9/2 233/9/2
f 233/9/2 230/9/2 234/9/2
f 232/9/2 233/9/2 235/9/2
f 235/9/2 233/9/2 236/9/2
f 237/3/2 238/3/2 240/3/2
f 240/3/2 238/3/2 241/3/2
f 239/3/2 240/3/2 243/3/2
f 243/3/2 240/3/2 244/3/2
f 241/3/2 242/3/2 245/3/2
f 245/3/2 242/3/2 246/3/2
f 244/3/2 245/3/2 247/3/2
f 247/3/2 245/3/2 248/3/2
f 251/4/3 250/4/3 249/4/3
f 252/4/3 250/4/3 251/4/3
f 254/3/3 252/3/3 251/3/3
f 255/3/3 252/3/3 254/3/3
f 257/3/3 254/3/3 253/3/3
f 258/1/3 255/1/3 254/1/3
f 258/3/3 254/3/3 257/3/3
f 259/3/3 256/3/3 255/3/3
f 259/1/3 255/1/3 258/1/3
f 260/3/3 256/3/3 259/3/3
f 262/3/3 259/3/3 258/3/3
f 263/3/3 259/3/3 262/3/3
f 265/3/3 262/3/3 261/3/3
f 266/1/3 263/1/3 262/1/3
f 266/3/3 262/3/3 265/3/3
f 267/3/3 264/3/3 263/3/3
f 267/1/3 263/1/3 266/1/3
f 268/3/3 264/3/3 267/3/3
f 270/3/3 267/3/3 266/3/3
f 271/3/3 267/3/3 270/3/3
f 273/3/3 270/3/3 269/3/3
f 273/3/3 272/3/3 271/3/3
f 273/3/3 271/3/3 270/3/3
f 274/3/3 272/3/3 273/3/3
f 277/6/3 276/6/3 275/6/3
f 278/6/3 276/6/3 277/6/3
f 280/5/3 278/5/3 277/5/3
f 281/5/3 278/5/3 280/5/3
f 283/4/3 280/4/3 279/4/3
f 284/4/3 280/4/3 283/4/3
f 285/4/3 282/4/3 281/4/3
f 286/4/3 282/4/3 285/4/3
f 288/3/3 284/3/3 283/3/3
f 289/3/3 284/3/3 288/3/3
f 290/3/3 286/3/3 285/3/3
f 291/3/3 286/3/3 290/3/3
f 293/3/3 288/3/3 287/3/3
f 294/3/3 288/3/3 293/3/3
f 297/3/3 292/3/3 291/3/3
f 298/3/3 292/3/3 297/3/3
f 300/3/3 295/3/3 294/3/3
f 301/3/3 295/3/3 300/3/3
f 302/3/3 297/3/3 296/3/3
f 303/3/3 297/3/3 302/3/3
f 305/3/3 300/3/3 299/3/3
f 306/3/3 300/3/3 305/3/3
f 309/3/3 304/3/3 303/3/3
f 310/3/3 304/3/3 309/3/3
f 312/3/3 307/3/3 306/3/3
f 313/3/3 307/3/3 312/3/3
f 314/3/3 309/3/3 308/3/3
f 315/3/3 309/3/3 314/3/3
f 317/3/3 312/3/3 311/3/3
f 318/3/3 312/3/3 317/3/3
f 319/3/3 316/3/3 315/3/3
f 320/3/3 316/3/3 319/3/3
f 323/8/3 322/8/3 321/8/3
f 324/8/3 322/8/3 323/8/3
f 326/7/3 324/7/3 323/7/3
f 327/7/3 324/7/3 326/7/3
f 329/6/3 326/6/3 325/6/3
f 330/6/3 326/6/3 329/6/3
f 331/6/3 328/6/3 327/6/3
f 332/6/3 328/6/3 331/6/3
f 334/5/3 330/5/3 329/5/3
f 335/5/3 330/5/3 334/5/3
f 336/5/3 332/5/3 331/5/3
f 337/5/3 332/5/3 336/5/3
f 339/4/3 334/4/3 333/4/3
f 340/4/3 334/4/3 339/4/3
f 341/4/3 338/4/3 337/4/3
f 342/4/3 338/4/3 341/4/3
f 343/3/3 340/3/3 339/3/3
f 344/3/3 340/3/3 343/3/3
f 345/3/3 342/3/3 341/3/3
f 346/3/3 342/3/3 345/3/3
f 351/3/3 348/3/3 347/3/3
f 352/3/3 348/3/3 351/3/3
f 353/3/3 350/3/3 349/3/3
f 354/3/3 350/3/3 353/3/3
f 359/3/3 356/3/3 355/3/3
f 360/3/3 356/3/3 359/3/3
f 361/3/3 358/3/3 357/3/3
f 362/3/3 358/3/3 361/3/3
f 367/9/3 364/9/3 363/9/3
f 368/9/3 364/9/3 367/9/3
f 369/9/3 366/9/3 365/9/3
f 370/9/3 366/9/3 369/9/3
f 373/6/3 372/6/3 371/6/3
f 374/6/3 372/6/3 373/6/3
f 376/5/3 374/5/3 373/5/3
f 377/5/3 374/5/3 376/5/3
f 379/4/3 376/4/3 375/4/3
f 380/4/3 376/4/3 379/4/3
f 381/4/3 378/4/3 377/4/3
f 382/4/3 378/4/3 381/4/3
f 385/9/3 384/9/3 383/9/3
f 386/9/3 384/9/3 385/9/3
f 389/4/3 388/4/3 387/4/3
f 390/4/3 388/4/3 389/4/3
f 395/3/3 392/3/3 391/3/3
f 396/3/3 394/3/3 393/3/3
f 397/3/3 395/3/3 391/3/3
f 397/3/3 396/3/3 395/3/3
f 398/3/3 394/3/3 396/3/3
f 398/3/3 396/3/3 397/3/3
f 399/4/4 400/4/4 401/4/4
f 401/4/4 400/4/4 402/4/4
f 403/3/4 404/3/4 407/3/4
f 405/3/4 406/3/4 408/3/4
f 403/3/4 407/3/4 409/3/4
f 407/3/4 408/3/4 409/3/4
f 408/3/4 406/3/4 410/3/4
f 409/3/4 408/3/4 410/3/4
f 411/6/4 412/6/4 413/6/4
f 413/6/4 412/6/4 414/6/4
f 413/5/4 414/5/4 416/5/4
f 416/5/4 414/5/4 417/5/4
f 415/4/4 416/4/4 419/4/4
f 419/4/4 416/4/4 420/4/4
f 417/4/4 418/4/4 421/4/4
f 421/4/4 418/4/4 422/4/4
f 423/9/4 424/9/4 425/9/4
f 425/9/4 424/9/4 426/9/4
f 427/8/4 428/8/4 429/8/4
f 429/8/4 428/8/4 430/8/4
f 429/7/4 430/7/4 432/7/4
f 432/7/4 430/7/4 433/7/4
f 431/6/4 432/6/4 435/6/4
f 435/6/4 432/6/4 436/6/4
f 433/6/4 434/6/4 437/6/4
f 437/6/4 434/6/4 438/6/4
f 435/5/4 436/5/4 440/5/4
f 440/5/4 436/5/4 441/5/4
f 437/5/4 438/5/4 442/5/4
f 442/5/4 438/5/4 443/5/4
f 439/4/4 440/4/4 445/4/4
f 445/4/4 440/4/4 446/4/4
f 443/4/4 444/4/4 447/4/4
f 447/4/4 444/4/4 448/4/4
f 445/3/4 446/3/4 449/3/4
f 449/3/4 446/3/4 450/3/4
f 447/3/4 448/3/4 451/3/4
f 451/3/4 448/3/4 452/3/4
f 453/3/4 454/3/4 457/3/4
f 457/3/4 454/3/4 458/3/4
f 455/3/4 456/3/4 459/3/4
f 459/3/4 456/3/4 460/3/4
f 461/3/4 462/3/4 465/3/4
f 465/3/4 462/3/4 466/3/4
f 463/3/4 464/3/4 467/3/4
f 467/3/4 464/3/4 468/3/4
f 469/9/4 470/9/4 473/9/4
f 473/9/4 470/9/4 474/9/4
f 471/9/4 472/9/4 475/9/4
f 475/9/4 472/9/4 476/9/4
f 477/6/4 478/6/4 479/6/4
f 479/6/4 478/6/4 480/6/4
f 479/5/4 480/5/4 482/5/4
f 482/5/4 480/5/4 483/5/4
f 481/4/4 482/4/4 485/4/4
f 485/4/4 482/4/4 486/4/4
f 483/4/4 484/4/4 487/4/4
f 487/4/4 484/4/4 488/4/4
f 485/3/4 486/3/4 490/3/4
f 490/3/4 486/3/4 491/3/4
f 487/3/4 488/3/4 492/3/4
f 492/3/4 488/3/4 493/3/4
f 489/3/4 490/3/4 495/3/4
f 495/3/4 490/3/4 496/3/4
f 493/3/4 494/3/4 499/3/4
f 499/3/4 494/3/4 500/3/4
f 496/3/4 497/3/4 502/3/4
f 502/3/4 497/3/4 503/3/4
f 498/3/4 499/3/4 504/3/4
f 504/3/4 499/3/4 505/3/4
f 501/3/4 502/3/4 507/3/4
f 507/3/4 502/3/4 508/3/4
f 505/3/4 506/3/4 511/3/4
f 511/3/4 506/3/4 512/3/4
f 508/3/4 509/3/4 514/3/4
f 514/3/4 509/3/4 515/3/4
f 510/3/4 511/3/4 516/3/4
f 516/3/4 511/3/4 517/3/4
f 513/3/4 514/3/4 519/3/4
f 519/3/4 514/3/4 520/3/4
f 517/3/4 518/3/4 521/3/4
f 521/3/4 518/3/4 522/3/4
f 523/4/4 524/4/4 525/4/4
f 525/4/4 524/4/4 526/4/4
f 525/3/4 526/3/4 528/3/4
f 528/3/4 526/3/4 529/3/4
f 527/3/4 528/3/4 531/3/4
f 528/1/4 529/1/4 532/1/4
f 531/3/4 528/3/4 532/3/4
f 529/3/4 530/3/4 533/3/4
f 532/1/4 529/1/4 533/1/4
f 533/3/4 530/3/4 534/3/4
f 532/3/4 533/3/4 536/3/4
f 536/3/4 533/3/4 537/3/4
f 535/3/4 536/3/4 539/3/4
f 536/1/4 537/1/4 540/1/4
f 539/3/4 536/3/4 540/3/4
f 537/3/4 538/3/4 541/3/4
f 540/1/4 537/1/4 541/1/4
f 541/3/4 538/3/4 542/3/4
f 540/3/4 541/3/4 544/3/4
f 544/3/4 541/3/4 545/3/4
f 543/3/4 544/3/4 547/3/4
f 545/3/4 546/3/4 547/3/4
f 544/3/4 545/3/4 547/3/4
f 547/3/4 546/3/4 548/3/4
f 557/3/5 550/3/5 549/3/5
f 558/3/5 550/3/5 557/3/5
f 559/3/5 552/3/5 551/3/5
f 560/3/5 552/3/5 559/3/5
f 561/3/5 554/3/5 553/3/5
f 562/4/5 556/4/5 555/4/5
f 563/3/5 557/3/5 556/3/5
f 563/4/5 556/4/5 562/4/5
f 564/1/5 558/1/5 557/1/5
f 564/3/5 557/3/5 563/3/5
f 565/3/5 559/3/5 558/3/5
f 565/1/5 558/1/5 564/1/5
f 566/1/5 560/1/5 559/1/5
f 566/3/5 559/3/5 565/3/5
f 567/3/5 561/3/5 560/3/5
f 567/1/5 560/1/5 566/1/5
f 568/3/5 554/3/5 561/3/5
f 568/3/5 561/3/5 567/3/5
f 569/3/5 565/3/5 564/3/5
f 570/3/5 565/3/5 569/3/5
f 571/3/5 567/3/5 566/3/5
f 572/3/5 567/3/5 571/3/5
f 573/3/5 554/3/5 568/3/5
f 574/3/5 554/3/5 573/3/5
f 583/3/5 576/3/5 575/3/5
f 584/3/5 576/3/5 583/3/5
f 585/3/5 578/3/5 577/3/5
f 586/3/5 578/3/5 585/3/5
f 587/3/5 580/3/5 579/3/5
f 588/3/5 580/3/5 587/3/5
f 591/4/5 582/4/5 581/4/5
f 592/3/5 583/3/5 582/3/5
f 592/4/5 582/4/5 591/4/5
f 593/3/5 583/3/5 592/3/5
f 594/3/5 585/3/5 584/3/5
f 595/3/5 585/3/5 594/3/5
f 596/3/5 587/3/5 586/3/5
f 597/3/5 587/3/5 596/3/5
f 598/6/5 590/6/5 589/6/5
f 599/5/5 591/5/5 590/5/5
f 599/6/5 590/6/5 598/6/5
f 600/5/5 591/5/5 599/5/5
f 607/4/5 601/4/5 600/4/5
f 608/3/5 602/3/5 601/3/5
f 608/4/5 601/4/5 607/4/5
f 609/3/5 602/3/5 608/3/5
f 610/3/5 604/3/5 603/3/5
f 611/3/5 604/3/5 610/3/5
f 612/3/5 606/3/5 605/3/5
f 613/3/5 606/3/5 612/3/5
f 615/3/5 610/3/5 609/3/5
f 616/3/5 610/3/5 615/3/5
f 617/3/5 612/3/5 611/3/5
f 618/3/5 612/3/5 617/3/5
f 619/3/5 614/3/5 613/3/5
f 620/3/5 614/3/5 619/3/5
f 630/4/5 622/4/5 621/4/5
f 631/3/5 623/3/5 622/3/5
f 631/4/5 622/4/5 630/4/5
f 632/3/5 623/3/5 631/3/5
f 633/3/5 625/3/5 624/3/5
f 634/3/5 625/3/5 633/3/5
f 635/3/5 627/3/5 626/3/5
f 636/3/5 627/3/5 635/3/5
f 641/6/5 629/6/5 628/6/5
f 642/5/5 630/5/5 629/5/5
f 642/6/5 629/6/5 641/6/5
f 643/5/5 630/5/5 642/5/5
f 644/9/5 638/9/5 637/9/5
f 645/9/5 638/9/5 644/9/5
f 646/8/5 640/8/5 639/8/5
f 647/7/5 641/7/5 640/7/5
f 647/8/5 640/8/5 646/8/5
f 648/7/5 641/7/5 647/7/5
f 653/6/5 649/6/5 648/6/5
f 654/5/5 650/5/5 649/5/5
f 654/6/5 649/6/5 653/6/5
f 655/5/5 650/5/5 654/5/5
f 662/9/5 652/9/5 651/9/5
f 663/9/5 652/9/5 662/9/5
f 664/4/5 656/4/5 655/4/5
f 665/3/5 657/3/5 656/3/5
f 665/4/5 656/4/5 664/4/5
f 666/3/5 657/3/5 665/3/5
f 667/3/5 659/3/5 658/3/5
f 668/3/5 659/3/5 667/3/5
f 669/3/5 661/3/5 660/3/5
f 670/3/5 661/3/5 669/3/5
f 675/4/5 672/4/5 671/4/5
f 676/4/5 672/4/5 675/4/5
f 679/6/5 674/6/5 673/6/5
f 680/5/5 675/5/5 674/5/5
f 680/6/5 674/6/5 679/6/5
f 681/5/5 675/5/5 680/5/5
f 683/9/5 678/9/5 677/9/5
f 684/9/5 678/9/5 683/9/5
f 685/4/5 682/4/5 681/4/5
f 686/4/5 682/4/5 685/4/5
f 691/3/5 688/3/5 687/3/5
f 692/3/5 688/3/5 691/3/5
f 693/4/5 690/4/5 689/4/5
f 694/4/5 690/4/5 693/4/5
f 696/3/5 688/3/5 692/3/5
f 697/3/5 696/3/5 695/3/5
f 698/3/5 688/3/5 696/3/5
f 698/3/5 696/3/5 697/3/5
f 699/3/6 700/3/6 703/3/6
f 703/3/6 700/3/6 704/3/6
f 701/4/6 702/4/6 705/4/6
f 705/4/6 702/4/6 706/4/6
f 704/3/6 700/3/6 708/3/6
f 707/3/6 708/3/6 709/3/6
f 708/3/6 700/3/6 710/3/6
f 709/3/6 708/3/6 710/3/6
f 711/4/6 712/4/6 715/4/6
f 715/4/6 712/4/6 716/4/6
f 713/6/6 714/6/6 719/6/6
f 714/5/6 715/5/6 720/5/6
f 719/6/6 714/6/6 720/6/6
f 720/5/6 715/5/6 721/5/6
f 717/9/6 718/9/6 723/9/6
f 723/9/6 718/9/6 724/9/6
f 721/4/6 722/4/6 725/4/6
f 725/4/6 722/4/6 726/4/6
f 727/4/6 728/4/6 736/4/6
f 728/3/6 729/3/6 737/3/6
f 736/4/6 728/4/6 737/4/6
f 737/3/6 729/3/6 738/3/6
f 730/3/6 731/3/6 739/3/6
f 739/3/6 731/3/6 740/3/6
f 732/3/6 733/3/6 741/3/6
f 741/3/6 733/3/6 742/3/6
f 734/6/6 735/6/6 747/6/6
f 735/5/6 736/5/6 748/5/6
f 747/6/6 735/6/6 748/6/6
f 748/5/6 736/5/6 749/5/6
f 743/9/6 744/9/6 750/9/6
f 750/9/6 744/9/6 751/9/6
f 745/8/6 746/8/6 752/8/6
f 746/7/6 747/7/6 753/7/6
f 752/8/6 746/8/6 753/8/6
f 753/7/6 747/7/6 754/7/6
f 754/6/6 755/6/6 759/6/6
f 755/5/6 756/5/6 760/5/6
f 759/6/6 755/6/6 760/6/6
f 760/5/6 756/5/6 761/5/6
f 757/9/6 758/9/6 768/9/6
f 768/9/6 758/9/6 769/9/6
f 761/4/6 762/4/6 770/4/6
f 762/3/6 763/3/6 771/3/6
f 770/4/6 762/4/6 771/4/6
f 771/3/6 763/3/6 772/3/6
f 764/3/6 765/3/6 773/3/6
f 773/3/6 765/3/6 774/3/6
f 766/3/6 767/3/6 775/3/6
f 775/3/6 767/3/6 776/3/6
f 777/3/6 778/3/6 785/3/6
f 785/3/6 778/3/6 786/3/6
f 779/3/6 780/3/6 787/3/6
f 787/3/6 780/3/6 788/3/6
f 781/3/6 782/3/6 789/3/6
f 789/3/6 782/3/6 790/3/6
f 783/4/6 784/4/6 793/4/6
f 784/3/6 785/3/6 794/3/6
f 793/4/6 784/4/6 794/4/6
f 794/3/6 785/3/6 795/3/6
f 786/3/6 787/3/6 796/3/6
f 796/3/6 787/3/6 797/3/6
f 788/3/6 789/3/6 798/3/6
f 798/3/6 789/3/6 799/3/6
f 791/6/6 792/6/6 800/6/6
f 792/5/6 793/5/6 801/5/6
f 800/6/6 792/6/6 801/6/6
f 801/5/6 793/5/6 802/5/6
f 802/4/6 803/4/6 809/4/6
f 803/3/6 804/3/6 810/3/6
f 809/4/6 803/4/6 810/4/6
f 810/3/6 804/3/6 811/3/6
f 805/3/6 806/3/6 812/3/6
f 812/3/6 806/3/6 813/3/6
f 807/3/6 808/3/6 814/3/6
f 814/3/6 808/3/6 815/3/6
f 811/3/6 812/3/6 817/3/6
f 817/3/6 812/3/6 818/3/6
f 813/3/6 814/3/6 819/3/6
f 819/3/6 814/3/6 820/3/6
f 815/3/6 816/3/6 821/3/6
f 821/3/6 816/3/6 822/3/6
f 823/3/6 824/3/6 831/3/6
f 831/3/6 824/3/6 832/3/6
f 825/3/6 826/3/6 833/3/6
f 833/3/6 826/3/6 834/3/6
f 827/3/6 828/3/6 835/3/6
f 829/4/6 830/4/6 836/4/6
f 830/3/6 831/3/6 837/3/6
f 836/4/6 830/4/6 837/4/6
f 831/1/6 832/1/6 838/1/6
f 837/3/6 831/3/6 838/3/6
f 832/3/6 833/3/6 839/3/6
f 838/1/6 832/1/6 839/1/6
f 833/1/6 834/1/6 840/1/6
f 839/3/6 833/3/6 840/3/6
f 834/3/6 835/3/6 841/3/6
f 840/1/6 834/1/6 841/1/6
f 835/3/6 828/3/6 842/3/6
f 841/3/6 835/3/6 842/3/6
f 838/3/6 839/3/6 843/3/6
f 843/3/6 839/3/6 844/3/6
f 840/3/6 841/3/6 845/3/6
f 845/3/6 841/3/6 846/3/6
f 842/3/6 828/3/6 847/3/6
f 847/3/6 828/3/6 848/3/6
