# MagicaVoxel @ Ephtracy

# group
o 

# material
mtllib minecart.mtl
usemtl palette

# normals
vn -1 0 0
vn 1 0 0
vn 0 0 1
vn 0 0 -1
vn 0 -1 0
vn 0 1 0

# texcoords
vt 0.380859 0.5
vt 0.384766 0.5
vt 0.951172 0.5

# verts
v 0.3 4.9 -0.8
v 0.3 4.9 -1.1
v 0.3 5 -0.7
v 0.3 5 -0.8
v 0.3 5 -1.1
v 0.3 5 -1.2
v 0.3 5.1 -0.6
v 0.3 5.1 -0.7
v 0.3 5.1 -1.2
v 0.3 5.1 -1.3
v 0.3 5.2 -0.6
v 0.3 5.2 -1.3
v 0.4 4.8 -0.7
v 0.4 4.8 -0.8
v 0.4 4.8 -1.1
v 0.4 4.8 -1.2
v 0.4 4.9 -0.7
v 0.4 4.9 -0.8
v 0.4 4.9 -1.1
v 0.4 4.9 -1.2
v 0.4 5 -0.6
v 0.4 5 -0.7
v 0.4 5 -0.8
v 0.4 5 -1.1
v 0.4 5 -1.2
v 0.4 5 -1.3
v 0.4 5.1 -0.6
v 0.4 5.1 -0.7
v 0.4 5.1 -1.2
v 0.4 5.1 -1.3
v 0.5 4.9 -0.6
v 0.5 4.9 -0.7
v 0.5 4.9 -1.2
v 0.5 4.9 -1.3
v 0.5 5 -0.6
v 0.5 5 -0.7
v 0.5 5 -1.2
v 0.5 5 -1.3
v 0.6 4.8 -0.7
v 0.6 4.8 -0.8
v 0.6 4.8 -1.1
v 0.6 4.8 -1.2
v 0.6 4.9 -0.7
v 0.6 4.9 -0.8
v 0.6 4.9 -1.1
v 0.6 4.9 -1.2
v 0.7 5 -0.7
v 0.7 5 -1.2
v 0.7 5.2 -0.7
v 0.7 5.2 -1.2
v 0.4 5 -0.7
v 0.4 5 -1.2
v 0.4 5.2 -0.7
v 0.4 5.2 -1.2
v 0.5 4.8 -0.7
v 0.5 4.8 -0.8
v 0.5 4.8 -1.1
v 0.5 4.8 -1.2
v 0.5 4.9 -0.7
v 0.5 4.9 -0.8
v 0.5 4.9 -1.1
v 0.5 4.9 -1.2
v 0.6 4.9 -0.6
v 0.6 4.9 -0.7
v 0.6 4.9 -1.2
v 0.6 4.9 -1.3
v 0.6 5 -0.6
v 0.6 5 -0.7
v 0.6 5 -1.2
v 0.6 5 -1.3
v 0.7 4.8 -0.7
v 0.7 4.8 -0.8
v 0.7 4.8 -1.1
v 0.7 4.8 -1.2
v 0.7 4.9 -0.7
v 0.7 4.9 -0.8
v 0.7 4.9 -1.1
v 0.7 4.9 -1.2
v 0.7 5 -0.6
v 0.7 5 -0.7
v 0.7 5 -0.8
v 0.7 5 -1.1
v 0.7 5 -1.2
v 0.7 5 -1.3
v 0.7 5.1 -0.6
v 0.7 5.1 -0.7
v 0.7 5.1 -1.2
v 0.7 5.1 -1.3
v 0.8 4.9 -0.8
v 0.8 4.9 -1.1
v 0.8 5 -0.7
v 0.8 5 -0.8
v 0.8 5 -1.1
v 0.8 5 -1.2
v 0.8 5.1 -0.6
v 0.8 5.1 -0.7
v 0.8 5.1 -1.2
v 0.8 5.1 -1.3
v 0.8 5.2 -0.6
v 0.8 5.2 -1.3
v 0.3 5.1 -0.6
v 0.3 5.2 -0.6
v 0.4 5 -0.6
v 0.4 5.1 -0.6
v 0.5 4.9 -0.6
v 0.5 5 -0.6
v 0.6 4.9 -0.6
v 0.6 5 -0.6
v 0.7 5 -0.6
v 0.7 5.1 -0.6
v 0.8 5.1 -0.6
v 0.8 5.2 -0.6
v 0.3 5 -0.7
v 0.3 5.1 -0.7
v 0.4 4.8 -0.7
v 0.4 4.9 -0.7
v 0.4 5 -0.7
v 0.4 5.1 -0.7
v 0.5 4.8 -0.7
v 0.5 4.9 -0.7
v 0.5 5 -0.7
v 0.6 4.8 -0.7
v 0.6 4.9 -0.7
v 0.6 5 -0.7
v 0.7 4.8 -0.7
v 0.7 4.9 -0.7
v 0.7 5 -0.7
v 0.7 5.1 -0.7
v 0.8 5 -0.7
v 0.8 5.1 -0.7
v 0.3 4.9 -0.8
v 0.3 5 -0.8
v 0.4 4.9 -0.8
v 0.4 5 -0.8
v 0.7 4.9 -0.8
v 0.7 5 -0.8
v 0.8 4.9 -0.8
v 0.8 5 -0.8
v 0.4 4.8 -1.1
v 0.4 4.9 -1.1
v 0.5 4.8 -1.1
v 0.5 4.9 -1.1
v 0.6 4.8 -1.1
v 0.6 4.9 -1.1
v 0.7 4.8 -1.1
v 0.7 4.9 -1.1
v 0.4 5 -1.2
v 0.4 5.2 -1.2
v 0.7 5 -1.2
v 0.7 5.2 -1.2
v 0.4 5 -0.7
v 0.4 5.2 -0.7
v 0.7 5 -0.7
v 0.7 5.2 -0.7
v 0.4 4.8 -0.8
v 0.4 4.9 -0.8
v 0.5 4.8 -0.8
v 0.5 4.9 -0.8
v 0.6 4.8 -0.8
v 0.6 4.9 -0.8
v 0.7 4.8 -0.8
v 0.7 4.9 -0.8
v 0.3 4.9 -1.1
v 0.3 5 -1.1
v 0.4 4.9 -1.1
v 0.4 5 -1.1
v 0.7 4.9 -1.1
v 0.7 5 -1.1
v 0.8 4.9 -1.1
v 0.8 5 -1.1
v 0.3 5 -1.2
v 0.3 5.1 -1.2
v 0.4 4.8 -1.2
v 0.4 4.9 -1.2
v 0.4 5 -1.2
v 0.4 5.1 -1.2
v 0.5 4.8 -1.2
v 0.5 4.9 -1.2
v 0.5 5 -1.2
v 0.6 4.8 -1.2
v 0.6 4.9 -1.2
v 0.6 5 -1.2
v 0.7 4.8 -1.2
v 0.7 4.9 -1.2
v 0.7 5 -1.2
v 0.7 5.1 -1.2
v 0.8 5 -1.2
v 0.8 5.1 -1.2
v 0.3 5.1 -1.3
v 0.3 5.2 -1.3
v 0.4 5 -1.3
v 0.4 5.1 -1.3
v 0.5 4.9 -1.3
v 0.5 5 -1.3
v 0.6 4.9 -1.3
v 0.6 5 -1.3
v 0.7 5 -1.3
v 0.7 5.1 -1.3
v 0.8 5.1 -1.3
v 0.8 5.2 -1.3
v 0.4 4.8 -0.7
v 0.5 4.8 -0.7
v 0.6 4.8 -0.7
v 0.7 4.8 -0.7
v 0.4 4.8 -0.8
v 0.5 4.8 -0.8
v 0.6 4.8 -0.8
v 0.7 4.8 -0.8
v 0.4 4.8 -1.1
v 0.5 4.8 -1.1
v 0.6 4.8 -1.1
v 0.7 4.8 -1.1
v 0.4 4.8 -1.2
v 0.5 4.8 -1.2
v 0.6 4.8 -1.2
v 0.7 4.8 -1.2
v 0.5 4.9 -0.6
v 0.6 4.9 -0.6
v 0.5 4.9 -0.7
v 0.6 4.9 -0.7
v 0.3 4.9 -0.8
v 0.4 4.9 -0.8
v 0.5 4.9 -0.8
v 0.6 4.9 -0.8
v 0.7 4.9 -0.8
v 0.8 4.9 -0.8
v 0.3 4.9 -1.1
v 0.4 4.9 -1.1
v 0.5 4.9 -1.1
v 0.6 4.9 -1.1
v 0.7 4.9 -1.1
v 0.8 4.9 -1.1
v 0.5 4.9 -1.2
v 0.6 4.9 -1.2
v 0.5 4.9 -1.3
v 0.6 4.9 -1.3
v 0.4 5 -0.6
v 0.5 5 -0.6
v 0.6 5 -0.6
v 0.7 5 -0.6
v 0.3 5 -0.7
v 0.4 5 -0.7
v 0.5 5 -0.7
v 0.6 5 -0.7
v 0.7 5 -0.7
v 0.8 5 -0.7
v 0.3 5 -0.8
v 0.4 5 -0.8
v 0.7 5 -0.8
v 0.8 5 -0.8
v 0.3 5 -1.1
v 0.4 5 -1.1
v 0.7 5 -1.1
v 0.8 5 -1.1
v 0.3 5 -1.2
v 0.4 5 -1.2
v 0.5 5 -1.2
v 0.6 5 -1.2
v 0.7 5 -1.2
v 0.8 5 -1.2
v 0.4 5 -1.3
v 0.5 5 -1.3
v 0.6 5 -1.3
v 0.7 5 -1.3
v 0.3 5.1 -0.6
v 0.4 5.1 -0.6
v 0.7 5.1 -0.6
v 0.8 5.1 -0.6
v 0.3 5.1 -0.7
v 0.4 5.1 -0.7
v 0.7 5.1 -0.7
v 0.8 5.1 -0.7
v 0.3 5.1 -1.2
v 0.4 5.1 -1.2
v 0.7 5.1 -1.2
v 0.8 5.1 -1.2
v 0.3 5.1 -1.3
v 0.4 5.1 -1.3
v 0.7 5.1 -1.3
v 0.8 5.1 -1.3
v 0.4 5 -0.7
v 0.7 5 -0.7
v 0.4 5 -1.2
v 0.7 5 -1.2
v 0.3 5.2 -0.6
v 0.8 5.2 -0.6
v 0.4 5.2 -0.7
v 0.7 5.2 -0.7
v 0.4 5.2 -1.2
v 0.7 5.2 -1.2
v 0.3 5.2 -1.3
v 0.8 5.2 -1.3

# faces
f 4/2/1 2/2/1 1/2/1
f 5/2/1 2/2/1 4/2/1
f 8/2/1 4/2/1 3/2/1
f 8/2/1 6/2/1 5/2/1
f 8/2/1 5/2/1 4/2/1
f 9/2/1 6/2/1 8/2/1
f 11/2/1 8/2/1 7/2/1
f 11/2/1 10/2/1 9/2/1
f 11/2/1 9/2/1 8/2/1
f 12/2/1 10/2/1 11/2/1
f 17/3/1 14/3/1 13/3/1
f 18/3/1 14/3/1 17/3/1
f 19/3/1 16/3/1 15/3/1
f 20/3/1 16/3/1 19/3/1
f 22/1/1 18/1/1 17/1/1
f 23/1/1 18/1/1 22/1/1
f 24/1/1 20/1/1 19/1/1
f 25/1/1 20/1/1 24/1/1
f 27/2/1 22/2/1 21/2/1
f 28/2/1 22/2/1 27/2/1
f 29/2/1 26/2/1 25/2/1
f 30/2/1 26/2/1 29/2/1
f 35/2/1 32/2/1 31/2/1
f 36/2/1 32/2/1 35/2/1
f 37/2/1 34/2/1 33/2/1
f 38/2/1 34/2/1 37/2/1
f 43/3/1 40/3/1 39/3/1
f 44/3/1 40/3/1 43/3/1
f 45/3/1 42/3/1 41/3/1
f 46/3/1 42/3/1 45/3/1
f 49/2/1 48/2/1 47/2/1
f 50/2/1 48/2/1 49/2/1
f 51/2/2 52/2/2 53/2/2
f 53/2/2 52/2/2 54/2/2
f 55/3/2 56/3/2 59/3/2
f 59/3/2 56/3/2 60/3/2
f 57/3/2 58/3/2 61/3/2
f 61/3/2 58/3/2 62/3/2
f 63/2/2 64/2/2 67/2/2
f 67/2/2 64/2/2 68/2/2
f 65/2/2 66/2/2 69/2/2
f 69/2/2 66/2/2 70/2/2
f 71/3/2 72/3/2 75/3/2
f 75/3/2 72/3/2 76/3/2
f 73/3/2 74/3/2 77/3/2
f 77/3/2 74/3/2 78/3/2
f 75/1/2 76/1/2 80/1/2
f 80/1/2 76/1/2 81/1/2
f 77/1/2 78/1/2 82/1/2
f 82/1/2 78/1/2 83/1/2
f 79/2/2 80/2/2 85/2/2
f 85/2/2 80/2/2 86/2/2
f 83/2/2 84/2/2 87/2/2
f 87/2/2 84/2/2 88/2/2
f 89/2/2 90/2/2 92/2/2
f 92/2/2 90/2/2 93/2/2
f 91/2/2 92/2/2 96/2/2
f 93/2/2 94/2/2 96/2/2
f 92/2/2 93/2/2 96/2/2
f 96/2/2 94/2/2 97/2/2
f 95/2/2 96/2/2 99/2/2
f 97/2/2 98/2/2 99/2/2
f 96/2/2 97/2/2 99/2/2
f 99/2/2 98/2/2 100/2/2
f 104/2/3 102/2/3 101/2/3
f 106/2/3 104/2/3 103/2/3
f 107/2/3 106/2/3 105/2/3
f 108/2/3 104/2/3 106/2/3
f 108/2/3 106/2/3 107/2/3
f 109/2/3 104/2/3 108/2/3
f 110/2/3 102/2/3 104/2/3
f 110/2/3 104/2/3 109/2/3
f 111/2/3 102/2/3 110/2/3
f 112/2/3 102/2/3 111/2/3
f 117/2/3 114/2/3 113/2/3
f 118/2/3 114/2/3 117/2/3
f 119/3/3 116/3/3 115/3/3
f 120/1/3 117/1/3 116/1/3
f 120/3/3 116/3/3 119/3/3
f 121/1/3 117/1/3 120/1/3
f 125/3/3 123/3/3 122/3/3
f 126/1/3 124/1/3 123/1/3
f 126/3/3 123/3/3 125/3/3
f 127/1/3 124/1/3 126/1/3
f 129/2/3 128/2/3 127/2/3
f 130/2/3 128/2/3 129/2/3
f 133/2/3 132/2/3 131/2/3
f 134/2/3 132/2/3 133/2/3
f 137/2/3 136/2/3 135/2/3
f 138/2/3 136/2/3 137/2/3
f 141/3/3 140/3/3 139/3/3
f 142/3/3 140/3/3 141/3/3
f 145/3/3 144/3/3 143/3/3
f 146/3/3 144/3/3 145/3/3
f 149/2/3 148/2/3 147/2/3
f 150/2/3 148/2/3 149/2/3
f 151/2/4 152/2/4 153/2/4
f 153/2/4 152/2/4 154/2/4
f 155/3/4 156/3/4 157/3/4
f 157/3/4 156/3/4 158/3/4
f 159/3/4 160/3/4 161/3/4
f 161/3/4 160/3/4 162/3/4
f 163/2/4 164/2/4 165/2/4
f 165/2/4 164/2/4 166/2/4
f 167/2/4 168/2/4 169/2/4
f 169/2/4 168/2/4 170/2/4
f 171/2/4 172/2/4 175/2/4
f 175/2/4 172/2/4 176/2/4
f 173/3/4 174/3/4 177/3/4
f 174/1/4 175/1/4 178/1/4
f 177/3/4 174/3/4 178/3/4
f 178/1/4 175/1/4 179/1/4
f 180/3/4 181/3/4 183/3/4
f 181/1/4 182/1/4 184/1/4
f 183/3/4 181/3/4 184/3/4
f 184/1/4 182/1/4 185/1/4
f 185/2/4 186/2/4 187/2/4
f 187/2/4 186/2/4 188/2/4
f 189/2/4 190/2/4 192/2/4
f 191/2/4 192/2/4 194/2/4
f 193/2/4 194/2/4 195/2/4
f 194/2/4 192/2/4 196/2/4
f 195/2/4 194/2/4 196/2/4
f 196/2/4 192/2/4 197/2/4
f 192/2/4 190/2/4 198/2/4
f 197/2/4 192/2/4 198/2/4
f 198/2/4 190/2/4 199/2/4
f 199/2/4 190/2/4 200/2/4
f 205/3/5 202/3/5 201/3/5
f 206/3/5 202/3/5 205/3/5
f 207/3/5 204/3/5 203/3/5
f 208/3/5 204/3/5 207/3/5
f 213/3/5 210/3/5 209/3/5
f 214/3/5 210/3/5 213/3/5
f 215/3/5 212/3/5 211/3/5
f 216/3/5 212/3/5 215/3/5
f 219/2/5 218/2/5 217/2/5
f 220/2/5 218/2/5 219/2/5
f 223/1/5 220/1/5 219/1/5
f 224/1/5 220/1/5 223/1/5
f 227/2/5 222/2/5 221/2/5
f 228/1/5 224/1/5 223/1/5
f 228/2/5 222/2/5 227/2/5
f 228/1/5 223/1/5 222/1/5
f 228/1/5 225/1/5 224/1/5
f 229/1/5 225/1/5 228/1/5
f 230/1/5 225/1/5 229/1/5
f 231/2/5 226/2/5 225/2/5
f 231/1/5 225/1/5 230/1/5
f 232/2/5 226/2/5 231/2/5
f 233/1/5 230/1/5 229/1/5
f 234/1/5 230/1/5 233/1/5
f 235/2/5 234/2/5 233/2/5
f 236/2/5 234/2/5 235/2/5
f 242/2/5 238/2/5 237/2/5
f 243/2/5 238/2/5 242/2/5
f 244/2/5 240/2/5 239/2/5
f 245/2/5 240/2/5 244/2/5
f 247/2/5 242/2/5 241/2/5
f 248/2/5 242/2/5 247/2/5
f 249/2/5 246/2/5 245/2/5
f 250/2/5 246/2/5 249/2/5
f 255/2/5 252/2/5 251/2/5
f 256/2/5 252/2/5 255/2/5
f 259/2/5 254/2/5 253/2/5
f 260/2/5 254/2/5 259/2/5
f 261/2/5 257/2/5 256/2/5
f 262/2/5 257/2/5 261/2/5
f 263/2/5 259/2/5 258/2/5
f 264/2/5 259/2/5 263/2/5
f 269/2/5 266/2/5 265/2/5
f 270/2/5 266/2/5 269/2/5
f 271/2/5 268/2/5 267/2/5
f 272/2/5 268/2/5 271/2/5
f 277/2/5 274/2/5 273/2/5
f 278/2/5 274/2/5 277/2/5
f 279/2/5 276/2/5 275/2/5
f 280/2/5 276/2/5 279/2/5
f 281/1/6 282/1/6 283/1/6
f 283/1/6 282/1/6 284/1/6
f 285/2/6 286/2/6 287/2/6
f 287/2/6 286/2/6 288/2/6
f 285/2/6 287/2/6 289/2/6
f 288/2/6 286/2/6 290/2/6
f 285/2/6 289/2/6 291/2/6
f 289/2/6 290/2/6 291/2/6
f 290/2/6 286/2/6 292/2/6
f 291/2/6 290/2/6 292/2/6
