# MagicaVoxel @ Ephtracy

# group
o 

# material
mtllib oilrig.mtl
usemtl palette

# normals
vn -1 0 0
vn 1 0 0
vn 0 0 1
vn 0 0 -1
vn 0 -1 0
vn 0 1 0

# texcoords
vt 0.916016 0.5
vt 0.919922 0.5
vt 0.943359 0.5

# verts
v -6.6 5.9 0.7
v -6.6 5.9 0.6
v -6.6 6 0.7
v -6.6 6 0.6
v -6.5 5.8 0.7
v -6.5 5.8 0.6
v -6.5 5.9 0.7
v -6.5 5.9 0.6
v -6.4 5.7 0.7
v -6.4 5.7 0.6
v -6.4 5.8 0.7
v -6.4 5.8 0.6
v -6.2 5.8 0.7
v -6.2 5.8 0.6
v -6.2 5.9 0.7
v -6.2 5.9 0.6
v -6 5.8 0.7
v -6 5.8 0.6
v -6 5.9 0.7
v -6 5.9 0.6
v -5.8 5.8 0.7
v -5.8 5.8 0.6
v -5.8 5.9 0.7
v -5.8 5.9 0.6
v -5.6 4.8 0.9
v -5.6 4.8 0.4
v -5.6 4.9 0.8
v -5.6 4.9 0.5
v -5.6 5 0.8
v -5.6 5 0.5
v -5.6 5.1 0.8
v -5.6 5.1 0.5
v -5.6 5.2 0.9
v -5.6 5.2 0.8
v -5.6 5.2 0.5
v -5.6 5.2 0.4
v -5.6 5.8 0.7
v -5.6 5.8 0.6
v -5.6 5.9 0.7
v -5.6 5.9 0.6
v -5.5 5.2 0.9
v -5.5 5.2 0.8
v -5.5 5.2 0.5
v -5.5 5.2 0.4
v -5.5 5.3 0.8
v -5.5 5.3 0.5
v -5.5 5.4 0.9
v -5.5 5.4 0.8
v -5.5 5.4 0.5
v -5.5 5.4 0.4
v -5.5 5.8 0.8
v -5.5 5.8 0.7
v -5.5 5.8 0.6
v -5.5 5.8 0.5
v -5.5 5.9 0.8
v -5.5 5.9 0.7
v -5.5 5.9 0.6
v -5.5 5.9 0.5
v -5.4 5.4 0.9
v -5.4 5.4 0.8
v -5.4 5.4 0.5
v -5.4 5.4 0.4
v -5.4 5.5 0.8
v -5.4 5.5 0.5
v -5.4 5.6 0.8
v -5.4 5.6 0.5
v -5.4 5.7 0.9
v -5.4 5.7 0.8
v -5.4 5.7 0.7
v -5.4 5.7 0.6
v -5.4 5.7 0.5
v -5.4 5.7 0.4
v -5.4 5.8 0.8
v -5.4 5.8 0.7
v -5.4 5.8 0.6
v -5.4 5.8 0.5
v -5.4 5.9 0.8
v -5.4 5.9 0.7
v -5.4 5.9 0.6
v -5.4 5.9 0.5
v -5.4 6 0.8
v -5.4 6 0.7
v -5.4 6 0.6
v -5.4 6 0.5
v -5.3 5.6 0.7
v -5.3 5.6 0.6
v -5.3 5.7 0.9
v -5.3 5.7 0.8
v -5.3 5.7 0.7
v -5.3 5.7 0.6
v -5.3 5.7 0.5
v -5.3 5.7 0.4
v -5.3 5.8 0.9
v -5.3 5.8 0.8
v -5.3 5.8 0.5
v -5.3 5.8 0.4
v -5.3 6 0.7
v -5.3 6 0.6
v -5.3 6.1 0.7
v -5.3 6.1 0.6
v -5.2 5.8 0.9
v -5.2 5.8 0.8
v -5.2 5.8 0.5
v -5.2 5.8 0.4
v -5.2 5.9 0.9
v -5.2 5.9 0.8
v -5.2 5.9 0.5
v -5.2 5.9 0.4
v -5.1 5.7 0.9
v -5.1 5.7 0.8
v -5.1 5.7 0.5
v -5.1 5.7 0.4
v -5.1 5.8 0.9
v -5.1 5.8 0.8
v -5.1 5.8 0.5
v -5.1 5.8 0.4
v -5 5.4 0.9
v -5 5.4 0.8
v -5 5.4 0.5
v -5 5.4 0.4
v -5 5.5 0.9
v -5 5.5 0.8
v -5 5.5 0.5
v -5 5.5 0.4
v -5 5.6 0.9
v -5 5.6 0.8
v -5 5.6 0.7
v -5 5.6 0.6
v -5 5.6 0.5
v -5 5.6 0.4
v -5 5.7 0.9
v -5 5.7 0.8
v -5 5.7 0.5
v -5 5.7 0.4
v -4.9 5.2 0.8
v -4.9 5.2 0.5
v -4.9 5.3 0.9
v -4.9 5.3 0.8
v -4.9 5.3 0.5
v -4.9 5.3 0.4
v -4.9 5.4 0.9
v -4.9 5.4 0.8
v -4.9 5.4 0.5
v -4.9 5.4 0.4
v -4.8 4.8 0.8
v -4.8 4.8 0.5
v -4.8 4.9 0.9
v -4.8 4.9 0.8
v -4.8 4.9 0.5
v -4.8 4.9 0.4
v -4.8 5 0.9
v -4.8 5 0.8
v -4.8 5 0.5
v -4.8 5 0.4
v -4.8 5.1 0.9
v -4.8 5.1 0.8
v -4.8 5.1 0.5
v -4.8 5.1 0.4
v -4.8 5.2 0.9
v -4.8 5.2 0.8
v -4.8 5.2 0.5
v -4.8 5.2 0.4
v -4.6 5.8 0.7
v -4.6 5.8 0.6
v -4.6 5.9 0.7
v -4.6 5.9 0.6
v -4.4 5.1 0.7
v -4.4 5.1 0.6
v -4.4 5.2 0.7
v -4.4 5.2 0.6
v -4.4 5.8 0.7
v -4.4 5.8 0.6
v -4.4 5.9 0.7
v -4.4 5.9 0.6
v -4.4 6.3 0.7
v -4.4 6.3 0.6
v -4.4 6.4 0.7
v -4.4 6.4 0.6
v -4.3 5.2 0.8
v -4.3 5.2 0.7
v -4.3 5.2 0.6
v -4.3 5.2 0.5
v -4.3 5.3 0.9
v -4.3 5.3 0.8
v -4.3 5.3 0.7
v -4.3 5.3 0.6
v -4.3 5.3 0.5
v -4.3 5.3 0.4
v -4.3 6.2 0.9
v -4.3 6.2 0.8
v -4.3 6.2 0.7
v -4.3 6.2 0.6
v -4.3 6.2 0.5
v -4.3 6.2 0.4
v -4.3 6.3 0.8
v -4.3 6.3 0.7
v -4.3 6.3 0.6
v -4.3 6.3 0.5
v -4.2 5.2 0.7
v -4.2 5.2 0.6
v -4.2 5.3 0.7
v -4.2 5.3 0.6
v -4.2 5.4 0.8
v -4.2 5.4 0.7
v -4.2 5.4 0.6
v -4.2 5.4 0.5
v -4.2 5.5 0.8
v -4.2 5.5 0.7
v -4.2 5.5 0.6
v -4.2 5.5 0.5
v -4.2 5.6 0.8
v -4.2 5.6 0.7
v -4.2 5.6 0.6
v -4.2 5.6 0.5
v -4.2 5.7 0.8
v -4.2 5.7 0.7
v -4.2 5.7 0.6
v -4.2 5.7 0.5
v -4.2 5.8 0.8
v -4.2 5.8 0.7
v -4.2 5.8 0.6
v -4.2 5.8 0.5
v -4.2 5.9 0.8
v -4.2 5.9 0.7
v -4.2 5.9 0.6
v -4.2 5.9 0.5
v -4.2 6 0.8
v -4.2 6 0.7
v -4.2 6 0.6
v -4.2 6 0.5
v -4.2 6.1 0.8
v -4.2 6.1 0.7
v -4.2 6.1 0.6
v -4.2 6.1 0.5
v -4.2 6.2 0.7
v -4.2 6.2 0.6
v -4.2 6.3 0.7
v -4.2 6.3 0.6
v -4.1 5.3 0.8
v -4.1 5.3 0.5
v -4.1 5.4 0.8
v -4.1 5.4 0.7
v -4.1 5.4 0.6
v -4.1 5.4 0.5
v -4.1 5.5 0.8
v -4.1 5.5 0.7
v -4.1 5.5 0.6
v -4.1 5.5 0.5
v -4.1 5.6 0.8
v -4.1 5.6 0.7
v -4.1 5.6 0.6
v -4.1 5.6 0.5
v -4.1 5.7 0.8
v -4.1 5.7 0.7
v -4.1 5.7 0.6
v -4.1 5.7 0.5
v -4.1 5.8 0.8
v -4.1 5.8 0.7
v -4.1 5.8 0.6
v -4.1 5.8 0.5
v -4.1 5.9 0.8
v -4.1 5.9 0.7
v -4.1 5.9 0.6
v -4.1 5.9 0.5
v -4.1 6 0.8
v -4.1 6 0.7
v -4.1 6 0.6
v -4.1 6 0.5
v -4.1 6.1 0.8
v -4.1 6.1 0.7
v -4.1 6.1 0.6
v -4.1 6.1 0.5
v -4.1 6.2 0.8
v -4.1 6.2 0.5
v -6.3 5.8 0.7
v -6.3 5.8 0.6
v -6.3 5.9 0.7
v -6.3 5.9 0.6
v -6.1 5.8 0.7
v -6.1 5.8 0.6
v -6.1 5.9 0.7
v -6.1 5.9 0.6
v -5.9 5.8 0.7
v -5.9 5.8 0.6
v -5.9 5.9 0.7
v -5.9 5.9 0.6
v -5.7 5.8 0.7
v -5.7 5.8 0.6
v -5.7 5.9 0.7
v -5.7 5.9 0.6
v -5.5 4.8 0.8
v -5.5 4.8 0.5
v -5.5 4.9 0.9
v -5.5 4.9 0.8
v -5.5 4.9 0.5
v -5.5 4.9 0.4
v -5.5 5 0.9
v -5.5 5 0.8
v -5.5 5 0.5
v -5.5 5 0.4
v -5.5 5.1 0.9
v -5.5 5.1 0.8
v -5.5 5.1 0.5
v -5.5 5.1 0.4
v -5.5 5.2 0.9
v -5.5 5.2 0.8
v -5.5 5.2 0.5
v -5.5 5.2 0.4
v -5.4 5.2 0.8
v -5.4 5.2 0.5
v -5.4 5.3 0.9
v -5.4 5.3 0.8
v -5.4 5.3 0.5
v -5.4 5.3 0.4
v -5.4 5.4 0.9
v -5.4 5.4 0.8
v -5.4 5.4 0.5
v -5.4 5.4 0.4
v -5.3 5.4 0.9
v -5.3 5.4 0.8
v -5.3 5.4 0.5
v -5.3 5.4 0.4
v -5.3 5.5 0.9
v -5.3 5.5 0.8
v -5.3 5.5 0.5
v -5.3 5.5 0.4
v -5.3 5.6 0.9
v -5.3 5.6 0.8
v -5.3 5.6 0.7
v -5.3 5.6 0.6
v -5.3 5.6 0.5
v -5.3 5.6 0.4
v -5.3 5.7 0.9
v -5.3 5.7 0.8
v -5.3 5.7 0.5
v -5.3 5.7 0.4
v -5.2 5.7 0.9
v -5.2 5.7 0.8
v -5.2 5.7 0.5
v -5.2 5.7 0.4
v -5.2 5.8 0.9
v -5.2 5.8 0.8
v -5.2 5.8 0.5
v -5.2 5.8 0.4
v -5.1 5.8 0.9
v -5.1 5.8 0.8
v -5.1 5.8 0.5
v -5.1 5.8 0.4
v -5.1 5.9 0.9
v -5.1 5.9 0.8
v -5.1 5.9 0.5
v -5.1 5.9 0.4
v -5 5.6 0.7
v -5 5.6 0.6
v -5 5.7 0.9
v -5 5.7 0.8
v -5 5.7 0.7
v -5 5.7 0.6
v -5 5.7 0.5
v -5 5.7 0.4
v -5 5.8 0.9
v -5 5.8 0.8
v -5 5.8 0.5
v -5 5.8 0.4
v -5 6 0.7
v -5 6 0.6
v -5 6.1 0.7
v -5 6.1 0.6
v -4.9 5.4 0.9
v -4.9 5.4 0.8
v -4.9 5.4 0.5
v -4.9 5.4 0.4
v -4.9 5.5 0.8
v -4.9 5.5 0.5
v -4.9 5.6 0.8
v -4.9 5.6 0.5
v -4.9 5.7 0.9
v -4.9 5.7 0.8
v -4.9 5.7 0.7
v -4.9 5.7 0.6
v -4.9 5.7 0.5
v -4.9 5.7 0.4
v -4.9 5.8 0.8
v -4.9 5.8 0.7
v -4.9 5.8 0.6
v -4.9 5.8 0.5
v -4.9 5.9 0.8
v -4.9 5.9 0.7
v -4.9 5.9 0.6
v -4.9 5.9 0.5
v -4.9 6 0.8
v -4.9 6 0.7
v -4.9 6 0.6
v -4.9 6 0.5
v -4.8 5.2 0.9
v -4.8 5.2 0.8
v -4.8 5.2 0.5
v -4.8 5.2 0.4
v -4.8 5.3 0.8
v -4.8 5.3 0.5
v -4.8 5.4 0.9
v -4.8 5.4 0.8
v -4.8 5.4 0.5
v -4.8 5.4 0.4
v -4.8 5.8 0.8
v -4.8 5.8 0.7
v -4.8 5.8 0.6
v -4.8 5.8 0.5
v -4.8 5.9 0.8
v -4.8 5.9 0.7
v -4.8 5.9 0.6
v -4.8 5.9 0.5
v -4.7 4.8 0.9
v -4.7 4.8 0.4
v -4.7 4.9 0.8
v -4.7 4.9 0.5
v -4.7 5 0.8
v -4.7 5 0.5
v -4.7 5.1 0.8
v -4.7 5.1 0.5
v -4.7 5.2 0.9
v -4.7 5.2 0.8
v -4.7 5.2 0.5
v -4.7 5.2 0.4
v -4.7 5.8 0.7
v -4.7 5.8 0.6
v -4.7 5.9 0.7
v -4.7 5.9 0.6
v -4.5 5.8 0.7
v -4.5 5.8 0.6
v -4.5 5.9 0.7
v -4.5 5.9 0.6
v -4.3 5.8 0.7
v -4.3 5.8 0.6
v -4.3 5.9 0.7
v -4.3 5.9 0.6
v -4.2 5.3 0.9
v -4.2 5.3 0.8
v -4.2 5.3 0.5
v -4.2 5.3 0.4
v -4.2 5.4 0.8
v -4.2 5.4 0.5
v -4.2 5.5 0.8
v -4.2 5.5 0.5
v -4.2 5.6 0.8
v -4.2 5.6 0.5
v -4.2 5.7 0.8
v -4.2 5.7 0.5
v -4.2 5.8 0.8
v -4.2 5.8 0.5
v -4.2 5.9 0.8
v -4.2 5.9 0.5
v -4.2 6 0.8
v -4.2 6 0.5
v -4.2 6.1 0.8
v -4.2 6.1 0.5
v -4.2 6.2 0.9
v -4.2 6.2 0.8
v -4.2 6.2 0.5
v -4.2 6.2 0.4
v -4.1 5.1 0.7
v -4.1 5.1 0.6
v -4.1 5.2 0.8
v -4.1 5.2 0.7
v -4.1 5.2 0.6
v -4.1 5.2 0.5
v -4.1 5.3 0.8
v -4.1 5.3 0.7
v -4.1 5.3 0.6
v -4.1 5.3 0.5
v -4.1 6.2 0.8
v -4.1 6.2 0.7
v -4.1 6.2 0.6
v -4.1 6.2 0.5
v -4.1 6.3 0.8
v -4.1 6.3 0.7
v -4.1 6.3 0.6
v -4.1 6.3 0.5
v -4.1 6.4 0.7
v -4.1 6.4 0.6
v -4 5.2 0.7
v -4 5.2 0.6
v -4 5.3 0.8
v -4 5.3 0.7
v -4 5.3 0.6
v -4 5.3 0.5
v -4 5.4 0.8
v -4 5.4 0.7
v -4 5.4 0.6
v -4 5.4 0.5
v -4 6.1 0.8
v -4 6.1 0.7
v -4 6.1 0.6
v -4 6.1 0.5
v -4 6.2 0.8
v -4 6.2 0.7
v -4 6.2 0.6
v -4 6.2 0.5
v -4 6.3 0.7
v -4 6.3 0.6
v -3.9 5.3 0.7
v -3.9 5.3 0.6
v -3.9 5.4 0.8
v -3.9 5.4 0.7
v -3.9 5.4 0.6
v -3.9 5.4 0.5
v -3.9 6.1 0.8
v -3.9 6.1 0.7
v -3.9 6.1 0.6
v -3.9 6.1 0.5
v -3.9 6.2 0.7
v -3.9 6.2 0.6
v -3.8 5.4 0.7
v -3.8 5.4 0.6
v -3.8 6.1 0.7
v -3.8 6.1 0.6
v -5.6 4.8 0.9
v -5.6 5.2 0.9
v -5.5 4.9 0.9
v -5.5 5 0.9
v -5.5 5.1 0.9
v -5.5 5.2 0.9
v -5.5 5.4 0.9
v -5.4 5.3 0.9
v -5.4 5.4 0.9
v -5.4 5.7 0.9
v -5.3 5.4 0.9
v -5.3 5.5 0.9
v -5.3 5.6 0.9
v -5.3 5.7 0.9
v -5.3 5.8 0.9
v -5.2 5.7 0.9
v -5.2 5.8 0.9
v -5.2 5.9 0.9
v -5.1 5.7 0.9
v -5.1 5.8 0.9
v -5.1 5.9 0.9
v -5 5.4 0.9
v -5 5.5 0.9
v -5 5.6 0.9
v -5 5.7 0.9
v -5 5.8 0.9
v -4.9 5.3 0.9
v -4.9 5.4 0.9
v -4.9 5.7 0.9
v -4.8 4.9 0.9
v -4.8 5 0.9
v -4.8 5.1 0.9
v -4.8 5.2 0.9
v -4.8 5.4 0.9
v -4.7 4.8 0.9
v -4.7 5.2 0.9
v -4.3 5.3 0.9
v -4.3 6.2 0.9
v -4.2 5.3 0.9
v -4.2 6.2 0.9
v -5.5 5.8 0.8
v -5.5 5.9 0.8
v -5.4 5.7 0.8
v -5.4 5.8 0.8
v -5.4 5.9 0.8
v -5.4 6 0.8
v -5.3 5.7 0.8
v -5.3 5.8 0.8
v -5.2 5.7 0.8
v -5.2 5.8 0.8
v -5.2 5.9 0.8
v -5.1 5.7 0.8
v -5.1 5.8 0.8
v -5.1 5.9 0.8
v -5 5.7 0.8
v -5 5.8 0.8
v -4.9 5.7 0.8
v -4.9 5.8 0.8
v -4.9 5.9 0.8
v -4.9 6 0.8
v -4.8 5.8 0.8
v -4.8 5.9 0.8
v -4.3 5.2 0.8
v -4.3 5.3 0.8
v -4.3 6.2 0.8
v -4.3 6.3 0.8
v -4.2 5.3 0.8
v -4.2 5.4 0.8
v -4.2 5.5 0.8
v -4.2 5.6 0.8
v -4.2 5.7 0.8
v -4.2 5.8 0.8
v -4.2 5.9 0.8
v -4.2 6 0.8
v -4.2 6.1 0.8
v -4.2 6.2 0.8
v -4.1 5.2 0.8
v -4.1 5.3 0.8
v -4.1 5.4 0.8
v -4.1 5.5 0.8
v -4.1 5.6 0.8
v -4.1 5.7 0.8
v -4.1 5.8 0.8
v -4.1 5.9 0.8
v -4.1 6 0.8
v -4.1 6.1 0.8
v -4.1 6.2 0.8
v -4.1 6.3 0.8
v -4 5.3 0.8
v -4 5.4 0.8
v -4 6.1 0.8
v -4 6.2 0.8
v -3.9 5.4 0.8
v -3.9 6.1 0.8
v -6.6 5.9 0.7
v -6.6 6 0.7
v -6.5 5.8 0.7
v -6.5 5.9 0.7
v -6.4 5.7 0.7
v -6.4 5.8 0.7
v -6.3 5.8 0.7
v -6.3 5.9 0.7
v -6.2 5.8 0.7
v -6.2 5.9 0.7
v -6.1 5.8 0.7
v -6.1 5.9 0.7
v -6 5.8 0.7
v -6 5.9 0.7
v -5.9 5.8 0.7
v -5.9 5.9 0.7
v -5.8 5.8 0.7
v -5.8 5.9 0.7
v -5.7 5.8 0.7
v -5.7 5.9 0.7
v -5.6 5.8 0.7
v -5.6 5.9 0.7
v -5.5 5.8 0.7
v -5.5 5.9 0.7
v -5.4 5.7 0.7
v -5.4 5.8 0.7
v -5.4 5.9 0.7
v -5.4 6 0.7
v -5.3 5.6 0.7
v -5.3 5.7 0.7
v -5.3 6 0.7
v -5.3 6.1 0.7
v -5 5.6 0.7
v -5 5.7 0.7
v -5 6 0.7
v -5 6.1 0.7
v -4.9 5.7 0.7
v -4.9 5.8 0.7
v -4.9 5.9 0.7
v -4.9 6 0.7
v -4.8 5.8 0.7
v -4.8 5.9 0.7
v -4.7 5.8 0.7
v -4.7 5.9 0.7
v -4.6 5.8 0.7
v -4.6 5.9 0.7
v -4.5 5.8 0.7
v -4.5 5.9 0.7
v -4.4 5.1 0.7
v -4.4 5.2 0.7
v -4.4 5.8 0.7
v -4.4 5.9 0.7
v -4.4 6.3 0.7
v -4.4 6.4 0.7
v -4.3 5.2 0.7
v -4.3 5.8 0.7
v -4.3 5.9 0.7
v -4.3 6.3 0.7
v -4.2 5.7 0.7
v -4.2 5.8 0.7
v -4.2 5.9 0.7
v -4.2 6 0.7
v -4.1 5.1 0.7
v -4.1 5.2 0.7
v -4.1 5.3 0.7
v -4.1 5.7 0.7
v -4.1 5.8 0.7
v -4.1 5.9 0.7
v -4.1 6 0.7
v -4.1 6.2 0.7
v -4.1 6.3 0.7
v -4.1 6.4 0.7
v -4 5.2 0.7
v -4 5.3 0.7
v -4 5.4 0.7
v -4 6.1 0.7
v -4 6.2 0.7
v -4 6.3 0.7
v -3.9 5.3 0.7
v -3.9 5.4 0.7
v -3.9 6.1 0.7
v -3.9 6.2 0.7
v -3.8 5.4 0.7
v -3.8 6.1 0.7
v -4.3 5.2 0.6
v -4.3 5.3 0.6
v -4.3 6.2 0.6
v -4.3 6.3 0.6
v -4.2 5.2 0.6
v -4.2 5.3 0.6
v -4.2 5.4 0.6
v -4.2 5.5 0.6
v -4.2 5.6 0.6
v -4.2 5.7 0.6
v -4.2 6 0.6
v -4.2 6.1 0.6
v -4.2 6.2 0.6
v -4.2 6.3 0.6
v -4.1 5.4 0.6
v -4.1 5.5 0.6
v -4.1 5.6 0.6
v -4.1 5.7 0.6
v -4.1 6 0.6
v -4.1 6.1 0.6
v -5.6 4.9 0.5
v -5.6 5 0.5
v -5.6 5.1 0.5
v -5.6 5.2 0.5
v -5.5 4.8 0.5
v -5.5 4.9 0.5
v -5.5 5 0.5
v -5.5 5.1 0.5
v -5.5 5.2 0.5
v -5.5 5.3 0.5
v -5.5 5.4 0.5
v -5.4 5.2 0.5
v -5.4 5.3 0.5
v -5.4 5.4 0.5
v -5.4 5.5 0.5
v -5.4 5.6 0.5
v -5.4 5.7 0.5
v -5.3 5.4 0.5
v -5.3 5.5 0.5
v -5.3 5.6 0.5
v -5.3 5.7 0.5
v -5 5.4 0.5
v -5 5.5 0.5
v -5 5.6 0.5
v -5 5.7 0.5
v -4.9 5.2 0.5
v -4.9 5.3 0.5
v -4.9 5.4 0.5
v -4.9 5.5 0.5
v -4.9 5.6 0.5
v -4.9 5.7 0.5
v -4.8 4.8 0.5
v -4.8 4.9 0.5
v -4.8 5 0.5
v -4.8 5.1 0.5
v -4.8 5.2 0.5
v -4.8 5.3 0.5
v -4.8 5.4 0.5
v -4.7 4.9 0.5
v -4.7 5 0.5
v -4.7 5.1 0.5
v -4.7 5.2 0.5
v -4.3 5.3 0.5
v -4.3 6.2 0.5
v -4.2 5.3 0.5
v -4.2 5.4 0.5
v -4.2 5.5 0.5
v -4.2 5.6 0.5
v -4.2 5.7 0.5
v -4.2 5.8 0.5
v -4.2 5.9 0.5
v -4.2 6 0.5
v -4.2 6.1 0.5
v -4.2 6.2 0.5
v -5.6 4.9 0.8
v -5.6 5 0.8
v -5.6 5.1 0.8
v -5.6 5.2 0.8
v -5.5 4.8 0.8
v -5.5 4.9 0.8
v -5.5 5 0.8
v -5.5 5.1 0.8
v -5.5 5.2 0.8
v -5.5 5.3 0.8
v -5.5 5.4 0.8
v -5.4 5.2 0.8
v -5.4 5.3 0.8
v -5.4 5.4 0.8
v -5.4 5.5 0.8
v -5.4 5.6 0.8
v -5.4 5.7 0.8
v -5.3 5.4 0.8
v -5.3 5.5 0.8
v -5.3 5.6 0.8
v -5.3 5.7 0.8
v -5 5.4 0.8
v -5 5.5 0.8
v -5 5.6 0.8
v -5 5.7 0.8
v -4.9 5.2 0.8
v -4.9 5.3 0.8
v -4.9 5.4 0.8
v -4.9 5.5 0.8
v -4.9 5.6 0.8
v -4.9 5.7 0.8
v -4.8 4.8 0.8
v -4.8 4.9 0.8
v -4.8 5 0.8
v -4.8 5.1 0.8
v -4.8 5.2 0.8
v -4.8 5.3 0.8
v -4.8 5.4 0.8
v -4.7 4.9 0.8
v -4.7 5 0.8
v -4.7 5.1 0.8
v -4.7 5.2 0.8
v -4.3 5.3 0.8
v -4.3 6.2 0.8
v -4.2 5.3 0.8
v -4.2 5.4 0.8
v -4.2 5.5 0.8
v -4.2 5.6 0.8
v -4.2 5.7 0.8
v -4.2 5.8 0.8
v -4.2 5.9 0.8
v -4.2 6 0.8
v -4.2 6.1 0.8
v -4.2 6.2 0.8
v -4.3 5.2 0.7
v -4.3 5.3 0.7
v -4.3 6.2 0.7
v -4.3 6.3 0.7
v -4.2 5.2 0.7
v -4.2 5.3 0.7
v -4.2 5.4 0.7
v -4.2 5.5 0.7
v -4.2 5.6 0.7
v -4.2 5.7 0.7
v -4.2 6 0.7
v -4.2 6.1 0.7
v -4.2 6.2 0.7
v -4.2 6.3 0.7
v -4.1 5.4 0.7
v -4.1 5.5 0.7
v -4.1 5.6 0.7
v -4.1 5.7 0.7
v -4.1 6 0.7
v -4.1 6.1 0.7
v -6.6 5.9 0.6
v -6.6 6 0.6
v -6.5 5.8 0.6
v -6.5 5.9 0.6
v -6.4 5.7 0.6
v -6.4 5.8 0.6
v -6.3 5.8 0.6
v -6.3 5.9 0.6
v -6.2 5.8 0.6
v -6.2 5.9 0.6
v -6.1 5.8 0.6
v -6.1 5.9 0.6
v -6 5.8 0.6
v -6 5.9 0.6
v -5.9 5.8 0.6
v -5.9 5.9 0.6
v -5.8 5.8 0.6
v -5.8 5.9 0.6
v -5.7 5.8 0.6
v -5.7 5.9 0.6
v -5.6 5.8 0.6
v -5.6 5.9 0.6
v -5.5 5.8 0.6
v -5.5 5.9 0.6
v -5.4 5.7 0.6
v -5.4 5.8 0.6
v -5.4 5.9 0.6
v -5.4 6 0.6
v -5.3 5.6 0.6
v -5.3 5.7 0.6
v -5.3 6 0.6
v -5.3 6.1 0.6
v -5 5.6 0.6
v -5 5.7 0.6
v -5 6 0.6
v -5 6.1 0.6
v -4.9 5.7 0.6
v -4.9 5.8 0.6
v -4.9 5.9 0.6
v -4.9 6 0.6
v -4.8 5.8 0.6
v -4.8 5.9 0.6
v -4.7 5.8 0.6
v -4.7 5.9 0.6
v -4.6 5.8 0.6
v -4.6 5.9 0.6
v -4.5 5.8 0.6
v -4.5 5.9 0.6
v -4.4 5.1 0.6
v -4.4 5.2 0.6
v -4.4 5.8 0.6
v -4.4 5.9 0.6
v -4.4 6.3 0.6
v -4.4 6.4 0.6
v -4.3 5.2 0.6
v -4.3 5.8 0.6
v -4.3 5.9 0.6
v -4.3 6.3 0.6
v -4.2 5.7 0.6
v -4.2 5.8 0.6
v -4.2 5.9 0.6
v -4.2 6 0.6
v -4.1 5.1 0.6
v -4.1 5.2 0.6
v -4.1 5.3 0.6
v -4.1 5.7 0.6
v -4.1 5.8 0.6
v -4.1 5.9 0.6
v -4.1 6 0.6
v -4.1 6.2 0.6
v -4.1 6.3 0.6
v -4.1 6.4 0.6
v -4 5.2 0.6
v -4 5.3 0.6
v -4 5.4 0.6
v -4 6.1 0.6
v -4 6.2 0.6
v -4 6.3 0.6
v -3.9 5.3 0.6
v -3.9 5.4 0.6
v -3.9 6.1 0.6
v -3.9 6.2 0.6
v -3.8 5.4 0.6
v -3.8 6.1 0.6
v -5.5 5.8 0.5
v -5.5 5.9 0.5
v -5.4 5.7 0.5
v -5.4 5.8 0.5
v -5.4 5.9 0.5
v -5.4 6 0.5
v -5.3 5.7 0.5
v -5.3 5.8 0.5
v -5.2 5.7 0.5
v -5.2 5.8 0.5
v -5.2 5.9 0.5
v -5.1 5.7 0.5
v -5.1 5.8 0.5
v -5.1 5.9 0.5
v -5 5.7 0.5
v -5 5.8 0.5
v -4.9 5.7 0.5
v -4.9 5.8 0.5
v -4.9 5.9 0.5
v -4.9 6 0.5
v -4.8 5.8 0.5
v -4.8 5.9 0.5
v -4.3 5.2 0.5
v -4.3 5.3 0.5
v -4.3 6.2 0.5
v -4.3 6.3 0.5
v -4.2 5.3 0.5
v -4.2 5.4 0.5
v -4.2 5.5 0.5
v -4.2 5.6 0.5
v -4.2 5.7 0.5
v -4.2 5.8 0.5
v -4.2 5.9 0.5
v -4.2 6 0.5
v -4.2 6.1 0.5
v -4.2 6.2 0.5
v -4.1 5.2 0.5
v -4.1 5.3 0.5
v -4.1 5.4 0.5
v -4.1 5.5 0.5
v -4.1 5.6 0.5
v -4.1 5.7 0.5
v -4.1 5.8 0.5
v -4.1 5.9 0.5
v -4.1 6 0.5
v -4.1 6.1 0.5
v -4.1 6.2 0.5
v -4.1 6.3 0.5
v -4 5.3 0.5
v -4 5.4 0.5
v -4 6.1 0.5
v -4 6.2 0.5
v -3.9 5.4 0.5
v -3.9 6.1 0.5
v -5.6 4.8 0.4
v -5.6 5.2 0.4
v -5.5 4.9 0.4
v -5.5 5 0.4
v -5.5 5.1 0.4
v -5.5 5.2 0.4
v -5.5 5.4 0.4
v -5.4 5.3 0.4
v -5.4 5.4 0.4
v -5.4 5.7 0.4
v -5.3 5.4 0.4
v -5.3 5.5 0.4
v -5.3 5.6 0.4
v -5.3 5.7 0.4
v -5.3 5.8 0.4
v -5.2 5.7 0.4
v -5.2 5.8 0.4
v -5.2 5.9 0.4
v -5.1 5.7 0.4
v -5.1 5.8 0.4
v -5.1 5.9 0.4
v -5 5.4 0.4
v -5 5.5 0.4
v -5 5.6 0.4
v -5 5.7 0.4
v -5 5.8 0.4
v -4.9 5.3 0.4
v -4.9 5.4 0.4
v -4.9 5.7 0.4
v -4.8 4.9 0.4
v -4.8 5 0.4
v -4.8 5.1 0.4
v -4.8 5.2 0.4
v -4.8 5.4 0.4
v -4.7 4.8 0.4
v -4.7 5.2 0.4
v -4.3 5.3 0.4
v -4.3 6.2 0.4
v -4.2 5.3 0.4
v -4.2 6.2 0.4
v -5.6 4.8 0.9
v -4.7 4.8 0.9
v -5.5 4.8 0.8
v -4.8 4.8 0.8
v -5.5 4.8 0.5
v -4.8 4.8 0.5
v -5.6 4.8 0.4
v -4.7 4.8 0.4
v -5.5 5 0.9
v -4.8 5 0.9
v -5.6 5 0.8
v -5.5 5 0.8
v -4.8 5 0.8
v -4.7 5 0.8
v -5.6 5 0.5
v -5.5 5 0.5
v -4.8 5 0.5
v -4.7 5 0.5
v -5.5 5 0.4
v -4.8 5 0.4
v -4.4 5.1 0.7
v -4.1 5.1 0.7
v -4.4 5.1 0.6
v -4.1 5.1 0.6
v -5.5 5.2 0.9
v -4.8 5.2 0.9
v -5.5 5.2 0.8
v -5.4 5.2 0.8
v -4.9 5.2 0.8
v -4.8 5.2 0.8
v -4.3 5.2 0.8
v -4.1 5.2 0.8
v -4.3 5.2 0.7
v -4.1 5.2 0.7
v -4 5.2 0.7
v -4.3 5.2 0.6
v -4.1 5.2 0.6
v -4 5.2 0.6
v -5.5 5.2 0.5
v -5.4 5.2 0.5
v -4.9 5.2 0.5
v -4.8 5.2 0.5
v -4.3 5.2 0.5
v -4.1 5.2 0.5
v -5.5 5.2 0.4
v -4.8 5.2 0.4
v -4.3 5.3 0.9
v -4.2 5.3 0.9
v -4.3 5.3 0.8
v -4.2 5.3 0.8
v -4.1 5.3 0.8
v -4 5.3 0.8
v -4.1 5.3 0.7
v -4 5.3 0.7
v -3.9 5.3 0.7
v -4.1 5.3 0.6
v -4 5.3 0.6
v -3.9 5.3 0.6
v -4.3 5.3 0.5
v -4.2 5.3 0.5
v -4.1 5.3 0.5
v -4 5.3 0.5
v -4.3 5.3 0.4
v -4.2 5.3 0.4
v -5.4 5.4 0.9
v -5.3 5.4 0.9
v -5 5.4 0.9
v -4.9 5.4 0.9
v -5.4 5.4 0.8
v -5.3 5.4 0.8
v -5 5.4 0.8
v -4.9 5.4 0.8
v -4.2 5.4 0.8
v -4.1 5.4 0.8
v -4 5.4 0.8
v -3.9 5.4 0.8
v -4.2 5.4 0.7
v -4.1 5.4 0.7
v -4 5.4 0.7
v -3.9 5.4 0.7
v -3.8 5.4 0.7
v -4.2 5.4 0.6
v -4.1 5.4 0.6
v -4 5.4 0.6
v -3.9 5.4 0.6
v -3.8 5.4 0.6
v -5.4 5.4 0.5
v -5.3 5.4 0.5
v -5 5.4 0.5
v -4.9 5.4 0.5
v -4.2 5.4 0.5
v -4.1 5.4 0.5
v -4 5.4 0.5
v -3.9 5.4 0.5
v -5.4 5.4 0.4
v -5.3 5.4 0.4
v -5 5.4 0.4
v -4.9 5.4 0.4
v -5.3 5.5 0.9
v -5 5.5 0.9
v -5.4 5.5 0.8
v -5.3 5.5 0.8
v -5 5.5 0.8
v -4.9 5.5 0.8
v -5.4 5.5 0.5
v -5.3 5.5 0.5
v -5 5.5 0.5
v -4.9 5.5 0.5
v -5.3 5.5 0.4
v -5 5.5 0.4
v -4.2 5.6 0.8
v -4.1 5.6 0.8
v -5.3 5.6 0.7
v -5 5.6 0.7
v -4.2 5.6 0.7
v -4.1 5.6 0.7
v -5.3 5.6 0.6
v -5 5.6 0.6
v -4.2 5.6 0.6
v -4.1 5.6 0.6
v -4.2 5.6 0.5
v -4.1 5.6 0.5
v -5.3 5.7 0.9
v -5.2 5.7 0.9
v -5.1 5.7 0.9
v -5 5.7 0.9
v -5.4 5.7 0.8
v -5.3 5.7 0.8
v -5.2 5.7 0.8
v -5.1 5.7 0.8
v -5 5.7 0.8
v -4.9 5.7 0.8
v -6.4 5.7 0.7
v -5.4 5.7 0.7
v -5.3 5.7 0.7
v -5 5.7 0.7
v -4.9 5.7 0.7
v -4.2 5.7 0.7
v -4.1 5.7 0.7
v -6.4 5.7 0.6
v -5.4 5.7 0.6
v -5.3 5.7 0.6
v -5 5.7 0.6
v -4.9 5.7 0.6
v -4.2 5.7 0.6
v -4.1 5.7 0.6
v -5.4 5.7 0.5
v -5.3 5.7 0.5
v -5.2 5.7 0.5
v -5.1 5.7 0.5
v -5 5.7 0.5
v -4.9 5.7 0.5
v -5.3 5.7 0.4
v -5.2 5.7 0.4
v -5.1 5.7 0.4
v -5 5.7 0.4
v -5.2 5.8 0.9
v -5.1 5.8 0.9
v -5.5 5.8 0.8
v -5.4 5.8 0.8
v -5.2 5.8 0.8
v -5.1 5.8 0.8
v -4.9 5.8 0.8
v -4.8 5.8 0.8
v -4.2 5.8 0.8
v -4.1 5.8 0.8
v -6.5 5.8 0.7
v -6.4 5.8 0.7
v -5.5 5.8 0.7
v -5.4 5.8 0.7
v -4.9 5.8 0.7
v -4.8 5.8 0.7
v -4.2 5.8 0.7
v -4.1 5.8 0.7
v -6.5 5.8 0.6
v -6.4 5.8 0.6
v -5.5 5.8 0.6
v -5.4 5.8 0.6
v -4.9 5.8 0.6
v -4.8 5.8 0.6
v -4.2 5.8 0.6
v -4.1 5.8 0.6
v -5.5 5.8 0.5
v -5.4 5.8 0.5
v -5.2 5.8 0.5
v -5.1 5.8 0.5
v -4.9 5.8 0.5
v -4.8 5.8 0.5
v -4.2 5.8 0.5
v -4.1 5.8 0.5
v -5.2 5.8 0.4
v -5.1 5.8 0.4
v -6.6 5.9 0.7
v -6.5 5.9 0.7
v -6.3 5.9 0.7
v -6.2 5.9 0.7
v -6.1 5.9 0.7
v -6 5.9 0.7
v -5.9 5.9 0.7
v -5.8 5.9 0.7
v -5.7 5.9 0.7
v -5.6 5.9 0.7
v -4.7 5.9 0.7
v -4.6 5.9 0.7
v -4.5 5.9 0.7
v -4.4 5.9 0.7
v -4.3 5.9 0.7
v -4.2 5.9 0.7
v -6.6 5.9 0.6
v -6.5 5.9 0.6
v -6.3 5.9 0.6
v -6.2 5.9 0.6
v -6.1 5.9 0.6
v -6 5.9 0.6
v -5.9 5.9 0.6
v -5.8 5.9 0.6
v -5.7 5.9 0.6
v -5.6 5.9 0.6
v -4.7 5.9 0.6
v -4.6 5.9 0.6
v -4.5 5.9 0.6
v -4.4 5.9 0.6
v -4.3 5.9 0.6
v -4.2 5.9 0.6
v -4.2 6 0.8
v -4.1 6 0.8
v -4.2 6 0.7
v -4.1 6 0.7
v -4.2 6 0.6
v -4.1 6 0.6
v -4.2 6 0.5
v -4.1 6 0.5
v -4.3 6.2 0.8
v -4.2 6.2 0.8
v -4.1 6.2 0.8
v -4.3 6.2 0.7
v -4.2 6.2 0.7
v -4.3 6.2 0.6
v -4.2 6.2 0.6
v -4.3 6.2 0.5
v -4.2 6.2 0.5
v -4.1 6.2 0.5
v -4.4 6.3 0.7
v -4.3 6.3 0.7
v -4.2 6.3 0.7
v -4.4 6.3 0.6
v -4.3 6.3 0.6
v -4.2 6.3 0.6
v -5.5 4.9 0.9
v -4.8 4.9 0.9
v -5.6 4.9 0.8
v -5.5 4.9 0.8
v -4.8 4.9 0.8
v -4.7 4.9 0.8
v -5.6 4.9 0.5
v -5.5 4.9 0.5
v -4.8 4.9 0.5
v -4.7 4.9 0.5
v -5.5 4.9 0.4
v -4.8 4.9 0.4
v -5.5 5.1 0.9
v -4.8 5.1 0.9
v -5.6 5.1 0.8
v -5.5 5.1 0.8
v -4.8 5.1 0.8
v -4.7 5.1 0.8
v -5.6 5.1 0.5
v -5.5 5.1 0.5
v -4.8 5.1 0.5
v -4.7 5.1 0.5
v -5.5 5.1 0.4
v -4.8 5.1 0.4
v -5.6 5.2 0.9
v -5.5 5.2 0.9
v -4.8 5.2 0.9
v -4.7 5.2 0.9
v -5.6 5.2 0.8
v -5.5 5.2 0.8
v -4.8 5.2 0.8
v -4.7 5.2 0.8
v -4.4 5.2 0.7
v -4.3 5.2 0.7
v -4.2 5.2 0.7
v -4.4 5.2 0.6
v -4.3 5.2 0.6
v -4.2 5.2 0.6
v -5.6 5.2 0.5
v -5.5 5.2 0.5
v -4.8 5.2 0.5
v -4.7 5.2 0.5
v -5.6 5.2 0.4
v -5.5 5.2 0.4
v -4.8 5.2 0.4
v -4.7 5.2 0.4
v -5.4 5.3 0.9
v -4.9 5.3 0.9
v -5.5 5.3 0.8
v -5.4 5.3 0.8
v -4.9 5.3 0.8
v -4.8 5.3 0.8
v -4.3 5.3 0.8
v -4.2 5.3 0.8
v -4.1 5.3 0.8
v -4.3 5.3 0.7
v -4.2 5.3 0.7
v -4.3 5.3 0.6
v -4.2 5.3 0.6
v -5.5 5.3 0.5
v -5.4 5.3 0.5
v -4.9 5.3 0.5
v -4.8 5.3 0.5
v -4.3 5.3 0.5
v -4.2 5.3 0.5
v -4.1 5.3 0.5
v -5.4 5.3 0.4
v -4.9 5.3 0.4
v -5.5 5.4 0.9
v -5.4 5.4 0.9
v -4.9 5.4 0.9
v -4.8 5.4 0.9
v -5.5 5.4 0.8
v -5.4 5.4 0.8
v -4.9 5.4 0.8
v -4.8 5.4 0.8
v -5.5 5.4 0.5
v -5.4 5.4 0.5
v -4.9 5.4 0.5
v -4.8 5.4 0.5
v -5.5 5.4 0.4
v -5.4 5.4 0.4
v -4.9 5.4 0.4
v -4.8 5.4 0.4
v -4.2 5.5 0.8
v -4.1 5.5 0.8
v -4.2 5.5 0.7
v -4.1 5.5 0.7
v -4.2 5.5 0.6
v -4.1 5.5 0.6
v -4.2 5.5 0.5
v -4.1 5.5 0.5
v -5.3 5.6 0.9
v -5 5.6 0.9
v -5.4 5.6 0.8
v -5.3 5.6 0.8
v -5 5.6 0.8
v -4.9 5.6 0.8
v -5.3 5.6 0.7
v -5 5.6 0.7
v -5.3 5.6 0.6
v -5 5.6 0.6
v -5.4 5.6 0.5
v -5.3 5.6 0.5
v -5 5.6 0.5
v -4.9 5.6 0.5
v -5.3 5.6 0.4
v -5 5.6 0.4
v -5.4 5.7 0.9
v -5.3 5.7 0.9
v -5 5.7 0.9
v -4.9 5.7 0.9
v -5.4 5.7 0.8
v -5.3 5.7 0.8
v -5 5.7 0.8
v -4.9 5.7 0.8
v -4.2 5.7 0.8
v -4.1 5.7 0.8
v -4.2 5.7 0.7
v -4.1 5.7 0.7
v -4.2 5.7 0.6
v -4.1 5.7 0.6
v -5.4 5.7 0.5
v -5.3 5.7 0.5
v -5 5.7 0.5
v -4.9 5.7 0.5
v -4.2 5.7 0.5
v -4.1 5.7 0.5
v -5.4 5.7 0.4
v -5.3 5.7 0.4
v -5 5.7 0.4
v -4.9 5.7 0.4
v -5.3 5.8 0.9
v -5.2 5.8 0.9
v -5.1 5.8 0.9
v -5 5.8 0.9
v -5.3 5.8 0.8
v -5.2 5.8 0.8
v -5.1 5.8 0.8
v -5 5.8 0.8
v -6.3 5.8 0.7
v -6.2 5.8 0.7
v -6.1 5.8 0.7
v -6 5.8 0.7
v -5.9 5.8 0.7
v -5.8 5.8 0.7
v -5.7 5.8 0.7
v -5.6 5.8 0.7
v -4.7 5.8 0.7
v -4.6 5.8 0.7
v -4.5 5.8 0.7
v -4.4 5.8 0.7
v -4.3 5.8 0.7
v -4.2 5.8 0.7
v -6.3 5.8 0.6
v -6.2 5.8 0.6
v -6.1 5.8 0.6
v -6 5.8 0.6
v -5.9 5.8 0.6
v -5.8 5.8 0.6
v -5.7 5.8 0.6
v -5.6 5.8 0.6
v -4.7 5.8 0.6
v -4.6 5.8 0.6
v -4.5 5.8 0.6
v -4.4 5.8 0.6
v -4.3 5.8 0.6
v -4.2 5.8 0.6
v -5.3 5.8 0.5
v -5.2 5.8 0.5
v -5.1 5.8 0.5
v -5 5.8 0.5
v -5.3 5.8 0.4
v -5.2 5.8 0.4
v -5.1 5.8 0.4
v -5 5.8 0.4
v -5.2 5.9 0.9
v -5.1 5.9 0.9
v -5.5 5.9 0.8
v -5.4 5.9 0.8
v -5.2 5.9 0.8
v -5.1 5.9 0.8
v -4.9 5.9 0.8
v -4.8 5.9 0.8
v -4.2 5.9 0.8
v -4.1 5.9 0.8
v -5.5 5.9 0.7
v -5.4 5.9 0.7
v -4.9 5.9 0.7
v -4.8 5.9 0.7
v -4.2 5.9 0.7
v -4.1 5.9 0.7
v -5.5 5.9 0.6
v -5.4 5.9 0.6
v -4.9 5.9 0.6
v -4.8 5.9 0.6
v -4.2 5.9 0.6
v -4.1 5.9 0.6
v -5.5 5.9 0.5
v -5.4 5.9 0.5
v -5.2 5.9 0.5
v -5.1 5.9 0.5
v -4.9 5.9 0.5
v -4.8 5.9 0.5
v -4.2 5.9 0.5
v -4.1 5.9 0.5
v -5.2 5.9 0.4
v -5.1 5.9 0.4
v -5.4 6 0.8
v -4.9 6 0.8
v -6.6 6 0.7
v -5.4 6 0.7
v -5.3 6 0.7
v -5 6 0.7
v -4.9 6 0.7
v -4.2 6 0.7
v -4.1 6 0.7
v -6.6 6 0.6
v -5.4 6 0.6
v -5.3 6 0.6
v -5 6 0.6
v -4.9 6 0.6
v -4.2 6 0.6
v -4.1 6 0.6
v -5.4 6 0.5
v -4.9 6 0.5
v -4.2 6.1 0.8
v -4.1 6.1 0.8
v -4 6.1 0.8
v -3.9 6.1 0.8
v -5.3 6.1 0.7
v -5 6.1 0.7
v -4.2 6.1 0.7
v -4.1 6.1 0.7
v -4 6.1 0.7
v -3.9 6.1 0.7
v -3.8 6.1 0.7
v -5.3 6.1 0.6
v -5 6.1 0.6
v -4.2 6.1 0.6
v -4.1 6.1 0.6
v -4 6.1 0.6
v -3.9 6.1 0.6
v -3.8 6.1 0.6
v -4.2 6.1 0.5
v -4.1 6.1 0.5
v -4 6.1 0.5
v -3.9 6.1 0.5
v -4.3 6.2 0.9
v -4.2 6.2 0.9
v -4.3 6.2 0.8
v -4.2 6.2 0.8
v -4.1 6.2 0.8
v -4 6.2 0.8
v -4.1 6.2 0.7
v -4 6.2 0.7
v -3.9 6.2 0.7
v -4.1 6.2 0.6
v -4 6.2 0.6
v -3.9 6.2 0.6
v -4.3 6.2 0.5
v -4.2 6.2 0.5
v -4.1 6.2 0.5
v -4 6.2 0.5
v -4.3 6.2 0.4
v -4.2 6.2 0.4
v -4.3 6.3 0.8
v -4.1 6.3 0.8
v -4.3 6.3 0.7
v -4.1 6.3 0.7
v -4 6.3 0.7
v -4.3 6.3 0.6
v -4.1 6.3 0.6
v -4 6.3 0.6
v -4.3 6.3 0.5
v -4.1 6.3 0.5
v -4.4 6.4 0.7
v -4.1 6.4 0.7
v -4.4 6.4 0.6
v -4.1 6.4 0.6

# faces
f 3/3/1 2/3/1 1/3/1
f 4/3/1 2/3/1 3/3/1
f 7/3/1 6/3/1 5/3/1
f 8/3/1 6/3/1 7/3/1
f 11/3/1 10/3/1 9/3/1
f 12/3/1 10/3/1 11/3/1
f 15/3/1 14/3/1 13/3/1
f 16/3/1 14/3/1 15/3/1
f 19/3/1 18/3/1 17/3/1
f 20/3/1 18/3/1 19/3/1
f 23/3/1 22/3/1 21/3/1
f 24/3/1 22/3/1 23/3/1
f 27/1/1 26/1/1 25/1/1
f 28/1/1 26/1/1 27/1/1
f 29/1/1 27/1/1 25/1/1
f 30/1/1 26/1/1 28/1/1
f 31/1/1 29/1/1 25/1/1
f 31/1/1 30/1/1 29/1/1
f 32/1/1 26/1/1 30/1/1
f 32/1/1 30/1/1 31/1/1
f 33/1/1 31/1/1 25/1/1
f 34/1/1 31/1/1 33/1/1
f 35/1/1 26/1/1 32/1/1
f 36/1/1 26/1/1 35/1/1
f 39/3/1 38/3/1 37/3/1
f 40/3/1 38/3/1 39/3/1
f 45/1/1 42/1/1 41/1/1
f 45/1/1 44/1/1 43/1/1
f 45/1/1 43/1/1 42/1/1
f 46/1/1 44/1/1 45/1/1
f 47/1/1 45/1/1 41/1/1
f 48/1/1 45/1/1 47/1/1
f 49/1/1 44/1/1 46/1/1
f 50/1/1 44/1/1 49/1/1
f 55/3/1 52/3/1 51/3/1
f 56/3/1 52/3/1 55/3/1
f 57/3/1 54/3/1 53/3/1
f 58/3/1 54/3/1 57/3/1
f 63/1/1 60/1/1 59/1/1
f 64/1/1 62/1/1 61/1/1
f 65/1/1 63/1/1 59/1/1
f 65/1/1 64/1/1 63/1/1
f 66/1/1 62/1/1 64/1/1
f 66/1/1 64/1/1 65/1/1
f 67/1/1 65/1/1 59/1/1
f 68/1/1 65/1/1 67/1/1
f 71/1/1 62/1/1 66/1/1
f 72/1/1 62/1/1 71/1/1
f 73/3/1 69/3/1 68/3/1
f 74/3/1 69/3/1 73/3/1
f 75/3/1 71/3/1 70/3/1
f 76/3/1 71/3/1 75/3/1
f 81/3/1 78/3/1 77/3/1
f 82/3/1 78/3/1 81/3/1
f 83/3/1 80/3/1 79/3/1
f 84/3/1 80/3/1 83/3/1
f 89/3/1 86/3/1 85/3/1
f 90/3/1 86/3/1 89/3/1
f 93/1/1 88/1/1 87/1/1
f 94/1/1 88/1/1 93/1/1
f 95/1/1 92/1/1 91/1/1
f 96/1/1 92/1/1 95/1/1
f 99/3/1 98/3/1 97/3/1
f 100/3/1 98/3/1 99/3/1
f 105/1/1 102/1/1 101/1/1
f 106/1/1 102/1/1 105/1/1
f 107/1/1 104/1/1 103/1/1
f 108/1/1 104/1/1 107/1/1
f 113/1/1 110/1/1 109/1/1
f 114/1/1 110/1/1 113/1/1
f 115/1/1 112/1/1 111/1/1
f 116/1/1 112/1/1 115/1/1
f 121/1/1 118/1/1 117/1/1
f 122/1/1 118/1/1 121/1/1
f 123/1/1 120/1/1 119/1/1
f 124/1/1 120/1/1 123/1/1
f 126/1/1 123/1/1 122/1/1
f 127/1/1 123/1/1 126/1/1
f 128/1/1 123/1/1 127/1/1
f 129/1/1 123/1/1 128/1/1
f 131/1/1 126/1/1 125/1/1
f 132/1/1 126/1/1 131/1/1
f 133/1/1 130/1/1 129/1/1
f 134/1/1 130/1/1 133/1/1
f 138/1/1 136/1/1 135/1/1
f 139/1/1 136/1/1 138/1/1
f 141/1/1 138/1/1 137/1/1
f 142/1/1 138/1/1 141/1/1
f 143/1/1 140/1/1 139/1/1
f 144/1/1 140/1/1 143/1/1
f 148/1/1 146/1/1 145/1/1
f 149/1/1 146/1/1 148/1/1
f 151/1/1 148/1/1 147/1/1
f 152/1/1 148/1/1 151/1/1
f 153/1/1 150/1/1 149/1/1
f 154/1/1 150/1/1 153/1/1
f 156/1/1 153/1/1 152/1/1
f 157/1/1 153/1/1 156/1/1
f 159/1/1 156/1/1 155/1/1
f 160/1/1 156/1/1 159/1/1
f 161/1/1 158/1/1 157/1/1
f 162/1/1 158/1/1 161/1/1
f 165/3/1 164/3/1 163/3/1
f 166/3/1 164/3/1 165/3/1
f 169/2/1 168/2/1 167/2/1
f 170/2/1 168/2/1 169/2/1
f 173/3/1 172/3/1 171/3/1
f 174/3/1 172/3/1 173/3/1
f 177/2/1 176/2/1 175/2/1
f 178/2/1 176/2/1 177/2/1
f 184/2/1 180/2/1 179/2/1
f 185/2/1 180/2/1 184/2/1
f 186/2/1 182/2/1 181/2/1
f 187/2/1 182/2/1 186/2/1
f 189/2/1 184/2/1 183/2/1
f 190/2/1 184/2/1 189/2/1
f 193/2/1 188/2/1 187/2/1
f 194/2/1 188/2/1 193/2/1
f 195/2/1 191/2/1 190/2/1
f 196/2/1 191/2/1 195/2/1
f 197/2/1 193/2/1 192/2/1
f 198/2/1 193/2/1 197/2/1
f 201/2/1 200/2/1 199/2/1
f 202/2/1 200/2/1 201/2/1
f 207/2/1 204/2/1 203/2/1
f 208/2/1 204/2/1 207/2/1
f 209/2/1 206/2/1 205/2/1
f 210/2/1 206/2/1 209/2/1
f 215/2/1 212/2/1 211/2/1
f 216/2/1 212/2/1 215/2/1
f 217/2/1 214/2/1 213/2/1
f 218/2/1 214/2/1 217/2/1
f 223/2/1 220/2/1 219/2/1
f 224/3/1 221/3/1 220/3/1
f 224/2/1 220/2/1 223/2/1
f 225/2/1 222/2/1 221/2/1
f 225/3/1 221/3/1 224/3/1
f 226/2/1 222/2/1 225/2/1
f 231/2/1 228/2/1 227/2/1
f 232/2/1 228/2/1 231/2/1
f 233/2/1 230/2/1 229/2/1
f 234/2/1 230/2/1 233/2/1
f 237/2/1 236/2/1 235/2/1
f 238/2/1 236/2/1 237/2/1
f 241/2/1 240/2/1 239/2/1
f 242/2/1 240/2/1 241/2/1
f 243/2/1 240/2/1 242/2/1
f 244/2/1 240/2/1 243/2/1
f 246/2/1 243/2/1 242/2/1
f 247/2/1 243/2/1 246/2/1
f 249/2/1 246/2/1 245/2/1
f 249/2/1 248/2/1 247/2/1
f 249/2/1 247/2/1 246/2/1
f 250/2/1 248/2/1 249/2/1
f 251/2/1 248/2/1 250/2/1
f 252/2/1 248/2/1 251/2/1
f 254/2/1 251/2/1 250/2/1
f 255/2/1 251/2/1 254/2/1
f 257/2/1 254/2/1 253/2/1
f 258/2/1 254/2/1 257/2/1
f 259/2/1 256/2/1 255/2/1
f 260/2/1 256/2/1 259/2/1
f 265/2/1 262/2/1 261/2/1
f 266/2/1 262/2/1 265/2/1
f 267/2/1 264/2/1 263/2/1
f 268/2/1 264/2/1 267/2/1
f 270/2/1 267/2/1 266/2/1
f 271/2/1 267/2/1 270/2/1
f 273/2/1 270/2/1 269/2/1
f 273/2/1 272/2/1 271/2/1
f 273/2/1 271/2/1 270/2/1
f 274/2/1 272/2/1 273/2/1
f 275/3/2 276/3/2 277/3/2
f 277/3/2 276/3/2 278/3/2
f 279/3/2 280/3/2 281/3/2
f 281/3/2 280/3/2 282/3/2
f 283/3/2 284/3/2 285/3/2
f 285/3/2 284/3/2 286/3/2
f 287/3/2 288/3/2 289/3/2
f 289/3/2 288/3/2 290/3/2
f 291/1/2 292/1/2 294/1/2
f 294/1/2 292/1/2 295/1/2
f 293/1/2 294/1/2 297/1/2
f 297/1/2 294/1/2 298/1/2
f 295/1/2 296/1/2 299/1/2
f 299/1/2 296/1/2 300/1/2
f 298/1/2 299/1/2 302/1/2
f 302/1/2 299/1/2 303/1/2
f 301/1/2 302/1/2 305/1/2
f 305/1/2 302/1/2 306/1/2
f 303/1/2 304/1/2 307/1/2
f 307/1/2 304/1/2 308/1/2
f 309/1/2 310/1/2 312/1/2
f 312/1/2 310/1/2 313/1/2
f 311/1/2 312/1/2 315/1/2
f 315/1/2 312/1/2 316/1/2
f 313/1/2 314/1/2 317/1/2
f 317/1/2 314/1/2 318/1/2
f 319/1/2 320/1/2 323/1/2
f 323/1/2 320/1/2 324/1/2
f 321/1/2 322/1/2 325/1/2
f 325/1/2 322/1/2 326/1/2
f 324/1/2 325/1/2 328/1/2
f 328/1/2 325/1/2 329/1/2
f 329/1/2 325/1/2 330/1/2
f 330/1/2 325/1/2 331/1/2
f 327/1/2 328/1/2 333/1/2
f 333/1/2 328/1/2 334/1/2
f 331/1/2 332/1/2 335/1/2
f 335/1/2 332/1/2 336/1/2
f 337/1/2 338/1/2 341/1/2
f 341/1/2 338/1/2 342/1/2
f 339/1/2 340/1/2 343/1/2
f 343/1/2 340/1/2 344/1/2
f 345/1/2 346/1/2 349/1/2
f 349/1/2 346/1/2 350/1/2
f 347/1/2 348/1/2 351/1/2
f 351/1/2 348/1/2 352/1/2
f 353/3/2 354/3/2 357/3/2
f 357/3/2 354/3/2 358/3/2
f 355/1/2 356/1/2 361/1/2
f 361/1/2 356/1/2 362/1/2
f 359/1/2 360/1/2 363/1/2
f 363/1/2 360/1/2 364/1/2
f 365/3/2 366/3/2 367/3/2
f 367/3/2 366/3/2 368/3/2
f 369/1/2 370/1/2 373/1/2
f 371/1/2 372/1/2 374/1/2
f 369/1/2 373/1/2 375/1/2
f 373/1/2 374/1/2 375/1/2
f 374/1/2 372/1/2 376/1/2
f 375/1/2 374/1/2 376/1/2
f 369/1/2 375/1/2 377/1/2
f 377/1/2 375/1/2 378/1/2
f 376/1/2 372/1/2 381/1/2
f 381/1/2 372/1/2 382/1/2
f 378/3/2 379/3/2 383/3/2
f 383/3/2 379/3/2 384/3/2
f 380/3/2 381/3/2 385/3/2
f 385/3/2 381/3/2 386/3/2
f 387/3/2 388/3/2 391/3/2
f 391/3/2 388/3/2 392/3/2
f 389/3/2 390/3/2 393/3/2
f 393/3/2 390/3/2 394/3/2
f 395/1/2 396/1/2 399/1/2
f 397/1/2 398/1/2 399/1/2
f 396/1/2 397/1/2 399/1/2
f 399/1/2 398/1/2 400/1/2
f 395/1/2 399/1/2 401/1/2
f 401/1/2 399/1/2 402/1/2
f 400/1/2 398/1/2 403/1/2
f 403/1/2 398/1/2 404/1/2
f 405/3/2 406/3/2 409/3/2
f 409/3/2 406/3/2 410/3/2
f 407/3/2 408/3/2 411/3/2
f 411/3/2 408/3/2 412/3/2
f 413/1/2 414/1/2 415/1/2
f 415/1/2 414/1/2 416/1/2
f 413/1/2 415/1/2 417/1/2
f 416/1/2 414/1/2 418/1/2
f 413/1/2 417/1/2 419/1/2
f 417/1/2 418/1/2 419/1/2
f 418/1/2 414/1/2 420/1/2
f 419/1/2 418/1/2 420/1/2
f 413/1/2 419/1/2 421/1/2
f 421/1/2 419/1/2 422/1/2
f 420/1/2 414/1/2 423/1/2
f 423/1/2 414/1/2 424/1/2
f 425/3/2 426/3/2 427/3/2
f 427/3/2 426/3/2 428/3/2
f 429/3/2 430/3/2 431/3/2
f 431/3/2 430/3/2 432/3/2
f 433/3/2 434/3/2 435/3/2
f 435/3/2 434/3/2 436/3/2
f 437/2/2 438/2/2 441/2/2
f 439/2/2 440/2/2 442/2/2
f 437/2/2 441/2/2 443/2/2
f 442/2/2 440/2/2 444/2/2
f 437/2/2 443/2/2 445/2/2
f 444/2/2 440/2/2 446/2/2
f 437/2/2 445/2/2 447/2/2
f 446/2/2 440/2/2 448/2/2
f 437/2/2 447/2/2 449/2/2
f 448/2/2 440/2/2 450/2/2
f 437/2/2 449/2/2 451/2/2
f 450/2/2 440/2/2 452/2/2
f 437/2/2 451/2/2 453/2/2
f 452/2/2 440/2/2 454/2/2
f 437/2/2 453/2/2 455/2/2
f 454/2/2 440/2/2 456/2/2
f 437/2/2 455/2/2 457/2/2
f 457/2/2 455/2/2 458/2/2
f 456/2/2 440/2/2 459/2/2
f 459/2/2 440/2/2 460/2/2
f 461/2/2 462/2/2 464/2/2
f 464/2/2 462/2/2 465/2/2
f 463/2/2 464/2/2 467/2/2
f 467/2/2 464/2/2 468/2/2
f 465/2/2 466/2/2 469/2/2
f 469/2/2 466/2/2 470/2/2
f 471/2/2 472/2/2 475/2/2
f 475/2/2 472/2/2 476/2/2
f 473/2/2 474/2/2 477/2/2
f 477/2/2 474/2/2 478/2/2
f 476/2/2 477/2/2 479/2/2
f 479/2/2 477/2/2 480/2/2
f 481/2/2 482/2/2 484/2/2
f 484/2/2 482/2/2 485/2/2
f 483/2/2 484/2/2 487/2/2
f 487/2/2 484/2/2 488/2/2
f 485/2/2 486/2/2 489/2/2
f 489/2/2 486/2/2 490/2/2
f 491/2/2 492/2/2 495/2/2
f 495/2/2 492/2/2 496/2/2
f 493/2/2 494/2/2 497/2/2
f 497/2/2 494/2/2 498/2/2
f 496/2/2 497/2/2 499/2/2
f 499/2/2 497/2/2 500/2/2
f 501/2/2 502/2/2 504/2/2
f 504/2/2 502/2/2 505/2/2
f 503/2/2 504/2/2 507/2/2
f 507/2/2 504/2/2 508/2/2
f 505/2/2 506/2/2 509/2/2
f 509/2/2 506/2/2 510/2/2
f 508/2/2 509/2/2 511/2/2
f 511/2/2 509/2/2 512/2/2
f 513/2/2 514/2/2 515/2/2
f 515/2/2 514/2/2 516/2/2
f 519/1/3 518/1/3 517/1/3
f 520/1/3 518/1/3 519/1/3
f 521/1/3 518/1/3 520/1/3
f 522/1/3 518/1/3 521/1/3
f 524/1/3 523/1/3 522/1/3
f 525/1/3 523/1/3 524/1/3
f 527/1/3 526/1/3 525/1/3
f 528/1/3 526/1/3 527/1/3
f 529/1/3 526/1/3 528/1/3
f 530/1/3 526/1/3 529/1/3
f 532/1/3 531/1/3 530/1/3
f 533/1/3 531/1/3 532/1/3
f 536/1/3 534/1/3 533/1/3
f 537/1/3 534/1/3 536/1/3
f 539/1/3 529/1/3 528/1/3
f 540/1/3 529/1/3 539/1/3
f 541/1/3 536/1/3 535/1/3
f 542/1/3 536/1/3 541/1/3
f 543/1/3 524/1/3 522/1/3
f 544/1/3 540/1/3 539/1/3
f 544/1/3 539/1/3 538/1/3
f 544/1/3 541/1/3 540/1/3
f 545/1/3 541/1/3 544/1/3
f 546/1/3 519/1/3 517/1/3
f 547/1/3 521/1/3 520/1/3
f 548/1/3 521/1/3 547/1/3
f 549/1/3 543/1/3 522/1/3
f 549/1/3 544/1/3 543/1/3
f 550/1/3 544/1/3 549/1/3
f 551/1/3 546/1/3 517/1/3
f 551/1/3 548/1/3 547/1/3
f 551/1/3 549/1/3 548/1/3
f 551/1/3 547/1/3 546/1/3
f 552/1/3 549/1/3 551/1/3
f 555/2/3 554/2/3 553/2/3
f 556/2/3 554/2/3 555/2/3
f 560/3/3 558/3/3 557/3/3
f 561/3/3 558/3/3 560/3/3
f 563/3/3 560/3/3 559/3/3
f 563/3/3 562/3/3 561/3/3
f 563/3/3 561/3/3 560/3/3
f 564/3/3 562/3/3 563/3/3
f 566/3/3 562/3/3 564/3/3
f 567/3/3 562/3/3 566/3/3
f 568/3/3 566/3/3 565/3/3
f 569/3/3 566/3/3 568/3/3
f 570/3/3 562/3/3 567/3/3
f 572/3/3 570/3/3 569/3/3
f 573/3/3 572/3/3 571/3/3
f 574/3/3 570/3/3 572/3/3
f 574/3/3 572/3/3 573/3/3
f 575/3/3 562/3/3 570/3/3
f 575/3/3 570/3/3 574/3/3
f 576/3/3 562/3/3 575/3/3
f 577/3/3 575/3/3 574/3/3
f 578/3/3 575/3/3 577/3/3
f 583/2/3 580/2/3 579/2/3
f 592/2/3 582/2/3 581/2/3
f 593/2/3 583/2/3 579/2/3
f 594/2/3 583/2/3 593/2/3
f 595/2/3 585/2/3 584/2/3
f 596/2/3 585/2/3 595/2/3
f 597/2/3 587/2/3 586/2/3
f 598/2/3 587/2/3 597/2/3
f 599/2/3 589/2/3 588/2/3
f 600/2/3 589/2/3 599/2/3
f 601/2/3 591/2/3 590/2/3
f 602/2/3 591/2/3 601/2/3
f 603/2/3 582/2/3 592/2/3
f 604/2/3 582/2/3 603/2/3
f 605/2/3 600/2/3 599/2/3
f 605/2/3 602/2/3 601/2/3
f 605/2/3 603/2/3 602/2/3
f 605/2/3 601/2/3 600/2/3
f 605/2/3 596/2/3 595/2/3
f 605/2/3 599/2/3 598/2/3
f 605/2/3 598/2/3 597/2/3
f 605/2/3 597/2/3 596/2/3
f 605/2/3 595/2/3 594/2/3
f 606/2/3 603/2/3 605/2/3
f 607/2/3 603/2/3 606/2/3
f 608/2/3 603/2/3 607/2/3
f 609/2/3 607/2/3 606/2/3
f 610/2/3 607/2/3 609/2/3
f 614/3/3 612/3/3 611/3/3
f 616/3/3 614/3/3 613/3/3
f 617/3/3 614/3/3 616/3/3
f 617/3/3 616/3/3 615/3/3
f 618/3/3 612/3/3 614/3/3
f 618/3/3 614/3/3 617/3/3
f 619/3/3 617/3/3 615/3/3
f 620/3/3 612/3/3 618/3/3
f 621/3/3 619/3/3 615/3/3
f 621/3/3 620/3/3 619/3/3
f 622/3/3 612/3/3 620/3/3
f 622/3/3 620/3/3 621/3/3
f 623/3/3 621/3/3 615/3/3
f 624/3/3 612/3/3 622/3/3
f 625/3/3 623/3/3 615/3/3
f 625/3/3 624/3/3 623/3/3
f 626/3/3 612/3/3 624/3/3
f 626/3/3 624/3/3 625/3/3
f 627/3/3 625/3/3 615/3/3
f 628/3/3 612/3/3 626/3/3
f 629/3/3 627/3/3 615/3/3
f 629/3/3 628/3/3 627/3/3
f 630/3/3 612/3/3 628/3/3
f 630/3/3 628/3/3 629/3/3
f 631/3/3 629/3/3 615/3/3
f 632/3/3 612/3/3 630/3/3
f 633/3/3 631/3/3 615/3/3
f 633/3/3 632/3/3 631/3/3
f 634/3/3 612/3/3 632/3/3
f 634/3/3 632/3/3 633/3/3
f 635/3/3 633/3/3 615/3/3
f 636/3/3 633/3/3 635/3/3
f 637/3/3 612/3/3 634/3/3
f 638/3/3 612/3/3 637/3/3
f 643/3/3 640/3/3 639/3/3
f 644/3/3 640/3/3 643/3/3
f 645/3/3 642/3/3 641/3/3
f 646/3/3 642/3/3 645/3/3
f 651/3/3 648/3/3 647/3/3
f 652/3/3 650/3/3 649/3/3
f 653/3/3 651/3/3 647/3/3
f 653/3/3 652/3/3 651/3/3
f 654/3/3 650/3/3 652/3/3
f 654/3/3 652/3/3 653/3/3
f 655/3/3 653/3/3 647/3/3
f 656/3/3 650/3/3 654/3/3
f 657/3/3 655/3/3 647/3/3
f 657/3/3 656/3/3 655/3/3
f 658/3/3 650/3/3 656/3/3
f 658/3/3 656/3/3 657/3/3
f 661/3/3 657/3/3 647/3/3
f 662/3/3 650/3/3 658/3/3
f 665/2/3 660/2/3 659/2/3
f 666/3/3 662/3/3 661/3/3
f 666/3/3 661/3/3 647/3/3
f 667/3/3 650/3/3 662/3/3
f 667/3/3 662/3/3 666/3/3
f 668/2/3 664/2/3 663/2/3
f 669/3/3 666/3/3 647/3/3
f 670/3/3 666/3/3 669/3/3
f 671/3/3 650/3/3 667/3/3
f 672/3/3 650/3/3 671/3/3
f 673/2/3 665/2/3 659/2/3
f 674/2/3 665/2/3 673/2/3
f 676/3/3 670/3/3 669/3/3
f 677/3/3 670/3/3 676/3/3
f 678/3/3 672/3/3 671/3/3
f 679/3/3 672/3/3 678/3/3
f 681/2/3 664/2/3 668/2/3
f 682/2/3 664/2/3 681/2/3
f 683/2/3 675/2/3 674/2/3
f 684/2/3 675/2/3 683/2/3
f 687/2/3 681/2/3 680/2/3
f 688/2/3 681/2/3 687/2/3
f 689/2/3 685/2/3 684/2/3
f 690/2/3 685/2/3 689/2/3
f 691/2/3 687/2/3 686/2/3
f 692/2/3 687/2/3 691/2/3
f 693/2/3 691/2/3 690/2/3
f 694/2/3 691/2/3 693/2/3
f 699/2/3 696/2/3 695/2/3
f 700/2/3 696/2/3 699/2/3
f 707/2/3 698/2/3 697/2/3
f 708/2/3 698/2/3 707/2/3
f 709/2/3 702/2/3 701/2/3
f 710/2/3 702/2/3 709/2/3
f 711/2/3 704/2/3 703/2/3
f 712/2/3 704/2/3 711/2/3
f 713/2/3 706/2/3 705/2/3
f 714/2/3 706/2/3 713/2/3
f 720/1/3 716/1/3 715/1/3
f 721/1/3 716/1/3 720/1/3
f 722/1/3 718/1/3 717/1/3
f 723/1/3 718/1/3 722/1/3
f 727/1/3 725/1/3 724/1/3
f 728/1/3 725/1/3 727/1/3
f 732/1/3 729/1/3 728/1/3
f 733/1/3 729/1/3 732/1/3
f 734/1/3 731/1/3 730/1/3
f 735/1/3 731/1/3 734/1/3
f 737/1/3 734/1/3 733/1/3
f 738/1/3 734/1/3 737/1/3
f 740/1/3 727/1/3 726/1/3
f 741/1/3 727/1/3 740/1/3
f 742/1/3 737/1/3 736/1/3
f 743/1/3 737/1/3 742/1/3
f 744/1/3 739/1/3 738/1/3
f 745/1/3 739/1/3 744/1/3
f 746/1/3 720/1/3 719/1/3
f 747/1/3 720/1/3 746/1/3
f 748/1/3 722/1/3 721/1/3
f 749/1/3 722/1/3 748/1/3
f 751/1/3 742/1/3 741/1/3
f 752/1/3 742/1/3 751/1/3
f 753/1/3 748/1/3 747/1/3
f 754/1/3 748/1/3 753/1/3
f 755/1/3 750/1/3 749/1/3
f 756/1/3 750/1/3 755/1/3
f 759/2/3 758/2/3 757/2/3
f 760/2/3 758/2/3 759/2/3
f 761/2/3 758/2/3 760/2/3
f 762/2/3 758/2/3 761/2/3
f 763/2/3 758/2/3 762/2/3
f 764/2/3 758/2/3 763/2/3
f 765/2/3 758/2/3 764/2/3
f 766/2/3 758/2/3 765/2/3
f 767/2/3 758/2/3 766/2/3
f 768/2/3 758/2/3 767/2/3
f 769/1/4 770/1/4 774/1/4
f 774/1/4 770/1/4 775/1/4
f 771/1/4 772/1/4 776/1/4
f 776/1/4 772/1/4 777/1/4
f 778/1/4 779/1/4 781/1/4
f 781/1/4 779/1/4 782/1/4
f 782/1/4 783/1/4 786/1/4
f 786/1/4 783/1/4 787/1/4
f 784/1/4 785/1/4 788/1/4
f 788/1/4 785/1/4 789/1/4
f 787/1/4 788/1/4 791/1/4
f 791/1/4 788/1/4 792/1/4
f 780/1/4 781/1/4 794/1/4
f 794/1/4 781/1/4 795/1/4
f 790/1/4 791/1/4 796/1/4
f 796/1/4 791/1/4 797/1/4
f 792/1/4 793/1/4 798/1/4
f 798/1/4 793/1/4 799/1/4
f 773/1/4 774/1/4 800/1/4
f 800/1/4 774/1/4 801/1/4
f 775/1/4 776/1/4 802/1/4
f 802/1/4 776/1/4 803/1/4
f 795/1/4 796/1/4 805/1/4
f 805/1/4 796/1/4 806/1/4
f 801/1/4 802/1/4 807/1/4
f 807/1/4 802/1/4 808/1/4
f 803/1/4 804/1/4 809/1/4
f 809/1/4 804/1/4 810/1/4
f 811/2/4 812/2/4 813/2/4
f 813/2/4 812/2/4 814/2/4
f 814/2/4 812/2/4 815/2/4
f 815/2/4 812/2/4 816/2/4
f 816/2/4 812/2/4 817/2/4
f 817/2/4 812/2/4 818/2/4
f 818/2/4 812/2/4 819/2/4
f 819/2/4 812/2/4 820/2/4
f 820/2/4 812/2/4 821/2/4
f 821/2/4 812/2/4 822/2/4
f 823/2/4 824/2/4 827/2/4
f 827/2/4 824/2/4 828/2/4
f 825/2/4 826/2/4 835/2/4
f 835/2/4 826/2/4 836/2/4
f 829/2/4 830/2/4 837/2/4
f 837/2/4 830/2/4 838/2/4
f 831/2/4 832/2/4 839/2/4
f 839/2/4 832/2/4 840/2/4
f 833/2/4 834/2/4 841/2/4
f 841/2/4 834/2/4 842/2/4
f 843/3/4 844/3/4 846/3/4
f 845/3/4 846/3/4 848/3/4
f 848/3/4 846/3/4 849/3/4
f 847/3/4 848/3/4 849/3/4
f 846/3/4 844/3/4 850/3/4
f 849/3/4 846/3/4 850/3/4
f 847/3/4 849/3/4 851/3/4
f 850/3/4 844/3/4 852/3/4
f 847/3/4 851/3/4 853/3/4
f 851/3/4 852/3/4 853/3/4
f 852/3/4 844/3/4 854/3/4
f 853/3/4 852/3/4 854/3/4
f 847/3/4 853/3/4 855/3/4
f 854/3/4 844/3/4 856/3/4
f 847/3/4 855/3/4 857/3/4
f 855/3/4 856/3/4 857/3/4
f 856/3/4 844/3/4 858/3/4
f 857/3/4 856/3/4 858/3/4
f 847/3/4 857/3/4 859/3/4
f 858/3/4 844/3/4 860/3/4
f 847/3/4 859/3/4 861/3/4
f 859/3/4 860/3/4 861/3/4
f 860/3/4 844/3/4 862/3/4
f 861/3/4 860/3/4 862/3/4
f 847/3/4 861/3/4 863/3/4
f 862/3/4 844/3/4 864/3/4
f 847/3/4 863/3/4 865/3/4
f 863/3/4 864/3/4 865/3/4
f 864/3/4 844/3/4 866/3/4
f 865/3/4 864/3/4 866/3/4
f 847/3/4 865/3/4 867/3/4
f 867/3/4 865/3/4 868/3/4
f 866/3/4 844/3/4 869/3/4
f 869/3/4 844/3/4 870/3/4
f 871/3/4 872/3/4 875/3/4
f 875/3/4 872/3/4 876/3/4
f 873/3/4 874/3/4 877/3/4
f 877/3/4 874/3/4 878/3/4
f 879/3/4 880/3/4 883/3/4
f 881/3/4 882/3/4 884/3/4
f 879/3/4 883/3/4 885/3/4
f 883/3/4 884/3/4 885/3/4
f 884/3/4 882/3/4 886/3/4
f 885/3/4 884/3/4 886/3/4
f 879/3/4 885/3/4 887/3/4
f 886/3/4 882/3/4 888/3/4
f 879/3/4 887/3/4 889/3/4
f 887/3/4 888/3/4 889/3/4
f 888/3/4 882/3/4 890/3/4
f 889/3/4 888/3/4 890/3/4
f 879/3/4 889/3/4 893/3/4
f 890/3/4 882/3/4 894/3/4
f 891/2/4 892/2/4 897/2/4
f 893/3/4 894/3/4 898/3/4
f 879/3/4 893/3/4 898/3/4
f 894/3/4 882/3/4 899/3/4
f 898/3/4 894/3/4 899/3/4
f 895/2/4 896/2/4 900/2/4
f 879/3/4 898/3/4 901/3/4
f 901/3/4 898/3/4 902/3/4
f 899/3/4 882/3/4 903/3/4
f 903/3/4 882/3/4 904/3/4
f 891/2/4 897/2/4 905/2/4
f 905/2/4 897/2/4 906/2/4
f 901/3/4 902/3/4 908/3/4
f 908/3/4 902/3/4 909/3/4
f 903/3/4 904/3/4 910/3/4
f 910/3/4 904/3/4 911/3/4
f 900/2/4 896/2/4 913/2/4
f 913/2/4 896/2/4 914/2/4
f 906/2/4 907/2/4 915/2/4
f 915/2/4 907/2/4 916/2/4
f 912/2/4 913/2/4 919/2/4
f 919/2/4 913/2/4 920/2/4
f 916/2/4 917/2/4 921/2/4
f 921/2/4 917/2/4 922/2/4
f 918/2/4 919/2/4 923/2/4
f 923/2/4 919/2/4 924/2/4
f 922/2/4 923/2/4 925/2/4
f 925/2/4 923/2/4 926/2/4
f 927/3/4 928/3/4 930/3/4
f 930/3/4 928/3/4 931/3/4
f 929/3/4 930/3/4 933/3/4
f 931/3/4 932/3/4 933/3/4
f 930/3/4 931/3/4 933/3/4
f 933/3/4 932/3/4 934/3/4
f 934/3/4 932/3/4 936/3/4
f 936/3/4 932/3/4 937/3/4
f 935/3/4 936/3/4 938/3/4
f 938/3/4 936/3/4 939/3/4
f 937/3/4 932/3/4 940/3/4
f 939/3/4 940/3/4 942/3/4
f 941/3/4 942/3/4 943/3/4
f 942/3/4 940/3/4 944/3/4
f 943/3/4 942/3/4 944/3/4
f 940/3/4 932/3/4 945/3/4
f 944/3/4 940/3/4 945/3/4
f 945/3/4 932/3/4 946/3/4
f 944/3/4 945/3/4 947/3/4
f 947/3/4 945/3/4 948/3/4
f 949/2/4 950/2/4 953/2/4
f 951/2/4 952/2/4 962/2/4
f 949/2/4 953/2/4 963/2/4
f 963/2/4 953/2/4 964/2/4
f 954/2/4 955/2/4 965/2/4
f 965/2/4 955/2/4 966/2/4
f 956/2/4 957/2/4 967/2/4
f 967/2/4 957/2/4 968/2/4
f 958/2/4 959/2/4 969/2/4
f 969/2/4 959/2/4 970/2/4
f 960/2/4 961/2/4 971/2/4
f 971/2/4 961/2/4 972/2/4
f 962/2/4 952/2/4 973/2/4
f 973/2/4 952/2/4 974/2/4
f 969/2/4 970/2/4 975/2/4
f 971/2/4 972/2/4 975/2/4
f 972/2/4 973/2/4 975/2/4
f 970/2/4 971/2/4 975/2/4
f 965/2/4 966/2/4 975/2/4
f 968/2/4 969/2/4 975/2/4
f 967/2/4 968/2/4 975/2/4
f 966/2/4 967/2/4 975/2/4
f 964/2/4 965/2/4 975/2/4
f 975/2/4 973/2/4 976/2/4
f 976/2/4 973/2/4 977/2/4
f 977/2/4 973/2/4 978/2/4
f 976/2/4 977/2/4 979/2/4
f 979/2/4 977/2/4 980/2/4
f 981/1/4 982/1/4 983/1/4
f 983/1/4 982/1/4 984/1/4
f 984/1/4 982/1/4 985/1/4
f 985/1/4 982/1/4 986/1/4
f 986/1/4 987/1/4 988/1/4
f 988/1/4 987/1/4 989/1/4
f 989/1/4 990/1/4 991/1/4
f 991/1/4 990/1/4 992/1/4
f 992/1/4 990/1/4 993/1/4
f 993/1/4 990/1/4 994/1/4
f 994/1/4 995/1/4 996/1/4
f 996/1/4 995/1/4 997/1/4
f 997/1/4 998/1/4 1000/1/4
f 1000/1/4 998/1/4 1001/1/4
f 992/1/4 993/1/4 1003/1/4
f 1003/1/4 993/1/4 1004/1/4
f 999/1/4 1000/1/4 1005/1/4
f 1005/1/4 1000/1/4 1006/1/4
f 986/1/4 988/1/4 1007/1/4
f 1003/1/4 1004/1/4 1008/1/4
f 1002/1/4 1003/1/4 1008/1/4
f 1004/1/4 1005/1/4 1008/1/4
f 1008/1/4 1005/1/4 1009/1/4
f 981/1/4 983/1/4 1010/1/4
f 984/1/4 985/1/4 1011/1/4
f 1011/1/4 985/1/4 1012/1/4
f 986/1/4 1007/1/4 1013/1/4
f 1007/1/4 1008/1/4 1013/1/4
f 1013/1/4 1008/1/4 1014/1/4
f 981/1/4 1010/1/4 1015/1/4
f 1011/1/4 1012/1/4 1015/1/4
f 1012/1/4 1013/1/4 1015/1/4
f 1010/1/4 1011/1/4 1015/1/4
f 1015/1/4 1013/1/4 1016/1/4
f 1017/2/4 1018/2/4 1019/2/4
f 1019/2/4 1018/2/4 1020/2/4
f 1023/1/5 1022/1/5 1021/1/5
f 1024/1/5 1022/1/5 1023/1/5
f 1025/1/5 1023/1/5 1021/1/5
f 1026/1/5 1022/1/5 1024/1/5
f 1027/1/5 1025/1/5 1021/1/5
f 1027/1/5 1026/1/5 1025/1/5
f 1028/1/5 1022/1/5 1026/1/5
f 1028/1/5 1026/1/5 1027/1/5
f 1032/1/5 1030/1/5 1029/1/5
f 1033/1/5 1030/1/5 1032/1/5
f 1035/1/5 1032/1/5 1031/1/5
f 1036/1/5 1032/1/5 1035/1/5
f 1037/1/5 1034/1/5 1033/1/5
f 1038/1/5 1034/1/5 1037/1/5
f 1039/1/5 1037/1/5 1036/1/5
f 1040/1/5 1037/1/5 1039/1/5
f 1043/2/5 1042/2/5 1041/2/5
f 1044/2/5 1042/2/5 1043/2/5
f 1047/1/5 1046/1/5 1045/1/5
f 1048/1/5 1046/1/5 1047/1/5
f 1049/1/5 1046/1/5 1048/1/5
f 1050/1/5 1046/1/5 1049/1/5
f 1053/2/5 1052/2/5 1051/2/5
f 1054/2/5 1052/2/5 1053/2/5
f 1057/2/5 1055/2/5 1054/2/5
f 1058/2/5 1055/2/5 1057/2/5
f 1059/1/5 1048/1/5 1047/1/5
f 1060/1/5 1048/1/5 1059/1/5
f 1061/1/5 1050/1/5 1049/1/5
f 1062/1/5 1050/1/5 1061/1/5
f 1063/2/5 1057/2/5 1056/2/5
f 1064/2/5 1057/2/5 1063/2/5
f 1065/1/5 1060/1/5 1059/1/5
f 1065/1/5 1062/1/5 1061/1/5
f 1065/1/5 1061/1/5 1060/1/5
f 1066/1/5 1062/1/5 1065/1/5
f 1069/2/5 1068/2/5 1067/2/5
f 1070/2/5 1068/2/5 1069/2/5
f 1073/2/5 1072/2/5 1071/2/5
f 1074/2/5 1072/2/5 1073/2/5
f 1077/2/5 1075/2/5 1074/2/5
f 1078/2/5 1075/2/5 1077/2/5
f 1081/2/5 1077/2/5 1076/2/5
f 1082/2/5 1077/2/5 1081/2/5
f 1083/2/5 1080/2/5 1079/2/5
f 1084/2/5 1080/2/5 1083/2/5
f 1089/1/5 1086/1/5 1085/1/5
f 1090/1/5 1086/1/5 1089/1/5
f 1091/1/5 1088/1/5 1087/1/5
f 1092/1/5 1088/1/5 1091/1/5
f 1097/2/5 1094/2/5 1093/2/5
f 1098/2/5 1094/2/5 1097/2/5
f 1099/2/5 1096/2/5 1095/2/5
f 1100/2/5 1096/2/5 1099/2/5
f 1105/2/5 1101/2/5 1100/2/5
f 1106/2/5 1101/2/5 1105/2/5
f 1111/2/5 1103/2/5 1102/2/5
f 1112/2/5 1103/2/5 1111/2/5
f 1113/2/5 1105/2/5 1104/2/5
f 1114/2/5 1105/2/5 1113/2/5
f 1115/1/5 1108/1/5 1107/1/5
f 1116/1/5 1108/1/5 1115/1/5
f 1117/1/5 1110/1/5 1109/1/5
f 1118/1/5 1110/1/5 1117/1/5
f 1122/1/5 1120/1/5 1119/1/5
f 1123/1/5 1120/1/5 1122/1/5
f 1125/1/5 1122/1/5 1121/1/5
f 1126/1/5 1122/1/5 1125/1/5
f 1127/1/5 1124/1/5 1123/1/5
f 1128/1/5 1124/1/5 1127/1/5
f 1129/1/5 1127/1/5 1126/1/5
f 1130/1/5 1127/1/5 1129/1/5
f 1135/2/5 1132/2/5 1131/2/5
f 1136/2/5 1132/2/5 1135/2/5
f 1137/3/5 1134/3/5 1133/3/5
f 1138/3/5 1134/3/5 1137/3/5
f 1141/2/5 1140/2/5 1139/2/5
f 1142/2/5 1140/2/5 1141/2/5
f 1148/1/5 1144/1/5 1143/1/5
f 1149/1/5 1144/1/5 1148/1/5
f 1150/1/5 1146/1/5 1145/1/5
f 1151/1/5 1146/1/5 1150/1/5
f 1154/3/5 1149/3/5 1148/3/5
f 1154/3/5 1152/3/5 1151/3/5
f 1154/3/5 1151/3/5 1150/3/5
f 1154/3/5 1150/3/5 1149/3/5
f 1154/3/5 1148/3/5 1147/3/5
f 1155/3/5 1152/3/5 1154/3/5
f 1156/3/5 1152/3/5 1155/3/5
f 1157/3/5 1152/3/5 1156/3/5
f 1160/3/5 1154/3/5 1153/3/5
f 1160/3/5 1155/3/5 1154/3/5
f 1161/3/5 1155/3/5 1160/3/5
f 1162/3/5 1155/3/5 1161/3/5
f 1163/3/5 1159/3/5 1158/3/5
f 1163/3/5 1158/3/5 1157/3/5
f 1163/3/5 1157/3/5 1156/3/5
f 1164/3/5 1159/3/5 1163/3/5
f 1165/3/5 1159/3/5 1164/3/5
f 1166/3/5 1159/3/5 1165/3/5
f 1167/3/5 1162/3/5 1161/3/5
f 1167/3/5 1164/3/5 1163/3/5
f 1167/3/5 1163/3/5 1162/3/5
f 1168/3/5 1164/3/5 1167/3/5
f 1169/3/5 1164/3/5 1168/3/5
f 1170/3/5 1164/3/5 1169/3/5
f 1171/3/5 1164/3/5 1170/3/5
f 1172/3/5 1164/3/5 1171/3/5
f 1173/1/5 1169/1/5 1168/1/5
f 1174/1/5 1169/1/5 1173/1/5
f 1175/1/5 1171/1/5 1170/1/5
f 1176/1/5 1171/1/5 1175/1/5
f 1181/1/5 1178/1/5 1177/1/5
f 1182/1/5 1178/1/5 1181/1/5
f 1189/3/5 1180/3/5 1179/3/5
f 1190/3/5 1180/3/5 1189/3/5
f 1191/3/5 1184/3/5 1183/3/5
f 1192/3/5 1184/3/5 1191/3/5
f 1193/2/5 1186/2/5 1185/2/5
f 1194/2/5 1186/2/5 1193/2/5
f 1195/3/5 1188/3/5 1187/3/5
f 1196/3/5 1188/3/5 1195/3/5
f 1203/3/5 1198/3/5 1197/3/5
f 1204/3/5 1198/3/5 1203/3/5
f 1207/3/5 1200/3/5 1199/3/5
f 1208/3/5 1200/3/5 1207/3/5
f 1209/2/5 1202/2/5 1201/2/5
f 1210/2/5 1202/2/5 1209/2/5
f 1211/1/5 1206/1/5 1205/1/5
f 1212/1/5 1206/1/5 1211/1/5
f 1229/3/5 1214/3/5 1213/3/5
f 1230/3/5 1214/3/5 1229/3/5
f 1231/3/5 1216/3/5 1215/3/5
f 1232/3/5 1216/3/5 1231/3/5
f 1233/3/5 1218/3/5 1217/3/5
f 1234/3/5 1218/3/5 1233/3/5
f 1235/3/5 1220/3/5 1219/3/5
f 1236/3/5 1220/3/5 1235/3/5
f 1237/3/5 1222/3/5 1221/3/5
f 1238/3/5 1222/3/5 1237/3/5
f 1239/3/5 1224/3/5 1223/3/5
f 1240/3/5 1224/3/5 1239/3/5
f 1241/3/5 1226/3/5 1225/3/5
f 1242/3/5 1226/3/5 1241/3/5
f 1243/3/5 1228/3/5 1227/3/5
f 1244/3/5 1228/3/5 1243/3/5
f 1247/2/5 1246/2/5 1245/2/5
f 1248/2/5 1246/2/5 1247/2/5
f 1251/2/5 1250/2/5 1249/2/5
f 1252/2/5 1250/2/5 1251/2/5
f 1256/2/5 1254/2/5 1253/2/5
f 1256/2/5 1255/2/5 1254/2/5
f 1257/2/5 1255/2/5 1256/2/5
f 1259/2/5 1255/2/5 1257/2/5
f 1260/2/5 1259/2/5 1258/2/5
f 1261/2/5 1255/2/5 1259/2/5
f 1261/2/5 1259/2/5 1260/2/5
f 1262/2/5 1255/2/5 1261/2/5
f 1266/2/5 1264/2/5 1263/2/5
f 1266/2/5 1265/2/5 1264/2/5
f 1267/2/5 1265/2/5 1266/2/5
f 1268/2/5 1265/2/5 1267/2/5
f 1269/1/6 1270/1/6 1272/1/6
f 1272/1/6 1270/1/6 1273/1/6
f 1271/1/6 1272/1/6 1275/1/6
f 1275/1/6 1272/1/6 1276/1/6
f 1273/1/6 1274/1/6 1277/1/6
f 1277/1/6 1274/1/6 1278/1/6
f 1276/1/6 1277/1/6 1279/1/6
f 1279/1/6 1277/1/6 1280/1/6
f 1281/1/6 1282/1/6 1284/1/6
f 1284/1/6 1282/1/6 1285/1/6
f 1283/1/6 1284/1/6 1287/1/6
f 1287/1/6 1284/1/6 1288/1/6
f 1285/1/6 1286/1/6 1289/1/6
f 1289/1/6 1286/1/6 1290/1/6
f 1288/1/6 1289/1/6 1291/1/6
f 1291/1/6 1289/1/6 1292/1/6
f 1293/1/6 1294/1/6 1297/1/6
f 1297/1/6 1294/1/6 1298/1/6
f 1295/1/6 1296/1/6 1299/1/6
f 1299/1/6 1296/1/6 1300/1/6
f 1301/2/6 1302/2/6 1304/2/6
f 1302/2/6 1303/2/6 1304/2/6
f 1304/2/6 1303/2/6 1305/2/6
f 1305/2/6 1303/2/6 1306/2/6
f 1307/1/6 1308/1/6 1311/1/6
f 1311/1/6 1308/1/6 1312/1/6
f 1309/1/6 1310/1/6 1313/1/6
f 1313/1/6 1310/1/6 1314/1/6
f 1315/1/6 1316/1/6 1318/1/6
f 1318/1/6 1316/1/6 1319/1/6
f 1322/2/6 1323/2/6 1324/2/6
f 1321/2/6 1322/2/6 1324/2/6
f 1324/2/6 1323/2/6 1325/2/6
f 1325/2/6 1323/2/6 1327/2/6
f 1317/1/6 1318/1/6 1328/1/6
f 1328/1/6 1318/1/6 1329/1/6
f 1319/1/6 1320/1/6 1330/1/6
f 1330/1/6 1320/1/6 1331/1/6
f 1326/2/6 1327/2/6 1332/2/6
f 1327/2/6 1323/2/6 1333/2/6
f 1332/2/6 1327/2/6 1333/2/6
f 1333/2/6 1323/2/6 1334/2/6
f 1329/1/6 1330/1/6 1335/1/6
f 1335/1/6 1330/1/6 1336/1/6
f 1337/1/6 1338/1/6 1341/1/6
f 1341/1/6 1338/1/6 1342/1/6
f 1339/1/6 1340/1/6 1343/1/6
f 1343/1/6 1340/1/6 1344/1/6
f 1345/1/6 1346/1/6 1349/1/6
f 1349/1/6 1346/1/6 1350/1/6
f 1347/1/6 1348/1/6 1351/1/6
f 1351/1/6 1348/1/6 1352/1/6
f 1353/2/6 1354/2/6 1355/2/6
f 1355/2/6 1354/2/6 1356/2/6
f 1357/2/6 1358/2/6 1359/2/6
f 1359/2/6 1358/2/6 1360/2/6
f 1361/1/6 1362/1/6 1364/1/6
f 1364/1/6 1362/1/6 1365/1/6
f 1363/1/6 1364/1/6 1367/1/6
f 1365/1/6 1366/1/6 1368/1/6
f 1363/1/6 1367/1/6 1369/1/6
f 1368/1/6 1366/1/6 1370/1/6
f 1363/1/6 1369/1/6 1371/1/6
f 1371/1/6 1369/1/6 1372/1/6
f 1370/1/6 1366/1/6 1373/1/6
f 1373/1/6 1366/1/6 1374/1/6
f 1372/1/6 1373/1/6 1375/1/6
f 1375/1/6 1373/1/6 1376/1/6
f 1377/1/6 1378/1/6 1381/1/6
f 1381/1/6 1378/1/6 1382/1/6
f 1379/1/6 1380/1/6 1383/1/6
f 1383/1/6 1380/1/6 1384/1/6
f 1385/2/6 1386/2/6 1387/2/6
f 1387/2/6 1386/2/6 1388/2/6
f 1389/2/6 1390/2/6 1395/2/6
f 1395/2/6 1390/2/6 1396/2/6
f 1391/1/6 1392/1/6 1397/1/6
f 1397/1/6 1392/1/6 1398/1/6
f 1393/1/6 1394/1/6 1399/1/6
f 1399/1/6 1394/1/6 1400/1/6
f 1401/1/6 1402/1/6 1405/1/6
f 1405/1/6 1402/1/6 1406/1/6
f 1403/1/6 1404/1/6 1407/1/6
f 1407/1/6 1404/1/6 1408/1/6
f 1409/3/6 1410/3/6 1423/3/6
f 1423/3/6 1410/3/6 1424/3/6
f 1411/3/6 1412/3/6 1425/3/6
f 1425/3/6 1412/3/6 1426/3/6
f 1413/3/6 1414/3/6 1427/3/6
f 1427/3/6 1414/3/6 1428/3/6
f 1415/3/6 1416/3/6 1429/3/6
f 1429/3/6 1416/3/6 1430/3/6
f 1417/3/6 1418/3/6 1431/3/6
f 1431/3/6 1418/3/6 1432/3/6
f 1419/3/6 1420/3/6 1433/3/6
f 1433/3/6 1420/3/6 1434/3/6
f 1421/3/6 1422/3/6 1435/3/6
f 1435/3/6 1422/3/6 1436/3/6
f 1437/1/6 1438/1/6 1441/1/6
f 1441/1/6 1438/1/6 1442/1/6
f 1439/1/6 1440/1/6 1443/1/6
f 1443/1/6 1440/1/6 1444/1/6
f 1445/1/6 1446/1/6 1449/1/6
f 1449/1/6 1446/1/6 1450/1/6
f 1447/3/6 1448/3/6 1455/3/6
f 1455/3/6 1448/3/6 1456/3/6
f 1451/3/6 1452/3/6 1457/3/6
f 1457/3/6 1452/3/6 1458/3/6
f 1453/2/6 1454/2/6 1459/2/6
f 1459/2/6 1454/2/6 1460/2/6
f 1461/3/6 1462/3/6 1467/3/6
f 1467/3/6 1462/3/6 1468/3/6
f 1463/3/6 1464/3/6 1471/3/6
f 1471/3/6 1464/3/6 1472/3/6
f 1465/2/6 1466/2/6 1473/2/6
f 1473/2/6 1466/2/6 1474/2/6
f 1469/1/6 1470/1/6 1475/1/6
f 1475/1/6 1470/1/6 1476/1/6
f 1477/3/6 1478/3/6 1480/3/6
f 1480/3/6 1478/3/6 1481/3/6
f 1481/3/6 1478/3/6 1482/3/6
f 1482/3/6 1478/3/6 1483/3/6
f 1479/3/6 1480/3/6 1486/3/6
f 1480/3/6 1481/3/6 1486/3/6
f 1486/3/6 1481/3/6 1487/3/6
f 1487/3/6 1481/3/6 1488/3/6
f 1484/3/6 1485/3/6 1489/3/6
f 1483/3/6 1484/3/6 1489/3/6
f 1482/3/6 1483/3/6 1489/3/6
f 1489/3/6 1485/3/6 1490/3/6
f 1490/3/6 1485/3/6 1491/3/6
f 1491/3/6 1485/3/6 1492/3/6
f 1487/3/6 1488/3/6 1493/3/6
f 1489/3/6 1490/3/6 1493/3/6
f 1488/3/6 1489/3/6 1493/3/6
f 1493/3/6 1490/3/6 1494/3/6
f 1495/2/6 1496/2/6 1501/2/6
f 1501/2/6 1496/2/6 1502/2/6
f 1497/2/6 1498/2/6 1503/2/6
f 1503/2/6 1498/2/6 1504/2/6
f 1499/3/6 1500/3/6 1506/3/6
f 1506/3/6 1500/3/6 1507/3/6
f 1504/2/6 1505/2/6 1511/2/6
f 1511/2/6 1505/2/6 1512/2/6
f 1508/2/6 1509/2/6 1513/2/6
f 1513/2/6 1509/2/6 1514/2/6
f 1510/2/6 1511/2/6 1515/2/6
f 1515/2/6 1511/2/6 1516/2/6
f 1517/2/6 1518/2/6 1519/2/6
f 1519/2/6 1518/2/6 1520/2/6
f 1521/2/6 1522/2/6 1523/2/6
f 1523/2/6 1522/2/6 1524/2/6
f 1524/2/6 1525/2/6 1527/2/6
f 1527/2/6 1525/2/6 1528/2/6
f 1526/2/6 1527/2/6 1531/2/6
f 1531/2/6 1527/2/6 1532/2/6
f 1529/2/6 1530/2/6 1533/2/6
f 1533/2/6 1530/2/6 1534/2/6
f 1535/2/6 1536/2/6 1537/2/6
f 1537/2/6 1536/2/6 1538/2/6
f 1538/2/6 1539/2/6 1541/2/6
f 1541/2/6 1539/2/6 1542/2/6
f 1540/2/6 1541/2/6 1543/2/6
f 1543/2/6 1541/2/6 1544/2/6
f 1545/2/6 1546/2/6 1547/2/6
f 1547/2/6 1546/2/6 1548/2/6
