# MagicaVoxel @ Ephtracy

# group
o 

# material
mtllib pickaxe.mtl
usemtl palette

# normals
vn -1 0 0
vn 1 0 0
vn 0 0 1
vn 0 0 -1
vn 0 -1 0
vn 0 1 0

# texcoords
vt 0.744141 0.5
vt 0.931641 0.5

# verts
v 2.3 4.8 -4.7
v 2.3 4.8 -4.8
v 2.3 4.9 -4.7
v 2.3 4.9 -4.8
v 2.6 4.8 -4.5
v 2.6 4.8 -4.6
v 2.6 4.8 -4.9
v 2.6 4.8 -5
v 2.6 4.9 -4.5
v 2.6 4.9 -4.6
v 2.6 4.9 -4.9
v 2.6 4.9 -5
v 2.7 4.8 -4.6
v 2.7 4.8 -4.7
v 2.7 4.8 -4.8
v 2.7 4.8 -4.9
v 2.7 4.9 -4.6
v 2.7 4.9 -4.7
v 2.7 4.9 -4.8
v 2.7 4.9 -4.9
v 2.7 4.8 -4.5
v 2.7 4.8 -4.6
v 2.7 4.8 -4.9
v 2.7 4.8 -5
v 2.7 4.9 -4.5
v 2.7 4.9 -4.6
v 2.7 4.9 -4.9
v 2.7 4.9 -5
v 2.8 4.8 -4.6
v 2.8 4.8 -4.7
v 2.8 4.8 -4.8
v 2.8 4.8 -4.9
v 2.8 4.9 -4.6
v 2.8 4.9 -4.7
v 2.8 4.9 -4.8
v 2.8 4.9 -4.9
v 2.9 4.8 -4.7
v 2.9 4.8 -4.8
v 2.9 4.9 -4.7
v 2.9 4.9 -4.8
v 2.6 4.8 -4.5
v 2.6 4.9 -4.5
v 2.7 4.8 -4.5
v 2.7 4.9 -4.5
v 2.7 4.8 -4.6
v 2.7 4.9 -4.6
v 2.8 4.8 -4.6
v 2.8 4.9 -4.6
v 2.3 4.8 -4.7
v 2.3 4.9 -4.7
v 2.7 4.8 -4.7
v 2.7 4.9 -4.7
v 2.8 4.8 -4.7
v 2.8 4.9 -4.7
v 2.9 4.8 -4.7
v 2.9 4.9 -4.7
v 2.6 4.8 -4.9
v 2.6 4.9 -4.9
v 2.7 4.8 -4.9
v 2.7 4.9 -4.9
v 2.6 4.8 -4.6
v 2.6 4.9 -4.6
v 2.7 4.8 -4.6
v 2.7 4.9 -4.6
v 2.3 4.8 -4.8
v 2.3 4.9 -4.8
v 2.7 4.8 -4.8
v 2.7 4.9 -4.8
v 2.8 4.8 -4.8
v 2.8 4.9 -4.8
v 2.9 4.8 -4.8
v 2.9 4.9 -4.8
v 2.7 4.8 -4.9
v 2.7 4.9 -4.9
v 2.8 4.8 -4.9
v 2.8 4.9 -4.9
v 2.6 4.8 -5
v 2.6 4.9 -5
v 2.7 4.8 -5
v 2.7 4.9 -5
v 2.6 4.8 -4.5
v 2.7 4.8 -4.5
v 2.6 4.8 -4.6
v 2.7 4.8 -4.6
v 2.8 4.8 -4.6
v 2.3 4.8 -4.7
v 2.7 4.8 -4.7
v 2.8 4.8 -4.7
v 2.9 4.8 -4.7
v 2.3 4.8 -4.8
v 2.7 4.8 -4.8
v 2.8 4.8 -4.8
v 2.9 4.8 -4.8
v 2.6 4.8 -4.9
v 2.7 4.8 -4.9
v 2.8 4.8 -4.9
v 2.6 4.8 -5
v 2.7 4.8 -5
v 2.6 4.9 -4.5
v 2.7 4.9 -4.5
v 2.6 4.9 -4.6
v 2.7 4.9 -4.6
v 2.8 4.9 -4.6
v 2.3 4.9 -4.7
v 2.7 4.9 -4.7
v 2.8 4.9 -4.7
v 2.9 4.9 -4.7
v 2.3 4.9 -4.8
v 2.7 4.9 -4.8
v 2.8 4.9 -4.8
v 2.9 4.9 -4.8
v 2.6 4.9 -4.9
v 2.7 4.9 -4.9
v 2.8 4.9 -4.9
v 2.6 4.9 -5
v 2.7 4.9 -5

# faces
f 3/1/1 2/1/1 1/1/1
f 4/1/1 2/1/1 3/1/1
f 9/2/1 6/2/1 5/2/1
f 10/2/1 6/2/1 9/2/1
f 11/2/1 8/2/1 7/2/1
f 12/2/1 8/2/1 11/2/1
f 17/2/1 14/2/1 13/2/1
f 18/2/1 14/2/1 17/2/1
f 19/2/1 16/2/1 15/2/1
f 20/2/1 16/2/1 19/2/1
f 21/2/2 22/2/2 25/2/2
f 25/2/2 22/2/2 26/2/2
f 23/2/2 24/2/2 27/2/2
f 27/2/2 24/2/2 28/2/2
f 29/2/2 30/2/2 33/2/2
f 33/2/2 30/2/2 34/2/2
f 31/2/2 32/2/2 35/2/2
f 35/2/2 32/2/2 36/2/2
f 37/1/2 38/1/2 39/1/2
f 39/1/2 38/1/2 40/1/2
f 43/2/3 42/2/3 41/2/3
f 44/2/3 42/2/3 43/2/3
f 47/2/3 46/2/3 45/2/3
f 48/2/3 46/2/3 47/2/3
f 51/1/3 50/1/3 49/1/3
f 52/1/3 50/1/3 51/1/3
f 55/1/3 54/1/3 53/1/3
f 56/1/3 54/1/3 55/1/3
f 59/2/3 58/2/3 57/2/3
f 60/2/3 58/2/3 59/2/3
f 61/2/4 62/2/4 63/2/4
f 63/2/4 62/2/4 64/2/4
f 65/1/4 66/1/4 67/1/4
f 67/1/4 66/1/4 68/1/4
f 69/1/4 70/1/4 71/1/4
f 71/1/4 70/1/4 72/1/4
f 73/2/4 74/2/4 75/2/4
f 75/2/4 74/2/4 76/2/4
f 77/2/4 78/2/4 79/2/4
f 79/2/4 78/2/4 80/2/4
f 83/2/5 82/2/5 81/2/5
f 84/2/5 82/2/5 83/2/5
f 87/2/5 85/2/5 84/2/5
f 88/2/5 85/2/5 87/2/5
f 90/1/5 87/1/5 86/1/5
f 91/2/5 88/2/5 87/2/5
f 91/1/5 87/1/5 90/1/5
f 92/1/5 89/1/5 88/1/5
f 92/2/5 88/2/5 91/2/5
f 93/1/5 89/1/5 92/1/5
f 95/2/5 92/2/5 91/2/5
f 96/2/5 92/2/5 95/2/5
f 97/2/5 95/2/5 94/2/5
f 98/2/5 95/2/5 97/2/5
f 99/2/6 100/2/6 101/2/6
f 101/2/6 100/2/6 102/2/6
f 102/2/6 103/2/6 105/2/6
f 105/2/6 103/2/6 106/2/6
f 104/1/6 105/1/6 108/1/6
f 105/2/6 106/2/6 109/2/6
f 108/1/6 105/1/6 109/1/6
f 106/1/6 107/1/6 110/1/6
f 109/2/6 106/2/6 110/2/6
f 110/1/6 107/1/6 111/1/6
f 109/2/6 110/2/6 113/2/6
f 113/2/6 110/2/6 114/2/6
f 112/2/6 113/2/6 115/2/6
f 115/2/6 113/2/6 116/2/6
