# MagicaVoxel @ Ephtracy

# group
o 

# material
mtllib rockpile_3.mtl
usemtl palette

# normals
vn -1 0 0
vn 1 0 0
vn 0 0 1
vn 0 0 -1
vn 0 -1 0
vn 0 1 0

# texcoords
vt 0.724609 0.5
vt 0.728516 0.5
vt 0.732422 0.5
vt 0.736328 0.5
vt 0.916016 0.5
vt 0.919922 0.5

# verts
v 0.3 4.8 -2.2
v 0.3 4.8 -2.3
v 0.3 4.8 -2.4
v 0.3 4.8 -2.5
v 0.3 4.8 -2.6
v 0.3 4.8 -2.7
v 0.3 4.9 -2.2
v 0.3 4.9 -2.3
v 0.3 4.9 -2.4
v 0.3 4.9 -2.5
v 0.3 4.9 -2.6
v 0.3 4.9 -2.7
v 0.4 4.9 -2.3
v 0.4 4.9 -2.4
v 0.4 4.9 -2.5
v 0.4 4.9 -2.6
v 0.4 5 -2.3
v 0.4 5 -2.4
v 0.4 5 -2.5
v 0.4 5 -2.6
v 0.4 5.2 -2.3
v 0.4 5.2 -2.4
v 0.4 5.2 -2.5
v 0.6 5 -2.5
v 0.6 5 -2.6
v 0.6 5.1 -2.5
v 0.6 5.1 -2.6
v 0.5 5.1 -2.3
v 0.5 5.1 -2.4
v 0.5 5.1 -2.5
v 0.5 5.2 -2.3
v 0.5 5.2 -2.4
v 0.5 5.2 -2.5
v 0.7 4.9 -2.3
v 0.7 4.9 -2.4
v 0.7 4.9 -2.5
v 0.7 4.9 -2.6
v 0.7 5 -2.4
v 0.7 5 -2.5
v 0.7 5 -2.6
v 0.7 5.1 -2.3
v 0.7 5.1 -2.5
v 0.7 5.1 -2.6
v 0.8 4.8 -2.2
v 0.8 4.8 -2.3
v 0.8 4.8 -2.4
v 0.8 4.8 -2.5
v 0.8 4.8 -2.6
v 0.8 4.8 -2.7
v 0.8 4.9 -2.2
v 0.8 4.9 -2.3
v 0.8 4.9 -2.4
v 0.8 4.9 -2.5
v 0.8 4.9 -2.6
v 0.8 4.9 -2.7
v 0.3 4.8 -2.2
v 0.3 4.9 -2.2
v 0.5 4.8 -2.2
v 0.5 4.9 -2.2
v 0.8 4.8 -2.2
v 0.8 4.9 -2.2
v 0.4 4.9 -2.3
v 0.4 5 -2.3
v 0.4 5.2 -2.3
v 0.5 4.9 -2.3
v 0.5 5 -2.3
v 0.5 5.1 -2.3
v 0.5 5.2 -2.3
v 0.6 4.9 -2.3
v 0.6 5 -2.3
v 0.7 4.9 -2.3
v 0.7 5.1 -2.3
v 0.4 5 -2.5
v 0.4 5.2 -2.5
v 0.5 5 -2.5
v 0.5 5.1 -2.5
v 0.5 5.2 -2.5
v 0.6 5 -2.5
v 0.6 5.1 -2.5
v 0.4 4.9 -2.6
v 0.4 5 -2.6
v 0.5 4.9 -2.6
v 0.5 5 -2.6
v 0.6 5 -2.6
v 0.6 5.1 -2.6
v 0.7 4.9 -2.6
v 0.7 5 -2.6
v 0.7 5.1 -2.6
v 0.3 4.8 -2.7
v 0.3 4.9 -2.7
v 0.4 4.8 -2.7
v 0.4 4.9 -2.7
v 0.8 4.8 -2.7
v 0.8 4.9 -2.7
v 0.3 4.8 -2.2
v 0.5 4.8 -2.2
v 0.8 4.8 -2.2
v 0.3 4.8 -2.3
v 0.5 4.8 -2.3
v 0.7 4.8 -2.3
v 0.8 4.8 -2.3
v 0.3 4.8 -2.4
v 0.4 4.8 -2.4
v 0.7 4.8 -2.4
v 0.8 4.8 -2.4
v 0.3 4.8 -2.5
v 0.4 4.8 -2.5
v 0.6 4.8 -2.5
v 0.8 4.8 -2.5
v 0.3 4.8 -2.6
v 0.4 4.8 -2.6
v 0.6 4.8 -2.6
v 0.8 4.8 -2.6
v 0.3 4.8 -2.7
v 0.4 4.8 -2.7
v 0.8 4.8 -2.7
v 0.3 4.9 -2.2
v 0.5 4.9 -2.2
v 0.8 4.9 -2.2
v 0.3 4.9 -2.3
v 0.4 4.9 -2.3
v 0.5 4.9 -2.3
v 0.6 4.9 -2.3
v 0.7 4.9 -2.3
v 0.8 4.9 -2.3
v 0.3 4.9 -2.4
v 0.4 4.9 -2.4
v 0.7 4.9 -2.4
v 0.8 4.9 -2.4
v 0.3 4.9 -2.5
v 0.4 4.9 -2.5
v 0.7 4.9 -2.5
v 0.8 4.9 -2.5
v 0.3 4.9 -2.6
v 0.4 4.9 -2.6
v 0.5 4.9 -2.6
v 0.7 4.9 -2.6
v 0.8 4.9 -2.6
v 0.3 4.9 -2.7
v 0.4 4.9 -2.7
v 0.8 4.9 -2.7
v 0.4 5 -2.5
v 0.5 5 -2.5
v 0.6 5 -2.5
v 0.4 5 -2.6
v 0.5 5 -2.6
v 0.6 5 -2.6
v 0.5 5.1 -2.3
v 0.7 5.1 -2.3
v 0.5 5.1 -2.4
v 0.6 5.1 -2.4
v 0.5 5.1 -2.5
v 0.6 5.1 -2.5
v 0.7 5.1 -2.5
v 0.6 5.1 -2.6
v 0.7 5.1 -2.6
v 0.4 5.2 -2.3
v 0.5 5.2 -2.3
v 0.4 5.2 -2.4
v 0.5 5.2 -2.4
v 0.4 5.2 -2.5
v 0.5 5.2 -2.5

# faces
f 7/1/1 2/1/1 1/1/1
f 8/2/1 3/2/1 2/2/1
f 8/1/1 2/1/1 7/1/1
f 9/1/1 4/1/1 3/1/1
f 9/2/1 3/2/1 8/2/1
f 10/3/1 5/3/1 4/3/1
f 10/1/1 4/1/1 9/1/1
f 11/1/1 6/1/1 5/1/1
f 11/3/1 5/3/1 10/3/1
f 12/1/1 6/1/1 11/1/1
f 17/6/1 14/6/1 13/6/1
f 18/5/1 16/5/1 15/5/1
f 18/6/1 14/6/1 17/6/1
f 18/5/1 15/5/1 14/5/1
f 19/5/1 16/5/1 18/5/1
f 20/5/1 16/5/1 19/5/1
f 21/5/1 18/5/1 17/5/1
f 22/6/1 19/6/1 18/6/1
f 22/5/1 18/5/1 21/5/1
f 23/6/1 19/6/1 22/6/1
f 26/5/1 25/5/1 24/5/1
f 27/5/1 25/5/1 26/5/1
f 28/5/2 29/5/2 31/5/2
f 29/6/2 30/6/2 32/6/2
f 31/5/2 29/5/2 32/5/2
f 32/6/2 30/6/2 33/6/2
f 34/6/2 35/6/2 38/6/2
f 35/5/2 36/5/2 38/5/2
f 36/6/2 37/6/2 39/6/2
f 38/5/2 36/5/2 39/5/2
f 39/6/2 37/6/2 40/6/2
f 34/6/2 38/6/2 41/6/2
f 38/6/2 39/6/2 41/6/2
f 39/5/2 40/5/2 42/5/2
f 41/6/2 39/6/2 42/6/2
f 42/5/2 40/5/2 43/5/2
f 44/3/2 45/3/2 50/3/2
f 45/1/2 46/1/2 51/1/2
f 50/3/2 45/3/2 51/3/2
f 46/4/2 47/4/2 52/4/2
f 51/1/2 46/1/2 52/1/2
f 47/1/2 48/1/2 53/1/2
f 52/4/2 47/4/2 53/4/2
f 48/2/2 49/2/2 54/2/2
f 53/1/2 48/1/2 54/1/2
f 54/2/2 49/2/2 55/2/2
f 58/1/3 57/1/3 56/1/3
f 59/1/3 57/1/3 58/1/3
f 60/3/3 59/3/3 58/3/3
f 61/3/3 59/3/3 60/3/3
f 65/6/3 63/6/3 62/6/3
f 66/5/3 64/5/3 63/5/3
f 66/6/3 63/6/3 65/6/3
f 67/5/3 64/5/3 66/5/3
f 68/5/3 64/5/3 67/5/3
f 69/5/3 66/5/3 65/5/3
f 70/6/3 67/6/3 66/6/3
f 70/5/3 66/5/3 69/5/3
f 71/6/3 70/6/3 69/6/3
f 72/6/3 67/6/3 70/6/3
f 72/6/3 70/6/3 71/6/3
f 73/6/4 74/6/4 75/6/4
f 75/6/4 74/6/4 76/6/4
f 76/6/4 74/6/4 77/6/4
f 75/5/4 76/5/4 78/5/4
f 78/5/4 76/5/4 79/5/4
f 80/5/4 81/5/4 82/5/4
f 82/5/4 81/5/4 83/5/4
f 82/6/4 83/6/4 84/6/4
f 82/6/4 84/6/4 86/6/4
f 84/5/4 85/5/4 87/5/4
f 86/6/4 84/6/4 87/6/4
f 87/5/4 85/5/4 88/5/4
f 89/1/4 90/1/4 91/1/4
f 91/1/4 90/1/4 92/1/4
f 91/2/4 92/2/4 93/2/4
f 93/2/4 92/2/4 94/2/4
f 98/1/5 96/1/5 95/1/5
f 99/3/5 97/3/5 96/3/5
f 99/1/5 96/1/5 98/1/5
f 100/3/5 97/3/5 99/3/5
f 101/3/5 97/3/5 100/3/5
f 102/2/5 99/2/5 98/2/5
f 102/2/5 100/2/5 99/2/5
f 103/2/5 100/2/5 102/2/5
f 104/1/5 101/1/5 100/1/5
f 104/2/5 100/2/5 103/2/5
f 105/1/5 101/1/5 104/1/5
f 106/1/5 103/1/5 102/1/5
f 107/4/5 104/4/5 103/4/5
f 107/1/5 103/1/5 106/1/5
f 107/4/5 105/4/5 104/4/5
f 108/4/5 105/4/5 107/4/5
f 109/4/5 105/4/5 108/4/5
f 110/3/5 107/3/5 106/3/5
f 110/3/5 108/3/5 107/3/5
f 111/3/5 108/3/5 110/3/5
f 112/1/5 109/1/5 108/1/5
f 112/3/5 108/3/5 111/3/5
f 113/1/5 109/1/5 112/1/5
f 114/1/5 111/1/5 110/1/5
f 115/2/5 112/2/5 111/2/5
f 115/1/5 111/1/5 114/1/5
f 115/2/5 113/2/5 112/2/5
f 116/2/5 113/2/5 115/2/5
f 117/1/6 118/1/6 120/1/6
f 120/1/6 118/1/6 121/1/6
f 118/3/6 119/3/6 122/3/6
f 121/1/6 118/1/6 122/1/6
f 122/3/6 119/3/6 123/3/6
f 123/3/6 119/3/6 124/3/6
f 124/3/6 119/3/6 125/3/6
f 120/2/6 121/2/6 126/2/6
f 126/2/6 121/2/6 127/2/6
f 124/1/6 125/1/6 128/1/6
f 128/1/6 125/1/6 129/1/6
f 126/1/6 127/1/6 130/1/6
f 130/1/6 127/1/6 131/1/6
f 128/4/6 129/4/6 132/4/6
f 132/4/6 129/4/6 133/4/6
f 130/3/6 131/3/6 134/3/6
f 134/3/6 131/3/6 135/3/6
f 132/1/6 133/1/6 137/1/6
f 137/1/6 133/1/6 138/1/6
f 134/1/6 135/1/6 139/1/6
f 135/2/6 136/2/6 140/2/6
f 139/1/6 135/1/6 140/1/6
f 136/2/6 137/2/6 140/2/6
f 137/2/6 138/2/6 140/2/6
f 140/2/6 138/2/6 141/2/6
f 142/5/6 143/5/6 145/5/6
f 143/6/6 144/6/6 146/6/6
f 145/5/6 143/5/6 146/5/6
f 146/6/6 144/6/6 147/6/6
f 148/6/6 149/6/6 150/6/6
f 150/6/6 149/6/6 151/6/6
f 150/5/6 151/5/6 152/5/6
f 151/6/6 149/6/6 153/6/6
f 152/5/6 151/5/6 153/5/6
f 153/6/6 149/6/6 154/6/6
f 153/5/6 154/5/6 155/5/6
f 155/5/6 154/5/6 156/5/6
f 157/5/6 158/5/6 159/5/6
f 159/5/6 158/5/6 160/5/6
f 159/6/6 160/6/6 161/6/6
f 161/6/6 160/6/6 162/6/6
