# MagicaVoxel @ Ephtracy

# group
o 

# material
mtllib rockpile_2.mtl
usemtl palette

# normals
vn -1 0 0
vn 1 0 0
vn 0 0 1
vn 0 0 -1
vn 0 -1 0
vn 0 1 0

# texcoords
vt 0.724609 0.5
vt 0.728516 0.5
vt 0.732422 0.5
vt 0.916016 0.5
vt 0.919922 0.5

# verts
v 0.9 4.8 -2.4
v 0.9 4.8 -2.5
v 0.9 4.8 -2.6
v 0.9 4.8 -2.7
v 0.9 4.8 -2.8
v 0.9 4.8 -2.9
v 0.9 4.9 -2.4
v 0.9 4.9 -2.5
v 0.9 4.9 -2.6
v 0.9 4.9 -2.7
v 0.9 4.9 -2.8
v 0.9 4.9 -2.9
v 1 4.9 -2.5
v 1 4.9 -2.6
v 1 4.9 -2.7
v 1 4.9 -2.8
v 1 5 -2.5
v 1 5 -2.6
v 1 5.1 -2.5
v 1 5.1 -2.7
v 1 5.1 -2.8
v 1 5.2 -2.5
v 1 5.2 -2.7
v 1 5.2 -2.8
v 1.1 5.1 -2.5
v 1.1 5.1 -2.6
v 1.1 5.2 -2.5
v 1.1 5.2 -2.6
v 1.2 5 -2.5
v 1.2 5 -2.6
v 1.2 5.1 -2.5
v 1.2 5.1 -2.6
v 1.2 5.1 -2.7
v 1.2 5.1 -2.8
v 1.2 5.2 -2.7
v 1.2 5.2 -2.8
v 1.3 4.9 -2.5
v 1.3 4.9 -2.6
v 1.3 4.9 -2.8
v 1.3 5 -2.5
v 1.3 5 -2.6
v 1.3 5 -2.8
v 1.3 5.1 -2.6
v 1.3 5.1 -2.7
v 1.3 5.1 -2.8
v 1.3 5.2 -2.6
v 1.3 5.2 -2.7
v 1.4 4.8 -2.4
v 1.4 4.8 -2.5
v 1.4 4.8 -2.6
v 1.4 4.8 -2.8
v 1.4 4.8 -2.9
v 1.4 4.9 -2.4
v 1.4 4.9 -2.5
v 1.4 4.9 -2.6
v 1.4 4.9 -2.8
v 1.4 4.9 -2.9
v 0.9 4.8 -2.4
v 0.9 4.9 -2.4
v 1.3 4.8 -2.4
v 1.3 4.9 -2.4
v 1.4 4.8 -2.4
v 1.4 4.9 -2.4
v 1 4.9 -2.5
v 1 5 -2.5
v 1 5.1 -2.5
v 1 5.2 -2.5
v 1.1 4.9 -2.5
v 1.1 5 -2.5
v 1.1 5.1 -2.5
v 1.1 5.2 -2.5
v 1.2 4.9 -2.5
v 1.2 5 -2.5
v 1.2 5.1 -2.5
v 1.3 4.9 -2.5
v 1.3 5 -2.5
v 1.1 5.1 -2.6
v 1.1 5.2 -2.6
v 1.2 5 -2.6
v 1.2 5.1 -2.6
v 1.2 5.2 -2.6
v 1.3 5 -2.6
v 1.3 5.1 -2.6
v 1.3 5.2 -2.6
v 1.2 5.1 -2.7
v 1.2 5.2 -2.7
v 1.3 5.1 -2.7
v 1.3 5.2 -2.7
v 1 4.9 -2.8
v 1 5.1 -2.8
v 1 5.2 -2.8
v 1.1 4.9 -2.8
v 1.1 5 -2.8
v 1.1 5.1 -2.8
v 1.1 5.2 -2.8
v 1.2 5.1 -2.8
v 1.2 5.2 -2.8
v 1.3 4.9 -2.8
v 1.3 5 -2.8
v 1.3 5.1 -2.8
v 0.9 4.8 -2.9
v 0.9 4.9 -2.9
v 1.1 4.8 -2.9
v 1.1 4.9 -2.9
v 1.4 4.8 -2.9
v 1.4 4.9 -2.9
v 0.9 4.8 -2.4
v 1.3 4.8 -2.4
v 1.4 4.8 -2.4
v 0.9 4.8 -2.5
v 1 4.8 -2.5
v 1.3 4.8 -2.5
v 1.4 4.8 -2.5
v 0.9 4.8 -2.6
v 1 4.8 -2.6
v 1.2 4.8 -2.6
v 1.4 4.8 -2.6
v 0.9 4.8 -2.7
v 1.2 4.8 -2.7
v 1.3 4.8 -2.7
v 0.9 4.8 -2.8
v 1.1 4.8 -2.8
v 1.3 4.8 -2.8
v 1.4 4.8 -2.8
v 0.9 4.8 -2.9
v 1.1 4.8 -2.9
v 1.4 4.8 -2.9
v 0.9 4.9 -2.4
v 1.3 4.9 -2.4
v 1.4 4.9 -2.4
v 0.9 4.9 -2.5
v 1 4.9 -2.5
v 1.1 4.9 -2.5
v 1.2 4.9 -2.5
v 1.3 4.9 -2.5
v 1.4 4.9 -2.5
v 0.9 4.9 -2.6
v 1 4.9 -2.6
v 1.3 4.9 -2.6
v 1.4 4.9 -2.6
v 0.9 4.9 -2.7
v 1 4.9 -2.7
v 0.9 4.9 -2.8
v 1 4.9 -2.8
v 1.1 4.9 -2.8
v 1.3 4.9 -2.8
v 1.4 4.9 -2.8
v 0.9 4.9 -2.9
v 1.1 4.9 -2.9
v 1.4 4.9 -2.9
v 1.2 5 -2.5
v 1.3 5 -2.5
v 1.2 5 -2.6
v 1.3 5 -2.6
v 1.1 5.1 -2.5
v 1.2 5.1 -2.5
v 1.1 5.1 -2.6
v 1.2 5.1 -2.6
v 1.2 5.1 -2.7
v 1.3 5.1 -2.7
v 1.2 5.1 -2.8
v 1.3 5.1 -2.8
v 1 5.2 -2.5
v 1.1 5.2 -2.5
v 1.1 5.2 -2.6
v 1.2 5.2 -2.6
v 1.3 5.2 -2.6
v 1 5.2 -2.7
v 1.1 5.2 -2.7
v 1.2 5.2 -2.7
v 1.3 5.2 -2.7
v 1 5.2 -2.8
v 1.1 5.2 -2.8
v 1.2 5.2 -2.8

# faces
f 7/3/1 2/3/1 1/3/1
f 8/1/1 3/1/1 2/1/1
f 8/3/1 2/3/1 7/3/1
f 9/3/1 4/3/1 3/3/1
f 9/1/1 3/1/1 8/1/1
f 10/2/1 5/2/1 4/2/1
f 10/3/1 4/3/1 9/3/1
f 11/1/1 6/1/1 5/1/1
f 11/2/1 5/2/1 10/2/1
f 12/1/1 6/1/1 11/1/1
f 17/5/1 14/5/1 13/5/1
f 18/4/1 15/4/1 14/4/1
f 18/5/1 14/5/1 17/5/1
f 19/4/1 18/4/1 17/4/1
f 20/5/1 16/5/1 15/5/1
f 20/4/1 18/4/1 19/4/1
f 20/4/1 15/4/1 18/4/1
f 21/5/1 16/5/1 20/5/1
f 22/5/1 20/5/1 19/5/1
f 23/4/1 21/4/1 20/4/1
f 23/5/1 20/5/1 22/5/1
f 24/4/1 21/4/1 23/4/1
f 25/5/2 26/5/2 27/5/2
f 27/5/2 26/5/2 28/5/2
f 29/4/2 30/4/2 31/4/2
f 31/4/2 30/4/2 32/4/2
f 33/5/2 34/5/2 35/5/2
f 35/5/2 34/5/2 36/5/2
f 37/5/2 38/5/2 40/5/2
f 38/5/2 39/5/2 40/5/2
f 40/5/2 39/5/2 41/5/2
f 41/5/2 39/5/2 42/5/2
f 41/4/2 42/4/2 43/4/2
f 43/4/2 42/4/2 44/4/2
f 44/4/2 42/4/2 45/4/2
f 43/5/2 44/5/2 46/5/2
f 46/5/2 44/5/2 47/5/2
f 48/1/2 49/1/2 53/1/2
f 49/2/2 50/2/2 54/2/2
f 53/1/2 49/1/2 54/1/2
f 50/1/2 51/1/2 55/1/2
f 54/2/2 50/2/2 55/2/2
f 51/3/2 52/3/2 56/3/2
f 55/1/2 51/1/2 56/1/2
f 56/3/2 52/3/2 57/3/2
f 60/3/3 59/3/3 58/3/3
f 61/3/3 59/3/3 60/3/3
f 62/1/3 61/1/3 60/1/3
f 63/1/3 61/1/3 62/1/3
f 68/5/3 65/5/3 64/5/3
f 69/4/3 66/4/3 65/4/3
f 69/5/3 65/5/3 68/5/3
f 70/5/3 67/5/3 66/5/3
f 70/4/3 66/4/3 69/4/3
f 71/5/3 67/5/3 70/5/3
f 72/4/3 69/4/3 68/4/3
f 72/4/3 70/4/3 69/4/3
f 73/4/3 70/4/3 72/4/3
f 74/4/3 70/4/3 73/4/3
f 75/5/3 73/5/3 72/5/3
f 76/5/3 73/5/3 75/5/3
f 80/4/3 78/4/3 77/4/3
f 81/4/3 78/4/3 80/4/3
f 82/4/3 80/4/3 79/4/3
f 83/5/3 81/5/3 80/5/3
f 83/4/3 80/4/3 82/4/3
f 84/5/3 81/5/3 83/5/3
f 85/5/4 86/5/4 87/5/4
f 87/5/4 86/5/4 88/5/4
f 89/5/4 90/5/4 92/5/4
f 92/5/4 90/5/4 93/5/4
f 90/4/4 91/4/4 94/4/4
f 93/5/4 90/5/4 94/5/4
f 94/4/4 91/4/4 95/4/4
f 93/4/4 94/4/4 96/4/4
f 94/5/4 95/5/4 96/5/4
f 96/5/4 95/5/4 97/5/4
f 92/5/4 93/5/4 98/5/4
f 93/4/4 96/4/4 99/4/4
f 98/5/4 93/5/4 99/5/4
f 99/4/4 96/4/4 100/4/4
f 101/1/4 102/1/4 103/1/4
f 103/1/4 102/1/4 104/1/4
f 103/3/4 104/3/4 105/3/4
f 105/3/4 104/3/4 106/3/4
f 110/3/5 108/3/5 107/3/5
f 111/3/5 108/3/5 110/3/5
f 112/1/5 109/1/5 108/1/5
f 112/3/5 108/3/5 111/3/5
f 113/1/5 109/1/5 112/1/5
f 114/1/5 111/1/5 110/1/5
f 115/2/5 112/2/5 111/2/5
f 115/1/5 111/1/5 114/1/5
f 115/2/5 113/2/5 112/2/5
f 116/2/5 113/2/5 115/2/5
f 117/2/5 113/2/5 116/2/5
f 118/3/5 115/3/5 114/3/5
f 118/3/5 116/3/5 115/3/5
f 119/1/5 117/1/5 116/1/5
f 119/3/5 116/3/5 118/3/5
f 120/1/5 117/1/5 119/1/5
f 121/2/5 119/2/5 118/2/5
f 121/2/5 120/2/5 119/2/5
f 122/2/5 120/2/5 121/2/5
f 123/1/5 117/1/5 120/1/5
f 123/2/5 120/2/5 122/2/5
f 124/1/5 117/1/5 123/1/5
f 125/1/5 122/1/5 121/1/5
f 126/3/5 123/3/5 122/3/5
f 126/1/5 122/1/5 125/1/5
f 126/3/5 124/3/5 123/3/5
f 127/3/5 124/3/5 126/3/5
f 128/3/6 129/3/6 131/3/6
f 131/3/6 129/3/6 132/3/6
f 132/3/6 129/3/6 133/3/6
f 133/3/6 129/3/6 134/3/6
f 129/1/6 130/1/6 135/1/6
f 134/3/6 129/3/6 135/3/6
f 135/1/6 130/1/6 136/1/6
f 131/1/6 132/1/6 137/1/6
f 137/1/6 132/1/6 138/1/6
f 135/2/6 136/2/6 139/2/6
f 139/2/6 136/2/6 140/2/6
f 137/3/6 138/3/6 141/3/6
f 141/3/6 138/3/6 142/3/6
f 141/2/6 142/2/6 143/2/6
f 143/2/6 142/2/6 144/2/6
f 139/1/6 140/1/6 146/1/6
f 146/1/6 140/1/6 147/1/6
f 144/1/6 145/1/6 148/1/6
f 143/1/6 144/1/6 148/1/6
f 146/3/6 147/3/6 149/3/6
f 148/1/6 145/1/6 149/1/6
f 145/3/6 146/3/6 149/3/6
f 149/3/6 147/3/6 150/3/6
f 151/5/6 152/5/6 153/5/6
f 153/5/6 152/5/6 154/5/6
f 155/4/6 156/4/6 157/4/6
f 157/4/6 156/4/6 158/4/6
f 159/4/6 160/4/6 161/4/6
f 161/4/6 160/4/6 162/4/6
f 163/5/6 164/5/6 165/5/6
f 163/5/6 165/5/6 168/5/6
f 165/4/6 166/4/6 169/4/6
f 168/5/6 165/5/6 169/5/6
f 166/5/6 167/5/6 170/5/6
f 169/4/6 166/4/6 170/4/6
f 170/5/6 167/5/6 171/5/6
f 168/4/6 169/4/6 172/4/6
f 169/5/6 170/5/6 173/5/6
f 172/4/6 169/4/6 173/4/6
f 173/5/6 170/5/6 174/5/6
