# MagicaVoxel @ Ephtracy

# group
o 

# material
mtllib rockpile_1.mtl
usemtl palette

# normals
vn -1 0 0
vn 1 0 0
vn 0 0 1
vn 0 0 -1
vn 0 -1 0
vn 0 1 0

# texcoords
vt 0.724609 0.5
vt 0.728516 0.5
vt 0.732422 0.5
vt 0.736328 0.5
vt 0.916016 0.5
vt 0.919922 0.5

# verts
v 1.5 4.8 -2.8
v 1.5 4.8 -2.9
v 1.5 4.8 -3
v 1.5 4.8 -3.1
v 1.5 4.8 -3.2
v 1.5 4.8 -3.3
v 1.5 4.9 -2.8
v 1.5 4.9 -2.9
v 1.5 4.9 -3
v 1.5 4.9 -3.1
v 1.5 4.9 -3.2
v 1.5 4.9 -3.3
v 1.6 4.9 -2.9
v 1.6 4.9 -3
v 1.6 4.9 -3.1
v 1.6 4.9 -3.2
v 1.6 5 -3
v 1.6 5 -3.1
v 1.6 5 -3.2
v 1.6 5.1 -2.9
v 1.6 5.1 -3.1
v 1.7 5 -3.1
v 1.7 5 -3.2
v 1.7 5.1 -2.9
v 1.7 5.1 -3
v 1.7 5.1 -3.1
v 1.7 5.1 -3.2
v 1.7 5.2 -2.9
v 1.7 5.2 -3
v 1.7 5.2 -3.1
v 1.8 5.1 -3.1
v 1.8 5.1 -3.2
v 1.8 5.2 -3.1
v 1.8 5.2 -3.2
v 1.9 4.9 -2.9
v 1.9 4.9 -3
v 1.9 4.9 -3.1
v 1.9 4.9 -3.2
v 1.9 5 -2.9
v 1.9 5 -3.1
v 1.9 5 -3.2
v 1.9 5.1 -3
v 1.9 5.1 -3.1
v 1.9 5.1 -3.2
v 1.9 5.2 -2.9
v 1.9 5.2 -3
v 1.9 5.2 -3.1
v 1.9 5.2 -3.2
v 2 4.8 -2.8
v 2 4.8 -3
v 2 4.8 -3.1
v 2 4.8 -3.2
v 2 4.8 -3.3
v 2 4.9 -2.8
v 2 4.9 -3
v 2 4.9 -3.1
v 2 4.9 -3.2
v 2 4.9 -3.3
v 1.5 4.8 -2.8
v 1.5 4.9 -2.8
v 1.9 4.8 -2.8
v 1.9 4.9 -2.8
v 2 4.8 -2.8
v 2 4.9 -2.8
v 1.6 4.9 -2.9
v 1.6 5.1 -2.9
v 1.7 4.9 -2.9
v 1.7 5.1 -2.9
v 1.7 5.2 -2.9
v 1.8 5 -2.9
v 1.8 5.2 -2.9
v 1.9 4.9 -2.9
v 1.9 5 -2.9
v 1.9 5.2 -2.9
v 1.6 5 -3.1
v 1.6 5.1 -3.1
v 1.7 5 -3.1
v 1.7 5.1 -3.1
v 1.7 5.2 -3.1
v 1.8 5.1 -3.1
v 1.8 5.2 -3.1
v 1.6 4.9 -3.2
v 1.6 5 -3.2
v 1.7 4.9 -3.2
v 1.7 5 -3.2
v 1.7 5.1 -3.2
v 1.8 5.1 -3.2
v 1.8 5.2 -3.2
v 1.9 4.9 -3.2
v 1.9 5 -3.2
v 1.9 5.1 -3.2
v 1.9 5.2 -3.2
v 1.5 4.8 -3.3
v 1.5 4.9 -3.3
v 1.7 4.8 -3.3
v 1.7 4.9 -3.3
v 2 4.8 -3.3
v 2 4.9 -3.3
v 1.5 4.8 -2.8
v 1.9 4.8 -2.8
v 2 4.8 -2.8
v 1.5 4.8 -2.9
v 1.8 4.8 -2.9
v 1.9 4.8 -2.9
v 1.5 4.8 -3
v 1.6 4.8 -3
v 1.8 4.8 -3
v 2 4.8 -3
v 1.5 4.8 -3.1
v 1.6 4.8 -3.1
v 1.9 4.8 -3.1
v 2 4.8 -3.1
v 1.5 4.8 -3.2
v 1.7 4.8 -3.2
v 1.9 4.8 -3.2
v 2 4.8 -3.2
v 1.5 4.8 -3.3
v 1.7 4.8 -3.3
v 2 4.8 -3.3
v 1.5 4.9 -2.8
v 1.9 4.9 -2.8
v 2 4.9 -2.8
v 1.5 4.9 -2.9
v 1.6 4.9 -2.9
v 1.7 4.9 -2.9
v 1.9 4.9 -2.9
v 1.5 4.9 -3
v 1.6 4.9 -3
v 1.9 4.9 -3
v 2 4.9 -3
v 1.5 4.9 -3.1
v 1.6 4.9 -3.1
v 1.9 4.9 -3.1
v 2 4.9 -3.1
v 1.5 4.9 -3.2
v 1.6 4.9 -3.2
v 1.7 4.9 -3.2
v 1.9 4.9 -3.2
v 2 4.9 -3.2
v 1.5 4.9 -3.3
v 1.7 4.9 -3.3
v 2 4.9 -3.3
v 1.6 5 -3.1
v 1.7 5 -3.1
v 1.6 5 -3.2
v 1.7 5 -3.2
v 1.6 5.1 -2.9
v 1.7 5.1 -2.9
v 1.7 5.1 -3
v 1.6 5.1 -3.1
v 1.7 5.1 -3.1
v 1.8 5.1 -3.1
v 1.7 5.1 -3.2
v 1.8 5.1 -3.2
v 1.7 5.2 -2.9
v 1.8 5.2 -2.9
v 1.9 5.2 -2.9
v 1.7 5.2 -3
v 1.8 5.2 -3
v 1.9 5.2 -3
v 1.7 5.2 -3.1
v 1.8 5.2 -3.1
v 1.9 5.2 -3.1
v 1.8 5.2 -3.2
v 1.9 5.2 -3.2

# faces
f 7/2/1 2/2/1 1/2/1
f 8/4/1 3/4/1 2/4/1
f 8/2/1 2/2/1 7/2/1
f 9/1/1 4/1/1 3/1/1
f 9/4/1 3/4/1 8/4/1
f 10/2/1 5/2/1 4/2/1
f 10/1/1 4/1/1 9/1/1
f 11/1/1 6/1/1 5/1/1
f 11/2/1 5/2/1 10/2/1
f 12/1/1 6/1/1 11/1/1
f 17/6/1 14/6/1 13/6/1
f 17/5/1 16/5/1 15/5/1
f 17/5/1 15/5/1 14/5/1
f 18/5/1 16/5/1 17/5/1
f 19/5/1 16/5/1 18/5/1
f 20/6/1 17/6/1 13/6/1
f 20/6/1 18/6/1 17/6/1
f 21/6/1 18/6/1 20/6/1
f 26/5/1 23/5/1 22/5/1
f 27/5/1 23/5/1 26/5/1
f 28/5/1 25/5/1 24/5/1
f 29/6/1 26/6/1 25/6/1
f 29/5/1 25/5/1 28/5/1
f 30/6/1 26/6/1 29/6/1
f 33/6/1 32/6/1 31/6/1
f 34/6/1 32/6/1 33/6/1
f 35/5/2 36/5/2 39/5/2
f 36/5/2 37/5/2 39/5/2
f 37/6/2 38/6/2 40/6/2
f 39/5/2 37/5/2 40/5/2
f 40/6/2 38/6/2 41/6/2
f 39/6/2 40/6/2 42/6/2
f 40/5/2 41/5/2 43/5/2
f 42/6/2 40/6/2 43/6/2
f 43/5/2 41/5/2 44/5/2
f 39/6/2 42/6/2 45/6/2
f 42/5/2 43/5/2 46/5/2
f 45/6/2 42/6/2 46/6/2
f 43/6/2 44/6/2 47/6/2
f 46/5/2 43/5/2 47/5/2
f 47/6/2 44/6/2 48/6/2
f 49/1/2 50/1/2 54/1/2
f 50/3/2 51/3/2 55/3/2
f 54/1/2 50/1/2 55/1/2
f 51/1/2 52/1/2 56/1/2
f 55/3/2 51/3/2 56/3/2
f 52/4/2 53/4/2 57/4/2
f 56/1/2 52/1/2 57/1/2
f 57/4/2 53/4/2 58/4/2
f 61/2/3 60/2/3 59/2/3
f 62/2/3 60/2/3 61/2/3
f 63/1/3 62/1/3 61/1/3
f 64/1/3 62/1/3 63/1/3
f 67/6/3 66/6/3 65/6/3
f 68/6/3 66/6/3 67/6/3
f 70/5/3 68/5/3 67/5/3
f 70/5/3 69/5/3 68/5/3
f 71/5/3 69/5/3 70/5/3
f 72/5/3 70/5/3 67/5/3
f 73/6/3 71/6/3 70/6/3
f 73/5/3 70/5/3 72/5/3
f 74/6/3 71/6/3 73/6/3
f 75/6/4 76/6/4 77/6/4
f 77/6/4 76/6/4 78/6/4
f 78/6/4 79/6/4 80/6/4
f 80/6/4 79/6/4 81/6/4
f 82/5/4 83/5/4 84/5/4
f 84/5/4 83/5/4 85/5/4
f 85/5/4 86/5/4 87/5/4
f 84/6/4 85/6/4 89/6/4
f 85/5/4 87/5/4 90/5/4
f 89/6/4 85/6/4 90/6/4
f 87/6/4 88/6/4 91/6/4
f 90/5/4 87/5/4 91/5/4
f 91/6/4 88/6/4 92/6/4
f 93/1/4 94/1/4 95/1/4
f 95/1/4 94/1/4 96/1/4
f 95/4/4 96/4/4 97/4/4
f 97/4/4 96/4/4 98/4/4
f 102/2/5 100/2/5 99/2/5
f 103/2/5 100/2/5 102/2/5
f 104/1/5 101/1/5 100/1/5
f 104/2/5 100/2/5 103/2/5
f 105/4/5 103/4/5 102/4/5
f 106/4/5 103/4/5 105/4/5
f 107/1/5 104/1/5 103/1/5
f 107/4/5 103/4/5 106/4/5
f 108/1/5 101/1/5 104/1/5
f 108/1/5 104/1/5 107/1/5
f 109/1/5 106/1/5 105/1/5
f 110/3/5 107/3/5 106/3/5
f 110/1/5 106/1/5 109/1/5
f 110/3/5 108/3/5 107/3/5
f 111/3/5 108/3/5 110/3/5
f 112/3/5 108/3/5 111/3/5
f 113/2/5 110/2/5 109/2/5
f 113/2/5 111/2/5 110/2/5
f 114/2/5 111/2/5 113/2/5
f 115/1/5 112/1/5 111/1/5
f 115/2/5 111/2/5 114/2/5
f 116/1/5 112/1/5 115/1/5
f 117/1/5 114/1/5 113/1/5
f 118/4/5 115/4/5 114/4/5
f 118/1/5 114/1/5 117/1/5
f 118/4/5 116/4/5 115/4/5
f 119/4/5 116/4/5 118/4/5
f 120/2/6 121/2/6 123/2/6
f 123/2/6 121/2/6 124/2/6
f 124/2/6 121/2/6 125/2/6
f 121/1/6 122/1/6 126/1/6
f 125/2/6 121/2/6 126/2/6
f 123/4/6 124/4/6 127/4/6
f 127/4/6 124/4/6 128/4/6
f 126/1/6 122/1/6 129/1/6
f 129/1/6 122/1/6 130/1/6
f 127/1/6 128/1/6 131/1/6
f 131/1/6 128/1/6 132/1/6
f 129/3/6 130/3/6 133/3/6
f 133/3/6 130/3/6 134/3/6
f 131/2/6 132/2/6 135/2/6
f 135/2/6 132/2/6 136/2/6
f 133/1/6 134/1/6 138/1/6
f 138/1/6 134/1/6 139/1/6
f 136/1/6 137/1/6 140/1/6
f 135/1/6 136/1/6 140/1/6
f 138/4/6 139/4/6 141/4/6
f 140/1/6 137/1/6 141/1/6
f 137/4/6 138/4/6 141/4/6
f 141/4/6 139/4/6 142/4/6
f 143/5/6 144/5/6 145/5/6
f 145/5/6 144/5/6 146/5/6
f 147/6/6 148/6/6 149/6/6
f 147/6/6 149/6/6 150/6/6
f 150/6/6 149/6/6 151/6/6
f 151/5/6 152/5/6 153/5/6
f 153/5/6 152/5/6 154/5/6
f 155/5/6 156/5/6 158/5/6
f 156/6/6 157/6/6 159/6/6
f 158/5/6 156/5/6 159/5/6
f 159/6/6 157/6/6 160/6/6
f 158/6/6 159/6/6 161/6/6
f 159/5/6 160/5/6 162/5/6
f 161/6/6 159/6/6 162/6/6
f 162/5/6 160/5/6 163/5/6
f 162/6/6 163/6/6 164/6/6
f 164/6/6 163/6/6 165/6/6
