# MagicaVoxel @ Ephtracy

# group
o 

# material
mtllib shovel.mtl
usemtl palette

# normals
vn -1 0 0
vn 1 0 0
vn 0 0 1
vn 0 0 -1
vn 0 -1 0
vn 0 1 0

# texcoords
vt 0.744141 0.5
vt 0.931641 0.5

# verts
v 2.6 4.8 -5.2
v 2.6 4.8 -5.3
v 2.6 4.8 -5.4
v 2.6 4.8 -5.5
v 2.6 5 -5.2
v 2.6 5 -5.3
v 2.6 5 -5.4
v 2.6 5 -5.5
v 2.6 5.1 -5.3
v 2.6 5.1 -5.4
v 2.6 5.4 -5.2
v 2.6 5.4 -5.3
v 2.6 5.4 -5.4
v 2.6 5.4 -5.5
v 2.6 5.5 -5.2
v 2.6 5.5 -5.5
v 2.7 4.8 -5.3
v 2.7 4.8 -5.4
v 2.7 5 -5.3
v 2.7 5 -5.4
v 2.7 4.8 -5.2
v 2.7 4.8 -5.3
v 2.7 4.8 -5.4
v 2.7 4.8 -5.5
v 2.7 5 -5.2
v 2.7 5 -5.3
v 2.7 5 -5.4
v 2.7 5 -5.5
v 2.7 5.1 -5.3
v 2.7 5.1 -5.4
v 2.7 5.4 -5.2
v 2.7 5.4 -5.3
v 2.7 5.4 -5.4
v 2.7 5.4 -5.5
v 2.7 5.5 -5.2
v 2.7 5.5 -5.5
v 2.8 4.8 -5.3
v 2.8 4.8 -5.4
v 2.8 5 -5.3
v 2.8 5 -5.4
v 2.6 4.8 -5.2
v 2.6 5 -5.2
v 2.6 5.4 -5.2
v 2.6 5.5 -5.2
v 2.7 4.8 -5.2
v 2.7 5 -5.2
v 2.7 5.4 -5.2
v 2.7 5.5 -5.2
v 2.6 5 -5.3
v 2.6 5.1 -5.3
v 2.6 5.4 -5.3
v 2.7 4.8 -5.3
v 2.7 5 -5.3
v 2.7 5.1 -5.3
v 2.7 5.4 -5.3
v 2.8 4.8 -5.3
v 2.8 5 -5.3
v 2.6 4.8 -5.4
v 2.6 5 -5.4
v 2.7 4.8 -5.4
v 2.7 5 -5.4
v 2.6 4.8 -5.3
v 2.6 5 -5.3
v 2.7 4.8 -5.3
v 2.7 5 -5.3
v 2.6 5 -5.4
v 2.6 5.1 -5.4
v 2.6 5.4 -5.4
v 2.7 4.8 -5.4
v 2.7 5 -5.4
v 2.7 5.1 -5.4
v 2.7 5.4 -5.4
v 2.8 4.8 -5.4
v 2.8 5 -5.4
v 2.6 4.8 -5.5
v 2.6 5 -5.5
v 2.6 5.4 -5.5
v 2.6 5.5 -5.5
v 2.7 4.8 -5.5
v 2.7 5 -5.5
v 2.7 5.4 -5.5
v 2.7 5.5 -5.5
v 2.6 4.8 -5.2
v 2.7 4.8 -5.2
v 2.6 4.8 -5.3
v 2.7 4.8 -5.3
v 2.8 4.8 -5.3
v 2.6 4.8 -5.4
v 2.7 4.8 -5.4
v 2.8 4.8 -5.4
v 2.6 4.8 -5.5
v 2.7 4.8 -5.5
v 2.6 5 -5.3
v 2.7 5 -5.3
v 2.6 5 -5.4
v 2.7 5 -5.4
v 2.6 5.4 -5.2
v 2.7 5.4 -5.2
v 2.6 5.4 -5.3
v 2.7 5.4 -5.3
v 2.6 5.4 -5.4
v 2.7 5.4 -5.4
v 2.6 5.4 -5.5
v 2.7 5.4 -5.5
v 2.6 5 -5.2
v 2.7 5 -5.2
v 2.6 5 -5.3
v 2.7 5 -5.3
v 2.8 5 -5.3
v 2.6 5 -5.4
v 2.7 5 -5.4
v 2.8 5 -5.4
v 2.6 5 -5.5
v 2.7 5 -5.5
v 2.6 5.5 -5.2
v 2.7 5.5 -5.2
v 2.6 5.5 -5.5
v 2.7 5.5 -5.5

# faces
f 5/2/1 2/2/1 1/2/1
f 6/2/1 2/2/1 5/2/1
f 7/2/1 4/2/1 3/2/1
f 8/2/1 4/2/1 7/2/1
f 9/2/1 7/2/1 6/2/1
f 10/2/1 7/2/1 9/2/1
f 12/1/1 10/1/1 9/1/1
f 13/1/1 10/1/1 12/1/1
f 15/1/1 13/1/1 12/1/1
f 15/1/1 14/1/1 13/1/1
f 15/1/1 12/1/1 11/1/1
f 16/1/1 14/1/1 15/1/1
f 19/2/1 18/2/1 17/2/1
f 20/2/1 18/2/1 19/2/1
f 21/2/2 22/2/2 25/2/2
f 25/2/2 22/2/2 26/2/2
f 23/2/2 24/2/2 27/2/2
f 27/2/2 24/2/2 28/2/2
f 26/2/2 27/2/2 29/2/2
f 29/2/2 27/2/2 30/2/2
f 29/1/2 30/1/2 32/1/2
f 32/1/2 30/1/2 33/1/2
f 32/1/2 33/1/2 35/1/2
f 33/1/2 34/1/2 35/1/2
f 31/1/2 32/1/2 35/1/2
f 35/1/2 34/1/2 36/1/2
f 37/2/2 38/2/2 39/2/2
f 39/2/2 38/2/2 40/2/2
f 45/2/3 42/2/3 41/2/3
f 46/2/3 42/2/3 45/2/3
f 47/1/3 44/1/3 43/1/3
f 48/1/3 44/1/3 47/1/3
f 53/2/3 50/2/3 49/2/3
f 54/1/3 51/1/3 50/1/3
f 54/2/3 50/2/3 53/2/3
f 55/1/3 51/1/3 54/1/3
f 56/2/3 53/2/3 52/2/3
f 57/2/3 53/2/3 56/2/3
f 60/2/3 59/2/3 58/2/3
f 61/2/3 59/2/3 60/2/3
f 62/2/4 63/2/4 64/2/4
f 64/2/4 63/2/4 65/2/4
f 66/2/4 67/2/4 70/2/4
f 67/1/4 68/1/4 71/1/4
f 70/2/4 67/2/4 71/2/4
f 71/1/4 68/1/4 72/1/4
f 69/2/4 70/2/4 73/2/4
f 73/2/4 70/2/4 74/2/4
f 75/2/4 76/2/4 79/2/4
f 79/2/4 76/2/4 80/2/4
f 77/1/4 78/1/4 81/1/4
f 81/1/4 78/1/4 82/1/4
f 85/2/5 84/2/5 83/2/5
f 86/2/5 84/2/5 85/2/5
f 89/2/5 87/2/5 86/2/5
f 90/2/5 87/2/5 89/2/5
f 91/2/5 89/2/5 88/2/5
f 92/2/5 89/2/5 91/2/5
f 95/2/5 94/2/5 93/2/5
f 96/2/5 94/2/5 95/2/5
f 99/1/5 98/1/5 97/1/5
f 100/1/5 98/1/5 99/1/5
f 103/1/5 102/1/5 101/1/5
f 104/1/5 102/1/5 103/1/5
f 105/2/6 106/2/6 107/2/6
f 107/2/6 106/2/6 108/2/6
f 108/2/6 109/2/6 111/2/6
f 111/2/6 109/2/6 112/2/6
f 110/2/6 111/2/6 113/2/6
f 113/2/6 111/2/6 114/2/6
f 115/1/6 116/1/6 117/1/6
f 117/1/6 116/1/6 118/1/6
