# MagicaVoxel @ Ephtracy

# group
o 

# material
mtllib truck.mtl
usemtl palette

# normals
vn -1 0 0
vn 1 0 0
vn 0 0 1
vn 0 0 -1
vn 0 -1 0
vn 0 1 0

# texcoords
vt 0.447266 0.5
vt 0.630859 0.5
vt 0.634766 0.5
vt 0.638672 0.5
vt 0.642578 0.5
vt 0.884766 0.5
vt 0.892578 0.5
vt 0.919922 0.5
vt 0.947266 0.5

# verts
v -5.9 5.6 -0.4
v -5.9 5.6 -1.1
v -5.9 5.8 -0.4
v -5.9 5.8 -1.1
v -5.8 5 -0.1
v -5.8 5 -0.3
v -5.8 5 -1.2
v -5.8 5 -1.4
v -5.8 5.2 -0.1
v -5.8 5.2 -0.3
v -5.8 5.2 -1.2
v -5.8 5.2 -1.4
v -5.8 5.5 -0.4
v -5.8 5.5 -1.1
v -5.8 5.6 -0.4
v -5.8 5.6 -1.1
v -5.7 4.9 -0.1
v -5.7 4.9 -0.3
v -5.7 4.9 -1.2
v -5.7 4.9 -1.4
v -5.7 5 -0.1
v -5.7 5 -0.3
v -5.7 5 -1.2
v -5.7 5 -1.4
v -5.7 5.1 -0.6
v -5.7 5.1 -0.9
v -5.7 5.2 -0.1
v -5.7 5.2 -0.3
v -5.7 5.2 -0.5
v -5.7 5.2 -0.6
v -5.7 5.2 -0.9
v -5.7 5.2 -1
v -5.7 5.2 -1.2
v -5.7 5.2 -1.4
v -5.7 5.3 -0.1
v -5.7 5.3 -0.3
v -5.7 5.3 -0.5
v -5.7 5.3 -0.6
v -5.7 5.3 -0.9
v -5.7 5.3 -1
v -5.7 5.3 -1.2
v -5.7 5.3 -1.4
v -5.7 5.4 -0.4
v -5.7 5.4 -0.5
v -5.7 5.4 -1
v -5.7 5.4 -1.1
v -5.7 5.5 -0.4
v -5.7 5.5 -1.1
v -5.6 4.8 -0.1
v -5.6 4.8 -0.3
v -5.6 4.8 -1.2
v -5.6 4.8 -1.4
v -5.6 4.9 -0.1
v -5.6 4.9 -0.3
v -5.6 4.9 -1.2
v -5.6 4.9 -1.4
v -5.6 5 -0.6
v -5.6 5 -0.9
v -5.6 5.1 -0.3
v -5.6 5.1 -0.6
v -5.6 5.1 -0.9
v -5.6 5.1 -1.2
v -5.6 5.2 -0.3
v -5.6 5.2 -0.5
v -5.6 5.2 -0.6
v -5.6 5.2 -0.9
v -5.6 5.2 -1
v -5.6 5.2 -1.2
v -5.6 5.3 -0.1
v -5.6 5.3 -0.3
v -5.6 5.3 -1.2
v -5.6 5.3 -1.4
v -5.6 5.4 -0.1
v -5.6 5.4 -0.3
v -5.6 5.4 -1.2
v -5.6 5.4 -1.4
v -5.5 4.9 -0.1
v -5.5 4.9 -0.2
v -5.5 5 -0.1
v -5.5 5 -0.2
v -5.5 5 -0.3
v -5.5 5 -0.6
v -5.5 5 -0.9
v -5.5 5 -1.2
v -5.5 5.1 -0.3
v -5.5 5.1 -0.6
v -5.5 5.1 -0.9
v -5.5 5.1 -1.2
v -5.5 5.2 -1.3
v -5.5 5.2 -1.4
v -5.5 5.3 -1.3
v -5.5 5.3 -1.4
v -5.4 4.9 -1.3
v -5.4 4.9 -1.4
v -5.4 5.1 -0.1
v -5.4 5.1 -0.2
v -5.4 5.1 -1.3
v -5.4 5.1 -1.4
v -5.4 5.3 -0.1
v -5.4 5.3 -0.2
v -5.4 5.3 -0.4
v -5.4 5.3 -0.5
v -5.4 5.3 -1
v -5.4 5.3 -1.1
v -5.4 5.4 -0.4
v -5.4 5.4 -0.5
v -5.4 5.4 -1
v -5.4 5.4 -1.1
v -5.3 5 -0.1
v -5.3 5 -0.2
v -5.3 5.1 -0.1
v -5.3 5.1 -0.2
v -5.3 5.1 -1.3
v -5.3 5.1 -1.4
v -5.3 5.2 -0.4
v -5.3 5.2 -0.5
v -5.3 5.2 -1
v -5.3 5.2 -1.1
v -5.3 5.2 -1.3
v -5.3 5.2 -1.4
v -5.3 5.3 -0.4
v -5.3 5.3 -0.5
v -5.3 5.3 -1
v -5.3 5.3 -1.1
v -5.1 5.1 -0.4
v -5.1 5.1 -0.5
v -5.1 5.1 -1
v -5.1 5.1 -1.1
v -5.1 5.2 -0.4
v -5.1 5.2 -0.5
v -5.1 5.2 -1
v -5.1 5.2 -1.1
v -4.9 5.2 -0.5
v -4.9 5.2 -1
v -4.9 5.3 -0.5
v -4.9 5.3 -1
v -4.8 5.3 -0.5
v -4.8 5.3 -1
v -4.8 5.4 -0.7
v -4.8 5.4 -0.8
v -4.8 5.5 -0.6
v -4.8 5.5 -0.7
v -4.8 5.5 -0.8
v -4.8 5.5 -0.9
v -4.8 5.6 -0.5
v -4.8 5.6 -0.6
v -4.8 5.6 -0.9
v -4.8 5.6 -1
v -4.7 4.9 -0.2
v -4.7 4.9 -0.4
v -4.7 4.9 -1.1
v -4.7 4.9 -1.3
v -4.7 5.2 -0.4
v -4.7 5.2 -1.1
v -4.7 5.3 -0.2
v -4.7 5.3 -0.4
v -4.7 5.3 -1.1
v -4.7 5.3 -1.3
v -4.7 5.4 -0.7
v -4.7 5.4 -0.8
v -4.7 5.5 -0.6
v -4.7 5.5 -0.7
v -4.7 5.5 -0.8
v -4.7 5.5 -0.9
v -4.7 5.6 -0.5
v -4.7 5.6 -0.6
v -4.7 5.6 -0.9
v -4.7 5.6 -1
v -4.7 5.7 -0.5
v -4.7 5.7 -1
v -4.6 4.9 -0.4
v -4.6 4.9 -1.1
v -4.6 5 -0.6
v -4.6 5 -0.9
v -4.6 5.1 -0.5
v -4.6 5.1 -0.6
v -4.6 5.1 -0.9
v -4.6 5.1 -1
v -4.6 5.2 -0.4
v -4.6 5.2 -0.5
v -4.6 5.2 -1
v -4.6 5.2 -1.1
v -4.6 5.3 -0.2
v -4.6 5.3 -0.4
v -4.6 5.3 -1.1
v -4.6 5.3 -1.3
v -4.6 5.4 -0.2
v -4.6 5.4 -0.4
v -4.6 5.4 -1.1
v -4.6 5.4 -1.3
v -4.6 5.7 -0.5
v -4.6 5.7 -1
v -4.6 5.8 -0.5
v -4.6 5.8 -1
v -4.5 5 -0.1
v -4.5 5 -0.3
v -4.5 5 -1.2
v -4.5 5 -1.4
v -4.5 5.2 -0.1
v -4.5 5.2 -0.2
v -4.5 5.2 -0.3
v -4.5 5.2 -1.2
v -4.5 5.2 -1.3
v -4.5 5.2 -1.4
v -4.5 5.4 -0.2
v -4.5 5.4 -0.4
v -4.5 5.4 -1.1
v -4.5 5.4 -1.3
v -4.5 5.5 -0.2
v -4.5 5.5 -0.4
v -4.5 5.5 -1.1
v -4.5 5.5 -1.3
v -4.5 5.8 -0.5
v -4.5 5.8 -0.6
v -4.5 5.8 -0.9
v -4.5 5.8 -1
v -4.5 5.9 -0.5
v -4.5 5.9 -0.6
v -4.5 5.9 -0.9
v -4.5 5.9 -1
v -4.4 4.9 -0.1
v -4.4 4.9 -0.3
v -4.4 4.9 -1.2
v -4.4 4.9 -1.4
v -4.4 5 -0.1
v -4.4 5 -0.3
v -4.4 5 -1.2
v -4.4 5 -1.4
v -4.4 5.2 -0.1
v -4.4 5.2 -0.3
v -4.4 5.2 -1.2
v -4.4 5.2 -1.4
v -4.4 5.3 -0.1
v -4.4 5.3 -0.2
v -4.4 5.3 -0.3
v -4.4 5.3 -1.2
v -4.4 5.3 -1.3
v -4.4 5.3 -1.4
v -4.4 5.5 -0.2
v -4.4 5.5 -0.4
v -4.4 5.5 -1.1
v -4.4 5.5 -1.3
v -4.4 5.6 -0.2
v -4.4 5.6 -0.4
v -4.4 5.6 -0.5
v -4.4 5.6 -0.6
v -4.4 5.6 -1.1
v -4.4 5.6 -1.3
v -4.4 5.7 -0.5
v -4.4 5.7 -0.6
v -4.4 5.7 -0.9
v -4.4 5.9 -0.5
v -4.4 5.9 -0.6
v -4.4 5.9 -0.9
v -4.4 5.9 -1
v -4.4 6 -0.5
v -4.4 6 -0.6
v -4.4 6 -0.9
v -4.4 6 -1
v -4.3 4.8 -0.1
v -4.3 4.8 -0.3
v -4.3 4.8 -1.2
v -4.3 4.8 -1.4
v -4.3 4.9 -0.1
v -4.3 4.9 -0.3
v -4.3 4.9 -1.2
v -4.3 4.9 -1.4
v -4.3 5.3 -0.1
v -4.3 5.3 -0.3
v -4.3 5.3 -1.2
v -4.3 5.3 -1.4
v -4.3 5.4 -0.1
v -4.3 5.4 -0.2
v -4.3 5.4 -0.3
v -4.3 5.4 -1.2
v -4.3 5.4 -1.3
v -4.3 5.4 -1.4
v -4.3 5.9 -0.6
v -4.3 5.9 -0.9
v -4.3 6 -0.6
v -4.3 6 -0.9
v -4.2 4.9 -0.1
v -4.2 4.9 -0.2
v -4.2 5 -0.1
v -4.2 5 -0.2
v -4.2 5.2 -1.3
v -4.2 5.2 -1.4
v -4.2 5.3 -1.3
v -4.2 5.3 -1.4
v -4.1 4.9 -1.3
v -4.1 4.9 -1.4
v -4.1 5.1 -0.1
v -4.1 5.1 -0.2
v -4.1 5.1 -1.3
v -4.1 5.1 -1.4
v -4.1 5.3 -0.1
v -4.1 5.3 -0.2
v -4.1 5.4 -0.2
v -4.1 5.4 -0.3
v -4.1 5.4 -1.2
v -4.1 5.4 -1.3
v -4.1 5.5 -0.2
v -4.1 5.5 -0.3
v -4.1 5.5 -1.2
v -4.1 5.5 -1.3
v -4.1 5.7 -0.5
v -4.1 5.7 -0.6
v -4.1 5.7 -0.7
v -4.1 5.7 -0.8
v -4.1 5.7 -0.9
v -4.1 5.7 -1
v -4.1 5.8 -0.6
v -4.1 5.8 -0.7
v -4.1 5.8 -0.8
v -4.1 5.8 -0.9
v -4.1 5.9 -0.5
v -4.1 5.9 -0.6
v -4.1 5.9 -0.9
v -4.1 5.9 -1
v -4 5 -0.1
v -4 5 -0.2
v -4 5.1 -0.1
v -4 5.1 -0.2
v -4 5.1 -1.3
v -4 5.1 -1.4
v -4 5.2 -0.3
v -4 5.2 -0.4
v -4 5.2 -1.1
v -4 5.2 -1.2
v -4 5.2 -1.3
v -4 5.2 -1.4
v -4 5.3 -0.2
v -4 5.3 -0.3
v -4 5.3 -0.4
v -4 5.3 -1.1
v -4 5.3 -1.2
v -4 5.3 -1.3
v -4 5.4 -0.2
v -4 5.4 -0.3
v -4 5.4 -1.2
v -4 5.4 -1.3
v -4 5.7 -0.7
v -4 5.7 -0.8
v -4 5.8 -0.7
v -4 5.8 -0.8
v -3.9 4.9 -0.3
v -3.9 4.9 -0.4
v -3.9 4.9 -1.1
v -3.9 4.9 -1.2
v -3.9 5 -0.3
v -3.9 5 -0.6
v -3.9 5 -0.9
v -3.9 5 -1.2
v -3.9 5.2 -0.2
v -3.9 5.2 -0.3
v -3.9 5.2 -0.4
v -3.9 5.2 -0.6
v -3.9 5.2 -0.9
v -3.9 5.2 -1.1
v -3.9 5.2 -1.2
v -3.9 5.2 -1.3
v -3.9 5.3 -0.2
v -3.9 5.3 -0.3
v -3.9 5.3 -1.2
v -3.9 5.3 -1.3
v -3.8 4.9 -0.2
v -3.8 4.9 -0.3
v -3.8 4.9 -1.2
v -3.8 4.9 -1.3
v -3.8 5.2 -0.2
v -3.8 5.2 -0.3
v -3.8 5.2 -1.2
v -3.8 5.2 -1.3
v -5.8 5.7 -0.5
v -5.8 5.7 -1
v -5.8 5.8 -0.5
v -5.8 5.8 -1
v -5.7 5 -1.3
v -5.7 5 -1.4
v -5.7 5.1 -0.1
v -5.7 5.1 -0.2
v -5.7 5.1 -1.3
v -5.7 5.1 -1.4
v -5.7 5.2 -0.1
v -5.7 5.2 -0.2
v -5.6 4.9 -0.1
v -5.6 4.9 -0.2
v -5.6 5.1 -0.1
v -5.6 5.1 -0.2
v -5.6 5.1 -1.3
v -5.6 5.1 -1.4
v -5.6 5.3 -1.3
v -5.6 5.3 -1.4
v -5.6 5.5 -0.5
v -5.6 5.5 -1
v -5.6 5.6 -0.5
v -5.6 5.6 -1
v -5.6 5.7 -0.5
v -5.6 5.7 -1
v -5.5 4.9 -1.3
v -5.5 4.9 -1.4
v -5.5 5 -1.3
v -5.5 5 -1.4
v -5.5 5.2 -0.1
v -5.5 5.2 -0.2
v -5.5 5.3 -0.1
v -5.5 5.3 -0.2
v -5.4 4.8 -0.1
v -5.4 4.8 -0.3
v -5.4 4.8 -1.2
v -5.4 4.8 -1.4
v -5.4 4.9 -0.1
v -5.4 4.9 -0.3
v -5.4 4.9 -1.2
v -5.4 4.9 -1.4
v -5.4 5 -0.3
v -5.4 5 -0.6
v -5.4 5 -0.9
v -5.4 5 -1.2
v -5.4 5.1 -0.3
v -5.4 5.1 -0.5
v -5.4 5.1 -0.6
v -5.4 5.1 -0.9
v -5.4 5.1 -1
v -5.4 5.1 -1.2
v -5.4 5.2 -0.3
v -5.4 5.2 -0.5
v -5.4 5.2 -1
v -5.4 5.2 -1.2
v -5.4 5.3 -0.1
v -5.4 5.3 -0.3
v -5.4 5.3 -1.2
v -5.4 5.3 -1.4
v -5.4 5.4 -0.1
v -5.4 5.4 -0.3
v -5.4 5.4 -1.2
v -5.4 5.4 -1.4
v -5.3 4.9 -0.1
v -5.3 4.9 -0.3
v -5.3 4.9 -1.2
v -5.3 4.9 -1.4
v -5.3 5 -0.1
v -5.3 5 -0.3
v -5.3 5 -1.2
v -5.3 5 -1.4
v -5.3 5.2 -0.1
v -5.3 5.2 -0.3
v -5.3 5.2 -1.2
v -5.3 5.2 -1.4
v -5.3 5.3 -0.1
v -5.3 5.3 -0.3
v -5.3 5.3 -1.2
v -5.3 5.3 -1.4
v -5.3 5.4 -0.5
v -5.3 5.4 -1
v -5.3 5.5 -0.5
v -5.3 5.5 -1
v -5.2 5 -0.1
v -5.2 5 -0.3
v -5.2 5 -1.2
v -5.2 5 -1.4
v -5.2 5.2 -0.1
v -5.2 5.2 -0.3
v -5.2 5.2 -1.2
v -5.2 5.2 -1.4
v -5.2 5.3 -0.5
v -5.2 5.3 -1
v -5.2 5.4 -0.5
v -5.2 5.4 -1
v -5 5.2 -0.5
v -5 5.2 -1
v -5 5.3 -0.5
v -5 5.3 -1
v -4.8 5.1 -0.4
v -4.8 5.1 -0.5
v -4.8 5.1 -1
v -4.8 5.1 -1.1
v -4.8 5.2 -0.4
v -4.8 5.2 -0.5
v -4.8 5.2 -1
v -4.8 5.2 -1.1
v -4.6 4.9 -0.2
v -4.6 4.9 -0.3
v -4.6 4.9 -1.2
v -4.6 4.9 -1.3
v -4.6 5.2 -0.2
v -4.6 5.2 -0.3
v -4.6 5.2 -1.2
v -4.6 5.2 -1.3
v -4.5 4.9 -0.3
v -4.5 4.9 -0.4
v -4.5 4.9 -1.1
v -4.5 4.9 -1.2
v -4.5 5 -0.3
v -4.5 5 -1.2
v -4.5 5.2 -0.2
v -4.5 5.2 -0.3
v -4.5 5.2 -0.4
v -4.5 5.2 -1.1
v -4.5 5.2 -1.2
v -4.5 5.2 -1.3
v -4.5 5.3 -0.2
v -4.5 5.3 -0.3
v -4.5 5.3 -0.4
v -4.5 5.3 -1.1
v -4.5 5.3 -1.2
v -4.5 5.3 -1.3
v -4.5 5.6 -0.4
v -4.5 5.6 -0.6
v -4.5 5.6 -1
v -4.5 5.6 -1.1
v -4.5 5.7 -0.5
v -4.5 5.7 -0.6
v -4.5 5.7 -0.9
v -4.5 5.8 -0.4
v -4.5 5.8 -0.5
v -4.5 5.8 -0.6
v -4.5 5.8 -0.9
v -4.5 5.8 -1
v -4.5 5.8 -1.1
v -4.4 5 -1.3
v -4.4 5 -1.4
v -4.4 5.1 -0.1
v -4.4 5.1 -0.2
v -4.4 5.1 -1.3
v -4.4 5.1 -1.4
v -4.4 5.2 -0.1
v -4.4 5.2 -0.2
v -4.4 5.2 -0.3
v -4.4 5.2 -0.4
v -4.4 5.2 -1.1
v -4.4 5.2 -1.2
v -4.4 5.3 -0.2
v -4.4 5.3 -0.3
v -4.4 5.3 -0.4
v -4.4 5.3 -1.1
v -4.4 5.3 -1.2
v -4.4 5.3 -1.3
v -4.4 5.4 -0.2
v -4.4 5.4 -0.3
v -4.4 5.4 -1.2
v -4.4 5.4 -1.3
v -4.3 4.9 -0.1
v -4.3 4.9 -0.2
v -4.3 5.1 -0.1
v -4.3 5.1 -0.2
v -4.3 5.1 -1.3
v -4.3 5.1 -1.4
v -4.3 5.3 -1.3
v -4.3 5.3 -1.4
v -4.3 5.4 -0.2
v -4.3 5.4 -0.3
v -4.3 5.4 -1.2
v -4.3 5.4 -1.3
v -4.3 5.5 -0.2
v -4.3 5.5 -0.3
v -4.3 5.5 -1.2
v -4.3 5.5 -1.3
v -4.3 5.7 -0.5
v -4.3 5.7 -0.6
v -4.3 5.7 -0.9
v -4.3 5.7 -1
v -4.3 5.9 -0.5
v -4.3 5.9 -1
v -4.2 4.9 -1.3
v -4.2 4.9 -1.4
v -4.2 5 -1.3
v -4.2 5 -1.4
v -4.2 5.2 -0.1
v -4.2 5.2 -0.2
v -4.2 5.3 -0.1
v -4.2 5.3 -0.2
v -4.1 4.8 -0.1
v -4.1 4.8 -0.3
v -4.1 4.8 -1.2
v -4.1 4.8 -1.4
v -4.1 4.9 -0.1
v -4.1 4.9 -0.3
v -4.1 4.9 -1.2
v -4.1 4.9 -1.4
v -4.1 5.3 -0.1
v -4.1 5.3 -0.3
v -4.1 5.3 -1.2
v -4.1 5.3 -1.4
v -4.1 5.4 -0.1
v -4.1 5.4 -0.2
v -4.1 5.4 -0.3
v -4.1 5.4 -1.2
v -4.1 5.4 -1.3
v -4.1 5.4 -1.4
v -4 4.9 -0.1
v -4 4.9 -0.3
v -4 4.9 -1.2
v -4 4.9 -1.4
v -4 5 -0.1
v -4 5 -0.3
v -4 5 -1.2
v -4 5 -1.4
v -4 5.2 -0.1
v -4 5.2 -0.3
v -4 5.2 -1.2
v -4 5.2 -1.4
v -4 5.3 -0.1
v -4 5.3 -0.2
v -4 5.3 -0.3
v -4 5.3 -1.2
v -4 5.3 -1.3
v -4 5.3 -1.4
v -4 5.5 -0.2
v -4 5.5 -0.5
v -4 5.5 -1
v -4 5.5 -1.3
v -4 5.6 -0.2
v -4 5.6 -0.5
v -4 5.6 -0.6
v -4 5.6 -0.9
v -4 5.6 -1
v -4 5.6 -1.3
v -4 5.8 -0.6
v -4 5.8 -0.9
v -4 5.9 -0.6
v -4 5.9 -0.9
v -4 6 -0.5
v -4 6 -1
v -3.9 5 -0.1
v -3.9 5 -0.3
v -3.9 5 -1.2
v -3.9 5 -1.4
v -3.9 5.2 -0.1
v -3.9 5.2 -0.2
v -3.9 5.2 -0.3
v -3.9 5.2 -1.2
v -3.9 5.2 -1.3
v -3.9 5.2 -1.4
v -3.9 5.4 -0.2
v -3.9 5.4 -0.5
v -3.9 5.4 -1
v -3.9 5.4 -1.3
v -3.9 5.5 -0.2
v -3.9 5.5 -0.5
v -3.9 5.5 -0.6
v -3.9 5.5 -0.9
v -3.9 5.5 -1
v -3.9 5.5 -1.3
v -3.9 5.6 -0.5
v -3.9 5.6 -0.6
v -3.9 5.6 -0.7
v -3.9 5.6 -0.8
v -3.9 5.6 -0.9
v -3.9 5.6 -1
v -3.9 5.7 -0.7
v -3.9 5.7 -0.8
v -3.9 5.8 -0.6
v -3.9 5.8 -0.9
v -3.8 5 -0.6
v -3.8 5 -0.9
v -3.8 5.3 -0.2
v -3.8 5.3 -0.3
v -3.8 5.3 -0.6
v -3.8 5.3 -0.7
v -3.8 5.3 -0.8
v -3.8 5.3 -0.9
v -3.8 5.3 -1.2
v -3.8 5.3 -1.3
v -3.8 5.4 -0.2
v -3.8 5.4 -0.3
v -3.8 5.4 -0.5
v -3.8 5.4 -0.6
v -3.8 5.4 -0.7
v -3.8 5.4 -0.8
v -3.8 5.4 -0.9
v -3.8 5.4 -1
v -3.8 5.4 -1.2
v -3.8 5.4 -1.3
v -3.8 5.5 -0.5
v -3.8 5.5 -0.6
v -3.8 5.5 -0.9
v -3.8 5.5 -1
v -3.8 5.6 -0.6
v -3.8 5.6 -0.7
v -3.8 5.6 -0.8
v -3.8 5.6 -0.9
v -3.8 5.7 -0.7
v -3.8 5.7 -0.8
v -3.7 4.9 -0.2
v -3.7 4.9 -0.5
v -3.7 4.9 -1
v -3.7 4.9 -1.3
v -3.7 5 -0.4
v -3.7 5 -0.5
v -3.7 5 -0.6
v -3.7 5 -0.9
v -3.7 5 -1
v -3.7 5 -1.1
v -3.7 5.2 -0.4
v -3.7 5.2 -0.5
v -3.7 5.2 -1
v -3.7 5.2 -1.1
v -3.7 5.3 -0.2
v -3.7 5.3 -0.3
v -3.7 5.3 -0.5
v -3.7 5.3 -0.6
v -3.7 5.3 -0.7
v -3.7 5.3 -0.8
v -3.7 5.3 -0.9
v -3.7 5.3 -1
v -3.7 5.3 -1.2
v -3.7 5.3 -1.3
v -3.7 5.4 -0.3
v -3.7 5.4 -0.5
v -3.7 5.4 -0.6
v -3.7 5.4 -0.7
v -3.7 5.4 -0.8
v -3.7 5.4 -0.9
v -3.7 5.4 -1
v -3.7 5.4 -1.2
v -3.7 5.5 -0.6
v -3.7 5.5 -0.9
v -5.8 5 -0.1
v -5.8 5.2 -0.1
v -5.7 4.9 -0.1
v -5.7 5 -0.1
v -5.7 5.1 -0.1
v -5.7 5.2 -0.1
v -5.7 5.3 -0.1
v -5.6 4.8 -0.1
v -5.6 4.9 -0.1
v -5.6 5.1 -0.1
v -5.6 5.3 -0.1
v -5.6 5.4 -0.1
v -5.5 4.9 -0.1
v -5.5 5 -0.1
v -5.5 5.2 -0.1
v -5.5 5.3 -0.1
v -5.4 4.8 -0.1
v -5.4 4.9 -0.1
v -5.4 5.1 -0.1
v -5.4 5.3 -0.1
v -5.4 5.4 -0.1
v -5.3 4.9 -0.1
v -5.3 5 -0.1
v -5.3 5.1 -0.1
v -5.3 5.2 -0.1
v -5.3 5.3 -0.1
v -5.2 5 -0.1
v -5.2 5.2 -0.1
v -4.5 5 -0.1
v -4.5 5.2 -0.1
v -4.4 4.9 -0.1
v -4.4 5 -0.1
v -4.4 5.1 -0.1
v -4.4 5.2 -0.1
v -4.4 5.3 -0.1
v -4.3 4.8 -0.1
v -4.3 4.9 -0.1
v -4.3 5.1 -0.1
v -4.3 5.3 -0.1
v -4.3 5.4 -0.1
v -4.2 4.9 -0.1
v -4.2 5 -0.1
v -4.2 5.2 -0.1
v -4.2 5.3 -0.1
v -4.1 4.8 -0.1
v -4.1 4.9 -0.1
v -4.1 5.1 -0.1
v -4.1 5.3 -0.1
v -4.1 5.4 -0.1
v -4 4.9 -0.1
v -4 5 -0.1
v -4 5.1 -0.1
v -4 5.2 -0.1
v -4 5.3 -0.1
v -3.9 5 -0.1
v -3.9 5.2 -0.1
v -5.7 5.1 -0.2
v -5.7 5.2 -0.2
v -5.6 4.9 -0.2
v -5.6 5.1 -0.2
v -5.5 4.9 -0.2
v -5.5 5 -0.2
v -5.5 5.2 -0.2
v -5.5 5.3 -0.2
v -5.4 5.1 -0.2
v -5.4 5.3 -0.2
v -5.3 5 -0.2
v -5.3 5.1 -0.2
v -4.7 4.9 -0.2
v -4.7 5.3 -0.2
v -4.6 4.9 -0.2
v -4.6 5.2 -0.2
v -4.6 5.3 -0.2
v -4.6 5.4 -0.2
v -4.5 5.2 -0.2
v -4.5 5.3 -0.2
v -4.5 5.4 -0.2
v -4.5 5.5 -0.2
v -4.4 5.1 -0.2
v -4.4 5.2 -0.2
v -4.4 5.3 -0.2
v -4.4 5.4 -0.2
v -4.4 5.5 -0.2
v -4.4 5.6 -0.2
v -4.3 4.9 -0.2
v -4.3 5.1 -0.2
v -4.3 5.4 -0.2
v -4.3 5.5 -0.2
v -4.2 4.9 -0.2
v -4.2 5 -0.2
v -4.2 5.2 -0.2
v -4.2 5.3 -0.2
v -4.1 5.1 -0.2
v -4.1 5.3 -0.2
v -4.1 5.4 -0.2
v -4.1 5.5 -0.2
v -4 5 -0.2
v -4 5.1 -0.2
v -4 5.3 -0.2
v -4 5.4 -0.2
v -4 5.5 -0.2
v -4 5.6 -0.2
v -3.9 5.2 -0.2
v -3.9 5.3 -0.2
v -3.9 5.4 -0.2
v -3.9 5.5 -0.2
v -3.8 4.9 -0.2
v -3.8 5.2 -0.2
v -3.8 5.3 -0.2
v -3.8 5.4 -0.2
v -3.7 4.9 -0.2
v -3.7 5.3 -0.2
v -4.6 4.9 -0.3
v -4.6 5.2 -0.3
v -4.5 4.9 -0.3
v -4.5 5 -0.3
v -4.5 5.2 -0.3
v -4.5 5.3 -0.3
v -4.4 5.2 -0.3
v -4.4 5.3 -0.3
v -4.4 5.4 -0.3
v -4.3 5.3 -0.3
v -4.3 5.4 -0.3
v -4.3 5.5 -0.3
v -4.1 5.3 -0.3
v -4.1 5.4 -0.3
v -4.1 5.5 -0.3
v -4 5.2 -0.3
v -4 5.3 -0.3
v -4 5.4 -0.3
v -3.9 4.9 -0.3
v -3.9 5 -0.3
v -3.9 5.2 -0.3
v -3.9 5.3 -0.3
v -3.8 4.9 -0.3
v -3.8 5.2 -0.3
v -3.8 5.3 -0.3
v -3.8 5.4 -0.3
v -3.7 5.3 -0.3
v -3.7 5.4 -0.3
v -5.9 5.6 -0.4
v -5.9 5.8 -0.4
v -5.8 5.5 -0.4
v -5.8 5.6 -0.4
v -5.7 5.4 -0.4
v -5.7 5.5 -0.4
v -5.7 5.6 -0.4
v -5.7 5.7 -0.4
v -5.5 5.5 -0.4
v -5.5 5.6 -0.4
v -5.5 5.7 -0.4
v -5.4 5.3 -0.4
v -5.4 5.4 -0.4
v -5.4 5.5 -0.4
v -5.4 5.6 -0.4
v -5.4 5.7 -0.4
v -5.3 5.2 -0.4
v -5.3 5.3 -0.4
v -5.3 5.5 -0.4
v -5.3 5.6 -0.4
v -5.3 5.7 -0.4
v -5.2 5.3 -0.4
v -5.2 5.5 -0.4
v -5.2 5.6 -0.4
v -5.2 5.7 -0.4
v -5.1 5.1 -0.4
v -5.1 5.2 -0.4
v -5.1 5.3 -0.4
v -5.1 5.5 -0.4
v -5 5.2 -0.4
v -5 5.5 -0.4
v -5 5.6 -0.4
v -4.9 5.2 -0.4
v -4.9 5.3 -0.4
v -4.9 5.5 -0.4
v -4.9 5.6 -0.4
v -4.8 5.1 -0.4
v -4.8 5.2 -0.4
v -4.8 5.3 -0.4
v -4.8 5.6 -0.4
v -4.7 5.2 -0.4
v -4.7 5.3 -0.4
v -4.7 5.5 -0.4
v -4.7 5.6 -0.4
v -4.7 5.7 -0.4
v -4.6 5.3 -0.4
v -4.6 5.4 -0.4
v -4.6 5.5 -0.4
v -4.6 5.6 -0.4
v -4.5 5.4 -0.4
v -4.5 5.5 -0.4
v -4.5 5.6 -0.4
v -4.5 5.8 -0.4
v -4.4 5.5 -0.4
v -4.4 5.6 -0.4
v -5.7 5.2 -0.5
v -5.7 5.3 -0.5
v -5.7 5.4 -0.5
v -5.6 5.2 -0.5
v -5.6 5.3 -0.5
v -5.4 5.1 -0.5
v -5.4 5.2 -0.5
v -5.4 5.3 -0.5
v -5.4 5.4 -0.5
v -5.3 5.2 -0.5
v -5.3 5.3 -0.5
v -5.1 5.1 -0.5
v -5.1 5.2 -0.5
v -4.8 5.1 -0.5
v -4.8 5.2 -0.5
v -4.6 5.1 -0.5
v -4.6 5.2 -0.5
v -4.5 5.7 -0.5
v -4.5 5.8 -0.5
v -4.5 5.9 -0.5
v -4.4 5.6 -0.5
v -4.4 5.7 -0.5
v -4.4 5.9 -0.5
v -4.4 6 -0.5
v -4.3 5.7 -0.5
v -4.3 5.9 -0.5
v -4.1 5.7 -0.5
v -4.1 5.9 -0.5
v -4 5.5 -0.5
v -4 5.6 -0.5
v -4 6 -0.5
v -3.9 5.4 -0.5
v -3.9 5.5 -0.5
v -3.9 5.6 -0.5
v -3.8 5.4 -0.5
v -3.8 5.5 -0.5
v -5.7 5.1 -0.6
v -5.7 5.2 -0.6
v -5.6 5 -0.6
v -5.6 5.1 -0.6
v -5.6 5.2 -0.6
v -5.5 5 -0.6
v -5.5 5.1 -0.6
v -5.4 5 -0.6
v -5.4 5.1 -0.6
v -5.1 5.1 -0.6
v -4.8 5.1 -0.6
v -4.6 5 -0.6
v -4.6 5.1 -0.6
v -4.5 5.6 -0.6
v -4.5 5.7 -0.6
v -4.4 5.6 -0.6
v -4.4 5.7 -0.6
v -4 5.6 -0.6
v -4 5.8 -0.6
v -3.9 5.5 -0.6
v -3.9 5.6 -0.6
v -3.9 5.8 -0.6
v -3.8 5.4 -0.6
v -3.8 5.5 -0.6
v -3.8 5.6 -0.6
v -3.7 5.4 -0.6
v -3.7 5.5 -0.6
v -3.9 5.6 -0.7
v -3.9 5.7 -0.7
v -3.8 5.6 -0.7
v -3.8 5.7 -0.7
v -4.8 5.4 -0.8
v -4.8 5.5 -0.8
v -4.7 5.4 -0.8
v -4.7 5.5 -0.8
v -4.1 5.7 -0.8
v -4.1 5.8 -0.8
v -4 5.7 -0.8
v -4 5.8 -0.8
v -3.8 5.3 -0.8
v -3.8 5.4 -0.8
v -3.7 5.3 -0.8
v -3.7 5.4 -0.8
v -4.8 5.5 -0.9
v -4.8 5.6 -0.9
v -4.7 5.5 -0.9
v -4.7 5.6 -0.9
v -4.5 5.7 -0.9
v -4.5 5.8 -0.9
v -4.5 5.9 -0.9
v -4.4 5.7 -0.9
v -4.4 5.9 -0.9
v -4.4 6 -0.9
v -4.3 5.9 -0.9
v -4.3 6 -0.9
v -4.1 5.8 -0.9
v -4.1 5.9 -0.9
v -4 5.8 -0.9
v -4 5.9 -0.9
v -3.8 5 -0.9
v -3.8 5.3 -0.9
v -3.7 5 -0.9
v -3.7 5.3 -0.9
v -5.8 5.7 -1
v -5.8 5.8 -1
v -5.6 5.5 -1
v -5.6 5.6 -1
v -5.6 5.7 -1
v -5.5 5.5 -1
v -5.5 5.6 -1
v -5.5 5.7 -1
v -5.4 5.5 -1
v -5.4 5.6 -1
v -5.4 5.7 -1
v -5.3 5.4 -1
v -5.3 5.5 -1
v -5.3 5.6 -1
v -5.3 5.7 -1
v -5.2 5.3 -1
v -5.2 5.4 -1
v -5.2 5.5 -1
v -5.2 5.6 -1
v -5.2 5.7 -1
v -5.1 5.3 -1
v -5.1 5.5 -1
v -5 5.2 -1
v -5 5.3 -1
v -5 5.5 -1
v -5 5.6 -1
v -4.9 5.2 -1
v -4.9 5.3 -1
v -4.9 5.5 -1
v -4.9 5.6 -1
v -4.8 5.3 -1
v -4.8 5.6 -1
v -4.7 5.6 -1
v -4.7 5.7 -1
v -4.6 5.7 -1
v -4.6 5.8 -1
v -4.7 4.9 -1.1
v -4.7 5.2 -1.1
v -4.6 4.9 -1.1
v -4.6 5.2 -1.1
v -4.5 5.2 -1.1
v -4.5 5.3 -1.1
v -4.4 5.2 -1.1
v -4.4 5.3 -1.1
v -5.8 5 -1.2
v -5.8 5.2 -1.2
v -5.7 4.9 -1.2
v -5.7 5 -1.2
v -5.7 5.1 -1.2
v -5.7 5.2 -1.2
v -5.7 5.3 -1.2
v -5.6 4.8 -1.2
v -5.6 4.9 -1.2
v -5.6 5.1 -1.2
v -5.6 5.2 -1.2
v -5.6 5.3 -1.2
v -5.6 5.4 -1.2
v -5.5 4.9 -1.2
v -5.5 5 -1.2
v -5.5 5.1 -1.2
v -5.5 5.2 -1.2
v -5.5 5.3 -1.2
v -5.4 4.8 -1.2
v -5.4 4.9 -1.2
v -5.4 5 -1.2
v -5.4 5.1 -1.2
v -5.4 5.2 -1.2
v -5.4 5.3 -1.2
v -5.4 5.4 -1.2
v -5.3 4.9 -1.2
v -5.3 5 -1.2
v -5.3 5.1 -1.2
v -5.3 5.2 -1.2
v -5.3 5.3 -1.2
v -5.2 5 -1.2
v -5.2 5.2 -1.2
v -4.5 5 -1.2
v -4.5 5.2 -1.2
v -4.4 4.9 -1.2
v -4.4 5 -1.2
v -4.4 5.1 -1.2
v -4.4 5.2 -1.2
v -4.4 5.3 -1.2
v -4.3 4.8 -1.2
v -4.3 4.9 -1.2
v -4.3 5.1 -1.2
v -4.3 5.3 -1.2
v -4.2 4.9 -1.2
v -4.2 5 -1.2
v -4.2 5.2 -1.2
v -4.2 5.3 -1.2
v -4.1 4.8 -1.2
v -4.1 4.9 -1.2
v -4.1 5.1 -1.2
v -4.1 5.3 -1.2
v -4 4.9 -1.2
v -4 5 -1.2
v -4 5.1 -1.2
v -4 5.2 -1.2
v -4 5.3 -1.2
v -3.9 5 -1.2
v -3.9 5.2 -1.2
v -5.8 5 -0.3
v -5.8 5.2 -0.3
v -5.7 4.9 -0.3
v -5.7 5 -0.3
v -5.7 5.1 -0.3
v -5.7 5.2 -0.3
v -5.7 5.3 -0.3
v -5.6 4.8 -0.3
v -5.6 4.9 -0.3
v -5.6 5.1 -0.3
v -5.6 5.2 -0.3
v -5.6 5.3 -0.3
v -5.6 5.4 -0.3
v -5.5 4.9 -0.3
v -5.5 5 -0.3
v -5.5 5.1 -0.3
v -5.5 5.2 -0.3
v -5.5 5.3 -0.3
v -5.4 4.8 -0.3
v -5.4 4.9 -0.3
v -5.4 5 -0.3
v -5.4 5.1 -0.3
v -5.4 5.2 -0.3
v -5.4 5.3 -0.3
v -5.4 5.4 -0.3
v -5.3 4.9 -0.3
v -5.3 5 -0.3
v -5.3 5.1 -0.3
v -5.3 5.2 -0.3
v -5.3 5.3 -0.3
v -5.2 5 -0.3
v -5.2 5.2 -0.3
v -4.5 5 -0.3
v -4.5 5.2 -0.3
v -4.4 4.9 -0.3
v -4.4 5 -0.3
v -4.4 5.1 -0.3
v -4.4 5.2 -0.3
v -4.4 5.3 -0.3
v -4.3 4.8 -0.3
v -4.3 4.9 -0.3
v -4.3 5.1 -0.3
v -4.3 5.3 -0.3
v -4.2 4.9 -0.3
v -4.2 5 -0.3
v -4.2 5.2 -0.3
v -4.2 5.3 -0.3
v -4.1 4.8 -0.3
v -4.1 4.9 -0.3
v -4.1 5.1 -0.3
v -4.1 5.3 -0.3
v -4 4.9 -0.3
v -4 5 -0.3
v -4 5.1 -0.3
v -4 5.2 -0.3
v -4 5.3 -0.3
v -3.9 5 -0.3
v -3.9 5.2 -0.3
v -4.7 4.9 -0.4
v -4.7 5.2 -0.4
v -4.6 4.9 -0.4
v -4.6 5.2 -0.4
v -4.5 5.2 -0.4
v -4.5 5.3 -0.4
v -4.4 5.2 -0.4
v -4.4 5.3 -0.4
v -5.8 5.7 -0.5
v -5.8 5.8 -0.5
v -5.6 5.5 -0.5
v -5.6 5.6 -0.5
v -5.6 5.7 -0.5
v -5.5 5.5 -0.5
v -5.5 5.6 -0.5
v -5.5 5.7 -0.5
v -5.4 5.5 -0.5
v -5.4 5.6 -0.5
v -5.4 5.7 -0.5
v -5.3 5.4 -0.5
v -5.3 5.5 -0.5
v -5.3 5.6 -0.5
v -5.3 5.7 -0.5
v -5.2 5.3 -0.5
v -5.2 5.4 -0.5
v -5.2 5.5 -0.5
v -5.2 5.6 -0.5
v -5.2 5.7 -0.5
v -5.1 5.3 -0.5
v -5.1 5.5 -0.5
v -5 5.2 -0.5
v -5 5.3 -0.5
v -5 5.5 -0.5
v -5 5.6 -0.5
v -4.9 5.2 -0.5
v -4.9 5.3 -0.5
v -4.9 5.5 -0.5
v -4.9 5.6 -0.5
v -4.8 5.3 -0.5
v -4.8 5.6 -0.5
v -4.7 5.6 -0.5
v -4.7 5.7 -0.5
v -4.6 5.7 -0.5
v -4.6 5.8 -0.5
v -4.8 5.5 -0.6
v -4.8 5.6 -0.6
v -4.7 5.5 -0.6
v -4.7 5.6 -0.6
v -4.5 5.7 -0.6
v -4.5 5.8 -0.6
v -4.5 5.9 -0.6
v -4.4 5.7 -0.6
v -4.4 5.9 -0.6
v -4.4 6 -0.6
v -4.3 5.9 -0.6
v -4.3 6 -0.6
v -4.1 5.8 -0.6
v -4.1 5.9 -0.6
v -4 5.8 -0.6
v -4 5.9 -0.6
v -3.8 5 -0.6
v -3.8 5.3 -0.6
v -3.7 5 -0.6
v -3.7 5.3 -0.6
v -4.8 5.4 -0.7
v -4.8 5.5 -0.7
v -4.7 5.4 -0.7
v -4.7 5.5 -0.7
v -4.1 5.7 -0.7
v -4.1 5.8 -0.7
v -4 5.7 -0.7
v -4 5.8 -0.7
v -3.8 5.3 -0.7
v -3.8 5.4 -0.7
v -3.7 5.3 -0.7
v -3.7 5.4 -0.7
v -3.9 5.6 -0.8
v -3.9 5.7 -0.8
v -3.8 5.6 -0.8
v -3.8 5.7 -0.8
v -5.7 5.1 -0.9
v -5.7 5.2 -0.9
v -5.6 5 -0.9
v -5.6 5.1 -0.9
v -5.6 5.2 -0.9
v -5.5 5 -0.9
v -5.5 5.1 -0.9
v -5.4 5 -0.9
v -5.4 5.1 -0.9
v -5.1 5.1 -0.9
v -4.8 5.1 -0.9
v -4.6 5 -0.9
v -4.6 5.1 -0.9
v -4 5.6 -0.9
v -4 5.8 -0.9
v -3.9 5.5 -0.9
v -3.9 5.6 -0.9
v -3.9 5.8 -0.9
v -3.8 5.4 -0.9
v -3.8 5.5 -0.9
v -3.8 5.6 -0.9
v -3.7 5.4 -0.9
v -3.7 5.5 -0.9
v -5.7 5.2 -1
v -5.7 5.3 -1
v -5.7 5.4 -1
v -5.6 5.2 -1
v -5.6 5.3 -1
v -5.4 5.1 -1
v -5.4 5.2 -1
v -5.4 5.3 -1
v -5.4 5.4 -1
v -5.3 5.2 -1
v -5.3 5.3 -1
v -5.1 5.1 -1
v -5.1 5.2 -1
v -4.8 5.1 -1
v -4.8 5.2 -1
v -4.6 5.1 -1
v -4.6 5.2 -1
v -4.5 5.6 -1
v -4.5 5.8 -1
v -4.5 5.9 -1
v -4.4 5.9 -1
v -4.4 6 -1
v -4.3 5.7 -1
v -4.3 5.9 -1
v -4.1 5.7 -1
v -4.1 5.9 -1
v -4 5.5 -1
v -4 5.6 -1
v -4 6 -1
v -3.9 5.4 -1
v -3.9 5.5 -1
v -3.9 5.6 -1
v -3.8 5.4 -1
v -3.8 5.5 -1
v -5.9 5.6 -1.1
v -5.9 5.8 -1.1
v -5.8 5.5 -1.1
v -5.8 5.6 -1.1
v -5.7 5.4 -1.1
v -5.7 5.5 -1.1
v -5.7 5.6 -1.1
v -5.7 5.7 -1.1
v -5.5 5.5 -1.1
v -5.5 5.6 -1.1
v -5.5 5.7 -1.1
v -5.4 5.3 -1.1
v -5.4 5.4 -1.1
v -5.4 5.5 -1.1
v -5.4 5.6 -1.1
v -5.4 5.7 -1.1
v -5.3 5.2 -1.1
v -5.3 5.3 -1.1
v -5.3 5.5 -1.1
v -5.3 5.6 -1.1
v -5.3 5.7 -1.1
v -5.2 5.3 -1.1
v -5.2 5.5 -1.1
v -5.2 5.6 -1.1
v -5.2 5.7 -1.1
v -5.1 5.1 -1.1
v -5.1 5.2 -1.1
v -5.1 5.3 -1.1
v -5.1 5.5 -1.1
v -5 5.2 -1.1
v -5 5.5 -1.1
v -5 5.6 -1.1
v -4.9 5.2 -1.1
v -4.9 5.3 -1.1
v -4.9 5.5 -1.1
v -4.9 5.6 -1.1
v -4.8 5.1 -1.1
v -4.8 5.2 -1.1
v -4.8 5.3 -1.1
v -4.8 5.4 -1.1
v -4.8 5.5 -1.1
v -4.8 5.6 -1.1
v -4.7 5.2 -1.1
v -4.7 5.3 -1.1
v -4.7 5.4 -1.1
v -4.7 5.5 -1.1
v -4.7 5.6 -1.1
v -4.7 5.7 -1.1
v -4.6 5.3 -1.1
v -4.6 5.4 -1.1
v -4.6 5.5 -1.1
v -4.6 5.6 -1.1
v -4.5 5.4 -1.1
v -4.5 5.5 -1.1
v -4.5 5.6 -1.1
v -4.5 5.8 -1.1
v -4.4 5.5 -1.1
v -4.4 5.6 -1.1
v -4.6 4.9 -1.2
v -4.6 5.2 -1.2
v -4.5 4.9 -1.2
v -4.5 5 -1.2
v -4.5 5.2 -1.2
v -4.5 5.3 -1.2
v -4.4 5.2 -1.2
v -4.4 5.3 -1.2
v -4.4 5.4 -1.2
v -4.3 5.3 -1.2
v -4.3 5.4 -1.2
v -4.3 5.5 -1.2
v -4.1 5.3 -1.2
v -4.1 5.4 -1.2
v -4.1 5.5 -1.2
v -4 5.2 -1.2
v -4 5.3 -1.2
v -4 5.4 -1.2
v -3.9 4.9 -1.2
v -3.9 5 -1.2
v -3.9 5.2 -1.2
v -3.9 5.3 -1.2
v -3.8 4.9 -1.2
v -3.8 5.2 -1.2
v -3.8 5.3 -1.2
v -3.8 5.4 -1.2
v -3.7 5.3 -1.2
v -3.7 5.4 -1.2
v -5.7 5 -1.3
v -5.7 5.1 -1.3
v -5.6 5.1 -1.3
v -5.6 5.3 -1.3
v -5.5 4.9 -1.3
v -5.5 5 -1.3
v -5.5 5.2 -1.3
v -5.5 5.3 -1.3
v -5.4 4.9 -1.3
v -5.4 5.1 -1.3
v -5.3 5.1 -1.3
v -5.3 5.2 -1.3
v -4.7 4.9 -1.3
v -4.7 5.3 -1.3
v -4.6 4.9 -1.3
v -4.6 5.2 -1.3
v -4.6 5.3 -1.3
v -4.6 5.4 -1.3
v -4.5 5.2 -1.3
v -4.5 5.3 -1.3
v -4.5 5.4 -1.3
v -4.5 5.5 -1.3
v -4.4 5 -1.3
v -4.4 5.1 -1.3
v -4.4 5.3 -1.3
v -4.4 5.4 -1.3
v -4.4 5.5 -1.3
v -4.4 5.6 -1.3
v -4.3 5.1 -1.3
v -4.3 5.3 -1.3
v -4.3 5.4 -1.3
v -4.3 5.5 -1.3
v -4.2 4.9 -1.3
v -4.2 5 -1.3
v -4.2 5.2 -1.3
v -4.2 5.3 -1.3
v -4.1 4.9 -1.3
v -4.1 5.1 -1.3
v -4.1 5.4 -1.3
v -4.1 5.5 -1.3
v -4 5.1 -1.3
v -4 5.2 -1.3
v -4 5.3 -1.3
v -4 5.4 -1.3
v -4 5.5 -1.3
v -4 5.6 -1.3
v -3.9 5.2 -1.3
v -3.9 5.3 -1.3
v -3.9 5.4 -1.3
v -3.9 5.5 -1.3
v -3.8 4.9 -1.3
v -3.8 5.2 -1.3
v -3.8 5.3 -1.3
v -3.8 5.4 -1.3
v -3.7 4.9 -1.3
v -3.7 5.3 -1.3
v -5.8 5 -1.4
v -5.8 5.2 -1.4
v -5.7 4.9 -1.4
v -5.7 5 -1.4
v -5.7 5.1 -1.4
v -5.7 5.2 -1.4
v -5.7 5.3 -1.4
v -5.6 4.8 -1.4
v -5.6 4.9 -1.4
v -5.6 5.1 -1.4
v -5.6 5.3 -1.4
v -5.6 5.4 -1.4
v -5.5 4.9 -1.4
v -5.5 5 -1.4
v -5.5 5.2 -1.4
v -5.5 5.3 -1.4
v -5.4 4.8 -1.4
v -5.4 4.9 -1.4
v -5.4 5.1 -1.4
v -5.4 5.3 -1.4
v -5.4 5.4 -1.4
v -5.3 4.9 -1.4
v -5.3 5 -1.4
v -5.3 5.1 -1.4
v -5.3 5.2 -1.4
v -5.3 5.3 -1.4
v -5.2 5 -1.4
v -5.2 5.2 -1.4
v -4.5 5 -1.4
v -4.5 5.2 -1.4
v -4.4 4.9 -1.4
v -4.4 5 -1.4
v -4.4 5.1 -1.4
v -4.4 5.2 -1.4
v -4.4 5.3 -1.4
v -4.3 4.8 -1.4
v -4.3 4.9 -1.4
v -4.3 5.1 -1.4
v -4.3 5.3 -1.4
v -4.3 5.4 -1.4
v -4.2 4.9 -1.4
v -4.2 5 -1.4
v -4.2 5.2 -1.4
v -4.2 5.3 -1.4
v -4.1 4.8 -1.4
v -4.1 4.9 -1.4
v -4.1 5.1 -1.4
v -4.1 5.3 -1.4
v -4.1 5.4 -1.4
v -4 4.9 -1.4
v -4 5 -1.4
v -4 5.1 -1.4
v -4 5.2 -1.4
v -4 5.3 -1.4
v -3.9 5 -1.4
v -3.9 5.2 -1.4
v -5.6 4.8 -0.1
v -5.4 4.8 -0.1
v -4.3 4.8 -0.1
v -4.1 4.8 -0.1
v -5.6 4.8 -0.3
v -5.4 4.8 -0.3
v -4.3 4.8 -0.3
v -4.1 4.8 -0.3
v -5.6 4.8 -1.2
v -5.4 4.8 -1.2
v -4.3 4.8 -1.2
v -4.1 4.8 -1.2
v -5.6 4.8 -1.4
v -5.4 4.8 -1.4
v -4.3 4.8 -1.4
v -4.1 4.8 -1.4
v -5.7 4.9 -0.1
v -5.6 4.9 -0.1
v -5.4 4.9 -0.1
v -5.3 4.9 -0.1
v -4.4 4.9 -0.1
v -4.3 4.9 -0.1
v -4.1 4.9 -0.1
v -4 4.9 -0.1
v -4.7 4.9 -0.2
v -4.6 4.9 -0.2
v -3.8 4.9 -0.2
v -3.7 4.9 -0.2
v -5.7 4.9 -0.3
v -5.6 4.9 -0.3
v -5.4 4.9 -0.3
v -5.3 4.9 -0.3
v -4.6 4.9 -0.3
v -4.5 4.9 -0.3
v -4.4 4.9 -0.3
v -4.3 4.9 -0.3
v -4.1 4.9 -0.3
v -4 4.9 -0.3
v -3.9 4.9 -0.3
v -3.8 4.9 -0.3
v -4.7 4.9 -0.4
v -4.6 4.9 -0.4
v -4.5 4.9 -0.4
v -3.9 4.9 -0.4
v -3.8 4.9 -0.4
v -3.8 4.9 -0.5
v -3.7 4.9 -0.5
v -3.8 4.9 -1
v -3.7 4.9 -1
v -4.7 4.9 -1.1
v -4.6 4.9 -1.1
v -4.5 4.9 -1.1
v -3.9 4.9 -1.1
v -3.8 4.9 -1.1
v -5.7 4.9 -1.2
v -5.6 4.9 -1.2
v -5.4 4.9 -1.2
v -5.3 4.9 -1.2
v -4.6 4.9 -1.2
v -4.5 4.9 -1.2
v -4.4 4.9 -1.2
v -4.3 4.9 -1.2
v -4.1 4.9 -1.2
v -4 4.9 -1.2
v -3.9 4.9 -1.2
v -3.8 4.9 -1.2
v -4.7 4.9 -1.3
v -4.6 4.9 -1.3
v -3.8 4.9 -1.3
v -3.7 4.9 -1.3
v -5.7 4.9 -1.4
v -5.6 4.9 -1.4
v -5.4 4.9 -1.4
v -5.3 4.9 -1.4
v -4.4 4.9 -1.4
v -4.3 4.9 -1.4
v -4.1 4.9 -1.4
v -4 4.9 -1.4
v -5.8 5 -0.1
v -5.7 5 -0.1
v -5.3 5 -0.1
v -5.2 5 -0.1
v -4.5 5 -0.1
v -4.4 5 -0.1
v -4 5 -0.1
v -3.9 5 -0.1
v -5.8 5 -0.3
v -5.7 5 -0.3
v -5.5 5 -0.3
v -5.4 5 -0.3
v -5.3 5 -0.3
v -5.2 5 -0.3
v -4.5 5 -0.3
v -4.4 5 -0.3
v -4 5 -0.3
v -3.9 5 -0.3
v -5.6 5 -0.6
v -5.5 5 -0.6
v -5.4 5 -0.6
v -4.6 5 -0.6
v -5.6 5 -0.9
v -5.5 5 -0.9
v -5.4 5 -0.9
v -4.6 5 -0.9
v -5.8 5 -1.2
v -5.7 5 -1.2
v -5.5 5 -1.2
v -5.4 5 -1.2
v -5.3 5 -1.2
v -5.2 5 -1.2
v -4.5 5 -1.2
v -4.4 5 -1.2
v -4 5 -1.2
v -3.9 5 -1.2
v -5.8 5 -1.4
v -5.7 5 -1.4
v -5.3 5 -1.4
v -5.2 5 -1.4
v -4.5 5 -1.4
v -4.4 5 -1.4
v -4 5 -1.4
v -3.9 5 -1.4
v -5.4 5.1 -0.1
v -5.3 5.1 -0.1
v -4.1 5.1 -0.1
v -4 5.1 -0.1
v -5.4 5.1 -0.2
v -5.3 5.1 -0.2
v -4.1 5.1 -0.2
v -4 5.1 -0.2
v -5.6 5.1 -0.3
v -5.5 5.1 -0.3
v -5.1 5.1 -0.4
v -4.8 5.1 -0.4
v -5.4 5.1 -0.5
v -5.1 5.1 -0.5
v -4.8 5.1 -0.5
v -4.6 5.1 -0.5
v -5.7 5.1 -0.6
v -5.6 5.1 -0.6
v -5.5 5.1 -0.6
v -5.4 5.1 -0.6
v -5.1 5.1 -0.6
v -4.8 5.1 -0.6
v -4.6 5.1 -0.6
v -5.7 5.1 -0.9
v -5.6 5.1 -0.9
v -5.5 5.1 -0.9
v -5.4 5.1 -0.9
v -5.1 5.1 -0.9
v -4.8 5.1 -0.9
v -4.6 5.1 -0.9
v -5.4 5.1 -1
v -5.1 5.1 -1
v -4.8 5.1 -1
v -4.6 5.1 -1
v -5.1 5.1 -1.1
v -4.8 5.1 -1.1
v -5.6 5.1 -1.2
v -5.5 5.1 -1.2
v -5.7 5.1 -1.3
v -5.6 5.1 -1.3
v -4.4 5.1 -1.3
v -4.3 5.1 -1.3
v -5.7 5.1 -1.4
v -5.6 5.1 -1.4
v -4.4 5.1 -1.4
v -4.3 5.1 -1.4
v -5.7 5.2 -0.1
v -5.5 5.2 -0.1
v -4.4 5.2 -0.1
v -4.2 5.2 -0.1
v -5.7 5.2 -0.2
v -5.5 5.2 -0.2
v -4.6 5.2 -0.2
v -4.5 5.2 -0.2
v -4.4 5.2 -0.2
v -4.2 5.2 -0.2
v -3.9 5.2 -0.2
v -3.8 5.2 -0.2
v -4.6 5.2 -0.3
v -4.5 5.2 -0.3
v -4.4 5.2 -0.3
v -4 5.2 -0.3
v -3.9 5.2 -0.3
v -3.8 5.2 -0.3
v -5.3 5.2 -0.4
v -5.1 5.2 -0.4
v -4.8 5.2 -0.4
v -4.7 5.2 -0.4
v -4.6 5.2 -0.4
v -4.5 5.2 -0.4
v -4.4 5.2 -0.4
v -4 5.2 -0.4
v -3.9 5.2 -0.4
v -5.7 5.2 -0.5
v -5.6 5.2 -0.5
v -5.3 5.2 -0.5
v -5.1 5.2 -0.5
v -4.8 5.2 -0.5
v -4.6 5.2 -0.5
v -5.7 5.2 -0.6
v -5.6 5.2 -0.6
v -3.9 5.2 -0.6
v -5.7 5.2 -0.9
v -5.6 5.2 -0.9
v -3.9 5.2 -0.9
v -5.7 5.2 -1
v -5.6 5.2 -1
v -5.3 5.2 -1
v -5.1 5.2 -1
v -4.8 5.2 -1
v -4.6 5.2 -1
v -5.3 5.2 -1.1
v -5.1 5.2 -1.1
v -4.8 5.2 -1.1
v -4.7 5.2 -1.1
v -4.6 5.2 -1.1
v -4.5 5.2 -1.1
v -4.4 5.2 -1.1
v -4 5.2 -1.1
v -3.9 5.2 -1.1
v -4.6 5.2 -1.2
v -4.5 5.2 -1.2
v -4.4 5.2 -1.2
v -4 5.2 -1.2
v -3.9 5.2 -1.2
v -3.8 5.2 -1.2
v -5.5 5.2 -1.3
v -5.3 5.2 -1.3
v -4.6 5.2 -1.3
v -4.5 5.2 -1.3
v -4.2 5.2 -1.3
v -4 5.2 -1.3
v -3.9 5.2 -1.3
v -3.8 5.2 -1.3
v -5.5 5.2 -1.4
v -5.3 5.2 -1.4
v -4.2 5.2 -1.4
v -4 5.2 -1.4
v -5.5 5.3 -0.1
v -5.4 5.3 -0.1
v -4.2 5.3 -0.1
v -4.1 5.3 -0.1
v -5.5 5.3 -0.2
v -5.4 5.3 -0.2
v -4.5 5.3 -0.2
v -4.4 5.3 -0.2
v -4.2 5.3 -0.2
v -4.1 5.3 -0.2
v -4 5.3 -0.2
v -3.9 5.3 -0.2
v -4.5 5.3 -0.3
v -4.4 5.3 -0.3
v -4.3 5.3 -0.3
v -4.2 5.3 -0.3
v -4.1 5.3 -0.3
v -4 5.3 -0.3
v -3.9 5.3 -0.3
v -5.4 5.3 -0.4
v -5.3 5.3 -0.4
v -4.5 5.3 -0.4
v -4.4 5.3 -0.4
v -4.3 5.3 -0.4
v -4.1 5.3 -0.4
v -4 5.3 -0.4
v -5.4 5.3 -0.5
v -5.3 5.3 -0.5
v -3.8 5.3 -0.6
v -3.7 5.3 -0.6
v -3.8 5.3 -0.7
v -3.7 5.3 -0.7
v -3.8 5.3 -0.8
v -3.7 5.3 -0.8
v -3.8 5.3 -0.9
v -3.7 5.3 -0.9
v -5.4 5.3 -1
v -5.3 5.3 -1
v -5.4 5.3 -1.1
v -5.3 5.3 -1.1
v -4.5 5.3 -1.1
v -4.4 5.3 -1.1
v -4.3 5.3 -1.1
v -4.1 5.3 -1.1
v -4 5.3 -1.1
v -4.5 5.3 -1.2
v -4.4 5.3 -1.2
v -4.3 5.3 -1.2
v -4.2 5.3 -1.2
v -4.1 5.3 -1.2
v -4 5.3 -1.2
v -3.9 5.3 -1.2
v -5.6 5.3 -1.3
v -5.5 5.3 -1.3
v -4.5 5.3 -1.3
v -4.4 5.3 -1.3
v -4.3 5.3 -1.3
v -4.2 5.3 -1.3
v -4 5.3 -1.3
v -3.9 5.3 -1.3
v -5.6 5.3 -1.4
v -5.5 5.3 -1.4
v -4.3 5.3 -1.4
v -4.2 5.3 -1.4
v -4.4 5.4 -0.2
v -4.3 5.4 -0.2
v -4.1 5.4 -0.2
v -4 5.4 -0.2
v -4.4 5.4 -0.3
v -4.3 5.4 -0.3
v -4.1 5.4 -0.3
v -4 5.4 -0.3
v -5.7 5.4 -0.4
v -5.4 5.4 -0.4
v -5.7 5.4 -0.5
v -5.4 5.4 -0.5
v -3.8 5.4 -0.7
v -3.7 5.4 -0.7
v -3.8 5.4 -0.8
v -3.7 5.4 -0.8
v -5.7 5.4 -1
v -5.4 5.4 -1
v -5.7 5.4 -1.1
v -5.4 5.4 -1.1
v -4.4 5.4 -1.2
v -4.3 5.4 -1.2
v -4.1 5.4 -1.2
v -4 5.4 -1.2
v -4.4 5.4 -1.3
v -4.3 5.4 -1.3
v -4.1 5.4 -1.3
v -4 5.4 -1.3
v -4.3 5.5 -0.2
v -4.1 5.5 -0.2
v -4.3 5.5 -0.3
v -4.1 5.5 -0.3
v -5.8 5.5 -0.4
v -5.7 5.5 -0.4
v -5.8 5.5 -1.1
v -5.7 5.5 -1.1
v -4.3 5.5 -1.2
v -4.1 5.5 -1.2
v -4.3 5.5 -1.3
v -4.1 5.5 -1.3
v -5.9 5.6 -0.4
v -5.8 5.6 -0.4
v -5.9 5.6 -1.1
v -5.8 5.6 -1.1
v -4.5 5.7 -0.5
v -4.4 5.7 -0.5
v -4.5 5.7 -0.6
v -4.4 5.7 -0.6
v -4.3 5.9 -0.5
v -4.1 5.9 -0.5
v -4.1 5.9 -0.6
v -4 5.9 -0.6
v -4.1 5.9 -0.9
v -4 5.9 -0.9
v -4.3 5.9 -1
v -4.1 5.9 -1
v -5.6 4.9 -0.1
v -5.5 4.9 -0.1
v -4.3 4.9 -0.1
v -4.2 4.9 -0.1
v -5.6 4.9 -0.2
v -5.5 4.9 -0.2
v -4.3 4.9 -0.2
v -4.2 4.9 -0.2
v -5.5 4.9 -1.3
v -5.4 4.9 -1.3
v -4.2 4.9 -1.3
v -4.1 4.9 -1.3
v -5.5 4.9 -1.4
v -5.4 4.9 -1.4
v -4.2 4.9 -1.4
v -4.1 4.9 -1.4
v -5.5 5 -0.1
v -5.3 5 -0.1
v -4.2 5 -0.1
v -4 5 -0.1
v -5.5 5 -0.2
v -5.3 5 -0.2
v -4.2 5 -0.2
v -4 5 -0.2
v -3.8 5 -0.6
v -3.7 5 -0.6
v -3.8 5 -0.9
v -3.7 5 -0.9
v -5.7 5 -1.3
v -5.5 5 -1.3
v -4.4 5 -1.3
v -4.2 5 -1.3
v -5.7 5 -1.4
v -5.5 5 -1.4
v -4.4 5 -1.4
v -4.2 5 -1.4
v -5.7 5.1 -0.1
v -5.6 5.1 -0.1
v -4.4 5.1 -0.1
v -4.3 5.1 -0.1
v -5.7 5.1 -0.2
v -5.6 5.1 -0.2
v -4.4 5.1 -0.2
v -4.3 5.1 -0.2
v -5.4 5.1 -1.3
v -5.3 5.1 -1.3
v -4.1 5.1 -1.3
v -4 5.1 -1.3
v -5.4 5.1 -1.4
v -5.3 5.1 -1.4
v -4.1 5.1 -1.4
v -4 5.1 -1.4
v -5.8 5.2 -0.1
v -5.7 5.2 -0.1
v -5.3 5.2 -0.1
v -5.2 5.2 -0.1
v -4.5 5.2 -0.1
v -4.4 5.2 -0.1
v -4 5.2 -0.1
v -3.9 5.2 -0.1
v -4.5 5.2 -0.2
v -3.9 5.2 -0.2
v -5.8 5.2 -0.3
v -5.7 5.2 -0.3
v -5.6 5.2 -0.3
v -5.5 5.2 -0.3
v -5.4 5.2 -0.3
v -5.3 5.2 -0.3
v -5.2 5.2 -0.3
v -4.5 5.2 -0.3
v -4.4 5.2 -0.3
v -4 5.2 -0.3
v -3.9 5.2 -0.3
v -5.6 5.2 -0.5
v -5.4 5.2 -0.5
v -5 5.2 -0.5
v -4.9 5.2 -0.5
v -5.6 5.2 -1
v -5.4 5.2 -1
v -5 5.2 -1
v -4.9 5.2 -1
v -5.8 5.2 -1.2
v -5.7 5.2 -1.2
v -5.6 5.2 -1.2
v -5.5 5.2 -1.2
v -5.4 5.2 -1.2
v -5.3 5.2 -1.2
v -5.2 5.2 -1.2
v -4.5 5.2 -1.2
v -4.4 5.2 -1.2
v -4 5.2 -1.2
v -3.9 5.2 -1.2
v -4.5 5.2 -1.3
v -3.9 5.2 -1.3
v -5.8 5.2 -1.4
v -5.7 5.2 -1.4
v -5.3 5.2 -1.4
v -5.2 5.2 -1.4
v -4.5 5.2 -1.4
v -4.4 5.2 -1.4
v -4 5.2 -1.4
v -3.9 5.2 -1.4
v -5.7 5.3 -0.1
v -5.6 5.3 -0.1
v -5.4 5.3 -0.1
v -5.3 5.3 -0.1
v -4.4 5.3 -0.1
v -4.3 5.3 -0.1
v -4.1 5.3 -0.1
v -4 5.3 -0.1
v -4.7 5.3 -0.2
v -4.6 5.3 -0.2
v -4.4 5.3 -0.2
v -4 5.3 -0.2
v -3.8 5.3 -0.2
v -3.7 5.3 -0.2
v -5.7 5.3 -0.3
v -5.6 5.3 -0.3
v -5.4 5.3 -0.3
v -5.3 5.3 -0.3
v -4.4 5.3 -0.3
v -4.3 5.3 -0.3
v -4.1 5.3 -0.3
v -4 5.3 -0.3
v -3.8 5.3 -0.3
v -3.7 5.3 -0.3
v -4.7 5.3 -0.4
v -4.6 5.3 -0.4
v -5.2 5.3 -0.5
v -5.1 5.3 -0.5
v -5 5.3 -0.5
v -4.9 5.3 -0.5
v -4.8 5.3 -0.5
v -5.2 5.3 -1
v -5.1 5.3 -1
v -5 5.3 -1
v -4.9 5.3 -1
v -4.8 5.3 -1
v -4.7 5.3 -1.1
v -4.6 5.3 -1.1
v -5.7 5.3 -1.2
v -5.6 5.3 -1.2
v -5.4 5.3 -1.2
v -5.3 5.3 -1.2
v -4.4 5.3 -1.2
v -4.3 5.3 -1.2
v -4.1 5.3 -1.2
v -4 5.3 -1.2
v -3.8 5.3 -1.2
v -3.7 5.3 -1.2
v -4.7 5.3 -1.3
v -4.6 5.3 -1.3
v -4.4 5.3 -1.3
v -4 5.3 -1.3
v -3.8 5.3 -1.3
v -3.7 5.3 -1.3
v -5.7 5.3 -1.4
v -5.6 5.3 -1.4
v -5.4 5.3 -1.4
v -5.3 5.3 -1.4
v -4.4 5.3 -1.4
v -4.3 5.3 -1.4
v -4.1 5.3 -1.4
v -4 5.3 -1.4
v -5.6 5.4 -0.1
v -5.4 5.4 -0.1
v -4.3 5.4 -0.1
v -4.1 5.4 -0.1
v -4.6 5.4 -0.2
v -4.5 5.4 -0.2
v -4.3 5.4 -0.2
v -4.1 5.4 -0.2
v -3.9 5.4 -0.2
v -3.8 5.4 -0.2
v -5.6 5.4 -0.3
v -5.4 5.4 -0.3
v -4.3 5.4 -0.3
v -4.1 5.4 -0.3
v -3.8 5.4 -0.3
v -3.7 5.4 -0.3
v -4.6 5.4 -0.4
v -4.5 5.4 -0.4
v -5.3 5.4 -0.5
v -5.2 5.4 -0.5
v -3.9 5.4 -0.5
v -3.8 5.4 -0.5
v -3.7 5.4 -0.5
v -3.8 5.4 -0.6
v -3.7 5.4 -0.6
v -4.8 5.4 -0.7
v -4.7 5.4 -0.7
v -4.8 5.4 -0.8
v -4.7 5.4 -0.8
v -3.8 5.4 -0.9
v -3.7 5.4 -0.9
v -5.3 5.4 -1
v -5.2 5.4 -1
v -3.9 5.4 -1
v -3.8 5.4 -1
v -3.7 5.4 -1
v -4.6 5.4 -1.1
v -4.5 5.4 -1.1
v -5.6 5.4 -1.2
v -5.4 5.4 -1.2
v -4.3 5.4 -1.2
v -4.1 5.4 -1.2
v -3.8 5.4 -1.2
v -3.7 5.4 -1.2
v -4.6 5.4 -1.3
v -4.5 5.4 -1.3
v -4.3 5.4 -1.3
v -4.1 5.4 -1.3
v -3.9 5.4 -1.3
v -3.8 5.4 -1.3
v -5.6 5.4 -1.4
v -5.4 5.4 -1.4
v -4.3 5.4 -1.4
v -4.1 5.4 -1.4
v -4.5 5.5 -0.2
v -4.4 5.5 -0.2
v -4 5.5 -0.2
v -3.9 5.5 -0.2
v -4.5 5.5 -0.4
v -4.4 5.5 -0.4
v -5.6 5.5 -0.5
v -5.5 5.5 -0.5
v -5.4 5.5 -0.5
v -5.3 5.5 -0.5
v -4 5.5 -0.5
v -3.9 5.5 -0.5
v -3.8 5.5 -0.5
v -4.8 5.5 -0.6
v -4.7 5.5 -0.6
v -3.9 5.5 -0.6
v -3.8 5.5 -0.6
v -3.7 5.5 -0.6
v -4.8 5.5 -0.7
v -4.7 5.5 -0.7
v -4.8 5.5 -0.8
v -4.7 5.5 -0.8
v -4.8 5.5 -0.9
v -4.7 5.5 -0.9
v -3.9 5.5 -0.9
v -3.8 5.5 -0.9
v -3.7 5.5 -0.9
v -5.6 5.5 -1
v -5.5 5.5 -1
v -5.4 5.5 -1
v -5.3 5.5 -1
v -4 5.5 -1
v -3.9 5.5 -1
v -3.8 5.5 -1
v -4.5 5.5 -1.1
v -4.4 5.5 -1.1
v -4.5 5.5 -1.3
v -4.4 5.5 -1.3
v -4 5.5 -1.3
v -3.9 5.5 -1.3
v -4.4 5.6 -0.2
v -4 5.6 -0.2
v -4.5 5.6 -0.4
v -4.4 5.6 -0.4
v -4.8 5.6 -0.5
v -4.7 5.6 -0.5
v -4.4 5.6 -0.5
v -4 5.6 -0.5
v -3.9 5.6 -0.5
v -4.8 5.6 -0.6
v -4.7 5.6 -0.6
v -4.5 5.6 -0.6
v -4.4 5.6 -0.6
v -4 5.6 -0.6
v -3.9 5.6 -0.6
v -3.8 5.6 -0.6
v -3.9 5.6 -0.7
v -3.8 5.6 -0.7
v -3.9 5.6 -0.8
v -3.8 5.6 -0.8
v -4.8 5.6 -0.9
v -4.7 5.6 -0.9
v -4 5.6 -0.9
v -3.9 5.6 -0.9
v -3.8 5.6 -0.9
v -4.8 5.6 -1
v -4.7 5.6 -1
v -4.5 5.6 -1
v -4 5.6 -1
v -3.9 5.6 -1
v -4.5 5.6 -1.1
v -4.4 5.6 -1.1
v -4.4 5.6 -1.3
v -4 5.6 -1.3
v -5.8 5.7 -0.5
v -5.6 5.7 -0.5
v -4.7 5.7 -0.5
v -4.6 5.7 -0.5
v -4.3 5.7 -0.5
v -4.1 5.7 -0.5
v -4.5 5.7 -0.6
v -4.4 5.7 -0.6
v -4.3 5.7 -0.6
v -4.1 5.7 -0.6
v -4.1 5.7 -0.7
v -4 5.7 -0.7
v -3.9 5.7 -0.7
v -3.8 5.7 -0.7
v -4.1 5.7 -0.8
v -4 5.7 -0.8
v -3.9 5.7 -0.8
v -3.8 5.7 -0.8
v -4.5 5.7 -0.9
v -4.4 5.7 -0.9
v -4.3 5.7 -0.9
v -4.1 5.7 -0.9
v -5.8 5.7 -1
v -5.6 5.7 -1
v -4.7 5.7 -1
v -4.6 5.7 -1
v -4.3 5.7 -1
v -4.1 5.7 -1
v -5.9 5.8 -0.4
v -4.5 5.8 -0.4
v -5.8 5.8 -0.5
v -4.6 5.8 -0.5
v -4.5 5.8 -0.5
v -4.5 5.8 -0.6
v -4.1 5.8 -0.6
v -4 5.8 -0.6
v -3.9 5.8 -0.6
v -4.1 5.8 -0.7
v -4 5.8 -0.7
v -4.1 5.8 -0.8
v -4 5.8 -0.8
v -4.5 5.8 -0.9
v -4.1 5.8 -0.9
v -4 5.8 -0.9
v -3.9 5.8 -0.9
v -5.8 5.8 -1
v -4.6 5.8 -1
v -4.5 5.8 -1
v -5.9 5.8 -1.1
v -4.5 5.8 -1.1
v -4.5 5.9 -0.5
v -4.4 5.9 -0.5
v -4.5 5.9 -0.6
v -4.4 5.9 -0.6
v -4.3 5.9 -0.6
v -4.5 5.9 -0.9
v -4.4 5.9 -0.9
v -4.3 5.9 -0.9
v -4.5 5.9 -1
v -4.4 5.9 -1
v -4.4 6 -0.5
v -4 6 -0.5
v -4.4 6 -0.6
v -4.3 6 -0.6
v -4.4 6 -0.9
v -4.3 6 -0.9
v -4.4 6 -1
v -4 6 -1

# faces
f 3/4/1 2/4/1 1/4/1
f 4/4/1 2/4/1 3/4/1
f 9/9/1 6/9/1 5/9/1
f 10/9/1 6/9/1 9/9/1
f 11/9/1 8/9/1 7/9/1
f 12/9/1 8/9/1 11/9/1
f 15/4/1 14/4/1 13/4/1
f 16/4/1 14/4/1 15/4/1
f 21/9/1 18/9/1 17/9/1
f 22/9/1 18/9/1 21/9/1
f 23/9/1 20/9/1 19/9/1
f 24/9/1 20/9/1 23/9/1
f 30/9/1 26/9/1 25/9/1
f 31/9/1 26/9/1 30/9/1
f 35/9/1 28/9/1 27/9/1
f 36/9/1 28/9/1 35/9/1
f 37/1/1 30/1/1 29/1/1
f 38/2/1 31/2/1 30/2/1
f 38/1/1 30/1/1 37/1/1
f 39/1/1 32/1/1 31/1/1
f 39/2/1 31/2/1 38/2/1
f 40/1/1 32/1/1 39/1/1
f 41/9/1 34/9/1 33/9/1
f 42/9/1 34/9/1 41/9/1
f 44/2/1 40/2/1 39/2/1
f 44/2/1 38/2/1 37/2/1
f 44/2/1 39/2/1 38/2/1
f 45/2/1 40/2/1 44/2/1
f 47/4/1 44/4/1 43/4/1
f 47/4/1 46/4/1 45/4/1
f 47/4/1 45/4/1 44/4/1
f 48/4/1 46/4/1 47/4/1
f 53/9/1 50/9/1 49/9/1
f 54/9/1 50/9/1 53/9/1
f 55/9/1 52/9/1 51/9/1
f 56/9/1 52/9/1 55/9/1
f 60/2/1 58/2/1 57/2/1
f 61/2/1 58/2/1 60/2/1
f 63/2/1 60/2/1 59/2/1
f 64/2/1 60/2/1 63/2/1
f 65/2/1 60/2/1 64/2/1
f 66/2/1 62/2/1 61/2/1
f 67/2/1 62/2/1 66/2/1
f 68/2/1 62/2/1 67/2/1
f 73/9/1 70/9/1 69/9/1
f 74/9/1 70/9/1 73/9/1
f 75/9/1 72/9/1 71/9/1
f 76/9/1 72/9/1 75/9/1
f 79/9/1 78/9/1 77/9/1
f 80/9/1 78/9/1 79/9/1
f 85/2/1 82/2/1 81/2/1
f 86/2/1 82/2/1 85/2/1
f 87/2/1 84/2/1 83/2/1
f 88/2/1 84/2/1 87/2/1
f 91/9/1 90/9/1 89/9/1
f 92/9/1 90/9/1 91/9/1
f 97/9/1 94/9/1 93/9/1
f 98/9/1 94/9/1 97/9/1
f 99/9/1 96/9/1 95/9/1
f 100/9/1 96/9/1 99/9/1
f 105/4/1 102/4/1 101/4/1
f 106/4/1 102/4/1 105/4/1
f 107/4/1 104/4/1 103/4/1
f 108/4/1 104/4/1 107/4/1
f 111/9/1 110/9/1 109/9/1
f 112/9/1 110/9/1 111/9/1
f 119/9/1 114/9/1 113/9/1
f 120/9/1 114/9/1 119/9/1
f 121/4/1 116/4/1 115/4/1
f 122/4/1 116/4/1 121/4/1
f 123/4/1 118/4/1 117/4/1
f 124/4/1 118/4/1 123/4/1
f 129/4/1 126/4/1 125/4/1
f 130/4/1 126/4/1 129/4/1
f 131/4/1 128/4/1 127/4/1
f 132/4/1 128/4/1 131/4/1
f 135/4/1 134/4/1 133/4/1
f 136/4/1 134/4/1 135/4/1
f 139/4/1 138/4/1 137/4/1
f 140/4/1 138/4/1 139/4/1
f 141/4/1 139/4/1 137/4/1
f 142/4/1 139/4/1 141/4/1
f 143/4/1 138/4/1 140/4/1
f 144/4/1 138/4/1 143/4/1
f 145/4/1 141/4/1 137/4/1
f 146/4/1 141/4/1 145/4/1
f 147/4/1 138/4/1 144/4/1
f 148/4/1 138/4/1 147/4/1
f 153/2/1 150/2/1 149/2/1
f 154/2/1 152/2/1 151/2/1
f 155/2/1 153/2/1 149/2/1
f 156/2/1 153/2/1 155/2/1
f 157/2/1 152/2/1 154/2/1
f 158/2/1 152/2/1 157/2/1
f 162/4/1 160/4/1 159/4/1
f 163/4/1 160/4/1 162/4/1
f 166/4/1 162/4/1 161/4/1
f 166/4/1 164/4/1 163/4/1
f 166/4/1 163/4/1 162/4/1
f 167/4/1 164/4/1 166/4/1
f 169/4/1 166/4/1 165/4/1
f 169/4/1 168/4/1 167/4/1
f 169/4/1 167/4/1 166/4/1
f 170/4/1 168/4/1 169/4/1
f 173/2/1 172/2/1 171/2/1
f 174/2/1 172/2/1 173/2/1
f 175/2/1 173/2/1 171/2/1
f 176/2/1 173/2/1 175/2/1
f 177/2/1 172/2/1 174/2/1
f 178/2/1 172/2/1 177/2/1
f 179/2/1 175/2/1 171/2/1
f 180/2/1 175/2/1 179/2/1
f 181/2/1 172/2/1 178/2/1
f 182/2/1 172/2/1 181/2/1
f 187/2/1 184/2/1 183/2/1
f 188/2/1 184/2/1 187/2/1
f 189/2/1 186/2/1 185/2/1
f 190/2/1 186/2/1 189/2/1
f 193/4/1 192/4/1 191/4/1
f 194/4/1 192/4/1 193/4/1
f 199/9/1 196/9/1 195/9/1
f 200/9/1 196/9/1 199/9/1
f 201/9/1 196/9/1 200/9/1
f 202/9/1 198/9/1 197/9/1
f 203/9/1 198/9/1 202/9/1
f 204/9/1 198/9/1 203/9/1
f 209/2/1 206/2/1 205/2/1
f 210/2/1 206/2/1 209/2/1
f 211/2/1 208/2/1 207/2/1
f 212/2/1 208/2/1 211/2/1
f 217/3/1 214/3/1 213/3/1
f 218/3/1 214/3/1 217/3/1
f 219/3/1 216/3/1 215/3/1
f 220/3/1 216/3/1 219/3/1
f 225/9/1 222/9/1 221/9/1
f 226/9/1 222/9/1 225/9/1
f 227/9/1 224/9/1 223/9/1
f 228/9/1 224/9/1 227/9/1
f 233/9/1 230/9/1 229/9/1
f 234/9/1 230/9/1 233/9/1
f 235/9/1 230/9/1 234/9/1
f 236/9/1 232/9/1 231/9/1
f 237/9/1 232/9/1 236/9/1
f 238/9/1 232/9/1 237/9/1
f 243/2/1 240/2/1 239/2/1
f 244/2/1 240/2/1 243/2/1
f 247/2/1 242/2/1 241/2/1
f 248/2/1 242/2/1 247/2/1
f 249/3/1 246/3/1 245/3/1
f 250/3/1 246/3/1 249/3/1
f 253/3/1 251/3/1 250/3/1
f 254/3/1 251/3/1 253/3/1
f 256/3/1 253/3/1 252/3/1
f 257/3/1 253/3/1 256/3/1
f 258/3/1 255/3/1 254/3/1
f 259/3/1 255/3/1 258/3/1
f 264/9/1 261/9/1 260/9/1
f 265/9/1 261/9/1 264/9/1
f 266/9/1 263/9/1 262/9/1
f 267/9/1 263/9/1 266/9/1
f 272/9/1 269/9/1 268/9/1
f 273/9/1 269/9/1 272/9/1
f 274/9/1 269/9/1 273/9/1
f 275/9/1 271/9/1 270/9/1
f 276/9/1 271/9/1 275/9/1
f 277/9/1 271/9/1 276/9/1
f 280/3/1 279/3/1 278/3/1
f 281/3/1 279/3/1 280/3/1
f 284/9/1 283/9/1 282/9/1
f 285/9/1 283/9/1 284/9/1
f 288/9/1 287/9/1 286/9/1
f 289/9/1 287/9/1 288/9/1
f 294/9/1 291/9/1 290/9/1
f 295/9/1 291/9/1 294/9/1
f 296/9/1 293/9/1 292/9/1
f 297/9/1 293/9/1 296/9/1
f 302/2/1 299/2/1 298/2/1
f 303/2/1 299/2/1 302/2/1
f 304/2/1 301/2/1 300/2/1
f 305/2/1 301/2/1 304/2/1
f 312/3/1 307/3/1 306/3/1
f 312/3/1 308/3/1 307/3/1
f 313/3/1 308/3/1 312/3/1
f 314/3/1 311/3/1 310/3/1
f 314/3/1 310/3/1 309/3/1
f 315/3/1 311/3/1 314/3/1
f 316/3/1 312/3/1 306/3/1
f 317/3/1 312/3/1 316/3/1
f 318/3/1 311/3/1 315/3/1
f 319/3/1 311/3/1 318/3/1
f 322/9/1 321/9/1 320/9/1
f 323/9/1 321/9/1 322/9/1
f 330/9/1 325/9/1 324/9/1
f 331/9/1 325/9/1 330/9/1
f 333/3/1 327/3/1 326/3/1
f 334/2/1 328/2/1 327/2/1
f 334/3/1 327/3/1 333/3/1
f 335/3/1 329/3/1 328/3/1
f 335/2/1 328/2/1 334/2/1
f 336/3/1 329/3/1 335/3/1
f 338/2/1 333/2/1 332/2/1
f 339/2/1 333/2/1 338/2/1
f 340/2/1 337/2/1 336/2/1
f 341/2/1 337/2/1 340/2/1
f 344/3/1 343/3/1 342/3/1
f 345/3/1 343/3/1 344/3/1
f 350/3/1 347/3/1 346/3/1
f 351/2/1 348/2/1 347/2/1
f 352/2/1 348/2/1 351/2/1
f 353/3/1 349/3/1 348/3/1
f 355/3/1 347/3/1 350/3/1
f 356/2/1 351/2/1 347/2/1
f 356/3/1 347/3/1 355/3/1
f 357/9/1 352/9/1 351/9/1
f 357/2/1 351/2/1 356/2/1
f 358/2/1 348/2/1 352/2/1
f 358/9/1 352/9/1 357/9/1
f 359/3/1 353/3/1 348/3/1
f 359/2/1 348/2/1 358/2/1
f 360/3/1 353/3/1 359/3/1
f 362/2/1 355/2/1 354/2/1
f 363/2/1 355/2/1 362/2/1
f 364/2/1 361/2/1 360/2/1
f 365/2/1 361/2/1 364/2/1
f 370/2/1 367/2/1 366/2/1
f 371/2/1 367/2/1 370/2/1
f 372/2/1 369/2/1 368/2/1
f 373/2/1 369/2/1 372/2/1
f 374/4/2 375/4/2 376/4/2
f 376/4/2 375/4/2 377/4/2
f 378/9/2 379/9/2 382/9/2
f 382/9/2 379/9/2 383/9/2
f 380/9/2 381/9/2 384/9/2
f 384/9/2 381/9/2 385/9/2
f 386/9/2 387/9/2 388/9/2
f 388/9/2 387/9/2 389/9/2
f 390/9/2 391/9/2 392/9/2
f 392/9/2 391/9/2 393/9/2
f 394/4/2 395/4/2 396/4/2
f 396/4/2 395/4/2 397/4/2
f 396/4/2 397/4/2 398/4/2
f 398/4/2 397/4/2 399/4/2
f 400/9/2 401/9/2 402/9/2
f 402/9/2 401/9/2 403/9/2
f 404/9/2 405/9/2 406/9/2
f 406/9/2 405/9/2 407/9/2
f 408/9/2 409/9/2 412/9/2
f 412/9/2 409/9/2 413/9/2
f 410/9/2 411/9/2 414/9/2
f 414/9/2 411/9/2 415/9/2
f 416/2/2 417/2/2 420/2/2
f 420/2/2 417/2/2 421/2/2
f 421/2/2 417/2/2 422/2/2
f 418/2/2 419/2/2 423/2/2
f 423/2/2 419/2/2 424/2/2
f 424/2/2 419/2/2 425/2/2
f 420/2/2 421/2/2 426/2/2
f 426/2/2 421/2/2 427/2/2
f 424/2/2 425/2/2 428/2/2
f 428/2/2 425/2/2 429/2/2
f 430/9/2 431/9/2 434/9/2
f 434/9/2 431/9/2 435/9/2
f 432/9/2 433/9/2 436/9/2
f 436/9/2 433/9/2 437/9/2
f 438/9/2 439/9/2 442/9/2
f 442/9/2 439/9/2 443/9/2
f 440/9/2 441/9/2 444/9/2
f 444/9/2 441/9/2 445/9/2
f 446/9/2 447/9/2 450/9/2
f 450/9/2 447/9/2 451/9/2
f 448/9/2 449/9/2 452/9/2
f 452/9/2 449/9/2 453/9/2
f 454/4/2 455/4/2 456/4/2
f 456/4/2 455/4/2 457/4/2
f 458/9/2 459/9/2 462/9/2
f 462/9/2 459/9/2 463/9/2
f 460/9/2 461/9/2 464/9/2
f 464/9/2 461/9/2 465/9/2
f 466/4/2 467/4/2 468/4/2
f 468/4/2 467/4/2 469/4/2
f 470/4/2 471/4/2 472/4/2
f 472/4/2 471/4/2 473/4/2
f 474/4/2 475/4/2 478/4/2
f 478/4/2 475/4/2 479/4/2
f 476/4/2 477/4/2 480/4/2
f 480/4/2 477/4/2 481/4/2
f 482/2/2 483/2/2 486/2/2
f 486/2/2 483/2/2 487/2/2
f 484/2/2 485/2/2 488/2/2
f 488/2/2 485/2/2 489/2/2
f 490/3/2 491/3/2 494/3/2
f 492/3/2 493/3/2 495/3/2
f 494/3/2 491/3/2 497/3/2
f 491/2/2 492/2/2 498/2/2
f 497/3/2 491/3/2 498/3/2
f 492/3/2 495/3/2 499/3/2
f 498/2/2 492/2/2 499/2/2
f 499/3/2 495/3/2 500/3/2
f 496/2/2 497/2/2 502/2/2
f 502/2/2 497/2/2 503/2/2
f 498/2/2 499/2/2 504/2/2
f 504/2/2 499/2/2 505/2/2
f 500/2/2 501/2/2 506/2/2
f 506/2/2 501/2/2 507/2/2
f 508/4/2 509/4/2 512/4/2
f 512/4/2 509/4/2 513/4/2
f 508/4/2 512/4/2 515/4/2
f 515/4/2 512/4/2 516/4/2
f 513/4/2 514/4/2 517/4/2
f 517/4/2 514/4/2 518/4/2
f 510/4/2 511/4/2 519/4/2
f 519/4/2 511/4/2 520/4/2
f 521/9/2 522/9/2 525/9/2
f 525/9/2 522/9/2 526/9/2
f 523/9/2 524/9/2 527/9/2
f 527/9/2 524/9/2 528/9/2
f 529/3/2 530/3/2 534/3/2
f 534/3/2 530/3/2 535/3/2
f 531/3/2 532/3/2 536/3/2
f 536/3/2 532/3/2 537/3/2
f 533/2/2 534/2/2 539/2/2
f 539/2/2 534/2/2 540/2/2
f 537/2/2 538/2/2 541/2/2
f 541/2/2 538/2/2 542/2/2
f 543/9/2 544/9/2 545/9/2
f 545/9/2 544/9/2 546/9/2
f 547/9/2 548/9/2 549/9/2
f 549/9/2 548/9/2 550/9/2
f 551/2/2 552/2/2 555/2/2
f 555/2/2 552/2/2 556/2/2
f 553/2/2 554/2/2 557/2/2
f 557/2/2 554/2/2 558/2/2
f 559/3/2 560/3/2 563/3/2
f 561/3/2 562/3/2 563/3/2
f 560/3/2 561/3/2 563/3/2
f 563/3/2 562/3/2 564/3/2
f 565/9/2 566/9/2 567/9/2
f 567/9/2 566/9/2 568/9/2
f 569/9/2 570/9/2 571/9/2
f 571/9/2 570/9/2 572/9/2
f 573/9/2 574/9/2 577/9/2
f 577/9/2 574/9/2 578/9/2
f 575/9/2 576/9/2 579/9/2
f 579/9/2 576/9/2 580/9/2
f 581/9/2 582/9/2 585/9/2
f 585/9/2 582/9/2 586/9/2
f 586/9/2 582/9/2 587/9/2
f 583/9/2 584/9/2 588/9/2
f 588/9/2 584/9/2 589/9/2
f 589/9/2 584/9/2 590/9/2
f 591/9/2 592/9/2 595/9/2
f 595/9/2 592/9/2 596/9/2
f 593/9/2 594/9/2 597/9/2
f 597/9/2 594/9/2 598/9/2
f 599/9/2 600/9/2 603/9/2
f 603/9/2 600/9/2 604/9/2
f 604/9/2 600/9/2 605/9/2
f 601/9/2 602/9/2 606/9/2
f 606/9/2 602/9/2 607/9/2
f 607/9/2 602/9/2 608/9/2
f 609/2/2 610/2/2 613/2/2
f 613/2/2 610/2/2 614/2/2
f 611/2/2 612/2/2 617/2/2
f 617/2/2 612/2/2 618/2/2
f 614/3/2 615/3/2 619/3/2
f 616/3/2 617/3/2 620/3/2
f 614/3/2 619/3/2 621/3/2
f 620/3/2 617/3/2 622/3/2
f 614/3/2 621/3/2 623/3/2
f 621/3/2 622/3/2 623/3/2
f 622/3/2 617/3/2 624/3/2
f 623/3/2 622/3/2 624/3/2
f 625/9/2 626/9/2 629/9/2
f 629/9/2 626/9/2 630/9/2
f 630/9/2 626/9/2 631/9/2
f 627/9/2 628/9/2 632/9/2
f 632/9/2 628/9/2 633/9/2
f 633/9/2 628/9/2 634/9/2
f 635/2/2 636/2/2 639/2/2
f 639/2/2 636/2/2 640/2/2
f 637/2/2 638/2/2 643/2/2
f 643/2/2 638/2/2 644/2/2
f 640/3/2 641/3/2 645/3/2
f 645/3/2 641/3/2 646/3/2
f 642/3/2 643/3/2 649/3/2
f 649/3/2 643/3/2 650/3/2
f 646/3/2 647/3/2 651/3/2
f 648/3/2 649/3/2 652/3/2
f 646/3/2 651/3/2 653/3/2
f 651/3/2 652/3/2 653/3/2
f 652/3/2 649/3/2 654/3/2
f 653/3/2 652/3/2 654/3/2
f 655/9/2 656/9/2 659/9/2
f 659/9/2 656/9/2 660/9/2
f 660/9/2 656/9/2 661/9/2
f 661/9/2 656/9/2 662/9/2
f 657/2/2 658/2/2 665/2/2
f 665/2/2 658/2/2 666/2/2
f 660/9/2 661/9/2 669/9/2
f 669/9/2 661/9/2 670/9/2
f 663/2/2 664/2/2 673/2/2
f 673/2/2 664/2/2 674/2/2
f 667/3/2 668/3/2 675/3/2
f 675/3/2 668/3/2 676/3/2
f 671/3/2 672/3/2 677/3/2
f 677/3/2 672/3/2 678/3/2
f 676/3/2 677/3/2 679/3/2
f 679/3/2 677/3/2 680/3/2
f 680/3/2 677/3/2 681/3/2
f 681/3/2 677/3/2 682/3/2
f 680/3/2 681/3/2 683/3/2
f 683/3/2 681/3/2 684/3/2
f 685/2/2 686/2/2 689/2/2
f 686/3/2 687/3/2 690/3/2
f 689/2/2 686/2/2 690/2/2
f 690/3/2 687/3/2 691/3/2
f 691/3/2 687/3/2 692/3/2
f 687/2/2 688/2/2 693/2/2
f 692/3/2 687/3/2 693/3/2
f 693/2/2 688/2/2 694/2/2
f 685/2/2 689/2/2 695/2/2
f 689/6/2 690/6/2 695/6/2
f 690/3/2 691/3/2 696/3/2
f 695/6/2 690/6/2 696/6/2
f 693/6/2 694/6/2 697/6/2
f 692/3/2 693/3/2 697/3/2
f 694/2/2 688/2/2 698/2/2
f 697/6/2 694/6/2 698/6/2
f 695/2/2 696/2/2 699/2/2
f 685/2/2 695/2/2 699/2/2
f 699/2/2 696/2/2 700/2/2
f 696/3/2 691/3/2 701/3/2
f 700/2/2 696/2/2 701/2/2
f 701/3/2 691/3/2 702/3/2
f 692/3/2 697/3/2 705/3/2
f 697/2/2 698/2/2 706/2/2
f 705/3/2 697/3/2 706/3/2
f 698/2/2 688/2/2 707/2/2
f 706/2/2 698/2/2 707/2/2
f 707/2/2 688/2/2 708/2/2
f 700/7/2 701/7/2 709/7/2
f 702/3/2 703/3/2 710/3/2
f 709/7/2 701/7/2 710/7/2
f 701/3/2 702/3/2 710/3/2
f 710/3/2 703/3/2 711/3/2
f 711/3/2 703/3/2 712/3/2
f 705/3/2 706/3/2 713/3/2
f 704/3/2 705/3/2 713/3/2
f 713/3/2 706/3/2 714/3/2
f 706/7/2 707/7/2 715/7/2
f 714/3/2 706/3/2 715/3/2
f 715/7/2 707/7/2 716/7/2
f 711/3/2 712/3/2 717/3/2
f 712/3/2 713/3/2 717/3/2
f 713/3/2 714/3/2 717/3/2
f 717/3/2 714/3/2 718/3/2
f 722/9/3 720/9/3 719/9/3
f 723/9/3 720/9/3 722/9/3
f 724/9/3 720/9/3 723/9/3
f 727/9/3 722/9/3 721/9/3
f 727/9/3 723/9/3 722/9/3
f 728/9/3 723/9/3 727/9/3
f 729/9/3 725/9/3 724/9/3
f 731/9/3 727/9/3 726/9/3
f 733/9/3 730/9/3 729/9/3
f 733/9/3 729/9/3 724/9/3
f 734/9/3 730/9/3 733/9/3
f 735/9/3 732/9/3 731/9/3
f 735/9/3 731/9/3 726/9/3
f 736/9/3 732/9/3 735/9/3
f 738/9/3 730/9/3 734/9/3
f 739/9/3 730/9/3 738/9/3
f 740/9/3 732/9/3 736/9/3
f 741/9/3 732/9/3 740/9/3
f 742/9/3 738/9/3 737/9/3
f 743/9/3 738/9/3 742/9/3
f 744/9/3 738/9/3 743/9/3
f 745/9/3 742/9/3 741/9/3
f 745/9/3 743/9/3 742/9/3
f 746/9/3 743/9/3 745/9/3
f 750/9/3 748/9/3 747/9/3
f 751/9/3 748/9/3 750/9/3
f 752/9/3 748/9/3 751/9/3
f 755/9/3 750/9/3 749/9/3
f 755/9/3 751/9/3 750/9/3
f 756/9/3 751/9/3 755/9/3
f 757/9/3 753/9/3 752/9/3
f 759/9/3 755/9/3 754/9/3
f 761/9/3 757/9/3 752/9/3
f 761/9/3 758/9/3 757/9/3
f 762/9/3 758/9/3 761/9/3
f 763/9/3 760/9/3 759/9/3
f 763/9/3 759/9/3 754/9/3
f 764/9/3 760/9/3 763/9/3
f 766/9/3 758/9/3 762/9/3
f 767/9/3 758/9/3 766/9/3
f 768/9/3 760/9/3 764/9/3
f 769/9/3 760/9/3 768/9/3
f 770/9/3 766/9/3 765/9/3
f 771/9/3 766/9/3 770/9/3
f 772/9/3 766/9/3 771/9/3
f 773/9/3 770/9/3 769/9/3
f 773/9/3 771/9/3 770/9/3
f 774/9/3 771/9/3 773/9/3
f 778/8/3 776/8/3 775/8/3
f 779/8/3 778/8/3 777/8/3
f 780/8/3 778/8/3 779/8/3
f 781/8/3 776/8/3 778/8/3
f 781/8/3 778/8/3 780/8/3
f 783/8/3 782/8/3 781/8/3
f 783/8/3 781/8/3 780/8/3
f 784/8/3 782/8/3 783/8/3
f 785/8/3 783/8/3 780/8/3
f 786/8/3 783/8/3 785/8/3
f 789/2/3 788/2/3 787/2/3
f 790/2/3 788/2/3 789/2/3
f 791/2/3 788/2/3 790/2/3
f 793/2/3 791/2/3 790/2/3
f 793/2/3 792/2/3 791/2/3
f 794/2/3 792/2/3 793/2/3
f 795/2/3 792/2/3 794/2/3
f 799/2/3 796/2/3 795/2/3
f 799/2/3 795/2/3 794/2/3
f 800/2/3 796/2/3 799/2/3
f 801/2/3 796/2/3 800/2/3
f 804/8/3 798/8/3 797/8/3
f 805/2/3 801/2/3 800/2/3
f 805/2/3 802/2/3 801/2/3
f 806/2/3 802/2/3 805/2/3
f 807/8/3 804/8/3 803/8/3
f 808/8/3 804/8/3 807/8/3
f 809/8/3 798/8/3 804/8/3
f 809/8/3 804/8/3 808/8/3
f 811/8/3 810/8/3 809/8/3
f 811/8/3 809/8/3 808/8/3
f 812/8/3 810/8/3 811/8/3
f 814/2/3 802/2/3 806/2/3
f 815/8/3 811/8/3 808/8/3
f 816/8/3 811/8/3 815/8/3
f 818/2/3 814/2/3 813/2/3
f 819/2/3 802/2/3 814/2/3
f 819/2/3 814/2/3 818/2/3
f 820/2/3 802/2/3 819/2/3
f 822/2/3 818/2/3 817/2/3
f 822/2/3 819/2/3 818/2/3
f 823/2/3 819/2/3 822/2/3
f 824/2/3 819/2/3 823/2/3
f 826/2/3 822/2/3 821/2/3
f 826/2/3 823/2/3 822/2/3
f 827/2/3 823/2/3 826/2/3
f 828/2/3 823/2/3 827/2/3
f 829/2/3 826/2/3 825/2/3
f 829/2/3 827/2/3 826/2/3
f 830/2/3 827/2/3 829/2/3
f 833/3/3 832/3/3 831/3/3
f 834/3/3 832/3/3 833/3/3
f 835/3/3 832/3/3 834/3/3
f 837/3/3 836/3/3 835/3/3
f 838/3/3 836/3/3 837/3/3
f 840/3/3 839/3/3 838/3/3
f 841/3/3 839/3/3 840/3/3
f 844/3/3 842/3/3 841/3/3
f 845/3/3 842/3/3 844/3/3
f 847/3/3 844/3/3 843/3/3
f 848/3/3 844/3/3 847/3/3
f 851/3/3 847/3/3 846/3/3
f 852/3/3 847/3/3 851/3/3
f 853/3/3 850/3/3 849/3/3
f 853/3/3 851/3/3 850/3/3
f 854/3/3 851/3/3 853/3/3
f 857/7/3 856/7/3 855/7/3
f 858/7/3 856/7/3 857/7/3
f 862/4/3 860/4/3 859/4/3
f 864/4/3 862/4/3 861/4/3
f 865/4/3 860/4/3 862/4/3
f 865/4/3 862/4/3 864/4/3
f 866/4/3 860/4/3 865/4/3
f 867/4/3 864/4/3 863/4/3
f 867/4/3 865/4/3 864/4/3
f 868/5/3 866/5/3 865/5/3
f 868/4/3 865/4/3 867/4/3
f 869/4/3 860/4/3 866/4/3
f 869/5/3 866/5/3 868/5/3
f 871/4/3 867/4/3 863/4/3
f 872/5/3 868/5/3 867/5/3
f 872/4/3 867/4/3 871/4/3
f 873/4/3 869/4/3 868/4/3
f 873/5/3 868/5/3 872/5/3
f 874/4/3 860/4/3 869/4/3
f 874/4/3 869/4/3 873/4/3
f 876/4/3 871/4/3 870/4/3
f 876/4/3 873/4/3 872/4/3
f 876/4/3 872/4/3 871/4/3
f 877/4/3 873/4/3 876/4/3
f 878/5/3 874/5/3 873/5/3
f 878/4/3 873/4/3 877/4/3
f 879/4/3 860/4/3 874/4/3
f 879/5/3 874/5/3 878/5/3
f 880/4/3 877/4/3 876/4/3
f 880/4/3 876/4/3 875/4/3
f 881/5/3 878/5/3 877/5/3
f 881/4/3 877/4/3 880/4/3
f 882/4/3 879/4/3 878/4/3
f 882/5/3 878/5/3 881/5/3
f 883/4/3 860/4/3 879/4/3
f 883/4/3 879/4/3 882/4/3
f 885/4/3 880/4/3 875/4/3
f 886/5/3 882/5/3 881/5/3
f 886/5/3 881/5/3 880/5/3
f 886/4/3 880/4/3 885/4/3
f 886/5/3 883/5/3 882/5/3
f 887/5/3 883/5/3 886/5/3
f 888/4/3 885/4/3 884/4/3
f 888/4/3 886/4/3 885/4/3
f 888/4/3 887/4/3 886/4/3
f 889/5/3 883/5/3 887/5/3
f 889/4/3 887/4/3 888/4/3
f 890/5/3 883/5/3 889/5/3
f 891/4/3 888/4/3 884/4/3
f 891/5/3 889/5/3 888/5/3
f 892/5/3 889/5/3 891/5/3
f 893/4/3 890/4/3 889/4/3
f 893/5/3 889/5/3 892/5/3
f 894/5/3 883/5/3 890/5/3
f 894/4/3 890/4/3 893/4/3
f 895/4/3 892/4/3 891/4/3
f 895/4/3 891/4/3 884/4/3
f 896/4/3 892/4/3 895/4/3
f 897/5/3 893/5/3 892/5/3
f 897/4/3 892/4/3 896/4/3
f 897/5/3 894/5/3 893/5/3
f 898/5/3 883/5/3 894/5/3
f 898/5/3 894/5/3 897/5/3
f 899/4/3 897/4/3 896/4/3
f 899/4/3 898/4/3 897/4/3
f 900/4/3 898/4/3 899/4/3
f 901/4/3 898/4/3 900/4/3
f 902/5/3 883/5/3 898/5/3
f 902/4/3 898/4/3 901/4/3
f 903/4/3 860/4/3 883/4/3
f 903/5/3 883/5/3 902/5/3
f 904/4/3 901/4/3 900/4/3
f 905/4/3 901/4/3 904/4/3
f 906/5/3 902/5/3 901/5/3
f 906/4/3 901/4/3 905/4/3
f 907/4/3 903/4/3 902/4/3
f 907/5/3 902/5/3 906/5/3
f 908/4/3 906/4/3 905/4/3
f 908/4/3 907/4/3 906/4/3
f 909/4/3 907/4/3 908/4/3
f 910/4/3 903/4/3 907/4/3
f 910/4/3 907/4/3 909/4/3
f 911/4/3 860/4/3 903/4/3
f 911/4/3 903/4/3 910/4/3
f 912/2/3 910/2/3 909/2/3
f 913/2/3 910/2/3 912/2/3
f 917/1/3 915/1/3 914/1/3
f 918/2/3 916/2/3 915/2/3
f 918/1/3 915/1/3 917/1/3
f 920/2/3 918/2/3 917/2/3
f 921/2/3 916/2/3 918/2/3
f 921/2/3 918/2/3 920/2/3
f 922/2/3 916/2/3 921/2/3
f 923/2/3 920/2/3 919/2/3
f 923/2/3 921/2/3 920/2/3
f 924/2/3 921/2/3 923/2/3
f 925/2/3 923/2/3 919/2/3
f 926/2/3 923/2/3 925/2/3
f 929/2/3 928/2/3 927/2/3
f 930/2/3 928/2/3 929/2/3
f 935/3/3 932/3/3 931/3/3
f 935/3/3 933/3/3 932/3/3
f 936/3/3 933/3/3 935/3/3
f 938/3/3 935/3/3 934/3/3
f 938/3/3 937/3/3 936/3/3
f 938/3/3 936/3/3 935/3/3
f 939/3/3 937/3/3 938/3/3
f 940/3/3 938/3/3 934/3/3
f 941/3/3 937/3/3 939/3/3
f 943/3/3 940/3/3 934/3/3
f 943/3/3 941/3/3 940/3/3
f 944/3/3 937/3/3 941/3/3
f 944/3/3 941/3/3 943/3/3
f 946/3/3 943/3/3 942/3/3
f 947/3/3 943/3/3 946/3/3
f 948/3/3 946/3/3 945/3/3
f 949/3/3 946/3/3 948/3/3
f 953/9/3 951/9/3 950/9/3
f 954/9/3 951/9/3 953/9/3
f 955/2/3 953/2/3 952/2/3
f 956/2/3 953/2/3 955/2/3
f 959/2/3 958/2/3 957/2/3
f 960/2/3 959/2/3 957/2/3
f 961/2/3 960/2/3 957/2/3
f 962/2/3 960/2/3 961/2/3
f 965/3/3 964/3/3 963/3/3
f 966/3/3 964/3/3 965/3/3
f 970/3/3 968/3/3 967/3/3
f 971/3/3 968/3/3 970/3/3
f 973/3/3 970/3/3 969/3/3
f 974/3/3 970/3/3 973/3/3
f 975/3/3 973/3/3 972/3/3
f 976/3/3 973/3/3 975/3/3
f 979/3/3 978/3/3 977/3/3
f 980/3/3 978/3/3 979/3/3
f 983/4/3 982/4/3 981/4/3
f 984/4/3 982/4/3 983/4/3
f 987/3/3 986/3/3 985/3/3
f 988/3/3 986/3/3 987/3/3
f 991/3/3 990/3/3 989/3/3
f 992/3/3 990/3/3 991/3/3
f 995/4/3 994/4/3 993/4/3
f 996/4/3 994/4/3 995/4/3
f 1000/3/3 998/3/3 997/3/3
f 1000/3/3 999/3/3 998/3/3
f 1001/3/3 999/3/3 1000/3/3
f 1003/3/3 1002/3/3 1001/3/3
f 1004/3/3 1002/3/3 1003/3/3
f 1007/3/3 1006/3/3 1005/3/3
f 1008/3/3 1006/3/3 1007/3/3
f 1011/3/3 1010/3/3 1009/3/3
f 1012/3/3 1010/3/3 1011/3/3
f 1017/4/3 1014/4/3 1013/4/3
f 1018/4/3 1016/4/3 1015/4/3
f 1019/5/3 1017/5/3 1016/5/3
f 1019/4/3 1016/4/3 1018/4/3
f 1020/4/3 1014/4/3 1017/4/3
f 1020/5/3 1017/5/3 1019/5/3
f 1021/5/3 1019/5/3 1018/5/3
f 1022/4/3 1020/4/3 1019/4/3
f 1022/5/3 1019/5/3 1021/5/3
f 1023/4/3 1014/4/3 1020/4/3
f 1023/4/3 1020/4/3 1022/4/3
f 1025/4/3 1022/4/3 1021/4/3
f 1026/5/3 1023/5/3 1022/5/3
f 1026/4/3 1022/4/3 1025/4/3
f 1027/4/3 1014/4/3 1023/4/3
f 1027/5/3 1023/5/3 1026/5/3
f 1029/4/3 1025/4/3 1024/4/3
f 1030/5/3 1026/5/3 1025/5/3
f 1030/4/3 1025/4/3 1029/4/3
f 1031/4/3 1027/4/3 1026/4/3
f 1031/5/3 1026/5/3 1030/5/3
f 1032/4/3 1014/4/3 1027/4/3
f 1032/4/3 1027/4/3 1031/4/3
f 1033/5/3 1029/5/3 1028/5/3
f 1033/5/3 1031/5/3 1030/5/3
f 1033/5/3 1032/5/3 1031/5/3
f 1033/5/3 1030/5/3 1029/5/3
f 1034/5/3 1032/5/3 1033/5/3
f 1036/4/3 1034/4/3 1033/4/3
f 1037/5/3 1032/5/3 1034/5/3
f 1037/4/3 1034/4/3 1036/4/3
f 1038/5/3 1032/5/3 1037/5/3
f 1039/5/3 1036/5/3 1035/5/3
f 1039/5/3 1037/5/3 1036/5/3
f 1040/5/3 1037/5/3 1039/5/3
f 1041/4/3 1038/4/3 1037/4/3
f 1041/5/3 1037/5/3 1040/5/3
f 1042/5/3 1032/5/3 1038/5/3
f 1042/4/3 1038/4/3 1041/4/3
f 1043/5/3 1041/5/3 1040/5/3
f 1043/5/3 1042/5/3 1041/5/3
f 1044/5/3 1032/5/3 1042/5/3
f 1044/5/3 1042/5/3 1043/5/3
f 1045/5/3 1032/5/3 1044/5/3
f 1046/4/3 1014/4/3 1032/4/3
f 1046/5/3 1032/5/3 1045/5/3
f 1047/4/3 1014/4/3 1046/4/3
f 1048/4/3 1014/4/3 1047/4/3
f 1051/2/3 1050/2/3 1049/2/3
f 1052/2/3 1050/2/3 1051/2/3
f 1055/3/3 1054/3/3 1053/3/3
f 1056/3/3 1054/3/3 1055/3/3
f 1060/9/3 1058/9/3 1057/9/3
f 1061/9/3 1058/9/3 1060/9/3
f 1062/9/3 1058/9/3 1061/9/3
f 1065/9/3 1060/9/3 1059/9/3
f 1066/9/3 1063/9/3 1062/9/3
f 1066/8/3 1061/8/3 1060/8/3
f 1066/9/3 1062/9/3 1061/9/3
f 1067/9/3 1063/9/3 1066/9/3
f 1068/9/3 1063/9/3 1067/9/3
f 1070/9/3 1065/9/3 1064/9/3
f 1070/9/3 1060/9/3 1065/9/3
f 1071/8/3 1066/8/3 1060/8/3
f 1071/9/3 1060/9/3 1070/9/3
f 1072/8/3 1066/8/3 1071/8/3
f 1073/8/3 1068/8/3 1067/8/3
f 1074/9/3 1069/9/3 1068/9/3
f 1074/8/3 1068/8/3 1073/8/3
f 1075/9/3 1070/9/3 1064/9/3
f 1076/8/3 1071/8/3 1070/8/3
f 1076/9/3 1070/9/3 1075/9/3
f 1077/8/3 1071/8/3 1076/8/3
f 1079/9/3 1074/9/3 1073/9/3
f 1080/9/3 1069/9/3 1074/9/3
f 1080/9/3 1074/9/3 1079/9/3
f 1081/9/3 1069/9/3 1080/9/3
f 1082/9/3 1078/9/3 1077/9/3
f 1082/9/3 1077/9/3 1076/9/3
f 1083/9/3 1078/9/3 1082/9/3
f 1084/8/3 1079/8/3 1078/8/3
f 1084/9/3 1078/9/3 1083/9/3
f 1085/9/3 1080/9/3 1079/9/3
f 1085/8/3 1079/8/3 1084/8/3
f 1086/9/3 1080/9/3 1085/9/3
f 1087/9/3 1084/9/3 1083/9/3
f 1087/9/3 1085/9/3 1084/9/3
f 1088/9/3 1085/9/3 1087/9/3
f 1092/9/3 1090/9/3 1089/9/3
f 1093/9/3 1090/9/3 1092/9/3
f 1094/9/3 1090/9/3 1093/9/3
f 1097/9/3 1092/9/3 1091/9/3
f 1098/9/3 1094/9/3 1093/9/3
f 1098/9/3 1095/9/3 1094/9/3
f 1098/8/3 1093/8/3 1092/8/3
f 1099/9/3 1095/9/3 1098/9/3
f 1100/9/3 1097/9/3 1096/9/3
f 1100/9/3 1092/9/3 1097/9/3
f 1101/8/3 1099/8/3 1098/8/3
f 1101/9/3 1092/9/3 1100/9/3
f 1101/8/3 1098/8/3 1092/8/3
f 1102/8/3 1099/8/3 1101/8/3
f 1103/8/3 1099/8/3 1102/8/3
f 1104/9/3 1100/9/3 1096/9/3
f 1105/8/3 1101/8/3 1100/8/3
f 1105/9/3 1100/9/3 1104/9/3
f 1105/8/3 1102/8/3 1101/8/3
f 1106/8/3 1102/8/3 1105/8/3
f 1107/9/3 1103/9/3 1102/9/3
f 1108/9/3 1106/9/3 1105/9/3
f 1109/9/3 1106/9/3 1108/9/3
f 1110/8/3 1102/8/3 1106/8/3
f 1110/9/3 1106/9/3 1109/9/3
f 1111/9/3 1107/9/3 1102/9/3
f 1111/8/3 1102/8/3 1110/8/3
f 1112/9/3 1107/9/3 1111/9/3
f 1113/9/3 1110/9/3 1109/9/3
f 1113/9/3 1111/9/3 1110/9/3
f 1114/9/3 1111/9/3 1113/9/3
f 1115/9/4 1116/9/4 1118/9/4
f 1118/9/4 1116/9/4 1119/9/4
f 1119/9/4 1116/9/4 1120/9/4
f 1117/9/4 1118/9/4 1123/9/4
f 1118/9/4 1119/9/4 1123/9/4
f 1119/8/4 1120/8/4 1124/8/4
f 1123/9/4 1119/9/4 1124/9/4
f 1120/9/4 1121/9/4 1125/9/4
f 1124/8/4 1120/8/4 1125/8/4
f 1125/9/4 1121/9/4 1126/9/4
f 1123/8/4 1124/8/4 1128/8/4
f 1122/9/4 1123/9/4 1128/9/4
f 1128/8/4 1124/8/4 1129/8/4
f 1129/8/4 1124/8/4 1130/8/4
f 1126/9/4 1127/9/4 1131/9/4
f 1125/9/4 1126/9/4 1131/9/4
f 1131/9/4 1127/9/4 1132/9/4
f 1128/9/4 1129/9/4 1133/9/4
f 1122/9/4 1128/9/4 1133/9/4
f 1133/9/4 1129/9/4 1134/9/4
f 1134/9/4 1129/9/4 1135/9/4
f 1131/8/4 1132/8/4 1137/8/4
f 1132/9/4 1127/9/4 1138/9/4
f 1137/8/4 1132/8/4 1138/8/4
f 1138/9/4 1127/9/4 1139/9/4
f 1134/9/4 1135/9/4 1140/9/4
f 1135/8/4 1136/8/4 1141/8/4
f 1140/9/4 1135/9/4 1141/9/4
f 1136/9/4 1137/9/4 1142/9/4
f 1141/8/4 1136/8/4 1142/8/4
f 1137/9/4 1138/9/4 1142/9/4
f 1142/9/4 1138/9/4 1143/9/4
f 1143/9/4 1138/9/4 1144/9/4
f 1141/9/4 1142/9/4 1145/9/4
f 1142/9/4 1143/9/4 1145/9/4
f 1145/9/4 1143/9/4 1146/9/4
f 1147/9/4 1148/9/4 1150/9/4
f 1150/9/4 1148/9/4 1151/9/4
f 1151/9/4 1148/9/4 1152/9/4
f 1149/9/4 1150/9/4 1155/9/4
f 1150/9/4 1151/9/4 1155/9/4
f 1151/8/4 1152/8/4 1156/8/4
f 1155/9/4 1151/9/4 1156/9/4
f 1152/9/4 1153/9/4 1157/9/4
f 1154/9/4 1155/9/4 1158/9/4
f 1155/8/4 1156/8/4 1158/8/4
f 1158/8/4 1156/8/4 1159/8/4
f 1156/8/4 1152/8/4 1160/8/4
f 1159/8/4 1156/8/4 1160/8/4
f 1152/9/4 1157/9/4 1160/9/4
f 1160/9/4 1157/9/4 1161/9/4
f 1158/9/4 1159/9/4 1162/9/4
f 1154/9/4 1158/9/4 1162/9/4
f 1162/9/4 1159/9/4 1163/9/4
f 1160/8/4 1161/8/4 1164/8/4
f 1159/8/4 1160/8/4 1164/8/4
f 1164/8/4 1161/8/4 1165/8/4
f 1163/9/4 1159/9/4 1166/9/4
f 1159/8/4 1164/8/4 1167/8/4
f 1166/9/4 1159/9/4 1167/9/4
f 1164/9/4 1165/9/4 1168/9/4
f 1167/8/4 1164/8/4 1168/8/4
f 1168/9/4 1165/9/4 1169/9/4
f 1169/9/4 1165/9/4 1170/9/4
f 1167/9/4 1168/9/4 1171/9/4
f 1168/9/4 1169/9/4 1171/9/4
f 1171/9/4 1169/9/4 1172/9/4
f 1173/2/4 1174/2/4 1175/2/4
f 1175/2/4 1174/2/4 1176/2/4
f 1177/3/4 1178/3/4 1179/3/4
f 1179/3/4 1178/3/4 1180/3/4
f 1181/4/4 1182/4/4 1185/4/4
f 1183/4/4 1184/4/4 1186/4/4
f 1184/5/4 1185/5/4 1187/5/4
f 1186/4/4 1184/4/4 1187/4/4
f 1185/4/4 1182/4/4 1188/4/4
f 1187/5/4 1185/5/4 1188/5/4
f 1186/5/4 1187/5/4 1189/5/4
f 1187/4/4 1188/4/4 1190/4/4
f 1189/5/4 1187/5/4 1190/5/4
f 1188/4/4 1182/4/4 1191/4/4
f 1190/4/4 1188/4/4 1191/4/4
f 1189/4/4 1190/4/4 1193/4/4
f 1190/5/4 1191/5/4 1194/5/4
f 1193/4/4 1190/4/4 1194/4/4
f 1191/4/4 1182/4/4 1195/4/4
f 1194/5/4 1191/5/4 1195/5/4
f 1192/4/4 1193/4/4 1197/4/4
f 1193/5/4 1194/5/4 1198/5/4
f 1197/4/4 1193/4/4 1198/4/4
f 1194/4/4 1195/4/4 1199/4/4
f 1198/5/4 1194/5/4 1199/5/4
f 1195/4/4 1182/4/4 1200/4/4
f 1199/4/4 1195/4/4 1200/4/4
f 1196/5/4 1197/5/4 1201/5/4
f 1198/5/4 1199/5/4 1201/5/4
f 1199/5/4 1200/5/4 1201/5/4
f 1197/5/4 1198/5/4 1201/5/4
f 1201/5/4 1200/5/4 1202/5/4
f 1201/4/4 1202/4/4 1204/4/4
f 1202/5/4 1200/5/4 1205/5/4
f 1204/4/4 1202/4/4 1205/4/4
f 1205/5/4 1200/5/4 1206/5/4
f 1203/5/4 1204/5/4 1207/5/4
f 1204/5/4 1205/5/4 1207/5/4
f 1207/5/4 1205/5/4 1208/5/4
f 1205/4/4 1206/4/4 1209/4/4
f 1208/5/4 1205/5/4 1209/5/4
f 1206/5/4 1200/5/4 1210/5/4
f 1209/4/4 1206/4/4 1210/4/4
f 1208/5/4 1209/5/4 1211/5/4
f 1209/5/4 1210/5/4 1211/5/4
f 1210/5/4 1200/5/4 1212/5/4
f 1211/5/4 1210/5/4 1212/5/4
f 1212/5/4 1200/5/4 1213/5/4
f 1200/4/4 1182/4/4 1214/4/4
f 1213/5/4 1200/5/4 1214/5/4
f 1214/4/4 1182/4/4 1215/4/4
f 1215/4/4 1182/4/4 1216/4/4
f 1217/4/4 1218/4/4 1219/4/4
f 1219/4/4 1218/4/4 1220/4/4
f 1221/3/4 1222/3/4 1224/3/4
f 1222/3/4 1223/3/4 1224/3/4
f 1224/3/4 1223/3/4 1225/3/4
f 1225/3/4 1226/3/4 1227/3/4
f 1227/3/4 1226/3/4 1228/3/4
f 1229/3/4 1230/3/4 1231/3/4
f 1231/3/4 1230/3/4 1232/3/4
f 1233/3/4 1234/3/4 1235/3/4
f 1235/3/4 1234/3/4 1236/3/4
f 1237/4/4 1238/4/4 1239/4/4
f 1239/4/4 1238/4/4 1240/4/4
f 1241/3/4 1242/3/4 1243/3/4
f 1243/3/4 1242/3/4 1244/3/4
f 1245/3/4 1246/3/4 1247/3/4
f 1247/3/4 1246/3/4 1248/3/4
f 1249/3/4 1250/3/4 1251/3/4
f 1251/3/4 1250/3/4 1252/3/4
f 1253/9/4 1254/9/4 1256/9/4
f 1256/9/4 1254/9/4 1257/9/4
f 1255/2/4 1256/2/4 1258/2/4
f 1258/2/4 1256/2/4 1259/2/4
f 1260/2/4 1261/2/4 1262/2/4
f 1260/2/4 1262/2/4 1263/2/4
f 1260/2/4 1263/2/4 1264/2/4
f 1264/2/4 1263/2/4 1265/2/4
f 1266/3/4 1267/3/4 1269/3/4
f 1269/3/4 1267/3/4 1270/3/4
f 1268/3/4 1269/3/4 1272/3/4
f 1272/3/4 1269/3/4 1273/3/4
f 1271/3/4 1272/3/4 1274/3/4
f 1274/3/4 1272/3/4 1275/3/4
f 1276/1/4 1277/1/4 1279/1/4
f 1277/2/4 1278/2/4 1280/2/4
f 1279/1/4 1277/1/4 1280/1/4
f 1279/2/4 1280/2/4 1282/2/4
f 1280/2/4 1278/2/4 1283/2/4
f 1282/2/4 1280/2/4 1283/2/4
f 1283/2/4 1278/2/4 1284/2/4
f 1281/2/4 1282/2/4 1285/2/4
f 1282/2/4 1283/2/4 1285/2/4
f 1285/2/4 1283/2/4 1286/2/4
f 1281/2/4 1285/2/4 1287/2/4
f 1287/2/4 1285/2/4 1288/2/4
f 1289/2/4 1290/2/4 1291/2/4
f 1291/2/4 1290/2/4 1292/2/4
f 1293/3/4 1294/3/4 1296/3/4
f 1294/3/4 1295/3/4 1296/3/4
f 1293/3/4 1296/3/4 1298/3/4
f 1296/3/4 1297/3/4 1298/3/4
f 1298/3/4 1297/3/4 1299/3/4
f 1293/3/4 1298/3/4 1300/3/4
f 1299/3/4 1297/3/4 1301/3/4
f 1293/3/4 1300/3/4 1303/3/4
f 1300/3/4 1301/3/4 1303/3/4
f 1301/3/4 1297/3/4 1304/3/4
f 1303/3/4 1301/3/4 1304/3/4
f 1302/3/4 1303/3/4 1306/3/4
f 1306/3/4 1303/3/4 1307/3/4
f 1305/3/4 1306/3/4 1308/3/4
f 1308/3/4 1306/3/4 1309/3/4
f 1310/4/4 1311/4/4 1313/4/4
f 1312/4/4 1313/4/4 1315/4/4
f 1313/4/4 1311/4/4 1316/4/4
f 1315/4/4 1313/4/4 1316/4/4
f 1316/4/4 1311/4/4 1317/4/4
f 1314/4/4 1315/4/4 1318/4/4
f 1315/4/4 1316/4/4 1318/4/4
f 1316/5/4 1317/5/4 1319/5/4
f 1318/4/4 1316/4/4 1319/4/4
f 1317/4/4 1311/4/4 1320/4/4
f 1319/5/4 1317/5/4 1320/5/4
f 1314/4/4 1318/4/4 1322/4/4
f 1318/5/4 1319/5/4 1323/5/4
f 1322/4/4 1318/4/4 1323/4/4
f 1319/4/4 1320/4/4 1324/4/4
f 1323/5/4 1319/5/4 1324/5/4
f 1320/4/4 1311/4/4 1325/4/4
f 1324/4/4 1320/4/4 1325/4/4
f 1321/4/4 1322/4/4 1327/4/4
f 1323/4/4 1324/4/4 1327/4/4
f 1322/4/4 1323/4/4 1327/4/4
f 1327/4/4 1324/4/4 1328/4/4
f 1324/5/4 1325/5/4 1329/5/4
f 1328/4/4 1324/4/4 1329/4/4
f 1325/4/4 1311/4/4 1330/4/4
f 1329/5/4 1325/5/4 1330/5/4
f 1327/4/4 1328/4/4 1331/4/4
f 1326/4/4 1327/4/4 1331/4/4
f 1328/5/4 1329/5/4 1332/5/4
f 1331/4/4 1328/4/4 1332/4/4
f 1329/4/4 1330/4/4 1333/4/4
f 1332/5/4 1329/5/4 1333/5/4
f 1330/4/4 1311/4/4 1334/4/4
f 1333/4/4 1330/4/4 1334/4/4
f 1326/4/4 1331/4/4 1336/4/4
f 1332/5/4 1333/5/4 1337/5/4
f 1331/5/4 1332/5/4 1337/5/4
f 1336/4/4 1331/4/4 1337/4/4
f 1333/5/4 1334/5/4 1337/5/4
f 1337/5/4 1334/5/4 1338/5/4
f 1335/4/4 1336/4/4 1339/4/4
f 1336/4/4 1337/4/4 1339/4/4
f 1337/4/4 1338/4/4 1339/4/4
f 1338/5/4 1334/5/4 1340/5/4
f 1339/4/4 1338/4/4 1340/4/4
f 1340/5/4 1334/5/4 1341/5/4
f 1335/4/4 1339/4/4 1342/4/4
f 1339/5/4 1340/5/4 1342/5/4
f 1342/5/4 1340/5/4 1343/5/4
f 1340/4/4 1341/4/4 1344/4/4
f 1343/5/4 1340/5/4 1344/5/4
f 1341/5/4 1334/5/4 1345/5/4
f 1344/4/4 1341/4/4 1345/4/4
f 1342/4/4 1343/4/4 1346/4/4
f 1335/4/4 1342/4/4 1346/4/4
f 1346/4/4 1343/4/4 1347/4/4
f 1343/5/4 1344/5/4 1348/5/4
f 1347/4/4 1343/4/4 1348/4/4
f 1344/5/4 1345/5/4 1348/5/4
f 1348/5/4 1345/5/4 1349/5/4
f 1349/5/4 1345/5/4 1350/5/4
f 1345/5/4 1334/5/4 1351/5/4
f 1350/5/4 1345/5/4 1351/5/4
f 1347/4/4 1348/4/4 1352/4/4
f 1348/4/4 1349/4/4 1352/4/4
f 1352/4/4 1349/4/4 1353/4/4
f 1349/5/4 1350/5/4 1354/5/4
f 1353/4/4 1349/4/4 1354/4/4
f 1350/4/4 1351/4/4 1355/4/4
f 1354/5/4 1350/5/4 1355/5/4
f 1351/5/4 1334/5/4 1356/5/4
f 1355/4/4 1351/4/4 1356/4/4
f 1334/4/4 1311/4/4 1357/4/4
f 1356/5/4 1334/5/4 1357/5/4
f 1354/4/4 1355/4/4 1358/4/4
f 1353/4/4 1354/4/4 1358/4/4
f 1358/4/4 1355/4/4 1359/4/4
f 1355/5/4 1356/5/4 1360/5/4
f 1359/4/4 1355/4/4 1360/4/4
f 1356/4/4 1357/4/4 1361/4/4
f 1360/5/4 1356/5/4 1361/5/4
f 1359/4/4 1360/4/4 1362/4/4
f 1360/4/4 1361/4/4 1362/4/4
f 1362/4/4 1361/4/4 1363/4/4
f 1361/4/4 1357/4/4 1364/4/4
f 1363/4/4 1361/4/4 1364/4/4
f 1357/4/4 1311/4/4 1365/4/4
f 1364/4/4 1357/4/4 1365/4/4
f 1363/2/4 1364/2/4 1366/2/4
f 1366/2/4 1364/2/4 1367/2/4
f 1368/3/4 1369/3/4 1370/3/4
f 1370/3/4 1369/3/4 1371/3/4
f 1371/3/4 1369/3/4 1372/3/4
f 1372/3/4 1373/3/4 1374/3/4
f 1374/3/4 1373/3/4 1375/3/4
f 1375/3/4 1376/3/4 1377/3/4
f 1377/3/4 1376/3/4 1378/3/4
f 1378/3/4 1379/3/4 1381/3/4
f 1381/3/4 1379/3/4 1382/3/4
f 1380/3/4 1381/3/4 1384/3/4
f 1384/3/4 1381/3/4 1385/3/4
f 1383/3/4 1384/3/4 1388/3/4
f 1388/3/4 1384/3/4 1389/3/4
f 1386/3/4 1387/3/4 1390/3/4
f 1387/3/4 1388/3/4 1390/3/4
f 1390/3/4 1388/3/4 1391/3/4
f 1392/7/4 1393/7/4 1394/7/4
f 1394/7/4 1393/7/4 1395/7/4
f 1396/8/4 1397/8/4 1398/8/4
f 1396/8/4 1398/8/4 1401/8/4
f 1398/8/4 1399/8/4 1401/8/4
f 1401/8/4 1399/8/4 1402/8/4
f 1402/8/4 1399/8/4 1403/8/4
f 1400/8/4 1401/8/4 1404/8/4
f 1401/8/4 1402/8/4 1404/8/4
f 1404/8/4 1402/8/4 1405/8/4
f 1405/8/4 1402/8/4 1406/8/4
f 1406/8/4 1402/8/4 1407/8/4
f 1408/2/4 1409/2/4 1410/2/4
f 1410/2/4 1409/2/4 1411/2/4
f 1411/2/4 1409/2/4 1412/2/4
f 1411/2/4 1412/2/4 1414/2/4
f 1412/2/4 1413/2/4 1414/2/4
f 1414/2/4 1413/2/4 1415/2/4
f 1415/2/4 1413/2/4 1416/2/4
f 1416/2/4 1417/2/4 1420/2/4
f 1415/2/4 1416/2/4 1420/2/4
f 1420/2/4 1417/2/4 1421/2/4
f 1421/2/4 1417/2/4 1422/2/4
f 1418/8/4 1419/8/4 1424/8/4
f 1422/2/4 1423/2/4 1426/2/4
f 1421/2/4 1422/2/4 1426/2/4
f 1426/2/4 1423/2/4 1427/2/4
f 1424/8/4 1425/8/4 1429/8/4
f 1418/8/4 1424/8/4 1429/8/4
f 1429/8/4 1425/8/4 1430/8/4
f 1430/8/4 1425/8/4 1431/8/4
f 1428/8/4 1429/8/4 1432/8/4
f 1429/8/4 1430/8/4 1432/8/4
f 1432/8/4 1430/8/4 1433/8/4
f 1427/2/4 1423/2/4 1435/2/4
f 1433/8/4 1430/8/4 1436/8/4
f 1436/8/4 1430/8/4 1437/8/4
f 1434/2/4 1435/2/4 1439/2/4
f 1435/2/4 1423/2/4 1440/2/4
f 1439/2/4 1435/2/4 1440/2/4
f 1440/2/4 1423/2/4 1441/2/4
f 1438/2/4 1439/2/4 1443/2/4
f 1439/2/4 1440/2/4 1443/2/4
f 1443/2/4 1440/2/4 1444/2/4
f 1444/2/4 1440/2/4 1445/2/4
f 1442/2/4 1443/2/4 1447/2/4
f 1443/2/4 1444/2/4 1447/2/4
f 1447/2/4 1444/2/4 1448/2/4
f 1448/2/4 1444/2/4 1449/2/4
f 1446/2/4 1447/2/4 1450/2/4
f 1447/2/4 1448/2/4 1450/2/4
f 1450/2/4 1448/2/4 1451/2/4
f 1452/9/4 1453/9/4 1455/9/4
f 1455/9/4 1453/9/4 1456/9/4
f 1456/9/4 1453/9/4 1457/9/4
f 1454/9/4 1455/9/4 1460/9/4
f 1456/9/4 1457/9/4 1461/9/4
f 1457/9/4 1458/9/4 1461/9/4
f 1461/9/4 1458/9/4 1462/9/4
f 1459/9/4 1460/9/4 1464/9/4
f 1460/9/4 1455/9/4 1464/9/4
f 1464/9/4 1455/9/4 1465/9/4
f 1462/9/4 1463/9/4 1467/9/4
f 1459/9/4 1464/9/4 1468/9/4
f 1468/9/4 1464/9/4 1469/9/4
f 1466/9/4 1467/9/4 1471/9/4
f 1467/9/4 1463/9/4 1471/9/4
f 1471/9/4 1463/9/4 1472/9/4
f 1469/9/4 1470/9/4 1473/9/4
f 1473/9/4 1470/9/4 1474/9/4
f 1474/9/4 1470/9/4 1475/9/4
f 1466/9/4 1471/9/4 1476/9/4
f 1476/9/4 1471/9/4 1477/9/4
f 1474/9/4 1475/9/4 1478/9/4
f 1475/9/4 1476/9/4 1478/9/4
f 1478/9/4 1476/9/4 1479/9/4
f 1480/9/4 1481/9/4 1483/9/4
f 1483/9/4 1481/9/4 1484/9/4
f 1484/9/4 1481/9/4 1485/9/4
f 1482/9/4 1483/9/4 1488/9/4
f 1484/9/4 1485/9/4 1489/9/4
f 1485/9/4 1486/9/4 1489/9/4
f 1489/9/4 1486/9/4 1490/9/4
f 1487/9/4 1488/9/4 1492/9/4
f 1488/9/4 1483/9/4 1492/9/4
f 1492/9/4 1483/9/4 1493/9/4
f 1490/9/4 1491/9/4 1495/9/4
f 1487/9/4 1492/9/4 1496/9/4
f 1496/9/4 1492/9/4 1497/9/4
f 1494/9/4 1495/9/4 1499/9/4
f 1495/9/4 1491/9/4 1499/9/4
f 1499/9/4 1491/9/4 1500/9/4
f 1497/9/4 1498/9/4 1501/9/4
f 1501/9/4 1498/9/4 1502/9/4
f 1502/9/4 1498/9/4 1503/9/4
f 1494/9/4 1499/9/4 1504/9/4
f 1504/9/4 1499/9/4 1505/9/4
f 1502/9/4 1503/9/4 1506/9/4
f 1503/9/4 1504/9/4 1506/9/4
f 1506/9/4 1504/9/4 1507/9/4
f 1512/9/5 1509/9/5 1508/9/5
f 1513/9/5 1509/9/5 1512/9/5
f 1514/9/5 1511/9/5 1510/9/5
f 1515/9/5 1511/9/5 1514/9/5
f 1520/9/5 1517/9/5 1516/9/5
f 1521/9/5 1517/9/5 1520/9/5
f 1522/9/5 1519/9/5 1518/9/5
f 1523/9/5 1519/9/5 1522/9/5
f 1536/9/5 1525/9/5 1524/9/5
f 1537/9/5 1525/9/5 1536/9/5
f 1538/9/5 1527/9/5 1526/9/5
f 1539/9/5 1527/9/5 1538/9/5
f 1540/2/5 1533/2/5 1532/2/5
f 1542/9/5 1529/9/5 1528/9/5
f 1543/9/5 1529/9/5 1542/9/5
f 1544/9/5 1531/9/5 1530/9/5
f 1545/9/5 1531/9/5 1544/9/5
f 1547/2/5 1535/2/5 1534/2/5
f 1548/2/5 1540/2/5 1532/2/5
f 1549/3/5 1541/3/5 1540/3/5
f 1549/2/5 1540/2/5 1548/2/5
f 1550/3/5 1541/3/5 1549/3/5
f 1551/3/5 1547/3/5 1546/3/5
f 1552/2/5 1535/2/5 1547/2/5
f 1552/3/5 1547/3/5 1551/3/5
f 1553/2/5 1535/2/5 1552/2/5
f 1553/2/5 1552/2/5 1551/2/5
f 1554/2/5 1535/2/5 1553/2/5
f 1555/2/5 1553/2/5 1551/2/5
f 1555/3/5 1554/3/5 1553/3/5
f 1556/3/5 1554/3/5 1555/3/5
f 1558/2/5 1550/2/5 1549/2/5
f 1559/2/5 1550/2/5 1558/2/5
f 1560/2/5 1555/2/5 1551/2/5
f 1560/2/5 1556/2/5 1555/2/5
f 1561/2/5 1556/2/5 1560/2/5
f 1566/3/5 1559/3/5 1558/3/5
f 1566/2/5 1558/2/5 1557/2/5
f 1567/3/5 1559/3/5 1566/3/5
f 1572/3/5 1561/3/5 1560/3/5
f 1573/2/5 1556/2/5 1561/2/5
f 1573/3/5 1561/3/5 1572/3/5
f 1574/2/5 1566/2/5 1557/2/5
f 1575/2/5 1566/2/5 1574/2/5
f 1576/2/5 1556/2/5 1573/2/5
f 1577/2/5 1556/2/5 1576/2/5
f 1578/9/5 1563/9/5 1562/9/5
f 1579/9/5 1563/9/5 1578/9/5
f 1580/9/5 1565/9/5 1564/9/5
f 1581/9/5 1565/9/5 1580/9/5
f 1582/9/5 1569/9/5 1568/9/5
f 1583/9/5 1569/9/5 1582/9/5
f 1584/9/5 1571/9/5 1570/9/5
f 1585/9/5 1571/9/5 1584/9/5
f 1594/9/5 1587/9/5 1586/9/5
f 1595/9/5 1587/9/5 1594/9/5
f 1598/9/5 1589/9/5 1588/9/5
f 1599/9/5 1589/9/5 1598/9/5
f 1600/9/5 1591/9/5 1590/9/5
f 1601/9/5 1591/9/5 1600/9/5
f 1602/9/5 1593/9/5 1592/9/5
f 1603/9/5 1593/9/5 1602/9/5
f 1605/2/5 1597/2/5 1596/2/5
f 1606/2/5 1597/2/5 1605/2/5
f 1608/2/5 1605/2/5 1604/2/5
f 1608/2/5 1607/2/5 1606/2/5
f 1608/2/5 1606/2/5 1605/2/5
f 1609/2/5 1607/2/5 1608/2/5
f 1610/2/5 1607/2/5 1609/2/5
f 1611/2/5 1607/2/5 1610/2/5
f 1614/2/5 1610/2/5 1609/2/5
f 1615/2/5 1610/2/5 1614/2/5
f 1622/9/5 1613/9/5 1612/9/5
f 1623/9/5 1613/9/5 1622/9/5
f 1624/9/5 1617/9/5 1616/9/5
f 1625/9/5 1617/9/5 1624/9/5
f 1626/9/5 1619/9/5 1618/9/5
f 1627/9/5 1619/9/5 1626/9/5
f 1628/9/5 1621/9/5 1620/9/5
f 1629/9/5 1621/9/5 1628/9/5
f 1634/9/5 1631/9/5 1630/9/5
f 1635/9/5 1631/9/5 1634/9/5
f 1636/9/5 1633/9/5 1632/9/5
f 1637/9/5 1633/9/5 1636/9/5
f 1643/4/5 1641/4/5 1640/4/5
f 1644/4/5 1641/4/5 1643/4/5
f 1647/2/5 1639/2/5 1638/2/5
f 1648/2/5 1639/2/5 1647/2/5
f 1649/2/5 1643/2/5 1642/2/5
f 1650/4/5 1644/4/5 1643/4/5
f 1650/2/5 1643/2/5 1649/2/5
f 1651/2/5 1645/2/5 1644/2/5
f 1651/4/5 1644/4/5 1650/4/5
f 1652/2/5 1645/2/5 1651/2/5
f 1653/9/5 1647/9/5 1646/9/5
f 1654/9/5 1647/9/5 1653/9/5
f 1660/2/5 1657/2/5 1656/2/5
f 1661/4/5 1658/4/5 1657/4/5
f 1661/2/5 1657/2/5 1660/2/5
f 1662/2/5 1659/2/5 1658/2/5
f 1662/4/5 1658/4/5 1661/4/5
f 1663/2/5 1659/2/5 1662/2/5
f 1664/4/5 1662/4/5 1661/4/5
f 1665/4/5 1662/4/5 1664/4/5
f 1666/2/5 1655/2/5 1654/2/5
f 1667/2/5 1655/2/5 1666/2/5
f 1672/9/5 1669/9/5 1668/9/5
f 1673/9/5 1669/9/5 1672/9/5
f 1674/9/5 1671/9/5 1670/9/5
f 1675/9/5 1671/9/5 1674/9/5
f 1680/9/5 1677/9/5 1676/9/5
f 1681/9/5 1677/9/5 1680/9/5
f 1684/9/5 1679/9/5 1678/9/5
f 1685/9/5 1679/9/5 1684/9/5
f 1688/2/5 1683/2/5 1682/2/5
f 1689/2/5 1683/2/5 1688/2/5
f 1692/2/5 1687/2/5 1686/2/5
f 1693/2/5 1687/2/5 1692/2/5
f 1699/3/5 1690/3/5 1689/3/5
f 1700/3/5 1690/3/5 1699/3/5
f 1701/3/5 1692/3/5 1691/3/5
f 1702/3/5 1692/3/5 1701/3/5
f 1705/4/5 1695/4/5 1694/4/5
f 1706/4/5 1695/4/5 1705/4/5
f 1707/4/5 1698/4/5 1697/4/5
f 1707/4/5 1697/4/5 1696/4/5
f 1708/4/5 1698/4/5 1707/4/5
f 1709/1/5 1704/1/5 1703/1/5
f 1710/1/5 1704/1/5 1709/1/5
f 1711/2/5 1702/2/5 1701/2/5
f 1714/2/5 1711/2/5 1701/2/5
f 1715/1/5 1713/1/5 1712/1/5
f 1716/1/5 1713/1/5 1715/1/5
f 1721/4/5 1718/4/5 1717/4/5
f 1722/4/5 1718/4/5 1721/4/5
f 1723/4/5 1720/4/5 1719/4/5
f 1724/4/5 1720/4/5 1723/4/5
f 1725/4/5 1720/4/5 1724/4/5
f 1728/2/5 1714/2/5 1701/2/5
f 1729/2/5 1714/2/5 1728/2/5
f 1731/3/5 1727/3/5 1726/3/5
f 1732/3/5 1727/3/5 1731/3/5
f 1733/3/5 1729/3/5 1728/3/5
f 1734/3/5 1729/3/5 1733/3/5
f 1738/2/5 1731/2/5 1730/2/5
f 1739/2/5 1731/2/5 1738/2/5
f 1742/2/5 1735/2/5 1734/2/5
f 1743/2/5 1735/2/5 1742/2/5
f 1744/9/5 1737/9/5 1736/9/5
f 1745/9/5 1737/9/5 1744/9/5
f 1746/9/5 1741/9/5 1740/9/5
f 1747/9/5 1741/9/5 1746/9/5
f 1752/9/5 1749/9/5 1748/9/5
f 1753/9/5 1749/9/5 1752/9/5
f 1756/9/5 1751/9/5 1750/9/5
f 1757/9/5 1751/9/5 1756/9/5
f 1760/2/5 1755/2/5 1754/2/5
f 1761/2/5 1755/2/5 1760/2/5
f 1765/2/5 1759/2/5 1758/2/5
f 1766/2/5 1759/2/5 1765/2/5
f 1770/3/5 1762/3/5 1761/3/5
f 1771/2/5 1764/2/5 1763/2/5
f 1771/2/5 1763/2/5 1762/2/5
f 1771/3/5 1762/3/5 1770/3/5
f 1772/3/5 1765/3/5 1764/3/5
f 1772/2/5 1764/2/5 1771/2/5
f 1773/3/5 1765/3/5 1772/3/5
f 1774/4/5 1768/4/5 1767/4/5
f 1775/4/5 1768/4/5 1774/4/5
f 1778/3/5 1777/3/5 1776/3/5
f 1779/3/5 1777/3/5 1778/3/5
f 1782/3/5 1781/3/5 1780/3/5
f 1783/3/5 1781/3/5 1782/3/5
f 1786/4/5 1785/4/5 1784/4/5
f 1787/4/5 1785/4/5 1786/4/5
f 1788/2/5 1770/2/5 1769/2/5
f 1788/2/5 1773/2/5 1772/2/5
f 1788/2/5 1771/2/5 1770/2/5
f 1788/2/5 1772/2/5 1771/2/5
f 1789/2/5 1773/2/5 1788/2/5
f 1790/2/5 1773/2/5 1789/2/5
f 1791/2/5 1773/2/5 1790/2/5
f 1792/2/5 1773/2/5 1791/2/5
f 1794/3/5 1790/3/5 1789/3/5
f 1795/2/5 1791/2/5 1790/2/5
f 1795/3/5 1790/3/5 1794/3/5
f 1796/2/5 1791/2/5 1795/2/5
f 1797/3/5 1792/3/5 1791/3/5
f 1797/2/5 1791/2/5 1796/2/5
f 1798/3/5 1792/3/5 1797/3/5
f 1802/2/5 1794/2/5 1793/2/5
f 1803/2/5 1794/2/5 1802/2/5
f 1806/2/5 1799/2/5 1798/2/5
f 1807/2/5 1799/2/5 1806/2/5
f 1808/9/5 1801/9/5 1800/9/5
f 1809/9/5 1801/9/5 1808/9/5
f 1810/9/5 1805/9/5 1804/9/5
f 1811/9/5 1805/9/5 1810/9/5
f 1816/2/5 1813/2/5 1812/2/5
f 1817/2/5 1813/2/5 1816/2/5
f 1818/2/5 1815/2/5 1814/2/5
f 1819/2/5 1815/2/5 1818/2/5
f 1822/4/5 1821/4/5 1820/4/5
f 1823/4/5 1821/4/5 1822/4/5
f 1826/3/5 1825/3/5 1824/3/5
f 1827/3/5 1825/3/5 1826/3/5
f 1830/4/5 1829/4/5 1828/4/5
f 1831/4/5 1829/4/5 1830/4/5
f 1836/2/5 1833/2/5 1832/2/5
f 1837/2/5 1833/2/5 1836/2/5
f 1838/2/5 1835/2/5 1834/2/5
f 1839/2/5 1835/2/5 1838/2/5
f 1842/2/5 1841/2/5 1840/2/5
f 1843/2/5 1841/2/5 1842/2/5
f 1846/4/5 1845/4/5 1844/4/5
f 1847/4/5 1845/4/5 1846/4/5
f 1850/2/5 1849/2/5 1848/2/5
f 1851/2/5 1849/2/5 1850/2/5
f 1854/4/5 1853/4/5 1852/4/5
f 1855/4/5 1853/4/5 1854/4/5
f 1858/3/5 1857/3/5 1856/3/5
f 1859/3/5 1857/3/5 1858/3/5
f 1862/3/5 1861/3/5 1860/3/5
f 1864/3/5 1862/3/5 1860/3/5
f 1864/3/5 1863/3/5 1862/3/5
f 1865/3/5 1863/3/5 1864/3/5
f 1866/3/5 1864/3/5 1860/3/5
f 1867/3/5 1864/3/5 1866/3/5
f 1868/9/6 1869/9/6 1872/9/6
f 1872/9/6 1869/9/6 1873/9/6
f 1870/9/6 1871/9/6 1874/9/6
f 1874/9/6 1871/9/6 1875/9/6
f 1876/9/6 1877/9/6 1880/9/6
f 1880/9/6 1877/9/6 1881/9/6
f 1878/9/6 1879/9/6 1882/9/6
f 1882/9/6 1879/9/6 1883/9/6
f 1884/9/6 1885/9/6 1888/9/6
f 1888/9/6 1885/9/6 1889/9/6
f 1886/9/6 1887/9/6 1890/9/6
f 1890/9/6 1887/9/6 1891/9/6
f 1892/3/6 1893/3/6 1894/3/6
f 1894/3/6 1893/3/6 1895/3/6
f 1896/9/6 1897/9/6 1900/9/6
f 1900/9/6 1897/9/6 1901/9/6
f 1898/9/6 1899/9/6 1902/9/6
f 1902/9/6 1899/9/6 1903/9/6
f 1904/9/6 1905/9/6 1908/9/6
f 1908/9/6 1905/9/6 1909/9/6
f 1906/9/6 1907/9/6 1910/9/6
f 1910/9/6 1907/9/6 1911/9/6
f 1912/9/6 1913/9/6 1916/9/6
f 1916/9/6 1913/9/6 1917/9/6
f 1914/9/6 1915/9/6 1918/9/6
f 1918/9/6 1915/9/6 1919/9/6
f 1924/9/6 1925/9/6 1928/9/6
f 1926/9/6 1927/9/6 1929/9/6
f 1920/9/6 1921/9/6 1930/9/6
f 1930/9/6 1921/9/6 1931/9/6
f 1922/9/6 1923/9/6 1935/9/6
f 1935/9/6 1923/9/6 1936/9/6
f 1928/9/6 1925/9/6 1937/9/6
f 1937/9/6 1925/9/6 1938/9/6
f 1926/9/6 1929/9/6 1939/9/6
f 1939/9/6 1929/9/6 1940/9/6
f 1933/2/6 1934/2/6 1941/2/6
f 1932/2/6 1933/2/6 1941/2/6
f 1941/2/6 1934/2/6 1942/2/6
f 1943/4/6 1944/4/6 1947/4/6
f 1947/4/6 1944/4/6 1948/4/6
f 1945/2/6 1946/2/6 1951/2/6
f 1951/2/6 1946/2/6 1952/2/6
f 1952/2/6 1946/2/6 1953/2/6
f 1956/9/6 1957/9/6 1960/9/6
f 1958/9/6 1959/9/6 1961/9/6
f 1949/9/6 1950/9/6 1962/9/6
f 1962/9/6 1950/9/6 1963/9/6
f 1954/9/6 1955/9/6 1964/9/6
f 1964/9/6 1955/9/6 1965/9/6
f 1960/9/6 1957/9/6 1966/9/6
f 1966/9/6 1957/9/6 1967/9/6
f 1958/9/6 1961/9/6 1968/9/6
f 1968/9/6 1961/9/6 1969/9/6
f 1974/9/6 1975/9/6 1980/9/6
f 1976/9/6 1977/9/6 1981/9/6
f 1970/9/6 1971/9/6 1984/9/6
f 1984/9/6 1971/9/6 1985/9/6
f 1972/9/6 1973/9/6 1986/9/6
f 1986/9/6 1973/9/6 1987/9/6
f 1980/9/6 1975/9/6 1988/9/6
f 1988/9/6 1975/9/6 1989/9/6
f 1976/9/6 1981/9/6 1990/9/6
f 1990/9/6 1981/9/6 1991/9/6
f 1982/2/6 1983/2/6 1992/2/6
f 1992/2/6 1983/2/6 1993/2/6
f 1978/2/6 1979/2/6 1994/2/6
f 1994/2/6 1979/2/6 1995/2/6
f 1996/4/6 1997/4/6 2001/4/6
f 1997/4/6 1998/4/6 2001/4/6
f 2001/4/6 1998/4/6 2002/4/6
f 2002/4/6 1998/4/6 2003/4/6
f 1999/4/6 2000/4/6 2004/4/6
f 2004/4/6 2000/4/6 2005/4/6
f 2006/2/6 2007/2/6 2018/2/6
f 2018/2/6 2007/2/6 2019/2/6
f 2012/9/6 2013/9/6 2020/9/6
f 2014/9/6 2015/9/6 2021/9/6
f 2016/2/6 2017/2/6 2022/2/6
f 2022/2/6 2017/2/6 2023/2/6
f 2008/9/6 2009/9/6 2024/9/6
f 2024/9/6 2009/9/6 2025/9/6
f 2010/9/6 2011/9/6 2026/9/6
f 2026/9/6 2011/9/6 2027/9/6
f 2020/9/6 2013/9/6 2028/9/6
f 2028/9/6 2013/9/6 2029/9/6
f 2014/9/6 2021/9/6 2030/9/6
f 2030/9/6 2021/9/6 2031/9/6
f 2034/9/6 2035/9/6 2038/9/6
f 2038/9/6 2035/9/6 2039/9/6
f 2032/9/6 2033/9/6 2042/9/6
f 2042/9/6 2033/9/6 2043/9/6
f 2038/9/6 2039/9/6 2044/9/6
f 2044/9/6 2039/9/6 2045/9/6
f 2040/2/6 2041/2/6 2046/2/6
f 2036/2/6 2037/2/6 2048/2/6
f 2048/2/6 2037/2/6 2049/2/6
f 2040/2/6 2046/2/6 2052/2/6
f 2046/7/6 2047/7/6 2053/7/6
f 2052/2/6 2046/2/6 2053/2/6
f 2053/7/6 2047/7/6 2054/7/6
f 2053/3/6 2054/3/6 2055/3/6
f 2055/3/6 2054/3/6 2056/3/6
f 2057/4/6 2058/4/6 2059/4/6
f 2059/4/6 2058/4/6 2060/4/6
f 2050/4/6 2051/4/6 2063/4/6
f 2063/4/6 2051/4/6 2064/4/6
f 2061/3/6 2062/3/6 2066/3/6
f 2066/3/6 2062/3/6 2067/3/6
f 2065/2/6 2066/2/6 2074/2/6
f 2066/7/6 2067/7/6 2074/7/6
f 2074/7/6 2067/7/6 2075/7/6
f 2068/2/6 2069/2/6 2076/2/6
f 2076/2/6 2069/2/6 2077/2/6
f 2072/9/6 2073/9/6 2078/9/6
f 2078/9/6 2073/9/6 2079/9/6
f 2065/2/6 2074/2/6 2080/2/6
f 2080/2/6 2074/2/6 2081/2/6
f 2070/9/6 2071/9/6 2082/9/6
f 2082/9/6 2071/9/6 2083/9/6
f 2078/9/6 2079/9/6 2084/9/6
f 2084/9/6 2079/9/6 2085/9/6
f 2086/2/6 2087/2/6 2090/2/6
f 2090/2/6 2087/2/6 2091/2/6
f 2088/2/6 2089/2/6 2096/2/6
f 2096/2/6 2089/2/6 2097/2/6
f 2097/3/6 2098/3/6 2101/3/6
f 2101/3/6 2098/3/6 2102/3/6
f 2099/4/6 2100/4/6 2104/4/6
f 2104/4/6 2100/4/6 2105/4/6
f 2106/4/6 2107/4/6 2108/4/6
f 2108/4/6 2107/4/6 2109/4/6
f 2102/3/6 2103/3/6 2111/3/6
f 2111/3/6 2103/3/6 2112/3/6
f 2094/4/6 2095/4/6 2113/4/6
f 2093/4/6 2094/4/6 2113/4/6
f 2092/4/6 2093/4/6 2113/4/6
f 2113/4/6 2095/4/6 2114/4/6
f 2114/4/6 2095/4/6 2115/4/6
f 2115/4/6 2095/4/6 2116/4/6
f 2110/3/6 2111/3/6 2118/3/6
f 2118/3/6 2111/3/6 2119/3/6
f 2120/2/6 2121/2/6 2122/2/6
f 2122/2/6 2121/2/6 2123/2/6
f 2117/2/6 2118/2/6 2124/2/6
f 2124/2/6 2118/2/6 2125/2/6
f 2126/2/6 2127/2/6 2129/2/6
f 2129/2/6 2127/2/6 2132/2/6
f 2128/2/6 2129/2/6 2132/2/6
f 2132/2/6 2127/2/6 2133/2/6
f 2130/4/6 2131/4/6 2135/4/6
f 2135/4/6 2131/4/6 2136/4/6
f 2128/2/6 2132/2/6 2137/2/6
f 2137/2/6 2132/2/6 2138/2/6
f 2133/3/6 2134/3/6 2139/3/6
f 2139/3/6 2134/3/6 2140/3/6
f 2140/3/6 2141/3/6 2142/3/6
f 2142/3/6 2141/3/6 2143/3/6
f 2144/3/6 2145/3/6 2149/3/6
f 2149/3/6 2145/3/6 2150/3/6
f 2146/4/6 2147/4/6 2151/4/6
f 2151/4/6 2147/4/6 2152/4/6
f 2148/3/6 2149/3/6 2154/3/6
f 2154/3/6 2149/3/6 2155/3/6
f 2153/2/6 2154/2/6 2156/2/6
f 2156/2/6 2154/2/6 2157/2/6
f 2157/2/6 2154/2/6 2158/2/6
f 2158/2/6 2154/2/6 2159/2/6
f 2164/3/6 2165/3/6 2168/3/6
f 2168/3/6 2165/3/6 2169/3/6
f 2168/2/6 2169/2/6 2170/2/6
f 2168/2/6 2170/2/6 2174/2/6
f 2170/2/6 2171/2/6 2174/2/6
f 2174/2/6 2171/2/6 2175/2/6
f 2172/3/6 2173/3/6 2176/3/6
f 2176/3/6 2173/3/6 2177/3/6
f 2166/3/6 2167/3/6 2178/3/6
f 2178/3/6 2167/3/6 2179/3/6
f 2168/2/6 2174/2/6 2180/2/6
f 2180/2/6 2174/2/6 2181/2/6
f 2160/4/6 2161/4/6 2182/4/6
f 2182/4/6 2161/4/6 2183/4/6
f 2162/4/6 2163/4/6 2184/4/6
f 2184/4/6 2163/4/6 2185/4/6
f 2180/3/6 2181/3/6 2186/3/6
f 2186/3/6 2181/3/6 2187/3/6
f 2188/4/6 2189/4/6 2190/4/6
f 2190/4/6 2189/4/6 2191/4/6
f 2191/4/6 2189/4/6 2192/4/6
f 2191/4/6 2192/4/6 2193/4/6
f 2194/3/6 2195/3/6 2197/3/6
f 2195/3/6 2196/3/6 2197/3/6
f 2197/3/6 2196/3/6 2198/3/6
f 2198/3/6 2196/3/6 2200/3/6
f 2191/4/6 2193/4/6 2201/4/6
f 2199/3/6 2200/3/6 2202/3/6
f 2200/3/6 2196/3/6 2203/3/6
f 2202/3/6 2200/3/6 2203/3/6
f 2203/3/6 2196/3/6 2204/3/6
f 2188/4/6 2190/4/6 2205/4/6
f 2191/4/6 2201/4/6 2206/4/6
f 2206/4/6 2201/4/6 2207/4/6
f 2188/4/6 2205/4/6 2208/4/6
f 2205/4/6 2206/4/6 2208/4/6
f 2206/4/6 2207/4/6 2208/4/6
f 2208/4/6 2207/4/6 2209/4/6
f 2210/3/6 2211/3/6 2212/3/6
f 2212/3/6 2211/3/6 2213/3/6
f 2213/3/6 2214/3/6 2216/3/6
f 2216/3/6 2214/3/6 2217/3/6
f 2215/3/6 2216/3/6 2218/3/6
f 2218/3/6 2216/3/6 2219/3/6
f 2220/3/6 2221/3/6 2222/3/6
f 2222/3/6 2221/3/6 2223/3/6
f 2223/3/6 2221/3/6 2225/3/6
f 2224/3/6 2225/3/6 2226/3/6
f 2225/3/6 2221/3/6 2227/3/6
f 2226/3/6 2225/3/6 2227/3/6
