# MagicaVoxel @ Ephtracy

# group
o 

# material
mtllib WC.mtl
usemtl palette

# normals
vn -1 0 0
vn 1 0 0
vn 0 0 1
vn 0 0 -1
vn 0 -1 0
vn 0 1 0

# texcoords
vt 0.724609 0.5
vt 0.728516 0.5
vt 0.732422 0.5
vt 0.947266 0.5
vt 0.951172 0.5
vt 0.955078 0.5

# verts
v 3.3 4.8 3.6
v 3.3 4.8 3.5
v 3.3 4.8 3.4
v 3.3 4.9 3.6
v 3.3 4.9 3.5
v 3.3 4.9 3.4
v 3.3 5 3.6
v 3.3 5 3.5
v 3.3 5 3.4
v 3.3 5.1 3.8
v 3.3 5.1 3.7
v 3.3 5.1 3.6
v 3.3 5.1 3.5
v 3.3 5.1 3.4
v 3.3 5.1 3.3
v 3.3 5.1 3.2
v 3.3 5.2 3.8
v 3.3 5.2 3.7
v 3.3 5.2 3.6
v 3.3 5.2 3.5
v 3.3 5.2 3.4
v 3.3 5.2 3.3
v 3.3 5.2 3.2
v 3.3 5.3 3.7
v 3.3 5.3 3.6
v 3.3 5.3 3.5
v 3.3 5.3 3.4
v 3.3 5.3 3.3
v 3.3 5.4 3.6
v 3.3 5.4 3.5
v 3.3 5.4 3.4
v 3.4 4.8 3.7
v 3.4 4.8 3.6
v 3.4 4.8 3.4
v 3.4 4.8 3.3
v 3.4 4.9 3.7
v 3.4 4.9 3.6
v 3.4 4.9 3.4
v 3.4 4.9 3.3
v 3.4 5 3.7
v 3.4 5 3.6
v 3.4 5 3.4
v 3.4 5 3.3
v 3.4 5.1 3.7
v 3.4 5.1 3.6
v 3.4 5.1 3.4
v 3.4 5.1 3.3
v 3.4 5.2 3.7
v 3.4 5.2 3.6
v 3.4 5.2 3.4
v 3.4 5.2 3.3
v 3.6 5.1 3.7
v 3.6 5.1 3.6
v 3.6 5.2 3.7
v 3.6 5.2 3.6
v 3.6 5.2 3.5
v 3.6 5.2 3.4
v 3.6 5.3 3.6
v 3.6 5.3 3.5
v 3.6 5.3 3.4
v 3.7 4.8 3.6
v 3.7 4.8 3.4
v 3.7 4.9 3.6
v 3.7 4.9 3.5
v 3.7 4.9 3.4
v 3.7 5 3.6
v 3.7 5 3.5
v 3.7 5 3.4
v 3.7 5.1 3.6
v 3.7 5.1 3.5
v 3.7 5.1 3.4
v 3.7 5.2 3.6
v 3.7 5.2 3.5
v 3.7 5.2 3.4
v 3.4 4.8 3.6
v 3.4 4.8 3.5
v 3.4 4.8 3.4
v 3.4 4.9 3.6
v 3.4 4.9 3.5
v 3.4 4.9 3.4
v 3.4 5 3.6
v 3.4 5 3.5
v 3.4 5 3.4
v 3.4 5.1 3.6
v 3.4 5.1 3.5
v 3.4 5.1 3.4
v 3.4 5.2 3.6
v 3.4 5.2 3.5
v 3.4 5.2 3.4
v 3.4 5.3 3.6
v 3.4 5.3 3.5
v 3.4 5.3 3.4
v 3.5 5.1 3.7
v 3.5 5.1 3.6
v 3.5 5.2 3.7
v 3.5 5.2 3.6
v 3.7 4.8 3.7
v 3.7 4.8 3.6
v 3.7 4.8 3.4
v 3.7 4.8 3.3
v 3.7 4.9 3.7
v 3.7 4.9 3.6
v 3.7 4.9 3.4
v 3.7 4.9 3.3
v 3.7 5 3.7
v 3.7 5 3.6
v 3.7 5 3.4
v 3.7 5 3.3
v 3.7 5.1 3.7
v 3.7 5.1 3.6
v 3.7 5.1 3.4
v 3.7 5.1 3.3
v 3.7 5.2 3.7
v 3.7 5.2 3.6
v 3.7 5.2 3.5
v 3.7 5.2 3.4
v 3.7 5.2 3.3
v 3.7 5.3 3.6
v 3.7 5.3 3.5
v 3.7 5.3 3.4
v 3.8 4.8 3.6
v 3.8 4.8 3.4
v 3.8 4.9 3.6
v 3.8 4.9 3.5
v 3.8 4.9 3.4
v 3.8 5 3.6
v 3.8 5 3.5
v 3.8 5 3.4
v 3.8 5.1 3.8
v 3.8 5.1 3.7
v 3.8 5.1 3.6
v 3.8 5.1 3.5
v 3.8 5.1 3.4
v 3.8 5.1 3.3
v 3.8 5.1 3.2
v 3.8 5.2 3.8
v 3.8 5.2 3.7
v 3.8 5.2 3.6
v 3.8 5.2 3.5
v 3.8 5.2 3.4
v 3.8 5.2 3.3
v 3.8 5.2 3.2
v 3.8 5.3 3.7
v 3.8 5.3 3.6
v 3.8 5.3 3.5
v 3.8 5.3 3.4
v 3.8 5.3 3.3
v 3.8 5.4 3.6
v 3.8 5.4 3.5
v 3.8 5.4 3.4
v 3.3 5.1 3.8
v 3.3 5.2 3.8
v 3.4 5.1 3.8
v 3.4 5.2 3.8
v 3.5 5.1 3.8
v 3.5 5.2 3.8
v 3.6 5.1 3.8
v 3.6 5.2 3.8
v 3.7 5.1 3.8
v 3.7 5.2 3.8
v 3.8 5.1 3.8
v 3.8 5.2 3.8
v 3.3 5.2 3.7
v 3.3 5.3 3.7
v 3.4 4.8 3.7
v 3.4 4.9 3.7
v 3.4 5 3.7
v 3.4 5.1 3.7
v 3.4 5.2 3.7
v 3.4 5.3 3.7
v 3.5 4.8 3.7
v 3.5 4.9 3.7
v 3.5 5.1 3.7
v 3.5 5.2 3.7
v 3.5 5.3 3.7
v 3.6 4.8 3.7
v 3.6 4.9 3.7
v 3.6 5 3.7
v 3.6 5.1 3.7
v 3.6 5.2 3.7
v 3.6 5.3 3.7
v 3.7 4.8 3.7
v 3.7 4.9 3.7
v 3.7 5 3.7
v 3.7 5.1 3.7
v 3.7 5.2 3.7
v 3.7 5.3 3.7
v 3.8 5.2 3.7
v 3.8 5.3 3.7
v 3.3 4.8 3.6
v 3.3 4.9 3.6
v 3.3 5 3.6
v 3.3 5.1 3.6
v 3.3 5.2 3.6
v 3.3 5.3 3.6
v 3.3 5.4 3.6
v 3.4 4.8 3.6
v 3.4 4.9 3.6
v 3.4 5 3.6
v 3.4 5.1 3.6
v 3.4 5.2 3.6
v 3.4 5.3 3.6
v 3.4 5.4 3.6
v 3.5 5.3 3.6
v 3.5 5.4 3.6
v 3.6 5.3 3.6
v 3.6 5.4 3.6
v 3.7 4.8 3.6
v 3.7 4.9 3.6
v 3.7 5 3.6
v 3.7 5.1 3.6
v 3.7 5.2 3.6
v 3.7 5.3 3.6
v 3.7 5.4 3.6
v 3.8 4.8 3.6
v 3.8 4.9 3.6
v 3.8 5 3.6
v 3.8 5.1 3.6
v 3.8 5.2 3.6
v 3.8 5.3 3.6
v 3.8 5.4 3.6
v 3.4 4.8 3.4
v 3.4 4.9 3.4
v 3.4 5 3.4
v 3.4 5.1 3.4
v 3.4 5.2 3.4
v 3.4 5.3 3.4
v 3.5 4.9 3.4
v 3.5 5 3.4
v 3.5 5.1 3.4
v 3.5 5.2 3.4
v 3.5 5.3 3.4
v 3.6 4.9 3.4
v 3.6 5 3.4
v 3.6 5.1 3.4
v 3.6 5.2 3.4
v 3.6 5.3 3.4
v 3.7 4.8 3.4
v 3.7 4.9 3.4
v 3.7 5 3.4
v 3.7 5.1 3.4
v 3.7 5.2 3.4
v 3.7 5.3 3.4
v 3.8 5.2 3.4
v 3.8 5.3 3.4
v 3.3 5.1 3.3
v 3.3 5.2 3.3
v 3.4 5.1 3.3
v 3.4 5.2 3.3
v 3.7 5.1 3.3
v 3.7 5.2 3.3
v 3.8 5.1 3.3
v 3.8 5.2 3.3
v 3.3 5.1 3.7
v 3.3 5.2 3.7
v 3.4 5.1 3.7
v 3.4 5.2 3.7
v 3.5 5.1 3.7
v 3.5 5.2 3.7
v 3.6 5.1 3.7
v 3.6 5.2 3.7
v 3.7 5.1 3.7
v 3.7 5.2 3.7
v 3.8 5.1 3.7
v 3.8 5.2 3.7
v 3.4 4.8 3.6
v 3.4 4.9 3.6
v 3.4 5 3.6
v 3.4 5.1 3.6
v 3.4 5.2 3.6
v 3.4 5.3 3.6
v 3.5 4.8 3.6
v 3.5 4.9 3.6
v 3.5 5.1 3.6
v 3.5 5.2 3.6
v 3.5 5.3 3.6
v 3.6 4.8 3.6
v 3.6 4.9 3.6
v 3.6 5 3.6
v 3.6 5.1 3.6
v 3.6 5.2 3.6
v 3.6 5.3 3.6
v 3.7 4.8 3.6
v 3.7 4.9 3.6
v 3.7 5 3.6
v 3.7 5.1 3.6
v 3.7 5.2 3.6
v 3.7 5.3 3.6
v 3.8 5.2 3.6
v 3.8 5.3 3.6
v 3.3 4.8 3.4
v 3.3 4.9 3.4
v 3.3 5 3.4
v 3.3 5.1 3.4
v 3.3 5.2 3.4
v 3.3 5.3 3.4
v 3.3 5.4 3.4
v 3.4 4.8 3.4
v 3.4 4.9 3.4
v 3.4 5 3.4
v 3.4 5.1 3.4
v 3.4 5.2 3.4
v 3.4 5.3 3.4
v 3.5 5.3 3.4
v 3.5 5.4 3.4
v 3.6 5.3 3.4
v 3.6 5.4 3.4
v 3.7 4.8 3.4
v 3.7 4.9 3.4
v 3.7 5 3.4
v 3.7 5.1 3.4
v 3.7 5.2 3.4
v 3.7 5.3 3.4
v 3.7 5.4 3.4
v 3.8 4.8 3.4
v 3.8 4.9 3.4
v 3.8 5 3.4
v 3.8 5.1 3.4
v 3.8 5.2 3.4
v 3.8 5.3 3.4
v 3.8 5.4 3.4
v 3.3 5.2 3.3
v 3.3 5.3 3.3
v 3.4 4.8 3.3
v 3.4 4.9 3.3
v 3.4 5 3.3
v 3.4 5.1 3.3
v 3.4 5.2 3.3
v 3.4 5.3 3.3
v 3.5 4.9 3.3
v 3.5 5 3.3
v 3.5 5.1 3.3
v 3.5 5.2 3.3
v 3.5 5.3 3.3
v 3.6 4.9 3.3
v 3.6 5 3.3
v 3.6 5.1 3.3
v 3.6 5.2 3.3
v 3.6 5.3 3.3
v 3.7 4.8 3.3
v 3.7 4.9 3.3
v 3.7 5 3.3
v 3.7 5.1 3.3
v 3.7 5.2 3.3
v 3.7 5.3 3.3
v 3.8 5.2 3.3
v 3.8 5.3 3.3
v 3.3 5.1 3.2
v 3.3 5.2 3.2
v 3.4 5.1 3.2
v 3.4 5.2 3.2
v 3.5 5.1 3.2
v 3.5 5.2 3.2
v 3.6 5.1 3.2
v 3.6 5.2 3.2
v 3.7 5.1 3.2
v 3.7 5.2 3.2
v 3.8 5.1 3.2
v 3.8 5.2 3.2
v 3.4 4.8 3.7
v 3.5 4.8 3.7
v 3.6 4.8 3.7
v 3.7 4.8 3.7
v 3.3 4.8 3.6
v 3.4 4.8 3.6
v 3.5 4.8 3.6
v 3.6 4.8 3.6
v 3.7 4.8 3.6
v 3.8 4.8 3.6
v 3.3 4.8 3.5
v 3.4 4.8 3.5
v 3.3 4.8 3.4
v 3.4 4.8 3.4
v 3.7 4.8 3.4
v 3.8 4.8 3.4
v 3.4 4.8 3.3
v 3.7 4.8 3.3
v 3.3 5.1 3.8
v 3.4 5.1 3.8
v 3.5 5.1 3.8
v 3.6 5.1 3.8
v 3.7 5.1 3.8
v 3.8 5.1 3.8
v 3.3 5.1 3.7
v 3.4 5.1 3.7
v 3.5 5.1 3.7
v 3.6 5.1 3.7
v 3.7 5.1 3.7
v 3.8 5.1 3.7
v 3.3 5.1 3.3
v 3.4 5.1 3.3
v 3.5 5.1 3.3
v 3.6 5.1 3.3
v 3.7 5.1 3.3
v 3.8 5.1 3.3
v 3.3 5.1 3.2
v 3.4 5.1 3.2
v 3.5 5.1 3.2
v 3.6 5.1 3.2
v 3.7 5.1 3.2
v 3.8 5.1 3.2
v 3.3 5.2 3.7
v 3.4 5.2 3.7
v 3.5 5.2 3.7
v 3.6 5.2 3.7
v 3.7 5.2 3.7
v 3.8 5.2 3.7
v 3.3 5.2 3.6
v 3.4 5.2 3.6
v 3.5 5.2 3.6
v 3.6 5.2 3.6
v 3.7 5.2 3.6
v 3.8 5.2 3.6
v 3.6 5.2 3.5
v 3.7 5.2 3.5
v 3.3 5.2 3.4
v 3.4 5.2 3.4
v 3.6 5.2 3.4
v 3.7 5.2 3.4
v 3.8 5.2 3.4
v 3.3 5.2 3.3
v 3.4 5.2 3.3
v 3.7 5.2 3.3
v 3.8 5.2 3.3
v 3.4 5.3 3.6
v 3.5 5.3 3.6
v 3.6 5.3 3.6
v 3.7 5.3 3.6
v 3.8 5.3 3.6
v 3.4 5.3 3.5
v 3.5 5.3 3.5
v 3.6 5.3 3.5
v 3.7 5.3 3.5
v 3.8 5.3 3.5
v 3.4 5.3 3.4
v 3.5 5.3 3.4
v 3.6 5.3 3.4
v 3.7 5.3 3.4
v 3.8 5.3 3.4
v 3.5 5.1 3.7
v 3.6 5.1 3.7
v 3.5 5.1 3.6
v 3.6 5.1 3.6
v 3.3 5.2 3.8
v 3.4 5.2 3.8
v 3.5 5.2 3.8
v 3.6 5.2 3.8
v 3.7 5.2 3.8
v 3.8 5.2 3.8
v 3.3 5.2 3.7
v 3.4 5.2 3.7
v 3.5 5.2 3.7
v 3.6 5.2 3.7
v 3.7 5.2 3.7
v 3.8 5.2 3.7
v 3.7 5.2 3.6
v 3.8 5.2 3.6
v 3.7 5.2 3.5
v 3.8 5.2 3.5
v 3.7 5.2 3.4
v 3.8 5.2 3.4
v 3.3 5.2 3.3
v 3.4 5.2 3.3
v 3.5 5.2 3.3
v 3.6 5.2 3.3
v 3.7 5.2 3.3
v 3.8 5.2 3.3
v 3.3 5.2 3.2
v 3.4 5.2 3.2
v 3.5 5.2 3.2
v 3.6 5.2 3.2
v 3.7 5.2 3.2
v 3.8 5.2 3.2
v 3.3 5.3 3.7
v 3.4 5.3 3.7
v 3.5 5.3 3.7
v 3.6 5.3 3.7
v 3.7 5.3 3.7
v 3.8 5.3 3.7
v 3.3 5.3 3.6
v 3.4 5.3 3.6
v 3.5 5.3 3.6
v 3.6 5.3 3.6
v 3.7 5.3 3.6
v 3.8 5.3 3.6
v 3.3 5.3 3.4
v 3.4 5.3 3.4
v 3.5 5.3 3.4
v 3.6 5.3 3.4
v 3.7 5.3 3.4
v 3.8 5.3 3.4
v 3.3 5.3 3.3
v 3.4 5.3 3.3
v 3.5 5.3 3.3
v 3.6 5.3 3.3
v 3.7 5.3 3.3
v 3.8 5.3 3.3
v 3.3 5.4 3.6
v 3.4 5.4 3.6
v 3.5 5.4 3.6
v 3.6 5.4 3.6
v 3.7 5.4 3.6
v 3.8 5.4 3.6
v 3.3 5.4 3.5
v 3.4 5.4 3.5
v 3.5 5.4 3.5
v 3.6 5.4 3.5
v 3.7 5.4 3.5
v 3.8 5.4 3.5
v 3.3 5.4 3.4
v 3.5 5.4 3.4
v 3.6 5.4 3.4
v 3.7 5.4 3.4
v 3.8 5.4 3.4

# faces
f 4/1/1 2/1/1 1/1/1
f 5/2/1 3/2/1 2/2/1
f 5/1/1 2/1/1 4/1/1
f 6/2/1 3/2/1 5/2/1
f 7/2/1 5/2/1 4/2/1
f 8/1/1 6/1/1 5/1/1
f 8/2/1 5/2/1 7/2/1
f 9/1/1 6/1/1 8/1/1
f 12/1/1 8/1/1 7/1/1
f 13/2/1 9/2/1 8/2/1
f 13/1/1 8/1/1 12/1/1
f 14/2/1 9/2/1 13/2/1
f 17/5/1 11/5/1 10/5/1
f 18/5/1 11/5/1 17/5/1
f 19/2/1 13/2/1 12/2/1
f 20/1/1 14/1/1 13/1/1
f 20/2/1 13/2/1 19/2/1
f 21/1/1 14/1/1 20/1/1
f 22/4/1 16/4/1 15/4/1
f 23/4/1 16/4/1 22/4/1
f 24/4/1 19/4/1 18/4/1
f 25/1/1 20/1/1 19/1/1
f 25/4/1 19/4/1 24/4/1
f 26/2/1 21/2/1 20/2/1
f 26/1/1 20/1/1 25/1/1
f 27/5/1 22/5/1 21/5/1
f 27/2/1 21/2/1 26/2/1
f 28/5/1 22/5/1 27/5/1
f 29/5/1 26/5/1 25/5/1
f 30/4/1 27/4/1 26/4/1
f 30/5/1 26/5/1 29/5/1
f 31/4/1 27/4/1 30/4/1
f 36/2/1 33/2/1 32/2/1
f 37/2/1 33/2/1 36/2/1
f 38/1/1 35/1/1 34/1/1
f 39/1/1 35/1/1 38/1/1
f 40/1/1 37/1/1 36/1/1
f 41/1/1 37/1/1 40/1/1
f 42/2/1 39/2/1 38/2/1
f 43/2/1 39/2/1 42/2/1
f 44/2/1 41/2/1 40/2/1
f 45/2/1 41/2/1 44/2/1
f 46/1/1 43/1/1 42/1/1
f 47/1/1 43/1/1 46/1/1
f 48/2/1 45/2/1 44/2/1
f 49/2/1 45/2/1 48/2/1
f 50/1/1 47/1/1 46/1/1
f 51/1/1 47/1/1 50/1/1
f 54/2/1 53/2/1 52/2/1
f 55/2/1 53/2/1 54/2/1
f 58/2/1 56/2/1 55/2/1
f 59/1/1 57/1/1 56/1/1
f 59/2/1 56/2/1 58/2/1
f 60/1/1 57/1/1 59/1/1
f 63/3/1 62/3/1 61/3/1
f 64/3/1 62/3/1 63/3/1
f 65/3/1 62/3/1 64/3/1
f 66/1/1 64/1/1 63/1/1
f 67/2/1 65/2/1 64/2/1
f 67/1/1 64/1/1 66/1/1
f 68/2/1 65/2/1 67/2/1
f 69/2/1 67/2/1 66/2/1
f 70/1/1 68/1/1 67/1/1
f 70/2/1 67/2/1 69/2/1
f 71/1/1 68/1/1 70/1/1
f 72/1/1 70/1/1 69/1/1
f 73/2/1 71/2/1 70/2/1
f 73/1/1 70/1/1 72/1/1
f 74/2/1 71/2/1 73/2/1
f 75/1/2 76/1/2 78/1/2
f 76/2/2 77/2/2 79/2/2
f 78/1/2 76/1/2 79/1/2
f 79/2/2 77/2/2 80/2/2
f 78/2/2 79/2/2 81/2/2
f 79/1/2 80/1/2 82/1/2
f 81/2/2 79/2/2 82/2/2
f 82/1/2 80/1/2 83/1/2
f 81/1/2 82/1/2 84/1/2
f 82/2/2 83/2/2 85/2/2
f 84/1/2 82/1/2 85/1/2
f 85/2/2 83/2/2 86/2/2
f 84/2/2 85/2/2 87/2/2
f 85/1/2 86/1/2 88/1/2
f 87/2/2 85/2/2 88/2/2
f 88/1/2 86/1/2 89/1/2
f 87/1/2 88/1/2 90/1/2
f 88/2/2 89/2/2 91/2/2
f 90/1/2 88/1/2 91/1/2
f 91/2/2 89/2/2 92/2/2
f 93/2/2 94/2/2 95/2/2
f 95/2/2 94/2/2 96/2/2
f 97/2/2 98/2/2 101/2/2
f 101/2/2 98/2/2 102/2/2
f 99/1/2 100/1/2 103/1/2
f 103/1/2 100/1/2 104/1/2
f 101/3/2 102/3/2 105/3/2
f 105/3/2 102/3/2 106/3/2
f 103/3/2 104/3/2 107/3/2
f 107/3/2 104/3/2 108/3/2
f 105/1/2 106/1/2 109/1/2
f 109/1/2 106/1/2 110/1/2
f 107/1/2 108/1/2 111/1/2
f 111/1/2 108/1/2 112/1/2
f 109/2/2 110/2/2 113/2/2
f 113/2/2 110/2/2 114/2/2
f 111/3/2 112/3/2 116/3/2
f 116/3/2 112/3/2 117/3/2
f 114/2/2 115/2/2 118/2/2
f 115/1/2 116/1/2 119/1/2
f 118/2/2 115/2/2 119/2/2
f 119/1/2 116/1/2 120/1/2
f 121/3/2 122/3/2 123/3/2
f 123/3/2 122/3/2 124/3/2
f 124/3/2 122/3/2 125/3/2
f 123/1/2 124/1/2 126/1/2
f 124/2/2 125/2/2 127/2/2
f 126/1/2 124/1/2 127/1/2
f 127/2/2 125/2/2 128/2/2
f 126/2/2 127/2/2 131/2/2
f 127/1/2 128/1/2 132/1/2
f 131/2/2 127/2/2 132/2/2
f 132/1/2 128/1/2 133/1/2
f 129/6/2 130/6/2 136/6/2
f 136/6/2 130/6/2 137/6/2
f 131/1/2 132/1/2 138/1/2
f 132/2/2 133/2/2 139/2/2
f 138/1/2 132/1/2 139/1/2
f 139/2/2 133/2/2 140/2/2
f 134/4/2 135/4/2 141/4/2
f 141/4/2 135/4/2 142/4/2
f 137/5/2 138/5/2 143/5/2
f 143/5/2 138/5/2 144/5/2
f 140/5/2 141/5/2 146/5/2
f 146/5/2 141/5/2 147/5/2
f 144/4/2 145/4/2 148/4/2
f 145/6/2 146/6/2 149/6/2
f 148/4/2 145/4/2 149/4/2
f 149/6/2 146/6/2 150/6/2
f 153/5/3 152/5/3 151/5/3
f 154/5/3 152/5/3 153/5/3
f 155/4/3 154/4/3 153/4/3
f 156/4/3 154/4/3 155/4/3
f 157/5/3 156/5/3 155/5/3
f 158/5/3 156/5/3 157/5/3
f 159/4/3 158/4/3 157/4/3
f 160/4/3 158/4/3 159/4/3
f 161/6/3 160/6/3 159/6/3
f 162/6/3 160/6/3 161/6/3
f 169/4/3 164/4/3 163/4/3
f 170/4/3 164/4/3 169/4/3
f 171/2/3 166/2/3 165/2/3
f 172/1/3 167/1/3 166/1/3
f 172/2/3 166/2/3 171/2/3
f 173/2/3 168/2/3 167/2/3
f 174/5/3 170/5/3 169/5/3
f 175/5/3 170/5/3 174/5/3
f 176/1/3 172/1/3 171/1/3
f 177/1/3 167/1/3 172/1/3
f 177/1/3 172/1/3 176/1/3
f 178/2/3 173/2/3 167/2/3
f 178/1/3 167/1/3 177/1/3
f 179/2/3 173/2/3 178/2/3
f 180/4/3 175/4/3 174/4/3
f 181/4/3 175/4/3 180/4/3
f 182/2/3 177/2/3 176/2/3
f 183/3/3 178/3/3 177/3/3
f 183/2/3 177/2/3 182/2/3
f 184/1/3 179/1/3 178/1/3
f 184/3/3 178/3/3 183/3/3
f 185/1/3 179/1/3 184/1/3
f 186/6/3 181/6/3 180/6/3
f 187/6/3 181/6/3 186/6/3
f 188/5/3 187/5/3 186/5/3
f 189/5/3 187/5/3 188/5/3
f 197/1/3 191/1/3 190/1/3
f 198/2/3 192/2/3 191/2/3
f 198/1/3 191/1/3 197/1/3
f 199/1/3 193/1/3 192/1/3
f 199/2/3 192/2/3 198/2/3
f 200/2/3 194/2/3 193/2/3
f 200/1/3 193/1/3 199/1/3
f 201/2/3 194/2/3 200/2/3
f 202/5/3 196/5/3 195/5/3
f 203/5/3 196/5/3 202/5/3
f 204/6/3 203/6/3 202/6/3
f 205/6/3 203/6/3 204/6/3
f 206/4/3 205/4/3 204/4/3
f 207/4/3 205/4/3 206/4/3
f 213/5/3 207/5/3 206/5/3
f 214/5/3 207/5/3 213/5/3
f 215/3/3 209/3/3 208/3/3
f 216/1/3 210/1/3 209/1/3
f 216/3/3 209/3/3 215/3/3
f 217/2/3 211/2/3 210/2/3
f 217/1/3 210/1/3 216/1/3
f 218/1/3 212/1/3 211/1/3
f 218/2/3 211/2/3 217/2/3
f 219/1/3 212/1/3 218/1/3
f 220/4/3 214/4/3 213/4/3
f 221/4/3 214/4/3 220/4/3
f 228/1/3 223/1/3 222/1/3
f 228/2/3 224/2/3 223/2/3
f 229/1/3 226/1/3 225/1/3
f 229/2/3 224/2/3 228/2/3
f 229/1/3 225/1/3 224/1/3
f 230/1/3 226/1/3 229/1/3
f 231/6/3 227/6/3 226/6/3
f 231/1/3 226/1/3 230/1/3
f 232/6/3 227/6/3 231/6/3
f 233/1/3 228/1/3 222/1/3
f 233/1/3 229/1/3 228/1/3
f 234/2/3 230/2/3 229/2/3
f 234/1/3 229/1/3 233/1/3
f 235/1/3 231/1/3 230/1/3
f 235/2/3 230/2/3 234/2/3
f 236/4/3 232/4/3 231/4/3
f 236/1/3 231/1/3 235/1/3
f 237/4/3 232/4/3 236/4/3
f 238/1/3 233/1/3 222/1/3
f 239/3/3 234/3/3 233/3/3
f 239/1/3 233/1/3 238/1/3
f 240/1/3 235/1/3 234/1/3
f 240/3/3 234/3/3 239/3/3
f 241/3/3 236/3/3 235/3/3
f 241/1/3 235/1/3 240/1/3
f 242/3/3 236/3/3 241/3/3
f 244/5/3 243/5/3 242/5/3
f 245/5/3 243/5/3 244/5/3
f 248/4/3 247/4/3 246/4/3
f 249/4/3 247/4/3 248/4/3
f 252/4/3 251/4/3 250/4/3
f 253/4/3 251/4/3 252/4/3
f 254/5/4 255/5/4 256/5/4
f 256/5/4 255/5/4 257/5/4
f 258/5/4 259/5/4 260/5/4
f 260/5/4 259/5/4 261/5/4
f 262/6/4 263/6/4 264/6/4
f 264/6/4 263/6/4 265/6/4
f 266/2/4 267/2/4 272/2/4
f 267/1/4 268/1/4 273/1/4
f 272/2/4 267/2/4 273/2/4
f 268/2/4 269/2/4 274/2/4
f 269/2/4 270/2/4 274/2/4
f 270/5/4 271/5/4 275/5/4
f 274/2/4 270/2/4 275/2/4
f 275/5/4 271/5/4 276/5/4
f 272/1/4 273/1/4 277/1/4
f 273/1/4 268/1/4 278/1/4
f 277/1/4 273/1/4 278/1/4
f 268/2/4 274/2/4 279/2/4
f 278/1/4 268/1/4 279/1/4
f 279/2/4 274/2/4 280/2/4
f 275/4/4 276/4/4 281/4/4
f 281/4/4 276/4/4 282/4/4
f 277/2/4 278/2/4 283/2/4
f 278/3/4 279/3/4 284/3/4
f 283/2/4 278/2/4 284/2/4
f 279/1/4 280/1/4 285/1/4
f 284/3/4 279/3/4 285/3/4
f 280/2/4 281/2/4 286/2/4
f 285/1/4 280/1/4 286/1/4
f 286/2/4 281/2/4 287/2/4
f 287/5/4 288/5/4 289/5/4
f 289/5/4 288/5/4 290/5/4
f 291/2/4 292/2/4 298/2/4
f 292/1/4 293/1/4 299/1/4
f 298/2/4 292/2/4 299/2/4
f 293/2/4 294/2/4 300/2/4
f 299/1/4 293/1/4 300/1/4
f 294/1/4 295/1/4 301/1/4
f 300/2/4 294/2/4 301/2/4
f 301/1/4 295/1/4 302/1/4
f 296/4/4 297/4/4 303/4/4
f 303/4/4 297/4/4 304/4/4
f 304/4/4 297/4/4 305/4/4
f 304/5/4 305/5/4 306/5/4
f 306/5/4 305/5/4 307/5/4
f 306/4/4 307/4/4 313/4/4
f 313/4/4 307/4/4 314/4/4
f 308/3/4 309/3/4 315/3/4
f 309/2/4 310/2/4 316/2/4
f 315/3/4 309/3/4 316/3/4
f 310/1/4 311/1/4 317/1/4
f 316/2/4 310/2/4 317/2/4
f 311/2/4 312/2/4 318/2/4
f 317/1/4 311/1/4 318/1/4
f 318/2/4 312/2/4 319/2/4
f 313/6/4 314/6/4 320/6/4
f 320/6/4 314/6/4 321/6/4
f 322/5/4 323/5/4 328/5/4
f 328/5/4 323/5/4 329/5/4
f 324/1/4 325/1/4 330/1/4
f 325/2/4 326/2/4 330/2/4
f 326/1/4 327/1/4 331/1/4
f 330/2/4 326/2/4 331/2/4
f 331/1/4 327/1/4 332/1/4
f 328/6/4 329/6/4 333/6/4
f 333/6/4 329/6/4 334/6/4
f 324/1/4 330/1/4 335/1/4
f 330/1/4 331/1/4 335/1/4
f 331/2/4 332/2/4 336/2/4
f 335/1/4 331/1/4 336/1/4
f 336/2/4 332/2/4 337/2/4
f 333/4/4 334/4/4 338/4/4
f 338/4/4 334/4/4 339/4/4
f 324/1/4 335/1/4 340/1/4
f 335/3/4 336/3/4 341/3/4
f 340/1/4 335/1/4 341/1/4
f 336/1/4 337/1/4 342/1/4
f 341/3/4 336/3/4 342/3/4
f 342/1/4 337/1/4 343/1/4
f 338/6/4 339/6/4 344/6/4
f 344/6/4 339/6/4 345/6/4
f 344/5/4 345/5/4 346/5/4
f 346/5/4 345/5/4 347/5/4
f 348/4/4 349/4/4 350/4/4
f 350/4/4 349/4/4 351/4/4
f 350/5/4 351/5/4 352/5/4
f 352/5/4 351/5/4 353/5/4
f 352/4/4 353/4/4 354/4/4
f 354/4/4 353/4/4 355/4/4
f 354/5/4 355/5/4 356/5/4
f 356/5/4 355/5/4 357/5/4
f 356/4/4 357/4/4 358/4/4
f 358/4/4 357/4/4 359/4/4
f 365/2/5 361/2/5 360/2/5
f 366/1/5 362/1/5 361/1/5
f 366/2/5 361/2/5 365/2/5
f 367/2/5 363/2/5 362/2/5
f 367/1/5 362/1/5 366/1/5
f 368/2/5 363/2/5 367/2/5
f 370/1/5 365/1/5 364/1/5
f 371/1/5 365/1/5 370/1/5
f 372/2/5 371/2/5 370/2/5
f 373/2/5 371/2/5 372/2/5
f 374/3/5 369/3/5 368/3/5
f 375/3/5 369/3/5 374/3/5
f 376/1/5 374/1/5 373/1/5
f 377/1/5 374/1/5 376/1/5
f 384/5/5 379/5/5 378/5/5
f 385/4/5 380/4/5 379/4/5
f 385/5/5 379/5/5 384/5/5
f 386/5/5 381/5/5 380/5/5
f 386/4/5 380/4/5 385/4/5
f 387/4/5 382/4/5 381/4/5
f 387/5/5 381/5/5 386/5/5
f 388/6/5 383/6/5 382/6/5
f 388/4/5 382/4/5 387/4/5
f 389/6/5 383/6/5 388/6/5
f 396/4/5 391/4/5 390/4/5
f 397/5/5 392/5/5 391/5/5
f 397/4/5 391/4/5 396/4/5
f 398/4/5 393/4/5 392/4/5
f 398/5/5 392/5/5 397/5/5
f 399/5/5 394/5/5 393/5/5
f 399/4/5 393/4/5 398/4/5
f 400/4/5 395/4/5 394/4/5
f 400/5/5 394/5/5 399/5/5
f 401/4/5 395/4/5 400/4/5
f 408/4/5 403/4/5 402/4/5
f 409/4/5 403/4/5 408/4/5
f 410/4/5 405/4/5 404/4/5
f 411/4/5 405/4/5 410/4/5
f 412/5/5 407/5/5 406/5/5
f 413/5/5 407/5/5 412/5/5
f 414/2/5 412/2/5 411/2/5
f 415/2/5 412/2/5 414/2/5
f 418/1/5 415/1/5 414/1/5
f 419/1/5 415/1/5 418/1/5
f 421/5/5 417/5/5 416/5/5
f 422/5/5 417/5/5 421/5/5
f 423/5/5 420/5/5 419/5/5
f 424/5/5 420/5/5 423/5/5
f 430/6/5 426/6/5 425/6/5
f 431/4/5 427/4/5 426/4/5
f 431/6/5 426/6/5 430/6/5
f 432/4/5 427/4/5 431/4/5
f 433/4/5 429/4/5 428/4/5
f 434/4/5 429/4/5 433/4/5
f 435/4/5 431/4/5 430/4/5
f 436/5/5 432/5/5 431/5/5
f 436/4/5 431/4/5 435/4/5
f 437/5/5 432/5/5 436/5/5
f 438/6/5 434/6/5 433/6/5
f 439/6/5 434/6/5 438/6/5
f 440/2/6 441/2/6 442/2/6
f 442/2/6 441/2/6 443/2/6
f 444/5/6 445/5/6 450/5/6
f 445/4/6 446/4/6 451/4/6
f 450/5/6 445/5/6 451/5/6
f 446/5/6 447/5/6 452/5/6
f 451/4/6 446/4/6 452/4/6
f 447/4/6 448/4/6 453/4/6
f 452/5/6 447/5/6 453/5/6
f 448/6/6 449/6/6 454/6/6
f 453/4/6 448/4/6 454/4/6
f 454/6/6 449/6/6 455/6/6
f 456/1/6 457/1/6 458/1/6
f 458/1/6 457/1/6 459/1/6
f 458/2/6 459/2/6 460/2/6
f 460/2/6 459/2/6 461/2/6
f 462/4/6 463/4/6 468/4/6
f 463/5/6 464/5/6 469/5/6
f 468/4/6 463/4/6 469/4/6
f 464/4/6 465/4/6 470/4/6
f 469/5/6 464/5/6 470/5/6
f 465/5/6 466/5/6 471/5/6
f 470/4/6 465/4/6 471/4/6
f 466/4/6 467/4/6 472/4/6
f 471/5/6 466/5/6 472/5/6
f 472/4/6 467/4/6 473/4/6
f 474/4/6 475/4/6 480/4/6
f 475/5/6 476/5/6 481/5/6
f 480/4/6 475/4/6 481/4/6
f 476/4/6 477/4/6 482/4/6
f 481/5/6 476/5/6 482/5/6
f 477/6/6 478/6/6 483/6/6
f 482/4/6 477/4/6 483/4/6
f 478/5/6 479/5/6 484/5/6
f 483/6/6 478/6/6 484/6/6
f 484/5/6 479/5/6 485/5/6
f 486/5/6 487/5/6 492/5/6
f 487/6/6 488/6/6 493/6/6
f 492/5/6 487/5/6 493/5/6
f 488/4/6 489/4/6 494/4/6
f 493/6/6 488/6/6 494/6/6
f 489/6/6 490/6/6 495/6/6
f 494/4/6 489/4/6 495/4/6
f 490/5/6 491/5/6 496/5/6
f 495/6/6 490/6/6 496/6/6
f 496/5/6 491/5/6 497/5/6
f 498/5/6 499/5/6 504/5/6
f 499/6/6 500/6/6 505/6/6
f 504/5/6 499/5/6 505/5/6
f 500/4/6 501/4/6 506/4/6
f 505/6/6 500/6/6 506/6/6
f 501/5/6 502/5/6 507/5/6
f 506/4/6 501/4/6 507/4/6
f 502/4/6 503/4/6 508/4/6
f 507/5/6 502/5/6 508/5/6
f 508/4/6 503/4/6 509/4/6
f 504/4/6 505/4/6 510/4/6
f 505/4/6 506/4/6 510/4/6
f 506/5/6 507/5/6 511/5/6
f 510/4/6 506/4/6 511/4/6
f 507/4/6 508/4/6 512/4/6
f 511/5/6 507/5/6 512/5/6
f 508/6/6 509/6/6 513/6/6
f 512/4/6 508/4/6 513/4/6
f 513/6/6 509/6/6 514/6/6
