# MagicaVoxel @ Ephtracy

# group
o 

# material
mtllib carreta-1.mtl
usemtl palette

# normals
vn -1 0 0
vn 1 0 0
vn 0 0 1
vn 0 0 -1
vn 0 -1 0
vn 0 1 0

# texcoords
vt 0.693359 0.5
vt 0.697266 0.5
vt 0.728516 0.5

# verts
v -7.9 6.7 -31.8
v -7.9 6.7 -32.1
v -7.9 6.8 -31.7
v -7.9 6.8 -31.8
v -7.9 6.8 -32.1
v -7.9 6.8 -32.2
v -7.9 6.9 -31.9
v -7.9 6.9 -32
v -7.9 7 -31.9
v -7.9 7 -32
v -7.9 7.1 -31.7
v -7.9 7.1 -31.8
v -7.9 7.1 -32.1
v -7.9 7.1 -32.2
v -7.9 7.2 -31.8
v -7.9 7.2 -32.1
v -7.8 6.9 -31.6
v -7.8 6.9 -31.7
v -7.8 6.9 -31.8
v -7.8 6.9 -31.9
v -7.8 6.9 -32
v -7.8 6.9 -32.1
v -7.8 6.9 -32.2
v -7.8 6.9 -32.3
v -7.8 7 -31.5
v -7.8 7 -31.6
v -7.8 7 -31.7
v -7.8 7 -31.8
v -7.8 7 -31.9
v -7.8 7 -32
v -7.8 7 -32.1
v -7.8 7 -32.2
v -7.8 7 -32.3
v -7.8 7 -32.4
v -7.8 7.1 -31.5
v -7.8 7.1 -31.6
v -7.8 7.1 -32.3
v -7.8 7.1 -32.4
v -7.7 6.7 -32.1
v -7.7 6.7 -32.2
v -7.7 6.9 -31.2
v -7.7 6.9 -31.6
v -7.7 6.9 -32.1
v -7.7 6.9 -32.2
v -7.7 7 -31.2
v -7.7 7 -31.5
v -7.7 7 -31.6
v -7.3 6.7 -32.1
v -7.3 6.7 -32.2
v -7.3 6.9 -31.2
v -7.3 6.9 -31.6
v -7.3 6.9 -32.1
v -7.3 6.9 -32.2
v -7.3 7 -31.2
v -7.3 7 -31.5
v -7.3 7 -31.6
v -7.1 6.7 -31.8
v -7.1 6.7 -32.1
v -7.1 6.8 -31.7
v -7.1 6.8 -31.8
v -7.1 6.8 -32.1
v -7.1 6.8 -32.2
v -7.1 6.9 -31.7
v -7.1 6.9 -31.8
v -7.1 6.9 -32.1
v -7.1 6.9 -32.2
v -7.1 7 -31.7
v -7.1 7 -31.8
v -7.1 7 -32.1
v -7.1 7 -32.2
v -7.1 7.1 -31.7
v -7.1 7.1 -31.8
v -7.1 7.1 -32.1
v -7.1 7.1 -32.2
v -7.1 7.2 -31.8
v -7.1 7.2 -32.1
v -7.8 6.7 -31.8
v -7.8 6.7 -32.1
v -7.8 6.8 -31.7
v -7.8 6.8 -31.8
v -7.8 6.8 -32.1
v -7.8 6.8 -32.2
v -7.8 6.9 -31.7
v -7.8 6.9 -31.8
v -7.8 6.9 -32.1
v -7.8 6.9 -32.2
v -7.8 7 -31.7
v -7.8 7 -31.8
v -7.8 7 -32.1
v -7.8 7 -32.2
v -7.8 7.1 -31.7
v -7.8 7.1 -31.8
v -7.8 7.1 -32.1
v -7.8 7.1 -32.2
v -7.8 7.2 -31.8
v -7.8 7.2 -32.1
v -7.6 6.7 -32.1
v -7.6 6.7 -32.2
v -7.6 6.9 -31.2
v -7.6 6.9 -31.6
v -7.6 6.9 -32.1
v -7.6 6.9 -32.2
v -7.6 7 -31.2
v -7.6 7 -31.5
v -7.6 7 -31.6
v -7.2 6.7 -32.1
v -7.2 6.7 -32.2
v -7.2 6.9 -31.2
v -7.2 6.9 -31.6
v -7.2 6.9 -32.1
v -7.2 6.9 -32.2
v -7.2 7 -31.2
v -7.2 7 -31.5
v -7.2 7 -31.6
v -7.1 6.9 -31.6
v -7.1 6.9 -31.7
v -7.1 6.9 -31.8
v -7.1 6.9 -31.9
v -7.1 6.9 -32
v -7.1 6.9 -32.1
v -7.1 6.9 -32.2
v -7.1 6.9 -32.3
v -7.1 7 -31.5
v -7.1 7 -31.6
v -7.1 7 -31.7
v -7.1 7 -31.8
v -7.1 7 -31.9
v -7.1 7 -32
v -7.1 7 -32.1
v -7.1 7 -32.2
v -7.1 7 -32.3
v -7.1 7 -32.4
v -7.1 7.1 -31.5
v -7.1 7.1 -31.6
v -7.1 7.1 -32.3
v -7.1 7.1 -32.4
v -7 6.7 -31.8
v -7 6.7 -32.1
v -7 6.8 -31.7
v -7 6.8 -31.8
v -7 6.8 -32.1
v -7 6.8 -32.2
v -7 6.9 -31.9
v -7 6.9 -32
v -7 7 -31.9
v -7 7 -32
v -7 7.1 -31.7
v -7 7.1 -31.8
v -7 7.1 -32.1
v -7 7.1 -32.2
v -7 7.2 -31.8
v -7 7.2 -32.1
v -7.7 6.9 -31.2
v -7.7 7 -31.2
v -7.6 6.9 -31.2
v -7.6 7 -31.2
v -7.3 6.9 -31.2
v -7.3 7 -31.2
v -7.2 6.9 -31.2
v -7.2 7 -31.2
v -7.8 7 -31.5
v -7.8 7.1 -31.5
v -7.7 7 -31.5
v -7.6 7 -31.5
v -7.3 7 -31.5
v -7.2 7 -31.5
v -7.1 7 -31.5
v -7.1 7.1 -31.5
v -7.8 6.9 -31.6
v -7.8 7 -31.6
v -7.7 6.9 -31.6
v -7.7 7 -31.6
v -7.6 6.9 -31.6
v -7.6 7 -31.6
v -7.3 6.9 -31.6
v -7.3 7 -31.6
v -7.2 6.9 -31.6
v -7.2 7 -31.6
v -7.1 6.9 -31.6
v -7.1 7 -31.6
v -7.9 6.8 -31.7
v -7.9 7.1 -31.7
v -7.8 6.8 -31.7
v -7.8 6.9 -31.7
v -7.8 7 -31.7
v -7.8 7.1 -31.7
v -7.1 6.8 -31.7
v -7.1 6.9 -31.7
v -7.1 7 -31.7
v -7.1 7.1 -31.7
v -7 6.8 -31.7
v -7 7.1 -31.7
v -7.9 6.7 -31.8
v -7.9 6.8 -31.8
v -7.9 7.1 -31.8
v -7.9 7.2 -31.8
v -7.8 6.7 -31.8
v -7.8 6.8 -31.8
v -7.8 7.1 -31.8
v -7.8 7.2 -31.8
v -7.1 6.7 -31.8
v -7.1 6.8 -31.8
v -7.1 7.1 -31.8
v -7.1 7.2 -31.8
v -7 6.7 -31.8
v -7 6.8 -31.8
v -7 7.1 -31.8
v -7 7.2 -31.8
v -7.9 6.9 -31.9
v -7.9 7 -31.9
v -7.8 6.9 -31.9
v -7.8 7 -31.9
v -7.1 6.9 -31.9
v -7.1 7 -31.9
v -7 6.9 -31.9
v -7 7 -31.9
v -7.9 6.8 -32.1
v -7.9 7.1 -32.1
v -7.8 6.8 -32.1
v -7.8 6.9 -32.1
v -7.8 7 -32.1
v -7.8 7.1 -32.1
v -7.7 6.7 -32.1
v -7.7 6.9 -32.1
v -7.6 6.7 -32.1
v -7.6 6.9 -32.1
v -7.3 6.7 -32.1
v -7.3 6.9 -32.1
v -7.2 6.7 -32.1
v -7.2 6.9 -32.1
v -7.1 6.8 -32.1
v -7.1 6.9 -32.1
v -7.1 7 -32.1
v -7.1 7.1 -32.1
v -7 6.8 -32.1
v -7 7.1 -32.1
v -7.8 7 -32.3
v -7.8 7.1 -32.3
v -7.1 7 -32.3
v -7.1 7.1 -32.3
v -7.8 7 -31.6
v -7.8 7.1 -31.6
v -7.1 7 -31.6
v -7.1 7.1 -31.6
v -7.9 6.8 -31.8
v -7.9 7.1 -31.8
v -7.8 6.8 -31.8
v -7.8 6.9 -31.8
v -7.8 7 -31.8
v -7.8 7.1 -31.8
v -7.1 6.8 -31.8
v -7.1 6.9 -31.8
v -7.1 7 -31.8
v -7.1 7.1 -31.8
v -7 6.8 -31.8
v -7 7.1 -31.8
v -7.9 6.9 -32
v -7.9 7 -32
v -7.8 6.9 -32
v -7.8 7 -32
v -7.1 6.9 -32
v -7.1 7 -32
v -7 6.9 -32
v -7 7 -32
v -7.9 6.7 -32.1
v -7.9 6.8 -32.1
v -7.9 7.1 -32.1
v -7.9 7.2 -32.1
v -7.8 6.7 -32.1
v -7.8 6.8 -32.1
v -7.8 7.1 -32.1
v -7.8 7.2 -32.1
v -7.1 6.7 -32.1
v -7.1 6.8 -32.1
v -7.1 7.1 -32.1
v -7.1 7.2 -32.1
v -7 6.7 -32.1
v -7 6.8 -32.1
v -7 7.1 -32.1
v -7 7.2 -32.1
v -7.9 6.8 -32.2
v -7.9 7.1 -32.2
v -7.8 6.8 -32.2
v -7.8 6.9 -32.2
v -7.8 7 -32.2
v -7.8 7.1 -32.2
v -7.7 6.7 -32.2
v -7.7 6.9 -32.2
v -7.6 6.7 -32.2
v -7.6 6.9 -32.2
v -7.3 6.7 -32.2
v -7.3 6.9 -32.2
v -7.2 6.7 -32.2
v -7.2 6.9 -32.2
v -7.1 6.8 -32.2
v -7.1 6.9 -32.2
v -7.1 7 -32.2
v -7.1 7.1 -32.2
v -7 6.8 -32.2
v -7 7.1 -32.2
v -7.8 6.9 -32.3
v -7.8 7 -32.3
v -7.1 6.9 -32.3
v -7.1 7 -32.3
v -7.8 7 -32.4
v -7.8 7.1 -32.4
v -7.1 7 -32.4
v -7.1 7.1 -32.4
v -7.9 6.7 -31.8
v -7.8 6.7 -31.8
v -7.1 6.7 -31.8
v -7 6.7 -31.8
v -7.9 6.7 -32.1
v -7.8 6.7 -32.1
v -7.7 6.7 -32.1
v -7.6 6.7 -32.1
v -7.3 6.7 -32.1
v -7.2 6.7 -32.1
v -7.1 6.7 -32.1
v -7 6.7 -32.1
v -7.7 6.7 -32.2
v -7.6 6.7 -32.2
v -7.3 6.7 -32.2
v -7.2 6.7 -32.2
v -7.9 6.8 -31.7
v -7.8 6.8 -31.7
v -7.1 6.8 -31.7
v -7 6.8 -31.7
v -7.9 6.8 -31.8
v -7.8 6.8 -31.8
v -7.1 6.8 -31.8
v -7 6.8 -31.8
v -7.9 6.8 -32.1
v -7.8 6.8 -32.1
v -7.1 6.8 -32.1
v -7 6.8 -32.1
v -7.9 6.8 -32.2
v -7.8 6.8 -32.2
v -7.1 6.8 -32.2
v -7 6.8 -32.2
v -7.7 6.9 -31.2
v -7.6 6.9 -31.2
v -7.3 6.9 -31.2
v -7.2 6.9 -31.2
v -7.8 6.9 -31.6
v -7.7 6.9 -31.6
v -7.6 6.9 -31.6
v -7.3 6.9 -31.6
v -7.2 6.9 -31.6
v -7.1 6.9 -31.6
v -7.8 6.9 -31.7
v -7.7 6.9 -31.7
v -7.2 6.9 -31.7
v -7.1 6.9 -31.7
v -7.8 6.9 -31.8
v -7.7 6.9 -31.8
v -7.2 6.9 -31.8
v -7.1 6.9 -31.8
v -7.9 6.9 -31.9
v -7.8 6.9 -31.9
v -7.7 6.9 -31.9
v -7.2 6.9 -31.9
v -7.1 6.9 -31.9
v -7 6.9 -31.9
v -7.9 6.9 -32
v -7.8 6.9 -32
v -7.7 6.9 -32
v -7.2 6.9 -32
v -7.1 6.9 -32
v -7 6.9 -32
v -7.8 6.9 -32.1
v -7.7 6.9 -32.1
v -7.6 6.9 -32.1
v -7.3 6.9 -32.1
v -7.2 6.9 -32.1
v -7.1 6.9 -32.1
v -7.8 6.9 -32.2
v -7.7 6.9 -32.2
v -7.6 6.9 -32.2
v -7.3 6.9 -32.2
v -7.2 6.9 -32.2
v -7.1 6.9 -32.2
v -7.8 6.9 -32.3
v -7.1 6.9 -32.3
v -7.8 7 -31.5
v -7.7 7 -31.5
v -7.6 7 -31.5
v -7.3 7 -31.5
v -7.2 7 -31.5
v -7.1 7 -31.5
v -7.8 7 -31.6
v -7.7 7 -31.6
v -7.6 7 -31.6
v -7.3 7 -31.6
v -7.2 7 -31.6
v -7.1 7 -31.6
v -7.8 7 -32.3
v -7.1 7 -32.3
v -7.8 7 -32.4
v -7.1 7 -32.4
v -7.9 7.1 -31.8
v -7.8 7.1 -31.8
v -7.1 7.1 -31.8
v -7 7.1 -31.8
v -7.9 7.1 -32.1
v -7.8 7.1 -32.1
v -7.1 7.1 -32.1
v -7 7.1 -32.1
v -7.9 6.8 -31.8
v -7.8 6.8 -31.8
v -7.1 6.8 -31.8
v -7 6.8 -31.8
v -7.9 6.8 -32.1
v -7.8 6.8 -32.1
v -7.1 6.8 -32.1
v -7 6.8 -32.1
v -7.7 7 -31.2
v -7.6 7 -31.2
v -7.3 7 -31.2
v -7.2 7 -31.2
v -7.7 7 -31.5
v -7.6 7 -31.5
v -7.3 7 -31.5
v -7.2 7 -31.5
v -7.8 7 -31.6
v -7.1 7 -31.6
v -7.8 7 -31.7
v -7.7 7 -31.7
v -7.2 7 -31.7
v -7.1 7 -31.7
v -7.8 7 -31.8
v -7.7 7 -31.8
v -7.2 7 -31.8
v -7.1 7 -31.8
v -7.9 7 -31.9
v -7.8 7 -31.9
v -7.7 7 -31.9
v -7.2 7 -31.9
v -7.1 7 -31.9
v -7 7 -31.9
v -7.9 7 -32
v -7.8 7 -32
v -7.7 7 -32
v -7.2 7 -32
v -7.1 7 -32
v -7 7 -32
v -7.8 7 -32.1
v -7.7 7 -32.1
v -7.2 7 -32.1
v -7.1 7 -32.1
v -7.8 7 -32.2
v -7.7 7 -32.2
v -7.2 7 -32.2
v -7.1 7 -32.2
v -7.8 7 -32.3
v -7.1 7 -32.3
v -7.8 7.1 -31.5
v -7.1 7.1 -31.5
v -7.8 7.1 -31.6
v -7.1 7.1 -31.6
v -7.9 7.1 -31.7
v -7.8 7.1 -31.7
v -7.1 7.1 -31.7
v -7 7.1 -31.7
v -7.9 7.1 -31.8
v -7.8 7.1 -31.8
v -7.1 7.1 -31.8
v -7 7.1 -31.8
v -7.9 7.1 -32.1
v -7.8 7.1 -32.1
v -7.1 7.1 -32.1
v -7 7.1 -32.1
v -7.9 7.1 -32.2
v -7.8 7.1 -32.2
v -7.1 7.1 -32.2
v -7 7.1 -32.2
v -7.8 7.1 -32.3
v -7.1 7.1 -32.3
v -7.8 7.1 -32.4
v -7.1 7.1 -32.4
v -7.9 7.2 -31.8
v -7.8 7.2 -31.8
v -7.1 7.2 -31.8
v -7 7.2 -31.8
v -7.9 7.2 -32.1
v -7.8 7.2 -32.1
v -7.1 7.2 -32.1
v -7 7.2 -32.1

# faces
f 4/1/1 2/1/1 1/1/1
f 5/1/1 2/1/1 4/1/1
f 9/2/1 8/2/1 7/2/1
f 10/2/1 8/2/1 9/2/1
f 11/1/1 4/1/1 3/1/1
f 12/1/1 4/1/1 11/1/1
f 13/1/1 6/1/1 5/1/1
f 14/1/1 6/1/1 13/1/1
f 15/1/1 13/1/1 12/1/1
f 16/1/1 13/1/1 15/1/1
f 26/3/1 18/3/1 17/3/1
f 27/3/1 18/3/1 26/3/1
f 28/3/1 20/3/1 19/3/1
f 29/3/1 20/3/1 28/3/1
f 30/3/1 22/3/1 21/3/1
f 31/3/1 22/3/1 30/3/1
f 32/3/1 24/3/1 23/3/1
f 33/3/1 24/3/1 32/3/1
f 35/3/1 26/3/1 25/3/1
f 36/3/1 26/3/1 35/3/1
f 37/3/1 34/3/1 33/3/1
f 38/3/1 34/3/1 37/3/1
f 43/3/1 40/3/1 39/3/1
f 44/3/1 40/3/1 43/3/1
f 45/3/1 42/3/1 41/3/1
f 46/3/1 42/3/1 45/3/1
f 47/3/1 42/3/1 46/3/1
f 52/3/1 49/3/1 48/3/1
f 53/3/1 49/3/1 52/3/1
f 54/3/1 51/3/1 50/3/1
f 55/3/1 51/3/1 54/3/1
f 56/3/1 51/3/1 55/3/1
f 60/1/1 58/1/1 57/1/1
f 61/1/1 58/1/1 60/1/1
f 63/1/1 60/1/1 59/1/1
f 64/1/1 60/1/1 63/1/1
f 65/1/1 62/1/1 61/1/1
f 66/1/1 62/1/1 65/1/1
f 71/1/1 68/1/1 67/1/1
f 72/1/1 68/1/1 71/1/1
f 73/1/1 70/1/1 69/1/1
f 74/1/1 70/1/1 73/1/1
f 75/1/1 73/1/1 72/1/1
f 76/1/1 73/1/1 75/1/1
f 77/1/2 78/1/2 80/1/2
f 80/1/2 78/1/2 81/1/2
f 79/1/2 80/1/2 83/1/2
f 83/1/2 80/1/2 84/1/2
f 81/1/2 82/1/2 85/1/2
f 85/1/2 82/1/2 86/1/2
f 87/1/2 88/1/2 91/1/2
f 91/1/2 88/1/2 92/1/2
f 89/1/2 90/1/2 93/1/2
f 93/1/2 90/1/2 94/1/2
f 92/1/2 93/1/2 95/1/2
f 95/1/2 93/1/2 96/1/2
f 97/3/2 98/3/2 101/3/2
f 101/3/2 98/3/2 102/3/2
f 99/3/2 100/3/2 103/3/2
f 103/3/2 100/3/2 104/3/2
f 104/3/2 100/3/2 105/3/2
f 106/3/2 107/3/2 110/3/2
f 110/3/2 107/3/2 111/3/2
f 108/3/2 109/3/2 112/3/2
f 112/3/2 109/3/2 113/3/2
f 113/3/2 109/3/2 114/3/2
f 115/3/2 116/3/2 124/3/2
f 124/3/2 116/3/2 125/3/2
f 117/3/2 118/3/2 126/3/2
f 126/3/2 118/3/2 127/3/2
f 119/3/2 120/3/2 128/3/2
f 128/3/2 120/3/2 129/3/2
f 121/3/2 122/3/2 130/3/2
f 130/3/2 122/3/2 131/3/2
f 123/3/2 124/3/2 133/3/2
f 133/3/2 124/3/2 134/3/2
f 131/3/2 132/3/2 135/3/2
f 135/3/2 132/3/2 136/3/2
f 137/1/2 138/1/2 140/1/2
f 140/1/2 138/1/2 141/1/2
f 143/2/2 144/2/2 145/2/2
f 145/2/2 144/2/2 146/2/2
f 139/1/2 140/1/2 147/1/2
f 147/1/2 140/1/2 148/1/2
f 141/1/2 142/1/2 149/1/2
f 149/1/2 142/1/2 150/1/2
f 148/1/2 149/1/2 151/1/2
f 151/1/2 149/1/2 152/1/2
f 155/3/3 154/3/3 153/3/3
f 156/3/3 154/3/3 155/3/3
f 159/3/3 158/3/3 157/3/3
f 160/3/3 158/3/3 159/3/3
f 163/3/3 162/3/3 161/3/3
f 164/3/3 162/3/3 163/3/3
f 165/3/3 162/3/3 164/3/3
f 166/3/3 162/3/3 165/3/3
f 167/3/3 162/3/3 166/3/3
f 168/3/3 162/3/3 167/3/3
f 171/3/3 170/3/3 169/3/3
f 172/3/3 170/3/3 171/3/3
f 175/3/3 174/3/3 173/3/3
f 176/3/3 174/3/3 175/3/3
f 179/3/3 178/3/3 177/3/3
f 180/3/3 178/3/3 179/3/3
f 183/1/3 182/1/3 181/1/3
f 184/1/3 182/1/3 183/1/3
f 185/1/3 182/1/3 184/1/3
f 186/1/3 182/1/3 185/1/3
f 191/1/3 188/1/3 187/1/3
f 191/1/3 190/1/3 189/1/3
f 191/1/3 189/1/3 188/1/3
f 192/1/3 190/1/3 191/1/3
f 197/1/3 194/1/3 193/1/3
f 198/1/3 194/1/3 197/1/3
f 199/1/3 196/1/3 195/1/3
f 200/1/3 196/1/3 199/1/3
f 205/1/3 202/1/3 201/1/3
f 206/1/3 202/1/3 205/1/3
f 207/1/3 204/1/3 203/1/3
f 208/1/3 204/1/3 207/1/3
f 211/2/3 210/2/3 209/2/3
f 212/2/3 210/2/3 211/2/3
f 215/2/3 214/2/3 213/2/3
f 216/2/3 214/2/3 215/2/3
f 219/1/3 218/1/3 217/1/3
f 220/1/3 218/1/3 219/1/3
f 221/1/3 218/1/3 220/1/3
f 222/1/3 218/1/3 221/1/3
f 225/3/3 224/3/3 223/3/3
f 226/3/3 224/3/3 225/3/3
f 229/3/3 228/3/3 227/3/3
f 230/3/3 228/3/3 229/3/3
f 235/1/3 232/1/3 231/1/3
f 235/1/3 234/1/3 233/1/3
f 235/1/3 233/1/3 232/1/3
f 236/1/3 234/1/3 235/1/3
f 239/3/3 238/3/3 237/3/3
f 240/3/3 238/3/3 239/3/3
f 241/3/4 242/3/4 243/3/4
f 243/3/4 242/3/4 244/3/4
f 245/1/4 246/1/4 247/1/4
f 247/1/4 246/1/4 248/1/4
f 248/1/4 246/1/4 249/1/4
f 249/1/4 246/1/4 250/1/4
f 251/1/4 252/1/4 255/1/4
f 253/1/4 254/1/4 255/1/4
f 252/1/4 253/1/4 255/1/4
f 255/1/4 254/1/4 256/1/4
f 257/2/4 258/2/4 259/2/4
f 259/2/4 258/2/4 260/2/4
f 261/2/4 262/2/4 263/2/4
f 263/2/4 262/2/4 264/2/4
f 265/1/4 266/1/4 269/1/4
f 269/1/4 266/1/4 270/1/4
f 267/1/4 268/1/4 271/1/4
f 271/1/4 268/1/4 272/1/4
f 273/1/4 274/1/4 277/1/4
f 277/1/4 274/1/4 278/1/4
f 275/1/4 276/1/4 279/1/4
f 279/1/4 276/1/4 280/1/4
f 281/1/4 282/1/4 283/1/4
f 283/1/4 282/1/4 284/1/4
f 284/1/4 282/1/4 285/1/4
f 285/1/4 282/1/4 286/1/4
f 287/3/4 288/3/4 289/3/4
f 289/3/4 288/3/4 290/3/4
f 291/3/4 292/3/4 293/3/4
f 293/3/4 292/3/4 294/3/4
f 295/1/4 296/1/4 299/1/4
f 297/1/4 298/1/4 299/1/4
f 296/1/4 297/1/4 299/1/4
f 299/1/4 298/1/4 300/1/4
f 301/3/4 302/3/4 303/3/4
f 303/3/4 302/3/4 304/3/4
f 305/3/4 306/3/4 307/3/4
f 307/3/4 306/3/4 308/3/4
f 313/1/5 310/1/5 309/1/5
f 314/1/5 310/1/5 313/1/5
f 319/1/5 312/1/5 311/1/5
f 320/1/5 312/1/5 319/1/5
f 321/3/5 316/3/5 315/3/5
f 322/3/5 316/3/5 321/3/5
f 323/3/5 318/3/5 317/3/5
f 324/3/5 318/3/5 323/3/5
f 329/1/5 326/1/5 325/1/5
f 330/1/5 326/1/5 329/1/5
f 331/1/5 328/1/5 327/1/5
f 332/1/5 328/1/5 331/1/5
f 337/1/5 334/1/5 333/1/5
f 338/1/5 334/1/5 337/1/5
f 339/1/5 336/1/5 335/1/5
f 340/1/5 336/1/5 339/1/5
f 346/3/5 342/3/5 341/3/5
f 347/3/5 342/3/5 346/3/5
f 348/3/5 344/3/5 343/3/5
f 349/3/5 344/3/5 348/3/5
f 351/3/5 347/3/5 346/3/5
f 351/3/5 350/3/5 349/3/5
f 351/3/5 349/3/5 348/3/5
f 351/3/5 348/3/5 347/3/5
f 351/3/5 346/3/5 345/3/5
f 352/3/5 350/3/5 351/3/5
f 353/3/5 350/3/5 352/3/5
f 354/3/5 350/3/5 353/3/5
f 355/3/5 352/3/5 351/3/5
f 356/2/5 353/2/5 352/2/5
f 356/3/5 352/3/5 355/3/5
f 357/3/5 354/3/5 353/3/5
f 357/2/5 353/2/5 356/2/5
f 358/3/5 354/3/5 357/3/5
f 360/3/5 356/3/5 355/3/5
f 361/1/5 357/1/5 356/1/5
f 361/3/5 356/3/5 360/3/5
f 362/3/5 358/3/5 357/3/5
f 362/1/5 357/1/5 361/1/5
f 363/3/5 358/3/5 362/3/5
f 365/2/5 360/2/5 359/2/5
f 366/3/5 361/3/5 360/3/5
f 366/2/5 360/2/5 365/2/5
f 367/2/5 362/2/5 361/2/5
f 367/3/5 361/3/5 366/3/5
f 368/3/5 363/3/5 362/3/5
f 368/2/5 362/2/5 367/2/5
f 369/2/5 364/2/5 363/2/5
f 369/3/5 363/3/5 368/3/5
f 370/2/5 364/2/5 369/2/5
f 371/3/5 367/3/5 366/3/5
f 372/1/5 368/1/5 367/1/5
f 372/3/5 367/3/5 371/3/5
f 373/1/5 368/1/5 372/1/5
f 374/1/5 368/1/5 373/1/5
f 375/3/5 369/3/5 368/3/5
f 375/1/5 368/1/5 374/1/5
f 376/3/5 369/3/5 375/3/5
f 377/3/5 372/3/5 371/3/5
f 378/3/5 372/3/5 377/3/5
f 379/2/5 374/2/5 373/2/5
f 380/2/5 374/2/5 379/2/5
f 381/3/5 376/3/5 375/3/5
f 382/3/5 376/3/5 381/3/5
f 383/3/5 378/3/5 377/3/5
f 383/3/5 380/3/5 379/3/5
f 383/3/5 382/3/5 381/3/5
f 383/3/5 381/3/5 380/3/5
f 383/3/5 379/3/5 378/3/5
f 384/3/5 382/3/5 383/3/5
f 391/3/5 386/3/5 385/3/5
f 392/3/5 386/3/5 391/3/5
f 393/3/5 388/3/5 387/3/5
f 394/3/5 388/3/5 393/3/5
f 395/3/5 390/3/5 389/3/5
f 396/3/5 390/3/5 395/3/5
f 399/3/5 398/3/5 397/3/5
f 400/3/5 398/3/5 399/3/5
f 405/1/5 402/1/5 401/1/5
f 406/1/5 402/1/5 405/1/5
f 407/1/5 404/1/5 403/1/5
f 408/1/5 404/1/5 407/1/5
f 409/1/6 410/1/6 413/1/6
f 413/1/6 410/1/6 414/1/6
f 411/1/6 412/1/6 415/1/6
f 415/1/6 412/1/6 416/1/6
f 417/3/6 418/3/6 421/3/6
f 421/3/6 418/3/6 422/3/6
f 419/3/6 420/3/6 423/3/6
f 423/3/6 420/3/6 424/3/6
f 425/3/6 426/3/6 427/3/6
f 427/3/6 426/3/6 428/3/6
f 428/3/6 426/3/6 429/3/6
f 429/3/6 426/3/6 430/3/6
f 427/3/6 428/3/6 431/3/6
f 428/2/6 429/2/6 432/2/6
f 431/3/6 428/3/6 432/3/6
f 429/3/6 430/3/6 433/3/6
f 432/2/6 429/2/6 433/2/6
f 433/3/6 430/3/6 434/3/6
f 431/3/6 432/3/6 436/3/6
f 432/1/6 433/1/6 437/1/6
f 436/3/6 432/3/6 437/3/6
f 433/3/6 434/3/6 438/3/6
f 437/1/6 433/1/6 438/1/6
f 438/3/6 434/3/6 439/3/6
f 435/2/6 436/2/6 441/2/6
f 436/3/6 437/3/6 442/3/6
f 441/2/6 436/2/6 442/2/6
f 437/2/6 438/2/6 443/2/6
f 442/3/6 437/3/6 443/3/6
f 438/3/6 439/3/6 444/3/6
f 443/2/6 438/2/6 444/2/6
f 439/2/6 440/2/6 445/2/6
f 444/3/6 439/3/6 445/3/6
f 445/2/6 440/2/6 446/2/6
f 442/3/6 443/3/6 447/3/6
f 443/1/6 444/1/6 448/1/6
f 447/3/6 443/3/6 448/3/6
f 444/3/6 445/3/6 449/3/6
f 448/1/6 444/1/6 449/1/6
f 449/3/6 445/3/6 450/3/6
f 447/3/6 448/3/6 451/3/6
f 448/2/6 449/2/6 452/2/6
f 451/3/6 448/3/6 452/3/6
f 449/3/6 450/3/6 453/3/6
f 452/2/6 449/2/6 453/2/6
f 453/3/6 450/3/6 454/3/6
f 451/3/6 452/3/6 455/3/6
f 452/3/6 453/3/6 455/3/6
f 453/3/6 454/3/6 455/3/6
f 455/3/6 454/3/6 456/3/6
f 457/3/6 458/3/6 459/3/6
f 459/3/6 458/3/6 460/3/6
f 461/1/6 462/1/6 465/1/6
f 465/1/6 462/1/6 466/1/6
f 463/1/6 464/1/6 467/1/6
f 467/1/6 464/1/6 468/1/6
f 469/1/6 470/1/6 473/1/6
f 473/1/6 470/1/6 474/1/6
f 471/1/6 472/1/6 475/1/6
f 475/1/6 472/1/6 476/1/6
f 477/3/6 478/3/6 479/3/6
f 479/3/6 478/3/6 480/3/6
f 481/1/6 482/1/6 485/1/6
f 485/1/6 482/1/6 486/1/6
f 483/1/6 484/1/6 487/1/6
f 487/1/6 484/1/6 488/1/6
