# MagicaVoxel @ Ephtracy

# group
o 

# material
mtllib globo.mtl
usemtl palette

# normals
vn -1 0 0
vn 1 0 0
vn 0 0 1
vn 0 0 -1
vn 0 -1 0
vn 0 1 0

# texcoords
vt 0.00585938 0.5
vt 0.0488281 0.5
vt 0.150391 0.5
vt 0.326172 0.5

# verts
v -0.4 2.6 0.4
v -0.4 2.6 0.3
v -0.4 2.6 0.2
v -0.4 2.6 0
v -0.4 2.7 0.3
v -0.4 2.7 0.2
v -0.4 2.7 0.1
v -0.4 2.7 0
v -0.4 2.8 0.4
v -0.4 2.8 0.3
v -0.4 2.8 0.1
v -0.4 2.8 0
v -0.4 2.9 0.4
v -0.4 2.9 0.3
v -0.4 2.9 0.1
v -0.4 2.9 0
v -0.4 3 0.1
v -0.4 3 0
v -0.4 3.1 0.2
v -0.4 3.1 0.1
v -0.4 3.2 0.4
v -0.4 3.2 0.3
v -0.4 3.2 0.2
v -0.4 3.2 0.1
v -0.4 3.3 0.4
v -0.4 3.3 0.3
v -0.4 3.3 0.2
v -0.4 3.3 0.1
v -0.4 3.4 0.4
v -0.4 3.4 0.2
v -0.4 3.4 0.1
v -0.4 3.4 0
v -0.3 2.4 0.3
v -0.3 2.4 0.2
v -0.3 2.4 0.1
v -0.3 2.5 0.5
v -0.3 2.5 0.3
v -0.3 2.5 0.2
v -0.3 2.5 0.1
v -0.3 2.5 -0.1
v -0.3 2.6 0.5
v -0.3 2.6 0.4
v -0.3 2.6 0.3
v -0.3 2.6 0.2
v -0.3 2.6 0
v -0.3 2.7 0.6
v -0.3 2.7 0.5
v -0.3 2.7 0.4
v -0.3 2.7 0
v -0.3 2.7 -0.1
v -0.3 2.7 -0.2
v -0.3 2.8 0.4
v -0.3 2.8 0
v -0.3 2.9 0.6
v -0.3 2.9 0.5
v -0.3 2.9 0.4
v -0.3 2.9 0
v -0.3 3 0.6
v -0.3 3 0.5
v -0.3 3 0
v -0.3 3 -0.1
v -0.3 3 -0.2
v -0.3 3.1 -0.1
v -0.3 3.1 -0.2
v -0.3 3.2 0.6
v -0.3 3.2 0.5
v -0.3 3.2 0.4
v -0.3 3.3 0.6
v -0.3 3.3 0.5
v -0.3 3.3 0.4
v -0.3 3.3 0
v -0.3 3.3 -0.1
v -0.3 3.3 -0.2
v -0.3 3.4 0.5
v -0.3 3.4 0.4
v -0.3 3.4 0.2
v -0.3 3.4 0.1
v -0.3 3.4 0
v -0.3 3.4 -0.1
v -0.3 3.5 0.5
v -0.3 3.5 0.4
v -0.3 3.5 0.3
v -0.3 3.5 0.2
v -0.3 3.5 0.1
v -0.3 3.5 -0.1
v -0.3 3.6 0.3
v -0.3 3.6 0.2
v -0.3 3.6 0.1
v -0.2 2.4 0.5
v -0.2 2.4 0.4
v -0.2 2.4 0.3
v -0.2 2.4 0.1
v -0.2 2.4 0
v -0.2 2.4 -0.1
v -0.2 2.5 0.6
v -0.2 2.5 0.5
v -0.2 2.5 0.4
v -0.2 2.5 0.3
v -0.2 2.5 0.1
v -0.2 2.5 0
v -0.2 2.5 -0.1
v -0.2 2.5 -0.2
v -0.2 2.6 0.6
v -0.2 2.6 0.5
v -0.2 2.7 0.6
v -0.2 2.7 0.5
v -0.2 2.7 -0.1
v -0.2 2.7 -0.2
v -0.2 3.3 0.6
v -0.2 3.3 0.5
v -0.2 3.3 -0.1
v -0.2 3.3 -0.2
v -0.2 3.4 0.5
v -0.2 3.4 -0.1
v -0.2 3.5 0.6
v -0.2 3.5 0.5
v -0.2 3.5 0.4
v -0.2 3.5 0.3
v -0.2 3.5 0.1
v -0.2 3.5 -0.1
v -0.2 3.5 -0.2
v -0.2 3.6 0.5
v -0.2 3.6 0.3
v -0.2 3.6 0.1
v -0.2 3.6 -0.1
v -0.1 0.6 0.2
v -0.1 0.6 0.1
v -0.1 0.7 0.2
v -0.1 0.7 0.1
v -0.1 0.7 0
v -0.1 0.8 0.1
v -0.1 0.8 0
v -0.1 0.8 -0.1
v -0.1 1.1 0
v -0.1 1.1 -0.1
v -0.1 2.3 0.4
v -0.1 2.3 0.3
v -0.1 2.3 0.2
v -0.1 2.3 0
v -0.1 2.4 0.4
v -0.1 2.4 0.3
v -0.1 2.4 0.2
v -0.1 2.4 0.1
v -0.1 2.4 0
v -0.1 2.6 0.7
v -0.1 2.6 0.6
v -0.1 2.6 -0.2
v -0.1 2.6 -0.3
v -0.1 2.7 0.6
v -0.1 2.7 -0.2
v -0.1 2.7 -0.3
v -0.1 2.8 0.6
v -0.1 2.8 -0.2
v -0.1 2.9 -0.2
v -0.1 3 0.7
v -0.1 3 0.6
v -0.1 3.1 0.7
v -0.1 3.1 0.6
v -0.1 3.1 -0.2
v -0.1 3.1 -0.3
v -0.1 3.3 -0.2
v -0.1 3.3 -0.3
v -0.1 3.4 0.7
v -0.1 3.4 0.6
v -0.1 3.4 -0.2
v -0.1 3.4 -0.3
v -0.1 3.6 0.4
v -0.1 3.6 0.3
v -0.1 3.6 0.1
v -0.1 3.6 0
v -0.1 3.7 0.4
v -0.1 3.7 0.3
v -0.1 3.7 0.1
v -0.1 3.7 0
v 0 0.5 0.2
v 0 0.5 0.1
v 0 0.6 0.2
v 0 0.6 0.1
v 0 1.1 0
v 0 1.1 -0.1
v 0 1.3 0
v 0 1.3 -0.1
v 0 2.1 0.3
v 0 2.1 0.2
v 0 2.2 0.3
v 0 2.2 0.2
v 0 2.4 0.6
v 0 2.4 0.5
v 0 2.4 -0.1
v 0 2.4 -0.2
v 0 2.5 0.6
v 0 2.5 0.5
v 0 2.5 -0.1
v 0 2.5 -0.2
v 0 3.5 0.6
v 0 3.5 0.5
v 0 3.5 -0.1
v 0 3.5 -0.2
v 0 3.6 0.6
v 0 3.6 0.5
v 0 3.6 -0.1
v 0 3.6 -0.2
v 0.1 0 0.2
v 0.1 0 0.1
v 0.1 0.5 0.2
v 0.1 0.5 0.1
v 0.1 1.3 0
v 0.1 1.3 -0.1
v 0.1 1.7 0
v 0.1 1.7 -0.1
v 0.1 2.1 0.2
v 0.1 2.1 0.1
v 0.1 2.2 0.3
v 0.1 2.2 0.2
v 0.1 2.3 0.3
v 0.1 2.3 0.2
v 0.1 2.3 0.1
v 0.2 1.7 0
v 0.2 1.7 -0.1
v 0.2 1.8 0.1
v 0.2 1.8 0
v 0.2 1.8 -0.1
v 0.2 1.9 0.2
v 0.2 1.9 0.1
v 0.2 1.9 0
v 0.2 2.1 0.2
v 0.2 2.1 0.1
v 0 0.6 0.2
v 0 0.6 0.1
v 0 0.7 0.2
v 0 0.7 0.1
v 0 0.7 0
v 0 0.8 0.1
v 0 0.8 0
v 0 0.8 -0.1
v 0 1.1 0
v 0 1.1 -0.1
v 0.1 0.5 0.2
v 0.1 0.5 0.1
v 0.1 0.6 0.2
v 0.1 0.6 0.1
v 0.1 1.1 0
v 0.1 1.1 -0.1
v 0.1 1.3 0
v 0.1 1.3 -0.1
v 0.1 2.1 0.3
v 0.1 2.1 0.2
v 0.1 2.2 0.3
v 0.1 2.2 0.2
v 0.2 0 0.2
v 0.2 0 0.1
v 0.2 0.5 0.2
v 0.2 0.5 0.1
v 0.2 1.3 0
v 0.2 1.3 -0.1
v 0.2 1.7 0
v 0.2 1.7 -0.1
v 0.2 2.1 0.2
v 0.2 2.1 0.1
v 0.2 2.2 0.3
v 0.2 2.2 0.2
v 0.2 2.3 0.3
v 0.2 2.3 0.2
v 0.2 2.3 0.1
v 0.2 2.4 0.6
v 0.2 2.4 0.5
v 0.2 2.4 -0.1
v 0.2 2.4 -0.2
v 0.2 2.5 0.6
v 0.2 2.5 0.5
v 0.2 2.5 -0.1
v 0.2 2.5 -0.2
v 0.2 3.5 0.6
v 0.2 3.5 0.5
v 0.2 3.5 -0.1
v 0.2 3.5 -0.2
v 0.2 3.6 0.6
v 0.2 3.6 0.5
v 0.2 3.6 -0.1
v 0.2 3.6 -0.2
v 0.3 1.7 0
v 0.3 1.7 -0.1
v 0.3 1.8 0.1
v 0.3 1.8 0
v 0.3 1.8 -0.1
v 0.3 1.9 0.2
v 0.3 1.9 0.1
v 0.3 1.9 0
v 0.3 2.1 0.2
v 0.3 2.1 0.1
v 0.3 2.3 0.4
v 0.3 2.3 0.1
v 0.3 2.3 0
v 0.3 2.4 0.4
v 0.3 2.4 0.3
v 0.3 2.4 0.2
v 0.3 2.4 0.1
v 0.3 2.4 0
v 0.3 2.6 0.7
v 0.3 2.6 0.6
v 0.3 2.6 -0.2
v 0.3 2.6 -0.3
v 0.3 2.7 0.6
v 0.3 2.7 -0.2
v 0.3 2.7 -0.3
v 0.3 2.8 -0.2
v 0.3 2.9 0.6
v 0.3 2.9 -0.2
v 0.3 3 -0.2
v 0.3 3 -0.3
v 0.3 3.1 0.6
v 0.3 3.1 -0.2
v 0.3 3.1 -0.3
v 0.3 3.2 0.6
v 0.3 3.4 0.7
v 0.3 3.4 0.6
v 0.3 3.4 -0.2
v 0.3 3.4 -0.3
v 0.3 3.6 0.4
v 0.3 3.6 0.3
v 0.3 3.6 0.2
v 0.3 3.6 0.1
v 0.3 3.6 0
v 0.3 3.7 0.4
v 0.3 3.7 0.3
v 0.3 3.7 0
v 0.4 2.4 0.5
v 0.4 2.4 0.4
v 0.4 2.4 0.3
v 0.4 2.4 0.1
v 0.4 2.4 -0.1
v 0.4 2.5 0.6
v 0.4 2.5 0.5
v 0.4 2.5 0.4
v 0.4 2.5 0.3
v 0.4 2.5 0.1
v 0.4 2.5 0
v 0.4 2.5 -0.1
v 0.4 2.5 -0.2
v 0.4 2.6 0.6
v 0.4 2.6 0.5
v 0.4 2.6 -0.1
v 0.4 2.6 -0.2
v 0.4 2.7 0.6
v 0.4 2.7 0.5
v 0.4 2.7 -0.1
v 0.4 2.7 -0.2
v 0.4 3.3 0.6
v 0.4 3.3 0.5
v 0.4 3.3 -0.1
v 0.4 3.3 -0.2
v 0.4 3.4 -0.1
v 0.4 3.5 0.6
v 0.4 3.5 0.5
v 0.4 3.5 0.3
v 0.4 3.5 0.1
v 0.4 3.5 0
v 0.4 3.5 -0.1
v 0.4 3.5 -0.2
v 0.4 3.6 0.5
v 0.4 3.6 0.3
v 0.4 3.6 0.1
v 0.4 3.6 0
v 0.4 3.6 -0.1
v 0.5 2.4 0.3
v 0.5 2.4 0.1
v 0.5 2.5 0.5
v 0.5 2.5 0.4
v 0.5 2.5 0.3
v 0.5 2.5 0.1
v 0.5 2.5 0
v 0.5 2.5 -0.1
v 0.5 2.6 0.4
v 0.5 2.6 0.3
v 0.5 2.6 0.1
v 0.5 2.6 0
v 0.5 2.6 -0.1
v 0.5 2.7 0.6
v 0.5 2.7 0.5
v 0.5 2.7 0
v 0.5 2.7 -0.1
v 0.5 2.7 -0.2
v 0.5 2.8 0.4
v 0.5 2.8 0
v 0.5 2.8 -0.1
v 0.5 2.8 -0.2
v 0.5 2.9 0.6
v 0.5 2.9 0.5
v 0.5 2.9 0.4
v 0.5 2.9 0
v 0.5 2.9 -0.1
v 0.5 2.9 -0.2
v 0.5 3 0
v 0.5 3 -0.1
v 0.5 3 -0.2
v 0.5 3.1 0.6
v 0.5 3.1 0.5
v 0.5 3.1 0.4
v 0.5 3.1 0
v 0.5 3.1 -0.1
v 0.5 3.1 -0.2
v 0.5 3.2 0.6
v 0.5 3.2 0.4
v 0.5 3.2 0
v 0.5 3.2 -0.1
v 0.5 3.2 -0.2
v 0.5 3.3 0.6
v 0.5 3.3 0.5
v 0.5 3.3 0
v 0.5 3.3 -0.1
v 0.5 3.3 -0.2
v 0.5 3.4 0.4
v 0.5 3.4 0.3
v 0.5 3.4 0.2
v 0.5 3.4 0.1
v 0.5 3.4 0
v 0.5 3.4 -0.1
v 0.5 3.5 0.5
v 0.5 3.5 0.3
v 0.5 3.5 0.2
v 0.5 3.5 0.1
v 0.5 3.5 0
v 0.5 3.5 -0.1
v 0.5 3.6 0.3
v 0.5 3.6 0.2
v 0.5 3.6 0.1
v 0.6 2.6 0.4
v 0.6 2.6 0.1
v 0.6 2.6 0
v 0.6 2.7 0.3
v 0.6 2.7 0.2
v 0.6 2.7 0.1
v 0.6 2.7 0
v 0.6 2.8 0.4
v 0.6 2.8 0.3
v 0.6 2.8 0.2
v 0.6 2.9 0.4
v 0.6 2.9 0.3
v 0.6 2.9 0.2
v 0.6 2.9 0.1
v 0.6 3 0.2
v 0.6 3 0.1
v 0.6 3 0
v 0.6 3.1 0.4
v 0.6 3.1 0.3
v 0.6 3.1 0.1
v 0.6 3.1 0
v 0.6 3.2 0.4
v 0.6 3.2 0.3
v 0.6 3.2 0.1
v 0.6 3.2 0
v 0.6 3.3 0.3
v 0.6 3.3 0.2
v 0.6 3.3 0.1
v 0.6 3.3 0
v 0.6 3.4 0.4
v 0.6 3.4 0.3
v 0.6 3.4 0.2
v 0.6 3.4 0
v -0.1 2.6 0.7
v -0.1 3 0.7
v -0.1 3.1 0.7
v -0.1 3.4 0.7
v 0 2.8 0.7
v 0 2.9 0.7
v 0 3 0.7
v 0 3.1 0.7
v 0 3.2 0.7
v 0 3.3 0.7
v 0.1 2.6 0.7
v 0.1 2.7 0.7
v 0.1 2.8 0.7
v 0.1 2.9 0.7
v 0.1 3 0.7
v 0.1 3.1 0.7
v 0.1 3.2 0.7
v 0.1 3.3 0.7
v 0.2 2.6 0.7
v 0.2 2.7 0.7
v 0.2 3 0.7
v 0.2 3.1 0.7
v 0.3 2.6 0.7
v 0.3 3.4 0.7
v -0.3 2.7 0.6
v -0.3 2.9 0.6
v -0.3 3 0.6
v -0.3 3.2 0.6
v -0.3 3.3 0.6
v -0.2 2.5 0.6
v -0.2 2.6 0.6
v -0.2 2.7 0.6
v -0.2 2.8 0.6
v -0.2 2.9 0.6
v -0.2 3 0.6
v -0.2 3.2 0.6
v -0.2 3.3 0.6
v -0.2 3.5 0.6
v -0.1 2.5 0.6
v -0.1 2.6 0.6
v -0.1 2.7 0.6
v -0.1 2.8 0.6
v -0.1 3 0.6
v -0.1 3.1 0.6
v -0.1 3.4 0.6
v -0.1 3.5 0.6
v 0 2.4 0.6
v 0 2.5 0.6
v 0 3.4 0.6
v 0 3.5 0.6
v 0 3.6 0.6
v 0.1 2.4 0.6
v 0.1 2.5 0.6
v 0.1 2.6 0.6
v 0.1 3.5 0.6
v 0.1 3.6 0.6
v 0.2 2.4 0.6
v 0.2 2.5 0.6
v 0.2 2.6 0.6
v 0.2 3.4 0.6
v 0.2 3.5 0.6
v 0.2 3.6 0.6
v 0.3 2.6 0.6
v 0.3 2.7 0.6
v 0.3 2.9 0.6
v 0.3 3.1 0.6
v 0.3 3.2 0.6
v 0.3 3.4 0.6
v 0.4 2.5 0.6
v 0.4 2.6 0.6
v 0.4 2.7 0.6
v 0.4 3.3 0.6
v 0.4 3.5 0.6
v 0.5 2.7 0.6
v 0.5 2.9 0.6
v 0.5 3.1 0.6
v 0.5 3.2 0.6
v 0.5 3.3 0.6
v -0.3 2.5 0.5
v -0.3 2.6 0.5
v -0.3 2.7 0.5
v -0.3 3.3 0.5
v -0.3 3.4 0.5
v -0.3 3.5 0.5
v -0.2 2.4 0.5
v -0.2 2.5 0.5
v -0.2 2.6 0.5
v -0.2 2.7 0.5
v -0.2 3.3 0.5
v -0.2 3.4 0.5
v -0.2 3.5 0.5
v -0.2 3.6 0.5
v -0.1 2.4 0.5
v -0.1 2.5 0.5
v -0.1 3.5 0.5
v 0 2.4 0.5
v 0 2.5 0.5
v 0 3.5 0.5
v 0 3.6 0.5
v 0.2 2.4 0.5
v 0.2 2.5 0.5
v 0.2 3.5 0.5
v 0.2 3.6 0.5
v 0.3 2.4 0.5
v 0.3 2.5 0.5
v 0.4 2.4 0.5
v 0.4 2.5 0.5
v 0.4 2.6 0.5
v 0.4 2.7 0.5
v 0.4 3.3 0.5
v 0.4 3.5 0.5
v 0.4 3.6 0.5
v 0.5 2.5 0.5
v 0.5 2.7 0.5
v 0.5 3.3 0.5
v 0.5 3.5 0.5
v -0.4 2.6 0.4
v -0.4 2.8 0.4
v -0.4 2.9 0.4
v -0.4 3.2 0.4
v -0.4 3.3 0.4
v -0.4 3.4 0.4
v -0.3 2.6 0.4
v -0.3 2.7 0.4
v -0.3 2.8 0.4
v -0.3 2.9 0.4
v -0.3 3.2 0.4
v -0.3 3.3 0.4
v -0.3 3.4 0.4
v -0.1 2.3 0.4
v -0.1 2.4 0.4
v -0.1 3.6 0.4
v -0.1 3.7 0.4
v 0 3.6 0.4
v 0 3.7 0.4
v 0.1 2.3 0.4
v 0.1 2.4 0.4
v 0.1 3.6 0.4
v 0.2 2.3 0.4
v 0.2 2.4 0.4
v 0.2 3.6 0.4
v 0.2 3.7 0.4
v 0.3 2.3 0.4
v 0.3 2.4 0.4
v 0.3 3.6 0.4
v 0.3 3.7 0.4
v 0.5 2.6 0.4
v 0.5 2.8 0.4
v 0.5 2.9 0.4
v 0.5 3.1 0.4
v 0.5 3.2 0.4
v 0.5 3.4 0.4
v 0.6 2.6 0.4
v 0.6 2.8 0.4
v 0.6 2.9 0.4
v 0.6 3.1 0.4
v 0.6 3.2 0.4
v 0.6 3.4 0.4
v -0.3 2.4 0.3
v -0.3 2.5 0.3
v -0.3 3.5 0.3
v -0.3 3.6 0.3
v -0.2 2.4 0.3
v -0.2 2.5 0.3
v -0.2 3.5 0.3
v -0.2 3.6 0.3
v 0 2.1 0.3
v 0 2.2 0.3
v 0.1 2.1 0.3
v 0.1 2.2 0.3
v 0.1 2.3 0.3
v 0.2 2.2 0.3
v 0.2 2.3 0.3
v 0.4 2.4 0.3
v 0.4 2.5 0.3
v 0.4 3.5 0.3
v 0.4 3.6 0.3
v 0.5 2.4 0.3
v 0.5 2.5 0.3
v 0.5 3.5 0.3
v 0.5 3.6 0.3
v -0.1 0.6 0.2
v -0.1 0.7 0.2
v 0 0.5 0.2
v 0 0.6 0.2
v 0 0.7 0.2
v 0.1 0 0.2
v 0.1 0.5 0.2
v 0.1 0.6 0.2
v 0.1 2.1 0.2
v 0.1 2.2 0.2
v 0.2 0 0.2
v 0.2 0.5 0.2
v 0.2 1.9 0.2
v 0.2 2.1 0.2
v 0.2 2.2 0.2
v 0.3 1.9 0.2
v 0.3 2.1 0.2
v -0.1 0.7 0.1
v -0.1 0.8 0.1
v 0 0.7 0.1
v 0 0.8 0.1
v 0.2 1.8 0.1
v 0.2 1.9 0.1
v 0.3 1.8 0.1
v 0.3 1.9 0.1
v -0.1 0.8 0
v -0.1 1.1 0
v 0 0.8 0
v 0 1.1 0
v 0 1.3 0
v 0.1 1.1 0
v 0.1 1.3 0
v 0.1 1.7 0
v 0.2 1.3 0
v 0.2 1.7 0
v 0.2 1.8 0
v 0.3 1.7 0
v 0.3 1.8 0
v 0 2.1 0.2
v 0 2.2 0.2
v 0.1 2.1 0.2
v 0.1 2.2 0.2
v -0.3 2.4 0.1
v -0.3 2.5 0.1
v -0.3 3.5 0.1
v -0.3 3.6 0.1
v -0.2 2.4 0.1
v -0.2 2.5 0.1
v -0.2 3.5 0.1
v -0.2 3.6 0.1
v -0.1 0.6 0.1
v -0.1 0.7 0.1
v 0 0.5 0.1
v 0 0.6 0.1
v 0 0.7 0.1
v 0.1 0 0.1
v 0.1 0.5 0.1
v 0.1 0.6 0.1
v 0.1 2.1 0.1
v 0.1 2.3 0.1
v 0.2 0 0.1
v 0.2 0.5 0.1
v 0.2 1.9 0.1
v 0.2 2.1 0.1
v 0.2 2.3 0.1
v 0.3 1.9 0.1
v 0.3 2.1 0.1
v 0.4 2.4 0.1
v 0.4 2.5 0.1
v 0.4 3.5 0.1
v 0.4 3.6 0.1
v 0.5 2.4 0.1
v 0.5 2.5 0.1
v 0.5 3.5 0.1
v 0.5 3.6 0.1
v -0.4 2.6 0
v -0.4 2.7 0
v -0.4 2.8 0
v -0.4 2.9 0
v -0.4 3 0
v -0.4 3.4 0
v -0.3 2.6 0
v -0.3 2.7 0
v -0.3 2.8 0
v -0.3 2.9 0
v -0.3 3 0
v -0.3 3.3 0
v -0.3 3.4 0
v -0.1 0.7 0
v -0.1 0.8 0
v -0.1 2.3 0
v -0.1 2.4 0
v -0.1 3.6 0
v -0.1 3.7 0
v 0 0.7 0
v 0 0.8 0
v 0 3.6 0
v 0 3.7 0
v 0.1 3.6 0
v 0.2 1.8 0
v 0.2 1.9 0
v 0.2 2.3 0
v 0.2 2.4 0
v 0.2 3.6 0
v 0.3 1.8 0
v 0.3 1.9 0
v 0.3 2.3 0
v 0.3 2.4 0
v 0.3 3.6 0
v 0.3 3.7 0
v 0.5 2.6 0
v 0.5 2.7 0
v 0.5 2.8 0
v 0.5 2.9 0
v 0.5 3 0
v 0.5 3.1 0
v 0.5 3.2 0
v 0.5 3.3 0
v 0.5 3.4 0
v 0.6 2.6 0
v 0.6 2.7 0
v 0.6 3 0
v 0.6 3.1 0
v 0.6 3.2 0
v 0.6 3.3 0
v 0.6 3.4 0
v -0.3 2.5 -0.1
v -0.3 2.7 -0.1
v -0.3 3.3 -0.1
v -0.3 3.4 -0.1
v -0.3 3.5 -0.1
v -0.2 2.4 -0.1
v -0.2 2.5 -0.1
v -0.2 2.7 -0.1
v -0.2 3.3 -0.1
v -0.2 3.4 -0.1
v -0.2 3.5 -0.1
v -0.2 3.6 -0.1
v -0.1 0.8 -0.1
v -0.1 1.1 -0.1
v -0.1 2.4 -0.1
v -0.1 2.5 -0.1
v -0.1 3.5 -0.1
v -0.1 3.6 -0.1
v 0 0.8 -0.1
v 0 1.1 -0.1
v 0 1.3 -0.1
v 0 2.4 -0.1
v 0 2.5 -0.1
v 0 3.5 -0.1
v 0 3.6 -0.1
v 0.1 1.1 -0.1
v 0.1 1.3 -0.1
v 0.1 1.7 -0.1
v 0.2 1.3 -0.1
v 0.2 1.7 -0.1
v 0.2 1.8 -0.1
v 0.2 2.4 -0.1
v 0.2 2.5 -0.1
v 0.2 3.5 -0.1
v 0.2 3.6 -0.1
v 0.3 1.7 -0.1
v 0.3 1.8 -0.1
v 0.3 2.5 -0.1
v 0.3 3.5 -0.1
v 0.3 3.6 -0.1
v 0.4 2.4 -0.1
v 0.4 2.5 -0.1
v 0.4 2.6 -0.1
v 0.4 2.7 -0.1
v 0.4 3.3 -0.1
v 0.4 3.4 -0.1
v 0.4 3.5 -0.1
v 0.4 3.6 -0.1
v 0.5 2.5 -0.1
v 0.5 2.6 -0.1
v 0.5 2.7 -0.1
v 0.5 3.3 -0.1
v 0.5 3.4 -0.1
v 0.5 3.5 -0.1
v -0.3 2.7 -0.2
v -0.3 3 -0.2
v -0.3 3.1 -0.2
v -0.3 3.3 -0.2
v -0.2 2.5 -0.2
v -0.2 2.7 -0.2
v -0.2 2.8 -0.2
v -0.2 2.9 -0.2
v -0.2 3 -0.2
v -0.2 3.1 -0.2
v -0.2 3.3 -0.2
v -0.2 3.5 -0.2
v -0.1 2.6 -0.2
v -0.1 2.7 -0.2
v -0.1 2.8 -0.2
v -0.1 2.9 -0.2
v -0.1 3.1 -0.2
v -0.1 3.3 -0.2
v -0.1 3.4 -0.2
v 0 2.4 -0.2
v 0 2.5 -0.2
v 0 2.6 -0.2
v 0 3.5 -0.2
v 0 3.6 -0.2
v 0.1 2.4 -0.2
v 0.1 2.5 -0.2
v 0.1 2.6 -0.2
v 0.1 3.5 -0.2
v 0.1 3.6 -0.2
v 0.2 2.4 -0.2
v 0.2 2.5 -0.2
v 0.2 2.6 -0.2
v 0.2 3.4 -0.2
v 0.2 3.5 -0.2
v 0.2 3.6 -0.2
v 0.3 2.5 -0.2
v 0.3 2.6 -0.2
v 0.3 2.7 -0.2
v 0.3 2.8 -0.2
v 0.3 2.9 -0.2
v 0.3 3 -0.2
v 0.3 3.1 -0.2
v 0.3 3.4 -0.2
v 0.3 3.5 -0.2
v 0.4 2.5 -0.2
v 0.4 2.6 -0.2
v 0.4 2.7 -0.2
v 0.4 2.8 -0.2
v 0.4 2.9 -0.2
v 0.4 3 -0.2
v 0.4 3.1 -0.2
v 0.4 3.2 -0.2
v 0.4 3.3 -0.2
v 0.4 3.5 -0.2
v 0.5 2.7 -0.2
v 0.5 2.8 -0.2
v 0.5 2.9 -0.2
v 0.5 3 -0.2
v 0.5 3.1 -0.2
v 0.5 3.2 -0.2
v 0.5 3.3 -0.2
v -0.1 2.6 -0.3
v -0.1 2.7 -0.3
v -0.1 3.1 -0.3
v -0.1 3.3 -0.3
v -0.1 3.4 -0.3
v 0 2.6 -0.3
v 0 2.7 -0.3
v 0 2.9 -0.3
v 0 3 -0.3
v 0 3.1 -0.3
v 0 3.3 -0.3
v 0.1 2.8 -0.3
v 0.1 2.9 -0.3
v 0.1 3 -0.3
v 0.1 3.2 -0.3
v 0.1 3.3 -0.3
v 0.2 2.6 -0.3
v 0.2 2.7 -0.3
v 0.2 2.8 -0.3
v 0.2 2.9 -0.3
v 0.2 3 -0.3
v 0.2 3.1 -0.3
v 0.2 3.2 -0.3
v 0.2 3.3 -0.3
v 0.3 2.6 -0.3
v 0.3 2.7 -0.3
v 0.3 3 -0.3
v 0.3 3.1 -0.3
v 0.3 3.4 -0.3
v 0.1 0 0.2
v 0.2 0 0.2
v 0.1 0 0.1
v 0.2 0 0.1
v 0 0.5 0.2
v 0.1 0.5 0.2
v 0 0.5 0.1
v 0.1 0.5 0.1
v -0.1 0.6 0.2
v 0 0.6 0.2
v -0.1 0.6 0.1
v 0 0.6 0.1
v -0.1 0.7 0.1
v 0 0.7 0.1
v -0.1 0.7 0
v 0 0.7 0
v -0.1 0.8 0
v 0 0.8 0
v -0.1 0.8 -0.1
v 0 0.8 -0.1
v 0 1.1 0
v 0.1 1.1 0
v 0 1.1 -0.1
v 0.1 1.1 -0.1
v 0.1 1.3 0
v 0.2 1.3 0
v 0.1 1.3 -0.1
v 0.2 1.3 -0.1
v 0.2 1.7 0
v 0.3 1.7 0
v 0.2 1.7 -0.1
v 0.3 1.7 -0.1
v 0.2 1.8 0.1
v 0.3 1.8 0.1
v 0.2 1.8 0
v 0.3 1.8 0
v 0.2 1.9 0.2
v 0.3 1.9 0.2
v 0.2 1.9 0.1
v 0.3 1.9 0.1
v 0 2.1 0.3
v 0.1 2.1 0.3
v 0 2.1 0.2
v 0.1 2.1 0.2
v 0.2 2.1 0.2
v 0.1 2.1 0.1
v 0.2 2.1 0.1
v 0.1 2.2 0.3
v 0.2 2.2 0.3
v 0.1 2.2 0.2
v 0.2 2.2 0.2
v -0.1 2.3 0.4
v 0.1 2.3 0.4
v 0.2 2.3 0.4
v 0.3 2.3 0.4
v -0.1 2.3 0.3
v 0 2.3 0.3
v 0.1 2.3 0.3
v 0.2 2.3 0.3
v -0.1 2.3 0.2
v 0 2.3 0.2
v 0.1 2.3 0.2
v 0.2 2.3 0.2
v 0 2.3 0.1
v 0.1 2.3 0.1
v 0.2 2.3 0.1
v 0.3 2.3 0.1
v -0.1 2.3 0
v 0.2 2.3 0
v 0.3 2.3 0
v 0 2.4 0.6
v 0.1 2.4 0.6
v 0.2 2.4 0.6
v -0.2 2.4 0.5
v -0.1 2.4 0.5
v 0 2.4 0.5
v 0.1 2.4 0.5
v 0.2 2.4 0.5
v 0.3 2.4 0.5
v 0.4 2.4 0.5
v -0.2 2.4 0.4
v -0.1 2.4 0.4
v 0.1 2.4 0.4
v 0.2 2.4 0.4
v 0.3 2.4 0.4
v 0.4 2.4 0.4
v -0.3 2.4 0.3
v -0.2 2.4 0.3
v -0.1 2.4 0.3
v 0.3 2.4 0.3
v 0.4 2.4 0.3
v 0.5 2.4 0.3
v -0.3 2.4 0.2
v -0.2 2.4 0.2
v -0.1 2.4 0.2
v 0.3 2.4 0.2
v 0.4 2.4 0.2
v -0.3 2.4 0.1
v -0.2 2.4 0.1
v -0.1 2.4 0.1
v 0.3 2.4 0.1
v 0.4 2.4 0.1
v 0.5 2.4 0.1
v -0.2 2.4 0
v -0.1 2.4 0
v 0.2 2.4 0
v 0.3 2.4 0
v -0.2 2.4 -0.1
v -0.1 2.4 -0.1
v 0 2.4 -0.1
v 0.1 2.4 -0.1
v 0.2 2.4 -0.1
v 0.4 2.4 -0.1
v 0 2.4 -0.2
v 0.1 2.4 -0.2
v 0.2 2.4 -0.2
v -0.2 2.5 0.6
v -0.1 2.5 0.6
v 0 2.5 0.6
v 0.2 2.5 0.6
v 0.4 2.5 0.6
v -0.3 2.5 0.5
v -0.2 2.5 0.5
v -0.1 2.5 0.5
v 0 2.5 0.5
v 0.2 2.5 0.5
v 0.3 2.5 0.5
v 0.4 2.5 0.5
v 0.5 2.5 0.5
v -0.2 2.5 0.4
v 0.4 2.5 0.4
v 0.5 2.5 0.4
v -0.3 2.5 0.3
v -0.2 2.5 0.3
v 0.4 2.5 0.3
v 0.5 2.5 0.3
v -0.3 2.5 0.1
v -0.2 2.5 0.1
v 0.4 2.5 0.1
v 0.5 2.5 0.1
v -0.2 2.5 0
v 0.4 2.5 0
v 0.5 2.5 0
v -0.3 2.5 -0.1
v -0.2 2.5 -0.1
v -0.1 2.5 -0.1
v 0 2.5 -0.1
v 0.2 2.5 -0.1
v 0.3 2.5 -0.1
v 0.4 2.5 -0.1
v 0.5 2.5 -0.1
v -0.2 2.5 -0.2
v 0 2.5 -0.2
v 0.2 2.5 -0.2
v 0.3 2.5 -0.2
v 0.4 2.5 -0.2
v -0.1 2.6 0.7
v 0.1 2.6 0.7
v 0.2 2.6 0.7
v 0.3 2.6 0.7
v -0.1 2.6 0.6
v 0.1 2.6 0.6
v 0.2 2.6 0.6
v 0.3 2.6 0.6
v -0.4 2.6 0.4
v -0.3 2.6 0.4
v 0.5 2.6 0.4
v 0.6 2.6 0.4
v -0.4 2.6 0.3
v -0.3 2.6 0.3
v 0.5 2.6 0.3
v -0.4 2.6 0.2
v -0.3 2.6 0.2
v 0.5 2.6 0.1
v 0.6 2.6 0.1
v -0.4 2.6 0
v -0.3 2.6 0
v 0.5 2.6 0
v 0.6 2.6 0
v -0.1 2.6 -0.2
v 0 2.6 -0.2
v 0.1 2.6 -0.2
v 0.2 2.6 -0.2
v 0.3 2.6 -0.2
v -0.1 2.6 -0.3
v 0 2.6 -0.3
v 0.2 2.6 -0.3
v 0.3 2.6 -0.3
v -0.3 2.7 0.6
v -0.2 2.7 0.6
v 0.4 2.7 0.6
v 0.5 2.7 0.6
v -0.3 2.7 0.5
v -0.2 2.7 0.5
v 0.4 2.7 0.5
v 0.5 2.7 0.5
v -0.3 2.7 -0.1
v -0.2 2.7 -0.1
v 0.4 2.7 -0.1
v 0.5 2.7 -0.1
v -0.3 2.7 -0.2
v -0.2 2.7 -0.2
v 0.4 2.7 -0.2
v 0.5 2.7 -0.2
v 0.1 0.5 0.2
v 0.2 0.5 0.2
v 0.1 0.5 0.1
v 0.2 0.5 0.1
v 0 0.6 0.2
v 0.1 0.6 0.2
v 0 0.6 0.1
v 0.1 0.6 0.1
v -0.1 0.7 0.2
v 0 0.7 0.2
v -0.1 0.7 0.1
v 0 0.7 0.1
v -0.1 0.8 0.1
v 0 0.8 0.1
v -0.1 0.8 0
v 0 0.8 0
v -0.1 1.1 0
v 0 1.1 0
v -0.1 1.1 -0.1
v 0 1.1 -0.1
v 0 1.3 0
v 0.1 1.3 0
v 0 1.3 -0.1
v 0.1 1.3 -0.1
v 0.1 1.7 0
v 0.2 1.7 0
v 0.1 1.7 -0.1
v 0.2 1.7 -0.1
v 0.2 1.8 0
v 0.3 1.8 0
v 0.2 1.8 -0.1
v 0.3 1.8 -0.1
v 0.2 1.9 0.1
v 0.3 1.9 0.1
v 0.2 1.9 0
v 0.3 1.9 0
v 0.2 2.1 0.2
v 0.3 2.1 0.2
v 0.2 2.1 0.1
v 0.3 2.1 0.1
v 0 2.2 0.3
v 0.1 2.2 0.3
v 0 2.2 0.2
v 0.1 2.2 0.2
v -0.3 3.3 0.6
v -0.2 3.3 0.6
v 0.4 3.3 0.6
v 0.5 3.3 0.6
v -0.3 3.3 0.5
v -0.2 3.3 0.5
v 0.4 3.3 0.5
v 0.5 3.3 0.5
v -0.3 3.3 -0.1
v -0.2 3.3 -0.1
v 0.4 3.3 -0.1
v 0.5 3.3 -0.1
v -0.3 3.3 -0.2
v -0.2 3.3 -0.2
v 0.4 3.3 -0.2
v 0.5 3.3 -0.2
v -0.1 3.4 0.7
v 0.3 3.4 0.7
v -0.1 3.4 0.6
v 0 3.4 0.6
v 0.2 3.4 0.6
v 0.3 3.4 0.6
v -0.4 3.4 0.4
v -0.3 3.4 0.4
v 0.5 3.4 0.4
v 0.6 3.4 0.4
v 0.5 3.4 0.3
v 0.6 3.4 0.3
v -0.4 3.4 0.2
v -0.3 3.4 0.2
v 0.5 3.4 0.2
v 0.6 3.4 0.2
v -0.4 3.4 0.1
v -0.3 3.4 0.1
v 0.5 3.4 0.1
v -0.4 3.4 0
v -0.3 3.4 0
v 0.5 3.4 0
v 0.6 3.4 0
v -0.1 3.4 -0.2
v 0.2 3.4 -0.2
v 0.3 3.4 -0.2
v -0.1 3.4 -0.3
v 0.3 3.4 -0.3
v -0.2 3.5 0.6
v -0.1 3.5 0.6
v 0 3.5 0.6
v 0.2 3.5 0.6
v 0.4 3.5 0.6
v -0.3 3.5 0.5
v -0.2 3.5 0.5
v -0.1 3.5 0.5
v 0 3.5 0.5
v 0.2 3.5 0.5
v 0.4 3.5 0.5
v 0.5 3.5 0.5
v -0.3 3.5 0.4
v -0.2 3.5 0.4
v -0.3 3.5 0.3
v -0.2 3.5 0.3
v 0.4 3.5 0.3
v 0.5 3.5 0.3
v -0.3 3.5 0.1
v -0.2 3.5 0.1
v 0.4 3.5 0.1
v 0.5 3.5 0.1
v 0.4 3.5 0
v 0.5 3.5 0
v -0.3 3.5 -0.1
v -0.2 3.5 -0.1
v -0.1 3.5 -0.1
v 0 3.5 -0.1
v 0.2 3.5 -0.1
v 0.3 3.5 -0.1
v 0.4 3.5 -0.1
v 0.5 3.5 -0.1
v -0.2 3.5 -0.2
v 0 3.5 -0.2
v 0.2 3.5 -0.2
v 0.3 3.5 -0.2
v 0.4 3.5 -0.2
v 0 3.6 0.6
v 0.1 3.6 0.6
v 0.2 3.6 0.6
v -0.2 3.6 0.5
v 0 3.6 0.5
v 0.1 3.6 0.5
v 0.2 3.6 0.5
v 0.4 3.6 0.5
v -0.1 3.6 0.4
v 0 3.6 0.4
v 0.1 3.6 0.4
v 0.2 3.6 0.4
v 0.3 3.6 0.4
v -0.3 3.6 0.3
v -0.2 3.6 0.3
v -0.1 3.6 0.3
v 0.3 3.6 0.3
v 0.4 3.6 0.3
v 0.5 3.6 0.3
v -0.3 3.6 0.2
v -0.2 3.6 0.2
v 0.3 3.6 0.2
v 0.4 3.6 0.2
v 0.5 3.6 0.2
v -0.3 3.6 0.1
v -0.2 3.6 0.1
v -0.1 3.6 0.1
v 0.3 3.6 0.1
v 0.4 3.6 0.1
v 0.5 3.6 0.1
v -0.1 3.6 0
v 0 3.6 0
v 0.1 3.6 0
v 0.2 3.6 0
v 0.3 3.6 0
v 0.4 3.6 0
v -0.2 3.6 -0.1
v -0.1 3.6 -0.1
v 0 3.6 -0.1
v 0.1 3.6 -0.1
v 0.2 3.6 -0.1
v 0.3 3.6 -0.1
v 0.4 3.6 -0.1
v 0 3.6 -0.2
v 0.1 3.6 -0.2
v 0.2 3.6 -0.2
v -0.1 3.7 0.4
v 0 3.7 0.4
v 0.2 3.7 0.4
v 0.3 3.7 0.4
v -0.1 3.7 0.3
v 0 3.7 0.3
v 0.1 3.7 0.3
v 0.2 3.7 0.3
v 0.3 3.7 0.3
v 0 3.7 0.2
v 0.1 3.7 0.2
v 0.2 3.7 0.2
v -0.1 3.7 0.1
v 0 3.7 0.1
v 0.1 3.7 0.1
v 0.2 3.7 0.1
v -0.1 3.7 0
v 0 3.7 0
v 0.3 3.7 0

# faces
f 5/3/1 2/3/1 1/3/1
f 5/1/1 3/1/1 2/1/1
f 6/3/1 4/3/1 3/3/1
f 6/1/1 3/1/1 5/1/1
f 7/3/1 4/3/1 6/3/1
f 8/3/1 4/3/1 7/3/1
f 9/3/1 5/3/1 1/3/1
f 9/3/1 6/3/1 5/3/1
f 9/3/1 7/3/1 6/3/1
f 10/3/1 7/3/1 9/3/1
f 11/1/1 8/1/1 7/1/1
f 11/3/1 7/3/1 10/3/1
f 12/1/1 8/1/1 11/1/1
f 13/1/1 10/1/1 9/1/1
f 14/3/1 11/3/1 10/3/1
f 14/1/1 10/1/1 13/1/1
f 14/3/1 12/3/1 11/3/1
f 15/3/1 12/3/1 14/3/1
f 16/3/1 12/3/1 15/3/1
f 17/3/1 14/3/1 13/3/1
f 17/3/1 15/3/1 14/3/1
f 17/1/1 16/1/1 15/1/1
f 18/1/1 16/1/1 17/1/1
f 19/3/1 17/3/1 13/3/1
f 19/3/1 18/3/1 17/3/1
f 20/3/1 18/3/1 19/3/1
f 21/3/1 19/3/1 13/3/1
f 22/3/1 19/3/1 21/3/1
f 23/1/1 20/1/1 19/1/1
f 23/3/1 19/3/1 22/3/1
f 24/3/1 18/3/1 20/3/1
f 24/1/1 20/1/1 23/1/1
f 25/1/1 22/1/1 21/1/1
f 26/3/1 23/3/1 22/3/1
f 26/1/1 22/1/1 25/1/1
f 26/3/1 24/3/1 23/3/1
f 27/3/1 24/3/1 26/3/1
f 28/3/1 18/3/1 24/3/1
f 28/3/1 24/3/1 27/3/1
f 29/3/1 27/3/1 26/3/1
f 29/3/1 26/3/1 25/3/1
f 30/1/1 28/1/1 27/1/1
f 30/3/1 27/3/1 29/3/1
f 31/3/1 18/3/1 28/3/1
f 31/1/1 28/1/1 30/1/1
f 32/3/1 18/3/1 31/3/1
f 37/1/1 34/1/1 33/1/1
f 38/3/1 35/3/1 34/3/1
f 38/1/1 34/1/1 37/1/1
f 39/3/1 35/3/1 38/3/1
f 41/3/1 37/3/1 36/3/1
f 41/3/1 40/3/1 39/3/1
f 41/3/1 39/3/1 38/3/1
f 41/3/1 38/3/1 37/3/1
f 42/3/1 40/3/1 41/3/1
f 43/3/1 40/3/1 42/3/1
f 44/3/1 40/3/1 43/3/1
f 45/3/1 40/3/1 44/3/1
f 47/1/1 42/1/1 41/1/1
f 48/1/1 42/1/1 47/1/1
f 49/3/1 40/3/1 45/3/1
f 50/3/1 40/3/1 49/3/1
f 52/3/1 48/3/1 47/3/1
f 52/3/1 47/3/1 46/3/1
f 53/3/1 51/3/1 50/3/1
f 53/3/1 50/3/1 49/3/1
f 54/3/1 52/3/1 46/3/1
f 55/3/1 52/3/1 54/3/1
f 56/3/1 52/3/1 55/3/1
f 57/3/1 51/3/1 53/3/1
f 58/1/1 55/1/1 54/1/1
f 59/3/1 56/3/1 55/3/1
f 59/1/1 55/1/1 58/1/1
f 60/3/1 51/3/1 57/3/1
f 61/3/1 51/3/1 60/3/1
f 62/3/1 51/3/1 61/3/1
f 63/3/1 61/3/1 60/3/1
f 63/1/1 62/1/1 61/1/1
f 64/1/1 62/1/1 63/1/1
f 65/3/1 59/3/1 58/3/1
f 66/3/1 56/3/1 59/3/1
f 66/3/1 59/3/1 65/3/1
f 67/3/1 56/3/1 66/3/1
f 68/1/1 66/1/1 65/1/1
f 69/3/1 67/3/1 66/3/1
f 69/1/1 66/1/1 68/1/1
f 70/3/1 67/3/1 69/3/1
f 71/3/1 63/3/1 60/3/1
f 71/3/1 64/3/1 63/3/1
f 72/3/1 64/3/1 71/3/1
f 73/3/1 64/3/1 72/3/1
f 74/3/1 70/3/1 69/3/1
f 75/3/1 70/3/1 74/3/1
f 78/1/1 72/1/1 71/1/1
f 79/1/1 72/1/1 78/1/1
f 80/1/1 75/1/1 74/1/1
f 81/3/1 77/3/1 76/3/1
f 81/1/1 75/1/1 80/1/1
f 81/3/1 76/3/1 75/3/1
f 81/3/1 79/3/1 78/3/1
f 81/3/1 78/3/1 77/3/1
f 82/3/1 79/3/1 81/3/1
f 83/3/1 79/3/1 82/3/1
f 84/3/1 79/3/1 83/3/1
f 85/3/1 79/3/1 84/3/1
f 86/3/1 83/3/1 82/3/1
f 87/1/1 84/1/1 83/1/1
f 87/3/1 83/3/1 86/3/1
f 88/1/1 84/1/1 87/1/1
f 96/1/1 90/1/1 89/1/1
f 97/3/1 91/3/1 90/3/1
f 97/1/1 90/1/1 96/1/1
f 98/3/1 91/3/1 97/3/1
f 99/3/1 93/3/1 92/3/1
f 100/1/1 94/1/1 93/1/1
f 100/3/1 93/3/1 99/3/1
f 101/1/1 94/1/1 100/1/1
f 103/1/1 96/1/1 95/1/1
f 104/1/1 96/1/1 103/1/1
f 105/3/1 104/3/1 103/3/1
f 106/3/1 104/3/1 105/3/1
f 107/3/1 102/3/1 101/3/1
f 108/3/1 102/3/1 107/3/1
f 113/3/1 110/3/1 109/3/1
f 114/3/1 112/3/1 111/3/1
f 115/3/1 113/3/1 109/3/1
f 116/3/1 113/3/1 115/3/1
f 120/3/1 112/3/1 114/3/1
f 121/3/1 112/3/1 120/3/1
f 122/3/1 118/3/1 117/3/1
f 122/3/1 117/3/1 116/3/1
f 123/3/1 118/3/1 122/3/1
f 124/3/1 120/3/1 119/3/1
f 125/3/1 120/3/1 124/3/1
f 128/4/1 127/4/1 126/4/1
f 129/4/1 127/4/1 128/4/1
f 131/4/1 130/4/1 129/4/1
f 132/4/1 130/4/1 131/4/1
f 134/4/1 133/4/1 132/4/1
f 135/4/1 133/4/1 134/4/1
f 140/3/1 137/3/1 136/3/1
f 141/1/1 138/1/1 137/1/1
f 141/3/1 137/3/1 140/3/1
f 142/3/1 139/3/1 138/3/1
f 142/1/1 138/1/1 141/1/1
f 143/3/1 139/3/1 142/3/1
f 144/3/1 139/3/1 143/3/1
f 149/3/1 146/3/1 145/3/1
f 150/1/1 148/1/1 147/1/1
f 151/1/1 148/1/1 150/1/1
f 152/3/1 149/3/1 145/3/1
f 153/3/1 151/3/1 150/3/1
f 154/3/1 151/3/1 153/3/1
f 155/3/1 152/3/1 145/3/1
f 156/3/1 152/3/1 155/3/1
f 157/1/1 156/1/1 155/1/1
f 158/1/1 156/1/1 157/1/1
f 159/3/1 151/3/1 154/3/1
f 160/3/1 151/3/1 159/3/1
f 161/1/1 160/1/1 159/1/1
f 162/1/1 160/1/1 161/1/1
f 163/3/1 158/3/1 157/3/1
f 164/3/1 158/3/1 163/3/1
f 165/3/1 162/3/1 161/3/1
f 166/3/1 162/3/1 165/3/1
f 171/1/1 168/1/1 167/1/1
f 172/3/1 169/3/1 168/3/1
f 172/1/1 168/1/1 171/1/1
f 173/1/1 170/1/1 169/1/1
f 173/3/1 169/3/1 172/3/1
f 174/1/1 170/1/1 173/1/1
f 177/4/1 176/4/1 175/4/1
f 178/4/1 176/4/1 177/4/1
f 181/4/1 180/4/1 179/4/1
f 182/4/1 180/4/1 181/4/1
f 185/3/1 184/3/1 183/3/1
f 186/3/1 184/3/1 185/3/1
f 191/1/1 188/1/1 187/1/1
f 192/1/1 188/1/1 191/1/1
f 193/1/1 190/1/1 189/1/1
f 194/1/1 190/1/1 193/1/1
f 199/3/1 196/3/1 195/3/1
f 200/3/1 196/3/1 199/3/1
f 201/1/1 198/1/1 197/1/1
f 202/1/1 198/1/1 201/1/1
f 205/4/1 204/4/1 203/4/1
f 206/4/1 204/4/1 205/4/1
f 209/4/1 208/4/1 207/4/1
f 210/4/1 208/4/1 209/4/1
f 214/4/1 212/4/1 211/4/1
f 215/3/1 214/3/1 213/3/1
f 216/4/1 212/4/1 214/4/1
f 216/3/1 214/3/1 215/3/1
f 217/4/1 212/4/1 216/4/1
f 221/4/1 219/4/1 218/4/1
f 222/4/1 219/4/1 221/4/1
f 224/4/1 221/4/1 220/4/1
f 225/4/1 221/4/1 224/4/1
f 226/4/1 224/4/1 223/4/1
f 227/4/1 224/4/1 226/4/1
f 228/4/2 229/4/2 230/4/2
f 230/4/2 229/4/2 231/4/2
f 231/4/2 232/4/2 233/4/2
f 233/4/2 232/4/2 234/4/2
f 234/4/2 235/4/2 236/4/2
f 236/4/2 235/4/2 237/4/2
f 238/4/2 239/4/2 240/4/2
f 240/4/2 239/4/2 241/4/2
f 242/4/2 243/4/2 244/4/2
f 244/4/2 243/4/2 245/4/2
f 246/3/2 247/3/2 248/3/2
f 248/3/2 247/3/2 249/3/2
f 250/4/2 251/4/2 252/4/2
f 252/4/2 251/4/2 253/4/2
f 254/4/2 255/4/2 256/4/2
f 256/4/2 255/4/2 257/4/2
f 258/4/2 259/4/2 261/4/2
f 260/3/2 261/3/2 262/3/2
f 261/4/2 259/4/2 263/4/2
f 262/3/2 261/3/2 263/3/2
f 263/4/2 259/4/2 264/4/2
f 265/3/2 266/3/2 269/3/2
f 269/3/2 266/3/2 270/3/2
f 267/3/2 268/3/2 271/3/2
f 271/3/2 268/3/2 272/3/2
f 273/1/2 274/1/2 277/1/2
f 277/1/2 274/1/2 278/1/2
f 275/3/2 276/3/2 279/3/2
f 279/3/2 276/3/2 280/3/2
f 281/4/2 282/4/2 284/4/2
f 284/4/2 282/4/2 285/4/2
f 283/4/2 284/4/2 287/4/2
f 287/4/2 284/4/2 288/4/2
f 286/4/2 287/4/2 289/4/2
f 289/4/2 287/4/2 290/4/2
f 291/3/2 292/3/2 294/3/2
f 294/3/2 292/3/2 295/3/2
f 295/3/2 292/3/2 296/3/2
f 292/1/2 293/1/2 297/1/2
f 296/3/2 292/3/2 297/3/2
f 297/1/2 293/1/2 298/1/2
f 299/3/2 300/3/2 303/3/2
f 301/1/2 302/1/2 304/1/2
f 304/1/2 302/1/2 305/1/2
f 304/3/2 305/3/2 306/3/2
f 299/3/2 303/3/2 307/3/2
f 306/3/2 305/3/2 308/3/2
f 308/3/2 305/3/2 309/3/2
f 309/3/2 305/3/2 310/3/2
f 299/3/2 307/3/2 311/3/2
f 309/1/2 310/1/2 312/1/2
f 312/1/2 310/1/2 313/1/2
f 299/3/2 311/3/2 314/3/2
f 299/3/2 314/3/2 315/3/2
f 315/3/2 314/3/2 316/3/2
f 312/3/2 313/3/2 317/3/2
f 317/3/2 313/3/2 318/3/2
f 319/1/2 320/1/2 324/1/2
f 322/3/2 323/3/2 325/3/2
f 324/1/2 320/1/2 325/1/2
f 320/3/2 321/3/2 325/3/2
f 321/3/2 322/3/2 325/3/2
f 325/3/2 323/3/2 326/3/2
f 327/1/2 328/1/2 333/1/2
f 328/3/2 329/3/2 334/3/2
f 333/1/2 328/1/2 334/1/2
f 334/3/2 329/3/2 335/3/2
f 330/3/2 331/3/2 336/3/2
f 336/3/2 331/3/2 337/3/2
f 337/3/2 331/3/2 338/3/2
f 332/3/2 333/3/2 340/3/2
f 340/3/2 333/3/2 341/3/2
f 338/1/2 339/1/2 342/1/2
f 342/1/2 339/1/2 343/1/2
f 340/1/2 341/1/2 344/1/2
f 344/1/2 341/1/2 345/1/2
f 342/3/2 343/3/2 346/3/2
f 346/3/2 343/3/2 347/3/2
f 350/3/2 351/3/2 352/3/2
f 348/2/2 349/2/2 353/2/2
f 353/2/2 349/2/2 354/2/2
f 352/3/2 351/3/2 358/3/2
f 358/3/2 351/3/2 359/3/2
f 354/2/2 355/2/2 360/2/2
f 360/2/2 355/2/2 361/2/2
f 356/3/2 357/3/2 362/3/2
f 357/1/2 358/1/2 363/1/2
f 362/3/2 357/3/2 363/3/2
f 363/1/2 358/1/2 364/1/2
f 365/3/2 366/3/2 369/3/2
f 369/3/2 366/3/2 370/3/2
f 367/3/2 368/3/2 373/3/2
f 368/1/2 369/1/2 373/1/2
f 370/3/2 371/3/2 374/3/2
f 373/1/2 369/1/2 374/1/2
f 369/3/2 370/3/2 374/3/2
f 374/3/2 371/3/2 375/3/2
f 371/1/2 372/1/2 376/1/2
f 375/3/2 371/3/2 376/3/2
f 376/1/2 372/1/2 377/1/2
f 367/3/2 373/3/2 379/3/2
f 376/3/2 377/3/2 380/3/2
f 380/3/2 377/3/2 381/3/2
f 378/3/2 379/3/2 383/3/2
f 379/3/2 373/3/2 383/3/2
f 380/3/2 381/3/2 384/3/2
f 381/1/2 382/1/2 385/1/2
f 384/3/2 381/3/2 385/3/2
f 385/1/2 382/1/2 386/1/2
f 378/3/2 383/3/2 387/3/2
f 387/3/2 383/3/2 388/3/2
f 388/3/2 383/3/2 389/3/2
f 384/1/2 385/1/2 390/1/2
f 385/3/2 386/3/2 391/3/2
f 390/1/2 385/1/2 391/1/2
f 391/3/2 386/3/2 392/3/2
f 390/3/2 391/3/2 393/3/2
f 391/1/2 392/1/2 394/1/2
f 393/3/2 391/3/2 394/3/2
f 394/1/2 392/1/2 395/1/2
f 387/2/2 388/2/2 396/2/2
f 388/3/2 389/3/2 397/3/2
f 396/2/2 388/2/2 397/2/2
f 397/3/2 389/3/2 398/3/2
f 393/3/2 394/3/2 399/3/2
f 394/3/2 395/3/2 399/3/2
f 399/3/2 395/3/2 400/3/2
f 400/3/2 395/3/2 401/3/2
f 397/3/2 398/3/2 402/3/2
f 396/3/2 397/3/2 402/3/2
f 402/3/2 398/3/2 403/3/2
f 399/3/2 400/3/2 404/3/2
f 400/1/2 401/1/2 405/1/2
f 404/3/2 400/3/2 405/3/2
f 405/1/2 401/1/2 406/1/2
f 402/2/2 403/2/2 407/2/2
f 407/2/2 403/2/2 408/2/2
f 404/3/2 405/3/2 409/3/2
f 405/3/2 406/3/2 409/3/2
f 409/3/2 406/3/2 410/3/2
f 410/3/2 406/3/2 411/3/2
f 408/2/2 403/2/2 412/2/2
f 409/1/2 410/1/2 416/1/2
f 416/1/2 410/1/2 417/1/2
f 408/2/2 412/2/2 418/2/2
f 412/2/2 413/2/2 418/2/2
f 414/3/2 415/3/2 419/3/2
f 418/2/2 413/2/2 419/2/2
f 413/3/2 414/3/2 419/3/2
f 419/3/2 415/3/2 420/3/2
f 415/1/2 416/1/2 421/1/2
f 420/3/2 415/3/2 421/3/2
f 416/3/2 417/3/2 422/3/2
f 421/1/2 416/1/2 422/1/2
f 422/3/2 417/3/2 423/3/2
f 419/1/2 420/1/2 424/1/2
f 420/3/2 421/3/2 425/3/2
f 424/1/2 420/1/2 425/1/2
f 425/3/2 421/3/2 426/3/2
f 427/3/2 428/3/2 430/3/2
f 430/3/2 428/3/2 431/3/2
f 428/1/2 429/1/2 432/1/2
f 431/3/2 428/3/2 432/3/2
f 432/1/2 429/1/2 433/1/2
f 427/3/2 430/3/2 434/3/2
f 430/1/2 431/1/2 435/1/2
f 434/3/2 430/3/2 435/3/2
f 431/3/2 432/3/2 436/3/2
f 435/1/2 431/1/2 436/1/2
f 432/3/2 433/3/2 436/3/2
f 434/1/2 435/1/2 437/1/2
f 435/3/2 436/3/2 438/3/2
f 437/1/2 435/1/2 438/1/2
f 436/3/2 433/3/2 439/3/2
f 438/3/2 436/3/2 439/3/2
f 439/3/2 433/3/2 440/3/2
f 437/3/2 438/3/2 441/3/2
f 438/3/2 439/3/2 441/3/2
f 439/1/2 440/1/2 441/1/2
f 440/3/2 433/3/2 442/3/2
f 441/1/2 440/1/2 442/1/2
f 442/3/2 433/3/2 443/3/2
f 437/3/2 441/3/2 444/3/2
f 441/3/2 442/3/2 444/3/2
f 444/3/2 442/3/2 445/3/2
f 442/1/2 443/1/2 446/1/2
f 445/3/2 442/3/2 446/3/2
f 446/1/2 443/1/2 447/1/2
f 444/1/2 445/1/2 448/1/2
f 445/3/2 446/3/2 449/3/2
f 448/1/2 445/1/2 449/1/2
f 446/3/2 447/3/2 449/3/2
f 449/3/2 447/3/2 450/3/2
f 450/3/2 447/3/2 451/3/2
f 448/3/2 449/3/2 452/3/2
f 449/3/2 450/3/2 452/3/2
f 452/3/2 450/3/2 453/3/2
f 450/1/2 451/1/2 454/1/2
f 453/3/2 450/3/2 454/3/2
f 454/1/2 451/1/2 455/1/2
f 448/3/2 452/3/2 456/3/2
f 452/1/2 453/1/2 457/1/2
f 456/3/2 452/3/2 457/3/2
f 453/3/2 454/3/2 458/3/2
f 457/1/2 453/1/2 458/1/2
f 454/3/2 455/3/2 458/3/2
f 458/3/2 455/3/2 459/3/2
f 464/3/3 461/3/3 460/3/3
f 465/3/3 461/3/3 464/3/3
f 466/1/3 462/1/3 461/1/3
f 466/3/3 461/3/3 465/3/3
f 467/3/3 463/3/3 462/3/3
f 467/1/3 462/1/3 466/1/3
f 468/3/3 463/3/3 467/3/3
f 469/3/3 463/3/3 468/3/3
f 470/3/3 464/3/3 460/3/3
f 471/3/3 464/3/3 470/3/3
f 472/1/3 465/1/3 464/1/3
f 472/3/3 464/3/3 471/3/3
f 473/3/3 466/3/3 465/3/3
f 473/1/3 465/1/3 472/1/3
f 473/3/3 467/3/3 466/3/3
f 473/3/3 468/3/3 467/3/3
f 474/3/3 468/3/3 473/3/3
f 475/3/3 468/3/3 474/3/3
f 476/1/3 469/1/3 468/1/3
f 476/3/3 468/3/3 475/3/3
f 477/3/3 463/3/3 469/3/3
f 477/1/3 469/1/3 476/1/3
f 478/1/3 471/1/3 470/1/3
f 479/3/3 472/3/3 471/3/3
f 479/1/3 471/1/3 478/1/3
f 479/3/3 473/3/3 472/3/3
f 479/3/3 474/3/3 473/3/3
f 480/1/3 475/1/3 474/1/3
f 480/3/3 474/3/3 479/3/3
f 481/3/3 476/3/3 475/3/3
f 481/1/3 475/1/3 480/1/3
f 481/3/3 477/3/3 476/3/3
f 482/3/3 480/3/3 479/3/3
f 482/3/3 479/3/3 478/3/3
f 482/3/3 481/3/3 480/3/3
f 483/3/3 463/3/3 477/3/3
f 483/3/3 481/3/3 482/3/3
f 483/3/3 477/3/3 481/3/3
f 491/3/3 485/3/3 484/3/3
f 492/3/3 485/3/3 491/3/3
f 493/1/3 486/1/3 485/1/3
f 493/3/3 485/3/3 492/3/3
f 494/3/3 487/3/3 486/3/3
f 494/1/3 486/1/3 493/1/3
f 495/1/3 488/1/3 487/1/3
f 495/3/3 487/3/3 494/3/3
f 496/1/3 488/1/3 495/1/3
f 498/1/3 490/1/3 489/1/3
f 499/3/3 491/3/3 490/3/3
f 499/1/3 490/1/3 498/1/3
f 500/1/3 492/1/3 491/1/3
f 500/3/3 491/3/3 499/3/3
f 501/3/3 497/3/3 496/3/3
f 501/1/3 492/1/3 500/1/3
f 501/3/3 493/3/3 492/3/3
f 501/3/3 496/3/3 495/3/3
f 501/3/3 495/3/3 494/3/3
f 501/3/3 494/3/3 493/3/3
f 502/3/3 497/3/3 501/3/3
f 503/3/3 497/3/3 502/3/3
f 504/3/3 497/3/3 503/3/3
f 505/3/3 497/3/3 504/3/3
f 507/3/3 499/3/3 498/3/3
f 508/1/3 505/1/3 504/1/3
f 509/1/3 505/1/3 508/1/3
f 511/1/3 507/1/3 506/1/3
f 512/3/3 499/3/3 507/3/3
f 512/1/3 507/1/3 511/1/3
f 513/3/3 499/3/3 512/3/3
f 514/3/3 509/3/3 508/3/3
f 514/3/3 510/3/3 509/3/3
f 515/3/3 510/3/3 514/3/3
f 516/3/3 513/3/3 512/3/3
f 516/3/3 512/3/3 511/3/3
f 517/3/3 513/3/3 516/3/3
f 518/3/3 513/3/3 517/3/3
f 519/3/3 514/3/3 508/3/3
f 520/1/3 515/1/3 514/1/3
f 520/3/3 514/3/3 519/3/3
f 521/1/3 515/1/3 520/1/3
f 522/3/3 518/3/3 517/3/3
f 527/2/3 520/2/3 519/2/3
f 528/3/3 522/3/3 517/3/3
f 529/1/3 523/1/3 522/1/3
f 529/3/3 522/3/3 528/3/3
f 530/3/3 524/3/3 523/3/3
f 530/1/3 523/1/3 529/1/3
f 531/2/3 527/2/3 526/2/3
f 532/2/3 520/2/3 527/2/3
f 532/2/3 527/2/3 531/2/3
f 533/3/3 524/3/3 530/3/3
f 534/2/3 525/2/3 524/2/3
f 534/3/3 524/3/3 533/3/3
f 535/3/3 526/3/3 525/3/3
f 535/2/3 525/2/3 534/2/3
f 536/2/3 531/2/3 526/2/3
f 536/3/3 526/3/3 535/3/3
f 537/2/3 531/2/3 536/2/3
f 545/3/3 539/3/3 538/3/3
f 546/1/3 540/1/3 539/1/3
f 546/3/3 539/3/3 545/3/3
f 547/1/3 540/1/3 546/1/3
f 548/3/3 542/3/3 541/3/3
f 549/1/3 543/1/3 542/1/3
f 549/3/3 542/3/3 548/3/3
f 550/1/3 543/1/3 549/1/3
f 552/1/3 545/1/3 544/1/3
f 553/1/3 545/1/3 552/1/3
f 554/3/3 551/3/3 550/3/3
f 555/3/3 553/3/3 552/3/3
f 556/3/3 553/3/3 555/3/3
f 557/3/3 551/3/3 554/3/3
f 558/3/3 551/3/3 557/3/3
f 563/3/3 560/3/3 559/3/3
f 564/3/3 560/3/3 563/3/3
f 565/1/3 564/1/3 563/1/3
f 566/1/3 564/1/3 565/1/3
f 570/2/3 562/2/3 561/2/3
f 571/2/3 562/2/3 570/2/3
f 572/3/3 568/3/3 567/3/3
f 572/3/3 567/3/3 566/3/3
f 573/3/3 568/3/3 572/3/3
f 574/2/3 570/2/3 569/2/3
f 575/2/3 570/2/3 574/2/3
f 582/3/3 577/3/3 576/3/3
f 583/3/3 577/3/3 582/3/3
f 584/1/3 578/1/3 577/1/3
f 584/3/3 577/3/3 583/3/3
f 585/3/3 579/3/3 578/3/3
f 585/1/3 578/1/3 584/1/3
f 586/1/3 580/1/3 579/1/3
f 586/3/3 579/3/3 585/3/3
f 587/3/3 581/3/3 580/3/3
f 587/1/3 580/1/3 586/1/3
f 588/3/3 581/3/3 587/3/3
f 593/1/3 592/1/3 591/1/3
f 594/1/3 592/1/3 593/1/3
f 595/3/3 590/3/3 589/3/3
f 596/3/3 590/3/3 595/3/3
f 597/3/3 594/3/3 593/3/3
f 598/1/3 596/1/3 595/1/3
f 599/1/3 596/1/3 598/1/3
f 600/3/3 594/3/3 597/3/3
f 601/3/3 594/3/3 600/3/3
f 602/3/3 599/3/3 598/3/3
f 603/3/3 599/3/3 602/3/3
f 604/1/3 601/1/3 600/1/3
f 605/1/3 601/1/3 604/1/3
f 612/3/3 607/3/3 606/3/3
f 613/1/3 608/1/3 607/1/3
f 613/3/3 607/3/3 612/3/3
f 614/3/3 609/3/3 608/3/3
f 614/1/3 608/1/3 613/1/3
f 615/1/3 610/1/3 609/1/3
f 615/3/3 609/3/3 614/3/3
f 616/3/3 611/3/3 610/3/3
f 616/1/3 610/1/3 615/1/3
f 617/3/3 611/3/3 616/3/3
f 622/1/3 619/1/3 618/1/3
f 623/1/3 619/1/3 622/1/3
f 624/3/3 621/3/3 620/3/3
f 625/3/3 621/3/3 624/3/3
f 628/3/3 627/3/3 626/3/3
f 629/3/3 627/3/3 628/3/3
f 631/3/3 630/3/3 629/3/3
f 632/3/3 630/3/3 631/3/3
f 637/3/3 634/3/3 633/3/3
f 638/3/3 634/3/3 637/3/3
f 639/1/3 636/1/3 635/1/3
f 640/1/3 636/1/3 639/1/3
f 644/4/3 642/4/3 641/4/3
f 645/4/3 642/4/3 644/4/3
f 647/4/3 644/4/3 643/4/3
f 648/4/3 644/4/3 647/4/3
f 651/4/3 647/4/3 646/4/3
f 652/4/3 647/4/3 651/4/3
f 654/4/3 650/4/3 649/4/3
f 655/4/3 650/4/3 654/4/3
f 656/4/3 654/4/3 653/4/3
f 657/4/3 654/4/3 656/4/3
f 660/4/3 659/4/3 658/4/3
f 661/4/3 659/4/3 660/4/3
f 664/4/3 663/4/3 662/4/3
f 665/4/3 663/4/3 664/4/3
f 668/4/3 667/4/3 666/4/3
f 669/4/3 667/4/3 668/4/3
f 671/4/3 670/4/3 669/4/3
f 672/4/3 670/4/3 671/4/3
f 674/4/3 673/4/3 672/4/3
f 675/4/3 673/4/3 674/4/3
f 677/4/3 676/4/3 675/4/3
f 678/4/3 676/4/3 677/4/3
f 679/3/4 680/3/4 681/3/4
f 681/3/4 680/3/4 682/3/4
f 683/3/4 684/3/4 687/3/4
f 687/3/4 684/3/4 688/3/4
f 685/1/4 686/1/4 689/1/4
f 689/1/4 686/1/4 690/1/4
f 691/4/4 692/4/4 694/4/4
f 694/4/4 692/4/4 695/4/4
f 693/4/4 694/4/4 697/4/4
f 697/4/4 694/4/4 698/4/4
f 696/4/4 697/4/4 701/4/4
f 701/4/4 697/4/4 702/4/4
f 699/4/4 700/4/4 704/4/4
f 704/4/4 700/4/4 705/4/4
f 703/4/4 704/4/4 706/4/4
f 706/4/4 704/4/4 707/4/4
f 708/3/4 709/3/4 712/3/4
f 712/3/4 709/3/4 713/3/4
f 710/3/4 711/3/4 714/3/4
f 714/3/4 711/3/4 715/3/4
f 716/3/4 717/3/4 722/3/4
f 717/1/4 718/1/4 723/1/4
f 722/3/4 717/3/4 723/3/4
f 718/3/4 719/3/4 724/3/4
f 723/1/4 718/1/4 724/1/4
f 719/1/4 720/1/4 725/1/4
f 724/3/4 719/3/4 725/3/4
f 720/3/4 721/3/4 726/3/4
f 725/1/4 720/1/4 726/1/4
f 726/3/4 721/3/4 727/3/4
f 727/3/4 721/3/4 728/3/4
f 729/4/4 730/4/4 735/4/4
f 735/4/4 730/4/4 736/4/4
f 733/1/4 734/1/4 737/1/4
f 737/1/4 734/1/4 738/1/4
f 737/3/4 738/3/4 739/3/4
f 731/3/4 732/3/4 742/3/4
f 742/3/4 732/3/4 743/3/4
f 739/3/4 738/3/4 744/3/4
f 740/4/4 741/4/4 745/4/4
f 745/4/4 741/4/4 746/4/4
f 742/1/4 743/1/4 747/1/4
f 747/1/4 743/1/4 748/1/4
f 744/3/4 738/3/4 749/3/4
f 749/3/4 738/3/4 750/3/4
f 751/1/4 752/1/4 760/1/4
f 752/3/4 753/3/4 761/3/4
f 760/1/4 752/1/4 761/1/4
f 753/3/4 754/3/4 761/3/4
f 754/3/4 755/3/4 761/3/4
f 755/1/4 756/1/4 762/1/4
f 761/3/4 755/3/4 762/3/4
f 756/3/4 757/3/4 763/3/4
f 762/1/4 756/1/4 763/1/4
f 757/1/4 758/1/4 764/1/4
f 763/3/4 757/3/4 764/3/4
f 758/3/4 759/3/4 765/3/4
f 764/1/4 758/1/4 765/1/4
f 765/3/4 759/3/4 766/3/4
f 767/3/4 768/3/4 773/3/4
f 773/3/4 768/3/4 774/3/4
f 769/1/4 770/1/4 775/1/4
f 770/3/4 771/3/4 776/3/4
f 775/1/4 770/1/4 776/1/4
f 776/3/4 771/3/4 777/3/4
f 772/1/4 773/1/4 781/1/4
f 781/1/4 773/1/4 782/1/4
f 777/3/4 778/3/4 783/3/4
f 783/3/4 778/3/4 784/3/4
f 779/4/4 780/4/4 785/4/4
f 785/4/4 780/4/4 786/4/4
f 781/3/4 782/3/4 788/3/4
f 788/3/4 782/3/4 789/3/4
f 783/1/4 784/1/4 790/1/4
f 790/1/4 784/1/4 791/1/4
f 786/4/4 787/4/4 792/4/4
f 792/4/4 787/4/4 793/4/4
f 793/4/4 794/4/4 795/4/4
f 795/4/4 794/4/4 796/4/4
f 796/4/4 797/4/4 802/4/4
f 802/4/4 797/4/4 803/4/4
f 798/3/4 799/3/4 804/3/4
f 800/3/4 801/3/4 805/3/4
f 805/3/4 801/3/4 806/3/4
f 798/3/4 804/3/4 807/3/4
f 807/3/4 804/3/4 808/3/4
f 805/1/4 806/1/4 813/1/4
f 813/1/4 806/1/4 814/1/4
f 808/1/4 809/1/4 815/1/4
f 809/3/4 810/3/4 816/3/4
f 815/1/4 809/1/4 816/1/4
f 816/3/4 810/3/4 817/3/4
f 811/1/4 812/1/4 818/1/4
f 812/3/4 813/3/4 819/3/4
f 818/1/4 812/1/4 819/1/4
f 819/3/4 813/3/4 820/3/4
f 821/3/4 822/3/4 826/3/4
f 826/3/4 822/3/4 827/3/4
f 827/3/4 822/3/4 828/3/4
f 822/1/4 823/1/4 829/1/4
f 828/3/4 822/3/4 829/3/4
f 823/3/4 824/3/4 830/3/4
f 829/1/4 823/1/4 830/1/4
f 830/3/4 824/3/4 831/3/4
f 825/3/4 826/3/4 833/3/4
f 826/3/4 827/3/4 833/3/4
f 833/3/4 827/3/4 834/3/4
f 827/1/4 828/1/4 835/1/4
f 834/3/4 827/3/4 835/3/4
f 828/3/4 829/3/4 836/3/4
f 835/1/4 828/1/4 836/1/4
f 831/3/4 832/3/4 836/3/4
f 830/3/4 831/3/4 836/3/4
f 829/3/4 830/3/4 836/3/4
f 836/3/4 832/3/4 837/3/4
f 837/3/4 832/3/4 838/3/4
f 838/3/4 832/3/4 839/3/4
f 825/3/4 833/3/4 841/3/4
f 841/3/4 833/3/4 842/3/4
f 839/3/4 832/3/4 843/3/4
f 840/1/4 841/1/4 845/1/4
f 841/3/4 842/3/4 846/3/4
f 845/1/4 841/1/4 846/1/4
f 846/3/4 842/3/4 847/3/4
f 843/1/4 844/1/4 848/1/4
f 839/3/4 843/3/4 848/3/4
f 848/1/4 844/1/4 849/1/4
f 845/3/4 846/3/4 850/3/4
f 846/1/4 847/1/4 851/1/4
f 850/3/4 846/3/4 851/3/4
f 851/1/4 847/1/4 852/1/4
f 839/3/4 848/3/4 853/3/4
f 848/3/4 849/3/4 853/3/4
f 853/3/4 849/3/4 854/3/4
f 854/3/4 849/3/4 855/3/4
f 851/3/4 852/3/4 856/3/4
f 856/3/4 852/3/4 857/3/4
f 853/1/4 854/1/4 863/1/4
f 863/1/4 854/1/4 864/1/4
f 856/1/4 857/1/4 865/1/4
f 857/3/4 858/3/4 866/3/4
f 865/1/4 857/1/4 866/1/4
f 858/3/4 859/3/4 866/3/4
f 866/3/4 859/3/4 867/3/4
f 859/1/4 860/1/4 868/1/4
f 867/3/4 859/3/4 868/3/4
f 861/3/4 862/3/4 869/3/4
f 868/1/4 860/1/4 869/1/4
f 863/3/4 864/3/4 869/3/4
f 860/3/4 861/3/4 869/3/4
f 862/3/4 863/3/4 869/3/4
f 869/3/4 864/3/4 870/3/4
f 870/3/4 864/3/4 871/3/4
f 871/3/4 864/3/4 872/3/4
f 872/3/4 864/3/4 873/3/4
f 873/3/4 864/3/4 874/3/4
f 867/1/4 868/1/4 875/1/4
f 868/3/4 869/3/4 876/3/4
f 875/1/4 868/1/4 876/1/4
f 869/1/4 870/1/4 877/1/4
f 876/3/4 869/3/4 877/3/4
f 870/3/4 871/3/4 878/3/4
f 877/1/4 870/1/4 878/1/4
f 871/1/4 872/1/4 879/1/4
f 878/3/4 871/3/4 879/3/4
f 872/3/4 873/3/4 880/3/4
f 879/1/4 872/1/4 880/1/4
f 880/3/4 873/3/4 881/3/4
f 882/1/4 883/1/4 887/1/4
f 883/3/4 884/3/4 888/3/4
f 887/1/4 883/1/4 888/1/4
f 888/3/4 884/3/4 889/3/4
f 889/3/4 884/3/4 890/3/4
f 884/1/4 885/1/4 891/1/4
f 890/3/4 884/3/4 891/3/4
f 885/3/4 886/3/4 892/3/4
f 891/1/4 885/1/4 892/1/4
f 887/3/4 888/3/4 893/3/4
f 888/3/4 889/3/4 893/3/4
f 889/1/4 890/1/4 894/1/4
f 893/3/4 889/3/4 894/3/4
f 890/3/4 891/3/4 895/3/4
f 894/1/4 890/1/4 895/1/4
f 891/3/4 892/3/4 895/3/4
f 895/3/4 892/3/4 896/3/4
f 892/3/4 886/3/4 897/3/4
f 896/3/4 892/3/4 897/3/4
f 887/3/4 893/3/4 898/3/4
f 898/3/4 893/3/4 899/3/4
f 893/1/4 894/1/4 900/1/4
f 899/3/4 893/3/4 900/3/4
f 895/3/4 896/3/4 901/3/4
f 900/1/4 894/1/4 901/1/4
f 894/3/4 895/3/4 901/3/4
f 901/3/4 896/3/4 902/3/4
f 902/3/4 896/3/4 903/3/4
f 896/1/4 897/1/4 904/1/4
f 903/3/4 896/3/4 904/3/4
f 897/3/4 886/3/4 905/3/4
f 904/1/4 897/1/4 905/1/4
f 898/1/4 899/1/4 906/1/4
f 899/3/4 900/3/4 907/3/4
f 906/1/4 899/1/4 907/1/4
f 900/3/4 901/3/4 907/3/4
f 901/3/4 902/3/4 907/3/4
f 902/1/4 903/1/4 908/1/4
f 907/3/4 902/3/4 908/3/4
f 903/3/4 904/3/4 909/3/4
f 908/1/4 903/1/4 909/1/4
f 904/3/4 905/3/4 909/3/4
f 905/3/4 886/3/4 910/3/4
f 909/3/4 905/3/4 910/3/4
f 913/4/5 912/4/5 911/4/5
f 914/4/5 912/4/5 913/4/5
f 917/4/5 916/4/5 915/4/5
f 918/4/5 916/4/5 917/4/5
f 921/4/5 920/4/5 919/4/5
f 922/4/5 920/4/5 921/4/5
f 925/4/5 924/4/5 923/4/5
f 926/4/5 924/4/5 925/4/5
f 929/4/5 928/4/5 927/4/5
f 930/4/5 928/4/5 929/4/5
f 933/4/5 932/4/5 931/4/5
f 934/4/5 932/4/5 933/4/5
f 937/4/5 936/4/5 935/4/5
f 938/4/5 936/4/5 937/4/5
f 941/4/5 940/4/5 939/4/5
f 942/4/5 940/4/5 941/4/5
f 945/4/5 944/4/5 943/4/5
f 946/4/5 944/4/5 945/4/5
f 949/4/5 948/4/5 947/4/5
f 950/4/5 948/4/5 949/4/5
f 953/3/5 952/3/5 951/3/5
f 954/3/5 952/3/5 953/3/5
f 956/4/5 955/4/5 954/4/5
f 957/4/5 955/4/5 956/4/5
f 960/3/5 959/3/5 958/3/5
f 961/3/5 959/3/5 960/3/5
f 966/3/5 963/3/5 962/3/5
f 967/3/5 963/3/5 966/3/5
f 968/1/5 964/1/5 963/1/5
f 968/3/5 963/3/5 967/3/5
f 969/3/5 965/3/5 964/3/5
f 969/1/5 964/1/5 968/1/5
f 970/1/5 967/1/5 966/1/5
f 971/3/5 968/3/5 967/3/5
f 971/1/5 967/1/5 970/1/5
f 972/3/5 968/3/5 971/3/5
f 973/3/5 965/3/5 969/3/5
f 974/1/5 972/1/5 971/1/5
f 974/3/5 971/3/5 970/3/5
f 975/1/5 972/1/5 974/1/5
f 976/3/5 965/3/5 973/3/5
f 977/3/5 965/3/5 976/3/5
f 978/3/5 975/3/5 974/3/5
f 978/3/5 974/3/5 970/3/5
f 978/3/5 976/3/5 975/3/5
f 979/1/5 977/1/5 976/1/5
f 979/3/5 976/3/5 978/3/5
f 980/1/5 977/1/5 979/1/5
f 986/1/5 982/1/5 981/1/5
f 987/3/5 983/3/5 982/3/5
f 987/1/5 982/1/5 986/1/5
f 988/3/5 983/3/5 987/3/5
f 991/1/5 985/1/5 984/1/5
f 992/3/5 986/3/5 985/3/5
f 992/1/5 985/1/5 991/1/5
f 992/3/5 987/3/5 986/3/5
f 992/3/5 989/3/5 988/3/5
f 992/3/5 988/3/5 987/3/5
f 993/3/5 989/3/5 992/3/5
f 994/3/5 989/3/5 993/3/5
f 995/1/5 990/1/5 989/1/5
f 995/3/5 989/3/5 994/3/5
f 996/1/5 990/1/5 995/1/5
f 998/3/5 992/3/5 991/3/5
f 999/3/5 992/3/5 998/3/5
f 1000/3/5 996/3/5 995/3/5
f 1001/3/5 996/3/5 1000/3/5
f 1003/1/5 998/1/5 997/1/5
f 1004/3/5 999/3/5 998/3/5
f 1004/1/5 998/1/5 1003/1/5
f 1005/3/5 999/3/5 1004/3/5
f 1006/1/5 1001/1/5 1000/1/5
f 1007/3/5 1002/3/5 1001/3/5
f 1007/1/5 1001/1/5 1006/1/5
f 1008/3/5 1004/3/5 1003/3/5
f 1009/1/5 1005/1/5 1004/1/5
f 1009/3/5 1004/3/5 1008/3/5
f 1010/1/5 1005/1/5 1009/1/5
f 1011/3/5 1007/3/5 1006/3/5
f 1012/3/5 1002/3/5 1007/3/5
f 1012/3/5 1007/3/5 1011/3/5
f 1013/3/5 1002/3/5 1012/3/5
f 1014/3/5 1010/3/5 1009/3/5
f 1015/3/5 1010/3/5 1014/3/5
f 1017/3/5 1012/3/5 1011/3/5
f 1018/1/5 1015/1/5 1014/1/5
f 1019/3/5 1016/3/5 1015/3/5
f 1019/1/5 1015/1/5 1018/1/5
f 1019/3/5 1017/3/5 1016/3/5
f 1020/3/5 1017/3/5 1019/3/5
f 1021/3/5 1017/3/5 1020/3/5
f 1022/3/5 1017/3/5 1021/3/5
f 1023/3/5 1012/3/5 1017/3/5
f 1023/3/5 1017/3/5 1022/3/5
f 1024/1/5 1021/1/5 1020/1/5
f 1025/3/5 1022/3/5 1021/3/5
f 1025/1/5 1021/1/5 1024/1/5
f 1026/3/5 1022/3/5 1025/3/5
f 1033/1/5 1028/1/5 1027/1/5
f 1034/3/5 1029/3/5 1028/3/5
f 1034/1/5 1028/1/5 1033/1/5
f 1035/3/5 1029/3/5 1034/3/5
f 1036/3/5 1031/3/5 1030/3/5
f 1037/3/5 1031/3/5 1036/3/5
f 1038/3/5 1031/3/5 1037/3/5
f 1040/3/5 1033/3/5 1032/3/5
f 1041/3/5 1039/3/5 1038/3/5
f 1042/3/5 1039/3/5 1041/3/5
f 1043/3/5 1040/3/5 1032/3/5
f 1044/3/5 1040/3/5 1043/3/5
f 1045/1/5 1042/1/5 1041/1/5
f 1046/1/5 1042/1/5 1045/1/5
f 1051/3/5 1048/3/5 1047/3/5
f 1052/3/5 1050/3/5 1049/3/5
f 1053/3/5 1050/3/5 1052/3/5
f 1054/3/5 1051/3/5 1047/3/5
f 1055/3/5 1051/3/5 1054/3/5
f 1060/1/5 1053/1/5 1052/1/5
f 1061/1/5 1053/1/5 1060/1/5
f 1062/3/5 1056/3/5 1055/3/5
f 1062/3/5 1057/3/5 1056/3/5
f 1063/3/5 1057/3/5 1062/3/5
f 1064/3/5 1059/3/5 1058/3/5
f 1065/1/5 1060/1/5 1059/1/5
f 1065/3/5 1059/3/5 1064/3/5
f 1066/1/5 1060/1/5 1065/1/5
f 1071/3/5 1068/3/5 1067/3/5
f 1072/1/5 1069/1/5 1068/1/5
f 1072/3/5 1068/3/5 1071/3/5
f 1073/3/5 1070/3/5 1069/3/5
f 1073/1/5 1069/1/5 1072/1/5
f 1074/3/5 1070/3/5 1073/3/5
f 1079/3/5 1076/3/5 1075/3/5
f 1080/3/5 1076/3/5 1079/3/5
f 1081/3/5 1078/3/5 1077/3/5
f 1082/1/5 1080/1/5 1079/1/5
f 1083/1/5 1080/1/5 1082/1/5
f 1084/3/5 1078/3/5 1081/3/5
f 1085/3/5 1078/3/5 1084/3/5
f 1086/3/5 1083/3/5 1082/3/5
f 1087/3/5 1083/3/5 1086/3/5
f 1088/1/5 1085/1/5 1084/1/5
f 1089/1/5 1085/1/5 1088/1/5
f 1095/1/5 1091/1/5 1090/1/5
f 1096/3/5 1092/3/5 1091/3/5
f 1096/1/5 1091/1/5 1095/1/5
f 1096/3/5 1093/3/5 1092/3/5
f 1097/1/5 1094/1/5 1093/1/5
f 1097/3/5 1093/3/5 1096/3/5
f 1098/1/5 1094/1/5 1097/1/5
f 1103/3/5 1100/3/5 1099/3/5
f 1104/3/5 1100/3/5 1103/3/5
f 1105/3/5 1102/3/5 1101/3/5
f 1106/3/5 1102/3/5 1105/3/5
f 1111/3/5 1108/3/5 1107/3/5
f 1112/3/5 1108/3/5 1111/3/5
f 1113/1/5 1110/1/5 1109/1/5
f 1114/1/5 1110/1/5 1113/1/5
f 1115/4/6 1116/4/6 1117/4/6
f 1117/4/6 1116/4/6 1118/4/6
f 1119/4/6 1120/4/6 1121/4/6
f 1121/4/6 1120/4/6 1122/4/6
f 1123/4/6 1124/4/6 1125/4/6
f 1125/4/6 1124/4/6 1126/4/6
f 1127/4/6 1128/4/6 1129/4/6
f 1129/4/6 1128/4/6 1130/4/6
f 1131/4/6 1132/4/6 1133/4/6
f 1133/4/6 1132/4/6 1134/4/6
f 1135/4/6 1136/4/6 1137/4/6
f 1137/4/6 1136/4/6 1138/4/6
f 1139/4/6 1140/4/6 1141/4/6
f 1141/4/6 1140/4/6 1142/4/6
f 1143/4/6 1144/4/6 1145/4/6
f 1145/4/6 1144/4/6 1146/4/6
f 1147/4/6 1148/4/6 1149/4/6
f 1149/4/6 1148/4/6 1150/4/6
f 1151/4/6 1152/4/6 1153/4/6
f 1153/4/6 1152/4/6 1154/4/6
f 1155/3/6 1156/3/6 1157/3/6
f 1157/3/6 1156/3/6 1158/3/6
f 1159/1/6 1160/1/6 1163/1/6
f 1163/1/6 1160/1/6 1164/1/6
f 1161/2/6 1162/2/6 1165/2/6
f 1165/2/6 1162/2/6 1166/2/6
f 1167/3/6 1168/3/6 1171/3/6
f 1171/3/6 1168/3/6 1172/3/6
f 1169/3/6 1170/3/6 1173/3/6
f 1173/3/6 1170/3/6 1174/3/6
f 1175/3/6 1176/3/6 1177/3/6
f 1177/3/6 1176/3/6 1178/3/6
f 1178/3/6 1176/3/6 1179/3/6
f 1179/3/6 1176/3/6 1180/3/6
f 1183/3/6 1184/3/6 1185/3/6
f 1185/3/6 1184/3/6 1186/3/6
f 1181/3/6 1182/3/6 1187/3/6
f 1187/3/6 1182/3/6 1188/3/6
f 1185/1/6 1186/1/6 1189/1/6
f 1189/1/6 1186/1/6 1190/1/6
f 1187/1/6 1188/1/6 1191/1/6
f 1191/1/6 1188/1/6 1192/1/6
f 1189/3/6 1190/3/6 1193/3/6
f 1191/3/6 1192/3/6 1194/3/6
f 1194/3/6 1192/3/6 1195/3/6
f 1193/3/6 1190/3/6 1196/3/6
f 1196/3/6 1190/3/6 1197/3/6
f 1198/3/6 1199/3/6 1201/3/6
f 1199/3/6 1200/3/6 1201/3/6
f 1201/3/6 1200/3/6 1202/3/6
f 1203/3/6 1204/3/6 1209/3/6
f 1204/1/6 1205/1/6 1210/1/6
f 1209/3/6 1204/3/6 1210/3/6
f 1210/1/6 1205/1/6 1211/1/6
f 1206/2/6 1207/2/6 1212/2/6
f 1212/2/6 1207/2/6 1213/2/6
f 1208/1/6 1209/1/6 1215/1/6
f 1215/1/6 1209/1/6 1216/1/6
f 1215/3/6 1216/3/6 1217/3/6
f 1217/3/6 1216/3/6 1218/3/6
f 1213/2/6 1214/2/6 1219/2/6
f 1219/2/6 1214/2/6 1220/2/6
f 1223/1/6 1224/1/6 1225/1/6
f 1225/1/6 1224/1/6 1226/1/6
f 1221/3/6 1222/3/6 1227/3/6
f 1227/3/6 1222/3/6 1228/3/6
f 1225/3/6 1226/3/6 1233/3/6
f 1233/3/6 1226/3/6 1234/3/6
f 1228/3/6 1229/3/6 1235/3/6
f 1229/3/6 1230/3/6 1235/3/6
f 1235/3/6 1230/3/6 1236/3/6
f 1231/1/6 1232/1/6 1237/1/6
f 1232/3/6 1233/3/6 1238/3/6
f 1237/1/6 1232/1/6 1238/1/6
f 1238/3/6 1233/3/6 1239/3/6
f 1240/3/6 1241/3/6 1244/3/6
f 1241/1/6 1242/1/6 1245/1/6
f 1244/3/6 1241/3/6 1245/3/6
f 1245/1/6 1242/1/6 1246/1/6
f 1243/3/6 1244/3/6 1248/3/6
f 1244/1/6 1245/1/6 1249/1/6
f 1248/3/6 1244/3/6 1249/3/6
f 1245/3/6 1246/3/6 1250/3/6
f 1249/1/6 1245/1/6 1250/1/6
f 1246/2/6 1247/2/6 1251/2/6
f 1250/3/6 1246/3/6 1251/3/6
f 1251/2/6 1247/2/6 1252/2/6
f 1243/3/6 1248/3/6 1254/3/6
f 1254/3/6 1248/3/6 1255/3/6
f 1252/2/6 1247/2/6 1256/2/6
f 1256/2/6 1247/2/6 1257/2/6
f 1254/3/6 1255/3/6 1259/3/6
f 1253/3/6 1254/3/6 1259/3/6
f 1259/3/6 1255/3/6 1260/3/6
f 1256/3/6 1257/3/6 1261/3/6
f 1257/1/6 1258/1/6 1262/1/6
f 1261/3/6 1257/3/6 1262/3/6
f 1262/1/6 1258/1/6 1263/1/6
f 1259/1/6 1260/1/6 1264/1/6
f 1260/3/6 1255/3/6 1265/3/6
f 1264/1/6 1260/1/6 1265/1/6
f 1265/3/6 1255/3/6 1266/3/6
f 1261/1/6 1262/1/6 1267/1/6
f 1262/3/6 1263/3/6 1268/3/6
f 1267/1/6 1262/1/6 1268/1/6
f 1268/3/6 1263/3/6 1269/3/6
f 1265/3/6 1266/3/6 1270/3/6
f 1267/3/6 1268/3/6 1274/3/6
f 1274/3/6 1268/3/6 1275/3/6
f 1265/3/6 1270/3/6 1276/3/6
f 1270/1/6 1271/1/6 1277/1/6
f 1276/3/6 1270/3/6 1277/3/6
f 1271/3/6 1272/3/6 1278/3/6
f 1277/1/6 1271/1/6 1278/1/6
f 1272/1/6 1273/1/6 1279/1/6
f 1278/3/6 1272/3/6 1279/3/6
f 1273/3/6 1274/3/6 1280/3/6
f 1279/1/6 1273/1/6 1280/1/6
f 1274/1/6 1275/1/6 1281/1/6
f 1280/3/6 1274/3/6 1281/3/6
f 1281/1/6 1275/1/6 1282/1/6
f 1278/1/6 1279/1/6 1283/1/6
f 1279/3/6 1280/3/6 1284/3/6
f 1283/1/6 1279/1/6 1284/1/6
f 1284/3/6 1280/3/6 1285/3/6
f 1286/1/6 1287/1/6 1290/1/6
f 1287/3/6 1288/3/6 1291/3/6
f 1290/1/6 1287/1/6 1291/1/6
f 1291/3/6 1288/3/6 1292/3/6
f 1288/1/6 1289/1/6 1293/1/6
f 1292/3/6 1288/3/6 1293/3/6
f 1293/1/6 1289/1/6 1294/1/6
f 1291/1/6 1292/1/6 1295/1/6
f 1290/3/6 1291/3/6 1295/3/6
f 1293/3/6 1294/3/6 1296/3/6
f 1295/1/6 1292/1/6 1296/1/6
f 1292/3/6 1293/3/6 1296/3/6
f 1296/3/6 1294/3/6 1297/3/6
f 1290/3/6 1295/3/6 1298/3/6
f 1295/3/6 1296/3/6 1298/3/6
f 1298/3/6 1296/3/6 1299/3/6
f 1296/1/6 1297/1/6 1300/1/6
f 1299/3/6 1296/3/6 1300/3/6
f 1297/3/6 1294/3/6 1301/3/6
f 1300/1/6 1297/1/6 1301/1/6
f 1298/1/6 1299/1/6 1302/1/6
f 1299/3/6 1300/3/6 1303/3/6
f 1302/1/6 1299/1/6 1303/1/6
f 1300/3/6 1301/3/6 1303/3/6
f 1301/3/6 1294/3/6 1304/3/6
f 1303/3/6 1301/3/6 1304/3/6
