# MagicaVoxel @ Ephtracy

# group
o 

# material
mtllib arbusto azul-1.mtl
usemtl palette

# normals
vn -1 0 0
vn 1 0 0
vn 0 0 1
vn 0 0 -1
vn 0 -1 0
vn 0 1 0

# texcoords
vt 0.0800781 0.5
vt 0.291016 0.5

# verts
v 0.8 5.1 8.4
v 0.8 5.1 8.1
v 0.8 5.2 8.3
v 0.8 5.2 8.2
v 0.8 5.3 8.4
v 0.8 5.3 8.3
v 0.8 5.3 8.2
v 0.8 5.3 8.1
v 0.9 5.1 8.5
v 0.9 5.1 8.4
v 0.9 5.1 8.1
v 0.9 5.1 8
v 0.9 5.3 8.4
v 0.9 5.3 8.3
v 0.9 5.3 8.2
v 0.9 5.3 8.1
v 0.9 5.4 8.5
v 0.9 5.4 8
v 1 5.1 8.6
v 1 5.1 8.5
v 1 5.1 8
v 1 5.1 7.9
v 1 5.3 8.6
v 1 5.3 8.5
v 1 5.3 8
v 1 5.3 7.9
v 1 5.4 8.4
v 1 5.4 8.1
v 1 5.5 8.4
v 1 5.5 8.1
v 1.3 5.1 8.6
v 1.3 5.1 8.5
v 1.3 5.1 8
v 1.3 5.1 7.9
v 1.3 5.2 8
v 1.3 5.2 7.9
v 1.3 5.3 8.6
v 1.3 5.3 8.5
v 1.3 5.3 8
v 1.3 5.3 7.9
v 1.3 5.4 8.4
v 1.3 5.4 8.1
v 1.3 5.5 8.4
v 1.3 5.5 8.1
v 1.4 5.1 8.5
v 1.4 5.1 8.4
v 1.4 5.1 8.1
v 1.4 5.1 8
v 1.4 5.3 8.5
v 1.4 5.3 8.4
v 1.4 5.3 8.1
v 1.4 5.4 8.5
v 1.4 5.4 8.4
v 1.4 5.4 8
v 1.5 5.1 8.4
v 1.5 5.1 8.1
v 1.5 5.3 8.4
v 1.5 5.3 8.1
v 1 5.1 8.6
v 1 5.3 8.6
v 1.1 5.1 8.6
v 1.1 5.2 8.6
v 1.2 5.1 8.6
v 1.2 5.2 8.6
v 1.3 5.1 8.6
v 1.3 5.3 8.6
v 0.9 5.1 8.5
v 0.9 5.4 8.5
v 1 5.1 8.5
v 1 5.3 8.5
v 1.3 5.1 8.5
v 1.3 5.3 8.5
v 1.3 5.4 8.5
v 1.4 5.1 8.5
v 1.4 5.3 8.5
v 1.4 5.4 8.5
v 0.8 5.1 8.4
v 0.8 5.3 8.4
v 0.9 5.1 8.4
v 0.9 5.3 8.4
v 1 5.4 8.4
v 1 5.5 8.4
v 1.3 5.4 8.4
v 1.3 5.5 8.4
v 1.4 5.1 8.4
v 1.4 5.3 8.4
v 1.5 5.1 8.4
v 1.5 5.3 8.4
v 0.8 5.1 8.1
v 0.8 5.3 8.1
v 0.9 5.1 8.1
v 0.9 5.3 8.1
v 1 5.4 8.1
v 1 5.5 8.1
v 1.3 5.4 8.1
v 1.3 5.5 8.1
v 1.4 5.1 8.1
v 1.4 5.3 8.1
v 1.5 5.1 8.1
v 1.5 5.3 8.1
v 0.9 5.1 8
v 0.9 5.4 8
v 1 5.1 8
v 1 5.3 8
v 1.2 5.3 8
v 1.3 5.1 8
v 1.3 5.2 8
v 1.3 5.3 8
v 1.4 5.1 8
v 1.4 5.4 8
v 1 5.1 7.9
v 1 5.3 7.9
v 1.2 5.2 7.9
v 1.2 5.3 7.9
v 1.3 5.1 7.9
v 1.3 5.2 7.9
v 1.3 5.3 7.9
v 1 5.1 8.6
v 1.1 5.1 8.6
v 1.2 5.1 8.6
v 1.3 5.1 8.6
v 0.9 5.1 8.5
v 1 5.1 8.5
v 1.1 5.1 8.5
v 1.2 5.1 8.5
v 1.3 5.1 8.5
v 1.4 5.1 8.5
v 0.8 5.1 8.4
v 0.9 5.1 8.4
v 1.4 5.1 8.4
v 1.5 5.1 8.4
v 0.8 5.1 8.1
v 0.9 5.1 8.1
v 1.4 5.1 8.1
v 1.5 5.1 8.1
v 0.9 5.1 8
v 1 5.1 8
v 1.3 5.1 8
v 1.4 5.1 8
v 1 5.1 7.9
v 1.3 5.1 7.9
v 1 5.3 8.6
v 1.3 5.3 8.6
v 1 5.3 8.5
v 1.3 5.3 8.5
v 0.8 5.3 8.4
v 0.9 5.3 8.4
v 1.4 5.3 8.4
v 1.5 5.3 8.4
v 0.8 5.3 8.3
v 0.9 5.3 8.3
v 0.8 5.3 8.2
v 0.9 5.3 8.2
v 0.8 5.3 8.1
v 0.9 5.3 8.1
v 1.4 5.3 8.1
v 1.5 5.3 8.1
v 1 5.3 8
v 1.2 5.3 8
v 1.3 5.3 8
v 1 5.3 7.9
v 1.2 5.3 7.9
v 1.3 5.3 7.9
v 0.9 5.4 8.5
v 1.3 5.4 8.5
v 1.4 5.4 8.5
v 1 5.4 8.4
v 1.3 5.4 8.4
v 1.4 5.4 8.4
v 1 5.4 8.1
v 1.3 5.4 8.1
v 0.9 5.4 8
v 1.4 5.4 8
v 1 5.5 8.4
v 1.3 5.5 8.4
v 1 5.5 8.1
v 1.3 5.5 8.1

# faces
f 3/2/1 2/2/1 1/2/1
f 4/2/1 2/2/1 3/2/1
f 5/2/1 3/2/1 1/2/1
f 6/1/1 4/1/1 3/1/1
f 6/2/1 3/2/1 5/2/1
f 7/2/1 2/2/1 4/2/1
f 7/1/1 4/1/1 6/1/1
f 8/2/1 2/2/1 7/2/1
f 13/2/1 10/2/1 9/2/1
f 16/2/1 12/2/1 11/2/1
f 17/2/1 15/2/1 14/2/1
f 17/2/1 16/2/1 15/2/1
f 17/2/1 13/2/1 9/2/1
f 17/2/1 14/2/1 13/2/1
f 18/2/1 12/2/1 16/2/1
f 18/2/1 16/2/1 17/2/1
f 23/2/1 20/2/1 19/2/1
f 24/2/1 20/2/1 23/2/1
f 25/2/1 22/2/1 21/2/1
f 26/2/1 22/2/1 25/2/1
f 29/2/1 28/2/1 27/2/1
f 30/2/1 28/2/1 29/2/1
f 33/2/2 34/2/2 35/2/2
f 35/2/2 34/2/2 36/2/2
f 31/2/2 32/2/2 37/2/2
f 37/2/2 32/2/2 38/2/2
f 35/1/2 36/1/2 39/1/2
f 39/1/2 36/1/2 40/1/2
f 41/2/2 42/2/2 43/2/2
f 43/2/2 42/2/2 44/2/2
f 45/2/2 46/2/2 49/2/2
f 49/2/2 46/2/2 50/2/2
f 47/2/2 48/2/2 51/2/2
f 49/1/2 50/1/2 52/1/2
f 50/2/2 51/2/2 53/2/2
f 52/1/2 50/1/2 53/1/2
f 51/2/2 48/2/2 54/2/2
f 53/2/2 51/2/2 54/2/2
f 55/2/2 56/2/2 57/2/2
f 57/2/2 56/2/2 58/2/2
f 61/2/3 60/2/3 59/2/3
f 62/2/3 60/2/3 61/2/3
f 63/1/3 62/1/3 61/1/3
f 64/2/3 60/2/3 62/2/3
f 64/1/3 62/1/3 63/1/3
f 65/2/3 64/2/3 63/2/3
f 66/2/3 60/2/3 64/2/3
f 66/2/3 64/2/3 65/2/3
f 69/2/3 68/2/3 67/2/3
f 70/2/3 68/2/3 69/2/3
f 72/2/3 68/2/3 70/2/3
f 73/2/3 68/2/3 72/2/3
f 74/2/3 72/2/3 71/2/3
f 75/1/3 73/1/3 72/1/3
f 75/2/3 72/2/3 74/2/3
f 76/1/3 73/1/3 75/1/3
f 79/2/3 78/2/3 77/2/3
f 80/2/3 78/2/3 79/2/3
f 83/2/3 82/2/3 81/2/3
f 84/2/3 82/2/3 83/2/3
f 87/2/3 86/2/3 85/2/3
f 88/2/3 86/2/3 87/2/3
f 89/2/4 90/2/4 91/2/4
f 91/2/4 90/2/4 92/2/4
f 93/2/4 94/2/4 95/2/4
f 95/2/4 94/2/4 96/2/4
f 97/2/4 98/2/4 99/2/4
f 99/2/4 98/2/4 100/2/4
f 101/2/4 102/2/4 103/2/4
f 103/2/4 102/2/4 104/2/4
f 104/2/4 102/2/4 105/2/4
f 105/2/4 102/2/4 108/2/4
f 106/2/4 107/2/4 109/2/4
f 107/2/4 108/2/4 109/2/4
f 108/2/4 102/2/4 110/2/4
f 109/2/4 108/2/4 110/2/4
f 111/2/4 112/2/4 113/2/4
f 113/2/4 112/2/4 114/2/4
f 111/2/4 113/2/4 115/2/4
f 113/1/4 114/1/4 116/1/4
f 115/2/4 113/2/4 116/2/4
f 116/1/4 114/1/4 117/1/4
f 123/2/5 119/2/5 118/2/5
f 124/1/5 120/1/5 119/1/5
f 124/2/5 119/2/5 123/2/5
f 125/2/5 121/2/5 120/2/5
f 125/1/5 120/1/5 124/1/5
f 126/2/5 121/2/5 125/2/5
f 129/2/5 124/2/5 123/2/5
f 129/2/5 127/2/5 126/2/5
f 129/2/5 126/2/5 125/2/5
f 129/2/5 125/2/5 124/2/5
f 129/2/5 123/2/5 122/2/5
f 130/2/5 127/2/5 129/2/5
f 132/2/5 129/2/5 128/2/5
f 132/2/5 131/2/5 130/2/5
f 132/2/5 130/2/5 129/2/5
f 133/2/5 131/2/5 132/2/5
f 134/2/5 131/2/5 133/2/5
f 135/2/5 131/2/5 134/2/5
f 136/2/5 134/2/5 133/2/5
f 137/2/5 134/2/5 136/2/5
f 138/2/5 134/2/5 137/2/5
f 139/2/5 134/2/5 138/2/5
f 140/2/5 138/2/5 137/2/5
f 141/2/5 138/2/5 140/2/5
f 142/2/6 143/2/6 144/2/6
f 144/2/6 143/2/6 145/2/6
f 146/2/6 147/2/6 150/2/6
f 150/2/6 147/2/6 151/2/6
f 150/1/6 151/1/6 152/1/6
f 152/1/6 151/1/6 153/1/6
f 152/2/6 153/2/6 154/2/6
f 154/2/6 153/2/6 155/2/6
f 148/2/6 149/2/6 156/2/6
f 156/2/6 149/2/6 157/2/6
f 158/2/6 159/2/6 161/2/6
f 159/1/6 160/1/6 162/1/6
f 161/2/6 159/2/6 162/2/6
f 162/1/6 160/1/6 163/1/6
f 164/2/6 165/2/6 167/2/6
f 165/1/6 166/1/6 168/1/6
f 167/2/6 165/2/6 168/2/6
f 168/1/6 166/1/6 169/1/6
f 164/2/6 167/2/6 170/2/6
f 168/2/6 169/2/6 171/2/6
f 164/2/6 170/2/6 172/2/6
f 170/2/6 171/2/6 172/2/6
f 171/2/6 169/2/6 173/2/6
f 172/2/6 171/2/6 173/2/6
f 174/2/6 175/2/6 176/2/6
f 176/2/6 175/2/6 177/2/6
