# MagicaVoxel @ Ephtracy

# group
o 

# material
mtllib arbusto rojo-1.mtl
usemtl palette

# normals
vn -1 0 0
vn 1 0 0
vn 0 0 1
vn 0 0 -1
vn 0 -1 0
vn 0 1 0

# texcoords
vt 0.291016 0.5
vt 0.451172 0.5

# verts
v -3.9 5.4 8.5
v -3.9 5.4 8.2
v -3.9 5.5 8.5
v -3.9 5.5 8.4
v -3.9 5.6 8.5
v -3.9 5.6 8.4
v -3.9 5.6 8.2
v -3.8 5.4 8.6
v -3.8 5.4 8.5
v -3.8 5.4 8.2
v -3.8 5.4 8.1
v -3.8 5.5 8.5
v -3.8 5.6 8.5
v -3.8 5.6 8.4
v -3.8 5.6 8.2
v -3.8 5.6 8.1
v -3.8 5.7 8.6
v -3.8 5.7 8.2
v -3.8 5.7 8.1
v -3.7 5.4 8.7
v -3.7 5.4 8.6
v -3.7 5.4 8.1
v -3.7 5.4 8
v -3.7 5.6 8.7
v -3.7 5.6 8.6
v -3.7 5.6 8.1
v -3.7 5.6 8
v -3.7 5.7 8.5
v -3.7 5.7 8.2
v -3.7 5.8 8.5
v -3.7 5.8 8.2
v -3.4 5.4 8.7
v -3.4 5.4 8.6
v -3.4 5.4 8.1
v -3.4 5.4 8
v -3.4 5.5 8.1
v -3.4 5.6 8.7
v -3.4 5.6 8.6
v -3.4 5.6 8.1
v -3.4 5.6 8
v -3.4 5.7 8.5
v -3.4 5.7 8.2
v -3.4 5.8 8.5
v -3.4 5.8 8.2
v -3.3 5.4 8.6
v -3.3 5.4 8.5
v -3.3 5.4 8.2
v -3.3 5.4 8.1
v -3.3 5.5 8.2
v -3.3 5.5 8.1
v -3.3 5.6 8.5
v -3.3 5.6 8.2
v -3.3 5.6 8.1
v -3.3 5.7 8.6
v -3.3 5.7 8.1
v -3.2 5.4 8.5
v -3.2 5.4 8.2
v -3.2 5.6 8.5
v -3.2 5.6 8.2
v -3.7 5.4 8.7
v -3.7 5.6 8.7
v -3.4 5.4 8.7
v -3.4 5.6 8.7
v -3.8 5.4 8.6
v -3.8 5.7 8.6
v -3.7 5.4 8.6
v -3.7 5.6 8.6
v -3.5 5.6 8.6
v -3.5 5.7 8.6
v -3.4 5.4 8.6
v -3.4 5.6 8.6
v -3.4 5.7 8.6
v -3.3 5.4 8.6
v -3.3 5.7 8.6
v -3.9 5.4 8.5
v -3.9 5.5 8.5
v -3.9 5.6 8.5
v -3.8 5.4 8.5
v -3.8 5.5 8.5
v -3.8 5.6 8.5
v -3.7 5.7 8.5
v -3.7 5.8 8.5
v -3.5 5.7 8.5
v -3.4 5.7 8.5
v -3.4 5.8 8.5
v -3.3 5.4 8.5
v -3.3 5.6 8.5
v -3.2 5.4 8.5
v -3.2 5.6 8.5
v -3.9 5.4 8.2
v -3.9 5.6 8.2
v -3.8 5.4 8.2
v -3.8 5.6 8.2
v -3.7 5.7 8.2
v -3.7 5.8 8.2
v -3.4 5.7 8.2
v -3.4 5.8 8.2
v -3.3 5.4 8.2
v -3.3 5.5 8.2
v -3.3 5.6 8.2
v -3.2 5.4 8.2
v -3.2 5.6 8.2
v -3.8 5.4 8.1
v -3.8 5.6 8.1
v -3.8 5.7 8.1
v -3.7 5.4 8.1
v -3.7 5.6 8.1
v -3.7 5.7 8.1
v -3.4 5.4 8.1
v -3.4 5.5 8.1
v -3.4 5.6 8.1
v -3.3 5.4 8.1
v -3.3 5.5 8.1
v -3.3 5.6 8.1
v -3.3 5.7 8.1
v -3.7 5.4 8
v -3.7 5.6 8
v -3.4 5.4 8
v -3.4 5.6 8
v -3.7 5.4 8.7
v -3.4 5.4 8.7
v -3.8 5.4 8.6
v -3.7 5.4 8.6
v -3.4 5.4 8.6
v -3.3 5.4 8.6
v -3.9 5.4 8.5
v -3.8 5.4 8.5
v -3.3 5.4 8.5
v -3.2 5.4 8.5
v -3.9 5.4 8.2
v -3.8 5.4 8.2
v -3.3 5.4 8.2
v -3.2 5.4 8.2
v -3.8 5.4 8.1
v -3.7 5.4 8.1
v -3.4 5.4 8.1
v -3.3 5.4 8.1
v -3.7 5.4 8
v -3.4 5.4 8
v -3.7 5.6 8.7
v -3.4 5.6 8.7
v -3.7 5.6 8.6
v -3.5 5.6 8.6
v -3.4 5.6 8.6
v -3.9 5.6 8.5
v -3.8 5.6 8.5
v -3.3 5.6 8.5
v -3.2 5.6 8.5
v -3.9 5.6 8.4
v -3.8 5.6 8.4
v -3.9 5.6 8.2
v -3.8 5.6 8.2
v -3.3 5.6 8.2
v -3.2 5.6 8.2
v -3.7 5.6 8.1
v -3.4 5.6 8.1
v -3.7 5.6 8
v -3.4 5.6 8
v -3.8 5.7 8.6
v -3.5 5.7 8.6
v -3.4 5.7 8.6
v -3.3 5.7 8.6
v -3.7 5.7 8.5
v -3.5 5.7 8.5
v -3.4 5.7 8.5
v -3.8 5.7 8.2
v -3.7 5.7 8.2
v -3.4 5.7 8.2
v -3.8 5.7 8.1
v -3.7 5.7 8.1
v -3.3 5.7 8.1
v -3.7 5.8 8.5
v -3.4 5.8 8.5
v -3.7 5.8 8.2
v -3.4 5.8 8.2

# faces
f 3/1/1 2/1/1 1/1/1
f 4/1/1 2/1/1 3/1/1
f 5/2/1 4/2/1 3/2/1
f 6/1/1 2/1/1 4/1/1
f 6/2/1 4/2/1 5/2/1
f 7/1/1 2/1/1 6/1/1
f 12/1/1 9/1/1 8/1/1
f 13/1/1 12/1/1 8/1/1
f 15/1/1 11/1/1 10/1/1
f 16/1/1 11/1/1 15/1/1
f 17/1/1 14/1/1 13/1/1
f 17/1/1 13/1/1 8/1/1
f 17/1/1 15/1/1 14/1/1
f 18/2/1 16/2/1 15/2/1
f 18/1/1 15/1/1 17/1/1
f 19/2/1 16/2/1 18/2/1
f 24/1/1 21/1/1 20/1/1
f 25/1/1 21/1/1 24/1/1
f 26/1/1 23/1/1 22/1/1
f 27/1/1 23/1/1 26/1/1
f 30/1/1 29/1/1 28/1/1
f 31/1/1 29/1/1 30/1/1
f 34/1/2 35/1/2 36/1/2
f 32/1/2 33/1/2 37/1/2
f 37/1/2 33/1/2 38/1/2
f 36/1/2 35/1/2 39/1/2
f 39/1/2 35/1/2 40/1/2
f 41/1/2 42/1/2 43/1/2
f 43/1/2 42/1/2 44/1/2
f 47/1/2 48/1/2 49/1/2
f 49/1/2 48/1/2 50/1/2
f 45/1/2 46/1/2 51/1/2
f 49/2/2 50/2/2 52/2/2
f 52/2/2 50/2/2 53/2/2
f 45/1/2 51/1/2 54/1/2
f 51/1/2 52/1/2 54/1/2
f 52/1/2 53/1/2 54/1/2
f 54/1/2 53/1/2 55/1/2
f 56/1/2 57/1/2 58/1/2
f 58/1/2 57/1/2 59/1/2
f 62/1/3 61/1/3 60/1/3
f 63/1/3 61/1/3 62/1/3
f 66/1/3 65/1/3 64/1/3
f 67/1/3 65/1/3 66/1/3
f 68/1/3 65/1/3 67/1/3
f 69/1/3 65/1/3 68/1/3
f 71/2/3 69/2/3 68/2/3
f 72/2/3 69/2/3 71/2/3
f 73/1/3 71/1/3 70/1/3
f 73/1/3 72/1/3 71/1/3
f 74/1/3 72/1/3 73/1/3
f 78/1/3 76/1/3 75/1/3
f 79/2/3 77/2/3 76/2/3
f 79/1/3 76/1/3 78/1/3
f 80/2/3 77/2/3 79/2/3
f 83/1/3 82/1/3 81/1/3
f 84/1/3 82/1/3 83/1/3
f 85/1/3 82/1/3 84/1/3
f 88/1/3 87/1/3 86/1/3
f 89/1/3 87/1/3 88/1/3
f 90/1/4 91/1/4 92/1/4
f 92/1/4 91/1/4 93/1/4
f 94/1/4 95/1/4 96/1/4
f 96/1/4 95/1/4 97/1/4
f 98/1/4 99/1/4 101/1/4
f 99/1/4 100/1/4 101/1/4
f 101/1/4 100/1/4 102/1/4
f 103/1/4 104/1/4 106/1/4
f 104/2/4 105/2/4 107/2/4
f 106/1/4 104/1/4 107/1/4
f 107/2/4 105/2/4 108/2/4
f 107/1/4 108/1/4 111/1/4
f 109/1/4 110/1/4 112/1/4
f 110/2/4 111/2/4 113/2/4
f 112/1/4 110/1/4 113/1/4
f 111/1/4 108/1/4 114/1/4
f 113/2/4 111/2/4 114/2/4
f 114/1/4 108/1/4 115/1/4
f 116/1/4 117/1/4 118/1/4
f 118/1/4 117/1/4 119/1/4
f 123/1/5 121/1/5 120/1/5
f 124/1/5 121/1/5 123/1/5
f 127/1/5 123/1/5 122/1/5
f 127/1/5 125/1/5 124/1/5
f 127/1/5 124/1/5 123/1/5
f 128/1/5 125/1/5 127/1/5
f 130/1/5 127/1/5 126/1/5
f 130/1/5 129/1/5 128/1/5
f 130/1/5 128/1/5 127/1/5
f 131/1/5 129/1/5 130/1/5
f 132/1/5 129/1/5 131/1/5
f 133/1/5 129/1/5 132/1/5
f 134/1/5 132/1/5 131/1/5
f 135/1/5 132/1/5 134/1/5
f 136/1/5 132/1/5 135/1/5
f 137/1/5 132/1/5 136/1/5
f 138/1/5 136/1/5 135/1/5
f 139/1/5 136/1/5 138/1/5
f 140/1/6 141/1/6 142/1/6
f 142/1/6 141/1/6 143/1/6
f 143/1/6 141/1/6 144/1/6
f 145/2/6 146/2/6 149/2/6
f 149/2/6 146/2/6 150/2/6
f 149/1/6 150/1/6 151/1/6
f 151/1/6 150/1/6 152/1/6
f 147/1/6 148/1/6 153/1/6
f 153/1/6 148/1/6 154/1/6
f 155/1/6 156/1/6 157/1/6
f 157/1/6 156/1/6 158/1/6
f 159/1/6 160/1/6 163/1/6
f 160/2/6 161/2/6 164/2/6
f 163/1/6 160/1/6 164/1/6
f 161/1/6 162/1/6 165/1/6
f 164/2/6 161/2/6 165/2/6
f 159/1/6 163/1/6 166/1/6
f 166/1/6 163/1/6 167/1/6
f 165/1/6 162/1/6 168/1/6
f 166/2/6 167/2/6 169/2/6
f 167/1/6 168/1/6 170/1/6
f 169/2/6 167/2/6 170/2/6
f 168/1/6 162/1/6 171/1/6
f 170/1/6 168/1/6 171/1/6
f 172/1/6 173/1/6 174/1/6
f 174/1/6 173/1/6 175/1/6
