# MagicaVoxel @ Ephtracy

# group
o 

# material
mtllib balde pez 3-1.mtl
usemtl palette

# normals
vn -1 0 0
vn 1 0 0
vn 0 0 1
vn 0 0 -1
vn 0 -1 0
vn 0 1 0

# texcoords
vt 0.240234 0.5
vt 0.634766 0.5
vt 0.642578 0.5
vt 0.728516 0.5
vt 0.794922 0.5
vt 0.798828 0.5
vt 0.919922 0.5

# verts
v 7.5 5.1 9.1
v 7.5 5.1 8.7
v 7.5 5.3 9.1
v 7.5 5.3 8.7
v 7.5 5.4 9.1
v 7.5 5.4 8.7
v 7.5 5.6 9.1
v 7.5 5.6 8.7
v 7.6 5.1 9.2
v 7.6 5.1 9.1
v 7.6 5.1 8.7
v 7.6 5.1 8.6
v 7.6 5.3 9.2
v 7.6 5.3 9.1
v 7.6 5.3 8.7
v 7.6 5.3 8.6
v 7.6 5.4 9.2
v 7.6 5.4 9.1
v 7.6 5.4 8.7
v 7.6 5.4 8.6
v 7.6 5.6 9.2
v 7.6 5.6 9.1
v 7.6 5.6 9
v 7.6 5.6 8.7
v 7.6 5.6 8.6
v 7.6 5.8 9.1
v 7.6 5.8 9
v 7.7 5.3 9.1
v 7.7 5.3 8.7
v 7.7 5.4 9.1
v 7.7 5.4 8.8
v 7.7 5.4 8.7
v 7.7 5.5 9
v 7.7 5.5 8.8
v 7.7 5.5 8.7
v 7.7 5.6 9.1
v 7.7 5.6 9
v 7.8 5.5 8.9
v 7.8 5.5 8.8
v 7.8 5.5 8.7
v 7.8 5.6 8.9
v 7.8 5.6 8.7
v 7.8 5.8 8.6
v 7.8 5.8 8.5
v 7.8 5.9 8.6
v 7.8 5.9 8.5
v 7.9 5.6 8.8
v 7.9 5.6 8.7
v 7.9 5.7 9.1
v 7.9 5.7 9
v 7.9 5.7 8.8
v 7.9 5.7 8.7
v 7.9 5.7 8.6
v 7.9 5.8 9.1
v 7.9 5.8 9
v 7.9 5.8 8.7
v 7.9 5.8 8.6
v 8 5.3 9.1
v 8 5.3 8.7
v 8 5.4 9.1
v 8 5.4 9
v 8 5.4 8.7
v 8 5.5 9
v 8 5.5 8.9
v 8 5.6 9.1
v 8 5.6 9
v 8 5.6 8.9
v 8 5.7 8.8
v 8 5.7 8.7
v 8 5.8 8.8
v 8 5.8 8.7
v 8.1 5.8 8.9
v 8.1 5.8 8.8
v 8.1 5.9 8.9
v 8.1 5.9 8.8
v 7.6 5.3 9.1
v 7.6 5.3 8.7
v 7.6 5.4 9.1
v 7.6 5.4 8.7
v 7.6 5.6 9.1
v 7.6 5.6 9
v 7.6 5.6 8.7
v 7.7 5.7 9.1
v 7.7 5.7 9
v 7.7 5.8 9.1
v 7.7 5.8 9
v 7.9 5.3 9.1
v 7.9 5.3 8.7
v 7.9 5.4 9.1
v 7.9 5.4 9
v 7.9 5.4 8.7
v 7.9 5.5 9.1
v 7.9 5.5 9
v 7.9 5.6 9.1
v 7.9 5.6 9
v 7.9 5.8 8.6
v 7.9 5.8 8.5
v 7.9 5.9 8.6
v 7.9 5.9 8.5
v 8 5.1 9.2
v 8 5.1 9.1
v 8 5.1 8.7
v 8 5.1 8.6
v 8 5.3 9.2
v 8 5.3 9.1
v 8 5.3 8.7
v 8 5.3 8.6
v 8 5.4 9.2
v 8 5.4 9.1
v 8 5.4 8.7
v 8 5.4 8.6
v 8 5.6 9.2
v 8 5.6 9.1
v 8 5.6 9
v 8 5.6 8.8
v 8 5.6 8.7
v 8 5.6 8.6
v 8 5.7 8.8
v 8 5.7 8.7
v 8 5.7 8.6
v 8 5.8 9.1
v 8 5.8 9
v 8 5.8 8.7
v 8 5.8 8.6
v 8.1 5.1 9.1
v 8.1 5.1 8.7
v 8.1 5.3 9.1
v 8.1 5.3 8.7
v 8.1 5.4 9.1
v 8.1 5.4 8.7
v 8.1 5.6 9.1
v 8.1 5.6 8.7
v 8.1 5.7 8.8
v 8.1 5.7 8.7
v 8.1 5.8 8.8
v 8.1 5.8 8.7
v 8.2 5.8 8.9
v 8.2 5.8 8.8
v 8.2 5.9 8.9
v 8.2 5.9 8.8
v 7.6 5.1 9.2
v 7.6 5.3 9.2
v 7.6 5.4 9.2
v 7.6 5.6 9.2
v 8 5.1 9.2
v 8 5.3 9.2
v 8 5.4 9.2
v 8 5.6 9.2
v 7.5 5.1 9.1
v 7.5 5.3 9.1
v 7.5 5.4 9.1
v 7.5 5.6 9.1
v 7.6 5.1 9.1
v 7.6 5.3 9.1
v 7.6 5.4 9.1
v 7.6 5.6 9.1
v 7.6 5.8 9.1
v 7.7 5.7 9.1
v 7.7 5.8 9.1
v 7.9 5.7 9.1
v 7.9 5.8 9.1
v 8 5.1 9.1
v 8 5.3 9.1
v 8 5.4 9.1
v 8 5.6 9.1
v 8 5.8 9.1
v 8.1 5.1 9.1
v 8.1 5.3 9.1
v 8.1 5.4 9.1
v 8.1 5.6 9.1
v 7.9 5.4 9
v 7.9 5.5 9
v 8 5.4 9
v 8 5.5 9
v 7.8 5.5 8.9
v 7.8 5.6 8.9
v 7.9 5.5 8.9
v 8 5.5 8.9
v 8 5.6 8.9
v 8.1 5.8 8.9
v 8.1 5.9 8.9
v 8.2 5.8 8.9
v 8.2 5.9 8.9
v 7.9 5.6 8.8
v 7.9 5.7 8.8
v 8 5.6 8.8
v 8 5.7 8.8
v 8 5.8 8.8
v 8.1 5.7 8.8
v 8.1 5.8 8.8
v 7.6 5.3 8.7
v 7.6 5.4 8.7
v 7.6 5.6 8.7
v 7.7 5.3 8.7
v 7.7 5.4 8.7
v 7.7 5.5 8.7
v 7.8 5.5 8.7
v 7.8 5.6 8.7
v 7.9 5.3 8.7
v 7.9 5.4 8.7
v 7.9 5.7 8.7
v 7.9 5.8 8.7
v 8 5.3 8.7
v 8 5.4 8.7
v 8 5.7 8.7
v 8 5.8 8.7
v 7.8 5.8 8.6
v 7.8 5.9 8.6
v 7.9 5.8 8.6
v 7.9 5.9 8.6
v 7.6 5.3 9.1
v 7.6 5.4 9.1
v 7.6 5.6 9.1
v 7.7 5.3 9.1
v 7.7 5.4 9.1
v 7.7 5.6 9.1
v 7.9 5.3 9.1
v 7.9 5.4 9.1
v 7.9 5.5 9.1
v 7.9 5.6 9.1
v 8 5.3 9.1
v 8 5.4 9.1
v 8 5.6 9.1
v 7.6 5.6 9
v 7.6 5.8 9
v 7.7 5.5 9
v 7.7 5.6 9
v 7.7 5.7 9
v 7.7 5.8 9
v 7.9 5.5 9
v 7.9 5.6 9
v 7.9 5.7 9
v 7.9 5.8 9
v 8 5.6 9
v 8 5.8 9
v 8.1 5.8 8.8
v 8.1 5.9 8.8
v 8.2 5.8 8.8
v 8.2 5.9 8.8
v 7.5 5.1 8.7
v 7.5 5.3 8.7
v 7.5 5.4 8.7
v 7.5 5.6 8.7
v 7.6 5.1 8.7
v 7.6 5.3 8.7
v 7.6 5.4 8.7
v 7.6 5.6 8.7
v 7.9 5.6 8.7
v 7.9 5.7 8.7
v 8 5.1 8.7
v 8 5.3 8.7
v 8 5.4 8.7
v 8 5.6 8.7
v 8 5.7 8.7
v 8 5.8 8.7
v 8.1 5.1 8.7
v 8.1 5.3 8.7
v 8.1 5.4 8.7
v 8.1 5.6 8.7
v 8.1 5.7 8.7
v 8.1 5.8 8.7
v 7.6 5.1 8.6
v 7.6 5.3 8.6
v 7.6 5.4 8.6
v 7.6 5.6 8.6
v 7.9 5.7 8.6
v 7.9 5.8 8.6
v 8 5.1 8.6
v 8 5.3 8.6
v 8 5.4 8.6
v 8 5.6 8.6
v 8 5.7 8.6
v 8 5.8 8.6
v 7.8 5.8 8.5
v 7.8 5.9 8.5
v 7.9 5.8 8.5
v 7.9 5.9 8.5
v 7.6 5.1 9.2
v 8 5.1 9.2
v 7.5 5.1 9.1
v 7.6 5.1 9.1
v 8 5.1 9.1
v 8.1 5.1 9.1
v 7.5 5.1 8.7
v 7.6 5.1 8.7
v 8 5.1 8.7
v 8.1 5.1 8.7
v 7.6 5.1 8.6
v 8 5.1 8.6
v 7.9 5.4 9
v 8 5.4 9
v 7.9 5.4 8.7
v 8 5.4 8.7
v 7.6 5.6 9.1
v 7.7 5.6 9.1
v 7.9 5.6 9.1
v 8 5.6 9.1
v 7.6 5.6 9
v 7.7 5.6 9
v 7.9 5.6 9
v 8 5.6 9
v 8 5.7 8.8
v 8.1 5.7 8.8
v 7.9 5.7 8.7
v 8 5.7 8.7
v 8.1 5.7 8.7
v 7.9 5.7 8.6
v 8 5.7 8.6
v 8.1 5.8 8.9
v 8.2 5.8 8.9
v 8.1 5.8 8.8
v 8.2 5.8 8.8
v 7.8 5.8 8.6
v 7.9 5.8 8.6
v 7.8 5.8 8.5
v 7.9 5.8 8.5
v 7.6 5.3 9.1
v 7.7 5.3 9.1
v 7.9 5.3 9.1
v 8 5.3 9.1
v 7.6 5.3 8.7
v 7.7 5.3 8.7
v 7.9 5.3 8.7
v 8 5.3 8.7
v 7.7 5.5 9
v 7.9 5.5 9
v 8 5.5 9
v 7.8 5.5 8.9
v 7.9 5.5 8.9
v 8 5.5 8.9
v 7.7 5.5 8.8
v 7.8 5.5 8.8
v 7.7 5.5 8.7
v 7.8 5.5 8.7
v 7.6 5.6 9.2
v 8 5.6 9.2
v 7.5 5.6 9.1
v 7.6 5.6 9.1
v 8 5.6 9.1
v 8.1 5.6 9.1
v 7.6 5.6 9
v 8 5.6 9
v 7.8 5.6 8.9
v 8 5.6 8.9
v 7.9 5.6 8.8
v 8 5.6 8.8
v 7.5 5.6 8.7
v 7.6 5.6 8.7
v 7.8 5.6 8.7
v 7.9 5.6 8.7
v 8 5.6 8.7
v 8.1 5.6 8.7
v 7.6 5.6 8.6
v 8 5.6 8.6
v 7.7 5.7 9.1
v 7.9 5.7 9.1
v 7.7 5.7 9
v 7.9 5.7 9
v 7.9 5.7 8.8
v 8 5.7 8.8
v 7.9 5.7 8.7
v 8 5.7 8.7
v 7.6 5.8 9.1
v 7.7 5.8 9.1
v 7.9 5.8 9.1
v 8 5.8 9.1
v 7.6 5.8 9
v 7.7 5.8 9
v 7.9 5.8 9
v 8 5.8 9
v 8 5.8 8.8
v 8.1 5.8 8.8
v 7.9 5.8 8.7
v 8 5.8 8.7
v 8.1 5.8 8.7
v 7.9 5.8 8.6
v 8 5.8 8.6
v 8.1 5.9 8.9
v 8.2 5.9 8.9
v 8.1 5.9 8.8
v 8.2 5.9 8.8
v 7.8 5.9 8.6
v 7.9 5.9 8.6
v 7.8 5.9 8.5
v 7.9 5.9 8.5

# faces
f 3/4/1 2/4/1 1/4/1
f 4/4/1 2/4/1 3/4/1
f 5/7/1 4/7/1 3/7/1
f 6/7/1 4/7/1 5/7/1
f 7/4/1 6/4/1 5/4/1
f 8/4/1 6/4/1 7/4/1
f 13/4/1 10/4/1 9/4/1
f 14/4/1 10/4/1 13/4/1
f 15/4/1 12/4/1 11/4/1
f 16/4/1 12/4/1 15/4/1
f 17/7/1 14/7/1 13/7/1
f 18/7/1 14/7/1 17/7/1
f 19/7/1 16/7/1 15/7/1
f 20/7/1 16/7/1 19/7/1
f 21/4/1 18/4/1 17/4/1
f 22/4/1 18/4/1 21/4/1
f 24/4/1 20/4/1 19/4/1
f 25/4/1 20/4/1 24/4/1
f 26/1/1 23/1/1 22/1/1
f 27/1/1 23/1/1 26/1/1
f 30/1/1 29/1/1 28/1/1
f 31/1/1 29/1/1 30/1/1
f 32/1/1 29/1/1 31/1/1
f 33/1/1 31/1/1 30/1/1
f 34/3/1 32/3/1 31/3/1
f 34/1/1 31/1/1 33/1/1
f 35/3/1 32/3/1 34/3/1
f 36/1/1 33/1/1 30/1/1
f 37/1/1 33/1/1 36/1/1
f 41/3/1 39/3/1 38/3/1
f 41/3/1 40/3/1 39/3/1
f 42/3/1 40/3/1 41/3/1
f 45/2/1 44/2/1 43/2/1
f 46/2/1 44/2/1 45/2/1
f 51/2/1 48/2/1 47/2/1
f 52/2/1 48/2/1 51/2/1
f 54/1/1 50/1/1 49/1/1
f 55/1/1 50/1/1 54/1/1
f 56/2/1 53/2/1 52/2/1
f 57/2/1 53/2/1 56/2/1
f 60/7/1 59/7/1 58/7/1
f 61/7/1 59/7/1 60/7/1
f 62/7/1 59/7/1 61/7/1
f 63/4/1 61/4/1 60/4/1
f 65/4/1 63/4/1 60/4/1
f 65/4/1 64/4/1 63/4/1
f 66/4/1 64/4/1 65/4/1
f 67/4/1 64/4/1 66/4/1
f 70/2/1 69/2/1 68/2/1
f 71/2/1 69/2/1 70/2/1
f 74/2/1 73/2/1 72/2/1
f 75/2/1 73/2/1 74/2/1
f 76/7/2 77/7/2 78/7/2
f 78/7/2 77/7/2 79/7/2
f 78/4/2 79/4/2 80/4/2
f 80/4/2 79/4/2 81/4/2
f 81/4/2 79/4/2 82/4/2
f 83/1/2 84/1/2 85/1/2
f 85/1/2 84/1/2 86/1/2
f 87/6/2 88/6/2 89/6/2
f 89/6/2 88/6/2 90/6/2
f 90/6/2 88/6/2 91/6/2
f 89/6/2 90/6/2 92/6/2
f 92/6/2 90/6/2 93/6/2
f 92/1/2 93/1/2 94/1/2
f 94/1/2 93/1/2 95/1/2
f 96/2/2 97/2/2 98/2/2
f 98/2/2 97/2/2 99/2/2
f 100/4/2 101/4/2 104/4/2
f 104/4/2 101/4/2 105/4/2
f 102/4/2 103/4/2 106/4/2
f 106/4/2 103/4/2 107/4/2
f 104/7/2 105/7/2 108/7/2
f 108/7/2 105/7/2 109/7/2
f 106/7/2 107/7/2 110/7/2
f 110/7/2 107/7/2 111/7/2
f 108/4/2 109/4/2 112/4/2
f 112/4/2 109/4/2 113/4/2
f 110/4/2 111/4/2 116/4/2
f 116/4/2 111/4/2 117/4/2
f 115/2/2 116/2/2 118/2/2
f 118/2/2 116/2/2 119/2/2
f 113/1/2 114/1/2 121/1/2
f 121/1/2 114/1/2 122/1/2
f 119/2/2 120/2/2 123/2/2
f 123/2/2 120/2/2 124/2/2
f 125/4/2 126/4/2 127/4/2
f 127/4/2 126/4/2 128/4/2
f 127/7/2 128/7/2 129/7/2
f 129/7/2 128/7/2 130/7/2
f 129/4/2 130/4/2 131/4/2
f 131/4/2 130/4/2 132/4/2
f 133/2/2 134/2/2 135/2/2
f 135/2/2 134/2/2 136/2/2
f 137/2/2 138/2/2 139/2/2
f 139/2/2 138/2/2 140/2/2
f 145/4/3 142/4/3 141/4/3
f 146/7/3 143/7/3 142/7/3
f 146/4/3 142/4/3 145/4/3
f 147/4/3 144/4/3 143/4/3
f 147/7/3 143/7/3 146/7/3
f 148/4/3 144/4/3 147/4/3
f 153/4/3 150/4/3 149/4/3
f 154/7/3 151/7/3 150/7/3
f 154/4/3 150/4/3 153/4/3
f 155/4/3 152/4/3 151/4/3
f 155/7/3 151/7/3 154/7/3
f 156/4/3 152/4/3 155/4/3
f 158/1/3 157/1/3 156/1/3
f 159/1/3 157/1/3 158/1/3
f 160/1/3 158/1/3 156/1/3
f 165/1/3 160/1/3 156/1/3
f 165/1/3 161/1/3 160/1/3
f 166/1/3 161/1/3 165/1/3
f 167/4/3 163/4/3 162/4/3
f 168/7/3 164/7/3 163/7/3
f 168/4/3 163/4/3 167/4/3
f 169/4/3 165/4/3 164/4/3
f 169/7/3 164/7/3 168/7/3
f 170/4/3 165/4/3 169/4/3
f 173/3/3 172/3/3 171/3/3
f 174/3/3 172/3/3 173/3/3
f 177/3/3 176/3/3 175/3/3
f 178/3/3 176/3/3 177/3/3
f 179/3/3 176/3/3 178/3/3
f 182/2/3 181/2/3 180/2/3
f 183/2/3 181/2/3 182/2/3
f 186/2/3 185/2/3 184/2/3
f 187/2/3 185/2/3 186/2/3
f 189/2/3 188/2/3 187/2/3
f 190/2/3 188/2/3 189/2/3
f 194/7/3 192/7/3 191/7/3
f 195/4/3 193/4/3 192/4/3
f 195/7/3 192/7/3 194/7/3
f 196/4/3 193/4/3 195/4/3
f 197/4/3 193/4/3 196/4/3
f 198/4/3 193/4/3 197/4/3
f 203/7/3 200/7/3 199/7/3
f 204/7/3 200/7/3 203/7/3
f 205/2/3 202/2/3 201/2/3
f 206/2/3 202/2/3 205/2/3
f 209/2/3 208/2/3 207/2/3
f 210/2/3 208/2/3 209/2/3
f 211/7/4 212/7/4 214/7/4
f 212/4/4 213/4/4 215/4/4
f 214/7/4 212/7/4 215/7/4
f 215/4/4 213/4/4 216/4/4
f 217/7/4 218/7/4 221/7/4
f 219/4/4 220/4/4 222/4/4
f 221/7/4 218/7/4 222/7/4
f 218/4/4 219/4/4 222/4/4
f 222/4/4 220/4/4 223/4/4
f 224/1/4 225/1/4 227/1/4
f 227/1/4 225/1/4 228/1/4
f 228/1/4 225/1/4 229/1/4
f 226/1/4 227/1/4 230/1/4
f 227/1/4 228/1/4 230/1/4
f 230/1/4 228/1/4 231/1/4
f 231/1/4 228/1/4 232/1/4
f 232/1/4 233/1/4 234/1/4
f 231/1/4 232/1/4 234/1/4
f 234/1/4 233/1/4 235/1/4
f 236/2/4 237/2/4 238/2/4
f 238/2/4 237/2/4 239/2/4
f 240/4/4 241/4/4 244/4/4
f 241/7/4 242/7/4 245/7/4
f 244/4/4 241/4/4 245/4/4
f 242/4/4 243/4/4 246/4/4
f 245/7/4 242/7/4 246/7/4
f 246/4/4 243/4/4 247/4/4
f 248/2/4 249/2/4 253/2/4
f 253/2/4 249/2/4 254/2/4
f 250/4/4 251/4/4 256/4/4
f 251/7/4 252/7/4 257/7/4
f 256/4/4 251/4/4 257/4/4
f 252/4/4 253/4/4 258/4/4
f 257/7/4 252/7/4 258/7/4
f 258/4/4 253/4/4 259/4/4
f 254/2/4 255/2/4 260/2/4
f 260/2/4 255/2/4 261/2/4
f 262/4/4 263/4/4 268/4/4
f 263/7/4 264/7/4 269/7/4
f 268/4/4 263/4/4 269/4/4
f 264/4/4 265/4/4 270/4/4
f 269/7/4 264/7/4 270/7/4
f 270/4/4 265/4/4 271/4/4
f 266/2/4 267/2/4 272/2/4
f 272/2/4 267/2/4 273/2/4
f 274/2/4 275/2/4 276/2/4
f 276/2/4 275/2/4 277/2/4
f 281/4/5 279/4/5 278/4/5
f 282/4/5 279/4/5 281/4/5
f 284/4/5 281/4/5 280/4/5
f 284/4/5 283/4/5 282/4/5
f 284/4/5 282/4/5 281/4/5
f 285/4/5 283/4/5 284/4/5
f 286/4/5 283/4/5 285/4/5
f 287/4/5 283/4/5 286/4/5
f 288/4/5 286/4/5 285/4/5
f 289/4/5 286/4/5 288/4/5
f 292/3/5 291/3/5 290/3/5
f 293/3/5 291/3/5 292/3/5
f 298/1/5 295/1/5 294/1/5
f 299/1/5 295/1/5 298/1/5
f 300/1/5 297/1/5 296/1/5
f 301/1/5 297/1/5 300/1/5
f 305/2/5 303/2/5 302/2/5
f 306/2/5 303/2/5 305/2/5
f 307/2/5 305/2/5 304/2/5
f 308/2/5 305/2/5 307/2/5
f 311/2/5 310/2/5 309/2/5
f 312/2/5 310/2/5 311/2/5
f 315/2/5 314/2/5 313/2/5
f 316/2/5 314/2/5 315/2/5
f 317/5/6 318/5/6 321/5/6
f 321/5/6 318/5/6 322/5/6
f 319/4/6 320/4/6 323/4/6
f 323/4/6 320/4/6 324/4/6
f 325/1/6 326/1/6 328/1/6
f 326/3/6 327/3/6 329/3/6
f 328/1/6 326/1/6 329/1/6
f 329/3/6 327/3/6 330/3/6
f 325/1/6 328/1/6 331/1/6
f 331/1/6 328/1/6 332/1/6
f 331/3/6 332/3/6 333/3/6
f 333/3/6 332/3/6 334/3/6
f 335/4/6 336/4/6 338/4/6
f 338/4/6 336/4/6 339/4/6
f 337/4/6 338/4/6 341/4/6
f 339/4/6 340/4/6 342/4/6
f 342/4/6 340/4/6 344/4/6
f 343/3/6 344/3/6 345/3/6
f 344/4/6 340/4/6 346/4/6
f 345/3/6 344/3/6 346/3/6
f 337/4/6 341/4/6 347/4/6
f 347/4/6 341/4/6 348/4/6
f 343/3/6 345/3/6 349/3/6
f 349/3/6 345/3/6 350/3/6
f 346/4/6 340/4/6 351/4/6
f 351/4/6 340/4/6 352/4/6
f 349/4/6 350/4/6 353/4/6
f 350/4/6 351/4/6 353/4/6
f 348/4/6 349/4/6 353/4/6
f 353/4/6 351/4/6 354/4/6
f 355/1/6 356/1/6 357/1/6
f 357/1/6 356/1/6 358/1/6
f 359/2/6 360/2/6 361/2/6
f 361/2/6 360/2/6 362/2/6
f 363/1/6 364/1/6 367/1/6
f 367/1/6 364/1/6 368/1/6
f 365/1/6 366/1/6 369/1/6
f 369/1/6 366/1/6 370/1/6
f 371/2/6 372/2/6 374/2/6
f 374/2/6 372/2/6 375/2/6
f 373/2/6 374/2/6 376/2/6
f 376/2/6 374/2/6 377/2/6
f 378/2/6 379/2/6 380/2/6
f 380/2/6 379/2/6 381/2/6
f 382/2/6 383/2/6 384/2/6
f 384/2/6 383/2/6 385/2/6
