# MagicaVoxel @ Ephtracy

# group
o 

# material
mtllib balde pez 1-1.mtl
usemtl palette

# normals
vn -1 0 0
vn 1 0 0
vn 0 0 1
vn 0 0 -1
vn 0 -1 0
vn 0 1 0

# texcoords
vt 0.298828 0.5
vt 0.455078 0.5
vt 0.638672 0.5
vt 0.642578 0.5
vt 0.728516 0.5
vt 0.794922 0.5
vt 0.798828 0.5
vt 0.919922 0.5

# verts
v 3.8 5.8 8.9
v 3.8 5.8 8.8
v 3.8 5.9 8.9
v 3.8 5.9 8.8
v 3.9 5.1 9.1
v 3.9 5.1 8.7
v 3.9 5.3 9.1
v 3.9 5.3 8.7
v 3.9 5.4 9.1
v 3.9 5.4 8.7
v 3.9 5.6 9.1
v 3.9 5.6 8.7
v 3.9 5.7 8.8
v 3.9 5.7 8.7
v 3.9 5.8 8.8
v 3.9 5.8 8.7
v 4 5.1 9.2
v 4 5.1 9.1
v 4 5.1 8.7
v 4 5.1 8.6
v 4 5.3 9.2
v 4 5.3 9.1
v 4 5.3 8.7
v 4 5.3 8.6
v 4 5.4 9.2
v 4 5.4 9.1
v 4 5.4 8.7
v 4 5.4 8.6
v 4 5.6 9.2
v 4 5.6 9.1
v 4 5.6 8.8
v 4 5.6 8.7
v 4 5.6 8.6
v 4 5.7 8.8
v 4 5.7 8.7
v 4 5.7 8.6
v 4 5.8 8.7
v 4 5.8 8.6
v 4.1 5.8 8.6
v 4.1 5.8 8.5
v 4.1 5.9 8.6
v 4.1 5.9 8.5
v 4.3 5.5 9
v 4.3 5.5 8.8
v 4.3 5.6 9.1
v 4.3 5.6 9
v 4.3 5.6 8.8
v 4.3 5.6 8.7
v 4.3 5.7 9
v 4.3 5.7 8.8
v 4.3 5.8 9.1
v 4.3 5.8 9
v 4.3 5.8 8.8
v 4.3 5.8 8.7
v 4.4 5.3 9.1
v 4.4 5.3 9
v 4.4 5.3 8.8
v 4.4 5.3 8.7
v 4.4 5.4 9.1
v 4.4 5.4 9
v 4.4 5.4 8.8
v 4.4 5.4 8.7
v 4.4 5.5 9
v 4.4 5.5 8.8
v 4.4 5.6 9.1
v 4.4 5.6 9
v 4.4 5.6 8.8
v 4.4 5.6 8.7
v 3.9 5.8 8.9
v 3.9 5.8 8.8
v 3.9 5.9 8.9
v 3.9 5.9 8.8
v 4 5.3 9.1
v 4 5.3 9
v 4 5.3 8.8
v 4 5.3 8.7
v 4 5.4 9.1
v 4 5.4 9
v 4 5.4 8.8
v 4 5.4 8.7
v 4 5.5 9
v 4 5.5 8.9
v 4 5.6 9.1
v 4 5.6 8.9
v 4 5.7 8.8
v 4 5.7 8.7
v 4 5.8 8.8
v 4 5.8 8.7
v 4.1 5.6 8.8
v 4.1 5.6 8.7
v 4.1 5.7 8.8
v 4.1 5.7 8.7
v 4.1 5.7 8.6
v 4.1 5.8 8.7
v 4.1 5.8 8.6
v 4.2 5.5 8.9
v 4.2 5.5 8.8
v 4.2 5.5 8.7
v 4.2 5.6 8.9
v 4.2 5.6 8.7
v 4.2 5.8 8.6
v 4.2 5.8 8.5
v 4.2 5.9 8.6
v 4.2 5.9 8.5
v 4.3 5.4 8.8
v 4.3 5.4 8.7
v 4.3 5.5 8.8
v 4.3 5.5 8.7
v 4.4 5.1 9.2
v 4.4 5.1 9.1
v 4.4 5.1 8.7
v 4.4 5.1 8.6
v 4.4 5.3 9.2
v 4.4 5.3 9.1
v 4.4 5.3 8.7
v 4.4 5.3 8.6
v 4.4 5.4 9.2
v 4.4 5.4 9.1
v 4.4 5.4 8.7
v 4.4 5.4 8.6
v 4.4 5.6 9.2
v 4.4 5.6 9.1
v 4.4 5.6 8.7
v 4.4 5.6 8.6
v 4.4 5.7 9
v 4.4 5.7 8.8
v 4.4 5.8 9.1
v 4.4 5.8 9
v 4.4 5.8 8.8
v 4.4 5.8 8.7
v 4.5 5.1 9.1
v 4.5 5.1 8.7
v 4.5 5.3 9.1
v 4.5 5.3 8.7
v 4.5 5.4 9.1
v 4.5 5.4 8.7
v 4.5 5.6 9.1
v 4.5 5.6 8.7
v 4 5.1 9.2
v 4 5.3 9.2
v 4 5.4 9.2
v 4 5.6 9.2
v 4.4 5.1 9.2
v 4.4 5.3 9.2
v 4.4 5.4 9.2
v 4.4 5.6 9.2
v 3.9 5.1 9.1
v 3.9 5.3 9.1
v 3.9 5.4 9.1
v 3.9 5.6 9.1
v 4 5.1 9.1
v 4 5.3 9.1
v 4 5.4 9.1
v 4 5.6 9.1
v 4.3 5.6 9.1
v 4.3 5.8 9.1
v 4.4 5.1 9.1
v 4.4 5.3 9.1
v 4.4 5.4 9.1
v 4.4 5.6 9.1
v 4.4 5.8 9.1
v 4.5 5.1 9.1
v 4.5 5.3 9.1
v 4.5 5.4 9.1
v 4.5 5.6 9.1
v 4 5.3 9
v 4 5.4 9
v 4 5.5 9
v 4.1 5.4 9
v 4.1 5.5 9
v 4.3 5.4 9
v 4.3 5.5 9
v 4.3 5.6 9
v 4.4 5.3 9
v 4.4 5.4 9
v 4.4 5.5 9
v 4.4 5.6 9
v 3.8 5.8 8.9
v 3.8 5.9 8.9
v 3.9 5.8 8.9
v 3.9 5.9 8.9
v 4 5.5 8.9
v 4 5.6 8.9
v 4.1 5.5 8.9
v 4.2 5.5 8.9
v 4.2 5.6 8.9
v 3.9 5.7 8.8
v 3.9 5.8 8.8
v 4 5.6 8.8
v 4 5.7 8.8
v 4 5.8 8.8
v 4.1 5.6 8.8
v 4.1 5.7 8.8
v 4.3 5.7 8.8
v 4.3 5.8 8.8
v 4.4 5.7 8.8
v 4.4 5.8 8.8
v 4 5.3 8.7
v 4 5.4 8.7
v 4 5.7 8.7
v 4 5.8 8.7
v 4.1 5.7 8.7
v 4.1 5.8 8.7
v 4.2 5.4 8.7
v 4.2 5.5 8.7
v 4.2 5.6 8.7
v 4.3 5.4 8.7
v 4.3 5.5 8.7
v 4.3 5.6 8.7
v 4.4 5.3 8.7
v 4.4 5.4 8.7
v 4.4 5.6 8.7
v 4.1 5.8 8.6
v 4.1 5.9 8.6
v 4.2 5.8 8.6
v 4.2 5.9 8.6
v 4 5.3 9.1
v 4 5.4 9.1
v 4 5.6 9.1
v 4.3 5.6 9.1
v 4.4 5.3 9.1
v 4.4 5.4 9.1
v 4.4 5.6 9.1
v 4.3 5.7 9
v 4.3 5.8 9
v 4.4 5.7 9
v 4.4 5.8 9
v 3.8 5.8 8.8
v 3.8 5.9 8.8
v 3.9 5.8 8.8
v 3.9 5.9 8.8
v 4 5.3 8.8
v 4 5.4 8.8
v 4.2 5.4 8.8
v 4.3 5.4 8.8
v 4.3 5.5 8.8
v 4.3 5.6 8.8
v 4.4 5.3 8.8
v 4.4 5.4 8.8
v 4.4 5.5 8.8
v 4.4 5.6 8.8
v 3.9 5.1 8.7
v 3.9 5.3 8.7
v 3.9 5.4 8.7
v 3.9 5.6 8.7
v 3.9 5.7 8.7
v 3.9 5.8 8.7
v 4 5.1 8.7
v 4 5.3 8.7
v 4 5.4 8.7
v 4 5.6 8.7
v 4 5.7 8.7
v 4 5.8 8.7
v 4.1 5.6 8.7
v 4.1 5.7 8.7
v 4.3 5.6 8.7
v 4.3 5.8 8.7
v 4.4 5.1 8.7
v 4.4 5.3 8.7
v 4.4 5.4 8.7
v 4.4 5.6 8.7
v 4.4 5.8 8.7
v 4.5 5.1 8.7
v 4.5 5.3 8.7
v 4.5 5.4 8.7
v 4.5 5.6 8.7
v 4 5.1 8.6
v 4 5.3 8.6
v 4 5.4 8.6
v 4 5.6 8.6
v 4 5.7 8.6
v 4 5.8 8.6
v 4.1 5.7 8.6
v 4.1 5.8 8.6
v 4.4 5.1 8.6
v 4.4 5.3 8.6
v 4.4 5.4 8.6
v 4.4 5.6 8.6
v 4.1 5.8 8.5
v 4.1 5.9 8.5
v 4.2 5.8 8.5
v 4.2 5.9 8.5
v 4 5.1 9.2
v 4.4 5.1 9.2
v 3.9 5.1 9.1
v 4 5.1 9.1
v 4.4 5.1 9.1
v 4.5 5.1 9.1
v 3.9 5.1 8.7
v 4 5.1 8.7
v 4.4 5.1 8.7
v 4.5 5.1 8.7
v 4 5.1 8.6
v 4.4 5.1 8.6
v 4 5.4 8.8
v 4.2 5.4 8.8
v 4.3 5.4 8.8
v 4 5.4 8.7
v 4.2 5.4 8.7
v 4.3 5.4 8.7
v 4.3 5.6 9.1
v 4.4 5.6 9.1
v 4.3 5.6 9
v 4.4 5.6 9
v 4.3 5.6 8.8
v 4.4 5.6 8.8
v 4.3 5.6 8.7
v 4.4 5.6 8.7
v 3.9 5.7 8.8
v 4 5.7 8.8
v 3.9 5.7 8.7
v 4 5.7 8.7
v 4.1 5.7 8.7
v 4 5.7 8.6
v 4.1 5.7 8.6
v 3.8 5.8 8.9
v 3.9 5.8 8.9
v 3.8 5.8 8.8
v 3.9 5.8 8.8
v 4.1 5.8 8.6
v 4.2 5.8 8.6
v 4.1 5.8 8.5
v 4.2 5.8 8.5
v 4 5.3 9.1
v 4.4 5.3 9.1
v 4 5.3 9
v 4.4 5.3 9
v 4 5.3 8.8
v 4.4 5.3 8.8
v 4 5.3 8.7
v 4.4 5.3 8.7
v 4 5.5 9
v 4.1 5.5 9
v 4.3 5.5 9
v 4 5.5 8.9
v 4.1 5.5 8.9
v 4.2 5.5 8.9
v 4.2 5.5 8.8
v 4.3 5.5 8.8
v 4.2 5.5 8.7
v 4.3 5.5 8.7
v 4 5.6 9.2
v 4.4 5.6 9.2
v 3.9 5.6 9.1
v 4 5.6 9.1
v 4.3 5.6 9.1
v 4.4 5.6 9.1
v 4.5 5.6 9.1
v 4 5.6 8.9
v 4.2 5.6 8.9
v 4 5.6 8.8
v 4.1 5.6 8.8
v 3.9 5.6 8.7
v 4 5.6 8.7
v 4.1 5.6 8.7
v 4.2 5.6 8.7
v 4.3 5.6 8.7
v 4.4 5.6 8.7
v 4.5 5.6 8.7
v 4 5.6 8.6
v 4.4 5.6 8.6
v 4.3 5.7 9
v 4.4 5.7 9
v 4 5.7 8.8
v 4.1 5.7 8.8
v 4.3 5.7 8.8
v 4.4 5.7 8.8
v 4 5.7 8.7
v 4.1 5.7 8.7
v 4.3 5.8 9.1
v 4.4 5.8 9.1
v 4.3 5.8 9
v 4.4 5.8 9
v 3.9 5.8 8.8
v 4 5.8 8.8
v 4.3 5.8 8.8
v 4.4 5.8 8.8
v 3.9 5.8 8.7
v 4 5.8 8.7
v 4.1 5.8 8.7
v 4.3 5.8 8.7
v 4.4 5.8 8.7
v 4 5.8 8.6
v 4.1 5.8 8.6
v 3.8 5.9 8.9
v 3.9 5.9 8.9
v 3.8 5.9 8.8
v 3.9 5.9 8.8
v 4.1 5.9 8.6
v 4.2 5.9 8.6
v 4.1 5.9 8.5
v 4.2 5.9 8.5

# faces
f 3/2/1 2/2/1 1/2/1
f 4/2/1 2/2/1 3/2/1
f 7/5/1 6/5/1 5/5/1
f 8/5/1 6/5/1 7/5/1
f 9/8/1 8/8/1 7/8/1
f 10/8/1 8/8/1 9/8/1
f 11/5/1 10/5/1 9/5/1
f 12/5/1 10/5/1 11/5/1
f 15/2/1 14/2/1 13/2/1
f 16/2/1 14/2/1 15/2/1
f 21/5/1 18/5/1 17/5/1
f 22/5/1 18/5/1 21/5/1
f 23/5/1 20/5/1 19/5/1
f 24/5/1 20/5/1 23/5/1
f 25/8/1 22/8/1 21/8/1
f 26/8/1 22/8/1 25/8/1
f 27/8/1 24/8/1 23/8/1
f 28/8/1 24/8/1 27/8/1
f 29/5/1 26/5/1 25/5/1
f 30/5/1 26/5/1 29/5/1
f 32/5/1 28/5/1 27/5/1
f 33/5/1 28/5/1 32/5/1
f 34/1/1 32/1/1 31/1/1
f 35/1/1 32/1/1 34/1/1
f 37/2/1 36/2/1 35/2/1
f 38/2/1 36/2/1 37/2/1
f 41/2/1 40/2/1 39/2/1
f 42/2/1 40/2/1 41/2/1
f 46/3/1 44/3/1 43/3/1
f 47/3/1 44/3/1 46/3/1
f 49/3/1 46/3/1 45/3/1
f 49/3/1 48/3/1 47/3/1
f 49/3/1 47/3/1 46/3/1
f 50/3/1 48/3/1 49/3/1
f 51/3/1 49/3/1 45/3/1
f 52/3/1 49/3/1 51/3/1
f 53/3/1 48/3/1 50/3/1
f 54/3/1 48/3/1 53/3/1
f 59/8/1 56/8/1 55/8/1
f 60/8/1 56/8/1 59/8/1
f 61/8/1 58/8/1 57/8/1
f 62/8/1 58/8/1 61/8/1
f 63/5/1 60/5/1 59/5/1
f 64/5/1 62/5/1 61/5/1
f 65/5/1 63/5/1 59/5/1
f 66/5/1 63/5/1 65/5/1
f 67/5/1 62/5/1 64/5/1
f 68/5/1 62/5/1 67/5/1
f 69/2/2 70/2/2 71/2/2
f 71/2/2 70/2/2 72/2/2
f 73/8/2 74/8/2 77/8/2
f 77/8/2 74/8/2 78/8/2
f 75/8/2 76/8/2 79/8/2
f 79/8/2 76/8/2 80/8/2
f 77/5/2 78/5/2 81/5/2
f 77/5/2 81/5/2 83/5/2
f 81/5/2 82/5/2 83/5/2
f 83/5/2 82/5/2 84/5/2
f 85/2/2 86/2/2 87/2/2
f 87/2/2 86/2/2 88/2/2
f 89/1/2 90/1/2 91/1/2
f 91/1/2 90/1/2 92/1/2
f 92/2/2 93/2/2 94/2/2
f 94/2/2 93/2/2 95/2/2
f 96/1/2 97/1/2 99/1/2
f 97/1/2 98/1/2 99/1/2
f 99/1/2 98/1/2 100/1/2
f 101/2/2 102/2/2 103/2/2
f 103/2/2 102/2/2 104/2/2
f 105/1/2 106/1/2 107/1/2
f 107/1/2 106/1/2 108/1/2
f 109/5/2 110/5/2 113/5/2
f 113/5/2 110/5/2 114/5/2
f 111/5/2 112/5/2 115/5/2
f 115/5/2 112/5/2 116/5/2
f 113/8/2 114/8/2 117/8/2
f 117/8/2 114/8/2 118/8/2
f 115/8/2 116/8/2 119/8/2
f 119/8/2 116/8/2 120/8/2
f 117/5/2 118/5/2 121/5/2
f 121/5/2 118/5/2 122/5/2
f 119/5/2 120/5/2 123/5/2
f 123/5/2 120/5/2 124/5/2
f 122/3/2 123/3/2 125/3/2
f 125/3/2 123/3/2 126/3/2
f 122/3/2 125/3/2 127/3/2
f 127/3/2 125/3/2 128/3/2
f 126/3/2 123/3/2 129/3/2
f 129/3/2 123/3/2 130/3/2
f 131/5/2 132/5/2 133/5/2
f 133/5/2 132/5/2 134/5/2
f 133/8/2 134/8/2 135/8/2
f 135/8/2 134/8/2 136/8/2
f 135/5/2 136/5/2 137/5/2
f 137/5/2 136/5/2 138/5/2
f 143/5/3 140/5/3 139/5/3
f 144/8/3 141/8/3 140/8/3
f 144/5/3 140/5/3 143/5/3
f 145/5/3 142/5/3 141/5/3
f 145/8/3 141/8/3 144/8/3
f 146/5/3 142/5/3 145/5/3
f 151/5/3 148/5/3 147/5/3
f 152/8/3 149/8/3 148/8/3
f 152/5/3 148/5/3 151/5/3
f 153/5/3 150/5/3 149/5/3
f 153/8/3 149/8/3 152/8/3
f 154/5/3 150/5/3 153/5/3
f 160/3/3 156/3/3 155/3/3
f 161/3/3 156/3/3 160/3/3
f 162/5/3 158/5/3 157/5/3
f 163/8/3 159/8/3 158/8/3
f 163/5/3 158/5/3 162/5/3
f 164/5/3 160/5/3 159/5/3
f 164/8/3 159/8/3 163/8/3
f 165/5/3 160/5/3 164/5/3
f 169/7/3 167/7/3 166/7/3
f 169/1/3 168/1/3 167/1/3
f 170/1/3 168/1/3 169/1/3
f 171/7/3 169/7/3 166/7/3
f 171/3/3 170/3/3 169/3/3
f 172/3/3 170/3/3 171/3/3
f 174/7/3 172/7/3 171/7/3
f 174/7/3 171/7/3 166/7/3
f 175/7/3 172/7/3 174/7/3
f 176/3/3 173/3/3 172/3/3
f 176/7/3 172/7/3 175/7/3
f 177/3/3 173/3/3 176/3/3
f 180/2/3 179/2/3 178/2/3
f 181/2/3 179/2/3 180/2/3
f 184/1/3 183/1/3 182/1/3
f 185/1/3 183/1/3 184/1/3
f 186/1/3 183/1/3 185/1/3
f 190/2/3 188/2/3 187/2/3
f 191/2/3 188/2/3 190/2/3
f 192/1/3 190/1/3 189/1/3
f 193/1/3 190/1/3 192/1/3
f 196/3/3 195/3/3 194/3/3
f 197/3/3 195/3/3 196/3/3
f 202/2/3 201/2/3 200/2/3
f 203/2/3 201/2/3 202/2/3
f 204/8/3 199/8/3 198/8/3
f 207/8/3 204/8/3 198/8/3
f 208/5/3 206/5/3 205/5/3
f 209/5/3 206/5/3 208/5/3
f 210/8/3 207/8/3 198/8/3
f 211/5/3 208/5/3 207/5/3
f 211/8/3 207/8/3 210/8/3
f 211/5/3 209/5/3 208/5/3
f 212/5/3 209/5/3 211/5/3
f 215/2/3 214/2/3 213/2/3
f 216/2/3 214/2/3 215/2/3
f 218/5/4 219/5/4 220/5/4
f 217/8/4 218/8/4 221/8/4
f 218/5/4 220/5/4 222/5/4
f 221/8/4 218/8/4 222/8/4
f 222/5/4 220/5/4 223/5/4
f 224/3/4 225/3/4 226/3/4
f 226/3/4 225/3/4 227/3/4
f 228/2/4 229/2/4 230/2/4
f 230/2/4 229/2/4 231/2/4
f 232/7/4 233/7/4 234/7/4
f 232/7/4 234/7/4 235/7/4
f 232/7/4 235/7/4 238/7/4
f 235/7/4 236/7/4 238/7/4
f 238/7/4 236/7/4 239/7/4
f 236/3/4 237/3/4 240/3/4
f 239/7/4 236/7/4 240/7/4
f 240/3/4 237/3/4 241/3/4
f 242/5/4 243/5/4 248/5/4
f 243/8/4 244/8/4 249/8/4
f 248/5/4 243/5/4 249/5/4
f 244/5/4 245/5/4 250/5/4
f 249/8/4 244/8/4 250/8/4
f 250/5/4 245/5/4 251/5/4
f 246/2/4 247/2/4 252/2/4
f 252/2/4 247/2/4 253/2/4
f 251/1/4 252/1/4 254/1/4
f 254/1/4 252/1/4 255/1/4
f 256/3/4 257/3/4 261/3/4
f 261/3/4 257/3/4 262/3/4
f 258/5/4 259/5/4 263/5/4
f 259/8/4 260/8/4 264/8/4
f 263/5/4 259/5/4 264/5/4
f 260/5/4 261/5/4 265/5/4
f 264/8/4 260/8/4 265/8/4
f 265/5/4 261/5/4 266/5/4
f 271/2/4 272/2/4 273/2/4
f 273/2/4 272/2/4 274/2/4
f 267/5/4 268/5/4 275/5/4
f 268/8/4 269/8/4 276/8/4
f 275/5/4 268/5/4 276/5/4
f 269/5/4 270/5/4 277/5/4
f 276/8/4 269/8/4 277/8/4
f 277/5/4 270/5/4 278/5/4
f 279/2/4 280/2/4 281/2/4
f 281/2/4 280/2/4 282/2/4
f 286/5/5 284/5/5 283/5/5
f 287/5/5 284/5/5 286/5/5
f 289/5/5 286/5/5 285/5/5
f 289/5/5 288/5/5 287/5/5
f 289/5/5 287/5/5 286/5/5
f 290/5/5 288/5/5 289/5/5
f 291/5/5 288/5/5 290/5/5
f 292/5/5 288/5/5 291/5/5
f 293/5/5 291/5/5 290/5/5
f 294/5/5 291/5/5 293/5/5
f 298/4/5 296/4/5 295/4/5
f 299/1/5 297/1/5 296/1/5
f 299/4/5 296/4/5 298/4/5
f 300/1/5 297/1/5 299/1/5
f 303/3/5 302/3/5 301/3/5
f 304/3/5 302/3/5 303/3/5
f 307/3/5 306/3/5 305/3/5
f 308/3/5 306/3/5 307/3/5
f 311/2/5 310/2/5 309/2/5
f 312/2/5 310/2/5 311/2/5
f 314/2/5 313/2/5 312/2/5
f 315/2/5 313/2/5 314/2/5
f 318/2/5 317/2/5 316/2/5
f 319/2/5 317/2/5 318/2/5
f 322/2/5 321/2/5 320/2/5
f 323/2/5 321/2/5 322/2/5
f 324/6/6 325/6/6 326/6/6
f 326/6/6 325/6/6 327/6/6
f 328/5/6 329/5/6 330/5/6
f 330/5/6 329/5/6 331/5/6
f 332/1/6 333/1/6 335/1/6
f 333/3/6 334/3/6 336/3/6
f 335/1/6 333/1/6 336/1/6
f 336/3/6 334/3/6 337/3/6
f 337/3/6 334/3/6 338/3/6
f 338/3/6 334/3/6 339/3/6
f 338/1/6 339/1/6 340/1/6
f 340/1/6 339/1/6 341/1/6
f 342/5/6 343/5/6 345/5/6
f 345/5/6 343/5/6 346/5/6
f 346/5/6 343/5/6 347/5/6
f 344/5/6 345/5/6 349/5/6
f 344/5/6 349/5/6 351/5/6
f 349/1/6 350/1/6 351/1/6
f 351/1/6 350/1/6 352/1/6
f 344/5/6 351/5/6 353/5/6
f 353/5/6 351/5/6 354/5/6
f 352/1/6 350/1/6 355/1/6
f 355/1/6 350/1/6 356/1/6
f 347/5/6 348/5/6 358/5/6
f 358/5/6 348/5/6 359/5/6
f 356/5/6 357/5/6 360/5/6
f 357/5/6 358/5/6 360/5/6
f 354/5/6 355/5/6 360/5/6
f 355/5/6 356/5/6 360/5/6
f 360/5/6 358/5/6 361/5/6
f 362/3/6 363/3/6 366/3/6
f 366/3/6 363/3/6 367/3/6
f 364/1/6 365/1/6 368/1/6
f 368/1/6 365/1/6 369/1/6
f 370/3/6 371/3/6 372/3/6
f 372/3/6 371/3/6 373/3/6
f 374/2/6 375/2/6 378/2/6
f 378/2/6 375/2/6 379/2/6
f 376/3/6 377/3/6 381/3/6
f 381/3/6 377/3/6 382/3/6
f 379/2/6 380/2/6 383/2/6
f 383/2/6 380/2/6 384/2/6
f 385/2/6 386/2/6 387/2/6
f 387/2/6 386/2/6 388/2/6
f 389/2/6 390/2/6 391/2/6
f 391/2/6 390/2/6 392/2/6
