# MagicaVoxel @ Ephtracy

# group
o 

# material
mtllib balde pez 2-1.mtl
usemtl palette

# normals
vn -1 0 0
vn 1 0 0
vn 0 0 1
vn 0 0 -1
vn 0 -1 0
vn 0 1 0

# texcoords
vt 0.611328 0.5
vt 0.638672 0.5
vt 0.642578 0.5
vt 0.728516 0.5
vt 0.794922 0.5
vt 0.798828 0.5
vt 0.919922 0.5

# verts
v 5.8 5.8 8.8
v 5.8 5.8 8.7
v 5.8 5.9 8.8
v 5.8 5.9 8.7
v 5.9 5.1 9
v 5.9 5.1 8.6
v 5.9 5.3 9
v 5.9 5.3 8.6
v 5.9 5.4 9
v 5.9 5.4 8.6
v 5.9 5.6 9
v 5.9 5.6 8.6
v 5.9 5.7 8.7
v 5.9 5.7 8.6
v 5.9 5.8 8.7
v 5.9 5.8 8.6
v 6 5.1 9.1
v 6 5.1 9
v 6 5.1 8.6
v 6 5.1 8.5
v 6 5.3 9.1
v 6 5.3 9
v 6 5.3 8.6
v 6 5.3 8.5
v 6 5.4 9.1
v 6 5.4 9
v 6 5.4 8.6
v 6 5.4 8.5
v 6 5.6 9.1
v 6 5.6 9
v 6 5.6 8.7
v 6 5.6 8.6
v 6 5.6 8.5
v 6 5.7 8.7
v 6 5.7 8.6
v 6 5.7 8.5
v 6 5.8 8.6
v 6 5.8 8.5
v 6.1 5.8 8.5
v 6.1 5.8 8.4
v 6.1 5.9 8.5
v 6.1 5.9 8.4
v 6.3 5.5 8.9
v 6.3 5.5 8.7
v 6.3 5.6 9
v 6.3 5.6 8.9
v 6.3 5.6 8.7
v 6.3 5.6 8.6
v 6.3 5.7 8.9
v 6.3 5.7 8.7
v 6.3 5.8 9
v 6.3 5.8 8.9
v 6.3 5.8 8.7
v 6.3 5.8 8.6
v 6.4 5.3 9
v 6.4 5.3 8.9
v 6.4 5.3 8.7
v 6.4 5.3 8.6
v 6.4 5.4 9
v 6.4 5.4 8.9
v 6.4 5.4 8.7
v 6.4 5.4 8.6
v 6.4 5.5 8.7
v 6.4 5.6 9
v 6.4 5.6 8.9
v 6.4 5.6 8.7
v 6.4 5.6 8.6
v 5.9 5.8 8.8
v 5.9 5.8 8.7
v 5.9 5.9 8.8
v 5.9 5.9 8.7
v 6 5.3 9
v 6 5.3 8.9
v 6 5.3 8.7
v 6 5.3 8.6
v 6 5.4 9
v 6 5.4 8.9
v 6 5.4 8.7
v 6 5.4 8.6
v 6 5.5 8.9
v 6 5.5 8.8
v 6 5.6 9
v 6 5.6 8.8
v 6 5.7 8.7
v 6 5.7 8.6
v 6 5.8 8.7
v 6 5.8 8.6
v 6.1 5.6 8.7
v 6.1 5.6 8.6
v 6.1 5.7 8.7
v 6.1 5.7 8.6
v 6.1 5.7 8.5
v 6.1 5.8 8.6
v 6.1 5.8 8.5
v 6.2 5.5 8.8
v 6.2 5.5 8.7
v 6.2 5.5 8.6
v 6.2 5.6 8.8
v 6.2 5.6 8.6
v 6.2 5.8 8.5
v 6.2 5.8 8.4
v 6.2 5.9 8.5
v 6.2 5.9 8.4
v 6.3 5.4 8.7
v 6.3 5.4 8.6
v 6.3 5.5 8.7
v 6.3 5.5 8.6
v 6.4 5.1 9.1
v 6.4 5.1 9
v 6.4 5.1 8.6
v 6.4 5.1 8.5
v 6.4 5.3 9.1
v 6.4 5.3 9
v 6.4 5.3 8.6
v 6.4 5.3 8.5
v 6.4 5.4 9.1
v 6.4 5.4 9
v 6.4 5.4 8.6
v 6.4 5.4 8.5
v 6.4 5.6 9.1
v 6.4 5.6 9
v 6.4 5.6 8.6
v 6.4 5.6 8.5
v 6.4 5.7 8.9
v 6.4 5.7 8.7
v 6.4 5.8 9
v 6.4 5.8 8.9
v 6.4 5.8 8.7
v 6.4 5.8 8.6
v 6.5 5.1 9
v 6.5 5.1 8.6
v 6.5 5.3 9
v 6.5 5.3 8.6
v 6.5 5.4 9
v 6.5 5.4 8.6
v 6.5 5.6 9
v 6.5 5.6 8.6
v 6 5.1 9.1
v 6 5.3 9.1
v 6 5.4 9.1
v 6 5.6 9.1
v 6.4 5.1 9.1
v 6.4 5.3 9.1
v 6.4 5.4 9.1
v 6.4 5.6 9.1
v 5.9 5.1 9
v 5.9 5.3 9
v 5.9 5.4 9
v 5.9 5.6 9
v 6 5.1 9
v 6 5.3 9
v 6 5.4 9
v 6 5.6 9
v 6.3 5.6 9
v 6.3 5.8 9
v 6.4 5.1 9
v 6.4 5.3 9
v 6.4 5.4 9
v 6.4 5.6 9
v 6.4 5.8 9
v 6.5 5.1 9
v 6.5 5.3 9
v 6.5 5.4 9
v 6.5 5.6 9
v 6 5.3 8.9
v 6 5.4 8.9
v 6 5.5 8.9
v 6.1 5.4 8.9
v 6.1 5.5 8.9
v 6.3 5.5 8.9
v 6.3 5.6 8.9
v 6.4 5.3 8.9
v 6.4 5.4 8.9
v 6.4 5.6 8.9
v 5.8 5.8 8.8
v 5.8 5.9 8.8
v 5.9 5.8 8.8
v 5.9 5.9 8.8
v 6 5.5 8.8
v 6 5.6 8.8
v 6.1 5.5 8.8
v 6.2 5.5 8.8
v 6.2 5.6 8.8
v 5.9 5.7 8.7
v 5.9 5.8 8.7
v 6 5.6 8.7
v 6 5.7 8.7
v 6 5.8 8.7
v 6.1 5.6 8.7
v 6.1 5.7 8.7
v 6.3 5.7 8.7
v 6.3 5.8 8.7
v 6.4 5.7 8.7
v 6.4 5.8 8.7
v 6 5.3 8.6
v 6 5.4 8.6
v 6 5.7 8.6
v 6 5.8 8.6
v 6.1 5.7 8.6
v 6.1 5.8 8.6
v 6.2 5.4 8.6
v 6.2 5.5 8.6
v 6.2 5.6 8.6
v 6.3 5.4 8.6
v 6.3 5.5 8.6
v 6.3 5.6 8.6
v 6.4 5.3 8.6
v 6.4 5.4 8.6
v 6.4 5.6 8.6
v 6.1 5.8 8.5
v 6.1 5.9 8.5
v 6.2 5.8 8.5
v 6.2 5.9 8.5
v 6 5.3 9
v 6 5.4 9
v 6 5.6 9
v 6.3 5.6 9
v 6.4 5.3 9
v 6.4 5.4 9
v 6.4 5.6 9
v 6.3 5.7 8.9
v 6.3 5.8 8.9
v 6.4 5.7 8.9
v 6.4 5.8 8.9
v 5.8 5.8 8.7
v 5.8 5.9 8.7
v 5.9 5.8 8.7
v 5.9 5.9 8.7
v 6 5.3 8.7
v 6 5.4 8.7
v 6.2 5.4 8.7
v 6.3 5.4 8.7
v 6.3 5.5 8.7
v 6.3 5.6 8.7
v 6.4 5.3 8.7
v 6.4 5.4 8.7
v 6.4 5.5 8.7
v 6.4 5.6 8.7
v 5.9 5.1 8.6
v 5.9 5.3 8.6
v 5.9 5.4 8.6
v 5.9 5.6 8.6
v 5.9 5.7 8.6
v 5.9 5.8 8.6
v 6 5.1 8.6
v 6 5.3 8.6
v 6 5.4 8.6
v 6 5.6 8.6
v 6 5.7 8.6
v 6 5.8 8.6
v 6.1 5.6 8.6
v 6.1 5.7 8.6
v 6.3 5.6 8.6
v 6.3 5.8 8.6
v 6.4 5.1 8.6
v 6.4 5.3 8.6
v 6.4 5.4 8.6
v 6.4 5.6 8.6
v 6.4 5.8 8.6
v 6.5 5.1 8.6
v 6.5 5.3 8.6
v 6.5 5.4 8.6
v 6.5 5.6 8.6
v 6 5.1 8.5
v 6 5.3 8.5
v 6 5.4 8.5
v 6 5.6 8.5
v 6 5.7 8.5
v 6 5.8 8.5
v 6.1 5.7 8.5
v 6.1 5.8 8.5
v 6.4 5.1 8.5
v 6.4 5.3 8.5
v 6.4 5.4 8.5
v 6.4 5.6 8.5
v 6.1 5.8 8.4
v 6.1 5.9 8.4
v 6.2 5.8 8.4
v 6.2 5.9 8.4
v 6 5.1 9.1
v 6.4 5.1 9.1
v 5.9 5.1 9
v 6 5.1 9
v 6.4 5.1 9
v 6.5 5.1 9
v 5.9 5.1 8.6
v 6 5.1 8.6
v 6.4 5.1 8.6
v 6.5 5.1 8.6
v 6 5.1 8.5
v 6.4 5.1 8.5
v 6 5.4 8.7
v 6.2 5.4 8.7
v 6.3 5.4 8.7
v 6 5.4 8.6
v 6.2 5.4 8.6
v 6.3 5.4 8.6
v 6.3 5.6 9
v 6.4 5.6 9
v 6.3 5.6 8.9
v 6.4 5.6 8.9
v 6.3 5.6 8.7
v 6.4 5.6 8.7
v 6.3 5.6 8.6
v 6.4 5.6 8.6
v 5.9 5.7 8.7
v 6 5.7 8.7
v 5.9 5.7 8.6
v 6 5.7 8.6
v 6.1 5.7 8.6
v 6 5.7 8.5
v 6.1 5.7 8.5
v 5.8 5.8 8.8
v 5.9 5.8 8.8
v 5.8 5.8 8.7
v 5.9 5.8 8.7
v 6.1 5.8 8.5
v 6.2 5.8 8.5
v 6.1 5.8 8.4
v 6.2 5.8 8.4
v 6 5.3 9
v 6.4 5.3 9
v 6 5.3 8.9
v 6.4 5.3 8.9
v 6 5.3 8.7
v 6.4 5.3 8.7
v 6 5.3 8.6
v 6.4 5.3 8.6
v 6 5.5 8.9
v 6.1 5.5 8.9
v 6.3 5.5 8.9
v 6 5.5 8.8
v 6.1 5.5 8.8
v 6.2 5.5 8.8
v 6.2 5.5 8.7
v 6.3 5.5 8.7
v 6.2 5.5 8.6
v 6.3 5.5 8.6
v 6 5.6 9.1
v 6.4 5.6 9.1
v 5.9 5.6 9
v 6 5.6 9
v 6.3 5.6 9
v 6.4 5.6 9
v 6.5 5.6 9
v 6 5.6 8.8
v 6.2 5.6 8.8
v 6 5.6 8.7
v 6.1 5.6 8.7
v 5.9 5.6 8.6
v 6 5.6 8.6
v 6.1 5.6 8.6
v 6.2 5.6 8.6
v 6.3 5.6 8.6
v 6.4 5.6 8.6
v 6.5 5.6 8.6
v 6 5.6 8.5
v 6.4 5.6 8.5
v 6.3 5.7 8.9
v 6.4 5.7 8.9
v 6 5.7 8.7
v 6.1 5.7 8.7
v 6.3 5.7 8.7
v 6.4 5.7 8.7
v 6 5.7 8.6
v 6.1 5.7 8.6
v 6.3 5.8 9
v 6.4 5.8 9
v 6.3 5.8 8.9
v 6.4 5.8 8.9
v 5.9 5.8 8.7
v 6 5.8 8.7
v 6.3 5.8 8.7
v 6.4 5.8 8.7
v 5.9 5.8 8.6
v 6 5.8 8.6
v 6.1 5.8 8.6
v 6.3 5.8 8.6
v 6.4 5.8 8.6
v 6 5.8 8.5
v 6.1 5.8 8.5
v 5.8 5.9 8.8
v 5.9 5.9 8.8
v 5.8 5.9 8.7
v 5.9 5.9 8.7
v 6.1 5.9 8.5
v 6.2 5.9 8.5
v 6.1 5.9 8.4
v 6.2 5.9 8.4

# faces
f 3/1/1 2/1/1 1/1/1
f 4/1/1 2/1/1 3/1/1
f 7/4/1 6/4/1 5/4/1
f 8/4/1 6/4/1 7/4/1
f 9/7/1 8/7/1 7/7/1
f 10/7/1 8/7/1 9/7/1
f 11/4/1 10/4/1 9/4/1
f 12/4/1 10/4/1 11/4/1
f 15/1/1 14/1/1 13/1/1
f 16/1/1 14/1/1 15/1/1
f 21/4/1 18/4/1 17/4/1
f 22/4/1 18/4/1 21/4/1
f 23/4/1 20/4/1 19/4/1
f 24/4/1 20/4/1 23/4/1
f 25/7/1 22/7/1 21/7/1
f 26/7/1 22/7/1 25/7/1
f 27/7/1 24/7/1 23/7/1
f 28/7/1 24/7/1 27/7/1
f 29/4/1 26/4/1 25/4/1
f 30/4/1 26/4/1 29/4/1
f 32/4/1 28/4/1 27/4/1
f 33/4/1 28/4/1 32/4/1
f 34/1/1 32/1/1 31/1/1
f 35/1/1 32/1/1 34/1/1
f 37/1/1 36/1/1 35/1/1
f 38/1/1 36/1/1 37/1/1
f 41/1/1 40/1/1 39/1/1
f 42/1/1 40/1/1 41/1/1
f 46/2/1 44/2/1 43/2/1
f 47/2/1 44/2/1 46/2/1
f 49/2/1 46/2/1 45/2/1
f 49/2/1 48/2/1 47/2/1
f 49/2/1 47/2/1 46/2/1
f 50/2/1 48/2/1 49/2/1
f 51/2/1 49/2/1 45/2/1
f 52/2/1 49/2/1 51/2/1
f 53/2/1 48/2/1 50/2/1
f 54/2/1 48/2/1 53/2/1
f 59/7/1 56/7/1 55/7/1
f 60/7/1 56/7/1 59/7/1
f 61/7/1 58/7/1 57/7/1
f 62/7/1 58/7/1 61/7/1
f 63/4/1 62/4/1 61/4/1
f 64/4/1 60/4/1 59/4/1
f 65/4/1 60/4/1 64/4/1
f 66/4/1 62/4/1 63/4/1
f 67/4/1 62/4/1 66/4/1
f 68/1/2 69/1/2 70/1/2
f 70/1/2 69/1/2 71/1/2
f 72/7/2 73/7/2 76/7/2
f 76/7/2 73/7/2 77/7/2
f 74/7/2 75/7/2 78/7/2
f 78/7/2 75/7/2 79/7/2
f 76/4/2 77/4/2 80/4/2
f 76/4/2 80/4/2 82/4/2
f 80/4/2 81/4/2 82/4/2
f 82/4/2 81/4/2 83/4/2
f 84/1/2 85/1/2 86/1/2
f 86/1/2 85/1/2 87/1/2
f 88/1/2 89/1/2 90/1/2
f 90/1/2 89/1/2 91/1/2
f 91/1/2 92/1/2 93/1/2
f 93/1/2 92/1/2 94/1/2
f 95/1/2 96/1/2 98/1/2
f 96/1/2 97/1/2 98/1/2
f 98/1/2 97/1/2 99/1/2
f 100/1/2 101/1/2 102/1/2
f 102/1/2 101/1/2 103/1/2
f 104/1/2 105/1/2 106/1/2
f 106/1/2 105/1/2 107/1/2
f 108/4/2 109/4/2 112/4/2
f 112/4/2 109/4/2 113/4/2
f 110/4/2 111/4/2 114/4/2
f 114/4/2 111/4/2 115/4/2
f 112/7/2 113/7/2 116/7/2
f 116/7/2 113/7/2 117/7/2
f 114/7/2 115/7/2 118/7/2
f 118/7/2 115/7/2 119/7/2
f 116/4/2 117/4/2 120/4/2
f 120/4/2 117/4/2 121/4/2
f 118/4/2 119/4/2 122/4/2
f 122/4/2 119/4/2 123/4/2
f 121/2/2 122/2/2 124/2/2
f 124/2/2 122/2/2 125/2/2
f 121/2/2 124/2/2 126/2/2
f 126/2/2 124/2/2 127/2/2
f 125/2/2 122/2/2 128/2/2
f 128/2/2 122/2/2 129/2/2
f 130/4/2 131/4/2 132/4/2
f 132/4/2 131/4/2 133/4/2
f 132/7/2 133/7/2 134/7/2
f 134/7/2 133/7/2 135/7/2
f 134/4/2 135/4/2 136/4/2
f 136/4/2 135/4/2 137/4/2
f 142/4/3 139/4/3 138/4/3
f 143/7/3 140/7/3 139/7/3
f 143/4/3 139/4/3 142/4/3
f 144/4/3 141/4/3 140/4/3
f 144/7/3 140/7/3 143/7/3
f 145/4/3 141/4/3 144/4/3
f 150/4/3 147/4/3 146/4/3
f 151/7/3 148/7/3 147/7/3
f 151/4/3 147/4/3 150/4/3
f 152/4/3 149/4/3 148/4/3
f 152/7/3 148/7/3 151/7/3
f 153/4/3 149/4/3 152/4/3
f 159/2/3 155/2/3 154/2/3
f 160/2/3 155/2/3 159/2/3
f 161/4/3 157/4/3 156/4/3
f 162/7/3 158/7/3 157/7/3
f 162/4/3 157/4/3 161/4/3
f 163/4/3 159/4/3 158/4/3
f 163/7/3 158/7/3 162/7/3
f 164/4/3 159/4/3 163/4/3
f 168/2/3 166/2/3 165/2/3
f 168/1/3 167/1/3 166/1/3
f 169/1/3 167/1/3 168/1/3
f 170/2/3 169/2/3 168/2/3
f 172/2/3 168/2/3 165/2/3
f 172/2/3 171/2/3 170/2/3
f 172/2/3 170/2/3 168/2/3
f 173/2/3 171/2/3 172/2/3
f 174/2/3 171/2/3 173/2/3
f 177/1/3 176/1/3 175/1/3
f 178/1/3 176/1/3 177/1/3
f 181/1/3 180/1/3 179/1/3
f 182/1/3 180/1/3 181/1/3
f 183/1/3 180/1/3 182/1/3
f 187/1/3 185/1/3 184/1/3
f 188/1/3 185/1/3 187/1/3
f 189/1/3 187/1/3 186/1/3
f 190/1/3 187/1/3 189/1/3
f 193/2/3 192/2/3 191/2/3
f 194/2/3 192/2/3 193/2/3
f 199/1/3 198/1/3 197/1/3
f 200/1/3 198/1/3 199/1/3
f 201/7/3 196/7/3 195/7/3
f 204/7/3 201/7/3 195/7/3
f 205/4/3 203/4/3 202/4/3
f 206/4/3 203/4/3 205/4/3
f 207/7/3 204/7/3 195/7/3
f 208/4/3 205/4/3 204/4/3
f 208/7/3 204/7/3 207/7/3
f 208/4/3 206/4/3 205/4/3
f 209/4/3 206/4/3 208/4/3
f 212/1/3 211/1/3 210/1/3
f 213/1/3 211/1/3 212/1/3
f 215/4/4 216/4/4 217/4/4
f 214/7/4 215/7/4 218/7/4
f 215/4/4 217/4/4 219/4/4
f 218/7/4 215/7/4 219/7/4
f 219/4/4 217/4/4 220/4/4
f 221/2/4 222/2/4 223/2/4
f 223/2/4 222/2/4 224/2/4
f 225/1/4 226/1/4 227/1/4
f 227/1/4 226/1/4 228/1/4
f 229/6/4 230/6/4 231/6/4
f 229/6/4 231/6/4 232/6/4
f 229/6/4 232/6/4 235/6/4
f 232/6/4 233/6/4 235/6/4
f 235/6/4 233/6/4 236/6/4
f 233/2/4 234/2/4 237/2/4
f 236/6/4 233/6/4 237/6/4
f 237/2/4 234/2/4 238/2/4
f 239/4/4 240/4/4 245/4/4
f 240/7/4 241/7/4 246/7/4
f 245/4/4 240/4/4 246/4/4
f 241/4/4 242/4/4 247/4/4
f 246/7/4 241/7/4 247/7/4
f 247/4/4 242/4/4 248/4/4
f 243/1/4 244/1/4 249/1/4
f 249/1/4 244/1/4 250/1/4
f 248/1/4 249/1/4 251/1/4
f 251/1/4 249/1/4 252/1/4
f 253/2/4 254/2/4 258/2/4
f 258/2/4 254/2/4 259/2/4
f 255/4/4 256/4/4 260/4/4
f 256/7/4 257/7/4 261/7/4
f 260/4/4 256/4/4 261/4/4
f 257/4/4 258/4/4 262/4/4
f 261/7/4 257/7/4 262/7/4
f 262/4/4 258/4/4 263/4/4
f 268/1/4 269/1/4 270/1/4
f 270/1/4 269/1/4 271/1/4
f 264/4/4 265/4/4 272/4/4
f 265/7/4 266/7/4 273/7/4
f 272/4/4 265/4/4 273/4/4
f 266/4/4 267/4/4 274/4/4
f 273/7/4 266/7/4 274/7/4
f 274/4/4 267/4/4 275/4/4
f 276/1/4 277/1/4 278/1/4
f 278/1/4 277/1/4 279/1/4
f 283/4/5 281/4/5 280/4/5
f 284/4/5 281/4/5 283/4/5
f 286/4/5 283/4/5 282/4/5
f 286/4/5 285/4/5 284/4/5
f 286/4/5 284/4/5 283/4/5
f 287/4/5 285/4/5 286/4/5
f 288/4/5 285/4/5 287/4/5
f 289/4/5 285/4/5 288/4/5
f 290/4/5 288/4/5 287/4/5
f 291/4/5 288/4/5 290/4/5
f 295/3/5 293/3/5 292/3/5
f 296/1/5 294/1/5 293/1/5
f 296/3/5 293/3/5 295/3/5
f 297/1/5 294/1/5 296/1/5
f 300/2/5 299/2/5 298/2/5
f 301/2/5 299/2/5 300/2/5
f 304/2/5 303/2/5 302/2/5
f 305/2/5 303/2/5 304/2/5
f 308/1/5 307/1/5 306/1/5
f 309/1/5 307/1/5 308/1/5
f 311/1/5 310/1/5 309/1/5
f 312/1/5 310/1/5 311/1/5
f 315/1/5 314/1/5 313/1/5
f 316/1/5 314/1/5 315/1/5
f 319/1/5 318/1/5 317/1/5
f 320/1/5 318/1/5 319/1/5
f 321/5/6 322/5/6 323/5/6
f 323/5/6 322/5/6 324/5/6
f 325/4/6 326/4/6 327/4/6
f 327/4/6 326/4/6 328/4/6
f 329/1/6 330/1/6 332/1/6
f 330/2/6 331/2/6 333/2/6
f 332/1/6 330/1/6 333/1/6
f 333/2/6 331/2/6 334/2/6
f 334/2/6 331/2/6 335/2/6
f 335/2/6 331/2/6 336/2/6
f 335/1/6 336/1/6 337/1/6
f 337/1/6 336/1/6 338/1/6
f 339/4/6 340/4/6 342/4/6
f 342/4/6 340/4/6 343/4/6
f 343/4/6 340/4/6 344/4/6
f 341/4/6 342/4/6 346/4/6
f 341/4/6 346/4/6 348/4/6
f 346/1/6 347/1/6 348/1/6
f 348/1/6 347/1/6 349/1/6
f 341/4/6 348/4/6 350/4/6
f 350/4/6 348/4/6 351/4/6
f 349/1/6 347/1/6 352/1/6
f 352/1/6 347/1/6 353/1/6
f 344/4/6 345/4/6 355/4/6
f 355/4/6 345/4/6 356/4/6
f 353/4/6 354/4/6 357/4/6
f 354/4/6 355/4/6 357/4/6
f 351/4/6 352/4/6 357/4/6
f 352/4/6 353/4/6 357/4/6
f 357/4/6 355/4/6 358/4/6
f 359/2/6 360/2/6 363/2/6
f 363/2/6 360/2/6 364/2/6
f 361/1/6 362/1/6 365/1/6
f 365/1/6 362/1/6 366/1/6
f 367/2/6 368/2/6 369/2/6
f 369/2/6 368/2/6 370/2/6
f 371/1/6 372/1/6 375/1/6
f 375/1/6 372/1/6 376/1/6
f 373/2/6 374/2/6 378/2/6
f 378/2/6 374/2/6 379/2/6
f 376/1/6 377/1/6 380/1/6
f 380/1/6 377/1/6 381/1/6
f 382/1/6 383/1/6 384/1/6
f 384/1/6 383/1/6 385/1/6
f 386/1/6 387/1/6 388/1/6
f 388/1/6 387/1/6 389/1/6
