# MagicaVoxel @ Ephtracy

# group
o 

# material
mtllib barril gusanos.mtl
usemtl palette

# normals
vn -1 0 0
vn 1 0 0
vn 0 0 1
vn 0 0 -1
vn 0 -1 0
vn 0 1 0

# texcoords
vt 0.412109 0.5
vt 0.416016 0.5
vt 0.423828 0.5
vt 0.736328 0.5
vt 0.927734 0.5

# verts
v -0.3 0.1 -0.1
v -0.3 0.1 -0.7
v -0.3 0.2 -0.1
v -0.3 0.2 -0.7
v -0.3 0.3 -0.1
v -0.3 0.3 -0.7
v -0.3 0.4 -0.1
v -0.3 0.4 -0.7
v -0.3 0.5 -0.1
v -0.3 0.5 -0.7
v -0.3 0.6 -0.1
v -0.3 0.6 -0.2
v -0.3 0.6 -0.6
v -0.3 0.6 -0.7
v -0.3 0.7 -0.2
v -0.3 0.7 -0.6
v -0.2 0 -0.2
v -0.2 0 -0.6
v -0.2 0.1 -0.2
v -0.2 0.1 -0.6
v -0.2 0.6 -0.1
v -0.2 0.6 -0.2
v -0.2 0.6 -0.6
v -0.2 0.6 -0.7
v -0.2 0.7 -0.1
v -0.2 0.7 -0.2
v -0.2 0.7 -0.6
v -0.2 0.7 -0.7
v 0.2 0.5 -0.2
v 0.2 0.5 -0.3
v 0.2 0.5 -0.4
v 0.2 0.5 -0.5
v 0.2 0.5 -0.6
v 0.2 0.6 -0.2
v 0.2 0.6 -0.6
v 0.2 0.7 -0.2
v 0.2 0.7 -0.6
v -0.2 0.5 -0.2
v -0.2 0.5 -0.3
v -0.2 0.5 -0.4
v -0.2 0.5 -0.5
v -0.2 0.5 -0.6
v -0.2 0.6 -0.2
v -0.2 0.6 -0.6
v -0.2 0.7 -0.2
v -0.2 0.7 -0.6
v 0.2 0 -0.2
v 0.2 0 -0.6
v 0.2 0.1 -0.2
v 0.2 0.1 -0.6
v 0.2 0.6 -0.1
v 0.2 0.6 -0.2
v 0.2 0.6 -0.6
v 0.2 0.6 -0.7
v 0.2 0.7 -0.1
v 0.2 0.7 -0.2
v 0.2 0.7 -0.6
v 0.2 0.7 -0.7
v 0.3 0.1 -0.1
v 0.3 0.1 -0.7
v 0.3 0.2 -0.1
v 0.3 0.2 -0.7
v 0.3 0.3 -0.1
v 0.3 0.3 -0.7
v 0.3 0.4 -0.1
v 0.3 0.4 -0.7
v 0.3 0.5 -0.1
v 0.3 0.5 -0.7
v 0.3 0.6 -0.1
v 0.3 0.6 -0.2
v 0.3 0.6 -0.6
v 0.3 0.6 -0.7
v 0.3 0.7 -0.2
v 0.3 0.7 -0.6
v -0.3 0.1 -0.1
v -0.3 0.2 -0.1
v -0.3 0.3 -0.1
v -0.3 0.4 -0.1
v -0.3 0.5 -0.1
v -0.3 0.6 -0.1
v -0.2 0.6 -0.1
v -0.2 0.7 -0.1
v 0.2 0.6 -0.1
v 0.2 0.7 -0.1
v 0.3 0.1 -0.1
v 0.3 0.2 -0.1
v 0.3 0.3 -0.1
v 0.3 0.4 -0.1
v 0.3 0.5 -0.1
v 0.3 0.6 -0.1
v -0.3 0.6 -0.2
v -0.3 0.7 -0.2
v -0.2 0 -0.2
v -0.2 0.1 -0.2
v -0.2 0.6 -0.2
v -0.2 0.7 -0.2
v 0.2 0 -0.2
v 0.2 0.1 -0.2
v 0.2 0.6 -0.2
v 0.2 0.7 -0.2
v 0.3 0.6 -0.2
v 0.3 0.7 -0.2
v -0.2 0.5 -0.6
v -0.2 0.6 -0.6
v -0.2 0.7 -0.6
v -0.1 0.5 -0.6
v 2.98023e-08 0.5 -0.6
v 0.1 0.5 -0.6
v 0.2 0.5 -0.6
v 0.2 0.6 -0.6
v 0.2 0.7 -0.6
v -0.2 0.5 -0.2
v -0.2 0.6 -0.2
v -0.2 0.7 -0.2
v -0.1 0.5 -0.2
v 2.98023e-08 0.5 -0.2
v 0.1 0.5 -0.2
v 0.2 0.5 -0.2
v 0.2 0.6 -0.2
v 0.2 0.7 -0.2
v -0.3 0.6 -0.6
v -0.3 0.7 -0.6
v -0.2 0 -0.6
v -0.2 0.1 -0.6
v -0.2 0.6 -0.6
v -0.2 0.7 -0.6
v 0.2 0 -0.6
v 0.2 0.1 -0.6
v 0.2 0.6 -0.6
v 0.2 0.7 -0.6
v 0.3 0.6 -0.6
v 0.3 0.7 -0.6
v -0.3 0.1 -0.7
v -0.3 0.2 -0.7
v -0.3 0.3 -0.7
v -0.3 0.4 -0.7
v -0.3 0.5 -0.7
v -0.3 0.6 -0.7
v -0.2 0.6 -0.7
v -0.2 0.7 -0.7
v 0.2 0.6 -0.7
v 0.2 0.7 -0.7
v 0.3 0.1 -0.7
v 0.3 0.2 -0.7
v 0.3 0.3 -0.7
v 0.3 0.4 -0.7
v 0.3 0.5 -0.7
v 0.3 0.6 -0.7
v -0.2 0 -0.2
v 0.2 0 -0.2
v -0.2 0 -0.6
v 0.2 0 -0.6
v -0.3 0.1 -0.1
v 0.3 0.1 -0.1
v -0.2 0.1 -0.2
v 0.2 0.1 -0.2
v -0.2 0.1 -0.6
v 0.2 0.1 -0.6
v -0.3 0.1 -0.7
v 0.3 0.1 -0.7
v -0.2 0.5 -0.2
v -0.1 0.5 -0.2
v 2.98023e-08 0.5 -0.2
v 0.1 0.5 -0.2
v 0.2 0.5 -0.2
v -0.2 0.5 -0.3
v -0.1 0.5 -0.3
v 2.98023e-08 0.5 -0.3
v 0.1 0.5 -0.3
v 0.2 0.5 -0.3
v -0.2 0.5 -0.4
v -0.1 0.5 -0.4
v 2.98023e-08 0.5 -0.4
v 0.1 0.5 -0.4
v 0.2 0.5 -0.4
v -0.2 0.5 -0.5
v -0.1 0.5 -0.5
v 2.98023e-08 0.5 -0.5
v 0.1 0.5 -0.5
v 0.2 0.5 -0.5
v -0.2 0.5 -0.6
v -0.1 0.5 -0.6
v 2.98023e-08 0.5 -0.6
v 0.1 0.5 -0.6
v 0.2 0.5 -0.6
v -0.3 0.6 -0.1
v -0.2 0.6 -0.1
v 0.2 0.6 -0.1
v 0.3 0.6 -0.1
v -0.3 0.6 -0.2
v -0.2 0.6 -0.2
v 0.2 0.6 -0.2
v 0.3 0.6 -0.2
v -0.3 0.6 -0.6
v -0.2 0.6 -0.6
v 0.2 0.6 -0.6
v 0.3 0.6 -0.6
v -0.3 0.6 -0.7
v -0.2 0.6 -0.7
v 0.2 0.6 -0.7
v 0.3 0.6 -0.7
v -0.2 0.7 -0.1
v 0.2 0.7 -0.1
v -0.3 0.7 -0.2
v -0.2 0.7 -0.2
v 0.2 0.7 -0.2
v 0.3 0.7 -0.2
v -0.3 0.7 -0.6
v -0.2 0.7 -0.6
v 0.2 0.7 -0.6
v 0.3 0.7 -0.6
v -0.2 0.7 -0.7
v 0.2 0.7 -0.7

# faces
f 3/5/1 2/5/1 1/5/1
f 4/5/1 2/5/1 3/5/1
f 5/4/1 4/4/1 3/4/1
f 6/4/1 4/4/1 5/4/1
f 7/5/1 6/5/1 5/5/1
f 8/5/1 6/5/1 7/5/1
f 9/4/1 8/4/1 7/4/1
f 10/4/1 8/4/1 9/4/1
f 11/5/1 10/5/1 9/5/1
f 12/5/1 10/5/1 11/5/1
f 13/5/1 10/5/1 12/5/1
f 14/5/1 10/5/1 13/5/1
f 15/4/1 13/4/1 12/4/1
f 16/4/1 13/4/1 15/4/1
f 19/4/1 18/4/1 17/4/1
f 20/4/1 18/4/1 19/4/1
f 25/4/1 22/4/1 21/4/1
f 26/4/1 22/4/1 25/4/1
f 27/4/1 24/4/1 23/4/1
f 28/4/1 24/4/1 27/4/1
f 34/5/1 30/5/1 29/5/1
f 34/5/1 33/5/1 32/5/1
f 34/5/1 32/5/1 31/5/1
f 34/5/1 31/5/1 30/5/1
f 35/5/1 33/5/1 34/5/1
f 36/4/1 35/4/1 34/4/1
f 37/4/1 35/4/1 36/4/1
f 38/5/2 39/5/2 43/5/2
f 41/5/2 42/5/2 43/5/2
f 40/5/2 41/5/2 43/5/2
f 39/5/2 40/5/2 43/5/2
f 43/5/2 42/5/2 44/5/2
f 43/4/2 44/4/2 45/4/2
f 45/4/2 44/4/2 46/4/2
f 47/4/2 48/4/2 49/4/2
f 49/4/2 48/4/2 50/4/2
f 51/4/2 52/4/2 55/4/2
f 55/4/2 52/4/2 56/4/2
f 53/4/2 54/4/2 57/4/2
f 57/4/2 54/4/2 58/4/2
f 59/5/2 60/5/2 61/5/2
f 61/5/2 60/5/2 62/5/2
f 61/4/2 62/4/2 63/4/2
f 63/4/2 62/4/2 64/4/2
f 63/5/2 64/5/2 65/5/2
f 65/5/2 64/5/2 66/5/2
f 65/4/2 66/4/2 67/4/2
f 67/4/2 66/4/2 68/4/2
f 67/5/2 68/5/2 69/5/2
f 69/5/2 68/5/2 70/5/2
f 70/5/2 68/5/2 71/5/2
f 71/5/2 68/5/2 72/5/2
f 70/4/2 71/4/2 73/4/2
f 73/4/2 71/4/2 74/4/2
f 81/5/3 80/5/3 79/5/3
f 83/5/3 81/5/3 79/5/3
f 83/4/3 82/4/3 81/4/3
f 84/4/3 82/4/3 83/4/3
f 85/5/3 76/5/3 75/5/3
f 86/4/3 77/4/3 76/4/3
f 86/5/3 76/5/3 85/5/3
f 87/5/3 78/5/3 77/5/3
f 87/4/3 77/4/3 86/4/3
f 88/4/3 79/4/3 78/4/3
f 88/5/3 78/5/3 87/5/3
f 89/5/3 83/5/3 79/5/3
f 89/4/3 79/4/3 88/4/3
f 90/5/3 83/5/3 89/5/3
f 95/4/3 92/4/3 91/4/3
f 96/4/3 92/4/3 95/4/3
f 97/4/3 94/4/3 93/4/3
f 98/4/3 94/4/3 97/4/3
f 101/4/3 100/4/3 99/4/3
f 102/4/3 100/4/3 101/4/3
f 106/5/3 104/5/3 103/5/3
f 107/5/3 104/5/3 106/5/3
f 108/5/3 104/5/3 107/5/3
f 109/5/3 104/5/3 108/5/3
f 110/4/3 105/4/3 104/4/3
f 110/5/3 104/5/3 109/5/3
f 111/4/3 105/4/3 110/4/3
f 112/5/4 113/5/4 115/5/4
f 115/5/4 113/5/4 116/5/4
f 116/5/4 113/5/4 117/5/4
f 117/5/4 113/5/4 118/5/4
f 113/4/4 114/4/4 119/4/4
f 118/5/4 113/5/4 119/5/4
f 119/4/4 114/4/4 120/4/4
f 121/4/4 122/4/4 125/4/4
f 125/4/4 122/4/4 126/4/4
f 123/4/4 124/4/4 127/4/4
f 127/4/4 124/4/4 128/4/4
f 129/4/4 130/4/4 131/4/4
f 131/4/4 130/4/4 132/4/4
f 137/5/4 138/5/4 139/5/4
f 137/5/4 139/5/4 141/5/4
f 139/4/4 140/4/4 141/4/4
f 141/4/4 140/4/4 142/4/4
f 133/5/4 134/5/4 143/5/4
f 134/4/4 135/4/4 144/4/4
f 143/5/4 134/5/4 144/5/4
f 135/5/4 136/5/4 145/5/4
f 144/4/4 135/4/4 145/4/4
f 136/4/4 137/4/4 146/4/4
f 145/5/4 136/5/4 146/5/4
f 137/5/4 141/5/4 147/5/4
f 146/4/4 137/4/4 147/4/4
f 147/5/4 141/5/4 148/5/4
f 151/4/5 150/4/5 149/4/5
f 152/4/5 150/4/5 151/4/5
f 155/5/5 154/5/5 153/5/5
f 156/5/5 154/5/5 155/5/5
f 157/5/5 155/5/5 153/5/5
f 158/5/5 154/5/5 156/5/5
f 159/5/5 157/5/5 153/5/5
f 159/5/5 158/5/5 157/5/5
f 160/5/5 154/5/5 158/5/5
f 160/5/5 158/5/5 159/5/5
f 161/2/6 162/2/6 166/2/6
f 162/1/6 163/1/6 167/1/6
f 166/2/6 162/2/6 167/2/6
f 163/3/6 164/3/6 168/3/6
f 167/1/6 163/1/6 168/1/6
f 164/2/6 165/2/6 169/2/6
f 168/3/6 164/3/6 169/3/6
f 169/2/6 165/2/6 170/2/6
f 166/1/6 167/1/6 171/1/6
f 167/3/6 168/3/6 172/3/6
f 171/1/6 167/1/6 172/1/6
f 168/3/6 169/3/6 172/3/6
f 172/3/6 169/3/6 173/3/6
f 169/1/6 170/1/6 174/1/6
f 173/3/6 169/3/6 174/3/6
f 174/1/6 170/1/6 175/1/6
f 172/3/6 173/3/6 176/3/6
f 171/3/6 172/3/6 176/3/6
f 176/3/6 173/3/6 177/3/6
f 173/1/6 174/1/6 178/1/6
f 177/3/6 173/3/6 178/3/6
f 174/3/6 175/3/6 179/3/6
f 178/1/6 174/1/6 179/1/6
f 179/3/6 175/3/6 180/3/6
f 176/2/6 177/2/6 181/2/6
f 177/3/6 178/3/6 182/3/6
f 181/2/6 177/2/6 182/2/6
f 178/2/6 179/2/6 183/2/6
f 182/3/6 178/3/6 183/3/6
f 179/1/6 180/1/6 184/1/6
f 183/2/6 179/2/6 184/2/6
f 184/1/6 180/1/6 185/1/6
f 186/5/6 187/5/6 190/5/6
f 190/5/6 187/5/6 191/5/6
f 188/5/6 189/5/6 192/5/6
f 192/5/6 189/5/6 193/5/6
f 194/5/6 195/5/6 198/5/6
f 198/5/6 195/5/6 199/5/6
f 196/5/6 197/5/6 200/5/6
f 200/5/6 197/5/6 201/5/6
f 202/4/6 203/4/6 205/4/6
f 205/4/6 203/4/6 206/4/6
f 204/4/6 205/4/6 208/4/6
f 208/4/6 205/4/6 209/4/6
f 206/4/6 207/4/6 210/4/6
f 210/4/6 207/4/6 211/4/6
f 209/4/6 210/4/6 212/4/6
f 212/4/6 210/4/6 213/4/6
