# MagicaVoxel @ Ephtracy

# group
o 

# material
mtllib cabeza pez.mtl
usemtl palette

# normals
vn -1 0 0
vn 1 0 0
vn 0 0 1
vn 0 0 -1
vn 0 -1 0
vn 0 1 0

# texcoords
vt 0.458984 0.5
vt 0.798828 0.5
vt 0.802734 0.5
vt 0.888672 0.5
vt 0.943359 0.5

# verts
v 0.1 0.9 0.2
v 0.1 0.9 0.1
v 0.1 1 0.2
v 0.1 1 0.1
v 0.2 0.6 0.4
v 0.2 0.6 0.3
v 0.2 0.6 0.2
v 0.2 0.6 0.1
v 0.2 0.6 0
v 0.2 0.6 -0.1
v 0.2 0.7 0.4
v 0.2 0.7 0.3
v 0.2 0.7 0.2
v 0.2 0.7 0.1
v 0.2 0.7 0
v 0.2 0.7 -0.1
v 0.2 0.8 0.3
v 0.2 0.8 0.2
v 0.2 0.8 0.1
v 0.2 0.8 0
v 0.2 0.9 0.2
v 0.2 0.9 0.1
v 0.4 0.8 0.2
v 0.4 0.8 0.1
v 0.4 1 0.2
v 0.4 1 0.1
v 0.5 0.6 0.4
v 0.5 0.6 0.3
v 0.5 0.6 0
v 0.5 0.6 -0.1
v 0.5 0.7 0.4
v 0.5 0.7 0.3
v 0.5 0.7 0
v 0.5 0.7 -0.1
v 0.5 0.8 0.3
v 0.5 0.8 0
v 0.6 0.6 0.3
v 0.6 0.6 0
v 0.6 0.7 0.3
v 0.6 0.7 0
v 0.2 0.6 0.4
v 0.2 0.7 0.4
v 0.3 0.6 0.4
v 0.3 0.7 0.4
v 0.4 0.6 0.4
v 0.4 0.7 0.4
v 0.5 0.6 0.4
v 0.5 0.7 0.4
v 0.2 0.7 0.3
v 0.2 0.8 0.3
v 0.3 0.7 0.3
v 0.4 0.7 0.3
v 0.5 0.6 0.3
v 0.5 0.7 0.3
v 0.5 0.8 0.3
v 0.6 0.6 0.3
v 0.6 0.7 0.3
v 0.1 0.9 0.2
v 0.1 1 0.2
v 0.2 0.8 0.2
v 0.2 0.9 0.2
v 0.4 0.8 0.2
v 0.4 1 0.2
v 0.1 0.9 0.1
v 0.1 1 0.1
v 0.2 0.8 0.1
v 0.2 0.9 0.1
v 0.4 0.8 0.1
v 0.4 1 0.1
v 0.2 0.7 0
v 0.2 0.8 0
v 0.3 0.7 0
v 0.4 0.7 0
v 0.5 0.6 0
v 0.5 0.7 0
v 0.5 0.8 0
v 0.6 0.6 0
v 0.6 0.7 0
v 0.2 0.6 -0.1
v 0.2 0.7 -0.1
v 0.3 0.6 -0.1
v 0.3 0.7 -0.1
v 0.4 0.6 -0.1
v 0.4 0.7 -0.1
v 0.5 0.6 -0.1
v 0.5 0.7 -0.1
v 0.2 0.6 0.4
v 0.3 0.6 0.4
v 0.4 0.6 0.4
v 0.5 0.6 0.4
v 0.2 0.6 0.3
v 0.3 0.6 0.3
v 0.4 0.6 0.3
v 0.5 0.6 0.3
v 0.6 0.6 0.3
v 0.2 0.6 0.2
v 0.3 0.6 0.2
v 0.2 0.6 0.1
v 0.3 0.6 0.1
v 0.2 0.6 0
v 0.3 0.6 0
v 0.4 0.6 0
v 0.5 0.6 0
v 0.6 0.6 0
v 0.2 0.6 -0.1
v 0.3 0.6 -0.1
v 0.4 0.6 -0.1
v 0.5 0.6 -0.1
v 0.1 0.9 0.2
v 0.2 0.9 0.2
v 0.1 0.9 0.1
v 0.2 0.9 0.1
v 0.2 0.7 0.4
v 0.3 0.7 0.4
v 0.4 0.7 0.4
v 0.5 0.7 0.4
v 0.2 0.7 0.3
v 0.3 0.7 0.3
v 0.4 0.7 0.3
v 0.5 0.7 0.3
v 0.6 0.7 0.3
v 0.2 0.7 0
v 0.3 0.7 0
v 0.4 0.7 0
v 0.5 0.7 0
v 0.6 0.7 0
v 0.2 0.7 -0.1
v 0.3 0.7 -0.1
v 0.4 0.7 -0.1
v 0.5 0.7 -0.1
v 0.2 0.8 0.3
v 0.5 0.8 0.3
v 0.2 0.8 0.2
v 0.4 0.8 0.2
v 0.2 0.8 0.1
v 0.4 0.8 0.1
v 0.2 0.8 0
v 0.5 0.8 0
v 0.1 1 0.2
v 0.4 1 0.2
v 0.1 1 0.1
v 0.4 1 0.1

# faces
f 3/3/1 2/3/1 1/3/1
f 4/3/1 2/3/1 3/3/1
f 11/3/1 6/3/1 5/3/1
f 12/1/1 7/1/1 6/1/1
f 12/3/1 6/3/1 11/3/1
f 13/4/1 8/4/1 7/4/1
f 13/1/1 7/1/1 12/1/1
f 14/1/1 9/1/1 8/1/1
f 14/4/1 8/4/1 13/4/1
f 15/3/1 10/3/1 9/3/1
f 15/1/1 9/1/1 14/1/1
f 16/3/1 10/3/1 15/3/1
f 17/3/1 13/3/1 12/3/1
f 18/1/1 14/1/1 13/1/1
f 18/3/1 13/3/1 17/3/1
f 19/3/1 15/3/1 14/3/1
f 19/1/1 14/1/1 18/1/1
f 20/3/1 15/3/1 19/3/1
f 21/3/1 19/3/1 18/3/1
f 22/3/1 19/3/1 21/3/1
f 23/3/2 24/3/2 25/3/2
f 25/3/2 24/3/2 26/3/2
f 27/2/2 28/2/2 31/2/2
f 31/2/2 28/2/2 32/2/2
f 29/2/2 30/2/2 33/2/2
f 33/2/2 30/2/2 34/2/2
f 32/3/2 33/3/2 35/3/2
f 35/3/2 33/3/2 36/3/2
f 37/2/2 38/2/2 39/2/2
f 39/2/2 38/2/2 40/2/2
f 43/3/3 42/3/3 41/3/3
f 44/3/3 42/3/3 43/3/3
f 45/5/3 44/5/3 43/5/3
f 46/5/3 44/5/3 45/5/3
f 47/2/3 46/2/3 45/2/3
f 48/2/3 46/2/3 47/2/3
f 51/3/3 50/3/3 49/3/3
f 52/3/3 50/3/3 51/3/3
f 54/3/3 50/3/3 52/3/3
f 55/3/3 50/3/3 54/3/3
f 56/2/3 54/2/3 53/2/3
f 57/2/3 54/2/3 56/2/3
f 61/3/3 59/3/3 58/3/3
f 62/3/3 61/3/3 60/3/3
f 63/3/3 59/3/3 61/3/3
f 63/3/3 61/3/3 62/3/3
f 64/3/4 65/3/4 67/3/4
f 66/3/4 67/3/4 68/3/4
f 67/3/4 65/3/4 69/3/4
f 68/3/4 67/3/4 69/3/4
f 70/3/4 71/3/4 72/3/4
f 72/3/4 71/3/4 73/3/4
f 73/3/4 71/3/4 75/3/4
f 75/3/4 71/3/4 76/3/4
f 74/2/4 75/2/4 77/2/4
f 77/2/4 75/2/4 78/2/4
f 79/3/4 80/3/4 81/3/4
f 81/3/4 80/3/4 82/3/4
f 81/5/4 82/5/4 83/5/4
f 83/5/4 82/5/4 84/5/4
f 83/2/4 84/2/4 85/2/4
f 85/2/4 84/2/4 86/2/4
f 91/3/5 88/3/5 87/3/5
f 92/5/5 89/5/5 88/5/5
f 92/3/5 88/3/5 91/3/5
f 93/2/5 90/2/5 89/2/5
f 93/5/5 89/5/5 92/5/5
f 94/2/5 90/2/5 93/2/5
f 96/1/5 92/1/5 91/1/5
f 97/3/5 93/3/5 92/3/5
f 97/1/5 92/1/5 96/1/5
f 97/3/5 94/3/5 93/3/5
f 98/4/5 97/4/5 96/4/5
f 99/3/5 94/3/5 97/3/5
f 99/4/5 97/4/5 98/4/5
f 100/1/5 99/1/5 98/1/5
f 101/3/5 94/3/5 99/3/5
f 101/1/5 99/1/5 100/1/5
f 102/3/5 94/3/5 101/3/5
f 103/2/5 95/2/5 94/2/5
f 103/3/5 94/3/5 102/3/5
f 104/2/5 95/2/5 103/2/5
f 105/3/5 101/3/5 100/3/5
f 106/5/5 102/5/5 101/5/5
f 106/3/5 101/3/5 105/3/5
f 107/2/5 103/2/5 102/2/5
f 107/5/5 102/5/5 106/5/5
f 108/2/5 103/2/5 107/2/5
f 111/3/5 110/3/5 109/3/5
f 112/3/5 110/3/5 111/3/5
f 113/3/6 114/3/6 117/3/6
f 114/5/6 115/5/6 118/5/6
f 117/3/6 114/3/6 118/3/6
f 115/2/6 116/2/6 119/2/6
f 118/5/6 115/5/6 119/5/6
f 119/2/6 116/2/6 120/2/6
f 120/2/6 121/2/6 125/2/6
f 125/2/6 121/2/6 126/2/6
f 122/3/6 123/3/6 127/3/6
f 123/5/6 124/5/6 128/5/6
f 127/3/6 123/3/6 128/3/6
f 124/2/6 125/2/6 129/2/6
f 128/5/6 124/5/6 129/5/6
f 129/2/6 125/2/6 130/2/6
f 131/3/6 132/3/6 133/3/6
f 133/3/6 132/3/6 134/3/6
f 134/3/6 132/3/6 136/3/6
f 135/3/6 136/3/6 137/3/6
f 136/3/6 132/3/6 138/3/6
f 137/3/6 136/3/6 138/3/6
f 139/3/6 140/3/6 141/3/6
f 141/3/6 140/3/6 142/3/6
