# MagicaVoxel @ Ephtracy

# group
o 

# material
mtllib carnada-1.mtl
usemtl palette

# normals
vn -1 0 0
vn 1 0 0
vn 0 0 1
vn 0 0 -1
vn 0 -1 0
vn 0 1 0

# texcoords
vt 0.412109 0.5
vt 0.416016 0.5
vt 0.423828 0.5
vt 0.728516 0.5
vt 0.794922 0.5
vt 0.919922 0.5

# verts
v -0.6 5.1 9
v -0.6 5.1 8.6
v -0.6 5.3 9
v -0.6 5.3 8.6
v -0.6 5.4 9
v -0.6 5.4 8.6
v -0.6 5.6 9
v -0.6 5.6 8.9
v -0.6 5.6 8.7
v -0.6 5.6 8.6
v -0.6 5.7 9
v -0.6 5.7 8.9
v -0.6 5.7 8.7
v -0.6 5.7 8.6
v -0.5 5.1 9.1
v -0.5 5.1 9
v -0.5 5.1 8.6
v -0.5 5.1 8.5
v -0.5 5.3 9.1
v -0.5 5.3 9
v -0.5 5.3 8.6
v -0.5 5.3 8.5
v -0.5 5.4 9.1
v -0.5 5.4 9
v -0.5 5.4 8.6
v -0.5 5.4 8.5
v -0.5 5.6 9.1
v -0.5 5.6 9
v -0.5 5.6 8.6
v -0.5 5.6 8.5
v -0.4 5.4 8.9
v -0.4 5.4 8.8
v -0.4 5.5 8.9
v -0.4 5.5 8.8
v -0.4 5.6 8.9
v -0.4 5.7 8.9
v -0.4 5.7 8.8
v -0.4 5.8 8.9
v -0.4 5.8 8.8
v -0.3 5.4 9
v -0.3 5.4 8.9
v -0.3 5.5 9
v -0.3 5.5 8.9
v -0.2 5.5 9
v -0.2 5.5 8.9
v -0.2 5.5 8.7
v -0.2 5.5 8.6
v -0.2 5.5 8.5
v -0.2 5.5 8.4
v -0.2 5.6 9
v -0.2 5.6 8.9
v -0.2 5.6 8.7
v -0.2 5.6 8.6
v -0.2 5.6 8.5
v -0.2 5.6 8.4
v -0.2 5.7 9
v -0.2 5.7 8.9
v -0.2 5.7 8.6
v -0.2 5.7 8.5
v -0.0999998 5.4 8.9
v -0.0999998 5.4 8.8
v -0.0999998 5.5 8.9
v -0.0999998 5.5 8.8
v -0.0999998 5.5 8.7
v -0.0999998 5.6 8.9
v -0.0999998 5.6 8.7
v -0.5 5.4 8.9
v -0.5 5.4 8.8
v -0.5 5.5 8.9
v -0.5 5.5 8.8
v -0.5 5.5 8.7
v -0.5 5.6 9
v -0.5 5.6 8.9
v -0.5 5.6 8.7
v -0.5 5.7 9
v -0.5 5.7 8.9
v -0.4 5.4 9
v -0.4 5.4 8.9
v -0.4 5.5 9
v -0.4 5.5 8.9
v -0.4 5.5 8.7
v -0.4 5.5 8.6
v -0.4 5.6 9
v -0.4 5.6 8.9
v -0.4 5.6 8.6
v -0.4 5.7 8.7
v -0.4 5.7 8.6
v -0.3 5.5 8.9
v -0.3 5.5 8.8
v -0.3 5.7 8.9
v -0.3 5.7 8.8
v -0.3 5.8 8.9
v -0.3 5.8 8.8
v -0.2 5.4 8.9
v -0.2 5.4 8.8
v -0.2 5.5 8.9
v -0.2 5.5 8.8
v -0.0999998 5.1 9.1
v -0.0999998 5.1 9
v -0.0999998 5.1 8.6
v -0.0999998 5.1 8.5
v -0.0999998 5.3 9.1
v -0.0999998 5.3 9
v -0.0999998 5.3 8.6
v -0.0999998 5.3 8.5
v -0.0999998 5.4 9.1
v -0.0999998 5.4 9
v -0.0999998 5.4 8.6
v -0.0999998 5.4 8.5
v -0.0999998 5.5 8.5
v -0.0999998 5.5 8.4
v -0.0999998 5.6 9.1
v -0.0999998 5.6 9
v -0.0999998 5.6 8.6
v -0.0999998 5.6 8.5
v -0.0999998 5.6 8.4
v -0.0999998 5.7 8.6
v -0.0999998 5.7 8.5
v 1.78814e-07 5.1 9
v 1.78814e-07 5.1 8.6
v 1.78814e-07 5.3 9
v 1.78814e-07 5.3 8.6
v 1.78814e-07 5.4 9
v 1.78814e-07 5.4 8.9
v 1.78814e-07 5.4 8.6
v 1.78814e-07 5.5 8.9
v 1.78814e-07 5.6 9
v 1.78814e-07 5.6 8.9
v 1.78814e-07 5.6 8.6
v 1.78814e-07 5.7 9
v 1.78814e-07 5.7 8.9
v 0.1 5.4 9
v 0.1 5.4 8.9
v 0.1 5.5 9
v 0.1 5.5 8.9
v 0.1 5.6 9
v 0.1 5.6 8.9
v -0.5 5.1 9.1
v -0.5 5.3 9.1
v -0.5 5.4 9.1
v -0.5 5.6 9.1
v -0.0999998 5.1 9.1
v -0.0999998 5.3 9.1
v -0.0999998 5.4 9.1
v -0.0999998 5.6 9.1
v -0.6 5.1 9
v -0.6 5.3 9
v -0.6 5.4 9
v -0.6 5.6 9
v -0.6 5.7 9
v -0.5 5.1 9
v -0.5 5.3 9
v -0.5 5.4 9
v -0.5 5.6 9
v -0.5 5.7 9
v -0.2 5.6 9
v -0.2 5.7 9
v -0.0999998 5.1 9
v -0.0999998 5.3 9
v -0.0999998 5.4 9
v -0.0999998 5.6 9
v -0.0999998 5.7 9
v 1.78814e-07 5.1 9
v 1.78814e-07 5.3 9
v 1.78814e-07 5.4 9
v 1.78814e-07 5.5 9
v 1.78814e-07 5.6 9
v 1.78814e-07 5.7 9
v 0.1 5.4 9
v 0.1 5.5 9
v 0.1 5.6 9
v -0.4 5.4 8.9
v -0.4 5.5 8.9
v -0.4 5.6 8.9
v -0.4 5.7 8.9
v -0.4 5.8 8.9
v -0.3 5.4 8.9
v -0.3 5.5 8.9
v -0.3 5.7 8.9
v -0.3 5.8 8.9
v -0.5 5.4 8.8
v -0.5 5.5 8.8
v -0.4 5.4 8.8
v -0.4 5.5 8.8
v -0.2 5.4 8.8
v -0.2 5.5 8.8
v -0.0999998 5.4 8.8
v -0.0999998 5.5 8.8
v -0.6 5.6 8.7
v -0.6 5.7 8.7
v -0.5 5.5 8.7
v -0.5 5.6 8.7
v -0.5 5.7 8.7
v -0.4 5.5 8.7
v -0.4 5.7 8.7
v -0.2 5.5 8.7
v -0.2 5.6 8.7
v -0.0999998 5.5 8.7
v -0.0999998 5.6 8.7
v -0.4 5.5 8.6
v -0.4 5.6 8.6
v -0.2 5.5 8.6
v -0.2 5.6 8.6
v -0.2 5.7 8.6
v -0.0999998 5.6 8.6
v -0.0999998 5.7 8.6
v -0.4 5.4 9
v -0.4 5.5 9
v -0.4 5.6 9
v -0.3 5.4 9
v -0.3 5.5 9
v -0.2 5.5 9
v -0.2 5.6 9
v -0.6 5.6 8.9
v -0.6 5.7 8.9
v -0.5 5.4 8.9
v -0.5 5.5 8.9
v -0.5 5.6 8.9
v -0.5 5.7 8.9
v -0.4 5.4 8.9
v -0.4 5.5 8.9
v -0.4 5.6 8.9
v -0.2 5.4 8.9
v -0.2 5.5 8.9
v -0.2 5.6 8.9
v -0.2 5.7 8.9
v -0.0999998 5.4 8.9
v -0.0999998 5.5 8.9
v -0.0999998 5.6 8.9
v -0.0999998 5.7 8.9
v 1.78814e-07 5.4 8.9
v 1.78814e-07 5.5 8.9
v 1.78814e-07 5.6 8.9
v 1.78814e-07 5.7 8.9
v 0.1 5.4 8.9
v 0.1 5.5 8.9
v 0.1 5.6 8.9
v -0.4 5.5 8.8
v -0.4 5.7 8.8
v -0.4 5.8 8.8
v -0.3 5.5 8.8
v -0.3 5.7 8.8
v -0.3 5.8 8.8
v -0.6 5.1 8.6
v -0.6 5.3 8.6
v -0.6 5.4 8.6
v -0.6 5.6 8.6
v -0.6 5.7 8.6
v -0.5 5.1 8.6
v -0.5 5.3 8.6
v -0.5 5.4 8.6
v -0.5 5.6 8.6
v -0.5 5.7 8.6
v -0.4 5.6 8.6
v -0.4 5.7 8.6
v -0.0999998 5.1 8.6
v -0.0999998 5.3 8.6
v -0.0999998 5.4 8.6
v -0.0999998 5.6 8.6
v 1.78814e-07 5.1 8.6
v 1.78814e-07 5.3 8.6
v 1.78814e-07 5.4 8.6
v 1.78814e-07 5.6 8.6
v -0.5 5.1 8.5
v -0.5 5.3 8.5
v -0.5 5.4 8.5
v -0.5 5.6 8.5
v -0.2 5.5 8.5
v -0.2 5.6 8.5
v -0.2 5.7 8.5
v -0.0999998 5.1 8.5
v -0.0999998 5.3 8.5
v -0.0999998 5.4 8.5
v -0.0999998 5.5 8.5
v -0.0999998 5.6 8.5
v -0.0999998 5.7 8.5
v -0.2 5.5 8.4
v -0.2 5.6 8.4
v -0.0999998 5.5 8.4
v -0.0999998 5.6 8.4
v -0.5 5.1 9.1
v -0.0999998 5.1 9.1
v -0.6 5.1 9
v -0.5 5.1 9
v -0.0999998 5.1 9
v 1.78814e-07 5.1 9
v -0.6 5.1 8.6
v -0.5 5.1 8.6
v -0.0999998 5.1 8.6
v 1.78814e-07 5.1 8.6
v -0.5 5.1 8.5
v -0.0999998 5.1 8.5
v 1.78814e-07 5.4 9
v 0.1 5.4 9
v 1.78814e-07 5.4 8.9
v 0.1 5.4 8.9
v -0.2 5.5 8.5
v -0.0999998 5.5 8.5
v -0.2 5.5 8.4
v -0.0999998 5.5 8.4
v -0.4 5.4 9
v -0.3 5.4 9
v -0.5 5.4 8.9
v -0.4 5.4 8.9
v -0.3 5.4 8.9
v -0.2 5.4 8.9
v -0.0999998 5.4 8.9
v -0.5 5.4 8.8
v -0.4 5.4 8.8
v -0.2 5.4 8.8
v -0.0999998 5.4 8.8
v -0.3 5.5 9
v -0.2 5.5 9
v -0.3 5.5 8.9
v -0.2 5.5 8.9
v -0.5 5.5 8.8
v -0.4 5.5 8.8
v -0.3 5.5 8.8
v -0.2 5.5 8.8
v -0.0999998 5.5 8.8
v -0.5 5.5 8.7
v -0.4 5.5 8.7
v -0.2 5.5 8.7
v -0.0999998 5.5 8.7
v -0.4 5.5 8.6
v -0.2 5.5 8.6
v -0.5 5.6 9.1
v -0.0999998 5.6 9.1
v -0.5 5.6 9
v -0.4 5.6 9
v -0.2 5.6 9
v -0.0999998 5.6 9
v 1.78814e-07 5.6 9
v 0.1 5.6 9
v -0.6 5.6 8.9
v -0.5 5.6 8.9
v -0.4 5.6 8.9
v -0.0999998 5.6 8.9
v 1.78814e-07 5.6 8.9
v 0.1 5.6 8.9
v -0.6 5.6 8.7
v -0.5 5.6 8.7
v -0.2 5.6 8.7
v -0.0999998 5.6 8.7
v -0.5 5.6 8.6
v -0.4 5.6 8.6
v -0.2 5.6 8.6
v -0.0999998 5.6 8.6
v 1.78814e-07 5.6 8.6
v -0.5 5.6 8.5
v -0.2 5.6 8.5
v -0.0999998 5.6 8.5
v -0.2 5.6 8.4
v -0.0999998 5.6 8.4
v -0.6 5.7 9
v -0.5 5.7 9
v -0.2 5.7 9
v -0.0999998 5.7 9
v 1.78814e-07 5.7 9
v -0.6 5.7 8.9
v -0.5 5.7 8.9
v -0.2 5.7 8.9
v -0.0999998 5.7 8.9
v 1.78814e-07 5.7 8.9
v -0.6 5.7 8.7
v -0.5 5.7 8.7
v -0.4 5.7 8.7
v -0.6 5.7 8.6
v -0.5 5.7 8.6
v -0.4 5.7 8.6
v -0.2 5.7 8.6
v -0.0999998 5.7 8.6
v -0.2 5.7 8.5
v -0.0999998 5.7 8.5
v -0.4 5.8 8.9
v -0.3 5.8 8.9
v -0.4 5.8 8.8
v -0.3 5.8 8.8

# faces
f 3/4/1 2/4/1 1/4/1
f 4/4/1 2/4/1 3/4/1
f 5/6/1 4/6/1 3/6/1
f 6/6/1 4/6/1 5/6/1
f 7/4/1 6/4/1 5/4/1
f 8/4/1 6/4/1 7/4/1
f 9/4/1 6/4/1 8/4/1
f 10/4/1 6/4/1 9/4/1
f 11/2/1 8/2/1 7/2/1
f 12/2/1 8/2/1 11/2/1
f 13/3/1 10/3/1 9/3/1
f 14/3/1 10/3/1 13/3/1
f 19/4/1 16/4/1 15/4/1
f 20/4/1 16/4/1 19/4/1
f 21/4/1 18/4/1 17/4/1
f 22/4/1 18/4/1 21/4/1
f 23/6/1 20/6/1 19/6/1
f 24/6/1 20/6/1 23/6/1
f 25/6/1 22/6/1 21/6/1
f 26/6/1 22/6/1 25/6/1
f 27/4/1 24/4/1 23/4/1
f 28/4/1 24/4/1 27/4/1
f 29/4/1 26/4/1 25/4/1
f 30/4/1 26/4/1 29/4/1
f 33/1/1 32/1/1 31/1/1
f 34/1/1 32/1/1 33/1/1
f 35/1/1 34/1/1 33/1/1
f 36/1/1 34/1/1 35/1/1
f 37/1/1 34/1/1 36/1/1
f 38/2/1 37/2/1 36/2/1
f 39/2/1 37/2/1 38/2/1
f 42/1/1 41/1/1 40/1/1
f 43/1/1 41/1/1 42/1/1
f 50/1/1 45/1/1 44/1/1
f 51/1/1 45/1/1 50/1/1
f 52/1/1 47/1/1 46/1/1
f 53/1/1 47/1/1 52/1/1
f 54/1/1 49/1/1 48/1/1
f 55/1/1 49/1/1 54/1/1
f 56/3/1 51/3/1 50/3/1
f 57/3/1 51/3/1 56/3/1
f 58/2/1 54/2/1 53/2/1
f 59/2/1 54/2/1 58/2/1
f 62/4/1 61/4/1 60/4/1
f 63/4/1 61/4/1 62/4/1
f 65/4/1 63/4/1 62/4/1
f 65/4/1 64/4/1 63/4/1
f 66/4/1 64/4/1 65/4/1
f 67/4/2 68/4/2 69/4/2
f 69/4/2 68/4/2 70/4/2
f 69/4/2 70/4/2 73/4/2
f 70/4/2 71/4/2 73/4/2
f 73/4/2 71/4/2 74/4/2
f 72/2/2 73/2/2 75/2/2
f 75/2/2 73/2/2 76/2/2
f 77/1/2 78/1/2 79/1/2
f 79/1/2 78/1/2 80/1/2
f 79/3/2 80/3/2 83/3/2
f 83/3/2 80/3/2 84/3/2
f 81/1/2 82/1/2 85/1/2
f 81/1/2 85/1/2 86/1/2
f 86/1/2 85/1/2 87/1/2
f 88/1/2 89/1/2 90/1/2
f 90/1/2 89/1/2 91/1/2
f 90/2/2 91/2/2 92/2/2
f 92/2/2 91/2/2 93/2/2
f 94/2/2 95/2/2 96/2/2
f 96/2/2 95/2/2 97/2/2
f 98/4/2 99/4/2 102/4/2
f 102/4/2 99/4/2 103/4/2
f 100/4/2 101/4/2 104/4/2
f 104/4/2 101/4/2 105/4/2
f 102/6/2 103/6/2 106/6/2
f 106/6/2 103/6/2 107/6/2
f 104/6/2 105/6/2 108/6/2
f 108/6/2 105/6/2 109/6/2
f 108/4/2 109/4/2 110/4/2
f 106/4/2 107/4/2 112/4/2
f 112/4/2 107/4/2 113/4/2
f 108/4/2 110/4/2 114/4/2
f 110/1/2 111/1/2 115/1/2
f 114/4/2 110/4/2 115/4/2
f 115/1/2 111/1/2 116/1/2
f 114/2/2 115/2/2 117/2/2
f 117/2/2 115/2/2 118/2/2
f 119/4/2 120/4/2 121/4/2
f 121/4/2 120/4/2 122/4/2
f 121/6/2 122/6/2 123/6/2
f 123/6/2 122/6/2 124/6/2
f 124/6/2 122/6/2 125/6/2
f 124/4/2 125/4/2 126/4/2
f 126/4/2 125/4/2 128/4/2
f 128/4/2 125/4/2 129/4/2
f 127/2/2 128/2/2 130/2/2
f 130/2/2 128/2/2 131/2/2
f 132/1/2 133/1/2 134/1/2
f 134/1/2 133/1/2 135/1/2
f 134/2/2 135/2/2 136/2/2
f 136/2/2 135/2/2 137/2/2
f 142/4/3 139/4/3 138/4/3
f 143/6/3 140/6/3 139/6/3
f 143/4/3 139/4/3 142/4/3
f 144/4/3 141/4/3 140/4/3
f 144/6/3 140/6/3 143/6/3
f 145/4/3 141/4/3 144/4/3
f 151/4/3 147/4/3 146/4/3
f 152/6/3 148/6/3 147/6/3
f 152/4/3 147/4/3 151/4/3
f 153/4/3 149/4/3 148/4/3
f 153/6/3 148/6/3 152/6/3
f 154/2/3 150/2/3 149/2/3
f 154/4/3 149/4/3 153/4/3
f 155/2/3 150/2/3 154/2/3
f 161/3/3 157/3/3 156/3/3
f 162/3/3 157/3/3 161/3/3
f 163/4/3 159/4/3 158/4/3
f 164/6/3 160/6/3 159/6/3
f 164/4/3 159/4/3 163/4/3
f 165/4/3 161/4/3 160/4/3
f 165/6/3 160/6/3 164/6/3
f 166/4/3 161/4/3 165/4/3
f 167/2/3 162/2/3 161/2/3
f 167/4/3 161/4/3 166/4/3
f 168/2/3 162/2/3 167/2/3
f 169/1/3 166/1/3 165/1/3
f 170/2/3 167/2/3 166/2/3
f 170/1/3 166/1/3 169/1/3
f 171/2/3 167/2/3 170/2/3
f 177/1/3 173/1/3 172/1/3
f 177/1/3 174/1/3 173/1/3
f 177/1/3 175/1/3 174/1/3
f 178/1/3 175/1/3 177/1/3
f 179/2/3 176/2/3 175/2/3
f 179/1/3 175/1/3 178/1/3
f 180/2/3 176/2/3 179/2/3
f 183/1/3 182/1/3 181/1/3
f 184/1/3 182/1/3 183/1/3
f 187/3/3 186/3/3 185/3/3
f 188/3/3 186/3/3 187/3/3
f 192/3/3 190/3/3 189/3/3
f 193/3/3 190/3/3 192/3/3
f 194/1/3 192/1/3 191/1/3
f 194/1/3 193/1/3 192/1/3
f 195/1/3 193/1/3 194/1/3
f 198/1/3 197/1/3 196/1/3
f 199/1/3 197/1/3 198/1/3
f 202/4/3 201/4/3 200/4/3
f 203/4/3 201/4/3 202/4/3
f 205/2/3 204/2/3 203/2/3
f 206/2/3 204/2/3 205/2/3
f 207/4/4 208/4/4 210/4/4
f 208/4/4 209/4/4 210/4/4
f 210/4/4 209/4/4 211/4/4
f 211/4/4 209/4/4 212/4/4
f 212/4/4 209/4/4 213/4/4
f 214/2/4 215/2/4 218/2/4
f 218/2/4 215/2/4 219/2/4
f 216/1/4 217/1/4 220/1/4
f 217/3/4 218/3/4 221/3/4
f 220/1/4 217/1/4 221/1/4
f 221/3/4 218/3/4 222/3/4
f 223/3/4 224/3/4 227/3/4
f 224/1/4 225/1/4 228/1/4
f 227/3/4 224/3/4 228/3/4
f 225/3/4 226/3/4 229/3/4
f 228/1/4 225/1/4 229/1/4
f 229/3/4 226/3/4 230/3/4
f 229/2/4 230/2/4 233/2/4
f 233/2/4 230/2/4 234/2/4
f 231/1/4 232/1/4 235/1/4
f 232/2/4 233/2/4 236/2/4
f 235/1/4 232/1/4 236/1/4
f 236/2/4 233/2/4 237/2/4
f 238/1/4 239/1/4 241/1/4
f 239/2/4 240/2/4 242/2/4
f 241/1/4 239/1/4 242/1/4
f 242/2/4 240/2/4 243/2/4
f 244/4/4 245/4/4 249/4/4
f 245/6/4 246/6/4 250/6/4
f 249/4/4 245/4/4 250/4/4
f 246/4/4 247/4/4 251/4/4
f 250/6/4 246/6/4 251/6/4
f 247/3/4 248/3/4 252/3/4
f 251/4/4 247/4/4 252/4/4
f 252/3/4 248/3/4 253/3/4
f 252/1/4 253/1/4 254/1/4
f 254/1/4 253/1/4 255/1/4
f 256/4/4 257/4/4 260/4/4
f 257/6/4 258/6/4 261/6/4
f 260/4/4 257/4/4 261/4/4
f 258/4/4 259/4/4 262/4/4
f 261/6/4 258/6/4 262/6/4
f 262/4/4 259/4/4 263/4/4
f 266/4/4 267/4/4 268/4/4
f 268/4/4 267/4/4 269/4/4
f 264/4/4 265/4/4 271/4/4
f 265/6/4 266/6/4 272/6/4
f 271/4/4 265/4/4 272/4/4
f 266/4/4 268/4/4 273/4/4
f 272/6/4 266/6/4 273/6/4
f 273/4/4 268/4/4 274/4/4
f 269/2/4 270/2/4 275/2/4
f 275/2/4 270/2/4 276/2/4
f 277/1/4 278/1/4 279/1/4
f 279/1/4 278/1/4 280/1/4
f 284/4/5 282/4/5 281/4/5
f 285/4/5 282/4/5 284/4/5
f 287/4/5 284/4/5 283/4/5
f 287/4/5 286/4/5 285/4/5
f 287/4/5 285/4/5 284/4/5
f 288/4/5 286/4/5 287/4/5
f 289/4/5 286/4/5 288/4/5
f 290/4/5 286/4/5 289/4/5
f 291/4/5 289/4/5 288/4/5
f 292/4/5 289/4/5 291/4/5
f 295/1/5 294/1/5 293/1/5
f 296/1/5 294/1/5 295/1/5
f 299/1/5 298/1/5 297/1/5
f 300/1/5 298/1/5 299/1/5
f 301/1/6 302/1/6 304/1/6
f 304/1/6 302/1/6 305/1/6
f 303/1/6 304/1/6 308/1/6
f 308/1/6 304/1/6 309/1/6
f 306/2/6 307/2/6 310/2/6
f 310/2/6 307/2/6 311/2/6
f 312/1/6 313/1/6 314/1/6
f 314/1/6 313/1/6 315/1/6
f 314/2/6 315/2/6 318/2/6
f 318/2/6 315/2/6 319/2/6
f 316/1/6 317/1/6 321/1/6
f 318/1/6 319/1/6 321/1/6
f 317/1/6 318/1/6 321/1/6
f 321/1/6 319/1/6 322/1/6
f 319/3/6 320/3/6 323/3/6
f 322/1/6 319/1/6 323/1/6
f 323/3/6 320/3/6 324/3/6
f 322/3/6 323/3/6 325/3/6
f 325/3/6 323/3/6 326/3/6
f 327/4/6 328/4/6 329/4/6
f 329/4/6 328/4/6 330/4/6
f 330/4/6 328/4/6 331/4/6
f 331/4/6 328/4/6 332/4/6
f 329/3/6 330/3/6 336/3/6
f 336/3/6 330/3/6 337/3/6
f 333/2/6 334/2/6 339/2/6
f 339/2/6 334/2/6 340/2/6
f 335/4/6 336/4/6 341/4/6
f 341/4/6 336/4/6 342/4/6
f 338/4/6 339/4/6 344/4/6
f 343/1/6 344/1/6 347/1/6
f 344/4/6 339/4/6 348/4/6
f 347/1/6 344/1/6 348/1/6
f 348/4/6 339/4/6 349/4/6
f 345/4/6 346/4/6 350/4/6
f 346/4/6 347/4/6 350/4/6
f 350/4/6 347/4/6 351/4/6
f 351/1/6 352/1/6 353/1/6
f 353/1/6 352/1/6 354/1/6
f 355/2/6 356/2/6 360/2/6
f 360/2/6 356/2/6 361/2/6
f 357/3/6 358/3/6 362/3/6
f 358/2/6 359/2/6 363/2/6
f 362/3/6 358/3/6 363/3/6
f 363/2/6 359/2/6 364/2/6
f 365/3/6 366/3/6 368/3/6
f 366/1/6 367/1/6 369/1/6
f 368/3/6 366/3/6 369/3/6
f 369/1/6 367/1/6 370/1/6
f 371/2/6 372/2/6 373/2/6
f 373/2/6 372/2/6 374/2/6
f 375/2/6 376/2/6 377/2/6
f 377/2/6 376/2/6 378/2/6
