# MagicaVoxel @ Ephtracy

# group
o 

# material
mtllib casa sin humo-1.mtl
usemtl palette

# normals
vn -1 0 0
vn 1 0 0
vn 0 0 1
vn 0 0 -1
vn 0 -1 0
vn 0 1 0

# texcoords
vt 0.236328 0.5
vt 0.298828 0.5
vt 0.302734 0.5
vt 0.693359 0.5
vt 0.697266 0.5
vt 0.701172 0.5
vt 0.705078 0.5
vt 0.724609 0.5
vt 0.728516 0.5
vt 0.732422 0.5
vt 0.736328 0.5
vt 0.802734 0.5
vt 0.912109 0.5
vt 0.916016 0.5
vt 0.919922 0.5
vt 0.923828 0.5
vt 0.947266 0.5
vt 0.951172 0.5

# verts
v -1.5 6.1 4.1
v -1.5 6.1 3.3
v -1.5 6.2 4.1
v -1.5 6.2 3.3
v -1.4 5.2 4.1
v -1.4 5.2 4
v -1.4 5.2 3.9
v -1.4 5.2 3.8
v -1.4 5.2 3.7
v -1.4 5.2 3.6
v -1.4 5.2 3.5
v -1.4 5.2 3.4
v -1.4 5.2 3.3
v -1.4 5.2 3.2
v -1.4 5.2 3.1
v -1.4 5.2 3
v -1.4 5.2 2.9
v -1.4 5.3 4.1
v -1.4 5.3 4
v -1.4 5.3 3.9
v -1.4 5.3 3.8
v -1.4 5.3 3.7
v -1.4 5.3 3.6
v -1.4 5.3 3.5
v -1.4 5.3 3.4
v -1.4 5.3 3.3
v -1.4 5.3 3.2
v -1.4 5.3 3.1
v -1.4 5.3 3
v -1.4 5.3 2.9
v -1.4 6.1 4.2
v -1.4 6.1 4.1
v -1.4 6.1 3.3
v -1.4 6.1 3.2
v -1.4 6.2 4.2
v -1.4 6.2 4.1
v -1.4 6.2 3.3
v -1.4 6.2 3.2
v -1.4 6.4 4.1
v -1.4 6.4 3.3
v -1.2 5.2 4.2
v -1.2 5.2 4.1
v -1.2 5.2 2.9
v -1.2 5.2 2.8
v -1.2 5.3 4.2
v -1.2 5.3 4.1
v -1.2 5.3 2.9
v -1.2 5.3 2.8
v -1.2 6.2 4.2
v -1.2 6.2 4.1
v -1.2 6.2 3.3
v -1.2 6.2 3.2
v -1.2 6.4 4.2
v -1.2 6.4 4.1
v -1.2 6.4 3.3
v -1.2 6.4 3.2
v -1.2 6.5 4.1
v -1.2 6.5 3.3
v -1.1 6.4 4.2
v -1.1 6.4 4.1
v -1.1 6.4 3.3
v -1.1 6.4 3.2
v -1.1 6.5 4.2
v -1.1 6.5 4.1
v -1.1 6.5 3.3
v -1.1 6.5 3.2
v -1.1 6.7 4.1
v -1.1 6.7 3.3
v -1.1 7.4 4
v -1.1 7.4 3.9
v -1.1 7.4 3.6
v -1.1 7.4 3.5
v -1.1 7.4 3.4
v -1.1 7.5 3.9
v -1.1 7.5 3.8
v -1.1 7.5 3.7
v -1.1 7.5 3.6
v -1.1 7.6 4
v -1.1 7.6 3.9
v -1.1 7.6 3.8
v -1.1 7.6 3.7
v -1.1 7.6 3.5
v -1.1 7.6 3.4
v -1.1 7.8 4
v -1.1 7.8 3.9
v -1.1 7.8 3.4
v -1 6.7 3.9
v -1 6.7 3.8
v -1 6.7 3.5
v -1 7 3.9
v -1 7 3.8
v -1 7 3.6
v -1 7 3.5
v -1 7.2 3.8
v -1 7.2 3.6
v -1 7.2 3.5
v -1 7.3 3.9
v -1 7.3 3.8
v -1 7.4 3.9
v -1 7.4 3.6
v -1 7.4 3.5
v -0.9 5.3 4.1
v -0.9 5.3 4
v -0.9 5.3 3.9
v -0.9 5.3 3.8
v -0.9 5.3 3.7
v -0.9 5.3 3.6
v -0.9 5.3 3.5
v -0.9 5.3 3.4
v -0.9 5.3 3.3
v -0.9 5.4 4
v -0.9 5.4 3.4
v -0.9 5.5 4
v -0.9 5.5 3.4
v -0.9 5.8 4
v -0.9 5.8 3.4
v -0.9 5.9 4
v -0.9 5.9 3.4
v -0.9 6.1 4.1
v -0.9 6.1 4
v -0.9 6.1 3.4
v -0.9 6.1 3.3
v -0.9 6.5 4.2
v -0.9 6.5 4.1
v -0.9 6.5 3.3
v -0.9 6.5 3.2
v -0.9 6.7 4.2
v -0.9 6.7 4.1
v -0.9 6.7 3.9
v -0.9 6.7 3.5
v -0.9 6.7 3.3
v -0.9 6.7 3.2
v -0.9 6.8 4.1
v -0.9 6.8 3.9
v -0.9 6.8 3.5
v -0.9 6.8 3.3
v -0.8 5.5 4
v -0.8 5.5 3.4
v -0.8 5.8 4
v -0.8 5.8 3.4
v -0.8 6.7 4.2
v -0.8 6.7 4.1
v -0.8 6.7 3.8
v -0.8 6.7 3.6
v -0.8 6.7 3.3
v -0.8 6.7 3.2
v -0.8 6.8 4.2
v -0.8 6.8 4.1
v -0.8 6.8 3.9
v -0.8 6.8 3.8
v -0.8 6.8 3.6
v -0.8 6.8 3.5
v -0.8 6.8 3.3
v -0.8 6.8 3.2
v -0.8 7 4.1
v -0.8 7 3.9
v -0.8 7 3.5
v -0.8 7 3.3
v -0.8 7.2 3.8
v -0.8 7.2 3.7
v -0.8 7.3 3.8
v -0.8 7.3 3.7
v -0.7 6.8 3.8
v -0.7 6.8 3.6
v -0.7 7 3.7
v -0.7 7 3.6
v -0.7 7.1 3.7
v -0.7 7.1 3.6
v -0.7 7.2 3.8
v -0.7 7.2 3.7
v -0.7 7.3 3.7
v -0.7 7.3 3.6
v -0.7 7.4 3.8
v -0.7 7.4 3.6
v -0.7 7.5 3.8
v -0.7 7.5 3.6
v -0.6 6.8 4.2
v -0.6 6.8 4.1
v -0.6 6.8 3.3
v -0.6 6.8 3.2
v -0.6 7 4.2
v -0.6 7 4.1
v -0.6 7 3.9
v -0.6 7 3.5
v -0.6 7 3.3
v -0.6 7 3.2
v -0.6 7.1 4.1
v -0.6 7.1 3.9
v -0.6 7.1 3.5
v -0.6 7.1 3.3
v -0.6 7.5 3.9
v -0.6 7.5 3.5
v -0.6 7.6 3.9
v -0.6 7.6 3.8
v -0.6 7.6 3.5
v -0.6 7.7 3.9
v -0.6 7.8 3.9
v -0.6 7.8 3.8
v -0.6 7.8 3.5
v -0.5 6.2 3.3
v -0.5 6.2 3.2
v -0.5 6.7 3.3
v -0.5 6.7 3.2
v -0.5 7 4.2
v -0.5 7 4.1
v -0.5 7 3.3
v -0.5 7 3.2
v -0.5 7.1 4.2
v -0.5 7.1 4.1
v -0.5 7.1 3.3
v -0.5 7.1 3.2
v -0.5 7.3 4.1
v -0.5 7.3 3.3
v -0.4 5.5 3.4
v -0.4 5.5 3.3
v -0.4 5.8 3.4
v -0.4 5.8 3.3
v -0.3 5.3 3.1
v -0.3 5.3 3
v -0.3 5.8 3.3
v -0.3 5.8 3.1
v -0.3 5.8 3
v -0.3 5.9 3.3
v -0.3 5.9 3
v -0.3 7.1 4.2
v -0.3 7.1 4.1
v -0.3 7.1 3.3
v -0.3 7.1 3.2
v -0.3 7.3 4.1
v -0.3 7.3 3.3
v -0.3 7.3 3.2
v -0.3 7.4 4.2
v -0.3 7.4 4.1
v -0.3 7.4 3.3
v -0.2 5.9 3.3
v -0.2 5.9 3.1
v -0.2 6 3.3
v -0.2 6 3.1
v -0.2 7.3 3.3
v -0.2 7.3 3.2
v -0.2 7.4 4.1
v -0.2 7.4 3.3
v -0.2 7.4 3.2
v -0.2 7.6 4.1
v -0.2 7.6 3.3
v -0.1 6.2 4.2
v -0.1 6.2 4.1
v -0.1 6.2 3.3
v -0.1 6.2 3.2
v -0.1 6.5 3.3
v -0.1 6.5 3.2
v -0.1 6.6 3.3
v -0.1 6.6 3.2
v -0.1 6.7 4.2
v -0.1 6.7 4.1
v -0.1 6.8 4.2
v -0.1 6.8 4.1
v -0.1 7 3.3
v -0.1 7 3.2
v -0.1 7.3 4.2
v -0.1 7.3 4.1
v 0.0999997 5.3 3.1
v 0.0999997 5.3 3
v 0.0999997 5.8 3.1
v 0.0999997 5.8 3
v 0.0999997 6.2 4.2
v 0.0999997 6.2 4.1
v 0.0999997 6.2 3.3
v 0.0999997 6.2 3.2
v 0.0999997 6.5 3.3
v 0.0999997 6.5 3.2
v 0.0999997 6.6 3.3
v 0.0999997 6.6 3.2
v 0.0999997 6.7 4.2
v 0.0999997 6.7 4.1
v 0.0999997 6.8 4.2
v 0.0999997 6.8 4.1
v 0.0999997 7 3.3
v 0.0999997 7 3.2
v 0.0999997 7.3 4.2
v 0.0999997 7.3 4.1
v 0.2 5.3 3.4
v 0.2 5.3 3.3
v 0.2 5.5 3.4
v 0.2 5.5 3.3
v 0.2 5.8 3.4
v 0.2 5.8 3.3
v 0.4 5.6 4.1
v 0.4 5.6 4
v 0.4 5.8 4.1
v 0.4 5.8 4
v 0.5 6.2 3.3
v 0.5 6.2 3.2
v 0.5 6.7 3.3
v 0.5 6.7 3.2
v 0.6 5.5 3.4
v 0.6 5.5 3.3
v 0.6 5.8 3.4
v 0.6 5.8 3.3
v 1.1 5.3 4
v 1.1 5.3 3.9
v 1.1 5.3 3.5
v 1.1 5.3 3.4
v 1.1 5.8 4
v 1.1 5.8 3.9
v 1.1 5.8 3.5
v 1.1 5.8 3.4
v -1 7.5 3.9
v -1 7.5 3.8
v -1 7.5 3.7
v -1 7.5 3.5
v -1 7.6 3.8
v -1 7.6 3.7
v -1 7.8 3.9
v -1 7.8 3.5
v -0.9 6.7 3.8
v -0.9 6.7 3.6
v -0.9 7 3.6
v -0.9 7.2 3.8
v -0.9 7.2 3.6
v -0.9 7.3 3.8
v -0.9 7.3 3.6
v -0.9 7.4 3.8
v -0.9 7.4 3.6
v -0.9 7.5 3.8
v -0.9 7.5 3.6
v -0.7 5.5 3.4
v -0.7 5.5 3.3
v -0.7 5.8 3.4
v -0.7 5.8 3.3
v -0.6 6.2 3.3
v -0.6 6.2 3.2
v -0.6 6.7 3.3
v -0.6 6.7 3.2
v -0.6 7.1 3.9
v -0.6 7.1 3.7
v -0.6 7.1 3.6
v -0.6 7.1 3.5
v -0.6 7.2 3.9
v -0.6 7.2 3.7
v -0.6 7.3 3.9
v -0.6 7.3 3.6
v -0.6 7.4 3.9
v -0.6 7.4 3.5
v -0.5 5.6 4.1
v -0.5 5.6 4
v -0.5 5.8 4.1
v -0.5 5.8 4
v -0.5 7.4 4
v -0.5 7.4 3.5
v -0.5 7.4 3.4
v -0.5 7.5 4
v -0.5 7.5 3.9
v -0.5 7.6 3.9
v -0.5 7.6 3.8
v -0.5 7.6 3.5
v -0.5 7.6 3.4
v -0.5 7.8 4
v -0.5 7.8 3.8
v -0.5 7.8 3.5
v -0.5 7.8 3.4
v -0.3 5.3 3.4
v -0.3 5.3 3.3
v -0.3 5.5 3.4
v -0.3 5.5 3.3
v -0.3 5.8 3.4
v -0.3 5.8 3.3
v -0.2 5.3 3.1
v -0.2 5.3 3
v -0.2 5.8 3.1
v -0.2 5.8 3
v -0.2 6.2 4.2
v -0.2 6.2 4.1
v -0.2 6.2 3.3
v -0.2 6.2 3.2
v -0.2 6.5 3.3
v -0.2 6.5 3.2
v -0.2 6.6 3.3
v -0.2 6.6 3.2
v -0.2 6.7 4.2
v -0.2 6.7 4.1
v -0.2 6.8 4.2
v -0.2 6.8 4.1
v -0.2 7 3.3
v -0.2 7 3.2
v -0.2 7.3 4.2
v -0.2 7.3 4.1
v -3.57628e-07 6.2 4.2
v -3.57628e-07 6.2 4.1
v -3.57628e-07 6.2 3.3
v -3.57628e-07 6.2 3.2
v -3.57628e-07 6.5 3.3
v -3.57628e-07 6.5 3.2
v -3.57628e-07 6.6 3.3
v -3.57628e-07 6.6 3.2
v -3.57628e-07 6.7 4.2
v -3.57628e-07 6.7 4.1
v -3.57628e-07 6.8 4.2
v -3.57628e-07 6.8 4.1
v -3.57628e-07 7 3.3
v -3.57628e-07 7 3.2
v -3.57628e-07 7.3 4.2
v -3.57628e-07 7.3 4.1
v 0.0999997 5.9 3.3
v 0.0999997 5.9 3.1
v 0.0999997 6 3.3
v 0.0999997 6 3.1
v 0.0999997 7.3 3.3
v 0.0999997 7.3 3.2
v 0.0999997 7.4 4.1
v 0.0999997 7.4 3.3
v 0.0999997 7.4 3.2
v 0.0999997 7.6 4.1
v 0.0999997 7.6 3.3
v 0.2 5.3 3.1
v 0.2 5.3 3
v 0.2 5.8 3.3
v 0.2 5.8 3.1
v 0.2 5.8 3
v 0.2 5.9 3.3
v 0.2 5.9 3
v 0.2 7.1 4.2
v 0.2 7.1 4.1
v 0.2 7.1 3.3
v 0.2 7.1 3.2
v 0.2 7.3 4.1
v 0.2 7.3 3.3
v 0.2 7.3 3.2
v 0.2 7.4 4.2
v 0.2 7.4 4.1
v 0.2 7.4 3.3
v 0.3 5.5 3.4
v 0.3 5.5 3.3
v 0.3 5.8 3.4
v 0.3 5.8 3.3
v 0.4 6.2 3.3
v 0.4 6.2 3.2
v 0.4 6.7 3.3
v 0.4 6.7 3.2
v 0.4 7 4.2
v 0.4 7 4.1
v 0.4 7 3.3
v 0.4 7 3.2
v 0.4 7.1 4.2
v 0.4 7.1 4.1
v 0.4 7.1 3.3
v 0.4 7.1 3.2
v 0.4 7.3 4.1
v 0.4 7.3 3.3
v 0.5 6.8 4.2
v 0.5 6.8 4.1
v 0.5 6.8 3.3
v 0.5 6.8 3.2
v 0.5 7 4.2
v 0.5 7 4.1
v 0.5 7 3.3
v 0.5 7 3.2
v 0.5 7.1 4.1
v 0.5 7.1 3.3
v 0.7 5.5 4
v 0.7 5.5 3.4
v 0.7 5.8 4
v 0.7 5.8 3.4
v 0.7 6.7 4.2
v 0.7 6.7 4.1
v 0.7 6.7 3.3
v 0.7 6.7 3.2
v 0.7 6.8 4.2
v 0.7 6.8 4.1
v 0.7 6.8 3.3
v 0.7 6.8 3.2
v 0.7 7 4.1
v 0.7 7 3.3
v 0.8 5.3 4.1
v 0.8 5.3 4
v 0.8 5.3 3.9
v 0.8 5.3 3.8
v 0.8 5.3 3.7
v 0.8 5.3 3.6
v 0.8 5.3 3.5
v 0.8 5.3 3.4
v 0.8 5.3 3.3
v 0.8 5.4 4
v 0.8 5.4 3.4
v 0.8 5.5 4
v 0.8 5.5 3.4
v 0.8 5.8 4
v 0.8 5.8 3.4
v 0.8 5.9 4
v 0.8 5.9 3.9
v 0.8 5.9 3.8
v 0.8 5.9 3.7
v 0.8 5.9 3.6
v 0.8 5.9 3.5
v 0.8 5.9 3.4
v 0.8 6.1 4.1
v 0.8 6.1 4
v 0.8 6.1 3.4
v 0.8 6.1 3.3
v 0.8 6.5 4.2
v 0.8 6.5 4.1
v 0.8 6.5 3.3
v 0.8 6.5 3.2
v 0.8 6.7 4.2
v 0.8 6.7 4.1
v 0.8 6.7 3.3
v 0.8 6.7 3.2
v 0.8 6.8 4.1
v 0.8 6.8 3.3
v 1 6.4 4.2
v 1 6.4 4.1
v 1 6.4 3.3
v 1 6.4 3.2
v 1 6.5 4.2
v 1 6.5 4.1
v 1 6.5 3.3
v 1 6.5 3.2
v 1 6.7 4.1
v 1 6.7 3.3
v 1.1 5.2 4.2
v 1.1 5.2 4.1
v 1.1 5.2 2.9
v 1.1 5.2 2.8
v 1.1 5.3 4.2
v 1.1 5.3 4.1
v 1.1 5.3 2.9
v 1.1 5.3 2.8
v 1.1 6.2 4.2
v 1.1 6.2 4.1
v 1.1 6.2 3.3
v 1.1 6.2 3.2
v 1.1 6.4 4.2
v 1.1 6.4 4.1
v 1.1 6.4 3.3
v 1.1 6.4 3.2
v 1.1 6.5 4.1
v 1.1 6.5 3.3
v 1.3 5.2 4.1
v 1.3 5.2 4
v 1.3 5.2 3.9
v 1.3 5.2 3.8
v 1.3 5.2 3.7
v 1.3 5.2 3.6
v 1.3 5.2 3.5
v 1.3 5.2 3.4
v 1.3 5.2 3.3
v 1.3 5.2 3.2
v 1.3 5.2 3.1
v 1.3 5.2 3
v 1.3 5.2 2.9
v 1.3 5.3 4.1
v 1.3 5.3 4
v 1.3 5.3 3.9
v 1.3 5.3 3.8
v 1.3 5.3 3.7
v 1.3 5.3 3.6
v 1.3 5.3 3.5
v 1.3 5.3 3.4
v 1.3 5.3 3.3
v 1.3 5.3 3.2
v 1.3 5.3 3.1
v 1.3 5.3 3
v 1.3 5.3 2.9
v 1.3 5.8 4
v 1.3 5.8 3.9
v 1.3 5.8 3.8
v 1.3 5.8 3.7
v 1.3 5.8 3.6
v 1.3 5.8 3.5
v 1.3 5.8 3.4
v 1.3 5.9 4
v 1.3 5.9 3.9
v 1.3 5.9 3.8
v 1.3 5.9 3.7
v 1.3 5.9 3.6
v 1.3 5.9 3.5
v 1.3 5.9 3.4
v 1.3 6.1 4.2
v 1.3 6.1 4.1
v 1.3 6.1 3.3
v 1.3 6.1 3.2
v 1.3 6.2 4.2
v 1.3 6.2 4.1
v 1.3 6.2 3.3
v 1.3 6.2 3.2
v 1.3 6.4 4.1
v 1.3 6.4 3.3
v 1.4 6.1 4.1
v 1.4 6.1 3.3
v 1.4 6.2 4.1
v 1.4 6.2 3.3
v -1.4 6.1 4.2
v -1.4 6.2 4.2
v -1.2 5.2 4.2
v -1.2 5.3 4.2
v -1.2 6.2 4.2
v -1.2 6.4 4.2
v -1.1 6.4 4.2
v -1.1 6.5 4.2
v -0.9 6.2 4.2
v -0.9 6.5 4.2
v -0.9 6.7 4.2
v -0.8 6.2 4.2
v -0.8 6.5 4.2
v -0.8 6.7 4.2
v -0.8 6.8 4.2
v -0.6 6.2 4.2
v -0.6 6.8 4.2
v -0.6 7 4.2
v -0.5 6.2 4.2
v -0.5 6.8 4.2
v -0.5 7 4.2
v -0.5 7.1 4.2
v -0.3 6.2 4.2
v -0.3 7.1 4.2
v -0.3 7.4 4.2
v -0.2 6.2 4.2
v -0.2 6.7 4.2
v -0.2 6.8 4.2
v -0.2 7.3 4.2
v -0.1 6.2 4.2
v -0.1 6.7 4.2
v -0.1 6.8 4.2
v -0.1 7.3 4.2
v -3.57628e-07 6.2 4.2
v -3.57628e-07 6.7 4.2
v -3.57628e-07 6.8 4.2
v -3.57628e-07 7.3 4.2
v 0.0999997 6.2 4.2
v 0.0999997 6.7 4.2
v 0.0999997 6.8 4.2
v 0.0999997 7.3 4.2
v 0.2 6.2 4.2
v 0.2 7.1 4.2
v 0.2 7.4 4.2
v 0.4 6.2 4.2
v 0.4 6.8 4.2
v 0.4 7 4.2
v 0.4 7.1 4.2
v 0.5 6.2 4.2
v 0.5 6.8 4.2
v 0.5 7 4.2
v 0.7 6.2 4.2
v 0.7 6.5 4.2
v 0.7 6.7 4.2
v 0.7 6.8 4.2
v 0.8 6.2 4.2
v 0.8 6.5 4.2
v 0.8 6.7 4.2
v 1 6.4 4.2
v 1 6.5 4.2
v 1.1 5.2 4.2
v 1.1 5.3 4.2
v 1.1 6.2 4.2
v 1.1 6.4 4.2
v 1.3 6.1 4.2
v 1.3 6.2 4.2
v -1.5 6.1 4.1
v -1.5 6.2 4.1
v -1.4 5.2 4.1
v -1.4 5.3 4.1
v -1.4 6.1 4.1
v -1.4 6.2 4.1
v -1.4 6.4 4.1
v -1.2 5.2 4.1
v -1.2 5.3 4.1
v -1.2 6.2 4.1
v -1.2 6.4 4.1
v -1.2 6.5 4.1
v -1.1 6.4 4.1
v -1.1 6.5 4.1
v -1.1 6.7 4.1
v -0.9 5.3 4.1
v -0.9 6.1 4.1
v -0.9 6.5 4.1
v -0.9 6.7 4.1
v -0.9 6.8 4.1
v -0.8 5.3 4.1
v -0.8 6.1 4.1
v -0.8 6.7 4.1
v -0.8 6.8 4.1
v -0.8 7 4.1
v -0.6 5.5 4.1
v -0.6 5.9 4.1
v -0.6 6.8 4.1
v -0.6 7 4.1
v -0.6 7.1 4.1
v -0.5 5.6 4.1
v -0.5 5.8 4.1
v -0.5 7 4.1
v -0.5 7.1 4.1
v -0.5 7.3 4.1
v -0.3 7.1 4.1
v -0.3 7.3 4.1
v -0.2 6.2 4.1
v -0.2 6.7 4.1
v -0.2 6.8 4.1
v -0.2 7.3 4.1
v -0.2 7.4 4.1
v -0.2 7.6 4.1
v -0.1 6.2 4.1
v -0.1 6.7 4.1
v -0.1 6.8 4.1
v -0.1 7.3 4.1
v -3.57628e-07 6.2 4.1
v -3.57628e-07 6.7 4.1
v -3.57628e-07 6.8 4.1
v -3.57628e-07 7.3 4.1
v 0.0999997 6.2 4.1
v 0.0999997 6.7 4.1
v 0.0999997 6.8 4.1
v 0.0999997 7.3 4.1
v 0.0999997 7.4 4.1
v 0.0999997 7.6 4.1
v 0.2 7.1 4.1
v 0.2 7.3 4.1
v 0.4 5.6 4.1
v 0.4 5.8 4.1
v 0.4 7 4.1
v 0.4 7.1 4.1
v 0.4 7.3 4.1
v 0.5 5.5 4.1
v 0.5 5.9 4.1
v 0.5 6.8 4.1
v 0.5 7 4.1
v 0.5 7.1 4.1
v 0.7 5.3 4.1
v 0.7 6.1 4.1
v 0.7 6.7 4.1
v 0.7 6.8 4.1
v 0.7 7 4.1
v 0.8 5.3 4.1
v 0.8 6.1 4.1
v 0.8 6.5 4.1
v 0.8 6.7 4.1
v 0.8 6.8 4.1
v 1 6.4 4.1
v 1 6.5 4.1
v 1 6.7 4.1
v 1.1 5.2 4.1
v 1.1 5.3 4.1
v 1.1 6.2 4.1
v 1.1 6.4 4.1
v 1.1 6.5 4.1
v 1.3 5.2 4.1
v 1.3 5.3 4.1
v 1.3 6.1 4.1
v 1.3 6.2 4.1
v 1.3 6.4 4.1
v 1.4 6.1 4.1
v 1.4 6.2 4.1
v -1.1 7.4 4
v -1.1 7.6 4
v -1.1 7.8 4
v -1 7.6 4
v -1 7.8 4
v -0.7 7.5 4
v -0.7 7.7 4
v -0.6 7.7 4
v -0.6 7.8 4
v -0.5 5.6 4
v -0.5 5.8 4
v -0.5 7.4 4
v -0.5 7.5 4
v -0.5 7.8 4
v 0.4 5.6 4
v 0.4 5.8 4
v 0.8 5.8 4
v 0.8 5.9 4
v 1.1 5.3 4
v 1.1 5.8 4
v 1.3 5.3 4
v 1.3 5.8 4
v 1.3 5.9 4
v -1 6.7 3.9
v -1 7 3.9
v -1 7.3 3.9
v -1 7.4 3.9
v -0.9 6.7 3.9
v -0.9 6.8 3.9
v -0.9 7 3.9
v -0.9 7.3 3.9
v -0.9 7.4 3.9
v -0.8 6.8 3.9
v -0.8 7 3.9
v -0.7 7.2 3.9
v -0.7 7.3 3.9
v -0.6 7 3.9
v -0.6 7.1 3.9
v -0.6 7.2 3.9
v -0.6 7.3 3.9
v -0.6 7.4 3.9
v -0.9 6.7 3.6
v -0.9 7 3.6
v -0.9 7.2 3.6
v -0.9 7.3 3.6
v -0.9 7.4 3.6
v -0.9 7.5 3.6
v -0.8 6.7 3.6
v -0.8 6.8 3.6
v -0.8 7 3.6
v -0.8 7.2 3.6
v -0.7 6.8 3.6
v -0.7 7 3.6
v -0.7 7.1 3.6
v -0.7 7.3 3.6
v -0.7 7.4 3.6
v -0.7 7.5 3.6
v -1 7.5 3.5
v -1 7.8 3.5
v -0.7 7.5 3.5
v -0.7 7.6 3.5
v -0.6 7.5 3.5
v -0.6 7.6 3.5
v -0.6 7.8 3.5
v 1.1 5.3 3.5
v 1.1 5.8 3.5
v 1.3 5.3 3.5
v 1.3 5.8 3.5
v -0.9 5.5 3.4
v -0.9 5.8 3.4
v -0.8 5.5 3.4
v -0.8 5.8 3.4
v 0.7 5.5 3.4
v 0.7 5.8 3.4
v 0.8 5.5 3.4
v 0.8 5.8 3.4
v -0.3 5.3 3.1
v -0.3 5.8 3.1
v -0.2 5.3 3.1
v -0.2 5.8 3.1
v 0.0999997 5.3 3.1
v 0.0999997 5.8 3.1
v 0.2 5.3 3.1
v 0.2 5.8 3.1
v -0.9 5.5 4
v -0.9 5.8 4
v -0.8 5.5 4
v -0.8 5.8 4
v 0.7 5.5 4
v 0.7 5.8 4
v 0.8 5.5 4
v 0.8 5.8 4
v -1 7.5 3.9
v -1 7.8 3.9
v -0.7 7.5 3.9
v -0.7 7.7 3.9
v -0.6 7.5 3.9
v -0.6 7.6 3.9
v -0.6 7.7 3.9
v -0.6 7.8 3.9
v 1.1 5.3 3.9
v 1.1 5.8 3.9
v 1.3 5.3 3.9
v 1.3 5.8 3.9
v -0.9 6.7 3.8
v -0.9 7.2 3.8
v -0.9 7.3 3.8
v -0.9 7.4 3.8
v -0.9 7.5 3.8
v -0.8 6.7 3.8
v -0.8 6.8 3.8
v -0.8 7.2 3.8
v -0.8 7.3 3.8
v -0.7 6.8 3.8
v -0.7 7.2 3.8
v -0.7 7.4 3.8
v -0.7 7.5 3.8
v -0.8 7.2 3.7
v -0.8 7.3 3.7
v -0.7 7.2 3.7
v -0.7 7.3 3.7
v -1 6.7 3.5
v -1 7 3.5
v -1 7.2 3.5
v -1 7.4 3.5
v -0.9 6.7 3.5
v -0.9 6.8 3.5
v -0.8 6.8 3.5
v -0.8 7 3.5
v -0.8 7.2 3.5
v -0.7 7.4 3.5
v -0.6 7 3.5
v -0.6 7.1 3.5
v -0.6 7.4 3.5
v -1.1 7.4 3.4
v -1.1 7.6 3.4
v -1.1 7.8 3.4
v -1 7.4 3.4
v -1 7.6 3.4
v -0.7 5.5 3.4
v -0.7 5.8 3.4
v -0.7 7.4 3.4
v -0.7 7.6 3.4
v -0.6 7.6 3.4
v -0.6 7.8 3.4
v -0.5 7.4 3.4
v -0.5 7.6 3.4
v -0.5 7.8 3.4
v -0.4 5.5 3.4
v -0.4 5.8 3.4
v -0.3 5.3 3.4
v -0.3 5.5 3.4
v -0.3 5.8 3.4
v -0.2 5.3 3.4
v -0.2 5.6 3.4
v 0.0999997 5.3 3.4
v 0.0999997 5.6 3.4
v 0.2 5.3 3.4
v 0.2 5.5 3.4
v 0.2 5.8 3.4
v 0.3 5.5 3.4
v 0.3 5.8 3.4
v 0.6 5.5 3.4
v 0.6 5.8 3.4
v 0.8 5.8 3.4
v 0.8 5.9 3.4
v 1.1 5.3 3.4
v 1.1 5.8 3.4
v 1.3 5.3 3.4
v 1.3 5.8 3.4
v 1.3 5.9 3.4
v -1.5 6.1 3.3
v -1.5 6.2 3.3
v -1.4 6.1 3.3
v -1.4 6.2 3.3
v -1.4 6.4 3.3
v -1.2 6.2 3.3
v -1.2 6.4 3.3
v -1.2 6.5 3.3
v -1.1 6.4 3.3
v -1.1 6.5 3.3
v -1.1 6.7 3.3
v -0.9 5.3 3.3
v -0.9 6.1 3.3
v -0.9 6.5 3.3
v -0.9 6.7 3.3
v -0.9 6.8 3.3
v -0.8 5.3 3.3
v -0.8 5.5 3.3
v -0.8 5.8 3.3
v -0.8 6.1 3.3
v -0.8 6.7 3.3
v -0.8 6.8 3.3
v -0.8 7 3.3
v -0.7 5.4 3.3
v -0.7 5.5 3.3
v -0.7 5.8 3.3
v -0.7 5.9 3.3
v -0.6 5.3 3.3
v -0.6 6.1 3.3
v -0.6 6.2 3.3
v -0.6 6.7 3.3
v -0.6 6.8 3.3
v -0.6 7 3.3
v -0.6 7.1 3.3
v -0.5 6.1 3.3
v -0.5 6.2 3.3
v -0.5 6.7 3.3
v -0.5 7 3.3
v -0.5 7.1 3.3
v -0.5 7.3 3.3
v -0.4 5.4 3.3
v -0.4 5.5 3.3
v -0.4 5.8 3.3
v -0.4 5.9 3.3
v -0.3 5.3 3.3
v -0.3 5.5 3.3
v -0.3 5.8 3.3
v -0.3 5.9 3.3
v -0.3 7.1 3.3
v -0.3 7.3 3.3
v -0.3 7.4 3.3
v -0.2 5.9 3.3
v -0.2 6 3.3
v -0.2 6.1 3.3
v -0.2 6.2 3.3
v -0.2 6.5 3.3
v -0.2 6.6 3.3
v -0.2 7 3.3
v -0.2 7.3 3.3
v -0.2 7.4 3.3
v -0.2 7.6 3.3
v -0.1 6.2 3.3
v -0.1 6.5 3.3
v -0.1 6.6 3.3
v -0.1 7 3.3
v -3.57628e-07 6.2 3.3
v -3.57628e-07 6.5 3.3
v -3.57628e-07 6.6 3.3
v -3.57628e-07 7 3.3
v 0.0999997 5.9 3.3
v 0.0999997 6 3.3
v 0.0999997 6.1 3.3
v 0.0999997 6.2 3.3
v 0.0999997 6.5 3.3
v 0.0999997 6.6 3.3
v 0.0999997 7 3.3
v 0.0999997 7.3 3.3
v 0.0999997 7.4 3.3
v 0.0999997 7.6 3.3
v 0.2 5.3 3.3
v 0.2 5.5 3.3
v 0.2 5.8 3.3
v 0.2 5.9 3.3
v 0.2 7.1 3.3
v 0.2 7.3 3.3
v 0.2 7.4 3.3
v 0.3 5.4 3.3
v 0.3 5.5 3.3
v 0.3 5.8 3.3
v 0.3 5.9 3.3
v 0.4 6.1 3.3
v 0.4 6.2 3.3
v 0.4 6.7 3.3
v 0.4 7 3.3
v 0.4 7.1 3.3
v 0.4 7.3 3.3
v 0.5 5.3 3.3
v 0.5 6.1 3.3
v 0.5 6.2 3.3
v 0.5 6.7 3.3
v 0.5 6.8 3.3
v 0.5 7 3.3
v 0.5 7.1 3.3
v 0.6 5.4 3.3
v 0.6 5.5 3.3
v 0.6 5.8 3.3
v 0.6 5.9 3.3
v 0.7 5.3 3.3
v 0.7 5.5 3.3
v 0.7 5.8 3.3
v 0.7 6.1 3.3
v 0.7 6.7 3.3
v 0.7 6.8 3.3
v 0.7 7 3.3
v 0.8 5.3 3.3
v 0.8 6.1 3.3
v 0.8 6.5 3.3
v 0.8 6.7 3.3
v 0.8 6.8 3.3
v 1 6.4 3.3
v 1 6.5 3.3
v 1 6.7 3.3
v 1.1 6.2 3.3
v 1.1 6.4 3.3
v 1.1 6.5 3.3
v 1.3 6.1 3.3
v 1.3 6.2 3.3
v 1.3 6.4 3.3
v 1.4 6.1 3.3
v 1.4 6.2 3.3
v -1.4 6.1 3.2
v -1.4 6.2 3.2
v -1.2 6.2 3.2
v -1.2 6.4 3.2
v -1.1 6.4 3.2
v -1.1 6.5 3.2
v -0.9 6.5 3.2
v -0.9 6.7 3.2
v -0.8 6.2 3.2
v -0.8 6.7 3.2
v -0.8 6.8 3.2
v -0.6 6.1 3.2
v -0.6 6.2 3.2
v -0.6 6.7 3.2
v -0.6 6.8 3.2
v -0.6 7 3.2
v -0.5 6.1 3.2
v -0.5 6.2 3.2
v -0.5 6.7 3.2
v -0.5 6.8 3.2
v -0.5 7 3.2
v -0.5 7.1 3.2
v -0.3 6.7 3.2
v -0.3 7 3.2
v -0.3 7.1 3.2
v -0.3 7.3 3.2
v -0.2 6.1 3.2
v -0.2 6.2 3.2
v -0.2 6.5 3.2
v -0.2 6.6 3.2
v -0.2 7 3.2
v -0.2 7.1 3.2
v -0.2 7.3 3.2
v -0.2 7.4 3.2
v -0.1 6.2 3.2
v -0.1 6.5 3.2
v -0.1 6.6 3.2
v -0.1 7 3.2
v -3.57628e-07 6.2 3.2
v -3.57628e-07 6.5 3.2
v -3.57628e-07 6.6 3.2
v -3.57628e-07 7 3.2
v 0.0999997 6.1 3.2
v 0.0999997 6.2 3.2
v 0.0999997 6.5 3.2
v 0.0999997 6.6 3.2
v 0.0999997 7 3.2
v 0.0999997 7.1 3.2
v 0.0999997 7.3 3.2
v 0.0999997 7.4 3.2
v 0.2 6.7 3.2
v 0.2 7 3.2
v 0.2 7.1 3.2
v 0.2 7.3 3.2
v 0.4 6.1 3.2
v 0.4 6.2 3.2
v 0.4 6.7 3.2
v 0.4 6.8 3.2
v 0.4 7 3.2
v 0.4 7.1 3.2
v 0.5 6.1 3.2
v 0.5 6.2 3.2
v 0.5 6.7 3.2
v 0.5 6.8 3.2
v 0.5 7 3.2
v 0.7 6.2 3.2
v 0.7 6.7 3.2
v 0.7 6.8 3.2
v 0.8 6.5 3.2
v 0.8 6.7 3.2
v 1 6.4 3.2
v 1 6.5 3.2
v 1.1 6.2 3.2
v 1.1 6.4 3.2
v 1.3 6.1 3.2
v 1.3 6.2 3.2
v -0.2 5.9 3.1
v -0.2 6 3.1
v 0.0999997 5.9 3.1
v 0.0999997 6 3.1
v -0.3 5.3 3
v -0.3 5.8 3
v -0.3 5.9 3
v -0.2 5.3 3
v -0.2 5.8 3
v 0.0999997 5.3 3
v 0.0999997 5.8 3
v 0.2 5.3 3
v 0.2 5.8 3
v 0.2 5.9 3
v -1.4 5.2 2.9
v -1.4 5.3 2.9
v -1.2 5.2 2.9
v -1.2 5.3 2.9
v 1.1 5.2 2.9
v 1.1 5.3 2.9
v 1.3 5.2 2.9
v 1.3 5.3 2.9
v -1.2 5.2 2.8
v -1.2 5.3 2.8
v -0.9 5.2 2.8
v -0.9 5.3 2.8
v -0.8 5.2 2.8
v -0.8 5.3 2.8
v -0.6 5.2 2.8
v -0.6 5.3 2.8
v 0.5 5.2 2.8
v 0.5 5.3 2.8
v 0.7 5.2 2.8
v 0.7 5.3 2.8
v 0.8 5.2 2.8
v 0.8 5.3 2.8
v 1.1 5.2 2.8
v 1.1 5.3 2.8
v -1.2 5.2 4.2
v 1.1 5.2 4.2
v -1.4 5.2 4.1
v -1.2 5.2 4.1
v 1.1 5.2 4.1
v 1.3 5.2 4.1
v -1.4 5.2 4
v -0.9 5.2 4
v 0.8 5.2 4
v 1.3 5.2 4
v -1.4 5.2 3.9
v -0.9 5.2 3.9
v 0.8 5.2 3.9
v 1.3 5.2 3.9
v -1.4 5.2 3.8
v -0.9 5.2 3.8
v 0.8 5.2 3.8
v 1.3 5.2 3.8
v -1.4 5.2 3.7
v -0.9 5.2 3.7
v 0.8 5.2 3.7
v 1.3 5.2 3.7
v -1.4 5.2 3.6
v -0.9 5.2 3.6
v 0.8 5.2 3.6
v 1.3 5.2 3.6
v -1.4 5.2 3.5
v -0.9 5.2 3.5
v 0.8 5.2 3.5
v 1.3 5.2 3.5
v -1.4 5.2 3.4
v -0.9 5.2 3.4
v 0.8 5.2 3.4
v 1.3 5.2 3.4
v -1.4 5.2 3.3
v -0.9 5.2 3.3
v -0.8 5.2 3.3
v -0.6 5.2 3.3
v 0.5 5.2 3.3
v 0.7 5.2 3.3
v 0.8 5.2 3.3
v 1.3 5.2 3.3
v -1.4 5.2 3.2
v -0.9 5.2 3.2
v -0.6 5.2 3.2
v 0.5 5.2 3.2
v 0.8 5.2 3.2
v 1.3 5.2 3.2
v -1.4 5.2 3.1
v -0.9 5.2 3.1
v -0.6 5.2 3.1
v -0.3 5.2 3.1
v -0.2 5.2 3.1
v 0.0999997 5.2 3.1
v 0.2 5.2 3.1
v 0.5 5.2 3.1
v 0.8 5.2 3.1
v 1.3 5.2 3.1
v -1.4 5.2 3
v -0.9 5.2 3
v -0.6 5.2 3
v -0.3 5.2 3
v -0.2 5.2 3
v 0.0999997 5.2 3
v 0.2 5.2 3
v 0.5 5.2 3
v 0.8 5.2 3
v 1.3 5.2 3
v -1.4 5.2 2.9
v -1.2 5.2 2.9
v -0.9 5.2 2.9
v -0.6 5.2 2.9
v 0.5 5.2 2.9
v 0.8 5.2 2.9
v 1.1 5.2 2.9
v 1.3 5.2 2.9
v -1.2 5.2 2.8
v -0.9 5.2 2.8
v -0.8 5.2 2.8
v -0.6 5.2 2.8
v 0.5 5.2 2.8
v 0.7 5.2 2.8
v 0.8 5.2 2.8
v 1.1 5.2 2.8
v -0.5 5.8 4.1
v 0.4 5.8 4.1
v -0.9 5.8 4
v -0.8 5.8 4
v -0.5 5.8 4
v 0.4 5.8 4
v 0.7 5.8 4
v 0.8 5.8 4
v 1.1 5.8 4
v 0.8 5.8 3.9
v 1.1 5.8 3.9
v 1.3 5.8 3.9
v 0.8 5.8 3.8
v 1.3 5.8 3.8
v 0.8 5.8 3.7
v 1.3 5.8 3.7
v 0.8 5.8 3.6
v 1.3 5.8 3.6
v 0.8 5.8 3.5
v 1.1 5.8 3.5
v 1.3 5.8 3.5
v -0.9 5.8 3.4
v -0.8 5.8 3.4
v -0.7 5.8 3.4
v -0.4 5.8 3.4
v -0.3 5.8 3.4
v 0.2 5.8 3.4
v 0.3 5.8 3.4
v 0.6 5.8 3.4
v 0.7 5.8 3.4
v 0.8 5.8 3.4
v 1.1 5.8 3.4
v -0.7 5.8 3.3
v -0.4 5.8 3.3
v -0.3 5.8 3.3
v 0.2 5.8 3.3
v 0.3 5.8 3.3
v 0.6 5.8 3.3
v -0.3 5.8 3.1
v -0.2 5.8 3.1
v 0.0999997 5.8 3.1
v 0.2 5.8 3.1
v -0.2 5.8 3
v 0.0999997 5.8 3
v -1.4 6.1 4.2
v 1.3 6.1 4.2
v -1.5 6.1 4.1
v -1.4 6.1 4.1
v -0.9 6.1 4.1
v -0.8 6.1 4.1
v 0.7 6.1 4.1
v 0.8 6.1 4.1
v 1.3 6.1 4.1
v 1.4 6.1 4.1
v -0.9 6.1 4
v 0.8 6.1 4
v -0.9 6.1 3.4
v 0.8 6.1 3.4
v -1.5 6.1 3.3
v -1.4 6.1 3.3
v -0.9 6.1 3.3
v -0.8 6.1 3.3
v -0.6 6.1 3.3
v -0.5 6.1 3.3
v -0.2 6.1 3.3
v 0.0999997 6.1 3.3
v 0.4 6.1 3.3
v 0.5 6.1 3.3
v 0.7 6.1 3.3
v 0.8 6.1 3.3
v 1.3 6.1 3.3
v 1.4 6.1 3.3
v -1.4 6.1 3.2
v -0.6 6.1 3.2
v -0.5 6.1 3.2
v -0.2 6.1 3.2
v 0.0999997 6.1 3.2
v 0.4 6.1 3.2
v 0.5 6.1 3.2
v 1.3 6.1 3.2
v -0.2 6.5 3.3
v -0.1 6.5 3.3
v -3.57628e-07 6.5 3.3
v 0.0999997 6.5 3.3
v -0.2 6.5 3.2
v -0.1 6.5 3.2
v -3.57628e-07 6.5 3.2
v 0.0999997 6.5 3.2
v -0.2 6.7 4.2
v -0.1 6.7 4.2
v -3.57628e-07 6.7 4.2
v 0.0999997 6.7 4.2
v -0.2 6.7 4.1
v -0.1 6.7 4.1
v -3.57628e-07 6.7 4.1
v 0.0999997 6.7 4.1
v -0.6 6.7 3.3
v -0.5 6.7 3.3
v 0.4 6.7 3.3
v 0.5 6.7 3.3
v -0.6 6.7 3.2
v -0.5 6.7 3.2
v 0.4 6.7 3.2
v 0.5 6.7 3.2
v -0.2 7 3.3
v -0.1 7 3.3
v -3.57628e-07 7 3.3
v 0.0999997 7 3.3
v -0.2 7 3.2
v -0.1 7 3.2
v -3.57628e-07 7 3.2
v 0.0999997 7 3.2
v -0.8 7.2 3.8
v -0.7 7.2 3.8
v -0.8 7.2 3.7
v -0.7 7.2 3.7
v -0.2 7.3 4.2
v -0.1 7.3 4.2
v -3.57628e-07 7.3 4.2
v 0.0999997 7.3 4.2
v -0.2 7.3 4.1
v -0.1 7.3 4.1
v -3.57628e-07 7.3 4.1
v 0.0999997 7.3 4.1
v -0.9 7.3 3.8
v -0.8 7.3 3.8
v -0.8 7.3 3.7
v -0.7 7.3 3.7
v -0.9 7.3 3.6
v -0.7 7.3 3.6
v -1.1 7.4 4
v -0.5 7.4 4
v -1.1 7.4 3.9
v -1 7.4 3.9
v -0.9 7.4 3.9
v -0.6 7.4 3.9
v -1.1 7.4 3.6
v -1 7.4 3.6
v -1.1 7.4 3.5
v -1 7.4 3.5
v -0.7 7.4 3.5
v -0.6 7.4 3.5
v -0.5 7.4 3.5
v -1.1 7.4 3.4
v -1 7.4 3.4
v -0.7 7.4 3.4
v -0.5 7.4 3.4
v -1.2 5.3 4.2
v 1.1 5.3 4.2
v -1.4 5.3 4.1
v -1.2 5.3 4.1
v -0.9 5.3 4.1
v -0.8 5.3 4.1
v 0.7 5.3 4.1
v 0.8 5.3 4.1
v 1.1 5.3 4.1
v 1.3 5.3 4.1
v -1.4 5.3 4
v -0.9 5.3 4
v 0.8 5.3 4
v 1.1 5.3 4
v 1.3 5.3 4
v -1.4 5.3 3.9
v -0.9 5.3 3.9
v 0.8 5.3 3.9
v 1.1 5.3 3.9
v 1.3 5.3 3.9
v -1.4 5.3 3.8
v -0.9 5.3 3.8
v 0.8 5.3 3.8
v 1.3 5.3 3.8
v -1.4 5.3 3.7
v -0.9 5.3 3.7
v 0.8 5.3 3.7
v 1.3 5.3 3.7
v -1.4 5.3 3.6
v -0.9 5.3 3.6
v 0.8 5.3 3.6
v 1.3 5.3 3.6
v -1.4 5.3 3.5
v -0.9 5.3 3.5
v 0.8 5.3 3.5
v 1.1 5.3 3.5
v 1.3 5.3 3.5
v -1.4 5.3 3.4
v -0.9 5.3 3.4
v -0.3 5.3 3.4
v -0.2 5.3 3.4
v 0.0999997 5.3 3.4
v 0.2 5.3 3.4
v 0.8 5.3 3.4
v 1.1 5.3 3.4
v 1.3 5.3 3.4
v -1.4 5.3 3.3
v -0.9 5.3 3.3
v -0.8 5.3 3.3
v -0.6 5.3 3.3
v -0.3 5.3 3.3
v 0.2 5.3 3.3
v 0.5 5.3 3.3
v 0.7 5.3 3.3
v 0.8 5.3 3.3
v 1.3 5.3 3.3
v -1.4 5.3 3.2
v -0.9 5.3 3.2
v -0.6 5.3 3.2
v 0.5 5.3 3.2
v 0.8 5.3 3.2
v 1.3 5.3 3.2
v -1.4 5.3 3.1
v -0.9 5.3 3.1
v -0.6 5.3 3.1
v -0.3 5.3 3.1
v -0.2 5.3 3.1
v 0.0999997 5.3 3.1
v 0.2 5.3 3.1
v 0.5 5.3 3.1
v 0.8 5.3 3.1
v 1.3 5.3 3.1
v -1.4 5.3 3
v -0.9 5.3 3
v -0.6 5.3 3
v -0.3 5.3 3
v -0.2 5.3 3
v 0.0999997 5.3 3
v 0.2 5.3 3
v 0.5 5.3 3
v 0.8 5.3 3
v 1.3 5.3 3
v -1.4 5.3 2.9
v -1.2 5.3 2.9
v -0.9 5.3 2.9
v -0.6 5.3 2.9
v 0.5 5.3 2.9
v 0.8 5.3 2.9
v 1.1 5.3 2.9
v 1.3 5.3 2.9
v -1.2 5.3 2.8
v -0.9 5.3 2.8
v -0.8 5.3 2.8
v -0.6 5.3 2.8
v 0.5 5.3 2.8
v 0.7 5.3 2.8
v 0.8 5.3 2.8
v 1.1 5.3 2.8
v -0.9 5.5 4
v -0.8 5.5 4
v 0.7 5.5 4
v 0.8 5.5 4
v -0.9 5.5 3.4
v -0.8 5.5 3.4
v -0.7 5.5 3.4
v -0.4 5.5 3.4
v 0.3 5.5 3.4
v 0.6 5.5 3.4
v 0.7 5.5 3.4
v 0.8 5.5 3.4
v -0.7 5.5 3.3
v -0.4 5.5 3.3
v 0.3 5.5 3.3
v 0.6 5.5 3.3
v -0.5 5.6 4.1
v 0.4 5.6 4.1
v -0.5 5.6 4
v 0.4 5.6 4
v 0.8 5.9 4
v 1.3 5.9 4
v 0.8 5.9 3.9
v 1.3 5.9 3.9
v 0.8 5.9 3.8
v 1.3 5.9 3.8
v 0.8 5.9 3.7
v 1.3 5.9 3.7
v 0.8 5.9 3.6
v 1.3 5.9 3.6
v 0.8 5.9 3.5
v 1.3 5.9 3.5
v 0.8 5.9 3.4
v 1.3 5.9 3.4
v -0.3 5.9 3.3
v -0.2 5.9 3.3
v 0.0999997 5.9 3.3
v 0.2 5.9 3.3
v -0.2 5.9 3.1
v 0.0999997 5.9 3.1
v -0.3 5.9 3
v 0.2 5.9 3
v -0.2 6 3.3
v 0.0999997 6 3.3
v -0.2 6 3.1
v 0.0999997 6 3.1
v -1.4 6.2 4.2
v -1.2 6.2 4.2
v -0.2 6.2 4.2
v -0.1 6.2 4.2
v -3.57628e-07 6.2 4.2
v 0.0999997 6.2 4.2
v 1.1 6.2 4.2
v 1.3 6.2 4.2
v -1.5 6.2 4.1
v -1.4 6.2 4.1
v -1.2 6.2 4.1
v -0.2 6.2 4.1
v -0.1 6.2 4.1
v -3.57628e-07 6.2 4.1
v 0.0999997 6.2 4.1
v 1.1 6.2 4.1
v 1.3 6.2 4.1
v 1.4 6.2 4.1
v -1.5 6.2 3.3
v -1.4 6.2 3.3
v -1.2 6.2 3.3
v -0.6 6.2 3.3
v -0.5 6.2 3.3
v -0.2 6.2 3.3
v -0.1 6.2 3.3
v -3.57628e-07 6.2 3.3
v 0.0999997 6.2 3.3
v 0.4 6.2 3.3
v 0.5 6.2 3.3
v 1.1 6.2 3.3
v 1.3 6.2 3.3
v 1.4 6.2 3.3
v -1.4 6.2 3.2
v -1.2 6.2 3.2
v -0.6 6.2 3.2
v -0.5 6.2 3.2
v -0.2 6.2 3.2
v -0.1 6.2 3.2
v -3.57628e-07 6.2 3.2
v 0.0999997 6.2 3.2
v 0.4 6.2 3.2
v 0.5 6.2 3.2
v 1.1 6.2 3.2
v 1.3 6.2 3.2
v -1.2 6.4 4.2
v -1.1 6.4 4.2
v 1 6.4 4.2
v 1.1 6.4 4.2
v -1.4 6.4 4.1
v -1.2 6.4 4.1
v -1.1 6.4 4.1
v 1 6.4 4.1
v 1.1 6.4 4.1
v 1.3 6.4 4.1
v -1.4 6.4 3.3
v -1.2 6.4 3.3
v -1.1 6.4 3.3
v 1 6.4 3.3
v 1.1 6.4 3.3
v 1.3 6.4 3.3
v -1.2 6.4 3.2
v -1.1 6.4 3.2
v 1 6.4 3.2
v 1.1 6.4 3.2
v -1.1 6.5 4.2
v -0.9 6.5 4.2
v 0.8 6.5 4.2
v 1 6.5 4.2
v -1.2 6.5 4.1
v -1.1 6.5 4.1
v -0.9 6.5 4.1
v 0.8 6.5 4.1
v 1 6.5 4.1
v 1.1 6.5 4.1
v -1.2 6.5 3.3
v -1.1 6.5 3.3
v -0.9 6.5 3.3
v 0.8 6.5 3.3
v 1 6.5 3.3
v 1.1 6.5 3.3
v -1.1 6.5 3.2
v -0.9 6.5 3.2
v 0.8 6.5 3.2
v 1 6.5 3.2
v -0.2 6.6 3.3
v -0.1 6.6 3.3
v -3.57628e-07 6.6 3.3
v 0.0999997 6.6 3.3
v -0.2 6.6 3.2
v -0.1 6.6 3.2
v -3.57628e-07 6.6 3.2
v 0.0999997 6.6 3.2
v -0.9 6.7 4.2
v -0.8 6.7 4.2
v 0.7 6.7 4.2
v 0.8 6.7 4.2
v -1.1 6.7 4.1
v -0.9 6.7 4.1
v -0.8 6.7 4.1
v 0.7 6.7 4.1
v 0.8 6.7 4.1
v 1 6.7 4.1
v -1 6.7 3.9
v -0.9 6.7 3.9
v -1 6.7 3.8
v -0.9 6.7 3.8
v -0.8 6.7 3.8
v -0.9 6.7 3.6
v -0.8 6.7 3.6
v -1 6.7 3.5
v -0.9 6.7 3.5
v -1.1 6.7 3.3
v -0.9 6.7 3.3
v -0.8 6.7 3.3
v 0.7 6.7 3.3
v 0.8 6.7 3.3
v 1 6.7 3.3
v -0.9 6.7 3.2
v -0.8 6.7 3.2
v 0.7 6.7 3.2
v 0.8 6.7 3.2
v -0.8 6.8 4.2
v -0.6 6.8 4.2
v -0.2 6.8 4.2
v -0.1 6.8 4.2
v -3.57628e-07 6.8 4.2
v 0.0999997 6.8 4.2
v 0.5 6.8 4.2
v 0.7 6.8 4.2
v -0.9 6.8 4.1
v -0.8 6.8 4.1
v -0.6 6.8 4.1
v -0.2 6.8 4.1
v -0.1 6.8 4.1
v -3.57628e-07 6.8 4.1
v 0.0999997 6.8 4.1
v 0.5 6.8 4.1
v 0.7 6.8 4.1
v 0.8 6.8 4.1
v -0.9 6.8 3.9
v -0.8 6.8 3.9
v -0.8 6.8 3.8
v -0.7 6.8 3.8
v -0.8 6.8 3.6
v -0.7 6.8 3.6
v -0.9 6.8 3.5
v -0.8 6.8 3.5
v -0.9 6.8 3.3
v -0.8 6.8 3.3
v -0.6 6.8 3.3
v 0.5 6.8 3.3
v 0.7 6.8 3.3
v 0.8 6.8 3.3
v -0.8 6.8 3.2
v -0.6 6.8 3.2
v 0.5 6.8 3.2
v 0.7 6.8 3.2
v -0.6 7 4.2
v -0.5 7 4.2
v 0.4 7 4.2
v 0.5 7 4.2
v -0.8 7 4.1
v -0.6 7 4.1
v -0.5 7 4.1
v 0.4 7 4.1
v 0.5 7 4.1
v 0.7 7 4.1
v -0.8 7 3.9
v -0.6 7 3.9
v -0.8 7 3.5
v -0.6 7 3.5
v -0.8 7 3.3
v -0.6 7 3.3
v -0.5 7 3.3
v 0.4 7 3.3
v 0.5 7 3.3
v 0.7 7 3.3
v -0.6 7 3.2
v -0.5 7 3.2
v 0.4 7 3.2
v 0.5 7 3.2
v -0.5 7.1 4.2
v -0.3 7.1 4.2
v 0.2 7.1 4.2
v 0.4 7.1 4.2
v -0.6 7.1 4.1
v -0.5 7.1 4.1
v -0.3 7.1 4.1
v 0.2 7.1 4.1
v 0.4 7.1 4.1
v 0.5 7.1 4.1
v -0.6 7.1 3.9
v -0.6 7.1 3.7
v -0.6 7.1 3.6
v -0.6 7.1 3.5
v -0.6 7.1 3.3
v -0.5 7.1 3.3
v -0.3 7.1 3.3
v 0.2 7.1 3.3
v 0.4 7.1 3.3
v 0.5 7.1 3.3
v -0.5 7.1 3.2
v -0.3 7.1 3.2
v 0.2 7.1 3.2
v 0.4 7.1 3.2
v -0.5 7.3 4.1
v -0.3 7.3 4.1
v 0.2 7.3 4.1
v 0.4 7.3 4.1
v -0.5 7.3 3.3
v -0.3 7.3 3.3
v -0.2 7.3 3.3
v 0.0999997 7.3 3.3
v 0.2 7.3 3.3
v 0.4 7.3 3.3
v -0.3 7.3 3.2
v -0.2 7.3 3.2
v 0.0999997 7.3 3.2
v 0.2 7.3 3.2
v -0.3 7.4 4.2
v 0.2 7.4 4.2
v -0.3 7.4 4.1
v -0.2 7.4 4.1
v 0.0999997 7.4 4.1
v 0.2 7.4 4.1
v -0.9 7.4 3.8
v -0.7 7.4 3.8
v -0.9 7.4 3.6
v -0.7 7.4 3.6
v -0.3 7.4 3.3
v -0.2 7.4 3.3
v 0.0999997 7.4 3.3
v 0.2 7.4 3.3
v -0.2 7.4 3.2
v 0.0999997 7.4 3.2
v -1 7.5 3.9
v -0.7 7.5 3.9
v -0.6 7.5 3.9
v -1 7.5 3.8
v -0.9 7.5 3.8
v -0.7 7.5 3.8
v -1 7.5 3.7
v -0.9 7.5 3.6
v -0.7 7.5 3.6
v -1 7.5 3.5
v -0.7 7.5 3.5
v -0.6 7.5 3.5
v -0.2 7.6 4.1
v 0.0999997 7.6 4.1
v -0.2 7.6 3.3
v 0.0999997 7.6 3.3
v -1.1 7.8 4
v -1 7.8 4
v -0.6 7.8 4
v -0.5 7.8 4
v -1.1 7.8 3.9
v -1 7.8 3.9
v -0.6 7.8 3.9
v -0.6 7.8 3.8
v -0.5 7.8 3.8
v -1 7.8 3.5
v -0.6 7.8 3.5
v -0.5 7.8 3.5
v -1.1 7.8 3.4
v -0.6 7.8 3.4
v -0.5 7.8 3.4

# faces
f 3/3/1 2/3/1 1/3/1
f 4/3/1 2/3/1 3/3/1
f 18/4/1 6/4/1 5/4/1
f 19/5/1 7/5/1 6/5/1
f 19/4/1 6/4/1 18/4/1
f 20/4/1 8/4/1 7/4/1
f 20/5/1 7/5/1 19/5/1
f 21/5/1 9/5/1 8/5/1
f 21/4/1 8/4/1 20/4/1
f 22/4/1 10/4/1 9/4/1
f 22/5/1 9/5/1 21/5/1
f 23/5/1 11/5/1 10/5/1
f 23/4/1 10/4/1 22/4/1
f 24/4/1 12/4/1 11/4/1
f 24/5/1 11/5/1 23/5/1
f 25/5/1 13/5/1 12/5/1
f 25/4/1 12/4/1 24/4/1
f 26/4/1 14/4/1 13/4/1
f 26/5/1 13/5/1 25/5/1
f 27/5/1 15/5/1 14/5/1
f 27/4/1 14/4/1 26/4/1
f 28/4/1 16/4/1 15/4/1
f 28/5/1 15/5/1 27/5/1
f 29/5/1 17/5/1 16/5/1
f 29/4/1 16/4/1 28/4/1
f 30/5/1 17/5/1 29/5/1
f 35/3/1 32/3/1 31/3/1
f 36/3/1 32/3/1 35/3/1
f 37/3/1 34/3/1 33/3/1
f 38/3/1 34/3/1 37/3/1
f 39/3/1 37/3/1 36/3/1
f 40/3/1 37/3/1 39/3/1
f 45/5/1 42/5/1 41/5/1
f 46/5/1 42/5/1 45/5/1
f 47/4/1 44/4/1 43/4/1
f 48/4/1 44/4/1 47/4/1
f 53/3/1 50/3/1 49/3/1
f 54/3/1 50/3/1 53/3/1
f 55/3/1 52/3/1 51/3/1
f 56/3/1 52/3/1 55/3/1
f 57/3/1 55/3/1 54/3/1
f 58/3/1 55/3/1 57/3/1
f 63/3/1 60/3/1 59/3/1
f 64/3/1 60/3/1 63/3/1
f 65/3/1 62/3/1 61/3/1
f 66/3/1 62/3/1 65/3/1
f 67/3/1 65/3/1 64/3/1
f 68/3/1 65/3/1 67/3/1
f 74/15/1 70/15/1 69/15/1
f 74/16/1 71/16/1 70/16/1
f 75/16/1 71/16/1 74/16/1
f 76/16/1 71/16/1 75/16/1
f 77/15/1 72/15/1 71/15/1
f 77/16/1 71/16/1 76/16/1
f 78/15/1 74/15/1 69/15/1
f 78/15/1 75/15/1 74/15/1
f 79/15/1 75/15/1 78/15/1
f 80/16/1 76/16/1 75/16/1
f 80/15/1 75/15/1 79/15/1
f 81/15/1 77/15/1 76/15/1
f 81/16/1 76/16/1 80/16/1
f 82/13/1 73/13/1 72/13/1
f 82/15/1 77/15/1 81/15/1
f 82/15/1 72/15/1 77/15/1
f 83/13/1 73/13/1 82/13/1
f 84/13/1 79/13/1 78/13/1
f 85/15/1 81/15/1 80/15/1
f 85/13/1 79/13/1 84/13/1
f 85/15/1 80/15/1 79/15/1
f 85/15/1 83/15/1 82/15/1
f 85/15/1 82/15/1 81/15/1
f 86/15/1 83/15/1 85/15/1
f 90/13/1 88/13/1 87/13/1
f 91/15/1 89/15/1 88/15/1
f 91/13/1 88/13/1 90/13/1
f 92/15/1 89/15/1 91/15/1
f 93/15/1 89/15/1 92/15/1
f 94/15/1 91/15/1 90/15/1
f 94/15/1 92/15/1 91/15/1
f 95/16/1 93/16/1 92/16/1
f 95/15/1 92/15/1 94/15/1
f 96/16/1 93/16/1 95/16/1
f 97/15/1 94/15/1 90/15/1
f 98/16/1 95/16/1 94/16/1
f 98/15/1 94/15/1 97/15/1
f 99/16/1 98/16/1 97/16/1
f 100/15/1 96/15/1 95/15/1
f 100/16/1 98/16/1 99/16/1
f 100/16/1 95/16/1 98/16/1
f 101/15/1 96/15/1 100/15/1
f 111/6/1 103/6/1 102/6/1
f 111/7/1 104/7/1 103/7/1
f 111/7/1 109/7/1 108/7/1
f 111/7/1 108/7/1 107/7/1
f 111/7/1 107/7/1 106/7/1
f 111/7/1 106/7/1 105/7/1
f 111/7/1 105/7/1 104/7/1
f 112/6/1 110/6/1 109/6/1
f 112/7/1 109/7/1 111/7/1
f 113/6/1 111/6/1 102/6/1
f 113/5/1 112/5/1 111/5/1
f 114/6/1 110/6/1 112/6/1
f 114/5/1 112/5/1 113/5/1
f 115/6/1 113/6/1 102/6/1
f 116/6/1 110/6/1 114/6/1
f 117/6/1 115/6/1 102/6/1
f 117/5/1 116/5/1 115/5/1
f 118/6/1 110/6/1 116/6/1
f 118/5/1 116/5/1 117/5/1
f 119/6/1 117/6/1 102/6/1
f 120/7/1 118/7/1 117/7/1
f 120/6/1 117/6/1 119/6/1
f 121/6/1 110/6/1 118/6/1
f 121/7/1 118/7/1 120/7/1
f 122/6/1 110/6/1 121/6/1
f 127/3/1 124/3/1 123/3/1
f 128/3/1 124/3/1 127/3/1
f 131/3/1 126/3/1 125/3/1
f 132/3/1 126/3/1 131/3/1
f 133/3/1 129/3/1 128/3/1
f 134/3/1 129/3/1 133/3/1
f 135/3/1 131/3/1 130/3/1
f 136/3/1 131/3/1 135/3/1
f 139/12/1 138/12/1 137/12/1
f 140/12/1 138/12/1 139/12/1
f 147/3/1 142/3/1 141/3/1
f 148/3/1 142/3/1 147/3/1
f 150/14/1 144/14/1 143/14/1
f 151/14/1 144/14/1 150/14/1
f 153/3/1 146/3/1 145/3/1
f 154/3/1 146/3/1 153/3/1
f 155/3/1 149/3/1 148/3/1
f 156/3/1 149/3/1 155/3/1
f 157/3/1 153/3/1 152/3/1
f 158/3/1 153/3/1 157/3/1
f 161/13/1 160/13/1 159/13/1
f 162/13/1 160/13/1 161/13/1
f 165/15/1 164/15/1 163/15/1
f 166/15/1 164/15/1 165/15/1
f 167/15/1 165/15/1 163/15/1
f 167/13/1 166/13/1 165/13/1
f 168/13/1 166/13/1 167/13/1
f 169/15/1 167/15/1 163/15/1
f 170/16/1 168/16/1 167/16/1
f 170/15/1 167/15/1 169/15/1
f 171/16/1 168/16/1 170/16/1
f 172/16/1 168/16/1 171/16/1
f 175/18/1 174/18/1 173/18/1
f 176/18/1 174/18/1 175/18/1
f 181/3/1 178/3/1 177/3/1
f 182/3/1 178/3/1 181/3/1
f 185/3/1 180/3/1 179/3/1
f 186/3/1 180/3/1 185/3/1
f 187/3/1 183/3/1 182/3/1
f 188/3/1 183/3/1 187/3/1
f 189/3/1 185/3/1 184/3/1
f 190/3/1 185/3/1 189/3/1
f 193/15/1 192/15/1 191/15/1
f 194/15/1 192/15/1 193/15/1
f 195/15/1 192/15/1 194/15/1
f 196/16/1 194/16/1 193/16/1
f 197/16/1 194/16/1 196/16/1
f 198/15/1 195/15/1 194/15/1
f 198/16/1 194/16/1 197/16/1
f 199/15/1 195/15/1 198/15/1
f 202/2/1 201/2/1 200/2/1
f 203/2/1 201/2/1 202/2/1
f 208/3/1 205/3/1 204/3/1
f 209/3/1 205/3/1 208/3/1
f 210/3/1 207/3/1 206/3/1
f 211/3/1 207/3/1 210/3/1
f 212/3/1 210/3/1 209/3/1
f 213/3/1 210/3/1 212/3/1
f 216/5/1 215/5/1 214/5/1
f 217/5/1 215/5/1 216/5/1
f 221/8/1 219/8/1 218/8/1
f 222/8/1 219/8/1 221/8/1
f 223/3/1 221/3/1 220/3/1
f 223/3/1 222/3/1 221/3/1
f 224/3/1 222/3/1 223/3/1
f 229/2/1 226/2/1 225/2/1
f 230/3/1 228/3/1 227/3/1
f 231/3/1 228/3/1 230/3/1
f 232/2/1 229/2/1 225/2/1
f 233/3/1 230/3/1 229/3/1
f 233/2/1 229/2/1 232/2/1
f 234/3/1 230/3/1 233/3/1
f 237/3/1 236/3/1 235/3/1
f 238/3/1 236/3/1 237/3/1
f 242/3/1 240/3/1 239/3/1
f 243/3/1 240/3/1 242/3/1
f 244/3/1 242/3/1 241/3/1
f 245/3/1 242/3/1 244/3/1
f 250/3/1 249/3/1 248/3/1
f 251/3/1 249/3/1 250/3/1
f 254/3/1 247/3/1 246/3/1
f 255/3/1 247/3/1 254/3/1
f 258/3/1 253/3/1 252/3/1
f 259/3/1 253/3/1 258/3/1
f 260/3/1 257/3/1 256/3/1
f 261/3/1 257/3/1 260/3/1
f 264/8/1 263/8/1 262/8/1
f 265/8/1 263/8/1 264/8/1
f 270/2/1 269/2/1 268/2/1
f 271/2/1 269/2/1 270/2/1
f 274/2/1 267/2/1 266/2/1
f 275/2/1 267/2/1 274/2/1
f 278/2/1 273/2/1 272/2/1
f 279/2/1 273/2/1 278/2/1
f 280/2/1 277/2/1 276/2/1
f 281/2/1 277/2/1 280/2/1
f 284/7/1 283/7/1 282/7/1
f 285/7/1 283/7/1 284/7/1
f 286/5/1 285/5/1 284/5/1
f 287/5/1 285/5/1 286/5/1
f 290/5/1 289/5/1 288/5/1
f 291/5/1 289/5/1 290/5/1
f 294/2/1 293/2/1 292/2/1
f 295/2/1 293/2/1 294/2/1
f 298/5/1 297/5/1 296/5/1
f 299/5/1 297/5/1 298/5/1
f 304/8/1 301/8/1 300/8/1
f 305/8/1 301/8/1 304/8/1
f 306/8/1 303/8/1 302/8/1
f 307/8/1 303/8/1 306/8/1
f 308/15/2 309/15/2 312/15/2
f 309/16/2 310/16/2 312/16/2
f 310/15/2 311/15/2 313/15/2
f 312/16/2 310/16/2 313/16/2
f 308/15/2 312/15/2 314/15/2
f 312/15/2 313/15/2 314/15/2
f 313/15/2 311/15/2 315/15/2
f 314/15/2 313/15/2 315/15/2
f 316/15/2 317/15/2 318/15/2
f 316/15/2 318/15/2 319/15/2
f 319/15/2 318/15/2 320/15/2
f 319/16/2 320/16/2 321/16/2
f 321/16/2 320/16/2 322/16/2
f 323/18/2 324/18/2 325/18/2
f 325/18/2 324/18/2 326/18/2
f 327/5/2 328/5/2 329/5/2
f 329/5/2 328/5/2 330/5/2
f 331/2/2 332/2/2 333/2/2
f 333/2/2 332/2/2 334/2/2
f 335/15/2 336/15/2 339/15/2
f 336/16/2 337/16/2 340/16/2
f 339/15/2 336/15/2 340/15/2
f 339/16/2 340/16/2 341/16/2
f 337/15/2 338/15/2 342/15/2
f 341/16/2 340/16/2 342/16/2
f 340/16/2 337/16/2 342/16/2
f 341/15/2 342/15/2 343/15/2
f 342/15/2 338/15/2 344/15/2
f 343/15/2 342/15/2 344/15/2
f 345/5/2 346/5/2 347/5/2
f 347/5/2 346/5/2 348/5/2
f 349/15/2 350/15/2 352/15/2
f 352/15/2 350/15/2 353/15/2
f 352/16/2 353/16/2 354/16/2
f 353/15/2 350/15/2 354/15/2
f 354/15/2 350/15/2 355/15/2
f 350/16/2 351/16/2 356/16/2
f 355/15/2 350/15/2 356/15/2
f 356/16/2 351/16/2 357/16/2
f 354/16/2 355/16/2 358/16/2
f 352/16/2 354/16/2 358/16/2
f 355/15/2 356/15/2 359/15/2
f 358/16/2 355/16/2 359/16/2
f 356/13/2 357/13/2 360/13/2
f 359/15/2 356/15/2 360/15/2
f 360/13/2 357/13/2 361/13/2
f 362/7/2 363/7/2 364/7/2
f 364/7/2 363/7/2 365/7/2
f 364/5/2 365/5/2 366/5/2
f 366/5/2 365/5/2 367/5/2
f 368/8/2 369/8/2 370/8/2
f 370/8/2 369/8/2 371/8/2
f 374/2/2 375/2/2 376/2/2
f 376/2/2 375/2/2 377/2/2
f 372/2/2 373/2/2 380/2/2
f 380/2/2 373/2/2 381/2/2
f 378/2/2 379/2/2 384/2/2
f 384/2/2 379/2/2 385/2/2
f 382/2/2 383/2/2 386/2/2
f 386/2/2 383/2/2 387/2/2
f 390/3/2 391/3/2 392/3/2
f 392/3/2 391/3/2 393/3/2
f 388/3/2 389/3/2 396/3/2
f 396/3/2 389/3/2 397/3/2
f 394/3/2 395/3/2 400/3/2
f 400/3/2 395/3/2 401/3/2
f 398/3/2 399/3/2 402/3/2
f 402/3/2 399/3/2 403/3/2
f 404/3/2 405/3/2 406/3/2
f 406/3/2 405/3/2 407/3/2
f 408/3/2 409/3/2 411/3/2
f 411/3/2 409/3/2 412/3/2
f 410/3/2 411/3/2 413/3/2
f 413/3/2 411/3/2 414/3/2
f 415/8/2 416/8/2 418/8/2
f 418/8/2 416/8/2 419/8/2
f 417/3/2 418/3/2 420/3/2
f 418/3/2 419/3/2 420/3/2
f 420/3/2 419/3/2 421/3/2
f 422/2/2 423/2/2 426/2/2
f 424/3/2 425/3/2 427/3/2
f 427/3/2 425/3/2 428/3/2
f 422/2/2 426/2/2 429/2/2
f 426/3/2 427/3/2 430/3/2
f 429/2/2 426/2/2 430/2/2
f 430/3/2 427/3/2 431/3/2
f 432/5/2 433/5/2 434/5/2
f 434/5/2 433/5/2 435/5/2
f 436/2/2 437/2/2 438/2/2
f 438/2/2 437/2/2 439/2/2
f 440/3/2 441/3/2 444/3/2
f 444/3/2 441/3/2 445/3/2
f 442/3/2 443/3/2 446/3/2
f 446/3/2 443/3/2 447/3/2
f 445/3/2 446/3/2 448/3/2
f 448/3/2 446/3/2 449/3/2
f 450/3/2 451/3/2 454/3/2
f 454/3/2 451/3/2 455/3/2
f 452/3/2 453/3/2 456/3/2
f 456/3/2 453/3/2 457/3/2
f 455/3/2 456/3/2 458/3/2
f 458/3/2 456/3/2 459/3/2
f 460/12/2 461/12/2 462/12/2
f 462/12/2 461/12/2 463/12/2
f 464/3/2 465/3/2 468/3/2
f 468/3/2 465/3/2 469/3/2
f 466/3/2 467/3/2 470/3/2
f 470/3/2 467/3/2 471/3/2
f 469/3/2 470/3/2 472/3/2
f 472/3/2 470/3/2 473/3/2
f 474/6/2 475/6/2 483/6/2
f 475/7/2 476/7/2 483/7/2
f 480/7/2 481/7/2 483/7/2
f 479/7/2 480/7/2 483/7/2
f 478/7/2 479/7/2 483/7/2
f 477/7/2 478/7/2 483/7/2
f 476/7/2 477/7/2 483/7/2
f 481/6/2 482/6/2 484/6/2
f 483/7/2 481/7/2 484/7/2
f 474/6/2 483/6/2 485/6/2
f 483/5/2 484/5/2 485/5/2
f 484/6/2 482/6/2 486/6/2
f 485/5/2 484/5/2 486/5/2
f 474/6/2 485/6/2 487/6/2
f 486/6/2 482/6/2 488/6/2
f 474/6/2 487/6/2 489/6/2
f 488/6/2 482/6/2 495/6/2
f 474/6/2 489/6/2 496/6/2
f 493/7/2 494/7/2 497/7/2
f 496/6/2 489/6/2 497/6/2
f 494/7/2 495/7/2 497/7/2
f 489/7/2 490/7/2 497/7/2
f 490/7/2 491/7/2 497/7/2
f 492/7/2 493/7/2 497/7/2
f 491/7/2 492/7/2 497/7/2
f 495/6/2 482/6/2 498/6/2
f 497/7/2 495/7/2 498/7/2
f 498/6/2 482/6/2 499/6/2
f 500/3/2 501/3/2 504/3/2
f 504/3/2 501/3/2 505/3/2
f 502/3/2 503/3/2 506/3/2
f 506/3/2 503/3/2 507/3/2
f 505/3/2 506/3/2 508/3/2
f 508/3/2 506/3/2 509/3/2
f 510/3/2 511/3/2 514/3/2
f 514/3/2 511/3/2 515/3/2
f 512/3/2 513/3/2 516/3/2
f 516/3/2 513/3/2 517/3/2
f 515/3/2 516/3/2 518/3/2
f 518/3/2 516/3/2 519/3/2
f 520/5/2 521/5/2 524/5/2
f 524/5/2 521/5/2 525/5/2
f 522/4/2 523/4/2 526/4/2
f 526/4/2 523/4/2 527/4/2
f 528/3/2 529/3/2 532/3/2
f 532/3/2 529/3/2 533/3/2
f 530/3/2 531/3/2 534/3/2
f 534/3/2 531/3/2 535/3/2
f 533/3/2 534/3/2 536/3/2
f 536/3/2 534/3/2 537/3/2
f 538/4/2 539/4/2 551/4/2
f 539/5/2 540/5/2 552/5/2
f 551/4/2 539/4/2 552/4/2
f 540/4/2 541/4/2 553/4/2
f 552/5/2 540/5/2 553/5/2
f 541/5/2 542/5/2 554/5/2
f 553/4/2 541/4/2 554/4/2
f 542/4/2 543/4/2 555/4/2
f 554/5/2 542/5/2 555/5/2
f 543/5/2 544/5/2 556/5/2
f 555/4/2 543/4/2 556/4/2
f 544/4/2 545/4/2 557/4/2
f 556/5/2 544/5/2 557/5/2
f 545/5/2 546/5/2 558/5/2
f 557/4/2 545/4/2 558/4/2
f 546/4/2 547/4/2 559/4/2
f 558/5/2 546/5/2 559/5/2
f 547/5/2 548/5/2 560/5/2
f 559/4/2 547/4/2 560/4/2
f 548/4/2 549/4/2 561/4/2
f 560/5/2 548/5/2 561/5/2
f 549/5/2 550/5/2 562/5/2
f 561/4/2 549/4/2 562/4/2
f 562/5/2 550/5/2 563/5/2
f 552/8/2 553/8/2 564/8/2
f 564/8/2 553/8/2 565/8/2
f 557/8/2 558/8/2 569/8/2
f 569/8/2 558/8/2 570/8/2
f 564/5/2 565/5/2 571/5/2
f 565/4/2 566/4/2 572/4/2
f 571/5/2 565/5/2 572/5/2
f 566/5/2 567/5/2 573/5/2
f 572/4/2 566/4/2 573/4/2
f 567/4/2 568/4/2 574/4/2
f 573/5/2 567/5/2 574/5/2
f 568/5/2 569/5/2 575/5/2
f 574/4/2 568/4/2 575/4/2
f 569/4/2 570/4/2 576/4/2
f 575/5/2 569/5/2 576/5/2
f 576/4/2 570/4/2 577/4/2
f 578/3/2 579/3/2 582/3/2
f 582/3/2 579/3/2 583/3/2
f 580/3/2 581/3/2 584/3/2
f 584/3/2 581/3/2 585/3/2
f 583/3/2 584/3/2 586/3/2
f 586/3/2 584/3/2 587/3/2
f 588/3/2 589/3/2 590/3/2
f 590/3/2 589/3/2 591/3/2
f 596/3/3 593/3/3 592/3/3
f 598/3/3 597/3/3 596/3/3
f 600/3/3 596/3/3 592/3/3
f 600/3/3 599/3/3 598/3/3
f 600/3/3 598/3/3 596/3/3
f 601/3/3 599/3/3 600/3/3
f 603/3/3 600/3/3 592/3/3
f 603/2/3 601/2/3 600/2/3
f 604/3/3 602/3/3 601/3/3
f 604/2/3 601/2/3 603/2/3
f 605/3/3 602/3/3 604/3/3
f 607/3/3 603/3/3 592/3/3
f 607/3/3 606/3/3 605/3/3
f 607/3/3 605/3/3 604/3/3
f 607/3/3 604/3/3 603/3/3
f 608/3/3 606/3/3 607/3/3
f 610/3/3 607/3/3 592/3/3
f 610/2/3 608/2/3 607/2/3
f 611/3/3 609/3/3 608/3/3
f 611/2/3 608/2/3 610/2/3
f 612/3/3 609/3/3 611/3/3
f 614/3/3 610/3/3 592/3/3
f 614/3/3 613/3/3 612/3/3
f 614/3/3 612/3/3 611/3/3
f 614/3/3 611/3/3 610/3/3
f 615/3/3 613/3/3 614/3/3
f 617/3/3 614/3/3 592/3/3
f 617/2/3 616/2/3 615/2/3
f 617/2/3 615/2/3 614/2/3
f 618/2/3 616/2/3 617/2/3
f 619/2/3 616/2/3 618/2/3
f 620/2/3 616/2/3 619/2/3
f 621/3/3 617/3/3 592/3/3
f 622/3/3 619/3/3 618/3/3
f 623/3/3 619/3/3 622/3/3
f 624/2/3 616/2/3 620/2/3
f 625/3/3 623/3/3 622/3/3
f 625/3/3 624/3/3 623/3/3
f 625/3/3 621/3/3 592/3/3
f 625/3/3 622/3/3 621/3/3
f 626/3/3 624/3/3 625/3/3
f 627/3/3 624/3/3 626/3/3
f 628/2/3 616/2/3 624/2/3
f 628/3/3 624/3/3 627/3/3
f 629/3/3 625/3/3 592/3/3
f 630/3/3 627/3/3 626/3/3
f 631/3/3 627/3/3 630/3/3
f 632/2/3 616/2/3 628/2/3
f 633/3/3 629/3/3 592/3/3
f 633/2/3 632/2/3 631/2/3
f 633/2/3 631/2/3 630/2/3
f 633/2/3 630/2/3 629/2/3
f 634/2/3 632/2/3 633/2/3
f 635/2/3 616/2/3 632/2/3
f 635/2/3 632/2/3 634/2/3
f 636/3/3 634/3/3 633/3/3
f 636/3/3 633/3/3 592/3/3
f 637/3/3 634/3/3 636/3/3
f 638/3/3 634/3/3 637/3/3
f 639/3/3 634/3/3 638/3/3
f 640/3/3 636/3/3 592/3/3
f 640/2/3 637/2/3 636/2/3
f 641/3/3 638/3/3 637/3/3
f 641/2/3 637/2/3 640/2/3
f 642/3/3 638/3/3 641/3/3
f 643/3/3 640/3/3 592/3/3
f 643/3/3 641/3/3 640/3/3
f 644/3/3 641/3/3 643/3/3
f 645/3/3 641/3/3 644/3/3
f 646/3/3 641/3/3 645/3/3
f 647/3/3 643/3/3 592/3/3
f 647/2/3 644/2/3 643/2/3
f 648/3/3 645/3/3 644/3/3
f 648/2/3 644/2/3 647/2/3
f 649/3/3 645/3/3 648/3/3
f 650/3/3 648/3/3 647/3/3
f 651/3/3 648/3/3 650/3/3
f 652/5/3 595/5/3 594/5/3
f 653/5/3 595/5/3 652/5/3
f 654/3/3 647/3/3 592/3/3
f 654/3/3 650/3/3 647/3/3
f 655/3/3 650/3/3 654/3/3
f 656/3/3 654/3/3 592/3/3
f 657/3/3 654/3/3 656/3/3
f 662/3/3 659/3/3 658/3/3
f 663/3/3 659/3/3 662/3/3
f 665/4/3 661/4/3 660/4/3
f 666/4/3 661/4/3 665/4/3
f 667/3/3 664/3/3 663/3/3
f 668/3/3 664/3/3 667/3/3
f 670/3/3 669/3/3 668/3/3
f 671/3/3 669/3/3 670/3/3
f 675/3/3 672/3/3 671/3/3
f 676/3/3 672/3/3 675/3/3
f 678/6/3 674/6/3 673/6/3
f 679/6/3 674/6/3 678/6/3
f 680/3/3 677/3/3 676/3/3
f 681/3/3 677/3/3 680/3/3
f 683/7/3 679/7/3 678/7/3
f 684/7/3 679/7/3 683/7/3
f 685/3/3 682/3/3 681/3/3
f 686/3/3 682/3/3 685/3/3
f 688/5/3 684/5/3 683/5/3
f 689/5/3 684/5/3 688/5/3
f 690/3/3 687/3/3 686/3/3
f 691/3/3 687/3/3 690/3/3
f 693/3/3 692/3/3 691/3/3
f 694/3/3 692/3/3 693/3/3
f 701/12/3 696/12/3 695/12/3
f 702/12/3 696/12/3 701/12/3
f 703/12/3 698/12/3 697/12/3
f 704/12/3 698/12/3 703/12/3
f 709/12/3 706/12/3 705/12/3
f 710/12/3 706/12/3 709/12/3
f 711/12/3 708/12/3 707/12/3
f 712/12/3 708/12/3 711/12/3
f 713/3/3 700/3/3 699/3/3
f 714/3/3 700/3/3 713/3/3
f 717/5/3 688/5/3 683/5/3
f 718/5/3 684/5/3 689/5/3
f 720/3/3 716/3/3 715/3/3
f 721/3/3 716/3/3 720/3/3
f 722/7/3 683/7/3 678/7/3
f 722/5/3 717/5/3 683/5/3
f 722/5/3 718/5/3 717/5/3
f 723/7/3 679/7/3 684/7/3
f 723/5/3 718/5/3 722/5/3
f 723/5/3 684/5/3 718/5/3
f 725/3/3 720/3/3 719/3/3
f 726/3/3 720/3/3 725/3/3
f 727/7/3 722/7/3 678/7/3
f 727/7/3 723/7/3 722/7/3
f 728/7/3 679/7/3 723/7/3
f 728/7/3 723/7/3 727/7/3
f 730/3/3 725/3/3 724/3/3
f 731/3/3 725/3/3 730/3/3
f 732/6/3 728/6/3 727/6/3
f 733/6/3 728/6/3 732/6/3
f 735/3/3 730/3/3 729/3/3
f 736/3/3 730/3/3 735/3/3
f 738/3/3 735/3/3 734/3/3
f 739/3/3 735/3/3 738/3/3
f 743/3/3 738/3/3 737/3/3
f 744/3/3 738/3/3 743/3/3
f 745/4/3 741/4/3 740/4/3
f 746/4/3 741/4/3 745/4/3
f 748/3/3 743/3/3 742/3/3
f 749/3/3 743/3/3 748/3/3
f 750/3/3 748/3/3 747/3/3
f 751/3/3 748/3/3 750/3/3
f 755/15/3 753/15/3 752/15/3
f 755/13/3 754/13/3 753/13/3
f 756/13/3 754/13/3 755/13/3
f 757/15/3 755/15/3 752/15/3
f 757/15/3 756/15/3 755/15/3
f 758/15/3 756/15/3 757/15/3
f 759/16/3 758/16/3 757/16/3
f 759/15/3 756/15/3 758/15/3
f 760/15/3 756/15/3 759/15/3
f 763/15/3 757/15/3 752/15/3
f 764/16/3 759/16/3 757/16/3
f 764/15/3 757/15/3 763/15/3
f 764/16/3 760/16/3 759/16/3
f 765/16/3 760/16/3 764/16/3
f 766/12/3 762/12/3 761/12/3
f 767/12/3 762/12/3 766/12/3
f 771/5/3 769/5/3 768/5/3
f 772/8/3 771/8/3 770/8/3
f 773/5/3 769/5/3 771/5/3
f 773/8/3 771/8/3 772/8/3
f 774/5/3 769/5/3 773/5/3
f 779/13/3 776/13/3 775/13/3
f 780/13/3 776/13/3 779/13/3
f 781/15/3 777/15/3 776/15/3
f 781/13/3 776/13/3 780/13/3
f 782/16/3 778/16/3 777/16/3
f 782/15/3 777/15/3 781/15/3
f 783/16/3 778/16/3 782/16/3
f 784/15/3 781/15/3 780/15/3
f 784/15/3 783/15/3 782/15/3
f 784/15/3 782/15/3 781/15/3
f 785/15/3 783/15/3 784/15/3
f 786/15/3 783/15/3 785/15/3
f 787/15/3 783/15/3 786/15/3
f 788/15/3 786/15/3 785/15/3
f 789/15/3 786/15/3 788/15/3
f 790/16/3 787/16/3 786/16/3
f 790/15/3 786/15/3 789/15/3
f 791/15/3 783/15/3 787/15/3
f 791/16/3 787/16/3 790/16/3
f 792/15/3 783/15/3 791/15/3
f 799/15/3 794/15/3 793/15/3
f 800/15/3 794/15/3 799/15/3
f 801/16/3 795/16/3 794/16/3
f 801/15/3 794/15/3 800/15/3
f 802/15/3 796/15/3 795/15/3
f 802/16/3 795/16/3 801/16/3
f 803/15/3 801/15/3 800/15/3
f 803/15/3 802/15/3 801/15/3
f 804/15/3 802/15/3 803/15/3
f 805/15/3 802/15/3 804/15/3
f 806/15/3 796/15/3 802/15/3
f 806/15/3 802/15/3 805/15/3
f 807/18/3 798/18/3 797/18/3
f 808/18/3 798/18/3 807/18/3
f 811/15/3 810/15/3 809/15/3
f 812/15/3 810/15/3 811/15/3
f 813/16/3 812/16/3 811/16/3
f 814/15/3 810/15/3 812/15/3
f 814/16/3 812/16/3 813/16/3
f 815/15/3 810/15/3 814/15/3
f 818/8/3 817/8/3 816/8/3
f 819/8/3 817/8/3 818/8/3
f 822/6/3 821/6/3 820/6/3
f 823/6/3 821/6/3 822/6/3
f 826/6/3 825/6/3 824/6/3
f 827/6/3 825/6/3 826/6/3
f 830/8/3 829/8/3 828/8/3
f 831/8/3 829/8/3 830/8/3
f 834/8/3 833/8/3 832/8/3
f 835/8/3 833/8/3 834/8/3
f 836/6/4 837/6/4 838/6/4
f 838/6/4 837/6/4 839/6/4
f 840/6/4 841/6/4 842/6/4
f 842/6/4 841/6/4 843/6/4
f 844/15/4 845/15/4 846/15/4
f 846/15/4 845/15/4 847/15/4
f 846/16/4 847/16/4 848/16/4
f 848/16/4 847/16/4 849/16/4
f 847/15/4 845/15/4 850/15/4
f 849/16/4 847/16/4 850/16/4
f 850/15/4 845/15/4 851/15/4
f 852/8/4 853/8/4 854/8/4
f 854/8/4 853/8/4 855/8/4
f 856/15/4 857/15/4 861/15/4
f 857/15/4 858/15/4 861/15/4
f 861/15/4 858/15/4 862/15/4
f 862/15/4 858/15/4 863/15/4
f 863/15/4 858/15/4 864/15/4
f 862/15/4 863/15/4 865/15/4
f 865/15/4 863/15/4 866/15/4
f 859/18/4 860/18/4 867/18/4
f 867/18/4 860/18/4 868/18/4
f 869/13/4 870/13/4 871/13/4
f 871/13/4 870/13/4 872/13/4
f 873/15/4 874/15/4 877/15/4
f 877/15/4 874/15/4 878/15/4
f 878/15/4 874/15/4 879/15/4
f 874/16/4 875/16/4 880/16/4
f 879/15/4 874/15/4 880/15/4
f 875/15/4 876/15/4 881/15/4
f 880/16/4 875/16/4 881/16/4
f 881/15/4 876/15/4 882/15/4
f 880/15/4 881/15/4 882/15/4
f 880/15/4 882/15/4 883/15/4
f 883/15/4 882/15/4 884/15/4
f 884/15/4 882/15/4 885/15/4
f 886/13/4 887/13/4 889/13/4
f 887/15/4 888/15/4 890/15/4
f 889/13/4 887/13/4 890/13/4
f 889/15/4 890/15/4 893/15/4
f 890/15/4 888/15/4 894/15/4
f 893/15/4 890/15/4 894/15/4
f 893/16/4 894/16/4 895/16/4
f 894/15/4 888/15/4 895/15/4
f 895/15/4 888/15/4 896/15/4
f 893/16/4 895/16/4 897/16/4
f 895/13/4 896/13/4 898/13/4
f 897/16/4 895/16/4 898/16/4
f 898/13/4 896/13/4 899/13/4
f 891/12/4 892/12/4 900/12/4
f 900/12/4 892/12/4 901/12/4
f 902/7/4 903/7/4 905/7/4
f 903/7/4 904/7/4 905/7/4
f 905/7/4 904/7/4 906/7/4
f 905/9/4 906/9/4 907/9/4
f 906/7/4 904/7/4 908/7/4
f 907/9/4 906/9/4 908/9/4
f 907/7/4 908/7/4 909/7/4
f 909/7/4 908/7/4 910/7/4
f 908/7/4 904/7/4 911/7/4
f 910/7/4 908/7/4 911/7/4
f 912/12/4 913/12/4 914/12/4
f 914/12/4 913/12/4 915/12/4
f 916/4/4 917/4/4 919/4/4
f 918/8/4 919/8/4 920/8/4
f 919/4/4 917/4/4 921/4/4
f 920/8/4 919/8/4 921/8/4
f 921/4/4 917/4/4 922/4/4
f 923/3/4 924/3/4 925/3/4
f 925/3/4 924/3/4 926/3/4
f 926/3/4 927/3/4 928/3/4
f 928/3/4 927/3/4 929/3/4
f 929/3/4 930/3/4 931/3/4
f 931/3/4 930/3/4 932/3/4
f 932/3/4 933/3/4 936/3/4
f 936/3/4 933/3/4 937/3/4
f 934/6/4 935/6/4 939/6/4
f 939/6/4 935/6/4 940/6/4
f 940/6/4 935/6/4 941/6/4
f 941/6/4 935/6/4 942/6/4
f 937/3/4 938/3/4 943/3/4
f 943/3/4 938/3/4 944/3/4
f 939/7/4 940/7/4 946/7/4
f 940/5/4 941/5/4 947/5/4
f 946/7/4 940/7/4 947/7/4
f 941/7/4 942/7/4 948/7/4
f 947/5/4 941/5/4 948/5/4
f 948/7/4 942/7/4 949/7/4
f 939/7/4 946/7/4 950/7/4
f 949/7/4 942/7/4 951/7/4
f 944/3/4 945/3/4 954/3/4
f 954/3/4 945/3/4 955/3/4
f 949/7/4 951/7/4 957/7/4
f 952/12/4 953/12/4 958/12/4
f 958/12/4 953/12/4 959/12/4
f 955/3/4 956/3/4 960/3/4
f 960/3/4 956/3/4 961/3/4
f 946/5/4 947/5/4 963/5/4
f 950/7/4 946/7/4 963/7/4
f 963/5/4 947/5/4 964/5/4
f 948/5/4 949/5/4 965/5/4
f 949/7/4 957/7/4 966/7/4
f 965/5/4 949/5/4 966/5/4
f 963/7/4 964/7/4 967/7/4
f 950/7/4 963/7/4 967/7/4
f 964/5/4 965/5/4 968/5/4
f 967/7/4 964/7/4 968/7/4
f 965/7/4 966/7/4 969/7/4
f 968/5/4 965/5/4 969/5/4
f 966/7/4 957/7/4 970/7/4
f 969/7/4 966/7/4 970/7/4
f 961/3/4 962/3/4 971/3/4
f 971/3/4 962/3/4 972/3/4
f 970/7/4 957/7/4 974/7/4
f 974/7/4 957/7/4 975/7/4
f 975/7/4 957/7/4 976/7/4
f 972/3/4 973/3/4 981/3/4
f 981/3/4 973/3/4 982/3/4
f 977/12/4 978/12/4 984/12/4
f 984/12/4 978/12/4 985/12/4
f 979/12/4 980/12/4 986/12/4
f 986/12/4 980/12/4 987/12/4
f 975/7/4 976/7/4 993/7/4
f 993/7/4 976/7/4 994/7/4
f 988/12/4 989/12/4 995/12/4
f 995/12/4 989/12/4 996/12/4
f 990/12/4 991/12/4 997/12/4
f 997/12/4 991/12/4 998/12/4
f 982/3/4 983/3/4 1000/3/4
f 1000/3/4 983/3/4 1001/3/4
f 993/7/4 994/7/4 1005/7/4
f 992/7/4 993/7/4 1005/7/4
f 999/3/4 1000/3/4 1007/3/4
f 1007/3/4 1000/3/4 1008/3/4
f 1002/7/4 1003/7/4 1009/7/4
f 1003/5/4 1004/5/4 1010/5/4
f 1009/7/4 1003/7/4 1010/7/4
f 1004/7/4 1005/7/4 1011/7/4
f 1010/5/4 1004/5/4 1011/5/4
f 1005/7/4 994/7/4 1012/7/4
f 1011/7/4 1005/7/4 1012/7/4
f 1012/7/4 994/7/4 1013/7/4
f 1006/3/4 1007/3/4 1017/3/4
f 1017/3/4 1007/3/4 1018/3/4
f 1002/7/4 1009/7/4 1019/7/4
f 1012/7/4 1013/7/4 1020/7/4
f 1014/12/4 1015/12/4 1021/12/4
f 1021/12/4 1015/12/4 1022/12/4
f 1016/3/4 1017/3/4 1024/3/4
f 1024/3/4 1017/3/4 1025/3/4
f 1009/5/4 1010/5/4 1026/5/4
f 1019/7/4 1009/7/4 1026/7/4
f 1026/5/4 1010/5/4 1027/5/4
f 1011/5/4 1012/5/4 1028/5/4
f 1012/7/4 1020/7/4 1029/7/4
f 1028/5/4 1012/5/4 1029/5/4
f 1026/7/4 1027/7/4 1030/7/4
f 1019/7/4 1026/7/4 1030/7/4
f 1027/5/4 1028/5/4 1031/5/4
f 1030/7/4 1027/7/4 1031/7/4
f 1028/7/4 1029/7/4 1032/7/4
f 1031/5/4 1028/5/4 1032/5/4
f 1029/7/4 1020/7/4 1033/7/4
f 1032/7/4 1029/7/4 1033/7/4
f 1023/3/4 1024/3/4 1035/3/4
f 1035/3/4 1024/3/4 1036/3/4
f 1031/6/4 1032/6/4 1037/6/4
f 1032/6/4 1033/6/4 1037/6/4
f 1030/6/4 1031/6/4 1037/6/4
f 1037/6/4 1033/6/4 1038/6/4
f 1034/3/4 1035/3/4 1040/3/4
f 1040/3/4 1035/3/4 1041/3/4
f 1039/3/4 1040/3/4 1043/3/4
f 1043/3/4 1040/3/4 1044/3/4
f 1042/3/4 1043/3/4 1046/3/4
f 1046/3/4 1043/3/4 1047/3/4
f 1045/3/4 1046/3/4 1049/3/4
f 1049/3/4 1046/3/4 1050/3/4
f 1048/3/4 1049/3/4 1051/3/4
f 1051/3/4 1049/3/4 1052/3/4
f 1053/3/4 1054/3/4 1055/3/4
f 1055/3/4 1056/3/4 1057/3/4
f 1057/3/4 1058/3/4 1059/3/4
f 1053/3/4 1055/3/4 1061/3/4
f 1059/3/4 1060/3/4 1061/3/4
f 1057/3/4 1059/3/4 1061/3/4
f 1055/3/4 1057/3/4 1061/3/4
f 1061/3/4 1060/3/4 1062/3/4
f 1053/3/4 1061/3/4 1064/3/4
f 1061/2/4 1062/2/4 1065/2/4
f 1064/3/4 1061/3/4 1065/3/4
f 1062/3/4 1063/3/4 1066/3/4
f 1065/2/4 1062/2/4 1066/2/4
f 1066/3/4 1063/3/4 1067/3/4
f 1064/2/4 1065/2/4 1069/2/4
f 1069/2/4 1065/2/4 1070/2/4
f 1066/2/4 1067/2/4 1071/2/4
f 1067/3/4 1068/3/4 1072/3/4
f 1071/2/4 1067/2/4 1072/2/4
f 1072/3/4 1068/3/4 1073/3/4
f 1070/2/4 1071/2/4 1075/2/4
f 1073/3/4 1074/3/4 1075/3/4
f 1072/3/4 1073/3/4 1075/3/4
f 1071/3/4 1072/3/4 1075/3/4
f 1075/3/4 1074/3/4 1076/3/4
f 1076/3/4 1074/3/4 1077/3/4
f 1069/3/4 1070/3/4 1079/3/4
f 1070/2/4 1075/2/4 1080/2/4
f 1079/3/4 1070/3/4 1080/3/4
f 1075/2/4 1076/2/4 1080/2/4
f 1080/2/4 1076/2/4 1081/2/4
f 1081/2/4 1076/2/4 1082/2/4
f 1077/3/4 1078/3/4 1083/3/4
f 1082/2/4 1076/2/4 1083/2/4
f 1076/3/4 1077/3/4 1083/3/4
f 1083/3/4 1078/3/4 1084/3/4
f 1084/3/4 1078/3/4 1085/3/4
f 1079/2/4 1080/2/4 1087/2/4
f 1081/3/4 1082/3/4 1088/3/4
f 1088/3/4 1082/3/4 1089/3/4
f 1083/2/4 1084/2/4 1090/2/4
f 1079/2/4 1087/2/4 1091/2/4
f 1089/3/4 1090/3/4 1091/3/4
f 1088/3/4 1089/3/4 1091/3/4
f 1087/3/4 1088/3/4 1091/3/4
f 1091/3/4 1090/3/4 1092/3/4
f 1092/3/4 1090/3/4 1093/3/4
f 1090/2/4 1084/2/4 1094/2/4
f 1093/3/4 1090/3/4 1094/3/4
f 1079/2/4 1091/2/4 1095/2/4
f 1095/2/4 1091/2/4 1096/2/4
f 1092/3/4 1093/3/4 1097/3/4
f 1097/3/4 1093/3/4 1098/3/4
f 1094/2/4 1084/2/4 1099/2/4
f 1085/3/4 1086/3/4 1100/3/4
f 1084/3/4 1085/3/4 1100/3/4
f 1099/2/4 1084/2/4 1100/2/4
f 1100/3/4 1086/3/4 1101/3/4
f 1101/3/4 1086/3/4 1102/3/4
f 1098/2/4 1099/2/4 1103/2/4
f 1097/2/4 1098/2/4 1103/2/4
f 1096/2/4 1097/2/4 1103/2/4
f 1100/3/4 1101/3/4 1104/3/4
f 1103/2/4 1099/2/4 1104/2/4
f 1099/3/4 1100/3/4 1104/3/4
f 1104/3/4 1101/3/4 1105/3/4
f 1105/3/4 1101/3/4 1106/3/4
f 1095/3/4 1096/3/4 1107/3/4
f 1096/2/4 1103/2/4 1108/2/4
f 1107/3/4 1096/3/4 1108/3/4
f 1103/3/4 1104/3/4 1109/3/4
f 1108/2/4 1103/2/4 1109/2/4
f 1104/3/4 1105/3/4 1109/3/4
f 1109/3/4 1105/3/4 1110/3/4
f 1110/3/4 1105/3/4 1111/3/4
f 1111/3/4 1105/3/4 1112/3/4
f 1107/2/4 1108/2/4 1113/2/4
f 1113/2/4 1108/2/4 1114/2/4
f 1109/2/4 1110/2/4 1115/2/4
f 1110/3/4 1111/3/4 1116/3/4
f 1115/2/4 1110/2/4 1116/2/4
f 1116/3/4 1111/3/4 1117/3/4
f 1114/2/4 1115/2/4 1118/2/4
f 1113/3/4 1114/3/4 1118/3/4
f 1115/3/4 1116/3/4 1119/3/4
f 1118/2/4 1115/2/4 1119/2/4
f 1119/3/4 1116/3/4 1120/3/4
f 1118/3/4 1119/3/4 1121/3/4
f 1121/3/4 1119/3/4 1122/3/4
f 1118/3/4 1121/3/4 1123/3/4
f 1123/3/4 1121/3/4 1124/3/4
f 1113/3/4 1118/3/4 1125/3/4
f 1118/3/4 1123/3/4 1125/3/4
f 1125/3/4 1123/3/4 1126/3/4
f 1113/3/4 1125/3/4 1127/3/4
f 1127/3/4 1125/3/4 1128/3/4
f 1129/3/4 1130/3/4 1131/3/4
f 1131/3/4 1130/3/4 1132/3/4
f 1133/8/4 1134/8/4 1136/8/4
f 1134/3/4 1135/3/4 1137/3/4
f 1136/8/4 1134/8/4 1137/8/4
f 1137/3/4 1135/3/4 1139/3/4
f 1138/8/4 1139/8/4 1140/8/4
f 1139/3/4 1135/3/4 1141/3/4
f 1140/8/4 1139/8/4 1141/8/4
f 1141/3/4 1135/3/4 1142/3/4
f 1143/5/4 1144/5/4 1145/5/4
f 1145/5/4 1144/5/4 1146/5/4
f 1147/5/4 1148/5/4 1149/5/4
f 1149/5/4 1148/5/4 1150/5/4
f 1151/4/4 1152/4/4 1153/4/4
f 1153/4/4 1152/4/4 1154/4/4
f 1153/5/4 1154/5/4 1155/5/4
f 1155/5/4 1154/5/4 1156/5/4
f 1155/10/4 1156/10/4 1157/10/4
f 1157/10/4 1156/10/4 1158/10/4
f 1157/11/4 1158/11/4 1159/11/4
f 1159/11/4 1158/11/4 1160/11/4
f 1159/10/4 1160/10/4 1161/10/4
f 1161/10/4 1160/10/4 1162/10/4
f 1161/5/4 1162/5/4 1163/5/4
f 1163/5/4 1162/5/4 1164/5/4
f 1163/4/4 1164/4/4 1165/4/4
f 1165/4/4 1164/4/4 1166/4/4
f 1170/5/5 1168/5/5 1167/5/5
f 1171/5/5 1168/5/5 1170/5/5
f 1173/4/5 1170/4/5 1169/4/5
f 1173/4/5 1172/4/5 1171/4/5
f 1173/4/5 1171/4/5 1170/4/5
f 1174/4/5 1172/4/5 1173/4/5
f 1175/4/5 1172/4/5 1174/4/5
f 1176/4/5 1172/4/5 1175/4/5
f 1177/5/5 1174/5/5 1173/5/5
f 1178/4/5 1175/4/5 1174/4/5
f 1178/5/5 1174/5/5 1177/5/5
f 1179/5/5 1176/5/5 1175/5/5
f 1179/4/5 1175/4/5 1178/4/5
f 1180/5/5 1176/5/5 1179/5/5
f 1181/4/5 1178/4/5 1177/4/5
f 1181/4/5 1179/4/5 1178/4/5
f 1181/4/5 1180/4/5 1179/4/5
f 1182/4/5 1180/4/5 1181/4/5
f 1183/4/5 1180/4/5 1182/4/5
f 1184/4/5 1180/4/5 1183/4/5
f 1185/5/5 1182/5/5 1181/5/5
f 1186/4/5 1183/4/5 1182/4/5
f 1186/5/5 1182/5/5 1185/5/5
f 1187/5/5 1184/5/5 1183/5/5
f 1187/4/5 1183/4/5 1186/4/5
f 1188/5/5 1184/5/5 1187/5/5
f 1189/4/5 1186/4/5 1185/4/5
f 1189/4/5 1187/4/5 1186/4/5
f 1189/4/5 1188/4/5 1187/4/5
f 1190/4/5 1188/4/5 1189/4/5
f 1191/4/5 1188/4/5 1190/4/5
f 1192/4/5 1188/4/5 1191/4/5
f 1193/5/5 1190/5/5 1189/5/5
f 1194/4/5 1191/4/5 1190/4/5
f 1194/5/5 1190/5/5 1193/5/5
f 1195/5/5 1192/5/5 1191/5/5
f 1195/4/5 1191/4/5 1194/4/5
f 1196/5/5 1192/5/5 1195/5/5
f 1197/4/5 1194/4/5 1193/4/5
f 1197/4/5 1195/4/5 1194/4/5
f 1197/4/5 1196/4/5 1195/4/5
f 1198/4/5 1196/4/5 1197/4/5
f 1199/4/5 1196/4/5 1198/4/5
f 1200/4/5 1196/4/5 1199/4/5
f 1201/5/5 1198/5/5 1197/5/5
f 1202/4/5 1199/4/5 1198/4/5
f 1202/5/5 1198/5/5 1201/5/5
f 1203/4/5 1199/4/5 1202/4/5
f 1204/4/5 1199/4/5 1203/4/5
f 1205/4/5 1199/4/5 1204/4/5
f 1206/4/5 1199/4/5 1205/4/5
f 1207/5/5 1200/5/5 1199/5/5
f 1207/4/5 1199/4/5 1206/4/5
f 1208/5/5 1200/5/5 1207/5/5
f 1209/4/5 1202/4/5 1201/4/5
f 1210/5/5 1203/5/5 1202/5/5
f 1210/4/5 1202/4/5 1209/4/5
f 1211/10/5 1204/10/5 1203/10/5
f 1211/11/5 1205/11/5 1204/11/5
f 1212/10/5 1206/10/5 1205/10/5
f 1212/11/5 1205/11/5 1211/11/5
f 1213/5/5 1207/5/5 1206/5/5
f 1213/4/5 1208/4/5 1207/4/5
f 1214/4/5 1208/4/5 1213/4/5
f 1215/5/5 1210/5/5 1209/5/5
f 1216/5/5 1203/5/5 1210/5/5
f 1216/5/5 1210/5/5 1215/5/5
f 1217/10/5 1211/10/5 1203/10/5
f 1217/4/5 1212/4/5 1211/4/5
f 1218/4/5 1212/4/5 1217/4/5
f 1219/4/5 1212/4/5 1218/4/5
f 1220/4/5 1212/4/5 1219/4/5
f 1221/4/5 1212/4/5 1220/4/5
f 1222/10/5 1206/10/5 1212/10/5
f 1222/4/5 1212/4/5 1221/4/5
f 1223/5/5 1213/5/5 1206/5/5
f 1223/5/5 1214/5/5 1213/5/5
f 1224/5/5 1214/5/5 1223/5/5
f 1225/4/5 1216/4/5 1215/4/5
f 1226/5/5 1203/5/5 1216/5/5
f 1226/4/5 1216/4/5 1225/4/5
f 1227/10/5 1217/10/5 1203/10/5
f 1227/11/5 1218/11/5 1217/11/5
f 1228/4/5 1219/4/5 1218/4/5
f 1228/11/5 1218/11/5 1227/11/5
f 1229/11/5 1220/11/5 1219/11/5
f 1229/4/5 1219/4/5 1228/4/5
f 1230/4/5 1221/4/5 1220/4/5
f 1230/11/5 1220/11/5 1229/11/5
f 1231/11/5 1222/11/5 1221/11/5
f 1231/4/5 1221/4/5 1230/4/5
f 1232/10/5 1206/10/5 1222/10/5
f 1232/11/5 1222/11/5 1231/11/5
f 1233/5/5 1223/5/5 1206/5/5
f 1233/4/5 1224/4/5 1223/4/5
f 1234/4/5 1224/4/5 1233/4/5
f 1235/5/5 1226/5/5 1225/5/5
f 1236/5/5 1226/5/5 1235/5/5
f 1237/5/5 1203/5/5 1226/5/5
f 1237/5/5 1226/5/5 1236/5/5
f 1238/4/5 1229/4/5 1228/4/5
f 1238/4/5 1231/4/5 1230/4/5
f 1238/4/5 1230/4/5 1229/4/5
f 1238/10/5 1227/10/5 1203/10/5
f 1238/4/5 1228/4/5 1227/4/5
f 1238/4/5 1232/4/5 1231/4/5
f 1239/10/5 1206/10/5 1232/10/5
f 1239/4/5 1232/4/5 1238/4/5
f 1240/5/5 1234/5/5 1233/5/5
f 1240/5/5 1233/5/5 1206/5/5
f 1241/5/5 1234/5/5 1240/5/5
f 1242/5/5 1234/5/5 1241/5/5
f 1243/4/5 1237/4/5 1236/4/5
f 1244/5/5 1203/5/5 1237/5/5
f 1244/4/5 1237/4/5 1243/4/5
f 1245/10/5 1238/10/5 1203/10/5
f 1245/5/5 1203/5/5 1244/5/5
f 1246/11/5 1239/11/5 1238/11/5
f 1246/10/5 1238/10/5 1245/10/5
f 1247/10/5 1206/10/5 1239/10/5
f 1247/11/5 1239/11/5 1246/11/5
f 1248/5/5 1240/5/5 1206/5/5
f 1248/10/5 1206/10/5 1247/10/5
f 1249/4/5 1241/4/5 1240/4/5
f 1249/5/5 1240/5/5 1248/5/5
f 1250/4/5 1241/4/5 1249/4/5
f 1255/5/5 1252/5/5 1251/5/5
f 1256/5/5 1252/5/5 1255/5/5
f 1260/5/5 1259/5/5 1258/5/5
f 1260/5/5 1258/5/5 1257/5/5
f 1261/5/5 1259/5/5 1260/5/5
f 1263/5/5 1260/5/5 1257/5/5
f 1263/4/5 1262/4/5 1261/4/5
f 1263/4/5 1261/4/5 1260/4/5
f 1264/4/5 1262/4/5 1263/4/5
f 1265/5/5 1263/5/5 1257/5/5
f 1265/5/5 1264/5/5 1263/5/5
f 1266/5/5 1264/5/5 1265/5/5
f 1267/5/5 1265/5/5 1257/5/5
f 1267/4/5 1266/4/5 1265/4/5
f 1268/4/5 1266/4/5 1267/4/5
f 1269/5/5 1267/5/5 1257/5/5
f 1269/5/5 1268/5/5 1267/5/5
f 1270/5/5 1268/5/5 1269/5/5
f 1271/5/5 1268/5/5 1270/5/5
f 1272/5/5 1254/5/5 1253/5/5
f 1273/5/5 1254/5/5 1272/5/5
f 1280/5/5 1269/5/5 1257/5/5
f 1281/4/5 1270/4/5 1269/4/5
f 1281/5/5 1269/5/5 1280/5/5
f 1282/4/5 1270/4/5 1281/4/5
f 1283/5/5 1275/5/5 1274/5/5
f 1284/5/5 1275/5/5 1283/5/5
f 1285/7/5 1277/7/5 1276/7/5
f 1286/7/5 1277/7/5 1285/7/5
f 1287/5/5 1279/5/5 1278/5/5
f 1288/5/5 1279/5/5 1287/5/5
f 1289/3/5 1286/3/5 1285/3/5
f 1290/3/5 1286/3/5 1289/3/5
f 1291/3/5 1286/3/5 1290/3/5
f 1292/3/5 1286/3/5 1291/3/5
f 1293/3/5 1291/3/5 1290/3/5
f 1294/3/5 1291/3/5 1293/3/5
f 1298/3/5 1296/3/5 1295/3/5
f 1299/3/5 1296/3/5 1298/3/5
f 1300/3/5 1296/3/5 1299/3/5
f 1301/3/5 1296/3/5 1300/3/5
f 1302/3/5 1296/3/5 1301/3/5
f 1303/3/5 1296/3/5 1302/3/5
f 1305/3/5 1298/3/5 1297/3/5
f 1305/3/5 1299/3/5 1298/3/5
f 1306/3/5 1304/3/5 1303/3/5
f 1306/3/5 1303/3/5 1302/3/5
f 1307/3/5 1305/3/5 1297/3/5
f 1308/3/5 1304/3/5 1306/3/5
f 1309/3/5 1307/3/5 1297/3/5
f 1310/3/5 1307/3/5 1309/3/5
f 1311/3/5 1307/3/5 1310/3/5
f 1320/3/5 1304/3/5 1308/3/5
f 1321/3/5 1304/3/5 1320/3/5
f 1322/3/5 1304/3/5 1321/3/5
f 1323/3/5 1311/3/5 1310/3/5
f 1323/3/5 1312/3/5 1311/3/5
f 1323/3/5 1313/3/5 1312/3/5
f 1324/2/5 1314/2/5 1313/2/5
f 1324/3/5 1313/3/5 1323/3/5
f 1325/3/5 1315/3/5 1314/3/5
f 1325/2/5 1314/2/5 1324/2/5
f 1326/2/5 1316/2/5 1315/2/5
f 1326/3/5 1315/3/5 1325/3/5
f 1327/3/5 1317/3/5 1316/3/5
f 1327/2/5 1316/2/5 1326/2/5
f 1328/2/5 1318/2/5 1317/2/5
f 1328/3/5 1317/3/5 1327/3/5
f 1329/3/5 1319/3/5 1318/3/5
f 1329/2/5 1318/2/5 1328/2/5
f 1329/3/5 1321/3/5 1320/3/5
f 1329/3/5 1320/3/5 1319/3/5
f 1330/3/5 1321/3/5 1329/3/5
f 1335/3/5 1332/3/5 1331/3/5
f 1336/3/5 1332/3/5 1335/3/5
f 1337/3/5 1334/3/5 1333/3/5
f 1338/3/5 1334/3/5 1337/3/5
f 1343/3/5 1340/3/5 1339/3/5
f 1344/3/5 1340/3/5 1343/3/5
f 1345/3/5 1342/3/5 1341/3/5
f 1346/3/5 1342/3/5 1345/3/5
f 1351/2/5 1348/2/5 1347/2/5
f 1352/2/5 1348/2/5 1351/2/5
f 1353/2/5 1350/2/5 1349/2/5
f 1354/2/5 1350/2/5 1353/2/5
f 1359/2/5 1356/2/5 1355/2/5
f 1360/2/5 1356/2/5 1359/2/5
f 1361/2/5 1358/2/5 1357/2/5
f 1362/2/5 1358/2/5 1361/2/5
f 1365/13/5 1364/13/5 1363/13/5
f 1366/13/5 1364/13/5 1365/13/5
f 1371/2/5 1368/2/5 1367/2/5
f 1372/2/5 1368/2/5 1371/2/5
f 1373/2/5 1370/2/5 1369/2/5
f 1374/2/5 1370/2/5 1373/2/5
f 1377/17/5 1376/17/5 1375/17/5
f 1379/17/5 1377/17/5 1375/17/5
f 1379/17/5 1378/17/5 1377/17/5
f 1380/17/5 1378/17/5 1379/17/5
f 1383/15/5 1382/15/5 1381/15/5
f 1384/15/5 1382/15/5 1383/15/5
f 1385/15/5 1382/15/5 1384/15/5
f 1386/15/5 1382/15/5 1385/15/5
f 1387/16/5 1384/16/5 1383/16/5
f 1388/16/5 1384/16/5 1387/16/5
f 1389/15/5 1388/15/5 1387/15/5
f 1390/15/5 1388/15/5 1389/15/5
f 1392/15/5 1382/15/5 1386/15/5
f 1393/15/5 1382/15/5 1392/15/5
f 1394/13/5 1390/13/5 1389/13/5
f 1395/15/5 1391/15/5 1390/15/5
f 1395/13/5 1390/13/5 1394/13/5
f 1396/16/5 1392/16/5 1391/16/5
f 1396/15/5 1391/15/5 1395/15/5
f 1396/16/5 1393/16/5 1392/16/5
f 1397/16/5 1393/16/5 1396/16/5
f 1398/5/6 1399/5/6 1401/5/6
f 1401/5/6 1399/5/6 1402/5/6
f 1402/5/6 1399/5/6 1403/5/6
f 1403/5/6 1399/5/6 1404/5/6
f 1404/5/6 1399/5/6 1405/5/6
f 1405/5/6 1399/5/6 1406/5/6
f 1400/4/6 1401/4/6 1408/4/6
f 1401/4/6 1402/4/6 1408/4/6
f 1408/4/6 1402/4/6 1409/4/6
f 1406/4/6 1407/4/6 1410/4/6
f 1405/4/6 1406/4/6 1410/4/6
f 1410/4/6 1407/4/6 1411/4/6
f 1411/4/6 1407/4/6 1412/4/6
f 1408/5/6 1409/5/6 1413/5/6
f 1413/5/6 1409/5/6 1414/5/6
f 1410/5/6 1411/5/6 1415/5/6
f 1415/5/6 1411/5/6 1416/5/6
f 1413/4/6 1414/4/6 1418/4/6
f 1418/4/6 1414/4/6 1419/4/6
f 1416/4/6 1417/4/6 1420/4/6
f 1415/4/6 1416/4/6 1420/4/6
f 1420/4/6 1417/4/6 1421/4/6
f 1418/5/6 1419/5/6 1422/5/6
f 1422/5/6 1419/5/6 1423/5/6
f 1420/5/6 1421/5/6 1424/5/6
f 1424/5/6 1421/5/6 1425/5/6
f 1422/4/6 1423/4/6 1426/4/6
f 1426/4/6 1423/4/6 1427/4/6
f 1424/4/6 1425/4/6 1428/4/6
f 1428/4/6 1425/4/6 1429/4/6
f 1426/5/6 1427/5/6 1430/5/6
f 1430/5/6 1427/5/6 1431/5/6
f 1428/5/6 1429/5/6 1432/5/6
f 1432/5/6 1429/5/6 1433/5/6
f 1433/5/6 1429/5/6 1434/5/6
f 1430/4/6 1431/4/6 1435/4/6
f 1435/4/6 1431/4/6 1436/4/6
f 1432/4/6 1433/4/6 1441/4/6
f 1441/4/6 1433/4/6 1442/4/6
f 1435/5/6 1436/5/6 1444/5/6
f 1444/5/6 1436/5/6 1445/5/6
f 1439/4/6 1440/4/6 1448/4/6
f 1437/4/6 1438/4/6 1448/4/6
f 1438/4/6 1439/4/6 1448/4/6
f 1448/4/6 1440/4/6 1449/4/6
f 1442/5/6 1443/5/6 1452/5/6
f 1441/5/6 1442/5/6 1452/5/6
f 1452/5/6 1443/5/6 1453/5/6
f 1444/4/6 1445/4/6 1454/4/6
f 1445/5/6 1446/5/6 1455/5/6
f 1454/4/6 1445/4/6 1455/4/6
f 1446/10/6 1447/10/6 1456/10/6
f 1449/11/6 1450/11/6 1456/11/6
f 1447/11/6 1448/11/6 1456/11/6
f 1448/11/6 1449/11/6 1456/11/6
f 1450/10/6 1451/10/6 1457/10/6
f 1456/11/6 1450/11/6 1457/11/6
f 1452/4/6 1453/4/6 1458/4/6
f 1451/5/6 1452/5/6 1458/5/6
f 1458/4/6 1453/4/6 1459/4/6
f 1454/5/6 1455/5/6 1460/5/6
f 1455/5/6 1446/5/6 1461/5/6
f 1460/5/6 1455/5/6 1461/5/6
f 1446/10/6 1456/10/6 1462/10/6
f 1456/4/6 1457/4/6 1462/4/6
f 1462/4/6 1457/4/6 1463/4/6
f 1463/4/6 1457/4/6 1464/4/6
f 1464/4/6 1457/4/6 1465/4/6
f 1465/4/6 1457/4/6 1466/4/6
f 1457/10/6 1451/10/6 1467/10/6
f 1466/4/6 1457/4/6 1467/4/6
f 1451/5/6 1458/5/6 1468/5/6
f 1458/5/6 1459/5/6 1468/5/6
f 1468/5/6 1459/5/6 1469/5/6
f 1460/4/6 1461/4/6 1470/4/6
f 1461/5/6 1446/5/6 1471/5/6
f 1470/4/6 1461/4/6 1471/4/6
f 1446/10/6 1462/10/6 1472/10/6
f 1462/11/6 1463/11/6 1472/11/6
f 1472/11/6 1463/11/6 1473/11/6
f 1464/11/6 1465/11/6 1474/11/6
f 1474/11/6 1465/11/6 1475/11/6
f 1466/11/6 1467/11/6 1476/11/6
f 1467/10/6 1451/10/6 1477/10/6
f 1476/11/6 1467/11/6 1477/11/6
f 1468/4/6 1469/4/6 1478/4/6
f 1451/5/6 1468/5/6 1478/5/6
f 1478/4/6 1469/4/6 1479/4/6
f 1470/5/6 1471/5/6 1480/5/6
f 1480/5/6 1471/5/6 1481/5/6
f 1471/5/6 1446/5/6 1482/5/6
f 1481/5/6 1471/5/6 1482/5/6
f 1475/4/6 1476/4/6 1483/4/6
f 1474/4/6 1475/4/6 1483/4/6
f 1476/4/6 1477/4/6 1483/4/6
f 1472/4/6 1473/4/6 1483/4/6
f 1446/10/6 1472/10/6 1483/10/6
f 1473/4/6 1474/4/6 1483/4/6
f 1477/10/6 1451/10/6 1484/10/6
f 1483/4/6 1477/4/6 1484/4/6
f 1478/5/6 1479/5/6 1485/5/6
f 1451/5/6 1478/5/6 1485/5/6
f 1485/5/6 1479/5/6 1486/5/6
f 1486/5/6 1479/5/6 1487/5/6
f 1481/4/6 1482/4/6 1488/4/6
f 1482/5/6 1446/5/6 1489/5/6
f 1488/4/6 1482/4/6 1489/4/6
f 1446/10/6 1483/10/6 1490/10/6
f 1489/5/6 1446/5/6 1490/5/6
f 1483/11/6 1484/11/6 1491/11/6
f 1490/10/6 1483/10/6 1491/10/6
f 1484/10/6 1451/10/6 1492/10/6
f 1491/11/6 1484/11/6 1492/11/6
f 1451/5/6 1485/5/6 1493/5/6
f 1492/10/6 1451/10/6 1493/10/6
f 1485/4/6 1486/4/6 1494/4/6
f 1493/5/6 1485/5/6 1494/5/6
f 1494/4/6 1486/4/6 1495/4/6
f 1496/5/6 1497/5/6 1500/5/6
f 1500/5/6 1497/5/6 1501/5/6
f 1498/5/6 1499/5/6 1506/5/6
f 1506/5/6 1499/5/6 1507/5/6
f 1502/5/6 1503/5/6 1508/5/6
f 1508/5/6 1503/5/6 1509/5/6
f 1504/5/6 1505/5/6 1510/5/6
f 1510/5/6 1505/5/6 1511/5/6
f 1512/5/6 1513/5/6 1514/5/6
f 1514/5/6 1513/5/6 1515/5/6
f 1516/5/6 1517/5/6 1518/5/6
f 1518/5/6 1517/5/6 1519/5/6
f 1518/4/6 1519/4/6 1520/4/6
f 1520/4/6 1519/4/6 1521/4/6
f 1520/5/6 1521/5/6 1522/5/6
f 1522/5/6 1521/5/6 1523/5/6
f 1522/4/6 1523/4/6 1524/4/6
f 1524/4/6 1523/4/6 1525/4/6
f 1524/5/6 1525/5/6 1526/5/6
f 1526/5/6 1525/5/6 1527/5/6
f 1526/4/6 1527/4/6 1528/4/6
f 1528/4/6 1527/4/6 1529/4/6
f 1530/3/6 1531/3/6 1534/3/6
f 1532/3/6 1533/3/6 1535/3/6
f 1530/3/6 1534/3/6 1536/3/6
f 1534/3/6 1535/3/6 1536/3/6
f 1535/3/6 1533/3/6 1537/3/6
f 1536/3/6 1535/3/6 1537/3/6
f 1538/3/6 1539/3/6 1540/3/6
f 1540/3/6 1539/3/6 1541/3/6
f 1542/3/6 1543/3/6 1551/3/6
f 1551/3/6 1543/3/6 1552/3/6
f 1544/3/6 1545/3/6 1553/3/6
f 1553/3/6 1545/3/6 1554/3/6
f 1546/3/6 1547/3/6 1555/3/6
f 1555/3/6 1547/3/6 1556/3/6
f 1548/3/6 1549/3/6 1557/3/6
f 1557/3/6 1549/3/6 1558/3/6
f 1550/3/6 1551/3/6 1560/3/6
f 1560/3/6 1551/3/6 1561/3/6
f 1558/3/6 1559/3/6 1572/3/6
f 1572/3/6 1559/3/6 1573/3/6
f 1561/3/6 1562/3/6 1574/3/6
f 1574/3/6 1562/3/6 1575/3/6
f 1563/2/6 1564/2/6 1576/2/6
f 1576/2/6 1564/2/6 1577/2/6
f 1565/2/6 1566/2/6 1578/2/6
f 1578/2/6 1566/2/6 1579/2/6
f 1567/2/6 1568/2/6 1580/2/6
f 1580/2/6 1568/2/6 1581/2/6
f 1569/2/6 1570/2/6 1582/2/6
f 1582/2/6 1570/2/6 1583/2/6
f 1571/3/6 1572/3/6 1584/3/6
f 1584/3/6 1572/3/6 1585/3/6
f 1586/3/6 1587/3/6 1591/3/6
f 1591/3/6 1587/3/6 1592/3/6
f 1588/3/6 1589/3/6 1593/3/6
f 1593/3/6 1589/3/6 1594/3/6
f 1590/3/6 1591/3/6 1596/3/6
f 1596/3/6 1591/3/6 1597/3/6
f 1594/3/6 1595/3/6 1600/3/6
f 1600/3/6 1595/3/6 1601/3/6
f 1597/3/6 1598/3/6 1602/3/6
f 1602/3/6 1598/3/6 1603/3/6
f 1599/3/6 1600/3/6 1604/3/6
f 1604/3/6 1600/3/6 1605/3/6
f 1606/3/6 1607/3/6 1611/3/6
f 1611/3/6 1607/3/6 1612/3/6
f 1608/3/6 1609/3/6 1613/3/6
f 1613/3/6 1609/3/6 1614/3/6
f 1610/3/6 1611/3/6 1616/3/6
f 1616/3/6 1611/3/6 1617/3/6
f 1614/3/6 1615/3/6 1620/3/6
f 1620/3/6 1615/3/6 1621/3/6
f 1617/3/6 1618/3/6 1622/3/6
f 1622/3/6 1618/3/6 1623/3/6
f 1619/3/6 1620/3/6 1624/3/6
f 1624/3/6 1620/3/6 1625/3/6
f 1626/3/6 1627/3/6 1630/3/6
f 1630/3/6 1627/3/6 1631/3/6
f 1628/3/6 1629/3/6 1632/3/6
f 1632/3/6 1629/3/6 1633/3/6
f 1634/3/6 1635/3/6 1639/3/6
f 1639/3/6 1635/3/6 1640/3/6
f 1636/3/6 1637/3/6 1641/3/6
f 1641/3/6 1637/3/6 1642/3/6
f 1638/3/6 1639/3/6 1644/3/6
f 1644/3/6 1639/3/6 1645/3/6
f 1638/3/6 1644/3/6 1646/3/6
f 1647/14/6 1648/14/6 1649/14/6
f 1649/14/6 1648/14/6 1650/14/6
f 1638/3/6 1646/3/6 1651/3/6
f 1638/3/6 1651/3/6 1653/3/6
f 1651/3/6 1652/3/6 1653/3/6
f 1653/3/6 1652/3/6 1654/3/6
f 1642/3/6 1643/3/6 1657/3/6
f 1657/3/6 1643/3/6 1658/3/6
f 1654/3/6 1655/3/6 1659/3/6
f 1659/3/6 1655/3/6 1660/3/6
f 1656/3/6 1657/3/6 1661/3/6
f 1661/3/6 1657/3/6 1662/3/6
f 1663/3/6 1664/3/6 1672/3/6
f 1672/3/6 1664/3/6 1673/3/6
f 1665/3/6 1666/3/6 1674/3/6
f 1674/3/6 1666/3/6 1675/3/6
f 1667/3/6 1668/3/6 1676/3/6
f 1676/3/6 1668/3/6 1677/3/6
f 1669/3/6 1670/3/6 1678/3/6
f 1678/3/6 1670/3/6 1679/3/6
f 1671/3/6 1672/3/6 1681/3/6
f 1681/3/6 1672/3/6 1682/3/6
f 1683/14/6 1684/14/6 1685/14/6
f 1685/14/6 1684/14/6 1686/14/6
f 1687/3/6 1688/3/6 1689/3/6
f 1689/3/6 1688/3/6 1690/3/6
f 1679/3/6 1680/3/6 1693/3/6
f 1693/3/6 1680/3/6 1694/3/6
f 1690/3/6 1691/3/6 1695/3/6
f 1695/3/6 1691/3/6 1696/3/6
f 1692/3/6 1693/3/6 1697/3/6
f 1697/3/6 1693/3/6 1698/3/6
f 1699/3/6 1700/3/6 1704/3/6
f 1704/3/6 1700/3/6 1705/3/6
f 1701/3/6 1702/3/6 1706/3/6
f 1706/3/6 1702/3/6 1707/3/6
f 1703/3/6 1704/3/6 1709/3/6
f 1709/3/6 1704/3/6 1710/3/6
f 1711/3/6 1712/3/6 1713/3/6
f 1713/3/6 1712/3/6 1714/3/6
f 1707/3/6 1708/3/6 1717/3/6
f 1717/3/6 1708/3/6 1718/3/6
f 1714/3/6 1715/3/6 1719/3/6
f 1719/3/6 1715/3/6 1720/3/6
f 1716/3/6 1717/3/6 1721/3/6
f 1721/3/6 1717/3/6 1722/3/6
f 1723/3/6 1724/3/6 1728/3/6
f 1728/3/6 1724/3/6 1729/3/6
f 1725/3/6 1726/3/6 1730/3/6
f 1730/3/6 1726/3/6 1731/3/6
f 1727/3/6 1728/3/6 1733/3/6
f 1733/3/6 1728/3/6 1734/3/6
f 1734/3/6 1728/3/6 1735/3/6
f 1735/3/6 1728/3/6 1736/3/6
f 1736/3/6 1728/3/6 1737/3/6
f 1737/3/6 1728/3/6 1738/3/6
f 1731/3/6 1732/3/6 1741/3/6
f 1741/3/6 1732/3/6 1742/3/6
f 1738/3/6 1739/3/6 1743/3/6
f 1743/3/6 1739/3/6 1744/3/6
f 1740/3/6 1741/3/6 1745/3/6
f 1745/3/6 1741/3/6 1746/3/6
f 1747/3/6 1748/3/6 1751/3/6
f 1751/3/6 1748/3/6 1752/3/6
f 1749/3/6 1750/3/6 1755/3/6
f 1755/3/6 1750/3/6 1756/3/6
f 1752/3/6 1753/3/6 1757/3/6
f 1757/3/6 1753/3/6 1758/3/6
f 1754/3/6 1755/3/6 1759/3/6
f 1759/3/6 1755/3/6 1760/3/6
f 1761/2/6 1762/2/6 1763/2/6
f 1763/2/6 1762/2/6 1764/2/6
f 1764/2/6 1762/2/6 1765/2/6
f 1765/2/6 1762/2/6 1766/2/6
f 1767/17/6 1768/17/6 1769/17/6
f 1769/17/6 1768/17/6 1770/17/6
f 1763/3/6 1764/3/6 1771/3/6
f 1771/3/6 1764/3/6 1772/3/6
f 1765/3/6 1766/3/6 1773/3/6
f 1773/3/6 1766/3/6 1774/3/6
f 1772/3/6 1773/3/6 1775/3/6
f 1775/3/6 1773/3/6 1776/3/6
f 1777/18/6 1778/18/6 1780/18/6
f 1778/18/6 1779/18/6 1780/18/6
f 1780/18/6 1779/18/6 1781/18/6
f 1781/18/6 1779/18/6 1782/18/6
f 1780/18/6 1781/18/6 1783/18/6
f 1783/18/6 1781/18/6 1784/18/6
f 1782/18/6 1779/18/6 1785/18/6
f 1783/18/6 1784/18/6 1786/18/6
f 1784/18/6 1785/18/6 1786/18/6
f 1785/18/6 1779/18/6 1787/18/6
f 1786/18/6 1785/18/6 1787/18/6
f 1787/18/6 1779/18/6 1788/18/6
f 1789/3/6 1790/3/6 1791/3/6
f 1791/3/6 1790/3/6 1792/3/6
f 1793/13/6 1794/13/6 1797/13/6
f 1794/15/6 1795/15/6 1798/15/6
f 1797/13/6 1794/13/6 1798/13/6
f 1795/16/6 1796/16/6 1799/16/6
f 1798/15/6 1795/15/6 1799/15/6
f 1799/16/6 1796/16/6 1800/16/6
f 1800/16/6 1796/16/6 1801/16/6
f 1797/15/6 1798/15/6 1802/15/6
f 1800/15/6 1801/15/6 1803/15/6
f 1803/15/6 1801/15/6 1804/15/6
f 1797/15/6 1802/15/6 1805/15/6
f 1802/15/6 1803/15/6 1805/15/6
f 1803/13/6 1804/13/6 1806/13/6
f 1805/15/6 1803/15/6 1806/15/6
f 1806/13/6 1804/13/6 1807/13/6
