# MagicaVoxel @ Ephtracy

# group
o 

# material
mtllib casa pesca-1.mtl
usemtl palette

# normals
vn -1 0 0
vn 1 0 0
vn 0 0 1
vn 0 0 -1
vn 0 -1 0
vn 0 1 0

# texcoords
vt 0.236328 0.5
vt 0.298828 0.5
vt 0.302734 0.5
vt 0.693359 0.5
vt 0.697266 0.5
vt 0.701172 0.5
vt 0.705078 0.5
vt 0.724609 0.5
vt 0.728516 0.5
vt 0.732422 0.5
vt 0.736328 0.5
vt 0.802734 0.5
vt 0.892578 0.5
vt 0.912109 0.5
vt 0.916016 0.5
vt 0.919922 0.5
vt 0.923828 0.5
vt 0.947266 0.5
vt 0.951172 0.5

# verts
v -7.5 6.1 9.1
v -7.5 6.1 8.3
v -7.5 6.2 9.1
v -7.5 6.2 8.3
v -7.4 5.2 9.1
v -7.4 5.2 9
v -7.4 5.2 8.9
v -7.4 5.2 8.8
v -7.4 5.2 8.7
v -7.4 5.2 8.6
v -7.4 5.2 8.5
v -7.4 5.2 8.4
v -7.4 5.2 8.3
v -7.4 5.2 8.2
v -7.4 5.2 8.1
v -7.4 5.2 8
v -7.4 5.2 7.9
v -7.4 5.3 9.1
v -7.4 5.3 9
v -7.4 5.3 8.9
v -7.4 5.3 8.8
v -7.4 5.3 8.7
v -7.4 5.3 8.6
v -7.4 5.3 8.5
v -7.4 5.3 8.4
v -7.4 5.3 8.3
v -7.4 5.3 8.2
v -7.4 5.3 8.1
v -7.4 5.3 8
v -7.4 5.3 7.9
v -7.4 6.1 9.2
v -7.4 6.1 9.1
v -7.4 6.1 8.3
v -7.4 6.1 8.2
v -7.4 6.2 9.2
v -7.4 6.2 9.1
v -7.4 6.2 8.3
v -7.4 6.2 8.2
v -7.4 6.4 9.1
v -7.4 6.4 8.3
v -7.2 5.2 9.2
v -7.2 5.2 9.1
v -7.2 5.2 7.9
v -7.2 5.2 7.8
v -7.2 5.3 9.2
v -7.2 5.3 9.1
v -7.2 5.3 7.9
v -7.2 5.3 7.8
v -7.2 6.2 9.2
v -7.2 6.2 9.1
v -7.2 6.2 8.3
v -7.2 6.2 8.2
v -7.2 6.4 9.2
v -7.2 6.4 9.1
v -7.2 6.4 8.3
v -7.2 6.4 8.2
v -7.2 6.5 9.1
v -7.2 6.5 8.3
v -7.2 8.4 8.9
v -7.2 8.4 8.8
v -7.2 8.5 8.9
v -7.2 8.5 8.8
v -7.2 8.9 8.5
v -7.2 8.9 8.4
v -7.2 9 8.5
v -7.2 9 8.4
v -7.1 6.4 9.2
v -7.1 6.4 9.1
v -7.1 6.4 8.3
v -7.1 6.4 8.2
v -7.1 6.5 9.2
v -7.1 6.5 9.1
v -7.1 6.5 8.3
v -7.1 6.5 8.2
v -7.1 6.7 9.1
v -7.1 6.7 8.3
v -7.1 7.4 9
v -7.1 7.4 8.9
v -7.1 7.4 8.6
v -7.1 7.4 8.5
v -7.1 7.4 8.4
v -7.1 7.5 8.9
v -7.1 7.5 8.8
v -7.1 7.5 8.7
v -7.1 7.5 8.6
v -7.1 7.6 9
v -7.1 7.6 8.9
v -7.1 7.6 8.8
v -7.1 7.6 8.7
v -7.1 7.6 8.5
v -7.1 7.6 8.4
v -7.1 7.8 9
v -7.1 7.8 8.9
v -7.1 7.8 8.4
v -7.1 8.3 8.9
v -7.1 8.3 8.8
v -7.1 8.4 9
v -7.1 8.4 8.9
v -7.1 8.4 8.8
v -7.1 8.4 8.7
v -7.1 8.5 9
v -7.1 8.5 8.9
v -7.1 8.5 8.8
v -7.1 8.5 8.7
v -7.1 8.6 8.9
v -7.1 8.6 8.8
v -7.1 8.8 8.5
v -7.1 8.8 8.4
v -7.1 8.9 8.6
v -7.1 8.9 8.5
v -7.1 8.9 8.4
v -7.1 8.9 8.3
v -7.1 9 8.6
v -7.1 9 8.5
v -7.1 9 8.4
v -7.1 9 8.3
v -7.1 9.1 8.5
v -7.1 9.1 8.4
v -7 6.7 8.9
v -7 6.7 8.8
v -7 6.7 8.5
v -7 7 8.9
v -7 7 8.8
v -7 7 8.6
v -7 7 8.5
v -7 7.2 8.8
v -7 7.2 8.6
v -7 7.2 8.5
v -7 7.3 8.9
v -7 7.3 8.8
v -7 7.4 8.9
v -7 7.4 8.6
v -7 7.4 8.5
v -6.9 5.3 9.1
v -6.9 5.3 9
v -6.9 5.3 8.9
v -6.9 5.3 8.8
v -6.9 5.3 8.7
v -6.9 5.3 8.6
v -6.9 5.3 8.5
v -6.9 5.3 8.4
v -6.9 5.3 8.3
v -6.9 5.4 9
v -6.9 5.4 8.4
v -6.9 5.5 9
v -6.9 5.5 8.4
v -6.9 5.8 9
v -6.9 5.8 8.4
v -6.9 5.9 9
v -6.9 5.9 8.4
v -6.9 6.1 9.1
v -6.9 6.1 9
v -6.9 6.1 8.4
v -6.9 6.1 8.3
v -6.9 6.5 9.2
v -6.9 6.5 9.1
v -6.9 6.5 8.3
v -6.9 6.5 8.2
v -6.9 6.7 9.2
v -6.9 6.7 9.1
v -6.9 6.7 8.9
v -6.9 6.7 8.5
v -6.9 6.7 8.3
v -6.9 6.7 8.2
v -6.9 6.8 9.1
v -6.9 6.8 8.9
v -6.9 6.8 8.5
v -6.9 6.8 8.3
v -6.8 5.5 9
v -6.8 5.5 8.4
v -6.8 5.8 9
v -6.8 5.8 8.4
v -6.8 6.7 9.2
v -6.8 6.7 9.1
v -6.8 6.7 8.8
v -6.8 6.7 8.6
v -6.8 6.7 8.3
v -6.8 6.7 8.2
v -6.8 6.8 9.2
v -6.8 6.8 9.1
v -6.8 6.8 8.9
v -6.8 6.8 8.8
v -6.8 6.8 8.6
v -6.8 6.8 8.5
v -6.8 6.8 8.3
v -6.8 6.8 8.2
v -6.8 7 9.1
v -6.8 7 8.9
v -6.8 7 8.5
v -6.8 7 8.3
v -6.8 7.2 8.8
v -6.8 7.2 8.7
v -6.8 7.3 8.8
v -6.8 7.3 8.7
v -6.8 8.2 8.6
v -6.8 8.2 8.5
v -6.8 8.3 8.6
v -6.8 8.3 8.5
v -6.7 6.8 8.8
v -6.7 6.8 8.6
v -6.7 7 8.7
v -6.7 7 8.6
v -6.7 7.1 8.7
v -6.7 7.1 8.6
v -6.7 7.2 8.8
v -6.7 7.2 8.7
v -6.7 7.3 8.7
v -6.7 7.3 8.6
v -6.7 7.4 8.8
v -6.7 7.4 8.6
v -6.7 7.5 8.8
v -6.7 7.5 8.6
v -6.7 8.1 8.6
v -6.7 8.1 8.5
v -6.7 8.2 8.7
v -6.7 8.2 8.6
v -6.7 8.2 8.5
v -6.7 8.2 8.4
v -6.7 8.3 8.7
v -6.7 8.3 8.6
v -6.7 8.3 8.5
v -6.7 8.3 8.4
v -6.7 8.4 8.6
v -6.7 8.4 8.5
v -6.6 6.8 9.2
v -6.6 6.8 9.1
v -6.6 6.8 8.3
v -6.6 6.8 8.2
v -6.6 7 9.2
v -6.6 7 9.1
v -6.6 7 8.9
v -6.6 7 8.5
v -6.6 7 8.3
v -6.6 7 8.2
v -6.6 7.1 9.1
v -6.6 7.1 8.9
v -6.6 7.1 8.5
v -6.6 7.1 8.3
v -6.6 7.5 8.9
v -6.6 7.5 8.5
v -6.6 7.6 8.9
v -6.6 7.6 8.8
v -6.6 7.6 8.5
v -6.6 7.7 8.9
v -6.6 7.8 8.9
v -6.6 7.8 8.8
v -6.6 7.8 8.5
v -6.5 6.2 8.3
v -6.5 6.2 8.2
v -6.5 6.7 8.3
v -6.5 6.7 8.2
v -6.5 7 9.2
v -6.5 7 9.1
v -6.5 7 8.3
v -6.5 7 8.2
v -6.5 7.1 9.2
v -6.5 7.1 9.1
v -6.5 7.1 8.3
v -6.5 7.1 8.2
v -6.5 7.3 9.1
v -6.5 7.3 8.3
v -6.4 5.5 8.4
v -6.4 5.5 8.3
v -6.4 5.8 8.4
v -6.4 5.8 8.3
v -6.3 5.3 8.1
v -6.3 5.3 8
v -6.3 5.8 8.3
v -6.3 5.8 8.1
v -6.3 5.8 8
v -6.3 5.9 8.3
v -6.3 5.9 8
v -6.3 7.1 9.2
v -6.3 7.1 9.1
v -6.3 7.1 8.3
v -6.3 7.1 8.2
v -6.3 7.3 9.1
v -6.3 7.3 8.3
v -6.3 7.3 8.2
v -6.3 7.4 9.2
v -6.3 7.4 9.1
v -6.3 7.4 8.3
v -6.2 5.9 8.3
v -6.2 5.9 8.1
v -6.2 6 8.3
v -6.2 6 8.1
v -6.2 7.3 8.3
v -6.2 7.3 8.2
v -6.2 7.4 9.1
v -6.2 7.4 8.3
v -6.2 7.4 8.2
v -6.2 7.6 9.1
v -6.2 7.6 8.3
v -6.1 6.2 9.2
v -6.1 6.2 9.1
v -6.1 6.2 8.3
v -6.1 6.2 8.2
v -6.1 6.5 8.3
v -6.1 6.5 8.2
v -6.1 6.6 8.3
v -6.1 6.6 8.2
v -6.1 6.7 9.2
v -6.1 6.7 9.1
v -6.1 6.8 9.2
v -6.1 6.8 9.1
v -6.1 7 8.3
v -6.1 7 8.2
v -6.1 7.3 9.2
v -6.1 7.3 9.1
v -5.9 5.3 8.1
v -5.9 5.3 8
v -5.9 5.8 8.1
v -5.9 5.8 8
v -5.9 6.2 9.2
v -5.9 6.2 9.1
v -5.9 6.2 8.3
v -5.9 6.2 8.2
v -5.9 6.5 8.3
v -5.9 6.5 8.2
v -5.9 6.6 8.3
v -5.9 6.6 8.2
v -5.9 6.7 9.2
v -5.9 6.7 9.1
v -5.9 6.8 9.2
v -5.9 6.8 9.1
v -5.9 7 8.3
v -5.9 7 8.2
v -5.9 7.3 9.2
v -5.9 7.3 9.1
v -5.8 5.3 8.4
v -5.8 5.3 8.3
v -5.8 5.5 8.4
v -5.8 5.5 8.3
v -5.8 5.8 8.4
v -5.8 5.8 8.3
v -5.6 5.6 9.1
v -5.6 5.6 9
v -5.6 5.8 9.1
v -5.6 5.8 9
v -5.5 6.2 8.3
v -5.5 6.2 8.2
v -5.5 6.7 8.3
v -5.5 6.7 8.2
v -5.4 5.5 8.4
v -5.4 5.5 8.3
v -5.4 5.8 8.4
v -5.4 5.8 8.3
v -4.9 5.3 9
v -4.9 5.3 8.9
v -4.9 5.3 8.5
v -4.9 5.3 8.4
v -4.9 5.8 9
v -4.9 5.8 8.9
v -4.9 5.8 8.5
v -4.9 5.8 8.4
v -7 7.5 8.9
v -7 7.5 8.8
v -7 7.5 8.7
v -7 7.5 8.5
v -7 7.6 8.8
v -7 7.6 8.7
v -7 7.8 8.9
v -7 7.8 8.5
v -7 8.3 8.9
v -7 8.3 8.8
v -7 8.4 9
v -7 8.4 8.9
v -7 8.4 8.8
v -7 8.4 8.7
v -7 8.5 9
v -7 8.5 8.9
v -7 8.5 8.8
v -7 8.5 8.7
v -7 8.6 8.9
v -7 8.6 8.8
v -7 8.8 8.5
v -7 8.8 8.4
v -7 8.9 8.6
v -7 8.9 8.5
v -7 8.9 8.4
v -7 8.9 8.3
v -7 9 8.6
v -7 9 8.5
v -7 9 8.4
v -7 9 8.3
v -7 9.1 8.5
v -7 9.1 8.4
v -6.9 6.7 8.8
v -6.9 6.7 8.6
v -6.9 7 8.6
v -6.9 7.2 8.8
v -6.9 7.2 8.6
v -6.9 7.3 8.8
v -6.9 7.3 8.6
v -6.9 7.4 8.8
v -6.9 7.4 8.6
v -6.9 7.5 8.8
v -6.9 7.5 8.6
v -6.9 8.4 8.9
v -6.9 8.4 8.8
v -6.9 8.5 8.9
v -6.9 8.5 8.8
v -6.9 8.9 8.5
v -6.9 8.9 8.4
v -6.9 9 8.5
v -6.9 9 8.4
v -6.7 5.5 8.4
v -6.7 5.5 8.3
v -6.7 5.8 8.4
v -6.7 5.8 8.3
v -6.6 6.2 8.3
v -6.6 6.2 8.2
v -6.6 6.7 8.3
v -6.6 6.7 8.2
v -6.6 7.1 8.9
v -6.6 7.1 8.7
v -6.6 7.1 8.6
v -6.6 7.1 8.5
v -6.6 7.2 8.9
v -6.6 7.2 8.7
v -6.6 7.3 8.9
v -6.6 7.3 8.6
v -6.6 7.4 8.9
v -6.6 7.4 8.5
v -6.6 8.1 8.6
v -6.6 8.1 8.5
v -6.6 8.2 8.7
v -6.6 8.2 8.6
v -6.6 8.2 8.5
v -6.6 8.2 8.4
v -6.6 8.3 8.7
v -6.6 8.3 8.6
v -6.6 8.3 8.5
v -6.6 8.3 8.4
v -6.6 8.4 8.6
v -6.6 8.4 8.5
v -6.5 5.6 9.1
v -6.5 5.6 9
v -6.5 5.8 9.1
v -6.5 5.8 9
v -6.5 7.4 9
v -6.5 7.4 8.5
v -6.5 7.4 8.4
v -6.5 7.5 9
v -6.5 7.5 8.9
v -6.5 7.6 8.9
v -6.5 7.6 8.8
v -6.5 7.6 8.5
v -6.5 7.6 8.4
v -6.5 7.8 9
v -6.5 7.8 8.8
v -6.5 7.8 8.5
v -6.5 7.8 8.4
v -6.5 8.2 8.6
v -6.5 8.2 8.5
v -6.5 8.3 8.6
v -6.5 8.3 8.5
v -6.3 5.3 8.4
v -6.3 5.3 8.3
v -6.3 5.5 8.4
v -6.3 5.5 8.3
v -6.3 5.8 8.4
v -6.3 5.8 8.3
v -6.2 5.3 8.1
v -6.2 5.3 8
v -6.2 5.8 8.1
v -6.2 5.8 8
v -6.2 6.2 9.2
v -6.2 6.2 9.1
v -6.2 6.2 8.3
v -6.2 6.2 8.2
v -6.2 6.5 8.3
v -6.2 6.5 8.2
v -6.2 6.6 8.3
v -6.2 6.6 8.2
v -6.2 6.7 9.2
v -6.2 6.7 9.1
v -6.2 6.8 9.2
v -6.2 6.8 9.1
v -6.2 7 8.3
v -6.2 7 8.2
v -6.2 7.3 9.2
v -6.2 7.3 9.1
v -6 6.2 9.2
v -6 6.2 9.1
v -6 6.2 8.3
v -6 6.2 8.2
v -6 6.5 8.3
v -6 6.5 8.2
v -6 6.6 8.3
v -6 6.6 8.2
v -6 6.7 9.2
v -6 6.7 9.1
v -6 6.8 9.2
v -6 6.8 9.1
v -6 7 8.3
v -6 7 8.2
v -6 7.3 9.2
v -6 7.3 9.1
v -5.9 5.9 8.3
v -5.9 5.9 8.1
v -5.9 6 8.3
v -5.9 6 8.1
v -5.9 7.3 8.3
v -5.9 7.3 8.2
v -5.9 7.4 9.1
v -5.9 7.4 8.3
v -5.9 7.4 8.2
v -5.9 7.6 9.1
v -5.9 7.6 8.3
v -5.8 5.3 8.1
v -5.8 5.3 8
v -5.8 5.8 8.3
v -5.8 5.8 8.1
v -5.8 5.8 8
v -5.8 5.9 8.3
v -5.8 5.9 8
v -5.8 7.1 9.2
v -5.8 7.1 9.1
v -5.8 7.1 8.3
v -5.8 7.1 8.2
v -5.8 7.3 9.1
v -5.8 7.3 8.3
v -5.8 7.3 8.2
v -5.8 7.4 9.2
v -5.8 7.4 9.1
v -5.8 7.4 8.3
v -5.7 5.5 8.4
v -5.7 5.5 8.3
v -5.7 5.8 8.4
v -5.7 5.8 8.3
v -5.6 6.2 8.3
v -5.6 6.2 8.2
v -5.6 6.7 8.3
v -5.6 6.7 8.2
v -5.6 7 9.2
v -5.6 7 9.1
v -5.6 7 8.3
v -5.6 7 8.2
v -5.6 7.1 9.2
v -5.6 7.1 9.1
v -5.6 7.1 8.3
v -5.6 7.1 8.2
v -5.6 7.3 9.1
v -5.6 7.3 8.3
v -5.5 6.8 9.2
v -5.5 6.8 9.1
v -5.5 6.8 8.3
v -5.5 6.8 8.2
v -5.5 7 9.2
v -5.5 7 9.1
v -5.5 7 8.3
v -5.5 7 8.2
v -5.5 7.1 9.1
v -5.5 7.1 8.3
v -5.3 5.5 9
v -5.3 5.5 8.4
v -5.3 5.8 9
v -5.3 5.8 8.4
v -5.3 6.7 9.2
v -5.3 6.7 9.1
v -5.3 6.7 8.3
v -5.3 6.7 8.2
v -5.3 6.8 9.2
v -5.3 6.8 9.1
v -5.3 6.8 8.3
v -5.3 6.8 8.2
v -5.3 7 9.1
v -5.3 7 8.3
v -5.2 5.3 9.1
v -5.2 5.3 9
v -5.2 5.3 8.9
v -5.2 5.3 8.8
v -5.2 5.3 8.7
v -5.2 5.3 8.6
v -5.2 5.3 8.5
v -5.2 5.3 8.4
v -5.2 5.3 8.3
v -5.2 5.4 9
v -5.2 5.4 8.4
v -5.2 5.5 9
v -5.2 5.5 8.4
v -5.2 5.8 9
v -5.2 5.8 8.4
v -5.2 5.9 9
v -5.2 5.9 8.9
v -5.2 5.9 8.8
v -5.2 5.9 8.7
v -5.2 5.9 8.6
v -5.2 5.9 8.5
v -5.2 5.9 8.4
v -5.2 6.1 9.1
v -5.2 6.1 9
v -5.2 6.1 8.4
v -5.2 6.1 8.3
v -5.2 6.5 9.2
v -5.2 6.5 9.1
v -5.2 6.5 8.3
v -5.2 6.5 8.2
v -5.2 6.7 9.2
v -5.2 6.7 9.1
v -5.2 6.7 8.3
v -5.2 6.7 8.2
v -5.2 6.8 9.1
v -5.2 6.8 8.3
v -5 6.4 9.2
v -5 6.4 9.1
v -5 6.4 8.3
v -5 6.4 8.2
v -5 6.5 9.2
v -5 6.5 9.1
v -5 6.5 8.3
v -5 6.5 8.2
v -5 6.7 9.1
v -5 6.7 8.3
v -4.9 5.2 9.2
v -4.9 5.2 9.1
v -4.9 5.2 7.9
v -4.9 5.2 7.8
v -4.9 5.3 9.2
v -4.9 5.3 9.1
v -4.9 5.3 7.9
v -4.9 5.3 7.8
v -4.9 6.2 9.2
v -4.9 6.2 9.1
v -4.9 6.2 8.3
v -4.9 6.2 8.2
v -4.9 6.4 9.2
v -4.9 6.4 9.1
v -4.9 6.4 8.3
v -4.9 6.4 8.2
v -4.9 6.5 9.1
v -4.9 6.5 8.3
v -4.7 5.2 9.1
v -4.7 5.2 9
v -4.7 5.2 8.9
v -4.7 5.2 8.8
v -4.7 5.2 8.7
v -4.7 5.2 8.6
v -4.7 5.2 8.5
v -4.7 5.2 8.4
v -4.7 5.2 8.3
v -4.7 5.2 8.2
v -4.7 5.2 8.1
v -4.7 5.2 8
v -4.7 5.2 7.9
v -4.7 5.3 9.1
v -4.7 5.3 9
v -4.7 5.3 8.9
v -4.7 5.3 8.8
v -4.7 5.3 8.7
v -4.7 5.3 8.6
v -4.7 5.3 8.5
v -4.7 5.3 8.4
v -4.7 5.3 8.3
v -4.7 5.3 8.2
v -4.7 5.3 8.1
v -4.7 5.3 8
v -4.7 5.3 7.9
v -4.7 5.8 9
v -4.7 5.8 8.9
v -4.7 5.8 8.8
v -4.7 5.8 8.7
v -4.7 5.8 8.6
v -4.7 5.8 8.5
v -4.7 5.8 8.4
v -4.7 5.9 9
v -4.7 5.9 8.9
v -4.7 5.9 8.8
v -4.7 5.9 8.7
v -4.7 5.9 8.6
v -4.7 5.9 8.5
v -4.7 5.9 8.4
v -4.7 6.1 9.2
v -4.7 6.1 9.1
v -4.7 6.1 8.3
v -4.7 6.1 8.2
v -4.7 6.2 9.2
v -4.7 6.2 9.1
v -4.7 6.2 8.3
v -4.7 6.2 8.2
v -4.7 6.4 9.1
v -4.7 6.4 8.3
v -4.6 6.1 9.1
v -4.6 6.1 8.3
v -4.6 6.2 9.1
v -4.6 6.2 8.3
v -7.4 6.1 9.2
v -7.4 6.2 9.2
v -7.2 5.2 9.2
v -7.2 5.3 9.2
v -7.2 6.2 9.2
v -7.2 6.4 9.2
v -7.1 6.4 9.2
v -7.1 6.5 9.2
v -6.9 6.2 9.2
v -6.9 6.5 9.2
v -6.9 6.7 9.2
v -6.8 6.2 9.2
v -6.8 6.5 9.2
v -6.8 6.7 9.2
v -6.8 6.8 9.2
v -6.6 6.2 9.2
v -6.6 6.8 9.2
v -6.6 7 9.2
v -6.5 6.2 9.2
v -6.5 6.8 9.2
v -6.5 7 9.2
v -6.5 7.1 9.2
v -6.3 6.2 9.2
v -6.3 7.1 9.2
v -6.3 7.4 9.2
v -6.2 6.2 9.2
v -6.2 6.7 9.2
v -6.2 6.8 9.2
v -6.2 7.3 9.2
v -6.1 6.2 9.2
v -6.1 6.7 9.2
v -6.1 6.8 9.2
v -6.1 7.3 9.2
v -6 6.2 9.2
v -6 6.7 9.2
v -6 6.8 9.2
v -6 7.3 9.2
v -5.9 6.2 9.2
v -5.9 6.7 9.2
v -5.9 6.8 9.2
v -5.9 7.3 9.2
v -5.8 6.2 9.2
v -5.8 7.1 9.2
v -5.8 7.4 9.2
v -5.6 6.2 9.2
v -5.6 6.8 9.2
v -5.6 7 9.2
v -5.6 7.1 9.2
v -5.5 6.2 9.2
v -5.5 6.8 9.2
v -5.5 7 9.2
v -5.3 6.2 9.2
v -5.3 6.5 9.2
v -5.3 6.7 9.2
v -5.3 6.8 9.2
v -5.2 6.2 9.2
v -5.2 6.5 9.2
v -5.2 6.7 9.2
v -5 6.4 9.2
v -5 6.5 9.2
v -4.9 5.2 9.2
v -4.9 5.3 9.2
v -4.9 6.2 9.2
v -4.9 6.4 9.2
v -4.7 6.1 9.2
v -4.7 6.2 9.2
v -7.5 6.1 9.1
v -7.5 6.2 9.1
v -7.4 5.2 9.1
v -7.4 5.3 9.1
v -7.4 6.1 9.1
v -7.4 6.2 9.1
v -7.4 6.4 9.1
v -7.2 5.2 9.1
v -7.2 5.3 9.1
v -7.2 6.2 9.1
v -7.2 6.4 9.1
v -7.2 6.5 9.1
v -7.1 6.4 9.1
v -7.1 6.5 9.1
v -7.1 6.7 9.1
v -6.9 5.3 9.1
v -6.9 6.1 9.1
v -6.9 6.5 9.1
v -6.9 6.7 9.1
v -6.9 6.8 9.1
v -6.8 5.3 9.1
v -6.8 6.1 9.1
v -6.8 6.7 9.1
v -6.8 6.8 9.1
v -6.8 7 9.1
v -6.6 5.5 9.1
v -6.6 5.9 9.1
v -6.6 6.8 9.1
v -6.6 7 9.1
v -6.6 7.1 9.1
v -6.5 5.6 9.1
v -6.5 5.8 9.1
v -6.5 7 9.1
v -6.5 7.1 9.1
v -6.5 7.3 9.1
v -6.3 7.1 9.1
v -6.3 7.3 9.1
v -6.2 6.2 9.1
v -6.2 6.7 9.1
v -6.2 6.8 9.1
v -6.2 7.3 9.1
v -6.2 7.4 9.1
v -6.2 7.6 9.1
v -6.1 6.2 9.1
v -6.1 6.7 9.1
v -6.1 6.8 9.1
v -6.1 7.3 9.1
v -6 6.2 9.1
v -6 6.7 9.1
v -6 6.8 9.1
v -6 7.3 9.1
v -5.9 6.2 9.1
v -5.9 6.7 9.1
v -5.9 6.8 9.1
v -5.9 7.3 9.1
v -5.9 7.4 9.1
v -5.9 7.6 9.1
v -5.8 7.1 9.1
v -5.8 7.3 9.1
v -5.6 5.6 9.1
v -5.6 5.8 9.1
v -5.6 7 9.1
v -5.6 7.1 9.1
v -5.6 7.3 9.1
v -5.5 5.5 9.1
v -5.5 5.9 9.1
v -5.5 6.8 9.1
v -5.5 7 9.1
v -5.5 7.1 9.1
v -5.3 5.3 9.1
v -5.3 6.1 9.1
v -5.3 6.7 9.1
v -5.3 6.8 9.1
v -5.3 7 9.1
v -5.2 5.3 9.1
v -5.2 6.1 9.1
v -5.2 6.5 9.1
v -5.2 6.7 9.1
v -5.2 6.8 9.1
v -5 6.4 9.1
v -5 6.5 9.1
v -5 6.7 9.1
v -4.9 5.2 9.1
v -4.9 5.3 9.1
v -4.9 6.2 9.1
v -4.9 6.4 9.1
v -4.9 6.5 9.1
v -4.7 5.2 9.1
v -4.7 5.3 9.1
v -4.7 6.1 9.1
v -4.7 6.2 9.1
v -4.7 6.4 9.1
v -4.6 6.1 9.1
v -4.6 6.2 9.1
v -7.1 7.4 9
v -7.1 7.6 9
v -7.1 7.8 9
v -7.1 8.4 9
v -7.1 8.5 9
v -7 7.6 9
v -7 7.8 9
v -7 8.4 9
v -7 8.5 9
v -6.7 7.5 9
v -6.7 7.7 9
v -6.6 7.7 9
v -6.6 7.8 9
v -6.5 5.6 9
v -6.5 5.8 9
v -6.5 7.4 9
v -6.5 7.5 9
v -6.5 7.8 9
v -5.6 5.6 9
v -5.6 5.8 9
v -5.2 5.8 9
v -5.2 5.9 9
v -4.9 5.3 9
v -4.9 5.8 9
v -4.7 5.3 9
v -4.7 5.8 9
v -4.7 5.9 9
v -7.2 8.4 8.9
v -7.2 8.5 8.9
v -7.1 8.3 8.9
v -7.1 8.4 8.9
v -7.1 8.5 8.9
v -7.1 8.6 8.9
v -7 6.7 8.9
v -7 7 8.9
v -7 7.3 8.9
v -7 7.4 8.9
v -7 8.3 8.9
v -7 8.4 8.9
v -7 8.5 8.9
v -7 8.6 8.9
v -6.9 6.7 8.9
v -6.9 6.8 8.9
v -6.9 7 8.9
v -6.9 7.3 8.9
v -6.9 7.4 8.9
v -6.9 8.4 8.9
v -6.9 8.5 8.9
v -6.8 6.8 8.9
v -6.8 7 8.9
v -6.7 7.2 8.9
v -6.7 7.3 8.9
v -6.6 7 8.9
v -6.6 7.1 8.9
v -6.6 7.2 8.9
v -6.6 7.3 8.9
v -6.6 7.4 8.9
v -6.7 8.2 8.7
v -6.7 8.3 8.7
v -6.6 8.2 8.7
v -6.6 8.3 8.7
v -7.1 8.9 8.6
v -7.1 9 8.6
v -7 8.9 8.6
v -7 9 8.6
v -6.9 6.7 8.6
v -6.9 7 8.6
v -6.9 7.2 8.6
v -6.9 7.3 8.6
v -6.9 7.4 8.6
v -6.9 7.5 8.6
v -6.8 6.7 8.6
v -6.8 6.8 8.6
v -6.8 7 8.6
v -6.8 7.2 8.6
v -6.8 8.2 8.6
v -6.8 8.3 8.6
v -6.7 6.8 8.6
v -6.7 7 8.6
v -6.7 7.1 8.6
v -6.7 7.3 8.6
v -6.7 7.4 8.6
v -6.7 7.5 8.6
v -6.7 8.1 8.6
v -6.7 8.2 8.6
v -6.7 8.3 8.6
v -6.7 8.4 8.6
v -6.6 8.1 8.6
v -6.6 8.2 8.6
v -6.6 8.3 8.6
v -6.6 8.4 8.6
v -6.5 8.2 8.6
v -6.5 8.3 8.6
v -7.2 8.9 8.5
v -7.2 9 8.5
v -7.1 8.8 8.5
v -7.1 8.9 8.5
v -7.1 9 8.5
v -7.1 9.1 8.5
v -7 7.5 8.5
v -7 7.8 8.5
v -7 8.8 8.5
v -7 8.9 8.5
v -7 9 8.5
v -7 9.1 8.5
v -6.9 8.9 8.5
v -6.9 9 8.5
v -6.7 7.5 8.5
v -6.7 7.6 8.5
v -6.6 7.5 8.5
v -6.6 7.6 8.5
v -6.6 7.8 8.5
v -4.9 5.3 8.5
v -4.9 5.8 8.5
v -4.7 5.3 8.5
v -4.7 5.8 8.5
v -6.9 5.5 8.4
v -6.9 5.8 8.4
v -6.8 5.5 8.4
v -6.8 5.8 8.4
v -5.3 5.5 8.4
v -5.3 5.8 8.4
v -5.2 5.5 8.4
v -5.2 5.8 8.4
v -6.3 5.3 8.1
v -6.3 5.8 8.1
v -6.2 5.3 8.1
v -6.2 5.8 8.1
v -5.9 5.3 8.1
v -5.9 5.8 8.1
v -5.8 5.3 8.1
v -5.8 5.8 8.1
v -6.9 5.5 9
v -6.9 5.8 9
v -6.8 5.5 9
v -6.8 5.8 9
v -5.3 5.5 9
v -5.3 5.8 9
v -5.2 5.5 9
v -5.2 5.8 9
v -7 7.5 8.9
v -7 7.8 8.9
v -6.7 7.5 8.9
v -6.7 7.7 8.9
v -6.6 7.5 8.9
v -6.6 7.6 8.9
v -6.6 7.7 8.9
v -6.6 7.8 8.9
v -4.9 5.3 8.9
v -4.9 5.8 8.9
v -4.7 5.3 8.9
v -4.7 5.8 8.9
v -7.2 8.4 8.8
v -7.2 8.5 8.8
v -7.1 8.3 8.8
v -7.1 8.4 8.8
v -7.1 8.5 8.8
v -7.1 8.6 8.8
v -7 8.3 8.8
v -7 8.4 8.8
v -7 8.5 8.8
v -7 8.6 8.8
v -6.9 6.7 8.8
v -6.9 7.2 8.8
v -6.9 7.3 8.8
v -6.9 7.4 8.8
v -6.9 7.5 8.8
v -6.9 8.4 8.8
v -6.9 8.5 8.8
v -6.8 6.7 8.8
v -6.8 6.8 8.8
v -6.8 7.2 8.8
v -6.8 7.3 8.8
v -6.7 6.8 8.8
v -6.7 7.2 8.8
v -6.7 7.4 8.8
v -6.7 7.5 8.8
v -7.1 8.4 8.7
v -7.1 8.5 8.7
v -7 8.4 8.7
v -7 8.5 8.7
v -6.8 7.2 8.7
v -6.8 7.3 8.7
v -6.7 7.2 8.7
v -6.7 7.3 8.7
v -7 6.7 8.5
v -7 7 8.5
v -7 7.2 8.5
v -7 7.4 8.5
v -6.9 6.7 8.5
v -6.9 6.8 8.5
v -6.8 6.8 8.5
v -6.8 7 8.5
v -6.8 7.2 8.5
v -6.8 8.2 8.5
v -6.8 8.3 8.5
v -6.7 7.4 8.5
v -6.7 8.1 8.5
v -6.7 8.2 8.5
v -6.7 8.3 8.5
v -6.7 8.4 8.5
v -6.6 7 8.5
v -6.6 7.1 8.5
v -6.6 7.4 8.5
v -6.6 8.1 8.5
v -6.6 8.2 8.5
v -6.6 8.3 8.5
v -6.6 8.4 8.5
v -6.5 8.2 8.5
v -6.5 8.3 8.5
v -7.2 8.9 8.4
v -7.2 9 8.4
v -7.1 7.4 8.4
v -7.1 7.6 8.4
v -7.1 7.8 8.4
v -7.1 8.8 8.4
v -7.1 8.9 8.4
v -7.1 9 8.4
v -7.1 9.1 8.4
v -7 7.4 8.4
v -7 7.6 8.4
v -7 8.8 8.4
v -7 8.9 8.4
v -7 9 8.4
v -7 9.1 8.4
v -6.9 8.9 8.4
v -6.9 9 8.4
v -6.7 5.5 8.4
v -6.7 5.8 8.4
v -6.7 7.4 8.4
v -6.7 7.6 8.4
v -6.7 8.2 8.4
v -6.7 8.3 8.4
v -6.6 7.6 8.4
v -6.6 7.8 8.4
v -6.6 8.2 8.4
v -6.6 8.3 8.4
v -6.5 7.4 8.4
v -6.5 7.6 8.4
v -6.5 7.8 8.4
v -6.4 5.5 8.4
v -6.4 5.8 8.4
v -6.3 5.3 8.4
v -6.3 5.5 8.4
v -6.3 5.8 8.4
v -6.2 5.3 8.4
v -6.2 5.6 8.4
v -5.9 5.3 8.4
v -5.9 5.6 8.4
v -5.8 5.3 8.4
v -5.8 5.5 8.4
v -5.8 5.8 8.4
v -5.7 5.5 8.4
v -5.7 5.8 8.4
v -5.4 5.5 8.4
v -5.4 5.8 8.4
v -5.2 5.8 8.4
v -5.2 5.9 8.4
v -4.9 5.3 8.4
v -4.9 5.8 8.4
v -4.7 5.3 8.4
v -4.7 5.8 8.4
v -4.7 5.9 8.4
v -7.5 6.1 8.3
v -7.5 6.2 8.3
v -7.4 6.1 8.3
v -7.4 6.2 8.3
v -7.4 6.4 8.3
v -7.2 6.2 8.3
v -7.2 6.4 8.3
v -7.2 6.5 8.3
v -7.1 6.4 8.3
v -7.1 6.5 8.3
v -7.1 6.7 8.3
v -7.1 8.9 8.3
v -7.1 9 8.3
v -7 8.9 8.3
v -7 9 8.3
v -6.9 5.3 8.3
v -6.9 6.1 8.3
v -6.9 6.5 8.3
v -6.9 6.7 8.3
v -6.9 6.8 8.3
v -6.8 5.3 8.3
v -6.8 5.5 8.3
v -6.8 5.8 8.3
v -6.8 6.1 8.3
v -6.8 6.7 8.3
v -6.8 6.8 8.3
v -6.8 7 8.3
v -6.7 5.4 8.3
v -6.7 5.5 8.3
v -6.7 5.8 8.3
v -6.7 5.9 8.3
v -6.6 5.3 8.3
v -6.6 6.1 8.3
v -6.6 6.2 8.3
v -6.6 6.7 8.3
v -6.6 6.8 8.3
v -6.6 7 8.3
v -6.6 7.1 8.3
v -6.5 6.1 8.3
v -6.5 6.2 8.3
v -6.5 6.7 8.3
v -6.5 7 8.3
v -6.5 7.1 8.3
v -6.5 7.3 8.3
v -6.4 5.4 8.3
v -6.4 5.5 8.3
v -6.4 5.8 8.3
v -6.4 5.9 8.3
v -6.3 5.3 8.3
v -6.3 5.5 8.3
v -6.3 5.8 8.3
v -6.3 5.9 8.3
v -6.3 7.1 8.3
v -6.3 7.3 8.3
v -6.3 7.4 8.3
v -6.2 5.9 8.3
v -6.2 6 8.3
v -6.2 6.1 8.3
v -6.2 6.2 8.3
v -6.2 6.5 8.3
v -6.2 6.6 8.3
v -6.2 7 8.3
v -6.2 7.3 8.3
v -6.2 7.4 8.3
v -6.2 7.6 8.3
v -6.1 6.2 8.3
v -6.1 6.5 8.3
v -6.1 6.6 8.3
v -6.1 7 8.3
v -6 6.2 8.3
v -6 6.5 8.3
v -6 6.6 8.3
v -6 7 8.3
v -5.9 5.9 8.3
v -5.9 6 8.3
v -5.9 6.1 8.3
v -5.9 6.2 8.3
v -5.9 6.5 8.3
v -5.9 6.6 8.3
v -5.9 7 8.3
v -5.9 7.3 8.3
v -5.9 7.4 8.3
v -5.9 7.6 8.3
v -5.8 5.3 8.3
v -5.8 5.5 8.3
v -5.8 5.8 8.3
v -5.8 5.9 8.3
v -5.8 7.1 8.3
v -5.8 7.3 8.3
v -5.8 7.4 8.3
v -5.7 5.4 8.3
v -5.7 5.5 8.3
v -5.7 5.8 8.3
v -5.7 5.9 8.3
v -5.6 6.1 8.3
v -5.6 6.2 8.3
v -5.6 6.7 8.3
v -5.6 7 8.3
v -5.6 7.1 8.3
v -5.6 7.3 8.3
v -5.5 5.3 8.3
v -5.5 6.1 8.3
v -5.5 6.2 8.3
v -5.5 6.7 8.3
v -5.5 6.8 8.3
v -5.5 7 8.3
v -5.5 7.1 8.3
v -5.4 5.4 8.3
v -5.4 5.5 8.3
v -5.4 5.8 8.3
v -5.4 5.9 8.3
v -5.3 5.3 8.3
v -5.3 5.5 8.3
v -5.3 5.8 8.3
v -5.3 6.1 8.3
v -5.3 6.7 8.3
v -5.3 6.8 8.3
v -5.3 7 8.3
v -5.2 5.3 8.3
v -5.2 6.1 8.3
v -5.2 6.5 8.3
v -5.2 6.7 8.3
v -5.2 6.8 8.3
v -5 6.4 8.3
v -5 6.5 8.3
v -5 6.7 8.3
v -4.9 6.2 8.3
v -4.9 6.4 8.3
v -4.9 6.5 8.3
v -4.7 6.1 8.3
v -4.7 6.2 8.3
v -4.7 6.4 8.3
v -4.6 6.1 8.3
v -4.6 6.2 8.3
v -7.4 6.1 8.2
v -7.4 6.2 8.2
v -7.2 6.2 8.2
v -7.2 6.4 8.2
v -7.1 6.4 8.2
v -7.1 6.5 8.2
v -6.9 6.5 8.2
v -6.9 6.7 8.2
v -6.8 6.2 8.2
v -6.8 6.7 8.2
v -6.8 6.8 8.2
v -6.6 6.1 8.2
v -6.6 6.2 8.2
v -6.6 6.7 8.2
v -6.6 6.8 8.2
v -6.6 7 8.2
v -6.5 6.1 8.2
v -6.5 6.2 8.2
v -6.5 6.7 8.2
v -6.5 6.8 8.2
v -6.5 7 8.2
v -6.5 7.1 8.2
v -6.3 6.7 8.2
v -6.3 7 8.2
v -6.3 7.1 8.2
v -6.3 7.3 8.2
v -6.2 6.1 8.2
v -6.2 6.2 8.2
v -6.2 6.5 8.2
v -6.2 6.6 8.2
v -6.2 7 8.2
v -6.2 7.1 8.2
v -6.2 7.3 8.2
v -6.2 7.4 8.2
v -6.1 6.2 8.2
v -6.1 6.5 8.2
v -6.1 6.6 8.2
v -6.1 7 8.2
v -6 6.2 8.2
v -6 6.5 8.2
v -6 6.6 8.2
v -6 7 8.2
v -5.9 6.1 8.2
v -5.9 6.2 8.2
v -5.9 6.5 8.2
v -5.9 6.6 8.2
v -5.9 7 8.2
v -5.9 7.1 8.2
v -5.9 7.3 8.2
v -5.9 7.4 8.2
v -5.8 6.7 8.2
v -5.8 7 8.2
v -5.8 7.1 8.2
v -5.8 7.3 8.2
v -5.6 6.1 8.2
v -5.6 6.2 8.2
v -5.6 6.7 8.2
v -5.6 6.8 8.2
v -5.6 7 8.2
v -5.6 7.1 8.2
v -5.5 6.1 8.2
v -5.5 6.2 8.2
v -5.5 6.7 8.2
v -5.5 6.8 8.2
v -5.5 7 8.2
v -5.3 6.2 8.2
v -5.3 6.7 8.2
v -5.3 6.8 8.2
v -5.2 6.5 8.2
v -5.2 6.7 8.2
v -5 6.4 8.2
v -5 6.5 8.2
v -4.9 6.2 8.2
v -4.9 6.4 8.2
v -4.7 6.1 8.2
v -4.7 6.2 8.2
v -6.2 5.9 8.1
v -6.2 6 8.1
v -5.9 5.9 8.1
v -5.9 6 8.1
v -6.3 5.3 8
v -6.3 5.8 8
v -6.3 5.9 8
v -6.2 5.3 8
v -6.2 5.8 8
v -5.9 5.3 8
v -5.9 5.8 8
v -5.8 5.3 8
v -5.8 5.8 8
v -5.8 5.9 8
v -7.4 5.2 7.9
v -7.4 5.3 7.9
v -7.2 5.2 7.9
v -7.2 5.3 7.9
v -4.9 5.2 7.9
v -4.9 5.3 7.9
v -4.7 5.2 7.9
v -4.7 5.3 7.9
v -7.2 5.2 7.8
v -7.2 5.3 7.8
v -6.9 5.2 7.8
v -6.9 5.3 7.8
v -6.8 5.2 7.8
v -6.8 5.3 7.8
v -6.6 5.2 7.8
v -6.6 5.3 7.8
v -5.5 5.2 7.8
v -5.5 5.3 7.8
v -5.3 5.2 7.8
v -5.3 5.3 7.8
v -5.2 5.2 7.8
v -5.2 5.3 7.8
v -4.9 5.2 7.8
v -4.9 5.3 7.8
v -7.2 5.2 9.2
v -4.9 5.2 9.2
v -7.4 5.2 9.1
v -7.2 5.2 9.1
v -4.9 5.2 9.1
v -4.7 5.2 9.1
v -7.4 5.2 9
v -6.9 5.2 9
v -5.2 5.2 9
v -4.7 5.2 9
v -7.4 5.2 8.9
v -6.9 5.2 8.9
v -5.2 5.2 8.9
v -4.7 5.2 8.9
v -7.4 5.2 8.8
v -6.9 5.2 8.8
v -5.2 5.2 8.8
v -4.7 5.2 8.8
v -7.4 5.2 8.7
v -6.9 5.2 8.7
v -5.2 5.2 8.7
v -4.7 5.2 8.7
v -7.4 5.2 8.6
v -6.9 5.2 8.6
v -5.2 5.2 8.6
v -4.7 5.2 8.6
v -7.4 5.2 8.5
v -6.9 5.2 8.5
v -5.2 5.2 8.5
v -4.7 5.2 8.5
v -7.4 5.2 8.4
v -6.9 5.2 8.4
v -5.2 5.2 8.4
v -4.7 5.2 8.4
v -7.4 5.2 8.3
v -6.9 5.2 8.3
v -6.8 5.2 8.3
v -6.6 5.2 8.3
v -5.5 5.2 8.3
v -5.3 5.2 8.3
v -5.2 5.2 8.3
v -4.7 5.2 8.3
v -7.4 5.2 8.2
v -6.9 5.2 8.2
v -6.6 5.2 8.2
v -5.5 5.2 8.2
v -5.2 5.2 8.2
v -4.7 5.2 8.2
v -7.4 5.2 8.1
v -6.9 5.2 8.1
v -6.6 5.2 8.1
v -6.3 5.2 8.1
v -6.2 5.2 8.1
v -5.9 5.2 8.1
v -5.8 5.2 8.1
v -5.5 5.2 8.1
v -5.2 5.2 8.1
v -4.7 5.2 8.1
v -7.4 5.2 8
v -6.9 5.2 8
v -6.6 5.2 8
v -6.3 5.2 8
v -6.2 5.2 8
v -5.9 5.2 8
v -5.8 5.2 8
v -5.5 5.2 8
v -5.2 5.2 8
v -4.7 5.2 8
v -7.4 5.2 7.9
v -7.2 5.2 7.9
v -6.9 5.2 7.9
v -6.6 5.2 7.9
v -5.5 5.2 7.9
v -5.2 5.2 7.9
v -4.9 5.2 7.9
v -4.7 5.2 7.9
v -7.2 5.2 7.8
v -6.9 5.2 7.8
v -6.8 5.2 7.8
v -6.6 5.2 7.8
v -5.5 5.2 7.8
v -5.3 5.2 7.8
v -5.2 5.2 7.8
v -4.9 5.2 7.8
v -6.5 5.8 9.1
v -5.6 5.8 9.1
v -6.9 5.8 9
v -6.8 5.8 9
v -6.5 5.8 9
v -5.6 5.8 9
v -5.3 5.8 9
v -5.2 5.8 9
v -4.9 5.8 9
v -5.2 5.8 8.9
v -4.9 5.8 8.9
v -4.7 5.8 8.9
v -5.2 5.8 8.8
v -4.7 5.8 8.8
v -5.2 5.8 8.7
v -4.7 5.8 8.7
v -5.2 5.8 8.6
v -4.7 5.8 8.6
v -5.2 5.8 8.5
v -4.9 5.8 8.5
v -4.7 5.8 8.5
v -6.9 5.8 8.4
v -6.8 5.8 8.4
v -6.7 5.8 8.4
v -6.4 5.8 8.4
v -6.3 5.8 8.4
v -5.8 5.8 8.4
v -5.7 5.8 8.4
v -5.4 5.8 8.4
v -5.3 5.8 8.4
v -5.2 5.8 8.4
v -4.9 5.8 8.4
v -6.7 5.8 8.3
v -6.4 5.8 8.3
v -6.3 5.8 8.3
v -5.8 5.8 8.3
v -5.7 5.8 8.3
v -5.4 5.8 8.3
v -6.3 5.8 8.1
v -6.2 5.8 8.1
v -5.9 5.8 8.1
v -5.8 5.8 8.1
v -6.2 5.8 8
v -5.9 5.8 8
v -7.4 6.1 9.2
v -4.7 6.1 9.2
v -7.5 6.1 9.1
v -7.4 6.1 9.1
v -6.9 6.1 9.1
v -6.8 6.1 9.1
v -5.3 6.1 9.1
v -5.2 6.1 9.1
v -4.7 6.1 9.1
v -4.6 6.1 9.1
v -6.9 6.1 9
v -5.2 6.1 9
v -6.9 6.1 8.4
v -5.2 6.1 8.4
v -7.5 6.1 8.3
v -7.4 6.1 8.3
v -6.9 6.1 8.3
v -6.8 6.1 8.3
v -6.6 6.1 8.3
v -6.5 6.1 8.3
v -6.2 6.1 8.3
v -5.9 6.1 8.3
v -5.6 6.1 8.3
v -5.5 6.1 8.3
v -5.3 6.1 8.3
v -5.2 6.1 8.3
v -4.7 6.1 8.3
v -4.6 6.1 8.3
v -7.4 6.1 8.2
v -6.6 6.1 8.2
v -6.5 6.1 8.2
v -6.2 6.1 8.2
v -5.9 6.1 8.2
v -5.6 6.1 8.2
v -5.5 6.1 8.2
v -4.7 6.1 8.2
v -6.2 6.5 8.3
v -6.1 6.5 8.3
v -6 6.5 8.3
v -5.9 6.5 8.3
v -6.2 6.5 8.2
v -6.1 6.5 8.2
v -6 6.5 8.2
v -5.9 6.5 8.2
v -6.2 6.7 9.2
v -6.1 6.7 9.2
v -6 6.7 9.2
v -5.9 6.7 9.2
v -6.2 6.7 9.1
v -6.1 6.7 9.1
v -6 6.7 9.1
v -5.9 6.7 9.1
v -6.6 6.7 8.3
v -6.5 6.7 8.3
v -5.6 6.7 8.3
v -5.5 6.7 8.3
v -6.6 6.7 8.2
v -6.5 6.7 8.2
v -5.6 6.7 8.2
v -5.5 6.7 8.2
v -6.2 7 8.3
v -6.1 7 8.3
v -6 7 8.3
v -5.9 7 8.3
v -6.2 7 8.2
v -6.1 7 8.2
v -6 7 8.2
v -5.9 7 8.2
v -6.8 7.2 8.8
v -6.7 7.2 8.8
v -6.8 7.2 8.7
v -6.7 7.2 8.7
v -6.2 7.3 9.2
v -6.1 7.3 9.2
v -6 7.3 9.2
v -5.9 7.3 9.2
v -6.2 7.3 9.1
v -6.1 7.3 9.1
v -6 7.3 9.1
v -5.9 7.3 9.1
v -6.9 7.3 8.8
v -6.8 7.3 8.8
v -6.8 7.3 8.7
v -6.7 7.3 8.7
v -6.9 7.3 8.6
v -6.7 7.3 8.6
v -7.1 7.4 9
v -6.5 7.4 9
v -7.1 7.4 8.9
v -7 7.4 8.9
v -6.9 7.4 8.9
v -6.6 7.4 8.9
v -7.1 7.4 8.6
v -7 7.4 8.6
v -7.1 7.4 8.5
v -7 7.4 8.5
v -6.7 7.4 8.5
v -6.6 7.4 8.5
v -6.5 7.4 8.5
v -7.1 7.4 8.4
v -7 7.4 8.4
v -6.7 7.4 8.4
v -6.5 7.4 8.4
v -6.7 8.1 8.6
v -6.6 8.1 8.6
v -6.7 8.1 8.5
v -6.6 8.1 8.5
v -6.7 8.2 8.7
v -6.6 8.2 8.7
v -6.8 8.2 8.6
v -6.7 8.2 8.6
v -6.6 8.2 8.6
v -6.5 8.2 8.6
v -6.8 8.2 8.5
v -6.7 8.2 8.5
v -6.6 8.2 8.5
v -6.5 8.2 8.5
v -6.7 8.2 8.4
v -6.6 8.2 8.4
v -7.1 8.3 8.9
v -7 8.3 8.9
v -7.1 8.3 8.8
v -7 8.3 8.8
v -7.1 8.4 9
v -7 8.4 9
v -7.2 8.4 8.9
v -7.1 8.4 8.9
v -7 8.4 8.9
v -6.9 8.4 8.9
v -7.2 8.4 8.8
v -7.1 8.4 8.8
v -7 8.4 8.8
v -6.9 8.4 8.8
v -7.1 8.4 8.7
v -7 8.4 8.7
v -7.1 8.8 8.5
v -7 8.8 8.5
v -7.1 8.8 8.4
v -7 8.8 8.4
v -7.1 8.9 8.6
v -7 8.9 8.6
v -7.2 8.9 8.5
v -7.1 8.9 8.5
v -7 8.9 8.5
v -6.9 8.9 8.5
v -7.2 8.9 8.4
v -7.1 8.9 8.4
v -7 8.9 8.4
v -6.9 8.9 8.4
v -7.1 8.9 8.3
v -7 8.9 8.3
v -7.2 5.3 9.2
v -4.9 5.3 9.2
v -7.4 5.3 9.1
v -7.2 5.3 9.1
v -6.9 5.3 9.1
v -6.8 5.3 9.1
v -5.3 5.3 9.1
v -5.2 5.3 9.1
v -4.9 5.3 9.1
v -4.7 5.3 9.1
v -7.4 5.3 9
v -6.9 5.3 9
v -5.2 5.3 9
v -4.9 5.3 9
v -4.7 5.3 9
v -7.4 5.3 8.9
v -6.9 5.3 8.9
v -5.2 5.3 8.9
v -4.9 5.3 8.9
v -4.7 5.3 8.9
v -7.4 5.3 8.8
v -6.9 5.3 8.8
v -5.2 5.3 8.8
v -4.7 5.3 8.8
v -7.4 5.3 8.7
v -6.9 5.3 8.7
v -5.2 5.3 8.7
v -4.7 5.3 8.7
v -7.4 5.3 8.6
v -6.9 5.3 8.6
v -5.2 5.3 8.6
v -4.7 5.3 8.6
v -7.4 5.3 8.5
v -6.9 5.3 8.5
v -5.2 5.3 8.5
v -4.9 5.3 8.5
v -4.7 5.3 8.5
v -7.4 5.3 8.4
v -6.9 5.3 8.4
v -6.3 5.3 8.4
v -6.2 5.3 8.4
v -5.9 5.3 8.4
v -5.8 5.3 8.4
v -5.2 5.3 8.4
v -4.9 5.3 8.4
v -4.7 5.3 8.4
v -7.4 5.3 8.3
v -6.9 5.3 8.3
v -6.8 5.3 8.3
v -6.6 5.3 8.3
v -6.3 5.3 8.3
v -5.8 5.3 8.3
v -5.5 5.3 8.3
v -5.3 5.3 8.3
v -5.2 5.3 8.3
v -4.7 5.3 8.3
v -7.4 5.3 8.2
v -6.9 5.3 8.2
v -6.6 5.3 8.2
v -5.5 5.3 8.2
v -5.2 5.3 8.2
v -4.7 5.3 8.2
v -7.4 5.3 8.1
v -6.9 5.3 8.1
v -6.6 5.3 8.1
v -6.3 5.3 8.1
v -6.2 5.3 8.1
v -5.9 5.3 8.1
v -5.8 5.3 8.1
v -5.5 5.3 8.1
v -5.2 5.3 8.1
v -4.7 5.3 8.1
v -7.4 5.3 8
v -6.9 5.3 8
v -6.6 5.3 8
v -6.3 5.3 8
v -6.2 5.3 8
v -5.9 5.3 8
v -5.8 5.3 8
v -5.5 5.3 8
v -5.2 5.3 8
v -4.7 5.3 8
v -7.4 5.3 7.9
v -7.2 5.3 7.9
v -6.9 5.3 7.9
v -6.6 5.3 7.9
v -5.5 5.3 7.9
v -5.2 5.3 7.9
v -4.9 5.3 7.9
v -4.7 5.3 7.9
v -7.2 5.3 7.8
v -6.9 5.3 7.8
v -6.8 5.3 7.8
v -6.6 5.3 7.8
v -5.5 5.3 7.8
v -5.3 5.3 7.8
v -5.2 5.3 7.8
v -4.9 5.3 7.8
v -6.9 5.5 9
v -6.8 5.5 9
v -5.3 5.5 9
v -5.2 5.5 9
v -6.9 5.5 8.4
v -6.8 5.5 8.4
v -6.7 5.5 8.4
v -6.4 5.5 8.4
v -5.7 5.5 8.4
v -5.4 5.5 8.4
v -5.3 5.5 8.4
v -5.2 5.5 8.4
v -6.7 5.5 8.3
v -6.4 5.5 8.3
v -5.7 5.5 8.3
v -5.4 5.5 8.3
v -6.5 5.6 9.1
v -5.6 5.6 9.1
v -6.5 5.6 9
v -5.6 5.6 9
v -5.2 5.9 9
v -4.7 5.9 9
v -5.2 5.9 8.9
v -4.7 5.9 8.9
v -5.2 5.9 8.8
v -4.7 5.9 8.8
v -5.2 5.9 8.7
v -4.7 5.9 8.7
v -5.2 5.9 8.6
v -4.7 5.9 8.6
v -5.2 5.9 8.5
v -4.7 5.9 8.5
v -5.2 5.9 8.4
v -4.7 5.9 8.4
v -6.3 5.9 8.3
v -6.2 5.9 8.3
v -5.9 5.9 8.3
v -5.8 5.9 8.3
v -6.2 5.9 8.1
v -5.9 5.9 8.1
v -6.3 5.9 8
v -5.8 5.9 8
v -6.2 6 8.3
v -5.9 6 8.3
v -6.2 6 8.1
v -5.9 6 8.1
v -7.4 6.2 9.2
v -7.2 6.2 9.2
v -6.2 6.2 9.2
v -6.1 6.2 9.2
v -6 6.2 9.2
v -5.9 6.2 9.2
v -4.9 6.2 9.2
v -4.7 6.2 9.2
v -7.5 6.2 9.1
v -7.4 6.2 9.1
v -7.2 6.2 9.1
v -6.2 6.2 9.1
v -6.1 6.2 9.1
v -6 6.2 9.1
v -5.9 6.2 9.1
v -4.9 6.2 9.1
v -4.7 6.2 9.1
v -4.6 6.2 9.1
v -7.5 6.2 8.3
v -7.4 6.2 8.3
v -7.2 6.2 8.3
v -6.6 6.2 8.3
v -6.5 6.2 8.3
v -6.2 6.2 8.3
v -6.1 6.2 8.3
v -6 6.2 8.3
v -5.9 6.2 8.3
v -5.6 6.2 8.3
v -5.5 6.2 8.3
v -4.9 6.2 8.3
v -4.7 6.2 8.3
v -4.6 6.2 8.3
v -7.4 6.2 8.2
v -7.2 6.2 8.2
v -6.6 6.2 8.2
v -6.5 6.2 8.2
v -6.2 6.2 8.2
v -6.1 6.2 8.2
v -6 6.2 8.2
v -5.9 6.2 8.2
v -5.6 6.2 8.2
v -5.5 6.2 8.2
v -4.9 6.2 8.2
v -4.7 6.2 8.2
v -7.2 6.4 9.2
v -7.1 6.4 9.2
v -5 6.4 9.2
v -4.9 6.4 9.2
v -7.4 6.4 9.1
v -7.2 6.4 9.1
v -7.1 6.4 9.1
v -5 6.4 9.1
v -4.9 6.4 9.1
v -4.7 6.4 9.1
v -7.4 6.4 8.3
v -7.2 6.4 8.3
v -7.1 6.4 8.3
v -5 6.4 8.3
v -4.9 6.4 8.3
v -4.7 6.4 8.3
v -7.2 6.4 8.2
v -7.1 6.4 8.2
v -5 6.4 8.2
v -4.9 6.4 8.2
v -7.1 6.5 9.2
v -6.9 6.5 9.2
v -5.2 6.5 9.2
v -5 6.5 9.2
v -7.2 6.5 9.1
v -7.1 6.5 9.1
v -6.9 6.5 9.1
v -5.2 6.5 9.1
v -5 6.5 9.1
v -4.9 6.5 9.1
v -7.2 6.5 8.3
v -7.1 6.5 8.3
v -6.9 6.5 8.3
v -5.2 6.5 8.3
v -5 6.5 8.3
v -4.9 6.5 8.3
v -7.1 6.5 8.2
v -6.9 6.5 8.2
v -5.2 6.5 8.2
v -5 6.5 8.2
v -6.2 6.6 8.3
v -6.1 6.6 8.3
v -6 6.6 8.3
v -5.9 6.6 8.3
v -6.2 6.6 8.2
v -6.1 6.6 8.2
v -6 6.6 8.2
v -5.9 6.6 8.2
v -6.9 6.7 9.2
v -6.8 6.7 9.2
v -5.3 6.7 9.2
v -5.2 6.7 9.2
v -7.1 6.7 9.1
v -6.9 6.7 9.1
v -6.8 6.7 9.1
v -5.3 6.7 9.1
v -5.2 6.7 9.1
v -5 6.7 9.1
v -7 6.7 8.9
v -6.9 6.7 8.9
v -7 6.7 8.8
v -6.9 6.7 8.8
v -6.8 6.7 8.8
v -6.9 6.7 8.6
v -6.8 6.7 8.6
v -7 6.7 8.5
v -6.9 6.7 8.5
v -7.1 6.7 8.3
v -6.9 6.7 8.3
v -6.8 6.7 8.3
v -5.3 6.7 8.3
v -5.2 6.7 8.3
v -5 6.7 8.3
v -6.9 6.7 8.2
v -6.8 6.7 8.2
v -5.3 6.7 8.2
v -5.2 6.7 8.2
v -6.8 6.8 9.2
v -6.6 6.8 9.2
v -6.2 6.8 9.2
v -6.1 6.8 9.2
v -6 6.8 9.2
v -5.9 6.8 9.2
v -5.5 6.8 9.2
v -5.3 6.8 9.2
v -6.9 6.8 9.1
v -6.8 6.8 9.1
v -6.6 6.8 9.1
v -6.2 6.8 9.1
v -6.1 6.8 9.1
v -6 6.8 9.1
v -5.9 6.8 9.1
v -5.5 6.8 9.1
v -5.3 6.8 9.1
v -5.2 6.8 9.1
v -6.9 6.8 8.9
v -6.8 6.8 8.9
v -6.8 6.8 8.8
v -6.7 6.8 8.8
v -6.8 6.8 8.6
v -6.7 6.8 8.6
v -6.9 6.8 8.5
v -6.8 6.8 8.5
v -6.9 6.8 8.3
v -6.8 6.8 8.3
v -6.6 6.8 8.3
v -5.5 6.8 8.3
v -5.3 6.8 8.3
v -5.2 6.8 8.3
v -6.8 6.8 8.2
v -6.6 6.8 8.2
v -5.5 6.8 8.2
v -5.3 6.8 8.2
v -6.6 7 9.2
v -6.5 7 9.2
v -5.6 7 9.2
v -5.5 7 9.2
v -6.8 7 9.1
v -6.6 7 9.1
v -6.5 7 9.1
v -5.6 7 9.1
v -5.5 7 9.1
v -5.3 7 9.1
v -6.8 7 8.9
v -6.6 7 8.9
v -6.8 7 8.5
v -6.6 7 8.5
v -6.8 7 8.3
v -6.6 7 8.3
v -6.5 7 8.3
v -5.6 7 8.3
v -5.5 7 8.3
v -5.3 7 8.3
v -6.6 7 8.2
v -6.5 7 8.2
v -5.6 7 8.2
v -5.5 7 8.2
v -6.5 7.1 9.2
v -6.3 7.1 9.2
v -5.8 7.1 9.2
v -5.6 7.1 9.2
v -6.6 7.1 9.1
v -6.5 7.1 9.1
v -6.3 7.1 9.1
v -5.8 7.1 9.1
v -5.6 7.1 9.1
v -5.5 7.1 9.1
v -6.6 7.1 8.9
v -6.6 7.1 8.7
v -6.6 7.1 8.6
v -6.6 7.1 8.5
v -6.6 7.1 8.3
v -6.5 7.1 8.3
v -6.3 7.1 8.3
v -5.8 7.1 8.3
v -5.6 7.1 8.3
v -5.5 7.1 8.3
v -6.5 7.1 8.2
v -6.3 7.1 8.2
v -5.8 7.1 8.2
v -5.6 7.1 8.2
v -6.5 7.3 9.1
v -6.3 7.3 9.1
v -5.8 7.3 9.1
v -5.6 7.3 9.1
v -6.5 7.3 8.3
v -6.3 7.3 8.3
v -6.2 7.3 8.3
v -5.9 7.3 8.3
v -5.8 7.3 8.3
v -5.6 7.3 8.3
v -6.3 7.3 8.2
v -6.2 7.3 8.2
v -5.9 7.3 8.2
v -5.8 7.3 8.2
v -6.3 7.4 9.2
v -5.8 7.4 9.2
v -6.3 7.4 9.1
v -6.2 7.4 9.1
v -5.9 7.4 9.1
v -5.8 7.4 9.1
v -6.9 7.4 8.8
v -6.7 7.4 8.8
v -6.9 7.4 8.6
v -6.7 7.4 8.6
v -6.3 7.4 8.3
v -6.2 7.4 8.3
v -5.9 7.4 8.3
v -5.8 7.4 8.3
v -6.2 7.4 8.2
v -5.9 7.4 8.2
v -7 7.5 8.9
v -6.7 7.5 8.9
v -6.6 7.5 8.9
v -7 7.5 8.8
v -6.9 7.5 8.8
v -6.7 7.5 8.8
v -7 7.5 8.7
v -6.9 7.5 8.6
v -6.7 7.5 8.6
v -7 7.5 8.5
v -6.7 7.5 8.5
v -6.6 7.5 8.5
v -6.2 7.6 9.1
v -5.9 7.6 9.1
v -6.2 7.6 8.3
v -5.9 7.6 8.3
v -7.1 7.8 9
v -7 7.8 9
v -6.6 7.8 9
v -6.5 7.8 9
v -7.1 7.8 8.9
v -7 7.8 8.9
v -6.6 7.8 8.9
v -6.6 7.8 8.8
v -6.5 7.8 8.8
v -7 7.8 8.5
v -6.6 7.8 8.5
v -6.5 7.8 8.5
v -7.1 7.8 8.4
v -6.6 7.8 8.4
v -6.5 7.8 8.4
v -6.7 8.3 8.7
v -6.6 8.3 8.7
v -6.8 8.3 8.6
v -6.7 8.3 8.6
v -6.6 8.3 8.6
v -6.5 8.3 8.6
v -6.8 8.3 8.5
v -6.7 8.3 8.5
v -6.6 8.3 8.5
v -6.5 8.3 8.5
v -6.7 8.3 8.4
v -6.6 8.3 8.4
v -6.7 8.4 8.6
v -6.6 8.4 8.6
v -6.7 8.4 8.5
v -6.6 8.4 8.5
v -7.1 8.5 9
v -7 8.5 9
v -7.2 8.5 8.9
v -7.1 8.5 8.9
v -7 8.5 8.9
v -6.9 8.5 8.9
v -7.2 8.5 8.8
v -7.1 8.5 8.8
v -7 8.5 8.8
v -6.9 8.5 8.8
v -7.1 8.5 8.7
v -7 8.5 8.7
v -7.1 8.6 8.9
v -7 8.6 8.9
v -7.1 8.6 8.8
v -7 8.6 8.8
v -7.1 9 8.6
v -7 9 8.6
v -7.2 9 8.5
v -7.1 9 8.5
v -7 9 8.5
v -6.9 9 8.5
v -7.2 9 8.4
v -7.1 9 8.4
v -7 9 8.4
v -6.9 9 8.4
v -7.1 9 8.3
v -7 9 8.3
v -7.1 9.1 8.5
v -7 9.1 8.5
v -7.1 9.1 8.4
v -7 9.1 8.4

# faces
f 3/3/1 2/3/1 1/3/1
f 4/3/1 2/3/1 3/3/1
f 18/4/1 6/4/1 5/4/1
f 19/5/1 7/5/1 6/5/1
f 19/4/1 6/4/1 18/4/1
f 20/4/1 8/4/1 7/4/1
f 20/5/1 7/5/1 19/5/1
f 21/5/1 9/5/1 8/5/1
f 21/4/1 8/4/1 20/4/1
f 22/4/1 10/4/1 9/4/1
f 22/5/1 9/5/1 21/5/1
f 23/5/1 11/5/1 10/5/1
f 23/4/1 10/4/1 22/4/1
f 24/4/1 12/4/1 11/4/1
f 24/5/1 11/5/1 23/5/1
f 25/5/1 13/5/1 12/5/1
f 25/4/1 12/4/1 24/4/1
f 26/4/1 14/4/1 13/4/1
f 26/5/1 13/5/1 25/5/1
f 27/5/1 15/5/1 14/5/1
f 27/4/1 14/4/1 26/4/1
f 28/4/1 16/4/1 15/4/1
f 28/5/1 15/5/1 27/5/1
f 29/5/1 17/5/1 16/5/1
f 29/4/1 16/4/1 28/4/1
f 30/5/1 17/5/1 29/5/1
f 35/3/1 32/3/1 31/3/1
f 36/3/1 32/3/1 35/3/1
f 37/3/1 34/3/1 33/3/1
f 38/3/1 34/3/1 37/3/1
f 39/3/1 37/3/1 36/3/1
f 40/3/1 37/3/1 39/3/1
f 45/5/1 42/5/1 41/5/1
f 46/5/1 42/5/1 45/5/1
f 47/4/1 44/4/1 43/4/1
f 48/4/1 44/4/1 47/4/1
f 53/3/1 50/3/1 49/3/1
f 54/3/1 50/3/1 53/3/1
f 55/3/1 52/3/1 51/3/1
f 56/3/1 52/3/1 55/3/1
f 57/3/1 55/3/1 54/3/1
f 58/3/1 55/3/1 57/3/1
f 61/13/1 60/13/1 59/13/1
f 62/13/1 60/13/1 61/13/1
f 65/13/1 64/13/1 63/13/1
f 66/13/1 64/13/1 65/13/1
f 71/3/1 68/3/1 67/3/1
f 72/3/1 68/3/1 71/3/1
f 73/3/1 70/3/1 69/3/1
f 74/3/1 70/3/1 73/3/1
f 75/3/1 73/3/1 72/3/1
f 76/3/1 73/3/1 75/3/1
f 82/16/1 78/16/1 77/16/1
f 82/17/1 79/17/1 78/17/1
f 83/17/1 79/17/1 82/17/1
f 84/17/1 79/17/1 83/17/1
f 85/16/1 80/16/1 79/16/1
f 85/17/1 79/17/1 84/17/1
f 86/16/1 82/16/1 77/16/1
f 86/16/1 83/16/1 82/16/1
f 87/16/1 83/16/1 86/16/1
f 88/17/1 84/17/1 83/17/1
f 88/16/1 83/16/1 87/16/1
f 89/16/1 85/16/1 84/16/1
f 89/17/1 84/17/1 88/17/1
f 90/14/1 81/14/1 80/14/1
f 90/16/1 85/16/1 89/16/1
f 90/16/1 80/16/1 85/16/1
f 91/14/1 81/14/1 90/14/1
f 92/14/1 87/14/1 86/14/1
f 93/16/1 89/16/1 88/16/1
f 93/14/1 87/14/1 92/14/1
f 93/16/1 88/16/1 87/16/1
f 93/16/1 91/16/1 90/16/1
f 93/16/1 90/16/1 89/16/1
f 94/16/1 91/16/1 93/16/1
f 98/13/1 96/13/1 95/13/1
f 99/13/1 96/13/1 98/13/1
f 101/13/1 98/13/1 97/13/1
f 102/13/1 98/13/1 101/13/1
f 103/13/1 100/13/1 99/13/1
f 104/13/1 100/13/1 103/13/1
f 105/13/1 103/13/1 102/13/1
f 106/13/1 103/13/1 105/13/1
f 110/13/1 108/13/1 107/13/1
f 111/13/1 108/13/1 110/13/1
f 113/13/1 110/13/1 109/13/1
f 114/13/1 110/13/1 113/13/1
f 115/13/1 112/13/1 111/13/1
f 116/13/1 112/13/1 115/13/1
f 117/13/1 115/13/1 114/13/1
f 118/13/1 115/13/1 117/13/1
f 122/14/1 120/14/1 119/14/1
f 123/16/1 121/16/1 120/16/1
f 123/14/1 120/14/1 122/14/1
f 124/16/1 121/16/1 123/16/1
f 125/16/1 121/16/1 124/16/1
f 126/16/1 123/16/1 122/16/1
f 126/16/1 124/16/1 123/16/1
f 127/17/1 125/17/1 124/17/1
f 127/16/1 124/16/1 126/16/1
f 128/17/1 125/17/1 127/17/1
f 129/16/1 126/16/1 122/16/1
f 130/17/1 127/17/1 126/17/1
f 130/16/1 126/16/1 129/16/1
f 131/17/1 130/17/1 129/17/1
f 132/16/1 128/16/1 127/16/1
f 132/17/1 130/17/1 131/17/1
f 132/17/1 127/17/1 130/17/1
f 133/16/1 128/16/1 132/16/1
f 143/6/1 135/6/1 134/6/1
f 143/7/1 136/7/1 135/7/1
f 143/7/1 141/7/1 140/7/1
f 143/7/1 140/7/1 139/7/1
f 143/7/1 139/7/1 138/7/1
f 143/7/1 138/7/1 137/7/1
f 143/7/1 137/7/1 136/7/1
f 144/6/1 142/6/1 141/6/1
f 144/7/1 141/7/1 143/7/1
f 145/6/1 143/6/1 134/6/1
f 145/5/1 144/5/1 143/5/1
f 146/6/1 142/6/1 144/6/1
f 146/5/1 144/5/1 145/5/1
f 147/6/1 145/6/1 134/6/1
f 148/6/1 142/6/1 146/6/1
f 149/6/1 147/6/1 134/6/1
f 149/5/1 148/5/1 147/5/1
f 150/6/1 142/6/1 148/6/1
f 150/5/1 148/5/1 149/5/1
f 151/6/1 149/6/1 134/6/1
f 152/7/1 150/7/1 149/7/1
f 152/6/1 149/6/1 151/6/1
f 153/6/1 142/6/1 150/6/1
f 153/7/1 150/7/1 152/7/1
f 154/6/1 142/6/1 153/6/1
f 159/3/1 156/3/1 155/3/1
f 160/3/1 156/3/1 159/3/1
f 163/3/1 158/3/1 157/3/1
f 164/3/1 158/3/1 163/3/1
f 165/3/1 161/3/1 160/3/1
f 166/3/1 161/3/1 165/3/1
f 167/3/1 163/3/1 162/3/1
f 168/3/1 163/3/1 167/3/1
f 171/12/1 170/12/1 169/12/1
f 172/12/1 170/12/1 171/12/1
f 179/3/1 174/3/1 173/3/1
f 180/3/1 174/3/1 179/3/1
f 182/15/1 176/15/1 175/15/1
f 183/15/1 176/15/1 182/15/1
f 185/3/1 178/3/1 177/3/1
f 186/3/1 178/3/1 185/3/1
f 187/3/1 181/3/1 180/3/1
f 188/3/1 181/3/1 187/3/1
f 189/3/1 185/3/1 184/3/1
f 190/3/1 185/3/1 189/3/1
f 193/14/1 192/14/1 191/14/1
f 194/14/1 192/14/1 193/14/1
f 197/13/1 196/13/1 195/13/1
f 198/13/1 196/13/1 197/13/1
f 201/16/1 200/16/1 199/16/1
f 202/16/1 200/16/1 201/16/1
f 203/16/1 201/16/1 199/16/1
f 203/14/1 202/14/1 201/14/1
f 204/14/1 202/14/1 203/14/1
f 205/16/1 203/16/1 199/16/1
f 206/17/1 204/17/1 203/17/1
f 206/16/1 203/16/1 205/16/1
f 207/17/1 204/17/1 206/17/1
f 208/17/1 204/17/1 207/17/1
f 211/19/1 210/19/1 209/19/1
f 212/19/1 210/19/1 211/19/1
f 216/13/1 214/13/1 213/13/1
f 217/13/1 214/13/1 216/13/1
f 219/13/1 216/13/1 215/13/1
f 220/13/1 216/13/1 219/13/1
f 221/13/1 218/13/1 217/13/1
f 222/13/1 218/13/1 221/13/1
f 223/13/1 221/13/1 220/13/1
f 224/13/1 221/13/1 223/13/1
f 229/3/1 226/3/1 225/3/1
f 230/3/1 226/3/1 229/3/1
f 233/3/1 228/3/1 227/3/1
f 234/3/1 228/3/1 233/3/1
f 235/3/1 231/3/1 230/3/1
f 236/3/1 231/3/1 235/3/1
f 237/3/1 233/3/1 232/3/1
f 238/3/1 233/3/1 237/3/1
f 241/16/1 240/16/1 239/16/1
f 242/16/1 240/16/1 241/16/1
f 243/16/1 240/16/1 242/16/1
f 244/17/1 242/17/1 241/17/1
f 245/17/1 242/17/1 244/17/1
f 246/16/1 243/16/1 242/16/1
f 246/17/1 242/17/1 245/17/1
f 247/16/1 243/16/1 246/16/1
f 250/2/1 249/2/1 248/2/1
f 251/2/1 249/2/1 250/2/1
f 256/3/1 253/3/1 252/3/1
f 257/3/1 253/3/1 256/3/1
f 258/3/1 255/3/1 254/3/1
f 259/3/1 255/3/1 258/3/1
f 260/3/1 258/3/1 257/3/1
f 261/3/1 258/3/1 260/3/1
f 264/5/1 263/5/1 262/5/1
f 265/5/1 263/5/1 264/5/1
f 269/8/1 267/8/1 266/8/1
f 270/8/1 267/8/1 269/8/1
f 271/3/1 269/3/1 268/3/1
f 271/3/1 270/3/1 269/3/1
f 272/3/1 270/3/1 271/3/1
f 277/2/1 274/2/1 273/2/1
f 278/3/1 276/3/1 275/3/1
f 279/3/1 276/3/1 278/3/1
f 280/2/1 277/2/1 273/2/1
f 281/3/1 278/3/1 277/3/1
f 281/2/1 277/2/1 280/2/1
f 282/3/1 278/3/1 281/3/1
f 285/3/1 284/3/1 283/3/1
f 286/3/1 284/3/1 285/3/1
f 290/3/1 288/3/1 287/3/1
f 291/3/1 288/3/1 290/3/1
f 292/3/1 290/3/1 289/3/1
f 293/3/1 290/3/1 292/3/1
f 298/3/1 297/3/1 296/3/1
f 299/3/1 297/3/1 298/3/1
f 302/3/1 295/3/1 294/3/1
f 303/3/1 295/3/1 302/3/1
f 306/3/1 301/3/1 300/3/1
f 307/3/1 301/3/1 306/3/1
f 308/3/1 305/3/1 304/3/1
f 309/3/1 305/3/1 308/3/1
f 312/8/1 311/8/1 310/8/1
f 313/8/1 311/8/1 312/8/1
f 318/2/1 317/2/1 316/2/1
f 319/2/1 317/2/1 318/2/1
f 322/2/1 315/2/1 314/2/1
f 323/2/1 315/2/1 322/2/1
f 326/2/1 321/2/1 320/2/1
f 327/2/1 321/2/1 326/2/1
f 328/2/1 325/2/1 324/2/1
f 329/2/1 325/2/1 328/2/1
f 332/7/1 331/7/1 330/7/1
f 333/7/1 331/7/1 332/7/1
f 334/5/1 333/5/1 332/5/1
f 335/5/1 333/5/1 334/5/1
f 338/5/1 337/5/1 336/5/1
f 339/5/1 337/5/1 338/5/1
f 342/2/1 341/2/1 340/2/1
f 343/2/1 341/2/1 342/2/1
f 346/5/1 345/5/1 344/5/1
f 347/5/1 345/5/1 346/5/1
f 352/8/1 349/8/1 348/8/1
f 353/8/1 349/8/1 352/8/1
f 354/8/1 351/8/1 350/8/1
f 355/8/1 351/8/1 354/8/1
f 356/16/2 357/16/2 360/16/2
f 357/17/2 358/17/2 360/17/2
f 358/16/2 359/16/2 361/16/2
f 360/17/2 358/17/2 361/17/2
f 356/16/2 360/16/2 362/16/2
f 360/16/2 361/16/2 362/16/2
f 361/16/2 359/16/2 363/16/2
f 362/16/2 361/16/2 363/16/2
f 364/13/2 365/13/2 367/13/2
f 367/13/2 365/13/2 368/13/2
f 366/13/2 367/13/2 370/13/2
f 370/13/2 367/13/2 371/13/2
f 368/13/2 369/13/2 372/13/2
f 372/13/2 369/13/2 373/13/2
f 371/13/2 372/13/2 374/13/2
f 374/13/2 372/13/2 375/13/2
f 376/13/2 377/13/2 379/13/2
f 379/13/2 377/13/2 380/13/2
f 378/13/2 379/13/2 382/13/2
f 382/13/2 379/13/2 383/13/2
f 380/13/2 381/13/2 384/13/2
f 384/13/2 381/13/2 385/13/2
f 383/13/2 384/13/2 386/13/2
f 386/13/2 384/13/2 387/13/2
f 388/16/2 389/16/2 390/16/2
f 388/16/2 390/16/2 391/16/2
f 391/16/2 390/16/2 392/16/2
f 391/17/2 392/17/2 393/17/2
f 393/17/2 392/17/2 394/17/2
f 395/19/2 396/19/2 397/19/2
f 397/19/2 396/19/2 398/19/2
f 399/13/2 400/13/2 401/13/2
f 401/13/2 400/13/2 402/13/2
f 403/13/2 404/13/2 405/13/2
f 405/13/2 404/13/2 406/13/2
f 407/5/2 408/5/2 409/5/2
f 409/5/2 408/5/2 410/5/2
f 411/2/2 412/2/2 413/2/2
f 413/2/2 412/2/2 414/2/2
f 415/16/2 416/16/2 419/16/2
f 416/17/2 417/17/2 420/17/2
f 419/16/2 416/16/2 420/16/2
f 419/17/2 420/17/2 421/17/2
f 417/16/2 418/16/2 422/16/2
f 421/17/2 420/17/2 422/17/2
f 420/17/2 417/17/2 422/17/2
f 421/16/2 422/16/2 423/16/2
f 422/16/2 418/16/2 424/16/2
f 423/16/2 422/16/2 424/16/2
f 425/13/2 426/13/2 428/13/2
f 428/13/2 426/13/2 429/13/2
f 427/13/2 428/13/2 431/13/2
f 431/13/2 428/13/2 432/13/2
f 429/13/2 430/13/2 433/13/2
f 433/13/2 430/13/2 434/13/2
f 432/13/2 433/13/2 435/13/2
f 435/13/2 433/13/2 436/13/2
f 437/5/2 438/5/2 439/5/2
f 439/5/2 438/5/2 440/5/2
f 441/16/2 442/16/2 444/16/2
f 444/16/2 442/16/2 445/16/2
f 444/17/2 445/17/2 446/17/2
f 445/16/2 442/16/2 446/16/2
f 446/16/2 442/16/2 447/16/2
f 442/17/2 443/17/2 448/17/2
f 447/16/2 442/16/2 448/16/2
f 448/17/2 443/17/2 449/17/2
f 446/17/2 447/17/2 450/17/2
f 444/17/2 446/17/2 450/17/2
f 447/16/2 448/16/2 451/16/2
f 450/17/2 447/17/2 451/17/2
f 448/14/2 449/14/2 452/14/2
f 451/16/2 448/16/2 452/16/2
f 452/14/2 449/14/2 453/14/2
f 454/13/2 455/13/2 456/13/2
f 456/13/2 455/13/2 457/13/2
f 458/7/2 459/7/2 460/7/2
f 460/7/2 459/7/2 461/7/2
f 460/5/2 461/5/2 462/5/2
f 462/5/2 461/5/2 463/5/2
f 464/8/2 465/8/2 466/8/2
f 466/8/2 465/8/2 467/8/2
f 470/2/2 471/2/2 472/2/2
f 472/2/2 471/2/2 473/2/2
f 468/2/2 469/2/2 476/2/2
f 476/2/2 469/2/2 477/2/2
f 474/2/2 475/2/2 480/2/2
f 480/2/2 475/2/2 481/2/2
f 478/2/2 479/2/2 482/2/2
f 482/2/2 479/2/2 483/2/2
f 486/3/2 487/3/2 488/3/2
f 488/3/2 487/3/2 489/3/2
f 484/3/2 485/3/2 492/3/2
f 492/3/2 485/3/2 493/3/2
f 490/3/2 491/3/2 496/3/2
f 496/3/2 491/3/2 497/3/2
f 494/3/2 495/3/2 498/3/2
f 498/3/2 495/3/2 499/3/2
f 500/3/2 501/3/2 502/3/2
f 502/3/2 501/3/2 503/3/2
f 504/3/2 505/3/2 507/3/2
f 507/3/2 505/3/2 508/3/2
f 506/3/2 507/3/2 509/3/2
f 509/3/2 507/3/2 510/3/2
f 511/8/2 512/8/2 514/8/2
f 514/8/2 512/8/2 515/8/2
f 513/3/2 514/3/2 516/3/2
f 514/3/2 515/3/2 516/3/2
f 516/3/2 515/3/2 517/3/2
f 518/2/2 519/2/2 522/2/2
f 520/3/2 521/3/2 523/3/2
f 523/3/2 521/3/2 524/3/2
f 518/2/2 522/2/2 525/2/2
f 522/3/2 523/3/2 526/3/2
f 525/2/2 522/2/2 526/2/2
f 526/3/2 523/3/2 527/3/2
f 528/5/2 529/5/2 530/5/2
f 530/5/2 529/5/2 531/5/2
f 532/2/2 533/2/2 534/2/2
f 534/2/2 533/2/2 535/2/2
f 536/3/2 537/3/2 540/3/2
f 540/3/2 537/3/2 541/3/2
f 538/3/2 539/3/2 542/3/2
f 542/3/2 539/3/2 543/3/2
f 541/3/2 542/3/2 544/3/2
f 544/3/2 542/3/2 545/3/2
f 546/3/2 547/3/2 550/3/2
f 550/3/2 547/3/2 551/3/2
f 548/3/2 549/3/2 552/3/2
f 552/3/2 549/3/2 553/3/2
f 551/3/2 552/3/2 554/3/2
f 554/3/2 552/3/2 555/3/2
f 556/12/2 557/12/2 558/12/2
f 558/12/2 557/12/2 559/12/2
f 560/3/2 561/3/2 564/3/2
f 564/3/2 561/3/2 565/3/2
f 562/3/2 563/3/2 566/3/2
f 566/3/2 563/3/2 567/3/2
f 565/3/2 566/3/2 568/3/2
f 568/3/2 566/3/2 569/3/2
f 570/6/2 571/6/2 579/6/2
f 571/7/2 572/7/2 579/7/2
f 576/7/2 577/7/2 579/7/2
f 575/7/2 576/7/2 579/7/2
f 574/7/2 575/7/2 579/7/2
f 573/7/2 574/7/2 579/7/2
f 572/7/2 573/7/2 579/7/2
f 577/6/2 578/6/2 580/6/2
f 579/7/2 577/7/2 580/7/2
f 570/6/2 579/6/2 581/6/2
f 579/5/2 580/5/2 581/5/2
f 580/6/2 578/6/2 582/6/2
f 581/5/2 580/5/2 582/5/2
f 570/6/2 581/6/2 583/6/2
f 582/6/2 578/6/2 584/6/2
f 570/6/2 583/6/2 585/6/2
f 584/6/2 578/6/2 591/6/2
f 570/6/2 585/6/2 592/6/2
f 589/7/2 590/7/2 593/7/2
f 592/6/2 585/6/2 593/6/2
f 590/7/2 591/7/2 593/7/2
f 585/7/2 586/7/2 593/7/2
f 586/7/2 587/7/2 593/7/2
f 588/7/2 589/7/2 593/7/2
f 587/7/2 588/7/2 593/7/2
f 591/6/2 578/6/2 594/6/2
f 593/7/2 591/7/2 594/7/2
f 594/6/2 578/6/2 595/6/2
f 596/3/2 597/3/2 600/3/2
f 600/3/2 597/3/2 601/3/2
f 598/3/2 599/3/2 602/3/2
f 602/3/2 599/3/2 603/3/2
f 601/3/2 602/3/2 604/3/2
f 604/3/2 602/3/2 605/3/2
f 606/3/2 607/3/2 610/3/2
f 610/3/2 607/3/2 611/3/2
f 608/3/2 609/3/2 612/3/2
f 612/3/2 609/3/2 613/3/2
f 611/3/2 612/3/2 614/3/2
f 614/3/2 612/3/2 615/3/2
f 616/5/2 617/5/2 620/5/2
f 620/5/2 617/5/2 621/5/2
f 618/4/2 619/4/2 622/4/2
f 622/4/2 619/4/2 623/4/2
f 624/3/2 625/3/2 628/3/2
f 628/3/2 625/3/2 629/3/2
f 626/3/2 627/3/2 630/3/2
f 630/3/2 627/3/2 631/3/2
f 629/3/2 630/3/2 632/3/2
f 632/3/2 630/3/2 633/3/2
f 634/4/2 635/4/2 647/4/2
f 635/5/2 636/5/2 648/5/2
f 647/4/2 635/4/2 648/4/2
f 636/4/2 637/4/2 649/4/2
f 648/5/2 636/5/2 649/5/2
f 637/5/2 638/5/2 650/5/2
f 649/4/2 637/4/2 650/4/2
f 638/4/2 639/4/2 651/4/2
f 650/5/2 638/5/2 651/5/2
f 639/5/2 640/5/2 652/5/2
f 651/4/2 639/4/2 652/4/2
f 640/4/2 641/4/2 653/4/2
f 652/5/2 640/5/2 653/5/2
f 641/5/2 642/5/2 654/5/2
f 653/4/2 641/4/2 654/4/2
f 642/4/2 643/4/2 655/4/2
f 654/5/2 642/5/2 655/5/2
f 643/5/2 644/5/2 656/5/2
f 655/4/2 643/4/2 656/4/2
f 644/4/2 645/4/2 657/4/2
f 656/5/2 644/5/2 657/5/2
f 645/5/2 646/5/2 658/5/2
f 657/4/2 645/4/2 658/4/2
f 658/5/2 646/5/2 659/5/2
f 648/8/2 649/8/2 660/8/2
f 660/8/2 649/8/2 661/8/2
f 653/8/2 654/8/2 665/8/2
f 665/8/2 654/8/2 666/8/2
f 660/5/2 661/5/2 667/5/2
f 661/4/2 662/4/2 668/4/2
f 667/5/2 661/5/2 668/5/2
f 662/5/2 663/5/2 669/5/2
f 668/4/2 662/4/2 669/4/2
f 663/4/2 664/4/2 670/4/2
f 669/5/2 663/5/2 670/5/2
f 664/5/2 665/5/2 671/5/2
f 670/4/2 664/4/2 671/4/2
f 665/4/2 666/4/2 672/4/2
f 671/5/2 665/5/2 672/5/2
f 672/4/2 666/4/2 673/4/2
f 674/3/2 675/3/2 678/3/2
f 678/3/2 675/3/2 679/3/2
f 676/3/2 677/3/2 680/3/2
f 680/3/2 677/3/2 681/3/2
f 679/3/2 680/3/2 682/3/2
f 682/3/2 680/3/2 683/3/2
f 684/3/2 685/3/2 686/3/2
f 686/3/2 685/3/2 687/3/2
f 692/3/3 689/3/3 688/3/3
f 694/3/3 693/3/3 692/3/3
f 696/3/3 692/3/3 688/3/3
f 696/3/3 695/3/3 694/3/3
f 696/3/3 694/3/3 692/3/3
f 697/3/3 695/3/3 696/3/3
f 699/3/3 696/3/3 688/3/3
f 699/2/3 697/2/3 696/2/3
f 700/3/3 698/3/3 697/3/3
f 700/2/3 697/2/3 699/2/3
f 701/3/3 698/3/3 700/3/3
f 703/3/3 699/3/3 688/3/3
f 703/3/3 702/3/3 701/3/3
f 703/3/3 701/3/3 700/3/3
f 703/3/3 700/3/3 699/3/3
f 704/3/3 702/3/3 703/3/3
f 706/3/3 703/3/3 688/3/3
f 706/2/3 704/2/3 703/2/3
f 707/3/3 705/3/3 704/3/3
f 707/2/3 704/2/3 706/2/3
f 708/3/3 705/3/3 707/3/3
f 710/3/3 706/3/3 688/3/3
f 710/3/3 709/3/3 708/3/3
f 710/3/3 708/3/3 707/3/3
f 710/3/3 707/3/3 706/3/3
f 711/3/3 709/3/3 710/3/3
f 713/3/3 710/3/3 688/3/3
f 713/2/3 712/2/3 711/2/3
f 713/2/3 711/2/3 710/2/3
f 714/2/3 712/2/3 713/2/3
f 715/2/3 712/2/3 714/2/3
f 716/2/3 712/2/3 715/2/3
f 717/3/3 713/3/3 688/3/3
f 718/3/3 715/3/3 714/3/3
f 719/3/3 715/3/3 718/3/3
f 720/2/3 712/2/3 716/2/3
f 721/3/3 719/3/3 718/3/3
f 721/3/3 720/3/3 719/3/3
f 721/3/3 717/3/3 688/3/3
f 721/3/3 718/3/3 717/3/3
f 722/3/3 720/3/3 721/3/3
f 723/3/3 720/3/3 722/3/3
f 724/2/3 712/2/3 720/2/3
f 724/3/3 720/3/3 723/3/3
f 725/3/3 721/3/3 688/3/3
f 726/3/3 723/3/3 722/3/3
f 727/3/3 723/3/3 726/3/3
f 728/2/3 712/2/3 724/2/3
f 729/3/3 725/3/3 688/3/3
f 729/2/3 728/2/3 727/2/3
f 729/2/3 727/2/3 726/2/3
f 729/2/3 726/2/3 725/2/3
f 730/2/3 728/2/3 729/2/3
f 731/2/3 712/2/3 728/2/3
f 731/2/3 728/2/3 730/2/3
f 732/3/3 730/3/3 729/3/3
f 732/3/3 729/3/3 688/3/3
f 733/3/3 730/3/3 732/3/3
f 734/3/3 730/3/3 733/3/3
f 735/3/3 730/3/3 734/3/3
f 736/3/3 732/3/3 688/3/3
f 736/2/3 733/2/3 732/2/3
f 737/3/3 734/3/3 733/3/3
f 737/2/3 733/2/3 736/2/3
f 738/3/3 734/3/3 737/3/3
f 739/3/3 736/3/3 688/3/3
f 739/3/3 737/3/3 736/3/3
f 740/3/3 737/3/3 739/3/3
f 741/3/3 737/3/3 740/3/3
f 742/3/3 737/3/3 741/3/3
f 743/3/3 739/3/3 688/3/3
f 743/2/3 740/2/3 739/2/3
f 744/3/3 741/3/3 740/3/3
f 744/2/3 740/2/3 743/2/3
f 745/3/3 741/3/3 744/3/3
f 746/3/3 744/3/3 743/3/3
f 747/3/3 744/3/3 746/3/3
f 748/5/3 691/5/3 690/5/3
f 749/5/3 691/5/3 748/5/3
f 750/3/3 743/3/3 688/3/3
f 750/3/3 746/3/3 743/3/3
f 751/3/3 746/3/3 750/3/3
f 752/3/3 750/3/3 688/3/3
f 753/3/3 750/3/3 752/3/3
f 758/3/3 755/3/3 754/3/3
f 759/3/3 755/3/3 758/3/3
f 761/4/3 757/4/3 756/4/3
f 762/4/3 757/4/3 761/4/3
f 763/3/3 760/3/3 759/3/3
f 764/3/3 760/3/3 763/3/3
f 766/3/3 765/3/3 764/3/3
f 767/3/3 765/3/3 766/3/3
f 771/3/3 768/3/3 767/3/3
f 772/3/3 768/3/3 771/3/3
f 774/6/3 770/6/3 769/6/3
f 775/6/3 770/6/3 774/6/3
f 776/3/3 773/3/3 772/3/3
f 777/3/3 773/3/3 776/3/3
f 779/7/3 775/7/3 774/7/3
f 780/7/3 775/7/3 779/7/3
f 781/3/3 778/3/3 777/3/3
f 782/3/3 778/3/3 781/3/3
f 784/5/3 780/5/3 779/5/3
f 785/5/3 780/5/3 784/5/3
f 786/3/3 783/3/3 782/3/3
f 787/3/3 783/3/3 786/3/3
f 789/3/3 788/3/3 787/3/3
f 790/3/3 788/3/3 789/3/3
f 797/12/3 792/12/3 791/12/3
f 798/12/3 792/12/3 797/12/3
f 799/12/3 794/12/3 793/12/3
f 800/12/3 794/12/3 799/12/3
f 805/12/3 802/12/3 801/12/3
f 806/12/3 802/12/3 805/12/3
f 807/12/3 804/12/3 803/12/3
f 808/12/3 804/12/3 807/12/3
f 809/3/3 796/3/3 795/3/3
f 810/3/3 796/3/3 809/3/3
f 813/5/3 784/5/3 779/5/3
f 814/5/3 780/5/3 785/5/3
f 816/3/3 812/3/3 811/3/3
f 817/3/3 812/3/3 816/3/3
f 818/7/3 779/7/3 774/7/3
f 818/5/3 813/5/3 779/5/3
f 818/5/3 814/5/3 813/5/3
f 819/7/3 775/7/3 780/7/3
f 819/5/3 814/5/3 818/5/3
f 819/5/3 780/5/3 814/5/3
f 821/3/3 816/3/3 815/3/3
f 822/3/3 816/3/3 821/3/3
f 823/7/3 818/7/3 774/7/3
f 823/7/3 819/7/3 818/7/3
f 824/7/3 775/7/3 819/7/3
f 824/7/3 819/7/3 823/7/3
f 826/3/3 821/3/3 820/3/3
f 827/3/3 821/3/3 826/3/3
f 828/6/3 824/6/3 823/6/3
f 829/6/3 824/6/3 828/6/3
f 831/3/3 826/3/3 825/3/3
f 832/3/3 826/3/3 831/3/3
f 834/3/3 831/3/3 830/3/3
f 835/3/3 831/3/3 834/3/3
f 839/3/3 834/3/3 833/3/3
f 840/3/3 834/3/3 839/3/3
f 841/4/3 837/4/3 836/4/3
f 842/4/3 837/4/3 841/4/3
f 844/3/3 839/3/3 838/3/3
f 845/3/3 839/3/3 844/3/3
f 846/3/3 844/3/3 843/3/3
f 847/3/3 844/3/3 846/3/3
f 853/16/3 849/16/3 848/16/3
f 853/14/3 850/14/3 849/14/3
f 854/14/3 850/14/3 853/14/3
f 855/13/3 852/13/3 851/13/3
f 856/13/3 852/13/3 855/13/3
f 857/16/3 854/16/3 853/16/3
f 857/16/3 853/16/3 848/16/3
f 858/16/3 854/16/3 857/16/3
f 859/17/3 858/17/3 857/17/3
f 859/16/3 854/16/3 858/16/3
f 860/16/3 854/16/3 859/16/3
f 863/16/3 857/16/3 848/16/3
f 864/17/3 859/17/3 857/17/3
f 864/16/3 857/16/3 863/16/3
f 864/17/3 860/17/3 859/17/3
f 865/17/3 860/17/3 864/17/3
f 866/12/3 862/12/3 861/12/3
f 867/12/3 862/12/3 866/12/3
f 871/5/3 869/5/3 868/5/3
f 872/8/3 871/8/3 870/8/3
f 873/5/3 869/5/3 871/5/3
f 873/8/3 871/8/3 872/8/3
f 874/5/3 869/5/3 873/5/3
f 878/13/3 876/13/3 875/13/3
f 879/13/3 876/13/3 878/13/3
f 885/13/3 878/13/3 877/13/3
f 886/13/3 878/13/3 885/13/3
f 887/13/3 880/13/3 879/13/3
f 888/13/3 880/13/3 887/13/3
f 889/14/3 882/14/3 881/14/3
f 890/14/3 882/14/3 889/14/3
f 891/16/3 883/16/3 882/16/3
f 891/14/3 882/14/3 890/14/3
f 892/17/3 884/17/3 883/17/3
f 892/16/3 883/16/3 891/16/3
f 893/17/3 884/17/3 892/17/3
f 894/13/3 887/13/3 886/13/3
f 895/13/3 887/13/3 894/13/3
f 896/16/3 891/16/3 890/16/3
f 896/16/3 893/16/3 892/16/3
f 896/16/3 892/16/3 891/16/3
f 897/16/3 893/16/3 896/16/3
f 898/16/3 893/16/3 897/16/3
f 899/16/3 893/16/3 898/16/3
f 900/16/3 898/16/3 897/16/3
f 901/16/3 898/16/3 900/16/3
f 902/17/3 899/17/3 898/17/3
f 902/16/3 898/16/3 901/16/3
f 903/16/3 893/16/3 899/16/3
f 903/17/3 899/17/3 902/17/3
f 904/16/3 893/16/3 903/16/3
f 907/13/3 906/13/3 905/13/3
f 908/13/3 906/13/3 907/13/3
f 911/13/3 910/13/3 909/13/3
f 912/13/3 910/13/3 911/13/3
f 919/16/3 914/16/3 913/16/3
f 920/16/3 914/16/3 919/16/3
f 921/17/3 915/17/3 914/17/3
f 921/16/3 914/16/3 920/16/3
f 922/16/3 916/16/3 915/16/3
f 922/17/3 915/17/3 921/17/3
f 925/16/3 921/16/3 920/16/3
f 925/16/3 922/16/3 921/16/3
f 926/16/3 922/16/3 925/16/3
f 927/16/3 922/16/3 926/16/3
f 928/16/3 916/16/3 922/16/3
f 928/16/3 922/16/3 927/16/3
f 929/19/3 918/19/3 917/19/3
f 930/19/3 918/19/3 929/19/3
f 932/13/3 924/13/3 923/13/3
f 933/13/3 924/13/3 932/13/3
f 935/13/3 932/13/3 931/13/3
f 936/13/3 932/13/3 935/13/3
f 937/13/3 934/13/3 933/13/3
f 938/13/3 934/13/3 937/13/3
f 939/13/3 937/13/3 936/13/3
f 940/13/3 937/13/3 939/13/3
f 944/13/3 942/13/3 941/13/3
f 945/13/3 942/13/3 944/13/3
f 949/13/3 944/13/3 943/13/3
f 950/13/3 944/13/3 949/13/3
f 951/13/3 946/13/3 945/13/3
f 952/13/3 946/13/3 951/13/3
f 953/13/3 951/13/3 950/13/3
f 954/13/3 951/13/3 953/13/3
f 955/16/3 948/16/3 947/16/3
f 956/16/3 948/16/3 955/16/3
f 957/17/3 956/17/3 955/17/3
f 958/16/3 948/16/3 956/16/3
f 958/17/3 956/17/3 957/17/3
f 959/16/3 948/16/3 958/16/3
f 962/8/3 961/8/3 960/8/3
f 963/8/3 961/8/3 962/8/3
f 966/6/3 965/6/3 964/6/3
f 967/6/3 965/6/3 966/6/3
f 970/6/3 969/6/3 968/6/3
f 971/6/3 969/6/3 970/6/3
f 974/8/3 973/8/3 972/8/3
f 975/8/3 973/8/3 974/8/3
f 978/8/3 977/8/3 976/8/3
f 979/8/3 977/8/3 978/8/3
f 980/6/4 981/6/4 982/6/4
f 982/6/4 981/6/4 983/6/4
f 984/6/4 985/6/4 986/6/4
f 986/6/4 985/6/4 987/6/4
f 988/16/4 989/16/4 990/16/4
f 990/16/4 989/16/4 991/16/4
f 990/17/4 991/17/4 992/17/4
f 992/17/4 991/17/4 993/17/4
f 991/16/4 989/16/4 994/16/4
f 993/17/4 991/17/4 994/17/4
f 994/16/4 989/16/4 995/16/4
f 996/8/4 997/8/4 998/8/4
f 998/8/4 997/8/4 999/8/4
f 1000/13/4 1001/13/4 1003/13/4
f 1003/13/4 1001/13/4 1004/13/4
f 1002/13/4 1003/13/4 1006/13/4
f 1006/13/4 1003/13/4 1007/13/4
f 1004/13/4 1005/13/4 1008/13/4
f 1008/13/4 1005/13/4 1009/13/4
f 1007/13/4 1008/13/4 1015/13/4
f 1015/13/4 1008/13/4 1016/13/4
f 1010/16/4 1011/16/4 1017/16/4
f 1011/16/4 1012/16/4 1017/16/4
f 1017/16/4 1012/16/4 1018/16/4
f 1018/16/4 1012/16/4 1019/16/4
f 1019/16/4 1012/16/4 1020/16/4
f 1018/16/4 1019/16/4 1021/16/4
f 1021/16/4 1019/16/4 1022/16/4
f 1013/19/4 1014/19/4 1023/19/4
f 1023/19/4 1014/19/4 1024/19/4
f 1025/13/4 1026/13/4 1027/13/4
f 1027/13/4 1026/13/4 1028/13/4
f 1029/14/4 1030/14/4 1031/14/4
f 1031/14/4 1030/14/4 1032/14/4
f 1033/16/4 1034/16/4 1037/16/4
f 1037/16/4 1034/16/4 1038/16/4
f 1038/16/4 1034/16/4 1039/16/4
f 1034/17/4 1035/17/4 1040/17/4
f 1039/16/4 1034/16/4 1040/16/4
f 1035/16/4 1036/16/4 1041/16/4
f 1040/17/4 1035/17/4 1041/17/4
f 1040/16/4 1041/16/4 1044/16/4
f 1041/16/4 1036/16/4 1044/16/4
f 1042/13/4 1043/13/4 1046/13/4
f 1046/13/4 1043/13/4 1047/13/4
f 1040/16/4 1044/16/4 1049/16/4
f 1049/16/4 1044/16/4 1050/16/4
f 1050/16/4 1044/16/4 1051/16/4
f 1045/13/4 1046/13/4 1052/13/4
f 1052/13/4 1046/13/4 1053/13/4
f 1047/13/4 1048/13/4 1054/13/4
f 1054/13/4 1048/13/4 1055/13/4
f 1053/13/4 1054/13/4 1056/13/4
f 1056/13/4 1054/13/4 1057/13/4
f 1058/13/4 1059/13/4 1064/13/4
f 1064/13/4 1059/13/4 1065/13/4
f 1060/14/4 1061/14/4 1067/14/4
f 1061/16/4 1062/16/4 1068/16/4
f 1067/14/4 1061/14/4 1068/14/4
f 1063/13/4 1064/13/4 1069/13/4
f 1069/13/4 1064/13/4 1070/13/4
f 1065/13/4 1066/13/4 1071/13/4
f 1071/13/4 1066/13/4 1072/13/4
f 1070/13/4 1071/13/4 1073/13/4
f 1073/13/4 1071/13/4 1074/13/4
f 1067/16/4 1068/16/4 1077/16/4
f 1068/16/4 1062/16/4 1078/16/4
f 1077/16/4 1068/16/4 1078/16/4
f 1077/17/4 1078/17/4 1081/17/4
f 1078/16/4 1062/16/4 1081/16/4
f 1081/16/4 1062/16/4 1082/16/4
f 1079/13/4 1080/13/4 1083/13/4
f 1083/13/4 1080/13/4 1084/13/4
f 1077/17/4 1081/17/4 1085/17/4
f 1081/14/4 1082/14/4 1086/14/4
f 1085/17/4 1081/17/4 1086/17/4
f 1086/14/4 1082/14/4 1087/14/4
f 1075/12/4 1076/12/4 1088/12/4
f 1088/12/4 1076/12/4 1089/12/4
f 1090/7/4 1091/7/4 1093/7/4
f 1091/7/4 1092/7/4 1093/7/4
f 1093/7/4 1092/7/4 1094/7/4
f 1093/9/4 1094/9/4 1095/9/4
f 1094/7/4 1092/7/4 1096/7/4
f 1095/9/4 1094/9/4 1096/9/4
f 1095/7/4 1096/7/4 1097/7/4
f 1097/7/4 1096/7/4 1098/7/4
f 1096/7/4 1092/7/4 1099/7/4
f 1098/7/4 1096/7/4 1099/7/4
f 1100/12/4 1101/12/4 1102/12/4
f 1102/12/4 1101/12/4 1103/12/4
f 1104/4/4 1105/4/4 1107/4/4
f 1106/8/4 1107/8/4 1108/8/4
f 1107/4/4 1105/4/4 1109/4/4
f 1108/8/4 1107/8/4 1109/8/4
f 1109/4/4 1105/4/4 1110/4/4
f 1111/3/4 1112/3/4 1113/3/4
f 1113/3/4 1112/3/4 1114/3/4
f 1114/3/4 1115/3/4 1116/3/4
f 1116/3/4 1115/3/4 1117/3/4
f 1117/3/4 1118/3/4 1119/3/4
f 1119/3/4 1118/3/4 1120/3/4
f 1122/13/4 1123/13/4 1124/13/4
f 1124/13/4 1123/13/4 1125/13/4
f 1120/3/4 1121/3/4 1128/3/4
f 1128/3/4 1121/3/4 1129/3/4
f 1126/6/4 1127/6/4 1131/6/4
f 1131/6/4 1127/6/4 1132/6/4
f 1132/6/4 1127/6/4 1133/6/4
f 1133/6/4 1127/6/4 1134/6/4
f 1129/3/4 1130/3/4 1135/3/4
f 1135/3/4 1130/3/4 1136/3/4
f 1131/7/4 1132/7/4 1138/7/4
f 1132/5/4 1133/5/4 1139/5/4
f 1138/7/4 1132/7/4 1139/7/4
f 1133/7/4 1134/7/4 1140/7/4
f 1139/5/4 1133/5/4 1140/5/4
f 1140/7/4 1134/7/4 1141/7/4
f 1131/7/4 1138/7/4 1142/7/4
f 1141/7/4 1134/7/4 1143/7/4
f 1136/3/4 1137/3/4 1146/3/4
f 1146/3/4 1137/3/4 1147/3/4
f 1141/7/4 1143/7/4 1149/7/4
f 1144/12/4 1145/12/4 1150/12/4
f 1150/12/4 1145/12/4 1151/12/4
f 1147/3/4 1148/3/4 1152/3/4
f 1152/3/4 1148/3/4 1153/3/4
f 1138/5/4 1139/5/4 1155/5/4
f 1142/7/4 1138/7/4 1155/7/4
f 1155/5/4 1139/5/4 1156/5/4
f 1140/5/4 1141/5/4 1157/5/4
f 1141/7/4 1149/7/4 1158/7/4
f 1157/5/4 1141/5/4 1158/5/4
f 1155/7/4 1156/7/4 1159/7/4
f 1142/7/4 1155/7/4 1159/7/4
f 1156/5/4 1157/5/4 1160/5/4
f 1159/7/4 1156/7/4 1160/7/4
f 1157/7/4 1158/7/4 1161/7/4
f 1160/5/4 1157/5/4 1161/5/4
f 1158/7/4 1149/7/4 1162/7/4
f 1161/7/4 1158/7/4 1162/7/4
f 1153/3/4 1154/3/4 1163/3/4
f 1163/3/4 1154/3/4 1164/3/4
f 1162/7/4 1149/7/4 1166/7/4
f 1166/7/4 1149/7/4 1167/7/4
f 1167/7/4 1149/7/4 1168/7/4
f 1164/3/4 1165/3/4 1173/3/4
f 1173/3/4 1165/3/4 1174/3/4
f 1169/12/4 1170/12/4 1176/12/4
f 1176/12/4 1170/12/4 1177/12/4
f 1171/12/4 1172/12/4 1178/12/4
f 1178/12/4 1172/12/4 1179/12/4
f 1167/7/4 1168/7/4 1185/7/4
f 1185/7/4 1168/7/4 1186/7/4
f 1180/12/4 1181/12/4 1187/12/4
f 1187/12/4 1181/12/4 1188/12/4
f 1182/12/4 1183/12/4 1189/12/4
f 1189/12/4 1183/12/4 1190/12/4
f 1174/3/4 1175/3/4 1192/3/4
f 1192/3/4 1175/3/4 1193/3/4
f 1185/7/4 1186/7/4 1197/7/4
f 1184/7/4 1185/7/4 1197/7/4
f 1191/3/4 1192/3/4 1199/3/4
f 1199/3/4 1192/3/4 1200/3/4
f 1194/7/4 1195/7/4 1201/7/4
f 1195/5/4 1196/5/4 1202/5/4
f 1201/7/4 1195/7/4 1202/7/4
f 1196/7/4 1197/7/4 1203/7/4
f 1202/5/4 1196/5/4 1203/5/4
f 1197/7/4 1186/7/4 1204/7/4
f 1203/7/4 1197/7/4 1204/7/4
f 1204/7/4 1186/7/4 1205/7/4
f 1198/3/4 1199/3/4 1209/3/4
f 1209/3/4 1199/3/4 1210/3/4
f 1194/7/4 1201/7/4 1211/7/4
f 1204/7/4 1205/7/4 1212/7/4
f 1206/12/4 1207/12/4 1213/12/4
f 1213/12/4 1207/12/4 1214/12/4
f 1208/3/4 1209/3/4 1216/3/4
f 1216/3/4 1209/3/4 1217/3/4
f 1201/5/4 1202/5/4 1218/5/4
f 1211/7/4 1201/7/4 1218/7/4
f 1218/5/4 1202/5/4 1219/5/4
f 1203/5/4 1204/5/4 1220/5/4
f 1204/7/4 1212/7/4 1221/7/4
f 1220/5/4 1204/5/4 1221/5/4
f 1218/7/4 1219/7/4 1222/7/4
f 1211/7/4 1218/7/4 1222/7/4
f 1219/5/4 1220/5/4 1223/5/4
f 1222/7/4 1219/7/4 1223/7/4
f 1220/7/4 1221/7/4 1224/7/4
f 1223/5/4 1220/5/4 1224/5/4
f 1221/7/4 1212/7/4 1225/7/4
f 1224/7/4 1221/7/4 1225/7/4
f 1215/3/4 1216/3/4 1227/3/4
f 1227/3/4 1216/3/4 1228/3/4
f 1223/6/4 1224/6/4 1229/6/4
f 1224/6/4 1225/6/4 1229/6/4
f 1222/6/4 1223/6/4 1229/6/4
f 1229/6/4 1225/6/4 1230/6/4
f 1226/3/4 1227/3/4 1232/3/4
f 1232/3/4 1227/3/4 1233/3/4
f 1231/3/4 1232/3/4 1235/3/4
f 1235/3/4 1232/3/4 1236/3/4
f 1234/3/4 1235/3/4 1238/3/4
f 1238/3/4 1235/3/4 1239/3/4
f 1237/3/4 1238/3/4 1241/3/4
f 1241/3/4 1238/3/4 1242/3/4
f 1240/3/4 1241/3/4 1243/3/4
f 1243/3/4 1241/3/4 1244/3/4
f 1245/3/4 1246/3/4 1247/3/4
f 1247/3/4 1248/3/4 1249/3/4
f 1249/3/4 1250/3/4 1251/3/4
f 1245/3/4 1247/3/4 1253/3/4
f 1251/3/4 1252/3/4 1253/3/4
f 1249/3/4 1251/3/4 1253/3/4
f 1247/3/4 1249/3/4 1253/3/4
f 1253/3/4 1252/3/4 1254/3/4
f 1245/3/4 1253/3/4 1256/3/4
f 1253/2/4 1254/2/4 1257/2/4
f 1256/3/4 1253/3/4 1257/3/4
f 1254/3/4 1255/3/4 1258/3/4
f 1257/2/4 1254/2/4 1258/2/4
f 1258/3/4 1255/3/4 1259/3/4
f 1256/2/4 1257/2/4 1261/2/4
f 1261/2/4 1257/2/4 1262/2/4
f 1258/2/4 1259/2/4 1263/2/4
f 1259/3/4 1260/3/4 1264/3/4
f 1263/2/4 1259/2/4 1264/2/4
f 1264/3/4 1260/3/4 1265/3/4
f 1262/2/4 1263/2/4 1267/2/4
f 1265/3/4 1266/3/4 1267/3/4
f 1264/3/4 1265/3/4 1267/3/4
f 1263/3/4 1264/3/4 1267/3/4
f 1267/3/4 1266/3/4 1268/3/4
f 1268/3/4 1266/3/4 1269/3/4
f 1261/3/4 1262/3/4 1271/3/4
f 1262/2/4 1267/2/4 1272/2/4
f 1271/3/4 1262/3/4 1272/3/4
f 1267/2/4 1268/2/4 1272/2/4
f 1272/2/4 1268/2/4 1273/2/4
f 1273/2/4 1268/2/4 1274/2/4
f 1269/3/4 1270/3/4 1275/3/4
f 1274/2/4 1268/2/4 1275/2/4
f 1268/3/4 1269/3/4 1275/3/4
f 1275/3/4 1270/3/4 1276/3/4
f 1276/3/4 1270/3/4 1277/3/4
f 1271/2/4 1272/2/4 1279/2/4
f 1273/3/4 1274/3/4 1280/3/4
f 1280/3/4 1274/3/4 1281/3/4
f 1275/2/4 1276/2/4 1282/2/4
f 1271/2/4 1279/2/4 1283/2/4
f 1281/3/4 1282/3/4 1283/3/4
f 1280/3/4 1281/3/4 1283/3/4
f 1279/3/4 1280/3/4 1283/3/4
f 1283/3/4 1282/3/4 1284/3/4
f 1284/3/4 1282/3/4 1285/3/4
f 1282/2/4 1276/2/4 1286/2/4
f 1285/3/4 1282/3/4 1286/3/4
f 1271/2/4 1283/2/4 1287/2/4
f 1287/2/4 1283/2/4 1288/2/4
f 1284/3/4 1285/3/4 1289/3/4
f 1289/3/4 1285/3/4 1290/3/4
f 1286/2/4 1276/2/4 1291/2/4
f 1277/3/4 1278/3/4 1292/3/4
f 1276/3/4 1277/3/4 1292/3/4
f 1291/2/4 1276/2/4 1292/2/4
f 1292/3/4 1278/3/4 1293/3/4
f 1293/3/4 1278/3/4 1294/3/4
f 1290/2/4 1291/2/4 1295/2/4
f 1289/2/4 1290/2/4 1295/2/4
f 1288/2/4 1289/2/4 1295/2/4
f 1292/3/4 1293/3/4 1296/3/4
f 1295/2/4 1291/2/4 1296/2/4
f 1291/3/4 1292/3/4 1296/3/4
f 1296/3/4 1293/3/4 1297/3/4
f 1297/3/4 1293/3/4 1298/3/4
f 1287/3/4 1288/3/4 1299/3/4
f 1288/2/4 1295/2/4 1300/2/4
f 1299/3/4 1288/3/4 1300/3/4
f 1295/3/4 1296/3/4 1301/3/4
f 1300/2/4 1295/2/4 1301/2/4
f 1296/3/4 1297/3/4 1301/3/4
f 1301/3/4 1297/3/4 1302/3/4
f 1302/3/4 1297/3/4 1303/3/4
f 1303/3/4 1297/3/4 1304/3/4
f 1299/2/4 1300/2/4 1305/2/4
f 1305/2/4 1300/2/4 1306/2/4
f 1301/2/4 1302/2/4 1307/2/4
f 1302/3/4 1303/3/4 1308/3/4
f 1307/2/4 1302/2/4 1308/2/4
f 1308/3/4 1303/3/4 1309/3/4
f 1306/2/4 1307/2/4 1310/2/4
f 1305/3/4 1306/3/4 1310/3/4
f 1307/3/4 1308/3/4 1311/3/4
f 1310/2/4 1307/2/4 1311/2/4
f 1311/3/4 1308/3/4 1312/3/4
f 1310/3/4 1311/3/4 1313/3/4
f 1313/3/4 1311/3/4 1314/3/4
f 1310/3/4 1313/3/4 1315/3/4
f 1315/3/4 1313/3/4 1316/3/4
f 1305/3/4 1310/3/4 1317/3/4
f 1310/3/4 1315/3/4 1317/3/4
f 1317/3/4 1315/3/4 1318/3/4
f 1305/3/4 1317/3/4 1319/3/4
f 1319/3/4 1317/3/4 1320/3/4
f 1321/3/4 1322/3/4 1323/3/4
f 1323/3/4 1322/3/4 1324/3/4
f 1325/8/4 1326/8/4 1328/8/4
f 1326/3/4 1327/3/4 1329/3/4
f 1328/8/4 1326/8/4 1329/8/4
f 1329/3/4 1327/3/4 1331/3/4
f 1330/8/4 1331/8/4 1332/8/4
f 1331/3/4 1327/3/4 1333/3/4
f 1332/8/4 1331/8/4 1333/8/4
f 1333/3/4 1327/3/4 1334/3/4
f 1335/5/4 1336/5/4 1337/5/4
f 1337/5/4 1336/5/4 1338/5/4
f 1339/5/4 1340/5/4 1341/5/4
f 1341/5/4 1340/5/4 1342/5/4
f 1343/4/4 1344/4/4 1345/4/4
f 1345/4/4 1344/4/4 1346/4/4
f 1345/5/4 1346/5/4 1347/5/4
f 1347/5/4 1346/5/4 1348/5/4
f 1347/10/4 1348/10/4 1349/10/4
f 1349/10/4 1348/10/4 1350/10/4
f 1349/11/4 1350/11/4 1351/11/4
f 1351/11/4 1350/11/4 1352/11/4
f 1351/10/4 1352/10/4 1353/10/4
f 1353/10/4 1352/10/4 1354/10/4
f 1353/5/4 1354/5/4 1355/5/4
f 1355/5/4 1354/5/4 1356/5/4
f 1355/4/4 1356/4/4 1357/4/4
f 1357/4/4 1356/4/4 1358/4/4
f 1362/5/5 1360/5/5 1359/5/5
f 1363/5/5 1360/5/5 1362/5/5
f 1365/4/5 1362/4/5 1361/4/5
f 1365/4/5 1364/4/5 1363/4/5
f 1365/4/5 1363/4/5 1362/4/5
f 1366/4/5 1364/4/5 1365/4/5
f 1367/4/5 1364/4/5 1366/4/5
f 1368/4/5 1364/4/5 1367/4/5
f 1369/5/5 1366/5/5 1365/5/5
f 1370/4/5 1367/4/5 1366/4/5
f 1370/5/5 1366/5/5 1369/5/5
f 1371/5/5 1368/5/5 1367/5/5
f 1371/4/5 1367/4/5 1370/4/5
f 1372/5/5 1368/5/5 1371/5/5
f 1373/4/5 1370/4/5 1369/4/5
f 1373/4/5 1371/4/5 1370/4/5
f 1373/4/5 1372/4/5 1371/4/5
f 1374/4/5 1372/4/5 1373/4/5
f 1375/4/5 1372/4/5 1374/4/5
f 1376/4/5 1372/4/5 1375/4/5
f 1377/5/5 1374/5/5 1373/5/5
f 1378/4/5 1375/4/5 1374/4/5
f 1378/5/5 1374/5/5 1377/5/5
f 1379/5/5 1376/5/5 1375/5/5
f 1379/4/5 1375/4/5 1378/4/5
f 1380/5/5 1376/5/5 1379/5/5
f 1381/4/5 1378/4/5 1377/4/5
f 1381/4/5 1379/4/5 1378/4/5
f 1381/4/5 1380/4/5 1379/4/5
f 1382/4/5 1380/4/5 1381/4/5
f 1383/4/5 1380/4/5 1382/4/5
f 1384/4/5 1380/4/5 1383/4/5
f 1385/5/5 1382/5/5 1381/5/5
f 1386/4/5 1383/4/5 1382/4/5
f 1386/5/5 1382/5/5 1385/5/5
f 1387/5/5 1384/5/5 1383/5/5
f 1387/4/5 1383/4/5 1386/4/5
f 1388/5/5 1384/5/5 1387/5/5
f 1389/4/5 1386/4/5 1385/4/5
f 1389/4/5 1387/4/5 1386/4/5
f 1389/4/5 1388/4/5 1387/4/5
f 1390/4/5 1388/4/5 1389/4/5
f 1391/4/5 1388/4/5 1390/4/5
f 1392/4/5 1388/4/5 1391/4/5
f 1393/5/5 1390/5/5 1389/5/5
f 1394/4/5 1391/4/5 1390/4/5
f 1394/5/5 1390/5/5 1393/5/5
f 1395/4/5 1391/4/5 1394/4/5
f 1396/4/5 1391/4/5 1395/4/5
f 1397/4/5 1391/4/5 1396/4/5
f 1398/4/5 1391/4/5 1397/4/5
f 1399/5/5 1392/5/5 1391/5/5
f 1399/4/5 1391/4/5 1398/4/5
f 1400/5/5 1392/5/5 1399/5/5
f 1401/4/5 1394/4/5 1393/4/5
f 1402/5/5 1395/5/5 1394/5/5
f 1402/4/5 1394/4/5 1401/4/5
f 1403/10/5 1396/10/5 1395/10/5
f 1403/11/5 1397/11/5 1396/11/5
f 1404/10/5 1398/10/5 1397/10/5
f 1404/11/5 1397/11/5 1403/11/5
f 1405/5/5 1399/5/5 1398/5/5
f 1405/4/5 1400/4/5 1399/4/5
f 1406/4/5 1400/4/5 1405/4/5
f 1407/5/5 1402/5/5 1401/5/5
f 1408/5/5 1395/5/5 1402/5/5
f 1408/5/5 1402/5/5 1407/5/5
f 1409/10/5 1403/10/5 1395/10/5
f 1409/4/5 1404/4/5 1403/4/5
f 1410/4/5 1404/4/5 1409/4/5
f 1411/4/5 1404/4/5 1410/4/5
f 1412/4/5 1404/4/5 1411/4/5
f 1413/4/5 1404/4/5 1412/4/5
f 1414/10/5 1398/10/5 1404/10/5
f 1414/4/5 1404/4/5 1413/4/5
f 1415/5/5 1405/5/5 1398/5/5
f 1415/5/5 1406/5/5 1405/5/5
f 1416/5/5 1406/5/5 1415/5/5
f 1417/4/5 1408/4/5 1407/4/5
f 1418/5/5 1395/5/5 1408/5/5
f 1418/4/5 1408/4/5 1417/4/5
f 1419/10/5 1409/10/5 1395/10/5
f 1419/11/5 1410/11/5 1409/11/5
f 1420/4/5 1411/4/5 1410/4/5
f 1420/11/5 1410/11/5 1419/11/5
f 1421/11/5 1412/11/5 1411/11/5
f 1421/4/5 1411/4/5 1420/4/5
f 1422/4/5 1413/4/5 1412/4/5
f 1422/11/5 1412/11/5 1421/11/5
f 1423/11/5 1414/11/5 1413/11/5
f 1423/4/5 1413/4/5 1422/4/5
f 1424/10/5 1398/10/5 1414/10/5
f 1424/11/5 1414/11/5 1423/11/5
f 1425/5/5 1415/5/5 1398/5/5
f 1425/4/5 1416/4/5 1415/4/5
f 1426/4/5 1416/4/5 1425/4/5
f 1427/5/5 1418/5/5 1417/5/5
f 1428/5/5 1418/5/5 1427/5/5
f 1429/5/5 1395/5/5 1418/5/5
f 1429/5/5 1418/5/5 1428/5/5
f 1430/4/5 1421/4/5 1420/4/5
f 1430/4/5 1423/4/5 1422/4/5
f 1430/4/5 1422/4/5 1421/4/5
f 1430/10/5 1419/10/5 1395/10/5
f 1430/4/5 1420/4/5 1419/4/5
f 1430/4/5 1424/4/5 1423/4/5
f 1431/10/5 1398/10/5 1424/10/5
f 1431/4/5 1424/4/5 1430/4/5
f 1432/5/5 1426/5/5 1425/5/5
f 1432/5/5 1425/5/5 1398/5/5
f 1433/5/5 1426/5/5 1432/5/5
f 1434/5/5 1426/5/5 1433/5/5
f 1435/4/5 1429/4/5 1428/4/5
f 1436/5/5 1395/5/5 1429/5/5
f 1436/4/5 1429/4/5 1435/4/5
f 1437/10/5 1430/10/5 1395/10/5
f 1437/5/5 1395/5/5 1436/5/5
f 1438/11/5 1431/11/5 1430/11/5
f 1438/10/5 1430/10/5 1437/10/5
f 1439/10/5 1398/10/5 1431/10/5
f 1439/11/5 1431/11/5 1438/11/5
f 1440/5/5 1432/5/5 1398/5/5
f 1440/10/5 1398/10/5 1439/10/5
f 1441/4/5 1433/4/5 1432/4/5
f 1441/5/5 1432/5/5 1440/5/5
f 1442/4/5 1433/4/5 1441/4/5
f 1447/5/5 1444/5/5 1443/5/5
f 1448/5/5 1444/5/5 1447/5/5
f 1452/5/5 1451/5/5 1450/5/5
f 1452/5/5 1450/5/5 1449/5/5
f 1453/5/5 1451/5/5 1452/5/5
f 1455/5/5 1452/5/5 1449/5/5
f 1455/4/5 1454/4/5 1453/4/5
f 1455/4/5 1453/4/5 1452/4/5
f 1456/4/5 1454/4/5 1455/4/5
f 1457/5/5 1455/5/5 1449/5/5
f 1457/5/5 1456/5/5 1455/5/5
f 1458/5/5 1456/5/5 1457/5/5
f 1459/5/5 1457/5/5 1449/5/5
f 1459/4/5 1458/4/5 1457/4/5
f 1460/4/5 1458/4/5 1459/4/5
f 1461/5/5 1459/5/5 1449/5/5
f 1461/5/5 1460/5/5 1459/5/5
f 1462/5/5 1460/5/5 1461/5/5
f 1463/5/5 1460/5/5 1462/5/5
f 1464/5/5 1446/5/5 1445/5/5
f 1465/5/5 1446/5/5 1464/5/5
f 1472/5/5 1461/5/5 1449/5/5
f 1473/4/5 1462/4/5 1461/4/5
f 1473/5/5 1461/5/5 1472/5/5
f 1474/4/5 1462/4/5 1473/4/5
f 1475/5/5 1467/5/5 1466/5/5
f 1476/5/5 1467/5/5 1475/5/5
f 1477/7/5 1469/7/5 1468/7/5
f 1478/7/5 1469/7/5 1477/7/5
f 1479/5/5 1471/5/5 1470/5/5
f 1480/5/5 1471/5/5 1479/5/5
f 1481/3/5 1478/3/5 1477/3/5
f 1482/3/5 1478/3/5 1481/3/5
f 1483/3/5 1478/3/5 1482/3/5
f 1484/3/5 1478/3/5 1483/3/5
f 1485/3/5 1483/3/5 1482/3/5
f 1486/3/5 1483/3/5 1485/3/5
f 1490/3/5 1488/3/5 1487/3/5
f 1491/3/5 1488/3/5 1490/3/5
f 1492/3/5 1488/3/5 1491/3/5
f 1493/3/5 1488/3/5 1492/3/5
f 1494/3/5 1488/3/5 1493/3/5
f 1495/3/5 1488/3/5 1494/3/5
f 1497/3/5 1490/3/5 1489/3/5
f 1497/3/5 1491/3/5 1490/3/5
f 1498/3/5 1496/3/5 1495/3/5
f 1498/3/5 1495/3/5 1494/3/5
f 1499/3/5 1497/3/5 1489/3/5
f 1500/3/5 1496/3/5 1498/3/5
f 1501/3/5 1499/3/5 1489/3/5
f 1502/3/5 1499/3/5 1501/3/5
f 1503/3/5 1499/3/5 1502/3/5
f 1512/3/5 1496/3/5 1500/3/5
f 1513/3/5 1496/3/5 1512/3/5
f 1514/3/5 1496/3/5 1513/3/5
f 1515/3/5 1503/3/5 1502/3/5
f 1515/3/5 1504/3/5 1503/3/5
f 1515/3/5 1505/3/5 1504/3/5
f 1516/2/5 1506/2/5 1505/2/5
f 1516/3/5 1505/3/5 1515/3/5
f 1517/3/5 1507/3/5 1506/3/5
f 1517/2/5 1506/2/5 1516/2/5
f 1518/2/5 1508/2/5 1507/2/5
f 1518/3/5 1507/3/5 1517/3/5
f 1519/3/5 1509/3/5 1508/3/5
f 1519/2/5 1508/2/5 1518/2/5
f 1520/2/5 1510/2/5 1509/2/5
f 1520/3/5 1509/3/5 1519/3/5
f 1521/3/5 1511/3/5 1510/3/5
f 1521/2/5 1510/2/5 1520/2/5
f 1521/3/5 1513/3/5 1512/3/5
f 1521/3/5 1512/3/5 1511/3/5
f 1522/3/5 1513/3/5 1521/3/5
f 1527/3/5 1524/3/5 1523/3/5
f 1528/3/5 1524/3/5 1527/3/5
f 1529/3/5 1526/3/5 1525/3/5
f 1530/3/5 1526/3/5 1529/3/5
f 1535/3/5 1532/3/5 1531/3/5
f 1536/3/5 1532/3/5 1535/3/5
f 1537/3/5 1534/3/5 1533/3/5
f 1538/3/5 1534/3/5 1537/3/5
f 1543/2/5 1540/2/5 1539/2/5
f 1544/2/5 1540/2/5 1543/2/5
f 1545/2/5 1542/2/5 1541/2/5
f 1546/2/5 1542/2/5 1545/2/5
f 1551/2/5 1548/2/5 1547/2/5
f 1552/2/5 1548/2/5 1551/2/5
f 1553/2/5 1550/2/5 1549/2/5
f 1554/2/5 1550/2/5 1553/2/5
f 1557/14/5 1556/14/5 1555/14/5
f 1558/14/5 1556/14/5 1557/14/5
f 1563/2/5 1560/2/5 1559/2/5
f 1564/2/5 1560/2/5 1563/2/5
f 1565/2/5 1562/2/5 1561/2/5
f 1566/2/5 1562/2/5 1565/2/5
f 1569/18/5 1568/18/5 1567/18/5
f 1571/18/5 1569/18/5 1567/18/5
f 1571/18/5 1570/18/5 1569/18/5
f 1572/18/5 1570/18/5 1571/18/5
f 1575/16/5 1574/16/5 1573/16/5
f 1576/16/5 1574/16/5 1575/16/5
f 1577/16/5 1574/16/5 1576/16/5
f 1578/16/5 1574/16/5 1577/16/5
f 1579/17/5 1576/17/5 1575/17/5
f 1580/17/5 1576/17/5 1579/17/5
f 1581/16/5 1580/16/5 1579/16/5
f 1582/16/5 1580/16/5 1581/16/5
f 1584/16/5 1574/16/5 1578/16/5
f 1585/16/5 1574/16/5 1584/16/5
f 1586/14/5 1582/14/5 1581/14/5
f 1587/16/5 1583/16/5 1582/16/5
f 1587/14/5 1582/14/5 1586/14/5
f 1588/17/5 1584/17/5 1583/17/5
f 1588/16/5 1583/16/5 1587/16/5
f 1588/17/5 1585/17/5 1584/17/5
f 1589/17/5 1585/17/5 1588/17/5
f 1592/13/5 1591/13/5 1590/13/5
f 1593/13/5 1591/13/5 1592/13/5
f 1597/13/5 1595/13/5 1594/13/5
f 1598/13/5 1595/13/5 1597/13/5
f 1600/13/5 1597/13/5 1596/13/5
f 1601/13/5 1597/13/5 1600/13/5
f 1602/13/5 1599/13/5 1598/13/5
f 1603/13/5 1599/13/5 1602/13/5
f 1604/13/5 1602/13/5 1601/13/5
f 1605/13/5 1602/13/5 1604/13/5
f 1608/13/5 1607/13/5 1606/13/5
f 1609/13/5 1607/13/5 1608/13/5
f 1613/13/5 1611/13/5 1610/13/5
f 1614/13/5 1611/13/5 1613/13/5
f 1616/13/5 1613/13/5 1612/13/5
f 1617/13/5 1613/13/5 1616/13/5
f 1618/13/5 1615/13/5 1614/13/5
f 1619/13/5 1615/13/5 1618/13/5
f 1620/13/5 1618/13/5 1617/13/5
f 1621/13/5 1618/13/5 1620/13/5
f 1624/13/5 1623/13/5 1622/13/5
f 1625/13/5 1623/13/5 1624/13/5
f 1629/13/5 1627/13/5 1626/13/5
f 1630/13/5 1627/13/5 1629/13/5
f 1632/13/5 1629/13/5 1628/13/5
f 1633/13/5 1629/13/5 1632/13/5
f 1634/13/5 1631/13/5 1630/13/5
f 1635/13/5 1631/13/5 1634/13/5
f 1636/13/5 1634/13/5 1633/13/5
f 1637/13/5 1634/13/5 1636/13/5
f 1638/5/6 1639/5/6 1641/5/6
f 1641/5/6 1639/5/6 1642/5/6
f 1642/5/6 1639/5/6 1643/5/6
f 1643/5/6 1639/5/6 1644/5/6
f 1644/5/6 1639/5/6 1645/5/6
f 1645/5/6 1639/5/6 1646/5/6
f 1640/4/6 1641/4/6 1648/4/6
f 1641/4/6 1642/4/6 1648/4/6
f 1648/4/6 1642/4/6 1649/4/6
f 1646/4/6 1647/4/6 1650/4/6
f 1645/4/6 1646/4/6 1650/4/6
f 1650/4/6 1647/4/6 1651/4/6
f 1651/4/6 1647/4/6 1652/4/6
f 1648/5/6 1649/5/6 1653/5/6
f 1653/5/6 1649/5/6 1654/5/6
f 1650/5/6 1651/5/6 1655/5/6
f 1655/5/6 1651/5/6 1656/5/6
f 1653/4/6 1654/4/6 1658/4/6
f 1658/4/6 1654/4/6 1659/4/6
f 1656/4/6 1657/4/6 1660/4/6
f 1655/4/6 1656/4/6 1660/4/6
f 1660/4/6 1657/4/6 1661/4/6
f 1658/5/6 1659/5/6 1662/5/6
f 1662/5/6 1659/5/6 1663/5/6
f 1660/5/6 1661/5/6 1664/5/6
f 1664/5/6 1661/5/6 1665/5/6
f 1662/4/6 1663/4/6 1666/4/6
f 1666/4/6 1663/4/6 1667/4/6
f 1664/4/6 1665/4/6 1668/4/6
f 1668/4/6 1665/4/6 1669/4/6
f 1666/5/6 1667/5/6 1670/5/6
f 1670/5/6 1667/5/6 1671/5/6
f 1668/5/6 1669/5/6 1672/5/6
f 1672/5/6 1669/5/6 1673/5/6
f 1673/5/6 1669/5/6 1674/5/6
f 1670/4/6 1671/4/6 1675/4/6
f 1675/4/6 1671/4/6 1676/4/6
f 1672/4/6 1673/4/6 1681/4/6
f 1681/4/6 1673/4/6 1682/4/6
f 1675/5/6 1676/5/6 1684/5/6
f 1684/5/6 1676/5/6 1685/5/6
f 1679/4/6 1680/4/6 1688/4/6
f 1677/4/6 1678/4/6 1688/4/6
f 1678/4/6 1679/4/6 1688/4/6
f 1688/4/6 1680/4/6 1689/4/6
f 1682/5/6 1683/5/6 1692/5/6
f 1681/5/6 1682/5/6 1692/5/6
f 1692/5/6 1683/5/6 1693/5/6
f 1684/4/6 1685/4/6 1694/4/6
f 1685/5/6 1686/5/6 1695/5/6
f 1694/4/6 1685/4/6 1695/4/6
f 1686/10/6 1687/10/6 1696/10/6
f 1689/11/6 1690/11/6 1696/11/6
f 1687/11/6 1688/11/6 1696/11/6
f 1688/11/6 1689/11/6 1696/11/6
f 1690/10/6 1691/10/6 1697/10/6
f 1696/11/6 1690/11/6 1697/11/6
f 1692/4/6 1693/4/6 1698/4/6
f 1691/5/6 1692/5/6 1698/5/6
f 1698/4/6 1693/4/6 1699/4/6
f 1694/5/6 1695/5/6 1700/5/6
f 1695/5/6 1686/5/6 1701/5/6
f 1700/5/6 1695/5/6 1701/5/6
f 1686/10/6 1696/10/6 1702/10/6
f 1696/4/6 1697/4/6 1702/4/6
f 1702/4/6 1697/4/6 1703/4/6
f 1703/4/6 1697/4/6 1704/4/6
f 1704/4/6 1697/4/6 1705/4/6
f 1705/4/6 1697/4/6 1706/4/6
f 1697/10/6 1691/10/6 1707/10/6
f 1706/4/6 1697/4/6 1707/4/6
f 1691/5/6 1698/5/6 1708/5/6
f 1698/5/6 1699/5/6 1708/5/6
f 1708/5/6 1699/5/6 1709/5/6
f 1700/4/6 1701/4/6 1710/4/6
f 1701/5/6 1686/5/6 1711/5/6
f 1710/4/6 1701/4/6 1711/4/6
f 1686/10/6 1702/10/6 1712/10/6
f 1702/11/6 1703/11/6 1712/11/6
f 1712/11/6 1703/11/6 1713/11/6
f 1704/11/6 1705/11/6 1714/11/6
f 1714/11/6 1705/11/6 1715/11/6
f 1706/11/6 1707/11/6 1716/11/6
f 1707/10/6 1691/10/6 1717/10/6
f 1716/11/6 1707/11/6 1717/11/6
f 1708/4/6 1709/4/6 1718/4/6
f 1691/5/6 1708/5/6 1718/5/6
f 1718/4/6 1709/4/6 1719/4/6
f 1710/5/6 1711/5/6 1720/5/6
f 1720/5/6 1711/5/6 1721/5/6
f 1711/5/6 1686/5/6 1722/5/6
f 1721/5/6 1711/5/6 1722/5/6
f 1715/4/6 1716/4/6 1723/4/6
f 1714/4/6 1715/4/6 1723/4/6
f 1716/4/6 1717/4/6 1723/4/6
f 1712/4/6 1713/4/6 1723/4/6
f 1686/10/6 1712/10/6 1723/10/6
f 1713/4/6 1714/4/6 1723/4/6
f 1717/10/6 1691/10/6 1724/10/6
f 1723/4/6 1717/4/6 1724/4/6
f 1718/5/6 1719/5/6 1725/5/6
f 1691/5/6 1718/5/6 1725/5/6
f 1725/5/6 1719/5/6 1726/5/6
f 1726/5/6 1719/5/6 1727/5/6
f 1721/4/6 1722/4/6 1728/4/6
f 1722/5/6 1686/5/6 1729/5/6
f 1728/4/6 1722/4/6 1729/4/6
f 1686/10/6 1723/10/6 1730/10/6
f 1729/5/6 1686/5/6 1730/5/6
f 1723/11/6 1724/11/6 1731/11/6
f 1730/10/6 1723/10/6 1731/10/6
f 1724/10/6 1691/10/6 1732/10/6
f 1731/11/6 1724/11/6 1732/11/6
f 1691/5/6 1725/5/6 1733/5/6
f 1732/10/6 1691/10/6 1733/10/6
f 1725/4/6 1726/4/6 1734/4/6
f 1733/5/6 1725/5/6 1734/5/6
f 1734/4/6 1726/4/6 1735/4/6
f 1736/5/6 1737/5/6 1740/5/6
f 1740/5/6 1737/5/6 1741/5/6
f 1738/5/6 1739/5/6 1746/5/6
f 1746/5/6 1739/5/6 1747/5/6
f 1742/5/6 1743/5/6 1748/5/6
f 1748/5/6 1743/5/6 1749/5/6
f 1744/5/6 1745/5/6 1750/5/6
f 1750/5/6 1745/5/6 1751/5/6
f 1752/5/6 1753/5/6 1754/5/6
f 1754/5/6 1753/5/6 1755/5/6
f 1756/5/6 1757/5/6 1758/5/6
f 1758/5/6 1757/5/6 1759/5/6
f 1758/4/6 1759/4/6 1760/4/6
f 1760/4/6 1759/4/6 1761/4/6
f 1760/5/6 1761/5/6 1762/5/6
f 1762/5/6 1761/5/6 1763/5/6
f 1762/4/6 1763/4/6 1764/4/6
f 1764/4/6 1763/4/6 1765/4/6
f 1764/5/6 1765/5/6 1766/5/6
f 1766/5/6 1765/5/6 1767/5/6
f 1766/4/6 1767/4/6 1768/4/6
f 1768/4/6 1767/4/6 1769/4/6
f 1770/3/6 1771/3/6 1774/3/6
f 1772/3/6 1773/3/6 1775/3/6
f 1770/3/6 1774/3/6 1776/3/6
f 1774/3/6 1775/3/6 1776/3/6
f 1775/3/6 1773/3/6 1777/3/6
f 1776/3/6 1775/3/6 1777/3/6
f 1778/3/6 1779/3/6 1780/3/6
f 1780/3/6 1779/3/6 1781/3/6
f 1782/3/6 1783/3/6 1791/3/6
f 1791/3/6 1783/3/6 1792/3/6
f 1784/3/6 1785/3/6 1793/3/6
f 1793/3/6 1785/3/6 1794/3/6
f 1786/3/6 1787/3/6 1795/3/6
f 1795/3/6 1787/3/6 1796/3/6
f 1788/3/6 1789/3/6 1797/3/6
f 1797/3/6 1789/3/6 1798/3/6
f 1790/3/6 1791/3/6 1800/3/6
f 1800/3/6 1791/3/6 1801/3/6
f 1798/3/6 1799/3/6 1812/3/6
f 1812/3/6 1799/3/6 1813/3/6
f 1801/3/6 1802/3/6 1814/3/6
f 1814/3/6 1802/3/6 1815/3/6
f 1803/2/6 1804/2/6 1816/2/6
f 1816/2/6 1804/2/6 1817/2/6
f 1805/2/6 1806/2/6 1818/2/6
f 1818/2/6 1806/2/6 1819/2/6
f 1807/2/6 1808/2/6 1820/2/6
f 1820/2/6 1808/2/6 1821/2/6
f 1809/2/6 1810/2/6 1822/2/6
f 1822/2/6 1810/2/6 1823/2/6
f 1811/3/6 1812/3/6 1824/3/6
f 1824/3/6 1812/3/6 1825/3/6
f 1826/3/6 1827/3/6 1831/3/6
f 1831/3/6 1827/3/6 1832/3/6
f 1828/3/6 1829/3/6 1833/3/6
f 1833/3/6 1829/3/6 1834/3/6
f 1830/3/6 1831/3/6 1836/3/6
f 1836/3/6 1831/3/6 1837/3/6
f 1834/3/6 1835/3/6 1840/3/6
f 1840/3/6 1835/3/6 1841/3/6
f 1837/3/6 1838/3/6 1842/3/6
f 1842/3/6 1838/3/6 1843/3/6
f 1839/3/6 1840/3/6 1844/3/6
f 1844/3/6 1840/3/6 1845/3/6
f 1846/3/6 1847/3/6 1851/3/6
f 1851/3/6 1847/3/6 1852/3/6
f 1848/3/6 1849/3/6 1853/3/6
f 1853/3/6 1849/3/6 1854/3/6
f 1850/3/6 1851/3/6 1856/3/6
f 1856/3/6 1851/3/6 1857/3/6
f 1854/3/6 1855/3/6 1860/3/6
f 1860/3/6 1855/3/6 1861/3/6
f 1857/3/6 1858/3/6 1862/3/6
f 1862/3/6 1858/3/6 1863/3/6
f 1859/3/6 1860/3/6 1864/3/6
f 1864/3/6 1860/3/6 1865/3/6
f 1866/3/6 1867/3/6 1870/3/6
f 1870/3/6 1867/3/6 1871/3/6
f 1868/3/6 1869/3/6 1872/3/6
f 1872/3/6 1869/3/6 1873/3/6
f 1874/3/6 1875/3/6 1879/3/6
f 1879/3/6 1875/3/6 1880/3/6
f 1876/3/6 1877/3/6 1881/3/6
f 1881/3/6 1877/3/6 1882/3/6
f 1878/3/6 1879/3/6 1884/3/6
f 1884/3/6 1879/3/6 1885/3/6
f 1878/3/6 1884/3/6 1886/3/6
f 1887/15/6 1888/15/6 1889/15/6
f 1889/15/6 1888/15/6 1890/15/6
f 1878/3/6 1886/3/6 1891/3/6
f 1878/3/6 1891/3/6 1893/3/6
f 1891/3/6 1892/3/6 1893/3/6
f 1893/3/6 1892/3/6 1894/3/6
f 1882/3/6 1883/3/6 1897/3/6
f 1897/3/6 1883/3/6 1898/3/6
f 1894/3/6 1895/3/6 1899/3/6
f 1899/3/6 1895/3/6 1900/3/6
f 1896/3/6 1897/3/6 1901/3/6
f 1901/3/6 1897/3/6 1902/3/6
f 1903/3/6 1904/3/6 1912/3/6
f 1912/3/6 1904/3/6 1913/3/6
f 1905/3/6 1906/3/6 1914/3/6
f 1914/3/6 1906/3/6 1915/3/6
f 1907/3/6 1908/3/6 1916/3/6
f 1916/3/6 1908/3/6 1917/3/6
f 1909/3/6 1910/3/6 1918/3/6
f 1918/3/6 1910/3/6 1919/3/6
f 1911/3/6 1912/3/6 1921/3/6
f 1921/3/6 1912/3/6 1922/3/6
f 1923/15/6 1924/15/6 1925/15/6
f 1925/15/6 1924/15/6 1926/15/6
f 1927/3/6 1928/3/6 1929/3/6
f 1929/3/6 1928/3/6 1930/3/6
f 1919/3/6 1920/3/6 1933/3/6
f 1933/3/6 1920/3/6 1934/3/6
f 1930/3/6 1931/3/6 1935/3/6
f 1935/3/6 1931/3/6 1936/3/6
f 1932/3/6 1933/3/6 1937/3/6
f 1937/3/6 1933/3/6 1938/3/6
f 1939/3/6 1940/3/6 1944/3/6
f 1944/3/6 1940/3/6 1945/3/6
f 1941/3/6 1942/3/6 1946/3/6
f 1946/3/6 1942/3/6 1947/3/6
f 1943/3/6 1944/3/6 1949/3/6
f 1949/3/6 1944/3/6 1950/3/6
f 1951/3/6 1952/3/6 1953/3/6
f 1953/3/6 1952/3/6 1954/3/6
f 1947/3/6 1948/3/6 1957/3/6
f 1957/3/6 1948/3/6 1958/3/6
f 1954/3/6 1955/3/6 1959/3/6
f 1959/3/6 1955/3/6 1960/3/6
f 1956/3/6 1957/3/6 1961/3/6
f 1961/3/6 1957/3/6 1962/3/6
f 1963/3/6 1964/3/6 1968/3/6
f 1968/3/6 1964/3/6 1969/3/6
f 1965/3/6 1966/3/6 1970/3/6
f 1970/3/6 1966/3/6 1971/3/6
f 1967/3/6 1968/3/6 1973/3/6
f 1973/3/6 1968/3/6 1974/3/6
f 1974/3/6 1968/3/6 1975/3/6
f 1975/3/6 1968/3/6 1976/3/6
f 1976/3/6 1968/3/6 1977/3/6
f 1977/3/6 1968/3/6 1978/3/6
f 1971/3/6 1972/3/6 1981/3/6
f 1981/3/6 1972/3/6 1982/3/6
f 1978/3/6 1979/3/6 1983/3/6
f 1983/3/6 1979/3/6 1984/3/6
f 1980/3/6 1981/3/6 1985/3/6
f 1985/3/6 1981/3/6 1986/3/6
f 1987/3/6 1988/3/6 1991/3/6
f 1991/3/6 1988/3/6 1992/3/6
f 1989/3/6 1990/3/6 1995/3/6
f 1995/3/6 1990/3/6 1996/3/6
f 1992/3/6 1993/3/6 1997/3/6
f 1997/3/6 1993/3/6 1998/3/6
f 1994/3/6 1995/3/6 1999/3/6
f 1999/3/6 1995/3/6 2000/3/6
f 2001/2/6 2002/2/6 2003/2/6
f 2003/2/6 2002/2/6 2004/2/6
f 2004/2/6 2002/2/6 2005/2/6
f 2005/2/6 2002/2/6 2006/2/6
f 2007/18/6 2008/18/6 2009/18/6
f 2009/18/6 2008/18/6 2010/18/6
f 2003/3/6 2004/3/6 2011/3/6
f 2011/3/6 2004/3/6 2012/3/6
f 2005/3/6 2006/3/6 2013/3/6
f 2013/3/6 2006/3/6 2014/3/6
f 2012/3/6 2013/3/6 2015/3/6
f 2015/3/6 2013/3/6 2016/3/6
f 2017/19/6 2018/19/6 2020/19/6
f 2018/19/6 2019/19/6 2020/19/6
f 2020/19/6 2019/19/6 2021/19/6
f 2021/19/6 2019/19/6 2022/19/6
f 2020/19/6 2021/19/6 2023/19/6
f 2023/19/6 2021/19/6 2024/19/6
f 2022/19/6 2019/19/6 2025/19/6
f 2023/19/6 2024/19/6 2026/19/6
f 2024/19/6 2025/19/6 2026/19/6
f 2025/19/6 2019/19/6 2027/19/6
f 2026/19/6 2025/19/6 2027/19/6
f 2027/19/6 2019/19/6 2028/19/6
f 2029/3/6 2030/3/6 2031/3/6
f 2031/3/6 2030/3/6 2032/3/6
f 2033/14/6 2034/14/6 2037/14/6
f 2034/16/6 2035/16/6 2038/16/6
f 2037/14/6 2034/14/6 2038/14/6
f 2035/17/6 2036/17/6 2039/17/6
f 2038/16/6 2035/16/6 2039/16/6
f 2039/17/6 2036/17/6 2040/17/6
f 2040/17/6 2036/17/6 2041/17/6
f 2037/16/6 2038/16/6 2042/16/6
f 2040/16/6 2041/16/6 2043/16/6
f 2043/16/6 2041/16/6 2044/16/6
f 2037/16/6 2042/16/6 2045/16/6
f 2042/16/6 2043/16/6 2045/16/6
f 2043/14/6 2044/14/6 2046/14/6
f 2045/16/6 2043/16/6 2046/16/6
f 2046/14/6 2044/14/6 2047/14/6
f 2048/13/6 2049/13/6 2051/13/6
f 2051/13/6 2049/13/6 2052/13/6
f 2050/13/6 2051/13/6 2054/13/6
f 2054/13/6 2051/13/6 2055/13/6
f 2052/13/6 2053/13/6 2056/13/6
f 2056/13/6 2053/13/6 2057/13/6
f 2055/13/6 2056/13/6 2058/13/6
f 2058/13/6 2056/13/6 2059/13/6
f 2060/13/6 2061/13/6 2062/13/6
f 2062/13/6 2061/13/6 2063/13/6
f 2064/13/6 2065/13/6 2067/13/6
f 2067/13/6 2065/13/6 2068/13/6
f 2066/13/6 2067/13/6 2070/13/6
f 2070/13/6 2067/13/6 2071/13/6
f 2068/13/6 2069/13/6 2072/13/6
f 2072/13/6 2069/13/6 2073/13/6
f 2071/13/6 2072/13/6 2074/13/6
f 2074/13/6 2072/13/6 2075/13/6
f 2076/13/6 2077/13/6 2078/13/6
f 2078/13/6 2077/13/6 2079/13/6
f 2080/13/6 2081/13/6 2083/13/6
f 2083/13/6 2081/13/6 2084/13/6
f 2082/13/6 2083/13/6 2086/13/6
f 2086/13/6 2083/13/6 2087/13/6
f 2084/13/6 2085/13/6 2088/13/6
f 2088/13/6 2085/13/6 2089/13/6
f 2087/13/6 2088/13/6 2090/13/6
f 2090/13/6 2088/13/6 2091/13/6
f 2092/13/6 2093/13/6 2094/13/6
f 2094/13/6 2093/13/6 2095/13/6
