# MagicaVoxel @ Ephtracy

# group
o 

# material
mtllib cola pez.mtl
usemtl palette

# normals
vn -1 0 0
vn 1 0 0
vn 0 0 1
vn 0 0 -1
vn 0 -1 0
vn 0 1 0

# texcoords
vt 0.455078 0.5
vt 0.802734 0.5

# verts
v -0.5 0.6 0.4
v -0.5 0.6 0.2
v -0.5 0.6 0.1
v -0.5 0.6 -0.1
v -0.5 0.7 0.4
v -0.5 0.7 0.2
v -0.5 0.7 0.1
v -0.5 0.7 -0.1
v -0.4 0.6 0.2
v -0.4 0.6 0.1
v -0.4 0.7 0.2
v -0.4 0.7 0.1
v -0.3 0.6 0.3
v -0.3 0.6 0.2
v -0.3 0.6 0.1
v -0.3 0.6 0
v -0.3 0.7 0.3
v -0.3 0.7 0.2
v -0.3 0.7 0.1
v -0.3 0.7 0
v -0.2 0.6 0.4
v -0.2 0.6 0.3
v -0.2 0.6 0
v -0.2 0.6 -0.1
v -0.2 0.7 0.4
v -0.2 0.7 0.3
v -0.2 0.7 0
v -0.2 0.7 -0.1
v -0.2 0.8 0.3
v -0.2 0.8 0
v -0.4 0.6 0.4
v -0.4 0.6 0.2
v -0.4 0.6 0.1
v -0.4 0.6 -0.1
v -0.4 0.7 0.4
v -0.4 0.7 0.2
v -0.4 0.7 0.1
v -0.4 0.7 -0.1
v -0.1 0.6 0.4
v -0.1 0.6 0.3
v -0.1 0.6 0
v -0.1 0.6 -0.1
v -0.1 0.7 0.4
v -0.1 0.7 0.3
v -0.1 0.7 0
v -0.1 0.7 -0.1
v -0.1 0.8 0.3
v -0.1 0.8 0
v -0.5 0.6 0.4
v -0.5 0.7 0.4
v -0.4 0.6 0.4
v -0.4 0.7 0.4
v -0.2 0.6 0.4
v -0.2 0.7 0.4
v -0.1 0.6 0.4
v -0.1 0.7 0.4
v -0.3 0.6 0.3
v -0.3 0.7 0.3
v -0.2 0.6 0.3
v -0.2 0.7 0.3
v -0.2 0.8 0.3
v -0.1 0.7 0.3
v -0.1 0.8 0.3
v -0.4 0.6 0.2
v -0.4 0.7 0.2
v -0.3 0.6 0.2
v -0.3 0.7 0.2
v -0.5 0.6 0.1
v -0.5 0.7 0.1
v -0.4 0.6 0.1
v -0.4 0.7 0.1
v -0.5 0.6 0.2
v -0.5 0.7 0.2
v -0.4 0.6 0.2
v -0.4 0.7 0.2
v -0.4 0.6 0.1
v -0.4 0.7 0.1
v -0.3 0.6 0.1
v -0.3 0.7 0.1
v -0.3 0.6 0
v -0.3 0.7 0
v -0.2 0.6 0
v -0.2 0.7 0
v -0.2 0.8 0
v -0.1 0.7 0
v -0.1 0.8 0
v -0.5 0.6 -0.1
v -0.5 0.7 -0.1
v -0.4 0.6 -0.1
v -0.4 0.7 -0.1
v -0.2 0.6 -0.1
v -0.2 0.7 -0.1
v -0.1 0.6 -0.1
v -0.1 0.7 -0.1
v -0.5 0.6 0.4
v -0.4 0.6 0.4
v -0.2 0.6 0.4
v -0.1 0.6 0.4
v -0.3 0.6 0.3
v -0.2 0.6 0.3
v -0.1 0.6 0.3
v -0.5 0.6 0.2
v -0.4 0.6 0.2
v -0.3 0.6 0.2
v -0.5 0.6 0.1
v -0.4 0.6 0.1
v -0.3 0.6 0.1
v -0.3 0.6 0
v -0.2 0.6 0
v -0.1 0.6 0
v -0.5 0.6 -0.1
v -0.4 0.6 -0.1
v -0.2 0.6 -0.1
v -0.1 0.6 -0.1
v -0.5 0.7 0.4
v -0.4 0.7 0.4
v -0.2 0.7 0.4
v -0.1 0.7 0.4
v -0.3 0.7 0.3
v -0.2 0.7 0.3
v -0.1 0.7 0.3
v -0.5 0.7 0.2
v -0.4 0.7 0.2
v -0.3 0.7 0.2
v -0.5 0.7 0.1
v -0.4 0.7 0.1
v -0.3 0.7 0.1
v -0.3 0.7 0
v -0.2 0.7 0
v -0.1 0.7 0
v -0.5 0.7 -0.1
v -0.4 0.7 -0.1
v -0.2 0.7 -0.1
v -0.1 0.7 -0.1
v -0.2 0.8 0.3
v -0.1 0.8 0.3
v -0.2 0.8 0
v -0.1 0.8 0

# faces
f 5/2/1 2/2/1 1/2/1
f 6/2/1 2/2/1 5/2/1
f 7/2/1 4/2/1 3/2/1
f 8/2/1 4/2/1 7/2/1
f 11/2/1 10/2/1 9/2/1
f 12/2/1 10/2/1 11/2/1
f 17/2/1 14/2/1 13/2/1
f 18/2/1 14/2/1 17/2/1
f 19/2/1 16/2/1 15/2/1
f 20/2/1 16/2/1 19/2/1
f 25/2/1 22/2/1 21/2/1
f 26/2/1 22/2/1 25/2/1
f 27/2/1 24/2/1 23/2/1
f 28/2/1 24/2/1 27/2/1
f 29/2/1 27/2/1 26/2/1
f 30/2/1 27/2/1 29/2/1
f 31/2/2 32/2/2 35/2/2
f 35/2/2 32/2/2 36/2/2
f 33/2/2 34/2/2 37/2/2
f 37/2/2 34/2/2 38/2/2
f 39/2/2 40/2/2 43/2/2
f 40/1/2 41/1/2 44/1/2
f 43/2/2 40/2/2 44/2/2
f 41/2/2 42/2/2 45/2/2
f 44/1/2 41/1/2 45/1/2
f 45/2/2 42/2/2 46/2/2
f 44/2/2 45/2/2 47/2/2
f 47/2/2 45/2/2 48/2/2
f 51/2/3 50/2/3 49/2/3
f 52/2/3 50/2/3 51/2/3
f 55/2/3 54/2/3 53/2/3
f 56/2/3 54/2/3 55/2/3
f 59/2/3 58/2/3 57/2/3
f 60/2/3 58/2/3 59/2/3
f 62/2/3 61/2/3 60/2/3
f 63/2/3 61/2/3 62/2/3
f 66/2/3 65/2/3 64/2/3
f 67/2/3 65/2/3 66/2/3
f 70/2/3 69/2/3 68/2/3
f 71/2/3 69/2/3 70/2/3
f 72/2/4 73/2/4 74/2/4
f 74/2/4 73/2/4 75/2/4
f 76/2/4 77/2/4 78/2/4
f 78/2/4 77/2/4 79/2/4
f 80/2/4 81/2/4 82/2/4
f 82/2/4 81/2/4 83/2/4
f 83/2/4 84/2/4 85/2/4
f 85/2/4 84/2/4 86/2/4
f 87/2/4 88/2/4 89/2/4
f 89/2/4 88/2/4 90/2/4
f 91/2/4 92/2/4 93/2/4
f 93/2/4 92/2/4 94/2/4
f 100/2/5 98/2/5 97/2/5
f 101/2/5 98/2/5 100/2/5
f 102/2/5 96/2/5 95/2/5
f 103/2/5 96/2/5 102/2/5
f 104/2/5 100/2/5 99/2/5
f 106/2/5 104/2/5 103/2/5
f 107/2/5 100/2/5 104/2/5
f 107/2/5 104/2/5 106/2/5
f 108/2/5 100/2/5 107/2/5
f 109/1/5 101/1/5 100/1/5
f 109/2/5 100/2/5 108/2/5
f 110/1/5 101/1/5 109/1/5
f 111/2/5 106/2/5 105/2/5
f 112/2/5 106/2/5 111/2/5
f 113/2/5 110/2/5 109/2/5
f 114/2/5 110/2/5 113/2/5
f 117/2/6 118/2/6 120/2/6
f 120/2/6 118/2/6 121/2/6
f 115/2/6 116/2/6 122/2/6
f 122/2/6 116/2/6 123/2/6
f 119/2/6 120/2/6 124/2/6
f 123/2/6 124/2/6 126/2/6
f 124/2/6 120/2/6 127/2/6
f 126/2/6 124/2/6 127/2/6
f 127/2/6 120/2/6 128/2/6
f 128/2/6 120/2/6 129/2/6
f 125/2/6 126/2/6 131/2/6
f 131/2/6 126/2/6 132/2/6
f 129/2/6 130/2/6 133/2/6
f 133/2/6 130/2/6 134/2/6
f 135/2/6 136/2/6 137/2/6
f 137/2/6 136/2/6 138/2/6
