# MagicaVoxel @ Ephtracy

# group
o 

# material
mtllib cuchillo.mtl
usemtl palette

# normals
vn -1 0 0
vn 1 0 0
vn 0 0 1
vn 0 0 -1
vn 0 -1 0
vn 0 1 0

# texcoords
vt 0.458984 0.5
vt 0.724609 0.5
vt 0.732422 0.5
vt 0.888672 0.5

# verts
v 1.9 1.6 -5.96046e-08
v 1.9 1.6 -0.1
v 1.9 1.6 -0.2
v 1.9 1.7 0.0999999
v 1.9 1.7 -5.96046e-08
v 1.9 1.7 -0.1
v 1.9 1.8 0.2
v 1.9 1.8 0.0999999
v 1.9 1.8 -5.96046e-08
v 1.9 1.8 -0.1
v 1.9 1.8 -0.2
v 1.9 1.9 0.5
v 1.9 1.9 0.4
v 1.9 1.9 0.3
v 1.9 1.9 0.2
v 1.9 1.9 0.0999999
v 1.9 1.9 -5.96046e-08
v 1.9 1.9 -0.1
v 1.9 2 0.5
v 1.9 2 0.4
v 1.9 2 0.3
v 1.9 2 0.2
v 1.9 2 0.0999999
v 1.9 2 -5.96046e-08
v 1.9 2.1 0.5
v 1.9 2.1 0.4
v 1.9 2.1 0.3
v 1.9 2.1 0.2
v 1.9 2.1 0.0999999
v 1.9 2.2 0.6
v 1.9 2.2 0.5
v 1.9 2.2 0.4
v 1.9 2.2 0.3
v 1.9 2.2 0.2
v 1.9 2.2 0.0999999
v 1.9 2.3 0.4
v 1.9 2.3 0.3
v 1.9 2.3 0.2
v 1.9 2.3 0.0999999
v 1.9 2.4 0.6
v 1.9 2.4 0.4
v 2 1.6 -5.96046e-08
v 2 1.6 -0.1
v 2 1.6 -0.2
v 2 1.7 0.0999999
v 2 1.7 -5.96046e-08
v 2 1.7 -0.1
v 2 1.8 0.2
v 2 1.8 0.0999999
v 2 1.8 -5.96046e-08
v 2 1.8 -0.1
v 2 1.8 -0.2
v 2 1.9 0.5
v 2 1.9 0.4
v 2 1.9 0.3
v 2 1.9 0.2
v 2 1.9 0.0999999
v 2 1.9 -5.96046e-08
v 2 1.9 -0.1
v 2 2 0.5
v 2 2 0.4
v 2 2 0.3
v 2 2 0.2
v 2 2 0.0999999
v 2 2 -5.96046e-08
v 2 2.1 0.5
v 2 2.1 0.4
v 2 2.1 0.3
v 2 2.1 0.2
v 2 2.1 0.0999999
v 2 2.2 0.6
v 2 2.2 0.5
v 2 2.2 0.4
v 2 2.2 0.3
v 2 2.2 0.2
v 2 2.2 0.0999999
v 2 2.3 0.4
v 2 2.3 0.3
v 2 2.3 0.2
v 2 2.3 0.0999999
v 2 2.4 0.6
v 2 2.4 0.4
v 1.9 2.2 0.6
v 1.9 2.4 0.6
v 2 2.2 0.6
v 2 2.4 0.6
v 1.9 1.9 0.5
v 1.9 2 0.5
v 1.9 2.1 0.5
v 1.9 2.2 0.5
v 2 1.9 0.5
v 2 2 0.5
v 2 2.1 0.5
v 2 2.2 0.5
v 1.9 2 0.4
v 1.9 2.1 0.4
v 2 2 0.4
v 2 2.1 0.4
v 1.9 1.9 0.3
v 1.9 2 0.3
v 2 1.9 0.3
v 2 2 0.3
v 1.9 1.8 0.2
v 1.9 1.9 0.2
v 1.9 2.2 0.2
v 1.9 2.3 0.2
v 2 1.8 0.2
v 2 1.9 0.2
v 2 2.2 0.2
v 2 2.3 0.2
v 1.9 1.7 0.0999999
v 1.9 1.8 0.0999999
v 2 1.7 0.0999999
v 2 1.8 0.0999999
v 1.9 1.6 -5.96046e-08
v 1.9 1.7 -5.96046e-08
v 2 1.6 -5.96046e-08
v 2 1.7 -5.96046e-08
v 1.9 1.9 0.4
v 1.9 2 0.4
v 1.9 2.3 0.4
v 1.9 2.4 0.4
v 2 1.9 0.4
v 2 2 0.4
v 2 2.3 0.4
v 2 2.4 0.4
v 1.9 2.2 0.3
v 1.9 2.3 0.3
v 2 2.2 0.3
v 2 2.3 0.3
v 1.9 2.1 0.2
v 1.9 2.2 0.2
v 2 2.1 0.2
v 2 2.2 0.2
v 1.9 2 0.0999999
v 1.9 2.1 0.0999999
v 1.9 2.2 0.0999999
v 1.9 2.3 0.0999999
v 2 2 0.0999999
v 2 2.1 0.0999999
v 2 2.2 0.0999999
v 2 2.3 0.0999999
v 1.9 1.9 -5.96046e-08
v 1.9 2 -5.96046e-08
v 2 1.9 -5.96046e-08
v 2 2 -5.96046e-08
v 1.9 1.8 -0.1
v 1.9 1.9 -0.1
v 2 1.8 -0.1
v 2 1.9 -0.1
v 1.9 1.6 -0.2
v 1.9 1.8 -0.2
v 2 1.6 -0.2
v 2 1.8 -0.2
v 1.9 1.6 -5.96046e-08
v 2 1.6 -5.96046e-08
v 1.9 1.6 -0.1
v 2 1.6 -0.1
v 1.9 1.6 -0.2
v 2 1.6 -0.2
v 1.9 1.7 0.0999999
v 2 1.7 0.0999999
v 1.9 1.7 -5.96046e-08
v 2 1.7 -5.96046e-08
v 1.9 1.8 0.2
v 2 1.8 0.2
v 1.9 1.8 0.0999999
v 2 1.8 0.0999999
v 1.9 1.9 0.5
v 2 1.9 0.5
v 1.9 1.9 0.4
v 2 1.9 0.4
v 1.9 1.9 0.3
v 2 1.9 0.3
v 1.9 1.9 0.2
v 2 1.9 0.2
v 1.9 2 0.4
v 2 2 0.4
v 1.9 2 0.3
v 2 2 0.3
v 1.9 2.1 0.5
v 2 2.1 0.5
v 1.9 2.1 0.4
v 2 2.1 0.4
v 1.9 2.2 0.6
v 2 2.2 0.6
v 1.9 2.2 0.5
v 2 2.2 0.5
v 1.9 2.2 0.2
v 2 2.2 0.2
v 1.9 2.2 0.0999999
v 2 2.2 0.0999999
v 1.9 1.8 -0.1
v 2 1.8 -0.1
v 1.9 1.8 -0.2
v 2 1.8 -0.2
v 1.9 1.9 -5.96046e-08
v 2 1.9 -5.96046e-08
v 1.9 1.9 -0.1
v 2 1.9 -0.1
v 1.9 2 0.5
v 2 2 0.5
v 1.9 2 0.4
v 2 2 0.4
v 1.9 2 0.0999999
v 2 2 0.0999999
v 1.9 2 -5.96046e-08
v 2 2 -5.96046e-08
v 1.9 2.1 0.2
v 2 2.1 0.2
v 1.9 2.1 0.0999999
v 2 2.1 0.0999999
v 1.9 2.2 0.3
v 2 2.2 0.3
v 1.9 2.2 0.2
v 2 2.2 0.2
v 1.9 2.3 0.4
v 2 2.3 0.4
v 1.9 2.3 0.3
v 2 2.3 0.3
v 1.9 2.3 0.2
v 2 2.3 0.2
v 1.9 2.3 0.0999999
v 2 2.3 0.0999999
v 1.9 2.4 0.6
v 2 2.4 0.6
v 1.9 2.4 0.4
v 2 2.4 0.4

# faces
f 5/1/1 2/1/1 1/1/1
f 6/4/1 3/4/1 2/4/1
f 6/1/1 2/1/1 5/1/1
f 8/1/1 5/1/1 4/1/1
f 9/4/1 6/4/1 5/4/1
f 9/1/1 5/1/1 8/1/1
f 10/4/1 3/4/1 6/4/1
f 10/4/1 6/4/1 9/4/1
f 11/4/1 3/4/1 10/4/1
f 15/1/1 8/1/1 7/1/1
f 16/4/1 9/4/1 8/4/1
f 16/4/1 10/4/1 9/4/1
f 16/1/1 8/1/1 15/1/1
f 17/4/1 10/4/1 16/4/1
f 18/4/1 10/4/1 17/4/1
f 19/2/1 13/2/1 12/2/1
f 20/2/1 13/2/1 19/2/1
f 21/1/1 15/1/1 14/1/1
f 22/4/1 16/4/1 15/4/1
f 22/4/1 17/4/1 16/4/1
f 22/1/1 15/1/1 21/1/1
f 23/4/1 17/4/1 22/4/1
f 24/4/1 17/4/1 23/4/1
f 26/2/1 21/2/1 20/2/1
f 27/4/1 23/4/1 22/4/1
f 27/4/1 22/4/1 21/4/1
f 27/2/1 21/2/1 26/2/1
f 28/4/1 23/4/1 27/4/1
f 29/4/1 23/4/1 28/4/1
f 31/3/1 26/3/1 25/3/1
f 32/2/1 27/2/1 26/2/1
f 32/2/1 28/2/1 27/2/1
f 32/3/1 26/3/1 31/3/1
f 33/2/1 28/2/1 32/2/1
f 34/2/1 28/2/1 33/2/1
f 36/3/1 31/3/1 30/3/1
f 36/3/1 32/3/1 31/3/1
f 36/3/1 33/3/1 32/3/1
f 37/3/1 33/3/1 36/3/1
f 38/2/1 35/2/1 34/2/1
f 39/2/1 35/2/1 38/2/1
f 40/3/1 36/3/1 30/3/1
f 41/3/1 36/3/1 40/3/1
f 42/1/2 43/1/2 46/1/2
f 43/4/2 44/4/2 47/4/2
f 46/1/2 43/1/2 47/1/2
f 45/1/2 46/1/2 49/1/2
f 46/4/2 47/4/2 50/4/2
f 49/1/2 46/1/2 50/1/2
f 47/4/2 44/4/2 51/4/2
f 50/4/2 47/4/2 51/4/2
f 51/4/2 44/4/2 52/4/2
f 48/1/2 49/1/2 56/1/2
f 49/4/2 50/4/2 57/4/2
f 50/4/2 51/4/2 57/4/2
f 56/1/2 49/1/2 57/1/2
f 57/4/2 51/4/2 58/4/2
f 58/4/2 51/4/2 59/4/2
f 53/2/2 54/2/2 60/2/2
f 60/2/2 54/2/2 61/2/2
f 55/1/2 56/1/2 62/1/2
f 56/4/2 57/4/2 63/4/2
f 57/4/2 58/4/2 63/4/2
f 62/1/2 56/1/2 63/1/2
f 63/4/2 58/4/2 64/4/2
f 64/4/2 58/4/2 65/4/2
f 61/2/2 62/2/2 67/2/2
f 63/4/2 64/4/2 68/4/2
f 62/4/2 63/4/2 68/4/2
f 67/2/2 62/2/2 68/2/2
f 68/4/2 64/4/2 69/4/2
f 69/4/2 64/4/2 70/4/2
f 66/3/2 67/3/2 72/3/2
f 67/2/2 68/2/2 73/2/2
f 68/2/2 69/2/2 73/2/2
f 72/3/2 67/3/2 73/3/2
f 73/2/2 69/2/2 74/2/2
f 74/2/2 69/2/2 75/2/2
f 71/3/2 72/3/2 77/3/2
f 72/3/2 73/3/2 77/3/2
f 73/3/2 74/3/2 77/3/2
f 77/3/2 74/3/2 78/3/2
f 75/2/2 76/2/2 79/2/2
f 79/2/2 76/2/2 80/2/2
f 71/3/2 77/3/2 81/3/2
f 81/3/2 77/3/2 82/3/2
f 85/3/3 84/3/3 83/3/3
f 86/3/3 84/3/3 85/3/3
f 91/2/3 88/2/3 87/2/3
f 92/2/3 88/2/3 91/2/3
f 93/3/3 90/3/3 89/3/3
f 94/3/3 90/3/3 93/3/3
f 97/2/3 96/2/3 95/2/3
f 98/2/3 96/2/3 97/2/3
f 101/1/3 100/1/3 99/1/3
f 102/1/3 100/1/3 101/1/3
f 107/1/3 104/1/3 103/1/3
f 108/1/3 104/1/3 107/1/3
f 109/2/3 106/2/3 105/2/3
f 110/2/3 106/2/3 109/2/3
f 113/1/3 112/1/3 111/1/3
f 114/1/3 112/1/3 113/1/3
f 117/1/3 116/1/3 115/1/3
f 118/1/3 116/1/3 117/1/3
f 119/2/4 120/2/4 123/2/4
f 123/2/4 120/2/4 124/2/4
f 121/3/4 122/3/4 125/3/4
f 125/3/4 122/3/4 126/3/4
f 127/3/4 128/3/4 129/3/4
f 129/3/4 128/3/4 130/3/4
f 131/2/4 132/2/4 133/2/4
f 133/2/4 132/2/4 134/2/4
f 135/4/4 136/4/4 139/4/4
f 139/4/4 136/4/4 140/4/4
f 137/2/4 138/2/4 141/2/4
f 141/2/4 138/2/4 142/2/4
f 143/4/4 144/4/4 145/4/4
f 145/4/4 144/4/4 146/4/4
f 147/4/4 148/4/4 149/4/4
f 149/4/4 148/4/4 150/4/4
f 151/4/4 152/4/4 153/4/4
f 153/4/4 152/4/4 154/4/4
f 157/1/5 156/1/5 155/1/5
f 158/1/5 156/1/5 157/1/5
f 159/4/5 158/4/5 157/4/5
f 160/4/5 158/4/5 159/4/5
f 163/1/5 162/1/5 161/1/5
f 164/1/5 162/1/5 163/1/5
f 167/1/5 166/1/5 165/1/5
f 168/1/5 166/1/5 167/1/5
f 171/2/5 170/2/5 169/2/5
f 172/2/5 170/2/5 171/2/5
f 175/1/5 174/1/5 173/1/5
f 176/1/5 174/1/5 175/1/5
f 179/2/5 178/2/5 177/2/5
f 180/2/5 178/2/5 179/2/5
f 183/3/5 182/3/5 181/3/5
f 184/3/5 182/3/5 183/3/5
f 187/3/5 186/3/5 185/3/5
f 188/3/5 186/3/5 187/3/5
f 191/2/5 190/2/5 189/2/5
f 192/2/5 190/2/5 191/2/5
f 193/4/6 194/4/6 195/4/6
f 195/4/6 194/4/6 196/4/6
f 197/4/6 198/4/6 199/4/6
f 199/4/6 198/4/6 200/4/6
f 201/2/6 202/2/6 203/2/6
f 203/2/6 202/2/6 204/2/6
f 205/4/6 206/4/6 207/4/6
f 207/4/6 206/4/6 208/4/6
f 209/4/6 210/4/6 211/4/6
f 211/4/6 210/4/6 212/4/6
f 213/2/6 214/2/6 215/2/6
f 215/2/6 214/2/6 216/2/6
f 217/3/6 218/3/6 219/3/6
f 219/3/6 218/3/6 220/3/6
f 221/2/6 222/2/6 223/2/6
f 223/2/6 222/2/6 224/2/6
f 225/3/6 226/3/6 227/3/6
f 227/3/6 226/3/6 228/3/6
