# MagicaVoxel @ Ephtracy

# group
o 

# material
mtllib gusanos 3.mtl
usemtl palette

# normals
vn -1 0 0
vn 1 0 0
vn 0 0 1
vn 0 0 -1
vn 0 -1 0
vn 0 1 0

# texcoords
vt 0.412109 0.5
vt 0.416016 0.5

# verts
v 0.1 0.5 -0.2
v 0.1 0.5 -0.3
v 0.1 0.6 -0.2
v 0.1 0.6 -0.3
v 0.1 0.7 -0.2
v 0.1 0.7 -0.3
v 0.1 0.8 -0.2
v 0.1 0.8 -0.3
v 0.2 0.5 2.23517e-08
v 0.2 0.5 -0.1
v 0.2 0.6 2.23517e-08
v 0.2 0.6 -0.1
v 0.2 0.6 -0.2
v 0.2 0.7 -0.1
v 0.2 0.7 -0.2
v 0.2 0.8 -0.1
v 0.2 0.8 -0.2
v 0.2 0.5 -0.2
v 0.2 0.5 -0.3
v 0.2 0.6 -0.2
v 0.2 0.6 -0.3
v 0.2 0.7 -0.2
v 0.2 0.7 -0.3
v 0.2 0.8 -0.2
v 0.2 0.8 -0.3
v 0.3 0.5 2.23517e-08
v 0.3 0.5 -0.1
v 0.3 0.6 2.23517e-08
v 0.3 0.6 -0.1
v 0.3 0.6 -0.2
v 0.3 0.7 -0.1
v 0.3 0.7 -0.2
v 0.3 0.8 -0.1
v 0.3 0.8 -0.2
v 0.2 0.5 2.23517e-08
v 0.2 0.6 2.23517e-08
v 0.3 0.5 2.23517e-08
v 0.3 0.6 2.23517e-08
v 0.2 0.6 -0.1
v 0.2 0.7 -0.1
v 0.2 0.8 -0.1
v 0.3 0.6 -0.1
v 0.3 0.7 -0.1
v 0.3 0.8 -0.1
v 0.1 0.5 -0.2
v 0.1 0.6 -0.2
v 0.1 0.7 -0.2
v 0.1 0.8 -0.2
v 0.2 0.5 -0.2
v 0.2 0.6 -0.2
v 0.2 0.7 -0.2
v 0.2 0.8 -0.2
v 0.2 0.5 -0.1
v 0.2 0.6 -0.1
v 0.3 0.5 -0.1
v 0.3 0.6 -0.1
v 0.2 0.6 -0.2
v 0.2 0.7 -0.2
v 0.2 0.8 -0.2
v 0.3 0.6 -0.2
v 0.3 0.7 -0.2
v 0.3 0.8 -0.2
v 0.1 0.5 -0.3
v 0.1 0.6 -0.3
v 0.1 0.7 -0.3
v 0.1 0.8 -0.3
v 0.2 0.5 -0.3
v 0.2 0.6 -0.3
v 0.2 0.7 -0.3
v 0.2 0.8 -0.3
v 0.2 0.5 2.23517e-08
v 0.3 0.5 2.23517e-08
v 0.2 0.5 -0.1
v 0.3 0.5 -0.1
v 0.1 0.5 -0.2
v 0.2 0.5 -0.2
v 0.1 0.5 -0.3
v 0.2 0.5 -0.3
v 0.2 0.6 -0.1
v 0.3 0.6 -0.1
v 0.2 0.6 -0.2
v 0.3 0.6 -0.2
v 0.2 0.6 2.23517e-08
v 0.3 0.6 2.23517e-08
v 0.2 0.6 -0.1
v 0.3 0.6 -0.1
v 0.2 0.8 -0.1
v 0.3 0.8 -0.1
v 0.1 0.8 -0.2
v 0.2 0.8 -0.2
v 0.3 0.8 -0.2
v 0.1 0.8 -0.3
v 0.2 0.8 -0.3

# faces
f 3/2/1 2/2/1 1/2/1
f 4/2/1 2/2/1 3/2/1
f 5/1/1 4/1/1 3/1/1
f 6/1/1 4/1/1 5/1/1
f 7/2/1 6/2/1 5/2/1
f 8/2/1 6/2/1 7/2/1
f 11/1/1 10/1/1 9/1/1
f 12/1/1 10/1/1 11/1/1
f 14/2/1 13/2/1 12/2/1
f 15/2/1 13/2/1 14/2/1
f 16/1/1 15/1/1 14/1/1
f 17/1/1 15/1/1 16/1/1
f 18/2/2 19/2/2 20/2/2
f 20/2/2 19/2/2 21/2/2
f 20/1/2 21/1/2 22/1/2
f 22/1/2 21/1/2 23/1/2
f 22/2/2 23/2/2 24/2/2
f 24/2/2 23/2/2 25/2/2
f 26/1/2 27/1/2 28/1/2
f 28/1/2 27/1/2 29/1/2
f 29/2/2 30/2/2 31/2/2
f 31/2/2 30/2/2 32/2/2
f 31/1/2 32/1/2 33/1/2
f 33/1/2 32/1/2 34/1/2
f 37/1/3 36/1/3 35/1/3
f 38/1/3 36/1/3 37/1/3
f 42/2/3 40/2/3 39/2/3
f 43/1/3 41/1/3 40/1/3
f 43/2/3 40/2/3 42/2/3
f 44/1/3 41/1/3 43/1/3
f 49/2/3 46/2/3 45/2/3
f 50/1/3 47/1/3 46/1/3
f 50/2/3 46/2/3 49/2/3
f 51/2/3 48/2/3 47/2/3
f 51/1/3 47/1/3 50/1/3
f 52/2/3 48/2/3 51/2/3
f 53/1/4 54/1/4 55/1/4
f 55/1/4 54/1/4 56/1/4
f 57/2/4 58/2/4 60/2/4
f 58/1/4 59/1/4 61/1/4
f 60/2/4 58/2/4 61/2/4
f 61/1/4 59/1/4 62/1/4
f 63/2/4 64/2/4 67/2/4
f 64/1/4 65/1/4 68/1/4
f 67/2/4 64/2/4 68/2/4
f 65/2/4 66/2/4 69/2/4
f 68/1/4 65/1/4 69/1/4
f 69/2/4 66/2/4 70/2/4
f 73/1/5 72/1/5 71/1/5
f 74/1/5 72/1/5 73/1/5
f 77/2/5 76/2/5 75/2/5
f 78/2/5 76/2/5 77/2/5
f 81/2/5 80/2/5 79/2/5
f 82/2/5 80/2/5 81/2/5
f 83/1/6 84/1/6 85/1/6
f 85/1/6 84/1/6 86/1/6
f 87/1/6 88/1/6 90/1/6
f 90/1/6 88/1/6 91/1/6
f 89/2/6 90/2/6 92/2/6
f 92/2/6 90/2/6 93/2/6
