# MagicaVoxel @ Ephtracy

# group
o 

# material
mtllib pescado mesa.mtl
usemtl palette

# normals
vn -1 0 0
vn 1 0 0
vn 0 0 1
vn 0 0 -1
vn 0 -1 0
vn 0 1 0

# texcoords
vt 0.697266 0.5
vt 0.701172 0.5
vt 0.736328 0.5

# verts
v -0.5 0 0.5
v -0.5 0 0.3
v -0.5 0 0
v -0.5 0 -0.2
v -0.5 0.5 0.5
v -0.5 0.5 0.3
v -0.5 0.5 0
v -0.5 0.5 -0.2
v -0.5 0.6 0.5
v -0.5 0.6 -0.2
v 0.3 0 0.5
v 0.3 0 0.3
v 0.3 0 0
v 0.3 0 -0.2
v 0.3 0.5 0.5
v 0.3 0.5 0.3
v 0.3 0.5 0
v 0.3 0.5 -0.2
v -0.3 0 0.5
v -0.3 0 0.3
v -0.3 0 0
v -0.3 0 -0.2
v -0.3 0.5 0.5
v -0.3 0.5 0.3
v -0.3 0.5 0
v -0.3 0.5 -0.2
v 0.5 0 0.5
v 0.5 0 0.3
v 0.5 0 0
v 0.5 0 -0.2
v 0.5 0.5 0.5
v 0.5 0.5 0.3
v 0.5 0.5 0
v 0.5 0.5 -0.2
v 0.5 0.6 0.5
v 0.5 0.6 -0.2
v -0.5 0 0.5
v -0.5 0.5 0.5
v -0.5 0.6 0.5
v -0.4 0.5 0.5
v -0.4 0.6 0.5
v -0.3 0 0.5
v -0.3 0.5 0.5
v -0.3 0.6 0.5
v -0.2 0.5 0.5
v -0.2 0.6 0.5
v -0.1 0.5 0.5
v -0.1 0.6 0.5
v 0 0.5 0.5
v 0 0.6 0.5
v 0.1 0.5 0.5
v 0.1 0.6 0.5
v 0.2 0.5 0.5
v 0.2 0.6 0.5
v 0.3 0 0.5
v 0.3 0.5 0.5
v 0.3 0.6 0.5
v 0.4 0.5 0.5
v 0.4 0.6 0.5
v 0.5 0 0.5
v 0.5 0.5 0.5
v 0.5 0.6 0.5
v -0.5 0 0
v -0.5 0.5 0
v -0.4 0.5 0
v -0.3 0 0
v -0.3 0.5 0
v 0.3 0 0
v 0.3 0.5 0
v 0.4 0.5 0
v 0.5 0 0
v 0.5 0.5 0
v -0.5 0 0.3
v -0.5 0.5 0.3
v -0.4 0.5 0.3
v -0.3 0 0.3
v -0.3 0.5 0.3
v 0.3 0 0.3
v 0.3 0.5 0.3
v 0.4 0.5 0.3
v 0.5 0 0.3
v 0.5 0.5 0.3
v -0.5 0 -0.2
v -0.5 0.5 -0.2
v -0.5 0.6 -0.2
v -0.4 0.5 -0.2
v -0.4 0.6 -0.2
v -0.3 0 -0.2
v -0.3 0.5 -0.2
v -0.3 0.6 -0.2
v -0.2 0.5 -0.2
v -0.2 0.6 -0.2
v -0.1 0.5 -0.2
v -0.1 0.6 -0.2
v 0 0.5 -0.2
v 0 0.6 -0.2
v 0.1 0.5 -0.2
v 0.1 0.6 -0.2
v 0.2 0.5 -0.2
v 0.2 0.6 -0.2
v 0.3 0 -0.2
v 0.3 0.5 -0.2
v 0.3 0.6 -0.2
v 0.4 0.5 -0.2
v 0.4 0.6 -0.2
v 0.5 0 -0.2
v 0.5 0.5 -0.2
v 0.5 0.6 -0.2
v -0.5 0 0.5
v -0.3 0 0.5
v 0.3 0 0.5
v 0.5 0 0.5
v -0.5 0 0.3
v -0.3 0 0.3
v 0.3 0 0.3
v 0.5 0 0.3
v -0.5 0 0
v -0.3 0 0
v 0.3 0 0
v 0.5 0 0
v -0.5 0 -0.2
v -0.3 0 -0.2
v 0.3 0 -0.2
v 0.5 0 -0.2
v -0.3 0.5 0.5
v -0.2 0.5 0.5
v -0.1 0.5 0.5
v 0 0.5 0.5
v 0.1 0.5 0.5
v 0.2 0.5 0.5
v 0.3 0.5 0.5
v -0.5 0.5 0.3
v -0.4 0.5 0.3
v -0.3 0.5 0.3
v 0.3 0.5 0.3
v 0.4 0.5 0.3
v 0.5 0.5 0.3
v -0.5 0.5 0
v -0.4 0.5 0
v -0.3 0.5 0
v 0.3 0.5 0
v 0.4 0.5 0
v 0.5 0.5 0
v -0.3 0.5 -0.2
v -0.2 0.5 -0.2
v -0.1 0.5 -0.2
v 0 0.5 -0.2
v 0.1 0.5 -0.2
v 0.2 0.5 -0.2
v 0.3 0.5 -0.2
v -0.5 0.6 0.5
v -0.4 0.6 0.5
v -0.3 0.6 0.5
v -0.2 0.6 0.5
v -0.1 0.6 0.5
v 0 0.6 0.5
v 0.1 0.6 0.5
v 0.2 0.6 0.5
v 0.3 0.6 0.5
v 0.4 0.6 0.5
v 0.5 0.6 0.5
v -0.5 0.6 -0.2
v -0.4 0.6 -0.2
v -0.3 0.6 -0.2
v -0.2 0.6 -0.2
v -0.1 0.6 -0.2
v 0 0.6 -0.2
v 0.1 0.6 -0.2
v 0.2 0.6 -0.2
v 0.3 0.6 -0.2
v 0.4 0.6 -0.2
v 0.5 0.6 -0.2

# faces
f 5/3/1 2/3/1 1/3/1
f 6/3/1 2/3/1 5/3/1
f 7/3/1 4/3/1 3/3/1
f 8/3/1 4/3/1 7/3/1
f 9/1/1 6/1/1 5/1/1
f 9/1/1 7/1/1 6/1/1
f 9/1/1 8/1/1 7/1/1
f 10/1/1 8/1/1 9/1/1
f 15/3/1 12/3/1 11/3/1
f 16/3/1 12/3/1 15/3/1
f 17/3/1 14/3/1 13/3/1
f 18/3/1 14/3/1 17/3/1
f 19/3/2 20/3/2 23/3/2
f 23/3/2 20/3/2 24/3/2
f 21/3/2 22/3/2 25/3/2
f 25/3/2 22/3/2 26/3/2
f 27/3/2 28/3/2 31/3/2
f 31/3/2 28/3/2 32/3/2
f 29/3/2 30/3/2 33/3/2
f 33/3/2 30/3/2 34/3/2
f 31/2/2 32/2/2 35/2/2
f 32/2/2 33/2/2 35/2/2
f 33/2/2 34/2/2 35/2/2
f 35/2/2 34/2/2 36/2/2
f 40/3/3 38/3/3 37/3/3
f 40/1/3 39/1/3 38/1/3
f 41/1/3 39/1/3 40/1/3
f 42/3/3 40/3/3 37/3/3
f 43/2/3 41/2/3 40/2/3
f 43/3/3 40/3/3 42/3/3
f 44/2/3 41/2/3 43/2/3
f 45/1/3 44/1/3 43/1/3
f 46/1/3 44/1/3 45/1/3
f 47/2/3 46/2/3 45/2/3
f 48/2/3 46/2/3 47/2/3
f 49/1/3 48/1/3 47/1/3
f 50/1/3 48/1/3 49/1/3
f 51/2/3 50/2/3 49/2/3
f 52/2/3 50/2/3 51/2/3
f 53/1/3 52/1/3 51/1/3
f 54/1/3 52/1/3 53/1/3
f 56/2/3 54/2/3 53/2/3
f 57/2/3 54/2/3 56/2/3
f 58/3/3 56/3/3 55/3/3
f 58/1/3 57/1/3 56/1/3
f 59/1/3 57/1/3 58/1/3
f 60/3/3 58/3/3 55/3/3
f 61/2/3 59/2/3 58/2/3
f 61/3/3 58/3/3 60/3/3
f 62/2/3 59/2/3 61/2/3
f 65/3/3 64/3/3 63/3/3
f 66/3/3 65/3/3 63/3/3
f 67/3/3 65/3/3 66/3/3
f 70/3/3 69/3/3 68/3/3
f 71/3/3 70/3/3 68/3/3
f 72/3/3 70/3/3 71/3/3
f 73/3/4 74/3/4 75/3/4
f 73/3/4 75/3/4 76/3/4
f 76/3/4 75/3/4 77/3/4
f 78/3/4 79/3/4 80/3/4
f 78/3/4 80/3/4 81/3/4
f 81/3/4 80/3/4 82/3/4
f 83/3/4 84/3/4 86/3/4
f 84/1/4 85/1/4 86/1/4
f 86/1/4 85/1/4 87/1/4
f 83/3/4 86/3/4 88/3/4
f 86/2/4 87/2/4 89/2/4
f 88/3/4 86/3/4 89/3/4
f 89/2/4 87/2/4 90/2/4
f 89/1/4 90/1/4 91/1/4
f 91/1/4 90/1/4 92/1/4
f 91/2/4 92/2/4 93/2/4
f 93/2/4 92/2/4 94/2/4
f 93/1/4 94/1/4 95/1/4
f 95/1/4 94/1/4 96/1/4
f 95/2/4 96/2/4 97/2/4
f 97/2/4 96/2/4 98/2/4
f 97/1/4 98/1/4 99/1/4
f 99/1/4 98/1/4 100/1/4
f 99/2/4 100/2/4 102/2/4
f 102/2/4 100/2/4 103/2/4
f 101/3/4 102/3/4 104/3/4
f 102/1/4 103/1/4 104/1/4
f 104/1/4 103/1/4 105/1/4
f 101/3/4 104/3/4 106/3/4
f 104/2/4 105/2/4 107/2/4
f 106/3/4 104/3/4 107/3/4
f 107/2/4 105/2/4 108/2/4
f 113/3/5 110/3/5 109/3/5
f 114/3/5 110/3/5 113/3/5
f 115/3/5 112/3/5 111/3/5
f 116/3/5 112/3/5 115/3/5
f 121/3/5 118/3/5 117/3/5
f 122/3/5 118/3/5 121/3/5
f 123/3/5 120/3/5 119/3/5
f 124/3/5 120/3/5 123/3/5
f 134/1/5 126/1/5 125/1/5
f 135/2/5 131/2/5 130/2/5
f 138/1/5 133/1/5 132/1/5
f 139/2/5 134/2/5 133/2/5
f 139/1/5 133/1/5 138/1/5
f 140/1/5 126/1/5 134/1/5
f 140/2/5 134/2/5 139/2/5
f 141/2/5 135/2/5 130/2/5
f 141/1/5 136/1/5 135/1/5
f 142/2/5 137/2/5 136/2/5
f 142/1/5 136/1/5 141/1/5
f 143/2/5 137/2/5 142/2/5
f 144/1/5 126/1/5 140/1/5
f 145/2/5 127/2/5 126/2/5
f 145/1/5 126/1/5 144/1/5
f 146/1/5 128/1/5 127/1/5
f 146/2/5 127/2/5 145/2/5
f 147/2/5 129/2/5 128/2/5
f 147/1/5 128/1/5 146/1/5
f 148/1/5 130/1/5 129/1/5
f 148/2/5 129/2/5 147/2/5
f 149/2/5 141/2/5 130/2/5
f 149/1/5 130/1/5 148/1/5
f 150/2/5 141/2/5 149/2/5
f 151/1/6 152/1/6 162/1/6
f 152/2/6 153/2/6 163/2/6
f 162/1/6 152/1/6 163/1/6
f 153/1/6 154/1/6 164/1/6
f 163/2/6 153/2/6 164/2/6
f 154/2/6 155/2/6 165/2/6
f 164/1/6 154/1/6 165/1/6
f 155/1/6 156/1/6 166/1/6
f 165/2/6 155/2/6 166/2/6
f 156/2/6 157/2/6 167/2/6
f 166/1/6 156/1/6 167/1/6
f 157/1/6 158/1/6 168/1/6
f 167/2/6 157/2/6 168/2/6
f 158/2/6 159/2/6 169/2/6
f 168/1/6 158/1/6 169/1/6
f 159/1/6 160/1/6 170/1/6
f 169/2/6 159/2/6 170/2/6
f 160/2/6 161/2/6 171/2/6
f 170/1/6 160/1/6 171/1/6
f 171/2/6 161/2/6 172/2/6
