# MagicaVoxel @ Ephtracy

# group
o 

# material
mtllib pescado cortado-1.mtl
usemtl palette

# normals
vn -1 0 0
vn 1 0 0
vn 0 0 1
vn 0 0 -1
vn 0 -1 0
vn 0 1 0

# texcoords
vt 0.458984 0.5
vt 0.693359 0.5
vt 0.697266 0.5
vt 0.701172 0.5
vt 0.798828 0.5
vt 0.802734 0.5
vt 0.884766 0.5
vt 0.943359 0.5

# verts
v -3.1 5.9 8.4
v -3.1 5.9 8.3
v -3.1 6.1 8.4
v -3.1 6.1 8.3
v -3 5.8 8.4
v -3 5.8 8.3
v -3 5.9 8.4
v -3 5.9 8.3
v -2.9 5.7 8.4
v -2.9 5.7 8.3
v -2.9 5.8 8.4
v -2.9 5.8 8.3
v -2.8 5.6 8.4
v -2.8 5.6 8.3
v -2.8 5.7 8.4
v -2.8 5.7 8.3
v -2.7 5.5 8.4
v -2.7 5.5 8.3
v -2.7 5.6 8.4
v -2.7 5.6 8.3
v -2.6 5.2 8.8
v -2.6 5.2 8.7
v -2.6 5.2 8.1
v -2.6 5.2 8
v -2.6 5.3 8.7
v -2.6 5.3 8.1
v -2.6 5.4 8.8
v -2.6 5.4 8.4
v -2.6 5.4 8.3
v -2.6 5.4 8
v -2.6 5.5 8.4
v -2.6 5.5 8.3
v -2.5 5.4 8.8
v -2.5 5.4 8.7
v -2.5 5.4 8.6
v -2.5 5.4 8.5
v -2.5 5.4 8.3
v -2.5 5.4 8.2
v -2.5 5.4 8
v -2.5 5.4 7.9
v -2.5 5.5 8.8
v -2.5 5.5 8.7
v -2.5 5.5 8.6
v -2.5 5.5 8.3
v -2.5 5.5 8.2
v -2.5 5.5 8
v -2.5 5.5 7.9
v -2.5 5.6 8.7
v -2.5 5.6 8.5
v -2.4 5.4 8.2
v -2.4 5.4 8
v -2.4 5.5 8.3
v -2.4 5.5 8.2
v -2.4 5.5 8.1
v -2.4 5.5 8
v -2.4 5.6 8.7
v -2.4 5.6 8.5
v -2.4 5.6 8.3
v -2.4 5.6 8.1
v -2.4 5.7 8.7
v -2.4 5.7 8.6
v -2.4 5.7 8.5
v -2.4 5.7 8.4
v -2.4 5.8 8.6
v -2.4 5.8 8.4
v -2.2 5.4 8
v -2.2 5.4 7.9
v -2.2 5.5 8
v -2.2 5.5 7.9
v -2.1 5.2 8.8
v -2.1 5.2 8.7
v -2.1 5.2 8.1
v -2.1 5.2 8
v -2.1 5.3 8.8
v -2.1 5.3 8.7
v -2.1 5.3 8.1
v -2.1 5.3 8
v -3 6 8.4
v -3 6 8.3
v -3 6.1 8.4
v -3 6.1 8.3
v -2.9 5.9 8.4
v -2.9 5.9 8.3
v -2.9 6 8.4
v -2.9 6 8.3
v -2.8 5.8 8.4
v -2.8 5.8 8.3
v -2.8 5.9 8.4
v -2.8 5.9 8.3
v -2.7 5.7 8.4
v -2.7 5.7 8.3
v -2.7 5.8 8.4
v -2.7 5.8 8.3
v -2.6 5.6 8.4
v -2.6 5.6 8.3
v -2.6 5.7 8.4
v -2.6 5.7 8.3
v -2.5 5.2 8.8
v -2.5 5.2 8.7
v -2.5 5.2 8.1
v -2.5 5.2 8
v -2.5 5.3 8.8
v -2.5 5.3 8.7
v -2.5 5.3 8.1
v -2.5 5.3 8
v -2.5 5.5 8.4
v -2.5 5.5 8.3
v -2.5 5.6 8.4
v -2.5 5.6 8.3
v -2.4 5.4 8.4
v -2.4 5.4 8.3
v -2.4 5.4 8
v -2.4 5.4 7.9
v -2.4 5.5 8.4
v -2.4 5.5 8.3
v -2.4 5.5 8
v -2.4 5.5 7.9
v -2.2 5.4 8.2
v -2.2 5.4 8
v -2.2 5.5 8.3
v -2.2 5.5 8.2
v -2.2 5.5 8.1
v -2.2 5.5 8
v -2.2 5.6 8.7
v -2.2 5.6 8.5
v -2.2 5.6 8.3
v -2.2 5.6 8.1
v -2.2 5.7 8.7
v -2.2 5.7 8.6
v -2.2 5.7 8.5
v -2.2 5.7 8.4
v -2.2 5.8 8.6
v -2.2 5.8 8.4
v -2.1 5.4 8.8
v -2.1 5.4 8.7
v -2.1 5.4 8.6
v -2.1 5.4 8.5
v -2.1 5.4 8.3
v -2.1 5.4 8.2
v -2.1 5.4 8
v -2.1 5.4 7.9
v -2.1 5.5 8.8
v -2.1 5.5 8.7
v -2.1 5.5 8.6
v -2.1 5.5 8.3
v -2.1 5.5 8.2
v -2.1 5.5 8
v -2.1 5.5 7.9
v -2.1 5.6 8.7
v -2.1 5.6 8.5
v -2 5.2 8.8
v -2 5.2 8.7
v -2 5.2 8.1
v -2 5.2 8
v -2 5.3 8.7
v -2 5.3 8.1
v -2 5.4 8.8
v -2 5.4 8
v -2.6 5.2 8.8
v -2.6 5.4 8.8
v -2.5 5.2 8.8
v -2.5 5.3 8.8
v -2.5 5.4 8.8
v -2.5 5.5 8.8
v -2.4 5.3 8.8
v -2.4 5.4 8.8
v -2.2 5.3 8.8
v -2.2 5.4 8.8
v -2.1 5.2 8.8
v -2.1 5.3 8.8
v -2.1 5.4 8.8
v -2.1 5.5 8.8
v -2 5.2 8.8
v -2 5.4 8.8
v -2.5 5.5 8.7
v -2.5 5.6 8.7
v -2.4 5.6 8.7
v -2.4 5.7 8.7
v -2.2 5.6 8.7
v -2.2 5.7 8.7
v -2.1 5.5 8.7
v -2.1 5.6 8.7
v -2.4 5.7 8.6
v -2.4 5.8 8.6
v -2.2 5.7 8.6
v -2.2 5.8 8.6
v -3.1 5.9 8.4
v -3.1 6.1 8.4
v -3 5.8 8.4
v -3 5.9 8.4
v -3 6 8.4
v -3 6.1 8.4
v -2.9 5.7 8.4
v -2.9 5.8 8.4
v -2.9 5.9 8.4
v -2.9 6 8.4
v -2.8 5.6 8.4
v -2.8 5.7 8.4
v -2.8 5.8 8.4
v -2.8 5.9 8.4
v -2.7 5.5 8.4
v -2.7 5.6 8.4
v -2.7 5.7 8.4
v -2.7 5.8 8.4
v -2.6 5.4 8.4
v -2.6 5.5 8.4
v -2.6 5.6 8.4
v -2.6 5.7 8.4
v -2.5 5.4 8.4
v -2.5 5.5 8.4
v -2.5 5.6 8.4
v -2.4 5.4 8.4
v -2.4 5.5 8.4
v -2.4 5.4 8.3
v -2.4 5.5 8.3
v -2.4 5.6 8.3
v -2.2 5.4 8.3
v -2.2 5.5 8.3
v -2.2 5.6 8.3
v -2.1 5.4 8.3
v -2.1 5.5 8.3
v -2.6 5.2 8.1
v -2.6 5.3 8.1
v -2.5 5.2 8.1
v -2.5 5.3 8.1
v -2.1 5.2 8.1
v -2.1 5.3 8.1
v -2 5.2 8.1
v -2 5.3 8.1
v -2.5 5.4 8
v -2.5 5.5 8
v -2.4 5.4 8
v -2.4 5.5 8
v -2.2 5.4 8
v -2.2 5.5 8
v -2.1 5.4 8
v -2.1 5.5 8
v -2.6 5.2 8.7
v -2.6 5.3 8.7
v -2.5 5.2 8.7
v -2.5 5.3 8.7
v -2.1 5.2 8.7
v -2.1 5.3 8.7
v -2 5.2 8.7
v -2 5.3 8.7
v -2.5 5.4 8.5
v -2.5 5.6 8.5
v -2.4 5.4 8.5
v -2.4 5.5 8.5
v -2.4 5.6 8.5
v -2.4 5.7 8.5
v -2.2 5.4 8.5
v -2.2 5.5 8.5
v -2.2 5.6 8.5
v -2.2 5.7 8.5
v -2.1 5.4 8.5
v -2.1 5.6 8.5
v -2.4 5.7 8.4
v -2.4 5.8 8.4
v -2.2 5.7 8.4
v -2.2 5.8 8.4
v -3.1 5.9 8.3
v -3.1 6.1 8.3
v -3 5.8 8.3
v -3 5.9 8.3
v -3 6 8.3
v -3 6.1 8.3
v -2.9 5.7 8.3
v -2.9 5.8 8.3
v -2.9 5.9 8.3
v -2.9 6 8.3
v -2.8 5.6 8.3
v -2.8 5.7 8.3
v -2.8 5.8 8.3
v -2.8 5.9 8.3
v -2.7 5.5 8.3
v -2.7 5.6 8.3
v -2.7 5.7 8.3
v -2.7 5.8 8.3
v -2.6 5.4 8.3
v -2.6 5.5 8.3
v -2.6 5.6 8.3
v -2.6 5.7 8.3
v -2.5 5.4 8.3
v -2.5 5.5 8.3
v -2.5 5.6 8.3
v -2.5 5.4 8.2
v -2.5 5.5 8.2
v -2.4 5.4 8.2
v -2.4 5.5 8.2
v -2.2 5.4 8.2
v -2.2 5.5 8.2
v -2.1 5.4 8.2
v -2.1 5.5 8.2
v -2.4 5.5 8.1
v -2.4 5.6 8.1
v -2.2 5.5 8.1
v -2.2 5.6 8.1
v -2.6 5.2 8
v -2.6 5.4 8
v -2.5 5.2 8
v -2.5 5.3 8
v -2.5 5.4 8
v -2.4 5.3 8
v -2.4 5.4 8
v -2.4 5.5 8
v -2.2 5.3 8
v -2.2 5.4 8
v -2.2 5.5 8
v -2.1 5.2 8
v -2.1 5.3 8
v -2.1 5.4 8
v -2 5.2 8
v -2 5.4 8
v -2.5 5.4 7.9
v -2.5 5.5 7.9
v -2.4 5.4 7.9
v -2.4 5.5 7.9
v -2.2 5.4 7.9
v -2.2 5.5 7.9
v -2.1 5.4 7.9
v -2.1 5.5 7.9
v -2.6 5.2 8.8
v -2.5 5.2 8.8
v -2.1 5.2 8.8
v -2 5.2 8.8
v -2.6 5.2 8.7
v -2.5 5.2 8.7
v -2.1 5.2 8.7
v -2 5.2 8.7
v -2.6 5.2 8.1
v -2.5 5.2 8.1
v -2.1 5.2 8.1
v -2 5.2 8.1
v -2.6 5.2 8
v -2.5 5.2 8
v -2.1 5.2 8
v -2 5.2 8
v -2.5 5.3 8.8
v -2.4 5.3 8.8
v -2.2 5.3 8.8
v -2.1 5.3 8.8
v -2.6 5.3 8.7
v -2.5 5.3 8.7
v -2.1 5.3 8.7
v -2 5.3 8.7
v -2.6 5.3 8.1
v -2.5 5.3 8.1
v -2.1 5.3 8.1
v -2 5.3 8.1
v -2.5 5.3 8
v -2.4 5.3 8
v -2.2 5.3 8
v -2.1 5.3 8
v -2.5 5.4 8
v -2.4 5.4 8
v -2.2 5.4 8
v -2.1 5.4 8
v -2.5 5.4 7.9
v -2.4 5.4 7.9
v -2.2 5.4 7.9
v -2.1 5.4 7.9
v -2.7 5.5 8.4
v -2.6 5.5 8.4
v -2.7 5.5 8.3
v -2.6 5.5 8.3
v -2.8 5.6 8.4
v -2.7 5.6 8.4
v -2.8 5.6 8.3
v -2.7 5.6 8.3
v -2.4 5.7 8.5
v -2.2 5.7 8.5
v -2.9 5.7 8.4
v -2.8 5.7 8.4
v -2.4 5.7 8.4
v -2.2 5.7 8.4
v -2.9 5.7 8.3
v -2.8 5.7 8.3
v -3 5.8 8.4
v -2.9 5.8 8.4
v -3 5.8 8.3
v -2.9 5.8 8.3
v -3.1 5.9 8.4
v -3 5.9 8.4
v -3.1 5.9 8.3
v -3 5.9 8.3
v -2.6 5.4 8.8
v -2.5 5.4 8.8
v -2.1 5.4 8.8
v -2 5.4 8.8
v -2.5 5.4 8.7
v -2.1 5.4 8.7
v -2.5 5.4 8.6
v -2.1 5.4 8.6
v -2.5 5.4 8.5
v -2.4 5.4 8.5
v -2.2 5.4 8.5
v -2.1 5.4 8.5
v -2.6 5.4 8.4
v -2.5 5.4 8.4
v -2.4 5.4 8.4
v -2.6 5.4 8.3
v -2.5 5.4 8.3
v -2.4 5.4 8.3
v -2.2 5.4 8.3
v -2.1 5.4 8.3
v -2.5 5.4 8.2
v -2.4 5.4 8.2
v -2.2 5.4 8.2
v -2.1 5.4 8.2
v -2.6 5.4 8
v -2.5 5.4 8
v -2.4 5.4 8
v -2.2 5.4 8
v -2.1 5.4 8
v -2 5.4 8
v -2.5 5.5 8.8
v -2.1 5.5 8.8
v -2.5 5.5 8.7
v -2.1 5.5 8.7
v -2.5 5.5 8.4
v -2.4 5.5 8.4
v -2.5 5.5 8.3
v -2.4 5.5 8.3
v -2.2 5.5 8.3
v -2.1 5.5 8.3
v -2.5 5.5 8.2
v -2.4 5.5 8.2
v -2.2 5.5 8.2
v -2.1 5.5 8.2
v -2.4 5.5 8.1
v -2.2 5.5 8.1
v -2.5 5.5 8
v -2.4 5.5 8
v -2.2 5.5 8
v -2.1 5.5 8
v -2.5 5.5 7.9
v -2.4 5.5 7.9
v -2.2 5.5 7.9
v -2.1 5.5 7.9
v -2.5 5.6 8.7
v -2.4 5.6 8.7
v -2.2 5.6 8.7
v -2.1 5.6 8.7
v -2.5 5.6 8.5
v -2.4 5.6 8.5
v -2.2 5.6 8.5
v -2.1 5.6 8.5
v -2.6 5.6 8.4
v -2.5 5.6 8.4
v -2.6 5.6 8.3
v -2.5 5.6 8.3
v -2.4 5.6 8.3
v -2.2 5.6 8.3
v -2.4 5.6 8.1
v -2.2 5.6 8.1
v -2.4 5.7 8.7
v -2.2 5.7 8.7
v -2.4 5.7 8.6
v -2.2 5.7 8.6
v -2.7 5.7 8.4
v -2.6 5.7 8.4
v -2.7 5.7 8.3
v -2.6 5.7 8.3
v -2.4 5.8 8.6
v -2.2 5.8 8.6
v -2.8 5.8 8.4
v -2.7 5.8 8.4
v -2.4 5.8 8.4
v -2.2 5.8 8.4
v -2.8 5.8 8.3
v -2.7 5.8 8.3
v -2.9 5.9 8.4
v -2.8 5.9 8.4
v -2.9 5.9 8.3
v -2.8 5.9 8.3
v -3 6 8.4
v -2.9 6 8.4
v -3 6 8.3
v -2.9 6 8.3
v -3.1 6.1 8.4
v -3 6.1 8.4
v -3.1 6.1 8.3
v -3 6.1 8.3

# faces
f 3/8/1 2/8/1 1/8/1
f 4/8/1 2/8/1 3/8/1
f 7/8/1 6/8/1 5/8/1
f 8/8/1 6/8/1 7/8/1
f 11/7/1 10/7/1 9/7/1
f 12/7/1 10/7/1 11/7/1
f 15/7/1 14/7/1 13/7/1
f 16/7/1 14/7/1 15/7/1
f 19/7/1 18/7/1 17/7/1
f 20/7/1 18/7/1 19/7/1
f 25/4/1 22/4/1 21/4/1
f 26/4/1 24/4/1 23/4/1
f 27/4/1 25/4/1 21/4/1
f 27/4/1 26/4/1 25/4/1
f 28/4/1 26/4/1 27/4/1
f 29/4/1 26/4/1 28/4/1
f 30/4/1 24/4/1 26/4/1
f 30/4/1 26/4/1 29/4/1
f 31/7/1 29/7/1 28/7/1
f 32/7/1 29/7/1 31/7/1
f 41/6/1 34/6/1 33/6/1
f 42/8/1 35/8/1 34/8/1
f 42/6/1 34/6/1 41/6/1
f 43/6/1 36/6/1 35/6/1
f 43/8/1 35/8/1 42/8/1
f 44/6/1 38/6/1 37/6/1
f 45/6/1 38/6/1 44/6/1
f 46/6/1 40/6/1 39/6/1
f 47/6/1 40/6/1 46/6/1
f 48/6/1 43/6/1 42/6/1
f 49/6/1 36/6/1 43/6/1
f 49/6/1 43/6/1 48/6/1
f 53/6/1 51/6/1 50/6/1
f 54/6/1 51/6/1 53/6/1
f 55/6/1 51/6/1 54/6/1
f 58/6/1 53/6/1 52/6/1
f 58/6/1 54/6/1 53/6/1
f 59/6/1 54/6/1 58/6/1
f 60/5/1 57/5/1 56/5/1
f 61/5/1 57/5/1 60/5/1
f 62/5/1 57/5/1 61/5/1
f 64/5/1 63/5/1 62/5/1
f 64/5/1 62/5/1 61/5/1
f 65/5/1 63/5/1 64/5/1
f 68/6/1 67/6/1 66/6/1
f 69/6/1 67/6/1 68/6/1
f 74/4/1 71/4/1 70/4/1
f 75/4/1 71/4/1 74/4/1
f 76/4/1 73/4/1 72/4/1
f 77/4/1 73/4/1 76/4/1
f 78/8/2 79/8/2 80/8/2
f 80/8/2 79/8/2 81/8/2
f 82/8/2 83/8/2 84/8/2
f 84/8/2 83/8/2 85/8/2
f 86/8/2 87/8/2 88/8/2
f 88/8/2 87/8/2 89/8/2
f 90/7/2 91/7/2 92/7/2
f 92/7/2 91/7/2 93/7/2
f 94/7/2 95/7/2 96/7/2
f 96/7/2 95/7/2 97/7/2
f 98/4/2 99/4/2 102/4/2
f 102/4/2 99/4/2 103/4/2
f 100/4/2 101/4/2 104/4/2
f 104/4/2 101/4/2 105/4/2
f 106/7/2 107/7/2 108/7/2
f 108/7/2 107/7/2 109/7/2
f 110/7/2 111/7/2 114/7/2
f 114/7/2 111/7/2 115/7/2
f 112/6/2 113/6/2 116/6/2
f 116/6/2 113/6/2 117/6/2
f 118/6/2 119/6/2 121/6/2
f 121/6/2 119/6/2 122/6/2
f 122/6/2 119/6/2 123/6/2
f 120/6/2 121/6/2 126/6/2
f 121/6/2 122/6/2 126/6/2
f 126/6/2 122/6/2 127/6/2
f 124/5/2 125/5/2 128/5/2
f 128/5/2 125/5/2 129/5/2
f 129/5/2 125/5/2 130/5/2
f 130/5/2 131/5/2 132/5/2
f 129/5/2 130/5/2 132/5/2
f 132/5/2 131/5/2 133/5/2
f 134/6/2 135/6/2 142/6/2
f 135/8/2 136/8/2 143/8/2
f 142/6/2 135/6/2 143/6/2
f 136/6/2 137/6/2 144/6/2
f 143/8/2 136/8/2 144/8/2
f 138/6/2 139/6/2 145/6/2
f 145/6/2 139/6/2 146/6/2
f 140/6/2 141/6/2 147/6/2
f 147/6/2 141/6/2 148/6/2
f 143/6/2 144/6/2 149/6/2
f 144/6/2 137/6/2 150/6/2
f 149/6/2 144/6/2 150/6/2
f 151/4/2 152/4/2 155/4/2
f 153/4/2 154/4/2 156/4/2
f 151/4/2 155/4/2 157/4/2
f 155/4/2 156/4/2 157/4/2
f 156/4/2 154/4/2 158/4/2
f 157/4/2 156/4/2 158/4/2
f 161/4/3 160/4/3 159/4/3
f 162/4/3 160/4/3 161/4/3
f 163/4/3 160/4/3 162/4/3
f 165/2/3 163/2/3 162/2/3
f 166/6/3 164/6/3 163/6/3
f 166/2/3 163/2/3 165/2/3
f 167/3/3 166/3/3 165/3/3
f 168/6/3 164/6/3 166/6/3
f 168/3/3 166/3/3 167/3/3
f 170/2/3 168/2/3 167/2/3
f 171/6/3 164/6/3 168/6/3
f 171/2/3 168/2/3 170/2/3
f 172/6/3 164/6/3 171/6/3
f 173/4/3 170/4/3 169/4/3
f 173/4/3 171/4/3 170/4/3
f 174/4/3 171/4/3 173/4/3
f 177/6/3 176/6/3 175/6/3
f 179/6/3 177/6/3 175/6/3
f 179/5/3 178/5/3 177/5/3
f 180/5/3 178/5/3 179/5/3
f 181/6/3 179/6/3 175/6/3
f 182/6/3 179/6/3 181/6/3
f 185/5/3 184/5/3 183/5/3
f 186/5/3 184/5/3 185/5/3
f 190/8/3 188/8/3 187/8/3
f 191/8/3 188/8/3 190/8/3
f 192/8/3 188/8/3 191/8/3
f 194/8/3 190/8/3 189/8/3
f 194/8/3 191/8/3 190/8/3
f 195/8/3 191/8/3 194/8/3
f 196/8/3 191/8/3 195/8/3
f 198/7/3 194/7/3 193/7/3
f 199/8/3 195/8/3 194/8/3
f 199/7/3 194/7/3 198/7/3
f 200/8/3 195/8/3 199/8/3
f 202/7/3 198/7/3 197/7/3
f 202/7/3 199/7/3 198/7/3
f 203/7/3 199/7/3 202/7/3
f 204/7/3 199/7/3 203/7/3
f 206/7/3 202/7/3 201/7/3
f 206/7/3 203/7/3 202/7/3
f 207/7/3 203/7/3 206/7/3
f 208/7/3 203/7/3 207/7/3
f 209/7/3 206/7/3 205/7/3
f 209/7/3 207/7/3 206/7/3
f 210/7/3 207/7/3 209/7/3
f 211/7/3 207/7/3 210/7/3
f 212/7/3 210/7/3 209/7/3
f 213/7/3 210/7/3 212/7/3
f 217/1/3 215/1/3 214/1/3
f 218/6/3 216/6/3 215/6/3
f 218/1/3 215/1/3 217/1/3
f 219/6/3 216/6/3 218/6/3
f 220/6/3 218/6/3 217/6/3
f 221/6/3 218/6/3 220/6/3
f 224/4/3 223/4/3 222/4/3
f 225/4/3 223/4/3 224/4/3
f 228/4/3 227/4/3 226/4/3
f 229/4/3 227/4/3 228/4/3
f 232/6/3 231/6/3 230/6/3
f 233/6/3 231/6/3 232/6/3
f 236/6/3 235/6/3 234/6/3
f 237/6/3 235/6/3 236/6/3
f 238/4/4 239/4/4 240/4/4
f 240/4/4 239/4/4 241/4/4
f 242/4/4 243/4/4 244/4/4
f 244/4/4 243/4/4 245/4/4
f 246/6/4 247/6/4 248/6/4
f 248/6/4 247/6/4 249/6/4
f 249/6/4 247/6/4 250/6/4
f 248/1/4 249/1/4 252/1/4
f 249/6/4 250/6/4 253/6/4
f 252/1/4 249/1/4 253/1/4
f 250/5/4 251/5/4 254/5/4
f 253/6/4 250/6/4 254/6/4
f 254/5/4 251/5/4 255/5/4
f 252/6/4 253/6/4 256/6/4
f 253/6/4 254/6/4 256/6/4
f 256/6/4 254/6/4 257/6/4
f 258/5/4 259/5/4 260/5/4
f 260/5/4 259/5/4 261/5/4
f 262/8/4 263/8/4 265/8/4
f 265/8/4 263/8/4 266/8/4
f 266/8/4 263/8/4 267/8/4
f 264/8/4 265/8/4 269/8/4
f 265/8/4 266/8/4 269/8/4
f 269/8/4 266/8/4 270/8/4
f 270/8/4 266/8/4 271/8/4
f 268/7/4 269/7/4 273/7/4
f 269/8/4 270/8/4 274/8/4
f 273/7/4 269/7/4 274/7/4
f 274/8/4 270/8/4 275/8/4
f 272/7/4 273/7/4 277/7/4
f 273/7/4 274/7/4 277/7/4
f 277/7/4 274/7/4 278/7/4
f 278/7/4 274/7/4 279/7/4
f 276/7/4 277/7/4 281/7/4
f 277/7/4 278/7/4 281/7/4
f 281/7/4 278/7/4 282/7/4
f 282/7/4 278/7/4 283/7/4
f 280/7/4 281/7/4 284/7/4
f 281/7/4 282/7/4 284/7/4
f 284/7/4 282/7/4 285/7/4
f 285/7/4 282/7/4 286/7/4
f 287/6/4 288/6/4 289/6/4
f 289/6/4 288/6/4 290/6/4
f 291/6/4 292/6/4 293/6/4
f 293/6/4 292/6/4 294/6/4
f 295/6/4 296/6/4 297/6/4
f 297/6/4 296/6/4 298/6/4
f 299/4/4 300/4/4 301/4/4
f 301/4/4 300/4/4 302/4/4
f 302/4/4 300/4/4 303/4/4
f 302/2/4 303/2/4 304/2/4
f 304/2/4 303/2/4 305/2/4
f 304/3/4 305/3/4 307/3/4
f 305/6/4 306/6/4 308/6/4
f 307/3/4 305/3/4 308/3/4
f 308/6/4 306/6/4 309/6/4
f 307/2/4 308/2/4 311/2/4
f 311/2/4 308/2/4 312/2/4
f 310/4/4 311/4/4 313/4/4
f 311/4/4 312/4/4 313/4/4
f 313/4/4 312/4/4 314/4/4
f 315/6/4 316/6/4 317/6/4
f 317/6/4 316/6/4 318/6/4
f 319/6/4 320/6/4 321/6/4
f 321/6/4 320/6/4 322/6/4
f 327/4/5 324/4/5 323/4/5
f 328/4/5 324/4/5 327/4/5
f 329/4/5 326/4/5 325/4/5
f 330/4/5 326/4/5 329/4/5
f 335/4/5 332/4/5 331/4/5
f 336/4/5 332/4/5 335/4/5
f 337/4/5 334/4/5 333/4/5
f 338/4/5 334/4/5 337/4/5
f 344/2/5 340/2/5 339/2/5
f 345/2/5 342/2/5 341/2/5
f 347/4/5 344/4/5 343/4/5
f 348/2/5 340/2/5 344/2/5
f 348/4/5 344/4/5 347/4/5
f 349/4/5 346/4/5 345/4/5
f 349/2/5 345/2/5 341/2/5
f 350/4/5 346/4/5 349/4/5
f 351/2/5 340/2/5 348/2/5
f 352/3/5 341/3/5 340/3/5
f 352/2/5 340/2/5 351/2/5
f 353/2/5 349/2/5 341/2/5
f 353/3/5 341/3/5 352/3/5
f 354/2/5 349/2/5 353/2/5
f 359/6/5 356/6/5 355/6/5
f 360/6/5 356/6/5 359/6/5
f 361/6/5 358/6/5 357/6/5
f 362/6/5 358/6/5 361/6/5
f 365/7/5 364/7/5 363/7/5
f 366/7/5 364/7/5 365/7/5
f 369/7/5 368/7/5 367/7/5
f 370/7/5 368/7/5 369/7/5
f 375/5/5 372/5/5 371/5/5
f 376/5/5 372/5/5 375/5/5
f 377/7/5 374/7/5 373/7/5
f 378/7/5 374/7/5 377/7/5
f 381/8/5 380/8/5 379/8/5
f 382/8/5 380/8/5 381/8/5
f 385/8/5 384/8/5 383/8/5
f 386/8/5 384/8/5 385/8/5
f 387/4/6 388/4/6 391/4/6
f 389/4/6 390/4/6 392/4/6
f 387/4/6 391/4/6 393/4/6
f 392/4/6 390/4/6 394/4/6
f 387/4/6 393/4/6 395/4/6
f 394/4/6 390/4/6 398/4/6
f 387/4/6 395/4/6 399/4/6
f 395/2/6 396/2/6 400/2/6
f 399/4/6 395/4/6 400/4/6
f 396/3/6 397/3/6 401/3/6
f 400/2/6 396/2/6 401/2/6
f 401/3/6 397/3/6 404/3/6
f 397/2/6 398/2/6 405/2/6
f 404/3/6 397/3/6 405/3/6
f 398/4/6 390/4/6 406/4/6
f 405/2/6 398/2/6 406/2/6
f 402/4/6 403/4/6 407/4/6
f 406/4/6 390/4/6 410/4/6
f 402/4/6 407/4/6 411/4/6
f 407/2/6 408/2/6 412/2/6
f 411/4/6 407/4/6 412/4/6
f 412/2/6 408/2/6 413/2/6
f 409/2/6 410/2/6 414/2/6
f 410/4/6 390/4/6 415/4/6
f 414/2/6 410/2/6 415/2/6
f 415/4/6 390/4/6 416/4/6
f 417/6/6 418/6/6 419/6/6
f 419/6/6 418/6/6 420/6/6
f 421/7/6 422/7/6 423/7/6
f 423/7/6 422/7/6 424/7/6
f 423/6/6 424/6/6 427/6/6
f 427/6/6 424/6/6 428/6/6
f 425/6/6 426/6/6 429/6/6
f 429/6/6 426/6/6 430/6/6
f 431/6/6 432/6/6 434/6/6
f 434/6/6 432/6/6 435/6/6
f 433/6/6 434/6/6 437/6/6
f 437/6/6 434/6/6 438/6/6
f 435/6/6 436/6/6 439/6/6
f 439/6/6 436/6/6 440/6/6
f 441/6/6 442/6/6 445/6/6
f 445/6/6 442/6/6 446/6/6
f 443/6/6 444/6/6 447/6/6
f 447/6/6 444/6/6 448/6/6
f 449/7/6 450/7/6 451/7/6
f 451/7/6 450/7/6 452/7/6
f 453/6/6 454/6/6 455/6/6
f 455/6/6 454/6/6 456/6/6
f 457/5/6 458/5/6 459/5/6
f 459/5/6 458/5/6 460/5/6
f 461/7/6 462/7/6 463/7/6
f 463/7/6 462/7/6 464/7/6
f 465/5/6 466/5/6 469/5/6
f 469/5/6 466/5/6 470/5/6
f 467/7/6 468/7/6 471/7/6
f 471/7/6 468/7/6 472/7/6
f 473/8/6 474/8/6 475/8/6
f 475/8/6 474/8/6 476/8/6
f 477/8/6 478/8/6 479/8/6
f 479/8/6 478/8/6 480/8/6
f 481/8/6 482/8/6 483/8/6
f 483/8/6 482/8/6 484/8/6
