# MagicaVoxel @ Ephtracy

# group
o 

# material
mtllib pez-1.mtl
usemtl palette

# normals
vn -1 0 0
vn 1 0 0
vn 0 0 1
vn 0 0 -1
vn 0 -1 0
vn 0 1 0

# texcoords
vt 0.607422 0.5
vt 0.611328 0.5

# verts
v 1.7 4.8 8.9
v 1.7 4.8 8.8
v 1.7 5 8.9
v 1.7 5 8.8
v 1.8 4.8 9
v 1.8 4.8 8.9
v 1.8 4.8 8.8
v 1.8 4.8 8.7
v 1.8 5 9
v 1.8 5 8.9
v 1.8 5 8.8
v 1.8 5 8.7
v 1.8 5.3 8.9
v 1.8 5.3 8.8
v 1.9 5.3 8.9
v 1.9 5.3 8.8
v 1.9 5.4 8.9
v 1.9 5.4 8.8
v 2 5.4 8.9
v 2 5.4 8.8
v 2 5.5 8.9
v 2 5.5 8.8
v 2.1 4.9 9
v 2.1 4.9 8.9
v 2.1 4.9 8.8
v 2.1 4.9 8.7
v 2.1 5 9
v 2.1 5 8.9
v 2.1 5 8.8
v 2.1 5 8.7
v 2.1 5.1 8.9
v 2.1 5.1 8.8
v 2.1 5.2 8.9
v 2.1 5.2 8.8
v 2.1 5.3 8.9
v 2.1 5.3 8.8
v 2.1 5.4 8.9
v 2.1 5.4 8.8
v 2.2 5.4 8.9
v 2.2 5.4 8.8
v 2.2 5.5 8.9
v 2.2 5.5 8.8
v 2.4 4.8 9
v 2.4 4.8 8.9
v 2.4 4.8 8.8
v 2.4 4.8 8.7
v 2.4 4.9 9
v 2.4 4.9 8.9
v 2.4 4.9 8.8
v 2.4 4.9 8.7
v 2.4 5 8.9
v 2.4 5 8.8
v 2.4 5.1 8.9
v 2.4 5.1 8.8
v 2.5 4.9 8.9
v 2.5 4.9 8.8
v 2.5 5 8.9
v 2.5 5 8.8
v 2.7 4.8 8.9
v 2.7 4.8 8.8
v 2.7 4.9 8.9
v 2.7 4.9 8.8
v 1.8 4.8 9
v 1.8 5 9
v 1.9 4.9 9
v 1.9 5 9
v 2.1 4.9 9
v 2.1 5 9
v 2.2 4.8 9
v 2.2 4.9 9
v 2.3 4.8 9
v 2.3 4.9 9
v 2.4 4.8 9
v 2.4 4.9 9
v 1.7 4.8 8.9
v 1.7 5 8.9
v 1.8 4.8 8.9
v 1.8 5 8.9
v 1.8 5.3 8.9
v 1.9 5 8.9
v 1.9 5.1 8.9
v 1.9 5.2 8.9
v 1.9 5.3 8.9
v 1.9 5.4 8.9
v 2 5.1 8.9
v 2 5.2 8.9
v 2 5.3 8.9
v 2 5.4 8.9
v 2 5.5 8.9
v 2.1 4.9 8.9
v 2.1 5 8.9
v 2.1 5.1 8.9
v 2.1 5.2 8.9
v 2.1 5.3 8.9
v 2.1 5.4 8.9
v 2.1 5.5 8.9
v 2.2 4.9 8.9
v 2.2 5 8.9
v 2.2 5.4 8.9
v 2.2 5.5 8.9
v 2.3 4.9 8.9
v 2.4 4.8 8.9
v 2.4 4.9 8.9
v 2.4 5 8.9
v 2.4 5.1 8.9
v 2.5 4.9 8.9
v 2.5 5 8.9
v 2.7 4.8 8.9
v 2.7 4.9 8.9
v 1.7 4.8 8.8
v 1.7 5 8.8
v 1.8 4.8 8.8
v 1.8 5 8.8
v 1.8 5.3 8.8
v 1.9 5 8.8
v 1.9 5.1 8.8
v 1.9 5.2 8.8
v 1.9 5.3 8.8
v 1.9 5.4 8.8
v 2 5 8.8
v 2 5.1 8.8
v 2 5.2 8.8
v 2 5.3 8.8
v 2 5.4 8.8
v 2 5.5 8.8
v 2.1 4.9 8.8
v 2.1 5 8.8
v 2.1 5.1 8.8
v 2.1 5.2 8.8
v 2.1 5.3 8.8
v 2.1 5.4 8.8
v 2.1 5.5 8.8
v 2.2 4.9 8.8
v 2.2 5 8.8
v 2.2 5.4 8.8
v 2.2 5.5 8.8
v 2.3 4.9 8.8
v 2.4 4.8 8.8
v 2.4 4.9 8.8
v 2.4 5 8.8
v 2.4 5.1 8.8
v 2.5 4.9 8.8
v 2.5 5 8.8
v 2.7 4.8 8.8
v 2.7 4.9 8.8
v 1.8 4.8 8.7
v 1.8 5 8.7
v 1.9 4.9 8.7
v 1.9 5 8.7
v 2 4.9 8.7
v 2 5 8.7
v 2.1 4.9 8.7
v 2.1 5 8.7
v 2.2 4.8 8.7
v 2.2 4.9 8.7
v 2.3 4.8 8.7
v 2.3 4.9 8.7
v 2.4 4.8 8.7
v 2.4 4.9 8.7
v 1.8 4.8 9
v 2.2 4.8 9
v 2.3 4.8 9
v 2.4 4.8 9
v 1.7 4.8 8.9
v 1.8 4.8 8.9
v 2.2 4.8 8.9
v 2.3 4.8 8.9
v 2.4 4.8 8.9
v 2.7 4.8 8.9
v 1.7 4.8 8.8
v 1.8 4.8 8.8
v 2.2 4.8 8.8
v 2.3 4.8 8.8
v 2.4 4.8 8.8
v 2.7 4.8 8.8
v 1.8 4.8 8.7
v 2.2 4.8 8.7
v 2.3 4.8 8.7
v 2.4 4.8 8.7
v 2.1 5.4 8.9
v 2.2 5.4 8.9
v 2.1 5.4 8.8
v 2.2 5.4 8.8
v 2.1 4.9 9
v 2.2 4.9 9
v 2.3 4.9 9
v 2.4 4.9 9
v 2.1 4.9 8.9
v 2.2 4.9 8.9
v 2.3 4.9 8.9
v 2.4 4.9 8.9
v 2.5 4.9 8.9
v 2.7 4.9 8.9
v 2.1 4.9 8.8
v 2.2 4.9 8.8
v 2.3 4.9 8.8
v 2.4 4.9 8.8
v 2.5 4.9 8.8
v 2.7 4.9 8.8
v 2.1 4.9 8.7
v 2.2 4.9 8.7
v 2.3 4.9 8.7
v 2.4 4.9 8.7
v 1.8 5 9
v 1.9 5 9
v 2.1 5 9
v 1.7 5 8.9
v 1.8 5 8.9
v 1.9 5 8.9
v 2.1 5 8.9
v 2.4 5 8.9
v 2.5 5 8.9
v 1.7 5 8.8
v 1.8 5 8.8
v 1.9 5 8.8
v 2 5 8.8
v 2.1 5 8.8
v 2.4 5 8.8
v 2.5 5 8.8
v 1.8 5 8.7
v 1.9 5 8.7
v 2 5 8.7
v 2.1 5 8.7
v 2.1 5.1 8.9
v 2.4 5.1 8.9
v 2.1 5.1 8.8
v 2.4 5.1 8.8
v 1.8 5.3 8.9
v 1.9 5.3 8.9
v 1.8 5.3 8.8
v 1.9 5.3 8.8
v 1.9 5.4 8.9
v 2 5.4 8.9
v 1.9 5.4 8.8
v 2 5.4 8.8
v 2 5.5 8.9
v 2.1 5.5 8.9
v 2.2 5.5 8.9
v 2 5.5 8.8
v 2.1 5.5 8.8
v 2.2 5.5 8.8

# faces
f 3/1/1 2/1/1 1/1/1
f 4/1/1 2/1/1 3/1/1
f 9/1/1 6/1/1 5/1/1
f 10/1/1 6/1/1 9/1/1
f 11/1/1 8/1/1 7/1/1
f 12/1/1 8/1/1 11/1/1
f 13/1/1 11/1/1 10/1/1
f 14/1/1 11/1/1 13/1/1
f 17/1/1 16/1/1 15/1/1
f 18/1/1 16/1/1 17/1/1
f 21/1/1 20/1/1 19/1/1
f 22/1/1 20/1/1 21/1/1
f 23/2/2 24/2/2 27/2/2
f 27/2/2 24/2/2 28/2/2
f 25/1/2 26/1/2 29/1/2
f 29/1/2 26/1/2 30/1/2
f 31/1/2 32/1/2 33/1/2
f 33/1/2 32/1/2 34/1/2
f 33/2/2 34/2/2 35/2/2
f 35/2/2 34/2/2 36/2/2
f 35/1/2 36/1/2 37/1/2
f 37/1/2 36/1/2 38/1/2
f 39/2/2 40/2/2 41/2/2
f 41/2/2 40/2/2 42/2/2
f 43/1/2 44/1/2 47/1/2
f 47/1/2 44/1/2 48/1/2
f 45/1/2 46/1/2 49/1/2
f 49/1/2 46/1/2 50/1/2
f 51/1/2 52/1/2 53/1/2
f 53/1/2 52/1/2 54/1/2
f 55/1/2 56/1/2 57/1/2
f 57/1/2 56/1/2 58/1/2
f 59/1/2 60/1/2 61/1/2
f 61/1/2 60/1/2 62/1/2
f 65/1/3 64/1/3 63/1/3
f 66/1/3 64/1/3 65/1/3
f 67/1/3 65/1/3 63/1/3
f 67/2/3 66/2/3 65/2/3
f 68/2/3 66/2/3 67/2/3
f 69/1/3 67/1/3 63/1/3
f 70/1/3 67/1/3 69/1/3
f 71/2/3 70/2/3 69/2/3
f 72/2/3 70/2/3 71/2/3
f 73/1/3 72/1/3 71/1/3
f 74/1/3 72/1/3 73/1/3
f 77/1/3 76/1/3 75/1/3
f 78/1/3 76/1/3 77/1/3
f 80/1/3 79/1/3 78/1/3
f 81/1/3 79/1/3 80/1/3
f 82/1/3 79/1/3 81/1/3
f 83/1/3 79/1/3 82/1/3
f 85/1/3 81/1/3 80/1/3
f 85/2/3 82/2/3 81/2/3
f 86/1/3 84/1/3 83/1/3
f 86/2/3 82/2/3 85/2/3
f 86/1/3 83/1/3 82/1/3
f 87/1/3 84/1/3 86/1/3
f 88/1/3 84/1/3 87/1/3
f 91/1/3 85/1/3 80/1/3
f 91/1/3 86/1/3 85/1/3
f 92/1/3 86/1/3 91/1/3
f 93/2/3 87/2/3 86/2/3
f 93/1/3 86/1/3 92/1/3
f 94/1/3 89/1/3 88/1/3
f 94/2/3 87/2/3 93/2/3
f 94/1/3 88/1/3 87/1/3
f 95/1/3 89/1/3 94/1/3
f 96/1/3 89/1/3 95/1/3
f 97/2/3 91/2/3 90/2/3
f 98/1/3 92/1/3 91/1/3
f 98/2/3 91/2/3 97/2/3
f 99/2/3 96/2/3 95/2/3
f 100/2/3 96/2/3 99/2/3
f 101/1/3 98/1/3 97/1/3
f 103/1/3 98/1/3 101/1/3
f 104/1/3 92/1/3 98/1/3
f 104/1/3 98/1/3 103/1/3
f 105/1/3 92/1/3 104/1/3
f 106/1/3 103/1/3 102/1/3
f 106/1/3 104/1/3 103/1/3
f 107/1/3 104/1/3 106/1/3
f 108/1/3 106/1/3 102/1/3
f 109/1/3 106/1/3 108/1/3
f 110/1/4 111/1/4 112/1/4
f 112/1/4 111/1/4 113/1/4
f 113/1/4 114/1/4 115/1/4
f 115/1/4 114/1/4 116/1/4
f 116/1/4 114/1/4 117/1/4
f 117/1/4 114/1/4 118/1/4
f 115/1/4 116/1/4 120/1/4
f 116/2/4 117/2/4 121/2/4
f 120/1/4 116/1/4 121/1/4
f 118/1/4 119/1/4 122/1/4
f 121/2/4 117/2/4 122/2/4
f 117/1/4 118/1/4 122/1/4
f 122/1/4 119/1/4 123/1/4
f 123/1/4 119/1/4 124/1/4
f 120/1/4 121/1/4 127/1/4
f 121/1/4 122/1/4 127/1/4
f 127/1/4 122/1/4 128/1/4
f 122/2/4 123/2/4 129/2/4
f 128/1/4 122/1/4 129/1/4
f 124/1/4 125/1/4 130/1/4
f 129/2/4 123/2/4 130/2/4
f 123/1/4 124/1/4 130/1/4
f 130/1/4 125/1/4 131/1/4
f 131/1/4 125/1/4 132/1/4
f 126/2/4 127/2/4 133/2/4
f 127/1/4 128/1/4 134/1/4
f 133/2/4 127/2/4 134/2/4
f 131/2/4 132/2/4 135/2/4
f 135/2/4 132/2/4 136/2/4
f 133/1/4 134/1/4 137/1/4
f 137/1/4 134/1/4 139/1/4
f 134/1/4 128/1/4 140/1/4
f 139/1/4 134/1/4 140/1/4
f 140/1/4 128/1/4 141/1/4
f 138/1/4 139/1/4 142/1/4
f 139/1/4 140/1/4 142/1/4
f 142/1/4 140/1/4 143/1/4
f 138/1/4 142/1/4 144/1/4
f 144/1/4 142/1/4 145/1/4
f 146/1/4 147/1/4 148/1/4
f 148/1/4 147/1/4 149/1/4
f 146/1/4 148/1/4 150/1/4
f 148/2/4 149/2/4 150/2/4
f 150/2/4 149/2/4 151/2/4
f 146/1/4 150/1/4 152/1/4
f 150/1/4 151/1/4 152/1/4
f 152/1/4 151/1/4 153/1/4
f 146/1/4 152/1/4 154/1/4
f 154/1/4 152/1/4 155/1/4
f 154/2/4 155/2/4 156/2/4
f 156/2/4 155/2/4 157/2/4
f 156/1/4 157/1/4 158/1/4
f 158/1/4 157/1/4 159/1/4
f 165/1/5 161/1/5 160/1/5
f 166/2/5 162/2/5 161/2/5
f 166/1/5 161/1/5 165/1/5
f 167/1/5 163/1/5 162/1/5
f 167/2/5 162/2/5 166/2/5
f 168/1/5 163/1/5 167/1/5
f 170/1/5 166/1/5 165/1/5
f 170/1/5 169/1/5 168/1/5
f 170/1/5 168/1/5 167/1/5
f 170/1/5 167/1/5 166/1/5
f 170/1/5 165/1/5 164/1/5
f 171/1/5 169/1/5 170/1/5
f 172/1/5 169/1/5 171/1/5
f 173/1/5 169/1/5 172/1/5
f 174/1/5 169/1/5 173/1/5
f 175/1/5 169/1/5 174/1/5
f 176/1/5 172/1/5 171/1/5
f 177/2/5 173/2/5 172/2/5
f 177/1/5 172/1/5 176/1/5
f 178/1/5 174/1/5 173/1/5
f 178/2/5 173/2/5 177/2/5
f 179/1/5 174/1/5 178/1/5
f 182/2/5 181/2/5 180/2/5
f 183/2/5 181/2/5 182/2/5
f 184/1/6 185/1/6 188/1/6
f 185/2/6 186/2/6 189/2/6
f 188/1/6 185/1/6 189/1/6
f 186/1/6 187/1/6 190/1/6
f 189/2/6 186/2/6 190/2/6
f 190/1/6 187/1/6 191/1/6
f 192/1/6 193/1/6 198/1/6
f 198/1/6 193/1/6 199/1/6
f 194/1/6 195/1/6 200/1/6
f 195/2/6 196/2/6 201/2/6
f 200/1/6 195/1/6 201/1/6
f 196/1/6 197/1/6 202/1/6
f 201/2/6 196/2/6 202/2/6
f 202/1/6 197/1/6 203/1/6
f 204/1/6 205/1/6 208/1/6
f 205/2/6 206/2/6 209/2/6
f 208/1/6 205/1/6 209/1/6
f 209/2/6 206/2/6 210/2/6
f 207/1/6 208/1/6 213/1/6
f 213/1/6 208/1/6 214/1/6
f 211/1/6 212/1/6 218/1/6
f 218/1/6 212/1/6 219/1/6
f 214/1/6 215/1/6 220/1/6
f 215/2/6 216/2/6 221/2/6
f 220/1/6 215/1/6 221/1/6
f 216/1/6 217/1/6 222/1/6
f 221/2/6 216/2/6 222/2/6
f 222/1/6 217/1/6 223/1/6
f 224/1/6 225/1/6 226/1/6
f 226/1/6 225/1/6 227/1/6
f 228/1/6 229/1/6 230/1/6
f 230/1/6 229/1/6 231/1/6
f 232/1/6 233/1/6 234/1/6
f 234/1/6 233/1/6 235/1/6
f 236/1/6 237/1/6 239/1/6
f 237/2/6 238/2/6 240/2/6
f 239/1/6 237/1/6 240/1/6
f 240/2/6 238/2/6 241/2/6
