# MagicaVoxel @ Ephtracy

# group
o 

# material
mtllib piedra.mtl
usemtl palette

# normals
vn -1 0 0
vn 1 0 0
vn 0 0 1
vn 0 0 -1
vn 0 -1 0
vn 0 1 0

# texcoords
vt 0.916016 0.5
vt 0.919922 0.5

# verts
v -1.8 0 1.1
v -1.8 0 1
v -1.8 0 0.9
v -1.8 0 0.5
v -1.8 0 0.4
v -1.8 0 0.3
v -1.8 0.1 1.1
v -1.8 0.1 1
v -1.8 0.1 0.9
v -1.8 0.1 0.5
v -1.8 0.1 0.4
v -1.8 0.1 0.3
v -1.7 0 1.2
v -1.7 0 1.1
v -1.7 0 0.9
v -1.7 0 0.8
v -1.7 0 0.6
v -1.7 0 0.5
v -1.7 0 0.3
v -1.7 0 0.2
v -1.7 0.1 1.2
v -1.7 0.1 1.1
v -1.7 0.1 1
v -1.7 0.1 0.9
v -1.7 0.1 0.8
v -1.7 0.1 0.6
v -1.7 0.1 0.5
v -1.7 0.1 0.4
v -1.7 0.1 0.3
v -1.7 0.1 0.2
v -1.7 0.2 1.1
v -1.7 0.2 0.9
v -1.7 0.2 0.5
v -1.7 0.2 0.3
v -1.4 0 1.5
v -1.4 0 1.4
v -1.4 0 1.3
v -1.4 0 0.1
v -1.4 0 0
v -1.4 0 -0.1
v -1.4 0.1 1.5
v -1.4 0.1 1.4
v -1.4 0.1 1.3
v -1.4 0.1 0.1
v -1.4 0.1 0
v -1.4 0.1 -0.1
v -1.3 0 1.6
v -1.3 0 1.5
v -1.3 0 1.3
v -1.3 0 1.2
v -1.3 0 0.2
v -1.3 0 0.1
v -1.3 0 -0.1
v -1.3 0 -0.2
v -1.3 0.1 1.6
v -1.3 0.1 1.5
v -1.3 0.1 1.4
v -1.3 0.1 1.3
v -1.3 0.1 1.2
v -1.3 0.1 0.2
v -1.3 0.1 0.1
v -1.3 0.1 0
v -1.3 0.1 -0.1
v -1.3 0.1 -0.2
v -1.3 0.2 1.5
v -1.3 0.2 1.3
v -1.3 0.2 0.1
v -1.3 0.2 -0.1
v -0.9 0 1.5
v -0.9 0 1.4
v -0.9 0 1.3
v -0.9 0 0.1
v -0.9 0 0
v -0.9 0 -0.1
v -0.9 0.1 1.5
v -0.9 0.1 1.4
v -0.9 0.1 1.3
v -0.9 0.1 0.1
v -0.9 0.1 0
v -0.9 0.1 -0.1
v -0.8 0 1.6
v -0.8 0 1.5
v -0.8 0 1.3
v -0.8 0 1.2
v -0.8 0 0.2
v -0.8 0 0.1
v -0.8 0 -0.1
v -0.8 0 -0.2
v -0.8 0.1 1.6
v -0.8 0.1 1.5
v -0.8 0.1 1.4
v -0.8 0.1 1.3
v -0.8 0.1 1.2
v -0.8 0.1 0.2
v -0.8 0.1 0.1
v -0.8 0.1 0
v -0.8 0.1 -0.1
v -0.8 0.1 -0.2
v -0.8 0.2 1.5
v -0.8 0.2 1.3
v -0.8 0.2 0.1
v -0.8 0.2 -0.1
v -0.5 0 1.1
v -0.5 0 1
v -0.5 0 0.9
v -0.5 0 0.5
v -0.5 0 0.4
v -0.5 0 0.3
v -0.5 0.1 1.1
v -0.5 0.1 1
v -0.5 0.1 0.9
v -0.5 0.1 0.5
v -0.5 0.1 0.4
v -0.5 0.1 0.3
v -0.4 0 1.2
v -0.4 0 1.1
v -0.4 0 0.9
v -0.4 0 0.8
v -0.4 0 0.6
v -0.4 0 0.5
v -0.4 0 0.3
v -0.4 0 0.2
v -0.4 0.1 1.2
v -0.4 0.1 1.1
v -0.4 0.1 1
v -0.4 0.1 0.9
v -0.4 0.1 0.8
v -0.4 0.1 0.6
v -0.4 0.1 0.5
v -0.4 0.1 0.4
v -0.4 0.1 0.3
v -0.4 0.1 0.2
v -0.4 0.2 1.1
v -0.4 0.2 0.9
v -0.4 0.2 0.5
v -0.4 0.2 0.3
v -1.5 0 1.2
v -1.5 0 1.1
v -1.5 0 0.9
v -1.5 0 0.8
v -1.5 0 0.6
v -1.5 0 0.5
v -1.5 0 0.3
v -1.5 0 0.2
v -1.5 0.1 1.2
v -1.5 0.1 1.1
v -1.5 0.1 1
v -1.5 0.1 0.9
v -1.5 0.1 0.8
v -1.5 0.1 0.6
v -1.5 0.1 0.5
v -1.5 0.1 0.4
v -1.5 0.1 0.3
v -1.5 0.1 0.2
v -1.5 0.2 1.1
v -1.5 0.2 1
v -1.5 0.2 0.9
v -1.5 0.2 0.5
v -1.5 0.2 0.4
v -1.5 0.2 0.3
v -1.4 0 1.1
v -1.4 0 1
v -1.4 0 0.9
v -1.4 0 0.5
v -1.4 0 0.4
v -1.4 0 0.3
v -1.4 0.1 1.1
v -1.4 0.1 1
v -1.4 0.1 0.9
v -1.4 0.1 0.5
v -1.4 0.1 0.4
v -1.4 0.1 0.3
v -1.1 0 1.6
v -1.1 0 1.5
v -1.1 0 1.3
v -1.1 0 1.2
v -1.1 0 0.2
v -1.1 0 0.1
v -1.1 0 -0.1
v -1.1 0 -0.2
v -1.1 0.1 1.6
v -1.1 0.1 1.5
v -1.1 0.1 1.4
v -1.1 0.1 1.3
v -1.1 0.1 1.2
v -1.1 0.1 0.2
v -1.1 0.1 0.1
v -1.1 0.1 0
v -1.1 0.1 -0.1
v -1.1 0.1 -0.2
v -1.1 0.2 1.5
v -1.1 0.2 1.4
v -1.1 0.2 1.3
v -1.1 0.2 0.1
v -1.1 0.2 0
v -1.1 0.2 -0.1
v -1 0 1.5
v -1 0 1.4
v -1 0 1.3
v -1 0 0.1
v -1 0 0
v -1 0 -0.1
v -1 0.1 1.5
v -1 0.1 1.4
v -1 0.1 1.3
v -1 0.1 0.1
v -1 0.1 0
v -1 0.1 -0.1
v -0.6 0 1.6
v -0.6 0 1.5
v -0.6 0 1.3
v -0.6 0 1.2
v -0.6 0 0.2
v -0.6 0 0.1
v -0.6 0 -0.1
v -0.6 0 -0.2
v -0.6 0.1 1.6
v -0.6 0.1 1.5
v -0.6 0.1 1.4
v -0.6 0.1 1.3
v -0.6 0.1 1.2
v -0.6 0.1 0.2
v -0.6 0.1 0.1
v -0.6 0.1 0
v -0.6 0.1 -0.1
v -0.6 0.1 -0.2
v -0.6 0.2 1.5
v -0.6 0.2 1.4
v -0.6 0.2 1.3
v -0.6 0.2 0.1
v -0.6 0.2 0
v -0.6 0.2 -0.1
v -0.5 0 1.5
v -0.5 0 1.4
v -0.5 0 1.3
v -0.5 0 0.1
v -0.5 0 0
v -0.5 0 -0.1
v -0.5 0.1 1.5
v -0.5 0.1 1.4
v -0.5 0.1 1.3
v -0.5 0.1 0.1
v -0.5 0.1 0
v -0.5 0.1 -0.1
v -0.2 0 1.2
v -0.2 0 1.1
v -0.2 0 0.9
v -0.2 0 0.8
v -0.2 0 0.6
v -0.2 0 0.5
v -0.2 0 0.3
v -0.2 0 0.2
v -0.2 0.1 1.2
v -0.2 0.1 1.1
v -0.2 0.1 1
v -0.2 0.1 0.9
v -0.2 0.1 0.8
v -0.2 0.1 0.6
v -0.2 0.1 0.5
v -0.2 0.1 0.4
v -0.2 0.1 0.3
v -0.2 0.1 0.2
v -0.2 0.2 1.1
v -0.2 0.2 1
v -0.2 0.2 0.9
v -0.2 0.2 0.5
v -0.2 0.2 0.4
v -0.2 0.2 0.3
v -0.0999998 0 1.1
v -0.0999998 0 1
v -0.0999998 0 0.9
v -0.0999998 0 0.5
v -0.0999998 0 0.4
v -0.0999998 0 0.3
v -0.0999998 0.1 1.1
v -0.0999998 0.1 1
v -0.0999998 0.1 0.9
v -0.0999998 0.1 0.5
v -0.0999998 0.1 0.4
v -0.0999998 0.1 0.3
v -1.3 0 1.6
v -1.3 0.1 1.6
v -1.2 0 1.6
v -1.2 0.1 1.6
v -1.1 0 1.6
v -1.1 0.1 1.6
v -0.8 0 1.6
v -0.8 0.1 1.6
v -0.7 0 1.6
v -0.7 0.1 1.6
v -0.6 0 1.6
v -0.6 0.1 1.6
v -1.4 0 1.5
v -1.4 0.1 1.5
v -1.3 0 1.5
v -1.3 0.1 1.5
v -1.3 0.2 1.5
v -1.2 0.1 1.5
v -1.2 0.2 1.5
v -1.1 0 1.5
v -1.1 0.1 1.5
v -1.1 0.2 1.5
v -1 0 1.5
v -1 0.1 1.5
v -0.9 0 1.5
v -0.9 0.1 1.5
v -0.8 0 1.5
v -0.8 0.1 1.5
v -0.8 0.2 1.5
v -0.7 0.1 1.5
v -0.7 0.2 1.5
v -0.6 0 1.5
v -0.6 0.1 1.5
v -0.6 0.2 1.5
v -0.5 0 1.5
v -0.5 0.1 1.5
v -1.7 0 1.2
v -1.7 0.1 1.2
v -1.6 0 1.2
v -1.6 0.1 1.2
v -1.5 0 1.2
v -1.5 0.1 1.2
v -0.4 0 1.2
v -0.4 0.1 1.2
v -0.3 0 1.2
v -0.3 0.1 1.2
v -0.2 0 1.2
v -0.2 0.1 1.2
v -1.8 0 1.1
v -1.8 0.1 1.1
v -1.7 0 1.1
v -1.7 0.1 1.1
v -1.7 0.2 1.1
v -1.6 0.1 1.1
v -1.6 0.2 1.1
v -1.5 0 1.1
v -1.5 0.1 1.1
v -1.5 0.2 1.1
v -1.4 0 1.1
v -1.4 0.1 1.1
v -0.5 0 1.1
v -0.5 0.1 1.1
v -0.4 0 1.1
v -0.4 0.1 1.1
v -0.4 0.2 1.1
v -0.3 0.1 1.1
v -0.3 0.2 1.1
v -0.2 0 1.1
v -0.2 0.1 1.1
v -0.2 0.2 1.1
v -0.0999998 0 1.1
v -0.0999998 0.1 1.1
v -1.7 0 0.6
v -1.7 0.1 0.6
v -1.6 0 0.6
v -1.6 0.1 0.6
v -1.5 0 0.6
v -1.5 0.1 0.6
v -0.4 0 0.6
v -0.4 0.1 0.6
v -0.3 0 0.6
v -0.3 0.1 0.6
v -0.2 0 0.6
v -0.2 0.1 0.6
v -1.8 0 0.5
v -1.8 0.1 0.5
v -1.7 0 0.5
v -1.7 0.1 0.5
v -1.7 0.2 0.5
v -1.6 0.1 0.5
v -1.6 0.2 0.5
v -1.5 0 0.5
v -1.5 0.1 0.5
v -1.5 0.2 0.5
v -1.4 0 0.5
v -1.4 0.1 0.5
v -0.5 0 0.5
v -0.5 0.1 0.5
v -0.4 0 0.5
v -0.4 0.1 0.5
v -0.4 0.2 0.5
v -0.3 0.1 0.5
v -0.3 0.2 0.5
v -0.2 0 0.5
v -0.2 0.1 0.5
v -0.2 0.2 0.5
v -0.0999998 0 0.5
v -0.0999998 0.1 0.5
v -1.3 0 0.2
v -1.3 0.1 0.2
v -1.2 0 0.2
v -1.2 0.1 0.2
v -1.1 0 0.2
v -1.1 0.1 0.2
v -0.8 0 0.2
v -0.8 0.1 0.2
v -0.7 0 0.2
v -0.7 0.1 0.2
v -0.6 0 0.2
v -0.6 0.1 0.2
v -1.4 0 0.1
v -1.4 0.1 0.1
v -1.3 0 0.1
v -1.3 0.1 0.1
v -1.3 0.2 0.1
v -1.2 0.1 0.1
v -1.2 0.2 0.1
v -1.1 0 0.1
v -1.1 0.1 0.1
v -1.1 0.2 0.1
v -1 0 0.1
v -1 0.1 0.1
v -0.9 0 0.1
v -0.9 0.1 0.1
v -0.8 0 0.1
v -0.8 0.1 0.1
v -0.8 0.2 0.1
v -0.7 0.1 0.1
v -0.7 0.2 0.1
v -0.6 0 0.1
v -0.6 0.1 0.1
v -0.6 0.2 0.1
v -0.5 0 0.1
v -0.5 0.1 0.1
v -1.4 0 1.3
v -1.4 0.1 1.3
v -1.3 0 1.3
v -1.3 0.1 1.3
v -1.3 0.2 1.3
v -1.2 0.1 1.3
v -1.1 0 1.3
v -1.1 0.1 1.3
v -1.1 0.2 1.3
v -1 0 1.3
v -1 0.1 1.3
v -0.9 0 1.3
v -0.9 0.1 1.3
v -0.8 0 1.3
v -0.8 0.1 1.3
v -0.8 0.2 1.3
v -0.7 0.1 1.3
v -0.6 0 1.3
v -0.6 0.1 1.3
v -0.6 0.2 1.3
v -0.5 0 1.3
v -0.5 0.1 1.3
v -1.3 0 1.2
v -1.3 0.1 1.2
v -1.2 0 1.2
v -1.2 0.1 1.2
v -1.1 0 1.2
v -1.1 0.1 1.2
v -0.8 0 1.2
v -0.8 0.1 1.2
v -0.7 0 1.2
v -0.7 0.1 1.2
v -0.6 0 1.2
v -0.6 0.1 1.2
v -1.8 0 0.9
v -1.8 0.1 0.9
v -1.7 0 0.9
v -1.7 0.1 0.9
v -1.7 0.2 0.9
v -1.6 0.1 0.9
v -1.5 0 0.9
v -1.5 0.1 0.9
v -1.5 0.2 0.9
v -1.4 0 0.9
v -1.4 0.1 0.9
v -0.5 0 0.9
v -0.5 0.1 0.9
v -0.4 0 0.9
v -0.4 0.1 0.9
v -0.4 0.2 0.9
v -0.3 0.1 0.9
v -0.2 0 0.9
v -0.2 0.1 0.9
v -0.2 0.2 0.9
v -0.0999998 0 0.9
v -0.0999998 0.1 0.9
v -1.7 0 0.8
v -1.7 0.1 0.8
v -1.6 0 0.8
v -1.6 0.1 0.8
v -1.5 0 0.8
v -1.5 0.1 0.8
v -0.4 0 0.8
v -0.4 0.1 0.8
v -0.3 0 0.8
v -0.3 0.1 0.8
v -0.2 0 0.8
v -0.2 0.1 0.8
v -1.8 0 0.3
v -1.8 0.1 0.3
v -1.7 0 0.3
v -1.7 0.1 0.3
v -1.7 0.2 0.3
v -1.6 0.1 0.3
v -1.5 0 0.3
v -1.5 0.1 0.3
v -1.5 0.2 0.3
v -1.4 0 0.3
v -1.4 0.1 0.3
v -0.5 0 0.3
v -0.5 0.1 0.3
v -0.4 0 0.3
v -0.4 0.1 0.3
v -0.4 0.2 0.3
v -0.3 0.1 0.3
v -0.2 0 0.3
v -0.2 0.1 0.3
v -0.2 0.2 0.3
v -0.0999998 0 0.3
v -0.0999998 0.1 0.3
v -1.7 0 0.2
v -1.7 0.1 0.2
v -1.6 0 0.2
v -1.6 0.1 0.2
v -1.5 0 0.2
v -1.5 0.1 0.2
v -0.4 0 0.2
v -0.4 0.1 0.2
v -0.3 0 0.2
v -0.3 0.1 0.2
v -0.2 0 0.2
v -0.2 0.1 0.2
v -1.4 0 -0.1
v -1.4 0.1 -0.1
v -1.3 0 -0.1
v -1.3 0.1 -0.1
v -1.3 0.2 -0.1
v -1.2 0.1 -0.1
v -1.1 0 -0.1
v -1.1 0.1 -0.1
v -1.1 0.2 -0.1
v -1 0 -0.1
v -1 0.1 -0.1
v -0.9 0 -0.1
v -0.9 0.1 -0.1
v -0.8 0 -0.1
v -0.8 0.1 -0.1
v -0.8 0.2 -0.1
v -0.7 0.1 -0.1
v -0.6 0 -0.1
v -0.6 0.1 -0.1
v -0.6 0.2 -0.1
v -0.5 0 -0.1
v -0.5 0.1 -0.1
v -1.3 0 -0.2
v -1.3 0.1 -0.2
v -1.2 0 -0.2
v -1.2 0.1 -0.2
v -1.1 0 -0.2
v -1.1 0.1 -0.2
v -0.8 0 -0.2
v -0.8 0.1 -0.2
v -0.7 0 -0.2
v -0.7 0.1 -0.2
v -0.6 0 -0.2
v -0.6 0.1 -0.2
v -1.3 0 1.6
v -1.2 0 1.6
v -1.1 0 1.6
v -0.8 0 1.6
v -0.7 0 1.6
v -0.6 0 1.6
v -1.4 0 1.5
v -1.3 0 1.5
v -1.2 0 1.5
v -1.1 0 1.5
v -1 0 1.5
v -0.9 0 1.5
v -0.8 0 1.5
v -0.7 0 1.5
v -0.6 0 1.5
v -0.5 0 1.5
v -1.4 0 1.4
v -1.3 0 1.4
v -1.1 0 1.4
v -1 0 1.4
v -0.9 0 1.4
v -0.8 0 1.4
v -0.6 0 1.4
v -0.5 0 1.4
v -1.4 0 1.3
v -1.3 0 1.3
v -1.2 0 1.3
v -1.1 0 1.3
v -1 0 1.3
v -0.9 0 1.3
v -0.8 0 1.3
v -0.7 0 1.3
v -0.6 0 1.3
v -0.5 0 1.3
v -1.7 0 1.2
v -1.6 0 1.2
v -1.5 0 1.2
v -1.3 0 1.2
v -1.2 0 1.2
v -1.1 0 1.2
v -0.8 0 1.2
v -0.7 0 1.2
v -0.6 0 1.2
v -0.4 0 1.2
v -0.3 0 1.2
v -0.2 0 1.2
v -1.8 0 1.1
v -1.7 0 1.1
v -1.6 0 1.1
v -1.5 0 1.1
v -1.4 0 1.1
v -0.5 0 1.1
v -0.4 0 1.1
v -0.3 0 1.1
v -0.2 0 1.1
v -0.0999998 0 1.1
v -1.8 0 1
v -1.7 0 1
v -1.5 0 1
v -1.4 0 1
v -0.5 0 1
v -0.4 0 1
v -0.2 0 1
v -0.0999998 0 1
v -1.8 0 0.9
v -1.7 0 0.9
v -1.6 0 0.9
v -1.5 0 0.9
v -1.4 0 0.9
v -0.5 0 0.9
v -0.4 0 0.9
v -0.3 0 0.9
v -0.2 0 0.9
v -0.0999998 0 0.9
v -1.7 0 0.8
v -1.6 0 0.8
v -1.5 0 0.8
v -0.4 0 0.8
v -0.3 0 0.8
v -0.2 0 0.8
v -1.7 0 0.6
v -1.6 0 0.6
v -1.5 0 0.6
v -0.4 0 0.6
v -0.3 0 0.6
v -0.2 0 0.6
v -1.8 0 0.5
v -1.7 0 0.5
v -1.6 0 0.5
v -1.5 0 0.5
v -1.4 0 0.5
v -0.5 0 0.5
v -0.4 0 0.5
v -0.3 0 0.5
v -0.2 0 0.5
v -0.0999998 0 0.5
v -1.8 0 0.4
v -1.7 0 0.4
v -1.5 0 0.4
v -1.4 0 0.4
v -0.5 0 0.4
v -0.4 0 0.4
v -0.2 0 0.4
v -0.0999998 0 0.4
v -1.8 0 0.3
v -1.7 0 0.3
v -1.6 0 0.3
v -1.5 0 0.3
v -1.4 0 0.3
v -0.5 0 0.3
v -0.4 0 0.3
v -0.3 0 0.3
v -0.2 0 0.3
v -0.0999998 0 0.3
v -1.7 0 0.2
v -1.6 0 0.2
v -1.5 0 0.2
v -1.3 0 0.2
v -1.2 0 0.2
v -1.1 0 0.2
v -0.8 0 0.2
v -0.7 0 0.2
v -0.6 0 0.2
v -0.4 0 0.2
v -0.3 0 0.2
v -0.2 0 0.2
v -1.4 0 0.1
v -1.3 0 0.1
v -1.2 0 0.1
v -1.1 0 0.1
v -1 0 0.1
v -0.9 0 0.1
v -0.8 0 0.1
v -0.7 0 0.1
v -0.6 0 0.1
v -0.5 0 0.1
v -1.4 0 0
v -1.3 0 0
v -1.1 0 0
v -1 0 0
v -0.9 0 0
v -0.8 0 0
v -0.6 0 0
v -0.5 0 0
v -1.4 0 -0.1
v -1.3 0 -0.1
v -1.2 0 -0.1
v -1.1 0 -0.1
v -1 0 -0.1
v -0.9 0 -0.1
v -0.8 0 -0.1
v -0.7 0 -0.1
v -0.6 0 -0.1
v -0.5 0 -0.1
v -1.3 0 -0.2
v -1.2 0 -0.2
v -1.1 0 -0.2
v -0.8 0 -0.2
v -0.7 0 -0.2
v -0.6 0 -0.2
v -1.3 0.1 1.6
v -1.2 0.1 1.6
v -1.1 0.1 1.6
v -0.8 0.1 1.6
v -0.7 0.1 1.6
v -0.6 0.1 1.6
v -1.4 0.1 1.5
v -1.3 0.1 1.5
v -1.2 0.1 1.5
v -1.1 0.1 1.5
v -1 0.1 1.5
v -0.9 0.1 1.5
v -0.8 0.1 1.5
v -0.7 0.1 1.5
v -0.6 0.1 1.5
v -0.5 0.1 1.5
v -1.4 0.1 1.4
v -1.3 0.1 1.4
v -1.1 0.1 1.4
v -1 0.1 1.4
v -0.9 0.1 1.4
v -0.8 0.1 1.4
v -0.6 0.1 1.4
v -0.5 0.1 1.4
v -1.4 0.1 1.3
v -1.3 0.1 1.3
v -1.2 0.1 1.3
v -1.1 0.1 1.3
v -1 0.1 1.3
v -0.9 0.1 1.3
v -0.8 0.1 1.3
v -0.7 0.1 1.3
v -0.6 0.1 1.3
v -0.5 0.1 1.3
v -1.7 0.1 1.2
v -1.6 0.1 1.2
v -1.5 0.1 1.2
v -1.3 0.1 1.2
v -1.2 0.1 1.2
v -1.1 0.1 1.2
v -0.8 0.1 1.2
v -0.7 0.1 1.2
v -0.6 0.1 1.2
v -0.4 0.1 1.2
v -0.3 0.1 1.2
v -0.2 0.1 1.2
v -1.8 0.1 1.1
v -1.7 0.1 1.1
v -1.6 0.1 1.1
v -1.5 0.1 1.1
v -1.4 0.1 1.1
v -0.5 0.1 1.1
v -0.4 0.1 1.1
v -0.3 0.1 1.1
v -0.2 0.1 1.1
v -0.0999998 0.1 1.1
v -1.8 0.1 1
v -1.7 0.1 1
v -1.5 0.1 1
v -1.4 0.1 1
v -0.5 0.1 1
v -0.4 0.1 1
v -0.2 0.1 1
v -0.0999998 0.1 1
v -1.8 0.1 0.9
v -1.7 0.1 0.9
v -1.6 0.1 0.9
v -1.5 0.1 0.9
v -1.4 0.1 0.9
v -0.5 0.1 0.9
v -0.4 0.1 0.9
v -0.3 0.1 0.9
v -0.2 0.1 0.9
v -0.0999998 0.1 0.9
v -1.7 0.1 0.8
v -1.6 0.1 0.8
v -1.5 0.1 0.8
v -0.4 0.1 0.8
v -0.3 0.1 0.8
v -0.2 0.1 0.8
v -1.7 0.1 0.6
v -1.6 0.1 0.6
v -1.5 0.1 0.6
v -0.4 0.1 0.6
v -0.3 0.1 0.6
v -0.2 0.1 0.6
v -1.8 0.1 0.5
v -1.7 0.1 0.5
v -1.6 0.1 0.5
v -1.5 0.1 0.5
v -1.4 0.1 0.5
v -0.5 0.1 0.5
v -0.4 0.1 0.5
v -0.3 0.1 0.5
v -0.2 0.1 0.5
v -0.0999998 0.1 0.5
v -1.8 0.1 0.4
v -1.7 0.1 0.4
v -1.5 0.1 0.4
v -1.4 0.1 0.4
v -0.5 0.1 0.4
v -0.4 0.1 0.4
v -0.2 0.1 0.4
v -0.0999998 0.1 0.4
v -1.8 0.1 0.3
v -1.7 0.1 0.3
v -1.6 0.1 0.3
v -1.5 0.1 0.3
v -1.4 0.1 0.3
v -0.5 0.1 0.3
v -0.4 0.1 0.3
v -0.3 0.1 0.3
v -0.2 0.1 0.3
v -0.0999998 0.1 0.3
v -1.7 0.1 0.2
v -1.6 0.1 0.2
v -1.5 0.1 0.2
v -1.3 0.1 0.2
v -1.2 0.1 0.2
v -1.1 0.1 0.2
v -0.8 0.1 0.2
v -0.7 0.1 0.2
v -0.6 0.1 0.2
v -0.4 0.1 0.2
v -0.3 0.1 0.2
v -0.2 0.1 0.2
v -1.4 0.1 0.1
v -1.3 0.1 0.1
v -1.2 0.1 0.1
v -1.1 0.1 0.1
v -1 0.1 0.1
v -0.9 0.1 0.1
v -0.8 0.1 0.1
v -0.7 0.1 0.1
v -0.6 0.1 0.1
v -0.5 0.1 0.1
v -1.4 0.1 0
v -1.3 0.1 0
v -1.1 0.1 0
v -1 0.1 0
v -0.9 0.1 0
v -0.8 0.1 0
v -0.6 0.1 0
v -0.5 0.1 0
v -1.4 0.1 -0.1
v -1.3 0.1 -0.1
v -1.2 0.1 -0.1
v -1.1 0.1 -0.1
v -1 0.1 -0.1
v -0.9 0.1 -0.1
v -0.8 0.1 -0.1
v -0.7 0.1 -0.1
v -0.6 0.1 -0.1
v -0.5 0.1 -0.1
v -1.3 0.1 -0.2
v -1.2 0.1 -0.2
v -1.1 0.1 -0.2
v -0.8 0.1 -0.2
v -0.7 0.1 -0.2
v -0.6 0.1 -0.2
v -1.3 0.2 1.5
v -1.2 0.2 1.5
v -1.1 0.2 1.5
v -0.8 0.2 1.5
v -0.7 0.2 1.5
v -0.6 0.2 1.5
v -1.2 0.2 1.4
v -1.1 0.2 1.4
v -0.7 0.2 1.4
v -0.6 0.2 1.4
v -1.3 0.2 1.3
v -1.1 0.2 1.3
v -0.8 0.2 1.3
v -0.6 0.2 1.3
v -1.7 0.2 1.1
v -1.6 0.2 1.1
v -1.5 0.2 1.1
v -0.4 0.2 1.1
v -0.3 0.2 1.1
v -0.2 0.2 1.1
v -1.6 0.2 1
v -1.5 0.2 1
v -0.3 0.2 1
v -0.2 0.2 1
v -1.7 0.2 0.9
v -1.5 0.2 0.9
v -0.4 0.2 0.9
v -0.2 0.2 0.9
v -1.7 0.2 0.5
v -1.6 0.2 0.5
v -1.5 0.2 0.5
v -0.4 0.2 0.5
v -0.3 0.2 0.5
v -0.2 0.2 0.5
v -1.6 0.2 0.4
v -1.5 0.2 0.4
v -0.3 0.2 0.4
v -0.2 0.2 0.4
v -1.7 0.2 0.3
v -1.5 0.2 0.3
v -0.4 0.2 0.3
v -0.2 0.2 0.3
v -1.3 0.2 0.1
v -1.2 0.2 0.1
v -1.1 0.2 0.1
v -0.8 0.2 0.1
v -0.7 0.2 0.1
v -0.6 0.2 0.1
v -1.2 0.2 0
v -1.1 0.2 0
v -0.7 0.2 0
v -0.6 0.2 0
v -1.3 0.2 -0.1
v -1.1 0.2 -0.1
v -0.8 0.2 -0.1
v -0.6 0.2 -0.1

# faces
f 7/2/1 2/2/1 1/2/1
f 8/1/1 3/1/1 2/1/1
f 8/2/1 2/2/1 7/2/1
f 9/1/1 3/1/1 8/1/1
f 10/2/1 5/2/1 4/2/1
f 11/1/1 6/1/1 5/1/1
f 11/2/1 5/2/1 10/2/1
f 12/1/1 6/1/1 11/1/1
f 21/2/1 14/2/1 13/2/1
f 22/2/1 14/2/1 21/2/1
f 24/1/1 16/1/1 15/1/1
f 25/1/1 16/1/1 24/1/1
f 26/2/1 18/2/1 17/2/1
f 27/2/1 18/2/1 26/2/1
f 29/1/1 20/1/1 19/1/1
f 30/1/1 20/1/1 29/1/1
f 31/2/1 23/2/1 22/2/1
f 31/2/1 24/2/1 23/2/1
f 32/2/1 24/2/1 31/2/1
f 33/2/1 28/2/1 27/2/1
f 33/2/1 29/2/1 28/2/1
f 34/2/1 29/2/1 33/2/1
f 41/2/1 36/2/1 35/2/1
f 42/1/1 37/1/1 36/1/1
f 42/2/1 36/2/1 41/2/1
f 43/1/1 37/1/1 42/1/1
f 44/2/1 39/2/1 38/2/1
f 45/1/1 40/1/1 39/1/1
f 45/2/1 39/2/1 44/2/1
f 46/1/1 40/1/1 45/1/1
f 55/2/1 48/2/1 47/2/1
f 56/2/1 48/2/1 55/2/1
f 58/1/1 50/1/1 49/1/1
f 59/1/1 50/1/1 58/1/1
f 60/2/1 52/2/1 51/2/1
f 61/2/1 52/2/1 60/2/1
f 63/1/1 54/1/1 53/1/1
f 64/1/1 54/1/1 63/1/1
f 65/2/1 57/2/1 56/2/1
f 65/2/1 58/2/1 57/2/1
f 66/2/1 58/2/1 65/2/1
f 67/2/1 62/2/1 61/2/1
f 67/2/1 63/2/1 62/2/1
f 68/2/1 63/2/1 67/2/1
f 75/2/1 70/2/1 69/2/1
f 76/1/1 71/1/1 70/1/1
f 76/2/1 70/2/1 75/2/1
f 77/1/1 71/1/1 76/1/1
f 78/2/1 73/2/1 72/2/1
f 79/1/1 74/1/1 73/1/1
f 79/2/1 73/2/1 78/2/1
f 80/1/1 74/1/1 79/1/1
f 89/2/1 82/2/1 81/2/1
f 90/2/1 82/2/1 89/2/1
f 92/1/1 84/1/1 83/1/1
f 93/1/1 84/1/1 92/1/1
f 94/2/1 86/2/1 85/2/1
f 95/2/1 86/2/1 94/2/1
f 97/1/1 88/1/1 87/1/1
f 98/1/1 88/1/1 97/1/1
f 99/2/1 91/2/1 90/2/1
f 99/2/1 92/2/1 91/2/1
f 100/2/1 92/2/1 99/2/1
f 101/2/1 96/2/1 95/2/1
f 101/2/1 97/2/1 96/2/1
f 102/2/1 97/2/1 101/2/1
f 109/2/1 104/2/1 103/2/1
f 110/1/1 105/1/1 104/1/1
f 110/2/1 104/2/1 109/2/1
f 111/1/1 105/1/1 110/1/1
f 112/2/1 107/2/1 106/2/1
f 113/1/1 108/1/1 107/1/1
f 113/2/1 107/2/1 112/2/1
f 114/1/1 108/1/1 113/1/1
f 123/2/1 116/2/1 115/2/1
f 124/2/1 116/2/1 123/2/1
f 126/1/1 118/1/1 117/1/1
f 127/1/1 118/1/1 126/1/1
f 128/2/1 120/2/1 119/2/1
f 129/2/1 120/2/1 128/2/1
f 131/1/1 122/1/1 121/1/1
f 132/1/1 122/1/1 131/1/1
f 133/2/1 125/2/1 124/2/1
f 133/2/1 126/2/1 125/2/1
f 134/2/1 126/2/1 133/2/1
f 135/2/1 130/2/1 129/2/1
f 135/2/1 131/2/1 130/2/1
f 136/2/1 131/2/1 135/2/1
f 137/1/2 138/1/2 145/1/2
f 145/1/2 138/1/2 146/1/2
f 139/2/2 140/2/2 148/2/2
f 148/2/2 140/2/2 149/2/2
f 141/1/2 142/1/2 150/1/2
f 150/1/2 142/1/2 151/1/2
f 143/2/2 144/2/2 153/2/2
f 153/2/2 144/2/2 154/2/2
f 146/1/2 147/1/2 155/1/2
f 147/2/2 148/2/2 156/2/2
f 155/1/2 147/1/2 156/1/2
f 156/2/2 148/2/2 157/2/2
f 151/1/2 152/1/2 158/1/2
f 152/2/2 153/2/2 159/2/2
f 158/1/2 152/1/2 159/1/2
f 159/2/2 153/2/2 160/2/2
f 161/1/2 162/1/2 167/1/2
f 162/2/2 163/2/2 168/2/2
f 167/1/2 162/1/2 168/1/2
f 168/2/2 163/2/2 169/2/2
f 164/1/2 165/1/2 170/1/2
f 165/2/2 166/2/2 171/2/2
f 170/1/2 165/1/2 171/1/2
f 171/2/2 166/2/2 172/2/2
f 173/1/2 174/1/2 181/1/2
f 181/1/2 174/1/2 182/1/2
f 175/2/2 176/2/2 184/2/2
f 184/2/2 176/2/2 185/2/2
f 177/1/2 178/1/2 186/1/2
f 186/1/2 178/1/2 187/1/2
f 179/2/2 180/2/2 189/2/2
f 189/2/2 180/2/2 190/2/2
f 182/1/2 183/1/2 191/1/2
f 183/2/2 184/2/2 192/2/2
f 191/1/2 183/1/2 192/1/2
f 192/2/2 184/2/2 193/2/2
f 187/1/2 188/1/2 194/1/2
f 188/2/2 189/2/2 195/2/2
f 194/1/2 188/1/2 195/1/2
f 195/2/2 189/2/2 196/2/2
f 197/1/2 198/1/2 203/1/2
f 198/2/2 199/2/2 204/2/2
f 203/1/2 198/1/2 204/1/2
f 204/2/2 199/2/2 205/2/2
f 200/1/2 201/1/2 206/1/2
f 201/2/2 202/2/2 207/2/2
f 206/1/2 201/1/2 207/1/2
f 207/2/2 202/2/2 208/2/2
f 209/1/2 210/1/2 217/1/2
f 217/1/2 210/1/2 218/1/2
f 211/2/2 212/2/2 220/2/2
f 220/2/2 212/2/2 221/2/2
f 213/1/2 214/1/2 222/1/2
f 222/1/2 214/1/2 223/1/2
f 215/2/2 216/2/2 225/2/2
f 225/2/2 216/2/2 226/2/2
f 218/1/2 219/1/2 227/1/2
f 219/2/2 220/2/2 228/2/2
f 227/1/2 219/1/2 228/1/2
f 228/2/2 220/2/2 229/2/2
f 223/1/2 224/1/2 230/1/2
f 224/2/2 225/2/2 231/2/2
f 230/1/2 224/1/2 231/1/2
f 231/2/2 225/2/2 232/2/2
f 233/1/2 234/1/2 239/1/2
f 234/2/2 235/2/2 240/2/2
f 239/1/2 234/1/2 240/1/2
f 240/2/2 235/2/2 241/2/2
f 236/1/2 237/1/2 242/1/2
f 237/2/2 238/2/2 243/2/2
f 242/1/2 237/1/2 243/1/2
f 243/2/2 238/2/2 244/2/2
f 245/1/2 246/1/2 253/1/2
f 253/1/2 246/1/2 254/1/2
f 247/2/2 248/2/2 256/2/2
f 256/2/2 248/2/2 257/2/2
f 249/1/2 250/1/2 258/1/2
f 258/1/2 250/1/2 259/1/2
f 251/2/2 252/2/2 261/2/2
f 261/2/2 252/2/2 262/2/2
f 254/1/2 255/1/2 263/1/2
f 255/2/2 256/2/2 264/2/2
f 263/1/2 255/1/2 264/1/2
f 264/2/2 256/2/2 265/2/2
f 259/1/2 260/1/2 266/1/2
f 260/2/2 261/2/2 267/2/2
f 266/1/2 260/1/2 267/1/2
f 267/2/2 261/2/2 268/2/2
f 269/1/2 270/1/2 275/1/2
f 270/2/2 271/2/2 276/2/2
f 275/1/2 270/1/2 276/1/2
f 276/2/2 271/2/2 277/2/2
f 272/1/2 273/1/2 278/1/2
f 273/2/2 274/2/2 279/2/2
f 278/1/2 273/1/2 279/1/2
f 279/2/2 274/2/2 280/2/2
f 283/2/3 282/2/3 281/2/3
f 284/2/3 282/2/3 283/2/3
f 285/1/3 284/1/3 283/1/3
f 286/1/3 284/1/3 285/1/3
f 289/2/3 288/2/3 287/2/3
f 290/2/3 288/2/3 289/2/3
f 291/1/3 290/1/3 289/1/3
f 292/1/3 290/1/3 291/1/3
f 295/2/3 294/2/3 293/2/3
f 296/2/3 294/2/3 295/2/3
f 298/2/3 297/2/3 296/2/3
f 299/2/3 297/2/3 298/2/3
f 301/1/3 299/1/3 298/1/3
f 302/1/3 299/1/3 301/1/3
f 303/1/3 301/1/3 300/1/3
f 304/1/3 301/1/3 303/1/3
f 307/2/3 306/2/3 305/2/3
f 308/2/3 306/2/3 307/2/3
f 310/2/3 309/2/3 308/2/3
f 311/2/3 309/2/3 310/2/3
f 313/1/3 311/1/3 310/1/3
f 314/1/3 311/1/3 313/1/3
f 315/1/3 313/1/3 312/1/3
f 316/1/3 313/1/3 315/1/3
f 319/2/3 318/2/3 317/2/3
f 320/2/3 318/2/3 319/2/3
f 321/1/3 320/1/3 319/1/3
f 322/1/3 320/1/3 321/1/3
f 325/2/3 324/2/3 323/2/3
f 326/2/3 324/2/3 325/2/3
f 327/1/3 326/1/3 325/1/3
f 328/1/3 326/1/3 327/1/3
f 331/2/3 330/2/3 329/2/3
f 332/2/3 330/2/3 331/2/3
f 334/2/3 333/2/3 332/2/3
f 335/2/3 333/2/3 334/2/3
f 337/1/3 335/1/3 334/1/3
f 338/1/3 335/1/3 337/1/3
f 339/1/3 337/1/3 336/1/3
f 340/1/3 337/1/3 339/1/3
f 343/2/3 342/2/3 341/2/3
f 344/2/3 342/2/3 343/2/3
f 346/2/3 345/2/3 344/2/3
f 347/2/3 345/2/3 346/2/3
f 349/1/3 347/1/3 346/1/3
f 350/1/3 347/1/3 349/1/3
f 351/1/3 349/1/3 348/1/3
f 352/1/3 349/1/3 351/1/3
f 355/2/3 354/2/3 353/2/3
f 356/2/3 354/2/3 355/2/3
f 357/1/3 356/1/3 355/1/3
f 358/1/3 356/1/3 357/1/3
f 361/2/3 360/2/3 359/2/3
f 362/2/3 360/2/3 361/2/3
f 363/1/3 362/1/3 361/1/3
f 364/1/3 362/1/3 363/1/3
f 367/2/3 366/2/3 365/2/3
f 368/2/3 366/2/3 367/2/3
f 370/2/3 369/2/3 368/2/3
f 371/2/3 369/2/3 370/2/3
f 373/1/3 371/1/3 370/1/3
f 374/1/3 371/1/3 373/1/3
f 375/1/3 373/1/3 372/1/3
f 376/1/3 373/1/3 375/1/3
f 379/2/3 378/2/3 377/2/3
f 380/2/3 378/2/3 379/2/3
f 382/2/3 381/2/3 380/2/3
f 383/2/3 381/2/3 382/2/3
f 385/1/3 383/1/3 382/1/3
f 386/1/3 383/1/3 385/1/3
f 387/1/3 385/1/3 384/1/3
f 388/1/3 385/1/3 387/1/3
f 391/2/3 390/2/3 389/2/3
f 392/2/3 390/2/3 391/2/3
f 393/1/3 392/1/3 391/1/3
f 394/1/3 392/1/3 393/1/3
f 397/2/3 396/2/3 395/2/3
f 398/2/3 396/2/3 397/2/3
f 399/1/3 398/1/3 397/1/3
f 400/1/3 398/1/3 399/1/3
f 403/2/3 402/2/3 401/2/3
f 404/2/3 402/2/3 403/2/3
f 406/2/3 405/2/3 404/2/3
f 407/2/3 405/2/3 406/2/3
f 409/1/3 407/1/3 406/1/3
f 410/1/3 407/1/3 409/1/3
f 411/1/3 409/1/3 408/1/3
f 412/1/3 409/1/3 411/1/3
f 415/2/3 414/2/3 413/2/3
f 416/2/3 414/2/3 415/2/3
f 418/2/3 417/2/3 416/2/3
f 419/2/3 417/2/3 418/2/3
f 421/1/3 419/1/3 418/1/3
f 422/1/3 419/1/3 421/1/3
f 423/1/3 421/1/3 420/1/3
f 424/1/3 421/1/3 423/1/3
f 425/1/4 426/1/4 427/1/4
f 427/1/4 426/1/4 428/1/4
f 428/2/4 429/2/4 430/2/4
f 430/2/4 429/2/4 432/2/4
f 432/2/4 429/2/4 433/2/4
f 431/2/4 432/2/4 434/2/4
f 434/2/4 432/2/4 435/2/4
f 436/1/4 437/1/4 438/1/4
f 438/1/4 437/1/4 439/1/4
f 439/2/4 440/2/4 441/2/4
f 441/2/4 440/2/4 443/2/4
f 443/2/4 440/2/4 444/2/4
f 442/2/4 443/2/4 445/2/4
f 445/2/4 443/2/4 446/2/4
f 447/1/4 448/1/4 449/1/4
f 449/1/4 448/1/4 450/1/4
f 449/2/4 450/2/4 451/2/4
f 451/2/4 450/2/4 452/2/4
f 453/1/4 454/1/4 455/1/4
f 455/1/4 454/1/4 456/1/4
f 455/2/4 456/2/4 457/2/4
f 457/2/4 456/2/4 458/2/4
f 459/1/4 460/1/4 461/1/4
f 461/1/4 460/1/4 462/1/4
f 462/2/4 463/2/4 464/2/4
f 464/2/4 463/2/4 466/2/4
f 466/2/4 463/2/4 467/2/4
f 465/2/4 466/2/4 468/2/4
f 468/2/4 466/2/4 469/2/4
f 470/1/4 471/1/4 472/1/4
f 472/1/4 471/1/4 473/1/4
f 473/2/4 474/2/4 475/2/4
f 475/2/4 474/2/4 477/2/4
f 477/2/4 474/2/4 478/2/4
f 476/2/4 477/2/4 479/2/4
f 479/2/4 477/2/4 480/2/4
f 481/1/4 482/1/4 483/1/4
f 483/1/4 482/1/4 484/1/4
f 483/2/4 484/2/4 485/2/4
f 485/2/4 484/2/4 486/2/4
f 487/1/4 488/1/4 489/1/4
f 489/1/4 488/1/4 490/1/4
f 489/2/4 490/2/4 491/2/4
f 491/2/4 490/2/4 492/2/4
f 493/1/4 494/1/4 495/1/4
f 495/1/4 494/1/4 496/1/4
f 496/2/4 497/2/4 498/2/4
f 498/2/4 497/2/4 500/2/4
f 500/2/4 497/2/4 501/2/4
f 499/2/4 500/2/4 502/2/4
f 502/2/4 500/2/4 503/2/4
f 504/1/4 505/1/4 506/1/4
f 506/1/4 505/1/4 507/1/4
f 507/2/4 508/2/4 509/2/4
f 509/2/4 508/2/4 511/2/4
f 511/2/4 508/2/4 512/2/4
f 510/2/4 511/2/4 513/2/4
f 513/2/4 511/2/4 514/2/4
f 515/1/4 516/1/4 517/1/4
f 517/1/4 516/1/4 518/1/4
f 517/2/4 518/2/4 519/2/4
f 519/2/4 518/2/4 520/2/4
f 521/1/4 522/1/4 523/1/4
f 523/1/4 522/1/4 524/1/4
f 523/2/4 524/2/4 525/2/4
f 525/2/4 524/2/4 526/2/4
f 527/1/4 528/1/4 529/1/4
f 529/1/4 528/1/4 530/1/4
f 530/2/4 531/2/4 532/2/4
f 532/2/4 531/2/4 534/2/4
f 534/2/4 531/2/4 535/2/4
f 533/2/4 534/2/4 536/2/4
f 536/2/4 534/2/4 537/2/4
f 538/1/4 539/1/4 540/1/4
f 540/1/4 539/1/4 541/1/4
f 541/2/4 542/2/4 543/2/4
f 543/2/4 542/2/4 545/2/4
f 545/2/4 542/2/4 546/2/4
f 544/2/4 545/2/4 547/2/4
f 547/2/4 545/2/4 548/2/4
f 549/1/4 550/1/4 551/1/4
f 551/1/4 550/1/4 552/1/4
f 551/2/4 552/2/4 553/2/4
f 553/2/4 552/2/4 554/2/4
f 555/1/4 556/1/4 557/1/4
f 557/1/4 556/1/4 558/1/4
f 557/2/4 558/2/4 559/2/4
f 559/2/4 558/2/4 560/2/4
f 568/2/5 562/2/5 561/2/5
f 569/1/5 563/1/5 562/1/5
f 569/2/5 562/2/5 568/2/5
f 570/1/5 563/1/5 569/1/5
f 573/2/5 565/2/5 564/2/5
f 574/1/5 566/1/5 565/1/5
f 574/2/5 565/2/5 573/2/5
f 575/1/5 566/1/5 574/1/5
f 577/2/5 568/2/5 567/2/5
f 578/1/5 571/1/5 570/1/5
f 578/2/5 568/2/5 577/2/5
f 578/1/5 569/1/5 568/1/5
f 578/1/5 570/1/5 569/1/5
f 579/1/5 571/1/5 578/1/5
f 580/1/5 571/1/5 579/1/5
f 581/2/5 573/2/5 572/2/5
f 582/1/5 576/1/5 575/1/5
f 582/2/5 573/2/5 581/2/5
f 582/1/5 575/1/5 574/1/5
f 582/1/5 574/1/5 573/1/5
f 583/1/5 576/1/5 582/1/5
f 584/1/5 576/1/5 583/1/5
f 585/1/5 579/1/5 578/1/5
f 585/1/5 578/1/5 577/1/5
f 586/1/5 579/1/5 585/1/5
f 587/1/5 579/1/5 586/1/5
f 588/2/5 580/2/5 579/2/5
f 588/1/5 579/1/5 587/1/5
f 589/2/5 580/2/5 588/2/5
f 590/1/5 582/1/5 581/1/5
f 590/1/5 583/1/5 582/1/5
f 591/1/5 583/1/5 590/1/5
f 592/1/5 583/1/5 591/1/5
f 593/2/5 584/2/5 583/2/5
f 593/1/5 583/1/5 592/1/5
f 594/2/5 584/2/5 593/2/5
f 598/1/5 587/1/5 586/1/5
f 599/2/5 588/2/5 587/2/5
f 599/1/5 587/1/5 598/1/5
f 600/2/5 588/2/5 599/2/5
f 601/1/5 592/1/5 591/1/5
f 602/2/5 593/2/5 592/2/5
f 602/1/5 592/1/5 601/1/5
f 603/2/5 593/2/5 602/2/5
f 608/2/5 596/2/5 595/2/5
f 609/1/5 597/1/5 596/1/5
f 609/2/5 596/2/5 608/2/5
f 610/1/5 597/1/5 609/1/5
f 613/2/5 605/2/5 604/2/5
f 614/1/5 606/1/5 605/1/5
f 614/2/5 605/2/5 613/2/5
f 615/1/5 606/1/5 614/1/5
f 617/2/5 608/2/5 607/2/5
f 618/1/5 611/1/5 610/1/5
f 618/2/5 608/2/5 617/2/5
f 618/1/5 609/1/5 608/1/5
f 618/1/5 610/1/5 609/1/5
f 619/1/5 611/1/5 618/1/5
f 620/1/5 611/1/5 619/1/5
f 621/2/5 613/2/5 612/2/5
f 622/1/5 616/1/5 615/1/5
f 622/2/5 613/2/5 621/2/5
f 622/1/5 615/1/5 614/1/5
f 622/1/5 614/1/5 613/1/5
f 623/1/5 616/1/5 622/1/5
f 624/1/5 616/1/5 623/1/5
f 625/1/5 619/1/5 618/1/5
f 625/1/5 618/1/5 617/1/5
f 626/1/5 619/1/5 625/1/5
f 627/1/5 619/1/5 626/1/5
f 628/2/5 620/2/5 619/2/5
f 628/1/5 619/1/5 627/1/5
f 629/2/5 620/2/5 628/2/5
f 630/1/5 622/1/5 621/1/5
f 630/1/5 623/1/5 622/1/5
f 631/1/5 623/1/5 630/1/5
f 632/1/5 623/1/5 631/1/5
f 633/2/5 624/2/5 623/2/5
f 633/1/5 623/1/5 632/1/5
f 634/2/5 624/2/5 633/2/5
f 635/1/5 627/1/5 626/1/5
f 636/2/5 628/2/5 627/2/5
f 636/1/5 627/1/5 635/1/5
f 637/2/5 628/2/5 636/2/5
f 638/1/5 632/1/5 631/1/5
f 639/2/5 633/2/5 632/2/5
f 639/1/5 632/1/5 638/1/5
f 640/2/5 633/2/5 639/2/5
f 648/2/5 642/2/5 641/2/5
f 649/1/5 643/1/5 642/1/5
f 649/2/5 642/2/5 648/2/5
f 650/1/5 643/1/5 649/1/5
f 653/2/5 645/2/5 644/2/5
f 654/1/5 646/1/5 645/1/5
f 654/2/5 645/2/5 653/2/5
f 655/1/5 646/1/5 654/1/5
f 657/2/5 648/2/5 647/2/5
f 658/1/5 651/1/5 650/1/5
f 658/2/5 648/2/5 657/2/5
f 658/1/5 649/1/5 648/1/5
f 658/1/5 650/1/5 649/1/5
f 659/1/5 651/1/5 658/1/5
f 660/1/5 651/1/5 659/1/5
f 661/2/5 653/2/5 652/2/5
f 662/1/5 655/1/5 654/1/5
f 662/2/5 653/2/5 661/2/5
f 662/1/5 656/1/5 655/1/5
f 662/1/5 654/1/5 653/1/5
f 663/1/5 656/1/5 662/1/5
f 664/1/5 656/1/5 663/1/5
f 665/1/5 659/1/5 658/1/5
f 665/1/5 658/1/5 657/1/5
f 666/1/5 659/1/5 665/1/5
f 667/1/5 659/1/5 666/1/5
f 668/2/5 660/2/5 659/2/5
f 668/1/5 659/1/5 667/1/5
f 669/2/5 660/2/5 668/2/5
f 670/1/5 662/1/5 661/1/5
f 670/1/5 663/1/5 662/1/5
f 671/1/5 663/1/5 670/1/5
f 672/1/5 663/1/5 671/1/5
f 673/2/5 664/2/5 663/2/5
f 673/1/5 663/1/5 672/1/5
f 674/2/5 664/2/5 673/2/5
f 675/1/5 667/1/5 666/1/5
f 676/2/5 668/2/5 667/2/5
f 676/1/5 667/1/5 675/1/5
f 677/2/5 668/2/5 676/2/5
f 684/1/5 672/1/5 671/1/5
f 685/2/5 673/2/5 672/2/5
f 685/1/5 672/1/5 684/1/5
f 686/2/5 673/2/5 685/2/5
f 688/2/5 679/2/5 678/2/5
f 689/1/5 680/1/5 679/1/5
f 689/2/5 679/2/5 688/2/5
f 690/1/5 680/1/5 689/1/5
f 693/2/5 682/2/5 681/2/5
f 694/1/5 683/1/5 682/1/5
f 694/2/5 682/2/5 693/2/5
f 695/1/5 683/1/5 694/1/5
f 697/2/5 688/2/5 687/2/5
f 698/1/5 691/1/5 690/1/5
f 698/2/5 688/2/5 697/2/5
f 698/1/5 689/1/5 688/1/5
f 698/1/5 690/1/5 689/1/5
f 699/1/5 691/1/5 698/1/5
f 700/1/5 691/1/5 699/1/5
f 701/2/5 693/2/5 692/2/5
f 702/1/5 696/1/5 695/1/5
f 702/2/5 693/2/5 701/2/5
f 702/1/5 695/1/5 694/1/5
f 702/1/5 694/1/5 693/1/5
f 703/1/5 696/1/5 702/1/5
f 704/1/5 696/1/5 703/1/5
f 705/1/5 699/1/5 698/1/5
f 705/1/5 698/1/5 697/1/5
f 706/1/5 699/1/5 705/1/5
f 707/1/5 699/1/5 706/1/5
f 708/2/5 700/2/5 699/2/5
f 708/1/5 699/1/5 707/1/5
f 709/2/5 700/2/5 708/2/5
f 710/1/5 702/1/5 701/1/5
f 710/1/5 703/1/5 702/1/5
f 711/1/5 703/1/5 710/1/5
f 712/1/5 703/1/5 711/1/5
f 713/2/5 704/2/5 703/2/5
f 713/1/5 703/1/5 712/1/5
f 714/2/5 704/2/5 713/2/5
f 715/1/5 707/1/5 706/1/5
f 716/2/5 708/2/5 707/2/5
f 716/1/5 707/1/5 715/1/5
f 717/2/5 708/2/5 716/2/5
f 718/1/5 712/1/5 711/1/5
f 719/2/5 713/2/5 712/2/5
f 719/1/5 712/1/5 718/1/5
f 720/2/5 713/2/5 719/2/5
f 721/2/6 722/2/6 728/2/6
f 722/1/6 723/1/6 729/1/6
f 728/2/6 722/2/6 729/2/6
f 729/1/6 723/1/6 730/1/6
f 724/2/6 725/2/6 733/2/6
f 725/1/6 726/1/6 734/1/6
f 733/2/6 725/2/6 734/2/6
f 734/1/6 726/1/6 735/1/6
f 727/2/6 728/2/6 737/2/6
f 737/2/6 728/2/6 738/2/6
f 730/1/6 731/1/6 739/1/6
f 739/1/6 731/1/6 740/1/6
f 732/2/6 733/2/6 741/2/6
f 741/2/6 733/2/6 742/2/6
f 735/1/6 736/1/6 743/1/6
f 743/1/6 736/1/6 744/1/6
f 737/1/6 738/1/6 745/1/6
f 745/1/6 738/1/6 746/1/6
f 739/2/6 740/2/6 748/2/6
f 748/2/6 740/2/6 749/2/6
f 741/1/6 742/1/6 750/1/6
f 750/1/6 742/1/6 751/1/6
f 743/2/6 744/2/6 753/2/6
f 753/2/6 744/2/6 754/2/6
f 746/1/6 747/1/6 758/1/6
f 747/2/6 748/2/6 759/2/6
f 758/1/6 747/1/6 759/1/6
f 759/2/6 748/2/6 760/2/6
f 751/1/6 752/1/6 761/1/6
f 752/2/6 753/2/6 762/2/6
f 761/1/6 752/1/6 762/1/6
f 762/2/6 753/2/6 763/2/6
f 755/2/6 756/2/6 768/2/6
f 756/1/6 757/1/6 769/1/6
f 768/2/6 756/2/6 769/2/6
f 769/1/6 757/1/6 770/1/6
f 764/2/6 765/2/6 773/2/6
f 765/1/6 766/1/6 774/1/6
f 773/2/6 765/2/6 774/2/6
f 774/1/6 766/1/6 775/1/6
f 767/2/6 768/2/6 777/2/6
f 777/2/6 768/2/6 778/2/6
f 770/1/6 771/1/6 779/1/6
f 779/1/6 771/1/6 780/1/6
f 772/2/6 773/2/6 781/2/6
f 781/2/6 773/2/6 782/2/6
f 775/1/6 776/1/6 783/1/6
f 783/1/6 776/1/6 784/1/6
f 777/1/6 778/1/6 785/1/6
f 785/1/6 778/1/6 786/1/6
f 779/2/6 780/2/6 788/2/6
f 788/2/6 780/2/6 789/2/6
f 781/1/6 782/1/6 790/1/6
f 790/1/6 782/1/6 791/1/6
f 783/2/6 784/2/6 793/2/6
f 793/2/6 784/2/6 794/2/6
f 786/1/6 787/1/6 795/1/6
f 787/2/6 788/2/6 796/2/6
f 795/1/6 787/1/6 796/1/6
f 796/2/6 788/2/6 797/2/6
f 791/1/6 792/1/6 798/1/6
f 792/2/6 793/2/6 799/2/6
f 798/1/6 792/1/6 799/1/6
f 799/2/6 793/2/6 800/2/6
f 801/2/6 802/2/6 808/2/6
f 802/1/6 803/1/6 809/1/6
f 808/2/6 802/2/6 809/2/6
f 809/1/6 803/1/6 810/1/6
f 804/2/6 805/2/6 813/2/6
f 805/1/6 806/1/6 814/1/6
f 813/2/6 805/2/6 814/2/6
f 814/1/6 806/1/6 815/1/6
f 807/2/6 808/2/6 817/2/6
f 817/2/6 808/2/6 818/2/6
f 810/1/6 811/1/6 819/1/6
f 819/1/6 811/1/6 820/1/6
f 812/2/6 813/2/6 821/2/6
f 821/2/6 813/2/6 822/2/6
f 815/1/6 816/1/6 823/1/6
f 823/1/6 816/1/6 824/1/6
f 817/1/6 818/1/6 825/1/6
f 825/1/6 818/1/6 826/1/6
f 819/2/6 820/2/6 828/2/6
f 828/2/6 820/2/6 829/2/6
f 821/1/6 822/1/6 830/1/6
f 830/1/6 822/1/6 831/1/6
f 823/2/6 824/2/6 833/2/6
f 833/2/6 824/2/6 834/2/6
f 826/1/6 827/1/6 835/1/6
f 827/2/6 828/2/6 836/2/6
f 835/1/6 827/1/6 836/1/6
f 836/2/6 828/2/6 837/2/6
f 831/1/6 832/1/6 844/1/6
f 832/2/6 833/2/6 845/2/6
f 844/1/6 832/1/6 845/1/6
f 845/2/6 833/2/6 846/2/6
f 838/2/6 839/2/6 848/2/6
f 839/1/6 840/1/6 849/1/6
f 848/2/6 839/2/6 849/2/6
f 849/1/6 840/1/6 850/1/6
f 841/2/6 842/2/6 853/2/6
f 842/1/6 843/1/6 854/1/6
f 853/2/6 842/2/6 854/2/6
f 854/1/6 843/1/6 855/1/6
f 847/2/6 848/2/6 857/2/6
f 857/2/6 848/2/6 858/2/6
f 850/1/6 851/1/6 859/1/6
f 859/1/6 851/1/6 860/1/6
f 852/2/6 853/2/6 861/2/6
f 861/2/6 853/2/6 862/2/6
f 855/1/6 856/1/6 863/1/6
f 863/1/6 856/1/6 864/1/6
f 857/1/6 858/1/6 865/1/6
f 865/1/6 858/1/6 866/1/6
f 859/2/6 860/2/6 868/2/6
f 868/2/6 860/2/6 869/2/6
f 861/1/6 862/1/6 870/1/6
f 870/1/6 862/1/6 871/1/6
f 863/2/6 864/2/6 873/2/6
f 873/2/6 864/2/6 874/2/6
f 866/1/6 867/1/6 875/1/6
f 867/2/6 868/2/6 876/2/6
f 875/1/6 867/1/6 876/1/6
f 876/2/6 868/2/6 877/2/6
f 871/1/6 872/1/6 878/1/6
f 872/2/6 873/2/6 879/2/6
f 878/1/6 872/1/6 879/1/6
f 879/2/6 873/2/6 880/2/6
f 881/2/6 882/2/6 887/2/6
f 882/1/6 883/1/6 887/1/6
f 887/1/6 883/1/6 888/1/6
f 885/1/6 886/1/6 889/1/6
f 884/2/6 885/2/6 889/2/6
f 889/1/6 886/1/6 890/1/6
f 887/2/6 888/2/6 891/2/6
f 881/2/6 887/2/6 891/2/6
f 891/2/6 888/2/6 892/2/6
f 889/2/6 890/2/6 893/2/6
f 884/2/6 889/2/6 893/2/6
f 893/2/6 890/2/6 894/2/6
f 896/1/6 897/1/6 901/1/6
f 895/2/6 896/2/6 901/2/6
f 901/1/6 897/1/6 902/1/6
f 899/1/6 900/1/6 903/1/6
f 898/2/6 899/2/6 903/2/6
f 903/1/6 900/1/6 904/1/6
f 901/2/6 902/2/6 905/2/6
f 895/2/6 901/2/6 905/2/6
f 905/2/6 902/2/6 906/2/6
f 903/2/6 904/2/6 907/2/6
f 898/2/6 903/2/6 907/2/6
f 907/2/6 904/2/6 908/2/6
f 909/2/6 910/2/6 915/2/6
f 910/1/6 911/1/6 915/1/6
f 915/1/6 911/1/6 916/1/6
f 913/1/6 914/1/6 917/1/6
f 912/2/6 913/2/6 917/2/6
f 917/1/6 914/1/6 918/1/6
f 915/2/6 916/2/6 919/2/6
f 909/2/6 915/2/6 919/2/6
f 919/2/6 916/2/6 920/2/6
f 917/2/6 918/2/6 921/2/6
f 912/2/6 917/2/6 921/2/6
f 921/2/6 918/2/6 922/2/6
f 923/2/6 924/2/6 929/2/6
f 924/1/6 925/1/6 929/1/6
f 929/1/6 925/1/6 930/1/6
f 927/1/6 928/1/6 931/1/6
f 926/2/6 927/2/6 931/2/6
f 931/1/6 928/1/6 932/1/6
f 929/2/6 930/2/6 933/2/6
f 923/2/6 929/2/6 933/2/6
f 933/2/6 930/2/6 934/2/6
f 931/2/6 932/2/6 935/2/6
f 926/2/6 931/2/6 935/2/6
f 935/2/6 932/2/6 936/2/6
