# MagicaVoxel @ Ephtracy

# group
o 

# material
mtllib redes-1.mtl
usemtl palette

# normals
vn -1 0 0
vn 1 0 0
vn 0 0 1
vn 0 0 -1
vn 0 -1 0
vn 0 1 0

# texcoords
vt 0.294922 0.5
vt 0.302734 0.5
vt 0.607422 0.5
vt 0.611328 0.5
vt 0.615234 0.5
vt 0.642578 0.5
vt 0.697266 0.5
vt 0.728516 0.5
vt 0.794922 0.5
vt 0.802734 0.5
vt 0.884766 0.5
vt 0.919922 0.5

# verts
v -9.1 5.1 -0.5
v -9.1 5.1 -0.8
v -9.1 5.1 -1.8
v -9.1 5.1 -2.1
v -9.1 5.2 -0.5
v -9.1 5.2 -0.8
v -9.1 5.2 -1.8
v -9.1 5.2 -2.1
v -9.1 6.4 -0.6
v -9.1 6.4 -2
v -9.1 6.5 -0.6
v -9.1 6.5 -2
v -9 5.2 -0.6
v -9 5.2 -0.7
v -9 5.2 -1.9
v -9 5.2 -2
v -9 6.3 -0.6
v -9 6.3 -0.7
v -9 6.3 -1.9
v -9 6.3 -2
v -9 6.4 -0.5
v -9 6.4 -0.6
v -9 6.4 -2
v -9 6.4 -2.1
v -9 6.5 -0.5
v -9 6.5 -0.6
v -9 6.5 -2
v -9 6.5 -2.1
v -9 6.6 -0.6
v -9 6.6 -2
v -8.9 5.1 -0.6
v -8.9 5.1 -0.7
v -8.9 5.1 -1.9
v -8.9 5.1 -2
v -8.9 5.2 -0.6
v -8.9 5.2 -0.7
v -8.9 5.2 -1.9
v -8.9 5.2 -2
v -8.9 6.3 -0.6
v -8.9 6.3 -0.7
v -8.9 6.3 -1.9
v -8.9 6.3 -2
v -8.9 6.4 -0.6
v -8.9 6.4 -0.7
v -8.9 6.4 -1.9
v -8.9 6.4 -2
v -8.9 6.6 -0.7
v -8.9 6.6 -1.9
v -8.9 6.7 -0.7
v -8.9 6.7 -1.9
v -8.8 6.1 -2
v -8.8 6.1 -2.1
v -8.8 6.2 -2
v -8.8 6.2 -2.1
v -8.8 6.4 -1.9
v -8.8 6.4 -2
v -8.8 6.5 -1.9
v -8.8 6.5 -2
v -8.8 6.7 -0.8
v -8.8 6.7 -1.8
v -8.8 6.8 -0.8
v -8.8 6.8 -1.8
v -8.7 5.4 -0.6
v -8.7 5.4 -0.7
v -8.7 5.4 -1.9
v -8.7 5.4 -2
v -8.7 5.6 -0.5
v -8.7 5.6 -0.6
v -8.7 5.6 -0.7
v -8.7 5.6 -0.8
v -8.7 5.6 -1.8
v -8.7 5.6 -1.9
v -8.7 5.6 -2
v -8.7 5.6 -2.1
v -8.7 5.7 -0.5
v -8.7 5.7 -0.6
v -8.7 5.7 -0.7
v -8.7 5.7 -0.8
v -8.7 5.7 -1.8
v -8.7 5.7 -1.9
v -8.7 5.7 -2
v -8.7 5.7 -2.1
v -8.7 6 -0.6
v -8.7 6 -0.7
v -8.7 6 -1.9
v -8.7 6 -2
v -8.7 6 -2.1
v -8.7 6.1 -2
v -8.7 6.1 -2.1
v -8.7 6.8 -0.9
v -8.7 6.8 -1.7
v -8.7 6.9 -0.9
v -8.7 6.9 -1.7
v -8.6 5.3 -0.6
v -8.6 5.3 -0.7
v -8.6 5.3 -1.9
v -8.6 5.3 -2
v -8.6 5.4 -0.6
v -8.6 5.4 -0.7
v -8.6 5.4 -0.8
v -8.6 5.4 -1.8
v -8.6 5.4 -1.9
v -8.6 5.4 -2
v -8.6 5.5 -0.5
v -8.6 5.5 -0.6
v -8.6 5.5 -2
v -8.6 5.5 -2.1
v -8.6 5.6 -0.4
v -8.6 5.6 -0.5
v -8.6 5.6 -0.6
v -8.6 5.6 -0.7
v -8.6 5.6 -0.8
v -8.6 5.6 -0.9
v -8.6 5.6 -1.7
v -8.6 5.6 -1.8
v -8.6 5.6 -1.9
v -8.6 5.6 -2
v -8.6 5.6 -2.1
v -8.6 5.6 -2.2
v -8.6 5.7 -0.4
v -8.6 5.7 -0.5
v -8.6 5.7 -0.6
v -8.6 5.7 -0.7
v -8.6 5.7 -0.8
v -8.6 5.7 -0.9
v -8.6 5.7 -1.7
v -8.6 5.7 -1.8
v -8.6 5.7 -1.9
v -8.6 5.7 -2
v -8.6 5.7 -2.1
v -8.6 5.7 -2.2
v -8.6 5.9 -0.7
v -8.6 5.9 -0.8
v -8.6 5.9 -1.8
v -8.6 5.9 -1.9
v -8.6 6 -0.5
v -8.6 6 -0.6
v -8.6 6 -0.7
v -8.6 6 -0.8
v -8.6 6 -1.8
v -8.6 6 -1.9
v -8.6 6 -2
v -8.6 6 -2.1
v -8.6 6 -2.2
v -8.6 6.1 -0.6
v -8.6 6.1 -0.7
v -8.6 6.1 -1.9
v -8.6 6.1 -2
v -8.6 6.1 -2.1
v -8.6 6.1 -2.2
v -8.5 5.2 -0.6
v -8.5 5.2 -0.7
v -8.5 5.2 -1
v -8.5 5.2 -1.1
v -8.5 5.2 -1.5
v -8.5 5.2 -1.6
v -8.5 5.2 -1.9
v -8.5 5.2 -2
v -8.5 5.3 -0.5
v -8.5 5.3 -0.6
v -8.5 5.3 -0.7
v -8.5 5.3 -0.8
v -8.5 5.3 -1
v -8.5 5.3 -1.1
v -8.5 5.3 -1.5
v -8.5 5.3 -1.6
v -8.5 5.3 -1.8
v -8.5 5.3 -1.9
v -8.5 5.3 -2
v -8.5 5.3 -2.1
v -8.5 5.4 -0.4
v -8.5 5.4 -0.5
v -8.5 5.4 -0.6
v -8.5 5.4 -0.7
v -8.5 5.4 -0.8
v -8.5 5.4 -0.9
v -8.5 5.4 -1.7
v -8.5 5.4 -1.8
v -8.5 5.4 -1.9
v -8.5 5.4 -2
v -8.5 5.4 -2.1
v -8.5 5.4 -2.2
v -8.5 5.5 -0.5
v -8.5 5.5 -0.6
v -8.5 5.5 -2
v -8.5 5.5 -2.1
v -8.5 5.6 -0.4
v -8.5 5.6 -0.5
v -8.5 5.6 -0.8
v -8.5 5.6 -0.9
v -8.5 5.6 -1.7
v -8.5 5.6 -1.8
v -8.5 5.6 -2.1
v -8.5 5.6 -2.2
v -8.5 5.7 -0.4
v -8.5 5.7 -0.5
v -8.5 5.7 -0.8
v -8.5 5.7 -0.9
v -8.5 5.7 -1.7
v -8.5 5.7 -1.8
v -8.5 5.7 -2.1
v -8.5 5.7 -2.2
v -8.5 5.9 -0.8
v -8.5 5.9 -1.8
v -8.5 6 -0.4
v -8.5 6 -0.5
v -8.5 6 -0.6
v -8.5 6 -0.7
v -8.5 6 -0.8
v -8.5 6 -0.9
v -8.5 6 -1.7
v -8.5 6 -1.8
v -8.5 6 -1.9
v -8.5 6 -2
v -8.5 6 -2.1
v -8.5 6 -2.2
v -8.5 6.1 -0.2
v -8.5 6.1 -0.3
v -8.5 6.1 -0.5
v -8.5 6.1 -0.6
v -8.5 6.1 -0.7
v -8.5 6.1 -0.8
v -8.5 6.1 -1.8
v -8.5 6.1 -1.9
v -8.5 6.1 -2
v -8.5 6.1 -2.1
v -8.5 6.1 -2.2
v -8.5 6.1 -2.3
v -8.5 6.2 -0.2
v -8.5 6.2 -0.3
v -8.5 6.2 -0.6
v -8.5 6.2 -0.7
v -8.5 6.2 -1.9
v -8.5 6.2 -2
v -8.5 6.2 -2.2
v -8.5 6.2 -2.3
v -8.5 6.3 -0.6
v -8.5 6.3 -0.7
v -8.5 6.3 -1.9
v -8.5 6.3 -2
v -8.4 5.3 -0.9
v -8.4 5.3 -1
v -8.4 5.3 -1.6
v -8.4 5.3 -1.7
v -8.4 5.4 -0.9
v -8.4 5.4 -1
v -8.4 5.4 -1.6
v -8.4 5.4 -1.7
v -8.4 6 -0.3
v -8.4 6 -0.4
v -8.4 6 -0.6
v -8.4 6 -0.7
v -8.4 6 -1.9
v -8.4 6 -2
v -8.4 6.1 -0.3
v -8.4 6.1 -0.4
v -8.4 6.1 -0.6
v -8.4 6.1 -0.7
v -8.4 6.1 -1.9
v -8.4 6.1 -2
v -8.3 5.3 -0.8
v -8.3 5.3 -0.9
v -8.3 5.3 -1.7
v -8.3 5.3 -1.8
v -8.3 5.4 -0.6
v -8.3 5.4 -0.7
v -8.3 5.4 -0.8
v -8.3 5.4 -0.9
v -8.3 5.4 -1.7
v -8.3 5.4 -1.8
v -8.3 5.4 -1.9
v -8.3 5.4 -2
v -8.3 5.5 -0.6
v -8.3 5.5 -0.7
v -8.3 5.5 -1.9
v -8.3 5.5 -2
v -8.3 6.4 -0.7
v -8.3 6.4 -1.9
v -8.3 6.5 -0.7
v -8.3 6.5 -1.9
v -8.2 5.2 -0.8
v -8.2 5.2 -0.9
v -8.2 5.2 -1.7
v -8.2 5.2 -1.8
v -8.2 5.3 -0.8
v -8.2 5.3 -0.9
v -8.2 5.3 -1.7
v -8.2 5.3 -1.8
v -8.2 6 -0.5
v -8.2 6 -0.6
v -8.2 6.1 -0.5
v -8.2 6.1 -0.6
v -8.1 6.1 -0.6
v -8.1 6.1 -0.7
v -8.1 6.2 -0.6
v -8.1 6.2 -0.7
v -9 5.1 -0.6
v -9 5.1 -0.7
v -9 5.1 -1.9
v -9 5.1 -2
v -9 5.2 -0.6
v -9 5.2 -0.7
v -9 5.2 -1.9
v -9 5.2 -2
v -8.9 5.2 -0.6
v -8.9 5.2 -0.7
v -8.9 5.2 -1.9
v -8.9 5.2 -2
v -8.9 6.3 -0.6
v -8.9 6.3 -0.7
v -8.9 6.3 -1.9
v -8.9 6.3 -2
v -8.9 6.4 -0.7
v -8.9 6.4 -1.9
v -8.9 6.4 -2
v -8.9 6.5 -0.7
v -8.9 6.5 -1.9
v -8.9 6.5 -2
v -8.8 5.1 -0.5
v -8.8 5.1 -0.8
v -8.8 5.1 -1.8
v -8.8 5.1 -2.1
v -8.8 5.2 -0.5
v -8.8 5.2 -0.8
v -8.8 5.2 -1.8
v -8.8 5.2 -2.1
v -8.7 6.1 -2
v -8.7 6.1 -2.1
v -8.7 6.2 -2
v -8.7 6.2 -2.1
v -8.6 6 -2
v -8.6 6 -2.1
v -8.6 6.1 -2
v -8.6 6.1 -2.1
v -8.5 6 -0.6
v -8.5 6 -0.7
v -8.5 6 -1.9
v -8.5 6 -2
v -8.5 6 -2.1
v -8.5 6 -2.2
v -8.5 6.1 -0.6
v -8.5 6.1 -0.7
v -8.5 6.1 -1.9
v -8.5 6.1 -2
v -8.5 6.1 -2.1
v -8.5 6.1 -2.2
v -8.5 6.8 -0.9
v -8.5 6.8 -1.7
v -8.5 6.9 -0.9
v -8.5 6.9 -1.7
v -8.4 5.2 -0.6
v -8.4 5.2 -0.7
v -8.4 5.2 -1
v -8.4 5.2 -1.1
v -8.4 5.2 -1.5
v -8.4 5.2 -1.6
v -8.4 5.2 -1.9
v -8.4 5.2 -2
v -8.4 5.3 -0.5
v -8.4 5.3 -0.6
v -8.4 5.3 -0.7
v -8.4 5.3 -0.8
v -8.4 5.3 -1
v -8.4 5.3 -1.1
v -8.4 5.3 -1.5
v -8.4 5.3 -1.6
v -8.4 5.3 -1.8
v -8.4 5.3 -1.9
v -8.4 5.3 -2
v -8.4 5.3 -2.1
v -8.4 5.4 -0.4
v -8.4 5.4 -0.5
v -8.4 5.4 -0.6
v -8.4 5.4 -0.7
v -8.4 5.4 -0.8
v -8.4 5.4 -1.8
v -8.4 5.4 -1.9
v -8.4 5.4 -2
v -8.4 5.4 -2.1
v -8.4 5.4 -2.2
v -8.4 5.5 -0.5
v -8.4 5.5 -0.6
v -8.4 5.5 -0.7
v -8.4 5.5 -0.8
v -8.4 5.5 -0.9
v -8.4 5.5 -1.7
v -8.4 5.5 -1.8
v -8.4 5.5 -1.9
v -8.4 5.5 -2
v -8.4 5.5 -2.1
v -8.4 5.6 -0.4
v -8.4 5.6 -0.5
v -8.4 5.6 -0.8
v -8.4 5.6 -0.9
v -8.4 5.6 -1.7
v -8.4 5.6 -1.8
v -8.4 5.6 -2.1
v -8.4 5.6 -2.2
v -8.4 5.7 -0.4
v -8.4 5.7 -0.5
v -8.4 5.7 -0.8
v -8.4 5.7 -0.9
v -8.4 5.7 -1.7
v -8.4 5.7 -1.8
v -8.4 5.7 -2.1
v -8.4 5.7 -2.2
v -8.4 5.8 -0.5
v -8.4 5.8 -2.1
v -8.4 5.9 -0.4
v -8.4 5.9 -0.5
v -8.4 5.9 -0.8
v -8.4 5.9 -1.8
v -8.4 5.9 -2.1
v -8.4 6 -0.5
v -8.4 6 -0.6
v -8.4 6 -0.7
v -8.4 6 -0.8
v -8.4 6 -0.9
v -8.4 6 -1.7
v -8.4 6 -1.8
v -8.4 6 -1.9
v -8.4 6 -2
v -8.4 6 -2.1
v -8.4 6 -2.2
v -8.4 6.1 -0.2
v -8.4 6.1 -0.3
v -8.4 6.1 -0.5
v -8.4 6.1 -0.6
v -8.4 6.1 -0.7
v -8.4 6.1 -0.8
v -8.4 6.1 -1.8
v -8.4 6.1 -1.9
v -8.4 6.1 -2
v -8.4 6.1 -2.1
v -8.4 6.1 -2.2
v -8.4 6.1 -2.3
v -8.4 6.2 -0.2
v -8.4 6.2 -0.3
v -8.4 6.2 -0.6
v -8.4 6.2 -0.7
v -8.4 6.2 -1.9
v -8.4 6.2 -2
v -8.4 6.2 -2.2
v -8.4 6.2 -2.3
v -8.4 6.4 -0.6
v -8.4 6.4 -0.7
v -8.4 6.4 -1.9
v -8.4 6.4 -2
v -8.4 6.7 -0.8
v -8.4 6.7 -1.8
v -8.4 6.8 -0.8
v -8.4 6.8 -1.8
v -8.3 5.3 -0.6
v -8.3 5.3 -0.7
v -8.3 5.3 -0.9
v -8.3 5.3 -1
v -8.3 5.3 -1.6
v -8.3 5.3 -1.7
v -8.3 5.3 -1.9
v -8.3 5.3 -2
v -8.3 5.4 -0.5
v -8.3 5.4 -0.6
v -8.3 5.4 -0.7
v -8.3 5.4 -0.8
v -8.3 5.4 -0.9
v -8.3 5.4 -1
v -8.3 5.4 -1.6
v -8.3 5.4 -1.7
v -8.3 5.4 -1.8
v -8.3 5.4 -1.9
v -8.3 5.4 -2
v -8.3 5.4 -2.1
v -8.3 5.5 -0.5
v -8.3 5.5 -0.6
v -8.3 5.5 -0.8
v -8.3 5.5 -0.9
v -8.3 5.5 -1.7
v -8.3 5.5 -1.8
v -8.3 5.5 -2
v -8.3 5.5 -2.1
v -8.3 5.6 -0.4
v -8.3 5.6 -0.5
v -8.3 5.6 -0.6
v -8.3 5.6 -0.7
v -8.3 5.6 -0.8
v -8.3 5.6 -0.9
v -8.3 5.6 -1.7
v -8.3 5.6 -1.8
v -8.3 5.6 -1.9
v -8.3 5.6 -2
v -8.3 5.6 -2.1
v -8.3 5.6 -2.2
v -8.3 5.7 -0.4
v -8.3 5.7 -0.5
v -8.3 5.7 -0.6
v -8.3 5.7 -0.7
v -8.3 5.7 -0.8
v -8.3 5.7 -0.9
v -8.3 5.7 -1.7
v -8.3 5.7 -1.8
v -8.3 5.7 -1.9
v -8.3 5.7 -2
v -8.3 5.7 -2.1
v -8.3 5.7 -2.2
v -8.3 5.8 -0.5
v -8.3 5.8 -0.6
v -8.3 5.8 -2
v -8.3 5.8 -2.1
v -8.3 5.9 -0.4
v -8.3 5.9 -0.5
v -8.3 5.9 -0.6
v -8.3 5.9 -0.7
v -8.3 5.9 -0.8
v -8.3 5.9 -1.8
v -8.3 5.9 -1.9
v -8.3 5.9 -2
v -8.3 5.9 -2.1
v -8.3 6 -0.3
v -8.3 6 -0.4
v -8.3 6 -0.5
v -8.3 6 -0.6
v -8.3 6 -0.7
v -8.3 6 -0.8
v -8.3 6 -1.8
v -8.3 6 -1.9
v -8.3 6 -2
v -8.3 6 -2.1
v -8.3 6.1 -0.3
v -8.3 6.1 -0.4
v -8.3 6.1 -0.6
v -8.3 6.1 -0.7
v -8.3 6.1 -1.9
v -8.3 6.1 -2
v -8.3 6.6 -0.7
v -8.3 6.6 -1.9
v -8.3 6.7 -0.7
v -8.3 6.7 -1.9
v -8.2 5.3 -0.8
v -8.2 5.3 -0.9
v -8.2 5.3 -1.7
v -8.2 5.3 -1.8
v -8.2 5.4 -0.6
v -8.2 5.4 -0.7
v -8.2 5.4 -0.8
v -8.2 5.4 -0.9
v -8.2 5.4 -1.7
v -8.2 5.4 -1.8
v -8.2 5.4 -1.9
v -8.2 5.4 -2
v -8.2 5.6 -0.5
v -8.2 5.6 -0.6
v -8.2 5.6 -0.7
v -8.2 5.6 -0.8
v -8.2 5.6 -1.8
v -8.2 5.6 -1.9
v -8.2 5.6 -2
v -8.2 5.6 -2.1
v -8.2 5.7 -0.5
v -8.2 5.7 -0.6
v -8.2 5.7 -0.7
v -8.2 5.7 -0.8
v -8.2 5.7 -1.8
v -8.2 5.7 -1.9
v -8.2 5.7 -2
v -8.2 5.7 -2.1
v -8.2 5.9 -0.5
v -8.2 5.9 -0.6
v -8.2 6 -0.5
v -8.2 6 -0.6
v -8.2 6 -0.7
v -8.2 6 -1.9
v -8.2 6 -2
v -8.2 6.4 -0.5
v -8.2 6.4 -0.6
v -8.2 6.4 -2
v -8.2 6.4 -2.1
v -8.2 6.5 -0.5
v -8.2 6.5 -0.6
v -8.2 6.5 -2
v -8.2 6.5 -2.1
v -8.2 6.6 -0.6
v -8.2 6.6 -2
v -8.1 5.2 -0.8
v -8.1 5.2 -0.9
v -8.1 5.2 -1.7
v -8.1 5.2 -1.8
v -8.1 5.3 -0.8
v -8.1 5.3 -0.9
v -8.1 5.3 -1.7
v -8.1 5.3 -1.8
v -8.1 6 -0.5
v -8.1 6 -0.6
v -8.1 6.1 -0.5
v -8.1 6.1 -0.6
v -8.1 6.4 -0.6
v -8.1 6.4 -2
v -8.1 6.5 -0.6
v -8.1 6.5 -2
v -8 6.1 -0.6
v -8 6.1 -0.7
v -8 6.2 -0.6
v -8 6.2 -0.7
v -8.5 6.1 -0.2
v -8.5 6.2 -0.2
v -8.4 6.1 -0.2
v -8.4 6.2 -0.2
v -8.4 6 -0.3
v -8.4 6.1 -0.3
v -8.3 6 -0.3
v -8.3 6.1 -0.3
v -8.6 5.6 -0.4
v -8.6 5.7 -0.4
v -8.5 5.4 -0.4
v -8.5 5.6 -0.4
v -8.5 5.7 -0.4
v -8.5 6 -0.4
v -8.4 5.4 -0.4
v -8.4 5.6 -0.4
v -8.4 5.7 -0.4
v -8.4 5.9 -0.4
v -8.4 6 -0.4
v -8.3 5.6 -0.4
v -8.3 5.7 -0.4
v -8.3 5.9 -0.4
v -8.3 6 -0.4
v -9.1 5.1 -0.5
v -9.1 5.2 -0.5
v -9 6.4 -0.5
v -9 6.5 -0.5
v -8.8 5.1 -0.5
v -8.8 5.2 -0.5
v -8.7 5.6 -0.5
v -8.7 5.7 -0.5
v -8.6 5.5 -0.5
v -8.6 5.6 -0.5
v -8.6 5.7 -0.5
v -8.6 6 -0.5
v -8.5 5.3 -0.5
v -8.5 5.4 -0.5
v -8.5 5.5 -0.5
v -8.5 5.6 -0.5
v -8.5 5.7 -0.5
v -8.5 6 -0.5
v -8.5 6.1 -0.5
v -8.4 5.3 -0.5
v -8.4 5.4 -0.5
v -8.4 5.5 -0.5
v -8.4 5.6 -0.5
v -8.4 5.7 -0.5
v -8.4 5.8 -0.5
v -8.4 5.9 -0.5
v -8.4 6 -0.5
v -8.4 6.1 -0.5
v -8.3 5.4 -0.5
v -8.3 5.5 -0.5
v -8.3 5.6 -0.5
v -8.3 5.7 -0.5
v -8.3 5.8 -0.5
v -8.3 5.9 -0.5
v -8.3 6 -0.5
v -8.2 5.6 -0.5
v -8.2 5.7 -0.5
v -8.2 5.9 -0.5
v -8.2 6 -0.5
v -8.2 6.1 -0.5
v -8.2 6.4 -0.5
v -8.2 6.5 -0.5
v -8.1 6 -0.5
v -8.1 6.1 -0.5
v -9.1 6.4 -0.6
v -9.1 6.5 -0.6
v -9 5.2 -0.6
v -9 6.3 -0.6
v -9 6.4 -0.6
v -9 6.5 -0.6
v -9 6.6 -0.6
v -8.9 5.2 -0.6
v -8.9 6.3 -0.6
v -8.9 6.4 -0.6
v -8.7 5.4 -0.6
v -8.7 5.6 -0.6
v -8.7 5.7 -0.6
v -8.7 6 -0.6
v -8.6 5.3 -0.6
v -8.6 5.4 -0.6
v -8.6 5.5 -0.6
v -8.6 5.6 -0.6
v -8.6 5.7 -0.6
v -8.6 6 -0.6
v -8.6 6.1 -0.6
v -8.5 5.2 -0.6
v -8.5 5.3 -0.6
v -8.5 5.4 -0.6
v -8.5 5.5 -0.6
v -8.5 6 -0.6
v -8.5 6.1 -0.6
v -8.5 6.2 -0.6
v -8.5 6.3 -0.6
v -8.4 5.2 -0.6
v -8.4 5.3 -0.6
v -8.4 5.4 -0.6
v -8.4 6 -0.6
v -8.4 6.1 -0.6
v -8.4 6.2 -0.6
v -8.4 6.4 -0.6
v -8.3 5.3 -0.6
v -8.3 5.4 -0.6
v -8.3 5.5 -0.6
v -8.3 5.6 -0.6
v -8.3 5.7 -0.6
v -8.3 5.8 -0.6
v -8.3 5.9 -0.6
v -8.3 6 -0.6
v -8.3 6.1 -0.6
v -8.2 5.4 -0.6
v -8.2 5.6 -0.6
v -8.2 5.7 -0.6
v -8.2 5.9 -0.6
v -8.2 6.4 -0.6
v -8.2 6.5 -0.6
v -8.2 6.6 -0.6
v -8.1 6.1 -0.6
v -8.1 6.2 -0.6
v -8.1 6.4 -0.6
v -8.1 6.5 -0.6
v -8 6.1 -0.6
v -8 6.2 -0.6
v -9 5.1 -0.7
v -9 5.2 -0.7
v -8.9 5.1 -0.7
v -8.9 5.2 -0.7
v -8.9 6.6 -0.7
v -8.9 6.7 -0.7
v -8.5 6 -0.7
v -8.5 6.1 -0.7
v -8.4 5.4 -0.7
v -8.4 5.5 -0.7
v -8.4 6 -0.7
v -8.4 6.1 -0.7
v -8.3 5.4 -0.7
v -8.3 5.5 -0.7
v -8.3 6.6 -0.7
v -8.3 6.7 -0.7
v -8.8 6.7 -0.8
v -8.8 6.8 -0.8
v -8.4 6.7 -0.8
v -8.4 6.8 -0.8
v -8.3 5.3 -0.8
v -8.3 5.4 -0.8
v -8.2 5.2 -0.8
v -8.2 5.3 -0.8
v -8.2 5.4 -0.8
v -8.1 5.2 -0.8
v -8.1 5.3 -0.8
v -8.7 6.8 -0.9
v -8.7 6.9 -0.9
v -8.5 6.8 -0.9
v -8.5 6.9 -0.9
v -8.4 5.3 -0.9
v -8.4 5.4 -0.9
v -8.3 5.3 -0.9
v -8.3 5.4 -0.9
v -8.5 5.2 -1
v -8.5 5.3 -1
v -8.4 5.2 -1
v -8.4 5.3 -1
v -8.5 5.2 -1.5
v -8.5 5.3 -1.5
v -8.4 5.2 -1.5
v -8.4 5.3 -1.5
v -8.4 5.3 -1.6
v -8.4 5.4 -1.6
v -8.3 5.3 -1.6
v -8.3 5.4 -1.6
v -8.6 5.6 -1.7
v -8.6 5.7 -1.7
v -8.5 5.4 -1.7
v -8.5 5.6 -1.7
v -8.5 5.7 -1.7
v -8.5 6 -1.7
v -8.4 5.4 -1.7
v -8.4 5.5 -1.7
v -8.4 5.6 -1.7
v -8.4 5.7 -1.7
v -8.4 6 -1.7
v -8.3 5.3 -1.7
v -8.3 5.4 -1.7
v -8.3 5.5 -1.7
v -8.3 5.6 -1.7
v -8.3 5.7 -1.7
v -8.2 5.2 -1.7
v -8.2 5.3 -1.7
v -8.2 5.4 -1.7
v -8.1 5.2 -1.7
v -8.1 5.3 -1.7
v -9.1 5.1 -1.8
v -9.1 5.2 -1.8
v -8.8 5.1 -1.8
v -8.8 5.2 -1.8
v -8.7 5.6 -1.8
v -8.7 5.7 -1.8
v -8.6 5.4 -1.8
v -8.6 5.6 -1.8
v -8.6 5.7 -1.8
v -8.6 5.9 -1.8
v -8.6 6 -1.8
v -8.5 5.3 -1.8
v -8.5 5.4 -1.8
v -8.5 5.6 -1.8
v -8.5 5.7 -1.8
v -8.5 5.9 -1.8
v -8.5 6 -1.8
v -8.5 6.1 -1.8
v -8.4 5.3 -1.8
v -8.4 5.4 -1.8
v -8.4 5.5 -1.8
v -8.4 5.6 -1.8
v -8.4 5.7 -1.8
v -8.4 5.9 -1.8
v -8.4 6 -1.8
v -8.4 6.1 -1.8
v -8.3 5.5 -1.8
v -8.3 5.6 -1.8
v -8.3 5.7 -1.8
v -8.3 5.9 -1.8
v -8.3 6 -1.8
v -8.2 5.6 -1.8
v -8.2 5.7 -1.8
v -9 5.2 -1.9
v -9 6.3 -1.9
v -8.9 5.2 -1.9
v -8.9 6.3 -1.9
v -8.9 6.4 -1.9
v -8.8 6.4 -1.9
v -8.8 6.5 -1.9
v -8.7 5.4 -1.9
v -8.7 5.6 -1.9
v -8.7 5.7 -1.9
v -8.7 6 -1.9
v -8.6 5.3 -1.9
v -8.6 5.4 -1.9
v -8.6 5.6 -1.9
v -8.6 5.7 -1.9
v -8.6 5.9 -1.9
v -8.6 6 -1.9
v -8.6 6.1 -1.9
v -8.5 5.2 -1.9
v -8.5 5.3 -1.9
v -8.5 5.4 -1.9
v -8.5 6 -1.9
v -8.5 6.1 -1.9
v -8.5 6.2 -1.9
v -8.5 6.3 -1.9
v -8.4 5.2 -1.9
v -8.4 5.3 -1.9
v -8.4 5.4 -1.9
v -8.4 6 -1.9
v -8.4 6.1 -1.9
v -8.4 6.2 -1.9
v -8.4 6.4 -1.9
v -8.3 5.3 -1.9
v -8.3 5.4 -1.9
v -8.3 5.6 -1.9
v -8.3 5.7 -1.9
v -8.3 5.9 -1.9
v -8.3 6 -1.9
v -8.3 6.1 -1.9
v -8.3 6.4 -1.9
v -8.3 6.5 -1.9
v -8.2 5.4 -1.9
v -8.2 5.6 -1.9
v -8.2 5.7 -1.9
v -8.2 6 -1.9
v -9 5.1 -2
v -9 5.2 -2
v -8.9 5.1 -2
v -8.9 5.2 -2
v -8.9 6.4 -2
v -8.9 6.5 -2
v -8.8 6.1 -2
v -8.8 6.2 -2
v -8.8 6.4 -2
v -8.8 6.5 -2
v -8.7 6 -2
v -8.7 6.1 -2
v -8.7 6.2 -2
v -8.6 6 -2
v -8.6 6.1 -2
v -8.5 6 -2
v -8.5 6.1 -2
v -8.4 5.4 -2
v -8.4 5.5 -2
v -8.4 6 -2
v -8.4 6.1 -2
v -8.3 5.4 -2
v -8.3 5.5 -2
v -8.6 6 -2.1
v -8.6 6.1 -2.1
v -8.5 6 -2.1
v -8.5 6.1 -2.1
v -8.5 6.1 -2.2
v -8.5 6.2 -2.2
v -8.4 6.1 -2.2
v -8.4 6.2 -2.2
v -8.5 6.1 -0.3
v -8.5 6.2 -0.3
v -8.4 6.1 -0.3
v -8.4 6.2 -0.3
v -8.4 6 -0.4
v -8.4 6.1 -0.4
v -8.3 6 -0.4
v -8.3 6.1 -0.4
v -9 5.1 -0.6
v -9 5.2 -0.6
v -8.9 5.1 -0.6
v -8.9 5.2 -0.6
v -8.5 6 -0.6
v -8.5 6.1 -0.6
v -8.4 5.4 -0.6
v -8.4 5.5 -0.6
v -8.4 6 -0.6
v -8.4 6.1 -0.6
v -8.3 5.4 -0.6
v -8.3 5.5 -0.6
v -8.2 6 -0.6
v -8.2 6.1 -0.6
v -8.1 6 -0.6
v -8.1 6.1 -0.6
v -9 5.2 -0.7
v -9 6.3 -0.7
v -8.9 5.2 -0.7
v -8.9 6.3 -0.7
v -8.9 6.4 -0.7
v -8.9 6.5 -0.7
v -8.7 5.4 -0.7
v -8.7 5.6 -0.7
v -8.7 5.7 -0.7
v -8.7 6 -0.7
v -8.6 5.3 -0.7
v -8.6 5.4 -0.7
v -8.6 5.6 -0.7
v -8.6 5.7 -0.7
v -8.6 5.9 -0.7
v -8.6 6 -0.7
v -8.6 6.1 -0.7
v -8.5 5.2 -0.7
v -8.5 5.3 -0.7
v -8.5 5.4 -0.7
v -8.5 6 -0.7
v -8.5 6.1 -0.7
v -8.5 6.2 -0.7
v -8.5 6.3 -0.7
v -8.4 5.2 -0.7
v -8.4 5.3 -0.7
v -8.4 5.4 -0.7
v -8.4 6 -0.7
v -8.4 6.1 -0.7
v -8.4 6.2 -0.7
v -8.4 6.4 -0.7
v -8.3 5.3 -0.7
v -8.3 5.4 -0.7
v -8.3 5.6 -0.7
v -8.3 5.7 -0.7
v -8.3 5.9 -0.7
v -8.3 6 -0.7
v -8.3 6.1 -0.7
v -8.3 6.4 -0.7
v -8.3 6.5 -0.7
v -8.2 5.4 -0.7
v -8.2 5.6 -0.7
v -8.2 5.7 -0.7
v -8.2 6 -0.7
v -8.1 6.1 -0.7
v -8.1 6.2 -0.7
v -8 6.1 -0.7
v -8 6.2 -0.7
v -9.1 5.1 -0.8
v -9.1 5.2 -0.8
v -8.8 5.1 -0.8
v -8.8 5.2 -0.8
v -8.7 5.6 -0.8
v -8.7 5.7 -0.8
v -8.6 5.4 -0.8
v -8.6 5.6 -0.8
v -8.6 5.7 -0.8
v -8.6 5.9 -0.8
v -8.6 6 -0.8
v -8.5 5.3 -0.8
v -8.5 5.4 -0.8
v -8.5 5.6 -0.8
v -8.5 5.7 -0.8
v -8.5 5.9 -0.8
v -8.5 6 -0.8
v -8.5 6.1 -0.8
v -8.4 5.3 -0.8
v -8.4 5.4 -0.8
v -8.4 5.5 -0.8
v -8.4 5.6 -0.8
v -8.4 5.7 -0.8
v -8.4 5.9 -0.8
v -8.4 6 -0.8
v -8.4 6.1 -0.8
v -8.3 5.5 -0.8
v -8.3 5.6 -0.8
v -8.3 5.7 -0.8
v -8.3 5.9 -0.8
v -8.3 6 -0.8
v -8.2 5.6 -0.8
v -8.2 5.7 -0.8
v -8.6 5.6 -0.9
v -8.6 5.7 -0.9
v -8.5 5.4 -0.9
v -8.5 5.6 -0.9
v -8.5 5.7 -0.9
v -8.5 6 -0.9
v -8.4 5.4 -0.9
v -8.4 5.5 -0.9
v -8.4 5.6 -0.9
v -8.4 5.7 -0.9
v -8.4 6 -0.9
v -8.3 5.3 -0.9
v -8.3 5.4 -0.9
v -8.3 5.5 -0.9
v -8.3 5.6 -0.9
v -8.3 5.7 -0.9
v -8.2 5.2 -0.9
v -8.2 5.3 -0.9
v -8.2 5.4 -0.9
v -8.1 5.2 -0.9
v -8.1 5.3 -0.9
v -8.4 5.3 -1
v -8.4 5.4 -1
v -8.3 5.3 -1
v -8.3 5.4 -1
v -8.5 5.2 -1.1
v -8.5 5.3 -1.1
v -8.4 5.2 -1.1
v -8.4 5.3 -1.1
v -8.5 5.2 -1.6
v -8.5 5.3 -1.6
v -8.4 5.2 -1.6
v -8.4 5.3 -1.6
v -8.7 6.8 -1.7
v -8.7 6.9 -1.7
v -8.5 6.8 -1.7
v -8.5 6.9 -1.7
v -8.4 5.3 -1.7
v -8.4 5.4 -1.7
v -8.3 5.3 -1.7
v -8.3 5.4 -1.7
v -8.8 6.7 -1.8
v -8.8 6.8 -1.8
v -8.4 6.7 -1.8
v -8.4 6.8 -1.8
v -8.3 5.3 -1.8
v -8.3 5.4 -1.8
v -8.2 5.2 -1.8
v -8.2 5.3 -1.8
v -8.2 5.4 -1.8
v -8.1 5.2 -1.8
v -8.1 5.3 -1.8
v -9 5.1 -1.9
v -9 5.2 -1.9
v -8.9 5.1 -1.9
v -8.9 5.2 -1.9
v -8.9 6.6 -1.9
v -8.9 6.7 -1.9
v -8.5 6 -1.9
v -8.5 6.1 -1.9
v -8.4 5.4 -1.9
v -8.4 5.5 -1.9
v -8.4 6 -1.9
v -8.4 6.1 -1.9
v -8.3 5.4 -1.9
v -8.3 5.5 -1.9
v -8.3 6.6 -1.9
v -8.3 6.7 -1.9
v -9.1 6.4 -2
v -9.1 6.5 -2
v -9 5.2 -2
v -9 6.3 -2
v -9 6.4 -2
v -9 6.5 -2
v -9 6.6 -2
v -8.9 5.2 -2
v -8.9 6.3 -2
v -8.9 6.4 -2
v -8.7 5.4 -2
v -8.7 5.6 -2
v -8.7 5.7 -2
v -8.7 6 -2
v -8.6 5.3 -2
v -8.6 5.4 -2
v -8.6 5.5 -2
v -8.6 5.6 -2
v -8.6 5.7 -2
v -8.6 6 -2
v -8.6 6.1 -2
v -8.5 5.2 -2
v -8.5 5.3 -2
v -8.5 5.4 -2
v -8.5 5.5 -2
v -8.5 6 -2
v -8.5 6.1 -2
v -8.5 6.2 -2
v -8.5 6.3 -2
v -8.4 5.2 -2
v -8.4 5.3 -2
v -8.4 5.4 -2
v -8.4 6 -2
v -8.4 6.1 -2
v -8.4 6.2 -2
v -8.4 6.4 -2
v -8.3 5.3 -2
v -8.3 5.4 -2
v -8.3 5.5 -2
v -8.3 5.6 -2
v -8.3 5.7 -2
v -8.3 5.8 -2
v -8.3 5.9 -2
v -8.3 6 -2
v -8.3 6.1 -2
v -8.2 5.4 -2
v -8.2 5.6 -2
v -8.2 5.7 -2
v -8.2 6 -2
v -8.2 6.4 -2
v -8.2 6.5 -2
v -8.2 6.6 -2
v -8.1 6.4 -2
v -8.1 6.5 -2
v -9.1 5.1 -2.1
v -9.1 5.2 -2.1
v -9 6.4 -2.1
v -9 6.5 -2.1
v -8.8 5.1 -2.1
v -8.8 5.2 -2.1
v -8.8 6.1 -2.1
v -8.8 6.2 -2.1
v -8.7 5.6 -2.1
v -8.7 5.7 -2.1
v -8.7 6 -2.1
v -8.7 6.1 -2.1
v -8.7 6.2 -2.1
v -8.6 5.5 -2.1
v -8.6 5.6 -2.1
v -8.6 5.7 -2.1
v -8.6 6 -2.1
v -8.6 6.1 -2.1
v -8.5 5.3 -2.1
v -8.5 5.4 -2.1
v -8.5 5.5 -2.1
v -8.5 5.6 -2.1
v -8.5 5.7 -2.1
v -8.5 6 -2.1
v -8.5 6.1 -2.1
v -8.4 5.3 -2.1
v -8.4 5.4 -2.1
v -8.4 5.5 -2.1
v -8.4 5.6 -2.1
v -8.4 5.7 -2.1
v -8.4 5.8 -2.1
v -8.4 5.9 -2.1
v -8.4 6 -2.1
v -8.4 6.1 -2.1
v -8.3 5.4 -2.1
v -8.3 5.5 -2.1
v -8.3 5.6 -2.1
v -8.3 5.7 -2.1
v -8.3 5.8 -2.1
v -8.3 5.9 -2.1
v -8.3 6 -2.1
v -8.2 5.6 -2.1
v -8.2 5.7 -2.1
v -8.2 6.4 -2.1
v -8.2 6.5 -2.1
v -8.6 5.6 -2.2
v -8.6 5.7 -2.2
v -8.6 6 -2.2
v -8.6 6.1 -2.2
v -8.5 5.4 -2.2
v -8.5 5.6 -2.2
v -8.5 5.7 -2.2
v -8.5 6 -2.2
v -8.5 6.1 -2.2
v -8.4 5.4 -2.2
v -8.4 5.6 -2.2
v -8.4 5.7 -2.2
v -8.4 6 -2.2
v -8.3 5.6 -2.2
v -8.3 5.7 -2.2
v -8.5 6.1 -2.3
v -8.5 6.2 -2.3
v -8.4 6.1 -2.3
v -8.4 6.2 -2.3
v -9.1 5.1 -0.5
v -8.8 5.1 -0.5
v -9 5.1 -0.6
v -8.9 5.1 -0.6
v -9 5.1 -0.7
v -8.9 5.1 -0.7
v -9.1 5.1 -0.8
v -8.8 5.1 -0.8
v -9.1 5.1 -1.8
v -8.8 5.1 -1.8
v -9 5.1 -1.9
v -8.9 5.1 -1.9
v -9 5.1 -2
v -8.9 5.1 -2
v -9.1 5.1 -2.1
v -8.8 5.1 -2.1
v -9 5.2 -0.6
v -8.9 5.2 -0.6
v -8.5 5.2 -0.6
v -8.4 5.2 -0.6
v -9 5.2 -0.7
v -8.9 5.2 -0.7
v -8.5 5.2 -0.7
v -8.4 5.2 -0.7
v -8.2 5.2 -0.8
v -8.1 5.2 -0.8
v -8.2 5.2 -0.9
v -8.1 5.2 -0.9
v -8.5 5.2 -1
v -8.4 5.2 -1
v -8.5 5.2 -1.1
v -8.4 5.2 -1.1
v -8.5 5.2 -1.5
v -8.4 5.2 -1.5
v -8.5 5.2 -1.6
v -8.4 5.2 -1.6
v -8.2 5.2 -1.7
v -8.1 5.2 -1.7
v -8.2 5.2 -1.8
v -8.1 5.2 -1.8
v -9 5.2 -1.9
v -8.9 5.2 -1.9
v -8.5 5.2 -1.9
v -8.4 5.2 -1.9
v -9 5.2 -2
v -8.9 5.2 -2
v -8.5 5.2 -2
v -8.4 5.2 -2
v -8.5 5.3 -0.5
v -8.4 5.3 -0.5
v -8.6 5.3 -0.6
v -8.5 5.3 -0.6
v -8.4 5.3 -0.6
v -8.3 5.3 -0.6
v -8.6 5.3 -0.7
v -8.5 5.3 -0.7
v -8.4 5.3 -0.7
v -8.3 5.3 -0.7
v -8.5 5.3 -0.8
v -8.4 5.3 -0.8
v -8.3 5.3 -0.8
v -8.2 5.3 -0.8
v -8.4 5.3 -0.9
v -8.3 5.3 -0.9
v -8.2 5.3 -0.9
v -8.4 5.3 -1
v -8.3 5.3 -1
v -8.4 5.3 -1.6
v -8.3 5.3 -1.6
v -8.4 5.3 -1.7
v -8.3 5.3 -1.7
v -8.2 5.3 -1.7
v -8.5 5.3 -1.8
v -8.4 5.3 -1.8
v -8.3 5.3 -1.8
v -8.2 5.3 -1.8
v -8.6 5.3 -1.9
v -8.5 5.3 -1.9
v -8.4 5.3 -1.9
v -8.3 5.3 -1.9
v -8.6 5.3 -2
v -8.5 5.3 -2
v -8.4 5.3 -2
v -8.3 5.3 -2
v -8.5 5.3 -2.1
v -8.4 5.3 -2.1
v -8.5 5.4 -0.4
v -8.4 5.4 -0.4
v -8.5 5.4 -0.5
v -8.4 5.4 -0.5
v -8.3 5.4 -0.5
v -8.7 5.4 -0.6
v -8.6 5.4 -0.6
v -8.4 5.4 -0.6
v -8.3 5.4 -0.6
v -8.2 5.4 -0.6
v -8.7 5.4 -0.7
v -8.6 5.4 -0.7
v -8.5 5.4 -0.7
v -8.4 5.4 -0.7
v -8.3 5.4 -0.7
v -8.2 5.4 -0.7
v -8.6 5.4 -0.8
v -8.5 5.4 -0.8
v -8.4 5.4 -0.8
v -8.3 5.4 -0.8
v -8.5 5.4 -0.9
v -8.4 5.4 -0.9
v -8.3 5.4 -0.9
v -8.5 5.4 -1.7
v -8.4 5.4 -1.7
v -8.3 5.4 -1.7
v -8.6 5.4 -1.8
v -8.5 5.4 -1.8
v -8.4 5.4 -1.8
v -8.3 5.4 -1.8
v -8.7 5.4 -1.9
v -8.6 5.4 -1.9
v -8.5 5.4 -1.9
v -8.4 5.4 -1.9
v -8.3 5.4 -1.9
v -8.2 5.4 -1.9
v -8.7 5.4 -2
v -8.6 5.4 -2
v -8.4 5.4 -2
v -8.3 5.4 -2
v -8.2 5.4 -2
v -8.5 5.4 -2.1
v -8.4 5.4 -2.1
v -8.3 5.4 -2.1
v -8.5 5.4 -2.2
v -8.4 5.4 -2.2
v -8.6 5.5 -0.5
v -8.5 5.5 -0.5
v -8.6 5.5 -0.6
v -8.5 5.5 -0.6
v -8.4 5.5 -0.6
v -8.3 5.5 -0.6
v -8.4 5.5 -0.7
v -8.3 5.5 -0.7
v -8.4 5.5 -1.9
v -8.3 5.5 -1.9
v -8.6 5.5 -2
v -8.5 5.5 -2
v -8.4 5.5 -2
v -8.3 5.5 -2
v -8.6 5.5 -2.1
v -8.5 5.5 -2.1
v -8.6 5.6 -0.4
v -8.5 5.6 -0.4
v -8.4 5.6 -0.4
v -8.3 5.6 -0.4
v -8.7 5.6 -0.5
v -8.6 5.6 -0.5
v -8.5 5.6 -0.5
v -8.4 5.6 -0.5
v -8.3 5.6 -0.5
v -8.2 5.6 -0.5
v -8.7 5.6 -0.6
v -8.6 5.6 -0.6
v -8.3 5.6 -0.6
v -8.2 5.6 -0.6
v -8.7 5.6 -0.7
v -8.6 5.6 -0.7
v -8.3 5.6 -0.7
v -8.2 5.6 -0.7
v -8.7 5.6 -0.8
v -8.6 5.6 -0.8
v -8.5 5.6 -0.8
v -8.4 5.6 -0.8
v -8.3 5.6 -0.8
v -8.2 5.6 -0.8
v -8.6 5.6 -0.9
v -8.5 5.6 -0.9
v -8.4 5.6 -0.9
v -8.3 5.6 -0.9
v -8.6 5.6 -1.7
v -8.5 5.6 -1.7
v -8.4 5.6 -1.7
v -8.3 5.6 -1.7
v -8.7 5.6 -1.8
v -8.6 5.6 -1.8
v -8.5 5.6 -1.8
v -8.4 5.6 -1.8
v -8.3 5.6 -1.8
v -8.2 5.6 -1.8
v -8.7 5.6 -1.9
v -8.6 5.6 -1.9
v -8.3 5.6 -1.9
v -8.2 5.6 -1.9
v -8.7 5.6 -2
v -8.6 5.6 -2
v -8.3 5.6 -2
v -8.2 5.6 -2
v -8.7 5.6 -2.1
v -8.6 5.6 -2.1
v -8.5 5.6 -2.1
v -8.4 5.6 -2.1
v -8.3 5.6 -2.1
v -8.2 5.6 -2.1
v -8.6 5.6 -2.2
v -8.5 5.6 -2.2
v -8.4 5.6 -2.2
v -8.3 5.6 -2.2
v -8.4 5.9 -0.4
v -8.3 5.9 -0.4
v -8.4 5.9 -0.5
v -8.3 5.9 -0.5
v -8.2 5.9 -0.5
v -8.3 5.9 -0.6
v -8.2 5.9 -0.6
v -8.4 6 -0.3
v -8.3 6 -0.3
v -8.4 6 -0.4
v -8.3 6 -0.4
v -8.2 6 -0.5
v -8.1 6 -0.5
v -8.2 6 -0.6
v -8.1 6 -0.6
v -8.7 6 -2
v -8.6 6 -2
v -8.7 6 -2.1
v -8.6 6 -2.1
v -8.5 6 -2.1
v -8.6 6 -2.2
v -8.5 6 -2.2
v -8.5 6.1 -0.2
v -8.4 6.1 -0.2
v -8.5 6.1 -0.3
v -8.4 6.1 -0.3
v -8.5 6.1 -0.6
v -8.4 6.1 -0.6
v -8.1 6.1 -0.6
v -8 6.1 -0.6
v -8.5 6.1 -0.7
v -8.4 6.1 -0.7
v -8.1 6.1 -0.7
v -8 6.1 -0.7
v -8.5 6.1 -1.9
v -8.4 6.1 -1.9
v -8.8 6.1 -2
v -8.7 6.1 -2
v -8.5 6.1 -2
v -8.4 6.1 -2
v -8.8 6.1 -2.1
v -8.7 6.1 -2.1
v -8.5 6.1 -2.2
v -8.4 6.1 -2.2
v -8.5 6.1 -2.3
v -8.4 6.1 -2.3
v -8.9 6.3 -0.6
v -8.5 6.3 -0.6
v -8.9 6.3 -0.7
v -8.5 6.3 -0.7
v -8.9 6.3 -1.9
v -8.5 6.3 -1.9
v -8.9 6.3 -2
v -8.5 6.3 -2
v -9 6.4 -0.5
v -8.2 6.4 -0.5
v -9.1 6.4 -0.6
v -9 6.4 -0.6
v -8.9 6.4 -0.6
v -8.4 6.4 -0.6
v -8.3 6.4 -0.6
v -8.2 6.4 -0.6
v -8.1 6.4 -0.6
v -8.9 6.4 -0.7
v -8.4 6.4 -0.7
v -8.3 6.4 -0.7
v -8.9 6.4 -1.9
v -8.4 6.4 -1.9
v -8.3 6.4 -1.9
v -9.1 6.4 -2
v -9 6.4 -2
v -8.9 6.4 -2
v -8.4 6.4 -2
v -8.3 6.4 -2
v -8.2 6.4 -2
v -8.1 6.4 -2
v -9 6.4 -2.1
v -8.2 6.4 -2.1
v -8.9 6.5 -0.7
v -8.3 6.5 -0.7
v -8.9 6.5 -1.9
v -8.8 6.5 -1.9
v -8.3 6.5 -1.9
v -8.9 6.5 -2
v -8.8 6.5 -2
v -9.1 5.2 -0.5
v -8.8 5.2 -0.5
v -9 5.2 -0.6
v -8.9 5.2 -0.6
v -9 5.2 -0.7
v -8.9 5.2 -0.7
v -9.1 5.2 -0.8
v -8.8 5.2 -0.8
v -9.1 5.2 -1.8
v -8.8 5.2 -1.8
v -9 5.2 -1.9
v -8.9 5.2 -1.9
v -9 5.2 -2
v -8.9 5.2 -2
v -9.1 5.2 -2.1
v -8.8 5.2 -2.1
v -8.2 5.3 -0.8
v -8.1 5.3 -0.8
v -8.2 5.3 -0.9
v -8.1 5.3 -0.9
v -8.5 5.3 -1
v -8.4 5.3 -1
v -8.5 5.3 -1.1
v -8.4 5.3 -1.1
v -8.5 5.3 -1.5
v -8.4 5.3 -1.5
v -8.5 5.3 -1.6
v -8.4 5.3 -1.6
v -8.2 5.3 -1.7
v -8.1 5.3 -1.7
v -8.2 5.3 -1.8
v -8.1 5.3 -1.8
v -8.4 5.4 -0.6
v -8.3 5.4 -0.6
v -8.4 5.4 -0.7
v -8.3 5.4 -0.7
v -8.3 5.4 -0.8
v -8.2 5.4 -0.8
v -8.4 5.4 -0.9
v -8.3 5.4 -0.9
v -8.2 5.4 -0.9
v -8.4 5.4 -1
v -8.3 5.4 -1
v -8.4 5.4 -1.6
v -8.3 5.4 -1.6
v -8.4 5.4 -1.7
v -8.3 5.4 -1.7
v -8.2 5.4 -1.7
v -8.3 5.4 -1.8
v -8.2 5.4 -1.8
v -8.4 5.4 -1.9
v -8.3 5.4 -1.9
v -8.4 5.4 -2
v -8.3 5.4 -2
v -8.4 5.5 -0.8
v -8.3 5.5 -0.8
v -8.4 5.5 -0.9
v -8.3 5.5 -0.9
v -8.4 5.5 -1.7
v -8.3 5.5 -1.7
v -8.4 5.5 -1.8
v -8.3 5.5 -1.8
v -8.6 5.7 -0.4
v -8.5 5.7 -0.4
v -8.4 5.7 -0.4
v -8.3 5.7 -0.4
v -8.7 5.7 -0.5
v -8.6 5.7 -0.5
v -8.5 5.7 -0.5
v -8.4 5.7 -0.5
v -8.3 5.7 -0.5
v -8.2 5.7 -0.5
v -8.7 5.7 -0.6
v -8.6 5.7 -0.6
v -8.3 5.7 -0.6
v -8.2 5.7 -0.6
v -8.7 5.7 -0.7
v -8.6 5.7 -0.7
v -8.3 5.7 -0.7
v -8.2 5.7 -0.7
v -8.7 5.7 -0.8
v -8.6 5.7 -0.8
v -8.5 5.7 -0.8
v -8.4 5.7 -0.8
v -8.3 5.7 -0.8
v -8.2 5.7 -0.8
v -8.6 5.7 -0.9
v -8.5 5.7 -0.9
v -8.4 5.7 -0.9
v -8.3 5.7 -0.9
v -8.6 5.7 -1.7
v -8.5 5.7 -1.7
v -8.4 5.7 -1.7
v -8.3 5.7 -1.7
v -8.7 5.7 -1.8
v -8.6 5.7 -1.8
v -8.5 5.7 -1.8
v -8.4 5.7 -1.8
v -8.3 5.7 -1.8
v -8.2 5.7 -1.8
v -8.7 5.7 -1.9
v -8.6 5.7 -1.9
v -8.3 5.7 -1.9
v -8.2 5.7 -1.9
v -8.7 5.7 -2
v -8.6 5.7 -2
v -8.3 5.7 -2
v -8.2 5.7 -2
v -8.7 5.7 -2.1
v -8.6 5.7 -2.1
v -8.5 5.7 -2.1
v -8.4 5.7 -2.1
v -8.3 5.7 -2.1
v -8.2 5.7 -2.1
v -8.6 5.7 -2.2
v -8.5 5.7 -2.2
v -8.4 5.7 -2.2
v -8.3 5.7 -2.2
v -8.5 6 -0.4
v -8.4 6 -0.4
v -8.3 6 -0.4
v -8.6 6 -0.5
v -8.5 6 -0.5
v -8.4 6 -0.5
v -8.3 6 -0.5
v -8.2 6 -0.5
v -8.7 6 -0.6
v -8.6 6 -0.6
v -8.5 6 -0.6
v -8.4 6 -0.6
v -8.3 6 -0.6
v -8.2 6 -0.6
v -8.7 6 -0.7
v -8.6 6 -0.7
v -8.5 6 -0.7
v -8.4 6 -0.7
v -8.3 6 -0.7
v -8.2 6 -0.7
v -8.6 6 -0.8
v -8.5 6 -0.8
v -8.4 6 -0.8
v -8.3 6 -0.8
v -8.5 6 -0.9
v -8.4 6 -0.9
v -8.5 6 -1.7
v -8.4 6 -1.7
v -8.6 6 -1.8
v -8.5 6 -1.8
v -8.4 6 -1.8
v -8.3 6 -1.8
v -8.7 6 -1.9
v -8.6 6 -1.9
v -8.5 6 -1.9
v -8.4 6 -1.9
v -8.3 6 -1.9
v -8.2 6 -1.9
v -8.7 6 -2
v -8.6 6 -2
v -8.5 6 -2
v -8.4 6 -2
v -8.3 6 -2
v -8.2 6 -2
v -8.6 6 -2.1
v -8.5 6 -2.1
v -8.4 6 -2.1
v -8.3 6 -2.1
v -8.5 6 -2.2
v -8.4 6 -2.2
v -8.4 6.1 -0.3
v -8.3 6.1 -0.3
v -8.4 6.1 -0.4
v -8.3 6.1 -0.4
v -8.5 6.1 -0.5
v -8.4 6.1 -0.5
v -8.2 6.1 -0.5
v -8.1 6.1 -0.5
v -8.6 6.1 -0.6
v -8.5 6.1 -0.6
v -8.4 6.1 -0.6
v -8.3 6.1 -0.6
v -8.2 6.1 -0.6
v -8.1 6.1 -0.6
v -8.6 6.1 -0.7
v -8.5 6.1 -0.7
v -8.4 6.1 -0.7
v -8.3 6.1 -0.7
v -8.5 6.1 -0.8
v -8.4 6.1 -0.8
v -8.5 6.1 -1.8
v -8.4 6.1 -1.8
v -8.6 6.1 -1.9
v -8.5 6.1 -1.9
v -8.4 6.1 -1.9
v -8.3 6.1 -1.9
v -8.7 6.1 -2
v -8.6 6.1 -2
v -8.5 6.1 -2
v -8.4 6.1 -2
v -8.3 6.1 -2
v -8.7 6.1 -2.1
v -8.6 6.1 -2.1
v -8.5 6.1 -2.1
v -8.4 6.1 -2.1
v -8.6 6.1 -2.2
v -8.5 6.1 -2.2
v -8.5 6.2 -0.2
v -8.4 6.2 -0.2
v -8.5 6.2 -0.3
v -8.4 6.2 -0.3
v -8.1 6.2 -0.6
v -8 6.2 -0.6
v -8.1 6.2 -0.7
v -8 6.2 -0.7
v -8.8 6.2 -2
v -8.7 6.2 -2
v -8.8 6.2 -2.1
v -8.7 6.2 -2.1
v -8.5 6.2 -2.2
v -8.4 6.2 -2.2
v -8.5 6.2 -2.3
v -8.4 6.2 -2.3
v -9 6.3 -0.6
v -8.9 6.3 -0.6
v -9 6.3 -0.7
v -8.9 6.3 -0.7
v -9 6.3 -1.9
v -8.9 6.3 -1.9
v -9 6.3 -2
v -8.9 6.3 -2
v -8.9 6.4 -1.9
v -8.8 6.4 -1.9
v -8.9 6.4 -2
v -8.8 6.4 -2
v -9 6.5 -0.5
v -8.2 6.5 -0.5
v -9.1 6.5 -0.6
v -9 6.5 -0.6
v -8.2 6.5 -0.6
v -8.1 6.5 -0.6
v -9.1 6.5 -2
v -9 6.5 -2
v -8.2 6.5 -2
v -8.1 6.5 -2
v -9 6.5 -2.1
v -8.2 6.5 -2.1
v -9 6.6 -0.6
v -8.2 6.6 -0.6
v -8.9 6.6 -0.7
v -8.3 6.6 -0.7
v -8.9 6.6 -1.9
v -8.3 6.6 -1.9
v -9 6.6 -2
v -8.2 6.6 -2
v -8.9 6.7 -0.7
v -8.3 6.7 -0.7
v -8.8 6.7 -0.8
v -8.4 6.7 -0.8
v -8.8 6.7 -1.8
v -8.4 6.7 -1.8
v -8.9 6.7 -1.9
v -8.3 6.7 -1.9
v -8.8 6.8 -0.8
v -8.4 6.8 -0.8
v -8.7 6.8 -0.9
v -8.5 6.8 -0.9
v -8.7 6.8 -1.7
v -8.5 6.8 -1.7
v -8.8 6.8 -1.8
v -8.4 6.8 -1.8
v -8.7 6.9 -0.9
v -8.5 6.9 -0.9
v -8.7 6.9 -1.7
v -8.5 6.9 -1.7

# faces
f 5/12/1 2/12/1 1/12/1
f 6/12/1 2/12/1 5/12/1
f 7/12/1 4/12/1 3/12/1
f 8/12/1 4/12/1 7/12/1
f 11/2/1 10/2/1 9/2/1
f 12/2/1 10/2/1 11/2/1
f 17/8/1 14/8/1 13/8/1
f 18/8/1 14/8/1 17/8/1
f 19/8/1 16/8/1 15/8/1
f 20/8/1 16/8/1 19/8/1
f 25/2/1 22/2/1 21/2/1
f 26/2/1 22/2/1 25/2/1
f 27/2/1 24/2/1 23/2/1
f 28/2/1 24/2/1 27/2/1
f 29/1/1 27/1/1 26/1/1
f 30/1/1 27/1/1 29/1/1
f 35/12/1 32/12/1 31/12/1
f 36/12/1 32/12/1 35/12/1
f 37/12/1 34/12/1 33/12/1
f 38/12/1 34/12/1 37/12/1
f 43/8/1 40/8/1 39/8/1
f 44/8/1 40/8/1 43/8/1
f 45/8/1 42/8/1 41/8/1
f 46/8/1 42/8/1 45/8/1
f 49/2/1 48/2/1 47/2/1
f 50/2/1 48/2/1 49/2/1
f 53/3/1 52/3/1 51/3/1
f 54/3/1 52/3/1 53/3/1
f 57/7/1 56/7/1 55/7/1
f 58/7/1 56/7/1 57/7/1
f 61/1/1 60/1/1 59/1/1
f 62/1/1 60/1/1 61/1/1
f 68/11/1 64/11/1 63/11/1
f 69/11/1 64/11/1 68/11/1
f 72/11/1 66/11/1 65/11/1
f 73/11/1 66/11/1 72/11/1
f 75/11/1 70/11/1 69/11/1
f 75/11/1 68/11/1 67/11/1
f 75/11/1 69/11/1 68/11/1
f 76/11/1 70/11/1 75/11/1
f 77/11/1 70/11/1 76/11/1
f 78/11/1 70/11/1 77/11/1
f 79/11/1 74/11/1 73/11/1
f 79/11/1 73/11/1 72/11/1
f 79/11/1 72/11/1 71/11/1
f 80/11/1 74/11/1 79/11/1
f 81/11/1 74/11/1 80/11/1
f 82/11/1 74/11/1 81/11/1
f 83/11/1 77/11/1 76/11/1
f 84/11/1 77/11/1 83/11/1
f 85/11/1 81/11/1 80/11/1
f 86/11/1 81/11/1 85/11/1
f 88/3/1 87/3/1 86/3/1
f 89/3/1 87/3/1 88/3/1
f 92/2/1 91/2/1 90/2/1
f 93/2/1 91/2/1 92/2/1
f 98/11/1 95/11/1 94/11/1
f 99/11/1 95/11/1 98/11/1
f 102/11/1 97/11/1 96/11/1
f 103/11/1 97/11/1 102/11/1
f 109/4/1 105/4/1 104/4/1
f 110/4/1 105/4/1 109/4/1
f 111/4/1 100/4/1 99/4/1
f 112/4/1 100/4/1 111/4/1
f 115/6/1 102/6/1 101/6/1
f 116/6/1 102/6/1 115/6/1
f 117/6/1 107/6/1 106/6/1
f 118/6/1 107/6/1 117/6/1
f 120/11/1 109/11/1 108/11/1
f 121/11/1 109/11/1 120/11/1
f 124/11/1 113/11/1 112/11/1
f 125/11/1 113/11/1 124/11/1
f 126/11/1 115/11/1 114/11/1
f 127/11/1 115/11/1 126/11/1
f 130/11/1 119/11/1 118/11/1
f 131/11/1 119/11/1 130/11/1
f 132/9/1 124/9/1 123/9/1
f 133/9/1 124/9/1 132/9/1
f 134/3/1 128/3/1 127/3/1
f 135/3/1 128/3/1 134/3/1
f 136/10/1 122/10/1 121/10/1
f 137/10/1 122/10/1 136/10/1
f 138/10/1 133/10/1 132/10/1
f 139/10/1 133/10/1 138/10/1
f 140/5/1 135/5/1 134/5/1
f 141/5/1 135/5/1 140/5/1
f 142/5/1 130/5/1 129/5/1
f 143/5/1 130/5/1 142/5/1
f 145/11/1 138/11/1 137/11/1
f 146/11/1 138/11/1 145/11/1
f 147/11/1 142/11/1 141/11/1
f 148/11/1 142/11/1 147/11/1
f 149/3/1 144/3/1 143/3/1
f 150/3/1 144/3/1 149/3/1
f 160/11/1 152/11/1 151/11/1
f 161/11/1 152/11/1 160/11/1
f 163/4/1 154/4/1 153/4/1
f 164/4/1 154/4/1 163/4/1
f 165/6/1 156/6/1 155/6/1
f 166/6/1 156/6/1 165/6/1
f 168/11/1 158/11/1 157/11/1
f 169/11/1 158/11/1 168/11/1
f 172/11/1 160/11/1 159/11/1
f 173/11/1 160/11/1 172/11/1
f 174/11/1 162/11/1 161/11/1
f 175/11/1 162/11/1 174/11/1
f 178/11/1 168/11/1 167/11/1
f 179/11/1 168/11/1 178/11/1
f 180/11/1 170/11/1 169/11/1
f 181/11/1 170/11/1 180/11/1
f 183/10/1 173/10/1 172/10/1
f 183/11/1 172/11/1 171/11/1
f 184/10/1 173/10/1 183/10/1
f 185/3/1 181/3/1 180/3/1
f 186/11/1 182/11/1 181/11/1
f 186/3/1 181/3/1 185/3/1
f 187/11/1 183/11/1 171/11/1
f 188/11/1 183/11/1 187/11/1
f 189/11/1 176/11/1 175/11/1
f 190/11/1 176/11/1 189/11/1
f 191/11/1 178/11/1 177/11/1
f 192/11/1 178/11/1 191/11/1
f 193/11/1 182/11/1 186/11/1
f 194/11/1 182/11/1 193/11/1
f 203/11/1 198/11/1 197/11/1
f 204/11/1 200/11/1 199/11/1
f 205/11/1 196/11/1 195/11/1
f 206/11/1 196/11/1 205/11/1
f 209/11/1 198/11/1 203/11/1
f 210/11/1 198/11/1 209/11/1
f 211/11/1 204/11/1 199/11/1
f 212/11/1 204/11/1 211/11/1
f 215/11/1 202/11/1 201/11/1
f 216/11/1 202/11/1 215/11/1
f 219/11/1 207/11/1 206/11/1
f 220/11/1 207/11/1 219/11/1
f 221/11/1 209/11/1 208/11/1
f 222/11/1 209/11/1 221/11/1
f 223/11/1 213/11/1 212/11/1
f 224/11/1 213/11/1 223/11/1
f 225/11/1 215/11/1 214/11/1
f 226/11/1 215/11/1 225/11/1
f 229/10/1 218/10/1 217/10/1
f 230/10/1 218/10/1 229/10/1
f 231/11/1 221/11/1 220/11/1
f 232/11/1 221/11/1 231/11/1
f 233/11/1 225/11/1 224/11/1
f 234/11/1 225/11/1 233/11/1
f 235/3/1 228/3/1 227/3/1
f 236/3/1 228/3/1 235/3/1
f 237/8/1 232/8/1 231/8/1
f 238/8/1 232/8/1 237/8/1
f 239/8/1 234/8/1 233/8/1
f 240/8/1 234/8/1 239/8/1
f 245/4/1 242/4/1 241/4/1
f 246/4/1 242/4/1 245/4/1
f 247/6/1 244/6/1 243/6/1
f 248/6/1 244/6/1 247/6/1
f 255/10/1 250/10/1 249/10/1
f 256/10/1 250/10/1 255/10/1
f 257/11/1 252/11/1 251/11/1
f 258/11/1 252/11/1 257/11/1
f 259/11/1 254/11/1 253/11/1
f 260/11/1 254/11/1 259/11/1
f 267/4/1 262/4/1 261/4/1
f 268/4/1 262/4/1 267/4/1
f 269/6/1 264/6/1 263/6/1
f 270/6/1 264/6/1 269/6/1
f 273/11/1 266/11/1 265/11/1
f 274/11/1 266/11/1 273/11/1
f 275/11/1 272/11/1 271/11/1
f 276/11/1 272/11/1 275/11/1
f 279/2/1 278/2/1 277/2/1
f 280/2/1 278/2/1 279/2/1
f 285/4/1 282/4/1 281/4/1
f 286/4/1 282/4/1 285/4/1
f 287/6/1 284/6/1 283/6/1
f 288/6/1 284/6/1 287/6/1
f 291/10/1 290/10/1 289/10/1
f 292/10/1 290/10/1 291/10/1
f 295/10/1 294/10/1 293/10/1
f 296/10/1 294/10/1 295/10/1
f 297/12/2 298/12/2 301/12/2
f 301/12/2 298/12/2 302/12/2
f 299/12/2 300/12/2 303/12/2
f 303/12/2 300/12/2 304/12/2
f 305/8/2 306/8/2 309/8/2
f 309/8/2 306/8/2 310/8/2
f 307/8/2 308/8/2 311/8/2
f 311/8/2 308/8/2 312/8/2
f 313/2/2 314/2/2 316/2/2
f 314/2/2 315/2/2 316/2/2
f 316/2/2 315/2/2 317/2/2
f 317/2/2 315/2/2 318/2/2
f 319/12/2 320/12/2 323/12/2
f 323/12/2 320/12/2 324/12/2
f 321/12/2 322/12/2 325/12/2
f 325/12/2 322/12/2 326/12/2
f 327/3/2 328/3/2 329/3/2
f 329/3/2 328/3/2 330/3/2
f 331/3/2 332/3/2 333/3/2
f 333/3/2 332/3/2 334/3/2
f 335/11/2 336/11/2 341/11/2
f 341/11/2 336/11/2 342/11/2
f 337/11/2 338/11/2 343/11/2
f 343/11/2 338/11/2 344/11/2
f 339/3/2 340/3/2 345/3/2
f 345/3/2 340/3/2 346/3/2
f 347/2/2 348/2/2 349/2/2
f 349/2/2 348/2/2 350/2/2
f 351/11/2 352/11/2 360/11/2
f 360/11/2 352/11/2 361/11/2
f 353/4/2 354/4/2 363/4/2
f 363/4/2 354/4/2 364/4/2
f 355/6/2 356/6/2 365/6/2
f 365/6/2 356/6/2 366/6/2
f 357/11/2 358/11/2 368/11/2
f 368/11/2 358/11/2 369/11/2
f 359/11/2 360/11/2 372/11/2
f 372/11/2 360/11/2 373/11/2
f 361/11/2 362/11/2 374/11/2
f 374/11/2 362/11/2 375/11/2
f 367/11/2 368/11/2 376/11/2
f 376/11/2 368/11/2 377/11/2
f 369/11/2 370/11/2 378/11/2
f 378/11/2 370/11/2 379/11/2
f 371/11/2 372/11/2 381/11/2
f 373/10/2 374/10/2 382/10/2
f 382/10/2 374/10/2 383/10/2
f 377/10/2 378/10/2 388/10/2
f 388/10/2 378/10/2 389/10/2
f 379/11/2 380/11/2 390/11/2
f 371/11/2 381/11/2 391/11/2
f 391/11/2 381/11/2 392/11/2
f 384/11/2 385/11/2 393/11/2
f 393/11/2 385/11/2 394/11/2
f 386/11/2 387/11/2 395/11/2
f 395/11/2 387/11/2 396/11/2
f 390/11/2 380/11/2 397/11/2
f 397/11/2 380/11/2 398/11/2
f 399/11/2 400/11/2 407/11/2
f 405/11/2 406/11/2 408/11/2
f 399/11/2 407/11/2 409/11/2
f 409/11/2 407/11/2 410/11/2
f 401/11/2 402/11/2 411/11/2
f 403/11/2 404/11/2 412/11/2
f 408/11/2 406/11/2 413/11/2
f 411/11/2 402/11/2 417/11/2
f 417/11/2 402/11/2 418/11/2
f 403/11/2 412/11/2 419/11/2
f 419/11/2 412/11/2 420/11/2
f 413/11/2 406/11/2 423/11/2
f 423/11/2 406/11/2 424/11/2
f 414/11/2 415/11/2 427/11/2
f 427/11/2 415/11/2 428/11/2
f 416/11/2 417/11/2 429/11/2
f 429/11/2 417/11/2 430/11/2
f 420/11/2 421/11/2 431/11/2
f 431/11/2 421/11/2 432/11/2
f 422/11/2 423/11/2 433/11/2
f 433/11/2 423/11/2 434/11/2
f 425/10/2 426/10/2 437/10/2
f 437/10/2 426/10/2 438/10/2
f 428/11/2 429/11/2 439/11/2
f 439/11/2 429/11/2 440/11/2
f 432/11/2 433/11/2 441/11/2
f 441/11/2 433/11/2 442/11/2
f 435/3/2 436/3/2 443/3/2
f 443/3/2 436/3/2 444/3/2
f 439/8/2 440/8/2 445/8/2
f 445/8/2 440/8/2 446/8/2
f 441/8/2 442/8/2 447/8/2
f 447/8/2 442/8/2 448/8/2
f 449/1/2 450/1/2 451/1/2
f 451/1/2 450/1/2 452/1/2
f 453/11/2 454/11/2 462/11/2
f 462/11/2 454/11/2 463/11/2
f 455/4/2 456/4/2 465/4/2
f 465/4/2 456/4/2 466/4/2
f 457/6/2 458/6/2 467/6/2
f 467/6/2 458/6/2 468/6/2
f 459/11/2 460/11/2 470/11/2
f 470/11/2 460/11/2 471/11/2
f 461/10/2 462/10/2 473/10/2
f 473/10/2 462/10/2 474/10/2
f 463/4/2 464/4/2 475/4/2
f 464/4/2 465/4/2 475/4/2
f 475/4/2 465/4/2 476/4/2
f 468/6/2 469/6/2 477/6/2
f 469/6/2 470/6/2 477/6/2
f 477/6/2 470/6/2 478/6/2
f 471/5/2 472/5/2 479/5/2
f 479/5/2 472/5/2 480/5/2
f 473/9/2 474/9/2 482/9/2
f 482/9/2 474/9/2 483/9/2
f 463/4/2 475/4/2 484/4/2
f 484/4/2 475/4/2 485/4/2
f 478/6/2 470/6/2 488/6/2
f 488/6/2 470/6/2 489/6/2
f 479/3/2 480/3/2 490/3/2
f 490/3/2 480/3/2 491/3/2
f 481/11/2 482/11/2 493/11/2
f 493/11/2 482/11/2 494/11/2
f 485/11/2 486/11/2 497/11/2
f 497/11/2 486/11/2 498/11/2
f 487/11/2 488/11/2 499/11/2
f 499/11/2 488/11/2 500/11/2
f 491/11/2 492/11/2 503/11/2
f 503/11/2 492/11/2 504/11/2
f 494/10/2 495/10/2 505/10/2
f 505/10/2 495/10/2 506/10/2
f 502/5/2 503/5/2 507/5/2
f 507/5/2 503/5/2 508/5/2
f 505/9/2 506/9/2 510/9/2
f 510/9/2 506/9/2 511/9/2
f 496/10/2 497/10/2 512/10/2
f 512/10/2 497/10/2 513/10/2
f 500/5/2 501/5/2 514/5/2
f 514/5/2 501/5/2 515/5/2
f 507/3/2 508/3/2 516/3/2
f 516/3/2 508/3/2 517/3/2
f 509/10/2 510/10/2 519/10/2
f 519/10/2 510/10/2 520/10/2
f 512/9/2 513/9/2 522/9/2
f 522/9/2 513/9/2 523/9/2
f 514/3/2 515/3/2 524/3/2
f 524/3/2 515/3/2 525/3/2
f 516/5/2 517/5/2 526/5/2
f 526/5/2 517/5/2 527/5/2
f 518/10/2 519/10/2 528/10/2
f 528/10/2 519/10/2 529/10/2
f 521/11/2 522/11/2 530/11/2
f 530/11/2 522/11/2 531/11/2
f 525/11/2 526/11/2 532/11/2
f 532/11/2 526/11/2 533/11/2
f 534/2/2 535/2/2 536/2/2
f 536/2/2 535/2/2 537/2/2
f 538/4/2 539/4/2 544/4/2
f 544/4/2 539/4/2 545/4/2
f 540/6/2 541/6/2 546/6/2
f 546/6/2 541/6/2 547/6/2
f 542/11/2 543/11/2 551/11/2
f 551/11/2 543/11/2 552/11/2
f 548/11/2 549/11/2 555/11/2
f 555/11/2 549/11/2 556/11/2
f 552/11/2 553/11/2 558/11/2
f 550/11/2 551/11/2 558/11/2
f 551/11/2 552/11/2 558/11/2
f 558/11/2 553/11/2 559/11/2
f 559/11/2 553/11/2 560/11/2
f 560/11/2 553/11/2 561/11/2
f 556/11/2 557/11/2 562/11/2
f 555/11/2 556/11/2 562/11/2
f 554/11/2 555/11/2 562/11/2
f 562/11/2 557/11/2 563/11/2
f 563/11/2 557/11/2 564/11/2
f 564/11/2 557/11/2 565/11/2
f 559/11/2 560/11/2 567/11/2
f 566/10/2 567/10/2 568/10/2
f 567/11/2 560/11/2 569/11/2
f 568/10/2 567/10/2 569/10/2
f 569/11/2 560/11/2 570/11/2
f 563/11/2 564/11/2 571/11/2
f 571/11/2 564/11/2 572/11/2
f 573/2/2 574/2/2 577/2/2
f 577/2/2 574/2/2 578/2/2
f 575/2/2 576/2/2 579/2/2
f 579/2/2 576/2/2 580/2/2
f 578/1/2 579/1/2 581/1/2
f 581/1/2 579/1/2 582/1/2
f 583/4/2 584/4/2 587/4/2
f 587/4/2 584/4/2 588/4/2
f 585/6/2 586/6/2 589/6/2
f 589/6/2 586/6/2 590/6/2
f 591/10/2 592/10/2 593/10/2
f 593/10/2 592/10/2 594/10/2
f 595/2/2 596/2/2 597/2/2
f 597/2/2 596/2/2 598/2/2
f 599/10/2 600/10/2 601/10/2
f 601/10/2 600/10/2 602/10/2
f 605/10/3 604/10/3 603/10/3
f 606/10/3 604/10/3 605/10/3
f 609/10/3 608/10/3 607/10/3
f 610/10/3 608/10/3 609/10/3
f 614/11/3 612/11/3 611/11/3
f 615/11/3 612/11/3 614/11/3
f 617/11/3 614/11/3 613/11/3
f 617/11/3 616/11/3 615/11/3
f 617/11/3 615/11/3 614/11/3
f 618/11/3 616/11/3 617/11/3
f 619/11/3 616/11/3 618/11/3
f 620/11/3 616/11/3 619/11/3
f 621/11/3 616/11/3 620/11/3
f 622/11/3 619/11/3 618/11/3
f 623/11/3 619/11/3 622/11/3
f 624/10/3 621/10/3 620/10/3
f 625/10/3 621/10/3 624/10/3
f 630/12/3 627/12/3 626/12/3
f 631/12/3 627/12/3 630/12/3
f 635/11/3 633/11/3 632/11/3
f 636/11/3 633/11/3 635/11/3
f 640/4/3 635/4/3 634/4/3
f 641/4/3 635/4/3 640/4/3
f 642/10/3 637/10/3 636/10/3
f 643/10/3 637/10/3 642/10/3
f 645/11/3 639/11/3 638/11/3
f 646/11/3 639/11/3 645/11/3
f 652/11/3 644/11/3 643/11/3
f 653/11/3 644/11/3 652/11/3
f 654/10/3 647/10/3 646/10/3
f 655/9/3 648/9/3 647/9/3
f 655/10/3 647/10/3 654/10/3
f 656/9/3 648/9/3 655/9/3
f 657/10/3 650/10/3 649/10/3
f 658/9/3 651/9/3 650/9/3
f 658/10/3 650/10/3 657/10/3
f 659/9/3 651/9/3 658/9/3
f 661/11/3 657/11/3 656/11/3
f 662/11/3 657/11/3 661/11/3
f 663/10/3 660/10/3 659/10/3
f 664/10/3 660/10/3 663/10/3
f 666/2/3 629/2/3 628/2/3
f 667/2/3 629/2/3 666/2/3
f 668/10/3 665/10/3 664/10/3
f 669/10/3 665/10/3 668/10/3
f 674/2/3 671/2/3 670/2/3
f 675/2/3 671/2/3 674/2/3
f 677/8/3 673/8/3 672/8/3
f 678/8/3 673/8/3 677/8/3
f 685/11/3 681/11/3 680/11/3
f 686/11/3 681/11/3 685/11/3
f 687/11/3 681/11/3 686/11/3
f 688/11/3 683/11/3 682/11/3
f 689/11/3 683/11/3 688/11/3
f 692/11/3 685/11/3 684/11/3
f 693/4/3 686/4/3 685/4/3
f 693/11/3 685/11/3 692/11/3
f 694/4/3 686/4/3 693/4/3
f 695/11/3 690/11/3 689/11/3
f 696/11/3 690/11/3 695/11/3
f 698/8/3 679/8/3 678/8/3
f 699/11/3 692/11/3 691/11/3
f 700/11/3 692/11/3 699/11/3
f 703/11/3 697/11/3 696/11/3
f 704/8/3 698/8/3 697/8/3
f 704/11/3 697/11/3 703/11/3
f 705/8/3 679/8/3 698/8/3
f 705/8/3 698/8/3 704/8/3
f 706/11/3 701/11/3 700/11/3
f 707/11/3 701/11/3 706/11/3
f 713/11/3 703/11/3 702/11/3
f 714/11/3 703/11/3 713/11/3
f 715/11/3 708/11/3 707/11/3
f 715/11/3 709/11/3 708/11/3
f 716/11/3 709/11/3 715/11/3
f 717/11/3 712/11/3 711/11/3
f 717/11/3 711/11/3 710/11/3
f 718/11/3 712/11/3 717/11/3
f 720/1/3 676/1/3 675/1/3
f 721/1/3 676/1/3 720/1/3
f 724/2/3 720/2/3 719/2/3
f 725/2/3 720/2/3 724/2/3
f 726/10/3 723/10/3 722/10/3
f 727/10/3 723/10/3 726/10/3
f 730/12/3 729/12/3 728/12/3
f 731/12/3 729/12/3 730/12/3
f 738/11/3 735/11/3 734/11/3
f 739/11/3 735/11/3 738/11/3
f 740/4/3 737/4/3 736/4/3
f 741/4/3 737/4/3 740/4/3
f 742/2/3 733/2/3 732/2/3
f 743/2/3 733/2/3 742/2/3
f 746/1/3 745/1/3 744/1/3
f 747/1/3 745/1/3 746/1/3
f 751/4/3 749/4/3 748/4/3
f 752/4/3 749/4/3 751/4/3
f 753/4/3 751/4/3 750/4/3
f 754/4/3 751/4/3 753/4/3
f 757/2/3 756/2/3 755/2/3
f 758/2/3 756/2/3 757/2/3
f 761/4/3 760/4/3 759/4/3
f 762/4/3 760/4/3 761/4/3
f 765/4/3 764/4/3 763/4/3
f 766/4/3 764/4/3 765/4/3
f 769/6/3 768/6/3 767/6/3
f 770/6/3 768/6/3 769/6/3
f 773/6/3 772/6/3 771/6/3
f 774/6/3 772/6/3 773/6/3
f 778/11/3 776/11/3 775/11/3
f 779/11/3 776/11/3 778/11/3
f 781/11/3 778/11/3 777/11/3
f 781/11/3 780/11/3 779/11/3
f 781/11/3 779/11/3 778/11/3
f 782/11/3 780/11/3 781/11/3
f 783/11/3 780/11/3 782/11/3
f 784/11/3 780/11/3 783/11/3
f 785/11/3 780/11/3 784/11/3
f 787/6/3 782/6/3 781/6/3
f 788/6/3 782/6/3 787/6/3
f 789/11/3 784/11/3 783/11/3
f 790/11/3 784/11/3 789/11/3
f 792/6/3 787/6/3 786/6/3
f 793/6/3 787/6/3 792/6/3
f 794/6/3 792/6/3 791/6/3
f 795/6/3 792/6/3 794/6/3
f 798/12/3 797/12/3 796/12/3
f 799/12/3 797/12/3 798/12/3
f 803/11/3 801/11/3 800/11/3
f 804/11/3 801/11/3 803/11/3
f 808/6/3 803/6/3 802/6/3
f 809/6/3 803/6/3 808/6/3
f 810/3/3 805/3/3 804/3/3
f 811/5/3 806/5/3 805/5/3
f 811/3/3 805/3/3 810/3/3
f 812/5/3 806/5/3 811/5/3
f 814/11/3 808/11/3 807/11/3
f 815/11/3 808/11/3 814/11/3
f 820/11/3 813/11/3 812/11/3
f 821/11/3 813/11/3 820/11/3
f 822/6/3 817/6/3 816/6/3
f 823/6/3 817/6/3 822/6/3
f 824/5/3 819/5/3 818/5/3
f 825/3/3 820/3/3 819/3/3
f 825/5/3 819/5/3 824/5/3
f 826/3/3 820/3/3 825/3/3
f 827/11/3 824/11/3 823/11/3
f 828/11/3 824/11/3 827/11/3
f 831/8/3 830/8/3 829/8/3
f 832/8/3 830/8/3 831/8/3
f 834/8/3 833/8/3 832/8/3
f 841/11/3 837/11/3 836/11/3
f 842/11/3 837/11/3 841/11/3
f 843/11/3 839/11/3 838/11/3
f 844/11/3 839/11/3 843/11/3
f 845/11/3 839/11/3 844/11/3
f 848/11/3 841/11/3 840/11/3
f 849/11/3 841/11/3 848/11/3
f 850/11/3 846/11/3 845/11/3
f 851/11/3 846/11/3 850/11/3
f 853/8/3 834/8/3 832/8/3
f 854/11/3 848/11/3 847/11/3
f 855/11/3 848/11/3 854/11/3
f 858/11/3 852/11/3 851/11/3
f 859/8/3 853/8/3 852/8/3
f 859/11/3 852/11/3 858/11/3
f 860/7/3 835/7/3 834/7/3
f 860/8/3 853/8/3 859/8/3
f 860/8/3 834/8/3 853/8/3
f 861/11/3 856/11/3 855/11/3
f 862/11/3 856/11/3 861/11/3
f 866/11/3 858/11/3 857/11/3
f 867/11/3 858/11/3 866/11/3
f 868/7/3 835/7/3 860/7/3
f 869/7/3 835/7/3 868/7/3
f 870/11/3 863/11/3 862/11/3
f 871/11/3 863/11/3 870/11/3
f 872/11/3 865/11/3 864/11/3
f 872/11/3 866/11/3 865/11/3
f 873/11/3 866/11/3 872/11/3
f 876/12/3 875/12/3 874/12/3
f 877/12/3 875/12/3 876/12/3
f 882/2/3 879/2/3 878/2/3
f 883/2/3 879/2/3 882/2/3
f 885/3/3 881/3/3 880/3/3
f 886/3/3 881/3/3 885/3/3
f 887/3/3 885/3/3 884/3/3
f 888/3/3 885/3/3 887/3/3
f 893/11/3 890/11/3 889/11/3
f 894/11/3 890/11/3 893/11/3
f 895/5/3 892/5/3 891/5/3
f 896/5/3 892/5/3 895/5/3
f 899/3/3 898/3/3 897/3/3
f 900/3/3 898/3/3 899/3/3
f 903/3/3 902/3/3 901/3/3
f 904/3/3 902/3/3 903/3/3
f 905/10/4 906/10/4 907/10/4
f 907/10/4 906/10/4 908/10/4
f 909/10/4 910/10/4 911/10/4
f 911/10/4 910/10/4 912/10/4
f 913/12/4 914/12/4 915/12/4
f 915/12/4 914/12/4 916/12/4
f 917/11/4 918/11/4 921/11/4
f 921/11/4 918/11/4 922/11/4
f 919/10/4 920/10/4 923/10/4
f 923/10/4 920/10/4 924/10/4
f 925/10/4 926/10/4 927/10/4
f 927/10/4 926/10/4 928/10/4
f 929/8/4 930/8/4 931/8/4
f 931/8/4 930/8/4 932/8/4
f 935/11/4 936/11/4 940/11/4
f 940/11/4 936/11/4 941/11/4
f 937/11/4 938/11/4 942/11/4
f 942/11/4 938/11/4 943/11/4
f 943/11/4 938/11/4 944/11/4
f 939/11/4 940/11/4 947/11/4
f 947/11/4 940/11/4 948/11/4
f 944/11/4 945/11/4 949/11/4
f 949/11/4 945/11/4 950/11/4
f 932/8/4 933/8/4 952/8/4
f 946/11/4 947/11/4 953/11/4
f 953/11/4 947/11/4 954/11/4
f 950/11/4 951/11/4 957/11/4
f 951/8/4 952/8/4 958/8/4
f 957/11/4 951/11/4 958/11/4
f 933/7/4 934/7/4 959/7/4
f 958/8/4 952/8/4 959/8/4
f 952/8/4 933/8/4 959/8/4
f 954/11/4 955/11/4 960/11/4
f 960/11/4 955/11/4 961/11/4
f 956/11/4 957/11/4 965/11/4
f 965/11/4 957/11/4 966/11/4
f 959/7/4 934/7/4 967/7/4
f 967/7/4 934/7/4 968/7/4
f 961/11/4 962/11/4 969/11/4
f 969/11/4 962/11/4 970/11/4
f 963/11/4 964/11/4 971/11/4
f 964/11/4 965/11/4 971/11/4
f 971/11/4 965/11/4 972/11/4
f 973/10/4 974/10/4 975/10/4
f 975/10/4 974/10/4 976/10/4
f 977/12/4 978/12/4 979/12/4
f 979/12/4 978/12/4 980/12/4
f 981/11/4 982/11/4 984/11/4
f 984/11/4 982/11/4 985/11/4
f 983/4/4 984/4/4 989/4/4
f 989/4/4 984/4/4 990/4/4
f 985/9/4 986/9/4 991/9/4
f 986/10/4 987/10/4 992/10/4
f 991/9/4 986/9/4 992/9/4
f 992/10/4 987/10/4 993/10/4
f 988/11/4 989/11/4 995/11/4
f 995/11/4 989/11/4 996/11/4
f 993/11/4 994/11/4 1001/11/4
f 1001/11/4 994/11/4 1002/11/4
f 997/4/4 998/4/4 1003/4/4
f 1003/4/4 998/4/4 1004/4/4
f 999/10/4 1000/10/4 1005/10/4
f 1000/9/4 1001/9/4 1006/9/4
f 1005/10/4 1000/10/4 1006/10/4
f 1006/9/4 1001/9/4 1007/9/4
f 1004/11/4 1005/11/4 1008/11/4
f 1008/11/4 1005/11/4 1009/11/4
f 1010/11/4 1011/11/4 1013/11/4
f 1013/11/4 1011/11/4 1014/11/4
f 1012/11/4 1013/11/4 1016/11/4
f 1014/11/4 1015/11/4 1016/11/4
f 1013/11/4 1014/11/4 1016/11/4
f 1016/11/4 1015/11/4 1017/11/4
f 1017/11/4 1015/11/4 1018/11/4
f 1018/11/4 1015/11/4 1019/11/4
f 1019/11/4 1015/11/4 1020/11/4
f 1016/4/4 1017/4/4 1022/4/4
f 1022/4/4 1017/4/4 1023/4/4
f 1018/11/4 1019/11/4 1024/11/4
f 1024/11/4 1019/11/4 1025/11/4
f 1021/4/4 1022/4/4 1027/4/4
f 1027/4/4 1022/4/4 1028/4/4
f 1026/4/4 1027/4/4 1029/4/4
f 1029/4/4 1027/4/4 1030/4/4
f 1031/4/4 1032/4/4 1033/4/4
f 1033/4/4 1032/4/4 1034/4/4
f 1035/4/4 1036/4/4 1037/4/4
f 1037/4/4 1036/4/4 1038/4/4
f 1039/6/4 1040/6/4 1041/6/4
f 1041/6/4 1040/6/4 1042/6/4
f 1043/2/4 1044/2/4 1045/2/4
f 1045/2/4 1044/2/4 1046/2/4
f 1047/6/4 1048/6/4 1049/6/4
f 1049/6/4 1048/6/4 1050/6/4
f 1051/1/4 1052/1/4 1053/1/4
f 1053/1/4 1052/1/4 1054/1/4
f 1055/6/4 1056/6/4 1058/6/4
f 1058/6/4 1056/6/4 1059/6/4
f 1057/6/4 1058/6/4 1060/6/4
f 1060/6/4 1058/6/4 1061/6/4
f 1062/12/4 1063/12/4 1064/12/4
f 1064/12/4 1063/12/4 1065/12/4
f 1068/11/4 1069/11/4 1072/11/4
f 1072/11/4 1069/11/4 1073/11/4
f 1070/6/4 1071/6/4 1074/6/4
f 1074/6/4 1071/6/4 1075/6/4
f 1066/2/4 1067/2/4 1076/2/4
f 1076/2/4 1067/2/4 1077/2/4
f 1078/2/4 1079/2/4 1082/2/4
f 1082/2/4 1079/2/4 1083/2/4
f 1080/8/4 1081/8/4 1085/8/4
f 1085/8/4 1081/8/4 1086/8/4
f 1088/11/4 1089/11/4 1093/11/4
f 1093/11/4 1089/11/4 1094/11/4
f 1094/11/4 1089/11/4 1095/11/4
f 1090/11/4 1091/11/4 1096/11/4
f 1096/11/4 1091/11/4 1097/11/4
f 1092/11/4 1093/11/4 1100/11/4
f 1093/6/4 1094/6/4 1101/6/4
f 1100/11/4 1093/11/4 1101/11/4
f 1101/6/4 1094/6/4 1102/6/4
f 1097/11/4 1098/11/4 1103/11/4
f 1103/11/4 1098/11/4 1104/11/4
f 1086/8/4 1087/8/4 1106/8/4
f 1099/11/4 1100/11/4 1107/11/4
f 1107/11/4 1100/11/4 1108/11/4
f 1104/11/4 1105/11/4 1111/11/4
f 1105/8/4 1106/8/4 1112/8/4
f 1111/11/4 1105/11/4 1112/11/4
f 1106/8/4 1087/8/4 1113/8/4
f 1112/8/4 1106/8/4 1113/8/4
f 1108/11/4 1109/11/4 1114/11/4
f 1114/11/4 1109/11/4 1115/11/4
f 1110/11/4 1111/11/4 1121/11/4
f 1121/11/4 1111/11/4 1122/11/4
f 1115/11/4 1116/11/4 1123/11/4
f 1116/11/4 1117/11/4 1123/11/4
f 1123/11/4 1117/11/4 1124/11/4
f 1119/11/4 1120/11/4 1125/11/4
f 1120/11/4 1121/11/4 1125/11/4
f 1118/11/4 1119/11/4 1125/11/4
f 1125/11/4 1121/11/4 1126/11/4
f 1083/1/4 1084/1/4 1128/1/4
f 1128/1/4 1084/1/4 1129/1/4
f 1127/2/4 1128/2/4 1130/2/4
f 1130/2/4 1128/2/4 1131/2/4
f 1132/12/4 1133/12/4 1136/12/4
f 1136/12/4 1133/12/4 1137/12/4
f 1138/3/4 1139/3/4 1143/3/4
f 1143/3/4 1139/3/4 1144/3/4
f 1140/11/4 1141/11/4 1146/11/4
f 1146/11/4 1141/11/4 1147/11/4
f 1142/3/4 1143/3/4 1148/3/4
f 1148/3/4 1143/3/4 1149/3/4
f 1145/6/4 1146/6/4 1152/6/4
f 1152/6/4 1146/6/4 1153/6/4
f 1147/5/4 1148/5/4 1154/5/4
f 1154/5/4 1148/5/4 1155/5/4
f 1150/11/4 1151/11/4 1157/11/4
f 1157/11/4 1151/11/4 1158/11/4
f 1155/11/4 1156/11/4 1164/11/4
f 1164/11/4 1156/11/4 1165/11/4
f 1158/5/4 1159/5/4 1166/5/4
f 1159/3/4 1160/3/4 1167/3/4
f 1166/5/4 1159/5/4 1167/5/4
f 1167/3/4 1160/3/4 1168/3/4
f 1161/5/4 1162/5/4 1169/5/4
f 1162/3/4 1163/3/4 1170/3/4
f 1169/5/4 1162/5/4 1170/5/4
f 1163/5/4 1164/5/4 1171/5/4
f 1170/3/4 1163/3/4 1171/3/4
f 1171/5/4 1164/5/4 1172/5/4
f 1168/11/4 1169/11/4 1173/11/4
f 1173/11/4 1169/11/4 1174/11/4
f 1134/2/4 1135/2/4 1175/2/4
f 1175/2/4 1135/2/4 1176/2/4
f 1177/11/4 1178/11/4 1182/11/4
f 1182/11/4 1178/11/4 1183/11/4
f 1179/3/4 1180/3/4 1184/3/4
f 1184/3/4 1180/3/4 1185/3/4
f 1182/11/4 1183/11/4 1186/11/4
f 1181/11/4 1182/11/4 1186/11/4
f 1183/11/4 1184/11/4 1186/11/4
f 1186/11/4 1184/11/4 1187/11/4
f 1187/11/4 1184/11/4 1188/11/4
f 1188/11/4 1184/11/4 1189/11/4
f 1187/11/4 1188/11/4 1190/11/4
f 1190/11/4 1188/11/4 1191/11/4
f 1192/3/4 1193/3/4 1194/3/4
f 1194/3/4 1193/3/4 1195/3/4
f 1198/12/5 1197/12/5 1196/12/5
f 1199/12/5 1197/12/5 1198/12/5
f 1200/12/5 1198/12/5 1196/12/5
f 1201/12/5 1197/12/5 1199/12/5
f 1202/12/5 1200/12/5 1196/12/5
f 1202/12/5 1201/12/5 1200/12/5
f 1203/12/5 1197/12/5 1201/12/5
f 1203/12/5 1201/12/5 1202/12/5
f 1206/12/5 1205/12/5 1204/12/5
f 1207/12/5 1205/12/5 1206/12/5
f 1208/12/5 1206/12/5 1204/12/5
f 1209/12/5 1205/12/5 1207/12/5
f 1210/12/5 1208/12/5 1204/12/5
f 1210/12/5 1209/12/5 1208/12/5
f 1211/12/5 1205/12/5 1209/12/5
f 1211/12/5 1209/12/5 1210/12/5
f 1216/8/5 1213/8/5 1212/8/5
f 1217/8/5 1213/8/5 1216/8/5
f 1218/11/5 1215/11/5 1214/11/5
f 1219/11/5 1215/11/5 1218/11/5
f 1222/4/5 1221/4/5 1220/4/5
f 1223/4/5 1221/4/5 1222/4/5
f 1226/4/5 1225/4/5 1224/4/5
f 1227/4/5 1225/4/5 1226/4/5
f 1230/6/5 1229/6/5 1228/6/5
f 1231/6/5 1229/6/5 1230/6/5
f 1234/6/5 1233/6/5 1232/6/5
f 1235/6/5 1233/6/5 1234/6/5
f 1240/8/5 1237/8/5 1236/8/5
f 1241/8/5 1237/8/5 1240/8/5
f 1242/11/5 1239/11/5 1238/11/5
f 1243/11/5 1239/11/5 1242/11/5
f 1247/11/5 1245/11/5 1244/11/5
f 1248/11/5 1245/11/5 1247/11/5
f 1250/11/5 1247/11/5 1246/11/5
f 1251/11/5 1247/11/5 1250/11/5
f 1252/11/5 1249/11/5 1248/11/5
f 1253/11/5 1249/11/5 1252/11/5
f 1254/11/5 1252/11/5 1251/11/5
f 1255/11/5 1252/11/5 1254/11/5
f 1259/4/5 1257/4/5 1256/4/5
f 1260/4/5 1257/4/5 1259/4/5
f 1261/4/5 1259/4/5 1258/4/5
f 1262/4/5 1259/4/5 1261/4/5
f 1265/6/5 1264/6/5 1263/6/5
f 1266/6/5 1264/6/5 1265/6/5
f 1270/6/5 1267/6/5 1266/6/5
f 1271/6/5 1267/6/5 1270/6/5
f 1273/11/5 1269/11/5 1268/11/5
f 1274/11/5 1269/11/5 1273/11/5
f 1276/11/5 1273/11/5 1272/11/5
f 1277/11/5 1273/11/5 1276/11/5
f 1278/11/5 1275/11/5 1274/11/5
f 1279/11/5 1275/11/5 1278/11/5
f 1280/11/5 1278/11/5 1277/11/5
f 1281/11/5 1278/11/5 1280/11/5
f 1284/11/5 1283/11/5 1282/11/5
f 1285/11/5 1283/11/5 1284/11/5
f 1289/10/5 1286/10/5 1285/10/5
f 1290/10/5 1286/10/5 1289/10/5
f 1292/11/5 1288/11/5 1287/11/5
f 1293/11/5 1288/11/5 1292/11/5
f 1296/11/5 1291/11/5 1290/11/5
f 1297/11/5 1291/11/5 1296/11/5
f 1298/4/5 1294/4/5 1293/4/5
f 1299/4/5 1294/4/5 1298/4/5
f 1300/4/5 1296/4/5 1295/4/5
f 1301/4/5 1296/4/5 1300/4/5
f 1302/11/5 1300/11/5 1299/11/5
f 1303/4/5 1301/4/5 1300/4/5
f 1303/11/5 1300/11/5 1302/11/5
f 1304/4/5 1301/4/5 1303/4/5
f 1309/11/5 1306/11/5 1305/11/5
f 1310/6/5 1307/6/5 1306/6/5
f 1310/11/5 1306/11/5 1309/11/5
f 1311/6/5 1307/6/5 1310/6/5
f 1313/6/5 1309/6/5 1308/6/5
f 1314/6/5 1309/6/5 1313/6/5
f 1315/6/5 1311/6/5 1310/6/5
f 1316/6/5 1311/6/5 1315/6/5
f 1318/11/5 1313/11/5 1312/11/5
f 1319/11/5 1313/11/5 1318/11/5
f 1321/11/5 1317/11/5 1316/11/5
f 1322/11/5 1317/11/5 1321/11/5
f 1324/5/5 1321/5/5 1320/5/5
f 1325/5/5 1321/5/5 1324/5/5
f 1326/11/5 1324/11/5 1323/11/5
f 1327/11/5 1324/11/5 1326/11/5
f 1330/4/5 1329/4/5 1328/4/5
f 1331/4/5 1329/4/5 1330/4/5
f 1334/10/5 1333/10/5 1332/10/5
f 1335/10/5 1333/10/5 1334/10/5
f 1340/10/5 1337/10/5 1336/10/5
f 1341/10/5 1337/10/5 1340/10/5
f 1342/6/5 1339/6/5 1338/6/5
f 1343/6/5 1339/6/5 1342/6/5
f 1349/11/5 1345/11/5 1344/11/5
f 1350/11/5 1345/11/5 1349/11/5
f 1351/11/5 1347/11/5 1346/11/5
f 1352/11/5 1347/11/5 1351/11/5
f 1354/11/5 1349/11/5 1348/11/5
f 1355/11/5 1349/11/5 1354/11/5
f 1356/11/5 1353/11/5 1352/11/5
f 1357/11/5 1353/11/5 1356/11/5
f 1362/11/5 1359/11/5 1358/11/5
f 1363/11/5 1359/11/5 1362/11/5
f 1366/11/5 1361/11/5 1360/11/5
f 1367/11/5 1361/11/5 1366/11/5
f 1368/11/5 1364/11/5 1363/11/5
f 1369/11/5 1364/11/5 1368/11/5
f 1370/11/5 1366/11/5 1365/11/5
f 1371/11/5 1366/11/5 1370/11/5
f 1377/11/5 1373/11/5 1372/11/5
f 1378/11/5 1373/11/5 1377/11/5
f 1379/11/5 1375/11/5 1374/11/5
f 1380/11/5 1375/11/5 1379/11/5
f 1382/11/5 1377/11/5 1376/11/5
f 1383/11/5 1377/11/5 1382/11/5
f 1384/11/5 1381/11/5 1380/11/5
f 1385/11/5 1381/11/5 1384/11/5
f 1390/11/5 1387/11/5 1386/11/5
f 1391/11/5 1387/11/5 1390/11/5
f 1394/11/5 1389/11/5 1388/11/5
f 1395/11/5 1389/11/5 1394/11/5
f 1396/11/5 1392/11/5 1391/11/5
f 1397/11/5 1392/11/5 1396/11/5
f 1398/11/5 1394/11/5 1393/11/5
f 1399/11/5 1394/11/5 1398/11/5
f 1402/10/5 1401/10/5 1400/10/5
f 1403/10/5 1401/10/5 1402/10/5
f 1405/10/5 1404/10/5 1403/10/5
f 1406/10/5 1404/10/5 1405/10/5
f 1409/10/5 1408/10/5 1407/10/5
f 1410/10/5 1408/10/5 1409/10/5
f 1413/10/5 1412/10/5 1411/10/5
f 1414/10/5 1412/10/5 1413/10/5
f 1417/3/5 1416/3/5 1415/3/5
f 1418/3/5 1416/3/5 1417/3/5
f 1420/3/5 1419/3/5 1418/3/5
f 1421/3/5 1419/3/5 1420/3/5
f 1424/10/5 1423/10/5 1422/10/5
f 1425/10/5 1423/10/5 1424/10/5
f 1430/11/5 1427/11/5 1426/11/5
f 1431/11/5 1427/11/5 1430/11/5
f 1432/10/5 1429/10/5 1428/10/5
f 1433/10/5 1429/10/5 1432/10/5
f 1438/11/5 1435/11/5 1434/11/5
f 1439/11/5 1435/11/5 1438/11/5
f 1440/3/5 1437/3/5 1436/3/5
f 1441/3/5 1437/3/5 1440/3/5
f 1444/3/5 1443/3/5 1442/3/5
f 1445/3/5 1443/3/5 1444/3/5
f 1448/8/5 1447/8/5 1446/8/5
f 1449/8/5 1447/8/5 1448/8/5
f 1452/8/5 1451/8/5 1450/8/5
f 1453/8/5 1451/8/5 1452/8/5
f 1457/2/5 1455/2/5 1454/2/5
f 1458/2/5 1455/2/5 1457/2/5
f 1459/2/5 1455/2/5 1458/2/5
f 1460/2/5 1455/2/5 1459/2/5
f 1461/2/5 1455/2/5 1460/2/5
f 1463/2/5 1457/2/5 1456/2/5
f 1463/2/5 1458/2/5 1457/2/5
f 1464/7/5 1460/7/5 1459/7/5
f 1465/2/5 1462/2/5 1461/2/5
f 1465/7/5 1460/7/5 1464/7/5
f 1465/2/5 1461/2/5 1460/2/5
f 1466/2/5 1463/2/5 1456/2/5
f 1468/2/5 1462/2/5 1465/2/5
f 1469/2/5 1466/2/5 1456/2/5
f 1470/2/5 1466/2/5 1469/2/5
f 1471/2/5 1466/2/5 1470/2/5
f 1472/7/5 1468/7/5 1467/7/5
f 1473/2/5 1462/2/5 1468/2/5
f 1473/7/5 1468/7/5 1472/7/5
f 1474/2/5 1462/2/5 1473/2/5
f 1475/2/5 1462/2/5 1474/2/5
f 1476/2/5 1471/2/5 1470/2/5
f 1476/2/5 1472/2/5 1471/2/5
f 1476/2/5 1474/2/5 1473/2/5
f 1476/2/5 1473/2/5 1472/2/5
f 1477/2/5 1474/2/5 1476/2/5
f 1480/7/5 1479/7/5 1478/7/5
f 1481/7/5 1479/7/5 1480/7/5
f 1482/7/5 1479/7/5 1481/7/5
f 1483/1/5 1481/1/5 1480/1/5
f 1484/1/5 1481/1/5 1483/1/5
f 1485/12/6 1486/12/6 1487/12/6
f 1487/12/6 1486/12/6 1488/12/6
f 1485/12/6 1487/12/6 1489/12/6
f 1488/12/6 1486/12/6 1490/12/6
f 1485/12/6 1489/12/6 1491/12/6
f 1489/12/6 1490/12/6 1491/12/6
f 1490/12/6 1486/12/6 1492/12/6
f 1491/12/6 1490/12/6 1492/12/6
f 1493/12/6 1494/12/6 1495/12/6
f 1495/12/6 1494/12/6 1496/12/6
f 1493/12/6 1495/12/6 1497/12/6
f 1496/12/6 1494/12/6 1498/12/6
f 1493/12/6 1497/12/6 1499/12/6
f 1497/12/6 1498/12/6 1499/12/6
f 1498/12/6 1494/12/6 1500/12/6
f 1499/12/6 1498/12/6 1500/12/6
f 1501/4/6 1502/4/6 1503/4/6
f 1503/4/6 1502/4/6 1504/4/6
f 1505/4/6 1506/4/6 1507/4/6
f 1507/4/6 1506/4/6 1508/4/6
f 1509/6/6 1510/6/6 1511/6/6
f 1511/6/6 1510/6/6 1512/6/6
f 1513/6/6 1514/6/6 1515/6/6
f 1515/6/6 1514/6/6 1516/6/6
f 1517/11/6 1518/11/6 1519/11/6
f 1519/11/6 1518/11/6 1520/11/6
f 1521/4/6 1522/4/6 1524/4/6
f 1524/4/6 1522/4/6 1525/4/6
f 1523/4/6 1524/4/6 1526/4/6
f 1526/4/6 1524/4/6 1527/4/6
f 1528/6/6 1529/6/6 1530/6/6
f 1530/6/6 1529/6/6 1531/6/6
f 1531/6/6 1532/6/6 1533/6/6
f 1533/6/6 1532/6/6 1534/6/6
f 1535/11/6 1536/11/6 1537/11/6
f 1537/11/6 1536/11/6 1538/11/6
f 1539/4/6 1540/4/6 1541/4/6
f 1541/4/6 1540/4/6 1542/4/6
f 1543/6/6 1544/6/6 1545/6/6
f 1545/6/6 1544/6/6 1546/6/6
f 1547/11/6 1548/11/6 1552/11/6
f 1552/11/6 1548/11/6 1553/11/6
f 1549/11/6 1550/11/6 1554/11/6
f 1554/11/6 1550/11/6 1555/11/6
f 1551/11/6 1552/11/6 1557/11/6
f 1557/11/6 1552/11/6 1558/11/6
f 1555/11/6 1556/11/6 1559/11/6
f 1559/11/6 1556/11/6 1560/11/6
f 1561/11/6 1562/11/6 1565/11/6
f 1565/11/6 1562/11/6 1566/11/6
f 1563/11/6 1564/11/6 1569/11/6
f 1569/11/6 1564/11/6 1570/11/6
f 1566/11/6 1567/11/6 1571/11/6
f 1571/11/6 1567/11/6 1572/11/6
f 1568/11/6 1569/11/6 1573/11/6
f 1573/11/6 1569/11/6 1574/11/6
f 1575/11/6 1576/11/6 1580/11/6
f 1580/11/6 1576/11/6 1581/11/6
f 1577/11/6 1578/11/6 1582/11/6
f 1582/11/6 1578/11/6 1583/11/6
f 1579/11/6 1580/11/6 1585/11/6
f 1585/11/6 1580/11/6 1586/11/6
f 1583/11/6 1584/11/6 1587/11/6
f 1587/11/6 1584/11/6 1588/11/6
f 1589/11/6 1590/11/6 1593/11/6
f 1593/11/6 1590/11/6 1594/11/6
f 1591/11/6 1592/11/6 1597/11/6
f 1597/11/6 1592/11/6 1598/11/6
f 1594/11/6 1595/11/6 1599/11/6
f 1599/11/6 1595/11/6 1600/11/6
f 1596/11/6 1597/11/6 1601/11/6
f 1601/11/6 1597/11/6 1602/11/6
f 1603/11/6 1604/11/6 1607/11/6
f 1604/10/6 1605/10/6 1608/10/6
f 1607/11/6 1604/11/6 1608/11/6
f 1608/10/6 1605/10/6 1609/10/6
f 1606/10/6 1607/10/6 1612/10/6
f 1612/10/6 1607/10/6 1613/10/6
f 1608/10/6 1609/10/6 1614/10/6
f 1609/10/6 1610/10/6 1614/10/6
f 1614/10/6 1610/10/6 1615/10/6
f 1615/10/6 1610/10/6 1616/10/6
f 1611/11/6 1612/11/6 1617/11/6
f 1617/11/6 1612/11/6 1618/11/6
f 1613/10/6 1614/10/6 1619/10/6
f 1619/10/6 1614/10/6 1620/10/6
f 1615/11/6 1616/11/6 1621/11/6
f 1621/11/6 1616/11/6 1622/11/6
f 1618/10/6 1619/10/6 1623/10/6
f 1623/10/6 1619/10/6 1624/10/6
f 1620/9/6 1621/9/6 1625/9/6
f 1625/9/6 1621/9/6 1626/9/6
f 1624/11/6 1625/11/6 1627/11/6
f 1627/11/6 1625/11/6 1628/11/6
f 1629/11/6 1630/11/6 1632/11/6
f 1632/11/6 1630/11/6 1633/11/6
f 1631/5/6 1632/5/6 1636/5/6
f 1636/5/6 1632/5/6 1637/5/6
f 1633/3/6 1634/3/6 1638/3/6
f 1638/3/6 1634/3/6 1639/3/6
f 1635/11/6 1636/11/6 1641/11/6
f 1641/11/6 1636/11/6 1642/11/6
f 1637/10/6 1638/10/6 1643/10/6
f 1643/10/6 1638/10/6 1644/10/6
f 1639/11/6 1640/11/6 1645/11/6
f 1645/11/6 1640/11/6 1646/11/6
f 1642/5/6 1643/5/6 1647/5/6
f 1647/5/6 1643/5/6 1648/5/6
f 1644/5/6 1645/5/6 1649/5/6
f 1649/5/6 1645/5/6 1650/5/6
f 1648/11/6 1649/11/6 1651/11/6
f 1651/11/6 1649/11/6 1652/11/6
f 1653/10/6 1654/10/6 1655/10/6
f 1655/10/6 1654/10/6 1656/10/6
f 1657/11/6 1658/11/6 1662/11/6
f 1662/11/6 1658/11/6 1663/11/6
f 1659/10/6 1660/10/6 1665/10/6
f 1665/10/6 1660/10/6 1666/10/6
f 1661/11/6 1662/11/6 1667/11/6
f 1667/11/6 1662/11/6 1668/11/6
f 1663/11/6 1664/11/6 1669/11/6
f 1669/11/6 1664/11/6 1670/11/6
f 1668/11/6 1669/11/6 1671/11/6
f 1671/11/6 1669/11/6 1672/11/6
f 1673/11/6 1674/11/6 1676/11/6
f 1676/11/6 1674/11/6 1677/11/6
f 1675/11/6 1676/11/6 1680/11/6
f 1680/11/6 1676/11/6 1681/11/6
f 1677/11/6 1678/11/6 1682/11/6
f 1682/11/6 1678/11/6 1683/11/6
f 1679/3/6 1680/3/6 1684/3/6
f 1684/3/6 1680/3/6 1685/3/6
f 1681/11/6 1682/11/6 1686/11/6
f 1686/11/6 1682/11/6 1687/11/6
f 1685/3/6 1686/3/6 1688/3/6
f 1688/3/6 1686/3/6 1689/3/6
f 1690/10/6 1691/10/6 1692/10/6
f 1692/10/6 1691/10/6 1693/10/6
f 1694/10/6 1695/10/6 1696/10/6
f 1696/10/6 1695/10/6 1697/10/6
f 1698/3/6 1699/3/6 1700/3/6
f 1700/3/6 1699/3/6 1701/3/6
f 1702/3/6 1703/3/6 1704/3/6
f 1704/3/6 1703/3/6 1705/3/6
f 1706/8/6 1707/8/6 1708/8/6
f 1708/8/6 1707/8/6 1709/8/6
f 1710/8/6 1711/8/6 1712/8/6
f 1712/8/6 1711/8/6 1713/8/6
f 1714/8/6 1715/8/6 1716/8/6
f 1716/8/6 1715/8/6 1717/8/6
f 1718/2/6 1719/2/6 1721/2/6
f 1721/2/6 1719/2/6 1722/2/6
f 1720/2/6 1721/2/6 1724/2/6
f 1724/2/6 1721/2/6 1725/2/6
f 1722/2/6 1723/2/6 1726/2/6
f 1726/2/6 1723/2/6 1727/2/6
f 1725/2/6 1726/2/6 1728/2/6
f 1728/2/6 1726/2/6 1729/2/6
f 1730/1/6 1731/1/6 1732/1/6
f 1732/1/6 1731/1/6 1733/1/6
f 1730/1/6 1732/1/6 1734/1/6
f 1733/1/6 1731/1/6 1735/1/6
f 1730/1/6 1734/1/6 1736/1/6
f 1734/1/6 1735/1/6 1736/1/6
f 1735/1/6 1731/1/6 1737/1/6
f 1736/1/6 1735/1/6 1737/1/6
f 1738/2/6 1739/2/6 1740/2/6
f 1740/2/6 1739/2/6 1741/2/6
f 1738/2/6 1740/2/6 1742/2/6
f 1741/2/6 1739/2/6 1743/2/6
f 1738/2/6 1742/2/6 1744/2/6
f 1742/2/6 1743/2/6 1744/2/6
f 1743/2/6 1739/2/6 1745/2/6
f 1744/2/6 1743/2/6 1745/2/6
f 1746/1/6 1747/1/6 1748/1/6
f 1748/1/6 1747/1/6 1749/1/6
f 1746/1/6 1748/1/6 1750/1/6
f 1749/1/6 1747/1/6 1751/1/6
f 1746/1/6 1750/1/6 1752/1/6
f 1750/1/6 1751/1/6 1752/1/6
f 1751/1/6 1747/1/6 1753/1/6
f 1752/1/6 1751/1/6 1753/1/6
f 1754/2/6 1755/2/6 1756/2/6
f 1756/2/6 1755/2/6 1757/2/6
