# MagicaVoxel @ Ephtracy

# group
o 

# material
mtllib casa.mtl
usemtl palette

# normals
vn -1 0 0
vn 1 0 0
vn 0 0 1
vn 0 0 -1
vn 0 -1 0
vn 0 1 0

# texcoords
vt 0.599609 0.5
vt 0.603516 0.5
vt 0.611328 0.5
vt 0.693359 0.5
vt 0.697266 0.5
vt 0.724609 0.5
vt 0.728516 0.5
vt 0.736328 0.5
vt 0.892578 0.5
vt 0.916016 0.5
vt 0.919922 0.5
vt 0.923828 0.5
vt 0.943359 0.5
vt 0.947266 0.5

# verts
v -6.3 5.2 -25
v -6.3 5.2 -25.1
v -6.3 5.2 -25.8
v -6.3 5.2 -25.9
v -6.3 5.3 -25
v -6.3 5.3 -25.1
v -6.3 5.3 -25.8
v -6.3 5.3 -25.9
v -6.2 5.3 -25
v -6.2 5.3 -25.1
v -6.2 5.3 -25.8
v -6.2 5.3 -25.9
v -6.2 5.4 -25
v -6.2 5.4 -25.1
v -6.2 5.4 -25.8
v -6.2 5.4 -25.9
v -6.1 5.2 -24.5
v -6.1 5.2 -25
v -6.1 5.2 -25.9
v -6.1 5.2 -26.4
v -6.1 5.4 -24.5
v -6.1 5.4 -25
v -6.1 5.4 -25.9
v -6.1 5.4 -26.4
v -6 5.2 -24.4
v -6 5.2 -24.5
v -6 5.2 -26.4
v -6 5.2 -26.5
v -6 5.4 -24.4
v -6 5.4 -24.5
v -6 5.4 -26.4
v -6 5.4 -26.5
v -6 6.1 -24.5
v -6 6.1 -24.6
v -6 6.1 -26.3
v -6 6.1 -26.4
v -6 6.2 -24.5
v -6 6.2 -24.6
v -6 6.2 -26.3
v -6 6.2 -26.4
v -5.9 5.4 -24.6
v -5.9 5.4 -24.8
v -5.9 5.4 -25.1
v -5.9 5.4 -25.2
v -5.9 5.4 -25.7
v -5.9 5.4 -25.8
v -5.9 5.4 -26.1
v -5.9 5.4 -26.3
v -5.9 5.7 -25.1
v -5.9 5.7 -25.2
v -5.9 5.7 -25.3
v -5.9 5.7 -25.6
v -5.9 5.7 -25.7
v -5.9 5.7 -25.8
v -5.9 5.8 -25.2
v -5.9 5.8 -25.3
v -5.9 5.8 -25.6
v -5.9 5.8 -25.7
v -5.9 5.9 -25.3
v -5.9 5.9 -25.6
v -5.9 6.1 -24.6
v -5.9 6.1 -24.8
v -5.9 6.1 -26.1
v -5.9 6.1 -26.3
v -5.9 6.2 -24.6
v -5.9 6.2 -24.7
v -5.9 6.2 -26.2
v -5.9 6.2 -26.3
v -5.9 6.3 -24.6
v -5.9 6.3 -24.7
v -5.9 6.3 -26.2
v -5.9 6.3 -26.3
v -5.8 5.4 -24.8
v -5.8 5.4 -25.1
v -5.8 5.4 -25.2
v -5.8 5.4 -25.3
v -5.8 5.4 -25.4
v -5.8 5.4 -25.5
v -5.8 5.4 -25.6
v -5.8 5.4 -25.7
v -5.8 5.4 -25.8
v -5.8 5.4 -26.1
v -5.8 5.5 -24.8
v -5.8 5.5 -25.1
v -5.8 5.5 -25.8
v -5.8 5.5 -26.1
v -5.8 5.6 -24.8
v -5.8 5.6 -25.1
v -5.8 5.6 -25.4
v -5.8 5.6 -25.5
v -5.8 5.6 -25.8
v -5.8 5.6 -26.1
v -5.8 5.7 -24.8
v -5.8 5.7 -25.1
v -5.8 5.7 -25.2
v -5.8 5.7 -25.3
v -5.8 5.7 -25.6
v -5.8 5.7 -25.7
v -5.8 5.7 -25.8
v -5.8 5.7 -26.1
v -5.8 5.8 -24.8
v -5.8 5.8 -25.2
v -5.8 5.8 -25.3
v -5.8 5.8 -25.6
v -5.8 5.8 -25.7
v -5.8 5.8 -26.1
v -5.8 5.9 -24.8
v -5.8 5.9 -25.3
v -5.8 5.9 -25.6
v -5.8 5.9 -26.1
v -5.8 6 -24.8
v -5.8 6 -26.1
v -5.8 6.1 -24.8
v -5.8 6.1 -26.1
v -5.8 6.3 -24.7
v -5.8 6.3 -24.8
v -5.8 6.3 -26.1
v -5.8 6.3 -26.2
v -5.8 6.4 -24.7
v -5.8 6.4 -24.8
v -5.8 6.4 -26.1
v -5.8 6.4 -26.2
v -5.7 6.4 -24.8
v -5.7 6.4 -24.9
v -5.7 6.4 -26
v -5.7 6.4 -26.1
v -5.7 6.5 -24.8
v -5.7 6.5 -24.9
v -5.7 6.5 -26
v -5.7 6.5 -26.1
v -5.6 6.5 -24.9
v -5.6 6.5 -25
v -5.6 6.5 -25.9
v -5.6 6.5 -26
v -5.6 6.6 -24.9
v -5.6 6.6 -25
v -5.6 6.6 -25.9
v -5.6 6.6 -26
v -5.5 6.6 -25
v -5.5 6.6 -25.1
v -5.5 6.6 -25.8
v -5.5 6.6 -25.9
v -5.5 6.7 -25
v -5.5 6.7 -25.1
v -5.5 6.7 -25.8
v -5.5 6.7 -25.9
v -5.4 6.7 -25.1
v -5.4 6.7 -25.2
v -5.4 6.7 -25.7
v -5.4 6.7 -25.8
v -5.4 6.8 -25.1
v -5.4 6.8 -25.2
v -5.4 6.8 -25.7
v -5.4 6.8 -25.8
v -5.3 6.8 -25.2
v -5.3 6.8 -25.3
v -5.3 6.8 -25.6
v -5.3 6.8 -25.7
v -5.3 6.9 -25.2
v -5.3 6.9 -25.3
v -5.3 6.9 -25.6
v -5.3 6.9 -25.7
v -5.3 7.5 -24.5
v -5.3 7.5 -24.6
v -5.3 7.6 -24.5
v -5.3 7.6 -24.6
v -5.3 7.8 -24.9
v -5.3 7.8 -25
v -5.3 7.9 -24.9
v -5.3 7.9 -25
v -5.2 6.3 -26.2
v -5.2 6.3 -26.3
v -5.2 6.4 -26.1
v -5.2 6.4 -26.2
v -5.2 6.4 -26.3
v -5.2 6.5 -26
v -5.2 6.5 -26.1
v -5.2 6.6 -26
v -5.2 6.6 -26.2
v -5.2 6.9 -24.6
v -5.2 6.9 -24.9
v -5.2 7.2 -24.6
v -5.2 7.2 -24.9
v -5.2 7.4 -24.5
v -5.2 7.4 -24.6
v -5.2 7.5 -24.4
v -5.2 7.5 -24.5
v -5.2 7.5 -24.6
v -5.2 7.5 -24.7
v -5.2 7.6 -24.4
v -5.2 7.6 -24.5
v -5.2 7.6 -24.6
v -5.2 7.6 -24.7
v -5.2 7.7 -24.5
v -5.2 7.7 -24.6
v -5.2 7.7 -24.9
v -5.2 7.7 -25
v -5.2 7.8 -24.8
v -5.2 7.8 -24.9
v -5.2 7.8 -25
v -5.2 7.8 -25.1
v -5.2 7.9 -24.8
v -5.2 7.9 -24.9
v -5.2 7.9 -25
v -5.2 7.9 -25.1
v -5.2 8 -24.9
v -5.2 8 -25
v -5.1 6.3 -24.6
v -5.1 6.3 -24.7
v -5.1 6.4 -24.6
v -5.1 6.4 -24.7
v -5.1 6.4 -24.8
v -5.1 6.5 -24.8
v -5.1 6.5 -24.9
v -5.1 6.6 -24.7
v -5.1 6.6 -24.8
v -5.1 6.6 -24.9
v -5.1 6.6 -25.9
v -5.1 6.6 -26
v -5.1 6.6 -26.2
v -5.1 6.7 -24.6
v -5.1 6.7 -24.7
v -5.1 6.7 -24.8
v -5.1 6.7 -25.9
v -5.1 6.7 -26.2
v -5.1 6.9 -24.5
v -5.1 6.9 -24.6
v -5.1 6.9 -24.7
v -5.1 6.9 -24.9
v -5.1 6.9 -25
v -5.1 7.1 -24.5
v -5.1 7.1 -24.6
v -5.1 7.1 -24.9
v -5.1 7.1 -25
v -5.1 7.2 -24.5
v -5.1 7.2 -24.6
v -5.1 7.2 -24.9
v -5.1 7.2 -25
v -4.9 6.3 -24.7
v -4.9 6.3 -24.8
v -4.9 6.4 -24.7
v -4.9 6.4 -24.8
v -4.9 6.9 -24.7
v -4.9 6.9 -24.8
v -4.9 7 -24.7
v -4.9 7 -24.8
v -4.9 7.9 -24.5
v -4.9 7.9 -24.6
v -4.9 8 -24.5
v -4.9 8 -24.6
v -4.8 6.3 -26
v -4.8 6.3 -26.2
v -4.8 6.3 -26.3
v -4.8 6.4 -26
v -4.8 6.4 -26.2
v -4.8 6.4 -26.3
v -4.8 6.6 -26
v -4.8 6.6 -26.2
v -4.8 7 -24.6
v -4.8 7 -24.8
v -4.8 7 -24.9
v -4.8 7.1 -24.8
v -4.8 7.1 -24.9
v -4.8 7.2 -24.6
v -4.8 7.2 -24.9
v -4.8 7.8 -24.5
v -4.8 7.8 -24.6
v -4.8 7.9 -24.4
v -4.8 7.9 -24.5
v -4.8 7.9 -24.6
v -4.8 7.9 -24.7
v -4.8 8 -24.4
v -4.8 8 -24.5
v -4.8 8 -24.6
v -4.8 8 -24.7
v -4.8 8.1 -24.5
v -4.8 8.1 -24.6
v -4.2 5.4 -24.6
v -4.2 5.4 -24.7
v -4.2 5.4 -24.8
v -4.2 5.4 -26.1
v -4.2 5.4 -26.2
v -4.2 5.4 -26.3
v -4.2 5.5 -24.7
v -4.2 5.5 -24.8
v -4.2 5.5 -26.1
v -4.2 5.5 -26.2
v -4.2 5.6 -24.7
v -4.2 5.6 -24.8
v -4.2 5.6 -26.1
v -4.2 5.6 -26.2
v -4.2 5.7 -24.7
v -4.2 5.7 -24.8
v -4.2 5.7 -26.1
v -4.2 5.7 -26.2
v -4.2 5.8 -24.7
v -4.2 5.8 -24.8
v -4.2 5.8 -26.1
v -4.2 5.8 -26.2
v -4.2 5.9 -24.7
v -4.2 5.9 -24.8
v -4.2 5.9 -26.1
v -4.2 5.9 -26.2
v -4.2 6 -24.7
v -4.2 6 -24.8
v -4.2 6 -26.1
v -4.2 6 -26.2
v -4.2 6.1 -24.6
v -4.2 6.1 -24.7
v -4.2 6.1 -24.8
v -4.2 6.1 -26.1
v -4.2 6.1 -26.2
v -4.2 6.1 -26.3
v -5.7 5.4 -24.6
v -5.7 5.4 -24.7
v -5.7 5.4 -24.8
v -5.7 5.4 -25.2
v -5.7 5.4 -25.3
v -5.7 5.4 -25.4
v -5.7 5.4 -25.5
v -5.7 5.4 -25.6
v -5.7 5.4 -25.7
v -5.7 5.4 -26.1
v -5.7 5.4 -26.2
v -5.7 5.4 -26.3
v -5.7 5.5 -24.7
v -5.7 5.5 -24.8
v -5.7 5.5 -25.1
v -5.7 5.5 -25.8
v -5.7 5.5 -26.1
v -5.7 5.5 -26.2
v -5.7 5.6 -24.7
v -5.7 5.6 -24.8
v -5.7 5.6 -25.1
v -5.7 5.6 -25.4
v -5.7 5.6 -25.5
v -5.7 5.6 -25.8
v -5.7 5.6 -26.1
v -5.7 5.6 -26.2
v -5.7 5.7 -24.7
v -5.7 5.7 -24.8
v -5.7 5.7 -25.2
v -5.7 5.7 -25.3
v -5.7 5.7 -25.6
v -5.7 5.7 -25.7
v -5.7 5.7 -26.1
v -5.7 5.7 -26.2
v -5.7 5.8 -24.7
v -5.7 5.8 -24.8
v -5.7 5.8 -25.2
v -5.7 5.8 -25.3
v -5.7 5.8 -25.6
v -5.7 5.8 -25.7
v -5.7 5.8 -26.1
v -5.7 5.8 -26.2
v -5.7 5.9 -24.7
v -5.7 5.9 -24.8
v -5.7 5.9 -26.1
v -5.7 5.9 -26.2
v -5.7 6 -24.7
v -5.7 6 -24.8
v -5.7 6 -26.1
v -5.7 6 -26.2
v -5.7 6.1 -24.6
v -5.7 6.1 -24.7
v -5.7 6.1 -24.8
v -5.7 6.1 -26.1
v -5.7 6.1 -26.2
v -5.7 6.1 -26.3
v -5.1 6.3 -26
v -5.1 6.3 -26.2
v -5.1 6.3 -26.3
v -5.1 6.4 -26
v -5.1 6.4 -26.2
v -5.1 6.4 -26.3
v -5.1 6.6 -26
v -5.1 6.6 -26.2
v -5.1 7 -24.6
v -5.1 7 -24.9
v -5.1 7.1 -24.6
v -5.1 7.1 -24.9
v -5.1 7.2 -24.6
v -5.1 7.2 -24.9
v -5 6.3 -24.7
v -5 6.3 -24.8
v -5 6.4 -24.7
v -5 6.4 -24.8
v -5 6.9 -24.7
v -5 6.9 -24.8
v -5 7 -24.7
v -5 7 -24.8
v -5 7.4 -24.5
v -5 7.4 -24.6
v -5 7.5 -24.4
v -5 7.5 -24.5
v -5 7.5 -24.6
v -5 7.5 -24.7
v -5 7.6 -24.4
v -5 7.6 -24.5
v -5 7.6 -24.6
v -5 7.6 -24.7
v -5 7.7 -24.5
v -5 7.7 -24.6
v -5 7.7 -24.9
v -5 7.7 -25
v -5 7.8 -24.8
v -5 7.8 -24.9
v -5 7.8 -25
v -5 7.8 -25.1
v -5 7.9 -24.8
v -5 7.9 -24.9
v -5 7.9 -25
v -5 7.9 -25.1
v -5 8 -24.9
v -5 8 -25
v -4.9 7.5 -24.5
v -4.9 7.5 -24.6
v -4.9 7.6 -24.5
v -4.9 7.6 -24.6
v -4.9 7.8 -24.9
v -4.9 7.8 -25
v -4.9 7.9 -24.9
v -4.9 7.9 -25
v -4.8 6.3 -24.6
v -4.8 6.3 -24.7
v -4.8 6.4 -24.7
v -4.8 6.4 -24.8
v -4.8 6.5 -24.6
v -4.8 6.5 -24.7
v -4.8 6.5 -24.8
v -4.8 6.5 -24.9
v -4.8 6.6 -24.7
v -4.8 6.6 -24.8
v -4.8 6.6 -24.9
v -4.8 6.6 -25.9
v -4.8 6.6 -26
v -4.8 6.6 -26.2
v -4.8 6.7 -24.8
v -4.8 6.7 -24.9
v -4.8 6.7 -25.9
v -4.8 6.7 -26.2
v -4.8 6.8 -24.7
v -4.8 6.8 -24.8
v -4.8 6.9 -24.5
v -4.8 6.9 -24.6
v -4.8 6.9 -24.8
v -4.8 6.9 -24.9
v -4.8 6.9 -25
v -4.8 7 -24.9
v -4.8 7 -25
v -4.8 7.1 -24.9
v -4.8 7.2 -24.5
v -4.8 7.2 -24.6
v -4.8 7.2 -24.9
v -4.8 7.2 -25
v -4.7 6.3 -26.2
v -4.7 6.3 -26.3
v -4.7 6.4 -26.1
v -4.7 6.4 -26.2
v -4.7 6.4 -26.3
v -4.7 6.5 -26
v -4.7 6.5 -26.1
v -4.7 6.6 -26
v -4.7 6.6 -26.2
v -4.7 6.9 -24.6
v -4.7 6.9 -24.9
v -4.7 7 -24.8
v -4.7 7 -24.9
v -4.7 7.1 -24.8
v -4.7 7.1 -24.9
v -4.7 7.2 -24.6
v -4.7 7.2 -24.9
v -4.6 6.8 -25.2
v -4.6 6.8 -25.3
v -4.6 6.8 -25.6
v -4.6 6.8 -25.7
v -4.6 6.9 -25.2
v -4.6 6.9 -25.3
v -4.6 6.9 -25.6
v -4.6 6.9 -25.7
v -4.6 7.8 -24.5
v -4.6 7.8 -24.6
v -4.6 7.9 -24.4
v -4.6 7.9 -24.5
v -4.6 7.9 -24.6
v -4.6 7.9 -24.7
v -4.6 8 -24.4
v -4.6 8 -24.5
v -4.6 8 -24.6
v -4.6 8 -24.7
v -4.6 8.1 -24.5
v -4.6 8.1 -24.6
v -4.5 6.7 -25.1
v -4.5 6.7 -25.2
v -4.5 6.7 -25.7
v -4.5 6.7 -25.8
v -4.5 6.8 -25.1
v -4.5 6.8 -25.2
v -4.5 6.8 -25.7
v -4.5 6.8 -25.8
v -4.5 7.9 -24.5
v -4.5 7.9 -24.6
v -4.5 8 -24.5
v -4.5 8 -24.6
v -4.4 6.6 -25
v -4.4 6.6 -25.1
v -4.4 6.6 -25.3
v -4.4 6.6 -25.6
v -4.4 6.6 -25.8
v -4.4 6.6 -25.9
v -4.4 6.7 -25
v -4.4 6.7 -25.1
v -4.4 6.7 -25.3
v -4.4 6.7 -25.6
v -4.4 6.7 -25.8
v -4.4 6.7 -25.9
v -4.3 6.3 -25.3
v -4.3 6.3 -25.4
v -4.3 6.3 -25.5
v -4.3 6.3 -25.6
v -4.3 6.5 -24.9
v -4.3 6.5 -25
v -4.3 6.5 -25.2
v -4.3 6.5 -25.4
v -4.3 6.5 -25.5
v -4.3 6.5 -25.7
v -4.3 6.5 -25.9
v -4.3 6.5 -26
v -4.3 6.6 -24.9
v -4.3 6.6 -25
v -4.3 6.6 -25.2
v -4.3 6.6 -25.3
v -4.3 6.6 -25.6
v -4.3 6.6 -25.7
v -4.3 6.6 -25.9
v -4.3 6.6 -26
v -4.2 6.4 -24.8
v -4.2 6.4 -24.9
v -4.2 6.4 -25.2
v -4.2 6.4 -25.7
v -4.2 6.4 -26
v -4.2 6.4 -26.1
v -4.2 6.5 -24.8
v -4.2 6.5 -24.9
v -4.2 6.5 -25.2
v -4.2 6.5 -25.7
v -4.2 6.5 -26
v -4.2 6.5 -26.1
v -4.1 5.4 -24.8
v -4.1 5.4 -26.1
v -4.1 5.5 -24.8
v -4.1 5.5 -26.1
v -4.1 5.6 -24.8
v -4.1 5.6 -26.1
v -4.1 5.7 -24.8
v -4.1 5.7 -26.1
v -4.1 5.8 -24.8
v -4.1 5.8 -26.1
v -4.1 5.9 -24.8
v -4.1 5.9 -26.1
v -4.1 6 -24.8
v -4.1 6 -26.1
v -4.1 6.1 -24.8
v -4.1 6.1 -26.1
v -4.1 6.3 -24.7
v -4.1 6.3 -24.8
v -4.1 6.3 -25.2
v -4.1 6.3 -25.7
v -4.1 6.3 -26.1
v -4.1 6.3 -26.2
v -4.1 6.4 -24.7
v -4.1 6.4 -24.8
v -4.1 6.4 -25.2
v -4.1 6.4 -25.3
v -4.1 6.4 -25.6
v -4.1 6.4 -25.7
v -4.1 6.4 -26.1
v -4.1 6.4 -26.2
v -4.1 6.6 -25.2
v -4.1 6.6 -25.3
v -4.1 6.6 -25.6
v -4.1 6.6 -25.7
v -4.1 6.7 -25.3
v -4.1 6.7 -25.6
v -4 5.4 -24.6
v -4 5.4 -24.8
v -4 5.4 -26.1
v -4 5.4 -26.3
v -4 6.1 -24.6
v -4 6.1 -24.8
v -4 6.1 -26.1
v -4 6.1 -26.3
v -4 6.2 -24.6
v -4 6.2 -24.7
v -4 6.2 -26.2
v -4 6.2 -26.3
v -4 6.3 -24.6
v -4 6.3 -24.7
v -4 6.3 -25.2
v -4 6.3 -25.3
v -4 6.3 -25.6
v -4 6.3 -25.7
v -4 6.3 -26.2
v -4 6.3 -26.3
v -4 6.4 -25.2
v -4 6.4 -25.3
v -4 6.4 -25.6
v -4 6.4 -25.7
v -3.9 5.2 -24.4
v -3.9 5.2 -24.5
v -3.9 5.2 -26.4
v -3.9 5.2 -26.5
v -3.9 5.4 -24.4
v -3.9 5.4 -24.5
v -3.9 5.4 -26.4
v -3.9 5.4 -26.5
v -3.9 6.1 -24.5
v -3.9 6.1 -24.6
v -3.9 6.1 -26.3
v -3.9 6.1 -26.4
v -3.9 6.2 -24.5
v -3.9 6.2 -24.6
v -3.9 6.2 -26.3
v -3.9 6.2 -26.4
v -3.8 5.2 -24.5
v -3.8 5.2 -26.4
v -3.8 5.4 -24.5
v -3.8 5.4 -26.4
v -6 5.2 -24.4
v -6 5.4 -24.4
v -5.2 7.5 -24.4
v -5.2 7.6 -24.4
v -5 7.5 -24.4
v -5 7.6 -24.4
v -4.8 7.9 -24.4
v -4.8 8 -24.4
v -4.6 7.9 -24.4
v -4.6 8 -24.4
v -3.9 5.2 -24.4
v -3.9 5.4 -24.4
v -6.1 5.2 -24.5
v -6.1 5.4 -24.5
v -6 5.2 -24.5
v -6 5.4 -24.5
v -6 6.1 -24.5
v -6 6.2 -24.5
v -5.9 6.1 -24.5
v -5.9 6.2 -24.5
v -5.3 7.5 -24.5
v -5.3 7.6 -24.5
v -5.2 7.4 -24.5
v -5.2 7.5 -24.5
v -5.2 7.6 -24.5
v -5.2 7.7 -24.5
v -5.1 6.9 -24.5
v -5.1 7.1 -24.5
v -5.1 7.2 -24.5
v -5 6.9 -24.5
v -5 7 -24.5
v -5 7.1 -24.5
v -5 7.2 -24.5
v -5 7.4 -24.5
v -5 7.5 -24.5
v -5 7.6 -24.5
v -5 7.7 -24.5
v -4.9 6.9 -24.5
v -4.9 7 -24.5
v -4.9 7.5 -24.5
v -4.9 7.6 -24.5
v -4.9 7.9 -24.5
v -4.9 8 -24.5
v -4.8 6.9 -24.5
v -4.8 7.2 -24.5
v -4.8 7.8 -24.5
v -4.8 7.9 -24.5
v -4.8 8 -24.5
v -4.8 8.1 -24.5
v -4.6 7.8 -24.5
v -4.6 7.9 -24.5
v -4.6 8 -24.5
v -4.6 8.1 -24.5
v -4.5 7.9 -24.5
v -4.5 8 -24.5
v -4 6.1 -24.5
v -4 6.2 -24.5
v -3.9 5.2 -24.5
v -3.9 5.4 -24.5
v -3.9 6.1 -24.5
v -3.9 6.2 -24.5
v -3.8 5.2 -24.5
v -3.8 5.4 -24.5
v -5.9 5.4 -24.6
v -5.9 6.1 -24.6
v -5.9 6.2 -24.6
v -5.9 6.3 -24.6
v -5.8 5.4 -24.6
v -5.8 6.2 -24.6
v -5.8 6.3 -24.6
v -5.7 5.4 -24.6
v -5.7 6.1 -24.6
v -5.2 6.9 -24.6
v -5.2 7.2 -24.6
v -5.1 6.2 -24.6
v -5.1 6.3 -24.6
v -5.1 6.4 -24.6
v -5.1 6.7 -24.6
v -5.1 6.9 -24.6
v -5.1 7.1 -24.6
v -5.1 7.2 -24.6
v -5 6.3 -24.6
v -5 6.4 -24.6
v -5 6.5 -24.6
v -5 6.7 -24.6
v -5 6.9 -24.6
v -4.9 6.2 -24.6
v -4.9 6.3 -24.6
v -4.9 6.5 -24.6
v -4.9 6.7 -24.6
v -4.9 6.9 -24.6
v -4.8 6.2 -24.6
v -4.8 6.3 -24.6
v -4.8 6.5 -24.6
v -4.8 6.9 -24.6
v -4.8 7.2 -24.6
v -4.7 6.9 -24.6
v -4.7 7.2 -24.6
v -4.2 5.4 -24.6
v -4.2 6.1 -24.6
v -4.1 5.4 -24.6
v -4.1 6.2 -24.6
v -4.1 6.3 -24.6
v -4 5.4 -24.6
v -4 6.1 -24.6
v -4 6.2 -24.6
v -4 6.3 -24.6
v -5.8 6.3 -24.7
v -5.8 6.4 -24.7
v -5.7 5.4 -24.7
v -5.7 5.5 -24.7
v -5.7 5.6 -24.7
v -5.7 5.7 -24.7
v -5.7 5.8 -24.7
v -5.7 5.9 -24.7
v -5.7 6 -24.7
v -5.7 6.1 -24.7
v -5.7 6.3 -24.7
v -5.7 6.4 -24.7
v -5.6 5.4 -24.7
v -5.5 5.4 -24.7
v -5.4 5.4 -24.7
v -5.3 5.4 -24.7
v -5.2 5.4 -24.7
v -5.2 5.5 -24.7
v -5.2 5.6 -24.7
v -5.2 5.7 -24.7
v -5.2 5.8 -24.7
v -5.2 5.9 -24.7
v -5.2 6 -24.7
v -5.1 5.4 -24.7
v -5.1 5.5 -24.7
v -5.1 5.7 -24.7
v -5.1 5.8 -24.7
v -5.1 6 -24.7
v -5.1 6.3 -24.7
v -5.1 6.4 -24.7
v -5 5.4 -24.7
v -5 5.5 -24.7
v -5 5.7 -24.7
v -5 5.8 -24.7
v -5 6 -24.7
v -4.9 5.4 -24.7
v -4.9 5.5 -24.7
v -4.9 5.7 -24.7
v -4.9 5.8 -24.7
v -4.9 6 -24.7
v -4.8 5.4 -24.7
v -4.8 5.5 -24.7
v -4.8 5.7 -24.7
v -4.8 5.8 -24.7
v -4.8 6 -24.7
v -4.8 6.3 -24.7
v -4.8 6.4 -24.7
v -4.7 5.4 -24.7
v -4.7 5.5 -24.7
v -4.7 5.6 -24.7
v -4.7 5.7 -24.7
v -4.7 5.8 -24.7
v -4.7 5.9 -24.7
v -4.7 6 -24.7
v -4.6 5.4 -24.7
v -4.5 5.4 -24.7
v -4.4 5.4 -24.7
v -4.3 5.4 -24.7
v -4.2 5.4 -24.7
v -4.2 5.5 -24.7
v -4.2 5.6 -24.7
v -4.2 5.7 -24.7
v -4.2 5.8 -24.7
v -4.2 5.9 -24.7
v -4.2 6 -24.7
v -4.2 6.1 -24.7
v -4.2 6.3 -24.7
v -4.2 6.4 -24.7
v -4.1 6.3 -24.7
v -4.1 6.4 -24.7
v -5.7 6.4 -24.8
v -5.7 6.5 -24.8
v -5.6 6.4 -24.8
v -5.6 6.5 -24.8
v -5.2 7.8 -24.8
v -5.2 7.9 -24.8
v -5.1 6.4 -24.8
v -5.1 6.5 -24.8
v -5 6.3 -24.8
v -5 6.4 -24.8
v -5 6.9 -24.8
v -5 7 -24.8
v -5 7.8 -24.8
v -5 7.9 -24.8
v -4.9 6.3 -24.8
v -4.9 6.4 -24.8
v -4.9 6.9 -24.8
v -4.9 7 -24.8
v -4.8 6.4 -24.8
v -4.8 6.5 -24.8
v -4.3 6.4 -24.8
v -4.3 6.5 -24.8
v -4.2 6.4 -24.8
v -4.2 6.5 -24.8
v -5.6 6.5 -24.9
v -5.6 6.6 -24.9
v -5.5 6.5 -24.9
v -5.5 6.6 -24.9
v -5.3 7.8 -24.9
v -5.3 7.9 -24.9
v -5.2 7.7 -24.9
v -5.2 7.8 -24.9
v -5.2 7.9 -24.9
v -5.2 8 -24.9
v -5.1 6.5 -24.9
v -5.1 6.6 -24.9
v -5.1 7 -24.9
v -5.1 7.1 -24.9
v -5.1 7.2 -24.9
v -5 7 -24.9
v -5 7.1 -24.9
v -5 7.7 -24.9
v -5 7.8 -24.9
v -5 7.9 -24.9
v -5 8 -24.9
v -4.9 7 -24.9
v -4.9 7.2 -24.9
v -4.9 7.8 -24.9
v -4.9 7.9 -24.9
v -4.8 6.5 -24.9
v -4.8 6.6 -24.9
v -4.8 7 -24.9
v -4.8 7.1 -24.9
v -4.8 7.2 -24.9
v -4.4 6.5 -24.9
v -4.4 6.6 -24.9
v -4.3 6.5 -24.9
v -4.3 6.6 -24.9
v -6.3 5.2 -25
v -6.3 5.3 -25
v -6.2 5.3 -25
v -6.2 5.4 -25
v -6.1 5.2 -25
v -6.1 5.4 -25
v -5.5 6.6 -25
v -5.5 6.7 -25
v -5.4 6.6 -25
v -5.4 6.7 -25
v -4.5 6.6 -25
v -4.5 6.7 -25
v -4.4 6.6 -25
v -4.4 6.7 -25
v -5.9 5.4 -25.1
v -5.9 5.7 -25.1
v -5.8 5.4 -25.1
v -5.8 5.5 -25.1
v -5.8 5.6 -25.1
v -5.8 5.7 -25.1
v -5.4 6.7 -25.1
v -5.4 6.8 -25.1
v -5.3 6.7 -25.1
v -5.3 6.8 -25.1
v -4.6 6.7 -25.1
v -4.6 6.8 -25.1
v -4.5 6.7 -25.1
v -4.5 6.8 -25.1
v -5.9 5.7 -25.2
v -5.9 5.8 -25.2
v -5.8 5.7 -25.2
v -5.8 5.8 -25.2
v -5.3 6.8 -25.2
v -5.3 6.9 -25.2
v -5.2 6.8 -25.2
v -5.2 6.9 -25.2
v -4.7 6.8 -25.2
v -4.7 6.9 -25.2
v -4.6 6.8 -25.2
v -4.6 6.9 -25.2
v -4.3 6.5 -25.2
v -4.3 6.6 -25.2
v -4.2 6.4 -25.2
v -4.2 6.5 -25.2
v -4.1 6.3 -25.2
v -4.1 6.4 -25.2
v -4.1 6.6 -25.2
v -4 6.3 -25.2
v -4 6.4 -25.2
v -5.9 5.8 -25.3
v -5.9 5.9 -25.3
v -5.8 5.8 -25.3
v -5.8 5.9 -25.3
v -4.4 6.6 -25.3
v -4.4 6.7 -25.3
v -4.3 6.6 -25.3
v -4.1 6.6 -25.3
v -4.1 6.7 -25.3
v -5.9 5.7 -25.6
v -5.9 5.8 -25.6
v -5.8 5.7 -25.6
v -5.8 5.8 -25.6
v -4.3 6.3 -25.6
v -4.3 6.6 -25.6
v -4.1 6.3 -25.6
v -4.1 6.4 -25.6
v -4.1 6.6 -25.6
v -4 6.3 -25.6
v -4 6.4 -25.6
v -5.9 5.4 -25.7
v -5.9 5.7 -25.7
v -5.8 5.4 -25.7
v -5.8 5.7 -25.7
v -5.9 5.4 -26.1
v -5.9 6.1 -26.1
v -5.8 5.4 -26.1
v -5.8 5.5 -26.1
v -5.8 5.6 -26.1
v -5.8 5.7 -26.1
v -5.8 5.8 -26.1
v -5.8 5.9 -26.1
v -5.8 6 -26.1
v -5.8 6.1 -26.1
v -5.7 5.4 -26.1
v -5.7 5.5 -26.1
v -5.7 5.6 -26.1
v -5.7 5.7 -26.1
v -5.7 5.8 -26.1
v -5.7 5.9 -26.1
v -5.7 6 -26.1
v -5.7 6.1 -26.1
v -5.6 5.4 -26.1
v -5.5 5.4 -26.1
v -5.4 5.4 -26.1
v -5.3 5.4 -26.1
v -5.2 5.4 -26.1
v -5.2 5.5 -26.1
v -5.2 5.6 -26.1
v -5.2 5.7 -26.1
v -5.2 5.8 -26.1
v -5.2 5.9 -26.1
v -5.2 6 -26.1
v -5.1 5.4 -26.1
v -5.1 5.5 -26.1
v -5.1 5.7 -26.1
v -5.1 5.8 -26.1
v -5.1 6 -26.1
v -5 5.4 -26.1
v -5 5.5 -26.1
v -5 5.7 -26.1
v -5 5.8 -26.1
v -5 6 -26.1
v -4.9 5.4 -26.1
v -4.9 5.5 -26.1
v -4.9 5.7 -26.1
v -4.9 5.8 -26.1
v -4.9 6 -26.1
v -4.8 5.4 -26.1
v -4.8 5.5 -26.1
v -4.8 5.7 -26.1
v -4.8 5.8 -26.1
v -4.8 6 -26.1
v -4.7 5.4 -26.1
v -4.7 5.5 -26.1
v -4.7 5.6 -26.1
v -4.7 5.7 -26.1
v -4.7 5.8 -26.1
v -4.7 5.9 -26.1
v -4.7 6 -26.1
v -4.6 5.4 -26.1
v -4.5 5.4 -26.1
v -4.4 5.4 -26.1
v -4.3 5.4 -26.1
v -4.2 5.4 -26.1
v -4.2 5.5 -26.1
v -4.2 5.6 -26.1
v -4.2 5.7 -26.1
v -4.2 5.8 -26.1
v -4.2 5.9 -26.1
v -4.2 6 -26.1
v -4.2 6.1 -26.1
v -4.1 5.4 -26.1
v -4.1 5.5 -26.1
v -4.1 5.6 -26.1
v -4.1 5.7 -26.1
v -4.1 5.8 -26.1
v -4.1 5.9 -26.1
v -4.1 6 -26.1
v -4.1 6.1 -26.1
v -4 5.4 -26.1
v -4 6.1 -26.1
v -5.3 7.5 -24.6
v -5.3 7.6 -24.6
v -5.2 7.4 -24.6
v -5.2 7.5 -24.6
v -5.2 7.6 -24.6
v -5.2 7.7 -24.6
v -5.1 7 -24.6
v -5.1 7.1 -24.6
v -5.1 7.2 -24.6
v -5 7.1 -24.6
v -5 7.2 -24.6
v -5 7.4 -24.6
v -5 7.5 -24.6
v -5 7.6 -24.6
v -5 7.7 -24.6
v -4.9 7.5 -24.6
v -4.9 7.6 -24.6
v -4.9 7.9 -24.6
v -4.9 8 -24.6
v -4.8 7 -24.6
v -4.8 7.2 -24.6
v -4.8 7.8 -24.6
v -4.8 7.9 -24.6
v -4.8 8 -24.6
v -4.8 8.1 -24.6
v -4.6 7.8 -24.6
v -4.6 7.9 -24.6
v -4.6 8 -24.6
v -4.6 8.1 -24.6
v -4.5 7.9 -24.6
v -4.5 8 -24.6
v -5.2 7.5 -24.7
v -5.2 7.6 -24.7
v -5 6.3 -24.7
v -5 6.4 -24.7
v -5 6.9 -24.7
v -5 7 -24.7
v -5 7.5 -24.7
v -5 7.6 -24.7
v -4.9 6.3 -24.7
v -4.9 6.4 -24.7
v -4.9 6.9 -24.7
v -4.9 7 -24.7
v -4.8 7.9 -24.7
v -4.8 8 -24.7
v -4.6 7.9 -24.7
v -4.6 8 -24.7
v -5.9 5.4 -24.8
v -5.9 6.1 -24.8
v -5.8 5.4 -24.8
v -5.8 5.5 -24.8
v -5.8 5.6 -24.8
v -5.8 5.7 -24.8
v -5.8 5.8 -24.8
v -5.8 5.9 -24.8
v -5.8 6 -24.8
v -5.8 6.1 -24.8
v -5.7 5.4 -24.8
v -5.7 5.5 -24.8
v -5.7 5.6 -24.8
v -5.7 5.7 -24.8
v -5.7 5.8 -24.8
v -5.7 5.9 -24.8
v -5.7 6 -24.8
v -5.7 6.1 -24.8
v -5.6 5.4 -24.8
v -5.5 5.4 -24.8
v -5.4 5.4 -24.8
v -5.3 5.4 -24.8
v -5.2 5.4 -24.8
v -5.2 5.5 -24.8
v -5.2 5.6 -24.8
v -5.2 5.7 -24.8
v -5.2 5.8 -24.8
v -5.2 5.9 -24.8
v -5.2 6 -24.8
v -5.1 5.4 -24.8
v -5.1 5.5 -24.8
v -5.1 5.7 -24.8
v -5.1 5.8 -24.8
v -5.1 6 -24.8
v -5 5.4 -24.8
v -5 5.5 -24.8
v -5 5.7 -24.8
v -5 5.8 -24.8
v -5 6 -24.8
v -4.9 5.4 -24.8
v -4.9 5.5 -24.8
v -4.9 5.7 -24.8
v -4.9 5.8 -24.8
v -4.9 6 -24.8
v -4.8 5.4 -24.8
v -4.8 5.5 -24.8
v -4.8 5.7 -24.8
v -4.8 5.8 -24.8
v -4.8 6 -24.8
v -4.7 5.4 -24.8
v -4.7 5.5 -24.8
v -4.7 5.6 -24.8
v -4.7 5.7 -24.8
v -4.7 5.8 -24.8
v -4.7 5.9 -24.8
v -4.7 6 -24.8
v -4.6 5.4 -24.8
v -4.5 5.4 -24.8
v -4.4 5.4 -24.8
v -4.3 5.4 -24.8
v -4.2 5.4 -24.8
v -4.2 5.5 -24.8
v -4.2 5.6 -24.8
v -4.2 5.7 -24.8
v -4.2 5.8 -24.8
v -4.2 5.9 -24.8
v -4.2 6 -24.8
v -4.2 6.1 -24.8
v -4.1 5.4 -24.8
v -4.1 5.5 -24.8
v -4.1 5.6 -24.8
v -4.1 5.7 -24.8
v -4.1 5.8 -24.8
v -4.1 5.9 -24.8
v -4.1 6 -24.8
v -4.1 6.1 -24.8
v -4 5.4 -24.8
v -4 6.1 -24.8
v -5.2 6.9 -24.9
v -5.2 7.2 -24.9
v -5.1 6.6 -24.9
v -5.1 6.9 -24.9
v -5.1 7.1 -24.9
v -5.1 7.2 -24.9
v -5 6.9 -24.9
v -4.9 6.7 -24.9
v -4.9 6.9 -24.9
v -4.8 6.6 -24.9
v -4.8 6.7 -24.9
v -4.8 6.9 -24.9
v -4.8 7 -24.9
v -4.8 7.1 -24.9
v -4.8 7.2 -24.9
v -4.7 6.9 -24.9
v -4.7 7 -24.9
v -4.7 7.1 -24.9
v -4.7 7.2 -24.9
v -5.3 7.8 -25
v -5.3 7.9 -25
v -5.2 7.7 -25
v -5.2 7.8 -25
v -5.2 7.9 -25
v -5.2 8 -25
v -5.1 6.9 -25
v -5.1 7.1 -25
v -5.1 7.2 -25
v -5 6.9 -25
v -5 7.1 -25
v -5 7.7 -25
v -5 7.8 -25
v -5 7.9 -25
v -5 8 -25
v -4.9 7 -25
v -4.9 7.2 -25
v -4.9 7.8 -25
v -4.9 7.9 -25
v -4.8 6.9 -25
v -4.8 7 -25
v -4.8 7.2 -25
v -5.2 7.8 -25.1
v -5.2 7.9 -25.1
v -5 7.8 -25.1
v -5 7.9 -25.1
v -5.9 5.4 -25.2
v -5.9 5.7 -25.2
v -5.8 5.4 -25.2
v -5.8 5.7 -25.2
v -5.9 5.7 -25.3
v -5.9 5.8 -25.3
v -5.8 5.7 -25.3
v -5.8 5.8 -25.3
v -4.3 6.3 -25.3
v -4.3 6.6 -25.3
v -4.1 6.3 -25.3
v -4.1 6.4 -25.3
v -4.1 6.6 -25.3
v -4 6.3 -25.3
v -4 6.4 -25.3
v -5.9 5.8 -25.6
v -5.9 5.9 -25.6
v -5.8 5.8 -25.6
v -5.8 5.9 -25.6
v -4.4 6.6 -25.6
v -4.4 6.7 -25.6
v -4.3 6.6 -25.6
v -4.1 6.6 -25.6
v -4.1 6.7 -25.6
v -5.9 5.7 -25.7
v -5.9 5.8 -25.7
v -5.8 5.7 -25.7
v -5.8 5.8 -25.7
v -5.3 6.8 -25.7
v -5.3 6.9 -25.7
v -5.2 6.8 -25.7
v -5.2 6.9 -25.7
v -4.7 6.8 -25.7
v -4.7 6.9 -25.7
v -4.6 6.8 -25.7
v -4.6 6.9 -25.7
v -4.3 6.5 -25.7
v -4.3 6.6 -25.7
v -4.2 6.4 -25.7
v -4.2 6.5 -25.7
v -4.1 6.3 -25.7
v -4.1 6.4 -25.7
v -4.1 6.6 -25.7
v -4 6.3 -25.7
v -4 6.4 -25.7
v -5.9 5.4 -25.8
v -5.9 5.7 -25.8
v -5.8 5.4 -25.8
v -5.8 5.5 -25.8
v -5.8 5.6 -25.8
v -5.8 5.7 -25.8
v -5.4 6.7 -25.8
v -5.4 6.8 -25.8
v -5.3 6.7 -25.8
v -5.3 6.8 -25.8
v -4.6 6.7 -25.8
v -4.6 6.8 -25.8
v -4.5 6.7 -25.8
v -4.5 6.8 -25.8
v -6.3 5.2 -25.9
v -6.3 5.3 -25.9
v -6.2 5.3 -25.9
v -6.2 5.4 -25.9
v -6.1 5.2 -25.9
v -6.1 5.4 -25.9
v -5.5 6.6 -25.9
v -5.5 6.7 -25.9
v -5.4 6.6 -25.9
v -5.4 6.7 -25.9
v -5.1 6.6 -25.9
v -5.1 6.7 -25.9
v -4.8 6.6 -25.9
v -4.8 6.7 -25.9
v -4.5 6.6 -25.9
v -4.5 6.7 -25.9
v -4.4 6.6 -25.9
v -4.4 6.7 -25.9
v -5.6 6.5 -26
v -5.6 6.6 -26
v -5.5 6.5 -26
v -5.5 6.6 -26
v -5.2 6.5 -26
v -5.2 6.6 -26
v -5.1 6.3 -26
v -5.1 6.4 -26
v -5.1 6.6 -26
v -5 6.3 -26
v -5 6.5 -26
v -4.9 6.3 -26
v -4.9 6.5 -26
v -4.8 6.3 -26
v -4.8 6.4 -26
v -4.8 6.6 -26
v -4.7 6.5 -26
v -4.7 6.6 -26
v -4.4 6.5 -26
v -4.4 6.6 -26
v -4.3 6.5 -26
v -4.3 6.6 -26
v -5.7 6.4 -26.1
v -5.7 6.5 -26.1
v -5.6 6.4 -26.1
v -5.6 6.5 -26.1
v -5.2 6.4 -26.1
v -5.2 6.5 -26.1
v -4.7 6.4 -26.1
v -4.7 6.5 -26.1
v -4.3 6.4 -26.1
v -4.3 6.5 -26.1
v -4.2 6.4 -26.1
v -4.2 6.5 -26.1
v -5.8 6.3 -26.2
v -5.8 6.4 -26.2
v -5.7 5.4 -26.2
v -5.7 5.5 -26.2
v -5.7 5.6 -26.2
v -5.7 5.7 -26.2
v -5.7 5.8 -26.2
v -5.7 5.9 -26.2
v -5.7 6 -26.2
v -5.7 6.1 -26.2
v -5.7 6.3 -26.2
v -5.7 6.4 -26.2
v -5.6 5.4 -26.2
v -5.5 5.4 -26.2
v -5.4 5.4 -26.2
v -5.3 5.4 -26.2
v -5.2 5.4 -26.2
v -5.2 5.5 -26.2
v -5.2 5.6 -26.2
v -5.2 5.7 -26.2
v -5.2 5.8 -26.2
v -5.2 5.9 -26.2
v -5.2 6 -26.2
v -5.2 6.3 -26.2
v -5.2 6.4 -26.2
v -5.2 6.6 -26.2
v -5.1 5.4 -26.2
v -5.1 5.5 -26.2
v -5.1 5.7 -26.2
v -5.1 5.8 -26.2
v -5.1 6 -26.2
v -5.1 6.4 -26.2
v -5.1 6.6 -26.2
v -5.1 6.7 -26.2
v -5 5.4 -26.2
v -5 5.5 -26.2
v -5 5.7 -26.2
v -5 5.8 -26.2
v -5 6 -26.2
v -4.9 5.4 -26.2
v -4.9 5.5 -26.2
v -4.9 5.7 -26.2
v -4.9 5.8 -26.2
v -4.9 6 -26.2
v -4.8 5.4 -26.2
v -4.8 5.5 -26.2
v -4.8 5.7 -26.2
v -4.8 5.8 -26.2
v -4.8 6 -26.2
v -4.8 6.4 -26.2
v -4.8 6.6 -26.2
v -4.8 6.7 -26.2
v -4.7 5.4 -26.2
v -4.7 5.5 -26.2
v -4.7 5.6 -26.2
v -4.7 5.7 -26.2
v -4.7 5.8 -26.2
v -4.7 5.9 -26.2
v -4.7 6 -26.2
v -4.7 6.3 -26.2
v -4.7 6.4 -26.2
v -4.7 6.6 -26.2
v -4.6 5.4 -26.2
v -4.5 5.4 -26.2
v -4.4 5.4 -26.2
v -4.3 5.4 -26.2
v -4.2 5.4 -26.2
v -4.2 5.5 -26.2
v -4.2 5.6 -26.2
v -4.2 5.7 -26.2
v -4.2 5.8 -26.2
v -4.2 5.9 -26.2
v -4.2 6 -26.2
v -4.2 6.1 -26.2
v -4.2 6.3 -26.2
v -4.2 6.4 -26.2
v -4.1 6.3 -26.2
v -4.1 6.4 -26.2
v -5.9 5.4 -26.3
v -5.9 6.1 -26.3
v -5.9 6.2 -26.3
v -5.9 6.3 -26.3
v -5.8 5.4 -26.3
v -5.8 6.2 -26.3
v -5.8 6.3 -26.3
v -5.7 5.4 -26.3
v -5.7 6.1 -26.3
v -5.2 6.3 -26.3
v -5.2 6.4 -26.3
v -5.1 6.3 -26.3
v -5.1 6.4 -26.3
v -4.8 6.3 -26.3
v -4.8 6.4 -26.3
v -4.7 6.3 -26.3
v -4.7 6.4 -26.3
v -4.2 5.4 -26.3
v -4.2 6.1 -26.3
v -4.1 5.4 -26.3
v -4.1 6.2 -26.3
v -4.1 6.3 -26.3
v -4 5.4 -26.3
v -4 6.1 -26.3
v -4 6.2 -26.3
v -4 6.3 -26.3
v -6.1 5.2 -26.4
v -6.1 5.4 -26.4
v -6 5.2 -26.4
v -6 5.4 -26.4
v -6 6.1 -26.4
v -6 6.2 -26.4
v -5.9 6.1 -26.4
v -5.9 6.2 -26.4
v -4 6.1 -26.4
v -4 6.2 -26.4
v -3.9 5.2 -26.4
v -3.9 5.4 -26.4
v -3.9 6.1 -26.4
v -3.9 6.2 -26.4
v -3.8 5.2 -26.4
v -3.8 5.4 -26.4
v -6 5.2 -26.5
v -6 5.4 -26.5
v -3.9 5.2 -26.5
v -3.9 5.4 -26.5
v -6 5.2 -24.4
v -3.9 5.2 -24.4
v -6.1 5.2 -24.5
v -6 5.2 -24.5
v -3.9 5.2 -24.5
v -3.8 5.2 -24.5
v -6.3 5.2 -25
v -6.1 5.2 -25
v -6.3 5.2 -25.1
v -6.1 5.2 -25.1
v -6.3 5.2 -25.8
v -6.1 5.2 -25.8
v -6.3 5.2 -25.9
v -6.1 5.2 -25.9
v -6.1 5.2 -26.4
v -6 5.2 -26.4
v -3.9 5.2 -26.4
v -3.8 5.2 -26.4
v -6 5.2 -26.5
v -3.9 5.2 -26.5
v -5.9 5.7 -25.2
v -5.8 5.7 -25.2
v -5.9 5.7 -25.3
v -5.8 5.7 -25.3
v -5.9 5.7 -25.6
v -5.8 5.7 -25.6
v -5.9 5.7 -25.7
v -5.8 5.7 -25.7
v -5.9 5.8 -25.3
v -5.8 5.8 -25.3
v -5.9 5.8 -25.6
v -5.8 5.8 -25.6
v -6 6.1 -24.5
v -5.9 6.1 -24.5
v -4 6.1 -24.5
v -3.9 6.1 -24.5
v -6 6.1 -24.6
v -5.9 6.1 -24.6
v -5.7 6.1 -24.6
v -4.2 6.1 -24.6
v -4 6.1 -24.6
v -3.9 6.1 -24.6
v -5.7 6.1 -24.7
v -4.2 6.1 -24.7
v -5.9 6.1 -24.8
v -5.8 6.1 -24.8
v -5.7 6.1 -24.8
v -4.2 6.1 -24.8
v -4.1 6.1 -24.8
v -4 6.1 -24.8
v -5.9 6.1 -26.1
v -5.8 6.1 -26.1
v -5.7 6.1 -26.1
v -4.2 6.1 -26.1
v -4.1 6.1 -26.1
v -4 6.1 -26.1
v -5.7 6.1 -26.2
v -4.2 6.1 -26.2
v -6 6.1 -26.3
v -5.9 6.1 -26.3
v -5.7 6.1 -26.3
v -4.2 6.1 -26.3
v -4 6.1 -26.3
v -3.9 6.1 -26.3
v -6 6.1 -26.4
v -5.9 6.1 -26.4
v -4 6.1 -26.4
v -3.9 6.1 -26.4
v -5 6.4 -24.7
v -4.9 6.4 -24.7
v -5 6.4 -24.8
v -4.9 6.4 -24.8
v -4.3 6.6 -25.3
v -4.1 6.6 -25.3
v -4.3 6.6 -25.6
v -4.1 6.6 -25.6
v -5.1 6.6 -26
v -4.8 6.6 -26
v -5.1 6.6 -26.2
v -4.8 6.6 -26.2
v -5.1 6.9 -24.5
v -5 6.9 -24.5
v -4.9 6.9 -24.5
v -4.8 6.9 -24.5
v -5.2 6.9 -24.6
v -5.1 6.9 -24.6
v -5 6.9 -24.6
v -4.9 6.9 -24.6
v -4.8 6.9 -24.6
v -4.7 6.9 -24.6
v -5.1 6.9 -24.7
v -4.8 6.9 -24.8
v -5.2 6.9 -24.9
v -5.1 6.9 -24.9
v -5 6.9 -24.9
v -4.9 6.9 -24.9
v -4.8 6.9 -24.9
v -4.7 6.9 -24.9
v -5.1 6.9 -25
v -5 6.9 -25
v -4.8 6.9 -25
v -5.2 7.4 -24.5
v -5 7.4 -24.5
v -5.2 7.4 -24.6
v -5 7.4 -24.6
v -5.2 7.5 -24.4
v -5 7.5 -24.4
v -5.3 7.5 -24.5
v -5.2 7.5 -24.5
v -5 7.5 -24.5
v -4.9 7.5 -24.5
v -5.3 7.5 -24.6
v -5.2 7.5 -24.6
v -5 7.5 -24.6
v -4.9 7.5 -24.6
v -5.2 7.5 -24.7
v -5 7.5 -24.7
v -5.2 7.7 -24.9
v -5 7.7 -24.9
v -5.2 7.7 -25
v -5 7.7 -25
v -4.8 7.8 -24.5
v -4.6 7.8 -24.5
v -4.8 7.8 -24.6
v -4.6 7.8 -24.6
v -5.2 7.8 -24.8
v -5 7.8 -24.8
v -5.3 7.8 -24.9
v -5.2 7.8 -24.9
v -5 7.8 -24.9
v -4.9 7.8 -24.9
v -5.3 7.8 -25
v -5.2 7.8 -25
v -5 7.8 -25
v -4.9 7.8 -25
v -5.2 7.8 -25.1
v -5 7.8 -25.1
v -4.8 7.9 -24.4
v -4.6 7.9 -24.4
v -4.9 7.9 -24.5
v -4.8 7.9 -24.5
v -4.6 7.9 -24.5
v -4.5 7.9 -24.5
v -4.9 7.9 -24.6
v -4.8 7.9 -24.6
v -4.6 7.9 -24.6
v -4.5 7.9 -24.6
v -4.8 7.9 -24.7
v -4.6 7.9 -24.7
v -6.3 5.3 -25
v -6.2 5.3 -25
v -6.3 5.3 -25.1
v -6.2 5.3 -25.1
v -6.3 5.3 -25.8
v -6.2 5.3 -25.8
v -6.3 5.3 -25.9
v -6.2 5.3 -25.9
v -6 5.4 -24.4
v -3.9 5.4 -24.4
v -6.1 5.4 -24.5
v -6 5.4 -24.5
v -5.9 5.4 -24.5
v -5.8 5.4 -24.5
v -5.7 5.4 -24.5
v -5.6 5.4 -24.5
v -5.5 5.4 -24.5
v -5.4 5.4 -24.5
v -5.3 5.4 -24.5
v -5.2 5.4 -24.5
v -5.1 5.4 -24.5
v -5 5.4 -24.5
v -4.9 5.4 -24.5
v -4.8 5.4 -24.5
v -4.7 5.4 -24.5
v -4.6 5.4 -24.5
v -4.5 5.4 -24.5
v -4.4 5.4 -24.5
v -4.3 5.4 -24.5
v -4.2 5.4 -24.5
v -4.1 5.4 -24.5
v -4 5.4 -24.5
v -3.9 5.4 -24.5
v -3.8 5.4 -24.5
v -5.9 5.4 -24.6
v -5.8 5.4 -24.6
v -5.7 5.4 -24.6
v -4.2 5.4 -24.6
v -4.1 5.4 -24.6
v -4 5.4 -24.6
v -5.7 5.4 -24.7
v -5.6 5.4 -24.7
v -5.5 5.4 -24.7
v -5.4 5.4 -24.7
v -5.3 5.4 -24.7
v -5.2 5.4 -24.7
v -5.1 5.4 -24.7
v -5 5.4 -24.7
v -4.9 5.4 -24.7
v -4.8 5.4 -24.7
v -4.7 5.4 -24.7
v -4.6 5.4 -24.7
v -4.5 5.4 -24.7
v -4.4 5.4 -24.7
v -4.3 5.4 -24.7
v -4.2 5.4 -24.7
v -5.9 5.4 -24.8
v -5.8 5.4 -24.8
v -5.7 5.4 -24.8
v -5.6 5.4 -24.8
v -5.5 5.4 -24.8
v -5.4 5.4 -24.8
v -5.3 5.4 -24.8
v -5.2 5.4 -24.8
v -5.1 5.4 -24.8
v -5 5.4 -24.8
v -4.9 5.4 -24.8
v -4.8 5.4 -24.8
v -4.7 5.4 -24.8
v -4.6 5.4 -24.8
v -4.5 5.4 -24.8
v -4.4 5.4 -24.8
v -4.3 5.4 -24.8
v -4.2 5.4 -24.8
v -4.1 5.4 -24.8
v -4 5.4 -24.8
v -6.2 5.4 -25
v -6.1 5.4 -25
v -6.2 5.4 -25.1
v -6.1 5.4 -25.1
v -5.9 5.4 -25.1
v -5.8 5.4 -25.1
v -5.9 5.4 -25.2
v -5.8 5.4 -25.2
v -5.7 5.4 -25.2
v -5.8 5.4 -25.3
v -5.7 5.4 -25.3
v -5.8 5.4 -25.4
v -5.7 5.4 -25.4
v -5.8 5.4 -25.5
v -5.7 5.4 -25.5
v -5.8 5.4 -25.6
v -5.7 5.4 -25.6
v -5.9 5.4 -25.7
v -5.8 5.4 -25.7
v -5.7 5.4 -25.7
v -6.2 5.4 -25.8
v -6.1 5.4 -25.8
v -5.9 5.4 -25.8
v -5.8 5.4 -25.8
v -6.2 5.4 -25.9
v -6.1 5.4 -25.9
v -5.9 5.4 -26.1
v -5.8 5.4 -26.1
v -5.7 5.4 -26.1
v -5.6 5.4 -26.1
v -5.5 5.4 -26.1
v -5.4 5.4 -26.1
v -5.3 5.4 -26.1
v -5.2 5.4 -26.1
v -5.1 5.4 -26.1
v -5 5.4 -26.1
v -4.9 5.4 -26.1
v -4.8 5.4 -26.1
v -4.7 5.4 -26.1
v -4.6 5.4 -26.1
v -4.5 5.4 -26.1
v -4.4 5.4 -26.1
v -4.3 5.4 -26.1
v -4.2 5.4 -26.1
v -4.1 5.4 -26.1
v -4 5.4 -26.1
v -5.7 5.4 -26.2
v -5.6 5.4 -26.2
v -5.5 5.4 -26.2
v -5.4 5.4 -26.2
v -5.3 5.4 -26.2
v -5.2 5.4 -26.2
v -5.1 5.4 -26.2
v -5 5.4 -26.2
v -4.9 5.4 -26.2
v -4.8 5.4 -26.2
v -4.7 5.4 -26.2
v -4.6 5.4 -26.2
v -4.5 5.4 -26.2
v -4.4 5.4 -26.2
v -4.3 5.4 -26.2
v -4.2 5.4 -26.2
v -5.9 5.4 -26.3
v -5.8 5.4 -26.3
v -5.7 5.4 -26.3
v -4.2 5.4 -26.3
v -4.1 5.4 -26.3
v -4 5.4 -26.3
v -6.1 5.4 -26.4
v -6 5.4 -26.4
v -5.9 5.4 -26.4
v -5.8 5.4 -26.4
v -5.7 5.4 -26.4
v -5.6 5.4 -26.4
v -5.5 5.4 -26.4
v -5.4 5.4 -26.4
v -5.3 5.4 -26.4
v -5.2 5.4 -26.4
v -5.1 5.4 -26.4
v -5 5.4 -26.4
v -4.9 5.4 -26.4
v -4.8 5.4 -26.4
v -4.7 5.4 -26.4
v -4.6 5.4 -26.4
v -4.5 5.4 -26.4
v -4.4 5.4 -26.4
v -4.3 5.4 -26.4
v -4.2 5.4 -26.4
v -4.1 5.4 -26.4
v -4 5.4 -26.4
v -3.9 5.4 -26.4
v -3.8 5.4 -26.4
v -6 5.4 -26.5
v -3.9 5.4 -26.5
v -5.9 5.7 -25.1
v -5.8 5.7 -25.1
v -5.9 5.7 -25.2
v -5.8 5.7 -25.2
v -5.9 5.7 -25.7
v -5.8 5.7 -25.7
v -5.9 5.7 -25.8
v -5.8 5.7 -25.8
v -5.9 5.8 -25.2
v -5.8 5.8 -25.2
v -5.9 5.8 -25.3
v -5.8 5.8 -25.3
v -5.9 5.8 -25.6
v -5.8 5.8 -25.6
v -5.9 5.8 -25.7
v -5.8 5.8 -25.7
v -5.9 5.9 -25.3
v -5.8 5.9 -25.3
v -5.9 5.9 -25.6
v -5.8 5.9 -25.6
v -6 6.2 -24.5
v -5.9 6.2 -24.5
v -4 6.2 -24.5
v -3.9 6.2 -24.5
v -6 6.2 -24.6
v -5.9 6.2 -24.6
v -5.8 6.2 -24.6
v -5.1 6.2 -24.6
v -4.9 6.2 -24.6
v -4.8 6.2 -24.6
v -4.1 6.2 -24.6
v -4 6.2 -24.6
v -3.9 6.2 -24.6
v -5.9 6.2 -24.7
v -4 6.2 -24.7
v -5.9 6.2 -26.2
v -4 6.2 -26.2
v -6 6.2 -26.3
v -5.9 6.2 -26.3
v -5.8 6.2 -26.3
v -4.1 6.2 -26.3
v -4 6.2 -26.3
v -3.9 6.2 -26.3
v -6 6.2 -26.4
v -5.9 6.2 -26.4
v -4 6.2 -26.4
v -3.9 6.2 -26.4
v -5.9 6.3 -24.6
v -5.8 6.3 -24.6
v -5.1 6.3 -24.6
v -4.8 6.3 -24.6
v -4.1 6.3 -24.6
v -4 6.3 -24.6
v -5.9 6.3 -24.7
v -5.8 6.3 -24.7
v -5.7 6.3 -24.7
v -5.1 6.3 -24.7
v -5 6.3 -24.7
v -4.9 6.3 -24.7
v -4.8 6.3 -24.7
v -4.2 6.3 -24.7
v -4.1 6.3 -24.7
v -4 6.3 -24.7
v -5.8 6.3 -24.8
v -5 6.3 -24.8
v -4.9 6.3 -24.8
v -4.1 6.3 -24.8
v -4.1 6.3 -25.2
v -4 6.3 -25.2
v -4.3 6.3 -25.3
v -4.1 6.3 -25.3
v -4 6.3 -25.3
v -4.3 6.3 -25.4
v -4.3 6.3 -25.5
v -4.3 6.3 -25.6
v -4.1 6.3 -25.6
v -4 6.3 -25.6
v -4.1 6.3 -25.7
v -4 6.3 -25.7
v -5.1 6.3 -26
v -5 6.3 -26
v -4.9 6.3 -26
v -4.8 6.3 -26
v -5.8 6.3 -26.1
v -4.1 6.3 -26.1
v -5.9 6.3 -26.2
v -5.8 6.3 -26.2
v -5.7 6.3 -26.2
v -5.2 6.3 -26.2
v -5.1 6.3 -26.2
v -4.8 6.3 -26.2
v -4.7 6.3 -26.2
v -4.2 6.3 -26.2
v -4.1 6.3 -26.2
v -4 6.3 -26.2
v -5.9 6.3 -26.3
v -5.8 6.3 -26.3
v -5.2 6.3 -26.3
v -5.1 6.3 -26.3
v -4.8 6.3 -26.3
v -4.7 6.3 -26.3
v -4.1 6.3 -26.3
v -4 6.3 -26.3
v -5.8 6.4 -24.7
v -5.7 6.4 -24.7
v -5.1 6.4 -24.7
v -4.8 6.4 -24.7
v -4.2 6.4 -24.7
v -4.1 6.4 -24.7
v -5.8 6.4 -24.8
v -5.7 6.4 -24.8
v -5.6 6.4 -24.8
v -5.1 6.4 -24.8
v -4.8 6.4 -24.8
v -4.3 6.4 -24.8
v -4.2 6.4 -24.8
v -4.1 6.4 -24.8
v -5.7 6.4 -24.9
v -4.2 6.4 -24.9
v -4.2 6.4 -25.2
v -4.1 6.4 -25.2
v -4 6.4 -25.2
v -4.1 6.4 -25.3
v -4 6.4 -25.3
v -4.1 6.4 -25.6
v -4 6.4 -25.6
v -4.2 6.4 -25.7
v -4.1 6.4 -25.7
v -4 6.4 -25.7
v -5.7 6.4 -26
v -4.2 6.4 -26
v -5.8 6.4 -26.1
v -5.7 6.4 -26.1
v -5.6 6.4 -26.1
v -5.2 6.4 -26.1
v -4.7 6.4 -26.1
v -4.3 6.4 -26.1
v -4.2 6.4 -26.1
v -4.1 6.4 -26.1
v -5.8 6.4 -26.2
v -5.7 6.4 -26.2
v -5.2 6.4 -26.2
v -5.1 6.4 -26.2
v -4.8 6.4 -26.2
v -4.7 6.4 -26.2
v -4.2 6.4 -26.2
v -4.1 6.4 -26.2
v -5.2 6.4 -26.3
v -5.1 6.4 -26.3
v -4.8 6.4 -26.3
v -4.7 6.4 -26.3
v -5.7 6.5 -24.8
v -5.6 6.5 -24.8
v -5.1 6.5 -24.8
v -4.8 6.5 -24.8
v -4.3 6.5 -24.8
v -4.2 6.5 -24.8
v -5.7 6.5 -24.9
v -5.6 6.5 -24.9
v -5.5 6.5 -24.9
v -5.1 6.5 -24.9
v -4.8 6.5 -24.9
v -4.4 6.5 -24.9
v -4.3 6.5 -24.9
v -4.2 6.5 -24.9
v -5.6 6.5 -25
v -4.3 6.5 -25
v -4.3 6.5 -25.2
v -4.2 6.5 -25.2
v -4.3 6.5 -25.7
v -4.2 6.5 -25.7
v -5.6 6.5 -25.9
v -4.3 6.5 -25.9
v -5.7 6.5 -26
v -5.6 6.5 -26
v -5.5 6.5 -26
v -5.2 6.5 -26
v -4.7 6.5 -26
v -4.4 6.5 -26
v -4.3 6.5 -26
v -4.2 6.5 -26
v -5.7 6.5 -26.1
v -5.6 6.5 -26.1
v -5.2 6.5 -26.1
v -4.7 6.5 -26.1
v -4.3 6.5 -26.1
v -4.2 6.5 -26.1
v -5.6 6.6 -24.9
v -5.5 6.6 -24.9
v -5.1 6.6 -24.9
v -4.8 6.6 -24.9
v -4.4 6.6 -24.9
v -4.3 6.6 -24.9
v -5.6 6.6 -25
v -5.5 6.6 -25
v -5.4 6.6 -25
v -4.5 6.6 -25
v -4.4 6.6 -25
v -4.3 6.6 -25
v -5.5 6.6 -25.1
v -4.4 6.6 -25.1
v -4.3 6.6 -25.2
v -4.1 6.6 -25.2
v -4.4 6.6 -25.3
v -4.3 6.6 -25.3
v -4.1 6.6 -25.3
v -4.4 6.6 -25.6
v -4.3 6.6 -25.6
v -4.1 6.6 -25.6
v -4.3 6.6 -25.7
v -4.1 6.6 -25.7
v -5.5 6.6 -25.8
v -4.4 6.6 -25.8
v -5.6 6.6 -25.9
v -5.5 6.6 -25.9
v -5.4 6.6 -25.9
v -5.1 6.6 -25.9
v -4.8 6.6 -25.9
v -4.5 6.6 -25.9
v -4.4 6.6 -25.9
v -4.3 6.6 -25.9
v -5.6 6.6 -26
v -5.5 6.6 -26
v -5.2 6.6 -26
v -5.1 6.6 -26
v -4.8 6.6 -26
v -4.7 6.6 -26
v -4.4 6.6 -26
v -4.3 6.6 -26
v -5.2 6.6 -26.2
v -5.1 6.6 -26.2
v -4.8 6.6 -26.2
v -4.7 6.6 -26.2
v -5.5 6.7 -25
v -5.4 6.7 -25
v -4.5 6.7 -25
v -4.4 6.7 -25
v -5.5 6.7 -25.1
v -5.4 6.7 -25.1
v -5.3 6.7 -25.1
v -4.6 6.7 -25.1
v -4.5 6.7 -25.1
v -4.4 6.7 -25.1
v -5.4 6.7 -25.2
v -4.5 6.7 -25.2
v -4.4 6.7 -25.3
v -4.1 6.7 -25.3
v -4.4 6.7 -25.6
v -4.1 6.7 -25.6
v -5.4 6.7 -25.7
v -4.5 6.7 -25.7
v -5.5 6.7 -25.8
v -5.4 6.7 -25.8
v -5.3 6.7 -25.8
v -4.6 6.7 -25.8
v -4.5 6.7 -25.8
v -4.4 6.7 -25.8
v -5.5 6.7 -25.9
v -5.4 6.7 -25.9
v -5.1 6.7 -25.9
v -4.8 6.7 -25.9
v -4.5 6.7 -25.9
v -4.4 6.7 -25.9
v -5.1 6.7 -26.2
v -4.8 6.7 -26.2
v -5.4 6.8 -25.1
v -5.3 6.8 -25.1
v -4.6 6.8 -25.1
v -4.5 6.8 -25.1
v -5.4 6.8 -25.2
v -5.3 6.8 -25.2
v -5.2 6.8 -25.2
v -4.7 6.8 -25.2
v -4.6 6.8 -25.2
v -4.5 6.8 -25.2
v -5.3 6.8 -25.3
v -4.6 6.8 -25.3
v -5.3 6.8 -25.6
v -4.6 6.8 -25.6
v -5.4 6.8 -25.7
v -5.3 6.8 -25.7
v -5.2 6.8 -25.7
v -4.7 6.8 -25.7
v -4.6 6.8 -25.7
v -4.5 6.8 -25.7
v -5.4 6.8 -25.8
v -5.3 6.8 -25.8
v -4.6 6.8 -25.8
v -4.5 6.8 -25.8
v -5 6.9 -24.7
v -4.9 6.9 -24.7
v -5 6.9 -24.8
v -4.9 6.9 -24.8
v -5.3 6.9 -25.2
v -5.2 6.9 -25.2
v -4.7 6.9 -25.2
v -4.6 6.9 -25.2
v -5.3 6.9 -25.3
v -5.2 6.9 -25.3
v -5.1 6.9 -25.3
v -4.8 6.9 -25.3
v -4.7 6.9 -25.3
v -4.6 6.9 -25.3
v -5.2 6.9 -25.4
v -5.1 6.9 -25.4
v -4.8 6.9 -25.4
v -4.7 6.9 -25.4
v -5.2 6.9 -25.5
v -5.1 6.9 -25.5
v -4.8 6.9 -25.5
v -4.7 6.9 -25.5
v -5.3 6.9 -25.6
v -5.2 6.9 -25.6
v -5.1 6.9 -25.6
v -4.8 6.9 -25.6
v -4.7 6.9 -25.6
v -4.6 6.9 -25.6
v -5.3 6.9 -25.7
v -5.2 6.9 -25.7
v -4.7 6.9 -25.7
v -4.6 6.9 -25.7
v -5.1 7 -24.6
v -4.8 7 -24.6
v -5 7 -24.7
v -4.9 7 -24.7
v -5 7 -24.8
v -4.9 7 -24.8
v -4.8 7 -24.8
v -5.1 7 -24.9
v -5 7 -24.9
v -4.9 7 -24.9
v -4.8 7 -24.9
v -5.1 7.2 -24.5
v -5 7.2 -24.5
v -4.8 7.2 -24.5
v -5.2 7.2 -24.6
v -5.1 7.2 -24.6
v -5 7.2 -24.6
v -4.8 7.2 -24.6
v -4.7 7.2 -24.6
v -5.2 7.2 -24.9
v -5.1 7.2 -24.9
v -4.9 7.2 -24.9
v -4.8 7.2 -24.9
v -4.7 7.2 -24.9
v -5.1 7.2 -25
v -4.9 7.2 -25
v -4.8 7.2 -25
v -5.2 7.6 -24.4
v -5 7.6 -24.4
v -5.3 7.6 -24.5
v -5.2 7.6 -24.5
v -5 7.6 -24.5
v -4.9 7.6 -24.5
v -5.3 7.6 -24.6
v -5.2 7.6 -24.6
v -5 7.6 -24.6
v -4.9 7.6 -24.6
v -5.2 7.6 -24.7
v -5 7.6 -24.7
v -5.2 7.7 -24.5
v -5 7.7 -24.5
v -5.2 7.7 -24.6
v -5 7.7 -24.6
v -5.2 7.9 -24.8
v -5 7.9 -24.8
v -5.3 7.9 -24.9
v -5.2 7.9 -24.9
v -5 7.9 -24.9
v -4.9 7.9 -24.9
v -5.3 7.9 -25
v -5.2 7.9 -25
v -5 7.9 -25
v -4.9 7.9 -25
v -5.2 7.9 -25.1
v -5 7.9 -25.1
v -4.8 8 -24.4
v -4.6 8 -24.4
v -4.9 8 -24.5
v -4.8 8 -24.5
v -4.6 8 -24.5
v -4.5 8 -24.5
v -4.9 8 -24.6
v -4.8 8 -24.6
v -4.6 8 -24.6
v -4.5 8 -24.6
v -4.8 8 -24.7
v -4.6 8 -24.7
v -5.2 8 -24.9
v -5 8 -24.9
v -5.2 8 -25
v -5 8 -25
v -4.8 8.1 -24.5
v -4.6 8.1 -24.5
v -4.8 8.1 -24.6
v -4.6 8.1 -24.6

# faces
f 5/6/1 2/6/1 1/6/1
f 6/5/1 3/5/1 2/5/1
f 6/6/1 2/6/1 5/6/1
f 7/6/1 4/6/1 3/6/1
f 7/5/1 3/5/1 6/5/1
f 8/6/1 4/6/1 7/6/1
f 13/6/1 10/6/1 9/6/1
f 14/5/1 11/5/1 10/5/1
f 14/6/1 10/6/1 13/6/1
f 15/6/1 12/6/1 11/6/1
f 15/5/1 11/5/1 14/5/1
f 16/6/1 12/6/1 15/6/1
f 21/6/1 18/6/1 17/6/1
f 22/6/1 18/6/1 21/6/1
f 23/6/1 20/6/1 19/6/1
f 24/6/1 20/6/1 23/6/1
f 29/6/1 26/6/1 25/6/1
f 30/6/1 26/6/1 29/6/1
f 31/6/1 28/6/1 27/6/1
f 32/6/1 28/6/1 31/6/1
f 37/11/1 34/11/1 33/11/1
f 38/7/1 35/7/1 34/7/1
f 38/11/1 34/11/1 37/11/1
f 39/11/1 36/11/1 35/11/1
f 39/7/1 35/7/1 38/7/1
f 40/11/1 36/11/1 39/11/1
f 49/6/1 44/6/1 43/6/1
f 50/6/1 44/6/1 49/6/1
f 53/6/1 46/6/1 45/6/1
f 54/6/1 46/6/1 53/6/1
f 55/6/1 51/6/1 50/6/1
f 56/6/1 51/6/1 55/6/1
f 57/6/1 53/6/1 52/6/1
f 58/6/1 53/6/1 57/6/1
f 59/6/1 57/6/1 56/6/1
f 60/6/1 57/6/1 59/6/1
f 61/6/1 42/6/1 41/6/1
f 62/6/1 42/6/1 61/6/1
f 63/6/1 48/6/1 47/6/1
f 64/6/1 48/6/1 63/6/1
f 69/11/1 66/11/1 65/11/1
f 70/6/1 67/6/1 66/6/1
f 70/11/1 66/11/1 69/11/1
f 71/11/1 68/11/1 67/11/1
f 71/6/1 67/6/1 70/6/1
f 72/11/1 68/11/1 71/11/1
f 83/7/1 74/7/1 73/7/1
f 84/7/1 74/7/1 83/7/1
f 85/7/1 82/7/1 81/7/1
f 86/7/1 82/7/1 85/7/1
f 87/8/1 84/8/1 83/8/1
f 88/8/1 84/8/1 87/8/1
f 89/2/1 77/2/1 76/2/1
f 89/1/1 78/1/1 77/1/1
f 90/2/1 79/2/1 78/2/1
f 90/1/1 78/1/1 89/1/1
f 91/8/1 86/8/1 85/8/1
f 92/8/1 86/8/1 91/8/1
f 93/7/1 88/7/1 87/7/1
f 94/7/1 88/7/1 93/7/1
f 95/3/1 76/3/1 75/3/1
f 96/2/1 89/2/1 76/2/1
f 96/2/1 90/2/1 89/2/1
f 96/3/1 76/3/1 95/3/1
f 97/3/1 80/3/1 79/3/1
f 97/2/1 90/2/1 96/2/1
f 97/2/1 79/2/1 90/2/1
f 98/3/1 80/3/1 97/3/1
f 99/7/1 92/7/1 91/7/1
f 100/7/1 92/7/1 99/7/1
f 101/8/1 94/8/1 93/8/1
f 101/8/1 95/8/1 94/8/1
f 102/8/1 95/8/1 101/8/1
f 103/3/1 97/3/1 96/3/1
f 104/3/1 97/3/1 103/3/1
f 105/8/1 100/8/1 99/8/1
f 105/8/1 99/8/1 98/8/1
f 106/8/1 100/8/1 105/8/1
f 107/7/1 103/7/1 102/7/1
f 107/7/1 102/7/1 101/7/1
f 108/7/1 103/7/1 107/7/1
f 109/7/1 106/7/1 105/7/1
f 109/7/1 105/7/1 104/7/1
f 110/7/1 106/7/1 109/7/1
f 111/8/1 108/8/1 107/8/1
f 111/8/1 109/8/1 108/8/1
f 111/8/1 110/8/1 109/8/1
f 112/8/1 110/8/1 111/8/1
f 113/7/1 112/7/1 111/7/1
f 114/7/1 112/7/1 113/7/1
f 119/11/1 116/11/1 115/11/1
f 120/7/1 117/7/1 116/7/1
f 120/11/1 116/11/1 119/11/1
f 121/11/1 118/11/1 117/11/1
f 121/7/1 117/7/1 120/7/1
f 122/11/1 118/11/1 121/11/1
f 127/11/1 124/11/1 123/11/1
f 128/6/1 125/6/1 124/6/1
f 128/11/1 124/11/1 127/11/1
f 129/11/1 126/11/1 125/11/1
f 129/6/1 125/6/1 128/6/1
f 130/11/1 126/11/1 129/11/1
f 135/11/1 132/11/1 131/11/1
f 136/7/1 133/7/1 132/7/1
f 136/11/1 132/11/1 135/11/1
f 137/11/1 134/11/1 133/11/1
f 137/7/1 133/7/1 136/7/1
f 138/11/1 134/11/1 137/11/1
f 143/11/1 140/11/1 139/11/1
f 144/6/1 141/6/1 140/6/1
f 144/11/1 140/11/1 143/11/1
f 145/11/1 142/11/1 141/11/1
f 145/6/1 141/6/1 144/6/1
f 146/11/1 142/11/1 145/11/1
f 151/11/1 148/11/1 147/11/1
f 152/7/1 149/7/1 148/7/1
f 152/11/1 148/11/1 151/11/1
f 153/11/1 150/11/1 149/11/1
f 153/7/1 149/7/1 152/7/1
f 154/11/1 150/11/1 153/11/1
f 159/11/1 156/11/1 155/11/1
f 160/6/1 157/6/1 156/6/1
f 160/11/1 156/11/1 159/11/1
f 161/11/1 158/11/1 157/11/1
f 161/6/1 157/6/1 160/6/1
f 162/11/1 158/11/1 161/11/1
f 165/9/1 164/9/1 163/9/1
f 166/9/1 164/9/1 165/9/1
f 169/9/1 168/9/1 167/9/1
f 170/9/1 168/9/1 169/9/1
f 174/6/1 172/6/1 171/6/1
f 175/6/1 172/6/1 174/6/1
f 177/6/1 174/6/1 173/6/1
f 178/6/1 177/6/1 176/6/1
f 179/6/1 174/6/1 177/6/1
f 179/6/1 177/6/1 178/6/1
f 182/11/1 181/11/1 180/11/1
f 183/11/1 181/11/1 182/11/1
f 187/9/1 185/9/1 184/9/1
f 188/9/1 185/9/1 187/9/1
f 190/9/1 187/9/1 186/9/1
f 191/9/1 187/9/1 190/9/1
f 192/9/1 189/9/1 188/9/1
f 193/9/1 189/9/1 192/9/1
f 194/9/1 192/9/1 191/9/1
f 195/9/1 192/9/1 194/9/1
f 199/9/1 197/9/1 196/9/1
f 200/9/1 197/9/1 199/9/1
f 202/9/1 199/9/1 198/9/1
f 203/9/1 199/9/1 202/9/1
f 204/9/1 201/9/1 200/9/1
f 205/9/1 201/9/1 204/9/1
f 206/9/1 204/9/1 203/9/1
f 207/9/1 204/9/1 206/9/1
f 210/10/1 209/10/1 208/10/1
f 211/10/1 209/10/1 210/10/1
f 213/11/1 211/11/1 210/11/1
f 213/11/1 212/11/1 211/11/1
f 215/11/1 213/11/1 210/11/1
f 215/11/1 214/11/1 213/11/1
f 216/11/1 214/11/1 215/11/1
f 217/11/1 214/11/1 216/11/1
f 221/11/1 215/11/1 210/11/1
f 222/10/1 216/10/1 215/10/1
f 222/11/1 215/11/1 221/11/1
f 223/11/1 217/11/1 216/11/1
f 223/10/1 216/10/1 222/10/1
f 224/6/1 220/6/1 219/6/1
f 224/6/1 219/6/1 218/6/1
f 225/6/1 220/6/1 224/6/1
f 227/12/1 222/12/1 221/12/1
f 228/11/1 223/11/1 222/11/1
f 228/12/1 222/12/1 227/12/1
f 229/11/1 217/11/1 223/11/1
f 229/11/1 223/11/1 228/11/1
f 231/11/1 227/11/1 226/11/1
f 232/11/1 227/11/1 231/11/1
f 233/10/1 230/10/1 229/10/1
f 234/10/1 230/10/1 233/10/1
f 235/10/1 232/10/1 231/10/1
f 236/10/1 232/10/1 235/10/1
f 237/11/1 234/11/1 233/11/1
f 238/11/1 234/11/1 237/11/1
f 241/11/1 240/11/1 239/11/1
f 242/11/1 240/11/1 241/11/1
f 245/14/1 244/14/1 243/14/1
f 246/14/1 244/14/1 245/14/1
f 249/9/1 248/9/1 247/9/1
f 250/9/1 248/9/1 249/9/1
f 254/7/1 252/7/1 251/7/1
f 255/6/1 253/6/1 252/6/1
f 255/7/1 252/7/1 254/7/1
f 256/6/1 253/6/1 255/6/1
f 257/6/1 255/6/1 254/6/1
f 258/6/1 255/6/1 257/6/1
f 262/11/1 260/11/1 259/11/1
f 262/10/1 261/10/1 260/10/1
f 263/10/1 261/10/1 262/10/1
f 264/11/1 262/11/1 259/11/1
f 264/11/1 263/11/1 262/11/1
f 265/11/1 263/11/1 264/11/1
f 269/9/1 267/9/1 266/9/1
f 270/9/1 267/9/1 269/9/1
f 272/9/1 269/9/1 268/9/1
f 273/9/1 269/9/1 272/9/1
f 274/9/1 271/9/1 270/9/1
f 275/9/1 271/9/1 274/9/1
f 276/9/1 274/9/1 273/9/1
f 277/9/1 274/9/1 276/9/1
f 284/6/1 279/6/1 278/6/1
f 285/7/1 281/7/1 280/7/1
f 286/7/1 281/7/1 285/7/1
f 287/6/1 283/6/1 282/6/1
f 288/6/1 284/6/1 278/6/1
f 289/8/1 286/8/1 285/8/1
f 290/8/1 286/8/1 289/8/1
f 291/6/1 283/6/1 287/6/1
f 292/6/1 288/6/1 278/6/1
f 293/7/1 290/7/1 289/7/1
f 294/7/1 290/7/1 293/7/1
f 295/6/1 283/6/1 291/6/1
f 296/6/1 292/6/1 278/6/1
f 297/8/1 294/8/1 293/8/1
f 298/8/1 294/8/1 297/8/1
f 299/6/1 283/6/1 295/6/1
f 300/6/1 296/6/1 278/6/1
f 301/7/1 298/7/1 297/7/1
f 302/7/1 298/7/1 301/7/1
f 303/6/1 283/6/1 299/6/1
f 304/6/1 300/6/1 278/6/1
f 305/8/1 302/8/1 301/8/1
f 306/8/1 302/8/1 305/8/1
f 307/6/1 283/6/1 303/6/1
f 308/6/1 304/6/1 278/6/1
f 309/6/1 304/6/1 308/6/1
f 310/7/1 306/7/1 305/7/1
f 311/7/1 306/7/1 310/7/1
f 312/6/1 283/6/1 307/6/1
f 313/6/1 283/6/1 312/6/1
f 314/6/2 315/6/2 326/6/2
f 316/7/2 317/7/2 327/7/2
f 327/7/2 317/7/2 328/7/2
f 322/7/2 323/7/2 329/7/2
f 329/7/2 323/7/2 330/7/2
f 324/6/2 325/6/2 331/6/2
f 314/6/2 326/6/2 332/6/2
f 327/8/2 328/8/2 333/8/2
f 328/7/2 317/7/2 334/7/2
f 333/8/2 328/8/2 334/8/2
f 318/2/2 319/2/2 335/2/2
f 319/1/2 320/1/2 335/1/2
f 320/2/2 321/2/2 336/2/2
f 335/1/2 320/1/2 336/1/2
f 329/8/2 330/8/2 337/8/2
f 322/7/2 329/7/2 337/7/2
f 337/8/2 330/8/2 338/8/2
f 331/6/2 325/6/2 339/6/2
f 314/6/2 332/6/2 340/6/2
f 333/7/2 334/7/2 341/7/2
f 317/3/2 318/3/2 342/3/2
f 341/7/2 334/7/2 342/7/2
f 334/7/2 317/7/2 342/7/2
f 318/2/2 335/2/2 343/2/2
f 342/3/2 318/3/2 343/3/2
f 335/2/2 336/2/2 343/2/2
f 336/2/2 321/2/2 344/2/2
f 343/2/2 336/2/2 344/2/2
f 321/3/2 322/3/2 344/3/2
f 337/7/2 338/7/2 345/7/2
f 344/3/2 322/3/2 345/3/2
f 322/7/2 337/7/2 345/7/2
f 345/7/2 338/7/2 346/7/2
f 339/6/2 325/6/2 347/6/2
f 314/6/2 340/6/2 348/6/2
f 341/8/2 342/8/2 349/8/2
f 342/7/2 343/7/2 350/7/2
f 349/8/2 342/8/2 350/8/2
f 343/3/2 344/3/2 351/3/2
f 350/7/2 343/7/2 351/7/2
f 344/7/2 345/7/2 352/7/2
f 351/3/2 344/3/2 352/3/2
f 345/8/2 346/8/2 353/8/2
f 352/7/2 345/7/2 353/7/2
f 353/8/2 346/8/2 354/8/2
f 347/6/2 325/6/2 355/6/2
f 314/6/2 348/6/2 356/6/2
f 349/7/2 350/7/2 357/7/2
f 353/7/2 354/7/2 357/7/2
f 351/7/2 352/7/2 357/7/2
f 352/7/2 353/7/2 357/7/2
f 350/7/2 351/7/2 357/7/2
f 357/7/2 354/7/2 358/7/2
f 355/6/2 325/6/2 359/6/2
f 314/6/2 356/6/2 360/6/2
f 357/8/2 358/8/2 361/8/2
f 361/8/2 358/8/2 362/8/2
f 359/6/2 325/6/2 363/6/2
f 314/6/2 360/6/2 364/6/2
f 364/6/2 360/6/2 365/6/2
f 361/7/2 362/7/2 366/7/2
f 366/7/2 362/7/2 367/7/2
f 363/6/2 325/6/2 368/6/2
f 368/6/2 325/6/2 369/6/2
f 370/7/2 371/7/2 373/7/2
f 371/6/2 372/6/2 374/6/2
f 373/7/2 371/7/2 374/7/2
f 374/6/2 372/6/2 375/6/2
f 373/6/2 374/6/2 376/6/2
f 376/6/2 374/6/2 377/6/2
f 378/11/2 379/11/2 380/11/2
f 380/11/2 379/11/2 381/11/2
f 380/11/2 381/11/2 382/11/2
f 382/11/2 381/11/2 383/11/2
f 384/11/2 385/11/2 386/11/2
f 386/11/2 385/11/2 387/11/2
f 388/14/2 389/14/2 390/14/2
f 390/14/2 389/14/2 391/14/2
f 392/9/2 393/9/2 395/9/2
f 395/9/2 393/9/2 396/9/2
f 394/9/2 395/9/2 398/9/2
f 398/9/2 395/9/2 399/9/2
f 396/9/2 397/9/2 400/9/2
f 400/9/2 397/9/2 401/9/2
f 399/9/2 400/9/2 402/9/2
f 402/9/2 400/9/2 403/9/2
f 404/9/2 405/9/2 407/9/2
f 407/9/2 405/9/2 408/9/2
f 406/9/2 407/9/2 410/9/2
f 410/9/2 407/9/2 411/9/2
f 408/9/2 409/9/2 412/9/2
f 412/9/2 409/9/2 413/9/2
f 411/9/2 412/9/2 414/9/2
f 414/9/2 412/9/2 415/9/2
f 416/9/2 417/9/2 418/9/2
f 418/9/2 417/9/2 419/9/2
f 420/9/2 421/9/2 422/9/2
f 422/9/2 421/9/2 423/9/2
f 424/12/2 425/12/2 426/12/2
f 424/12/2 426/12/2 428/12/2
f 426/11/2 427/11/2 429/11/2
f 428/12/2 426/12/2 429/12/2
f 429/11/2 427/11/2 430/11/2
f 428/11/2 429/11/2 432/11/2
f 430/11/2 431/11/2 432/11/2
f 429/11/2 430/11/2 432/11/2
f 432/11/2 431/11/2 433/11/2
f 433/11/2 431/11/2 434/11/2
f 432/10/2 433/10/2 438/10/2
f 433/11/2 434/11/2 438/11/2
f 438/11/2 434/11/2 439/11/2
f 436/6/2 437/6/2 440/6/2
f 435/6/2 436/6/2 440/6/2
f 440/6/2 437/6/2 441/6/2
f 428/11/2 432/11/2 442/11/2
f 432/10/2 438/10/2 442/10/2
f 438/12/2 439/12/2 443/12/2
f 442/10/2 438/10/2 443/10/2
f 428/11/2 442/11/2 445/11/2
f 442/11/2 443/11/2 445/11/2
f 443/12/2 439/12/2 446/12/2
f 445/11/2 443/11/2 446/11/2
f 446/12/2 439/12/2 447/12/2
f 447/11/2 448/11/2 449/11/2
f 449/11/2 448/11/2 450/11/2
f 449/12/2 450/12/2 451/12/2
f 444/11/2 445/11/2 452/11/2
f 452/11/2 445/11/2 453/11/2
f 451/12/2 450/12/2 454/12/2
f 454/12/2 450/12/2 455/12/2
f 456/6/2 457/6/2 459/6/2
f 459/6/2 457/6/2 460/6/2
f 458/6/2 459/6/2 462/6/2
f 461/6/2 462/6/2 463/6/2
f 462/6/2 459/6/2 464/6/2
f 463/6/2 462/6/2 464/6/2
f 465/11/2 466/11/2 467/11/2
f 467/11/2 466/11/2 468/11/2
f 465/11/2 467/11/2 469/11/2
f 467/10/2 468/10/2 469/10/2
f 469/10/2 468/10/2 470/10/2
f 465/11/2 469/11/2 471/11/2
f 469/11/2 470/11/2 471/11/2
f 471/11/2 470/11/2 472/11/2
f 473/11/2 474/11/2 477/11/2
f 474/6/2 475/6/2 478/6/2
f 477/11/2 474/11/2 478/11/2
f 475/11/2 476/11/2 479/11/2
f 478/6/2 475/6/2 479/6/2
f 479/11/2 476/11/2 480/11/2
f 481/9/2 482/9/2 484/9/2
f 484/9/2 482/9/2 485/9/2
f 483/9/2 484/9/2 487/9/2
f 487/9/2 484/9/2 488/9/2
f 485/9/2 486/9/2 489/9/2
f 489/9/2 486/9/2 490/9/2
f 488/9/2 489/9/2 491/9/2
f 491/9/2 489/9/2 492/9/2
f 493/11/2 494/11/2 497/11/2
f 494/7/2 495/7/2 498/7/2
f 497/11/2 494/11/2 498/11/2
f 495/11/2 496/11/2 499/11/2
f 498/7/2 495/7/2 499/7/2
f 499/11/2 496/11/2 500/11/2
f 501/9/2 502/9/2 503/9/2
f 503/9/2 502/9/2 504/9/2
f 505/11/2 506/11/2 511/11/2
f 506/6/2 507/6/2 512/6/2
f 511/11/2 506/11/2 512/11/2
f 512/6/2 507/6/2 513/6/2
f 508/6/2 509/6/2 514/6/2
f 509/11/2 510/11/2 515/11/2
f 514/6/2 509/6/2 515/6/2
f 515/11/2 510/11/2 516/11/2
f 517/2/2 518/2/2 524/2/2
f 518/1/2 519/1/2 524/1/2
f 519/2/2 520/2/2 525/2/2
f 524/1/2 519/1/2 525/1/2
f 521/11/2 522/11/2 529/11/2
f 522/7/2 523/7/2 530/7/2
f 529/11/2 522/11/2 530/11/2
f 530/7/2 523/7/2 531/7/2
f 517/2/2 524/2/2 532/2/2
f 524/2/2 525/2/2 532/2/2
f 525/2/2 520/2/2 533/2/2
f 532/2/2 525/2/2 533/2/2
f 526/7/2 527/7/2 534/7/2
f 527/11/2 528/11/2 535/11/2
f 534/7/2 527/7/2 535/7/2
f 535/11/2 528/11/2 536/11/2
f 537/11/2 538/11/2 543/11/2
f 538/6/2 539/6/2 544/6/2
f 543/11/2 538/11/2 544/11/2
f 544/6/2 539/6/2 545/6/2
f 540/6/2 541/6/2 546/6/2
f 541/11/2 542/11/2 547/11/2
f 546/6/2 541/6/2 547/6/2
f 547/11/2 542/11/2 548/11/2
f 549/7/2 550/7/2 551/7/2
f 551/7/2 550/7/2 552/7/2
f 551/8/2 552/8/2 553/8/2
f 553/8/2 552/8/2 554/8/2
f 553/7/2 554/7/2 555/7/2
f 555/7/2 554/7/2 556/7/2
f 555/8/2 556/8/2 557/8/2
f 557/8/2 556/8/2 558/8/2
f 557/7/2 558/7/2 559/7/2
f 559/7/2 558/7/2 560/7/2
f 559/8/2 560/8/2 561/8/2
f 561/8/2 560/8/2 562/8/2
f 561/7/2 562/7/2 563/7/2
f 563/7/2 562/7/2 564/7/2
f 565/11/2 566/11/2 571/11/2
f 566/7/2 567/7/2 572/7/2
f 571/11/2 566/11/2 572/11/2
f 572/7/2 567/7/2 573/7/2
f 568/7/2 569/7/2 576/7/2
f 569/11/2 570/11/2 577/11/2
f 576/7/2 569/7/2 577/7/2
f 577/11/2 570/11/2 578/11/2
f 573/6/2 574/6/2 579/6/2
f 579/6/2 574/6/2 580/6/2
f 575/6/2 576/6/2 581/6/2
f 581/6/2 576/6/2 582/6/2
f 580/6/2 581/6/2 583/6/2
f 583/6/2 581/6/2 584/6/2
f 585/6/2 586/6/2 589/6/2
f 589/6/2 586/6/2 590/6/2
f 587/6/2 588/6/2 591/6/2
f 591/6/2 588/6/2 592/6/2
f 593/11/2 594/11/2 597/11/2
f 594/6/2 595/6/2 598/6/2
f 597/11/2 594/11/2 598/11/2
f 598/6/2 595/6/2 599/6/2
f 599/6/2 595/6/2 600/6/2
f 600/6/2 595/6/2 601/6/2
f 601/6/2 595/6/2 602/6/2
f 595/11/2 596/11/2 603/11/2
f 602/6/2 595/6/2 603/6/2
f 603/11/2 596/11/2 604/11/2
f 599/6/2 600/6/2 605/6/2
f 605/6/2 600/6/2 606/6/2
f 601/6/2 602/6/2 607/6/2
f 607/6/2 602/6/2 608/6/2
f 609/6/2 610/6/2 613/6/2
f 613/6/2 610/6/2 614/6/2
f 611/6/2 612/6/2 615/6/2
f 615/6/2 612/6/2 616/6/2
f 617/11/2 618/11/2 621/11/2
f 618/7/2 619/7/2 622/7/2
f 621/11/2 618/11/2 622/11/2
f 619/11/2 620/11/2 623/11/2
f 622/7/2 619/7/2 623/7/2
f 623/11/2 620/11/2 624/11/2
f 625/6/2 626/6/2 627/6/2
f 627/6/2 626/6/2 628/6/2
f 633/9/3 632/9/3 631/9/3
f 634/9/3 632/9/3 633/9/3
f 637/9/3 636/9/3 635/9/3
f 638/9/3 636/9/3 637/9/3
f 639/6/3 630/6/3 629/6/3
f 640/6/3 630/6/3 639/6/3
f 643/6/3 642/6/3 641/6/3
f 644/6/3 642/6/3 643/6/3
f 647/11/3 646/11/3 645/11/3
f 648/11/3 646/11/3 647/11/3
f 652/9/3 650/9/3 649/9/3
f 653/9/3 650/9/3 652/9/3
f 658/11/3 656/11/3 655/11/3
f 659/11/3 656/11/3 658/11/3
f 660/10/3 657/10/3 656/10/3
f 660/11/3 656/11/3 659/11/3
f 661/10/3 657/10/3 660/10/3
f 662/9/3 652/9/3 651/9/3
f 663/9/3 652/9/3 662/9/3
f 664/9/3 654/9/3 653/9/3
f 665/9/3 654/9/3 664/9/3
f 666/10/3 659/10/3 658/10/3
f 667/11/3 661/11/3 660/11/3
f 667/10/3 659/10/3 666/10/3
f 667/11/3 660/11/3 659/11/3
f 668/9/3 664/9/3 663/9/3
f 669/9/3 664/9/3 668/9/3
f 672/11/3 667/11/3 666/11/3
f 673/11/3 661/11/3 667/11/3
f 673/11/3 667/11/3 672/11/3
f 675/9/3 671/9/3 670/9/3
f 676/9/3 671/9/3 675/9/3
f 678/9/3 675/9/3 674/9/3
f 679/9/3 675/9/3 678/9/3
f 680/9/3 677/9/3 676/9/3
f 681/9/3 677/9/3 680/9/3
f 682/9/3 680/9/3 679/9/3
f 683/9/3 680/9/3 682/9/3
f 684/7/3 648/7/3 647/7/3
f 685/7/3 648/7/3 684/7/3
f 688/11/3 685/11/3 684/11/3
f 689/11/3 685/11/3 688/11/3
f 690/6/3 687/6/3 686/6/3
f 691/6/3 687/6/3 690/6/3
f 696/6/3 693/6/3 692/6/3
f 697/11/3 695/11/3 694/11/3
f 698/11/3 695/11/3 697/11/3
f 699/6/3 693/6/3 696/6/3
f 700/6/3 693/6/3 699/6/3
f 703/6/3 698/6/3 697/6/3
f 704/6/3 698/6/3 703/6/3
f 707/11/3 702/11/3 701/11/3
f 708/11/3 702/11/3 707/11/3
f 709/11/3 702/11/3 708/11/3
f 710/11/3 704/11/3 703/11/3
f 710/10/3 705/10/3 704/10/3
f 711/11/3 706/11/3 705/11/3
f 711/10/3 705/10/3 710/10/3
f 712/11/3 706/11/3 711/11/3
f 713/12/3 707/12/3 706/12/3
f 713/11/3 706/11/3 712/11/3
f 714/12/3 707/12/3 713/12/3
f 715/11/3 710/11/3 703/11/3
f 715/11/3 712/11/3 711/11/3
f 715/11/3 711/11/3 710/11/3
f 716/11/3 712/11/3 715/11/3
f 717/10/3 713/10/3 712/10/3
f 717/11/3 712/11/3 716/11/3
f 718/11/3 714/11/3 713/11/3
f 718/10/3 713/10/3 717/10/3
f 719/11/3 714/11/3 718/11/3
f 720/10/3 716/10/3 715/10/3
f 721/12/3 717/12/3 716/12/3
f 721/10/3 716/10/3 720/10/3
f 722/11/3 718/11/3 717/11/3
f 722/12/3 717/12/3 721/12/3
f 722/11/3 719/11/3 718/11/3
f 723/11/3 719/11/3 722/11/3
f 725/11/3 724/11/3 723/11/3
f 726/11/3 724/11/3 725/11/3
f 729/6/3 728/6/3 727/6/3
f 730/6/3 721/6/3 720/6/3
f 731/6/3 721/6/3 730/6/3
f 732/6/3 728/6/3 729/6/3
f 733/6/3 728/6/3 732/6/3
f 734/11/3 731/11/3 730/11/3
f 735/11/3 731/11/3 734/11/3
f 746/11/3 737/11/3 736/11/3
f 747/11/3 737/11/3 746/11/3
f 748/7/3 739/7/3 738/7/3
f 749/7/3 739/7/3 748/7/3
f 750/7/3 739/7/3 749/7/3
f 751/7/3 739/7/3 750/7/3
f 752/7/3 739/7/3 751/7/3
f 753/8/3 740/8/3 739/8/3
f 753/7/3 739/7/3 752/7/3
f 754/7/3 741/7/3 740/7/3
f 754/8/3 740/8/3 753/8/3
f 755/8/3 742/8/3 741/8/3
f 755/7/3 741/7/3 754/7/3
f 756/7/3 743/7/3 742/7/3
f 756/8/3 742/8/3 755/8/3
f 757/8/3 744/8/3 743/8/3
f 757/7/3 743/7/3 756/7/3
f 758/7/3 745/7/3 744/7/3
f 758/8/3 744/8/3 757/8/3
f 759/7/3 757/7/3 756/7/3
f 759/7/3 753/7/3 752/7/3
f 759/7/3 758/7/3 757/7/3
f 759/7/3 754/7/3 753/7/3
f 759/7/3 755/7/3 754/7/3
f 759/7/3 756/7/3 755/7/3
f 760/7/3 758/7/3 759/7/3
f 761/7/3 758/7/3 760/7/3
f 762/7/3 758/7/3 761/7/3
f 763/7/3 745/7/3 758/7/3
f 763/7/3 758/7/3 762/7/3
f 764/7/3 747/7/3 746/7/3
f 765/7/3 747/7/3 764/7/3
f 766/7/3 760/7/3 759/7/3
f 767/3/3 761/3/3 760/3/3
f 767/7/3 760/7/3 766/7/3
f 768/6/3 762/6/3 761/6/3
f 768/3/3 761/3/3 767/3/3
f 769/3/3 763/3/3 762/3/3
f 769/6/3 762/6/3 768/6/3
f 770/7/3 745/7/3 763/7/3
f 770/3/3 763/3/3 769/3/3
f 771/7/3 767/7/3 766/7/3
f 772/6/3 769/6/3 768/6/3
f 772/7/3 767/7/3 771/7/3
f 772/6/3 768/6/3 767/6/3
f 772/6/3 770/6/3 769/6/3
f 773/6/3 770/6/3 772/6/3
f 774/6/3 770/6/3 773/6/3
f 775/7/3 745/7/3 770/7/3
f 775/6/3 770/6/3 774/6/3
f 776/7/3 772/7/3 771/7/3
f 777/3/3 773/3/3 772/3/3
f 777/7/3 772/7/3 776/7/3
f 778/6/3 774/6/3 773/6/3
f 778/3/3 773/3/3 777/3/3
f 779/3/3 775/3/3 774/3/3
f 779/6/3 774/6/3 778/6/3
f 780/7/3 745/7/3 775/7/3
f 780/3/3 775/3/3 779/3/3
f 783/7/3 777/7/3 776/7/3
f 783/7/3 779/7/3 778/7/3
f 783/7/3 778/7/3 777/7/3
f 783/7/3 780/7/3 779/7/3
f 784/7/3 780/7/3 783/7/3
f 785/7/3 780/7/3 784/7/3
f 786/7/3 780/7/3 785/7/3
f 787/7/3 780/7/3 786/7/3
f 788/7/3 780/7/3 787/7/3
f 789/7/3 745/7/3 780/7/3
f 789/7/3 780/7/3 788/7/3
f 790/7/3 784/7/3 783/7/3
f 791/7/3 784/7/3 790/7/3
f 792/7/3 784/7/3 791/7/3
f 793/7/3 784/7/3 792/7/3
f 794/7/3 784/7/3 793/7/3
f 795/8/3 785/8/3 784/8/3
f 795/7/3 784/7/3 794/7/3
f 796/7/3 786/7/3 785/7/3
f 796/8/3 785/8/3 795/8/3
f 797/8/3 787/8/3 786/8/3
f 797/7/3 786/7/3 796/7/3
f 798/7/3 788/7/3 787/7/3
f 798/8/3 787/8/3 797/8/3
f 799/8/3 789/8/3 788/8/3
f 799/7/3 788/7/3 798/7/3
f 800/7/3 745/7/3 789/7/3
f 800/8/3 789/8/3 799/8/3
f 801/7/3 745/7/3 800/7/3
f 802/7/3 782/7/3 781/7/3
f 803/7/3 782/7/3 802/7/3
f 804/11/3 803/11/3 802/11/3
f 805/11/3 803/11/3 804/11/3
f 808/11/3 807/11/3 806/11/3
f 809/11/3 807/11/3 808/11/3
f 812/6/3 809/6/3 808/6/3
f 813/6/3 809/6/3 812/6/3
f 818/9/3 811/9/3 810/9/3
f 819/9/3 811/9/3 818/9/3
f 820/11/3 815/11/3 814/11/3
f 821/11/3 815/11/3 820/11/3
f 822/14/3 817/14/3 816/14/3
f 823/14/3 817/14/3 822/14/3
f 826/6/3 825/6/3 824/6/3
f 827/6/3 825/6/3 826/6/3
f 828/11/3 827/11/3 826/11/3
f 829/11/3 827/11/3 828/11/3
f 832/11/3 831/11/3 830/11/3
f 833/11/3 831/11/3 832/11/3
f 837/9/3 835/9/3 834/9/3
f 838/9/3 835/9/3 837/9/3
f 840/7/3 833/7/3 832/7/3
f 841/7/3 833/7/3 840/7/3
f 845/10/3 843/10/3 842/10/3
f 846/11/3 844/11/3 843/11/3
f 846/10/3 843/10/3 845/10/3
f 847/9/3 837/9/3 836/9/3
f 848/9/3 837/9/3 847/9/3
f 849/9/3 839/9/3 838/9/3
f 850/9/3 839/9/3 849/9/3
f 851/11/3 846/11/3 845/11/3
f 852/11/3 844/11/3 846/11/3
f 852/11/3 846/11/3 851/11/3
f 853/9/3 849/9/3 848/9/3
f 854/9/3 849/9/3 853/9/3
f 857/12/3 852/12/3 851/12/3
f 858/12/3 852/12/3 857/12/3
f 859/12/3 852/12/3 858/12/3
f 860/7/3 856/7/3 855/7/3
f 861/7/3 856/7/3 860/7/3
f 862/11/3 861/11/3 860/11/3
f 863/11/3 861/11/3 862/11/3
f 866/6/3 865/6/3 864/6/3
f 868/6/3 866/6/3 864/6/3
f 868/6/3 867/6/3 866/6/3
f 869/6/3 867/6/3 868/6/3
f 872/11/3 871/11/3 870/11/3
f 873/11/3 871/11/3 872/11/3
f 874/6/3 873/6/3 872/6/3
f 875/6/3 873/6/3 874/6/3
f 876/11/3 875/11/3 874/11/3
f 877/11/3 875/11/3 876/11/3
f 880/6/3 879/6/3 878/6/3
f 881/6/3 879/6/3 880/6/3
f 882/6/3 879/6/3 881/6/3
f 883/6/3 879/6/3 882/6/3
f 886/11/3 885/11/3 884/11/3
f 887/11/3 885/11/3 886/11/3
f 888/7/3 887/7/3 886/7/3
f 889/7/3 887/7/3 888/7/3
f 890/11/3 889/11/3 888/11/3
f 891/11/3 889/11/3 890/11/3
f 894/6/3 893/6/3 892/6/3
f 895/6/3 893/6/3 894/6/3
f 898/11/3 897/11/3 896/11/3
f 899/11/3 897/11/3 898/11/3
f 900/6/3 899/6/3 898/6/3
f 901/6/3 899/6/3 900/6/3
f 902/11/3 901/11/3 900/11/3
f 903/11/3 901/11/3 902/11/3
f 907/6/3 905/6/3 904/6/3
f 909/6/3 907/6/3 906/6/3
f 910/6/3 905/6/3 907/6/3
f 910/6/3 907/6/3 909/6/3
f 911/6/3 909/6/3 908/6/3
f 912/6/3 909/6/3 911/6/3
f 915/6/3 914/6/3 913/6/3
f 916/6/3 914/6/3 915/6/3
f 919/6/3 918/6/3 917/6/3
f 920/6/3 918/6/3 919/6/3
f 921/6/3 918/6/3 920/6/3
f 924/6/3 923/6/3 922/6/3
f 925/6/3 923/6/3 924/6/3
f 928/6/3 927/6/3 926/6/3
f 929/6/3 927/6/3 928/6/3
f 930/6/3 927/6/3 929/6/3
f 931/6/3 929/6/3 928/6/3
f 932/6/3 929/6/3 931/6/3
f 935/6/3 934/6/3 933/6/3
f 936/6/3 934/6/3 935/6/3
f 939/6/3 938/6/3 937/6/3
f 940/6/3 938/6/3 939/6/3
f 941/6/3 938/6/3 940/6/3
f 942/6/3 938/6/3 941/6/3
f 943/6/3 938/6/3 942/6/3
f 944/6/3 938/6/3 943/6/3
f 945/6/3 938/6/3 944/6/3
f 946/6/3 938/6/3 945/6/3
f 955/7/3 948/7/3 947/7/3
f 956/7/3 948/7/3 955/7/3
f 957/7/3 948/7/3 956/7/3
f 958/7/3 948/7/3 957/7/3
f 959/7/3 948/7/3 958/7/3
f 960/8/3 949/8/3 948/8/3
f 960/7/3 948/7/3 959/7/3
f 961/7/3 950/7/3 949/7/3
f 961/8/3 949/8/3 960/8/3
f 962/8/3 951/8/3 950/8/3
f 962/7/3 950/7/3 961/7/3
f 963/7/3 952/7/3 951/7/3
f 963/8/3 951/8/3 962/8/3
f 964/8/3 953/8/3 952/8/3
f 964/7/3 952/7/3 963/7/3
f 965/7/3 954/7/3 953/7/3
f 965/8/3 953/8/3 964/8/3
f 966/7/3 964/7/3 963/7/3
f 966/7/3 960/7/3 959/7/3
f 966/7/3 965/7/3 964/7/3
f 966/7/3 961/7/3 960/7/3
f 966/7/3 962/7/3 961/7/3
f 966/7/3 963/7/3 962/7/3
f 967/7/3 965/7/3 966/7/3
f 968/7/3 965/7/3 967/7/3
f 969/7/3 965/7/3 968/7/3
f 970/7/3 954/7/3 965/7/3
f 970/7/3 965/7/3 969/7/3
f 971/7/3 967/7/3 966/7/3
f 972/3/3 968/3/3 967/3/3
f 972/7/3 967/7/3 971/7/3
f 973/6/3 969/6/3 968/6/3
f 973/3/3 968/3/3 972/3/3
f 974/3/3 970/3/3 969/3/3
f 974/6/3 969/6/3 973/6/3
f 975/7/3 954/7/3 970/7/3
f 975/3/3 970/3/3 974/3/3
f 976/7/3 972/7/3 971/7/3
f 977/6/3 974/6/3 973/6/3
f 977/7/3 972/7/3 976/7/3
f 977/6/3 973/6/3 972/6/3
f 977/6/3 975/6/3 974/6/3
f 978/6/3 975/6/3 977/6/3
f 979/6/3 975/6/3 978/6/3
f 980/7/3 954/7/3 975/7/3
f 980/6/3 975/6/3 979/6/3
f 981/7/3 977/7/3 976/7/3
f 982/3/3 978/3/3 977/3/3
f 982/7/3 977/7/3 981/7/3
f 983/6/3 979/6/3 978/6/3
f 983/3/3 978/3/3 982/3/3
f 984/3/3 980/3/3 979/3/3
f 984/6/3 979/6/3 983/6/3
f 985/7/3 954/7/3 980/7/3
f 985/3/3 980/3/3 984/3/3
f 986/7/3 982/7/3 981/7/3
f 986/7/3 984/7/3 983/7/3
f 986/7/3 985/7/3 984/7/3
f 986/7/3 983/7/3 982/7/3
f 987/7/3 985/7/3 986/7/3
f 988/7/3 985/7/3 987/7/3
f 989/7/3 985/7/3 988/7/3
f 990/7/3 985/7/3 989/7/3
f 991/7/3 985/7/3 990/7/3
f 992/7/3 954/7/3 985/7/3
f 992/7/3 985/7/3 991/7/3
f 993/7/3 987/7/3 986/7/3
f 994/7/3 987/7/3 993/7/3
f 995/7/3 987/7/3 994/7/3
f 996/7/3 987/7/3 995/7/3
f 997/7/3 987/7/3 996/7/3
f 998/8/3 988/8/3 987/8/3
f 998/7/3 987/7/3 997/7/3
f 999/7/3 989/7/3 988/7/3
f 999/8/3 988/8/3 998/8/3
f 1000/8/3 990/8/3 989/8/3
f 1000/7/3 989/7/3 999/7/3
f 1001/7/3 991/7/3 990/7/3
f 1001/8/3 990/8/3 1000/8/3
f 1002/8/3 992/8/3 991/8/3
f 1002/7/3 991/7/3 1001/7/3
f 1003/7/3 954/7/3 992/7/3
f 1003/8/3 992/8/3 1002/8/3
f 1004/7/3 954/7/3 1003/7/3
f 1013/6/3 1006/6/3 1005/6/3
f 1013/6/3 1012/6/3 1011/6/3
f 1013/6/3 1011/6/3 1010/6/3
f 1013/6/3 1010/6/3 1009/6/3
f 1013/6/3 1009/6/3 1008/6/3
f 1013/6/3 1008/6/3 1007/6/3
f 1013/6/3 1007/6/3 1006/6/3
f 1014/6/3 1012/6/3 1013/6/3
f 1015/9/4 1016/9/4 1018/9/4
f 1018/9/4 1016/9/4 1019/9/4
f 1021/11/4 1022/11/4 1024/11/4
f 1022/10/4 1023/10/4 1024/10/4
f 1024/10/4 1023/10/4 1025/10/4
f 1017/9/4 1018/9/4 1026/9/4
f 1026/9/4 1018/9/4 1027/9/4
f 1019/9/4 1020/9/4 1028/9/4
f 1028/9/4 1020/9/4 1029/9/4
f 1027/9/4 1028/9/4 1030/9/4
f 1030/9/4 1028/9/4 1031/9/4
f 1024/11/4 1025/11/4 1034/11/4
f 1021/11/4 1024/11/4 1034/11/4
f 1034/11/4 1025/11/4 1035/11/4
f 1032/9/4 1033/9/4 1037/9/4
f 1037/9/4 1033/9/4 1038/9/4
f 1036/9/4 1037/9/4 1040/9/4
f 1040/9/4 1037/9/4 1041/9/4
f 1038/9/4 1039/9/4 1042/9/4
f 1042/9/4 1039/9/4 1043/9/4
f 1041/9/4 1042/9/4 1044/9/4
f 1044/9/4 1042/9/4 1045/9/4
f 1046/9/4 1047/9/4 1052/9/4
f 1052/9/4 1047/9/4 1053/9/4
f 1048/11/4 1049/11/4 1054/11/4
f 1054/11/4 1049/11/4 1055/11/4
f 1050/14/4 1051/14/4 1056/14/4
f 1056/14/4 1051/14/4 1057/14/4
f 1058/9/4 1059/9/4 1060/9/4
f 1060/9/4 1059/9/4 1061/9/4
f 1062/6/4 1063/6/4 1064/6/4
f 1064/6/4 1063/6/4 1065/6/4
f 1065/6/4 1063/6/4 1066/6/4
f 1066/6/4 1063/6/4 1067/6/4
f 1067/6/4 1063/6/4 1068/6/4
f 1068/6/4 1063/6/4 1069/6/4
f 1069/6/4 1063/6/4 1070/6/4
f 1070/6/4 1063/6/4 1071/6/4
f 1072/7/4 1073/7/4 1080/7/4
f 1080/7/4 1073/7/4 1081/7/4
f 1081/7/4 1073/7/4 1082/7/4
f 1082/7/4 1073/7/4 1083/7/4
f 1083/7/4 1073/7/4 1084/7/4
f 1073/8/4 1074/8/4 1085/8/4
f 1084/7/4 1073/7/4 1085/7/4
f 1074/7/4 1075/7/4 1086/7/4
f 1085/8/4 1074/8/4 1086/8/4
f 1075/8/4 1076/8/4 1087/8/4
f 1086/7/4 1075/7/4 1087/7/4
f 1076/7/4 1077/7/4 1088/7/4
f 1087/8/4 1076/8/4 1088/8/4
f 1077/8/4 1078/8/4 1089/8/4
f 1088/7/4 1077/7/4 1089/7/4
f 1078/7/4 1079/7/4 1090/7/4
f 1089/8/4 1078/8/4 1090/8/4
f 1088/7/4 1089/7/4 1091/7/4
f 1084/7/4 1085/7/4 1091/7/4
f 1089/7/4 1090/7/4 1091/7/4
f 1085/7/4 1086/7/4 1091/7/4
f 1086/7/4 1087/7/4 1091/7/4
f 1087/7/4 1088/7/4 1091/7/4
f 1091/7/4 1090/7/4 1092/7/4
f 1092/7/4 1090/7/4 1093/7/4
f 1093/7/4 1090/7/4 1094/7/4
f 1090/7/4 1079/7/4 1095/7/4
f 1094/7/4 1090/7/4 1095/7/4
f 1091/7/4 1092/7/4 1096/7/4
f 1092/3/4 1093/3/4 1097/3/4
f 1096/7/4 1092/7/4 1097/7/4
f 1093/6/4 1094/6/4 1098/6/4
f 1097/3/4 1093/3/4 1098/3/4
f 1094/3/4 1095/3/4 1099/3/4
f 1098/6/4 1094/6/4 1099/6/4
f 1095/7/4 1079/7/4 1100/7/4
f 1099/3/4 1095/3/4 1100/3/4
f 1096/7/4 1097/7/4 1101/7/4
f 1098/6/4 1099/6/4 1102/6/4
f 1101/7/4 1097/7/4 1102/7/4
f 1097/6/4 1098/6/4 1102/6/4
f 1099/6/4 1100/6/4 1102/6/4
f 1102/6/4 1100/6/4 1103/6/4
f 1103/6/4 1100/6/4 1104/6/4
f 1100/7/4 1079/7/4 1105/7/4
f 1104/6/4 1100/6/4 1105/6/4
f 1101/7/4 1102/7/4 1106/7/4
f 1102/3/4 1103/3/4 1107/3/4
f 1106/7/4 1102/7/4 1107/7/4
f 1103/6/4 1104/6/4 1108/6/4
f 1107/3/4 1103/3/4 1108/3/4
f 1104/3/4 1105/3/4 1109/3/4
f 1108/6/4 1104/6/4 1109/6/4
f 1105/7/4 1079/7/4 1110/7/4
f 1109/3/4 1105/3/4 1110/3/4
f 1106/7/4 1107/7/4 1111/7/4
f 1108/7/4 1109/7/4 1111/7/4
f 1109/7/4 1110/7/4 1111/7/4
f 1107/7/4 1108/7/4 1111/7/4
f 1111/7/4 1110/7/4 1112/7/4
f 1112/7/4 1110/7/4 1113/7/4
f 1113/7/4 1110/7/4 1114/7/4
f 1114/7/4 1110/7/4 1115/7/4
f 1115/7/4 1110/7/4 1116/7/4
f 1110/7/4 1079/7/4 1117/7/4
f 1116/7/4 1110/7/4 1117/7/4
f 1111/7/4 1112/7/4 1118/7/4
f 1118/7/4 1112/7/4 1119/7/4
f 1119/7/4 1112/7/4 1120/7/4
f 1120/7/4 1112/7/4 1121/7/4
f 1121/7/4 1112/7/4 1122/7/4
f 1112/8/4 1113/8/4 1123/8/4
f 1122/7/4 1112/7/4 1123/7/4
f 1113/7/4 1114/7/4 1124/7/4
f 1123/8/4 1113/8/4 1124/8/4
f 1114/8/4 1115/8/4 1125/8/4
f 1124/7/4 1114/7/4 1125/7/4
f 1115/7/4 1116/7/4 1126/7/4
f 1125/8/4 1115/8/4 1126/8/4
f 1116/8/4 1117/8/4 1127/8/4
f 1126/7/4 1116/7/4 1127/7/4
f 1117/7/4 1079/7/4 1128/7/4
f 1127/8/4 1117/8/4 1128/8/4
f 1128/7/4 1079/7/4 1129/7/4
f 1130/6/4 1131/6/4 1138/6/4
f 1136/6/4 1137/6/4 1138/6/4
f 1135/6/4 1136/6/4 1138/6/4
f 1134/6/4 1135/6/4 1138/6/4
f 1133/6/4 1134/6/4 1138/6/4
f 1132/6/4 1133/6/4 1138/6/4
f 1131/6/4 1132/6/4 1138/6/4
f 1138/6/4 1137/6/4 1139/6/4
f 1140/11/4 1141/11/4 1143/11/4
f 1143/11/4 1141/11/4 1144/11/4
f 1144/11/4 1141/11/4 1145/11/4
f 1142/11/4 1143/11/4 1146/11/4
f 1142/11/4 1146/11/4 1147/11/4
f 1147/11/4 1146/11/4 1148/11/4
f 1142/11/4 1147/11/4 1149/11/4
f 1147/12/4 1148/12/4 1150/12/4
f 1149/11/4 1147/11/4 1150/11/4
f 1150/12/4 1148/12/4 1151/12/4
f 1151/11/4 1152/11/4 1155/11/4
f 1152/10/4 1153/10/4 1156/10/4
f 1155/11/4 1152/11/4 1156/11/4
f 1153/11/4 1154/11/4 1157/11/4
f 1156/10/4 1153/10/4 1157/10/4
f 1157/11/4 1154/11/4 1158/11/4
f 1159/9/4 1160/9/4 1162/9/4
f 1162/9/4 1160/9/4 1163/9/4
f 1165/10/4 1166/10/4 1168/10/4
f 1166/11/4 1167/11/4 1169/11/4
f 1168/10/4 1166/10/4 1169/10/4
f 1161/9/4 1162/9/4 1170/9/4
f 1170/9/4 1162/9/4 1171/9/4
f 1163/9/4 1164/9/4 1172/9/4
f 1172/9/4 1164/9/4 1173/9/4
f 1168/11/4 1169/11/4 1174/11/4
f 1169/11/4 1167/11/4 1175/11/4
f 1174/11/4 1169/11/4 1175/11/4
f 1171/9/4 1172/9/4 1176/9/4
f 1176/9/4 1172/9/4 1177/9/4
f 1168/11/4 1174/11/4 1178/11/4
f 1174/12/4 1175/12/4 1179/12/4
f 1178/11/4 1174/11/4 1179/11/4
f 1179/12/4 1175/12/4 1180/12/4
f 1181/9/4 1182/9/4 1183/9/4
f 1183/9/4 1182/9/4 1184/9/4
f 1185/6/4 1186/6/4 1187/6/4
f 1187/6/4 1186/6/4 1188/6/4
f 1189/6/4 1190/6/4 1191/6/4
f 1191/6/4 1190/6/4 1192/6/4
f 1193/6/4 1194/6/4 1195/6/4
f 1195/6/4 1194/6/4 1196/6/4
f 1196/6/4 1194/6/4 1197/6/4
f 1195/6/4 1196/6/4 1198/6/4
f 1198/6/4 1196/6/4 1199/6/4
f 1200/6/4 1201/6/4 1202/6/4
f 1202/6/4 1201/6/4 1203/6/4
f 1204/6/4 1205/6/4 1206/6/4
f 1206/6/4 1205/6/4 1207/6/4
f 1207/6/4 1205/6/4 1208/6/4
f 1209/6/4 1210/6/4 1211/6/4
f 1211/6/4 1210/6/4 1212/6/4
f 1213/11/4 1214/11/4 1215/11/4
f 1215/11/4 1214/11/4 1216/11/4
f 1215/6/4 1216/6/4 1217/6/4
f 1217/6/4 1216/6/4 1218/6/4
f 1217/11/4 1218/11/4 1219/11/4
f 1219/11/4 1218/11/4 1220/11/4
f 1221/6/4 1222/6/4 1224/6/4
f 1223/6/4 1224/6/4 1226/6/4
f 1224/6/4 1222/6/4 1227/6/4
f 1226/6/4 1224/6/4 1227/6/4
f 1225/6/4 1226/6/4 1228/6/4
f 1228/6/4 1226/6/4 1229/6/4
f 1230/6/4 1231/6/4 1232/6/4
f 1232/6/4 1231/6/4 1233/6/4
f 1233/6/4 1231/6/4 1234/6/4
f 1234/6/4 1231/6/4 1235/6/4
f 1236/11/4 1237/11/4 1238/11/4
f 1238/11/4 1237/11/4 1239/11/4
f 1238/7/4 1239/7/4 1240/7/4
f 1240/7/4 1239/7/4 1241/7/4
f 1240/11/4 1241/11/4 1242/11/4
f 1242/11/4 1241/11/4 1243/11/4
f 1244/6/4 1245/6/4 1246/6/4
f 1244/6/4 1246/6/4 1248/6/4
f 1246/6/4 1247/6/4 1248/6/4
f 1248/6/4 1247/6/4 1249/6/4
f 1250/11/4 1251/11/4 1252/11/4
f 1252/11/4 1251/11/4 1253/11/4
f 1252/6/4 1253/6/4 1254/6/4
f 1254/6/4 1253/6/4 1255/6/4
f 1256/6/4 1257/6/4 1258/6/4
f 1258/6/4 1257/6/4 1259/6/4
f 1258/11/4 1259/11/4 1260/11/4
f 1260/11/4 1259/11/4 1261/11/4
f 1262/11/4 1263/11/4 1264/11/4
f 1264/11/4 1263/11/4 1265/11/4
f 1264/7/4 1265/7/4 1266/7/4
f 1266/7/4 1265/7/4 1267/7/4
f 1268/2/4 1269/2/4 1271/2/4
f 1269/2/4 1270/2/4 1271/2/4
f 1271/2/4 1270/2/4 1272/2/4
f 1271/1/4 1272/1/4 1273/1/4
f 1272/2/4 1270/2/4 1274/2/4
f 1273/1/4 1272/1/4 1274/1/4
f 1273/2/4 1274/2/4 1275/2/4
f 1275/2/4 1274/2/4 1276/2/4
f 1274/2/4 1270/2/4 1277/2/4
f 1276/2/4 1274/2/4 1277/2/4
f 1278/7/4 1279/7/4 1280/7/4
f 1280/7/4 1279/7/4 1281/7/4
f 1280/11/4 1281/11/4 1282/11/4
f 1282/11/4 1281/11/4 1283/11/4
f 1284/11/4 1285/11/4 1286/11/4
f 1286/11/4 1285/11/4 1287/11/4
f 1286/6/4 1287/6/4 1288/6/4
f 1288/6/4 1287/6/4 1289/6/4
f 1290/6/4 1291/6/4 1292/6/4
f 1292/6/4 1291/6/4 1293/6/4
f 1292/11/4 1293/11/4 1294/11/4
f 1294/11/4 1293/11/4 1295/11/4
f 1296/11/4 1297/11/4 1306/11/4
f 1306/11/4 1297/11/4 1307/11/4
f 1298/7/4 1299/7/4 1308/7/4
f 1308/7/4 1299/7/4 1309/7/4
f 1309/7/4 1299/7/4 1310/7/4
f 1310/7/4 1299/7/4 1311/7/4
f 1311/7/4 1299/7/4 1312/7/4
f 1299/8/4 1300/8/4 1313/8/4
f 1312/7/4 1299/7/4 1313/7/4
f 1300/7/4 1301/7/4 1314/7/4
f 1313/8/4 1300/8/4 1314/8/4
f 1301/8/4 1302/8/4 1315/8/4
f 1314/7/4 1301/7/4 1315/7/4
f 1302/7/4 1303/7/4 1316/7/4
f 1315/8/4 1302/8/4 1316/8/4
f 1303/8/4 1304/8/4 1317/8/4
f 1316/7/4 1303/7/4 1317/7/4
f 1304/7/4 1305/7/4 1318/7/4
f 1317/8/4 1304/8/4 1318/8/4
f 1306/7/4 1307/7/4 1319/7/4
f 1319/7/4 1307/7/4 1320/7/4
f 1316/7/4 1317/7/4 1322/7/4
f 1312/7/4 1313/7/4 1322/7/4
f 1317/7/4 1318/7/4 1322/7/4
f 1313/7/4 1314/7/4 1322/7/4
f 1314/7/4 1315/7/4 1322/7/4
f 1315/7/4 1316/7/4 1322/7/4
f 1322/7/4 1318/7/4 1323/7/4
f 1323/7/4 1318/7/4 1324/7/4
f 1324/7/4 1318/7/4 1325/7/4
f 1318/7/4 1305/7/4 1326/7/4
f 1325/7/4 1318/7/4 1326/7/4
f 1320/6/4 1321/6/4 1327/6/4
f 1327/6/4 1321/6/4 1328/6/4
f 1322/7/4 1323/7/4 1330/7/4
f 1323/3/4 1324/3/4 1331/3/4
f 1330/7/4 1323/7/4 1331/7/4
f 1324/6/4 1325/6/4 1332/6/4
f 1331/3/4 1324/3/4 1332/3/4
f 1325/3/4 1326/3/4 1333/3/4
f 1332/6/4 1325/6/4 1333/6/4
f 1326/7/4 1305/7/4 1334/7/4
f 1333/3/4 1326/3/4 1334/3/4
f 1330/7/4 1331/7/4 1335/7/4
f 1332/6/4 1333/6/4 1336/6/4
f 1335/7/4 1331/7/4 1336/7/4
f 1331/6/4 1332/6/4 1336/6/4
f 1333/6/4 1334/6/4 1336/6/4
f 1336/6/4 1334/6/4 1337/6/4
f 1337/6/4 1334/6/4 1338/6/4
f 1334/7/4 1305/7/4 1339/7/4
f 1338/6/4 1334/6/4 1339/6/4
f 1335/7/4 1336/7/4 1340/7/4
f 1336/3/4 1337/3/4 1341/3/4
f 1340/7/4 1336/7/4 1341/7/4
f 1337/6/4 1338/6/4 1342/6/4
f 1341/3/4 1337/3/4 1342/3/4
f 1338/3/4 1339/3/4 1343/3/4
f 1342/6/4 1338/6/4 1343/6/4
f 1339/7/4 1305/7/4 1344/7/4
f 1343/3/4 1339/3/4 1344/3/4
f 1328/6/4 1329/6/4 1346/6/4
f 1346/6/4 1329/6/4 1347/6/4
f 1340/7/4 1341/7/4 1348/7/4
f 1342/7/4 1343/7/4 1348/7/4
f 1341/7/4 1342/7/4 1348/7/4
f 1343/7/4 1344/7/4 1348/7/4
f 1348/7/4 1344/7/4 1349/7/4
f 1349/7/4 1344/7/4 1350/7/4
f 1350/7/4 1344/7/4 1351/7/4
f 1351/7/4 1344/7/4 1352/7/4
f 1352/7/4 1344/7/4 1353/7/4
f 1344/7/4 1305/7/4 1354/7/4
f 1353/7/4 1344/7/4 1354/7/4
f 1345/6/4 1346/6/4 1356/6/4
f 1356/6/4 1346/6/4 1357/6/4
f 1348/7/4 1349/7/4 1358/7/4
f 1358/7/4 1349/7/4 1359/7/4
f 1359/7/4 1349/7/4 1360/7/4
f 1360/7/4 1349/7/4 1361/7/4
f 1361/7/4 1349/7/4 1362/7/4
f 1349/8/4 1350/8/4 1363/8/4
f 1362/7/4 1349/7/4 1363/7/4
f 1350/7/4 1351/7/4 1364/7/4
f 1363/8/4 1350/8/4 1364/8/4
f 1351/8/4 1352/8/4 1365/8/4
f 1364/7/4 1351/7/4 1365/7/4
f 1352/7/4 1353/7/4 1366/7/4
f 1365/8/4 1352/8/4 1366/8/4
f 1353/8/4 1354/8/4 1367/8/4
f 1366/7/4 1353/7/4 1367/7/4
f 1354/7/4 1305/7/4 1368/7/4
f 1367/8/4 1354/8/4 1368/8/4
f 1368/7/4 1305/7/4 1369/7/4
f 1355/7/4 1356/7/4 1370/7/4
f 1370/7/4 1356/7/4 1371/7/4
f 1370/11/4 1371/11/4 1372/11/4
f 1372/11/4 1371/11/4 1373/11/4
f 1374/6/4 1375/6/4 1378/6/4
f 1376/11/4 1377/11/4 1379/11/4
f 1379/11/4 1377/11/4 1380/11/4
f 1378/6/4 1375/6/4 1381/6/4
f 1381/6/4 1375/6/4 1382/6/4
f 1379/6/4 1380/6/4 1383/6/4
f 1379/6/4 1383/6/4 1385/6/4
f 1383/6/4 1384/6/4 1385/6/4
f 1385/6/4 1384/6/4 1386/6/4
f 1379/6/4 1385/6/4 1387/6/4
f 1379/6/4 1387/6/4 1389/6/4
f 1387/6/4 1388/6/4 1389/6/4
f 1389/6/4 1388/6/4 1390/6/4
f 1391/6/4 1392/6/4 1393/6/4
f 1379/6/4 1389/6/4 1394/6/4
f 1394/6/4 1389/6/4 1395/6/4
f 1393/6/4 1392/6/4 1396/6/4
f 1396/6/4 1392/6/4 1397/6/4
f 1394/11/4 1395/11/4 1398/11/4
f 1398/11/4 1395/11/4 1399/11/4
f 1400/6/4 1401/6/4 1402/6/4
f 1402/6/4 1401/6/4 1403/6/4
f 1404/11/4 1405/11/4 1406/11/4
f 1406/11/4 1405/11/4 1407/11/4
f 1406/7/4 1407/7/4 1408/7/4
f 1408/7/4 1407/7/4 1409/7/4
f 1408/11/4 1409/11/4 1412/11/4
f 1412/11/4 1409/11/4 1413/11/4
f 1410/6/4 1411/6/4 1414/6/4
f 1414/6/4 1411/6/4 1415/6/4
f 1416/6/4 1417/6/4 1418/6/4
f 1418/6/4 1417/6/4 1419/6/4
f 1423/6/5 1421/6/5 1420/6/5
f 1424/6/5 1421/6/5 1423/6/5
f 1427/6/5 1423/6/5 1422/6/5
f 1427/6/5 1425/6/5 1424/6/5
f 1427/6/5 1424/6/5 1423/6/5
f 1428/6/5 1427/6/5 1426/6/5
f 1429/6/5 1425/6/5 1427/6/5
f 1429/6/5 1427/6/5 1428/6/5
f 1430/5/5 1429/5/5 1428/5/5
f 1431/6/5 1425/6/5 1429/6/5
f 1431/5/5 1429/5/5 1430/5/5
f 1432/6/5 1431/6/5 1430/6/5
f 1433/6/5 1425/6/5 1431/6/5
f 1433/6/5 1431/6/5 1432/6/5
f 1434/6/5 1425/6/5 1433/6/5
f 1435/6/5 1425/6/5 1434/6/5
f 1436/6/5 1425/6/5 1435/6/5
f 1437/6/5 1425/6/5 1436/6/5
f 1438/6/5 1436/6/5 1435/6/5
f 1439/6/5 1436/6/5 1438/6/5
f 1442/6/5 1441/6/5 1440/6/5
f 1443/6/5 1441/6/5 1442/6/5
f 1446/6/5 1445/6/5 1444/6/5
f 1447/6/5 1445/6/5 1446/6/5
f 1450/6/5 1449/6/5 1448/6/5
f 1451/6/5 1449/6/5 1450/6/5
f 1456/11/5 1453/11/5 1452/11/5
f 1457/7/5 1454/7/5 1453/7/5
f 1457/11/5 1453/11/5 1456/11/5
f 1458/7/5 1454/7/5 1457/7/5
f 1459/7/5 1454/7/5 1458/7/5
f 1460/11/5 1455/11/5 1454/11/5
f 1460/7/5 1454/7/5 1459/7/5
f 1461/11/5 1455/11/5 1460/11/5
f 1462/7/5 1459/7/5 1458/7/5
f 1463/7/5 1459/7/5 1462/7/5
f 1464/7/5 1457/7/5 1456/7/5
f 1469/7/5 1461/7/5 1460/7/5
f 1470/7/5 1465/7/5 1464/7/5
f 1470/7/5 1464/7/5 1456/7/5
f 1471/7/5 1465/7/5 1470/7/5
f 1472/7/5 1467/7/5 1466/7/5
f 1473/7/5 1467/7/5 1472/7/5
f 1474/7/5 1469/7/5 1468/7/5
f 1475/7/5 1461/7/5 1469/7/5
f 1475/7/5 1469/7/5 1474/7/5
f 1478/7/5 1470/7/5 1456/7/5
f 1479/7/5 1470/7/5 1478/7/5
f 1480/7/5 1477/7/5 1476/7/5
f 1481/7/5 1477/7/5 1480/7/5
f 1482/7/5 1461/7/5 1475/7/5
f 1483/7/5 1461/7/5 1482/7/5
f 1484/11/5 1479/11/5 1478/11/5
f 1485/7/5 1481/7/5 1480/7/5
f 1485/11/5 1479/11/5 1484/11/5
f 1485/7/5 1480/7/5 1479/7/5
f 1485/7/5 1482/7/5 1481/7/5
f 1486/11/5 1483/11/5 1482/11/5
f 1486/7/5 1482/7/5 1485/7/5
f 1487/11/5 1483/11/5 1486/11/5
f 1490/11/5 1489/11/5 1488/11/5
f 1491/11/5 1489/11/5 1490/11/5
f 1494/6/5 1493/6/5 1492/6/5
f 1495/6/5 1493/6/5 1494/6/5
f 1498/6/5 1497/6/5 1496/6/5
f 1499/6/5 1497/6/5 1498/6/5
f 1505/11/5 1501/11/5 1500/11/5
f 1506/10/5 1502/10/5 1501/10/5
f 1506/11/5 1501/11/5 1505/11/5
f 1507/11/5 1503/11/5 1502/11/5
f 1507/10/5 1502/10/5 1506/10/5
f 1508/11/5 1503/11/5 1507/11/5
f 1510/11/5 1505/11/5 1504/11/5
f 1511/11/5 1509/11/5 1508/11/5
f 1512/11/5 1510/11/5 1504/11/5
f 1513/11/5 1510/11/5 1512/11/5
f 1516/11/5 1509/11/5 1511/11/5
f 1517/11/5 1509/11/5 1516/11/5
f 1518/10/5 1514/10/5 1513/10/5
f 1519/11/5 1515/11/5 1514/11/5
f 1519/10/5 1514/10/5 1518/10/5
f 1519/11/5 1516/11/5 1515/11/5
f 1520/11/5 1516/11/5 1519/11/5
f 1523/9/5 1522/9/5 1521/9/5
f 1524/9/5 1522/9/5 1523/9/5
f 1528/9/5 1526/9/5 1525/9/5
f 1529/9/5 1526/9/5 1528/9/5
f 1531/9/5 1528/9/5 1527/9/5
f 1532/9/5 1528/9/5 1531/9/5
f 1533/9/5 1530/9/5 1529/9/5
f 1534/9/5 1530/9/5 1533/9/5
f 1535/9/5 1533/9/5 1532/9/5
f 1536/9/5 1533/9/5 1535/9/5
f 1539/9/5 1538/9/5 1537/9/5
f 1540/9/5 1538/9/5 1539/9/5
f 1543/9/5 1542/9/5 1541/9/5
f 1544/9/5 1542/9/5 1543/9/5
f 1548/9/5 1546/9/5 1545/9/5
f 1549/9/5 1546/9/5 1548/9/5
f 1551/9/5 1548/9/5 1547/9/5
f 1552/9/5 1548/9/5 1551/9/5
f 1553/9/5 1550/9/5 1549/9/5
f 1554/9/5 1550/9/5 1553/9/5
f 1555/9/5 1553/9/5 1552/9/5
f 1556/9/5 1553/9/5 1555/9/5
f 1560/9/5 1558/9/5 1557/9/5
f 1561/9/5 1558/9/5 1560/9/5
f 1563/9/5 1560/9/5 1559/9/5
f 1564/9/5 1560/9/5 1563/9/5
f 1565/9/5 1562/9/5 1561/9/5
f 1566/9/5 1562/9/5 1565/9/5
f 1567/9/5 1565/9/5 1564/9/5
f 1568/9/5 1565/9/5 1567/9/5
f 1569/6/6 1570/6/6 1571/6/6
f 1571/6/6 1570/6/6 1572/6/6
f 1571/5/6 1572/5/6 1573/5/6
f 1573/5/6 1572/5/6 1574/5/6
f 1573/6/6 1574/6/6 1575/6/6
f 1575/6/6 1574/6/6 1576/6/6
f 1577/6/6 1578/6/6 1580/6/6
f 1580/6/6 1578/6/6 1581/6/6
f 1581/6/6 1578/6/6 1582/6/6
f 1582/6/6 1578/6/6 1583/6/6
f 1583/6/6 1578/6/6 1584/6/6
f 1584/6/6 1578/6/6 1585/6/6
f 1585/6/6 1578/6/6 1586/6/6
f 1586/6/6 1578/6/6 1587/6/6
f 1587/6/6 1578/6/6 1588/6/6
f 1588/6/6 1578/6/6 1589/6/6
f 1589/6/6 1578/6/6 1590/6/6
f 1590/6/6 1578/6/6 1591/6/6
f 1591/6/6 1578/6/6 1592/6/6
f 1592/6/6 1578/6/6 1593/6/6
f 1593/6/6 1578/6/6 1594/6/6
f 1594/6/6 1578/6/6 1595/6/6
f 1595/6/6 1578/6/6 1596/6/6
f 1596/6/6 1578/6/6 1597/6/6
f 1597/6/6 1578/6/6 1598/6/6
f 1598/6/6 1578/6/6 1599/6/6
f 1599/6/6 1578/6/6 1600/6/6
f 1600/6/6 1578/6/6 1601/6/6
f 1580/5/6 1581/5/6 1603/5/6
f 1581/4/6 1582/4/6 1603/4/6
f 1582/5/6 1583/5/6 1604/5/6
f 1603/4/6 1582/4/6 1604/4/6
f 1583/4/6 1584/4/6 1605/4/6
f 1604/5/6 1583/5/6 1605/5/6
f 1597/4/6 1598/4/6 1606/4/6
f 1598/5/6 1599/5/6 1606/5/6
f 1599/4/6 1600/4/6 1607/4/6
f 1606/5/6 1599/5/6 1607/5/6
f 1600/5/6 1601/5/6 1608/5/6
f 1607/4/6 1600/4/6 1608/4/6
f 1605/4/6 1584/4/6 1609/4/6
f 1584/5/6 1585/5/6 1610/5/6
f 1609/4/6 1584/4/6 1610/4/6
f 1585/4/6 1586/4/6 1611/4/6
f 1610/5/6 1585/5/6 1611/5/6
f 1586/5/6 1587/5/6 1612/5/6
f 1611/4/6 1586/4/6 1612/4/6
f 1587/4/6 1588/4/6 1613/4/6
f 1612/5/6 1587/5/6 1613/5/6
f 1588/5/6 1589/5/6 1614/5/6
f 1613/4/6 1588/4/6 1614/4/6
f 1589/4/6 1590/4/6 1615/4/6
f 1614/5/6 1589/5/6 1615/5/6
f 1590/5/6 1591/5/6 1616/5/6
f 1615/4/6 1590/4/6 1616/4/6
f 1591/4/6 1592/4/6 1617/4/6
f 1616/5/6 1591/5/6 1617/5/6
f 1592/5/6 1593/5/6 1618/5/6
f 1617/4/6 1592/4/6 1618/4/6
f 1593/4/6 1594/4/6 1619/4/6
f 1618/5/6 1593/5/6 1619/5/6
f 1594/5/6 1595/5/6 1620/5/6
f 1619/4/6 1594/4/6 1620/4/6
f 1595/4/6 1596/4/6 1621/4/6
f 1620/5/6 1595/5/6 1621/5/6
f 1596/5/6 1597/5/6 1622/5/6
f 1621/4/6 1596/4/6 1622/4/6
f 1597/4/6 1606/4/6 1623/4/6
f 1622/5/6 1597/5/6 1623/5/6
f 1623/4/6 1606/4/6 1624/4/6
f 1580/5/6 1603/5/6 1625/5/6
f 1608/5/6 1601/5/6 1644/5/6
f 1579/6/6 1580/6/6 1646/6/6
f 1645/6/6 1646/6/6 1647/6/6
f 1646/6/6 1580/6/6 1648/6/6
f 1647/6/6 1646/6/6 1648/6/6
f 1580/5/6 1625/5/6 1649/5/6
f 1625/4/6 1626/4/6 1649/4/6
f 1649/4/6 1626/4/6 1650/4/6
f 1580/5/6 1649/5/6 1651/5/6
f 1627/4/6 1628/4/6 1653/4/6
f 1651/4/6 1652/4/6 1654/4/6
f 1653/4/6 1628/4/6 1655/4/6
f 1651/4/6 1654/4/6 1656/4/6
f 1655/4/6 1628/4/6 1657/4/6
f 1651/4/6 1656/4/6 1658/4/6
f 1657/4/6 1628/4/6 1659/4/6
f 1651/4/6 1658/4/6 1660/4/6
f 1659/4/6 1628/4/6 1661/4/6
f 1651/4/6 1660/4/6 1662/4/6
f 1580/5/6 1651/5/6 1662/5/6
f 1662/4/6 1660/4/6 1663/4/6
f 1661/4/6 1628/4/6 1664/4/6
f 1647/5/6 1648/5/6 1665/5/6
f 1648/6/6 1580/6/6 1666/6/6
f 1665/5/6 1648/5/6 1666/5/6
f 1580/5/6 1662/5/6 1667/5/6
f 1665/6/6 1666/6/6 1669/6/6
f 1666/6/6 1580/6/6 1670/6/6
f 1669/6/6 1666/6/6 1670/6/6
f 1667/4/6 1668/4/6 1671/4/6
f 1580/5/6 1667/5/6 1671/5/6
f 1671/4/6 1668/4/6 1672/4/6
f 1664/4/6 1628/4/6 1673/4/6
f 1628/5/6 1629/5/6 1674/5/6
f 1673/4/6 1628/4/6 1674/4/6
f 1629/4/6 1630/4/6 1675/4/6
f 1674/5/6 1629/5/6 1675/5/6
f 1630/5/6 1631/5/6 1676/5/6
f 1675/4/6 1630/4/6 1676/4/6
f 1631/4/6 1632/4/6 1677/4/6
f 1676/5/6 1631/5/6 1677/5/6
f 1632/5/6 1633/5/6 1678/5/6
f 1677/4/6 1632/4/6 1678/4/6
f 1633/4/6 1634/4/6 1679/4/6
f 1678/5/6 1633/5/6 1679/5/6
f 1634/5/6 1635/5/6 1680/5/6
f 1679/4/6 1634/4/6 1680/4/6
f 1635/4/6 1636/4/6 1681/4/6
f 1680/5/6 1635/5/6 1681/5/6
f 1636/5/6 1637/5/6 1682/5/6
f 1681/4/6 1636/4/6 1682/4/6
f 1637/4/6 1638/4/6 1683/4/6
f 1682/5/6 1637/5/6 1683/5/6
f 1638/5/6 1639/5/6 1684/5/6
f 1683/4/6 1638/4/6 1684/4/6
f 1639/4/6 1640/4/6 1685/4/6
f 1684/5/6 1639/5/6 1685/5/6
f 1640/5/6 1641/5/6 1686/5/6
f 1685/4/6 1640/4/6 1686/4/6
f 1641/4/6 1642/4/6 1687/4/6
f 1686/5/6 1641/5/6 1687/5/6
f 1687/4/6 1642/4/6 1688/4/6
f 1643/4/6 1644/4/6 1689/4/6
f 1644/5/6 1601/5/6 1690/5/6
f 1689/4/6 1644/4/6 1690/4/6
f 1580/5/6 1671/5/6 1707/5/6
f 1691/4/6 1692/4/6 1709/4/6
f 1705/4/6 1706/4/6 1710/4/6
f 1690/5/6 1601/5/6 1712/5/6
f 1670/6/6 1580/6/6 1713/6/6
f 1580/5/6 1707/5/6 1714/5/6
f 1713/6/6 1580/6/6 1714/6/6
f 1707/4/6 1708/4/6 1715/4/6
f 1714/5/6 1707/5/6 1715/5/6
f 1708/5/6 1709/5/6 1716/5/6
f 1715/4/6 1708/4/6 1716/4/6
f 1709/4/6 1692/4/6 1717/4/6
f 1716/5/6 1709/5/6 1717/5/6
f 1692/5/6 1693/5/6 1718/5/6
f 1717/4/6 1692/4/6 1718/4/6
f 1693/4/6 1694/4/6 1719/4/6
f 1718/5/6 1693/5/6 1719/5/6
f 1694/5/6 1695/5/6 1720/5/6
f 1719/4/6 1694/4/6 1720/4/6
f 1695/4/6 1696/4/6 1721/4/6
f 1720/5/6 1695/5/6 1721/5/6
f 1696/5/6 1697/5/6 1722/5/6
f 1721/4/6 1696/4/6 1722/4/6
f 1697/4/6 1698/4/6 1723/4/6
f 1722/5/6 1697/5/6 1723/5/6
f 1698/5/6 1699/5/6 1724/5/6
f 1723/4/6 1698/4/6 1724/4/6
f 1699/4/6 1700/4/6 1725/4/6
f 1724/5/6 1699/5/6 1725/5/6
f 1700/5/6 1701/5/6 1726/5/6
f 1725/4/6 1700/4/6 1726/4/6
f 1701/4/6 1702/4/6 1727/4/6
f 1726/5/6 1701/5/6 1727/5/6
f 1702/5/6 1703/5/6 1728/5/6
f 1727/4/6 1702/4/6 1728/4/6
f 1703/4/6 1704/4/6 1729/4/6
f 1728/5/6 1703/5/6 1729/5/6
f 1704/5/6 1705/5/6 1730/5/6
f 1729/4/6 1704/4/6 1730/4/6
f 1705/4/6 1710/4/6 1731/4/6
f 1730/5/6 1705/5/6 1731/5/6
f 1710/5/6 1711/5/6 1732/5/6
f 1731/4/6 1710/4/6 1732/4/6
f 1711/4/6 1712/4/6 1733/4/6
f 1732/5/6 1711/5/6 1733/5/6
f 1712/5/6 1601/5/6 1734/5/6
f 1733/4/6 1712/4/6 1734/4/6
f 1601/6/6 1602/6/6 1735/6/6
f 1734/5/6 1601/5/6 1735/5/6
f 1735/6/6 1602/6/6 1736/6/6
f 1730/6/6 1731/6/6 1737/6/6
f 1733/6/6 1734/6/6 1737/6/6
f 1734/6/6 1735/6/6 1737/6/6
f 1732/6/6 1733/6/6 1737/6/6
f 1714/6/6 1715/6/6 1737/6/6
f 1729/6/6 1730/6/6 1737/6/6
f 1715/6/6 1716/6/6 1737/6/6
f 1731/6/6 1732/6/6 1737/6/6
f 1728/6/6 1729/6/6 1737/6/6
f 1727/6/6 1728/6/6 1737/6/6
f 1726/6/6 1727/6/6 1737/6/6
f 1725/6/6 1726/6/6 1737/6/6
f 1724/6/6 1725/6/6 1737/6/6
f 1723/6/6 1724/6/6 1737/6/6
f 1722/6/6 1723/6/6 1737/6/6
f 1721/6/6 1722/6/6 1737/6/6
f 1720/6/6 1721/6/6 1737/6/6
f 1719/6/6 1720/6/6 1737/6/6
f 1718/6/6 1719/6/6 1737/6/6
f 1717/6/6 1718/6/6 1737/6/6
f 1716/6/6 1717/6/6 1737/6/6
f 1737/6/6 1735/6/6 1738/6/6
f 1739/6/6 1740/6/6 1741/6/6
f 1741/6/6 1740/6/6 1742/6/6
f 1743/6/6 1744/6/6 1745/6/6
f 1745/6/6 1744/6/6 1746/6/6
f 1747/6/6 1748/6/6 1749/6/6
f 1749/6/6 1748/6/6 1750/6/6
f 1751/6/6 1752/6/6 1753/6/6
f 1753/6/6 1752/6/6 1754/6/6
f 1755/6/6 1756/6/6 1757/6/6
f 1757/6/6 1756/6/6 1758/6/6
f 1759/11/6 1760/11/6 1763/11/6
f 1760/7/6 1761/7/6 1764/7/6
f 1763/11/6 1760/11/6 1764/11/6
f 1764/7/6 1761/7/6 1765/7/6
f 1765/7/6 1761/7/6 1766/7/6
f 1766/7/6 1761/7/6 1767/7/6
f 1767/7/6 1761/7/6 1768/7/6
f 1768/7/6 1761/7/6 1769/7/6
f 1761/11/6 1762/11/6 1770/11/6
f 1769/7/6 1761/7/6 1770/7/6
f 1770/11/6 1762/11/6 1771/11/6
f 1763/7/6 1764/7/6 1772/7/6
f 1770/7/6 1771/7/6 1773/7/6
f 1763/7/6 1772/7/6 1774/7/6
f 1773/7/6 1771/7/6 1775/7/6
f 1763/7/6 1774/7/6 1776/7/6
f 1776/7/6 1774/7/6 1777/7/6
f 1775/7/6 1771/7/6 1780/7/6
f 1780/7/6 1771/7/6 1781/7/6
f 1776/11/6 1777/11/6 1782/11/6
f 1778/7/6 1779/7/6 1783/7/6
f 1782/11/6 1777/11/6 1783/11/6
f 1777/7/6 1778/7/6 1783/7/6
f 1779/7/6 1780/7/6 1783/7/6
f 1780/11/6 1781/11/6 1784/11/6
f 1783/7/6 1780/7/6 1784/7/6
f 1784/11/6 1781/11/6 1785/11/6
f 1786/11/6 1787/11/6 1792/11/6
f 1787/6/6 1788/6/6 1793/6/6
f 1792/11/6 1787/11/6 1793/11/6
f 1793/6/6 1788/6/6 1794/6/6
f 1794/6/6 1788/6/6 1795/6/6
f 1789/6/6 1790/6/6 1798/6/6
f 1798/6/6 1790/6/6 1799/6/6
f 1790/11/6 1791/11/6 1800/11/6
f 1799/6/6 1790/6/6 1800/6/6
f 1800/11/6 1791/11/6 1801/11/6
f 1792/6/6 1793/6/6 1802/6/6
f 1796/7/6 1797/7/6 1803/7/6
f 1803/7/6 1797/7/6 1804/7/6
f 1800/6/6 1801/6/6 1805/6/6
f 1805/6/6 1801/6/6 1806/6/6
f 1806/6/6 1801/6/6 1807/6/6
f 1808/7/6 1809/7/6 1811/7/6
f 1811/7/6 1809/7/6 1812/7/6
f 1812/7/6 1809/7/6 1813/7/6
f 1809/6/6 1810/6/6 1814/6/6
f 1813/7/6 1809/7/6 1814/7/6
f 1814/6/6 1810/6/6 1815/6/6
f 1792/6/6 1802/6/6 1822/6/6
f 1816/6/6 1817/6/6 1823/6/6
f 1792/6/6 1822/6/6 1824/6/6
f 1824/6/6 1822/6/6 1825/6/6
f 1820/7/6 1821/7/6 1828/7/6
f 1818/7/6 1819/7/6 1828/7/6
f 1819/7/6 1820/7/6 1828/7/6
f 1828/7/6 1821/7/6 1829/7/6
f 1823/6/6 1817/6/6 1832/6/6
f 1832/6/6 1817/6/6 1833/6/6
f 1824/11/6 1825/11/6 1834/11/6
f 1826/6/6 1827/6/6 1835/6/6
f 1834/11/6 1825/11/6 1835/11/6
f 1825/6/6 1826/6/6 1835/6/6
f 1835/6/6 1827/6/6 1836/6/6
f 1828/6/6 1829/6/6 1837/6/6
f 1837/6/6 1829/6/6 1838/6/6
f 1830/6/6 1831/6/6 1839/6/6
f 1831/6/6 1832/6/6 1839/6/6
f 1832/11/6 1833/11/6 1840/11/6
f 1839/6/6 1832/6/6 1840/6/6
f 1840/11/6 1833/11/6 1841/11/6
f 1842/11/6 1843/11/6 1848/11/6
f 1843/7/6 1844/7/6 1849/7/6
f 1848/11/6 1843/11/6 1849/11/6
f 1849/7/6 1844/7/6 1850/7/6
f 1850/7/6 1844/7/6 1851/7/6
f 1845/7/6 1846/7/6 1852/7/6
f 1852/7/6 1846/7/6 1853/7/6
f 1846/11/6 1847/11/6 1854/11/6
f 1853/7/6 1846/7/6 1854/7/6
f 1854/11/6 1847/11/6 1855/11/6
f 1848/7/6 1849/7/6 1856/7/6
f 1854/7/6 1855/7/6 1857/7/6
f 1857/7/6 1855/7/6 1858/7/6
f 1858/7/6 1855/7/6 1859/7/6
f 1859/6/6 1860/6/6 1861/6/6
f 1861/6/6 1860/6/6 1862/6/6
f 1863/6/6 1864/6/6 1866/6/6
f 1866/6/6 1864/6/6 1867/6/6
f 1848/7/6 1856/7/6 1868/7/6
f 1865/7/6 1866/7/6 1869/7/6
f 1848/7/6 1868/7/6 1870/7/6
f 1870/7/6 1868/7/6 1871/7/6
f 1869/7/6 1866/7/6 1876/7/6
f 1876/7/6 1866/7/6 1877/7/6
f 1870/11/6 1871/11/6 1878/11/6
f 1871/7/6 1872/7/6 1879/7/6
f 1878/11/6 1871/11/6 1879/11/6
f 1872/7/6 1873/7/6 1879/7/6
f 1879/7/6 1873/7/6 1880/7/6
f 1874/7/6 1875/7/6 1883/7/6
f 1875/7/6 1876/7/6 1883/7/6
f 1876/11/6 1877/11/6 1884/11/6
f 1883/7/6 1876/7/6 1884/7/6
f 1884/11/6 1877/11/6 1885/11/6
f 1880/6/6 1881/6/6 1886/6/6
f 1886/6/6 1881/6/6 1887/6/6
f 1882/6/6 1883/6/6 1888/6/6
f 1888/6/6 1883/6/6 1889/6/6
f 1890/11/6 1891/11/6 1896/11/6
f 1891/6/6 1892/6/6 1897/6/6
f 1896/11/6 1891/11/6 1897/11/6
f 1897/6/6 1892/6/6 1898/6/6
f 1898/6/6 1892/6/6 1899/6/6
f 1893/6/6 1894/6/6 1900/6/6
f 1900/6/6 1894/6/6 1901/6/6
f 1894/11/6 1895/11/6 1902/11/6
f 1901/6/6 1894/6/6 1902/6/6
f 1902/11/6 1895/11/6 1903/11/6
f 1896/6/6 1897/6/6 1904/6/6
f 1902/6/6 1903/6/6 1905/6/6
f 1905/6/6 1903/6/6 1906/6/6
f 1906/6/6 1903/6/6 1907/6/6
f 1896/6/6 1904/6/6 1910/6/6
f 1908/6/6 1909/6/6 1911/6/6
f 1896/6/6 1910/6/6 1912/6/6
f 1912/6/6 1910/6/6 1913/6/6
f 1911/6/6 1909/6/6 1918/6/6
f 1918/6/6 1909/6/6 1919/6/6
f 1912/11/6 1913/11/6 1920/11/6
f 1913/6/6 1914/6/6 1921/6/6
f 1920/11/6 1913/11/6 1921/11/6
f 1914/6/6 1915/6/6 1921/6/6
f 1921/6/6 1915/6/6 1922/6/6
f 1916/6/6 1917/6/6 1923/6/6
f 1917/6/6 1918/6/6 1923/6/6
f 1918/11/6 1919/11/6 1924/11/6
f 1923/6/6 1918/6/6 1924/6/6
f 1924/11/6 1919/11/6 1925/11/6
f 1926/11/6 1927/11/6 1932/11/6
f 1927/7/6 1928/7/6 1933/7/6
f 1932/11/6 1927/11/6 1933/11/6
f 1928/7/6 1929/7/6 1933/7/6
f 1929/7/6 1930/7/6 1933/7/6
f 1933/7/6 1930/7/6 1934/7/6
f 1934/7/6 1930/7/6 1935/7/6
f 1930/11/6 1931/11/6 1936/11/6
f 1935/7/6 1930/7/6 1936/7/6
f 1936/11/6 1931/11/6 1937/11/6
f 1932/7/6 1933/7/6 1938/7/6
f 1936/7/6 1937/7/6 1939/7/6
f 1939/7/6 1937/7/6 1940/7/6
f 1939/7/6 1940/7/6 1942/7/6
f 1940/6/6 1941/6/6 1943/6/6
f 1942/7/6 1940/7/6 1943/7/6
f 1943/6/6 1941/6/6 1944/6/6
f 1945/7/6 1946/7/6 1948/7/6
f 1946/6/6 1947/6/6 1948/6/6
f 1948/6/6 1947/6/6 1949/6/6
f 1932/7/6 1938/7/6 1950/7/6
f 1945/7/6 1948/7/6 1951/7/6
f 1932/7/6 1950/7/6 1952/7/6
f 1952/7/6 1950/7/6 1953/7/6
f 1951/7/6 1948/7/6 1958/7/6
f 1958/7/6 1948/7/6 1959/7/6
f 1952/11/6 1953/11/6 1960/11/6
f 1953/7/6 1954/7/6 1961/7/6
f 1960/11/6 1953/11/6 1961/11/6
f 1954/7/6 1955/7/6 1961/7/6
f 1961/7/6 1955/7/6 1962/7/6
f 1962/7/6 1955/7/6 1963/7/6
f 1956/7/6 1957/7/6 1964/7/6
f 1957/7/6 1958/7/6 1964/7/6
f 1964/7/6 1958/7/6 1965/7/6
f 1958/11/6 1959/11/6 1966/11/6
f 1965/7/6 1958/7/6 1966/7/6
f 1966/11/6 1959/11/6 1967/11/6
f 1962/6/6 1963/6/6 1968/6/6
f 1968/6/6 1963/6/6 1969/6/6
f 1964/6/6 1965/6/6 1970/6/6
f 1970/6/6 1965/6/6 1971/6/6
f 1972/11/6 1973/11/6 1976/11/6
f 1973/6/6 1974/6/6 1977/6/6
f 1976/11/6 1973/11/6 1977/11/6
f 1977/6/6 1974/6/6 1978/6/6
f 1978/6/6 1974/6/6 1979/6/6
f 1974/11/6 1975/11/6 1980/11/6
f 1979/6/6 1974/6/6 1980/6/6
f 1980/11/6 1975/11/6 1981/11/6
f 1976/6/6 1977/6/6 1982/6/6
f 1980/6/6 1981/6/6 1983/6/6
f 1983/6/6 1981/6/6 1984/6/6
f 1983/6/6 1984/6/6 1986/6/6
f 1984/6/6 1985/6/6 1986/6/6
f 1986/6/6 1985/6/6 1987/6/6
f 1976/6/6 1982/6/6 1988/6/6
f 1983/6/6 1986/6/6 1989/6/6
f 1976/6/6 1988/6/6 1990/6/6
f 1990/6/6 1988/6/6 1991/6/6
f 1989/6/6 1986/6/6 1994/6/6
f 1994/6/6 1986/6/6 1995/6/6
f 1990/11/6 1991/11/6 1996/11/6
f 1992/6/6 1993/6/6 1997/6/6
f 1996/11/6 1991/11/6 1997/11/6
f 1991/6/6 1992/6/6 1997/6/6
f 1993/6/6 1994/6/6 1997/6/6
f 1997/6/6 1994/6/6 1998/6/6
f 1998/6/6 1994/6/6 1999/6/6
f 1994/11/6 1995/11/6 2000/11/6
f 1999/6/6 1994/6/6 2000/6/6
f 2000/11/6 1995/11/6 2001/11/6
f 1998/6/6 1999/6/6 2002/6/6
f 2002/6/6 1999/6/6 2003/6/6
f 2004/11/6 2005/11/6 2008/11/6
f 2005/7/6 2006/7/6 2009/7/6
f 2008/11/6 2005/11/6 2009/11/6
f 2009/7/6 2006/7/6 2010/7/6
f 2010/7/6 2006/7/6 2011/7/6
f 2006/11/6 2007/11/6 2012/11/6
f 2011/7/6 2006/7/6 2012/7/6
f 2012/11/6 2007/11/6 2013/11/6
f 2008/7/6 2009/7/6 2014/7/6
f 2012/7/6 2013/7/6 2015/7/6
f 2008/7/6 2014/7/6 2016/7/6
f 2015/7/6 2013/7/6 2017/7/6
f 2008/7/6 2016/7/6 2018/7/6
f 2018/7/6 2016/7/6 2019/7/6
f 2017/7/6 2013/7/6 2022/7/6
f 2022/7/6 2013/7/6 2023/7/6
f 2018/11/6 2019/11/6 2024/11/6
f 2020/7/6 2021/7/6 2025/7/6
f 2024/11/6 2019/11/6 2025/11/6
f 2019/7/6 2020/7/6 2025/7/6
f 2021/7/6 2022/7/6 2025/7/6
f 2022/11/6 2023/11/6 2026/11/6
f 2025/7/6 2022/7/6 2026/7/6
f 2026/11/6 2023/11/6 2027/11/6
f 2028/13/6 2029/13/6 2030/13/6
f 2030/13/6 2029/13/6 2031/13/6
f 2032/11/6 2033/11/6 2036/11/6
f 2033/6/6 2034/6/6 2037/6/6
f 2036/11/6 2033/11/6 2037/11/6
f 2037/6/6 2034/6/6 2038/6/6
f 2038/6/6 2034/6/6 2039/6/6
f 2034/11/6 2035/11/6 2040/11/6
f 2039/6/6 2034/6/6 2040/6/6
f 2040/11/6 2035/11/6 2041/11/6
f 2036/6/6 2037/6/6 2042/6/6
f 2037/6/6 2038/6/6 2042/6/6
f 2038/10/6 2039/10/6 2043/10/6
f 2042/6/6 2038/6/6 2043/6/6
f 2040/6/6 2041/6/6 2044/6/6
f 2043/10/6 2039/10/6 2044/10/6
f 2039/6/6 2040/6/6 2044/6/6
f 2044/6/6 2041/6/6 2045/6/6
f 2036/6/6 2042/6/6 2046/6/6
f 2042/10/6 2043/10/6 2046/10/6
f 2044/10/6 2045/10/6 2046/10/6
f 2043/10/6 2044/10/6 2046/10/6
f 2046/10/6 2045/10/6 2047/10/6
f 2047/10/6 2045/10/6 2048/10/6
f 2045/6/6 2041/6/6 2049/6/6
f 2048/10/6 2045/10/6 2049/10/6
f 2036/6/6 2046/6/6 2050/6/6
f 2046/6/6 2047/6/6 2050/6/6
f 2050/6/6 2047/6/6 2051/6/6
f 2047/10/6 2048/10/6 2052/10/6
f 2051/6/6 2047/6/6 2052/6/6
f 2048/6/6 2049/6/6 2053/6/6
f 2052/10/6 2048/10/6 2053/10/6
f 2049/6/6 2041/6/6 2054/6/6
f 2053/6/6 2049/6/6 2054/6/6
f 2054/6/6 2041/6/6 2055/6/6
f 2050/11/6 2051/11/6 2056/11/6
f 2052/6/6 2053/6/6 2057/6/6
f 2056/11/6 2051/11/6 2057/11/6
f 2051/6/6 2052/6/6 2057/6/6
f 2053/6/6 2054/6/6 2057/6/6
f 2054/11/6 2055/11/6 2058/11/6
f 2057/6/6 2054/6/6 2058/6/6
f 2058/11/6 2055/11/6 2059/11/6
f 2060/14/6 2061/14/6 2062/14/6
f 2062/14/6 2061/14/6 2063/14/6
f 2060/14/6 2062/14/6 2064/14/6
f 2063/14/6 2061/14/6 2065/14/6
f 2065/14/6 2061/14/6 2066/14/6
f 2060/14/6 2064/14/6 2067/14/6
f 2064/14/6 2065/14/6 2067/14/6
f 2065/14/6 2066/14/6 2067/14/6
f 2067/14/6 2066/14/6 2068/14/6
f 2068/14/6 2066/14/6 2069/14/6
f 2069/14/6 2066/14/6 2070/14/6
f 2071/10/6 2072/10/6 2075/10/6
f 2072/11/6 2073/11/6 2076/11/6
f 2075/10/6 2072/10/6 2076/10/6
f 2076/11/6 2073/11/6 2077/11/6
f 2074/11/6 2075/11/6 2079/11/6
f 2079/11/6 2075/11/6 2080/11/6
f 2077/11/6 2078/11/6 2082/11/6
f 2082/11/6 2078/11/6 2083/11/6
f 2080/11/6 2081/11/6 2084/11/6
f 2081/12/6 2082/12/6 2085/12/6
f 2084/11/6 2081/11/6 2085/11/6
f 2085/12/6 2082/12/6 2086/12/6
f 2087/9/6 2088/9/6 2090/9/6
f 2090/9/6 2088/9/6 2091/9/6
f 2089/9/6 2090/9/6 2093/9/6
f 2093/9/6 2090/9/6 2094/9/6
f 2091/9/6 2092/9/6 2095/9/6
f 2095/9/6 2092/9/6 2096/9/6
f 2094/9/6 2095/9/6 2097/9/6
f 2097/9/6 2095/9/6 2098/9/6
f 2099/9/6 2100/9/6 2101/9/6
f 2101/9/6 2100/9/6 2102/9/6
f 2103/9/6 2104/9/6 2106/9/6
f 2106/9/6 2104/9/6 2107/9/6
f 2105/9/6 2106/9/6 2109/9/6
f 2109/9/6 2106/9/6 2110/9/6
f 2107/9/6 2108/9/6 2111/9/6
f 2111/9/6 2108/9/6 2112/9/6
f 2110/9/6 2111/9/6 2113/9/6
f 2113/9/6 2111/9/6 2114/9/6
f 2115/9/6 2116/9/6 2118/9/6
f 2118/9/6 2116/9/6 2119/9/6
f 2117/9/6 2118/9/6 2121/9/6
f 2121/9/6 2118/9/6 2122/9/6
f 2119/9/6 2120/9/6 2123/9/6
f 2123/9/6 2120/9/6 2124/9/6
f 2122/9/6 2123/9/6 2125/9/6
f 2125/9/6 2123/9/6 2126/9/6
f 2127/9/6 2128/9/6 2129/9/6
f 2129/9/6 2128/9/6 2130/9/6
f 2131/9/6 2132/9/6 2133/9/6
f 2133/9/6 2132/9/6 2134/9/6
