# MagicaVoxel @ Ephtracy

# group
o 

# material
mtllib granjafinal_arbol.mtl
usemtl palette

# normals
vn -1 0 0
vn 1 0 0
vn 0 0 1
vn 0 0 -1
vn 0 -1 0
vn 0 1 0

# texcoords
vt 0.287109 0.5
vt 0.291016 0.5
vt 0.294922 0.5
vt 0.318359 0.5
vt 0.380859 0.5
vt 0.384766 0.5
vt 0.388672 0.5
vt 0.451172 0.5
vt 0.724609 0.5
vt 0.728516 0.5

# verts
v 2.1 4.8 -4.9
v 2.1 4.8 -5
v 2.1 4.9 -4.9
v 2.1 4.9 -5
v 2.2 4.8 -4.7
v 2.2 4.8 -4.9
v 2.2 4.9 -4.7
v 2.2 4.9 -4.9
v 2.3 4.8 -3.5
v 2.3 4.8 -3.6
v 2.3 4.8 -4.6
v 2.3 4.8 -4.7
v 2.3 4.9 -3.5
v 2.3 4.9 -3.6
v 2.3 4.9 -4.6
v 2.3 4.9 -4.7
v 2.3 4.9 -4.8
v 2.3 5 -4.6
v 2.3 5 -4.7
v 2.3 5 -4.8
v 2.3 5.7 -4.1
v 2.3 5.7 -4.3
v 2.3 5.8 -3.9
v 2.3 5.8 -4
v 2.3 5.8 -4.1
v 2.3 5.8 -4.3
v 2.3 5.8 -4.4
v 2.3 5.9 -3.9
v 2.3 5.9 -4
v 2.3 6 -4
v 2.3 6 -4.1
v 2.3 6 -4.3
v 2.3 6 -4.4
v 2.3 6.1 -4.1
v 2.3 6.1 -4.3
v 2.3 6.2 -4
v 2.3 6.2 -4.2
v 2.3 6.3 -3.9
v 2.3 6.3 -4
v 2.3 6.3 -4.2
v 2.3 6.3 -4.3
v 2.3 6.5 -3.9
v 2.3 6.5 -4
v 2.3 6.5 -4.2
v 2.3 6.5 -4.3
v 2.3 6.6 -4
v 2.3 6.6 -4.2
v 2.4 4.8 -3.6
v 2.4 4.8 -3.7
v 2.4 4.8 -3.8
v 2.4 4.8 -3.9
v 2.4 4.8 -4
v 2.4 4.8 -4.4
v 2.4 4.8 -4.6
v 2.4 4.9 -3.6
v 2.4 4.9 -3.7
v 2.4 4.9 -3.8
v 2.4 4.9 -3.9
v 2.4 4.9 -4
v 2.4 4.9 -4.4
v 2.4 4.9 -4.5
v 2.4 4.9 -4.6
v 2.4 5 -3.6
v 2.4 5 -3.8
v 2.4 5 -4.4
v 2.4 5 -4.5
v 2.4 5.6 -4.1
v 2.4 5.6 -4.3
v 2.4 5.7 -4
v 2.4 5.7 -4.1
v 2.4 5.7 -4.3
v 2.4 5.7 -4.4
v 2.4 5.8 -3.8
v 2.4 5.8 -3.9
v 2.4 5.8 -4
v 2.4 5.8 -4.1
v 2.4 5.8 -4.3
v 2.4 5.8 -4.4
v 2.4 5.8 -4.5
v 2.4 5.9 -3.6
v 2.4 5.9 -3.7
v 2.4 5.9 -3.8
v 2.4 5.9 -3.9
v 2.4 5.9 -4
v 2.4 6 -3.6
v 2.4 6 -3.7
v 2.4 6 -4
v 2.4 6 -4.1
v 2.4 6 -4.3
v 2.4 6 -4.4
v 2.4 6 -4.5
v 2.4 6.1 -3.7
v 2.4 6.1 -3.8
v 2.4 6.1 -3.9
v 2.4 6.1 -4.1
v 2.4 6.1 -4.3
v 2.4 6.1 -4.4
v 2.4 6.1 -4.5
v 2.4 6.2 -3.8
v 2.4 6.2 -3.9
v 2.4 6.2 -4
v 2.4 6.2 -4.2
v 2.4 6.2 -4.3
v 2.4 6.2 -4.4
v 2.4 6.3 -3.9
v 2.4 6.3 -4
v 2.4 6.3 -4.2
v 2.4 6.3 -4.3
v 2.4 6.5 -3.9
v 2.4 6.5 -4
v 2.4 6.5 -4.2
v 2.4 6.5 -4.3
v 2.4 6.6 -3.8
v 2.4 6.6 -3.9
v 2.4 6.6 -4
v 2.4 6.6 -4.2
v 2.4 6.6 -4.3
v 2.4 6.6 -4.4
v 2.4 6.7 -3.9
v 2.4 6.7 -4.3
v 2.5 4.8 -3.8
v 2.5 4.8 -3.9
v 2.5 4.8 -4
v 2.5 4.8 -4.1
v 2.5 4.9 -3.8
v 2.5 4.9 -3.9
v 2.5 4.9 -4
v 2.5 4.9 -4.1
v 2.5 4.9 -4.2
v 2.5 4.9 -4.3
v 2.5 4.9 -4.4
v 2.5 4.9 -4.5
v 2.5 4.9 -4.6
v 2.5 5 -3.8
v 2.5 5 -3.9
v 2.5 5 -4.1
v 2.5 5 -4.2
v 2.5 5 -4.4
v 2.5 5 -4.5
v 2.5 5 -4.6
v 2.5 5.1 -4
v 2.5 5.1 -4.1
v 2.5 5.1 -4.3
v 2.5 5.1 -4.4
v 2.5 5.1 -4.5
v 2.5 5.6 -4
v 2.5 5.6 -4.1
v 2.5 5.6 -4.3
v 2.5 5.6 -4.4
v 2.5 5.7 -3.8
v 2.5 5.7 -4
v 2.5 5.7 -4.1
v 2.5 5.7 -4.3
v 2.5 5.7 -4.4
v 2.5 5.7 -4.5
v 2.5 5.8 -3.7
v 2.5 5.8 -3.8
v 2.5 5.8 -4
v 2.5 5.8 -4.4
v 2.5 5.8 -4.5
v 2.5 5.9 -3.7
v 2.5 5.9 -3.8
v 2.5 6 -3.6
v 2.5 6 -3.7
v 2.5 6.1 -3.6
v 2.5 6.1 -3.7
v 2.5 6.1 -3.8
v 2.5 6.1 -4.3
v 2.5 6.1 -4.4
v 2.5 6.2 -3.7
v 2.5 6.2 -3.8
v 2.5 6.2 -4.3
v 2.5 6.2 -4.4
v 2.5 6.3 -3.7
v 2.5 6.3 -3.8
v 2.5 6.3 -4.4
v 2.5 6.3 -4.5
v 2.5 6.5 -3.7
v 2.5 6.5 -3.8
v 2.5 6.5 -4.4
v 2.5 6.5 -4.5
v 2.5 6.6 -3.8
v 2.5 6.6 -3.9
v 2.5 6.6 -4.3
v 2.5 6.6 -4.4
v 2.5 6.7 -3.8
v 2.5 6.7 -3.9
v 2.5 6.7 -4
v 2.5 6.7 -4.2
v 2.5 6.7 -4.3
v 2.5 6.7 -4.4
v 2.5 6.8 -4
v 2.5 6.8 -4.2
v 2.6 4.8 -4.1
v 2.6 4.8 -4.3
v 2.6 4.8 -4.4
v 2.6 4.9 -3.9
v 2.6 4.9 -4
v 2.6 4.9 -4.1
v 2.6 4.9 -4.2
v 2.6 4.9 -4.3
v 2.6 4.9 -4.4
v 2.6 5 -3.9
v 2.6 5 -4.1
v 2.6 5 -4.2
v 2.6 5 -4.5
v 2.6 5 -4.6
v 2.6 5.1 -3.9
v 2.6 5.1 -4
v 2.6 5.1 -4.1
v 2.6 5.1 -4.2
v 2.6 5.1 -4.3
v 2.6 5.1 -4.4
v 2.6 5.1 -4.5
v 2.6 5.2 -4
v 2.6 5.2 -4.1
v 2.6 5.2 -4.2
v 2.6 5.2 -4.3
v 2.6 5.2 -4.4
v 2.6 5.2 -4.5
v 2.6 5.2 -4.6
v 2.6 5.3 -4.1
v 2.6 5.3 -4.2
v 2.6 5.3 -4.4
v 2.6 5.3 -4.5
v 2.6 5.4 -4
v 2.6 5.4 -4.1
v 2.6 5.5 -4
v 2.6 5.5 -4.1
v 2.6 5.5 -4.2
v 2.6 5.5 -4.3
v 2.6 5.6 -4
v 2.6 5.6 -4.2
v 2.6 5.6 -4.3
v 2.6 5.7 -3.7
v 2.6 5.7 -3.8
v 2.6 5.8 -3.6
v 2.6 5.8 -3.7
v 2.6 5.8 -3.8
v 2.6 5.9 -3.6
v 2.6 5.9 -3.7
v 2.6 6.1 -3.6
v 2.6 6.1 -3.7
v 2.6 6.1 -4.4
v 2.6 6.1 -4.5
v 2.6 6.2 -3.6
v 2.6 6.2 -3.7
v 2.6 6.2 -3.8
v 2.6 6.2 -4.5
v 2.6 6.2 -4.6
v 2.6 6.3 -3.7
v 2.6 6.3 -3.8
v 2.6 6.3 -4.4
v 2.6 6.3 -4.5
v 2.6 6.4 -4.5
v 2.6 6.4 -4.6
v 2.6 6.5 -3.7
v 2.6 6.5 -3.8
v 2.6 6.5 -4.4
v 2.6 6.5 -4.5
v 2.6 6.6 -3.7
v 2.6 6.6 -3.8
v 2.6 6.6 -4.4
v 2.6 6.6 -4.5
v 2.6 6.7 -3.9
v 2.6 6.7 -4
v 2.6 6.7 -4.2
v 2.6 6.7 -4.3
v 2.6 6.8 -3.9
v 2.6 6.8 -4
v 2.6 6.8 -4.2
v 2.6 6.8 -4.3
v 2.7 4.9 -3.8
v 2.7 4.9 -3.9
v 2.7 5 -3.8
v 2.7 5 -3.9
v 2.7 5.1 -3.9
v 2.7 5.1 -4
v 2.7 5.2 -3.9
v 2.7 5.2 -4
v 2.7 5.2 -4.1
v 2.7 5.3 -4.1
v 2.7 5.3 -4.2
v 2.7 5.3 -4.3
v 2.7 5.3 -4.4
v 2.7 5.3 -4.5
v 2.7 5.4 -4
v 2.7 5.4 -4.1
v 2.7 5.4 -4.2
v 2.7 5.4 -4.3
v 2.7 5.4 -4.4
v 2.7 5.4 -4.5
v 2.7 5.5 -4.1
v 2.7 5.5 -4.2
v 2.7 5.5 -4.3
v 2.7 5.6 -4.3
v 2.7 5.6 -4.4
v 2.7 5.7 -3.6
v 2.7 5.7 -3.7
v 2.7 5.8 -3.6
v 2.7 5.8 -3.7
v 2.7 5.8 -4.5
v 2.7 5.8 -4.6
v 2.7 5.9 -4.5
v 2.7 5.9 -4.6
v 2.7 6.1 -4.5
v 2.7 6.1 -4.6
v 2.7 6.2 -4.5
v 2.7 6.2 -4.6
v 2.7 6.2 -4.7
v 2.7 6.4 -4.5
v 2.7 6.4 -4.6
v 2.7 6.4 -4.7
v 2.7 6.5 -4.5
v 2.7 6.5 -4.6
v 2.8 4.8 -3.9
v 2.8 4.8 -4
v 2.8 4.9 -3.9
v 2.8 4.9 -4
v 2.8 5.2 -3.9
v 2.8 5.2 -4
v 2.8 5.4 -3.9
v 2.8 5.4 -4
v 2.8 5.6 -4.3
v 2.8 5.6 -4.4
v 2.8 5.7 -4.3
v 2.8 5.7 -4.4
v 2.8 5.7 -4.5
v 2.8 5.8 -4.4
v 2.8 5.8 -4.5
v 2.8 5.9 -4.5
v 2.8 5.9 -4.6
v 2.8 6 -4.5
v 2.8 6 -4.6
v 2.8 6.1 -4.5
v 2.8 6.1 -4.6
v 2.8 6.1 -4.7
v 2.8 6.2 -4.6
v 2.8 6.2 -4.7
v 2.8 6.4 -4.6
v 2.8 6.4 -4.7
v 2.8 6.5 -4.5
v 2.8 6.5 -4.6
v 2.8 6.5 -4.7
v 2.8 6.6 -4.5
v 2.8 6.6 -4.6
v 2.9 4.8 -4.2
v 2.9 4.8 -4.5
v 2.9 4.9 -4.2
v 2.9 4.9 -4.3
v 2.9 4.9 -4.4
v 2.9 4.9 -4.5
v 2.9 5.2 -4.4
v 2.9 5.2 -4.5
v 2.9 5.4 -4
v 2.9 5.4 -4.1
v 2.9 5.4 -4.4
v 2.9 5.4 -4.5
v 2.9 5.5 -4
v 2.9 5.5 -4.1
v 2.9 5.6 -4
v 2.9 5.6 -4.1
v 2.9 5.7 -4
v 2.9 5.7 -4.1
v 2.9 5.7 -4.5
v 2.9 5.7 -4.6
v 2.9 5.7 -4.7
v 2.9 5.8 -4.5
v 2.9 5.8 -4.6
v 2.9 5.8 -4.7
v 2.9 5.9 -4.6
v 2.9 5.9 -4.7
v 2.9 6 -4.6
v 2.9 6.1 -4.6
v 2.9 6.1 -4.7
v 3 4.9 -3.9
v 3 4.9 -4
v 3 5.1 -4.4
v 3 5.1 -4.5
v 3 5.2 -4.4
v 3 5.2 -4.5
v 3 5.3 -3.9
v 3 5.3 -4
v 3 5.6 -4.1
v 3 5.6 -4.2
v 3 5.6 -4.4
v 3 5.6 -4.5
v 3 5.7 -4.1
v 3 5.7 -4.2
v 3 5.7 -4.4
v 3 5.7 -4.5
v 3 5.8 -4.6
v 3 5.8 -4.7
v 3 5.9 -4.6
v 3 5.9 -4.7
v 3.1 4.8 -3.8
v 3.1 4.8 -4
v 3.1 4.8 -4.5
v 3.1 4.8 -4.7
v 3.1 4.9 -3.9
v 3.1 4.9 -4
v 3.1 5 -4.5
v 3.1 5 -4.6
v 3.1 5 -4.7
v 3.1 5.1 -3.8
v 3.1 5.1 -3.9
v 3.1 5.2 -4.5
v 3.1 5.2 -4.6
v 3.2 4.8 -3.7
v 3.2 4.8 -3.8
v 3.2 4.8 -4.7
v 3.2 4.8 -4.8
v 3.2 4.9 -4.7
v 3.2 4.9 -4.8
v 3.2 5 -3.7
v 3.2 5 -3.8
v 3.2 5.7 -3.9
v 3.2 5.7 -4
v 3.2 5.8 -3.9
v 3.2 5.8 -4
v 3.3 4.8 -3.6
v 3.3 4.8 -3.7
v 3.3 4.9 -3.6
v 3.3 4.9 -3.7
v 3.3 5 -3.7
v 3.3 5 -3.8
v 3.3 5.1 -3.7
v 3.3 5.1 -3.8
v 3.4 4.8 -3.5
v 3.4 4.8 -3.6
v 3.4 4.9 -3.5
v 3.4 4.9 -3.6
v 2.2 4.8 -4.9
v 2.2 4.8 -5
v 2.2 4.9 -4.9
v 2.2 4.9 -5
v 2.3 4.8 -4.8
v 2.3 4.8 -4.9
v 2.3 4.9 -4.8
v 2.3 4.9 -4.9
v 2.4 4.8 -4.7
v 2.4 4.8 -4.8
v 2.4 4.9 -4.7
v 2.4 5 -4.7
v 2.4 5 -4.8
v 2.5 4.8 -3.5
v 2.5 4.8 -3.6
v 2.5 4.9 -3.5
v 2.5 4.9 -3.6
v 2.5 4.9 -3.7
v 2.5 5 -3.6
v 2.5 5 -3.7
v 2.6 4.8 -3.6
v 2.6 4.8 -3.7
v 2.6 4.8 -3.8
v 2.6 4.8 -4.5
v 2.6 4.8 -4.7
v 2.6 4.9 -3.6
v 2.6 4.9 -3.7
v 2.6 4.9 -3.8
v 2.6 4.9 -3.9
v 2.6 4.9 -4.5
v 2.6 4.9 -4.6
v 2.6 5 -3.7
v 2.6 5 -3.9
v 2.6 5 -4.6
v 2.6 5 -4.7
v 2.7 4.8 -3.9
v 2.7 4.8 -4
v 2.7 4.8 -4.3
v 2.7 4.8 -4.5
v 2.7 4.9 -3.9
v 2.7 4.9 -4
v 2.7 4.9 -4.3
v 2.7 4.9 -4.4
v 2.7 4.9 -4.5
v 2.7 4.9 -4.6
v 2.7 5 -4.5
v 2.7 5.1 -4.5
v 2.7 5.1 -4.6
v 2.7 5.5 -4
v 2.7 5.5 -4.1
v 2.7 5.6 -4
v 2.7 5.6 -4.1
v 2.7 5.6 -4.3
v 2.7 5.6 -4.4
v 2.7 5.7 -4.3
v 2.7 5.7 -4.4
v 2.7 5.7 -4.5
v 2.7 5.8 -4.4
v 2.7 5.8 -4.5
v 2.8 4.8 -3.8
v 2.8 4.8 -3.9
v 2.8 4.8 -4.2
v 2.8 4.8 -4.3
v 2.8 4.9 -3.8
v 2.8 4.9 -3.9
v 2.8 4.9 -4
v 2.8 4.9 -4.2
v 2.8 4.9 -4.3
v 2.8 5 -3.8
v 2.8 5 -3.9
v 2.8 5 -4
v 2.8 5.1 -4.4
v 2.8 5.1 -4.5
v 2.8 5.1 -4.6
v 2.8 5.2 -3.9
v 2.8 5.2 -4
v 2.8 5.2 -4.4
v 2.8 5.2 -4.5
v 2.8 5.2 -4.6
v 2.8 5.4 -4
v 2.8 5.4 -4.1
v 2.8 5.4 -4.4
v 2.8 5.4 -4.5
v 2.8 5.5 -4
v 2.8 5.5 -4.1
v 2.8 5.6 -4
v 2.8 5.6 -4.1
v 2.8 5.7 -3.6
v 2.8 5.7 -3.7
v 2.8 5.7 -3.8
v 2.8 5.7 -4
v 2.8 5.7 -4.1
v 2.8 5.8 -3.6
v 2.8 5.8 -3.7
v 2.8 5.8 -3.8
v 2.8 5.9 -3.6
v 2.8 5.9 -3.7
v 2.8 6.1 -3.6
v 2.8 6.1 -3.7
v 2.8 6.2 -3.6
v 2.8 6.2 -3.7
v 2.8 6.2 -3.8
v 2.8 6.3 -3.7
v 2.8 6.3 -3.8
v 2.8 6.5 -3.7
v 2.8 6.5 -3.8
v 2.8 6.6 -3.7
v 2.8 6.6 -3.8
v 2.8 6.7 -3.9
v 2.8 6.7 -4
v 2.8 6.7 -4.2
v 2.8 6.7 -4.3
v 2.8 6.8 -3.9
v 2.8 6.8 -4
v 2.8 6.8 -4.2
v 2.8 6.8 -4.3
v 2.9 4.8 -3.9
v 2.9 4.8 -4
v 2.9 4.9 -3.9
v 2.9 4.9 -4
v 2.9 5.2 -3.9
v 2.9 5.2 -4
v 2.9 5.4 -3.9
v 2.9 5.4 -4
v 2.9 5.6 -4.1
v 2.9 5.6 -4.2
v 2.9 5.7 -3.8
v 2.9 5.7 -4
v 2.9 5.7 -4.1
v 2.9 5.7 -4.2
v 2.9 5.8 -3.7
v 2.9 5.8 -3.8
v 2.9 5.8 -4
v 2.9 5.9 -3.6
v 2.9 5.9 -3.7
v 2.9 5.9 -3.8
v 2.9 6.1 -3.6
v 2.9 6.1 -3.7
v 2.9 6.1 -3.8
v 2.9 6.2 -3.7
v 2.9 6.2 -3.8
v 2.9 6.3 -3.7
v 2.9 6.3 -3.8
v 2.9 6.5 -3.7
v 2.9 6.5 -3.8
v 2.9 6.6 -3.8
v 2.9 6.6 -3.9
v 2.9 6.6 -4.3
v 2.9 6.6 -4.4
v 2.9 6.7 -3.8
v 2.9 6.7 -3.9
v 2.9 6.7 -4
v 2.9 6.7 -4.2
v 2.9 6.7 -4.3
v 2.9 6.7 -4.4
v 2.9 6.8 -4
v 2.9 6.8 -4.2
v 3 4.8 -4.1
v 3 4.8 -4.2
v 3 4.9 -4.1
v 3 4.9 -4.2
v 3 4.9 -4.3
v 3 5 -4.2
v 3 5 -4.3
v 3 5.2 -4.1
v 3 5.2 -4.2
v 3 5.3 -4.4
v 3 5.3 -4.5
v 3 5.4 -4
v 3 5.4 -4.1
v 3 5.4 -4.2
v 3 5.4 -4.4
v 3 5.4 -4.5
v 3 5.5 -4
v 3 5.5 -4.1
v 3 5.5 -4.3
v 3 5.5 -4.4
v 3 5.6 -4
v 3 5.6 -4.1
v 3 5.6 -4.3
v 3 5.6 -4.4
v 3 5.7 -4
v 3 5.7 -4.1
v 3 5.7 -4.6
v 3 5.7 -4.7
v 3 5.8 -3.8
v 3 5.8 -3.9
v 3 5.8 -4.6
v 3 5.8 -4.7
v 3 5.9 -3.7
v 3 5.9 -3.8
v 3 5.9 -3.9
v 3 6 -3.8
v 3 6 -3.9
v 3 6.1 -3.7
v 3 6.1 -3.8
v 3 6.2 -3.8
v 3 6.2 -3.9
v 3 6.2 -4
v 3 6.3 -3.9
v 3 6.3 -4
v 3 6.4 -4.6
v 3 6.4 -4.7
v 3 6.5 -3.9
v 3 6.5 -4
v 3 6.5 -4.2
v 3 6.5 -4.3
v 3 6.5 -4.5
v 3 6.5 -4.6
v 3 6.5 -4.7
v 3 6.6 -3.8
v 3 6.6 -3.9
v 3 6.6 -4
v 3 6.6 -4.2
v 3 6.6 -4.3
v 3 6.6 -4.5
v 3 6.6 -4.6
v 3 6.7 -3.9
v 3 6.7 -4.3
v 3.1 4.8 -4.2
v 3.1 4.8 -4.3
v 3.1 4.9 -4.2
v 3.1 4.9 -4.3
v 3.1 5 -4.2
v 3.1 5 -4.3
v 3.1 5.1 -4.1
v 3.1 5.1 -4.2
v 3.1 5.1 -4.3
v 3.1 5.2 -4
v 3.1 5.2 -4.1
v 3.1 5.2 -4.2
v 3.1 5.2 -4.3
v 3.1 5.3 -4
v 3.1 5.3 -4.3
v 3.1 5.4 -4
v 3.1 5.4 -4.1
v 3.1 5.4 -4.2
v 3.1 5.4 -4.3
v 3.1 5.4 -4.4
v 3.1 5.5 -4.1
v 3.1 5.5 -4.2
v 3.1 5.5 -4.3
v 3.1 5.5 -4.4
v 3.1 5.6 -4.1
v 3.1 5.6 -4.2
v 3.1 5.6 -4.3
v 3.1 5.9 -3.8
v 3.1 5.9 -3.9
v 3.1 6 -3.8
v 3.1 6 -3.9
v 3.1 6.2 -4.6
v 3.1 6.2 -4.7
v 3.1 6.3 -3.9
v 3.1 6.3 -4
v 3.1 6.3 -4.1
v 3.1 6.4 -4.1
v 3.1 6.4 -4.2
v 3.1 6.4 -4.3
v 3.1 6.4 -4.5
v 3.1 6.4 -4.6
v 3.1 6.4 -4.7
v 3.1 6.5 -3.9
v 3.1 6.5 -4
v 3.1 6.5 -4.2
v 3.1 6.5 -4.3
v 3.1 6.5 -4.5
v 3.1 6.5 -4.6
v 3.1 6.6 -4
v 3.1 6.6 -4.2
v 3.1 6.6 -4.3
v 3.1 6.6 -4.5
v 3.2 4.8 -4.3
v 3.2 4.8 -4.4
v 3.2 4.9 -4.1
v 3.2 4.9 -4.2
v 3.2 4.9 -4.4
v 3.2 4.9 -4.5
v 3.2 4.9 -4.6
v 3.2 4.9 -4.7
v 3.2 5 -4
v 3.2 5 -4.1
v 3.2 5 -4.4
v 3.2 5 -4.5
v 3.2 5 -4.6
v 3.2 5 -4.7
v 3.2 5.1 -3.9
v 3.2 5.1 -4
v 3.2 5.1 -4.1
v 3.2 5.1 -4.2
v 3.2 5.1 -4.3
v 3.2 5.1 -4.4
v 3.2 5.2 -4
v 3.2 5.2 -4.1
v 3.2 5.2 -4.4
v 3.2 5.2 -4.5
v 3.2 5.2 -4.6
v 3.2 5.3 -3.9
v 3.2 5.3 -4
v 3.2 5.3 -4.3
v 3.2 5.3 -4.4
v 3.2 5.3 -4.5
v 3.2 5.4 -4.3
v 3.2 5.4 -4.4
v 3.2 5.6 -4.1
v 3.2 5.6 -4.2
v 3.2 5.6 -4.4
v 3.2 5.6 -4.5
v 3.2 5.7 -4.1
v 3.2 5.7 -4.2
v 3.2 5.7 -4.4
v 3.2 5.7 -4.5
v 3.2 5.8 -3.9
v 3.2 5.8 -4
v 3.2 5.8 -4.6
v 3.2 5.8 -4.7
v 3.2 5.9 -3.9
v 3.2 5.9 -4
v 3.2 5.9 -4.6
v 3.2 5.9 -4.7
v 3.2 6.1 -3.9
v 3.2 6.1 -4
v 3.2 6.1 -4.6
v 3.2 6.1 -4.7
v 3.2 6.2 -3.9
v 3.2 6.2 -4
v 3.2 6.2 -4.6
v 3.2 6.2 -4.7
v 3.2 6.3 -4.1
v 3.2 6.3 -4.2
v 3.2 6.3 -4.4
v 3.2 6.3 -4.6
v 3.2 6.4 -4.1
v 3.2 6.4 -4.2
v 3.2 6.4 -4.3
v 3.2 6.4 -4.4
v 3.2 6.4 -4.5
v 3.2 6.4 -4.6
v 3.2 6.5 -4.3
v 3.2 6.5 -4.5
v 3.3 4.8 -4
v 3.3 4.8 -4.1
v 3.3 4.8 -4.4
v 3.3 4.8 -4.6
v 3.3 4.8 -4.7
v 3.3 4.9 -4
v 3.3 4.9 -4.1
v 3.3 4.9 -4.4
v 3.3 4.9 -4.5
v 3.3 4.9 -4.6
v 3.3 4.9 -4.7
v 3.3 5 -3.8
v 3.3 5 -3.9
v 3.3 5 -4
v 3.3 5 -4.1
v 3.3 5 -4.4
v 3.3 5 -4.5
v 3.3 5.1 -3.8
v 3.3 5.1 -3.9
v 3.3 5.1 -4
v 3.3 5.6 -4.2
v 3.3 5.6 -4.4
v 3.3 5.7 -3.9
v 3.3 5.7 -4
v 3.3 5.7 -4.1
v 3.3 5.7 -4.2
v 3.3 5.7 -4.4
v 3.3 5.7 -4.5
v 3.3 5.7 -4.6
v 3.3 5.8 -3.9
v 3.3 5.8 -4
v 3.3 5.8 -4.1
v 3.3 5.8 -4.5
v 3.3 5.8 -4.6
v 3.3 5.9 -3.9
v 3.3 5.9 -4
v 3.3 6 -4.6
v 3.3 6 -4.7
v 3.3 6.1 -3.9
v 3.3 6.1 -4
v 3.3 6.1 -4.6
v 3.3 6.1 -4.7
v 3.3 6.2 -4
v 3.3 6.2 -4.1
v 3.3 6.2 -4.5
v 3.3 6.2 -4.6
v 3.3 6.3 -4
v 3.3 6.3 -4.1
v 3.3 6.3 -4.2
v 3.3 6.3 -4.4
v 3.3 6.3 -4.5
v 3.3 6.3 -4.6
v 3.3 6.4 -4.2
v 3.3 6.4 -4.4
v 3.4 4.8 -3.9
v 3.4 4.8 -4
v 3.4 4.8 -4.7
v 3.4 4.8 -4.8
v 3.4 4.9 -3.7
v 3.4 4.9 -3.8
v 3.4 4.9 -3.9
v 3.4 4.9 -4.7
v 3.4 4.9 -4.8
v 3.4 5 -3.8
v 3.4 5 -3.9
v 3.4 5 -4
v 3.4 5.1 -3.7
v 3.4 5.1 -3.8
v 3.4 5.7 -4.1
v 3.4 5.7 -4.4
v 3.4 5.8 -4
v 3.4 5.8 -4.1
v 3.4 5.8 -4.2
v 3.4 5.8 -4.4
v 3.4 5.8 -4.5
v 3.4 5.8 -4.6
v 3.4 5.9 -4.1
v 3.4 5.9 -4.2
v 3.4 5.9 -4.4
v 3.4 5.9 -4.5
v 3.4 5.9 -4.6
v 3.4 5.9 -4.7
v 3.4 6 -4.6
v 3.4 6 -4.7
v 3.4 6.1 -4.1
v 3.4 6.1 -4.2
v 3.4 6.1 -4.4
v 3.4 6.1 -4.5
v 3.4 6.2 -4
v 3.4 6.2 -4.1
v 3.4 6.2 -4.2
v 3.4 6.2 -4.4
v 3.4 6.2 -4.5
v 3.4 6.2 -4.6
v 3.4 6.3 -4.1
v 3.4 6.3 -4.5
v 3.5 4.8 -3.6
v 3.5 4.8 -3.9
v 3.5 4.9 -3.6
v 3.5 4.9 -3.9
v 3.5 5.7 -4.4
v 3.5 5.7 -4.5
v 3.5 5.8 -4.2
v 3.5 5.8 -4.4
v 3.5 5.8 -4.5
v 3.5 5.9 -4.1
v 3.5 5.9 -4.2
v 3.5 5.9 -4.4
v 3.5 5.9 -4.5
v 3.5 6.1 -4.1
v 3.5 6.1 -4.2
v 3.5 6.1 -4.4
v 3.5 6.1 -4.5
v 3.5 6.2 -4.2
v 3.5 6.2 -4.4
v 3.6 4.8 -3.5
v 3.6 4.8 -3.6
v 3.6 4.9 -3.5
v 3.6 4.9 -3.6
v 2.3 4.8 -3.5
v 2.3 4.9 -3.5
v 2.5 4.8 -3.5
v 2.5 4.9 -3.5
v 3.4 4.8 -3.5
v 3.4 4.9 -3.5
v 3.6 4.8 -3.5
v 3.6 4.9 -3.5
v 2.4 4.9 -3.6
v 2.4 5 -3.6
v 2.4 5.9 -3.6
v 2.4 6 -3.6
v 2.5 4.8 -3.6
v 2.5 4.9 -3.6
v 2.5 5 -3.6
v 2.5 5.9 -3.6
v 2.5 6 -3.6
v 2.5 6.1 -3.6
v 2.6 4.8 -3.6
v 2.6 4.9 -3.6
v 2.6 5.8 -3.6
v 2.6 5.9 -3.6
v 2.6 6.1 -3.6
v 2.6 6.2 -3.6
v 2.7 5.7 -3.6
v 2.7 5.8 -3.6
v 2.8 5.7 -3.6
v 2.8 5.8 -3.6
v 2.8 5.9 -3.6
v 2.8 6.1 -3.6
v 2.8 6.2 -3.6
v 2.9 5.9 -3.6
v 2.9 6.1 -3.6
v 3.3 4.8 -3.6
v 3.3 4.9 -3.6
v 3.4 4.8 -3.6
v 3.4 4.9 -3.6
v 2.4 6 -3.7
v 2.4 6.1 -3.7
v 2.5 4.9 -3.7
v 2.5 5 -3.7
v 2.5 5.8 -3.7
v 2.5 5.9 -3.7
v 2.5 6 -3.7
v 2.5 6.1 -3.7
v 2.5 6.2 -3.7
v 2.5 6.3 -3.7
v 2.5 6.5 -3.7
v 2.6 4.9 -3.7
v 2.6 5 -3.7
v 2.6 5.7 -3.7
v 2.6 5.8 -3.7
v 2.6 5.9 -3.7
v 2.6 6.1 -3.7
v 2.6 6.2 -3.7
v 2.6 6.3 -3.7
v 2.6 6.5 -3.7
v 2.6 6.6 -3.7
v 2.7 5.7 -3.7
v 2.7 5.8 -3.7
v 2.8 5.8 -3.7
v 2.8 5.9 -3.7
v 2.8 6.1 -3.7
v 2.8 6.2 -3.7
v 2.8 6.3 -3.7
v 2.8 6.5 -3.7
v 2.8 6.6 -3.7
v 2.9 5.8 -3.7
v 2.9 5.9 -3.7
v 2.9 6.1 -3.7
v 2.9 6.2 -3.7
v 2.9 6.3 -3.7
v 2.9 6.5 -3.7
v 3 5.9 -3.7
v 3 6.1 -3.7
v 3.2 4.8 -3.7
v 3.2 5 -3.7
v 3.3 4.8 -3.7
v 3.3 4.9 -3.7
v 3.3 5 -3.7
v 3.3 5.1 -3.7
v 3.4 4.9 -3.7
v 3.4 5.1 -3.7
v 2.4 5.8 -3.8
v 2.4 5.9 -3.8
v 2.4 6.1 -3.8
v 2.4 6.2 -3.8
v 2.4 6.6 -3.8
v 2.5 5.7 -3.8
v 2.5 5.8 -3.8
v 2.5 5.9 -3.8
v 2.5 6.1 -3.8
v 2.5 6.2 -3.8
v 2.5 6.3 -3.8
v 2.5 6.5 -3.8
v 2.5 6.6 -3.8
v 2.5 6.7 -3.8
v 2.6 4.8 -3.8
v 2.6 4.9 -3.8
v 2.6 5.7 -3.8
v 2.6 5.8 -3.8
v 2.6 6.2 -3.8
v 2.6 6.3 -3.8
v 2.6 6.5 -3.8
v 2.6 6.6 -3.8
v 2.7 4.8 -3.8
v 2.7 4.9 -3.8
v 2.7 5 -3.8
v 2.8 4.8 -3.8
v 2.8 4.9 -3.8
v 2.8 5 -3.8
v 2.8 5.7 -3.8
v 2.8 5.8 -3.8
v 2.8 6.2 -3.8
v 2.8 6.3 -3.8
v 2.8 6.5 -3.8
v 2.8 6.6 -3.8
v 2.9 5.7 -3.8
v 2.9 5.8 -3.8
v 2.9 5.9 -3.8
v 2.9 6.1 -3.8
v 2.9 6.2 -3.8
v 2.9 6.3 -3.8
v 2.9 6.5 -3.8
v 2.9 6.6 -3.8
v 2.9 6.7 -3.8
v 3 5.8 -3.8
v 3 5.9 -3.8
v 3 6 -3.8
v 3 6.1 -3.8
v 3 6.2 -3.8
v 3 6.6 -3.8
v 3.1 4.8 -3.8
v 3.1 5.1 -3.8
v 3.1 5.9 -3.8
v 3.1 6 -3.8
v 3.2 4.8 -3.8
v 3.2 5 -3.8
v 3.3 5 -3.8
v 3.3 5.1 -3.8
v 2.3 5.8 -3.9
v 2.3 5.9 -3.9
v 2.3 6.3 -3.9
v 2.3 6.5 -3.9
v 2.4 4.8 -3.9
v 2.4 4.9 -3.9
v 2.4 5.8 -3.9
v 2.4 5.9 -3.9
v 2.4 6.3 -3.9
v 2.4 6.5 -3.9
v 2.4 6.6 -3.9
v 2.4 6.7 -3.9
v 2.5 4.8 -3.9
v 2.5 4.9 -3.9
v 2.5 6.6 -3.9
v 2.5 6.7 -3.9
v 2.6 4.9 -3.9
v 2.6 5 -3.9
v 2.6 5.1 -3.9
v 2.6 6.7 -3.9
v 2.6 6.8 -3.9
v 2.7 4.9 -3.9
v 2.7 5 -3.9
v 2.7 5.1 -3.9
v 2.7 5.2 -3.9
v 2.8 4.8 -3.9
v 2.8 4.9 -3.9
v 2.8 5 -3.9
v 2.8 5.2 -3.9
v 2.8 5.4 -3.9
v 2.8 6.7 -3.9
v 2.8 6.8 -3.9
v 2.9 4.8 -3.9
v 2.9 4.9 -3.9
v 2.9 5.2 -3.9
v 2.9 5.4 -3.9
v 2.9 6.6 -3.9
v 2.9 6.7 -3.9
v 3 4.9 -3.9
v 3 5.3 -3.9
v 3 5.8 -3.9
v 3 5.9 -3.9
v 3 6 -3.9
v 3 6.2 -3.9
v 3 6.3 -3.9
v 3 6.5 -3.9
v 3 6.6 -3.9
v 3 6.7 -3.9
v 3.1 4.9 -3.9
v 3.1 5.1 -3.9
v 3.1 5.9 -3.9
v 3.1 6 -3.9
v 3.1 6.3 -3.9
v 3.1 6.5 -3.9
v 3.2 5.1 -3.9
v 3.2 5.3 -3.9
v 3.2 5.7 -3.9
v 3.2 5.8 -3.9
v 3.2 5.9 -3.9
v 3.2 6.1 -3.9
v 3.2 6.2 -3.9
v 3.3 5.7 -3.9
v 3.3 5.8 -3.9
v 3.3 5.9 -3.9
v 3.3 6.1 -3.9
v 2.3 5.9 -4
v 2.3 6 -4
v 2.3 6.2 -4
v 2.3 6.3 -4
v 2.3 6.5 -4
v 2.3 6.6 -4
v 2.4 5.7 -4
v 2.4 5.8 -4
v 2.4 5.9 -4
v 2.4 6 -4
v 2.4 6.2 -4
v 2.4 6.3 -4
v 2.4 6.5 -4
v 2.4 6.6 -4
v 2.5 4.9 -4
v 2.5 5.1 -4
v 2.5 5.6 -4
v 2.5 5.7 -4
v 2.5 5.8 -4
v 2.5 6.7 -4
v 2.5 6.8 -4
v 2.6 4.9 -4
v 2.6 5.1 -4
v 2.6 5.2 -4
v 2.6 5.4 -4
v 2.6 5.5 -4
v 2.6 5.6 -4
v 2.6 6.7 -4
v 2.6 6.8 -4
v 2.7 4.8 -4
v 2.7 4.9 -4
v 2.7 5.1 -4
v 2.7 5.2 -4
v 2.7 5.4 -4
v 2.7 5.5 -4
v 2.7 5.6 -4
v 2.7 5.7 -4
v 2.8 4.8 -4
v 2.8 4.9 -4
v 2.8 5 -4
v 2.8 5.2 -4
v 2.8 5.4 -4
v 2.8 5.5 -4
v 2.8 5.6 -4
v 2.8 5.7 -4
v 2.8 6.7 -4
v 2.8 6.8 -4
v 2.9 4.8 -4
v 2.9 4.9 -4
v 2.9 5 -4
v 2.9 5.2 -4
v 2.9 5.4 -4
v 2.9 5.5 -4
v 2.9 5.6 -4
v 2.9 5.7 -4
v 2.9 5.8 -4
v 2.9 6.7 -4
v 2.9 6.8 -4
v 3 4.8 -4
v 3 4.9 -4
v 3 5.3 -4
v 3 5.4 -4
v 3 5.5 -4
v 3 5.6 -4
v 3 5.7 -4
v 3 5.8 -4
v 3 6.2 -4
v 3 6.3 -4
v 3 6.5 -4
v 3 6.6 -4
v 3.1 4.8 -4
v 3.1 4.9 -4
v 3.1 5.3 -4
v 3.1 5.4 -4
v 3.1 6.2 -4
v 3.1 6.3 -4
v 3.1 6.5 -4
v 3.1 6.6 -4
v 3.2 5.7 -4
v 3.2 5.8 -4
v 3.2 5.9 -4
v 3.2 6.1 -4
v 3.2 6.2 -4
v 3.3 5.8 -4
v 3.3 5.9 -4
v 3.3 6.1 -4
v 3.3 6.2 -4
v 3.3 6.3 -4
v 3.4 5.8 -4
v 3.4 6.2 -4
v 2.3 5.7 -4.1
v 2.3 5.8 -4.1
v 2.3 6 -4.1
v 2.3 6.1 -4.1
v 2.4 5.6 -4.1
v 2.4 5.7 -4.1
v 2.4 5.8 -4.1
v 2.4 6 -4.1
v 2.4 6.1 -4.1
v 2.5 5.6 -4.1
v 2.5 5.7 -4.1
v 2.6 5.2 -4.1
v 2.6 5.3 -4.1
v 2.7 5.2 -4.1
v 2.7 5.3 -4.1
v 2.7 5.5 -4.1
v 2.7 5.6 -4.1
v 2.8 5.4 -4.1
v 2.8 5.5 -4.1
v 2.8 5.6 -4.1
v 2.8 5.7 -4.1
v 2.9 5.4 -4.1
v 2.9 5.5 -4.1
v 2.9 5.6 -4.1
v 2.9 5.7 -4.1
v 3 5.4 -4.1
v 3 5.5 -4.1
v 3 5.6 -4.1
v 3 5.7 -4.1
v 3.1 5.4 -4.1
v 3.1 5.5 -4.1
v 3.1 5.6 -4.1
v 3.1 6.3 -4.1
v 3.1 6.4 -4.1
v 3.2 5.6 -4.1
v 3.2 5.7 -4.1
v 3.2 6.3 -4.1
v 3.2 6.4 -4.1
v 3.3 5.7 -4.1
v 3.3 5.8 -4.1
v 3.3 6.2 -4.1
v 3.3 6.3 -4.1
v 3.4 5.7 -4.1
v 3.4 5.8 -4.1
v 3.4 5.9 -4.1
v 3.4 6.1 -4.1
v 3.4 6.2 -4.1
v 3.4 6.3 -4.1
v 3.5 5.9 -4.1
v 3.5 6.1 -4.1
v 2.9 5.6 -4.2
v 2.9 5.7 -4.2
v 3 4.8 -4.2
v 3 4.9 -4.2
v 3 5.2 -4.2
v 3 5.4 -4.2
v 3 5.6 -4.2
v 3 5.7 -4.2
v 3.1 4.8 -4.2
v 3.1 4.9 -4.2
v 3.1 5.2 -4.2
v 3.1 5.4 -4.2
v 3.2 5.6 -4.2
v 3.2 5.7 -4.2
v 3.2 6.3 -4.2
v 3.2 6.4 -4.2
v 3.3 5.6 -4.2
v 3.3 5.7 -4.2
v 3.3 6.3 -4.2
v 3.3 6.4 -4.2
v 3.4 5.8 -4.2
v 3.4 5.9 -4.2
v 3.4 6.1 -4.2
v 3.4 6.2 -4.2
v 3.5 5.8 -4.2
v 3.5 5.9 -4.2
v 3.5 6.1 -4.2
v 3.5 6.2 -4.2
v 2.5 4.9 -4.3
v 2.5 5.1 -4.3
v 2.6 4.9 -4.3
v 2.6 5.1 -4.3
v 3 4.9 -4.3
v 3 5 -4.3
v 3 6.5 -4.3
v 3 6.6 -4.3
v 3.1 4.8 -4.3
v 3.1 4.9 -4.3
v 3.1 5 -4.3
v 3.1 5.1 -4.3
v 3.1 5.2 -4.3
v 3.1 5.3 -4.3
v 3.1 5.4 -4.3
v 3.1 6.4 -4.3
v 3.1 6.5 -4.3
v 3.1 6.6 -4.3
v 3.2 4.8 -4.3
v 3.2 5.1 -4.3
v 3.2 5.3 -4.3
v 3.2 5.4 -4.3
v 3.2 6.4 -4.3
v 3.2 6.5 -4.3
v 2.4 4.8 -4.4
v 2.4 4.9 -4.4
v 2.4 5 -4.4
v 2.5 4.9 -4.4
v 2.5 5 -4.4
v 2.6 4.8 -4.4
v 2.6 4.9 -4.4
v 3.2 4.8 -4.4
v 3.2 4.9 -4.4
v 3.2 5 -4.4
v 3.3 4.8 -4.4
v 3.3 4.9 -4.4
v 3.3 5 -4.4
v 3.4 5.7 -4.4
v 3.4 5.8 -4.4
v 3.5 5.7 -4.4
v 3.5 5.8 -4.4
v 2.3 4.8 -4.6
v 2.3 4.9 -4.6
v 2.3 5 -4.6
v 2.4 4.8 -4.6
v 2.4 4.9 -4.6
v 2.5 4.9 -4.6
v 2.5 5 -4.6
v 2.2 4.8 -4.7
v 2.2 4.9 -4.7
v 2.3 4.8 -4.7
v 2.3 4.9 -4.7
v 3.3 4.8 -4.7
v 3.3 4.9 -4.7
v 3.4 4.8 -4.7
v 3.4 4.9 -4.7
v 2.1 4.8 -4.9
v 2.1 4.9 -4.9
v 2.2 4.8 -4.9
v 2.2 4.9 -4.9
v 2.3 4.8 -3.6
v 2.3 4.9 -3.6
v 2.4 4.8 -3.6
v 2.4 4.9 -3.6
v 3.5 4.8 -3.6
v 3.5 4.9 -3.6
v 3.6 4.8 -3.6
v 3.6 4.9 -3.6
v 2.4 4.8 -3.8
v 2.4 4.9 -3.8
v 2.4 5 -3.8
v 2.5 4.8 -3.8
v 2.5 4.9 -3.8
v 2.5 5 -3.8
v 3.3 5 -3.8
v 3.3 5.1 -3.8
v 3.4 5 -3.8
v 3.4 5.1 -3.8
v 2.5 4.9 -3.9
v 2.5 5 -3.9
v 2.6 4.9 -3.9
v 2.6 5 -3.9
v 2.7 4.8 -3.9
v 2.7 4.9 -3.9
v 2.8 4.8 -3.9
v 2.8 4.9 -3.9
v 3.4 4.8 -3.9
v 3.4 4.9 -3.9
v 3.5 4.8 -3.9
v 3.5 4.9 -3.9
v 2.4 4.8 -4
v 2.4 4.9 -4
v 2.5 4.8 -4
v 2.5 4.9 -4
v 3.1 5.2 -4
v 3.1 5.3 -4
v 3.2 5 -4
v 3.2 5.1 -4
v 3.2 5.2 -4
v 3.2 5.3 -4
v 3.3 4.8 -4
v 3.3 4.9 -4
v 3.3 5 -4
v 3.3 5.1 -4
v 3.4 4.8 -4
v 3.4 5 -4
v 2.5 4.8 -4.1
v 2.5 4.9 -4.1
v 2.5 5 -4.1
v 2.5 5.1 -4.1
v 2.6 4.8 -4.1
v 2.6 4.9 -4.1
v 2.6 5 -4.1
v 2.6 5.1 -4.1
v 2.6 5.4 -4.1
v 2.6 5.5 -4.1
v 2.7 5.4 -4.1
v 2.7 5.5 -4.1
v 2.9 5.6 -4.1
v 2.9 5.7 -4.1
v 3 4.8 -4.1
v 3 4.9 -4.1
v 3 5.2 -4.1
v 3 5.4 -4.1
v 3 5.6 -4.1
v 3 5.7 -4.1
v 3.1 4.8 -4.1
v 3.1 4.9 -4.1
v 3.1 5.1 -4.1
v 3.1 5.2 -4.1
v 3.1 5.4 -4.1
v 3.2 4.9 -4.1
v 3.2 5 -4.1
v 3.2 5.1 -4.1
v 3.2 5.2 -4.1
v 3.3 4.8 -4.1
v 3.3 4.9 -4.1
v 3.3 5 -4.1
v 2.3 6.2 -4.2
v 2.3 6.3 -4.2
v 2.3 6.5 -4.2
v 2.3 6.6 -4.2
v 2.4 6.2 -4.2
v 2.4 6.3 -4.2
v 2.4 6.5 -4.2
v 2.4 6.6 -4.2
v 2.5 4.9 -4.2
v 2.5 5 -4.2
v 2.5 6.7 -4.2
v 2.5 6.8 -4.2
v 2.6 4.9 -4.2
v 2.6 5 -4.2
v 2.6 6.7 -4.2
v 2.6 6.8 -4.2
v 2.8 4.8 -4.2
v 2.8 4.9 -4.2
v 2.8 6.7 -4.2
v 2.8 6.8 -4.2
v 2.9 4.8 -4.2
v 2.9 4.9 -4.2
v 2.9 6.7 -4.2
v 2.9 6.8 -4.2
v 3 4.9 -4.2
v 3 5 -4.2
v 3 6.5 -4.2
v 3 6.6 -4.2
v 3.1 4.9 -4.2
v 3.1 5 -4.2
v 3.1 5.1 -4.2
v 3.1 6.5 -4.2
v 3.1 6.6 -4.2
v 3.2 4.9 -4.2
v 3.2 5.1 -4.2
v 2.3 5.7 -4.3
v 2.3 5.8 -4.3
v 2.3 6 -4.3
v 2.3 6.1 -4.3
v 2.3 6.3 -4.3
v 2.3 6.5 -4.3
v 2.4 5.6 -4.3
v 2.4 5.7 -4.3
v 2.4 5.8 -4.3
v 2.4 6 -4.3
v 2.4 6.1 -4.3
v 2.4 6.2 -4.3
v 2.4 6.3 -4.3
v 2.4 6.5 -4.3
v 2.4 6.6 -4.3
v 2.4 6.7 -4.3
v 2.5 5.6 -4.3
v 2.5 5.7 -4.3
v 2.5 6.1 -4.3
v 2.5 6.2 -4.3
v 2.5 6.6 -4.3
v 2.5 6.7 -4.3
v 2.6 5.5 -4.3
v 2.6 5.6 -4.3
v 2.6 6.7 -4.3
v 2.6 6.8 -4.3
v 2.7 4.8 -4.3
v 2.7 4.9 -4.3
v 2.7 5.5 -4.3
v 2.7 5.6 -4.3
v 2.7 5.7 -4.3
v 2.8 4.8 -4.3
v 2.8 4.9 -4.3
v 2.8 5.6 -4.3
v 2.8 5.7 -4.3
v 2.8 6.7 -4.3
v 2.8 6.8 -4.3
v 2.9 6.6 -4.3
v 2.9 6.7 -4.3
v 3 5.5 -4.3
v 3 5.6 -4.3
v 3 6.6 -4.3
v 3 6.7 -4.3
v 3.1 5.5 -4.3
v 3.1 5.6 -4.3
v 2.3 5.8 -4.4
v 2.3 6 -4.4
v 2.4 5.7 -4.4
v 2.4 5.8 -4.4
v 2.4 6 -4.4
v 2.4 6.2 -4.4
v 2.4 6.6 -4.4
v 2.5 5.6 -4.4
v 2.5 5.7 -4.4
v 2.5 5.8 -4.4
v 2.5 6.1 -4.4
v 2.5 6.2 -4.4
v 2.5 6.3 -4.4
v 2.5 6.5 -4.4
v 2.5 6.6 -4.4
v 2.5 6.7 -4.4
v 2.6 6.1 -4.4
v 2.6 6.3 -4.4
v 2.6 6.5 -4.4
v 2.6 6.6 -4.4
v 2.7 5.4 -4.4
v 2.7 5.6 -4.4
v 2.7 5.7 -4.4
v 2.7 5.8 -4.4
v 2.7 6.6 -4.4
v 2.8 5.1 -4.4
v 2.8 5.2 -4.4
v 2.8 5.4 -4.4
v 2.8 5.6 -4.4
v 2.8 5.7 -4.4
v 2.8 5.8 -4.4
v 2.9 5.1 -4.4
v 2.9 5.2 -4.4
v 2.9 5.4 -4.4
v 2.9 5.5 -4.4
v 2.9 5.6 -4.4
v 2.9 5.7 -4.4
v 2.9 6.6 -4.4
v 2.9 6.7 -4.4
v 3 5.1 -4.4
v 3 5.2 -4.4
v 3 5.3 -4.4
v 3 5.4 -4.4
v 3 5.5 -4.4
v 3 5.6 -4.4
v 3 5.7 -4.4
v 3.1 5.3 -4.4
v 3.1 5.4 -4.4
v 3.1 5.5 -4.4
v 3.2 5.3 -4.4
v 3.2 5.4 -4.4
v 3.2 5.6 -4.4
v 3.2 5.7 -4.4
v 3.2 6.3 -4.4
v 3.2 6.4 -4.4
v 3.3 5.6 -4.4
v 3.3 5.7 -4.4
v 3.3 6.3 -4.4
v 3.3 6.4 -4.4
v 3.4 5.8 -4.4
v 3.4 5.9 -4.4
v 3.4 6.1 -4.4
v 3.4 6.2 -4.4
v 3.5 5.8 -4.4
v 3.5 5.9 -4.4
v 3.5 6.1 -4.4
v 3.5 6.2 -4.4
v 2.4 4.9 -4.5
v 2.4 5 -4.5
v 2.4 5.8 -4.5
v 2.4 6 -4.5
v 2.4 6.1 -4.5
v 2.5 4.9 -4.5
v 2.5 5 -4.5
v 2.5 5.1 -4.5
v 2.5 5.7 -4.5
v 2.5 5.8 -4.5
v 2.5 6 -4.5
v 2.5 6.1 -4.5
v 2.5 6.3 -4.5
v 2.5 6.5 -4.5
v 2.6 4.8 -4.5
v 2.6 4.9 -4.5
v 2.6 5 -4.5
v 2.6 5.1 -4.5
v 2.6 5.2 -4.5
v 2.6 5.3 -4.5
v 2.6 6.1 -4.5
v 2.6 6.2 -4.5
v 2.6 6.3 -4.5
v 2.6 6.4 -4.5
v 2.6 6.5 -4.5
v 2.6 6.6 -4.5
v 2.7 4.8 -4.5
v 2.7 4.9 -4.5
v 2.7 5 -4.5
v 2.7 5.1 -4.5
v 2.7 5.2 -4.5
v 2.7 5.3 -4.5
v 2.7 5.4 -4.5
v 2.7 5.7 -4.5
v 2.7 5.8 -4.5
v 2.7 5.9 -4.5
v 2.7 6 -4.5
v 2.7 6.1 -4.5
v 2.7 6.2 -4.5
v 2.7 6.4 -4.5
v 2.7 6.5 -4.5
v 2.7 6.6 -4.5
v 2.8 5 -4.5
v 2.8 5.1 -4.5
v 2.8 5.2 -4.5
v 2.8 5.4 -4.5
v 2.8 5.7 -4.5
v 2.8 5.8 -4.5
v 2.8 5.9 -4.5
v 2.8 6 -4.5
v 2.8 6.1 -4.5
v 2.8 6.5 -4.5
v 2.8 6.6 -4.5
v 2.9 4.8 -4.5
v 2.9 4.9 -4.5
v 2.9 5.1 -4.5
v 2.9 5.2 -4.5
v 2.9 5.4 -4.5
v 2.9 5.7 -4.5
v 2.9 5.8 -4.5
v 3 4.9 -4.5
v 3 5 -4.5
v 3 5.1 -4.5
v 3 5.2 -4.5
v 3 5.3 -4.5
v 3 5.4 -4.5
v 3 5.6 -4.5
v 3 5.7 -4.5
v 3 6.5 -4.5
v 3 6.6 -4.5
v 3.1 4.8 -4.5
v 3.1 5 -4.5
v 3.1 5.2 -4.5
v 3.1 5.3 -4.5
v 3.1 6.4 -4.5
v 3.1 6.5 -4.5
v 3.1 6.6 -4.5
v 3.2 4.9 -4.5
v 3.2 5 -4.5
v 3.2 5.2 -4.5
v 3.2 5.3 -4.5
v 3.2 5.6 -4.5
v 3.2 5.7 -4.5
v 3.2 6.4 -4.5
v 3.2 6.5 -4.5
v 3.3 4.9 -4.5
v 3.3 5 -4.5
v 3.3 5.7 -4.5
v 3.3 5.8 -4.5
v 3.3 6.2 -4.5
v 3.3 6.3 -4.5
v 3.4 5.7 -4.5
v 3.4 5.8 -4.5
v 3.4 5.9 -4.5
v 3.4 6.1 -4.5
v 3.4 6.2 -4.5
v 3.4 6.3 -4.5
v 3.5 5.7 -4.5
v 3.5 5.8 -4.5
v 3.5 5.9 -4.5
v 3.5 6.1 -4.5
v 2.6 4.9 -4.6
v 2.6 5 -4.6
v 2.6 5.2 -4.6
v 2.6 6.2 -4.6
v 2.6 6.4 -4.6
v 2.7 4.9 -4.6
v 2.7 5.1 -4.6
v 2.7 5.8 -4.6
v 2.7 5.9 -4.6
v 2.7 6.1 -4.6
v 2.7 6.2 -4.6
v 2.7 6.4 -4.6
v 2.7 6.5 -4.6
v 2.8 5.1 -4.6
v 2.8 5.2 -4.6
v 2.8 5.8 -4.6
v 2.8 5.9 -4.6
v 2.8 6 -4.6
v 2.8 6.1 -4.6
v 2.8 6.2 -4.6
v 2.8 6.4 -4.6
v 2.8 6.5 -4.6
v 2.8 6.6 -4.6
v 2.9 5.8 -4.6
v 2.9 5.9 -4.6
v 2.9 6 -4.6
v 2.9 6.1 -4.6
v 3 5.7 -4.6
v 3 5.8 -4.6
v 3 5.9 -4.6
v 3 6.4 -4.6
v 3 6.5 -4.6
v 3 6.6 -4.6
v 3.1 5 -4.6
v 3.1 5.2 -4.6
v 3.1 6.2 -4.6
v 3.1 6.4 -4.6
v 3.1 6.5 -4.6
v 3.2 5 -4.6
v 3.2 5.2 -4.6
v 3.2 5.8 -4.6
v 3.2 5.9 -4.6
v 3.2 6.1 -4.6
v 3.2 6.2 -4.6
v 3.2 6.3 -4.6
v 3.2 6.4 -4.6
v 3.3 5.7 -4.6
v 3.3 5.8 -4.6
v 3.3 5.9 -4.6
v 3.3 6 -4.6
v 3.3 6.1 -4.6
v 3.3 6.2 -4.6
v 3.3 6.3 -4.6
v 3.4 5.8 -4.6
v 3.4 5.9 -4.6
v 3.4 6 -4.6
v 3.4 6.2 -4.6
v 2.4 4.8 -4.7
v 2.4 4.9 -4.7
v 2.4 5 -4.7
v 2.5 4.9 -4.7
v 2.5 5 -4.7
v 2.6 4.8 -4.7
v 2.6 5 -4.7
v 2.7 6.2 -4.7
v 2.7 6.4 -4.7
v 2.8 6.1 -4.7
v 2.8 6.2 -4.7
v 2.8 6.4 -4.7
v 2.8 6.5 -4.7
v 2.9 5.7 -4.7
v 2.9 5.8 -4.7
v 2.9 5.9 -4.7
v 2.9 6.1 -4.7
v 3 5.7 -4.7
v 3 5.8 -4.7
v 3 5.9 -4.7
v 3 6.1 -4.7
v 3 6.2 -4.7
v 3 6.4 -4.7
v 3 6.5 -4.7
v 3.1 4.8 -4.7
v 3.1 5 -4.7
v 3.1 6.2 -4.7
v 3.1 6.4 -4.7
v 3.2 4.8 -4.7
v 3.2 4.9 -4.7
v 3.2 5 -4.7
v 3.2 5.8 -4.7
v 3.2 5.9 -4.7
v 3.2 6.1 -4.7
v 3.2 6.2 -4.7
v 3.3 5.9 -4.7
v 3.3 6 -4.7
v 3.3 6.1 -4.7
v 3.4 5.9 -4.7
v 3.4 6 -4.7
v 2.3 4.8 -4.8
v 2.3 4.9 -4.8
v 2.3 5 -4.8
v 2.4 4.8 -4.8
v 2.4 5 -4.8
v 3.2 4.8 -4.8
v 3.2 4.9 -4.8
v 3.4 4.8 -4.8
v 3.4 4.9 -4.8
v 2.2 4.8 -4.9
v 2.2 4.9 -4.9
v 2.3 4.8 -4.9
v 2.3 4.9 -4.9
v 2.1 4.8 -5
v 2.1 4.9 -5
v 2.2 4.8 -5
v 2.2 4.9 -5
v 2.3 4.8 -3.5
v 2.5 4.8 -3.5
v 3.4 4.8 -3.5
v 3.6 4.8 -3.5
v 2.3 4.8 -3.6
v 2.4 4.8 -3.6
v 2.5 4.8 -3.6
v 2.6 4.8 -3.6
v 3.3 4.8 -3.6
v 3.4 4.8 -3.6
v 3.5 4.8 -3.6
v 3.6 4.8 -3.6
v 2.4 4.8 -3.7
v 2.5 4.8 -3.7
v 2.6 4.8 -3.7
v 3.2 4.8 -3.7
v 3.3 4.8 -3.7
v 3.4 4.8 -3.7
v 2.4 4.8 -3.8
v 2.5 4.8 -3.8
v 2.6 4.8 -3.8
v 2.7 4.8 -3.8
v 2.8 4.8 -3.8
v 3.1 4.8 -3.8
v 3.2 4.8 -3.8
v 3.3 4.8 -3.8
v 3.4 4.8 -3.8
v 2.4 4.8 -3.9
v 2.5 4.8 -3.9
v 2.7 4.8 -3.9
v 2.8 4.8 -3.9
v 2.9 4.8 -3.9
v 3.3 4.8 -3.9
v 3.4 4.8 -3.9
v 3.5 4.8 -3.9
v 2.4 4.8 -4
v 2.5 4.8 -4
v 2.6 4.8 -4
v 2.7 4.8 -4
v 2.8 4.8 -4
v 2.9 4.8 -4
v 3 4.8 -4
v 3.1 4.8 -4
v 3.3 4.8 -4
v 3.4 4.8 -4
v 2.5 4.8 -4.1
v 2.6 4.8 -4.1
v 2.7 4.8 -4.1
v 2.9 4.8 -4.1
v 3 4.8 -4.1
v 3.1 4.8 -4.1
v 3.3 4.8 -4.1
v 2.8 4.8 -4.2
v 2.9 4.8 -4.2
v 3 4.8 -4.2
v 3.1 4.8 -4.2
v 2.6 4.8 -4.3
v 2.7 4.8 -4.3
v 2.8 4.8 -4.3
v 3.1 4.8 -4.3
v 3.2 4.8 -4.3
v 2.4 4.8 -4.4
v 2.6 4.8 -4.4
v 3.2 4.8 -4.4
v 3.3 4.8 -4.4
v 2.6 4.8 -4.5
v 2.7 4.8 -4.5
v 2.9 4.8 -4.5
v 3.1 4.8 -4.5
v 3.2 4.8 -4.5
v 2.3 4.8 -4.6
v 2.4 4.8 -4.6
v 3.2 4.8 -4.6
v 3.3 4.8 -4.6
v 2.2 4.8 -4.7
v 2.3 4.8 -4.7
v 2.4 4.8 -4.7
v 2.6 4.8 -4.7
v 3.1 4.8 -4.7
v 3.2 4.8 -4.7
v 3.3 4.8 -4.7
v 3.4 4.8 -4.7
v 2.3 4.8 -4.8
v 2.4 4.8 -4.8
v 3.2 4.8 -4.8
v 3.4 4.8 -4.8
v 2.1 4.8 -4.9
v 2.2 4.8 -4.9
v 2.3 4.8 -4.9
v 2.1 4.8 -5
v 2.2 4.8 -5
v 2.7 4.9 -3.9
v 2.8 4.9 -3.9
v 3 4.9 -3.9
v 3.1 4.9 -3.9
v 2.7 4.9 -4
v 2.8 4.9 -4
v 3 4.9 -4
v 3.1 4.9 -4
v 2.5 4.9 -4.1
v 2.6 4.9 -4.1
v 3 4.9 -4.1
v 3.1 4.9 -4.1
v 3.2 4.9 -4.1
v 2.5 4.9 -4.2
v 2.6 4.9 -4.2
v 2.8 4.9 -4.2
v 2.9 4.9 -4.2
v 3 4.9 -4.2
v 3.1 4.9 -4.2
v 3.2 4.9 -4.2
v 2.5 4.9 -4.3
v 2.6 4.9 -4.3
v 2.7 4.9 -4.3
v 2.8 4.9 -4.3
v 2.9 4.9 -4.3
v 2.5 4.9 -4.4
v 2.6 4.9 -4.4
v 2.7 4.9 -4.4
v 2.9 4.9 -4.4
v 2.6 4.9 -4.5
v 2.7 4.9 -4.5
v 2.9 4.9 -4.5
v 2.6 4.9 -4.6
v 2.7 4.9 -4.6
v 3 5 -4.2
v 3.1 5 -4.2
v 3 5 -4.3
v 3.1 5 -4.3
v 2.7 5.1 -4.5
v 2.8 5.1 -4.5
v 2.7 5.1 -4.6
v 2.8 5.1 -4.6
v 2.8 5.2 -3.9
v 2.9 5.2 -3.9
v 2.8 5.2 -4
v 2.9 5.2 -4
v 2.9 5.2 -4.4
v 3 5.2 -4.4
v 2.9 5.2 -4.5
v 3 5.2 -4.5
v 2.6 5.4 -4
v 2.7 5.4 -4
v 2.6 5.4 -4.1
v 2.7 5.4 -4.1
v 3 5.4 -4.1
v 3.1 5.4 -4.1
v 3 5.4 -4.2
v 3.1 5.4 -4.2
v 2.6 5.5 -4.1
v 2.7 5.5 -4.1
v 2.6 5.5 -4.2
v 2.7 5.5 -4.2
v 2.6 5.5 -4.3
v 2.7 5.5 -4.3
v 2.5 5.6 -4
v 2.6 5.6 -4
v 2.7 5.6 -4
v 2.8 5.6 -4
v 2.9 5.6 -4
v 3 5.6 -4
v 2.4 5.6 -4.1
v 2.5 5.6 -4.1
v 2.7 5.6 -4.1
v 2.8 5.6 -4.1
v 2.9 5.6 -4.1
v 3 5.6 -4.1
v 3.1 5.6 -4.1
v 3.2 5.6 -4.1
v 2.6 5.6 -4.2
v 3.1 5.6 -4.2
v 3.2 5.6 -4.2
v 3.3 5.6 -4.2
v 2.4 5.6 -4.3
v 2.5 5.6 -4.3
v 2.6 5.6 -4.3
v 2.7 5.6 -4.3
v 3 5.6 -4.3
v 3.1 5.6 -4.3
v 2.5 5.6 -4.4
v 2.7 5.6 -4.4
v 3 5.6 -4.4
v 3.2 5.6 -4.4
v 3.3 5.6 -4.4
v 3 5.6 -4.5
v 3.2 5.6 -4.5
v 2.7 5.7 -3.6
v 2.8 5.7 -3.6
v 2.6 5.7 -3.7
v 2.7 5.7 -3.7
v 2.8 5.7 -3.7
v 2.5 5.7 -3.8
v 2.6 5.7 -3.8
v 2.8 5.7 -3.8
v 2.9 5.7 -3.8
v 3.2 5.7 -3.9
v 3.3 5.7 -3.9
v 2.4 5.7 -4
v 2.5 5.7 -4
v 2.7 5.7 -4
v 2.8 5.7 -4
v 2.9 5.7 -4
v 3 5.7 -4
v 3.2 5.7 -4
v 3.3 5.7 -4
v 2.3 5.7 -4.1
v 2.4 5.7 -4.1
v 2.5 5.7 -4.1
v 2.8 5.7 -4.1
v 2.9 5.7 -4.1
v 3 5.7 -4.1
v 3.2 5.7 -4.1
v 3.3 5.7 -4.1
v 3.4 5.7 -4.1
v 2.9 5.7 -4.2
v 3 5.7 -4.2
v 3.2 5.7 -4.2
v 3.3 5.7 -4.2
v 2.3 5.7 -4.3
v 2.4 5.7 -4.3
v 2.5 5.7 -4.3
v 2.7 5.7 -4.3
v 2.8 5.7 -4.3
v 2.4 5.7 -4.4
v 2.5 5.7 -4.4
v 2.7 5.7 -4.4
v 2.8 5.7 -4.4
v 2.9 5.7 -4.4
v 3 5.7 -4.4
v 3.2 5.7 -4.4
v 3.3 5.7 -4.4
v 3.4 5.7 -4.4
v 3.5 5.7 -4.4
v 2.5 5.7 -4.5
v 2.7 5.7 -4.5
v 2.8 5.7 -4.5
v 2.9 5.7 -4.5
v 3 5.7 -4.5
v 3.2 5.7 -4.5
v 3.3 5.7 -4.5
v 3.4 5.7 -4.5
v 3.5 5.7 -4.5
v 2.9 5.7 -4.6
v 3 5.7 -4.6
v 3.3 5.7 -4.6
v 2.9 5.7 -4.7
v 3 5.7 -4.7
v 2.6 5.8 -3.6
v 2.7 5.8 -3.6
v 2.5 5.8 -3.7
v 2.6 5.8 -3.7
v 2.7 5.8 -3.7
v 2.8 5.8 -3.7
v 2.9 5.8 -3.7
v 2.4 5.8 -3.8
v 2.5 5.8 -3.8
v 2.6 5.8 -3.8
v 2.8 5.8 -3.8
v 2.9 5.8 -3.8
v 3 5.8 -3.8
v 2.3 5.8 -3.9
v 2.4 5.8 -3.9
v 3 5.8 -3.9
v 3.2 5.8 -3.9
v 2.3 5.8 -4
v 2.4 5.8 -4
v 2.5 5.8 -4
v 2.9 5.8 -4
v 3 5.8 -4
v 3.2 5.8 -4
v 3.3 5.8 -4
v 3.4 5.8 -4
v 2.3 5.8 -4.1
v 2.4 5.8 -4.1
v 3.3 5.8 -4.1
v 3.4 5.8 -4.1
v 3.4 5.8 -4.2
v 3.5 5.8 -4.2
v 2.3 5.8 -4.3
v 2.4 5.8 -4.3
v 2.3 5.8 -4.4
v 2.4 5.8 -4.4
v 2.5 5.8 -4.4
v 2.7 5.8 -4.4
v 2.8 5.8 -4.4
v 3.4 5.8 -4.4
v 3.5 5.8 -4.4
v 2.4 5.8 -4.5
v 2.5 5.8 -4.5
v 2.7 5.8 -4.5
v 2.8 5.8 -4.5
v 2.9 5.8 -4.5
v 3.3 5.8 -4.5
v 3.4 5.8 -4.5
v 2.7 5.8 -4.6
v 2.8 5.8 -4.6
v 2.9 5.8 -4.6
v 3 5.8 -4.6
v 3.2 5.8 -4.6
v 3.3 5.8 -4.6
v 3.4 5.8 -4.6
v 3 5.8 -4.7
v 3.2 5.8 -4.7
v 2.4 5.9 -3.6
v 2.5 5.9 -3.6
v 2.6 5.9 -3.6
v 2.8 5.9 -3.6
v 2.9 5.9 -3.6
v 2.4 5.9 -3.7
v 2.5 5.9 -3.7
v 2.6 5.9 -3.7
v 2.8 5.9 -3.7
v 2.9 5.9 -3.7
v 3 5.9 -3.7
v 2.4 5.9 -3.8
v 2.5 5.9 -3.8
v 2.9 5.9 -3.8
v 3 5.9 -3.8
v 3.1 5.9 -3.8
v 3 5.9 -3.9
v 3.1 5.9 -3.9
v 3.2 5.9 -3.9
v 3.3 5.9 -3.9
v 3.2 5.9 -4
v 3.3 5.9 -4
v 3.4 5.9 -4.1
v 3.5 5.9 -4.1
v 3.4 5.9 -4.2
v 3.5 5.9 -4.2
v 3.4 5.9 -4.4
v 3.5 5.9 -4.4
v 3.4 5.9 -4.5
v 3.5 5.9 -4.5
v 2.9 5.9 -4.6
v 3 5.9 -4.6
v 3.2 5.9 -4.6
v 3.3 5.9 -4.6
v 3.4 5.9 -4.6
v 2.9 5.9 -4.7
v 3 5.9 -4.7
v 3.2 5.9 -4.7
v 3.3 5.9 -4.7
v 3.4 5.9 -4.7
v 2.7 6.1 -4.5
v 2.8 6.1 -4.5
v 2.7 6.1 -4.6
v 2.8 6.1 -4.6
v 2.9 6.1 -4.6
v 2.8 6.1 -4.7
v 2.9 6.1 -4.7
v 2.3 6.2 -4
v 2.4 6.2 -4
v 2.3 6.2 -4.2
v 2.4 6.2 -4.2
v 2.4 6.2 -4.3
v 2.5 6.2 -4.3
v 2.4 6.2 -4.4
v 2.5 6.2 -4.4
v 2.6 6.2 -4.5
v 2.7 6.2 -4.5
v 2.6 6.2 -4.6
v 2.7 6.2 -4.6
v 2.8 6.2 -4.6
v 2.7 6.2 -4.7
v 2.8 6.2 -4.7
v 2.5 6.3 -3.7
v 2.6 6.3 -3.7
v 2.8 6.3 -3.7
v 2.9 6.3 -3.7
v 2.5 6.3 -3.8
v 2.6 6.3 -3.8
v 2.8 6.3 -3.8
v 2.9 6.3 -3.8
v 2.3 6.3 -3.9
v 2.4 6.3 -3.9
v 3 6.3 -3.9
v 3.1 6.3 -3.9
v 2.3 6.3 -4
v 2.4 6.3 -4
v 3 6.3 -4
v 3.1 6.3 -4
v 2.3 6.3 -4.2
v 2.4 6.3 -4.2
v 2.3 6.3 -4.3
v 2.4 6.3 -4.3
v 2.5 6.3 -4.4
v 2.6 6.3 -4.4
v 2.5 6.3 -4.5
v 2.6 6.3 -4.5
v 2.3 4.9 -3.5
v 2.5 4.9 -3.5
v 3.4 4.9 -3.5
v 3.6 4.9 -3.5
v 2.3 4.9 -3.6
v 2.4 4.9 -3.6
v 2.5 4.9 -3.6
v 2.6 4.9 -3.6
v 3.3 4.9 -3.6
v 3.4 4.9 -3.6
v 3.5 4.9 -3.6
v 3.6 4.9 -3.6
v 2.5 4.9 -3.7
v 2.6 4.9 -3.7
v 3.3 4.9 -3.7
v 3.4 4.9 -3.7
v 2.6 4.9 -3.8
v 2.7 4.9 -3.8
v 3.4 4.9 -3.8
v 2.4 4.9 -3.9
v 2.5 4.9 -3.9
v 2.6 4.9 -3.9
v 2.7 4.9 -3.9
v 2.8 4.9 -3.9
v 2.9 4.9 -3.9
v 3.4 4.9 -3.9
v 3.5 4.9 -3.9
v 2.4 4.9 -4
v 2.5 4.9 -4
v 2.6 4.9 -4
v 2.8 4.9 -4
v 2.9 4.9 -4
v 3 4.9 -4.2
v 3.1 4.9 -4.2
v 3 4.9 -4.3
v 3.1 4.9 -4.3
v 2.4 4.9 -4.5
v 2.5 4.9 -4.5
v 3.2 4.9 -4.5
v 3.3 4.9 -4.5
v 2.4 4.9 -4.6
v 2.5 4.9 -4.6
v 3.2 4.9 -4.6
v 3.3 4.9 -4.6
v 2.2 4.9 -4.7
v 2.3 4.9 -4.7
v 3.2 4.9 -4.7
v 3.3 4.9 -4.7
v 3.4 4.9 -4.7
v 2.3 4.9 -4.8
v 3.2 4.9 -4.8
v 3.4 4.9 -4.8
v 2.1 4.9 -4.9
v 2.2 4.9 -4.9
v 2.3 4.9 -4.9
v 2.1 4.9 -5
v 2.2 4.9 -5
v 2.4 5 -3.6
v 2.5 5 -3.6
v 2.5 5 -3.7
v 2.6 5 -3.7
v 3.2 5 -3.7
v 3.3 5 -3.7
v 2.4 5 -3.8
v 2.5 5 -3.8
v 2.7 5 -3.8
v 2.8 5 -3.8
v 3.2 5 -3.8
v 3.3 5 -3.8
v 3.4 5 -3.8
v 2.5 5 -3.9
v 2.6 5 -3.9
v 2.7 5 -3.9
v 2.8 5 -3.9
v 3.3 5 -3.9
v 3.4 5 -3.9
v 3.2 5 -4
v 3.3 5 -4
v 3.4 5 -4
v 2.5 5 -4.1
v 2.6 5 -4.1
v 3.2 5 -4.1
v 3.3 5 -4.1
v 2.5 5 -4.2
v 2.6 5 -4.2
v 2.4 5 -4.4
v 2.5 5 -4.4
v 3.2 5 -4.4
v 3.3 5 -4.4
v 2.4 5 -4.5
v 2.5 5 -4.5
v 2.6 5 -4.5
v 3.2 5 -4.5
v 3.3 5 -4.5
v 2.3 5 -4.6
v 2.5 5 -4.6
v 2.6 5 -4.6
v 3.1 5 -4.6
v 3.2 5 -4.6
v 2.3 5 -4.7
v 2.4 5 -4.7
v 2.5 5 -4.7
v 2.6 5 -4.7
v 3.1 5 -4.7
v 3.2 5 -4.7
v 2.3 5 -4.8
v 2.4 5 -4.8
v 3.3 5.1 -3.7
v 3.4 5.1 -3.7
v 3.1 5.1 -3.8
v 3.3 5.1 -3.8
v 3.4 5.1 -3.8
v 2.6 5.1 -3.9
v 2.7 5.1 -3.9
v 3.1 5.1 -3.9
v 3.2 5.1 -3.9
v 3.3 5.1 -3.9
v 2.5 5.1 -4
v 2.6 5.1 -4
v 2.7 5.1 -4
v 3.2 5.1 -4
v 3.3 5.1 -4
v 2.5 5.1 -4.1
v 2.6 5.1 -4.1
v 3.1 5.1 -4.1
v 3.2 5.1 -4.1
v 3.1 5.1 -4.2
v 3.2 5.1 -4.2
v 2.5 5.1 -4.3
v 2.6 5.1 -4.3
v 2.5 5.1 -4.4
v 2.6 5.1 -4.4
v 2.8 5.1 -4.4
v 2.9 5.1 -4.4
v 3 5.1 -4.4
v 2.5 5.1 -4.5
v 2.6 5.1 -4.5
v 2.8 5.1 -4.5
v 2.9 5.1 -4.5
v 3 5.1 -4.5
v 2.7 5.2 -3.9
v 2.8 5.2 -3.9
v 2.6 5.2 -4
v 2.7 5.2 -4
v 2.8 5.2 -4
v 3.1 5.2 -4
v 3.2 5.2 -4
v 2.6 5.2 -4.1
v 2.7 5.2 -4.1
v 3 5.2 -4.1
v 3.1 5.2 -4.1
v 3.2 5.2 -4.1
v 3 5.2 -4.2
v 3.1 5.2 -4.2
v 2.6 5.2 -4.5
v 2.7 5.2 -4.5
v 2.8 5.2 -4.5
v 3.1 5.2 -4.5
v 3.2 5.2 -4.5
v 2.6 5.2 -4.6
v 2.8 5.2 -4.6
v 3.1 5.2 -4.6
v 3.2 5.2 -4.6
v 3 5.3 -3.9
v 3.2 5.3 -3.9
v 3 5.3 -4
v 3.1 5.3 -4
v 3.2 5.3 -4
v 2.6 5.3 -4.1
v 2.7 5.3 -4.1
v 2.6 5.3 -4.2
v 2.7 5.3 -4.2
v 2.7 5.3 -4.3
v 2.6 5.3 -4.4
v 2.7 5.3 -4.4
v 3 5.3 -4.4
v 3.1 5.3 -4.4
v 3.2 5.3 -4.4
v 2.6 5.3 -4.5
v 2.7 5.3 -4.5
v 3 5.3 -4.5
v 3.1 5.3 -4.5
v 3.2 5.3 -4.5
v 2.8 5.4 -3.9
v 2.9 5.4 -3.9
v 2.8 5.4 -4
v 2.9 5.4 -4
v 3 5.4 -4
v 3.1 5.4 -4
v 2.8 5.4 -4.1
v 2.9 5.4 -4.1
v 3 5.4 -4.1
v 3.1 5.4 -4.1
v 3.1 5.4 -4.3
v 3.2 5.4 -4.3
v 2.7 5.4 -4.4
v 2.8 5.4 -4.4
v 2.9 5.4 -4.4
v 3 5.4 -4.4
v 3.1 5.4 -4.4
v 3.2 5.4 -4.4
v 2.7 5.4 -4.5
v 2.8 5.4 -4.5
v 2.9 5.4 -4.5
v 3 5.4 -4.5
v 2.7 5.5 -4
v 2.8 5.5 -4
v 2.9 5.5 -4
v 3 5.5 -4
v 2.7 5.5 -4.1
v 2.8 5.5 -4.1
v 2.9 5.5 -4.1
v 3 5.5 -4.1
v 3 5.5 -4.3
v 3.1 5.5 -4.3
v 3 5.5 -4.4
v 3.1 5.5 -4.4
v 2.9 5.6 -4.1
v 3 5.6 -4.1
v 2.9 5.6 -4.2
v 3 5.6 -4.2
v 2.7 5.6 -4.3
v 2.8 5.6 -4.3
v 2.7 5.6 -4.4
v 2.8 5.6 -4.4
v 3.2 5.8 -3.9
v 3.3 5.8 -3.9
v 3.2 5.8 -4
v 3.3 5.8 -4
v 3.4 5.8 -4.4
v 3.5 5.8 -4.4
v 3.4 5.8 -4.5
v 3.5 5.8 -4.5
v 2.9 5.8 -4.6
v 3 5.8 -4.6
v 2.9 5.8 -4.7
v 3 5.8 -4.7
v 2.3 5.9 -3.9
v 2.4 5.9 -3.9
v 2.3 5.9 -4
v 2.4 5.9 -4
v 2.7 5.9 -4.5
v 2.8 5.9 -4.5
v 2.7 5.9 -4.6
v 2.8 5.9 -4.6
v 2.4 6 -3.6
v 2.5 6 -3.6
v 2.4 6 -3.7
v 2.5 6 -3.7
v 3 6 -3.8
v 3.1 6 -3.8
v 3 6 -3.9
v 3.1 6 -3.9
v 2.3 6 -4
v 2.4 6 -4
v 2.3 6 -4.1
v 2.4 6 -4.1
v 2.3 6 -4.3
v 2.4 6 -4.3
v 2.3 6 -4.4
v 2.4 6 -4.4
v 3.3 6 -4.6
v 3.4 6 -4.6
v 3.3 6 -4.7
v 3.4 6 -4.7
v 2.5 6.1 -3.6
v 2.6 6.1 -3.6
v 2.8 6.1 -3.6
v 2.9 6.1 -3.6
v 2.4 6.1 -3.7
v 2.5 6.1 -3.7
v 2.6 6.1 -3.7
v 2.8 6.1 -3.7
v 2.9 6.1 -3.7
v 3 6.1 -3.7
v 2.4 6.1 -3.8
v 2.5 6.1 -3.8
v 2.9 6.1 -3.8
v 3 6.1 -3.8
v 3.2 6.1 -3.9
v 3.3 6.1 -3.9
v 3.2 6.1 -4
v 3.3 6.1 -4
v 2.3 6.1 -4.1
v 2.4 6.1 -4.1
v 3.4 6.1 -4.1
v 3.5 6.1 -4.1
v 3.4 6.1 -4.2
v 3.5 6.1 -4.2
v 2.3 6.1 -4.3
v 2.4 6.1 -4.3
v 2.5 6.1 -4.3
v 2.4 6.1 -4.4
v 2.5 6.1 -4.4
v 2.6 6.1 -4.4
v 3.4 6.1 -4.4
v 3.5 6.1 -4.4
v 2.4 6.1 -4.5
v 2.5 6.1 -4.5
v 2.6 6.1 -4.5
v 3.4 6.1 -4.5
v 3.5 6.1 -4.5
v 3.2 6.1 -4.6
v 3.3 6.1 -4.6
v 3.2 6.1 -4.7
v 3.3 6.1 -4.7
v 2.6 6.2 -3.6
v 2.8 6.2 -3.6
v 2.5 6.2 -3.7
v 2.6 6.2 -3.7
v 2.8 6.2 -3.7
v 2.9 6.2 -3.7
v 2.5 6.2 -3.8
v 2.6 6.2 -3.8
v 2.8 6.2 -3.8
v 2.9 6.2 -3.8
v 3 6.2 -3.9
v 3.2 6.2 -3.9
v 3 6.2 -4
v 3.1 6.2 -4
v 3.2 6.2 -4
v 3.3 6.2 -4
v 3.4 6.2 -4
v 3.3 6.2 -4.1
v 3.4 6.2 -4.1
v 3.4 6.2 -4.2
v 3.5 6.2 -4.2
v 3.4 6.2 -4.4
v 3.5 6.2 -4.4
v 3.3 6.2 -4.5
v 3.4 6.2 -4.5
v 3.1 6.2 -4.6
v 3.2 6.2 -4.6
v 3.3 6.2 -4.6
v 3.4 6.2 -4.6
v 3.1 6.2 -4.7
v 3.2 6.2 -4.7
v 3.1 6.3 -4
v 3.3 6.3 -4
v 3.1 6.3 -4.1
v 3.2 6.3 -4.1
v 3.3 6.3 -4.1
v 3.4 6.3 -4.1
v 3.2 6.3 -4.2
v 3.3 6.3 -4.2
v 3.2 6.3 -4.4
v 3.3 6.3 -4.4
v 3.3 6.3 -4.5
v 3.4 6.3 -4.5
v 3.2 6.3 -4.6
v 3.3 6.3 -4.6
v 3.1 6.4 -4.1
v 3.2 6.4 -4.1
v 3.1 6.4 -4.2
v 3.2 6.4 -4.2
v 3.3 6.4 -4.2
v 3.1 6.4 -4.3
v 3.2 6.4 -4.3
v 3.2 6.4 -4.4
v 3.3 6.4 -4.4
v 2.6 6.4 -4.5
v 2.7 6.4 -4.5
v 3.1 6.4 -4.5
v 3.2 6.4 -4.5
v 2.6 6.4 -4.6
v 2.7 6.4 -4.6
v 2.8 6.4 -4.6
v 3 6.4 -4.6
v 3.1 6.4 -4.6
v 3.2 6.4 -4.6
v 2.7 6.4 -4.7
v 2.8 6.4 -4.7
v 3 6.4 -4.7
v 3.1 6.4 -4.7
v 2.5 6.5 -3.7
v 2.6 6.5 -3.7
v 2.8 6.5 -3.7
v 2.9 6.5 -3.7
v 2.5 6.5 -3.8
v 2.6 6.5 -3.8
v 2.8 6.5 -3.8
v 2.9 6.5 -3.8
v 2.3 6.5 -3.9
v 2.4 6.5 -3.9
v 3 6.5 -3.9
v 3.1 6.5 -3.9
v 2.3 6.5 -4
v 2.4 6.5 -4
v 3 6.5 -4
v 3.1 6.5 -4
v 2.3 6.5 -4.2
v 2.4 6.5 -4.2
v 3 6.5 -4.2
v 3.1 6.5 -4.2
v 2.3 6.5 -4.3
v 2.4 6.5 -4.3
v 3 6.5 -4.3
v 3.1 6.5 -4.3
v 3.2 6.5 -4.3
v 2.5 6.5 -4.4
v 2.6 6.5 -4.4
v 2.5 6.5 -4.5
v 2.6 6.5 -4.5
v 2.7 6.5 -4.5
v 2.8 6.5 -4.5
v 3 6.5 -4.5
v 3.1 6.5 -4.5
v 3.2 6.5 -4.5
v 2.7 6.5 -4.6
v 2.8 6.5 -4.6
v 3 6.5 -4.6
v 3.1 6.5 -4.6
v 2.8 6.5 -4.7
v 3 6.5 -4.7
v 2.6 6.6 -3.7
v 2.8 6.6 -3.7
v 2.4 6.6 -3.8
v 2.5 6.6 -3.8
v 2.6 6.6 -3.8
v 2.8 6.6 -3.8
v 2.9 6.6 -3.8
v 3 6.6 -3.8
v 2.4 6.6 -3.9
v 2.5 6.6 -3.9
v 2.9 6.6 -3.9
v 3 6.6 -3.9
v 2.3 6.6 -4
v 2.4 6.6 -4
v 3 6.6 -4
v 3.1 6.6 -4
v 2.3 6.6 -4.2
v 2.4 6.6 -4.2
v 3 6.6 -4.2
v 3.1 6.6 -4.2
v 2.4 6.6 -4.3
v 2.5 6.6 -4.3
v 2.9 6.6 -4.3
v 3 6.6 -4.3
v 3.1 6.6 -4.3
v 2.4 6.6 -4.4
v 2.5 6.6 -4.4
v 2.6 6.6 -4.4
v 2.7 6.6 -4.4
v 2.9 6.6 -4.4
v 2.6 6.6 -4.5
v 2.7 6.6 -4.5
v 2.8 6.6 -4.5
v 3 6.6 -4.5
v 3.1 6.6 -4.5
v 2.8 6.6 -4.6
v 3 6.6 -4.6
v 2.5 6.7 -3.8
v 2.9 6.7 -3.8
v 2.4 6.7 -3.9
v 2.5 6.7 -3.9
v 2.6 6.7 -3.9
v 2.8 6.7 -3.9
v 2.9 6.7 -3.9
v 3 6.7 -3.9
v 2.5 6.7 -4
v 2.6 6.7 -4
v 2.8 6.7 -4
v 2.9 6.7 -4
v 2.5 6.7 -4.2
v 2.6 6.7 -4.2
v 2.8 6.7 -4.2
v 2.9 6.7 -4.2
v 2.4 6.7 -4.3
v 2.5 6.7 -4.3
v 2.6 6.7 -4.3
v 2.8 6.7 -4.3
v 2.9 6.7 -4.3
v 3 6.7 -4.3
v 2.5 6.7 -4.4
v 2.9 6.7 -4.4
v 2.6 6.8 -3.9
v 2.8 6.8 -3.9
v 2.5 6.8 -4
v 2.6 6.8 -4
v 2.8 6.8 -4
v 2.9 6.8 -4
v 2.5 6.8 -4.2
v 2.6 6.8 -4.2
v 2.8 6.8 -4.2
v 2.9 6.8 -4.2
v 2.6 6.8 -4.3
v 2.8 6.8 -4.3

# faces
f 3/9/1 2/9/1 1/9/1
f 4/9/1 2/9/1 3/9/1
f 7/9/1 6/9/1 5/9/1
f 8/9/1 6/9/1 7/9/1
f 13/5/1 10/5/1 9/5/1
f 14/5/1 10/5/1 13/5/1
f 15/9/1 12/9/1 11/9/1
f 16/9/1 12/9/1 15/9/1
f 18/5/1 16/5/1 15/5/1
f 19/9/1 17/9/1 16/9/1
f 19/5/1 16/5/1 18/5/1
f 20/9/1 17/9/1 19/9/1
f 25/2/1 22/2/1 21/2/1
f 26/2/1 22/2/1 25/2/1
f 28/8/1 24/8/1 23/8/1
f 29/2/1 27/2/1 26/2/1
f 29/8/1 24/8/1 28/8/1
f 29/2/1 25/2/1 24/2/1
f 29/2/1 26/2/1 25/2/1
f 30/2/1 27/2/1 29/2/1
f 31/2/1 27/2/1 30/2/1
f 32/2/1 27/2/1 31/2/1
f 33/2/1 27/2/1 32/2/1
f 34/2/1 32/2/1 31/2/1
f 35/2/1 32/2/1 34/2/1
f 39/1/1 37/1/1 36/1/1
f 40/1/1 37/1/1 39/1/1
f 42/1/1 39/1/1 38/1/1
f 42/1/1 41/1/1 40/1/1
f 42/1/1 40/1/1 39/1/1
f 43/1/1 41/1/1 42/1/1
f 44/1/1 41/1/1 43/1/1
f 45/1/1 41/1/1 44/1/1
f 46/1/1 44/1/1 43/1/1
f 47/1/1 44/1/1 46/1/1
f 55/6/1 49/6/1 48/6/1
f 56/7/1 50/7/1 49/7/1
f 56/6/1 49/6/1 55/6/1
f 57/7/1 50/7/1 56/7/1
f 58/9/1 52/9/1 51/9/1
f 59/9/1 52/9/1 58/9/1
f 60/6/1 54/6/1 53/6/1
f 61/6/1 54/6/1 60/6/1
f 62/6/1 54/6/1 61/6/1
f 63/6/1 57/6/1 56/6/1
f 63/6/1 56/6/1 55/6/1
f 64/6/1 57/6/1 63/6/1
f 65/9/1 61/9/1 60/9/1
f 66/9/1 61/9/1 65/9/1
f 70/2/1 68/2/1 67/2/1
f 71/2/1 68/2/1 70/2/1
f 75/2/1 70/2/1 69/2/1
f 76/2/1 70/2/1 75/2/1
f 77/2/1 72/2/1 71/2/1
f 78/2/1 72/2/1 77/2/1
f 82/3/1 74/3/1 73/3/1
f 83/3/1 74/3/1 82/3/1
f 85/8/1 81/8/1 80/8/1
f 86/3/1 84/3/1 83/3/1
f 86/8/1 81/8/1 85/8/1
f 86/3/1 82/3/1 81/3/1
f 86/3/1 83/3/1 82/3/1
f 87/3/1 84/3/1 86/3/1
f 90/2/1 79/2/1 78/2/1
f 91/2/1 79/2/1 90/2/1
f 92/3/1 88/3/1 87/3/1
f 92/3/1 87/3/1 86/3/1
f 93/3/1 88/3/1 92/3/1
f 94/3/1 88/3/1 93/3/1
f 95/3/1 88/3/1 94/3/1
f 96/2/1 90/2/1 89/2/1
f 97/8/1 91/8/1 90/8/1
f 97/2/1 90/2/1 96/2/1
f 98/8/1 91/8/1 97/8/1
f 99/3/1 94/3/1 93/3/1
f 100/1/1 96/1/1 95/1/1
f 100/3/1 94/3/1 99/3/1
f 100/1/1 95/1/1 94/1/1
f 101/1/1 96/1/1 100/1/1
f 102/1/1 96/1/1 101/1/1
f 103/1/1 96/1/1 102/1/1
f 105/1/1 100/1/1 99/1/1
f 105/1/1 101/1/1 100/1/1
f 106/1/1 101/1/1 105/1/1
f 107/1/1 104/1/1 103/1/1
f 107/1/1 103/1/1 102/1/1
f 108/1/1 104/1/1 107/1/1
f 109/1/1 105/1/1 99/1/1
f 112/1/1 104/1/1 108/1/1
f 113/1/1 110/1/1 109/1/1
f 113/1/1 109/1/1 99/1/1
f 114/1/1 110/1/1 113/1/1
f 115/1/1 110/1/1 114/1/1
f 116/1/1 112/1/1 111/1/1
f 117/1/1 104/1/1 112/1/1
f 117/1/1 112/1/1 116/1/1
f 118/1/1 104/1/1 117/1/1
f 119/1/1 115/1/1 114/1/1
f 119/1/1 116/1/1 115/1/1
f 119/1/1 117/1/1 116/1/1
f 120/1/1 117/1/1 119/1/1
f 125/7/1 122/7/1 121/7/1
f 126/7/1 122/7/1 125/7/1
f 127/9/1 124/9/1 123/9/1
f 128/9/1 124/9/1 127/9/1
f 134/6/1 126/6/1 125/6/1
f 135/6/1 126/6/1 134/6/1
f 136/7/1 128/7/1 127/7/1
f 136/9/1 129/9/1 128/9/1
f 137/9/1 129/9/1 136/9/1
f 138/9/1 131/9/1 130/9/1
f 139/5/1 133/5/1 132/5/1
f 140/5/1 133/5/1 139/5/1
f 141/7/1 136/7/1 127/7/1
f 142/7/1 136/7/1 141/7/1
f 143/9/1 138/9/1 130/9/1
f 144/6/1 139/6/1 138/6/1
f 144/9/1 138/9/1 143/9/1
f 145/6/1 139/6/1 144/6/1
f 151/2/1 147/2/1 146/2/1
f 152/2/1 147/2/1 151/2/1
f 153/2/1 149/2/1 148/2/1
f 154/2/1 149/2/1 153/2/1
f 157/3/1 151/3/1 150/3/1
f 158/3/1 151/3/1 157/3/1
f 159/2/1 155/2/1 154/2/1
f 160/2/1 155/2/1 159/2/1
f 161/3/1 157/3/1 156/3/1
f 162/3/1 157/3/1 161/3/1
f 165/3/1 164/3/1 163/3/1
f 166/3/1 164/3/1 165/3/1
f 170/3/1 167/3/1 166/3/1
f 171/3/1 167/3/1 170/3/1
f 172/1/1 169/1/1 168/1/1
f 173/1/1 169/1/1 172/1/1
f 178/1/1 175/1/1 174/1/1
f 179/1/1 175/1/1 178/1/1
f 180/1/1 177/1/1 176/1/1
f 181/1/1 177/1/1 180/1/1
f 186/1/1 183/1/1 182/1/1
f 187/1/1 183/1/1 186/1/1
f 190/1/1 185/1/1 184/1/1
f 191/1/1 185/1/1 190/1/1
f 192/1/1 189/1/1 188/1/1
f 193/1/1 189/1/1 192/1/1
f 199/9/1 195/9/1 194/9/1
f 200/9/1 195/9/1 199/9/1
f 201/6/1 196/6/1 195/6/1
f 201/9/1 195/9/1 200/9/1
f 202/6/1 196/6/1 201/6/1
f 203/6/1 198/6/1 197/6/1
f 205/9/1 201/9/1 200/9/1
f 208/6/1 198/6/1 203/6/1
f 209/6/1 198/6/1 208/6/1
f 210/7/1 205/7/1 204/7/1
f 211/9/1 201/9/1 205/9/1
f 211/7/1 205/7/1 210/7/1
f 212/9/1 201/9/1 211/9/1
f 214/6/1 207/6/1 206/6/1
f 215/6/1 210/6/1 209/6/1
f 216/7/1 211/7/1 210/7/1
f 216/6/1 210/6/1 215/6/1
f 216/7/1 212/7/1 211/7/1
f 217/7/1 212/7/1 216/7/1
f 218/6/1 214/6/1 213/6/1
f 218/7/1 212/7/1 217/7/1
f 218/6/1 213/6/1 212/6/1
f 219/6/1 214/6/1 218/6/1
f 220/6/1 207/6/1 214/6/1
f 220/6/1 214/6/1 219/6/1
f 221/6/1 207/6/1 220/6/1
f 222/5/1 217/5/1 216/5/1
f 223/6/1 219/6/1 218/6/1
f 223/5/1 217/5/1 222/5/1
f 223/6/1 218/6/1 217/6/1
f 224/5/1 220/5/1 219/5/1
f 224/6/1 219/6/1 223/6/1
f 225/5/1 220/5/1 224/5/1
f 228/5/1 227/5/1 226/5/1
f 229/5/1 227/5/1 228/5/1
f 232/7/1 229/7/1 228/7/1
f 232/7/1 230/7/1 229/7/1
f 233/9/1 231/9/1 230/9/1
f 233/7/1 230/7/1 232/7/1
f 234/9/1 231/9/1 233/9/1
f 238/3/1 236/3/1 235/3/1
f 239/3/1 236/3/1 238/3/1
f 240/3/1 238/3/1 237/3/1
f 241/3/1 238/3/1 240/3/1
f 246/3/1 243/3/1 242/3/1
f 247/3/1 243/3/1 246/3/1
f 249/4/1 245/4/1 244/4/1
f 251/1/1 248/1/1 247/1/1
f 252/1/1 248/1/1 251/1/1
f 253/4/1 249/4/1 244/4/1
f 253/4/1 250/4/1 249/4/1
f 254/4/1 250/4/1 253/4/1
f 255/4/1 250/4/1 254/4/1
f 256/4/1 250/4/1 255/4/1
f 261/1/1 258/1/1 257/1/1
f 262/1/1 258/1/1 261/1/1
f 263/1/1 260/1/1 259/1/1
f 264/1/1 260/1/1 263/1/1
f 269/1/1 266/1/1 265/1/1
f 270/1/1 266/1/1 269/1/1
f 271/1/1 268/1/1 267/1/1
f 272/1/1 268/1/1 271/1/1
f 275/5/1 274/5/1 273/5/1
f 276/5/1 274/5/1 275/5/1
f 279/5/1 278/5/1 277/5/1
f 280/5/1 278/5/1 279/5/1
f 282/6/1 281/6/1 280/6/1
f 287/6/1 282/6/1 280/6/1
f 287/6/1 283/6/1 282/6/1
f 287/6/1 284/6/1 283/6/1
f 288/6/1 284/6/1 287/6/1
f 289/6/1 284/6/1 288/6/1
f 290/5/1 285/5/1 284/5/1
f 290/6/1 284/6/1 289/6/1
f 291/6/1 286/6/1 285/6/1
f 291/5/1 285/5/1 290/5/1
f 292/6/1 286/6/1 291/6/1
f 293/7/1 289/7/1 288/7/1
f 294/6/1 290/6/1 289/6/1
f 294/7/1 289/7/1 293/7/1
f 294/6/1 291/6/1 290/6/1
f 295/6/1 291/6/1 294/6/1
f 296/6/1 291/6/1 295/6/1
f 297/6/1 291/6/1 296/6/1
f 300/8/1 299/8/1 298/8/1
f 301/8/1 299/8/1 300/8/1
f 304/8/1 303/8/1 302/8/1
f 305/8/1 303/8/1 304/8/1
f 308/4/1 307/4/1 306/4/1
f 309/4/1 307/4/1 308/4/1
f 312/4/1 310/4/1 309/4/1
f 313/4/1 310/4/1 312/4/1
f 314/4/1 312/4/1 311/4/1
f 315/4/1 312/4/1 314/4/1
f 318/9/1 317/9/1 316/9/1
f 319/9/1 317/9/1 318/9/1
f 322/6/1 321/6/1 320/6/1
f 323/6/1 321/6/1 322/6/1
f 326/9/1 325/9/1 324/9/1
f 327/9/1 325/9/1 326/9/1
f 329/2/1 328/2/1 327/2/1
f 330/2/1 328/2/1 329/2/1
f 333/2/1 332/2/1 331/2/1
f 334/2/1 332/2/1 333/2/1
f 335/4/1 334/4/1 333/4/1
f 336/4/1 334/4/1 335/4/1
f 338/4/1 337/4/1 336/4/1
f 339/4/1 337/4/1 338/4/1
f 343/4/1 341/4/1 340/4/1
f 344/4/1 341/4/1 343/4/1
f 345/4/1 343/4/1 342/4/1
f 346/4/1 343/4/1 345/4/1
f 349/9/1 348/9/1 347/9/1
f 350/9/1 348/9/1 349/9/1
f 351/9/1 348/9/1 350/9/1
f 352/9/1 348/9/1 351/9/1
f 357/7/1 354/7/1 353/7/1
f 358/7/1 354/7/1 357/7/1
f 359/6/1 356/6/1 355/6/1
f 360/6/1 356/6/1 359/6/1
f 363/9/1 362/9/1 361/9/1
f 364/9/1 362/9/1 363/9/1
f 368/2/1 366/2/1 365/2/1
f 369/8/1 367/8/1 366/8/1
f 369/2/1 366/2/1 368/2/1
f 370/8/1 367/8/1 369/8/1
f 373/2/1 372/2/1 371/2/1
f 374/2/1 372/2/1 373/2/1
f 375/2/1 372/2/1 374/2/1
f 380/6/1 379/6/1 378/6/1
f 381/6/1 379/6/1 380/6/1
f 382/6/1 377/6/1 376/6/1
f 383/6/1 377/6/1 382/6/1
f 388/2/1 385/2/1 384/2/1
f 389/2/1 385/2/1 388/2/1
f 390/2/1 387/2/1 386/2/1
f 391/2/1 387/2/1 390/2/1
f 394/2/1 393/2/1 392/2/1
f 395/2/1 393/2/1 394/2/1
f 400/6/1 397/6/1 396/6/1
f 401/6/1 397/6/1 400/6/1
f 402/6/1 399/6/1 398/6/1
f 403/6/1 399/6/1 402/6/1
f 404/6/1 399/6/1 403/6/1
f 405/6/1 400/6/1 396/6/1
f 406/6/1 400/6/1 405/6/1
f 407/6/1 403/6/1 402/6/1
f 408/6/1 403/6/1 407/6/1
f 413/9/1 412/9/1 411/9/1
f 414/9/1 412/9/1 413/9/1
f 415/6/1 410/6/1 409/6/1
f 416/6/1 410/6/1 415/6/1
f 419/8/1 418/8/1 417/8/1
f 420/8/1 418/8/1 419/8/1
f 423/9/1 422/9/1 421/9/1
f 424/9/1 422/9/1 423/9/1
f 427/6/1 426/6/1 425/6/1
f 428/6/1 426/6/1 427/6/1
f 431/9/1 430/9/1 429/9/1
f 432/9/1 430/9/1 431/9/1
f 433/9/2 434/9/2 435/9/2
f 435/9/2 434/9/2 436/9/2
f 437/9/2 438/9/2 439/9/2
f 439/9/2 438/9/2 440/9/2
f 441/9/2 442/9/2 443/9/2
f 443/9/2 442/9/2 444/9/2
f 444/9/2 442/9/2 445/9/2
f 446/5/2 447/5/2 448/5/2
f 448/5/2 447/5/2 449/5/2
f 449/6/2 450/6/2 451/6/2
f 451/6/2 450/6/2 452/6/2
f 453/5/2 454/5/2 458/5/2
f 454/7/2 455/7/2 459/7/2
f 458/5/2 454/5/2 459/5/2
f 459/7/2 455/7/2 460/7/2
f 456/6/2 457/6/2 462/6/2
f 462/6/2 457/6/2 463/6/2
f 460/6/2 461/6/2 464/6/2
f 459/6/2 460/6/2 464/6/2
f 464/6/2 461/6/2 465/6/2
f 463/6/2 457/6/2 466/6/2
f 466/6/2 457/6/2 467/6/2
f 468/7/2 469/7/2 472/7/2
f 472/7/2 469/7/2 473/7/2
f 470/6/2 471/6/2 474/6/2
f 474/6/2 471/6/2 475/6/2
f 475/6/2 471/6/2 476/6/2
f 476/6/2 477/6/2 478/6/2
f 478/6/2 477/6/2 479/6/2
f 479/6/2 477/6/2 480/6/2
f 481/7/2 482/7/2 483/7/2
f 483/7/2 482/7/2 484/7/2
f 485/2/2 486/2/2 487/2/2
f 487/2/2 486/2/2 488/2/2
f 488/2/2 489/2/2 490/2/2
f 490/2/2 489/2/2 491/2/2
f 492/9/2 493/9/2 496/9/2
f 496/9/2 493/9/2 497/9/2
f 494/9/2 495/9/2 499/9/2
f 499/9/2 495/9/2 500/9/2
f 496/5/2 497/5/2 501/5/2
f 497/7/2 498/7/2 502/7/2
f 501/5/2 497/5/2 502/5/2
f 502/7/2 498/7/2 503/7/2
f 502/5/2 503/5/2 507/5/2
f 507/5/2 503/5/2 508/5/2
f 505/6/2 506/6/2 509/6/2
f 504/6/2 505/6/2 509/6/2
f 509/6/2 506/6/2 510/6/2
f 510/6/2 506/6/2 511/6/2
f 509/6/2 510/6/2 514/6/2
f 514/6/2 510/6/2 515/6/2
f 512/6/2 513/6/2 516/6/2
f 516/6/2 513/6/2 517/6/2
f 518/9/2 519/9/2 523/9/2
f 523/9/2 519/9/2 524/9/2
f 520/8/2 521/8/2 525/8/2
f 521/3/2 522/3/2 526/3/2
f 525/8/2 521/8/2 526/8/2
f 526/3/2 522/3/2 527/3/2
f 525/3/2 526/3/2 528/3/2
f 528/3/2 526/3/2 529/3/2
f 530/3/2 531/3/2 532/3/2
f 532/3/2 531/3/2 533/3/2
f 533/1/2 534/1/2 535/1/2
f 535/1/2 534/1/2 536/1/2
f 537/1/2 538/1/2 539/1/2
f 539/1/2 538/1/2 540/1/2
f 541/1/2 542/1/2 545/1/2
f 545/1/2 542/1/2 546/1/2
f 543/1/2 544/1/2 547/1/2
f 547/1/2 544/1/2 548/1/2
f 549/9/2 550/9/2 551/9/2
f 551/9/2 550/9/2 552/9/2
f 553/6/2 554/6/2 555/6/2
f 555/6/2 554/6/2 556/6/2
f 557/9/2 558/9/2 561/9/2
f 561/9/2 558/9/2 562/9/2
f 559/3/2 560/3/2 564/3/2
f 564/3/2 560/3/2 565/3/2
f 563/3/2 564/3/2 567/3/2
f 567/3/2 564/3/2 568/3/2
f 566/3/2 567/3/2 569/3/2
f 569/3/2 567/3/2 570/3/2
f 570/3/2 571/3/2 572/3/2
f 572/3/2 571/3/2 573/3/2
f 574/1/2 575/1/2 576/1/2
f 576/1/2 575/1/2 577/1/2
f 578/1/2 579/1/2 582/1/2
f 582/1/2 579/1/2 583/1/2
f 580/1/2 581/1/2 586/1/2
f 586/1/2 581/1/2 587/1/2
f 584/1/2 585/1/2 588/1/2
f 588/1/2 585/1/2 589/1/2
f 590/7/2 591/7/2 592/7/2
f 592/7/2 591/7/2 593/7/2
f 593/9/2 594/9/2 595/9/2
f 595/9/2 594/9/2 596/9/2
f 597/7/2 598/7/2 602/7/2
f 602/7/2 598/7/2 603/7/2
f 599/7/2 600/7/2 604/7/2
f 604/7/2 600/7/2 605/7/2
f 601/6/2 602/6/2 606/6/2
f 606/6/2 602/6/2 607/6/2
f 608/5/2 609/5/2 612/5/2
f 612/5/2 609/5/2 613/5/2
f 610/9/2 611/9/2 614/9/2
f 614/9/2 611/9/2 615/9/2
f 616/8/2 617/8/2 620/8/2
f 620/8/2 617/8/2 621/8/2
f 618/3/2 619/3/2 623/3/2
f 623/3/2 619/3/2 624/3/2
f 622/3/2 623/3/2 625/3/2
f 622/3/2 625/3/2 627/3/2
f 625/3/2 626/3/2 627/3/2
f 627/3/2 626/3/2 628/3/2
f 628/3/2 626/3/2 629/3/2
f 629/3/2 626/3/2 630/3/2
f 629/1/2 630/1/2 632/1/2
f 630/1/2 631/1/2 632/1/2
f 632/1/2 631/1/2 633/1/2
f 629/1/2 632/1/2 636/1/2
f 634/4/2 635/4/2 641/4/2
f 641/4/2 635/4/2 642/4/2
f 629/1/2 636/1/2 643/1/2
f 636/1/2 637/1/2 643/1/2
f 643/1/2 637/1/2 644/1/2
f 644/1/2 637/1/2 645/1/2
f 638/4/2 639/4/2 646/4/2
f 646/4/2 639/4/2 647/4/2
f 640/4/2 641/4/2 648/4/2
f 648/4/2 641/4/2 649/4/2
f 644/1/2 645/1/2 650/1/2
f 646/1/2 647/1/2 650/1/2
f 645/1/2 646/1/2 650/1/2
f 650/1/2 647/1/2 651/1/2
f 652/9/2 653/9/2 654/9/2
f 654/9/2 653/9/2 655/9/2
f 656/9/2 657/9/2 659/9/2
f 659/9/2 657/9/2 660/9/2
f 658/7/2 659/7/2 662/7/2
f 659/9/2 660/9/2 663/9/2
f 662/7/2 659/7/2 663/7/2
f 663/9/2 660/9/2 664/9/2
f 661/6/2 662/6/2 665/6/2
f 663/6/2 664/6/2 666/6/2
f 665/6/2 662/6/2 667/6/2
f 667/6/2 662/6/2 668/6/2
f 663/6/2 666/6/2 669/6/2
f 669/6/2 666/6/2 670/6/2
f 668/7/2 669/7/2 672/7/2
f 669/6/2 670/6/2 673/6/2
f 672/7/2 669/7/2 673/7/2
f 670/7/2 671/7/2 674/7/2
f 673/6/2 670/6/2 674/6/2
f 674/7/2 671/7/2 675/7/2
f 672/9/2 673/9/2 676/9/2
f 673/6/2 674/6/2 677/6/2
f 676/9/2 673/9/2 677/9/2
f 677/6/2 674/6/2 678/6/2
f 679/8/2 680/8/2 681/8/2
f 681/8/2 680/8/2 682/8/2
f 685/1/2 686/1/2 688/1/2
f 686/1/2 687/1/2 688/1/2
f 683/4/2 684/4/2 692/4/2
f 692/4/2 684/4/2 693/4/2
f 685/1/2 688/1/2 694/1/2
f 688/1/2 689/1/2 694/1/2
f 694/1/2 689/1/2 695/1/2
f 689/4/2 690/4/2 696/4/2
f 695/1/2 689/1/2 696/1/2
f 696/4/2 690/4/2 697/4/2
f 691/4/2 692/4/2 698/4/2
f 698/4/2 692/4/2 699/4/2
f 695/1/2 696/1/2 700/1/2
f 700/1/2 696/1/2 701/1/2
f 697/4/2 698/4/2 702/4/2
f 702/4/2 698/4/2 703/4/2
f 704/9/2 705/9/2 708/9/2
f 706/7/2 707/7/2 713/7/2
f 704/9/2 708/9/2 714/9/2
f 710/6/2 711/6/2 715/6/2
f 709/6/2 710/6/2 715/6/2
f 715/6/2 711/6/2 716/6/2
f 716/6/2 711/6/2 717/6/2
f 712/7/2 713/7/2 719/7/2
f 713/7/2 707/7/2 720/7/2
f 719/7/2 713/7/2 720/7/2
f 720/7/2 707/7/2 721/7/2
f 704/9/2 714/9/2 722/9/2
f 714/5/2 715/5/2 723/5/2
f 722/9/2 714/9/2 723/9/2
f 718/6/2 719/6/2 724/6/2
f 719/7/2 720/7/2 724/7/2
f 724/7/2 720/7/2 725/7/2
f 723/5/2 715/5/2 726/5/2
f 722/6/2 723/6/2 726/6/2
f 715/6/2 716/6/2 727/6/2
f 726/5/2 715/5/2 727/5/2
f 727/6/2 716/6/2 728/6/2
f 718/6/2 724/6/2 729/6/2
f 729/6/2 724/6/2 730/6/2
f 722/6/2 726/6/2 731/6/2
f 726/7/2 727/7/2 732/7/2
f 731/6/2 726/6/2 732/6/2
f 732/7/2 727/7/2 733/7/2
f 731/7/2 732/7/2 734/7/2
f 734/7/2 732/7/2 735/7/2
f 736/2/2 737/2/2 740/2/2
f 740/2/2 737/2/2 741/2/2
f 738/2/2 739/2/2 742/2/2
f 742/2/2 739/2/2 743/2/2
f 744/2/2 745/2/2 748/2/2
f 748/2/2 745/2/2 749/2/2
f 746/2/2 747/2/2 750/2/2
f 750/2/2 747/2/2 751/2/2
f 752/2/2 753/2/2 756/2/2
f 756/2/2 753/2/2 757/2/2
f 754/2/2 755/2/2 758/2/2
f 758/2/2 755/2/2 759/2/2
f 760/2/2 761/2/2 764/2/2
f 764/2/2 761/2/2 765/2/2
f 762/4/2 763/4/2 767/4/2
f 767/4/2 763/4/2 768/4/2
f 768/4/2 763/4/2 769/4/2
f 766/4/2 767/4/2 770/4/2
f 767/4/2 768/4/2 770/4/2
f 770/4/2 768/4/2 771/4/2
f 772/9/2 773/9/2 777/9/2
f 777/9/2 773/9/2 778/9/2
f 774/9/2 775/9/2 779/9/2
f 779/9/2 775/9/2 780/9/2
f 775/6/2 776/6/2 781/6/2
f 780/9/2 775/9/2 781/9/2
f 781/6/2 776/6/2 782/6/2
f 777/7/2 778/7/2 785/7/2
f 785/7/2 778/7/2 786/7/2
f 779/5/2 780/5/2 787/5/2
f 787/5/2 780/5/2 788/5/2
f 783/6/2 784/6/2 789/6/2
f 784/10/2 785/10/2 790/10/2
f 789/6/2 784/6/2 790/6/2
f 790/10/2 785/10/2 791/10/2
f 792/2/2 793/2/2 797/2/2
f 797/2/2 793/2/2 798/2/2
f 794/8/2 795/8/2 801/8/2
f 795/2/2 796/2/2 802/2/2
f 801/8/2 795/8/2 802/8/2
f 802/2/2 796/2/2 803/2/2
f 799/2/2 800/2/2 804/2/2
f 804/2/2 800/2/2 805/2/2
f 806/2/2 807/2/2 810/2/2
f 810/2/2 807/2/2 811/2/2
f 808/2/2 809/2/2 812/2/2
f 812/2/2 809/2/2 813/2/2
f 814/2/2 815/2/2 818/2/2
f 818/2/2 815/2/2 819/2/2
f 816/2/2 817/2/2 822/2/2
f 822/2/2 817/2/2 823/2/2
f 820/2/2 821/2/2 824/2/2
f 824/2/2 821/2/2 825/2/2
f 826/6/2 827/6/2 832/6/2
f 828/9/2 829/9/2 833/9/2
f 833/9/2 829/9/2 834/9/2
f 830/6/2 831/6/2 835/6/2
f 831/10/2 832/10/2 835/10/2
f 832/6/2 827/6/2 836/6/2
f 835/10/2 832/10/2 836/10/2
f 836/6/2 827/6/2 837/6/2
f 830/6/2 835/6/2 838/6/2
f 838/6/2 835/6/2 839/6/2
f 840/2/2 841/2/2 843/2/2
f 843/2/2 841/2/2 844/2/2
f 844/2/2 841/2/2 845/2/2
f 842/2/2 843/2/2 848/2/2
f 843/2/2 844/2/2 848/2/2
f 848/2/2 844/2/2 849/2/2
f 846/2/2 847/2/2 850/2/2
f 845/2/2 846/2/2 850/2/2
f 850/2/2 847/2/2 851/2/2
f 851/2/2 847/2/2 852/2/2
f 852/8/2 853/8/2 854/8/2
f 851/2/2 852/2/2 854/2/2
f 854/8/2 853/8/2 855/8/2
f 842/2/2 848/2/2 856/2/2
f 851/2/2 854/2/2 859/2/2
f 856/2/2 857/2/2 860/2/2
f 842/2/2 856/2/2 860/2/2
f 860/2/2 857/2/2 861/2/2
f 861/2/2 857/2/2 862/2/2
f 858/2/2 859/2/2 863/2/2
f 859/2/2 854/2/2 864/2/2
f 863/2/2 859/2/2 864/2/2
f 864/2/2 854/2/2 865/2/2
f 861/2/2 862/2/2 866/2/2
f 862/2/2 863/2/2 866/2/2
f 863/2/2 864/2/2 866/2/2
f 866/2/2 864/2/2 867/2/2
f 868/9/2 869/9/2 870/9/2
f 870/9/2 869/9/2 871/9/2
f 872/8/2 873/8/2 875/8/2
f 875/8/2 873/8/2 876/8/2
f 874/2/2 875/2/2 878/2/2
f 878/2/2 875/2/2 879/2/2
f 877/2/2 878/2/2 881/2/2
f 879/2/2 880/2/2 881/2/2
f 878/2/2 879/2/2 881/2/2
f 881/2/2 880/2/2 882/2/2
f 882/2/2 880/2/2 883/2/2
f 883/2/2 880/2/2 884/2/2
f 882/2/2 883/2/2 885/2/2
f 885/2/2 883/2/2 886/2/2
f 887/9/2 888/9/2 889/9/2
f 889/9/2 888/9/2 890/9/2
f 893/5/3 892/5/3 891/5/3
f 894/5/3 892/5/3 893/5/3
f 897/9/3 896/9/3 895/9/3
f 898/9/3 896/9/3 897/9/3
f 904/6/3 900/6/3 899/6/3
f 905/6/3 900/6/3 904/6/3
f 906/8/3 902/8/3 901/8/3
f 907/8/3 902/8/3 906/8/3
f 909/5/3 904/5/3 903/5/3
f 910/5/3 904/5/3 909/5/3
f 912/3/3 908/3/3 907/3/3
f 912/3/3 907/3/3 906/3/3
f 913/3/3 908/3/3 912/3/3
f 916/3/3 914/3/3 913/3/3
f 916/3/3 913/3/3 912/3/3
f 916/3/3 912/3/3 911/3/3
f 917/8/3 916/8/3 915/8/3
f 918/3/3 914/3/3 916/3/3
f 918/8/3 916/8/3 917/8/3
f 919/3/3 914/3/3 918/3/3
f 920/3/3 914/3/3 919/3/3
f 921/3/3 914/3/3 920/3/3
f 922/3/3 920/3/3 919/3/3
f 923/3/3 920/3/3 922/3/3
f 926/9/3 925/9/3 924/9/3
f 927/9/3 925/9/3 926/9/3
f 934/3/3 929/3/3 928/3/3
f 935/3/3 929/3/3 934/3/3
f 939/6/3 931/6/3 930/6/3
f 940/6/3 931/6/3 939/6/3
f 942/3/3 933/3/3 932/3/3
f 943/3/3 933/3/3 942/3/3
f 944/3/3 936/3/3 935/3/3
f 945/3/3 936/3/3 944/3/3
f 946/1/3 938/1/3 937/1/3
f 947/1/3 938/1/3 946/1/3
f 949/3/3 942/3/3 941/3/3
f 950/3/3 942/3/3 949/3/3
f 954/1/3 948/1/3 947/1/3
f 954/1/3 947/1/3 946/1/3
f 954/1/3 946/1/3 945/1/3
f 955/1/3 948/1/3 954/1/3
f 956/1/3 948/1/3 955/1/3
f 957/1/3 948/1/3 956/1/3
f 958/3/3 952/3/3 951/3/3
f 959/3/3 952/3/3 958/3/3
f 960/3/3 954/3/3 953/3/3
f 961/3/3 954/3/3 960/3/3
f 962/1/3 956/1/3 955/1/3
f 963/1/3 956/1/3 962/1/3
f 964/3/3 960/3/3 959/3/3
f 965/3/3 960/3/3 964/3/3
f 968/6/3 967/6/3 966/6/3
f 969/6/3 967/6/3 968/6/3
f 970/6/3 967/6/3 969/6/3
f 972/6/3 971/6/3 970/6/3
f 972/6/3 970/6/3 969/6/3
f 973/6/3 971/6/3 972/6/3
f 980/3/3 975/3/3 974/3/3
f 981/3/3 975/3/3 980/3/3
f 982/3/3 977/3/3 976/3/3
f 983/1/3 978/1/3 977/1/3
f 983/3/3 977/3/3 982/3/3
f 984/1/3 978/1/3 983/1/3
f 985/1/3 978/1/3 984/1/3
f 986/1/3 978/1/3 985/1/3
f 990/3/3 980/3/3 979/3/3
f 991/3/3 980/3/3 990/3/3
f 992/1/3 984/1/3 983/1/3
f 993/1/3 984/1/3 992/1/3
f 994/1/3 987/1/3 986/1/3
f 994/1/3 986/1/3 985/1/3
f 995/1/3 987/1/3 994/1/3
f 996/7/3 989/7/3 988/7/3
f 997/7/3 989/7/3 996/7/3
f 999/9/3 997/9/3 996/9/3
f 1000/5/3 998/5/3 997/5/3
f 1000/9/3 997/9/3 999/9/3
f 1001/5/3 998/5/3 1000/5/3
f 1007/1/3 987/1/3 995/1/3
f 1008/3/3 1003/3/3 1002/3/3
f 1009/3/3 1003/3/3 1008/3/3
f 1012/1/3 1005/1/3 1004/1/3
f 1013/1/3 1005/1/3 1012/1/3
f 1014/1/3 1007/1/3 1006/1/3
f 1015/1/3 987/1/3 1007/1/3
f 1015/1/3 1007/1/3 1014/1/3
f 1016/1/3 987/1/3 1015/1/3
f 1017/3/3 1010/3/3 1009/3/3
f 1018/3/3 1010/3/3 1017/3/3
f 1020/3/3 1012/3/3 1011/3/3
f 1021/1/3 1013/1/3 1012/1/3
f 1021/3/3 1012/3/3 1020/3/3
f 1021/1/3 1014/1/3 1013/1/3
f 1021/1/3 1015/1/3 1014/1/3
f 1022/1/3 1015/1/3 1021/1/3
f 1025/8/3 1019/8/3 1018/8/3
f 1026/8/3 1019/8/3 1025/8/3
f 1027/6/3 1024/6/3 1023/6/3
f 1028/6/3 1024/6/3 1027/6/3
f 1029/6/3 1024/6/3 1028/6/3
f 1030/6/3 1024/6/3 1029/6/3
f 1037/8/3 1032/8/3 1031/8/3
f 1038/8/3 1032/8/3 1037/8/3
f 1039/1/3 1034/1/3 1033/1/3
f 1040/1/3 1034/1/3 1039/1/3
f 1043/9/3 1036/9/3 1035/9/3
f 1044/9/3 1036/9/3 1043/9/3
f 1045/1/3 1042/1/3 1041/1/3
f 1046/1/3 1042/1/3 1045/1/3
f 1052/6/3 1049/6/3 1048/6/3
f 1052/6/3 1048/6/3 1047/6/3
f 1053/6/3 1049/6/3 1052/6/3
f 1054/6/3 1049/6/3 1053/6/3
f 1058/5/3 1055/5/3 1054/5/3
f 1058/5/3 1054/5/3 1053/5/3
f 1059/5/3 1055/5/3 1058/5/3
f 1061/1/3 1051/1/3 1050/1/3
f 1062/1/3 1051/1/3 1061/1/3
f 1063/9/3 1057/9/3 1056/9/3
f 1064/9/3 1057/9/3 1063/9/3
f 1065/6/3 1060/6/3 1059/6/3
f 1066/6/3 1060/6/3 1065/6/3
f 1077/1/3 1068/1/3 1067/1/3
f 1078/1/3 1068/1/3 1077/1/3
f 1079/6/3 1070/6/3 1069/6/3
f 1080/6/3 1070/6/3 1079/6/3
f 1081/2/3 1072/2/3 1071/2/3
f 1082/2/3 1074/2/3 1073/2/3
f 1083/1/3 1076/1/3 1075/1/3
f 1084/1/3 1076/1/3 1083/1/3
f 1085/6/3 1070/6/3 1080/6/3
f 1086/6/3 1070/6/3 1085/6/3
f 1088/2/3 1082/2/3 1081/2/3
f 1088/2/3 1081/2/3 1071/2/3
f 1089/2/3 1082/2/3 1088/2/3
f 1090/2/3 1074/2/3 1082/2/3
f 1090/2/3 1082/2/3 1089/2/3
f 1091/2/3 1074/2/3 1090/2/3
f 1092/8/3 1088/8/3 1087/8/3
f 1093/8/3 1088/8/3 1092/8/3
f 1094/2/3 1090/2/3 1089/2/3
f 1095/2/3 1090/2/3 1094/2/3
f 1104/2/3 1097/2/3 1096/2/3
f 1105/2/3 1097/2/3 1104/2/3
f 1106/1/3 1099/1/3 1098/1/3
f 1107/1/3 1099/1/3 1106/1/3
f 1108/1/3 1101/1/3 1100/1/3
f 1109/1/3 1101/1/3 1108/1/3
f 1113/2/3 1103/2/3 1102/2/3
f 1114/2/3 1103/2/3 1113/2/3
f 1117/7/3 1111/7/3 1110/7/3
f 1118/7/3 1111/7/3 1117/7/3
f 1122/2/3 1113/2/3 1112/2/3
f 1123/1/3 1116/1/3 1115/1/3
f 1124/1/3 1116/1/3 1123/1/3
f 1127/6/3 1119/6/3 1118/6/3
f 1128/6/3 1119/6/3 1127/6/3
f 1129/5/3 1121/5/3 1120/5/3
f 1130/7/3 1122/7/3 1121/7/3
f 1130/5/3 1121/5/3 1129/5/3
f 1131/2/3 1113/2/3 1122/2/3
f 1131/7/3 1122/7/3 1130/7/3
f 1132/2/3 1113/2/3 1131/2/3
f 1133/9/3 1126/9/3 1125/9/3
f 1134/9/3 1126/9/3 1133/9/3
f 1136/6/3 1129/6/3 1128/6/3
f 1136/6/3 1130/6/3 1129/6/3
f 1137/6/3 1130/6/3 1136/6/3
f 1138/6/3 1130/6/3 1137/6/3
f 1139/9/3 1132/9/3 1131/9/3
f 1140/9/3 1132/9/3 1139/9/3
f 1144/9/3 1135/9/3 1134/9/3
f 1145/6/3 1136/6/3 1135/6/3
f 1145/9/3 1135/9/3 1144/9/3
f 1146/6/3 1136/6/3 1145/6/3
f 1152/1/3 1142/1/3 1141/1/3
f 1153/1/3 1142/1/3 1152/1/3
f 1154/9/3 1144/9/3 1143/9/3
f 1155/6/3 1145/6/3 1144/6/3
f 1155/9/3 1144/9/3 1154/9/3
f 1155/6/3 1146/6/3 1145/6/3
f 1155/6/3 1147/6/3 1146/6/3
f 1155/6/3 1148/6/3 1147/6/3
f 1156/6/3 1148/6/3 1155/6/3
f 1157/6/3 1148/6/3 1156/6/3
f 1158/6/3 1148/6/3 1157/6/3
f 1159/9/3 1150/9/3 1149/9/3
f 1160/2/3 1151/2/3 1150/2/3
f 1160/9/3 1150/9/3 1159/9/3
f 1161/2/3 1151/2/3 1160/2/3
f 1166/6/3 1155/6/3 1154/6/3
f 1167/6/3 1155/6/3 1166/6/3
f 1168/6/3 1157/6/3 1156/6/3
f 1169/6/3 1157/6/3 1168/6/3
f 1170/1/3 1163/1/3 1162/1/3
f 1171/1/3 1163/1/3 1170/1/3
f 1172/1/3 1165/1/3 1164/1/3
f 1173/1/3 1165/1/3 1172/1/3
f 1174/2/3 1161/2/3 1160/2/3
f 1175/2/3 1161/2/3 1174/2/3
f 1178/2/3 1171/2/3 1170/2/3
f 1179/2/3 1176/2/3 1175/2/3
f 1180/2/3 1176/2/3 1179/2/3
f 1181/2/3 1178/2/3 1177/2/3
f 1182/2/3 1171/2/3 1178/2/3
f 1182/2/3 1178/2/3 1181/2/3
f 1183/2/3 1171/2/3 1182/2/3
f 1184/2/3 1180/2/3 1179/2/3
f 1184/2/3 1181/2/3 1180/2/3
f 1184/2/3 1182/2/3 1181/2/3
f 1185/2/3 1182/2/3 1184/2/3
f 1191/2/3 1187/2/3 1186/2/3
f 1192/2/3 1187/2/3 1191/2/3
f 1193/2/3 1189/2/3 1188/2/3
f 1194/2/3 1189/2/3 1193/2/3
f 1195/2/3 1191/2/3 1190/2/3
f 1196/2/3 1191/2/3 1195/2/3
f 1199/5/3 1198/5/3 1197/5/3
f 1200/5/3 1198/5/3 1199/5/3
f 1204/6/3 1202/6/3 1201/6/3
f 1205/6/3 1202/6/3 1204/6/3
f 1207/7/3 1204/7/3 1203/7/3
f 1208/9/3 1206/9/3 1205/9/3
f 1208/7/3 1204/7/3 1207/7/3
f 1208/9/3 1205/9/3 1204/9/3
f 1209/9/3 1206/9/3 1208/9/3
f 1210/9/3 1206/9/3 1209/9/3
f 1212/9/3 1209/9/3 1208/9/3
f 1213/9/3 1209/9/3 1212/9/3
f 1215/7/3 1212/7/3 1211/7/3
f 1216/9/3 1213/9/3 1212/9/3
f 1216/7/3 1212/7/3 1215/7/3
f 1217/2/3 1214/2/3 1213/2/3
f 1217/9/3 1213/9/3 1216/9/3
f 1220/2/3 1214/2/3 1217/2/3
f 1221/2/3 1214/2/3 1220/2/3
f 1222/2/3 1219/2/3 1218/2/3
f 1223/2/3 1219/2/3 1222/2/3
f 1228/2/3 1225/2/3 1224/2/3
f 1229/2/3 1225/2/3 1228/2/3
f 1232/2/3 1227/2/3 1226/2/3
f 1233/2/3 1227/2/3 1232/2/3
f 1234/2/3 1231/2/3 1230/2/3
f 1235/2/3 1231/2/3 1234/2/3
f 1242/9/3 1237/9/3 1236/9/3
f 1243/9/3 1237/9/3 1242/9/3
f 1244/9/3 1239/9/3 1238/9/3
f 1245/9/3 1239/9/3 1244/9/3
f 1246/6/3 1241/6/3 1240/6/3
f 1247/6/3 1241/6/3 1246/6/3
f 1252/2/3 1249/2/3 1248/2/3
f 1253/2/3 1249/2/3 1252/2/3
f 1254/2/3 1251/2/3 1250/2/3
f 1255/2/3 1251/2/3 1254/2/3
f 1260/2/3 1257/2/3 1256/2/3
f 1261/2/3 1257/2/3 1260/2/3
f 1262/2/3 1259/2/3 1258/2/3
f 1263/2/3 1259/2/3 1262/2/3
f 1266/9/3 1265/9/3 1264/9/3
f 1267/9/3 1265/9/3 1266/9/3
f 1273/9/3 1269/9/3 1268/9/3
f 1274/9/3 1269/9/3 1273/9/3
f 1280/4/3 1271/4/3 1270/4/3
f 1281/4/3 1271/4/3 1280/4/3
f 1282/9/3 1273/9/3 1272/9/3
f 1282/9/3 1274/9/3 1273/9/3
f 1282/9/3 1275/9/3 1274/9/3
f 1283/6/3 1276/6/3 1275/6/3
f 1283/9/3 1275/9/3 1282/9/3
f 1283/6/3 1277/6/3 1276/6/3
f 1284/7/3 1278/7/3 1277/7/3
f 1284/6/3 1277/6/3 1283/6/3
f 1285/7/3 1278/7/3 1284/7/3
f 1286/4/3 1280/4/3 1279/4/3
f 1287/4/3 1280/4/3 1286/4/3
f 1291/6/3 1289/6/3 1288/6/3
f 1291/9/3 1290/9/3 1289/9/3
f 1292/9/3 1290/9/3 1291/9/3
f 1293/6/3 1291/6/3 1288/6/3
f 1294/6/3 1291/6/3 1293/6/3
f 1298/9/3 1296/9/3 1295/9/3
f 1299/5/3 1297/5/3 1296/5/3
f 1299/9/3 1296/9/3 1298/9/3
f 1300/5/3 1297/5/3 1299/5/3
f 1303/8/3 1302/8/3 1301/8/3
f 1304/8/3 1302/8/3 1303/8/3
f 1308/9/3 1306/9/3 1305/9/3
f 1309/5/3 1307/5/3 1306/5/3
f 1309/9/3 1306/9/3 1308/9/3
f 1310/5/3 1307/5/3 1309/5/3
f 1311/5/3 1307/5/3 1310/5/3
f 1314/9/3 1313/9/3 1312/9/3
f 1315/9/3 1313/9/3 1314/9/3
f 1318/9/3 1317/9/3 1316/9/3
f 1319/9/3 1317/9/3 1318/9/3
f 1322/9/3 1321/9/3 1320/9/3
f 1323/9/3 1321/9/3 1322/9/3
f 1324/5/4 1325/5/4 1326/5/4
f 1326/5/4 1325/5/4 1327/5/4
f 1328/9/4 1329/9/4 1330/9/4
f 1330/9/4 1329/9/4 1331/9/4
f 1332/7/4 1333/7/4 1335/7/4
f 1333/6/4 1334/6/4 1336/6/4
f 1335/7/4 1333/7/4 1336/7/4
f 1336/6/4 1334/6/4 1337/6/4
f 1338/6/4 1339/6/4 1340/6/4
f 1340/6/4 1339/6/4 1341/6/4
f 1342/6/4 1343/6/4 1344/6/4
f 1344/6/4 1343/6/4 1345/6/4
f 1346/9/4 1347/9/4 1348/9/4
f 1348/9/4 1347/9/4 1349/9/4
f 1350/9/4 1351/9/4 1352/9/4
f 1352/9/4 1351/9/4 1353/9/4
f 1354/9/4 1355/9/4 1356/9/4
f 1356/9/4 1355/9/4 1357/9/4
f 1358/6/4 1359/6/4 1362/6/4
f 1362/6/4 1359/6/4 1363/6/4
f 1360/10/4 1361/10/4 1366/10/4
f 1366/10/4 1361/10/4 1367/10/4
f 1364/6/4 1365/6/4 1368/6/4
f 1365/6/4 1366/6/4 1368/6/4
f 1368/6/4 1366/6/4 1369/6/4
f 1370/9/4 1371/9/4 1374/9/4
f 1374/9/4 1371/9/4 1375/9/4
f 1372/7/4 1373/7/4 1376/7/4
f 1376/7/4 1373/7/4 1377/7/4
f 1378/5/4 1379/5/4 1380/5/4
f 1380/5/4 1379/5/4 1381/5/4
f 1382/9/4 1383/9/4 1388/9/4
f 1388/9/4 1383/9/4 1389/9/4
f 1384/6/4 1385/6/4 1390/6/4
f 1390/6/4 1385/6/4 1391/6/4
f 1386/6/4 1387/6/4 1393/6/4
f 1393/6/4 1387/6/4 1394/6/4
f 1390/9/4 1391/9/4 1395/9/4
f 1392/7/4 1393/7/4 1397/7/4
f 1397/7/4 1393/7/4 1398/7/4
f 1390/9/4 1395/9/4 1399/9/4
f 1395/7/4 1396/7/4 1400/7/4
f 1399/9/4 1395/9/4 1400/9/4
f 1400/7/4 1396/7/4 1401/7/4
f 1402/1/4 1403/1/4 1406/1/4
f 1406/1/4 1403/1/4 1407/1/4
f 1404/1/4 1405/1/4 1408/1/4
f 1408/1/4 1405/1/4 1409/1/4
f 1410/9/4 1411/9/4 1414/9/4
f 1414/9/4 1411/9/4 1415/9/4
f 1412/1/4 1413/1/4 1416/1/4
f 1416/1/4 1413/1/4 1417/1/4
f 1418/9/4 1419/9/4 1422/9/4
f 1422/9/4 1419/9/4 1423/9/4
f 1420/1/4 1421/1/4 1424/1/4
f 1424/1/4 1421/1/4 1425/1/4
f 1426/7/4 1427/7/4 1430/7/4
f 1430/7/4 1427/7/4 1431/7/4
f 1428/1/4 1429/1/4 1433/1/4
f 1433/1/4 1429/1/4 1434/1/4
f 1431/7/4 1432/7/4 1435/7/4
f 1430/7/4 1431/7/4 1435/7/4
f 1435/7/4 1432/7/4 1436/7/4
f 1437/2/4 1438/2/4 1444/2/4
f 1444/2/4 1438/2/4 1445/2/4
f 1439/2/4 1440/2/4 1446/2/4
f 1446/2/4 1440/2/4 1447/2/4
f 1441/1/4 1442/1/4 1449/1/4
f 1449/1/4 1442/1/4 1450/1/4
f 1443/2/4 1444/2/4 1453/2/4
f 1453/2/4 1444/2/4 1454/2/4
f 1447/1/4 1448/1/4 1455/1/4
f 1455/1/4 1448/1/4 1456/1/4
f 1451/1/4 1452/1/4 1457/1/4
f 1457/1/4 1452/1/4 1458/1/4
f 1459/9/4 1460/9/4 1465/9/4
f 1465/9/4 1460/9/4 1466/9/4
f 1463/9/4 1464/9/4 1468/9/4
f 1468/9/4 1464/9/4 1469/9/4
f 1466/9/4 1467/9/4 1470/9/4
f 1470/9/4 1467/9/4 1471/9/4
f 1461/1/4 1462/1/4 1472/1/4
f 1472/1/4 1462/1/4 1473/1/4
f 1474/1/4 1475/1/4 1478/1/4
f 1478/1/4 1475/1/4 1479/1/4
f 1476/6/4 1477/6/4 1480/6/4
f 1480/6/4 1477/6/4 1481/6/4
f 1482/2/4 1483/2/4 1485/2/4
f 1485/2/4 1483/2/4 1486/2/4
f 1484/2/4 1485/2/4 1490/2/4
f 1490/2/4 1485/2/4 1491/2/4
f 1487/1/4 1488/1/4 1493/1/4
f 1493/1/4 1488/1/4 1494/1/4
f 1494/1/4 1488/1/4 1495/1/4
f 1495/1/4 1488/1/4 1496/1/4
f 1492/1/4 1493/1/4 1498/1/4
f 1493/1/4 1494/1/4 1498/1/4
f 1498/1/4 1494/1/4 1499/1/4
f 1496/1/4 1497/1/4 1500/1/4
f 1495/1/4 1496/1/4 1500/1/4
f 1500/1/4 1497/1/4 1501/1/4
f 1489/2/4 1490/2/4 1503/2/4
f 1503/2/4 1490/2/4 1504/2/4
f 1501/1/4 1497/1/4 1506/1/4
f 1502/6/4 1503/6/4 1509/6/4
f 1509/6/4 1503/6/4 1510/6/4
f 1504/2/4 1505/2/4 1511/2/4
f 1511/2/4 1505/2/4 1512/2/4
f 1507/5/4 1508/5/4 1513/5/4
f 1508/6/4 1509/6/4 1514/6/4
f 1513/5/4 1508/5/4 1514/5/4
f 1509/7/4 1510/7/4 1515/7/4
f 1514/6/4 1509/6/4 1515/6/4
f 1515/7/4 1510/7/4 1516/7/4
f 1510/9/4 1511/9/4 1517/9/4
f 1516/7/4 1510/7/4 1517/7/4
f 1517/9/4 1511/9/4 1518/9/4
f 1506/1/4 1497/1/4 1519/1/4
f 1519/1/4 1497/1/4 1520/1/4
f 1513/7/4 1514/7/4 1521/7/4
f 1521/7/4 1514/7/4 1522/7/4
f 1515/7/4 1516/7/4 1524/7/4
f 1516/5/4 1517/5/4 1525/5/4
f 1524/7/4 1516/7/4 1525/7/4
f 1517/2/4 1518/2/4 1526/2/4
f 1525/5/4 1517/5/4 1526/5/4
f 1526/2/4 1518/2/4 1527/2/4
f 1524/7/4 1525/7/4 1528/7/4
f 1523/7/4 1524/7/4 1528/7/4
f 1528/7/4 1525/7/4 1529/7/4
f 1529/7/4 1525/7/4 1530/7/4
f 1528/7/4 1529/7/4 1531/7/4
f 1531/7/4 1529/7/4 1532/7/4
f 1533/2/4 1534/2/4 1537/2/4
f 1537/2/4 1534/2/4 1538/2/4
f 1535/2/4 1536/2/4 1539/2/4
f 1539/2/4 1536/2/4 1540/2/4
f 1541/2/4 1542/2/4 1545/2/4
f 1545/2/4 1542/2/4 1546/2/4
f 1543/2/4 1544/2/4 1547/2/4
f 1547/2/4 1544/2/4 1548/2/4
f 1549/9/4 1550/9/4 1554/9/4
f 1554/9/4 1550/9/4 1555/9/4
f 1551/2/4 1552/2/4 1558/2/4
f 1552/8/4 1553/8/4 1559/8/4
f 1558/2/4 1552/2/4 1559/2/4
f 1559/8/4 1553/8/4 1560/8/4
f 1555/6/4 1556/6/4 1565/6/4
f 1565/6/4 1556/6/4 1566/6/4
f 1557/2/4 1558/2/4 1569/2/4
f 1558/2/4 1559/2/4 1569/2/4
f 1559/2/4 1560/2/4 1569/2/4
f 1561/1/4 1562/1/4 1571/1/4
f 1571/1/4 1562/1/4 1572/1/4
f 1572/1/4 1562/1/4 1573/1/4
f 1563/6/4 1564/6/4 1575/6/4
f 1575/6/4 1564/6/4 1576/6/4
f 1567/5/4 1568/5/4 1579/5/4
f 1579/5/4 1568/5/4 1580/5/4
f 1557/2/4 1569/2/4 1582/2/4
f 1582/2/4 1569/2/4 1583/2/4
f 1583/2/4 1569/2/4 1584/2/4
f 1584/2/4 1569/2/4 1585/2/4
f 1569/4/4 1570/4/4 1586/4/4
f 1585/2/4 1569/2/4 1586/2/4
f 1586/4/4 1570/4/4 1587/4/4
f 1572/4/4 1573/4/4 1588/4/4
f 1573/1/4 1574/1/4 1589/1/4
f 1588/4/4 1573/4/4 1589/4/4
f 1589/1/4 1574/1/4 1590/1/4
f 1577/6/4 1578/6/4 1591/6/4
f 1576/5/4 1577/5/4 1591/5/4
f 1591/6/4 1578/6/4 1592/6/4
f 1580/6/4 1581/6/4 1593/6/4
f 1579/6/4 1580/6/4 1593/6/4
f 1593/6/4 1581/6/4 1594/6/4
f 1584/2/4 1585/2/4 1597/2/4
f 1585/4/4 1586/4/4 1598/4/4
f 1597/2/4 1585/2/4 1598/2/4
f 1598/4/4 1586/4/4 1599/4/4
f 1589/4/4 1590/4/4 1600/4/4
f 1600/4/4 1590/4/4 1601/4/4
f 1591/5/4 1592/5/4 1603/5/4
f 1576/5/4 1591/5/4 1603/5/4
f 1603/5/4 1592/5/4 1604/5/4
f 1595/2/4 1596/2/4 1607/2/4
f 1607/2/4 1596/2/4 1608/2/4
f 1602/9/4 1603/9/4 1609/9/4
f 1603/7/4 1604/7/4 1609/7/4
f 1609/7/4 1604/7/4 1610/7/4
f 1610/7/4 1604/7/4 1611/7/4
f 1605/7/4 1606/7/4 1612/7/4
f 1612/7/4 1606/7/4 1613/7/4
f 1613/7/4 1606/7/4 1614/7/4
f 1602/9/4 1609/9/4 1619/9/4
f 1609/9/4 1610/9/4 1619/9/4
f 1610/6/4 1611/6/4 1620/6/4
f 1619/9/4 1610/9/4 1620/9/4
f 1612/6/4 1613/6/4 1620/6/4
f 1611/6/4 1612/6/4 1620/6/4
f 1620/6/4 1613/6/4 1621/6/4
f 1621/6/4 1613/6/4 1622/6/4
f 1617/4/4 1618/4/4 1624/4/4
f 1624/4/4 1618/4/4 1625/4/4
f 1621/7/4 1622/7/4 1628/7/4
f 1628/7/4 1622/7/4 1629/7/4
f 1615/2/4 1616/2/4 1630/2/4
f 1630/2/4 1616/2/4 1631/2/4
f 1623/4/4 1624/4/4 1632/4/4
f 1632/4/4 1624/4/4 1633/4/4
f 1626/5/4 1627/5/4 1634/5/4
f 1634/5/4 1627/5/4 1635/5/4
f 1636/2/4 1637/2/4 1640/2/4
f 1640/2/4 1637/2/4 1641/2/4
f 1638/2/4 1639/2/4 1644/2/4
f 1644/2/4 1639/2/4 1645/2/4
f 1640/8/4 1641/8/4 1646/8/4
f 1646/8/4 1641/8/4 1647/8/4
f 1642/2/4 1643/2/4 1648/2/4
f 1648/2/4 1643/2/4 1649/2/4
f 1650/6/4 1651/6/4 1655/6/4
f 1651/6/4 1652/6/4 1655/6/4
f 1655/6/4 1652/6/4 1656/6/4
f 1653/4/4 1654/4/4 1660/4/4
f 1660/4/4 1654/4/4 1661/4/4
f 1656/6/4 1652/6/4 1663/6/4
f 1663/6/4 1652/6/4 1664/6/4
f 1657/8/4 1658/8/4 1665/8/4
f 1665/8/4 1658/8/4 1666/8/4
f 1659/4/4 1660/4/4 1668/4/4
f 1668/4/4 1660/4/4 1669/4/4
f 1661/4/4 1662/4/4 1670/4/4
f 1670/4/4 1662/4/4 1671/4/4
f 1666/2/4 1667/2/4 1673/2/4
f 1665/2/4 1666/2/4 1673/2/4
f 1673/2/4 1667/2/4 1674/2/4
f 1667/4/4 1668/4/4 1675/4/4
f 1674/2/4 1667/2/4 1675/2/4
f 1675/4/4 1668/4/4 1676/4/4
f 1673/2/4 1674/2/4 1678/2/4
f 1678/2/4 1674/2/4 1679/2/4
f 1671/4/4 1672/4/4 1681/4/4
f 1681/4/4 1672/4/4 1682/4/4
f 1680/4/4 1681/4/4 1686/4/4
f 1686/4/4 1681/4/4 1687/4/4
f 1683/6/4 1684/6/4 1688/6/4
f 1688/6/4 1684/6/4 1689/6/4
f 1677/2/4 1678/2/4 1690/2/4
f 1685/4/4 1686/4/4 1693/4/4
f 1693/4/4 1686/4/4 1694/4/4
f 1694/4/4 1686/4/4 1695/4/4
f 1690/2/4 1691/2/4 1696/2/4
f 1677/2/4 1690/2/4 1696/2/4
f 1696/2/4 1691/2/4 1697/2/4
f 1697/2/4 1691/2/4 1698/2/4
f 1693/2/4 1694/2/4 1700/2/4
f 1692/2/4 1693/2/4 1700/2/4
f 1700/2/4 1694/2/4 1701/2/4
f 1701/2/4 1694/2/4 1702/2/4
f 1697/2/4 1698/2/4 1703/2/4
f 1703/2/4 1698/2/4 1704/2/4
f 1700/2/4 1701/2/4 1705/2/4
f 1699/2/4 1700/2/4 1705/2/4
f 1705/2/4 1701/2/4 1706/2/4
f 1707/6/4 1708/6/4 1710/6/4
f 1708/5/4 1709/5/4 1710/5/4
f 1710/5/4 1709/5/4 1711/5/4
f 1707/6/4 1710/6/4 1712/6/4
f 1710/6/4 1711/6/4 1712/6/4
f 1712/6/4 1711/6/4 1713/6/4
f 1714/4/4 1715/4/4 1717/4/4
f 1717/4/4 1715/4/4 1718/4/4
f 1716/4/4 1717/4/4 1723/4/4
f 1717/4/4 1718/4/4 1723/4/4
f 1718/4/4 1719/4/4 1723/4/4
f 1720/8/4 1721/8/4 1724/8/4
f 1724/8/4 1721/8/4 1725/8/4
f 1722/2/4 1723/2/4 1726/2/4
f 1723/4/4 1719/4/4 1727/4/4
f 1726/2/4 1723/2/4 1727/2/4
f 1727/4/4 1719/4/4 1728/4/4
f 1728/4/4 1719/4/4 1729/4/4
f 1729/4/4 1719/4/4 1730/4/4
f 1725/2/4 1726/2/4 1733/2/4
f 1726/2/4 1727/2/4 1733/2/4
f 1728/4/4 1729/4/4 1733/4/4
f 1727/2/4 1728/2/4 1733/2/4
f 1733/4/4 1729/4/4 1734/4/4
f 1731/6/4 1732/6/4 1735/6/4
f 1735/6/4 1732/6/4 1736/6/4
f 1736/6/4 1732/6/4 1737/6/4
f 1725/2/4 1733/2/4 1738/2/4
f 1738/2/4 1733/2/4 1739/2/4
f 1739/2/4 1733/2/4 1740/2/4
f 1740/2/4 1733/2/4 1741/2/4
f 1739/2/4 1740/2/4 1742/2/4
f 1742/2/4 1740/2/4 1743/2/4
f 1743/2/4 1740/2/4 1744/2/4
f 1742/8/4 1743/8/4 1745/8/4
f 1745/8/4 1743/8/4 1746/8/4
f 1747/9/4 1748/9/4 1750/9/4
f 1748/9/4 1749/9/4 1750/9/4
f 1750/9/4 1749/9/4 1751/9/4
f 1752/9/4 1753/9/4 1754/9/4
f 1754/9/4 1753/9/4 1755/9/4
f 1756/9/4 1757/9/4 1758/9/4
f 1758/9/4 1757/9/4 1759/9/4
f 1760/9/4 1761/9/4 1762/9/4
f 1762/9/4 1761/9/4 1763/9/4
f 1768/5/5 1765/5/5 1764/5/5
f 1769/5/5 1765/5/5 1768/5/5
f 1770/5/5 1765/5/5 1769/5/5
f 1773/9/5 1767/9/5 1766/9/5
f 1774/9/5 1767/9/5 1773/9/5
f 1775/9/5 1767/9/5 1774/9/5
f 1776/6/5 1770/6/5 1769/6/5
f 1777/5/5 1771/5/5 1770/5/5
f 1777/6/5 1770/6/5 1776/6/5
f 1778/5/5 1771/5/5 1777/5/5
f 1780/9/5 1774/9/5 1773/9/5
f 1780/9/5 1773/9/5 1772/9/5
f 1781/9/5 1774/9/5 1780/9/5
f 1782/7/5 1778/7/5 1777/7/5
f 1782/7/5 1777/7/5 1776/7/5
f 1783/7/5 1778/7/5 1782/7/5
f 1784/7/5 1778/7/5 1783/7/5
f 1788/6/5 1780/6/5 1779/6/5
f 1789/10/5 1781/10/5 1780/10/5
f 1789/6/5 1780/6/5 1788/6/5
f 1790/9/5 1774/9/5 1781/9/5
f 1790/10/5 1781/10/5 1789/10/5
f 1792/7/5 1784/7/5 1783/7/5
f 1792/7/5 1785/7/5 1784/7/5
f 1793/9/5 1786/9/5 1785/9/5
f 1793/7/5 1785/7/5 1792/7/5
f 1794/9/5 1786/9/5 1793/9/5
f 1796/6/5 1789/6/5 1788/6/5
f 1796/6/5 1788/6/5 1787/6/5
f 1796/9/5 1790/9/5 1789/9/5
f 1797/9/5 1774/9/5 1790/9/5
f 1797/9/5 1790/9/5 1796/9/5
f 1798/9/5 1774/9/5 1797/9/5
f 1799/9/5 1792/9/5 1791/9/5
f 1800/7/5 1793/7/5 1792/7/5
f 1800/9/5 1792/9/5 1799/9/5
f 1801/7/5 1793/7/5 1800/7/5
f 1802/7/5 1793/7/5 1801/7/5
f 1803/9/5 1795/9/5 1794/9/5
f 1804/9/5 1795/9/5 1803/9/5
f 1806/6/5 1797/6/5 1796/6/5
f 1806/6/5 1796/6/5 1787/6/5
f 1807/6/5 1797/6/5 1806/6/5
f 1808/6/5 1797/6/5 1807/6/5
f 1809/9/5 1801/9/5 1800/9/5
f 1810/7/5 1802/7/5 1801/7/5
f 1810/9/5 1801/9/5 1809/9/5
f 1811/9/5 1805/9/5 1804/9/5
f 1811/7/5 1802/7/5 1810/7/5
f 1811/9/5 1804/9/5 1803/9/5
f 1811/9/5 1803/9/5 1802/9/5
f 1812/9/5 1805/9/5 1811/9/5
f 1813/6/5 1806/6/5 1805/6/5
f 1813/9/5 1805/9/5 1812/9/5
f 1814/9/5 1807/9/5 1806/9/5
f 1814/6/5 1806/6/5 1813/6/5
f 1815/9/5 1807/9/5 1814/9/5
f 1816/9/5 1812/9/5 1811/9/5
f 1816/9/5 1811/9/5 1810/9/5
f 1817/7/5 1813/7/5 1812/7/5
f 1817/9/5 1812/9/5 1816/9/5
f 1818/7/5 1813/7/5 1817/7/5
f 1820/9/5 1816/9/5 1810/9/5
f 1821/9/5 1816/9/5 1820/9/5
f 1822/9/5 1816/9/5 1821/9/5
f 1823/9/5 1819/9/5 1818/9/5
f 1823/9/5 1818/9/5 1817/9/5
f 1826/6/5 1821/6/5 1820/6/5
f 1827/9/5 1824/9/5 1823/9/5
f 1829/6/5 1826/6/5 1825/6/5
f 1829/6/5 1821/6/5 1826/6/5
f 1830/6/5 1821/6/5 1829/6/5
f 1831/9/5 1828/9/5 1827/9/5
f 1831/9/5 1823/9/5 1817/9/5
f 1831/9/5 1827/9/5 1823/9/5
f 1832/9/5 1828/9/5 1831/9/5
f 1833/9/5 1828/9/5 1832/9/5
f 1835/6/5 1829/6/5 1825/6/5
f 1836/9/5 1828/9/5 1833/9/5
f 1836/6/5 1833/6/5 1832/6/5
f 1837/9/5 1828/9/5 1836/9/5
f 1839/9/5 1835/9/5 1834/9/5
f 1840/6/5 1829/6/5 1835/6/5
f 1840/9/5 1835/9/5 1839/9/5
f 1841/6/5 1829/6/5 1840/6/5
f 1842/6/5 1836/6/5 1832/6/5
f 1842/6/5 1837/6/5 1836/6/5
f 1843/6/5 1837/6/5 1842/6/5
f 1844/6/5 1837/6/5 1843/6/5
f 1846/9/5 1839/9/5 1838/9/5
f 1846/9/5 1840/9/5 1839/9/5
f 1847/9/5 1840/9/5 1846/9/5
f 1848/9/5 1844/9/5 1843/9/5
f 1848/9/5 1845/9/5 1844/9/5
f 1849/9/5 1845/9/5 1848/9/5
f 1851/9/5 1846/9/5 1838/9/5
f 1852/9/5 1846/9/5 1851/9/5
f 1853/9/5 1851/9/5 1850/9/5
f 1854/9/5 1851/9/5 1853/9/5
f 1859/7/5 1856/7/5 1855/7/5
f 1860/7/5 1856/7/5 1859/7/5
f 1861/6/5 1858/6/5 1857/6/5
f 1862/6/5 1858/6/5 1861/6/5
f 1868/9/5 1864/9/5 1863/9/5
f 1869/9/5 1864/9/5 1868/9/5
f 1872/7/5 1866/7/5 1865/7/5
f 1872/7/5 1867/7/5 1866/7/5
f 1873/7/5 1867/7/5 1872/7/5
f 1874/7/5 1867/7/5 1873/7/5
f 1878/9/5 1871/9/5 1870/9/5
f 1879/9/5 1871/9/5 1878/9/5
f 1880/9/5 1876/9/5 1875/9/5
f 1881/9/5 1876/9/5 1880/9/5
f 1882/6/5 1878/6/5 1877/6/5
f 1882/6/5 1879/6/5 1878/6/5
f 1883/6/5 1879/6/5 1882/6/5
f 1885/5/5 1883/5/5 1882/5/5
f 1886/5/5 1883/5/5 1885/5/5
f 1887/6/5 1885/6/5 1884/6/5
f 1888/6/5 1885/6/5 1887/6/5
f 1891/9/5 1890/9/5 1889/9/5
f 1892/9/5 1890/9/5 1891/9/5
f 1895/6/5 1894/6/5 1893/6/5
f 1896/6/5 1894/6/5 1895/6/5
f 1899/6/5 1898/6/5 1897/6/5
f 1900/6/5 1898/6/5 1899/6/5
f 1903/7/5 1902/7/5 1901/7/5
f 1904/7/5 1902/7/5 1903/7/5
f 1907/5/5 1906/5/5 1905/5/5
f 1908/5/5 1906/5/5 1907/5/5
f 1911/7/5 1910/7/5 1909/7/5
f 1912/7/5 1910/7/5 1911/7/5
f 1915/7/5 1914/7/5 1913/7/5
f 1916/7/5 1914/7/5 1915/7/5
f 1917/9/5 1916/9/5 1915/9/5
f 1918/9/5 1916/9/5 1917/9/5
f 1926/2/5 1920/2/5 1919/2/5
f 1927/9/5 1922/9/5 1921/9/5
f 1928/9/5 1922/9/5 1927/9/5
f 1929/9/5 1924/9/5 1923/9/5
f 1930/9/5 1924/9/5 1929/9/5
f 1933/2/5 1926/2/5 1925/2/5
f 1933/2/5 1920/2/5 1926/2/5
f 1934/2/5 1932/2/5 1931/2/5
f 1935/2/5 1932/2/5 1934/2/5
f 1937/2/5 1933/2/5 1925/2/5
f 1938/2/5 1933/2/5 1937/2/5
f 1939/2/5 1933/2/5 1938/2/5
f 1942/2/5 1936/2/5 1935/2/5
f 1942/2/5 1935/2/5 1934/2/5
f 1943/2/5 1940/2/5 1939/2/5
f 1943/2/5 1939/2/5 1938/2/5
f 1944/2/5 1940/2/5 1943/2/5
f 1945/2/5 1942/2/5 1941/2/5
f 1946/2/5 1936/2/5 1942/2/5
f 1946/2/5 1942/2/5 1945/2/5
f 1947/2/5 1936/2/5 1946/2/5
f 1948/2/5 1946/2/5 1945/2/5
f 1949/2/5 1946/2/5 1948/2/5
f 1953/8/5 1951/8/5 1950/8/5
f 1954/8/5 1951/8/5 1953/8/5
f 1956/3/5 1953/3/5 1952/3/5
f 1956/3/5 1954/3/5 1953/3/5
f 1957/3/5 1954/3/5 1956/3/5
f 1962/3/5 1957/3/5 1956/3/5
f 1962/3/5 1956/3/5 1955/3/5
f 1962/3/5 1958/3/5 1957/3/5
f 1963/3/5 1958/3/5 1962/3/5
f 1964/3/5 1958/3/5 1963/3/5
f 1965/3/5 1958/3/5 1964/3/5
f 1967/8/5 1960/8/5 1959/8/5
f 1968/8/5 1960/8/5 1967/8/5
f 1970/2/5 1962/2/5 1961/2/5
f 1971/2/5 1962/2/5 1970/2/5
f 1972/9/5 1965/9/5 1964/9/5
f 1973/9/5 1965/9/5 1972/9/5
f 1974/2/5 1967/2/5 1966/2/5
f 1974/2/5 1968/2/5 1967/2/5
f 1975/2/5 1968/2/5 1974/2/5
f 1976/2/5 1968/2/5 1975/2/5
f 1978/2/5 1974/2/5 1973/2/5
f 1979/2/5 1974/2/5 1978/2/5
f 1980/2/5 1977/2/5 1976/2/5
f 1980/2/5 1976/2/5 1975/2/5
f 1981/2/5 1977/2/5 1980/2/5
f 1982/2/5 1970/2/5 1969/2/5
f 1983/2/5 1970/2/5 1982/2/5
f 1987/2/5 1984/2/5 1983/2/5
f 1988/2/5 1984/2/5 1987/2/5
f 1989/2/5 1986/2/5 1985/2/5
f 1990/2/5 1986/2/5 1989/2/5
f 1994/2/5 1977/2/5 1981/2/5
f 1995/2/5 1977/2/5 1994/2/5
f 1997/2/5 1989/2/5 1988/2/5
f 1998/2/5 1989/2/5 1997/2/5
f 1999/2/5 1992/2/5 1991/2/5
f 1999/2/5 1991/2/5 1990/2/5
f 2000/2/5 1992/2/5 1999/2/5
f 2001/2/5 1992/2/5 2000/2/5
f 2002/2/5 1995/2/5 1994/2/5
f 2002/2/5 1994/2/5 1993/2/5
f 2003/2/5 1995/2/5 2002/2/5
f 2004/8/5 1996/8/5 1995/8/5
f 2004/2/5 1995/2/5 2003/2/5
f 2005/8/5 1996/8/5 2004/8/5
f 2006/2/5 2003/2/5 2002/2/5
f 2006/2/5 2002/2/5 2001/2/5
f 2006/2/5 2001/2/5 2000/2/5
f 2007/2/5 2003/2/5 2006/2/5
f 2008/2/5 2003/2/5 2007/2/5
f 2009/8/5 2007/8/5 2006/8/5
f 2010/8/5 2007/8/5 2009/8/5
f 2014/3/5 2012/3/5 2011/3/5
f 2015/3/5 2012/3/5 2014/3/5
f 2019/3/5 2014/3/5 2013/3/5
f 2020/3/5 2014/3/5 2019/3/5
f 2021/3/5 2017/3/5 2016/3/5
f 2022/3/5 2017/3/5 2021/3/5
f 2025/3/5 2019/3/5 2018/3/5
f 2026/3/5 2023/3/5 2022/3/5
f 2028/8/5 2025/8/5 2024/8/5
f 2029/3/5 2019/3/5 2025/3/5
f 2029/8/5 2025/8/5 2028/8/5
f 2030/3/5 2019/3/5 2029/3/5
f 2031/3/5 2026/3/5 2022/3/5
f 2032/2/5 2027/2/5 2026/2/5
f 2032/3/5 2026/3/5 2031/3/5
f 2033/2/5 2027/2/5 2032/2/5
f 2036/2/5 2029/2/5 2028/2/5
f 2037/2/5 2029/2/5 2036/2/5
f 2038/2/5 2035/2/5 2034/2/5
f 2039/2/5 2035/2/5 2038/2/5
f 2044/2/5 2043/2/5 2042/2/5
f 2045/2/5 2043/2/5 2044/2/5
f 2049/2/5 2041/2/5 2040/2/5
f 2050/2/5 2041/2/5 2049/2/5
f 2051/2/5 2046/2/5 2045/2/5
f 2052/2/5 2046/2/5 2051/2/5
f 2053/2/5 2048/2/5 2047/2/5
f 2054/2/5 2048/2/5 2053/2/5
f 2058/8/5 2054/8/5 2053/8/5
f 2059/2/5 2055/2/5 2054/2/5
f 2059/8/5 2054/8/5 2058/8/5
f 2060/2/5 2055/2/5 2059/2/5
f 2063/2/5 2057/2/5 2056/2/5
f 2064/2/5 2057/2/5 2063/2/5
f 2065/2/5 2062/2/5 2061/2/5
f 2066/2/5 2062/2/5 2065/2/5
f 2072/8/5 2068/8/5 2067/8/5
f 2073/3/5 2069/3/5 2068/3/5
f 2073/8/5 2068/8/5 2072/8/5
f 2074/3/5 2069/3/5 2073/3/5
f 2075/3/5 2071/3/5 2070/3/5
f 2076/3/5 2071/3/5 2075/3/5
f 2078/3/5 2073/3/5 2072/3/5
f 2079/3/5 2073/3/5 2078/3/5
f 2080/3/5 2077/3/5 2076/3/5
f 2081/3/5 2077/3/5 2080/3/5
f 2083/8/5 2082/8/5 2081/8/5
f 2084/8/5 2082/8/5 2083/8/5
f 2087/2/5 2086/2/5 2085/2/5
f 2088/2/5 2086/2/5 2087/2/5
f 2091/2/5 2090/2/5 2089/2/5
f 2092/2/5 2090/2/5 2091/2/5
f 2095/2/5 2094/2/5 2093/2/5
f 2096/2/5 2094/2/5 2095/2/5
f 2102/2/5 2098/2/5 2097/2/5
f 2103/2/5 2098/2/5 2102/2/5
f 2104/2/5 2100/2/5 2099/2/5
f 2105/8/5 2101/8/5 2100/8/5
f 2105/2/5 2100/2/5 2104/2/5
f 2106/8/5 2101/8/5 2105/8/5
f 2109/4/5 2108/4/5 2107/4/5
f 2110/4/5 2108/4/5 2109/4/5
f 2112/4/5 2111/4/5 2110/4/5
f 2113/4/5 2111/4/5 2112/4/5
f 2116/1/5 2115/1/5 2114/1/5
f 2117/1/5 2115/1/5 2116/1/5
f 2120/1/5 2119/1/5 2118/1/5
f 2121/1/5 2119/1/5 2120/1/5
f 2124/4/5 2123/4/5 2122/4/5
f 2125/4/5 2123/4/5 2124/4/5
f 2127/4/5 2126/4/5 2125/4/5
f 2128/4/5 2126/4/5 2127/4/5
f 2133/1/5 2130/1/5 2129/1/5
f 2134/1/5 2130/1/5 2133/1/5
f 2135/1/5 2132/1/5 2131/1/5
f 2136/1/5 2132/1/5 2135/1/5
f 2141/1/5 2138/1/5 2137/1/5
f 2142/1/5 2138/1/5 2141/1/5
f 2143/1/5 2140/1/5 2139/1/5
f 2144/1/5 2140/1/5 2143/1/5
f 2147/1/5 2146/1/5 2145/1/5
f 2148/1/5 2146/1/5 2147/1/5
f 2151/1/5 2150/1/5 2149/1/5
f 2152/1/5 2150/1/5 2151/1/5
f 2153/5/6 2154/5/6 2157/5/6
f 2157/5/6 2154/5/6 2158/5/6
f 2158/5/6 2154/5/6 2159/5/6
f 2155/9/6 2156/9/6 2162/9/6
f 2162/9/6 2156/9/6 2163/9/6
f 2163/9/6 2156/9/6 2164/9/6
f 2159/5/6 2160/5/6 2165/5/6
f 2165/5/6 2160/5/6 2166/5/6
f 2162/9/6 2163/9/6 2167/9/6
f 2161/9/6 2162/9/6 2167/9/6
f 2167/9/6 2163/9/6 2168/9/6
f 2168/9/6 2163/9/6 2171/9/6
f 2169/7/6 2170/7/6 2174/7/6
f 2174/7/6 2170/7/6 2175/7/6
f 2171/9/6 2163/9/6 2178/9/6
f 2178/9/6 2163/9/6 2179/9/6
f 2172/9/6 2173/9/6 2180/9/6
f 2173/7/6 2174/7/6 2181/7/6
f 2180/9/6 2173/9/6 2181/9/6
f 2181/7/6 2174/7/6 2182/7/6
f 2176/9/6 2177/9/6 2183/9/6
f 2183/9/6 2177/9/6 2184/9/6
f 2185/9/6 2186/9/6 2187/9/6
f 2187/9/6 2186/9/6 2188/9/6
f 2189/6/6 2190/6/6 2193/6/6
f 2193/6/6 2190/6/6 2194/6/6
f 2191/9/6 2192/9/6 2195/9/6
f 2195/9/6 2192/9/6 2196/9/6
f 2195/6/6 2196/6/6 2199/6/6
f 2199/6/6 2196/6/6 2200/6/6
f 2197/9/6 2198/9/6 2202/9/6
f 2199/9/6 2200/9/6 2203/9/6
f 2200/9/6 2201/9/6 2203/9/6
f 2203/9/6 2201/9/6 2204/9/6
f 2197/9/6 2202/9/6 2206/9/6
f 2206/9/6 2202/9/6 2207/9/6
f 2205/9/6 2206/9/6 2208/9/6
f 2208/9/6 2206/9/6 2209/9/6
f 2210/6/6 2211/6/6 2212/6/6
f 2210/6/6 2212/6/6 2216/6/6
f 2212/6/6 2213/6/6 2216/6/6
f 2216/6/6 2213/6/6 2217/6/6
f 2214/6/6 2215/6/6 2220/6/6
f 2220/6/6 2215/6/6 2221/6/6
f 2217/6/6 2213/6/6 2223/6/6
f 2223/6/6 2213/6/6 2224/6/6
f 2218/5/6 2219/5/6 2225/5/6
f 2225/5/6 2219/5/6 2226/5/6
f 2221/10/6 2222/10/6 2227/10/6
f 2227/10/6 2222/10/6 2228/10/6
f 2227/6/6 2228/6/6 2230/6/6
f 2230/6/6 2228/6/6 2231/6/6
f 2229/7/6 2230/7/6 2234/7/6
f 2234/7/6 2230/7/6 2235/7/6
f 2232/9/6 2233/9/6 2236/9/6
f 2236/9/6 2233/9/6 2237/9/6
f 2238/9/6 2239/9/6 2242/9/6
f 2242/9/6 2239/9/6 2243/9/6
f 2240/5/6 2241/5/6 2245/5/6
f 2245/5/6 2241/5/6 2246/5/6
f 2243/5/6 2244/5/6 2248/5/6
f 2248/5/6 2244/5/6 2249/5/6
f 2247/5/6 2248/5/6 2252/5/6
f 2252/5/6 2248/5/6 2253/5/6
f 2248/6/6 2249/6/6 2254/6/6
f 2253/5/6 2248/5/6 2254/5/6
f 2254/6/6 2249/6/6 2255/6/6
f 2250/6/6 2251/6/6 2256/6/6
f 2256/6/6 2251/6/6 2257/6/6
f 2252/9/6 2253/9/6 2258/9/6
f 2258/9/6 2253/9/6 2259/9/6
f 2260/6/6 2261/6/6 2263/6/6
f 2263/6/6 2261/6/6 2264/6/6
f 2262/6/6 2263/6/6 2267/6/6
f 2267/6/6 2263/6/6 2268/6/6
f 2268/6/6 2263/6/6 2269/6/6
f 2265/6/6 2266/6/6 2271/6/6
f 2271/6/6 2266/6/6 2272/6/6
f 2268/10/6 2269/10/6 2273/10/6
f 2273/10/6 2269/10/6 2274/10/6
f 2270/7/6 2271/7/6 2275/7/6
f 2275/7/6 2271/7/6 2276/7/6
f 2277/7/6 2278/7/6 2279/7/6
f 2279/7/6 2278/7/6 2280/7/6
f 2281/9/6 2282/9/6 2283/9/6
f 2283/9/6 2282/9/6 2284/9/6
f 2283/6/6 2284/6/6 2288/6/6
f 2288/6/6 2284/6/6 2289/6/6
f 2285/5/6 2286/5/6 2290/5/6
f 2286/7/6 2287/7/6 2291/7/6
f 2290/5/6 2286/5/6 2291/5/6
f 2291/7/6 2287/7/6 2292/7/6
f 2293/5/6 2294/5/6 2296/5/6
f 2296/5/6 2294/5/6 2297/5/6
f 2295/6/6 2296/6/6 2300/6/6
f 2300/6/6 2296/6/6 2301/6/6
f 2298/7/6 2299/7/6 2303/7/6
f 2303/7/6 2299/7/6 2304/7/6
f 2302/7/6 2303/7/6 2305/7/6
f 2305/7/6 2303/7/6 2306/7/6
f 2308/6/6 2309/6/6 2312/6/6
f 2307/6/6 2308/6/6 2312/6/6
f 2312/6/6 2309/6/6 2313/6/6
f 2310/6/6 2311/6/6 2314/6/6
f 2314/6/6 2311/6/6 2315/6/6
f 2316/6/6 2317/6/6 2318/6/6
f 2318/6/6 2317/6/6 2319/6/6
f 2319/6/6 2317/6/6 2320/6/6
f 2321/5/6 2322/5/6 2323/5/6
f 2323/5/6 2322/5/6 2324/5/6
f 2323/6/6 2324/6/6 2325/6/6
f 2323/6/6 2325/6/6 2326/6/6
f 2326/6/6 2325/6/6 2327/6/6
f 2326/5/6 2327/5/6 2331/5/6
f 2331/5/6 2327/5/6 2332/5/6
f 2328/6/6 2329/6/6 2333/6/6
f 2329/7/6 2330/7/6 2334/7/6
f 2333/6/6 2329/6/6 2334/6/6
f 2334/7/6 2330/7/6 2335/7/6
f 2336/6/6 2337/6/6 2338/6/6
f 2338/6/6 2337/6/6 2339/6/6
f 2338/6/6 2339/6/6 2342/6/6
f 2342/6/6 2339/6/6 2343/6/6
f 2340/6/6 2341/6/6 2344/6/6
f 2344/6/6 2341/6/6 2345/6/6
f 2346/7/6 2347/7/6 2352/7/6
f 2352/7/6 2347/7/6 2353/7/6
f 2348/6/6 2349/6/6 2354/6/6
f 2354/6/6 2349/6/6 2355/6/6
f 2350/7/6 2351/7/6 2356/7/6
f 2356/7/6 2351/7/6 2357/7/6
f 2358/6/6 2359/6/6 2362/6/6
f 2362/6/6 2359/6/6 2363/6/6
f 2360/6/6 2361/6/6 2364/6/6
f 2364/6/6 2361/6/6 2365/6/6
f 2366/7/6 2367/7/6 2368/7/6
f 2368/7/6 2367/7/6 2369/7/6
f 2370/9/6 2371/9/6 2372/9/6
f 2372/9/6 2371/9/6 2373/9/6
f 2374/6/6 2375/6/6 2376/6/6
f 2376/6/6 2375/6/6 2377/6/6
f 2378/8/6 2379/8/6 2380/8/6
f 2380/8/6 2379/8/6 2381/8/6
f 2382/8/6 2383/8/6 2384/8/6
f 2384/8/6 2383/8/6 2385/8/6
f 2386/8/6 2387/8/6 2388/8/6
f 2388/8/6 2387/8/6 2389/8/6
f 2390/8/6 2391/8/6 2392/8/6
f 2392/8/6 2391/8/6 2393/8/6
f 2394/8/6 2395/8/6 2396/8/6
f 2396/8/6 2395/8/6 2397/8/6
f 2398/8/6 2399/8/6 2400/8/6
f 2400/8/6 2399/8/6 2401/8/6
f 2402/8/6 2403/8/6 2404/8/6
f 2404/8/6 2403/8/6 2405/8/6
f 2406/2/6 2407/2/6 2408/2/6
f 2408/2/6 2407/2/6 2409/2/6
f 2410/2/6 2411/2/6 2412/2/6
f 2412/2/6 2411/2/6 2413/2/6
f 2414/8/6 2415/8/6 2416/8/6
f 2416/8/6 2415/8/6 2417/8/6
f 2418/3/6 2419/3/6 2423/3/6
f 2423/3/6 2419/3/6 2424/3/6
f 2420/3/6 2421/3/6 2425/3/6
f 2425/3/6 2421/3/6 2426/3/6
f 2422/3/6 2423/3/6 2428/3/6
f 2428/3/6 2423/3/6 2429/3/6
f 2426/3/6 2427/3/6 2430/3/6
f 2430/3/6 2427/3/6 2431/3/6
f 2432/2/6 2433/2/6 2434/2/6
f 2434/2/6 2433/2/6 2435/2/6
f 2438/2/6 2439/2/6 2440/2/6
f 2440/2/6 2439/2/6 2441/2/6
f 2436/2/6 2437/2/6 2442/2/6
f 2442/2/6 2437/2/6 2443/2/6
f 2443/2/6 2444/2/6 2445/2/6
f 2445/2/6 2444/2/6 2446/2/6
f 2445/8/6 2446/8/6 2450/8/6
f 2446/2/6 2447/2/6 2451/2/6
f 2450/8/6 2446/8/6 2451/8/6
f 2451/2/6 2447/2/6 2452/2/6
f 2448/2/6 2449/2/6 2453/2/6
f 2453/2/6 2449/2/6 2454/2/6
f 2455/2/6 2456/2/6 2457/2/6
f 2457/2/6 2456/2/6 2458/2/6
f 2459/3/6 2460/3/6 2462/3/6
f 2462/3/6 2460/3/6 2463/3/6
f 2461/3/6 2462/3/6 2465/3/6
f 2465/3/6 2462/3/6 2466/3/6
f 2463/3/6 2464/3/6 2467/3/6
f 2467/3/6 2464/3/6 2468/3/6
f 2469/2/6 2470/2/6 2471/2/6
f 2471/2/6 2470/2/6 2472/2/6
f 2472/2/6 2470/2/6 2473/2/6
f 2474/2/6 2475/2/6 2476/2/6
f 2476/2/6 2475/2/6 2477/2/6
f 2478/2/6 2479/2/6 2480/2/6
f 2480/2/6 2479/2/6 2481/2/6
f 2482/2/6 2483/2/6 2486/2/6
f 2486/2/6 2483/2/6 2487/2/6
f 2484/2/6 2485/2/6 2488/2/6
f 2488/2/6 2485/2/6 2489/2/6
f 2490/2/6 2491/2/6 2492/2/6
f 2492/2/6 2491/2/6 2493/2/6
f 2493/2/6 2491/2/6 2494/2/6
f 2494/2/6 2495/2/6 2496/2/6
f 2493/2/6 2494/2/6 2496/2/6
f 2496/2/6 2495/2/6 2497/2/6
f 2497/2/6 2495/2/6 2499/2/6
f 2499/2/6 2495/2/6 2500/2/6
f 2498/2/6 2499/2/6 2500/2/6
f 2500/2/6 2495/2/6 2501/2/6
f 2498/2/6 2500/2/6 2502/2/6
f 2502/2/6 2500/2/6 2503/2/6
f 2504/2/6 2505/2/6 2506/2/6
f 2506/2/6 2505/2/6 2507/2/6
f 2506/4/6 2507/4/6 2509/4/6
f 2507/2/6 2508/2/6 2510/2/6
f 2509/4/6 2507/4/6 2510/4/6
f 2510/2/6 2508/2/6 2511/2/6
f 2511/2/6 2508/2/6 2512/2/6
f 2513/4/6 2514/4/6 2517/4/6
f 2517/4/6 2514/4/6 2518/4/6
f 2515/4/6 2516/4/6 2521/4/6
f 2521/4/6 2516/4/6 2522/4/6
f 2518/4/6 2519/4/6 2523/4/6
f 2523/4/6 2519/4/6 2524/4/6
f 2520/4/6 2521/4/6 2525/4/6
f 2525/4/6 2521/4/6 2526/4/6
f 2527/1/6 2528/1/6 2531/1/6
f 2531/1/6 2528/1/6 2532/1/6
f 2529/1/6 2530/1/6 2533/1/6
f 2533/1/6 2530/1/6 2534/1/6
f 2535/1/6 2536/1/6 2539/1/6
f 2539/1/6 2536/1/6 2540/1/6
f 2537/1/6 2538/1/6 2541/1/6
f 2541/1/6 2538/1/6 2542/1/6
f 2543/1/6 2544/1/6 2547/1/6
f 2547/1/6 2544/1/6 2548/1/6
f 2545/4/6 2546/4/6 2549/4/6
f 2549/4/6 2546/4/6 2550/4/6
f 2552/1/6 2553/1/6 2554/1/6
f 2554/1/6 2553/1/6 2555/1/6
f 2550/4/6 2551/4/6 2559/4/6
f 2559/4/6 2551/4/6 2560/4/6
f 2556/4/6 2557/4/6 2561/4/6
f 2561/4/6 2557/4/6 2562/4/6
f 2558/4/6 2559/4/6 2563/4/6
f 2563/4/6 2559/4/6 2564/4/6
f 2562/4/6 2563/4/6 2565/4/6
f 2565/4/6 2563/4/6 2566/4/6
f 2567/1/6 2568/1/6 2571/1/6
f 2571/1/6 2568/1/6 2572/1/6
f 2569/1/6 2570/1/6 2575/1/6
f 2575/1/6 2570/1/6 2576/1/6
f 2573/1/6 2574/1/6 2577/1/6
f 2577/1/6 2574/1/6 2578/1/6
f 2579/1/6 2580/1/6 2583/1/6
f 2583/1/6 2580/1/6 2584/1/6
f 2581/1/6 2582/1/6 2585/1/6
f 2585/1/6 2582/1/6 2586/1/6
f 2587/1/6 2588/1/6 2592/1/6
f 2592/1/6 2588/1/6 2593/1/6
f 2590/4/6 2591/4/6 2596/4/6
f 2589/4/6 2590/4/6 2596/4/6
f 2594/1/6 2595/1/6 2597/1/6
f 2595/4/6 2596/4/6 2598/4/6
f 2597/1/6 2595/1/6 2598/1/6
f 2598/4/6 2596/4/6 2599/4/6
f 2596/4/6 2591/4/6 2600/4/6
f 2599/4/6 2596/4/6 2600/4/6
f 2600/4/6 2591/4/6 2601/4/6
f 2599/4/6 2600/4/6 2602/4/6
f 2602/4/6 2600/4/6 2603/4/6
f 2604/1/6 2605/1/6 2607/1/6
f 2607/1/6 2605/1/6 2608/1/6
f 2608/1/6 2605/1/6 2609/1/6
f 2609/1/6 2605/1/6 2610/1/6
f 2606/1/6 2607/1/6 2612/1/6
f 2607/1/6 2608/1/6 2612/1/6
f 2612/1/6 2608/1/6 2613/1/6
f 2610/1/6 2611/1/6 2614/1/6
f 2609/1/6 2610/1/6 2614/1/6
f 2614/1/6 2611/1/6 2615/1/6
f 2606/1/6 2612/1/6 2616/1/6
f 2615/1/6 2611/1/6 2619/1/6
f 2616/1/6 2617/1/6 2620/1/6
f 2606/1/6 2616/1/6 2620/1/6
f 2620/1/6 2617/1/6 2621/1/6
f 2621/1/6 2617/1/6 2622/1/6
f 2618/1/6 2619/1/6 2623/1/6
f 2619/1/6 2611/1/6 2624/1/6
f 2623/1/6 2619/1/6 2624/1/6
f 2624/1/6 2611/1/6 2625/1/6
f 2621/1/6 2622/1/6 2626/1/6
f 2622/1/6 2623/1/6 2626/1/6
f 2623/1/6 2624/1/6 2626/1/6
f 2626/1/6 2624/1/6 2627/1/6
f 2628/1/6 2629/1/6 2631/1/6
f 2631/1/6 2629/1/6 2632/1/6
f 2630/1/6 2631/1/6 2634/1/6
f 2632/1/6 2633/1/6 2634/1/6
f 2631/1/6 2632/1/6 2634/1/6
f 2634/1/6 2633/1/6 2635/1/6
f 2635/1/6 2633/1/6 2636/1/6
f 2636/1/6 2633/1/6 2637/1/6
f 2635/1/6 2636/1/6 2638/1/6
f 2638/1/6 2636/1/6 2639/1/6
