# MagicaVoxel @ Ephtracy

# group
o 

# material
mtllib granjafinal_trigo.mtl
usemtl palette

# normals
vn 1 0 0
vn -1 0 0
vn 0 0 1
vn 0 0 -1
vn 0 -1 0
vn 0 1 0

# texcoords
vt 0.630859 0.5
vt 0.634766 0.5
vt 0.638672 0.5
vt 0.642578 0.5
vt 0.646484 0.5
vt 0.650391 0.5

# verts
v -1.4 4.9 -1.8
v -1.4 4.9 -1.9
v -1.4 4.9 -2
v -1.4 4.9 -2.1
v -1.4 4.9 -2.2
v -1.4 4.9 -2.3
v -1.4 4.9 -2.4
v -1.4 4.9 -2.5
v -1.4 4.9 -2.6
v -1.4 5 -1.8
v -1.4 5 -1.9
v -1.4 5 -2.2
v -1.4 5 -2.3
v -1.4 5.1 -2
v -1.4 5.1 -2.1
v -1.4 5.1 -2.3
v -1.4 5.1 -2.4
v -1.4 5.2 -1.9
v -1.4 5.2 -2
v -1.4 5.2 -2.1
v -1.4 5.2 -2.2
v -1.4 5.2 -2.5
v -1.4 5.2 -2.6
v -1.4 5.3 -2.4
v -1.4 5.3 -2.5
v -1.5 5 -1.8
v -1.5 5 -1.9
v -1.5 5 -2.2
v -1.5 5 -2.3
v -1.5 5.1 -1.8
v -1.5 5.1 -1.9
v -1.5 5.1 -2
v -1.5 5.1 -2.1
v -1.5 5.1 -2.3
v -1.5 5.1 -2.4
v -1.5 5.2 -1.9
v -1.5 5.2 -2
v -1.5 5.2 -2.1
v -1.5 5.2 -2.2
v -1.5 5.2 -2.3
v -1.5 5.2 -2.4
v -1.5 5.3 -2
v -1.5 5.3 -2.1
v -1.5 5.3 -2.2
v -1.5 5.3 -2.3
v -1.5 5.3 -2.4
v -1.5 5.3 -2.5
v -1.5 5.4 -1.9
v -1.5 5.4 -2
v -1.5 5.4 -2.4
v -1.5 5.4 -2.5
v -1.6 5.1 -1.8
v -1.6 5.1 -1.9
v -1.6 5.3 -1.8
v -1.6 5.3 -1.9
v -1.7 5 -2.1
v -1.7 5 -2.2
v -1.7 5 -2.5
v -1.7 5 -2.6
v -1.7 5.1 -2
v -1.7 5.1 -2.1
v -1.7 5.1 -2.3
v -1.7 5.1 -2.4
v -1.7 5.2 -2
v -1.7 5.2 -2.1
v -1.7 5.2 -2.2
v -1.7 5.2 -2.3
v -1.7 5.2 -2.4
v -1.7 5.2 -2.5
v -1.7 5.3 -2.1
v -1.7 5.3 -2.2
v -1.7 5.3 -2.3
v -1.7 5.3 -2.4
v -1.7 5.3 -2.5
v -1.7 5.3 -2.6
v -1.8 5 -1.8
v -1.8 5 -1.9
v -1.8 5 -2
v -1.8 5 -2.4
v -1.8 5 -2.5
v -1.8 5.1 -1.9
v -1.8 5.1 -2
v -1.8 5.1 -2.2
v -1.8 5.1 -2.3
v -1.8 5.2 -1.8
v -1.8 5.2 -1.9
v -1.8 5.2 -2
v -1.8 5.2 -2.1
v -1.8 5.2 -2.2
v -1.8 5.2 -2.3
v -1.8 5.3 -2.1
v -1.8 5.3 -2.2
v -1.8 5.3 -2.4
v -1.8 5.3 -2.5
v -1.8 5.4 -2.1
v -1.8 5.4 -2.2
v -1.8 5.4 -2.4
v -1.8 5.4 -2.5
v -1.8 5.5 -2
v -1.8 5.5 -2.1
v -1.9 5.1 -1.9
v -1.9 5.1 -2
v -1.9 5.1 -2.3
v -1.9 5.1 -2.4
v -1.9 5.2 -1.9
v -1.9 5.2 -2.2
v -1.9 5.2 -2.3
v -1.9 5.3 -2.3
v -1.9 5.3 -2.4
v -1.9 5.4 -1.9
v -1.9 5.4 -2
v -1.9 5.4 -2.2
v -1.9 5.4 -2.3
v -2 5 -2.5
v -2 5 -2.6
v -2 5.1 -1.8
v -2 5.1 -1.9
v -2 5.2 -2.1
v -2 5.2 -2.2
v -2 5.2 -2.5
v -2 5.2 -2.6
v -2 5.3 -1.8
v -2 5.3 -1.9
v -2 5.3 -2.1
v -2 5.3 -2.2
v -2.1 5.1 -2
v -2.1 5.1 -2.1
v -2.1 5.1 -2.2
v -2.1 5.1 -2.3
v -2.1 5.2 -2
v -2.1 5.2 -2.1
v -2.1 5.2 -2.2
v -2.1 5.2 -2.3
v -1.5 5.1 -2.1
v -1.5 5.1 -2.2
v -1.5 5.1 -2.5
v -1.5 5.1 -2.6
v -1.5 5.2 -2.1
v -1.5 5.2 -2.2
v -1.5 5.2 -2.5
v -1.5 5.2 -2.6
v -1.6 5 -2.1
v -1.6 5 -2.2
v -1.6 5 -2.5
v -1.6 5 -2.6
v -1.6 5.1 -2
v -1.6 5.1 -2.1
v -1.6 5.1 -2.2
v -1.6 5.1 -2.3
v -1.6 5.1 -2.4
v -1.6 5.1 -2.5
v -1.6 5.1 -2.6
v -1.6 5.2 -1.9
v -1.6 5.2 -2
v -1.6 5.2 -2.2
v -1.6 5.2 -2.3
v -1.6 5.2 -2.4
v -1.6 5.2 -2.5
v -1.6 5.3 -1.9
v -1.6 5.3 -2
v -1.6 5.3 -2.1
v -1.6 5.3 -2.2
v -1.6 5.3 -2.3
v -1.6 5.4 -1.9
v -1.6 5.4 -2
v -1.6 5.4 -2.4
v -1.6 5.4 -2.5
v -1.7 5 -1.8
v -1.7 5 -1.9
v -1.7 5 -2
v -1.7 5 -2.4
v -1.7 5 -2.5
v -1.7 5.1 -2.2
v -1.7 5.1 -2.3
v -1.7 5.2 -1.9
v -1.7 5.2 -2
v -1.7 5.2 -2.2
v -1.7 5.2 -2.3
v -1.7 5.2 -2.4
v -1.7 5.2 -2.5
v -1.7 5.3 -1.8
v -1.7 5.3 -1.9
v -1.8 5.1 -2.3
v -1.8 5.1 -2.4
v -1.8 5.1 -2.5
v -1.8 5.1 -2.6
v -1.8 5.2 -2.3
v -1.8 5.3 -2.3
v -1.8 5.3 -2.4
v -1.8 5.3 -2.5
v -1.8 5.3 -2.6
v -1.9 5 -2.5
v -1.9 5 -2.6
v -1.9 5.1 -1.8
v -1.9 5.1 -1.9
v -1.9 5.1 -2.5
v -1.9 5.1 -2.6
v -1.9 5.2 -1.8
v -1.9 5.2 -1.9
v -1.9 5.2 -2.1
v -1.9 5.2 -2.2
v -1.9 5.2 -2.4
v -1.9 5.2 -2.5
v -1.9 5.3 -2
v -1.9 5.3 -2.1
v -1.9 5.3 -2.4
v -1.9 5.4 -2
v -1.9 5.4 -2.1
v -1.9 5.4 -2.2
v -1.9 5.4 -2.4
v -1.9 5.4 -2.5
v -1.9 5.5 -2
v -1.9 5.5 -2.1
v -2 5.1 -2
v -2 5.1 -2.1
v -2 5.1 -2.2
v -2 5.1 -2.3
v -2 5.1 -2.4
v -2 5.1 -2.5
v -2 5.2 -1.9
v -2 5.2 -2
v -2 5.2 -2.3
v -2 5.2 -2.4
v -2 5.2 -2.5
v -2 5.3 -1.9
v -2 5.3 -2
v -2 5.3 -2.1
v -2 5.3 -2.2
v -2 5.3 -2.3
v -2 5.3 -2.4
v -2 5.4 -1.9
v -2 5.4 -2
v -2 5.4 -2.2
v -2 5.4 -2.3
v -2.1 5 -1.9
v -2.1 5 -2
v -2.1 5 -2.4
v -2.1 5 -2.5
v -2.1 5.1 -1.8
v -2.1 5.1 -1.9
v -2.1 5.1 -2.1
v -2.1 5.1 -2.2
v -2.1 5.1 -2.3
v -2.1 5.1 -2.4
v -2.1 5.1 -2.5
v -2.1 5.1 -2.6
v -2.1 5.2 -1.9
v -2.1 5.2 -2
v -2.1 5.2 -2.1
v -2.1 5.2 -2.2
v -2.1 5.2 -2.3
v -2.1 5.2 -2.4
v -2.1 5.2 -2.5
v -2.1 5.2 -2.6
v -2.1 5.3 -1.8
v -2.1 5.3 -1.9
v -2.1 5.3 -2.1
v -2.1 5.3 -2.2
v -2.2 4.9 -1.8
v -2.2 4.9 -1.9
v -2.2 4.9 -2
v -2.2 4.9 -2.1
v -2.2 4.9 -2.2
v -2.2 4.9 -2.3
v -2.2 4.9 -2.4
v -2.2 4.9 -2.5
v -2.2 4.9 -2.6
v -2.2 5 -1.9
v -2.2 5 -2
v -2.2 5 -2.4
v -2.2 5 -2.5
v -2.2 5.1 -1.8
v -2.2 5.1 -1.9
v -2.2 5.1 -2.1
v -2.2 5.1 -2.2
v -2.2 5.1 -2.3
v -2.2 5.1 -2.4
v -2.2 5.1 -2.5
v -2.2 5.1 -2.6
v -2.2 5.2 -2
v -2.2 5.2 -2.1
v -2.2 5.2 -2.2
v -2.2 5.2 -2.3
v -1.4 4.9 -1.8
v -1.4 5 -1.8
v -1.5 4.9 -1.8
v -1.5 5 -1.8
v -1.5 5.1 -1.8
v -1.6 4.9 -1.8
v -1.6 5.1 -1.8
v -1.6 5.3 -1.8
v -1.7 4.9 -1.8
v -1.7 5 -1.8
v -1.7 5.3 -1.8
v -1.8 4.9 -1.8
v -1.8 5 -1.8
v -1.8 5.2 -1.8
v -1.9 4.9 -1.8
v -1.9 5.1 -1.8
v -1.9 5.2 -1.8
v -2 4.9 -1.8
v -2 5.1 -1.8
v -2 5.3 -1.8
v -2.1 4.9 -1.8
v -2.1 5.1 -1.8
v -2.1 5.3 -1.8
v -2.2 4.9 -1.8
v -2.2 5.1 -1.8
v -1.4 5 -1.9
v -1.4 5.2 -1.9
v -1.5 5 -1.9
v -1.5 5.1 -1.9
v -1.5 5.2 -1.9
v -1.5 5.4 -1.9
v -1.6 5.1 -1.9
v -1.6 5.3 -1.9
v -1.6 5.4 -1.9
v -1.9 5.1 -1.9
v -1.9 5.2 -1.9
v -1.9 5.4 -1.9
v -2 5.1 -1.9
v -2 5.3 -1.9
v -2 5.4 -1.9
v -1.7 5 -2
v -1.7 5.2 -2
v -1.8 5 -2
v -1.8 5.1 -2
v -1.8 5.2 -2
v -1.8 5.5 -2
v -1.9 5.1 -2
v -1.9 5.4 -2
v -1.9 5.5 -2
v -2.1 5 -2
v -2.1 5.2 -2
v -2.2 5 -2
v -2.2 5.2 -2
v -1.4 5.1 -2.1
v -1.4 5.2 -2.1
v -1.5 5.1 -2.1
v -1.5 5.2 -2.1
v -1.7 5.2 -2.1
v -1.7 5.3 -2.1
v -1.8 5.2 -2.1
v -1.8 5.3 -2.1
v -2 5.1 -2.1
v -2 5.3 -2.1
v -2.1 5.1 -2.1
v -2.1 5.2 -2.1
v -2.1 5.3 -2.1
v -1.5 5.1 -2.2
v -1.5 5.2 -2.2
v -1.5 5.3 -2.2
v -1.6 5 -2.2
v -1.6 5.1 -2.2
v -1.6 5.2 -2.2
v -1.6 5.3 -2.2
v -1.7 5 -2.2
v -1.7 5.2 -2.2
v -1.9 5.2 -2.2
v -1.9 5.4 -2.2
v -2 5.2 -2.2
v -2 5.3 -2.2
v -2 5.4 -2.2
v -2.1 5.1 -2.2
v -2.1 5.2 -2.2
v -2.2 5.1 -2.2
v -2.2 5.2 -2.2
v -1.4 5 -2.3
v -1.4 5.1 -2.3
v -1.5 5 -2.3
v -1.5 5.1 -2.3
v -1.7 5.1 -2.3
v -1.7 5.2 -2.3
v -1.7 5.3 -2.3
v -1.8 5.1 -2.3
v -1.8 5.2 -2.3
v -1.8 5.3 -2.3
v -2 5.1 -2.3
v -2 5.2 -2.3
v -2.1 5.1 -2.3
v -2.1 5.2 -2.3
v -1.4 5.1 -2.4
v -1.4 5.3 -2.4
v -1.5 5.1 -2.4
v -1.5 5.2 -2.4
v -1.5 5.3 -2.4
v -1.5 5.4 -2.4
v -1.6 5.1 -2.4
v -1.6 5.2 -2.4
v -1.6 5.4 -2.4
v -1.7 5.1 -2.4
v -1.7 5.2 -2.4
v -1.8 5.1 -2.4
v -1.8 5.3 -2.4
v -1.8 5.4 -2.4
v -1.9 5.1 -2.4
v -1.9 5.3 -2.4
v -1.9 5.4 -2.4
v -1.7 5 -2.5
v -1.7 5.2 -2.5
v -1.7 5.3 -2.5
v -1.8 5 -2.5
v -1.8 5.3 -2.5
v -2 5.1 -2.5
v -2 5.2 -2.5
v -2.1 5 -2.5
v -2.1 5.1 -2.5
v -2.1 5.2 -2.5
v -2.2 5 -2.5
v -2.2 5.1 -2.5
v -1.6 5.2 -1.9
v -1.6 5.3 -1.9
v -1.7 5.2 -1.9
v -1.7 5.3 -1.9
v -1.8 5.1 -1.9
v -1.8 5.2 -1.9
v -1.9 5.1 -1.9
v -1.9 5.2 -1.9
v -2 5.2 -1.9
v -2 5.3 -1.9
v -2.1 5 -1.9
v -2.1 5.1 -1.9
v -2.1 5.2 -1.9
v -2.1 5.3 -1.9
v -2.2 5 -1.9
v -2.2 5.1 -1.9
v -1.4 5.1 -2
v -1.4 5.2 -2
v -1.5 5.1 -2
v -1.5 5.2 -2
v -1.5 5.3 -2
v -1.5 5.4 -2
v -1.6 5.1 -2
v -1.6 5.2 -2
v -1.6 5.3 -2
v -1.6 5.4 -2
v -1.7 5.1 -2
v -1.7 5.2 -2
v -1.9 5.3 -2
v -1.9 5.4 -2
v -2 5.1 -2
v -2 5.2 -2
v -2 5.3 -2
v -2 5.4 -2
v -2.1 5.1 -2
v -2.1 5.2 -2
v -1.5 5.1 -2.1
v -1.5 5.2 -2.1
v -1.5 5.3 -2.1
v -1.6 5 -2.1
v -1.6 5.1 -2.1
v -1.6 5.3 -2.1
v -1.7 5 -2.1
v -1.7 5.1 -2.1
v -1.8 5.4 -2.1
v -1.8 5.5 -2.1
v -1.9 5.2 -2.1
v -1.9 5.3 -2.1
v -1.9 5.4 -2.1
v -1.9 5.5 -2.1
v -2 5.2 -2.1
v -2 5.3 -2.1
v -2.1 5.1 -2.1
v -2.1 5.2 -2.1
v -2.2 5.1 -2.1
v -2.2 5.2 -2.1
v -1.4 5 -2.2
v -1.4 5.2 -2.2
v -1.5 5 -2.2
v -1.5 5.2 -2.2
v -1.7 5.1 -2.2
v -1.7 5.2 -2.2
v -1.7 5.3 -2.2
v -1.8 5.1 -2.2
v -1.8 5.2 -2.2
v -1.8 5.3 -2.2
v -1.8 5.4 -2.2
v -1.9 5.2 -2.2
v -1.9 5.4 -2.2
v -2 5.1 -2.2
v -2 5.3 -2.2
v -2.1 5.1 -2.2
v -2.1 5.2 -2.2
v -2.1 5.3 -2.2
v -1.5 5.2 -2.3
v -1.5 5.3 -2.3
v -1.6 5.1 -2.3
v -1.6 5.2 -2.3
v -1.6 5.3 -2.3
v -1.7 5.1 -2.3
v -1.7 5.2 -2.3
v -1.8 5.1 -2.3
v -1.8 5.2 -2.3
v -1.9 5.1 -2.3
v -1.9 5.2 -2.3
v -1.9 5.3 -2.3
v -1.9 5.4 -2.3
v -2 5.3 -2.3
v -2 5.4 -2.3
v -2.1 5.1 -2.3
v -2.1 5.2 -2.3
v -2.2 5.1 -2.3
v -2.2 5.2 -2.3
v -1.7 5 -2.4
v -1.7 5.2 -2.4
v -1.7 5.3 -2.4
v -1.8 5 -2.4
v -1.8 5.3 -2.4
v -1.9 5.2 -2.4
v -1.9 5.3 -2.4
v -2 5.1 -2.4
v -2 5.2 -2.4
v -2 5.3 -2.4
v -2.1 5 -2.4
v -2.1 5.1 -2.4
v -2.1 5.2 -2.4
v -2.2 5 -2.4
v -2.2 5.1 -2.4
v -1.4 5.2 -2.5
v -1.4 5.3 -2.5
v -1.5 5.1 -2.5
v -1.5 5.2 -2.5
v -1.5 5.3 -2.5
v -1.5 5.4 -2.5
v -1.6 5 -2.5
v -1.6 5.1 -2.5
v -1.6 5.2 -2.5
v -1.6 5.4 -2.5
v -1.7 5 -2.5
v -1.7 5.2 -2.5
v -1.8 5.1 -2.5
v -1.8 5.3 -2.5
v -1.8 5.4 -2.5
v -1.9 5 -2.5
v -1.9 5.1 -2.5
v -1.9 5.2 -2.5
v -1.9 5.4 -2.5
v -2 5 -2.5
v -2 5.2 -2.5
v -1.4 4.9 -2.6
v -1.4 5.2 -2.6
v -1.5 4.9 -2.6
v -1.5 5.1 -2.6
v -1.5 5.2 -2.6
v -1.6 4.9 -2.6
v -1.6 5 -2.6
v -1.6 5.1 -2.6
v -1.7 4.9 -2.6
v -1.7 5 -2.6
v -1.7 5.3 -2.6
v -1.8 4.9 -2.6
v -1.8 5.1 -2.6
v -1.8 5.3 -2.6
v -1.9 4.9 -2.6
v -1.9 5 -2.6
v -1.9 5.1 -2.6
v -2 4.9 -2.6
v -2 5 -2.6
v -2 5.2 -2.6
v -2.1 4.9 -2.6
v -2.1 5.1 -2.6
v -2.1 5.2 -2.6
v -2.2 4.9 -2.6
v -2.2 5.1 -2.6
v -1.4 4.9 -1.8
v -1.5 4.9 -1.8
v -1.6 4.9 -1.8
v -1.7 4.9 -1.8
v -1.8 4.9 -1.8
v -1.9 4.9 -1.8
v -2 4.9 -1.8
v -2.1 4.9 -1.8
v -2.2 4.9 -1.8
v -1.4 4.9 -1.9
v -1.5 4.9 -1.9
v -1.6 4.9 -1.9
v -1.7 4.9 -1.9
v -1.8 4.9 -1.9
v -1.9 4.9 -1.9
v -2 4.9 -1.9
v -2.1 4.9 -1.9
v -2.2 4.9 -1.9
v -1.4 4.9 -2
v -1.5 4.9 -2
v -1.6 4.9 -2
v -1.7 4.9 -2
v -1.8 4.9 -2
v -1.9 4.9 -2
v -2 4.9 -2
v -2.1 4.9 -2
v -2.2 4.9 -2
v -1.4 4.9 -2.1
v -1.5 4.9 -2.1
v -1.6 4.9 -2.1
v -1.7 4.9 -2.1
v -1.8 4.9 -2.1
v -1.9 4.9 -2.1
v -2 4.9 -2.1
v -2.1 4.9 -2.1
v -2.2 4.9 -2.1
v -1.4 4.9 -2.2
v -1.5 4.9 -2.2
v -1.6 4.9 -2.2
v -1.7 4.9 -2.2
v -1.8 4.9 -2.2
v -1.9 4.9 -2.2
v -2 4.9 -2.2
v -2.1 4.9 -2.2
v -2.2 4.9 -2.2
v -1.4 4.9 -2.3
v -1.5 4.9 -2.3
v -1.6 4.9 -2.3
v -1.7 4.9 -2.3
v -1.8 4.9 -2.3
v -1.9 4.9 -2.3
v -2 4.9 -2.3
v -2.1 4.9 -2.3
v -2.2 4.9 -2.3
v -1.4 4.9 -2.4
v -1.5 4.9 -2.4
v -1.6 4.9 -2.4
v -1.7 4.9 -2.4
v -1.8 4.9 -2.4
v -1.9 4.9 -2.4
v -2 4.9 -2.4
v -2.1 4.9 -2.4
v -2.2 4.9 -2.4
v -1.4 4.9 -2.5
v -1.5 4.9 -2.5
v -1.6 4.9 -2.5
v -1.7 4.9 -2.5
v -1.8 4.9 -2.5
v -1.9 4.9 -2.5
v -2 4.9 -2.5
v -2.1 4.9 -2.5
v -2.2 4.9 -2.5
v -1.4 4.9 -2.6
v -1.5 4.9 -2.6
v -1.6 4.9 -2.6
v -1.7 4.9 -2.6
v -1.8 4.9 -2.6
v -1.9 4.9 -2.6
v -2 4.9 -2.6
v -2.1 4.9 -2.6
v -2.2 4.9 -2.6
v -1.4 5 -1.8
v -1.5 5 -1.8
v -1.7 5 -1.8
v -1.8 5 -1.8
v -1.4 5 -1.9
v -1.5 5 -1.9
v -1.7 5 -1.9
v -1.8 5 -1.9
v -2.1 5 -1.9
v -2.2 5 -1.9
v -1.7 5 -2
v -1.8 5 -2
v -2.1 5 -2
v -2.2 5 -2
v -1.6 5 -2.1
v -1.7 5 -2.1
v -1.4 5 -2.2
v -1.5 5 -2.2
v -1.6 5 -2.2
v -1.7 5 -2.2
v -1.4 5 -2.3
v -1.5 5 -2.3
v -1.7 5 -2.4
v -1.8 5 -2.4
v -2.1 5 -2.4
v -2.2 5 -2.4
v -1.6 5 -2.5
v -1.7 5 -2.5
v -1.8 5 -2.5
v -1.9 5 -2.5
v -2 5 -2.5
v -2.1 5 -2.5
v -2.2 5 -2.5
v -1.6 5 -2.6
v -1.7 5 -2.6
v -1.9 5 -2.6
v -2 5 -2.6
v -1.5 5.1 -1.8
v -1.6 5.1 -1.8
v -1.9 5.1 -1.8
v -2 5.1 -1.8
v -2.1 5.1 -1.8
v -2.2 5.1 -1.8
v -1.5 5.1 -1.9
v -1.6 5.1 -1.9
v -1.8 5.1 -1.9
v -1.9 5.1 -1.9
v -2 5.1 -1.9
v -2.1 5.1 -1.9
v -2.2 5.1 -1.9
v -1.4 5.1 -2
v -1.5 5.1 -2
v -1.6 5.1 -2
v -1.7 5.1 -2
v -1.8 5.1 -2
v -1.9 5.1 -2
v -2 5.1 -2
v -2.1 5.1 -2
v -1.4 5.1 -2.1
v -1.5 5.1 -2.1
v -1.6 5.1 -2.1
v -1.7 5.1 -2.1
v -2 5.1 -2.1
v -2.1 5.1 -2.1
v -2.2 5.1 -2.1
v -1.5 5.1 -2.2
v -1.6 5.1 -2.2
v -1.7 5.1 -2.2
v -1.8 5.1 -2.2
v -2 5.1 -2.2
v -2.1 5.1 -2.2
v -2.2 5.1 -2.2
v -1.4 5.1 -2.3
v -1.5 5.1 -2.3
v -1.6 5.1 -2.3
v -1.7 5.1 -2.3
v -1.8 5.1 -2.3
v -1.9 5.1 -2.3
v -2 5.1 -2.3
v -2.1 5.1 -2.3
v -2.2 5.1 -2.3
v -1.4 5.1 -2.4
v -1.5 5.1 -2.4
v -1.6 5.1 -2.4
v -1.7 5.1 -2.4
v -1.8 5.1 -2.4
v -1.9 5.1 -2.4
v -2 5.1 -2.4
v -2.1 5.1 -2.4
v -2.2 5.1 -2.4
v -1.5 5.1 -2.5
v -1.6 5.1 -2.5
v -1.8 5.1 -2.5
v -1.9 5.1 -2.5
v -2 5.1 -2.5
v -2.1 5.1 -2.5
v -2.2 5.1 -2.5
v -1.5 5.1 -2.6
v -1.6 5.1 -2.6
v -1.8 5.1 -2.6
v -1.9 5.1 -2.6
v -2.1 5.1 -2.6
v -2.2 5.1 -2.6
v -1.8 5.2 -1.8
v -1.9 5.2 -1.8
v -1.4 5.2 -1.9
v -1.5 5.2 -1.9
v -1.6 5.2 -1.9
v -1.7 5.2 -1.9
v -1.8 5.2 -1.9
v -1.9 5.2 -1.9
v -2 5.2 -1.9
v -2.1 5.2 -1.9
v -1.4 5.2 -2
v -1.5 5.2 -2
v -1.6 5.2 -2
v -1.7 5.2 -2
v -1.8 5.2 -2
v -2 5.2 -2
v -2.1 5.2 -2
v -2.2 5.2 -2
v -1.4 5.2 -2.1
v -1.5 5.2 -2.1
v -1.7 5.2 -2.1
v -1.8 5.2 -2.1
v -1.9 5.2 -2.1
v -2 5.2 -2.1
v -2.1 5.2 -2.1
v -2.2 5.2 -2.1
v -1.4 5.2 -2.2
v -1.5 5.2 -2.2
v -1.6 5.2 -2.2
v -1.7 5.2 -2.2
v -1.8 5.2 -2.2
v -1.9 5.2 -2.2
v -2 5.2 -2.2
v -2.1 5.2 -2.2
v -2.2 5.2 -2.2
v -1.5 5.2 -2.3
v -1.6 5.2 -2.3
v -1.7 5.2 -2.3
v -1.8 5.2 -2.3
v -1.9 5.2 -2.3
v -2 5.2 -2.3
v -2.1 5.2 -2.3
v -2.2 5.2 -2.3
v -1.5 5.2 -2.4
v -1.6 5.2 -2.4
v -1.7 5.2 -2.4
v -1.9 5.2 -2.4
v -2 5.2 -2.4
v -2.1 5.2 -2.4
v -1.4 5.2 -2.5
v -1.5 5.2 -2.5
v -1.6 5.2 -2.5
v -1.7 5.2 -2.5
v -1.9 5.2 -2.5
v -2 5.2 -2.5
v -2.1 5.2 -2.5
v -1.4 5.2 -2.6
v -1.5 5.2 -2.6
v -2 5.2 -2.6
v -2.1 5.2 -2.6
v -1.6 5.3 -1.8
v -1.7 5.3 -1.8
v -2 5.3 -1.8
v -2.1 5.3 -1.8
v -1.6 5.3 -1.9
v -1.7 5.3 -1.9
v -2 5.3 -1.9
v -2.1 5.3 -1.9
v -1.5 5.3 -2
v -1.6 5.3 -2
v -1.9 5.3 -2
v -2 5.3 -2
v -1.5 5.3 -2.1
v -1.6 5.3 -2.1
v -1.7 5.3 -2.1
v -1.8 5.3 -2.1
v -1.9 5.3 -2.1
v -2 5.3 -2.1
v -2.1 5.3 -2.1
v -1.5 5.3 -2.2
v -1.6 5.3 -2.2
v -1.7 5.3 -2.2
v -1.8 5.3 -2.2
v -2 5.3 -2.2
v -2.1 5.3 -2.2
v -1.5 5.3 -2.3
v -1.6 5.3 -2.3
v -1.7 5.3 -2.3
v -1.8 5.3 -2.3
v -1.9 5.3 -2.3
v -2 5.3 -2.3
v -1.4 5.3 -2.4
v -1.5 5.3 -2.4
v -1.7 5.3 -2.4
v -1.8 5.3 -2.4
v -1.9 5.3 -2.4
v -2 5.3 -2.4
v -1.4 5.3 -2.5
v -1.5 5.3 -2.5
v -1.7 5.3 -2.5
v -1.8 5.3 -2.5
v -1.7 5.3 -2.6
v -1.8 5.3 -2.6
v -1.5 5.4 -1.9
v -1.6 5.4 -1.9
v -1.9 5.4 -1.9
v -2 5.4 -1.9
v -1.5 5.4 -2
v -1.6 5.4 -2
v -1.9 5.4 -2
v -2 5.4 -2
v -1.8 5.4 -2.1
v -1.9 5.4 -2.1
v -1.8 5.4 -2.2
v -1.9 5.4 -2.2
v -2 5.4 -2.2
v -1.9 5.4 -2.3
v -2 5.4 -2.3
v -1.5 5.4 -2.4
v -1.6 5.4 -2.4
v -1.8 5.4 -2.4
v -1.9 5.4 -2.4
v -1.5 5.4 -2.5
v -1.6 5.4 -2.5
v -1.8 5.4 -2.5
v -1.9 5.4 -2.5
v -1.8 5.5 -2
v -1.9 5.5 -2
v -1.8 5.5 -2.1
v -1.9 5.5 -2.1

# faces
f 1/4/1 2/4/1 10/4/1
f 2/2/1 3/2/1 11/2/1
f 10/4/1 2/4/1 11/4/1
f 4/5/1 5/5/1 12/5/1
f 5/1/1 6/1/1 12/1/1
f 6/3/1 7/3/1 13/3/1
f 12/1/1 6/1/1 13/1/1
f 3/1/1 4/1/1 14/1/1
f 11/2/1 3/2/1 14/2/1
f 4/5/1 12/5/1 15/5/1
f 14/1/1 4/1/1 15/1/1
f 13/3/1 7/3/1 16/3/1
f 7/6/1 8/6/1 17/6/1
f 16/3/1 7/3/1 17/3/1
f 11/2/1 14/2/1 18/2/1
f 18/2/1 14/2/1 19/2/1
f 15/5/1 12/5/1 20/5/1
f 20/5/1 12/5/1 21/5/1
f 8/1/1 9/1/1 22/1/1
f 17/6/1 8/6/1 22/6/1
f 22/1/1 9/1/1 23/1/1
f 17/6/1 22/6/1 24/6/1
f 24/6/1 22/6/1 25/6/1
f 26/2/1 27/2/1 30/2/1
f 30/2/1 27/2/1 31/2/1
f 28/4/1 29/4/1 34/4/1
f 32/3/1 33/3/1 37/3/1
f 37/3/1 33/3/1 38/3/1
f 28/4/1 34/4/1 39/4/1
f 34/1/1 35/1/1 40/1/1
f 39/4/1 34/4/1 40/4/1
f 40/1/1 35/1/1 41/1/1
f 37/3/1 38/3/1 42/3/1
f 36/6/1 37/6/1 42/6/1
f 42/3/1 38/3/1 43/3/1
f 39/4/1 40/4/1 44/4/1
f 44/4/1 40/4/1 45/4/1
f 36/6/1 42/6/1 48/6/1
f 48/6/1 42/6/1 49/6/1
f 46/3/1 47/3/1 50/3/1
f 50/3/1 47/3/1 51/3/1
f 52/3/1 53/3/1 54/3/1
f 54/3/1 53/3/1 55/3/1
f 56/6/1 57/6/1 61/6/1
f 60/5/1 61/5/1 64/5/1
f 61/6/1 57/6/1 65/6/1
f 64/5/1 61/5/1 65/5/1
f 65/6/1 57/6/1 66/6/1
f 62/4/1 63/4/1 67/4/1
f 67/4/1 63/4/1 68/4/1
f 58/5/1 59/5/1 69/5/1
f 65/6/1 66/6/1 70/6/1
f 70/6/1 66/6/1 71/6/1
f 67/4/1 68/4/1 72/4/1
f 72/4/1 68/4/1 73/4/1
f 69/5/1 59/5/1 74/5/1
f 74/5/1 59/5/1 75/5/1
f 76/6/1 77/6/1 81/6/1
f 77/4/1 78/4/1 81/4/1
f 81/4/1 78/4/1 82/4/1
f 76/6/1 81/6/1 85/6/1
f 85/6/1 81/6/1 86/6/1
f 83/5/1 84/5/1 89/5/1
f 89/5/1 84/5/1 90/5/1
f 87/3/1 88/3/1 91/3/1
f 79/4/1 80/4/1 93/4/1
f 93/4/1 80/4/1 94/4/1
f 91/1/1 92/1/1 95/1/1
f 87/3/1 91/3/1 95/3/1
f 95/1/1 92/1/1 96/1/1
f 93/4/1 94/4/1 97/4/1
f 97/4/1 94/4/1 98/4/1
f 87/3/1 95/3/1 99/3/1
f 99/3/1 95/3/1 100/3/1
f 101/2/1 102/2/1 105/2/1
f 103/2/1 104/2/1 107/2/1
f 107/2/1 104/2/1 108/2/1
f 106/3/1 107/3/1 108/3/1
f 108/2/1 104/2/1 109/2/1
f 105/2/1 102/2/1 110/2/1
f 110/2/1 102/2/1 111/2/1
f 106/3/1 108/3/1 112/3/1
f 112/3/1 108/3/1 113/3/1
f 114/6/1 115/6/1 120/6/1
f 120/6/1 115/6/1 121/6/1
f 116/6/1 117/6/1 122/6/1
f 122/6/1 117/6/1 123/6/1
f 118/2/1 119/2/1 124/2/1
f 124/2/1 119/2/1 125/2/1
f 126/3/1 127/3/1 130/3/1
f 130/3/1 127/3/1 131/3/1
f 128/1/1 129/1/1 132/1/1
f 132/1/1 129/1/1 133/1/1
f 138/5/2 135/5/2 134/5/2
f 139/5/2 135/5/2 138/5/2
f 140/1/2 137/1/2 136/1/2
f 141/1/2 137/1/2 140/1/2
f 147/2/2 143/2/2 142/2/2
f 148/2/2 143/2/2 147/2/2
f 151/2/2 145/2/2 144/2/2
f 152/2/2 145/2/2 151/2/2
f 154/3/2 147/3/2 146/3/2
f 156/1/2 150/1/2 149/1/2
f 157/1/2 150/1/2 156/1/2
f 159/6/2 154/6/2 153/6/2
f 160/3/2 147/3/2 154/3/2
f 160/6/2 154/6/2 159/6/2
f 161/3/2 147/3/2 160/3/2
f 162/4/2 156/4/2 155/4/2
f 163/4/2 156/4/2 162/4/2
f 164/6/2 160/6/2 159/6/2
f 165/6/2 160/6/2 164/6/2
f 166/3/2 158/3/2 157/3/2
f 167/3/2 158/3/2 166/3/2
f 175/3/2 169/3/2 168/3/2
f 175/5/2 170/5/2 169/5/2
f 176/5/2 170/5/2 175/5/2
f 177/3/2 174/3/2 173/3/2
f 178/3/2 174/3/2 177/3/2
f 179/4/2 172/4/2 171/4/2
f 180/4/2 172/4/2 179/4/2
f 181/3/2 175/3/2 168/3/2
f 182/3/2 175/3/2 181/3/2
f 187/4/2 184/4/2 183/4/2
f 188/4/2 184/4/2 187/4/2
f 189/4/2 184/4/2 188/4/2
f 190/5/2 186/5/2 185/5/2
f 191/5/2 186/5/2 190/5/2
f 196/1/2 193/1/2 192/1/2
f 197/1/2 193/1/2 196/1/2
f 198/6/2 195/6/2 194/6/2
f 199/6/2 195/6/2 198/6/2
f 205/1/2 201/1/2 200/1/2
f 206/4/2 203/4/2 202/4/2
f 207/3/2 205/3/2 204/3/2
f 208/1/2 201/1/2 205/1/2
f 208/3/2 205/3/2 207/3/2
f 209/1/2 201/1/2 208/1/2
f 210/4/2 203/4/2 206/4/2
f 211/4/2 203/4/2 210/4/2
f 212/3/2 208/3/2 207/3/2
f 213/3/2 208/3/2 212/3/2
f 221/5/2 215/5/2 214/5/2
f 222/3/2 217/3/2 216/3/2
f 223/5/2 219/5/2 218/5/2
f 224/5/2 219/5/2 223/5/2
f 225/2/2 221/2/2 220/2/2
f 226/5/2 215/5/2 221/5/2
f 226/2/2 221/2/2 225/2/2
f 227/5/2 215/5/2 226/5/2
f 228/3/2 222/3/2 216/3/2
f 229/2/2 223/2/2 222/2/2
f 229/3/2 222/3/2 228/3/2
f 230/2/2 223/2/2 229/2/2
f 231/2/2 226/2/2 225/2/2
f 232/2/2 226/2/2 231/2/2
f 233/3/2 229/3/2 228/3/2
f 234/3/2 229/3/2 233/3/2
f 240/1/2 236/1/2 235/1/2
f 244/5/2 238/5/2 237/5/2
f 245/5/2 238/5/2 244/5/2
f 247/1/2 236/1/2 240/1/2
f 247/6/2 240/6/2 239/6/2
f 248/1/2 236/1/2 247/1/2
f 249/2/2 242/2/2 241/2/2
f 250/2/2 242/2/2 249/2/2
f 251/4/2 244/4/2 243/4/2
f 252/4/2 244/4/2 251/4/2
f 253/6/2 246/6/2 245/6/2
f 254/6/2 246/6/2 253/6/2
f 255/6/2 247/6/2 239/6/2
f 256/6/2 247/6/2 255/6/2
f 257/2/2 250/2/2 249/2/2
f 258/2/2 250/2/2 257/2/2
f 268/2/2 260/2/2 259/2/2
f 268/4/2 261/4/2 260/4/2
f 269/3/2 262/3/2 261/3/2
f 269/4/2 261/4/2 268/4/2
f 270/1/2 266/1/2 265/1/2
f 270/6/2 265/6/2 264/6/2
f 271/2/2 267/2/2 266/2/2
f 271/1/2 266/1/2 270/1/2
f 272/2/2 268/2/2 259/2/2
f 273/2/2 268/2/2 272/2/2
f 274/3/2 262/3/2 269/3/2
f 274/4/2 263/4/2 262/4/2
f 275/1/2 264/1/2 263/1/2
f 275/4/2 263/4/2 274/4/2
f 276/6/2 270/6/2 264/6/2
f 276/1/2 264/1/2 275/1/2
f 277/6/2 270/6/2 276/6/2
f 278/2/2 267/2/2 271/2/2
f 279/2/2 267/2/2 278/2/2
f 280/3/2 274/3/2 269/3/2
f 281/3/2 274/3/2 280/3/2
f 282/1/2 276/1/2 275/1/2
f 283/1/2 276/1/2 282/1/2
f 284/4/3 285/4/3 286/4/3
f 286/4/3 285/4/3 287/4/3
f 286/2/3 287/2/3 289/2/3
f 287/2/3 288/2/3 289/2/3
f 289/2/3 288/2/3 290/2/3
f 289/3/3 290/3/3 292/3/3
f 290/3/3 291/3/3 292/3/3
f 292/3/3 291/3/3 293/3/3
f 293/3/3 291/3/3 294/3/3
f 292/5/3 293/5/3 295/5/3
f 295/5/3 293/5/3 296/5/3
f 295/6/3 296/6/3 298/6/3
f 296/6/3 297/6/3 298/6/3
f 298/6/3 297/6/3 299/6/3
f 299/6/3 297/6/3 300/6/3
f 298/2/3 299/2/3 301/2/3
f 301/2/3 299/2/3 302/2/3
f 301/6/3 302/6/3 304/6/3
f 302/6/3 303/6/3 304/6/3
f 304/6/3 303/6/3 305/6/3
f 305/6/3 303/6/3 306/6/3
f 304/2/3 305/2/3 307/2/3
f 307/2/3 305/2/3 308/2/3
f 309/2/3 310/2/3 311/2/3
f 311/2/3 310/2/3 312/2/3
f 312/2/3 310/2/3 313/2/3
f 313/6/3 314/6/3 315/6/3
f 312/6/3 313/6/3 315/6/3
f 315/6/3 314/6/3 316/6/3
f 316/6/3 314/6/3 317/6/3
f 318/2/3 319/2/3 321/2/3
f 319/2/3 320/2/3 321/2/3
f 321/2/3 320/2/3 322/2/3
f 322/2/3 320/2/3 323/2/3
f 324/5/3 325/5/3 326/5/3
f 326/5/3 325/5/3 327/5/3
f 327/5/3 325/5/3 328/5/3
f 328/3/3 329/3/3 330/3/3
f 327/3/3 328/3/3 330/3/3
f 330/3/3 329/3/3 331/3/3
f 331/3/3 329/3/3 332/3/3
f 333/3/3 334/3/3 335/3/3
f 335/3/3 334/3/3 336/3/3
f 337/5/3 338/5/3 339/5/3
f 339/5/3 338/5/3 340/5/3
f 341/6/3 342/6/3 343/6/3
f 343/6/3 342/6/3 344/6/3
f 345/2/3 346/2/3 347/2/3
f 347/2/3 346/2/3 348/2/3
f 348/2/3 346/2/3 349/2/3
f 350/4/3 351/4/3 354/4/3
f 351/4/3 352/4/3 354/4/3
f 354/4/3 352/4/3 355/4/3
f 355/4/3 352/4/3 356/4/3
f 353/3/3 354/3/3 357/3/3
f 354/3/3 355/3/3 357/3/3
f 357/3/3 355/3/3 358/3/3
f 359/3/3 360/3/3 361/3/3
f 361/3/3 360/3/3 362/3/3
f 362/3/3 360/3/3 363/3/3
f 364/1/3 365/1/3 366/1/3
f 366/1/3 365/1/3 367/1/3
f 368/3/3 369/3/3 370/3/3
f 370/3/3 369/3/3 371/3/3
f 372/4/3 373/4/3 375/4/3
f 373/4/3 374/4/3 375/4/3
f 375/4/3 374/4/3 376/4/3
f 376/4/3 374/4/3 377/4/3
f 378/4/3 379/4/3 380/4/3
f 380/4/3 379/4/3 381/4/3
f 382/6/3 383/6/3 384/6/3
f 384/6/3 383/6/3 385/6/3
f 385/6/3 383/6/3 386/6/3
f 386/3/3 387/3/3 389/3/3
f 385/3/3 386/3/3 389/3/3
f 389/3/3 387/3/3 390/3/3
f 388/4/3 389/4/3 391/4/3
f 391/4/3 389/4/3 392/4/3
f 393/4/3 394/4/3 396/4/3
f 394/4/3 395/4/3 396/4/3
f 396/4/3 395/4/3 397/4/3
f 397/4/3 395/4/3 398/4/3
f 399/5/3 400/5/3 402/5/3
f 400/5/3 401/5/3 402/5/3
f 402/5/3 401/5/3 403/5/3
f 404/6/3 405/6/3 407/6/3
f 407/6/3 405/6/3 408/6/3
f 406/2/3 407/2/3 409/2/3
f 409/2/3 407/2/3 410/2/3
f 413/3/4 412/3/4 411/3/4
f 414/3/4 412/3/4 413/3/4
f 417/6/4 416/6/4 415/6/4
f 418/6/4 416/6/4 417/6/4
f 423/6/4 420/6/4 419/6/4
f 424/6/4 420/6/4 423/6/4
f 425/2/4 422/2/4 421/2/4
f 426/2/4 422/2/4 425/2/4
f 429/2/4 428/2/4 427/2/4
f 430/2/4 428/2/4 429/2/4
f 435/6/4 432/6/4 431/6/4
f 436/6/4 432/6/4 435/6/4
f 437/5/4 434/5/4 433/5/4
f 438/5/4 434/5/4 437/5/4
f 443/2/4 440/2/4 439/2/4
f 444/2/4 440/2/4 443/2/4
f 445/1/4 442/1/4 441/1/4
f 446/1/4 442/1/4 445/1/4
f 451/3/4 448/3/4 447/3/4
f 451/3/4 449/3/4 448/3/4
f 452/3/4 449/3/4 451/3/4
f 453/1/4 451/1/4 450/1/4
f 454/1/4 451/1/4 453/1/4
f 459/3/4 456/3/4 455/3/4
f 460/3/4 456/3/4 459/3/4
f 461/5/4 458/5/4 457/5/4
f 462/5/4 458/5/4 461/5/4
f 465/3/4 464/3/4 463/3/4
f 466/3/4 464/3/4 465/3/4
f 469/5/4 468/5/4 467/5/4
f 470/5/4 468/5/4 469/5/4
f 474/6/4 472/6/4 471/6/4
f 474/6/4 473/6/4 472/6/4
f 475/6/4 473/6/4 474/6/4
f 476/6/4 473/6/4 475/6/4
f 478/1/4 477/1/4 476/1/4
f 478/1/4 476/1/4 475/1/4
f 479/1/4 477/1/4 478/1/4
f 482/2/4 481/2/4 480/2/4
f 483/2/4 481/2/4 482/2/4
f 484/2/4 481/2/4 483/2/4
f 488/4/4 486/4/4 485/4/4
f 489/4/4 486/4/4 488/4/4
f 490/3/4 488/3/4 487/3/4
f 491/3/4 488/3/4 490/3/4
f 494/5/4 493/5/4 492/5/4
f 495/5/4 493/5/4 494/5/4
f 498/3/4 497/3/4 496/3/4
f 499/3/4 497/3/4 498/3/4
f 502/1/4 501/1/4 500/1/4
f 503/1/4 501/1/4 502/1/4
f 507/4/4 505/4/4 504/4/4
f 507/4/4 506/4/4 505/4/4
f 508/4/4 506/4/4 507/4/4
f 512/2/4 510/2/4 509/2/4
f 513/2/4 510/2/4 512/2/4
f 515/4/4 512/4/4 511/4/4
f 516/4/4 512/4/4 515/4/4
f 517/6/4 515/6/4 514/6/4
f 518/6/4 515/6/4 517/6/4
f 522/6/4 520/6/4 519/6/4
f 523/6/4 520/6/4 522/6/4
f 526/3/4 522/3/4 521/3/4
f 526/3/4 524/3/4 523/3/4
f 526/3/4 523/3/4 522/3/4
f 527/3/4 524/3/4 526/3/4
f 528/3/4 524/3/4 527/3/4
f 529/4/4 526/4/4 525/4/4
f 529/4/4 527/4/4 526/4/4
f 530/4/4 527/4/4 529/4/4
f 535/4/4 532/4/4 531/4/4
f 535/4/4 533/4/4 532/4/4
f 536/4/4 533/4/4 535/4/4
f 537/4/4 533/4/4 536/4/4
f 538/5/4 535/5/4 534/5/4
f 538/5/4 536/5/4 535/5/4
f 539/5/4 536/5/4 538/5/4
f 542/1/4 541/1/4 540/1/4
f 543/1/4 541/1/4 542/1/4
f 544/1/4 541/1/4 543/1/4
f 545/2/4 543/2/4 542/2/4
f 546/2/4 543/2/4 545/2/4
f 547/2/4 543/2/4 546/2/4
f 548/6/4 546/6/4 545/6/4
f 549/6/4 546/6/4 548/6/4
f 551/5/4 549/5/4 548/5/4
f 551/5/4 550/5/4 549/5/4
f 552/5/4 550/5/4 551/5/4
f 553/5/4 550/5/4 552/5/4
f 554/1/4 552/1/4 551/1/4
f 555/1/4 552/1/4 554/1/4
f 556/1/4 552/1/4 555/1/4
f 557/3/4 555/3/4 554/3/4
f 558/3/4 555/3/4 557/3/4
f 560/6/4 558/6/4 557/6/4
f 560/6/4 559/6/4 558/6/4
f 561/6/4 559/6/4 560/6/4
f 562/6/4 559/6/4 561/6/4
f 563/2/4 561/2/4 560/2/4
f 564/2/4 561/2/4 563/2/4
f 565/4/5 566/4/5 574/4/5
f 566/2/5 567/2/5 575/2/5
f 574/4/5 566/4/5 575/4/5
f 567/3/5 568/3/5 576/3/5
f 575/2/5 567/2/5 576/2/5
f 568/5/5 569/5/5 577/5/5
f 576/3/5 568/3/5 577/3/5
f 569/6/5 570/6/5 578/6/5
f 577/5/5 569/5/5 578/5/5
f 570/2/5 571/2/5 579/2/5
f 578/6/5 570/6/5 579/6/5
f 571/6/5 572/6/5 580/6/5
f 579/2/5 571/2/5 580/2/5
f 572/2/5 573/2/5 581/2/5
f 580/6/5 572/6/5 581/6/5
f 581/2/5 573/2/5 582/2/5
f 574/2/5 575/2/5 583/2/5
f 575/6/5 576/6/5 584/6/5
f 583/2/5 575/2/5 584/2/5
f 576/3/5 577/3/5 585/3/5
f 584/6/5 576/6/5 585/6/5
f 577/2/5 578/2/5 586/2/5
f 585/3/5 577/3/5 586/3/5
f 578/4/5 579/4/5 587/4/5
f 586/2/5 578/2/5 587/2/5
f 579/2/5 580/2/5 588/2/5
f 587/4/5 579/4/5 588/4/5
f 580/1/5 581/1/5 589/1/5
f 588/2/5 580/2/5 589/2/5
f 581/4/5 582/4/5 590/4/5
f 589/1/5 581/1/5 590/1/5
f 590/4/5 582/4/5 591/4/5
f 583/1/5 584/1/5 592/1/5
f 584/3/5 585/3/5 593/3/5
f 592/1/5 584/1/5 593/1/5
f 585/1/5 586/1/5 594/1/5
f 593/3/5 585/3/5 594/3/5
f 586/5/5 587/5/5 595/5/5
f 594/1/5 586/1/5 595/1/5
f 587/3/5 588/3/5 596/3/5
f 595/5/5 587/5/5 596/5/5
f 588/5/5 589/5/5 597/5/5
f 596/3/5 588/3/5 597/3/5
f 589/6/5 590/6/5 598/6/5
f 597/5/5 589/5/5 598/5/5
f 590/3/5 591/3/5 599/3/5
f 598/6/5 590/6/5 599/6/5
f 599/3/5 591/3/5 600/3/5
f 592/5/5 593/5/5 601/5/5
f 593/2/5 594/2/5 602/2/5
f 601/5/5 593/5/5 602/5/5
f 594/5/5 595/5/5 603/5/5
f 602/2/5 594/2/5 603/2/5
f 595/6/5 596/6/5 604/6/5
f 603/5/5 595/5/5 604/5/5
f 596/1/5 597/1/5 605/1/5
f 604/6/5 596/6/5 605/6/5
f 597/4/5 598/4/5 606/4/5
f 605/1/5 597/1/5 606/1/5
f 598/2/5 599/2/5 607/2/5
f 606/4/5 598/4/5 607/4/5
f 599/4/5 600/4/5 608/4/5
f 607/2/5 599/2/5 608/2/5
f 608/4/5 600/4/5 609/4/5
f 601/1/5 602/1/5 610/1/5
f 602/4/5 603/4/5 611/4/5
f 610/1/5 602/1/5 611/1/5
f 603/3/5 604/3/5 612/3/5
f 611/4/5 603/4/5 612/4/5
f 604/1/5 605/1/5 613/1/5
f 612/3/5 604/3/5 613/3/5
f 605/5/5 606/5/5 614/5/5
f 613/1/5 605/1/5 614/1/5
f 606/2/5 607/2/5 615/2/5
f 614/5/5 606/5/5 615/5/5
f 607/3/5 608/3/5 616/3/5
f 615/2/5 607/2/5 616/2/5
f 608/1/5 609/1/5 617/1/5
f 616/3/5 608/3/5 617/3/5
f 617/1/5 609/1/5 618/1/5
f 610/3/5 611/3/5 619/3/5
f 611/1/5 612/1/5 620/1/5
f 619/3/5 611/3/5 620/3/5
f 612/2/5 613/2/5 621/2/5
f 620/1/5 612/1/5 621/1/5
f 613/4/5 614/4/5 622/4/5
f 621/2/5 613/2/5 622/2/5
f 614/6/5 615/6/5 623/6/5
f 622/4/5 614/4/5 623/4/5
f 615/2/5 616/2/5 624/2/5
f 623/6/5 615/6/5 624/6/5
f 616/4/5 617/4/5 625/4/5
f 624/2/5 616/2/5 625/2/5
f 617/6/5 618/6/5 626/6/5
f 625/4/5 617/4/5 626/4/5
f 626/6/5 618/6/5 627/6/5
f 619/6/5 620/6/5 628/6/5
f 620/3/5 621/3/5 629/3/5
f 628/6/5 620/6/5 629/6/5
f 621/4/5 622/4/5 630/4/5
f 629/3/5 621/3/5 630/3/5
f 622/2/5 623/2/5 631/2/5
f 630/4/5 622/4/5 631/4/5
f 623/5/5 624/5/5 632/5/5
f 631/2/5 623/2/5 632/2/5
f 624/5/5 625/5/5 632/5/5
f 625/5/5 626/5/5 632/5/5
f 632/5/5 626/5/5 633/5/5
f 633/5/5 626/5/5 634/5/5
f 626/1/5 627/1/5 635/1/5
f 634/5/5 626/5/5 635/5/5
f 635/1/5 627/1/5 636/1/5
f 628/1/5 629/1/5 637/1/5
f 629/2/5 630/2/5 638/2/5
f 637/1/5 629/1/5 638/1/5
f 630/6/5 631/6/5 639/6/5
f 638/2/5 630/2/5 639/2/5
f 631/5/5 632/5/5 640/5/5
f 639/6/5 631/6/5 640/6/5
f 632/1/5 633/1/5 641/1/5
f 640/5/5 632/5/5 641/5/5
f 633/3/5 634/3/5 642/3/5
f 641/1/5 633/1/5 642/1/5
f 634/6/5 635/6/5 643/6/5
f 642/3/5 634/3/5 643/3/5
f 635/2/5 636/2/5 644/2/5
f 643/6/5 635/6/5 644/6/5
f 644/2/5 636/2/5 645/2/5
f 650/4/6 647/4/6 646/4/6
f 651/4/6 647/4/6 650/4/6
f 652/5/6 649/5/6 648/5/6
f 653/5/6 649/5/6 652/5/6
f 656/2/6 653/2/6 652/2/6
f 657/2/6 653/2/6 656/2/6
f 658/4/6 655/4/6 654/4/6
f 659/4/6 655/4/6 658/4/6
f 664/5/6 661/5/6 660/5/6
f 665/5/6 661/5/6 664/5/6
f 666/1/6 663/1/6 662/1/6
f 667/1/6 663/1/6 666/1/6
f 673/2/6 669/2/6 668/2/6
f 674/2/6 669/2/6 673/2/6
f 677/1/6 671/1/6 670/1/6
f 678/1/6 671/1/6 677/1/6
f 679/6/6 673/6/6 672/6/6
f 680/6/6 673/6/6 679/6/6
f 681/3/6 676/3/6 675/3/6
f 682/3/6 676/3/6 681/3/6
f 689/2/6 684/2/6 683/2/6
f 690/2/6 684/2/6 689/2/6
f 692/2/6 686/2/6 685/2/6
f 693/2/6 686/2/6 692/2/6
f 694/2/6 688/2/6 687/2/6
f 695/2/6 688/2/6 694/2/6
f 700/4/6 692/4/6 691/4/6
f 701/4/6 692/4/6 700/4/6
f 704/1/6 697/1/6 696/1/6
f 705/1/6 697/1/6 704/1/6
f 706/1/6 699/1/6 698/1/6
f 707/1/6 699/1/6 706/1/6
f 708/6/6 703/6/6 702/6/6
f 709/6/6 703/6/6 708/6/6
f 711/2/6 706/2/6 705/2/6
f 712/2/6 706/2/6 711/2/6
f 716/4/6 710/4/6 709/4/6
f 717/4/6 710/4/6 716/4/6
f 721/1/6 714/1/6 713/1/6
f 722/1/6 714/1/6 721/1/6
f 724/3/6 716/3/6 715/3/6
f 725/3/6 716/3/6 724/3/6
f 727/3/6 719/3/6 718/3/6
f 728/3/6 719/3/6 727/3/6
f 729/2/6 721/2/6 720/2/6
f 730/2/6 721/2/6 729/2/6
f 731/6/6 723/6/6 722/6/6
f 732/6/6 723/6/6 731/6/6
f 734/6/6 726/6/6 725/6/6
f 735/6/6 726/6/6 734/6/6
f 740/5/6 734/5/6 733/5/6
f 741/5/6 734/5/6 740/5/6
f 743/2/6 737/2/6 736/2/6
f 744/2/6 737/2/6 743/2/6
f 745/1/6 739/1/6 738/1/6
f 746/1/6 739/1/6 745/1/6
f 747/2/6 742/2/6 741/2/6
f 748/2/6 742/2/6 747/2/6
f 755/6/6 750/6/6 749/6/6
f 756/6/6 750/6/6 755/6/6
f 759/2/6 752/2/6 751/2/6
f 760/2/6 752/2/6 759/2/6
f 761/5/6 754/5/6 753/5/6
f 762/5/6 754/5/6 761/5/6
f 764/1/6 758/1/6 757/1/6
f 765/1/6 758/1/6 764/1/6
f 769/5/6 763/5/6 762/5/6
f 770/5/6 763/5/6 769/5/6
f 773/3/6 766/3/6 765/3/6
f 774/3/6 766/3/6 773/3/6
f 775/5/6 768/5/6 767/5/6
f 776/5/6 768/5/6 775/5/6
f 780/4/6 772/4/6 771/4/6
f 781/4/6 772/4/6 780/4/6
f 785/3/6 778/3/6 777/3/6
f 786/3/6 778/3/6 785/3/6
f 787/5/6 780/5/6 779/5/6
f 788/5/6 780/5/6 787/5/6
f 790/1/6 783/1/6 782/1/6
f 791/1/6 783/1/6 790/1/6
f 792/1/6 785/1/6 784/1/6
f 793/1/6 785/1/6 792/1/6
f 796/4/6 790/4/6 789/4/6
f 797/4/6 790/4/6 796/4/6
f 800/4/6 794/4/6 793/4/6
f 801/4/6 794/4/6 800/4/6
f 802/5/6 796/5/6 795/5/6
f 803/5/6 796/5/6 802/5/6
f 805/1/6 799/1/6 798/1/6
f 806/1/6 799/1/6 805/1/6
f 807/6/6 804/6/6 803/6/6
f 808/6/6 804/6/6 807/6/6
f 813/3/6 810/3/6 809/3/6
f 814/3/6 810/3/6 813/3/6
f 815/6/6 812/6/6 811/6/6
f 816/6/6 812/6/6 815/6/6
f 821/3/6 818/3/6 817/3/6
f 822/3/6 818/3/6 821/3/6
f 825/5/6 820/5/6 819/5/6
f 826/5/6 820/5/6 825/5/6
f 830/6/6 824/6/6 823/6/6
f 831/6/6 824/6/6 830/6/6
f 832/2/6 827/2/6 826/2/6
f 833/2/6 827/2/6 832/2/6
f 834/4/6 829/4/6 828/4/6
f 835/4/6 829/4/6 834/4/6
f 842/4/6 837/4/6 836/4/6
f 843/4/6 837/4/6 842/4/6
f 844/2/6 839/2/6 838/2/6
f 845/2/6 839/2/6 844/2/6
f 846/6/6 841/6/6 840/6/6
f 847/6/6 841/6/6 846/6/6
f 850/5/6 849/5/6 848/5/6
f 851/5/6 849/5/6 850/5/6
f 856/6/6 853/6/6 852/6/6
f 857/6/6 853/6/6 856/6/6
f 858/2/6 855/2/6 854/2/6
f 859/2/6 855/2/6 858/2/6
f 862/1/6 861/1/6 860/1/6
f 863/1/6 861/1/6 862/1/6
f 865/3/6 864/3/6 863/3/6
f 866/3/6 864/3/6 865/3/6
f 871/3/6 868/3/6 867/3/6
f 872/3/6 868/3/6 871/3/6
f 873/4/6 870/4/6 869/4/6
f 874/4/6 870/4/6 873/4/6
f 877/3/6 876/3/6 875/3/6
f 878/3/6 876/3/6 877/3/6
