# MagicaVoxel @ Ephtracy

# group
o 

# material
mtllib granjafinal_chancho1.mtl
usemtl palette

# normals
vn 1 0 0
vn -1 0 0
vn 0 0 1
vn 0 0 -1
vn 0 -1 0
vn 0 1 0

# texcoords
vt 0.416016 0.5
vt 0.423828 0.5
vt 0.724609 0.5

# verts
v 1.7 5.1 3.3
v 1.7 5.1 3.2
v 1.7 5.2 3.3
v 1.7 5.2 3.2
v 1.6 4.8 3.3
v 1.6 4.8 3.2
v 1.6 4.8 2.9
v 1.6 4.8 2.8
v 1.6 4.9 3.3
v 1.6 4.9 3.2
v 1.6 4.9 3
v 1.6 4.9 2.9
v 1.6 4.9 2.8
v 1.6 5 3.4
v 1.6 5 3.3
v 1.6 5 3
v 1.6 5 2.9
v 1.6 5.1 3.3
v 1.6 5.1 3.2
v 1.6 5.1 2.8
v 1.6 5.1 2.7
v 1.6 5.2 3.4
v 1.6 5.2 3.3
v 1.6 5.2 3.2
v 1.6 5.2 2.9
v 1.6 5.2 2.8
v 1.6 5.2 2.7
v 1.5 5 3.5
v 1.5 5 3.4
v 1.5 5 2.8
v 1.5 5 2.7
v 1.5 5.1 3.5
v 1.5 5.1 3.4
v 1.5 5.1 2.8
v 1.5 5.1 2.7
v 1.4 4.8 3.3
v 1.4 4.8 3.2
v 1.4 4.8 2.9
v 1.4 4.8 2.8
v 1.4 4.9 3.3
v 1.4 4.9 3.2
v 1.4 4.9 2.9
v 1.4 4.9 2.8
v 1.5 4.8 3.3
v 1.5 4.8 3.2
v 1.5 4.8 2.9
v 1.5 4.8 2.8
v 1.5 4.9 3.3
v 1.5 4.9 3.2
v 1.5 4.9 2.9
v 1.5 4.9 2.8
v 1.5 5.1 2.8
v 1.5 5.1 2.7
v 1.5 5.2 2.8
v 1.5 5.2 2.7
v 1.4 5 3.5
v 1.4 5 3.4
v 1.4 5 2.8
v 1.4 5 2.7
v 1.4 5.1 3.5
v 1.4 5.1 3.4
v 1.4 5.1 2.8
v 1.4 5.1 2.7
v 1.3 4.8 3.3
v 1.3 4.8 3.2
v 1.3 4.8 2.9
v 1.3 4.8 2.8
v 1.3 4.9 3.3
v 1.3 4.9 3.2
v 1.3 4.9 2.9
v 1.3 4.9 2.8
v 1.3 5 3.4
v 1.3 5 3.3
v 1.3 5 3
v 1.3 5.1 3.3
v 1.3 5.1 3.2
v 1.3 5.2 3.4
v 1.3 5.2 3.3
v 1.3 5.2 3.2
v 1.3 5.2 3
v 1.3 5.2 2.8
v 1.2 5.1 3.3
v 1.2 5.1 3.2
v 1.2 5.2 3.3
v 1.2 5.2 3.2
v 1.5 5 3.5
v 1.5 5.1 3.5
v 1.4 5 3.5
v 1.4 5.1 3.5
v 1.6 5 3.4
v 1.6 5.2 3.4
v 1.5 5 3.4
v 1.5 5.1 3.4
v 1.4 5 3.4
v 1.4 5.1 3.4
v 1.4 5.2 3.4
v 1.3 5 3.4
v 1.3 5.2 3.4
v 1.7 5.1 3.3
v 1.7 5.2 3.3
v 1.6 4.8 3.3
v 1.6 4.9 3.3
v 1.6 5 3.3
v 1.6 5.1 3.3
v 1.6 5.2 3.3
v 1.5 4.8 3.3
v 1.5 4.9 3.3
v 1.4 4.8 3.3
v 1.4 4.9 3.3
v 1.4 5 3.3
v 1.3 4.8 3.3
v 1.3 4.9 3.3
v 1.3 5 3.3
v 1.3 5.1 3.3
v 1.3 5.2 3.3
v 1.2 5.1 3.3
v 1.2 5.2 3.3
v 1.6 4.8 2.9
v 1.6 4.9 2.9
v 1.5 4.8 2.9
v 1.5 4.9 2.9
v 1.4 4.8 2.9
v 1.4 4.9 2.9
v 1.3 4.8 2.9
v 1.3 4.9 2.9
v 1.7 5.1 3.2
v 1.7 5.2 3.2
v 1.6 4.8 3.2
v 1.6 4.9 3.2
v 1.6 5.1 3.2
v 1.6 5.2 3.2
v 1.5 4.8 3.2
v 1.5 4.9 3.2
v 1.4 4.8 3.2
v 1.4 4.9 3.2
v 1.3 4.8 3.2
v 1.3 4.9 3.2
v 1.3 5.1 3.2
v 1.3 5.2 3.2
v 1.2 5.1 3.2
v 1.2 5.2 3.2
v 1.6 4.8 2.8
v 1.6 4.9 2.8
v 1.6 5.1 2.8
v 1.5 4.8 2.8
v 1.5 4.9 2.8
v 1.5 5 2.8
v 1.5 5.1 2.8
v 1.5 5.2 2.8
v 1.4 4.8 2.8
v 1.4 4.9 2.8
v 1.4 5 2.8
v 1.4 5.1 2.8
v 1.3 4.8 2.8
v 1.3 4.9 2.8
v 1.3 5.2 2.8
v 1.6 5.1 2.7
v 1.6 5.2 2.7
v 1.5 5 2.7
v 1.5 5.1 2.7
v 1.5 5.2 2.7
v 1.4 5 2.7
v 1.4 5.1 2.7
v 1.6 4.8 3.3
v 1.5 4.8 3.3
v 1.4 4.8 3.3
v 1.3 4.8 3.3
v 1.6 4.8 3.2
v 1.5 4.8 3.2
v 1.4 4.8 3.2
v 1.3 4.8 3.2
v 1.6 4.8 2.9
v 1.5 4.8 2.9
v 1.4 4.8 2.9
v 1.3 4.8 2.9
v 1.6 4.8 2.8
v 1.5 4.8 2.8
v 1.4 4.8 2.8
v 1.3 4.8 2.8
v 1.5 4.9 3.3
v 1.4 4.9 3.3
v 1.6 4.9 3.2
v 1.5 4.9 3.2
v 1.4 4.9 3.2
v 1.3 4.9 3.2
v 1.6 4.9 3
v 1.4 4.9 3
v 1.6 4.9 2.9
v 1.5 4.9 2.9
v 1.4 4.9 2.9
v 1.3 4.9 2.9
v 1.5 4.9 2.8
v 1.4 4.9 2.8
v 1.5 5 3.5
v 1.4 5 3.5
v 1.6 5 3.4
v 1.5 5 3.4
v 1.4 5 3.4
v 1.3 5 3.4
v 1.6 5 3.3
v 1.4 5 3.3
v 1.3 5 3.3
v 1.5 5 2.8
v 1.4 5 2.8
v 1.5 5 2.7
v 1.4 5 2.7
v 1.7 5.1 3.3
v 1.6 5.1 3.3
v 1.3 5.1 3.3
v 1.2 5.1 3.3
v 1.7 5.1 3.2
v 1.6 5.1 3.2
v 1.3 5.1 3.2
v 1.2 5.1 3.2
v 1.6 5.1 2.8
v 1.5 5.1 2.8
v 1.6 5.1 2.7
v 1.5 5.1 2.7
v 1.5 5.1 3.5
v 1.4 5.1 3.5
v 1.5 5.1 3.4
v 1.4 5.1 3.4
v 1.5 5.1 2.8
v 1.4 5.1 2.8
v 1.5 5.1 2.7
v 1.4 5.1 2.7
v 1.6 5.2 3.4
v 1.4 5.2 3.4
v 1.3 5.2 3.4
v 1.7 5.2 3.3
v 1.6 5.2 3.3
v 1.4 5.2 3.3
v 1.3 5.2 3.3
v 1.2 5.2 3.3
v 1.7 5.2 3.2
v 1.6 5.2 3.2
v 1.3 5.2 3.2
v 1.2 5.2 3.2
v 1.4 5.2 3
v 1.3 5.2 3
v 1.6 5.2 2.9
v 1.4 5.2 2.9
v 1.6 5.2 2.8
v 1.5 5.2 2.8
v 1.3 5.2 2.8
v 1.6 5.2 2.7
v 1.5 5.2 2.7

# faces
f 1/3/1 2/3/1 3/3/1
f 3/3/1 2/3/1 4/3/1
f 5/1/1 6/1/1 9/1/1
f 9/1/1 6/1/1 10/1/1
f 7/1/1 8/1/1 12/1/1
f 12/1/1 8/1/1 13/1/1
f 10/3/1 11/3/1 15/3/1
f 9/3/1 10/3/1 15/3/1
f 12/2/1 13/2/1 16/2/1
f 11/2/1 12/2/1 16/2/1
f 15/3/1 11/3/1 16/3/1
f 16/2/1 13/2/1 17/2/1
f 14/3/1 15/3/1 18/3/1
f 15/3/1 16/3/1 18/3/1
f 16/3/1 17/3/1 18/3/1
f 18/3/1 17/3/1 19/3/1
f 17/2/1 13/2/1 20/2/1
f 14/3/1 18/3/1 22/3/1
f 22/3/1 18/3/1 23/3/1
f 19/3/1 17/3/1 24/3/1
f 17/2/1 20/2/1 25/2/1
f 24/3/1 17/3/1 25/3/1
f 20/1/1 21/1/1 26/1/1
f 25/2/1 20/2/1 26/2/1
f 26/1/1 21/1/1 27/1/1
f 28/1/1 29/1/1 32/1/1
f 32/1/1 29/1/1 33/1/1
f 30/1/1 31/1/1 34/1/1
f 34/1/1 31/1/1 35/1/1
f 36/1/1 37/1/1 40/1/1
f 40/1/1 37/1/1 41/1/1
f 38/1/1 39/1/1 42/1/1
f 42/1/1 39/1/1 43/1/1
f 48/1/2 45/1/2 44/1/2
f 49/1/2 45/1/2 48/1/2
f 50/1/2 47/1/2 46/1/2
f 51/1/2 47/1/2 50/1/2
f 54/1/2 53/1/2 52/1/2
f 55/1/2 53/1/2 54/1/2
f 60/1/2 57/1/2 56/1/2
f 61/1/2 57/1/2 60/1/2
f 62/1/2 59/1/2 58/1/2
f 63/1/2 59/1/2 62/1/2
f 68/1/2 65/1/2 64/1/2
f 69/1/2 65/1/2 68/1/2
f 70/1/2 67/1/2 66/1/2
f 71/1/2 67/1/2 70/1/2
f 73/2/2 69/2/2 68/2/2
f 73/2/2 70/2/2 69/2/2
f 73/2/2 71/2/2 70/2/2
f 74/2/2 71/2/2 73/2/2
f 75/2/2 73/2/2 72/2/2
f 75/3/2 74/3/2 73/3/2
f 76/3/2 74/3/2 75/3/2
f 77/2/2 75/2/2 72/2/2
f 78/2/2 75/2/2 77/2/2
f 79/3/2 74/3/2 76/3/2
f 80/2/2 71/2/2 74/2/2
f 80/3/2 74/3/2 79/3/2
f 81/2/2 71/2/2 80/2/2
f 84/1/2 83/1/2 82/1/2
f 85/1/2 83/1/2 84/1/2
f 86/1/3 87/1/3 88/1/3
f 88/1/3 87/1/3 89/1/3
f 90/3/3 91/3/3 92/3/3
f 92/3/3 91/3/3 93/3/3
f 93/3/3 91/3/3 95/3/3
f 95/3/3 91/3/3 96/3/3
f 94/2/3 95/2/3 97/2/3
f 95/2/3 96/2/3 97/2/3
f 97/2/3 96/2/3 98/2/3
f 99/3/3 100/3/3 104/3/3
f 104/3/3 100/3/3 105/3/3
f 101/1/3 102/1/3 106/1/3
f 102/3/3 103/3/3 107/3/3
f 106/1/3 102/1/3 107/1/3
f 107/3/3 103/3/3 109/3/3
f 109/3/3 103/3/3 110/3/3
f 108/1/3 109/1/3 111/1/3
f 109/2/3 110/2/3 112/2/3
f 111/1/3 109/1/3 112/1/3
f 112/2/3 110/2/3 113/2/3
f 114/1/3 115/1/3 116/1/3
f 116/1/3 115/1/3 117/1/3
f 118/1/3 119/1/3 120/1/3
f 120/1/3 119/1/3 121/1/3
f 122/1/3 123/1/3 124/1/3
f 124/1/3 123/1/3 125/1/3
f 130/3/4 127/3/4 126/3/4
f 131/3/4 127/3/4 130/3/4
f 132/1/4 129/1/4 128/1/4
f 133/1/4 129/1/4 132/1/4
f 136/1/4 135/1/4 134/1/4
f 137/1/4 135/1/4 136/1/4
f 140/1/4 139/1/4 138/1/4
f 141/1/4 139/1/4 140/1/4
f 145/1/4 143/1/4 142/1/4
f 146/2/4 144/2/4 143/2/4
f 146/1/4 143/1/4 145/1/4
f 147/2/4 144/2/4 146/2/4
f 148/2/4 144/2/4 147/2/4
f 151/2/4 147/2/4 146/2/4
f 152/2/4 147/2/4 151/2/4
f 153/2/4 149/2/4 148/2/4
f 154/1/4 151/1/4 150/1/4
f 155/2/4 152/2/4 151/2/4
f 155/1/4 151/1/4 154/1/4
f 155/2/4 153/2/4 152/2/4
f 156/2/4 149/2/4 153/2/4
f 156/2/4 153/2/4 155/2/4
f 160/1/4 158/1/4 157/1/4
f 161/1/4 158/1/4 160/1/4
f 162/1/4 160/1/4 159/1/4
f 163/1/4 160/1/4 162/1/4
f 164/1/5 165/1/5 168/1/5
f 168/1/5 165/1/5 169/1/5
f 166/1/5 167/1/5 170/1/5
f 170/1/5 167/1/5 171/1/5
f 172/1/5 173/1/5 176/1/5
f 176/1/5 173/1/5 177/1/5
f 174/1/5 175/1/5 178/1/5
f 178/1/5 175/1/5 179/1/5
f 180/3/5 181/3/5 183/3/5
f 183/3/5 181/3/5 184/3/5
f 182/3/5 183/3/5 186/3/5
f 183/3/5 184/3/5 186/3/5
f 184/2/5 185/2/5 187/2/5
f 186/3/5 184/3/5 187/3/5
f 186/2/5 187/2/5 188/2/5
f 188/2/5 187/2/5 189/2/5
f 187/2/5 185/2/5 190/2/5
f 189/2/5 187/2/5 190/2/5
f 190/2/5 185/2/5 191/2/5
f 189/2/5 190/2/5 192/2/5
f 192/2/5 190/2/5 193/2/5
f 194/1/5 195/1/5 197/1/5
f 197/1/5 195/1/5 198/1/5
f 196/3/5 197/3/5 200/3/5
f 197/3/5 198/3/5 200/3/5
f 198/2/5 199/2/5 201/2/5
f 200/3/5 198/3/5 201/3/5
f 201/2/5 199/2/5 202/2/5
f 203/1/5 204/1/5 205/1/5
f 205/1/5 204/1/5 206/1/5
f 207/3/5 208/3/5 211/3/5
f 211/3/5 208/3/5 212/3/5
f 209/1/5 210/1/5 213/1/5
f 213/1/5 210/1/5 214/1/5
f 215/1/5 216/1/5 217/1/5
f 217/1/5 216/1/5 218/1/5
f 221/1/6 220/1/6 219/1/6
f 222/1/6 220/1/6 221/1/6
f 225/1/6 224/1/6 223/1/6
f 226/1/6 224/1/6 225/1/6
f 231/3/6 228/3/6 227/3/6
f 232/2/6 229/2/6 228/2/6
f 232/3/6 228/3/6 231/3/6
f 233/2/6 229/2/6 232/2/6
f 235/3/6 231/3/6 230/3/6
f 235/3/6 232/3/6 231/3/6
f 235/3/6 233/3/6 232/3/6
f 236/3/6 233/3/6 235/3/6
f 237/1/6 234/1/6 233/1/6
f 237/3/6 233/3/6 236/3/6
f 238/1/6 234/1/6 237/1/6
f 239/3/6 237/3/6 236/3/6
f 240/3/6 237/3/6 239/3/6
f 241/3/6 239/3/6 236/3/6
f 242/2/6 240/2/6 239/2/6
f 242/3/6 239/3/6 241/3/6
f 243/2/6 242/2/6 241/2/6
f 244/2/6 242/2/6 243/2/6
f 245/2/6 240/2/6 242/2/6
f 245/2/6 242/2/6 244/2/6
f 246/1/6 244/1/6 243/1/6
f 247/1/6 244/1/6 246/1/6
