# MagicaVoxel @ Ephtracy

# group
o 

# material
mtllib granjafinal_valla2.mtl
usemtl palette

# normals
vn -1 0 0
vn 1 0 0
vn 0 0 1
vn 0 0 -1
vn 0 -1 0
vn 0 1 0

# texcoords
vt 0.880859 0.5
vt 0.927734 0.5

# verts
v 0.6 4.8 4.6
v 0.6 4.8 4.5
v 0.6 4.8 4.3
v 0.6 4.8 4.2
v 0.6 4.8 4
v 0.6 4.8 3.9
v 0.6 4.8 3.7
v 0.6 4.8 3.6
v 0.6 4.8 3.4
v 0.6 4.8 3.3
v 0.6 4.8 3.1
v 0.6 4.8 3
v 0.6 4.8 2.8
v 0.6 4.8 2.7
v 0.6 4.8 2.5
v 0.6 4.8 2.4
v 0.6 4.8 2.2
v 0.6 4.8 2.1
v 0.6 4.9 2.3
v 0.6 4.9 2.2
v 0.6 5 2.3
v 0.6 5 2.2
v 0.6 5.1 2.3
v 0.6 5.1 2.2
v 0.6 5.2 2.3
v 0.6 5.2 2.2
v 0.6 5.3 2.3
v 0.6 5.3 2.2
v 0.6 5.4 2.3
v 0.6 5.4 2.2
v 0.6 5.5 4.6
v 0.6 5.5 4.5
v 0.6 5.5 4.3
v 0.6 5.5 4.2
v 0.6 5.5 4
v 0.6 5.5 3.9
v 0.6 5.5 3.7
v 0.6 5.5 3.6
v 0.6 5.5 3.4
v 0.6 5.5 3.3
v 0.6 5.5 3.1
v 0.6 5.5 3
v 0.6 5.5 2.8
v 0.6 5.5 2.7
v 0.6 5.5 2.5
v 0.6 5.5 2.4
v 0.6 5.5 2.2
v 0.6 5.5 2.1
v 0.7 4.9 4.8
v 0.7 4.9 4.6
v 0.7 4.9 4.5
v 0.7 4.9 4.3
v 0.7 4.9 4.2
v 0.7 4.9 4
v 0.7 4.9 3.9
v 0.7 4.9 3.7
v 0.7 4.9 3.6
v 0.7 4.9 3.4
v 0.7 4.9 3.3
v 0.7 4.9 3.1
v 0.7 4.9 3
v 0.7 4.9 2.8
v 0.7 4.9 2.7
v 0.7 4.9 2.5
v 0.7 4.9 2.4
v 0.7 4.9 2.3
v 0.7 5 4.8
v 0.7 5 4.6
v 0.7 5 4.5
v 0.7 5 4.3
v 0.7 5 4.2
v 0.7 5 4
v 0.7 5 3.9
v 0.7 5 3.7
v 0.7 5 3.6
v 0.7 5 3.4
v 0.7 5 3.3
v 0.7 5 3.1
v 0.7 5 3
v 0.7 5 2.8
v 0.7 5 2.7
v 0.7 5 2.5
v 0.7 5 2.4
v 0.7 5 2.3
v 0.7 5.1 4.8
v 0.7 5.1 4.6
v 0.7 5.1 4.5
v 0.7 5.1 4.3
v 0.7 5.1 4.2
v 0.7 5.1 4
v 0.7 5.1 3.9
v 0.7 5.1 3.7
v 0.7 5.1 3.6
v 0.7 5.1 3.4
v 0.7 5.1 3.3
v 0.7 5.1 3.1
v 0.7 5.1 3
v 0.7 5.1 2.8
v 0.7 5.1 2.7
v 0.7 5.1 2.5
v 0.7 5.1 2.4
v 0.7 5.1 2.3
v 0.7 5.2 4.8
v 0.7 5.2 4.6
v 0.7 5.2 4.5
v 0.7 5.2 4.3
v 0.7 5.2 4.2
v 0.7 5.2 4
v 0.7 5.2 3.9
v 0.7 5.2 3.7
v 0.7 5.2 3.6
v 0.7 5.2 3.4
v 0.7 5.2 3.3
v 0.7 5.2 3.1
v 0.7 5.2 3
v 0.7 5.2 2.8
v 0.7 5.2 2.7
v 0.7 5.2 2.5
v 0.7 5.2 2.4
v 0.7 5.2 2.3
v 0.7 5.3 4.8
v 0.7 5.3 4.6
v 0.7 5.3 4.5
v 0.7 5.3 4.3
v 0.7 5.3 4.2
v 0.7 5.3 4
v 0.7 5.3 3.9
v 0.7 5.3 3.7
v 0.7 5.3 3.6
v 0.7 5.3 3.4
v 0.7 5.3 3.3
v 0.7 5.3 3.1
v 0.7 5.3 3
v 0.7 5.3 2.8
v 0.7 5.3 2.7
v 0.7 5.3 2.5
v 0.7 5.3 2.4
v 0.7 5.3 2.3
v 0.7 5.4 4.8
v 0.7 5.4 4.6
v 0.7 5.4 4.5
v 0.7 5.4 4.3
v 0.7 5.4 4.2
v 0.7 5.4 4
v 0.7 5.4 3.9
v 0.7 5.4 3.7
v 0.7 5.4 3.6
v 0.7 5.4 3.4
v 0.7 5.4 3.3
v 0.7 5.4 3.1
v 0.7 5.4 3
v 0.7 5.4 2.8
v 0.7 5.4 2.7
v 0.7 5.4 2.5
v 0.7 5.4 2.4
v 0.7 5.4 2.3
v 0.9 4.8 2.2
v 0.9 4.8 2.1
v 0.9 4.9 2.2
v 0.9 5 2.2
v 0.9 5.1 2.2
v 0.9 5.2 2.2
v 0.9 5.3 2.2
v 0.9 5.4 2.2
v 0.9 5.5 2.2
v 0.9 5.5 2.1
v 1.2 4.8 2.2
v 1.2 4.8 2.1
v 1.2 4.9 2.2
v 1.2 5 2.2
v 1.2 5.1 2.2
v 1.2 5.2 2.2
v 1.2 5.3 2.2
v 1.2 5.4 2.2
v 1.2 5.5 2.2
v 1.2 5.5 2.1
v 1.5 4.8 2.2
v 1.5 4.8 2.1
v 1.5 4.9 2.2
v 1.5 5 2.2
v 1.5 5.1 2.2
v 1.5 5.2 2.2
v 1.5 5.3 2.2
v 1.5 5.4 2.2
v 1.5 5.5 2.2
v 1.5 5.5 2.1
v 1.8 4.8 2.2
v 1.8 4.8 2.1
v 1.8 4.9 2.2
v 1.8 5 2.2
v 1.8 5.1 2.2
v 1.8 5.2 2.2
v 1.8 5.3 2.2
v 1.8 5.4 2.2
v 1.8 5.5 2.2
v 1.8 5.5 2.1
v 2.1 4.8 2.2
v 2.1 4.8 2.1
v 2.1 4.9 2.2
v 2.1 5 2.2
v 2.1 5.1 2.2
v 2.1 5.2 2.2
v 2.1 5.3 2.2
v 2.1 5.4 2.2
v 2.1 5.5 2.2
v 2.1 5.5 2.1
v 2.4 4.8 2.2
v 2.4 4.8 2.1
v 2.4 4.9 2.2
v 2.4 5 2.2
v 2.4 5.1 2.2
v 2.4 5.2 2.2
v 2.4 5.3 2.2
v 2.4 5.4 2.2
v 2.4 5.5 2.2
v 2.4 5.5 2.1
v 2.7 4.8 2.2
v 2.7 4.8 2.1
v 2.7 4.9 2.2
v 2.7 5 2.2
v 2.7 5.1 2.2
v 2.7 5.2 2.2
v 2.7 5.3 2.2
v 2.7 5.4 2.2
v 2.7 5.5 2.2
v 2.7 5.5 2.1
v 3 4.8 2.2
v 3 4.8 2.1
v 3 4.9 2.2
v 3 5 2.2
v 3 5.1 2.2
v 3 5.2 2.2
v 3 5.3 2.2
v 3 5.4 2.2
v 3 5.5 2.2
v 3 5.5 2.1
v 3.3 4.8 2.2
v 3.3 4.8 2.1
v 3.3 4.9 2.2
v 3.3 5 2.2
v 3.3 5.1 2.2
v 3.3 5.2 2.2
v 3.3 5.3 2.2
v 3.3 5.4 2.2
v 3.3 5.5 2.2
v 3.3 5.5 2.1
v 3.6 4.8 2.2
v 3.6 4.8 2.1
v 3.6 4.9 2.2
v 3.6 5 2.2
v 3.6 5.1 2.2
v 3.6 5.2 2.2
v 3.6 5.3 2.2
v 3.6 5.4 2.2
v 3.6 5.5 2.2
v 3.6 5.5 2.1
v 3.9 4.8 2.2
v 3.9 4.8 2.1
v 3.9 4.9 2.2
v 3.9 5 2.2
v 3.9 5.1 2.2
v 3.9 5.2 2.2
v 3.9 5.3 2.2
v 3.9 5.4 2.2
v 3.9 5.5 2.2
v 3.9 5.5 2.1
v 4.2 4.8 2.2
v 4.2 4.8 2.1
v 4.2 4.9 2.2
v 4.2 5 2.2
v 4.2 5.1 2.2
v 4.2 5.2 2.2
v 4.2 5.3 2.2
v 4.2 5.4 2.2
v 4.2 5.5 2.2
v 4.2 5.5 2.1
v 4.5 4.8 2.2
v 4.5 4.8 2.1
v 4.5 4.9 2.2
v 4.5 5 2.2
v 4.5 5.1 2.2
v 4.5 5.2 2.2
v 4.5 5.3 2.2
v 4.5 5.4 2.2
v 4.5 5.5 2.2
v 4.5 5.5 2.1
v 4.8 4.8 2.2
v 4.8 4.8 2.1
v 4.8 4.9 2.2
v 4.8 5 2.2
v 4.8 5.1 2.2
v 4.8 5.2 2.2
v 4.8 5.3 2.2
v 4.8 5.4 2.2
v 4.8 5.5 2.2
v 4.8 5.5 2.1
v 0.7 4.8 4.6
v 0.7 4.8 4.5
v 0.7 4.8 4.3
v 0.7 4.8 4.2
v 0.7 4.8 4
v 0.7 4.8 3.9
v 0.7 4.8 3.7
v 0.7 4.8 3.6
v 0.7 4.8 3.4
v 0.7 4.8 3.3
v 0.7 4.8 3.1
v 0.7 4.8 3
v 0.7 4.8 2.8
v 0.7 4.8 2.7
v 0.7 4.8 2.5
v 0.7 4.8 2.4
v 0.7 4.8 2.2
v 0.7 4.8 2.1
v 0.7 4.9 4.6
v 0.7 4.9 4.5
v 0.7 4.9 4.3
v 0.7 4.9 4.2
v 0.7 4.9 4
v 0.7 4.9 3.9
v 0.7 4.9 3.7
v 0.7 4.9 3.6
v 0.7 4.9 3.4
v 0.7 4.9 3.3
v 0.7 4.9 3.1
v 0.7 4.9 3
v 0.7 4.9 2.8
v 0.7 4.9 2.7
v 0.7 4.9 2.5
v 0.7 4.9 2.4
v 0.7 4.9 2.2
v 0.7 4.9 2.1
v 0.7 5 4.6
v 0.7 5 4.5
v 0.7 5 4.3
v 0.7 5 4.2
v 0.7 5 4
v 0.7 5 3.9
v 0.7 5 3.7
v 0.7 5 3.6
v 0.7 5 3.4
v 0.7 5 3.3
v 0.7 5 3.1
v 0.7 5 3
v 0.7 5 2.8
v 0.7 5 2.7
v 0.7 5 2.5
v 0.7 5 2.4
v 0.7 5 2.2
v 0.7 5 2.1
v 0.7 5.1 4.6
v 0.7 5.1 4.5
v 0.7 5.1 4.3
v 0.7 5.1 4.2
v 0.7 5.1 4
v 0.7 5.1 3.9
v 0.7 5.1 3.7
v 0.7 5.1 3.6
v 0.7 5.1 3.4
v 0.7 5.1 3.3
v 0.7 5.1 3.1
v 0.7 5.1 3
v 0.7 5.1 2.8
v 0.7 5.1 2.7
v 0.7 5.1 2.5
v 0.7 5.1 2.4
v 0.7 5.1 2.2
v 0.7 5.1 2.1
v 0.7 5.2 4.6
v 0.7 5.2 4.5
v 0.7 5.2 4.3
v 0.7 5.2 4.2
v 0.7 5.2 4
v 0.7 5.2 3.9
v 0.7 5.2 3.7
v 0.7 5.2 3.6
v 0.7 5.2 3.4
v 0.7 5.2 3.3
v 0.7 5.2 3.1
v 0.7 5.2 3
v 0.7 5.2 2.8
v 0.7 5.2 2.7
v 0.7 5.2 2.5
v 0.7 5.2 2.4
v 0.7 5.2 2.2
v 0.7 5.2 2.1
v 0.7 5.3 4.6
v 0.7 5.3 4.5
v 0.7 5.3 4.3
v 0.7 5.3 4.2
v 0.7 5.3 4
v 0.7 5.3 3.9
v 0.7 5.3 3.7
v 0.7 5.3 3.6
v 0.7 5.3 3.4
v 0.7 5.3 3.3
v 0.7 5.3 3.1
v 0.7 5.3 3
v 0.7 5.3 2.8
v 0.7 5.3 2.7
v 0.7 5.3 2.5
v 0.7 5.3 2.4
v 0.7 5.3 2.2
v 0.7 5.3 2.1
v 0.7 5.4 4.6
v 0.7 5.4 4.5
v 0.7 5.4 4.3
v 0.7 5.4 4.2
v 0.7 5.4 4
v 0.7 5.4 3.9
v 0.7 5.4 3.7
v 0.7 5.4 3.6
v 0.7 5.4 3.4
v 0.7 5.4 3.3
v 0.7 5.4 3.1
v 0.7 5.4 3
v 0.7 5.4 2.8
v 0.7 5.4 2.7
v 0.7 5.4 2.5
v 0.7 5.4 2.4
v 0.7 5.4 2.2
v 0.7 5.4 2.1
v 0.7 5.5 4.6
v 0.7 5.5 4.5
v 0.7 5.5 4.3
v 0.7 5.5 4.2
v 0.7 5.5 4
v 0.7 5.5 3.9
v 0.7 5.5 3.7
v 0.7 5.5 3.6
v 0.7 5.5 3.4
v 0.7 5.5 3.3
v 0.7 5.5 3.1
v 0.7 5.5 3
v 0.7 5.5 2.8
v 0.7 5.5 2.7
v 0.7 5.5 2.5
v 0.7 5.5 2.4
v 0.7 5.5 2.2
v 0.7 5.5 2.1
v 0.8 4.9 4.8
v 0.8 4.9 2.3
v 0.8 4.9 2.2
v 0.8 4.9 2.1
v 0.8 5 4.8
v 0.8 5 2.3
v 0.8 5 2.2
v 0.8 5 2.1
v 0.8 5.1 4.8
v 0.8 5.1 2.3
v 0.8 5.1 2.2
v 0.8 5.1 2.1
v 0.8 5.2 4.8
v 0.8 5.2 2.3
v 0.8 5.2 2.2
v 0.8 5.2 2.1
v 0.8 5.3 4.8
v 0.8 5.3 2.3
v 0.8 5.3 2.2
v 0.8 5.3 2.1
v 0.8 5.4 4.8
v 0.8 5.4 2.3
v 0.8 5.4 2.2
v 0.8 5.4 2.1
v 1 4.8 2.2
v 1 4.8 2.1
v 1 4.9 2.2
v 1 5 2.2
v 1 5.1 2.2
v 1 5.2 2.2
v 1 5.3 2.2
v 1 5.4 2.2
v 1 5.5 2.2
v 1 5.5 2.1
v 1.3 4.8 2.2
v 1.3 4.8 2.1
v 1.3 4.9 2.2
v 1.3 5 2.2
v 1.3 5.1 2.2
v 1.3 5.2 2.2
v 1.3 5.3 2.2
v 1.3 5.4 2.2
v 1.3 5.5 2.2
v 1.3 5.5 2.1
v 1.6 4.8 2.2
v 1.6 4.8 2.1
v 1.6 4.9 2.2
v 1.6 5 2.2
v 1.6 5.1 2.2
v 1.6 5.2 2.2
v 1.6 5.3 2.2
v 1.6 5.4 2.2
v 1.6 5.5 2.2
v 1.6 5.5 2.1
v 1.9 4.8 2.2
v 1.9 4.8 2.1
v 1.9 4.9 2.2
v 1.9 5 2.2
v 1.9 5.1 2.2
v 1.9 5.2 2.2
v 1.9 5.3 2.2
v 1.9 5.4 2.2
v 1.9 5.5 2.2
v 1.9 5.5 2.1
v 2.2 4.8 2.2
v 2.2 4.8 2.1
v 2.2 4.9 2.2
v 2.2 5 2.2
v 2.2 5.1 2.2
v 2.2 5.2 2.2
v 2.2 5.3 2.2
v 2.2 5.4 2.2
v 2.2 5.5 2.2
v 2.2 5.5 2.1
v 2.5 4.8 2.2
v 2.5 4.8 2.1
v 2.5 4.9 2.2
v 2.5 5 2.2
v 2.5 5.1 2.2
v 2.5 5.2 2.2
v 2.5 5.3 2.2
v 2.5 5.4 2.2
v 2.5 5.5 2.2
v 2.5 5.5 2.1
v 2.8 4.8 2.2
v 2.8 4.8 2.1
v 2.8 4.9 2.2
v 2.8 5 2.2
v 2.8 5.1 2.2
v 2.8 5.2 2.2
v 2.8 5.3 2.2
v 2.8 5.4 2.2
v 2.8 5.5 2.2
v 2.8 5.5 2.1
v 3.1 4.8 2.2
v 3.1 4.8 2.1
v 3.1 4.9 2.2
v 3.1 5 2.2
v 3.1 5.1 2.2
v 3.1 5.2 2.2
v 3.1 5.3 2.2
v 3.1 5.4 2.2
v 3.1 5.5 2.2
v 3.1 5.5 2.1
v 3.4 4.8 2.2
v 3.4 4.8 2.1
v 3.4 4.9 2.2
v 3.4 5 2.2
v 3.4 5.1 2.2
v 3.4 5.2 2.2
v 3.4 5.3 2.2
v 3.4 5.4 2.2
v 3.4 5.5 2.2
v 3.4 5.5 2.1
v 3.7 4.8 2.2
v 3.7 4.8 2.1
v 3.7 4.9 2.2
v 3.7 5 2.2
v 3.7 5.1 2.2
v 3.7 5.2 2.2
v 3.7 5.3 2.2
v 3.7 5.4 2.2
v 3.7 5.5 2.2
v 3.7 5.5 2.1
v 4 4.8 2.2
v 4 4.8 2.1
v 4 4.9 2.2
v 4 5 2.2
v 4 5.1 2.2
v 4 5.2 2.2
v 4 5.3 2.2
v 4 5.4 2.2
v 4 5.5 2.2
v 4 5.5 2.1
v 4.3 4.8 2.2
v 4.3 4.8 2.1
v 4.3 4.9 2.2
v 4.3 5 2.2
v 4.3 5.1 2.2
v 4.3 5.2 2.2
v 4.3 5.3 2.2
v 4.3 5.4 2.2
v 4.3 5.5 2.2
v 4.3 5.5 2.1
v 4.6 4.8 2.2
v 4.6 4.8 2.1
v 4.6 4.9 2.2
v 4.6 5 2.2
v 4.6 5.1 2.2
v 4.6 5.2 2.2
v 4.6 5.3 2.2
v 4.6 5.4 2.2
v 4.6 5.5 2.2
v 4.6 5.5 2.1
v 4.9 4.8 2.2
v 4.9 4.8 2.1
v 4.9 4.9 2.2
v 4.9 5 2.2
v 4.9 5.1 2.2
v 4.9 5.2 2.2
v 4.9 5.3 2.2
v 4.9 5.4 2.2
v 4.9 5.5 2.2
v 4.9 5.5 2.1
v 5.1 4.9 2.3
v 5.1 4.9 2.2
v 5.1 5 2.3
v 5.1 5 2.2
v 5.1 5.1 2.3
v 5.1 5.1 2.2
v 5.1 5.2 2.3
v 5.1 5.2 2.2
v 5.1 5.3 2.3
v 5.1 5.3 2.2
v 5.1 5.4 2.3
v 5.1 5.4 2.2
v 0.7 4.9 4.8
v 0.7 5 4.8
v 0.7 5.1 4.8
v 0.7 5.2 4.8
v 0.7 5.3 4.8
v 0.7 5.4 4.8
v 0.8 4.9 4.8
v 0.8 5 4.8
v 0.8 5.1 4.8
v 0.8 5.2 4.8
v 0.8 5.3 4.8
v 0.8 5.4 4.8
v 0.6 4.8 4.6
v 0.6 5.5 4.6
v 0.7 4.8 4.6
v 0.7 4.9 4.6
v 0.7 5 4.6
v 0.7 5.1 4.6
v 0.7 5.2 4.6
v 0.7 5.3 4.6
v 0.7 5.4 4.6
v 0.7 5.5 4.6
v 0.6 4.8 4.3
v 0.6 5.5 4.3
v 0.7 4.8 4.3
v 0.7 4.9 4.3
v 0.7 5 4.3
v 0.7 5.1 4.3
v 0.7 5.2 4.3
v 0.7 5.3 4.3
v 0.7 5.4 4.3
v 0.7 5.5 4.3
v 0.6 4.8 4
v 0.6 5.5 4
v 0.7 4.8 4
v 0.7 4.9 4
v 0.7 5 4
v 0.7 5.1 4
v 0.7 5.2 4
v 0.7 5.3 4
v 0.7 5.4 4
v 0.7 5.5 4
v 0.6 4.8 3.7
v 0.6 5.5 3.7
v 0.7 4.8 3.7
v 0.7 4.9 3.7
v 0.7 5 3.7
v 0.7 5.1 3.7
v 0.7 5.2 3.7
v 0.7 5.3 3.7
v 0.7 5.4 3.7
v 0.7 5.5 3.7
v 0.6 4.8 3.4
v 0.6 5.5 3.4
v 0.7 4.8 3.4
v 0.7 4.9 3.4
v 0.7 5 3.4
v 0.7 5.1 3.4
v 0.7 5.2 3.4
v 0.7 5.3 3.4
v 0.7 5.4 3.4
v 0.7 5.5 3.4
v 0.6 4.8 3.1
v 0.6 5.5 3.1
v 0.7 4.8 3.1
v 0.7 4.9 3.1
v 0.7 5 3.1
v 0.7 5.1 3.1
v 0.7 5.2 3.1
v 0.7 5.3 3.1
v 0.7 5.4 3.1
v 0.7 5.5 3.1
v 0.6 4.8 2.8
v 0.6 5.5 2.8
v 0.7 4.8 2.8
v 0.7 4.9 2.8
v 0.7 5 2.8
v 0.7 5.1 2.8
v 0.7 5.2 2.8
v 0.7 5.3 2.8
v 0.7 5.4 2.8
v 0.7 5.5 2.8
v 0.6 4.8 2.5
v 0.6 5.5 2.5
v 0.7 4.8 2.5
v 0.7 4.9 2.5
v 0.7 5 2.5
v 0.7 5.1 2.5
v 0.7 5.2 2.5
v 0.7 5.3 2.5
v 0.7 5.4 2.5
v 0.7 5.5 2.5
v 0.6 4.9 2.3
v 0.6 5 2.3
v 0.6 5.1 2.3
v 0.6 5.2 2.3
v 0.6 5.3 2.3
v 0.6 5.4 2.3
v 0.7 4.9 2.3
v 0.7 5 2.3
v 0.7 5.1 2.3
v 0.7 5.2 2.3
v 0.7 5.3 2.3
v 0.7 5.4 2.3
v 0.8 4.9 2.3
v 0.8 5 2.3
v 0.8 5.1 2.3
v 0.8 5.2 2.3
v 0.8 5.3 2.3
v 0.8 5.4 2.3
v 5.1 4.9 2.3
v 5.1 5 2.3
v 5.1 5.1 2.3
v 5.1 5.2 2.3
v 5.1 5.3 2.3
v 5.1 5.4 2.3
v 0.6 4.8 2.2
v 0.6 4.9 2.2
v 0.6 5 2.2
v 0.6 5.1 2.2
v 0.6 5.2 2.2
v 0.6 5.3 2.2
v 0.6 5.4 2.2
v 0.6 5.5 2.2
v 0.7 4.8 2.2
v 0.7 4.9 2.2
v 0.7 5 2.2
v 0.7 5.1 2.2
v 0.7 5.2 2.2
v 0.7 5.3 2.2
v 0.7 5.4 2.2
v 0.7 5.5 2.2
v 0.9 4.8 2.2
v 0.9 4.9 2.2
v 0.9 5 2.2
v 0.9 5.1 2.2
v 0.9 5.2 2.2
v 0.9 5.3 2.2
v 0.9 5.4 2.2
v 0.9 5.5 2.2
v 1 4.8 2.2
v 1 4.9 2.2
v 1 5 2.2
v 1 5.1 2.2
v 1 5.2 2.2
v 1 5.3 2.2
v 1 5.4 2.2
v 1 5.5 2.2
v 1.2 4.8 2.2
v 1.2 4.9 2.2
v 1.2 5 2.2
v 1.2 5.1 2.2
v 1.2 5.2 2.2
v 1.2 5.3 2.2
v 1.2 5.4 2.2
v 1.2 5.5 2.2
v 1.3 4.8 2.2
v 1.3 4.9 2.2
v 1.3 5 2.2
v 1.3 5.1 2.2
v 1.3 5.2 2.2
v 1.3 5.3 2.2
v 1.3 5.4 2.2
v 1.3 5.5 2.2
v 1.5 4.8 2.2
v 1.5 4.9 2.2
v 1.5 5 2.2
v 1.5 5.1 2.2
v 1.5 5.2 2.2
v 1.5 5.3 2.2
v 1.5 5.4 2.2
v 1.5 5.5 2.2
v 1.6 4.8 2.2
v 1.6 4.9 2.2
v 1.6 5 2.2
v 1.6 5.1 2.2
v 1.6 5.2 2.2
v 1.6 5.3 2.2
v 1.6 5.4 2.2
v 1.6 5.5 2.2
v 1.8 4.8 2.2
v 1.8 4.9 2.2
v 1.8 5 2.2
v 1.8 5.1 2.2
v 1.8 5.2 2.2
v 1.8 5.3 2.2
v 1.8 5.4 2.2
v 1.8 5.5 2.2
v 1.9 4.8 2.2
v 1.9 4.9 2.2
v 1.9 5 2.2
v 1.9 5.1 2.2
v 1.9 5.2 2.2
v 1.9 5.3 2.2
v 1.9 5.4 2.2
v 1.9 5.5 2.2
v 2.1 4.8 2.2
v 2.1 4.9 2.2
v 2.1 5 2.2
v 2.1 5.1 2.2
v 2.1 5.2 2.2
v 2.1 5.3 2.2
v 2.1 5.4 2.2
v 2.1 5.5 2.2
v 2.2 4.8 2.2
v 2.2 4.9 2.2
v 2.2 5 2.2
v 2.2 5.1 2.2
v 2.2 5.2 2.2
v 2.2 5.3 2.2
v 2.2 5.4 2.2
v 2.2 5.5 2.2
v 2.4 4.8 2.2
v 2.4 4.9 2.2
v 2.4 5 2.2
v 2.4 5.1 2.2
v 2.4 5.2 2.2
v 2.4 5.3 2.2
v 2.4 5.4 2.2
v 2.4 5.5 2.2
v 2.5 4.8 2.2
v 2.5 4.9 2.2
v 2.5 5 2.2
v 2.5 5.1 2.2
v 2.5 5.2 2.2
v 2.5 5.3 2.2
v 2.5 5.4 2.2
v 2.5 5.5 2.2
v 2.7 4.8 2.2
v 2.7 4.9 2.2
v 2.7 5 2.2
v 2.7 5.1 2.2
v 2.7 5.2 2.2
v 2.7 5.3 2.2
v 2.7 5.4 2.2
v 2.7 5.5 2.2
v 2.8 4.8 2.2
v 2.8 4.9 2.2
v 2.8 5 2.2
v 2.8 5.1 2.2
v 2.8 5.2 2.2
v 2.8 5.3 2.2
v 2.8 5.4 2.2
v 2.8 5.5 2.2
v 3 4.8 2.2
v 3 4.9 2.2
v 3 5 2.2
v 3 5.1 2.2
v 3 5.2 2.2
v 3 5.3 2.2
v 3 5.4 2.2
v 3 5.5 2.2
v 3.1 4.8 2.2
v 3.1 4.9 2.2
v 3.1 5 2.2
v 3.1 5.1 2.2
v 3.1 5.2 2.2
v 3.1 5.3 2.2
v 3.1 5.4 2.2
v 3.1 5.5 2.2
v 3.3 4.8 2.2
v 3.3 4.9 2.2
v 3.3 5 2.2
v 3.3 5.1 2.2
v 3.3 5.2 2.2
v 3.3 5.3 2.2
v 3.3 5.4 2.2
v 3.3 5.5 2.2
v 3.4 4.8 2.2
v 3.4 4.9 2.2
v 3.4 5 2.2
v 3.4 5.1 2.2
v 3.4 5.2 2.2
v 3.4 5.3 2.2
v 3.4 5.4 2.2
v 3.4 5.5 2.2
v 3.6 4.8 2.2
v 3.6 4.9 2.2
v 3.6 5 2.2
v 3.6 5.1 2.2
v 3.6 5.2 2.2
v 3.6 5.3 2.2
v 3.6 5.4 2.2
v 3.6 5.5 2.2
v 3.7 4.8 2.2
v 3.7 4.9 2.2
v 3.7 5 2.2
v 3.7 5.1 2.2
v 3.7 5.2 2.2
v 3.7 5.3 2.2
v 3.7 5.4 2.2
v 3.7 5.5 2.2
v 3.9 4.8 2.2
v 3.9 4.9 2.2
v 3.9 5 2.2
v 3.9 5.1 2.2
v 3.9 5.2 2.2
v 3.9 5.3 2.2
v 3.9 5.4 2.2
v 3.9 5.5 2.2
v 4 4.8 2.2
v 4 4.9 2.2
v 4 5 2.2
v 4 5.1 2.2
v 4 5.2 2.2
v 4 5.3 2.2
v 4 5.4 2.2
v 4 5.5 2.2
v 4.2 4.8 2.2
v 4.2 4.9 2.2
v 4.2 5 2.2
v 4.2 5.1 2.2
v 4.2 5.2 2.2
v 4.2 5.3 2.2
v 4.2 5.4 2.2
v 4.2 5.5 2.2
v 4.3 4.8 2.2
v 4.3 4.9 2.2
v 4.3 5 2.2
v 4.3 5.1 2.2
v 4.3 5.2 2.2
v 4.3 5.3 2.2
v 4.3 5.4 2.2
v 4.3 5.5 2.2
v 4.5 4.8 2.2
v 4.5 4.9 2.2
v 4.5 5 2.2
v 4.5 5.1 2.2
v 4.5 5.2 2.2
v 4.5 5.3 2.2
v 4.5 5.4 2.2
v 4.5 5.5 2.2
v 4.6 4.8 2.2
v 4.6 4.9 2.2
v 4.6 5 2.2
v 4.6 5.1 2.2
v 4.6 5.2 2.2
v 4.6 5.3 2.2
v 4.6 5.4 2.2
v 4.6 5.5 2.2
v 4.8 4.8 2.2
v 4.8 4.9 2.2
v 4.8 5 2.2
v 4.8 5.1 2.2
v 4.8 5.2 2.2
v 4.8 5.3 2.2
v 4.8 5.4 2.2
v 4.8 5.5 2.2
v 4.9 4.8 2.2
v 4.9 4.9 2.2
v 4.9 5 2.2
v 4.9 5.1 2.2
v 4.9 5.2 2.2
v 4.9 5.3 2.2
v 4.9 5.4 2.2
v 4.9 5.5 2.2
v 0.6 4.8 4.5
v 0.6 5.5 4.5
v 0.7 4.8 4.5
v 0.7 4.9 4.5
v 0.7 5 4.5
v 0.7 5.1 4.5
v 0.7 5.2 4.5
v 0.7 5.3 4.5
v 0.7 5.4 4.5
v 0.7 5.5 4.5
v 0.6 4.8 4.2
v 0.6 5.5 4.2
v 0.7 4.8 4.2
v 0.7 4.9 4.2
v 0.7 5 4.2
v 0.7 5.1 4.2
v 0.7 5.2 4.2
v 0.7 5.3 4.2
v 0.7 5.4 4.2
v 0.7 5.5 4.2
v 0.6 4.8 3.9
v 0.6 5.5 3.9
v 0.7 4.8 3.9
v 0.7 4.9 3.9
v 0.7 5 3.9
v 0.7 5.1 3.9
v 0.7 5.2 3.9
v 0.7 5.3 3.9
v 0.7 5.4 3.9
v 0.7 5.5 3.9
v 0.6 4.8 3.6
v 0.6 5.5 3.6
v 0.7 4.8 3.6
v 0.7 4.9 3.6
v 0.7 5 3.6
v 0.7 5.1 3.6
v 0.7 5.2 3.6
v 0.7 5.3 3.6
v 0.7 5.4 3.6
v 0.7 5.5 3.6
v 0.6 4.8 3.3
v 0.6 5.5 3.3
v 0.7 4.8 3.3
v 0.7 4.9 3.3
v 0.7 5 3.3
v 0.7 5.1 3.3
v 0.7 5.2 3.3
v 0.7 5.3 3.3
v 0.7 5.4 3.3
v 0.7 5.5 3.3
v 0.6 4.8 3
v 0.6 5.5 3
v 0.7 4.8 3
v 0.7 4.9 3
v 0.7 5 3
v 0.7 5.1 3
v 0.7 5.2 3
v 0.7 5.3 3
v 0.7 5.4 3
v 0.7 5.5 3
v 0.6 4.8 2.7
v 0.6 5.5 2.7
v 0.7 4.8 2.7
v 0.7 4.9 2.7
v 0.7 5 2.7
v 0.7 5.1 2.7
v 0.7 5.2 2.7
v 0.7 5.3 2.7
v 0.7 5.4 2.7
v 0.7 5.5 2.7
v 0.6 4.8 2.4
v 0.6 5.5 2.4
v 0.7 4.8 2.4
v 0.7 4.9 2.4
v 0.7 5 2.4
v 0.7 5.1 2.4
v 0.7 5.2 2.4
v 0.7 5.3 2.4
v 0.7 5.4 2.4
v 0.7 5.5 2.4
v 0.8 4.9 2.2
v 0.8 5 2.2
v 0.8 5.1 2.2
v 0.8 5.2 2.2
v 0.8 5.3 2.2
v 0.8 5.4 2.2
v 0.9 4.9 2.2
v 0.9 5 2.2
v 0.9 5.1 2.2
v 0.9 5.2 2.2
v 0.9 5.3 2.2
v 0.9 5.4 2.2
v 1 4.9 2.2
v 1 5 2.2
v 1 5.1 2.2
v 1 5.2 2.2
v 1 5.3 2.2
v 1 5.4 2.2
v 1.2 4.9 2.2
v 1.2 5 2.2
v 1.2 5.1 2.2
v 1.2 5.2 2.2
v 1.2 5.3 2.2
v 1.2 5.4 2.2
v 1.3 4.9 2.2
v 1.3 5 2.2
v 1.3 5.1 2.2
v 1.3 5.2 2.2
v 1.3 5.3 2.2
v 1.3 5.4 2.2
v 1.5 4.9 2.2
v 1.5 5 2.2
v 1.5 5.1 2.2
v 1.5 5.2 2.2
v 1.5 5.3 2.2
v 1.5 5.4 2.2
v 1.6 4.9 2.2
v 1.6 5 2.2
v 1.6 5.1 2.2
v 1.6 5.2 2.2
v 1.6 5.3 2.2
v 1.6 5.4 2.2
v 1.8 4.9 2.2
v 1.8 5 2.2
v 1.8 5.1 2.2
v 1.8 5.2 2.2
v 1.8 5.3 2.2
v 1.8 5.4 2.2
v 1.9 4.9 2.2
v 1.9 5 2.2
v 1.9 5.1 2.2
v 1.9 5.2 2.2
v 1.9 5.3 2.2
v 1.9 5.4 2.2
v 2.1 4.9 2.2
v 2.1 5 2.2
v 2.1 5.1 2.2
v 2.1 5.2 2.2
v 2.1 5.3 2.2
v 2.1 5.4 2.2
v 2.2 4.9 2.2
v 2.2 5 2.2
v 2.2 5.1 2.2
v 2.2 5.2 2.2
v 2.2 5.3 2.2
v 2.2 5.4 2.2
v 2.4 4.9 2.2
v 2.4 5 2.2
v 2.4 5.1 2.2
v 2.4 5.2 2.2
v 2.4 5.3 2.2
v 2.4 5.4 2.2
v 2.5 4.9 2.2
v 2.5 5 2.2
v 2.5 5.1 2.2
v 2.5 5.2 2.2
v 2.5 5.3 2.2
v 2.5 5.4 2.2
v 2.7 4.9 2.2
v 2.7 5 2.2
v 2.7 5.1 2.2
v 2.7 5.2 2.2
v 2.7 5.3 2.2
v 2.7 5.4 2.2
v 2.8 4.9 2.2
v 2.8 5 2.2
v 2.8 5.1 2.2
v 2.8 5.2 2.2
v 2.8 5.3 2.2
v 2.8 5.4 2.2
v 3 4.9 2.2
v 3 5 2.2
v 3 5.1 2.2
v 3 5.2 2.2
v 3 5.3 2.2
v 3 5.4 2.2
v 3.1 4.9 2.2
v 3.1 5 2.2
v 3.1 5.1 2.2
v 3.1 5.2 2.2
v 3.1 5.3 2.2
v 3.1 5.4 2.2
v 3.3 4.9 2.2
v 3.3 5 2.2
v 3.3 5.1 2.2
v 3.3 5.2 2.2
v 3.3 5.3 2.2
v 3.3 5.4 2.2
v 3.4 4.9 2.2
v 3.4 5 2.2
v 3.4 5.1 2.2
v 3.4 5.2 2.2
v 3.4 5.3 2.2
v 3.4 5.4 2.2
v 3.6 4.9 2.2
v 3.6 5 2.2
v 3.6 5.1 2.2
v 3.6 5.2 2.2
v 3.6 5.3 2.2
v 3.6 5.4 2.2
v 3.7 4.9 2.2
v 3.7 5 2.2
v 3.7 5.1 2.2
v 3.7 5.2 2.2
v 3.7 5.3 2.2
v 3.7 5.4 2.2
v 3.9 4.9 2.2
v 3.9 5 2.2
v 3.9 5.1 2.2
v 3.9 5.2 2.2
v 3.9 5.3 2.2
v 3.9 5.4 2.2
v 4 4.9 2.2
v 4 5 2.2
v 4 5.1 2.2
v 4 5.2 2.2
v 4 5.3 2.2
v 4 5.4 2.2
v 4.2 4.9 2.2
v 4.2 5 2.2
v 4.2 5.1 2.2
v 4.2 5.2 2.2
v 4.2 5.3 2.2
v 4.2 5.4 2.2
v 4.3 4.9 2.2
v 4.3 5 2.2
v 4.3 5.1 2.2
v 4.3 5.2 2.2
v 4.3 5.3 2.2
v 4.3 5.4 2.2
v 4.5 4.9 2.2
v 4.5 5 2.2
v 4.5 5.1 2.2
v 4.5 5.2 2.2
v 4.5 5.3 2.2
v 4.5 5.4 2.2
v 4.6 4.9 2.2
v 4.6 5 2.2
v 4.6 5.1 2.2
v 4.6 5.2 2.2
v 4.6 5.3 2.2
v 4.6 5.4 2.2
v 4.8 4.9 2.2
v 4.8 5 2.2
v 4.8 5.1 2.2
v 4.8 5.2 2.2
v 4.8 5.3 2.2
v 4.8 5.4 2.2
v 4.9 4.9 2.2
v 4.9 5 2.2
v 4.9 5.1 2.2
v 4.9 5.2 2.2
v 4.9 5.3 2.2
v 4.9 5.4 2.2
v 5.1 4.9 2.2
v 5.1 5 2.2
v 5.1 5.1 2.2
v 5.1 5.2 2.2
v 5.1 5.3 2.2
v 5.1 5.4 2.2
v 0.6 4.8 2.1
v 0.6 5.5 2.1
v 0.7 4.8 2.1
v 0.7 4.9 2.1
v 0.7 5 2.1
v 0.7 5.1 2.1
v 0.7 5.2 2.1
v 0.7 5.3 2.1
v 0.7 5.4 2.1
v 0.7 5.5 2.1
v 0.8 4.9 2.1
v 0.8 5 2.1
v 0.8 5.1 2.1
v 0.8 5.2 2.1
v 0.8 5.3 2.1
v 0.8 5.4 2.1
v 0.9 4.8 2.1
v 0.9 5.5 2.1
v 1 4.8 2.1
v 1 5.5 2.1
v 1.2 4.8 2.1
v 1.2 5.5 2.1
v 1.3 4.8 2.1
v 1.3 5.5 2.1
v 1.5 4.8 2.1
v 1.5 5.5 2.1
v 1.6 4.8 2.1
v 1.6 5.5 2.1
v 1.8 4.8 2.1
v 1.8 5.5 2.1
v 1.9 4.8 2.1
v 1.9 5.5 2.1
v 2.1 4.8 2.1
v 2.1 5.5 2.1
v 2.2 4.8 2.1
v 2.2 5.5 2.1
v 2.4 4.8 2.1
v 2.4 5.5 2.1
v 2.5 4.8 2.1
v 2.5 5.5 2.1
v 2.7 4.8 2.1
v 2.7 5.5 2.1
v 2.8 4.8 2.1
v 2.8 5.5 2.1
v 3 4.8 2.1
v 3 5.5 2.1
v 3.1 4.8 2.1
v 3.1 5.5 2.1
v 3.3 4.8 2.1
v 3.3 5.5 2.1
v 3.4 4.8 2.1
v 3.4 5.5 2.1
v 3.6 4.8 2.1
v 3.6 5.5 2.1
v 3.7 4.8 2.1
v 3.7 5.5 2.1
v 3.9 4.8 2.1
v 3.9 5.5 2.1
v 4 4.8 2.1
v 4 5.5 2.1
v 4.2 4.8 2.1
v 4.2 5.5 2.1
v 4.3 4.8 2.1
v 4.3 5.5 2.1
v 4.5 4.8 2.1
v 4.5 5.5 2.1
v 4.6 4.8 2.1
v 4.6 5.5 2.1
v 4.8 4.8 2.1
v 4.8 5.5 2.1
v 4.9 4.8 2.1
v 4.9 5.5 2.1
v 0.6 4.8 4.6
v 0.7 4.8 4.6
v 0.6 4.8 4.5
v 0.7 4.8 4.5
v 0.6 4.8 4.3
v 0.7 4.8 4.3
v 0.6 4.8 4.2
v 0.7 4.8 4.2
v 0.6 4.8 4
v 0.7 4.8 4
v 0.6 4.8 3.9
v 0.7 4.8 3.9
v 0.6 4.8 3.7
v 0.7 4.8 3.7
v 0.6 4.8 3.6
v 0.7 4.8 3.6
v 0.6 4.8 3.4
v 0.7 4.8 3.4
v 0.6 4.8 3.3
v 0.7 4.8 3.3
v 0.6 4.8 3.1
v 0.7 4.8 3.1
v 0.6 4.8 3
v 0.7 4.8 3
v 0.6 4.8 2.8
v 0.7 4.8 2.8
v 0.6 4.8 2.7
v 0.7 4.8 2.7
v 0.6 4.8 2.5
v 0.7 4.8 2.5
v 0.6 4.8 2.4
v 0.7 4.8 2.4
v 0.6 4.8 2.2
v 0.7 4.8 2.2
v 0.9 4.8 2.2
v 1 4.8 2.2
v 1.2 4.8 2.2
v 1.3 4.8 2.2
v 1.5 4.8 2.2
v 1.6 4.8 2.2
v 1.8 4.8 2.2
v 1.9 4.8 2.2
v 2.1 4.8 2.2
v 2.2 4.8 2.2
v 2.4 4.8 2.2
v 2.5 4.8 2.2
v 2.7 4.8 2.2
v 2.8 4.8 2.2
v 3 4.8 2.2
v 3.1 4.8 2.2
v 3.3 4.8 2.2
v 3.4 4.8 2.2
v 3.6 4.8 2.2
v 3.7 4.8 2.2
v 3.9 4.8 2.2
v 4 4.8 2.2
v 4.2 4.8 2.2
v 4.3 4.8 2.2
v 4.5 4.8 2.2
v 4.6 4.8 2.2
v 4.8 4.8 2.2
v 4.9 4.8 2.2
v 0.6 4.8 2.1
v 0.7 4.8 2.1
v 0.9 4.8 2.1
v 1 4.8 2.1
v 1.2 4.8 2.1
v 1.3 4.8 2.1
v 1.5 4.8 2.1
v 1.6 4.8 2.1
v 1.8 4.8 2.1
v 1.9 4.8 2.1
v 2.1 4.8 2.1
v 2.2 4.8 2.1
v 2.4 4.8 2.1
v 2.5 4.8 2.1
v 2.7 4.8 2.1
v 2.8 4.8 2.1
v 3 4.8 2.1
v 3.1 4.8 2.1
v 3.3 4.8 2.1
v 3.4 4.8 2.1
v 3.6 4.8 2.1
v 3.7 4.8 2.1
v 3.9 4.8 2.1
v 4 4.8 2.1
v 4.2 4.8 2.1
v 4.3 4.8 2.1
v 4.5 4.8 2.1
v 4.6 4.8 2.1
v 4.8 4.8 2.1
v 4.9 4.8 2.1
v 0.7 4.9 4.8
v 0.8 4.9 4.8
v 0.7 4.9 4.6
v 0.7 4.9 4.5
v 0.7 4.9 4.3
v 0.7 4.9 4.2
v 0.7 4.9 4
v 0.7 4.9 3.9
v 0.7 4.9 3.7
v 0.7 4.9 3.6
v 0.7 4.9 3.4
v 0.7 4.9 3.3
v 0.7 4.9 3.1
v 0.7 4.9 3
v 0.7 4.9 2.8
v 0.7 4.9 2.7
v 0.7 4.9 2.5
v 0.7 4.9 2.4
v 0.6 4.9 2.3
v 0.7 4.9 2.3
v 0.8 4.9 2.3
v 5.1 4.9 2.3
v 0.6 4.9 2.2
v 0.7 4.9 2.2
v 0.8 4.9 2.2
v 0.9 4.9 2.2
v 1 4.9 2.2
v 1.2 4.9 2.2
v 1.3 4.9 2.2
v 1.5 4.9 2.2
v 1.6 4.9 2.2
v 1.8 4.9 2.2
v 1.9 4.9 2.2
v 2.1 4.9 2.2
v 2.2 4.9 2.2
v 2.4 4.9 2.2
v 2.5 4.9 2.2
v 2.7 4.9 2.2
v 2.8 4.9 2.2
v 3 4.9 2.2
v 3.1 4.9 2.2
v 3.3 4.9 2.2
v 3.4 4.9 2.2
v 3.6 4.9 2.2
v 3.7 4.9 2.2
v 3.9 4.9 2.2
v 4 4.9 2.2
v 4.2 4.9 2.2
v 4.3 4.9 2.2
v 4.5 4.9 2.2
v 4.6 4.9 2.2
v 4.8 4.9 2.2
v 4.9 4.9 2.2
v 5.1 4.9 2.2
v 0.7 4.9 2.1
v 0.8 4.9 2.1
v 0.7 5.1 4.8
v 0.8 5.1 4.8
v 0.7 5.1 4.6
v 0.7 5.1 4.5
v 0.7 5.1 4.3
v 0.7 5.1 4.2
v 0.7 5.1 4
v 0.7 5.1 3.9
v 0.7 5.1 3.7
v 0.7 5.1 3.6
v 0.7 5.1 3.4
v 0.7 5.1 3.3
v 0.7 5.1 3.1
v 0.7 5.1 3
v 0.7 5.1 2.8
v 0.7 5.1 2.7
v 0.7 5.1 2.5
v 0.7 5.1 2.4
v 0.6 5.1 2.3
v 0.7 5.1 2.3
v 0.8 5.1 2.3
v 5.1 5.1 2.3
v 0.6 5.1 2.2
v 0.7 5.1 2.2
v 0.8 5.1 2.2
v 0.9 5.1 2.2
v 1 5.1 2.2
v 1.2 5.1 2.2
v 1.3 5.1 2.2
v 1.5 5.1 2.2
v 1.6 5.1 2.2
v 1.8 5.1 2.2
v 1.9 5.1 2.2
v 2.1 5.1 2.2
v 2.2 5.1 2.2
v 2.4 5.1 2.2
v 2.5 5.1 2.2
v 2.7 5.1 2.2
v 2.8 5.1 2.2
v 3 5.1 2.2
v 3.1 5.1 2.2
v 3.3 5.1 2.2
v 3.4 5.1 2.2
v 3.6 5.1 2.2
v 3.7 5.1 2.2
v 3.9 5.1 2.2
v 4 5.1 2.2
v 4.2 5.1 2.2
v 4.3 5.1 2.2
v 4.5 5.1 2.2
v 4.6 5.1 2.2
v 4.8 5.1 2.2
v 4.9 5.1 2.2
v 5.1 5.1 2.2
v 0.7 5.1 2.1
v 0.8 5.1 2.1
v 0.7 5.3 4.8
v 0.8 5.3 4.8
v 0.7 5.3 4.6
v 0.7 5.3 4.5
v 0.7 5.3 4.3
v 0.7 5.3 4.2
v 0.7 5.3 4
v 0.7 5.3 3.9
v 0.7 5.3 3.7
v 0.7 5.3 3.6
v 0.7 5.3 3.4
v 0.7 5.3 3.3
v 0.7 5.3 3.1
v 0.7 5.3 3
v 0.7 5.3 2.8
v 0.7 5.3 2.7
v 0.7 5.3 2.5
v 0.7 5.3 2.4
v 0.6 5.3 2.3
v 0.7 5.3 2.3
v 0.8 5.3 2.3
v 5.1 5.3 2.3
v 0.6 5.3 2.2
v 0.7 5.3 2.2
v 0.8 5.3 2.2
v 0.9 5.3 2.2
v 1 5.3 2.2
v 1.2 5.3 2.2
v 1.3 5.3 2.2
v 1.5 5.3 2.2
v 1.6 5.3 2.2
v 1.8 5.3 2.2
v 1.9 5.3 2.2
v 2.1 5.3 2.2
v 2.2 5.3 2.2
v 2.4 5.3 2.2
v 2.5 5.3 2.2
v 2.7 5.3 2.2
v 2.8 5.3 2.2
v 3 5.3 2.2
v 3.1 5.3 2.2
v 3.3 5.3 2.2
v 3.4 5.3 2.2
v 3.6 5.3 2.2
v 3.7 5.3 2.2
v 3.9 5.3 2.2
v 4 5.3 2.2
v 4.2 5.3 2.2
v 4.3 5.3 2.2
v 4.5 5.3 2.2
v 4.6 5.3 2.2
v 4.8 5.3 2.2
v 4.9 5.3 2.2
v 5.1 5.3 2.2
v 0.7 5.3 2.1
v 0.8 5.3 2.1
v 0.7 5 4.8
v 0.8 5 4.8
v 0.7 5 4.6
v 0.7 5 4.5
v 0.7 5 4.3
v 0.7 5 4.2
v 0.7 5 4
v 0.7 5 3.9
v 0.7 5 3.7
v 0.7 5 3.6
v 0.7 5 3.4
v 0.7 5 3.3
v 0.7 5 3.1
v 0.7 5 3
v 0.7 5 2.8
v 0.7 5 2.7
v 0.7 5 2.5
v 0.7 5 2.4
v 0.6 5 2.3
v 0.7 5 2.3
v 0.8 5 2.3
v 5.1 5 2.3
v 0.6 5 2.2
v 0.7 5 2.2
v 0.8 5 2.2
v 0.9 5 2.2
v 1 5 2.2
v 1.2 5 2.2
v 1.3 5 2.2
v 1.5 5 2.2
v 1.6 5 2.2
v 1.8 5 2.2
v 1.9 5 2.2
v 2.1 5 2.2
v 2.2 5 2.2
v 2.4 5 2.2
v 2.5 5 2.2
v 2.7 5 2.2
v 2.8 5 2.2
v 3 5 2.2
v 3.1 5 2.2
v 3.3 5 2.2
v 3.4 5 2.2
v 3.6 5 2.2
v 3.7 5 2.2
v 3.9 5 2.2
v 4 5 2.2
v 4.2 5 2.2
v 4.3 5 2.2
v 4.5 5 2.2
v 4.6 5 2.2
v 4.8 5 2.2
v 4.9 5 2.2
v 5.1 5 2.2
v 0.7 5 2.1
v 0.8 5 2.1
v 0.7 5.2 4.8
v 0.8 5.2 4.8
v 0.7 5.2 4.6
v 0.7 5.2 4.5
v 0.7 5.2 4.3
v 0.7 5.2 4.2
v 0.7 5.2 4
v 0.7 5.2 3.9
v 0.7 5.2 3.7
v 0.7 5.2 3.6
v 0.7 5.2 3.4
v 0.7 5.2 3.3
v 0.7 5.2 3.1
v 0.7 5.2 3
v 0.7 5.2 2.8
v 0.7 5.2 2.7
v 0.7 5.2 2.5
v 0.7 5.2 2.4
v 0.6 5.2 2.3
v 0.7 5.2 2.3
v 0.8 5.2 2.3
v 5.1 5.2 2.3
v 0.6 5.2 2.2
v 0.7 5.2 2.2
v 0.8 5.2 2.2
v 0.9 5.2 2.2
v 1 5.2 2.2
v 1.2 5.2 2.2
v 1.3 5.2 2.2
v 1.5 5.2 2.2
v 1.6 5.2 2.2
v 1.8 5.2 2.2
v 1.9 5.2 2.2
v 2.1 5.2 2.2
v 2.2 5.2 2.2
v 2.4 5.2 2.2
v 2.5 5.2 2.2
v 2.7 5.2 2.2
v 2.8 5.2 2.2
v 3 5.2 2.2
v 3.1 5.2 2.2
v 3.3 5.2 2.2
v 3.4 5.2 2.2
v 3.6 5.2 2.2
v 3.7 5.2 2.2
v 3.9 5.2 2.2
v 4 5.2 2.2
v 4.2 5.2 2.2
v 4.3 5.2 2.2
v 4.5 5.2 2.2
v 4.6 5.2 2.2
v 4.8 5.2 2.2
v 4.9 5.2 2.2
v 5.1 5.2 2.2
v 0.7 5.2 2.1
v 0.8 5.2 2.1
v 0.7 5.4 4.8
v 0.8 5.4 4.8
v 0.7 5.4 4.6
v 0.7 5.4 4.5
v 0.7 5.4 4.3
v 0.7 5.4 4.2
v 0.7 5.4 4
v 0.7 5.4 3.9
v 0.7 5.4 3.7
v 0.7 5.4 3.6
v 0.7 5.4 3.4
v 0.7 5.4 3.3
v 0.7 5.4 3.1
v 0.7 5.4 3
v 0.7 5.4 2.8
v 0.7 5.4 2.7
v 0.7 5.4 2.5
v 0.7 5.4 2.4
v 0.6 5.4 2.3
v 0.7 5.4 2.3
v 0.8 5.4 2.3
v 5.1 5.4 2.3
v 0.6 5.4 2.2
v 0.7 5.4 2.2
v 0.8 5.4 2.2
v 0.9 5.4 2.2
v 1 5.4 2.2
v 1.2 5.4 2.2
v 1.3 5.4 2.2
v 1.5 5.4 2.2
v 1.6 5.4 2.2
v 1.8 5.4 2.2
v 1.9 5.4 2.2
v 2.1 5.4 2.2
v 2.2 5.4 2.2
v 2.4 5.4 2.2
v 2.5 5.4 2.2
v 2.7 5.4 2.2
v 2.8 5.4 2.2
v 3 5.4 2.2
v 3.1 5.4 2.2
v 3.3 5.4 2.2
v 3.4 5.4 2.2
v 3.6 5.4 2.2
v 3.7 5.4 2.2
v 3.9 5.4 2.2
v 4 5.4 2.2
v 4.2 5.4 2.2
v 4.3 5.4 2.2
v 4.5 5.4 2.2
v 4.6 5.4 2.2
v 4.8 5.4 2.2
v 4.9 5.4 2.2
v 5.1 5.4 2.2
v 0.7 5.4 2.1
v 0.8 5.4 2.1
v 0.6 5.5 4.6
v 0.7 5.5 4.6
v 0.6 5.5 4.5
v 0.7 5.5 4.5
v 0.6 5.5 4.3
v 0.7 5.5 4.3
v 0.6 5.5 4.2
v 0.7 5.5 4.2
v 0.6 5.5 4
v 0.7 5.5 4
v 0.6 5.5 3.9
v 0.7 5.5 3.9
v 0.6 5.5 3.7
v 0.7 5.5 3.7
v 0.6 5.5 3.6
v 0.7 5.5 3.6
v 0.6 5.5 3.4
v 0.7 5.5 3.4
v 0.6 5.5 3.3
v 0.7 5.5 3.3
v 0.6 5.5 3.1
v 0.7 5.5 3.1
v 0.6 5.5 3
v 0.7 5.5 3
v 0.6 5.5 2.8
v 0.7 5.5 2.8
v 0.6 5.5 2.7
v 0.7 5.5 2.7
v 0.6 5.5 2.5
v 0.7 5.5 2.5
v 0.6 5.5 2.4
v 0.7 5.5 2.4
v 0.6 5.5 2.2
v 0.7 5.5 2.2
v 0.9 5.5 2.2
v 1 5.5 2.2
v 1.2 5.5 2.2
v 1.3 5.5 2.2
v 1.5 5.5 2.2
v 1.6 5.5 2.2
v 1.8 5.5 2.2
v 1.9 5.5 2.2
v 2.1 5.5 2.2
v 2.2 5.5 2.2
v 2.4 5.5 2.2
v 2.5 5.5 2.2
v 2.7 5.5 2.2
v 2.8 5.5 2.2
v 3 5.5 2.2
v 3.1 5.5 2.2
v 3.3 5.5 2.2
v 3.4 5.5 2.2
v 3.6 5.5 2.2
v 3.7 5.5 2.2
v 3.9 5.5 2.2
v 4 5.5 2.2
v 4.2 5.5 2.2
v 4.3 5.5 2.2
v 4.5 5.5 2.2
v 4.6 5.5 2.2
v 4.8 5.5 2.2
v 4.9 5.5 2.2
v 0.6 5.5 2.1
v 0.7 5.5 2.1
v 0.9 5.5 2.1
v 1 5.5 2.1
v 1.2 5.5 2.1
v 1.3 5.5 2.1
v 1.5 5.5 2.1
v 1.6 5.5 2.1
v 1.8 5.5 2.1
v 1.9 5.5 2.1
v 2.1 5.5 2.1
v 2.2 5.5 2.1
v 2.4 5.5 2.1
v 2.5 5.5 2.1
v 2.7 5.5 2.1
v 2.8 5.5 2.1
v 3 5.5 2.1
v 3.1 5.5 2.1
v 3.3 5.5 2.1
v 3.4 5.5 2.1
v 3.6 5.5 2.1
v 3.7 5.5 2.1
v 3.9 5.5 2.1
v 4 5.5 2.1
v 4.2 5.5 2.1
v 4.3 5.5 2.1
v 4.5 5.5 2.1
v 4.6 5.5 2.1
v 4.8 5.5 2.1
v 4.9 5.5 2.1

# faces
f 20/1/1 18/1/1 17/1/1
f 21/2/1 20/2/1 19/2/1
f 22/1/1 18/1/1 20/1/1
f 22/2/1 20/2/1 21/2/1
f 24/1/1 18/1/1 22/1/1
f 25/2/1 24/2/1 23/2/1
f 26/1/1 18/1/1 24/1/1
f 26/2/1 24/2/1 25/2/1
f 28/1/1 18/1/1 26/1/1
f 29/2/1 28/2/1 27/2/1
f 30/1/1 18/1/1 28/1/1
f 30/2/1 28/2/1 29/2/1
f 31/1/1 2/1/1 1/1/1
f 32/1/1 2/1/1 31/1/1
f 33/1/1 4/1/1 3/1/1
f 34/1/1 4/1/1 33/1/1
f 35/1/1 6/1/1 5/1/1
f 36/1/1 6/1/1 35/1/1
f 37/1/1 8/1/1 7/1/1
f 38/1/1 8/1/1 37/1/1
f 39/1/1 10/1/1 9/1/1
f 40/1/1 10/1/1 39/1/1
f 41/1/1 12/1/1 11/1/1
f 42/1/1 12/1/1 41/1/1
f 43/1/1 14/1/1 13/1/1
f 44/1/1 14/1/1 43/1/1
f 45/1/1 16/1/1 15/1/1
f 46/1/1 16/1/1 45/1/1
f 47/1/1 18/1/1 30/1/1
f 48/1/1 18/1/1 47/1/1
f 67/2/1 50/2/1 49/2/1
f 68/2/1 50/2/1 67/2/1
f 69/2/1 52/2/1 51/2/1
f 70/2/1 52/2/1 69/2/1
f 71/2/1 54/2/1 53/2/1
f 72/2/1 54/2/1 71/2/1
f 73/2/1 56/2/1 55/2/1
f 74/2/1 56/2/1 73/2/1
f 75/2/1 58/2/1 57/2/1
f 76/2/1 58/2/1 75/2/1
f 77/2/1 60/2/1 59/2/1
f 78/2/1 60/2/1 77/2/1
f 79/2/1 62/2/1 61/2/1
f 80/2/1 62/2/1 79/2/1
f 81/2/1 64/2/1 63/2/1
f 82/2/1 64/2/1 81/2/1
f 83/2/1 66/2/1 65/2/1
f 84/2/1 66/2/1 83/2/1
f 103/2/1 86/2/1 85/2/1
f 104/2/1 86/2/1 103/2/1
f 105/2/1 88/2/1 87/2/1
f 106/2/1 88/2/1 105/2/1
f 107/2/1 90/2/1 89/2/1
f 108/2/1 90/2/1 107/2/1
f 109/2/1 92/2/1 91/2/1
f 110/2/1 92/2/1 109/2/1
f 111/2/1 94/2/1 93/2/1
f 112/2/1 94/2/1 111/2/1
f 113/2/1 96/2/1 95/2/1
f 114/2/1 96/2/1 113/2/1
f 115/2/1 98/2/1 97/2/1
f 116/2/1 98/2/1 115/2/1
f 117/2/1 100/2/1 99/2/1
f 118/2/1 100/2/1 117/2/1
f 119/2/1 102/2/1 101/2/1
f 120/2/1 102/2/1 119/2/1
f 139/2/1 122/2/1 121/2/1
f 140/2/1 122/2/1 139/2/1
f 141/2/1 124/2/1 123/2/1
f 142/2/1 124/2/1 141/2/1
f 143/2/1 126/2/1 125/2/1
f 144/2/1 126/2/1 143/2/1
f 145/2/1 128/2/1 127/2/1
f 146/2/1 128/2/1 145/2/1
f 147/2/1 130/2/1 129/2/1
f 148/2/1 130/2/1 147/2/1
f 149/2/1 132/2/1 131/2/1
f 150/2/1 132/2/1 149/2/1
f 151/2/1 134/2/1 133/2/1
f 152/2/1 134/2/1 151/2/1
f 153/2/1 136/2/1 135/2/1
f 154/2/1 136/2/1 153/2/1
f 155/2/1 138/2/1 137/2/1
f 156/2/1 138/2/1 155/2/1
f 159/1/1 158/1/1 157/1/1
f 160/1/1 158/1/1 159/1/1
f 161/1/1 158/1/1 160/1/1
f 162/1/1 158/1/1 161/1/1
f 163/1/1 158/1/1 162/1/1
f 164/1/1 158/1/1 163/1/1
f 165/1/1 158/1/1 164/1/1
f 166/1/1 158/1/1 165/1/1
f 169/1/1 168/1/1 167/1/1
f 170/1/1 168/1/1 169/1/1
f 171/1/1 168/1/1 170/1/1
f 172/1/1 168/1/1 171/1/1
f 173/1/1 168/1/1 172/1/1
f 174/1/1 168/1/1 173/1/1
f 175/1/1 168/1/1 174/1/1
f 176/1/1 168/1/1 175/1/1
f 179/1/1 178/1/1 177/1/1
f 180/1/1 178/1/1 179/1/1
f 181/1/1 178/1/1 180/1/1
f 182/1/1 178/1/1 181/1/1
f 183/1/1 178/1/1 182/1/1
f 184/1/1 178/1/1 183/1/1
f 185/1/1 178/1/1 184/1/1
f 186/1/1 178/1/1 185/1/1
f 189/1/1 188/1/1 187/1/1
f 190/1/1 188/1/1 189/1/1
f 191/1/1 188/1/1 190/1/1
f 192/1/1 188/1/1 191/1/1
f 193/1/1 188/1/1 192/1/1
f 194/1/1 188/1/1 193/1/1
f 195/1/1 188/1/1 194/1/1
f 196/1/1 188/1/1 195/1/1
f 199/1/1 198/1/1 197/1/1
f 200/1/1 198/1/1 199/1/1
f 201/1/1 198/1/1 200/1/1
f 202/1/1 198/1/1 201/1/1
f 203/1/1 198/1/1 202/1/1
f 204/1/1 198/1/1 203/1/1
f 205/1/1 198/1/1 204/1/1
f 206/1/1 198/1/1 205/1/1
f 209/1/1 208/1/1 207/1/1
f 210/1/1 208/1/1 209/1/1
f 211/1/1 208/1/1 210/1/1
f 212/1/1 208/1/1 211/1/1
f 213/1/1 208/1/1 212/1/1
f 214/1/1 208/1/1 213/1/1
f 215/1/1 208/1/1 214/1/1
f 216/1/1 208/1/1 215/1/1
f 219/1/1 218/1/1 217/1/1
f 220/1/1 218/1/1 219/1/1
f 221/1/1 218/1/1 220/1/1
f 222/1/1 218/1/1 221/1/1
f 223/1/1 218/1/1 222/1/1
f 224/1/1 218/1/1 223/1/1
f 225/1/1 218/1/1 224/1/1
f 226/1/1 218/1/1 225/1/1
f 229/1/1 228/1/1 227/1/1
f 230/1/1 228/1/1 229/1/1
f 231/1/1 228/1/1 230/1/1
f 232/1/1 228/1/1 231/1/1
f 233/1/1 228/1/1 232/1/1
f 234/1/1 228/1/1 233/1/1
f 235/1/1 228/1/1 234/1/1
f 236/1/1 228/1/1 235/1/1
f 239/1/1 238/1/1 237/1/1
f 240/1/1 238/1/1 239/1/1
f 241/1/1 238/1/1 240/1/1
f 242/1/1 238/1/1 241/1/1
f 243/1/1 238/1/1 242/1/1
f 244/1/1 238/1/1 243/1/1
f 245/1/1 238/1/1 244/1/1
f 246/1/1 238/1/1 245/1/1
f 249/1/1 248/1/1 247/1/1
f 250/1/1 248/1/1 249/1/1
f 251/1/1 248/1/1 250/1/1
f 252/1/1 248/1/1 251/1/1
f 253/1/1 248/1/1 252/1/1
f 254/1/1 248/1/1 253/1/1
f 255/1/1 248/1/1 254/1/1
f 256/1/1 248/1/1 255/1/1
f 259/1/1 258/1/1 257/1/1
f 260/1/1 258/1/1 259/1/1
f 261/1/1 258/1/1 260/1/1
f 262/1/1 258/1/1 261/1/1
f 263/1/1 258/1/1 262/1/1
f 264/1/1 258/1/1 263/1/1
f 265/1/1 258/1/1 264/1/1
f 266/1/1 258/1/1 265/1/1
f 269/1/1 268/1/1 267/1/1
f 270/1/1 268/1/1 269/1/1
f 271/1/1 268/1/1 270/1/1
f 272/1/1 268/1/1 271/1/1
f 273/1/1 268/1/1 272/1/1
f 274/1/1 268/1/1 273/1/1
f 275/1/1 268/1/1 274/1/1
f 276/1/1 268/1/1 275/1/1
f 279/1/1 278/1/1 277/1/1
f 280/1/1 278/1/1 279/1/1
f 281/1/1 278/1/1 280/1/1
f 282/1/1 278/1/1 281/1/1
f 283/1/1 278/1/1 282/1/1
f 284/1/1 278/1/1 283/1/1
f 285/1/1 278/1/1 284/1/1
f 286/1/1 278/1/1 285/1/1
f 289/1/1 288/1/1 287/1/1
f 290/1/1 288/1/1 289/1/1
f 291/1/1 288/1/1 290/1/1
f 292/1/1 288/1/1 291/1/1
f 293/1/1 288/1/1 292/1/1
f 294/1/1 288/1/1 293/1/1
f 295/1/1 288/1/1 294/1/1
f 296/1/1 288/1/1 295/1/1
f 297/1/2 298/1/2 315/1/2
f 315/1/2 298/1/2 316/1/2
f 299/1/2 300/1/2 317/1/2
f 317/1/2 300/1/2 318/1/2
f 301/1/2 302/1/2 319/1/2
f 319/1/2 302/1/2 320/1/2
f 303/1/2 304/1/2 321/1/2
f 321/1/2 304/1/2 322/1/2
f 305/1/2 306/1/2 323/1/2
f 323/1/2 306/1/2 324/1/2
f 307/1/2 308/1/2 325/1/2
f 325/1/2 308/1/2 326/1/2
f 309/1/2 310/1/2 327/1/2
f 327/1/2 310/1/2 328/1/2
f 311/1/2 312/1/2 329/1/2
f 329/1/2 312/1/2 330/1/2
f 313/1/2 314/1/2 331/1/2
f 331/1/2 314/1/2 332/1/2
f 333/1/2 334/1/2 351/1/2
f 351/1/2 334/1/2 352/1/2
f 335/1/2 336/1/2 353/1/2
f 353/1/2 336/1/2 354/1/2
f 337/1/2 338/1/2 355/1/2
f 355/1/2 338/1/2 356/1/2
f 339/1/2 340/1/2 357/1/2
f 357/1/2 340/1/2 358/1/2
f 341/1/2 342/1/2 359/1/2
f 359/1/2 342/1/2 360/1/2
f 343/1/2 344/1/2 361/1/2
f 361/1/2 344/1/2 362/1/2
f 345/1/2 346/1/2 363/1/2
f 363/1/2 346/1/2 364/1/2
f 347/1/2 348/1/2 365/1/2
f 365/1/2 348/1/2 366/1/2
f 349/1/2 350/1/2 367/1/2
f 367/1/2 350/1/2 368/1/2
f 369/1/2 370/1/2 387/1/2
f 387/1/2 370/1/2 388/1/2
f 371/1/2 372/1/2 389/1/2
f 389/1/2 372/1/2 390/1/2
f 373/1/2 374/1/2 391/1/2
f 391/1/2 374/1/2 392/1/2
f 375/1/2 376/1/2 393/1/2
f 393/1/2 376/1/2 394/1/2
f 377/1/2 378/1/2 395/1/2
f 395/1/2 378/1/2 396/1/2
f 379/1/2 380/1/2 397/1/2
f 397/1/2 380/1/2 398/1/2
f 381/1/2 382/1/2 399/1/2
f 399/1/2 382/1/2 400/1/2
f 383/1/2 384/1/2 401/1/2
f 401/1/2 384/1/2 402/1/2
f 385/1/2 386/1/2 403/1/2
f 403/1/2 386/1/2 404/1/2
f 405/1/2 406/1/2 423/1/2
f 423/1/2 406/1/2 424/1/2
f 407/1/2 408/1/2 425/1/2
f 425/1/2 408/1/2 426/1/2
f 409/1/2 410/1/2 427/1/2
f 427/1/2 410/1/2 428/1/2
f 411/1/2 412/1/2 429/1/2
f 429/1/2 412/1/2 430/1/2
f 413/1/2 414/1/2 431/1/2
f 431/1/2 414/1/2 432/1/2
f 415/1/2 416/1/2 433/1/2
f 433/1/2 416/1/2 434/1/2
f 417/1/2 418/1/2 435/1/2
f 435/1/2 418/1/2 436/1/2
f 419/1/2 420/1/2 437/1/2
f 437/1/2 420/1/2 438/1/2
f 421/1/2 422/1/2 439/1/2
f 439/1/2 422/1/2 440/1/2
f 441/2/2 442/2/2 445/2/2
f 445/2/2 442/2/2 446/2/2
f 443/2/2 444/2/2 447/2/2
f 447/2/2 444/2/2 448/2/2
f 449/2/2 450/2/2 453/2/2
f 453/2/2 450/2/2 454/2/2
f 451/2/2 452/2/2 455/2/2
f 455/2/2 452/2/2 456/2/2
f 457/2/2 458/2/2 461/2/2
f 461/2/2 458/2/2 462/2/2
f 459/2/2 460/2/2 463/2/2
f 463/2/2 460/2/2 464/2/2
f 465/1/2 466/1/2 467/1/2
f 467/1/2 466/1/2 468/1/2
f 468/1/2 466/1/2 469/1/2
f 469/1/2 466/1/2 470/1/2
f 470/1/2 466/1/2 471/1/2
f 471/1/2 466/1/2 472/1/2
f 472/1/2 466/1/2 473/1/2
f 473/1/2 466/1/2 474/1/2
f 475/1/2 476/1/2 477/1/2
f 477/1/2 476/1/2 478/1/2
f 478/1/2 476/1/2 479/1/2
f 479/1/2 476/1/2 480/1/2
f 480/1/2 476/1/2 481/1/2
f 481/1/2 476/1/2 482/1/2
f 482/1/2 476/1/2 483/1/2
f 483/1/2 476/1/2 484/1/2
f 485/1/2 486/1/2 487/1/2
f 487/1/2 486/1/2 488/1/2
f 488/1/2 486/1/2 489/1/2
f 489/1/2 486/1/2 490/1/2
f 490/1/2 486/1/2 491/1/2
f 491/1/2 486/1/2 492/1/2
f 492/1/2 486/1/2 493/1/2
f 493/1/2 486/1/2 494/1/2
f 495/1/2 496/1/2 497/1/2
f 497/1/2 496/1/2 498/1/2
f 498/1/2 496/1/2 499/1/2
f 499/1/2 496/1/2 500/1/2
f 500/1/2 496/1/2 501/1/2
f 501/1/2 496/1/2 502/1/2
f 502/1/2 496/1/2 503/1/2
f 503/1/2 496/1/2 504/1/2
f 505/1/2 506/1/2 507/1/2
f 507/1/2 506/1/2 508/1/2
f 508/1/2 506/1/2 509/1/2
f 509/1/2 506/1/2 510/1/2
f 510/1/2 506/1/2 511/1/2
f 511/1/2 506/1/2 512/1/2
f 512/1/2 506/1/2 513/1/2
f 513/1/2 506/1/2 514/1/2
f 515/1/2 516/1/2 517/1/2
f 517/1/2 516/1/2 518/1/2
f 518/1/2 516/1/2 519/1/2
f 519/1/2 516/1/2 520/1/2
f 520/1/2 516/1/2 521/1/2
f 521/1/2 516/1/2 522/1/2
f 522/1/2 516/1/2 523/1/2
f 523/1/2 516/1/2 524/1/2
f 525/1/2 526/1/2 527/1/2
f 527/1/2 526/1/2 528/1/2
f 528/1/2 526/1/2 529/1/2
f 529/1/2 526/1/2 530/1/2
f 530/1/2 526/1/2 531/1/2
f 531/1/2 526/1/2 532/1/2
f 532/1/2 526/1/2 533/1/2
f 533/1/2 526/1/2 534/1/2
f 535/1/2 536/1/2 537/1/2
f 537/1/2 536/1/2 538/1/2
f 538/1/2 536/1/2 539/1/2
f 539/1/2 536/1/2 540/1/2
f 540/1/2 536/1/2 541/1/2
f 541/1/2 536/1/2 542/1/2
f 542/1/2 536/1/2 543/1/2
f 543/1/2 536/1/2 544/1/2
f 545/1/2 546/1/2 547/1/2
f 547/1/2 546/1/2 548/1/2
f 548/1/2 546/1/2 549/1/2
f 549/1/2 546/1/2 550/1/2
f 550/1/2 546/1/2 551/1/2
f 551/1/2 546/1/2 552/1/2
f 552/1/2 546/1/2 553/1/2
f 553/1/2 546/1/2 554/1/2
f 555/1/2 556/1/2 557/1/2
f 557/1/2 556/1/2 558/1/2
f 558/1/2 556/1/2 559/1/2
f 559/1/2 556/1/2 560/1/2
f 560/1/2 556/1/2 561/1/2
f 561/1/2 556/1/2 562/1/2
f 562/1/2 556/1/2 563/1/2
f 563/1/2 556/1/2 564/1/2
f 565/1/2 566/1/2 567/1/2
f 567/1/2 566/1/2 568/1/2
f 568/1/2 566/1/2 569/1/2
f 569/1/2 566/1/2 570/1/2
f 570/1/2 566/1/2 571/1/2
f 571/1/2 566/1/2 572/1/2
f 572/1/2 566/1/2 573/1/2
f 573/1/2 566/1/2 574/1/2
f 575/1/2 576/1/2 577/1/2
f 577/1/2 576/1/2 578/1/2
f 578/1/2 576/1/2 579/1/2
f 579/1/2 576/1/2 580/1/2
f 580/1/2 576/1/2 581/1/2
f 581/1/2 576/1/2 582/1/2
f 582/1/2 576/1/2 583/1/2
f 583/1/2 576/1/2 584/1/2
f 585/1/2 586/1/2 587/1/2
f 587/1/2 586/1/2 588/1/2
f 588/1/2 586/1/2 589/1/2
f 589/1/2 586/1/2 590/1/2
f 590/1/2 586/1/2 591/1/2
f 591/1/2 586/1/2 592/1/2
f 592/1/2 586/1/2 593/1/2
f 593/1/2 586/1/2 594/1/2
f 595/1/2 596/1/2 597/1/2
f 597/1/2 596/1/2 598/1/2
f 598/1/2 596/1/2 599/1/2
f 599/1/2 596/1/2 600/1/2
f 600/1/2 596/1/2 601/1/2
f 601/1/2 596/1/2 602/1/2
f 602/1/2 596/1/2 603/1/2
f 603/1/2 596/1/2 604/1/2
f 605/2/2 606/2/2 607/2/2
f 607/2/2 606/2/2 608/2/2
f 609/2/2 610/2/2 611/2/2
f 611/2/2 610/2/2 612/2/2
f 613/2/2 614/2/2 615/2/2
f 615/2/2 614/2/2 616/2/2
f 623/2/3 618/2/3 617/2/3
f 624/2/3 618/2/3 623/2/3
f 625/2/3 620/2/3 619/2/3
f 626/2/3 620/2/3 625/2/3
f 627/2/3 622/2/3 621/2/3
f 628/2/3 622/2/3 627/2/3
f 631/1/3 630/1/3 629/1/3
f 632/1/3 630/1/3 631/1/3
f 633/1/3 630/1/3 632/1/3
f 634/1/3 630/1/3 633/1/3
f 635/1/3 630/1/3 634/1/3
f 636/1/3 630/1/3 635/1/3
f 637/1/3 630/1/3 636/1/3
f 638/1/3 630/1/3 637/1/3
f 641/1/3 640/1/3 639/1/3
f 642/1/3 640/1/3 641/1/3
f 643/1/3 640/1/3 642/1/3
f 644/1/3 640/1/3 643/1/3
f 645/1/3 640/1/3 644/1/3
f 646/1/3 640/1/3 645/1/3
f 647/1/3 640/1/3 646/1/3
f 648/1/3 640/1/3 647/1/3
f 651/1/3 650/1/3 649/1/3
f 652/1/3 650/1/3 651/1/3
f 653/1/3 650/1/3 652/1/3
f 654/1/3 650/1/3 653/1/3
f 655/1/3 650/1/3 654/1/3
f 656/1/3 650/1/3 655/1/3
f 657/1/3 650/1/3 656/1/3
f 658/1/3 650/1/3 657/1/3
f 661/1/3 660/1/3 659/1/3
f 662/1/3 660/1/3 661/1/3
f 663/1/3 660/1/3 662/1/3
f 664/1/3 660/1/3 663/1/3
f 665/1/3 660/1/3 664/1/3
f 666/1/3 660/1/3 665/1/3
f 667/1/3 660/1/3 666/1/3
f 668/1/3 660/1/3 667/1/3
f 671/1/3 670/1/3 669/1/3
f 672/1/3 670/1/3 671/1/3
f 673/1/3 670/1/3 672/1/3
f 674/1/3 670/1/3 673/1/3
f 675/1/3 670/1/3 674/1/3
f 676/1/3 670/1/3 675/1/3
f 677/1/3 670/1/3 676/1/3
f 678/1/3 670/1/3 677/1/3
f 681/1/3 680/1/3 679/1/3
f 682/1/3 680/1/3 681/1/3
f 683/1/3 680/1/3 682/1/3
f 684/1/3 680/1/3 683/1/3
f 685/1/3 680/1/3 684/1/3
f 686/1/3 680/1/3 685/1/3
f 687/1/3 680/1/3 686/1/3
f 688/1/3 680/1/3 687/1/3
f 691/1/3 690/1/3 689/1/3
f 692/1/3 690/1/3 691/1/3
f 693/1/3 690/1/3 692/1/3
f 694/1/3 690/1/3 693/1/3
f 695/1/3 690/1/3 694/1/3
f 696/1/3 690/1/3 695/1/3
f 697/1/3 690/1/3 696/1/3
f 698/1/3 690/1/3 697/1/3
f 701/1/3 700/1/3 699/1/3
f 702/1/3 700/1/3 701/1/3
f 703/1/3 700/1/3 702/1/3
f 704/1/3 700/1/3 703/1/3
f 705/1/3 700/1/3 704/1/3
f 706/1/3 700/1/3 705/1/3
f 707/1/3 700/1/3 706/1/3
f 708/1/3 700/1/3 707/1/3
f 715/2/3 710/2/3 709/2/3
f 716/2/3 710/2/3 715/2/3
f 717/2/3 712/2/3 711/2/3
f 718/2/3 712/2/3 717/2/3
f 719/2/3 714/2/3 713/2/3
f 720/2/3 714/2/3 719/2/3
f 727/2/3 722/2/3 721/2/3
f 728/2/3 722/2/3 727/2/3
f 729/2/3 724/2/3 723/2/3
f 730/2/3 724/2/3 729/2/3
f 731/2/3 726/2/3 725/2/3
f 732/2/3 726/2/3 731/2/3
f 741/1/3 734/1/3 733/1/3
f 742/1/3 734/1/3 741/1/3
f 743/1/3 736/1/3 735/1/3
f 744/1/3 736/1/3 743/1/3
f 745/1/3 738/1/3 737/1/3
f 746/1/3 738/1/3 745/1/3
f 747/1/3 740/1/3 739/1/3
f 748/1/3 740/1/3 747/1/3
f 757/1/3 750/1/3 749/1/3
f 758/1/3 750/1/3 757/1/3
f 759/1/3 752/1/3 751/1/3
f 760/1/3 752/1/3 759/1/3
f 761/1/3 754/1/3 753/1/3
f 762/1/3 754/1/3 761/1/3
f 763/1/3 756/1/3 755/1/3
f 764/1/3 756/1/3 763/1/3
f 773/1/3 766/1/3 765/1/3
f 774/1/3 766/1/3 773/1/3
f 775/1/3 768/1/3 767/1/3
f 776/1/3 768/1/3 775/1/3
f 777/1/3 770/1/3 769/1/3
f 778/1/3 770/1/3 777/1/3
f 779/1/3 772/1/3 771/1/3
f 780/1/3 772/1/3 779/1/3
f 789/1/3 782/1/3 781/1/3
f 790/1/3 782/1/3 789/1/3
f 791/1/3 784/1/3 783/1/3
f 792/1/3 784/1/3 791/1/3
f 793/1/3 786/1/3 785/1/3
f 794/1/3 786/1/3 793/1/3
f 795/1/3 788/1/3 787/1/3
f 796/1/3 788/1/3 795/1/3
f 805/1/3 798/1/3 797/1/3
f 806/1/3 798/1/3 805/1/3
f 807/1/3 800/1/3 799/1/3
f 808/1/3 800/1/3 807/1/3
f 809/1/3 802/1/3 801/1/3
f 810/1/3 802/1/3 809/1/3
f 811/1/3 804/1/3 803/1/3
f 812/1/3 804/1/3 811/1/3
f 821/1/3 814/1/3 813/1/3
f 822/1/3 814/1/3 821/1/3
f 823/1/3 816/1/3 815/1/3
f 824/1/3 816/1/3 823/1/3
f 825/1/3 818/1/3 817/1/3
f 826/1/3 818/1/3 825/1/3
f 827/1/3 820/1/3 819/1/3
f 828/1/3 820/1/3 827/1/3
f 837/1/3 830/1/3 829/1/3
f 838/1/3 830/1/3 837/1/3
f 839/1/3 832/1/3 831/1/3
f 840/1/3 832/1/3 839/1/3
f 841/1/3 834/1/3 833/1/3
f 842/1/3 834/1/3 841/1/3
f 843/1/3 836/1/3 835/1/3
f 844/1/3 836/1/3 843/1/3
f 853/1/3 846/1/3 845/1/3
f 854/1/3 846/1/3 853/1/3
f 855/1/3 848/1/3 847/1/3
f 856/1/3 848/1/3 855/1/3
f 857/1/3 850/1/3 849/1/3
f 858/1/3 850/1/3 857/1/3
f 859/1/3 852/1/3 851/1/3
f 860/1/3 852/1/3 859/1/3
f 869/1/3 862/1/3 861/1/3
f 870/1/3 862/1/3 869/1/3
f 871/1/3 864/1/3 863/1/3
f 872/1/3 864/1/3 871/1/3
f 873/1/3 866/1/3 865/1/3
f 874/1/3 866/1/3 873/1/3
f 875/1/3 868/1/3 867/1/3
f 876/1/3 868/1/3 875/1/3
f 885/1/3 878/1/3 877/1/3
f 886/1/3 878/1/3 885/1/3
f 887/1/3 880/1/3 879/1/3
f 888/1/3 880/1/3 887/1/3
f 889/1/3 882/1/3 881/1/3
f 890/1/3 882/1/3 889/1/3
f 891/1/3 884/1/3 883/1/3
f 892/1/3 884/1/3 891/1/3
f 901/1/3 894/1/3 893/1/3
f 902/1/3 894/1/3 901/1/3
f 903/1/3 896/1/3 895/1/3
f 904/1/3 896/1/3 903/1/3
f 905/1/3 898/1/3 897/1/3
f 906/1/3 898/1/3 905/1/3
f 907/1/3 900/1/3 899/1/3
f 908/1/3 900/1/3 907/1/3
f 917/1/3 910/1/3 909/1/3
f 918/1/3 910/1/3 917/1/3
f 919/1/3 912/1/3 911/1/3
f 920/1/3 912/1/3 919/1/3
f 921/1/3 914/1/3 913/1/3
f 922/1/3 914/1/3 921/1/3
f 923/1/3 916/1/3 915/1/3
f 924/1/3 916/1/3 923/1/3
f 933/1/3 926/1/3 925/1/3
f 934/1/3 926/1/3 933/1/3
f 935/1/3 928/1/3 927/1/3
f 936/1/3 928/1/3 935/1/3
f 937/1/3 930/1/3 929/1/3
f 938/1/3 930/1/3 937/1/3
f 939/1/3 932/1/3 931/1/3
f 940/1/3 932/1/3 939/1/3
f 949/1/3 942/1/3 941/1/3
f 950/1/3 942/1/3 949/1/3
f 951/1/3 944/1/3 943/1/3
f 952/1/3 944/1/3 951/1/3
f 953/1/3 946/1/3 945/1/3
f 954/1/3 946/1/3 953/1/3
f 955/1/3 948/1/3 947/1/3
f 956/1/3 948/1/3 955/1/3
f 965/1/3 958/1/3 957/1/3
f 966/1/3 958/1/3 965/1/3
f 967/1/3 960/1/3 959/1/3
f 968/1/3 960/1/3 967/1/3
f 969/1/3 962/1/3 961/1/3
f 970/1/3 962/1/3 969/1/3
f 971/1/3 964/1/3 963/1/3
f 972/1/3 964/1/3 971/1/3
f 973/1/4 974/1/4 975/1/4
f 975/1/4 974/1/4 976/1/4
f 976/1/4 974/1/4 977/1/4
f 977/1/4 974/1/4 978/1/4
f 978/1/4 974/1/4 979/1/4
f 979/1/4 974/1/4 980/1/4
f 980/1/4 974/1/4 981/1/4
f 981/1/4 974/1/4 982/1/4
f 983/1/4 984/1/4 985/1/4
f 985/1/4 984/1/4 986/1/4
f 986/1/4 984/1/4 987/1/4
f 987/1/4 984/1/4 988/1/4
f 988/1/4 984/1/4 989/1/4
f 989/1/4 984/1/4 990/1/4
f 990/1/4 984/1/4 991/1/4
f 991/1/4 984/1/4 992/1/4
f 993/1/4 994/1/4 995/1/4
f 995/1/4 994/1/4 996/1/4
f 996/1/4 994/1/4 997/1/4
f 997/1/4 994/1/4 998/1/4
f 998/1/4 994/1/4 999/1/4
f 999/1/4 994/1/4 1000/1/4
f 1000/1/4 994/1/4 1001/1/4
f 1001/1/4 994/1/4 1002/1/4
f 1003/1/4 1004/1/4 1005/1/4
f 1005/1/4 1004/1/4 1006/1/4
f 1006/1/4 1004/1/4 1007/1/4
f 1007/1/4 1004/1/4 1008/1/4
f 1008/1/4 1004/1/4 1009/1/4
f 1009/1/4 1004/1/4 1010/1/4
f 1010/1/4 1004/1/4 1011/1/4
f 1011/1/4 1004/1/4 1012/1/4
f 1013/1/4 1014/1/4 1015/1/4
f 1015/1/4 1014/1/4 1016/1/4
f 1016/1/4 1014/1/4 1017/1/4
f 1017/1/4 1014/1/4 1018/1/4
f 1018/1/4 1014/1/4 1019/1/4
f 1019/1/4 1014/1/4 1020/1/4
f 1020/1/4 1014/1/4 1021/1/4
f 1021/1/4 1014/1/4 1022/1/4
f 1023/1/4 1024/1/4 1025/1/4
f 1025/1/4 1024/1/4 1026/1/4
f 1026/1/4 1024/1/4 1027/1/4
f 1027/1/4 1024/1/4 1028/1/4
f 1028/1/4 1024/1/4 1029/1/4
f 1029/1/4 1024/1/4 1030/1/4
f 1030/1/4 1024/1/4 1031/1/4
f 1031/1/4 1024/1/4 1032/1/4
f 1033/1/4 1034/1/4 1035/1/4
f 1035/1/4 1034/1/4 1036/1/4
f 1036/1/4 1034/1/4 1037/1/4
f 1037/1/4 1034/1/4 1038/1/4
f 1038/1/4 1034/1/4 1039/1/4
f 1039/1/4 1034/1/4 1040/1/4
f 1040/1/4 1034/1/4 1041/1/4
f 1041/1/4 1034/1/4 1042/1/4
f 1043/1/4 1044/1/4 1045/1/4
f 1045/1/4 1044/1/4 1046/1/4
f 1046/1/4 1044/1/4 1047/1/4
f 1047/1/4 1044/1/4 1048/1/4
f 1048/1/4 1044/1/4 1049/1/4
f 1049/1/4 1044/1/4 1050/1/4
f 1050/1/4 1044/1/4 1051/1/4
f 1051/1/4 1044/1/4 1052/1/4
f 1053/2/4 1054/2/4 1059/2/4
f 1059/2/4 1054/2/4 1060/2/4
f 1055/2/4 1056/2/4 1061/2/4
f 1061/2/4 1056/2/4 1062/2/4
f 1057/2/4 1058/2/4 1063/2/4
f 1063/2/4 1058/2/4 1064/2/4
f 1065/2/4 1066/2/4 1071/2/4
f 1071/2/4 1066/2/4 1072/2/4
f 1067/2/4 1068/2/4 1073/2/4
f 1073/2/4 1068/2/4 1074/2/4
f 1069/2/4 1070/2/4 1075/2/4
f 1075/2/4 1070/2/4 1076/2/4
f 1077/2/4 1078/2/4 1083/2/4
f 1083/2/4 1078/2/4 1084/2/4
f 1079/2/4 1080/2/4 1085/2/4
f 1085/2/4 1080/2/4 1086/2/4
f 1081/2/4 1082/2/4 1087/2/4
f 1087/2/4 1082/2/4 1088/2/4
f 1089/2/4 1090/2/4 1095/2/4
f 1095/2/4 1090/2/4 1096/2/4
f 1091/2/4 1092/2/4 1097/2/4
f 1097/2/4 1092/2/4 1098/2/4
f 1093/2/4 1094/2/4 1099/2/4
f 1099/2/4 1094/2/4 1100/2/4
f 1101/2/4 1102/2/4 1107/2/4
f 1107/2/4 1102/2/4 1108/2/4
f 1103/2/4 1104/2/4 1109/2/4
f 1109/2/4 1104/2/4 1110/2/4
f 1105/2/4 1106/2/4 1111/2/4
f 1111/2/4 1106/2/4 1112/2/4
f 1113/2/4 1114/2/4 1119/2/4
f 1119/2/4 1114/2/4 1120/2/4
f 1115/2/4 1116/2/4 1121/2/4
f 1121/2/4 1116/2/4 1122/2/4
f 1117/2/4 1118/2/4 1123/2/4
f 1123/2/4 1118/2/4 1124/2/4
f 1125/2/4 1126/2/4 1131/2/4
f 1131/2/4 1126/2/4 1132/2/4
f 1127/2/4 1128/2/4 1133/2/4
f 1133/2/4 1128/2/4 1134/2/4
f 1129/2/4 1130/2/4 1135/2/4
f 1135/2/4 1130/2/4 1136/2/4
f 1137/2/4 1138/2/4 1143/2/4
f 1143/2/4 1138/2/4 1144/2/4
f 1139/2/4 1140/2/4 1145/2/4
f 1145/2/4 1140/2/4 1146/2/4
f 1141/2/4 1142/2/4 1147/2/4
f 1147/2/4 1142/2/4 1148/2/4
f 1149/2/4 1150/2/4 1155/2/4
f 1155/2/4 1150/2/4 1156/2/4
f 1151/2/4 1152/2/4 1157/2/4
f 1157/2/4 1152/2/4 1158/2/4
f 1153/2/4 1154/2/4 1159/2/4
f 1159/2/4 1154/2/4 1160/2/4
f 1161/2/4 1162/2/4 1167/2/4
f 1167/2/4 1162/2/4 1168/2/4
f 1163/2/4 1164/2/4 1169/2/4
f 1169/2/4 1164/2/4 1170/2/4
f 1165/2/4 1166/2/4 1171/2/4
f 1171/2/4 1166/2/4 1172/2/4
f 1173/2/4 1174/2/4 1179/2/4
f 1179/2/4 1174/2/4 1180/2/4
f 1175/2/4 1176/2/4 1181/2/4
f 1181/2/4 1176/2/4 1182/2/4
f 1177/2/4 1178/2/4 1183/2/4
f 1183/2/4 1178/2/4 1184/2/4
f 1185/2/4 1186/2/4 1191/2/4
f 1191/2/4 1186/2/4 1192/2/4
f 1187/2/4 1188/2/4 1193/2/4
f 1193/2/4 1188/2/4 1194/2/4
f 1189/2/4 1190/2/4 1195/2/4
f 1195/2/4 1190/2/4 1196/2/4
f 1197/2/4 1198/2/4 1203/2/4
f 1203/2/4 1198/2/4 1204/2/4
f 1199/2/4 1200/2/4 1205/2/4
f 1205/2/4 1200/2/4 1206/2/4
f 1201/2/4 1202/2/4 1207/2/4
f 1207/2/4 1202/2/4 1208/2/4
f 1209/2/4 1210/2/4 1215/2/4
f 1215/2/4 1210/2/4 1216/2/4
f 1211/2/4 1212/2/4 1217/2/4
f 1217/2/4 1212/2/4 1218/2/4
f 1213/2/4 1214/2/4 1219/2/4
f 1219/2/4 1214/2/4 1220/2/4
f 1221/2/4 1222/2/4 1227/2/4
f 1227/2/4 1222/2/4 1228/2/4
f 1223/2/4 1224/2/4 1229/2/4
f 1229/2/4 1224/2/4 1230/2/4
f 1225/2/4 1226/2/4 1231/2/4
f 1231/2/4 1226/2/4 1232/2/4
f 1233/1/4 1234/1/4 1235/1/4
f 1235/1/4 1234/1/4 1236/1/4
f 1236/1/4 1234/1/4 1237/1/4
f 1237/1/4 1234/1/4 1238/1/4
f 1238/1/4 1234/1/4 1239/1/4
f 1239/1/4 1234/1/4 1240/1/4
f 1240/1/4 1234/1/4 1241/1/4
f 1241/1/4 1234/1/4 1242/1/4
f 1236/2/4 1237/2/4 1243/2/4
f 1243/2/4 1237/2/4 1244/2/4
f 1238/2/4 1239/2/4 1245/2/4
f 1245/2/4 1239/2/4 1246/2/4
f 1240/2/4 1241/2/4 1247/2/4
f 1247/2/4 1241/2/4 1248/2/4
f 1249/1/4 1250/1/4 1251/1/4
f 1251/1/4 1250/1/4 1252/1/4
f 1253/1/4 1254/1/4 1255/1/4
f 1255/1/4 1254/1/4 1256/1/4
f 1257/1/4 1258/1/4 1259/1/4
f 1259/1/4 1258/1/4 1260/1/4
f 1261/1/4 1262/1/4 1263/1/4
f 1263/1/4 1262/1/4 1264/1/4
f 1265/1/4 1266/1/4 1267/1/4
f 1267/1/4 1266/1/4 1268/1/4
f 1269/1/4 1270/1/4 1271/1/4
f 1271/1/4 1270/1/4 1272/1/4
f 1273/1/4 1274/1/4 1275/1/4
f 1275/1/4 1274/1/4 1276/1/4
f 1277/1/4 1278/1/4 1279/1/4
f 1279/1/4 1278/1/4 1280/1/4
f 1281/1/4 1282/1/4 1283/1/4
f 1283/1/4 1282/1/4 1284/1/4
f 1285/1/4 1286/1/4 1287/1/4
f 1287/1/4 1286/1/4 1288/1/4
f 1289/1/4 1290/1/4 1291/1/4
f 1291/1/4 1290/1/4 1292/1/4
f 1293/1/4 1294/1/4 1295/1/4
f 1295/1/4 1294/1/4 1296/1/4
f 1297/1/4 1298/1/4 1299/1/4
f 1299/1/4 1298/1/4 1300/1/4
f 1301/1/4 1302/1/4 1303/1/4
f 1303/1/4 1302/1/4 1304/1/4
f 1307/1/5 1306/1/5 1305/1/5
f 1308/1/5 1306/1/5 1307/1/5
f 1311/1/5 1310/1/5 1309/1/5
f 1312/1/5 1310/1/5 1311/1/5
f 1315/1/5 1314/1/5 1313/1/5
f 1316/1/5 1314/1/5 1315/1/5
f 1319/1/5 1318/1/5 1317/1/5
f 1320/1/5 1318/1/5 1319/1/5
f 1323/1/5 1322/1/5 1321/1/5
f 1324/1/5 1322/1/5 1323/1/5
f 1327/1/5 1326/1/5 1325/1/5
f 1328/1/5 1326/1/5 1327/1/5
f 1331/1/5 1330/1/5 1329/1/5
f 1332/1/5 1330/1/5 1331/1/5
f 1335/1/5 1334/1/5 1333/1/5
f 1336/1/5 1334/1/5 1335/1/5
f 1367/1/5 1338/1/5 1337/1/5
f 1368/1/5 1338/1/5 1367/1/5
f 1369/1/5 1340/1/5 1339/1/5
f 1370/1/5 1340/1/5 1369/1/5
f 1371/1/5 1342/1/5 1341/1/5
f 1372/1/5 1342/1/5 1371/1/5
f 1373/1/5 1344/1/5 1343/1/5
f 1374/1/5 1344/1/5 1373/1/5
f 1375/1/5 1346/1/5 1345/1/5
f 1376/1/5 1346/1/5 1375/1/5
f 1377/1/5 1348/1/5 1347/1/5
f 1378/1/5 1348/1/5 1377/1/5
f 1379/1/5 1350/1/5 1349/1/5
f 1380/1/5 1350/1/5 1379/1/5
f 1381/1/5 1352/1/5 1351/1/5
f 1382/1/5 1352/1/5 1381/1/5
f 1383/1/5 1354/1/5 1353/1/5
f 1384/1/5 1354/1/5 1383/1/5
f 1385/1/5 1356/1/5 1355/1/5
f 1386/1/5 1356/1/5 1385/1/5
f 1387/1/5 1358/1/5 1357/1/5
f 1388/1/5 1358/1/5 1387/1/5
f 1389/1/5 1360/1/5 1359/1/5
f 1390/1/5 1360/1/5 1389/1/5
f 1391/1/5 1362/1/5 1361/1/5
f 1392/1/5 1362/1/5 1391/1/5
f 1393/1/5 1364/1/5 1363/1/5
f 1394/1/5 1364/1/5 1393/1/5
f 1395/1/5 1366/1/5 1365/1/5
f 1396/1/5 1366/1/5 1395/1/5
f 1399/2/5 1398/2/5 1397/2/5
f 1400/2/5 1398/2/5 1399/2/5
f 1401/2/5 1398/2/5 1400/2/5
f 1402/2/5 1398/2/5 1401/2/5
f 1403/2/5 1398/2/5 1402/2/5
f 1404/2/5 1398/2/5 1403/2/5
f 1405/2/5 1398/2/5 1404/2/5
f 1406/2/5 1398/2/5 1405/2/5
f 1407/2/5 1398/2/5 1406/2/5
f 1408/2/5 1398/2/5 1407/2/5
f 1409/2/5 1398/2/5 1408/2/5
f 1410/2/5 1398/2/5 1409/2/5
f 1411/2/5 1398/2/5 1410/2/5
f 1412/2/5 1398/2/5 1411/2/5
f 1413/2/5 1398/2/5 1412/2/5
f 1414/2/5 1398/2/5 1413/2/5
f 1416/2/5 1398/2/5 1414/2/5
f 1417/2/5 1398/2/5 1416/2/5
f 1419/2/5 1416/2/5 1415/2/5
f 1419/2/5 1418/2/5 1417/2/5
f 1419/2/5 1417/2/5 1416/2/5
f 1420/2/5 1418/2/5 1419/2/5
f 1421/2/5 1418/2/5 1420/2/5
f 1422/2/5 1418/2/5 1421/2/5
f 1423/2/5 1418/2/5 1422/2/5
f 1424/2/5 1418/2/5 1423/2/5
f 1425/2/5 1418/2/5 1424/2/5
f 1426/2/5 1418/2/5 1425/2/5
f 1427/2/5 1418/2/5 1426/2/5
f 1428/2/5 1418/2/5 1427/2/5
f 1429/2/5 1418/2/5 1428/2/5
f 1430/2/5 1418/2/5 1429/2/5
f 1431/2/5 1418/2/5 1430/2/5
f 1432/2/5 1418/2/5 1431/2/5
f 1433/2/5 1418/2/5 1432/2/5
f 1434/2/5 1418/2/5 1433/2/5
f 1435/2/5 1418/2/5 1434/2/5
f 1436/2/5 1418/2/5 1435/2/5
f 1437/2/5 1418/2/5 1436/2/5
f 1438/2/5 1418/2/5 1437/2/5
f 1439/2/5 1418/2/5 1438/2/5
f 1440/2/5 1418/2/5 1439/2/5
f 1441/2/5 1418/2/5 1440/2/5
f 1442/2/5 1418/2/5 1441/2/5
f 1443/2/5 1418/2/5 1442/2/5
f 1444/2/5 1418/2/5 1443/2/5
f 1445/2/5 1418/2/5 1444/2/5
f 1446/2/5 1418/2/5 1445/2/5
f 1447/2/5 1418/2/5 1446/2/5
f 1448/2/5 1418/2/5 1447/2/5
f 1449/2/5 1418/2/5 1448/2/5
f 1450/2/5 1418/2/5 1449/2/5
f 1451/2/5 1421/2/5 1420/2/5
f 1452/2/5 1421/2/5 1451/2/5
f 1455/2/5 1454/2/5 1453/2/5
f 1456/2/5 1454/2/5 1455/2/5
f 1457/2/5 1454/2/5 1456/2/5
f 1458/2/5 1454/2/5 1457/2/5
f 1459/2/5 1454/2/5 1458/2/5
f 1460/2/5 1454/2/5 1459/2/5
f 1461/2/5 1454/2/5 1460/2/5
f 1462/2/5 1454/2/5 1461/2/5
f 1463/2/5 1454/2/5 1462/2/5
f 1464/2/5 1454/2/5 1463/2/5
f 1465/2/5 1454/2/5 1464/2/5
f 1466/2/5 1454/2/5 1465/2/5
f 1467/2/5 1454/2/5 1466/2/5
f 1468/2/5 1454/2/5 1467/2/5
f 1469/2/5 1454/2/5 1468/2/5
f 1470/2/5 1454/2/5 1469/2/5
f 1472/2/5 1454/2/5 1470/2/5
f 1473/2/5 1454/2/5 1472/2/5
f 1475/2/5 1472/2/5 1471/2/5
f 1475/2/5 1474/2/5 1473/2/5
f 1475/2/5 1473/2/5 1472/2/5
f 1476/2/5 1474/2/5 1475/2/5
f 1477/2/5 1474/2/5 1476/2/5
f 1478/2/5 1474/2/5 1477/2/5
f 1479/2/5 1474/2/5 1478/2/5
f 1480/2/5 1474/2/5 1479/2/5
f 1481/2/5 1474/2/5 1480/2/5
f 1482/2/5 1474/2/5 1481/2/5
f 1483/2/5 1474/2/5 1482/2/5
f 1484/2/5 1474/2/5 1483/2/5
f 1485/2/5 1474/2/5 1484/2/5
f 1486/2/5 1474/2/5 1485/2/5
f 1487/2/5 1474/2/5 1486/2/5
f 1488/2/5 1474/2/5 1487/2/5
f 1489/2/5 1474/2/5 1488/2/5
f 1490/2/5 1474/2/5 1489/2/5
f 1491/2/5 1474/2/5 1490/2/5
f 1492/2/5 1474/2/5 1491/2/5
f 1493/2/5 1474/2/5 1492/2/5
f 1494/2/5 1474/2/5 1493/2/5
f 1495/2/5 1474/2/5 1494/2/5
f 1496/2/5 1474/2/5 1495/2/5
f 1497/2/5 1474/2/5 1496/2/5
f 1498/2/5 1474/2/5 1497/2/5
f 1499/2/5 1474/2/5 1498/2/5
f 1500/2/5 1474/2/5 1499/2/5
f 1501/2/5 1474/2/5 1500/2/5
f 1502/2/5 1474/2/5 1501/2/5
f 1503/2/5 1474/2/5 1502/2/5
f 1504/2/5 1474/2/5 1503/2/5
f 1505/2/5 1474/2/5 1504/2/5
f 1506/2/5 1474/2/5 1505/2/5
f 1507/2/5 1477/2/5 1476/2/5
f 1508/2/5 1477/2/5 1507/2/5
f 1511/2/5 1510/2/5 1509/2/5
f 1512/2/5 1510/2/5 1511/2/5
f 1513/2/5 1510/2/5 1512/2/5
f 1514/2/5 1510/2/5 1513/2/5
f 1515/2/5 1510/2/5 1514/2/5
f 1516/2/5 1510/2/5 1515/2/5
f 1517/2/5 1510/2/5 1516/2/5
f 1518/2/5 1510/2/5 1517/2/5
f 1519/2/5 1510/2/5 1518/2/5
f 1520/2/5 1510/2/5 1519/2/5
f 1521/2/5 1510/2/5 1520/2/5
f 1522/2/5 1510/2/5 1521/2/5
f 1523/2/5 1510/2/5 1522/2/5
f 1524/2/5 1510/2/5 1523/2/5
f 1525/2/5 1510/2/5 1524/2/5
f 1526/2/5 1510/2/5 1525/2/5
f 1528/2/5 1510/2/5 1526/2/5
f 1529/2/5 1510/2/5 1528/2/5
f 1531/2/5 1528/2/5 1527/2/5
f 1531/2/5 1530/2/5 1529/2/5
f 1531/2/5 1529/2/5 1528/2/5
f 1532/2/5 1530/2/5 1531/2/5
f 1533/2/5 1530/2/5 1532/2/5
f 1534/2/5 1530/2/5 1533/2/5
f 1535/2/5 1530/2/5 1534/2/5
f 1536/2/5 1530/2/5 1535/2/5
f 1537/2/5 1530/2/5 1536/2/5
f 1538/2/5 1530/2/5 1537/2/5
f 1539/2/5 1530/2/5 1538/2/5
f 1540/2/5 1530/2/5 1539/2/5
f 1541/2/5 1530/2/5 1540/2/5
f 1542/2/5 1530/2/5 1541/2/5
f 1543/2/5 1530/2/5 1542/2/5
f 1544/2/5 1530/2/5 1543/2/5
f 1545/2/5 1530/2/5 1544/2/5
f 1546/2/5 1530/2/5 1545/2/5
f 1547/2/5 1530/2/5 1546/2/5
f 1548/2/5 1530/2/5 1547/2/5
f 1549/2/5 1530/2/5 1548/2/5
f 1550/2/5 1530/2/5 1549/2/5
f 1551/2/5 1530/2/5 1550/2/5
f 1552/2/5 1530/2/5 1551/2/5
f 1553/2/5 1530/2/5 1552/2/5
f 1554/2/5 1530/2/5 1553/2/5
f 1555/2/5 1530/2/5 1554/2/5
f 1556/2/5 1530/2/5 1555/2/5
f 1557/2/5 1530/2/5 1556/2/5
f 1558/2/5 1530/2/5 1557/2/5
f 1559/2/5 1530/2/5 1558/2/5
f 1560/2/5 1530/2/5 1559/2/5
f 1561/2/5 1530/2/5 1560/2/5
f 1562/2/5 1530/2/5 1561/2/5
f 1563/2/5 1533/2/5 1532/2/5
f 1564/2/5 1533/2/5 1563/2/5
f 1565/2/6 1566/2/6 1567/2/6
f 1567/2/6 1566/2/6 1568/2/6
f 1568/2/6 1566/2/6 1569/2/6
f 1569/2/6 1566/2/6 1570/2/6
f 1570/2/6 1566/2/6 1571/2/6
f 1571/2/6 1566/2/6 1572/2/6
f 1572/2/6 1566/2/6 1573/2/6
f 1573/2/6 1566/2/6 1574/2/6
f 1574/2/6 1566/2/6 1575/2/6
f 1575/2/6 1566/2/6 1576/2/6
f 1576/2/6 1566/2/6 1577/2/6
f 1577/2/6 1566/2/6 1578/2/6
f 1578/2/6 1566/2/6 1579/2/6
f 1579/2/6 1566/2/6 1580/2/6
f 1580/2/6 1566/2/6 1581/2/6
f 1581/2/6 1566/2/6 1582/2/6
f 1582/2/6 1566/2/6 1584/2/6
f 1584/2/6 1566/2/6 1585/2/6
f 1583/2/6 1584/2/6 1587/2/6
f 1585/2/6 1586/2/6 1587/2/6
f 1584/2/6 1585/2/6 1587/2/6
f 1587/2/6 1586/2/6 1588/2/6
f 1588/2/6 1586/2/6 1589/2/6
f 1589/2/6 1586/2/6 1590/2/6
f 1590/2/6 1586/2/6 1591/2/6
f 1591/2/6 1586/2/6 1592/2/6
f 1592/2/6 1586/2/6 1593/2/6
f 1593/2/6 1586/2/6 1594/2/6
f 1594/2/6 1586/2/6 1595/2/6
f 1595/2/6 1586/2/6 1596/2/6
f 1596/2/6 1586/2/6 1597/2/6
f 1597/2/6 1586/2/6 1598/2/6
f 1598/2/6 1586/2/6 1599/2/6
f 1599/2/6 1586/2/6 1600/2/6
f 1600/2/6 1586/2/6 1601/2/6
f 1601/2/6 1586/2/6 1602/2/6
f 1602/2/6 1586/2/6 1603/2/6
f 1603/2/6 1586/2/6 1604/2/6
f 1604/2/6 1586/2/6 1605/2/6
f 1605/2/6 1586/2/6 1606/2/6
f 1606/2/6 1586/2/6 1607/2/6
f 1607/2/6 1586/2/6 1608/2/6
f 1608/2/6 1586/2/6 1609/2/6
f 1609/2/6 1586/2/6 1610/2/6
f 1610/2/6 1586/2/6 1611/2/6
f 1611/2/6 1586/2/6 1612/2/6
f 1612/2/6 1586/2/6 1613/2/6
f 1613/2/6 1586/2/6 1614/2/6
f 1614/2/6 1586/2/6 1615/2/6
f 1615/2/6 1586/2/6 1616/2/6
f 1616/2/6 1586/2/6 1617/2/6
f 1617/2/6 1586/2/6 1618/2/6
f 1588/2/6 1589/2/6 1619/2/6
f 1619/2/6 1589/2/6 1620/2/6
f 1621/2/6 1622/2/6 1623/2/6
f 1623/2/6 1622/2/6 1624/2/6
f 1624/2/6 1622/2/6 1625/2/6
f 1625/2/6 1622/2/6 1626/2/6
f 1626/2/6 1622/2/6 1627/2/6
f 1627/2/6 1622/2/6 1628/2/6
f 1628/2/6 1622/2/6 1629/2/6
f 1629/2/6 1622/2/6 1630/2/6
f 1630/2/6 1622/2/6 1631/2/6
f 1631/2/6 1622/2/6 1632/2/6
f 1632/2/6 1622/2/6 1633/2/6
f 1633/2/6 1622/2/6 1634/2/6
f 1634/2/6 1622/2/6 1635/2/6
f 1635/2/6 1622/2/6 1636/2/6
f 1636/2/6 1622/2/6 1637/2/6
f 1637/2/6 1622/2/6 1638/2/6
f 1638/2/6 1622/2/6 1640/2/6
f 1640/2/6 1622/2/6 1641/2/6
f 1639/2/6 1640/2/6 1643/2/6
f 1641/2/6 1642/2/6 1643/2/6
f 1640/2/6 1641/2/6 1643/2/6
f 1643/2/6 1642/2/6 1644/2/6
f 1644/2/6 1642/2/6 1645/2/6
f 1645/2/6 1642/2/6 1646/2/6
f 1646/2/6 1642/2/6 1647/2/6
f 1647/2/6 1642/2/6 1648/2/6
f 1648/2/6 1642/2/6 1649/2/6
f 1649/2/6 1642/2/6 1650/2/6
f 1650/2/6 1642/2/6 1651/2/6
f 1651/2/6 1642/2/6 1652/2/6
f 1652/2/6 1642/2/6 1653/2/6
f 1653/2/6 1642/2/6 1654/2/6
f 1654/2/6 1642/2/6 1655/2/6
f 1655/2/6 1642/2/6 1656/2/6
f 1656/2/6 1642/2/6 1657/2/6
f 1657/2/6 1642/2/6 1658/2/6
f 1658/2/6 1642/2/6 1659/2/6
f 1659/2/6 1642/2/6 1660/2/6
f 1660/2/6 1642/2/6 1661/2/6
f 1661/2/6 1642/2/6 1662/2/6
f 1662/2/6 1642/2/6 1663/2/6
f 1663/2/6 1642/2/6 1664/2/6
f 1664/2/6 1642/2/6 1665/2/6
f 1665/2/6 1642/2/6 1666/2/6
f 1666/2/6 1642/2/6 1667/2/6
f 1667/2/6 1642/2/6 1668/2/6
f 1668/2/6 1642/2/6 1669/2/6
f 1669/2/6 1642/2/6 1670/2/6
f 1670/2/6 1642/2/6 1671/2/6
f 1671/2/6 1642/2/6 1672/2/6
f 1672/2/6 1642/2/6 1673/2/6
f 1673/2/6 1642/2/6 1674/2/6
f 1644/2/6 1645/2/6 1675/2/6
f 1675/2/6 1645/2/6 1676/2/6
f 1677/2/6 1678/2/6 1679/2/6
f 1679/2/6 1678/2/6 1680/2/6
f 1680/2/6 1678/2/6 1681/2/6
f 1681/2/6 1678/2/6 1682/2/6
f 1682/2/6 1678/2/6 1683/2/6
f 1683/2/6 1678/2/6 1684/2/6
f 1684/2/6 1678/2/6 1685/2/6
f 1685/2/6 1678/2/6 1686/2/6
f 1686/2/6 1678/2/6 1687/2/6
f 1687/2/6 1678/2/6 1688/2/6
f 1688/2/6 1678/2/6 1689/2/6
f 1689/2/6 1678/2/6 1690/2/6
f 1690/2/6 1678/2/6 1691/2/6
f 1691/2/6 1678/2/6 1692/2/6
f 1692/2/6 1678/2/6 1693/2/6
f 1693/2/6 1678/2/6 1694/2/6
f 1694/2/6 1678/2/6 1696/2/6
f 1696/2/6 1678/2/6 1697/2/6
f 1695/2/6 1696/2/6 1699/2/6
f 1697/2/6 1698/2/6 1699/2/6
f 1696/2/6 1697/2/6 1699/2/6
f 1699/2/6 1698/2/6 1700/2/6
f 1700/2/6 1698/2/6 1701/2/6
f 1701/2/6 1698/2/6 1702/2/6
f 1702/2/6 1698/2/6 1703/2/6
f 1703/2/6 1698/2/6 1704/2/6
f 1704/2/6 1698/2/6 1705/2/6
f 1705/2/6 1698/2/6 1706/2/6
f 1706/2/6 1698/2/6 1707/2/6
f 1707/2/6 1698/2/6 1708/2/6
f 1708/2/6 1698/2/6 1709/2/6
f 1709/2/6 1698/2/6 1710/2/6
f 1710/2/6 1698/2/6 1711/2/6
f 1711/2/6 1698/2/6 1712/2/6
f 1712/2/6 1698/2/6 1713/2/6
f 1713/2/6 1698/2/6 1714/2/6
f 1714/2/6 1698/2/6 1715/2/6
f 1715/2/6 1698/2/6 1716/2/6
f 1716/2/6 1698/2/6 1717/2/6
f 1717/2/6 1698/2/6 1718/2/6
f 1718/2/6 1698/2/6 1719/2/6
f 1719/2/6 1698/2/6 1720/2/6
f 1720/2/6 1698/2/6 1721/2/6
f 1721/2/6 1698/2/6 1722/2/6
f 1722/2/6 1698/2/6 1723/2/6
f 1723/2/6 1698/2/6 1724/2/6
f 1724/2/6 1698/2/6 1725/2/6
f 1725/2/6 1698/2/6 1726/2/6
f 1726/2/6 1698/2/6 1727/2/6
f 1727/2/6 1698/2/6 1728/2/6
f 1728/2/6 1698/2/6 1729/2/6
f 1729/2/6 1698/2/6 1730/2/6
f 1700/2/6 1701/2/6 1731/2/6
f 1731/2/6 1701/2/6 1732/2/6
f 1733/1/6 1734/1/6 1735/1/6
f 1735/1/6 1734/1/6 1736/1/6
f 1737/1/6 1738/1/6 1739/1/6
f 1739/1/6 1738/1/6 1740/1/6
f 1741/1/6 1742/1/6 1743/1/6
f 1743/1/6 1742/1/6 1744/1/6
f 1745/1/6 1746/1/6 1747/1/6
f 1747/1/6 1746/1/6 1748/1/6
f 1749/1/6 1750/1/6 1751/1/6
f 1751/1/6 1750/1/6 1752/1/6
f 1753/1/6 1754/1/6 1755/1/6
f 1755/1/6 1754/1/6 1756/1/6
f 1757/1/6 1758/1/6 1759/1/6
f 1759/1/6 1758/1/6 1760/1/6
f 1761/1/6 1762/1/6 1763/1/6
f 1763/1/6 1762/1/6 1764/1/6
f 1765/1/6 1766/1/6 1795/1/6
f 1795/1/6 1766/1/6 1796/1/6
f 1767/1/6 1768/1/6 1797/1/6
f 1797/1/6 1768/1/6 1798/1/6
f 1769/1/6 1770/1/6 1799/1/6
f 1799/1/6 1770/1/6 1800/1/6
f 1771/1/6 1772/1/6 1801/1/6
f 1801/1/6 1772/1/6 1802/1/6
f 1773/1/6 1774/1/6 1803/1/6
f 1803/1/6 1774/1/6 1804/1/6
f 1775/1/6 1776/1/6 1805/1/6
f 1805/1/6 1776/1/6 1806/1/6
f 1777/1/6 1778/1/6 1807/1/6
f 1807/1/6 1778/1/6 1808/1/6
f 1779/1/6 1780/1/6 1809/1/6
f 1809/1/6 1780/1/6 1810/1/6
f 1781/1/6 1782/1/6 1811/1/6
f 1811/1/6 1782/1/6 1812/1/6
f 1783/1/6 1784/1/6 1813/1/6
f 1813/1/6 1784/1/6 1814/1/6
f 1785/1/6 1786/1/6 1815/1/6
f 1815/1/6 1786/1/6 1816/1/6
f 1787/1/6 1788/1/6 1817/1/6
f 1817/1/6 1788/1/6 1818/1/6
f 1789/1/6 1790/1/6 1819/1/6
f 1819/1/6 1790/1/6 1820/1/6
f 1791/1/6 1792/1/6 1821/1/6
f 1821/1/6 1792/1/6 1822/1/6
f 1793/1/6 1794/1/6 1823/1/6
f 1823/1/6 1794/1/6 1824/1/6
