# MagicaVoxel @ Ephtracy

# group
o 

# material
mtllib granjafinal_chancho3.mtl
usemtl palette

# normals
vn 0 1 0
vn 0 -1 0
vn -1 0 0
vn 1 0 0
vn 0 0 1
vn 0 0 -1

# texcoords
vt 0.396484 0.5
vt 0.416016 0.5
vt 0.423828 0.5

# verts
v 3.3 5.2 2.9
v 3.4 5.2 2.9
v 3.3 5.2 2.8
v 3.4 5.2 2.8
v 3.3 5.1 3.2
v 3.4 5.1 3.2
v 3.7 5.1 3.2
v 3.8 5.1 3.2
v 3.3 5.1 3.1
v 3.4 5.1 3.1
v 3.6 5.1 3.1
v 3.7 5.1 3.1
v 3.8 5.1 3.1
v 3.2 5.1 3
v 3.3 5.1 3
v 3.6 5.1 3
v 3.7 5.1 3
v 3.3 5.1 2.9
v 3.4 5.1 2.9
v 3.5 5.1 2.9
v 3.6 5.1 2.9
v 3.7 5.1 2.9
v 3.8 5.1 2.9
v 3.9 5.1 2.9
v 3.2 5.1 2.8
v 3.3 5.1 2.8
v 3.4 5.1 2.8
v 3.5 5.1 2.8
v 3.6 5.1 2.8
v 3.8 5.1 2.8
v 3.9 5.1 2.8
v 3.1 5 3
v 3.2 5 3
v 3.8 5 3
v 3.9 5 3
v 3.1 5 2.9
v 3.2 5 2.9
v 3.8 5 2.9
v 3.9 5 2.9
v 3.3 4.9 3.2
v 3.4 4.9 3.2
v 3.7 4.9 3.2
v 3.8 4.9 3.2
v 3.3 4.9 3.1
v 3.4 4.9 3.1
v 3.7 4.9 3.1
v 3.8 4.9 3.1
v 3.3 5 3.2
v 3.4 5 3.2
v 3.7 5 3.2
v 3.8 5 3.2
v 3.3 5 3.1
v 3.4 5 3.1
v 3.7 5 3.1
v 3.8 5 3.1
v 3.8 5 2.9
v 3.9 5 2.9
v 3.8 5 2.8
v 3.9 5 2.8
v 3.1 4.9 3
v 3.2 4.9 3
v 3.8 4.9 3
v 3.9 4.9 3
v 3.1 4.9 2.9
v 3.2 4.9 2.9
v 3.8 4.9 2.9
v 3.9 4.9 2.9
v 3.3 4.8 3.2
v 3.4 4.8 3.2
v 3.7 4.8 3.2
v 3.8 4.8 3.2
v 3.3 4.8 3.1
v 3.4 4.8 3.1
v 3.6 4.8 3.1
v 3.7 4.8 3.1
v 3.8 4.8 3.1
v 3.2 4.8 3
v 3.3 4.8 3
v 3.4 4.8 3
v 3.6 4.8 3
v 3.2 4.8 2.9
v 3.3 4.8 2.9
v 3.4 4.8 2.9
v 3.2 4.8 2.8
v 3.3 4.8 2.8
v 3.4 4.8 2.8
v 3.8 4.8 2.8
v 3.3 4.7 2.9
v 3.4 4.7 2.9
v 3.3 4.7 2.8
v 3.4 4.7 2.8
v 3.1 5 3
v 3.1 5 2.9
v 3.1 4.9 3
v 3.1 4.9 2.9
v 3.2 5.1 3
v 3.2 5.1 2.8
v 3.2 5 3
v 3.2 5 2.9
v 3.2 5 2.8
v 3.2 4.9 3
v 3.2 4.9 2.9
v 3.2 4.9 2.8
v 3.2 4.8 3
v 3.2 4.8 2.9
v 3.2 4.8 2.8
v 3.3 5.2 2.9
v 3.3 5.2 2.8
v 3.3 5.1 3.2
v 3.3 5.1 3.1
v 3.3 5.1 3
v 3.3 5.1 2.9
v 3.3 5.1 2.8
v 3.3 5 3.2
v 3.3 5 3.1
v 3.3 5 3
v 3.3 4.9 3.2
v 3.3 4.9 3.1
v 3.3 4.9 3
v 3.3 4.8 3.2
v 3.3 4.8 3.1
v 3.3 4.8 3
v 3.3 4.8 2.9
v 3.3 4.8 2.8
v 3.3 4.7 2.9
v 3.3 4.7 2.8
v 3.7 5.1 3.2
v 3.7 5.1 3.1
v 3.7 5 3.2
v 3.7 5 3.1
v 3.7 4.9 3.2
v 3.7 4.9 3.1
v 3.7 4.8 3.2
v 3.7 4.8 3.1
v 3.4 5.2 2.9
v 3.4 5.2 2.8
v 3.4 5.1 3.2
v 3.4 5.1 3.1
v 3.4 5.1 2.9
v 3.4 5.1 2.8
v 3.4 5 3.2
v 3.4 5 3.1
v 3.4 4.9 3.2
v 3.4 4.9 3.1
v 3.4 4.8 3.2
v 3.4 4.8 3.1
v 3.4 4.8 2.9
v 3.4 4.8 2.8
v 3.4 4.7 2.9
v 3.4 4.7 2.8
v 3.8 5.1 3.2
v 3.8 5.1 3.1
v 3.8 5.1 2.9
v 3.8 5 3.2
v 3.8 5 3.1
v 3.8 5 3
v 3.8 5 2.9
v 3.8 5 2.8
v 3.8 4.9 3.2
v 3.8 4.9 3.1
v 3.8 4.9 3
v 3.8 4.9 2.9
v 3.8 4.8 3.2
v 3.8 4.8 3.1
v 3.8 4.8 2.8
v 3.9 5.1 2.9
v 3.9 5.1 2.8
v 3.9 5 3
v 3.9 5 2.9
v 3.9 5 2.8
v 3.9 4.9 3
v 3.9 4.9 2.9
v 3.3 5.1 3.2
v 3.3 5 3.2
v 3.3 4.9 3.2
v 3.3 4.8 3.2
v 3.4 5.1 3.2
v 3.4 5 3.2
v 3.4 4.9 3.2
v 3.4 4.8 3.2
v 3.7 5.1 3.2
v 3.7 5 3.2
v 3.7 4.9 3.2
v 3.7 4.8 3.2
v 3.8 5.1 3.2
v 3.8 5 3.2
v 3.8 4.9 3.2
v 3.8 4.8 3.2
v 3.3 5 3.1
v 3.3 4.9 3.1
v 3.4 5.1 3.1
v 3.4 5 3.1
v 3.4 4.9 3.1
v 3.4 4.8 3.1
v 3.6 5.1 3.1
v 3.6 4.8 3.1
v 3.7 5.1 3.1
v 3.7 5 3.1
v 3.7 4.9 3.1
v 3.7 4.8 3.1
v 3.8 5 3.1
v 3.8 4.9 3.1
v 3.1 5 3
v 3.1 4.9 3
v 3.2 5.1 3
v 3.2 5 3
v 3.2 4.9 3
v 3.2 4.8 3
v 3.3 5.1 3
v 3.3 5 3
v 3.3 4.9 3
v 3.3 4.8 3
v 3.8 5 3
v 3.8 4.9 3
v 3.9 5 3
v 3.9 4.9 3
v 3.3 5.2 2.9
v 3.3 5.1 2.9
v 3.3 4.8 2.9
v 3.3 4.7 2.9
v 3.4 5.2 2.9
v 3.4 5.1 2.9
v 3.4 4.8 2.9
v 3.4 4.7 2.9
v 3.8 5.1 2.9
v 3.8 5 2.9
v 3.9 5.1 2.9
v 3.9 5 2.9
v 3.1 5 2.9
v 3.1 4.9 2.9
v 3.2 5 2.9
v 3.2 4.9 2.9
v 3.8 5 2.9
v 3.8 4.9 2.9
v 3.9 5 2.9
v 3.9 4.9 2.9
v 3.2 5.1 2.8
v 3.2 5 2.8
v 3.2 4.9 2.8
v 3.2 4.8 2.8
v 3.3 5.2 2.8
v 3.3 5.1 2.8
v 3.3 5 2.8
v 3.3 4.9 2.8
v 3.3 4.8 2.8
v 3.3 4.7 2.8
v 3.4 5.2 2.8
v 3.4 5.1 2.8
v 3.4 4.8 2.8
v 3.4 4.7 2.8
v 3.5 5.1 2.8
v 3.5 5 2.8
v 3.6 5.1 2.8
v 3.6 5 2.8
v 3.8 5.1 2.8
v 3.8 5 2.8
v 3.8 4.8 2.8
v 3.9 5.1 2.8
v 3.9 5 2.8

# faces
f 1/2/1 2/2/1 3/2/1
f 3/2/1 2/2/1 4/2/1
f 5/1/1 6/1/1 9/1/1
f 9/1/1 6/1/1 10/1/1
f 7/2/1 8/2/1 12/2/1
f 12/2/1 8/2/1 13/2/1
f 9/3/1 10/3/1 15/3/1
f 10/1/1 11/1/1 16/1/1
f 11/3/1 12/3/1 16/3/1
f 12/3/1 13/3/1 16/3/1
f 16/3/1 13/3/1 17/3/1
f 14/3/1 15/3/1 18/3/1
f 15/3/1 10/3/1 18/3/1
f 16/1/1 17/1/1 19/1/1
f 18/3/1 10/3/1 19/3/1
f 10/1/1 16/1/1 19/1/1
f 19/1/1 17/1/1 20/1/1
f 20/1/1 17/1/1 21/1/1
f 17/3/1 13/3/1 22/3/1
f 21/1/1 17/1/1 22/1/1
f 22/3/1 13/3/1 23/3/1
f 14/3/1 18/3/1 25/3/1
f 25/3/1 18/3/1 26/3/1
f 19/3/1 20/3/1 27/3/1
f 20/1/1 21/1/1 28/1/1
f 27/3/1 20/3/1 28/3/1
f 22/3/1 23/3/1 29/3/1
f 28/1/1 21/1/1 29/1/1
f 21/3/1 22/3/1 29/3/1
f 23/2/1 24/2/1 30/2/1
f 29/3/1 23/3/1 30/3/1
f 30/2/1 24/2/1 31/2/1
f 32/1/1 33/1/1 36/1/1
f 36/1/1 33/1/1 37/1/1
f 34/2/1 35/2/1 38/2/1
f 38/2/1 35/2/1 39/2/1
f 40/1/1 41/1/1 44/1/1
f 44/1/1 41/1/1 45/1/1
f 42/2/1 43/2/1 46/2/1
f 46/2/1 43/2/1 47/2/1
f 52/1/2 49/1/2 48/1/2
f 53/1/2 49/1/2 52/1/2
f 54/2/2 51/2/2 50/2/2
f 55/2/2 51/2/2 54/2/2
f 58/2/2 57/2/2 56/2/2
f 59/2/2 57/2/2 58/2/2
f 64/1/2 61/1/2 60/1/2
f 65/1/2 61/1/2 64/1/2
f 66/2/2 63/2/2 62/2/2
f 67/2/2 63/2/2 66/2/2
f 72/1/2 69/1/2 68/1/2
f 73/1/2 69/1/2 72/1/2
f 75/2/2 71/2/2 70/2/2
f 76/2/2 71/2/2 75/2/2
f 78/3/2 73/3/2 72/3/2
f 79/1/2 74/1/2 73/1/2
f 79/3/2 73/3/2 78/3/2
f 80/3/2 75/3/2 74/3/2
f 80/1/2 74/1/2 79/1/2
f 80/3/2 76/3/2 75/3/2
f 81/1/2 78/1/2 77/1/2
f 82/3/2 79/3/2 78/3/2
f 82/1/2 78/1/2 81/1/2
f 82/3/2 80/3/2 79/3/2
f 83/3/2 80/3/2 82/3/2
f 84/3/2 82/3/2 81/3/2
f 85/3/2 82/3/2 84/3/2
f 86/3/2 80/3/2 83/3/2
f 87/3/2 76/3/2 80/3/2
f 87/3/2 80/3/2 86/3/2
f 90/2/2 89/2/2 88/2/2
f 91/2/2 89/2/2 90/2/2
f 92/1/3 93/1/3 94/1/3
f 94/1/3 93/1/3 95/1/3
f 96/3/3 97/3/3 98/3/3
f 98/3/3 97/3/3 99/3/3
f 99/3/3 97/3/3 100/3/3
f 99/1/3 100/1/3 102/1/3
f 102/1/3 100/1/3 103/1/3
f 101/1/3 102/1/3 104/1/3
f 102/3/3 103/3/3 105/3/3
f 104/1/3 102/1/3 105/1/3
f 105/3/3 103/3/3 106/3/3
f 107/2/3 108/2/3 112/2/3
f 112/2/3 108/2/3 113/2/3
f 109/1/3 110/1/3 114/1/3
f 110/3/3 111/3/3 115/3/3
f 114/1/3 110/1/3 115/1/3
f 115/3/3 111/3/3 116/3/3
f 115/1/3 116/1/3 118/1/3
f 118/1/3 116/1/3 119/1/3
f 117/1/3 118/1/3 120/1/3
f 118/3/3 119/3/3 121/3/3
f 120/1/3 118/1/3 121/1/3
f 121/3/3 119/3/3 122/3/3
f 123/2/3 124/2/3 125/2/3
f 125/2/3 124/2/3 126/2/3
f 127/2/3 128/2/3 129/2/3
f 129/2/3 128/2/3 130/2/3
f 131/2/3 132/2/3 133/2/3
f 133/2/3 132/2/3 134/2/3
f 139/2/4 136/2/4 135/2/4
f 140/2/4 136/2/4 139/2/4
f 141/1/4 138/1/4 137/1/4
f 142/1/4 138/1/4 141/1/4
f 145/1/4 144/1/4 143/1/4
f 146/1/4 144/1/4 145/1/4
f 149/2/4 148/2/4 147/2/4
f 150/2/4 148/2/4 149/2/4
f 154/2/4 152/2/4 151/2/4
f 155/3/4 153/3/4 152/3/4
f 155/2/4 152/2/4 154/2/4
f 156/3/4 153/3/4 155/3/4
f 157/3/4 153/3/4 156/3/4
f 160/3/4 156/3/4 155/3/4
f 161/3/4 156/3/4 160/3/4
f 162/3/4 158/3/4 157/3/4
f 163/2/4 160/2/4 159/2/4
f 164/3/4 161/3/4 160/3/4
f 164/2/4 160/2/4 163/2/4
f 164/3/4 162/3/4 161/3/4
f 165/3/4 158/3/4 162/3/4
f 165/3/4 162/3/4 164/3/4
f 169/2/4 167/2/4 166/2/4
f 170/2/4 167/2/4 169/2/4
f 171/2/4 169/2/4 168/2/4
f 172/2/4 169/2/4 171/2/4
f 173/1/5 174/1/5 177/1/5
f 177/1/5 174/1/5 178/1/5
f 175/1/5 176/1/5 179/1/5
f 179/1/5 176/1/5 180/1/5
f 181/2/5 182/2/5 185/2/5
f 185/2/5 182/2/5 186/2/5
f 183/2/5 184/2/5 187/2/5
f 187/2/5 184/2/5 188/2/5
f 189/1/5 190/1/5 192/1/5
f 192/1/5 190/1/5 193/1/5
f 191/1/5 192/1/5 195/1/5
f 193/1/5 194/1/5 195/1/5
f 192/1/5 193/1/5 195/1/5
f 195/1/5 194/1/5 196/1/5
f 195/3/5 196/3/5 197/3/5
f 197/3/5 196/3/5 198/3/5
f 198/3/5 196/3/5 199/3/5
f 199/3/5 196/3/5 200/3/5
f 198/3/5 199/3/5 201/3/5
f 201/3/5 199/3/5 202/3/5
f 203/1/5 204/1/5 206/1/5
f 206/1/5 204/1/5 207/1/5
f 205/3/5 206/3/5 209/3/5
f 206/3/5 207/3/5 209/3/5
f 209/3/5 207/3/5 210/3/5
f 207/1/5 208/1/5 211/1/5
f 210/3/5 207/3/5 211/3/5
f 211/1/5 208/1/5 212/1/5
f 213/2/5 214/2/5 215/2/5
f 215/2/5 214/2/5 216/2/5
f 217/2/5 218/2/5 221/2/5
f 221/2/5 218/2/5 222/2/5
f 219/2/5 220/2/5 223/2/5
f 223/2/5 220/2/5 224/2/5
f 225/2/5 226/2/5 227/2/5
f 227/2/5 226/2/5 228/2/5
f 231/1/6 230/1/6 229/1/6
f 232/1/6 230/1/6 231/1/6
f 235/2/6 234/2/6 233/2/6
f 236/2/6 234/2/6 235/2/6
f 242/3/6 238/3/6 237/3/6
f 243/1/6 239/1/6 238/1/6
f 243/3/6 238/3/6 242/3/6
f 244/3/6 240/3/6 239/3/6
f 244/1/6 239/1/6 243/1/6
f 245/3/6 240/3/6 244/3/6
f 247/2/6 242/2/6 241/2/6
f 248/3/6 243/3/6 242/3/6
f 248/2/6 242/2/6 247/2/6
f 248/3/6 244/3/6 243/3/6
f 248/3/6 245/3/6 244/3/6
f 249/2/6 246/2/6 245/2/6
f 249/3/6 245/3/6 248/3/6
f 250/2/6 246/2/6 249/2/6
f 251/3/6 249/3/6 248/3/6
f 252/3/6 249/3/6 251/3/6
f 253/1/6 252/1/6 251/1/6
f 254/3/6 249/3/6 252/3/6
f 254/1/6 252/1/6 253/1/6
f 255/3/6 254/3/6 253/3/6
f 256/3/6 249/3/6 254/3/6
f 256/3/6 254/3/6 255/3/6
f 257/3/6 249/3/6 256/3/6
f 258/2/6 256/2/6 255/2/6
f 259/2/6 256/2/6 258/2/6
