# MagicaVoxel @ Ephtracy

# group
o 

# material
mtllib granjafinal_calabazas.mtl
usemtl palette

# normals
vn 1 0 0
vn -1 0 0
vn 0 0 -1
vn 0 0 1
vn 0 -1 0
vn 0 1 0

# texcoords
vt 0.318359 0.5
vt 0.599609 0.5
vt 0.603516 0.5

# verts
v -3 4.9 -2.5
v -3 4.9 -2.4
v -3 4.9 -2.3
v -3 5 -2.5
v -3 5 -2.4
v -3 5.1 -2.5
v -3 5.1 -2.3
v -3.1 4.9 -2.6
v -3.1 4.9 -2.5
v -3.1 4.9 -2.3
v -3.1 4.9 -2.2
v -3.1 5 -2.6
v -3.1 5 -2.5
v -3.1 5 -2.3
v -3.1 5 -2.2
v -3.1 5.1 -2.6
v -3.1 5.1 -2.5
v -3.1 5.1 -2.4
v -3.1 5.1 -2.3
v -3.1 5.1 -2.2
v -3.1 5.2 -2.5
v -3.1 5.2 -2.4
v -3.1 5.2 -2.3
v -3.1 5.2 -2.2
v -3.1 5.3 -2.4
v -3.1 5.3 -2.3
v -3.2 5 -2.2
v -3.2 5 -2.1
v -3.2 5.1 -2.2
v -3.2 5.1 -2.1
v -3.4 4.9 -2.1
v -3.4 4.9 -2
v -3.4 4.9 -1.9
v -3.4 5 -2.1
v -3.4 5 -2
v -3.4 5 -1.9
v -3.5 4.9 -2.2
v -3.5 4.9 -2.1
v -3.5 4.9 -1.9
v -3.5 4.9 -1.8
v -3.5 5 -2.2
v -3.5 5 -2.1
v -3.5 5 -2
v -3.5 5 -1.9
v -3.5 5 -1.8
v -3.5 5.1 -2.2
v -3.5 5.1 -2.1
v -3.5 5.1 -2
v -3.5 5.1 -1.9
v -3.6 4.9 -2.3
v -3.6 4.9 -2.2
v -3.6 5 -2.3
v -3.6 5 -2.2
v -3.6 5.1 -2.1
v -3.6 5.1 -2
v -3.6 5.2 -2.1
v -3.6 5.2 -2
v -3.2 5.1 -2.3
v -3.2 5.1 -2.2
v -3.2 5.2 -2.4
v -3.2 5.2 -2.3
v -3.2 5.2 -2.2
v -3.2 5.3 -2.4
v -3.2 5.3 -2.3
v -3.3 4.9 -2.6
v -3.3 4.9 -2.5
v -3.3 4.9 -2.3
v -3.3 4.9 -2.2
v -3.3 5 -2.6
v -3.3 5 -2.5
v -3.3 5 -2.3
v -3.3 5 -2.2
v -3.3 5 -2.1
v -3.3 5.1 -2.6
v -3.3 5.1 -2.5
v -3.3 5.1 -2.4
v -3.3 5.1 -2.3
v -3.3 5.1 -2.2
v -3.3 5.1 -2.1
v -3.3 5.2 -2.5
v -3.3 5.2 -2.4
v -3.3 5.2 -2.3
v -3.4 4.9 -2.5
v -3.4 4.9 -2.4
v -3.4 4.9 -2.3
v -3.4 5 -2.4
v -3.4 5 -2.3
v -3.4 5.1 -2.5
v -3.4 5.1 -2.3
v -3.6 5 -2.2
v -3.6 5 -2.1
v -3.6 5.1 -2.2
v -3.6 5.1 -2.1
v -3.7 4.9 -2.3
v -3.7 4.9 -2.2
v -3.7 4.9 -2.1
v -3.7 4.9 -1.9
v -3.7 4.9 -1.8
v -3.7 5 -2.3
v -3.7 5 -2.2
v -3.7 5 -2.1
v -3.7 5 -2
v -3.7 5 -1.9
v -3.7 5 -1.8
v -3.7 5.1 -2.1
v -3.7 5.1 -2
v -3.7 5.1 -1.9
v -3.7 5.2 -2.1
v -3.7 5.2 -2
v -3.8 4.9 -2.1
v -3.8 4.9 -2
v -3.8 4.9 -1.9
v -3.8 5 -2.1
v -3.8 5 -2
v -3.8 5 -1.9
v -3.1 4.9 -2.6
v -3.1 5 -2.6
v -3.1 5.1 -2.6
v -3.2 4.9 -2.6
v -3.2 5 -2.6
v -3.2 5.1 -2.6
v -3.3 4.9 -2.6
v -3.3 5 -2.6
v -3.3 5.1 -2.6
v -3 4.9 -2.5
v -3 5 -2.5
v -3 5.1 -2.5
v -3.1 4.9 -2.5
v -3.1 5 -2.5
v -3.1 5.1 -2.5
v -3.1 5.2 -2.5
v -3.2 5.1 -2.5
v -3.2 5.2 -2.5
v -3.3 4.9 -2.5
v -3.3 5 -2.5
v -3.3 5.1 -2.5
v -3.3 5.2 -2.5
v -3.4 4.9 -2.5
v -3.4 5.1 -2.5
v -3.1 5.2 -2.4
v -3.1 5.3 -2.4
v -3.2 5.2 -2.4
v -3.2 5.3 -2.4
v -3.6 4.9 -2.3
v -3.6 5 -2.3
v -3.7 4.9 -2.3
v -3.7 5 -2.3
v -3.5 4.9 -2.2
v -3.5 5 -2.2
v -3.5 5.1 -2.2
v -3.6 4.9 -2.2
v -3.6 5 -2.2
v -3.6 5.1 -2.2
v -3.4 4.9 -2.1
v -3.4 5 -2.1
v -3.5 4.9 -2.1
v -3.5 5 -2.1
v -3.6 5 -2.1
v -3.6 5.1 -2.1
v -3.6 5.2 -2.1
v -3.7 4.9 -2.1
v -3.7 5 -2.1
v -3.7 5.1 -2.1
v -3.7 5.2 -2.1
v -3.8 4.9 -2.1
v -3.8 5 -2.1
v -3 4.9 -2.3
v -3 5.1 -2.3
v -3.1 4.9 -2.3
v -3.1 5 -2.3
v -3.1 5.1 -2.3
v -3.1 5.2 -2.3
v -3.1 5.3 -2.3
v -3.2 5.1 -2.3
v -3.2 5.2 -2.3
v -3.2 5.3 -2.3
v -3.3 4.9 -2.3
v -3.3 5 -2.3
v -3.3 5.1 -2.3
v -3.3 5.2 -2.3
v -3.4 4.9 -2.3
v -3.4 5 -2.3
v -3.4 5.1 -2.3
v -3.1 4.9 -2.2
v -3.1 5 -2.2
v -3.1 5.1 -2.2
v -3.1 5.2 -2.2
v -3.2 4.9 -2.2
v -3.2 5 -2.2
v -3.2 5.1 -2.2
v -3.2 5.2 -2.2
v -3.3 4.9 -2.2
v -3.3 5 -2.2
v -3.2 5 -2.1
v -3.2 5.1 -2.1
v -3.3 5 -2.1
v -3.3 5.1 -2.1
v -3.6 5.1 -2
v -3.6 5.2 -2
v -3.7 5.1 -2
v -3.7 5.2 -2
v -3.4 4.9 -1.9
v -3.4 5 -1.9
v -3.5 4.9 -1.9
v -3.5 5 -1.9
v -3.5 5.1 -1.9
v -3.6 5 -1.9
v -3.6 5.1 -1.9
v -3.7 4.9 -1.9
v -3.7 5 -1.9
v -3.7 5.1 -1.9
v -3.8 4.9 -1.9
v -3.8 5 -1.9
v -3.5 4.9 -1.8
v -3.5 5 -1.8
v -3.6 4.9 -1.8
v -3.6 5 -1.8
v -3.7 4.9 -1.8
v -3.7 5 -1.8
v -3.1 4.9 -2.6
v -3.2 4.9 -2.6
v -3.3 4.9 -2.6
v -3 4.9 -2.5
v -3.1 4.9 -2.5
v -3.2 4.9 -2.5
v -3.3 4.9 -2.5
v -3.4 4.9 -2.5
v -3 4.9 -2.4
v -3.1 4.9 -2.4
v -3.3 4.9 -2.4
v -3.4 4.9 -2.4
v -3 4.9 -2.3
v -3.1 4.9 -2.3
v -3.2 4.9 -2.3
v -3.3 4.9 -2.3
v -3.4 4.9 -2.3
v -3.6 4.9 -2.3
v -3.7 4.9 -2.3
v -3.1 4.9 -2.2
v -3.2 4.9 -2.2
v -3.3 4.9 -2.2
v -3.5 4.9 -2.2
v -3.6 4.9 -2.2
v -3.7 4.9 -2.2
v -3.4 4.9 -2.1
v -3.5 4.9 -2.1
v -3.6 4.9 -2.1
v -3.7 4.9 -2.1
v -3.8 4.9 -2.1
v -3.4 4.9 -2
v -3.5 4.9 -2
v -3.7 4.9 -2
v -3.8 4.9 -2
v -3.4 4.9 -1.9
v -3.5 4.9 -1.9
v -3.6 4.9 -1.9
v -3.7 4.9 -1.9
v -3.8 4.9 -1.9
v -3.5 4.9 -1.8
v -3.6 4.9 -1.8
v -3.7 4.9 -1.8
v -3.2 5 -2.2
v -3.3 5 -2.2
v -3.2 5 -2.1
v -3.3 5 -2.1
v -3.6 5 -2.3
v -3.7 5 -2.3
v -3.6 5 -2.2
v -3.7 5 -2.2
v -3.4 5 -2.1
v -3.5 5 -2.1
v -3.6 5 -2.1
v -3.7 5 -2.1
v -3.8 5 -2.1
v -3.4 5 -2
v -3.5 5 -2
v -3.7 5 -2
v -3.8 5 -2
v -3.4 5 -1.9
v -3.5 5 -1.9
v -3.6 5 -1.9
v -3.7 5 -1.9
v -3.8 5 -1.9
v -3.5 5 -1.8
v -3.6 5 -1.8
v -3.7 5 -1.8
v -3.1 5.1 -2.6
v -3.2 5.1 -2.6
v -3.3 5.1 -2.6
v -3 5.1 -2.5
v -3.1 5.1 -2.5
v -3.2 5.1 -2.5
v -3.3 5.1 -2.5
v -3.4 5.1 -2.5
v -3.1 5.1 -2.4
v -3.3 5.1 -2.4
v -3 5.1 -2.3
v -3.1 5.1 -2.3
v -3.2 5.1 -2.3
v -3.3 5.1 -2.3
v -3.4 5.1 -2.3
v -3.2 5.1 -2.2
v -3.3 5.1 -2.2
v -3.5 5.1 -2.2
v -3.6 5.1 -2.2
v -3.2 5.1 -2.1
v -3.3 5.1 -2.1
v -3.5 5.1 -2.1
v -3.6 5.1 -2.1
v -3.5 5.1 -2
v -3.6 5.1 -2
v -3.7 5.1 -2
v -3.5 5.1 -1.9
v -3.6 5.1 -1.9
v -3.7 5.1 -1.9
v -3.1 5.2 -2.5
v -3.2 5.2 -2.5
v -3.3 5.2 -2.5
v -3.1 5.2 -2.4
v -3.2 5.2 -2.4
v -3.3 5.2 -2.4
v -3.1 5.2 -2.3
v -3.2 5.2 -2.3
v -3.3 5.2 -2.3
v -3.1 5.2 -2.2
v -3.2 5.2 -2.2
v -3.6 5.2 -2.1
v -3.7 5.2 -2.1
v -3.6 5.2 -2
v -3.7 5.2 -2
v -3.1 5.3 -2.4
v -3.2 5.3 -2.4
v -3.1 5.3 -2.3
v -3.2 5.3 -2.3

# faces
f 4/2/1 2/2/1 1/2/1
f 5/3/1 3/3/1 2/3/1
f 5/2/1 2/2/1 4/2/1
f 6/3/1 5/3/1 4/3/1
f 7/3/1 3/3/1 5/3/1
f 7/3/1 5/3/1 6/3/1
f 12/3/1 9/3/1 8/3/1
f 13/3/1 9/3/1 12/3/1
f 14/2/1 11/2/1 10/2/1
f 15/2/1 11/2/1 14/2/1
f 16/2/1 13/2/1 12/2/1
f 17/2/1 13/2/1 16/2/1
f 19/3/1 15/3/1 14/3/1
f 20/3/1 15/3/1 19/3/1
f 21/3/1 18/3/1 17/3/1
f 22/2/1 19/2/1 18/2/1
f 22/3/1 18/3/1 21/3/1
f 23/1/1 20/1/1 19/1/1
f 23/2/1 19/2/1 22/2/1
f 24/1/1 20/1/1 23/1/1
f 25/1/1 23/1/1 22/1/1
f 26/1/1 23/1/1 25/1/1
f 29/1/1 28/1/1 27/1/1
f 30/1/1 28/1/1 29/1/1
f 34/3/1 32/3/1 31/3/1
f 35/2/1 33/2/1 32/2/1
f 35/3/1 32/3/1 34/3/1
f 36/2/1 33/2/1 35/2/1
f 41/3/1 38/3/1 37/3/1
f 42/3/1 38/3/1 41/3/1
f 44/3/1 40/3/1 39/3/1
f 45/3/1 40/3/1 44/3/1
f 46/1/1 42/1/1 41/1/1
f 47/2/1 43/2/1 42/2/1
f 47/1/1 42/1/1 46/1/1
f 48/3/1 44/3/1 43/3/1
f 48/2/1 43/2/1 47/2/1
f 49/3/1 44/3/1 48/3/1
f 52/1/1 51/1/1 50/1/1
f 53/1/1 51/1/1 52/1/1
f 56/1/1 55/1/1 54/1/1
f 57/1/1 55/1/1 56/1/1
f 58/1/2 59/1/2 61/1/2
f 61/1/2 59/1/2 62/1/2
f 60/1/2 61/1/2 63/1/2
f 63/1/2 61/1/2 64/1/2
f 65/2/2 66/2/2 69/2/2
f 69/2/2 66/2/2 70/2/2
f 67/3/2 68/3/2 71/3/2
f 71/3/2 68/3/2 72/3/2
f 69/3/2 70/3/2 74/3/2
f 74/3/2 70/3/2 75/3/2
f 71/2/2 72/2/2 77/2/2
f 72/1/2 73/1/2 78/1/2
f 77/2/2 72/2/2 78/2/2
f 78/1/2 73/1/2 79/1/2
f 75/2/2 76/2/2 80/2/2
f 76/3/2 77/3/2 81/3/2
f 80/2/2 76/2/2 81/2/2
f 81/3/2 77/3/2 82/3/2
f 83/3/2 84/3/2 86/3/2
f 84/2/2 85/2/2 86/2/2
f 86/2/2 85/2/2 87/2/2
f 83/3/2 86/3/2 88/3/2
f 86/3/2 87/3/2 88/3/2
f 88/3/2 87/3/2 89/3/2
f 90/1/2 91/1/2 92/1/2
f 92/1/2 91/1/2 93/1/2
f 94/1/2 95/1/2 99/1/2
f 95/2/2 96/2/2 100/2/2
f 99/1/2 95/1/2 100/1/2
f 100/2/2 96/2/2 101/2/2
f 97/2/2 98/2/2 103/2/2
f 103/2/2 98/2/2 104/2/2
f 101/3/2 102/3/2 105/3/2
f 102/2/2 103/2/2 106/2/2
f 105/3/2 102/3/2 106/3/2
f 106/2/2 103/2/2 107/2/2
f 105/1/2 106/1/2 108/1/2
f 108/1/2 106/1/2 109/1/2
f 110/2/2 111/2/2 113/2/2
f 111/3/2 112/3/2 114/3/2
f 113/2/2 111/2/2 114/2/2
f 114/3/2 112/3/2 115/3/2
f 119/3/3 117/3/3 116/3/3
f 120/2/3 118/2/3 117/2/3
f 120/3/3 117/3/3 119/3/3
f 121/2/3 118/2/3 120/2/3
f 122/2/3 120/2/3 119/2/3
f 123/3/3 121/3/3 120/3/3
f 123/2/3 120/2/3 122/2/3
f 124/3/3 121/3/3 123/3/3
f 128/2/3 126/2/3 125/2/3
f 129/3/3 127/3/3 126/3/3
f 129/2/3 126/2/3 128/2/3
f 130/3/3 127/3/3 129/3/3
f 132/3/3 131/3/3 130/3/3
f 133/3/3 131/3/3 132/3/3
f 136/2/3 133/2/3 132/2/3
f 137/2/3 133/2/3 136/2/3
f 138/3/3 135/3/3 134/3/3
f 138/3/3 136/3/3 135/3/3
f 139/3/3 136/3/3 138/3/3
f 142/1/3 141/1/3 140/1/3
f 143/1/3 141/1/3 142/1/3
f 146/1/3 145/1/3 144/1/3
f 147/1/3 145/1/3 146/1/3
f 151/3/3 149/3/3 148/3/3
f 152/1/3 150/1/3 149/1/3
f 152/3/3 149/3/3 151/3/3
f 153/1/3 150/1/3 152/1/3
f 156/3/3 155/3/3 154/3/3
f 157/3/3 155/3/3 156/3/3
f 162/3/3 159/3/3 158/3/3
f 163/1/3 160/1/3 159/1/3
f 163/3/3 159/3/3 162/3/3
f 164/1/3 160/1/3 163/1/3
f 165/2/3 162/2/3 161/2/3
f 166/2/3 162/2/3 165/2/3
f 167/3/4 168/3/4 169/3/4
f 169/3/4 168/3/4 170/3/4
f 170/3/4 168/3/4 171/3/4
f 172/1/4 173/1/4 175/1/4
f 175/1/4 173/1/4 176/1/4
f 174/3/4 175/3/4 179/3/4
f 179/3/4 175/3/4 180/3/4
f 177/2/4 178/2/4 181/2/4
f 178/3/4 179/3/4 182/3/4
f 181/2/4 178/2/4 182/2/4
f 182/3/4 179/3/4 183/3/4
f 184/2/4 185/2/4 188/2/4
f 185/3/4 186/3/4 189/3/4
f 188/2/4 185/2/4 189/2/4
f 186/1/4 187/1/4 190/1/4
f 189/3/4 186/3/4 190/3/4
f 190/1/4 187/1/4 191/1/4
f 188/3/4 189/3/4 192/3/4
f 192/3/4 189/3/4 193/3/4
f 194/1/4 195/1/4 196/1/4
f 196/1/4 195/1/4 197/1/4
f 198/1/4 199/1/4 200/1/4
f 200/1/4 199/1/4 201/1/4
f 202/2/4 203/2/4 204/2/4
f 204/2/4 203/2/4 205/2/4
f 205/3/4 206/3/4 207/3/4
f 207/3/4 206/3/4 208/3/4
f 207/2/4 208/2/4 210/2/4
f 210/2/4 208/2/4 211/2/4
f 209/3/4 210/3/4 212/3/4
f 212/3/4 210/3/4 213/3/4
f 214/3/4 215/3/4 216/3/4
f 216/3/4 215/3/4 217/3/4
f 216/2/4 217/2/4 218/2/4
f 218/2/4 217/2/4 219/2/4
f 224/3/5 221/3/5 220/3/5
f 225/2/5 222/2/5 221/2/5
f 225/3/5 221/3/5 224/3/5
f 226/2/5 222/2/5 225/2/5
f 228/2/5 224/2/5 223/2/5
f 228/2/5 225/2/5 224/2/5
f 228/2/5 226/2/5 225/2/5
f 229/2/5 226/2/5 228/2/5
f 230/3/5 227/3/5 226/3/5
f 230/2/5 226/2/5 229/2/5
f 231/3/5 227/3/5 230/3/5
f 232/3/5 229/3/5 228/3/5
f 233/2/5 230/2/5 229/2/5
f 233/3/5 229/3/5 232/3/5
f 233/2/5 231/2/5 230/2/5
f 234/2/5 231/2/5 233/2/5
f 235/2/5 231/2/5 234/2/5
f 236/2/5 231/2/5 235/2/5
f 239/2/5 234/2/5 233/2/5
f 240/3/5 235/3/5 234/3/5
f 240/2/5 234/2/5 239/2/5
f 241/3/5 235/3/5 240/3/5
f 243/1/5 238/1/5 237/1/5
f 244/1/5 238/1/5 243/1/5
f 246/3/5 243/3/5 242/3/5
f 247/2/5 244/2/5 243/2/5
f 247/3/5 243/3/5 246/3/5
f 248/2/5 244/2/5 247/2/5
f 250/3/5 246/3/5 245/3/5
f 251/2/5 248/2/5 247/2/5
f 251/3/5 246/3/5 250/3/5
f 251/2/5 249/2/5 248/2/5
f 251/2/5 247/2/5 246/2/5
f 252/2/5 249/2/5 251/2/5
f 253/2/5 249/2/5 252/2/5
f 254/2/5 251/2/5 250/2/5
f 254/2/5 252/2/5 251/2/5
f 255/2/5 252/2/5 254/2/5
f 256/2/5 252/2/5 255/2/5
f 257/3/5 253/3/5 252/3/5
f 257/2/5 252/2/5 256/2/5
f 258/3/5 253/3/5 257/3/5
f 259/3/5 256/3/5 255/3/5
f 260/2/5 257/2/5 256/2/5
f 260/3/5 256/3/5 259/3/5
f 261/2/5 257/2/5 260/2/5
f 264/1/5 263/1/5 262/1/5
f 265/1/5 263/1/5 264/1/5
f 266/1/6 267/1/6 268/1/6
f 268/1/6 267/1/6 269/1/6
f 268/2/6 269/2/6 272/2/6
f 272/2/6 269/2/6 273/2/6
f 270/3/6 271/3/6 275/3/6
f 275/3/6 271/3/6 276/3/6
f 273/2/6 274/2/6 277/2/6
f 277/2/6 274/2/6 278/2/6
f 275/2/6 276/2/6 279/2/6
f 279/2/6 276/2/6 280/2/6
f 277/3/6 278/3/6 282/3/6
f 282/3/6 278/3/6 283/3/6
f 280/3/6 281/3/6 284/3/6
f 281/2/6 282/2/6 285/2/6
f 284/3/6 281/3/6 285/3/6
f 285/2/6 282/2/6 286/2/6
f 287/2/6 288/2/6 291/2/6
f 288/3/6 289/3/6 292/3/6
f 291/2/6 288/2/6 292/2/6
f 292/3/6 289/3/6 293/3/6
f 290/3/6 291/3/6 295/3/6
f 293/3/6 294/3/6 296/3/6
f 290/3/6 295/3/6 297/3/6
f 297/3/6 295/3/6 298/3/6
f 296/3/6 294/3/6 300/3/6
f 300/3/6 294/3/6 301/3/6
f 299/2/6 300/2/6 302/2/6
f 302/2/6 300/2/6 303/2/6
f 302/1/6 303/1/6 306/1/6
f 306/1/6 303/1/6 307/1/6
f 304/1/6 305/1/6 308/1/6
f 308/1/6 305/1/6 309/1/6
f 308/2/6 309/2/6 310/2/6
f 310/2/6 309/2/6 311/2/6
f 310/3/6 311/3/6 313/3/6
f 311/2/6 312/2/6 314/2/6
f 313/3/6 311/3/6 314/3/6
f 314/2/6 312/2/6 315/2/6
f 316/3/6 317/3/6 319/3/6
f 317/2/6 318/2/6 320/2/6
f 319/3/6 317/3/6 320/3/6
f 320/2/6 318/2/6 321/2/6
f 320/3/6 321/3/6 323/3/6
f 323/3/6 321/3/6 324/3/6
f 322/1/6 323/1/6 325/1/6
f 325/1/6 323/1/6 326/1/6
f 327/1/6 328/1/6 329/1/6
f 329/1/6 328/1/6 330/1/6
f 331/1/6 332/1/6 333/1/6
f 333/1/6 332/1/6 334/1/6
