# MagicaVoxel @ Ephtracy

# group
o 

# material
mtllib granjafinal_zanahorias.mtl
usemtl palette

# normals
vn 1 0 0
vn -1 0 0
vn 0 0 -1
vn 0 0 1
vn 0 -1 0
vn 0 1 0

# texcoords
vt 0.318359 0.5
vt 0.322266 0.5
vt 0.599609 0.5
vt 0.603516 0.5

# verts
v -4.7 4.8 -2.5
v -4.7 4.8 -2.4
v -4.7 4.8 -2.3
v -4.7 4.8 -2.2
v -4.7 4.8 -2.1
v -4.7 4.8 -2
v -4.7 4.8 -1.9
v -4.7 4.8 -1.8
v -4.7 4.9 -2.5
v -4.7 4.9 -2.4
v -4.7 4.9 -2.3
v -4.7 4.9 -2.2
v -4.7 4.9 -2.1
v -4.7 4.9 -2
v -4.7 4.9 -1.9
v -4.7 4.9 -1.8
v -4.7 5 -2.5
v -4.7 5 -2.4
v -4.7 5 -2.3
v -4.7 5 -2.2
v -4.7 5 -2.1
v -4.7 5 -2
v -4.7 5 -1.9
v -4.7 5 -1.8
v -4.9 4.8 -2.5
v -4.9 4.8 -2.4
v -4.9 4.8 -2.3
v -4.9 4.8 -2.2
v -4.9 4.8 -2.1
v -4.9 4.8 -2
v -4.9 4.8 -1.9
v -4.9 4.8 -1.8
v -4.9 4.9 -2.5
v -4.9 4.9 -2.4
v -4.9 4.9 -2.3
v -4.9 4.9 -2.2
v -4.9 4.9 -2.1
v -4.9 4.9 -2
v -4.9 4.9 -1.9
v -4.9 4.9 -1.8
v -4.9 5 -2.5
v -4.9 5 -2.4
v -4.9 5 -2.3
v -4.9 5 -2.2
v -4.9 5 -2.1
v -4.9 5 -2
v -4.9 5 -1.9
v -4.9 5 -1.8
v -5.1 4.8 -2.5
v -5.1 4.8 -2.4
v -5.1 4.8 -2.3
v -5.1 4.8 -2.2
v -5.1 4.8 -2.1
v -5.1 4.8 -2
v -5.1 4.8 -1.9
v -5.1 4.8 -1.8
v -5.1 4.9 -2.5
v -5.1 4.9 -2.4
v -5.1 4.9 -2.3
v -5.1 4.9 -2.2
v -5.1 4.9 -2.1
v -5.1 4.9 -2
v -5.1 4.9 -1.9
v -5.1 4.9 -1.8
v -5.1 5 -2.5
v -5.1 5 -2.4
v -5.1 5 -2.3
v -5.1 5 -2.2
v -5.1 5 -2.1
v -5.1 5 -2
v -5.1 5 -1.9
v -5.1 5 -1.8
v -5.3 4.8 -2.5
v -5.3 4.8 -2.4
v -5.3 4.8 -2.3
v -5.3 4.8 -2.2
v -5.3 4.8 -2.1
v -5.3 4.8 -2
v -5.3 4.8 -1.9
v -5.3 4.8 -1.8
v -5.3 4.9 -2.5
v -5.3 4.9 -2.4
v -5.3 4.9 -2.3
v -5.3 4.9 -2.2
v -5.3 4.9 -2.1
v -5.3 4.9 -2
v -5.3 4.9 -1.9
v -5.3 4.9 -1.8
v -5.3 5 -2.5
v -5.3 5 -2.4
v -5.3 5 -2.3
v -5.3 5 -2.2
v -5.3 5 -2.1
v -5.3 5 -2
v -5.3 5 -1.9
v -5.3 5 -1.8
v -4.8 4.8 -2.5
v -4.8 4.8 -2.4
v -4.8 4.8 -2.3
v -4.8 4.8 -2.2
v -4.8 4.8 -2.1
v -4.8 4.8 -2
v -4.8 4.8 -1.9
v -4.8 4.8 -1.8
v -4.8 4.9 -2.5
v -4.8 4.9 -2.4
v -4.8 4.9 -2.3
v -4.8 4.9 -2.2
v -4.8 4.9 -2.1
v -4.8 4.9 -2
v -4.8 4.9 -1.9
v -4.8 4.9 -1.8
v -4.8 5 -2.5
v -4.8 5 -2.4
v -4.8 5 -2.3
v -4.8 5 -2.2
v -4.8 5 -2.1
v -4.8 5 -2
v -4.8 5 -1.9
v -4.8 5 -1.8
v -5 4.8 -2.5
v -5 4.8 -2.4
v -5 4.8 -2.3
v -5 4.8 -2.2
v -5 4.8 -2.1
v -5 4.8 -2
v -5 4.8 -1.9
v -5 4.8 -1.8
v -5 4.9 -2.5
v -5 4.9 -2.4
v -5 4.9 -2.3
v -5 4.9 -2.2
v -5 4.9 -2.1
v -5 4.9 -2
v -5 4.9 -1.9
v -5 4.9 -1.8
v -5 5 -2.5
v -5 5 -2.4
v -5 5 -2.3
v -5 5 -2.2
v -5 5 -2.1
v -5 5 -2
v -5 5 -1.9
v -5 5 -1.8
v -5.2 4.8 -2.5
v -5.2 4.8 -2.4
v -5.2 4.8 -2.3
v -5.2 4.8 -2.2
v -5.2 4.8 -2.1
v -5.2 4.8 -2
v -5.2 4.8 -1.9
v -5.2 4.8 -1.8
v -5.2 4.9 -2.5
v -5.2 4.9 -2.4
v -5.2 4.9 -2.3
v -5.2 4.9 -2.2
v -5.2 4.9 -2.1
v -5.2 4.9 -2
v -5.2 4.9 -1.9
v -5.2 4.9 -1.8
v -5.2 5 -2.5
v -5.2 5 -2.4
v -5.2 5 -2.3
v -5.2 5 -2.2
v -5.2 5 -2.1
v -5.2 5 -2
v -5.2 5 -1.9
v -5.2 5 -1.8
v -5.4 4.8 -2.5
v -5.4 4.8 -2.4
v -5.4 4.8 -2.3
v -5.4 4.8 -2.2
v -5.4 4.8 -2.1
v -5.4 4.8 -2
v -5.4 4.8 -1.9
v -5.4 4.8 -1.8
v -5.4 4.9 -2.5
v -5.4 4.9 -2.4
v -5.4 4.9 -2.3
v -5.4 4.9 -2.2
v -5.4 4.9 -2.1
v -5.4 4.9 -2
v -5.4 4.9 -1.9
v -5.4 4.9 -1.8
v -5.4 5 -2.5
v -5.4 5 -2.4
v -5.4 5 -2.3
v -5.4 5 -2.2
v -5.4 5 -2.1
v -5.4 5 -2
v -5.4 5 -1.9
v -5.4 5 -1.8
v -4.7 4.8 -2.5
v -4.7 4.9 -2.5
v -4.7 5 -2.5
v -4.8 4.8 -2.5
v -4.8 4.9 -2.5
v -4.8 5 -2.5
v -4.9 4.8 -2.5
v -4.9 4.9 -2.5
v -4.9 5 -2.5
v -5 4.8 -2.5
v -5 4.9 -2.5
v -5 5 -2.5
v -5.1 4.8 -2.5
v -5.1 4.9 -2.5
v -5.1 5 -2.5
v -5.2 4.8 -2.5
v -5.2 4.9 -2.5
v -5.2 5 -2.5
v -5.3 4.8 -2.5
v -5.3 4.9 -2.5
v -5.3 5 -2.5
v -5.4 4.8 -2.5
v -5.4 4.9 -2.5
v -5.4 5 -2.5
v -4.7 4.8 -2.3
v -4.7 4.9 -2.3
v -4.7 5 -2.3
v -4.8 4.8 -2.3
v -4.8 4.9 -2.3
v -4.8 5 -2.3
v -4.9 4.8 -2.3
v -4.9 4.9 -2.3
v -4.9 5 -2.3
v -5 4.8 -2.3
v -5 4.9 -2.3
v -5 5 -2.3
v -5.1 4.8 -2.3
v -5.1 4.9 -2.3
v -5.1 5 -2.3
v -5.2 4.8 -2.3
v -5.2 4.9 -2.3
v -5.2 5 -2.3
v -5.3 4.8 -2.3
v -5.3 4.9 -2.3
v -5.3 5 -2.3
v -5.4 4.8 -2.3
v -5.4 4.9 -2.3
v -5.4 5 -2.3
v -4.7 4.8 -2.1
v -4.7 4.9 -2.1
v -4.7 5 -2.1
v -4.8 4.8 -2.1
v -4.8 4.9 -2.1
v -4.8 5 -2.1
v -4.9 4.8 -2.1
v -4.9 4.9 -2.1
v -4.9 5 -2.1
v -5 4.8 -2.1
v -5 4.9 -2.1
v -5 5 -2.1
v -5.1 4.8 -2.1
v -5.1 4.9 -2.1
v -5.1 5 -2.1
v -5.2 4.8 -2.1
v -5.2 4.9 -2.1
v -5.2 5 -2.1
v -5.3 4.8 -2.1
v -5.3 4.9 -2.1
v -5.3 5 -2.1
v -5.4 4.8 -2.1
v -5.4 4.9 -2.1
v -5.4 5 -2.1
v -4.7 4.8 -1.9
v -4.7 4.9 -1.9
v -4.7 5 -1.9
v -4.8 4.8 -1.9
v -4.8 4.9 -1.9
v -4.8 5 -1.9
v -4.9 4.8 -1.9
v -4.9 4.9 -1.9
v -4.9 5 -1.9
v -5 4.8 -1.9
v -5 4.9 -1.9
v -5 5 -1.9
v -5.1 4.8 -1.9
v -5.1 4.9 -1.9
v -5.1 5 -1.9
v -5.2 4.8 -1.9
v -5.2 4.9 -1.9
v -5.2 5 -1.9
v -5.3 4.8 -1.9
v -5.3 4.9 -1.9
v -5.3 5 -1.9
v -5.4 4.8 -1.9
v -5.4 4.9 -1.9
v -5.4 5 -1.9
v -4.7 4.8 -2.4
v -4.7 4.9 -2.4
v -4.7 5 -2.4
v -4.8 4.8 -2.4
v -4.8 4.9 -2.4
v -4.8 5 -2.4
v -4.9 4.8 -2.4
v -4.9 4.9 -2.4
v -4.9 5 -2.4
v -5 4.8 -2.4
v -5 4.9 -2.4
v -5 5 -2.4
v -5.1 4.8 -2.4
v -5.1 4.9 -2.4
v -5.1 5 -2.4
v -5.2 4.8 -2.4
v -5.2 4.9 -2.4
v -5.2 5 -2.4
v -5.3 4.8 -2.4
v -5.3 4.9 -2.4
v -5.3 5 -2.4
v -5.4 4.8 -2.4
v -5.4 4.9 -2.4
v -5.4 5 -2.4
v -4.7 4.8 -2.2
v -4.7 4.9 -2.2
v -4.7 5 -2.2
v -4.8 4.8 -2.2
v -4.8 4.9 -2.2
v -4.8 5 -2.2
v -4.9 4.8 -2.2
v -4.9 4.9 -2.2
v -4.9 5 -2.2
v -5 4.8 -2.2
v -5 4.9 -2.2
v -5 5 -2.2
v -5.1 4.8 -2.2
v -5.1 4.9 -2.2
v -5.1 5 -2.2
v -5.2 4.8 -2.2
v -5.2 4.9 -2.2
v -5.2 5 -2.2
v -5.3 4.8 -2.2
v -5.3 4.9 -2.2
v -5.3 5 -2.2
v -5.4 4.8 -2.2
v -5.4 4.9 -2.2
v -5.4 5 -2.2
v -4.7 4.8 -2
v -4.7 4.9 -2
v -4.7 5 -2
v -4.8 4.8 -2
v -4.8 4.9 -2
v -4.8 5 -2
v -4.9 4.8 -2
v -4.9 4.9 -2
v -4.9 5 -2
v -5 4.8 -2
v -5 4.9 -2
v -5 5 -2
v -5.1 4.8 -2
v -5.1 4.9 -2
v -5.1 5 -2
v -5.2 4.8 -2
v -5.2 4.9 -2
v -5.2 5 -2
v -5.3 4.8 -2
v -5.3 4.9 -2
v -5.3 5 -2
v -5.4 4.8 -2
v -5.4 4.9 -2
v -5.4 5 -2
v -4.7 4.8 -1.8
v -4.7 4.9 -1.8
v -4.7 5 -1.8
v -4.8 4.8 -1.8
v -4.8 4.9 -1.8
v -4.8 5 -1.8
v -4.9 4.8 -1.8
v -4.9 4.9 -1.8
v -4.9 5 -1.8
v -5 4.8 -1.8
v -5 4.9 -1.8
v -5 5 -1.8
v -5.1 4.8 -1.8
v -5.1 4.9 -1.8
v -5.1 5 -1.8
v -5.2 4.8 -1.8
v -5.2 4.9 -1.8
v -5.2 5 -1.8
v -5.3 4.8 -1.8
v -5.3 4.9 -1.8
v -5.3 5 -1.8
v -5.4 4.8 -1.8
v -5.4 4.9 -1.8
v -5.4 5 -1.8
v -4.7 4.8 -2.5
v -4.8 4.8 -2.5
v -4.9 4.8 -2.5
v -5 4.8 -2.5
v -5.1 4.8 -2.5
v -5.2 4.8 -2.5
v -5.3 4.8 -2.5
v -5.4 4.8 -2.5
v -4.7 4.8 -2.4
v -4.8 4.8 -2.4
v -4.9 4.8 -2.4
v -5 4.8 -2.4
v -5.1 4.8 -2.4
v -5.2 4.8 -2.4
v -5.3 4.8 -2.4
v -5.4 4.8 -2.4
v -4.7 4.8 -2.3
v -4.8 4.8 -2.3
v -4.9 4.8 -2.3
v -5 4.8 -2.3
v -5.1 4.8 -2.3
v -5.2 4.8 -2.3
v -5.3 4.8 -2.3
v -5.4 4.8 -2.3
v -4.7 4.8 -2.2
v -4.8 4.8 -2.2
v -4.9 4.8 -2.2
v -5 4.8 -2.2
v -5.1 4.8 -2.2
v -5.2 4.8 -2.2
v -5.3 4.8 -2.2
v -5.4 4.8 -2.2
v -4.7 4.8 -2.1
v -4.8 4.8 -2.1
v -4.9 4.8 -2.1
v -5 4.8 -2.1
v -5.1 4.8 -2.1
v -5.2 4.8 -2.1
v -5.3 4.8 -2.1
v -5.4 4.8 -2.1
v -4.7 4.8 -2
v -4.8 4.8 -2
v -4.9 4.8 -2
v -5 4.8 -2
v -5.1 4.8 -2
v -5.2 4.8 -2
v -5.3 4.8 -2
v -5.4 4.8 -2
v -4.7 4.8 -1.9
v -4.8 4.8 -1.9
v -4.9 4.8 -1.9
v -5 4.8 -1.9
v -5.1 4.8 -1.9
v -5.2 4.8 -1.9
v -5.3 4.8 -1.9
v -5.4 4.8 -1.9
v -4.7 4.8 -1.8
v -4.8 4.8 -1.8
v -4.9 4.8 -1.8
v -5 4.8 -1.8
v -5.1 4.8 -1.8
v -5.2 4.8 -1.8
v -5.3 4.8 -1.8
v -5.4 4.8 -1.8
v -4.7 5 -2.5
v -4.8 5 -2.5
v -4.9 5 -2.5
v -5 5 -2.5
v -5.1 5 -2.5
v -5.2 5 -2.5
v -5.3 5 -2.5
v -5.4 5 -2.5
v -4.7 5 -2.4
v -4.8 5 -2.4
v -4.9 5 -2.4
v -5 5 -2.4
v -5.1 5 -2.4
v -5.2 5 -2.4
v -5.3 5 -2.4
v -5.4 5 -2.4
v -4.7 5 -2.3
v -4.8 5 -2.3
v -4.9 5 -2.3
v -5 5 -2.3
v -5.1 5 -2.3
v -5.2 5 -2.3
v -5.3 5 -2.3
v -5.4 5 -2.3
v -4.7 5 -2.2
v -4.8 5 -2.2
v -4.9 5 -2.2
v -5 5 -2.2
v -5.1 5 -2.2
v -5.2 5 -2.2
v -5.3 5 -2.2
v -5.4 5 -2.2
v -4.7 5 -2.1
v -4.8 5 -2.1
v -4.9 5 -2.1
v -5 5 -2.1
v -5.1 5 -2.1
v -5.2 5 -2.1
v -5.3 5 -2.1
v -5.4 5 -2.1
v -4.7 5 -2
v -4.8 5 -2
v -4.9 5 -2
v -5 5 -2
v -5.1 5 -2
v -5.2 5 -2
v -5.3 5 -2
v -5.4 5 -2
v -4.7 5 -1.9
v -4.8 5 -1.9
v -4.9 5 -1.9
v -5 5 -1.9
v -5.1 5 -1.9
v -5.2 5 -1.9
v -5.3 5 -1.9
v -5.4 5 -1.9
v -4.7 5 -1.8
v -4.8 5 -1.8
v -4.9 5 -1.8
v -5 5 -1.8
v -5.1 5 -1.8
v -5.2 5 -1.8
v -5.3 5 -1.8
v -5.4 5 -1.8

# faces
f 9/4/1 2/4/1 1/4/1
f 10/4/1 2/4/1 9/4/1
f 11/4/1 4/4/1 3/4/1
f 12/4/1 4/4/1 11/4/1
f 13/4/1 6/4/1 5/4/1
f 14/4/1 6/4/1 13/4/1
f 15/4/1 8/4/1 7/4/1
f 16/4/1 8/4/1 15/4/1
f 17/1/1 10/1/1 9/1/1
f 18/1/1 10/1/1 17/1/1
f 19/2/1 12/2/1 11/2/1
f 20/2/1 12/2/1 19/2/1
f 21/1/1 14/1/1 13/1/1
f 22/1/1 14/1/1 21/1/1
f 23/2/1 16/2/1 15/2/1
f 24/2/1 16/2/1 23/2/1
f 33/3/1 26/3/1 25/3/1
f 34/3/1 26/3/1 33/3/1
f 35/3/1 28/3/1 27/3/1
f 36/3/1 28/3/1 35/3/1
f 37/4/1 30/4/1 29/4/1
f 38/4/1 30/4/1 37/4/1
f 39/3/1 32/3/1 31/3/1
f 40/3/1 32/3/1 39/3/1
f 41/1/1 34/1/1 33/1/1
f 42/1/1 34/1/1 41/1/1
f 43/2/1 36/2/1 35/2/1
f 44/2/1 36/2/1 43/2/1
f 45/1/1 38/1/1 37/1/1
f 46/1/1 38/1/1 45/1/1
f 47/2/1 40/2/1 39/2/1
f 48/2/1 40/2/1 47/2/1
f 57/4/1 50/4/1 49/4/1
f 58/4/1 50/4/1 57/4/1
f 59/4/1 52/4/1 51/4/1
f 60/4/1 52/4/1 59/4/1
f 61/3/1 54/3/1 53/3/1
f 62/3/1 54/3/1 61/3/1
f 63/4/1 56/4/1 55/4/1
f 64/4/1 56/4/1 63/4/1
f 65/1/1 58/1/1 57/1/1
f 66/1/1 58/1/1 65/1/1
f 67/1/1 60/1/1 59/1/1
f 68/1/1 60/1/1 67/1/1
f 69/2/1 62/2/1 61/2/1
f 70/2/1 62/2/1 69/2/1
f 71/1/1 64/1/1 63/1/1
f 72/1/1 64/1/1 71/1/1
f 81/3/1 74/3/1 73/3/1
f 82/3/1 74/3/1 81/3/1
f 83/3/1 76/3/1 75/3/1
f 84/3/1 76/3/1 83/3/1
f 85/4/1 78/4/1 77/4/1
f 86/4/1 78/4/1 85/4/1
f 87/3/1 80/3/1 79/3/1
f 88/3/1 80/3/1 87/3/1
f 89/2/1 82/2/1 81/2/1
f 90/2/1 82/2/1 89/2/1
f 91/1/1 84/1/1 83/1/1
f 92/1/1 84/1/1 91/1/1
f 93/1/1 86/1/1 85/1/1
f 94/1/1 86/1/1 93/1/1
f 95/2/1 88/2/1 87/2/1
f 96/2/1 88/2/1 95/2/1
f 97/4/2 98/4/2 105/4/2
f 105/4/2 98/4/2 106/4/2
f 99/4/2 100/4/2 107/4/2
f 107/4/2 100/4/2 108/4/2
f 101/4/2 102/4/2 109/4/2
f 109/4/2 102/4/2 110/4/2
f 103/4/2 104/4/2 111/4/2
f 111/4/2 104/4/2 112/4/2
f 105/1/2 106/1/2 113/1/2
f 113/1/2 106/1/2 114/1/2
f 107/2/2 108/2/2 115/2/2
f 115/2/2 108/2/2 116/2/2
f 109/1/2 110/1/2 117/1/2
f 117/1/2 110/1/2 118/1/2
f 111/2/2 112/2/2 119/2/2
f 119/2/2 112/2/2 120/2/2
f 121/3/2 122/3/2 129/3/2
f 129/3/2 122/3/2 130/3/2
f 123/3/2 124/3/2 131/3/2
f 131/3/2 124/3/2 132/3/2
f 125/4/2 126/4/2 133/4/2
f 133/4/2 126/4/2 134/4/2
f 127/3/2 128/3/2 135/3/2
f 135/3/2 128/3/2 136/3/2
f 129/1/2 130/1/2 137/1/2
f 137/1/2 130/1/2 138/1/2
f 131/2/2 132/2/2 139/2/2
f 139/2/2 132/2/2 140/2/2
f 133/1/2 134/1/2 141/1/2
f 141/1/2 134/1/2 142/1/2
f 135/2/2 136/2/2 143/2/2
f 143/2/2 136/2/2 144/2/2
f 145/4/2 146/4/2 153/4/2
f 153/4/2 146/4/2 154/4/2
f 147/4/2 148/4/2 155/4/2
f 155/4/2 148/4/2 156/4/2
f 149/3/2 150/3/2 157/3/2
f 157/3/2 150/3/2 158/3/2
f 151/4/2 152/4/2 159/4/2
f 159/4/2 152/4/2 160/4/2
f 153/1/2 154/1/2 161/1/2
f 161/1/2 154/1/2 162/1/2
f 155/1/2 156/1/2 163/1/2
f 163/1/2 156/1/2 164/1/2
f 157/2/2 158/2/2 165/2/2
f 165/2/2 158/2/2 166/2/2
f 159/1/2 160/1/2 167/1/2
f 167/1/2 160/1/2 168/1/2
f 169/3/2 170/3/2 177/3/2
f 177/3/2 170/3/2 178/3/2
f 171/3/2 172/3/2 179/3/2
f 179/3/2 172/3/2 180/3/2
f 173/4/2 174/4/2 181/4/2
f 181/4/2 174/4/2 182/4/2
f 175/3/2 176/3/2 183/3/2
f 183/3/2 176/3/2 184/3/2
f 177/2/2 178/2/2 185/2/2
f 185/2/2 178/2/2 186/2/2
f 179/1/2 180/1/2 187/1/2
f 187/1/2 180/1/2 188/1/2
f 181/1/2 182/1/2 189/1/2
f 189/1/2 182/1/2 190/1/2
f 183/2/2 184/2/2 191/2/2
f 191/2/2 184/2/2 192/2/2
f 196/4/3 194/4/3 193/4/3
f 197/1/3 195/1/3 194/1/3
f 197/4/3 194/4/3 196/4/3
f 198/1/3 195/1/3 197/1/3
f 202/3/3 200/3/3 199/3/3
f 203/1/3 201/1/3 200/1/3
f 203/3/3 200/3/3 202/3/3
f 204/1/3 201/1/3 203/1/3
f 208/4/3 206/4/3 205/4/3
f 209/1/3 207/1/3 206/1/3
f 209/4/3 206/4/3 208/4/3
f 210/1/3 207/1/3 209/1/3
f 214/3/3 212/3/3 211/3/3
f 215/2/3 213/2/3 212/2/3
f 215/3/3 212/3/3 214/3/3
f 216/2/3 213/2/3 215/2/3
f 220/4/3 218/4/3 217/4/3
f 221/2/3 219/2/3 218/2/3
f 221/4/3 218/4/3 220/4/3
f 222/2/3 219/2/3 221/2/3
f 226/3/3 224/3/3 223/3/3
f 227/2/3 225/2/3 224/2/3
f 227/3/3 224/3/3 226/3/3
f 228/2/3 225/2/3 227/2/3
f 232/4/3 230/4/3 229/4/3
f 233/1/3 231/1/3 230/1/3
f 233/4/3 230/4/3 232/4/3
f 234/1/3 231/1/3 233/1/3
f 238/3/3 236/3/3 235/3/3
f 239/1/3 237/1/3 236/1/3
f 239/3/3 236/3/3 238/3/3
f 240/1/3 237/1/3 239/1/3
f 244/4/3 242/4/3 241/4/3
f 245/1/3 243/1/3 242/1/3
f 245/4/3 242/4/3 244/4/3
f 246/1/3 243/1/3 245/1/3
f 250/4/3 248/4/3 247/4/3
f 251/1/3 249/1/3 248/1/3
f 251/4/3 248/4/3 250/4/3
f 252/1/3 249/1/3 251/1/3
f 256/3/3 254/3/3 253/3/3
f 257/2/3 255/2/3 254/2/3
f 257/3/3 254/3/3 256/3/3
f 258/2/3 255/2/3 257/2/3
f 262/4/3 260/4/3 259/4/3
f 263/1/3 261/1/3 260/1/3
f 263/4/3 260/4/3 262/4/3
f 264/1/3 261/1/3 263/1/3
f 268/4/3 266/4/3 265/4/3
f 269/2/3 267/2/3 266/2/3
f 269/4/3 266/4/3 268/4/3
f 270/2/3 267/2/3 269/2/3
f 274/3/3 272/3/3 271/3/3
f 275/2/3 273/2/3 272/2/3
f 275/3/3 272/3/3 274/3/3
f 276/2/3 273/2/3 275/2/3
f 280/4/3 278/4/3 277/4/3
f 281/1/3 279/1/3 278/1/3
f 281/4/3 278/4/3 280/4/3
f 282/1/3 279/1/3 281/1/3
f 286/3/3 284/3/3 283/3/3
f 287/2/3 285/2/3 284/2/3
f 287/3/3 284/3/3 286/3/3
f 288/2/3 285/2/3 287/2/3
f 289/4/4 290/4/4 292/4/4
f 290/1/4 291/1/4 293/1/4
f 292/4/4 290/4/4 293/4/4
f 293/1/4 291/1/4 294/1/4
f 295/3/4 296/3/4 298/3/4
f 296/1/4 297/1/4 299/1/4
f 298/3/4 296/3/4 299/3/4
f 299/1/4 297/1/4 300/1/4
f 301/4/4 302/4/4 304/4/4
f 302/1/4 303/1/4 305/1/4
f 304/4/4 302/4/4 305/4/4
f 305/1/4 303/1/4 306/1/4
f 307/3/4 308/3/4 310/3/4
f 308/2/4 309/2/4 311/2/4
f 310/3/4 308/3/4 311/3/4
f 311/2/4 309/2/4 312/2/4
f 313/4/4 314/4/4 316/4/4
f 314/2/4 315/2/4 317/2/4
f 316/4/4 314/4/4 317/4/4
f 317/2/4 315/2/4 318/2/4
f 319/3/4 320/3/4 322/3/4
f 320/2/4 321/2/4 323/2/4
f 322/3/4 320/3/4 323/3/4
f 323/2/4 321/2/4 324/2/4
f 325/4/4 326/4/4 328/4/4
f 326/1/4 327/1/4 329/1/4
f 328/4/4 326/4/4 329/4/4
f 329/1/4 327/1/4 330/1/4
f 331/3/4 332/3/4 334/3/4
f 332/1/4 333/1/4 335/1/4
f 334/3/4 332/3/4 335/3/4
f 335/1/4 333/1/4 336/1/4
f 337/4/4 338/4/4 340/4/4
f 338/1/4 339/1/4 341/1/4
f 340/4/4 338/4/4 341/4/4
f 341/1/4 339/1/4 342/1/4
f 343/4/4 344/4/4 346/4/4
f 344/1/4 345/1/4 347/1/4
f 346/4/4 344/4/4 347/4/4
f 347/1/4 345/1/4 348/1/4
f 349/3/4 350/3/4 352/3/4
f 350/2/4 351/2/4 353/2/4
f 352/3/4 350/3/4 353/3/4
f 353/2/4 351/2/4 354/2/4
f 355/4/4 356/4/4 358/4/4
f 356/1/4 357/1/4 359/1/4
f 358/4/4 356/4/4 359/4/4
f 359/1/4 357/1/4 360/1/4
f 361/4/4 362/4/4 364/4/4
f 362/2/4 363/2/4 365/2/4
f 364/4/4 362/4/4 365/4/4
f 365/2/4 363/2/4 366/2/4
f 367/3/4 368/3/4 370/3/4
f 368/2/4 369/2/4 371/2/4
f 370/3/4 368/3/4 371/3/4
f 371/2/4 369/2/4 372/2/4
f 373/4/4 374/4/4 376/4/4
f 374/1/4 375/1/4 377/1/4
f 376/4/4 374/4/4 377/4/4
f 377/1/4 375/1/4 378/1/4
f 379/3/4 380/3/4 382/3/4
f 380/2/4 381/2/4 383/2/4
f 382/3/4 380/3/4 383/3/4
f 383/2/4 381/2/4 384/2/4
f 393/4/5 386/4/5 385/4/5
f 394/4/5 386/4/5 393/4/5
f 395/3/5 388/3/5 387/3/5
f 396/3/5 388/3/5 395/3/5
f 397/4/5 390/4/5 389/4/5
f 398/4/5 390/4/5 397/4/5
f 399/3/5 392/3/5 391/3/5
f 400/3/5 392/3/5 399/3/5
f 409/4/5 402/4/5 401/4/5
f 410/4/5 402/4/5 409/4/5
f 411/3/5 404/3/5 403/3/5
f 412/3/5 404/3/5 411/3/5
f 413/4/5 406/4/5 405/4/5
f 414/4/5 406/4/5 413/4/5
f 415/3/5 408/3/5 407/3/5
f 416/3/5 408/3/5 415/3/5
f 425/4/5 418/4/5 417/4/5
f 426/4/5 418/4/5 425/4/5
f 427/4/5 420/4/5 419/4/5
f 428/4/5 420/4/5 427/4/5
f 429/3/5 422/3/5 421/3/5
f 430/3/5 422/3/5 429/3/5
f 431/4/5 424/4/5 423/4/5
f 432/4/5 424/4/5 431/4/5
f 441/4/5 434/4/5 433/4/5
f 442/4/5 434/4/5 441/4/5
f 443/3/5 436/3/5 435/3/5
f 444/3/5 436/3/5 443/3/5
f 445/4/5 438/4/5 437/4/5
f 446/4/5 438/4/5 445/4/5
f 447/3/5 440/3/5 439/3/5
f 448/3/5 440/3/5 447/3/5
f 449/1/6 450/1/6 457/1/6
f 457/1/6 450/1/6 458/1/6
f 451/1/6 452/1/6 459/1/6
f 459/1/6 452/1/6 460/1/6
f 453/1/6 454/1/6 461/1/6
f 461/1/6 454/1/6 462/1/6
f 455/2/6 456/2/6 463/2/6
f 463/2/6 456/2/6 464/2/6
f 465/2/6 466/2/6 473/2/6
f 473/2/6 466/2/6 474/2/6
f 467/2/6 468/2/6 475/2/6
f 475/2/6 468/2/6 476/2/6
f 469/1/6 470/1/6 477/1/6
f 477/1/6 470/1/6 478/1/6
f 471/1/6 472/1/6 479/1/6
f 479/1/6 472/1/6 480/1/6
f 481/1/6 482/1/6 489/1/6
f 489/1/6 482/1/6 490/1/6
f 483/1/6 484/1/6 491/1/6
f 491/1/6 484/1/6 492/1/6
f 485/2/6 486/2/6 493/2/6
f 493/2/6 486/2/6 494/2/6
f 487/1/6 488/1/6 495/1/6
f 495/1/6 488/1/6 496/1/6
f 497/2/6 498/2/6 505/2/6
f 505/2/6 498/2/6 506/2/6
f 499/2/6 500/2/6 507/2/6
f 507/2/6 500/2/6 508/2/6
f 501/1/6 502/1/6 509/1/6
f 509/1/6 502/1/6 510/1/6
f 503/2/6 504/2/6 511/2/6
f 511/2/6 504/2/6 512/2/6
