# MagicaVoxel @ Ephtracy

# group
o 

# material
mtllib granjafinal_oveja.mtl
usemtl palette

# normals
vn -1 0 0
vn 1 0 0
vn 0 0 -1
vn 0 0 1
vn 0 -1 0
vn 0 1 0

# texcoords
vt 0.916016 0.5
vt 0.919922 0.5
vt 0.923828 0.5
vt 0.927734 0.5
vt 0.943359 0.5
vt 0.947266 0.5

# verts
v -3.4 5.1 3
v -3.4 5.1 3.1
v -3.4 5.2 3
v -3.4 5.2 3.1
v -3.3 4.8 3
v -3.3 4.8 3.1
v -3.3 4.8 3.4
v -3.3 4.8 3.5
v -3.3 4.9 3
v -3.3 4.9 3.1
v -3.3 4.9 3.2
v -3.3 4.9 3.3
v -3.3 4.9 3.4
v -3.3 4.9 3.5
v -3.3 5 2.9
v -3.3 5 3
v -3.3 5 3.1
v -3.3 5 3.2
v -3.3 5 3.3
v -3.3 5 3.4
v -3.3 5 3.5
v -3.3 5.1 3
v -3.3 5.1 3.1
v -3.3 5.1 3.2
v -3.3 5.1 3.3
v -3.3 5.1 3.4
v -3.3 5.1 3.5
v -3.3 5.2 2.9
v -3.3 5.2 3
v -3.3 5.2 3.1
v -3.3 5.2 3.2
v -3.3 5.2 3.3
v -3.3 5.2 3.4
v -3.3 5.2 3.5
v -3.2 5 3.5
v -3.2 5 3.6
v -3.2 5.1 3.5
v -3.2 5.1 3.6
v -3.1 4.8 3
v -3.1 4.8 3.1
v -3.1 4.8 3.4
v -3.1 4.8 3.5
v -3.1 4.9 3
v -3.1 4.9 3.1
v -3.1 4.9 3.4
v -3.1 4.9 3.5
v -3.2 4.8 3
v -3.2 4.8 3.1
v -3.2 4.8 3.4
v -3.2 4.8 3.5
v -3.2 4.9 3
v -3.2 4.9 3.1
v -3.2 4.9 3.4
v -3.2 4.9 3.5
v -3.1 5 3.5
v -3.1 5 3.6
v -3.1 5.1 3.5
v -3.1 5.1 3.6
v -3 4.8 3
v -3 4.8 3.1
v -3 4.8 3.4
v -3 4.8 3.5
v -3 4.9 3
v -3 4.9 3.1
v -3 4.9 3.2
v -3 4.9 3.3
v -3 4.9 3.4
v -3 4.9 3.5
v -3 5 2.9
v -3 5 3
v -3 5 3.1
v -3 5 3.2
v -3 5 3.3
v -3 5 3.4
v -3 5 3.5
v -3 5.1 3
v -3 5.1 3.1
v -3 5.1 3.2
v -3 5.1 3.3
v -3 5.1 3.4
v -3 5.1 3.5
v -3 5.2 2.9
v -3 5.2 3
v -3 5.2 3.1
v -3 5.2 3.2
v -3 5.2 3.3
v -3 5.2 3.4
v -3 5.2 3.5
v -2.9 5.1 3
v -2.9 5.1 3.1
v -2.9 5.2 3
v -2.9 5.2 3.1
v -3.3 5 2.9
v -3.3 5.2 2.9
v -3 5 2.9
v -3 5.2 2.9
v -3.4 5.1 3
v -3.4 5.2 3
v -3.3 4.8 3
v -3.3 4.9 3
v -3.3 5 3
v -3.3 5.1 3
v -3.3 5.2 3
v -3.2 4.8 3
v -3.2 4.9 3
v -3.2 5 3
v -3.1 4.8 3
v -3.1 4.9 3
v -3.1 5 3
v -3 4.8 3
v -3 4.9 3
v -3 5 3
v -3 5.1 3
v -3 5.2 3
v -2.9 5.1 3
v -2.9 5.2 3
v -3.3 4.8 3.4
v -3.3 4.9 3.4
v -3.2 4.8 3.4
v -3.2 4.9 3.4
v -3.1 4.8 3.4
v -3.1 4.9 3.4
v -3 4.8 3.4
v -3 4.9 3.4
v -3.4 5.1 3.1
v -3.4 5.2 3.1
v -3.3 4.8 3.1
v -3.3 4.9 3.1
v -3.3 5.1 3.1
v -3.3 5.2 3.1
v -3.2 4.8 3.1
v -3.2 4.9 3.1
v -3.1 4.8 3.1
v -3.1 4.9 3.1
v -3 4.8 3.1
v -3 4.9 3.1
v -3 5.1 3.1
v -3 5.2 3.1
v -2.9 5.1 3.1
v -2.9 5.2 3.1
v -3.3 4.8 3.5
v -3.3 4.9 3.5
v -3.3 5 3.5
v -3.3 5.1 3.5
v -3.3 5.2 3.5
v -3.2 4.8 3.5
v -3.2 4.9 3.5
v -3.2 5 3.5
v -3.2 5.1 3.5
v -3.2 5.2 3.5
v -3.1 4.8 3.5
v -3.1 4.9 3.5
v -3.1 5 3.5
v -3.1 5.1 3.5
v -3.1 5.2 3.5
v -3 4.8 3.5
v -3 4.9 3.5
v -3 5 3.5
v -3 5.1 3.5
v -3 5.2 3.5
v -3.2 5 3.6
v -3.2 5.1 3.6
v -3.1 5 3.6
v -3.1 5.1 3.6
v -3.3 4.8 3
v -3.2 4.8 3
v -3.1 4.8 3
v -3 4.8 3
v -3.3 4.8 3.1
v -3.2 4.8 3.1
v -3.1 4.8 3.1
v -3 4.8 3.1
v -3.3 4.8 3.4
v -3.2 4.8 3.4
v -3.1 4.8 3.4
v -3 4.8 3.4
v -3.3 4.8 3.5
v -3.2 4.8 3.5
v -3.1 4.8 3.5
v -3 4.8 3.5
v -3.2 4.9 3
v -3.1 4.9 3
v -3.3 4.9 3.1
v -3.2 4.9 3.1
v -3.1 4.9 3.1
v -3 4.9 3.1
v -3.3 4.9 3.2
v -3.2 4.9 3.2
v -3.1 4.9 3.2
v -3 4.9 3.2
v -3.3 4.9 3.3
v -3.2 4.9 3.3
v -3.1 4.9 3.3
v -3 4.9 3.3
v -3.3 4.9 3.4
v -3.2 4.9 3.4
v -3.1 4.9 3.4
v -3 4.9 3.4
v -3.2 4.9 3.5
v -3.1 4.9 3.5
v -3.3 5 2.9
v -3 5 2.9
v -3.3 5 3
v -3.2 5 3
v -3.1 5 3
v -3 5 3
v -3.2 5 3.5
v -3.1 5 3.5
v -3.2 5 3.6
v -3.1 5 3.6
v -3.4 5.1 3
v -3.3 5.1 3
v -3 5.1 3
v -2.9 5.1 3
v -3.4 5.1 3.1
v -3.3 5.1 3.1
v -3 5.1 3.1
v -2.9 5.1 3.1
v -3.2 5.1 3.5
v -3.1 5.1 3.5
v -3.2 5.1 3.6
v -3.1 5.1 3.6
v -3.3 5.2 2.9
v -3 5.2 2.9
v -3.4 5.2 3
v -3.3 5.2 3
v -3 5.2 3
v -2.9 5.2 3
v -3.4 5.2 3.1
v -3.3 5.2 3.1
v -3.2 5.2 3.1
v -3.1 5.2 3.1
v -3 5.2 3.1
v -2.9 5.2 3.1
v -3.3 5.2 3.2
v -3.2 5.2 3.2
v -3.1 5.2 3.2
v -3 5.2 3.2
v -3.3 5.2 3.3
v -3.2 5.2 3.3
v -3.1 5.2 3.3
v -3 5.2 3.3
v -3.3 5.2 3.4
v -3.2 5.2 3.4
v -3.1 5.2 3.4
v -3 5.2 3.4
v -3.3 5.2 3.5
v -3.2 5.2 3.5
v -3.1 5.2 3.5
v -3 5.2 3.5

# faces
f 1/5/1 2/5/1 3/5/1
f 3/5/1 2/5/1 4/5/1
f 5/6/1 6/6/1 9/6/1
f 9/6/1 6/6/1 10/6/1
f 7/6/1 8/6/1 13/6/1
f 13/6/1 8/6/1 14/6/1
f 9/3/1 10/3/1 16/3/1
f 10/2/1 11/2/1 17/2/1
f 16/3/1 10/3/1 17/3/1
f 11/1/1 12/1/1 18/1/1
f 17/2/1 11/2/1 18/2/1
f 12/4/1 13/4/1 19/4/1
f 18/1/1 12/1/1 19/1/1
f 13/2/1 14/2/1 20/2/1
f 19/4/1 13/4/1 20/4/1
f 20/2/1 14/2/1 21/2/1
f 16/6/1 17/6/1 22/6/1
f 15/6/1 16/6/1 22/6/1
f 17/3/1 18/3/1 23/3/1
f 22/6/1 17/6/1 23/6/1
f 18/4/1 19/4/1 24/4/1
f 23/3/1 18/3/1 24/3/1
f 19/1/1 20/1/1 25/1/1
f 24/4/1 19/4/1 25/4/1
f 20/4/1 21/4/1 26/4/1
f 25/1/1 20/1/1 26/1/1
f 26/4/1 21/4/1 27/4/1
f 15/6/1 22/6/1 28/6/1
f 28/6/1 22/6/1 29/6/1
f 23/4/1 24/4/1 30/4/1
f 24/2/1 25/2/1 31/2/1
f 30/4/1 24/4/1 31/4/1
f 25/3/1 26/3/1 32/3/1
f 31/2/1 25/2/1 32/2/1
f 26/2/1 27/2/1 33/2/1
f 32/3/1 26/3/1 33/3/1
f 33/2/1 27/2/1 34/2/1
f 35/6/1 36/6/1 37/6/1
f 37/6/1 36/6/1 38/6/1
f 39/6/1 40/6/1 43/6/1
f 43/6/1 40/6/1 44/6/1
f 41/6/1 42/6/1 45/6/1
f 45/6/1 42/6/1 46/6/1
f 51/6/2 48/6/2 47/6/2
f 52/6/2 48/6/2 51/6/2
f 53/6/2 50/6/2 49/6/2
f 54/6/2 50/6/2 53/6/2
f 57/6/2 56/6/2 55/6/2
f 58/6/2 56/6/2 57/6/2
f 63/6/2 60/6/2 59/6/2
f 64/6/2 60/6/2 63/6/2
f 67/6/2 62/6/2 61/6/2
f 68/6/2 62/6/2 67/6/2
f 70/2/2 64/2/2 63/2/2
f 71/3/2 65/3/2 64/3/2
f 71/2/2 64/2/2 70/2/2
f 72/1/2 66/1/2 65/1/2
f 72/3/2 65/3/2 71/3/2
f 73/2/2 67/2/2 66/2/2
f 73/1/2 66/1/2 72/1/2
f 74/4/2 68/4/2 67/4/2
f 74/2/2 67/2/2 73/2/2
f 75/4/2 68/4/2 74/4/2
f 76/6/2 71/6/2 70/6/2
f 76/6/2 70/6/2 69/6/2
f 77/1/2 72/1/2 71/1/2
f 77/6/2 71/6/2 76/6/2
f 78/4/2 73/4/2 72/4/2
f 78/1/2 72/1/2 77/1/2
f 79/3/2 74/3/2 73/3/2
f 79/4/2 73/4/2 78/4/2
f 80/1/2 75/1/2 74/1/2
f 80/3/2 74/3/2 79/3/2
f 81/1/2 75/1/2 80/1/2
f 82/6/2 76/6/2 69/6/2
f 83/6/2 76/6/2 82/6/2
f 84/3/2 78/3/2 77/3/2
f 85/2/2 79/2/2 78/2/2
f 85/3/2 78/3/2 84/3/2
f 86/1/2 80/1/2 79/1/2
f 86/2/2 79/2/2 85/2/2
f 87/2/2 81/2/2 80/2/2
f 87/1/2 80/1/2 86/1/2
f 88/2/2 81/2/2 87/2/2
f 91/5/2 90/5/2 89/5/2
f 92/5/2 90/5/2 91/5/2
f 93/6/3 94/6/3 95/6/3
f 95/6/3 94/6/3 96/6/3
f 97/5/3 98/5/3 102/5/3
f 102/5/3 98/5/3 103/5/3
f 99/6/3 100/6/3 104/6/3
f 100/3/3 101/3/3 105/3/3
f 104/6/3 100/6/3 105/6/3
f 105/3/3 101/3/3 106/3/3
f 105/4/3 106/4/3 108/4/3
f 108/4/3 106/4/3 109/4/3
f 107/6/3 108/6/3 110/6/3
f 108/2/3 109/2/3 111/2/3
f 110/6/3 108/6/3 111/6/3
f 111/2/3 109/2/3 112/2/3
f 113/5/3 114/5/3 115/5/3
f 115/5/3 114/5/3 116/5/3
f 117/6/3 118/6/3 119/6/3
f 119/6/3 118/6/3 120/6/3
f 121/6/3 122/6/3 123/6/3
f 123/6/3 122/6/3 124/6/3
f 129/5/4 126/5/4 125/5/4
f 130/5/4 126/5/4 129/5/4
f 131/6/4 128/6/4 127/6/4
f 132/6/4 128/6/4 131/6/4
f 135/6/4 134/6/4 133/6/4
f 136/6/4 134/6/4 135/6/4
f 139/5/4 138/5/4 137/5/4
f 140/5/4 138/5/4 139/5/4
f 146/6/4 142/6/4 141/6/4
f 147/2/4 143/2/4 142/2/4
f 147/6/4 142/6/4 146/6/4
f 148/4/4 144/4/4 143/4/4
f 148/2/4 143/2/4 147/2/4
f 149/2/4 145/2/4 144/2/4
f 149/4/4 144/4/4 148/4/4
f 150/2/4 145/2/4 149/2/4
f 152/1/4 148/1/4 147/1/4
f 153/1/4 148/1/4 152/1/4
f 154/1/4 150/1/4 149/1/4
f 155/1/4 150/1/4 154/1/4
f 156/6/4 152/6/4 151/6/4
f 157/4/4 153/4/4 152/4/4
f 157/6/4 152/6/4 156/6/4
f 158/1/4 154/1/4 153/1/4
f 158/4/4 153/4/4 157/4/4
f 159/2/4 155/2/4 154/2/4
f 159/1/4 154/1/4 158/1/4
f 160/2/4 155/2/4 159/2/4
f 163/6/4 162/6/4 161/6/4
f 164/6/4 162/6/4 163/6/4
f 165/6/5 166/6/5 169/6/5
f 169/6/5 166/6/5 170/6/5
f 167/6/5 168/6/5 171/6/5
f 171/6/5 168/6/5 172/6/5
f 173/6/5 174/6/5 177/6/5
f 177/6/5 174/6/5 178/6/5
f 175/6/5 176/6/5 179/6/5
f 179/6/5 176/6/5 180/6/5
f 181/4/5 182/4/5 184/4/5
f 184/4/5 182/4/5 185/4/5
f 183/2/5 184/2/5 187/2/5
f 184/4/5 185/4/5 188/4/5
f 187/2/5 184/2/5 188/2/5
f 185/3/5 186/3/5 189/3/5
f 188/4/5 185/4/5 189/4/5
f 189/3/5 186/3/5 190/3/5
f 187/1/5 188/1/5 191/1/5
f 188/4/5 189/4/5 192/4/5
f 191/1/5 188/1/5 192/1/5
f 189/1/5 190/1/5 193/1/5
f 192/4/5 189/4/5 193/4/5
f 193/1/5 190/1/5 194/1/5
f 191/4/5 192/4/5 195/4/5
f 192/4/5 193/4/5 195/4/5
f 195/4/5 193/4/5 196/4/5
f 193/2/5 194/2/5 197/2/5
f 196/4/5 193/4/5 197/4/5
f 197/2/5 194/2/5 198/2/5
f 196/1/5 197/1/5 199/1/5
f 199/1/5 197/1/5 200/1/5
f 201/6/5 202/6/5 203/6/5
f 203/6/5 202/6/5 204/6/5
f 204/6/5 202/6/5 205/6/5
f 205/6/5 202/6/5 206/6/5
f 207/6/5 208/6/5 209/6/5
f 209/6/5 208/6/5 210/6/5
f 211/5/5 212/5/5 215/5/5
f 215/5/5 212/5/5 216/5/5
f 213/5/5 214/5/5 217/5/5
f 217/5/5 214/5/5 218/5/5
f 221/6/6 220/6/6 219/6/6
f 222/6/6 220/6/6 221/6/6
f 226/6/6 224/6/6 223/6/6
f 227/6/6 224/6/6 226/6/6
f 229/5/6 226/5/6 225/5/6
f 230/6/6 227/6/6 226/6/6
f 230/5/6 226/5/6 229/5/6
f 231/6/6 227/6/6 230/6/6
f 232/6/6 227/6/6 231/6/6
f 233/5/6 228/5/6 227/5/6
f 233/6/6 227/6/6 232/6/6
f 234/5/6 228/5/6 233/5/6
f 235/4/6 231/4/6 230/4/6
f 236/2/6 232/2/6 231/2/6
f 236/4/6 231/4/6 235/4/6
f 237/3/6 233/3/6 232/3/6
f 237/2/6 232/2/6 236/2/6
f 238/3/6 233/3/6 237/3/6
f 239/2/6 236/2/6 235/2/6
f 240/3/6 237/3/6 236/3/6
f 240/2/6 236/2/6 239/2/6
f 241/2/6 238/2/6 237/2/6
f 241/3/6 237/3/6 240/3/6
f 242/2/6 238/2/6 241/2/6
f 243/3/6 240/3/6 239/3/6
f 244/4/6 241/4/6 240/4/6
f 244/3/6 240/3/6 243/3/6
f 245/1/6 242/1/6 241/1/6
f 245/4/6 241/4/6 244/4/6
f 246/1/6 242/1/6 245/1/6
f 247/2/6 244/2/6 243/2/6
f 248/1/6 245/1/6 244/1/6
f 248/2/6 244/2/6 247/2/6
f 249/2/6 246/2/6 245/2/6
f 249/1/6 245/1/6 248/1/6
f 250/2/6 246/2/6 249/2/6
