# MagicaVoxel @ Ephtracy

# group
o 

# material
mtllib granjafinal_tractor.mtl
usemtl palette

# normals
vn 0 0 1
vn 0 0 -1
vn 1 0 0
vn -1 0 0
vn 0 -1 0
vn 0 1 0

# texcoords
vt 0.443359 0.5
vt 0.447266 0.5
vt 0.630859 0.5
vt 0.880859 0.5
vt 0.884766 0.5
vt 0.943359 0.5
vt 0.947266 0.5

# verts
v -3.7 5.1 -3.4
v -3.8 5.1 -3.4
v -4.4 5.1 -3.4
v -4.5 5.1 -3.4
v -3.7 5.3 -3.4
v -3.8 5.3 -3.4
v -3.9 5.3 -3.4
v -4.3 5.3 -3.4
v -4.4 5.3 -3.4
v -4.5 5.3 -3.4
v -3.8 5.4 -3.4
v -3.9 5.4 -3.4
v -4.3 5.4 -3.4
v -4.4 5.4 -3.4
v -3.9 5.5 -3.4
v -4.3 5.5 -3.4
v -3 4.8 -3.5
v -3.3 4.8 -3.5
v -3.9 4.8 -3.5
v -4.3 4.8 -3.5
v -2.9 4.9 -3.5
v -3 4.9 -3.5
v -3.1 4.9 -3.5
v -3.2 4.9 -3.5
v -3.3 4.9 -3.5
v -3.4 4.9 -3.5
v -3.8 4.9 -3.5
v -3.9 4.9 -3.5
v -4 4.9 -3.5
v -4.2 4.9 -3.5
v -4.3 4.9 -3.5
v -4.4 4.9 -3.5
v -3 5 -3.5
v -3.1 5 -3.5
v -3.2 5 -3.5
v -3.3 5 -3.5
v -3.9 5 -3.5
v -4 5 -3.5
v -4.2 5 -3.5
v -4.3 5 -3.5
v -3 5.1 -3.5
v -3.1 5.1 -3.5
v -3.2 5.1 -3.5
v -3.3 5.1 -3.5
v -3.8 5.1 -3.5
v -4.4 5.1 -3.5
v -2.9 5.2 -3.5
v -3 5.2 -3.5
v -3.1 5.2 -3.5
v -3.2 5.2 -3.5
v -3.3 5.2 -3.5
v -3.4 5.2 -3.5
v -3.9 5.2 -3.5
v -4 5.2 -3.5
v -4.2 5.2 -3.5
v -4.3 5.2 -3.5
v -3 5.3 -3.5
v -3.3 5.3 -3.5
v -3.8 5.3 -3.5
v -3.9 5.3 -3.5
v -4 5.3 -3.5
v -4.2 5.3 -3.5
v -4.3 5.3 -3.5
v -4.4 5.3 -3.5
v -3.9 5.4 -3.5
v -4.3 5.4 -3.5
v -3.1 4.9 -3.6
v -3.2 4.9 -3.6
v -4 4.9 -3.6
v -4.2 4.9 -3.6
v -3 5 -3.6
v -3.1 5 -3.6
v -3.2 5 -3.6
v -3.3 5 -3.6
v -3.9 5 -3.6
v -4 5 -3.6
v -4.2 5 -3.6
v -4.3 5 -3.6
v -3 5.1 -3.6
v -3.1 5.1 -3.6
v -3.2 5.1 -3.6
v -3.3 5.1 -3.6
v -3.1 5.2 -3.6
v -3.2 5.2 -3.6
v -3.9 5.2 -3.6
v -4 5.2 -3.6
v -4.2 5.2 -3.6
v -4.3 5.2 -3.6
v -4 5.3 -3.6
v -4.2 5.3 -3.6
v -3.4 5.1 -3.7
v -3.7 5.1 -3.7
v -3.4 5.2 -3.7
v -3.4 5.3 -3.7
v -3.5 5.3 -3.7
v -3.7 5.3 -3.7
v -3.8 5.3 -3.7
v -3.5 5.4 -3.7
v -3.8 5.4 -3.7
v -3.9 5.4 -3.7
v -3.8 5.5 -3.7
v -3.9 5.5 -3.7
v -2.9 5 -3.8
v -3.9 5 -3.8
v -3 5.1 -3.8
v -3.9 5.1 -3.8
v -4.2 5.1 -3.8
v -4.3 5.1 -3.8
v -3 5.2 -3.8
v -3.1 5.2 -3.8
v -4.2 5.2 -3.8
v -4.3 5.2 -3.8
v -3.1 5.3 -3.8
v -3.4 5.3 -3.8
v -3.5 5.3 -3.8
v -2.9 5.4 -3.8
v -3 5.4 -3.8
v -3.5 5.4 -3.8
v -3.8 5.4 -3.8
v -3 5.5 -3.8
v -3.8 5.5 -3.8
v -3.1 5.2 -3.9
v -3.4 5.2 -3.9
v -3.1 5.3 -3.9
v -3.4 5.3 -3.9
v -2.9 5.4 -3.9
v -3 5.4 -3.9
v -2.9 5.5 -3.9
v -3 5.5 -3.9
v -2.9 5 -4.1
v -3 5 -4.1
v -2.9 5.3 -4.1
v -3 5.3 -4.1
v -3 4.8 -4.3
v -3.3 4.8 -4.3
v -3.9 4.8 -4.3
v -4.3 4.8 -4.3
v -2.9 4.9 -4.3
v -3 4.9 -4.3
v -3.1 4.9 -4.3
v -3.2 4.9 -4.3
v -3.3 4.9 -4.3
v -3.4 4.9 -4.3
v -3.8 4.9 -4.3
v -3.9 4.9 -4.3
v -4 4.9 -4.3
v -4.2 4.9 -4.3
v -4.3 4.9 -4.3
v -4.4 4.9 -4.3
v -3 5 -4.3
v -3.1 5 -4.3
v -3.2 5 -4.3
v -3.3 5 -4.3
v -3.9 5 -4.3
v -4 5 -4.3
v -4.1 5 -4.3
v -4.2 5 -4.3
v -4.3 5 -4.3
v -3 5.1 -4.3
v -3.3 5.1 -4.3
v -3.4 5.1 -4.3
v -3.8 5.1 -4.3
v -3.9 5.1 -4.3
v -4.1 5.1 -4.3
v -4.2 5.1 -4.3
v -4.4 5.1 -4.3
v -4.5 5.1 -4.3
v -2.9 5.2 -4.3
v -3 5.2 -4.3
v -3.3 5.2 -4.3
v -4.2 5.2 -4.3
v -4.3 5.2 -4.3
v -3 5.3 -4.3
v -3.3 5.3 -4.3
v -4.3 5.3 -4.3
v -4.4 5.3 -4.3
v -4.5 5.3 -4.3
v -3.4 5.4 -4.3
v -3.5 5.4 -4.3
v -4.2 5.4 -4.3
v -4.3 5.4 -4.3
v -4.4 5.4 -4.3
v -4.2 5.5 -4.3
v -4.3 5.5 -4.3
v -3.4 5.7 -4.3
v -3.5 5.7 -4.3
v -3 4.8 -3.7
v -3.3 4.8 -3.7
v -3.9 4.8 -3.7
v -4.3 4.8 -3.7
v -2.9 4.9 -3.7
v -3 4.9 -3.7
v -3.1 4.9 -3.7
v -3.2 4.9 -3.7
v -3.3 4.9 -3.7
v -3.4 4.9 -3.7
v -3.8 4.9 -3.7
v -3.9 4.9 -3.7
v -4 4.9 -3.7
v -4.2 4.9 -3.7
v -4.3 4.9 -3.7
v -4.4 4.9 -3.7
v -3 5 -3.7
v -3.1 5 -3.7
v -3.2 5 -3.7
v -3.3 5 -3.7
v -3.9 5 -3.7
v -4 5 -3.7
v -4.1 5 -3.7
v -4.2 5 -3.7
v -4.3 5 -3.7
v -3 5.1 -3.7
v -3.3 5.1 -3.7
v -3.4 5.1 -3.7
v -3.8 5.1 -3.7
v -3.9 5.1 -3.7
v -4.1 5.1 -3.7
v -4.2 5.1 -3.7
v -4.4 5.1 -3.7
v -4.5 5.1 -3.7
v -2.9 5.2 -3.7
v -3 5.2 -3.7
v -3.3 5.2 -3.7
v -4.2 5.2 -3.7
v -4.3 5.2 -3.7
v -3 5.3 -3.7
v -3.3 5.3 -3.7
v -4.3 5.3 -3.7
v -4.4 5.3 -3.7
v -4.5 5.3 -3.7
v -4.2 5.4 -3.7
v -4.3 5.4 -3.7
v -4.4 5.4 -3.7
v -4.2 5.5 -3.7
v -4.3 5.5 -3.7
v -2.9 5 -3.9
v -3 5 -3.9
v -2.9 5.3 -3.9
v -3 5.3 -3.9
v -3.1 5.2 -4.1
v -3.4 5.2 -4.1
v -3.1 5.3 -4.1
v -3.4 5.3 -4.1
v -2.9 5.4 -4.1
v -3 5.4 -4.1
v -2.9 5.5 -4.1
v -3 5.5 -4.1
v -2.9 5 -4.2
v -3.9 5 -4.2
v -3 5.1 -4.2
v -3.9 5.1 -4.2
v -4.2 5.1 -4.2
v -4.3 5.1 -4.2
v -3 5.2 -4.2
v -3.1 5.2 -4.2
v -4.2 5.2 -4.2
v -4.3 5.2 -4.2
v -3.1 5.3 -4.2
v -3.4 5.3 -4.2
v -2.9 5.4 -4.2
v -3 5.4 -4.2
v -3.4 5.4 -4.2
v -3.5 5.4 -4.2
v -3.8 5.4 -4.2
v -3 5.5 -4.2
v -3.8 5.5 -4.2
v -3.4 5.1 -4.3
v -3.7 5.1 -4.3
v -3.4 5.2 -4.3
v -3.5 5.2 -4.3
v -3.7 5.2 -4.3
v -3.4 5.3 -4.3
v -3.5 5.3 -4.3
v -3.7 5.3 -4.3
v -3.8 5.3 -4.3
v -3.5 5.4 -4.3
v -3.8 5.4 -4.3
v -3.9 5.4 -4.3
v -3.8 5.5 -4.3
v -3.9 5.5 -4.3
v -3.1 4.9 -4.4
v -3.2 4.9 -4.4
v -4 4.9 -4.4
v -4.2 4.9 -4.4
v -3 5 -4.4
v -3.1 5 -4.4
v -3.2 5 -4.4
v -3.3 5 -4.4
v -3.9 5 -4.4
v -4 5 -4.4
v -4.2 5 -4.4
v -4.3 5 -4.4
v -3 5.1 -4.4
v -3.1 5.1 -4.4
v -3.2 5.1 -4.4
v -3.3 5.1 -4.4
v -3.1 5.2 -4.4
v -3.2 5.2 -4.4
v -3.5 5.2 -4.4
v -3.7 5.2 -4.4
v -3.9 5.2 -4.4
v -4 5.2 -4.4
v -4.2 5.2 -4.4
v -4.3 5.2 -4.4
v -3.4 5.3 -4.4
v -3.5 5.3 -4.4
v -3.7 5.3 -4.4
v -4 5.3 -4.4
v -4.2 5.3 -4.4
v -3.4 5.7 -4.4
v -3.5 5.7 -4.4
v -3 4.8 -4.5
v -3.3 4.8 -4.5
v -3.9 4.8 -4.5
v -4.3 4.8 -4.5
v -2.9 4.9 -4.5
v -3 4.9 -4.5
v -3.1 4.9 -4.5
v -3.2 4.9 -4.5
v -3.3 4.9 -4.5
v -3.4 4.9 -4.5
v -3.8 4.9 -4.5
v -3.9 4.9 -4.5
v -4 4.9 -4.5
v -4.2 4.9 -4.5
v -4.3 4.9 -4.5
v -4.4 4.9 -4.5
v -3 5 -4.5
v -3.1 5 -4.5
v -3.2 5 -4.5
v -3.3 5 -4.5
v -3.9 5 -4.5
v -4 5 -4.5
v -4.2 5 -4.5
v -4.3 5 -4.5
v -3 5.1 -4.5
v -3.1 5.1 -4.5
v -3.2 5.1 -4.5
v -3.3 5.1 -4.5
v -3.8 5.1 -4.5
v -4.4 5.1 -4.5
v -2.9 5.2 -4.5
v -3 5.2 -4.5
v -3.1 5.2 -4.5
v -3.2 5.2 -4.5
v -3.3 5.2 -4.5
v -3.4 5.2 -4.5
v -3.9 5.2 -4.5
v -4 5.2 -4.5
v -4.2 5.2 -4.5
v -4.3 5.2 -4.5
v -3 5.3 -4.5
v -3.3 5.3 -4.5
v -3.8 5.3 -4.5
v -3.9 5.3 -4.5
v -4 5.3 -4.5
v -4.2 5.3 -4.5
v -4.3 5.3 -4.5
v -4.4 5.3 -4.5
v -3.9 5.4 -4.5
v -4.3 5.4 -4.5
v -3.7 5.1 -4.6
v -3.8 5.1 -4.6
v -4.4 5.1 -4.6
v -4.5 5.1 -4.6
v -3.7 5.3 -4.6
v -3.8 5.3 -4.6
v -3.9 5.3 -4.6
v -4.3 5.3 -4.6
v -4.4 5.3 -4.6
v -4.5 5.3 -4.6
v -3.8 5.4 -4.6
v -3.9 5.4 -4.6
v -4.3 5.4 -4.6
v -4.4 5.4 -4.6
v -3.9 5.5 -4.6
v -4.3 5.5 -4.6
v -2.9 4.9 -3.5
v -2.9 5.2 -3.5
v -2.9 4.9 -3.7
v -2.9 5.2 -3.7
v -2.9 5 -3.8
v -2.9 5.4 -3.8
v -2.9 5 -3.9
v -2.9 5.3 -3.9
v -2.9 5.4 -3.9
v -2.9 5.5 -3.9
v -2.9 5 -4.1
v -2.9 5.3 -4.1
v -2.9 5.4 -4.1
v -2.9 5.5 -4.1
v -2.9 5 -4.2
v -2.9 5.4 -4.2
v -2.9 4.9 -4.3
v -2.9 5.2 -4.3
v -2.9 4.9 -4.5
v -2.9 5.2 -4.5
v -3 4.8 -3.5
v -3 4.9 -3.5
v -3 5.2 -3.5
v -3 5.3 -3.5
v -3 4.8 -3.7
v -3 4.9 -3.7
v -3 5.1 -3.7
v -3 5.2 -3.7
v -3 5.3 -3.7
v -3 5.1 -3.8
v -3 5.2 -3.8
v -3 5.4 -3.8
v -3 5.5 -3.8
v -3 5 -3.9
v -3 5.3 -3.9
v -3 5.4 -3.9
v -3 5.5 -3.9
v -3 5 -4.1
v -3 5.3 -4.1
v -3 5.4 -4.1
v -3 5.5 -4.1
v -3 5.1 -4.2
v -3 5.2 -4.2
v -3 5.4 -4.2
v -3 5.5 -4.2
v -3 4.8 -4.3
v -3 4.9 -4.3
v -3 5.1 -4.3
v -3 5.2 -4.3
v -3 5.3 -4.3
v -3 4.8 -4.5
v -3 4.9 -4.5
v -3 5.2 -4.5
v -3 5.3 -4.5
v -3.2 4.9 -3.5
v -3.2 5 -3.5
v -3.2 5.1 -3.5
v -3.2 5.2 -3.5
v -3.2 4.9 -3.6
v -3.2 5 -3.6
v -3.2 5.1 -3.6
v -3.2 5.2 -3.6
v -3.2 4.9 -4.4
v -3.2 5 -4.4
v -3.2 5.1 -4.4
v -3.2 5.2 -4.4
v -3.2 4.9 -4.5
v -3.2 5 -4.5
v -3.2 5.1 -4.5
v -3.2 5.2 -4.5
v -3.3 5 -3.5
v -3.3 5.1 -3.5
v -3.3 5 -3.6
v -3.3 5.1 -3.6
v -3.3 5 -4.4
v -3.3 5.1 -4.4
v -3.3 5 -4.5
v -3.3 5.1 -4.5
v -3.4 5.2 -3.7
v -3.4 5.3 -3.7
v -3.4 5.3 -3.8
v -3.4 5.2 -3.9
v -3.4 5.3 -3.9
v -3.4 5.2 -4.1
v -3.4 5.3 -4.1
v -3.4 5.3 -4.2
v -3.4 5.4 -4.2
v -3.4 5.2 -4.3
v -3.4 5.3 -4.3
v -3.4 5.4 -4.3
v -3.4 5.7 -4.3
v -3.4 5.3 -4.4
v -3.4 5.7 -4.4
v -3.5 5.3 -3.7
v -3.5 5.4 -3.7
v -3.5 5.3 -3.8
v -3.5 5.4 -3.8
v -3.5 5.2 -4.3
v -3.5 5.3 -4.3
v -3.5 5.2 -4.4
v -3.5 5.3 -4.4
v -3.7 5.1 -3.4
v -3.7 5.3 -3.4
v -3.7 5.1 -3.5
v -3.7 5.3 -3.5
v -3.7 5.1 -3.6
v -3.7 5.3 -3.6
v -3.7 5.1 -3.7
v -3.7 5.3 -3.7
v -3.7 5.1 -4.3
v -3.7 5.2 -4.3
v -3.7 5.1 -4.4
v -3.7 5.2 -4.4
v -3.7 5.3 -4.4
v -3.7 5.1 -4.5
v -3.7 5.3 -4.5
v -3.7 5.1 -4.6
v -3.7 5.3 -4.6
v -3.8 5.3 -3.4
v -3.8 5.4 -3.4
v -3.8 4.9 -3.5
v -3.8 5.1 -3.5
v -3.8 5.3 -3.5
v -3.8 5.4 -3.5
v -3.8 5.1 -3.6
v -3.8 5.3 -3.6
v -3.8 5.4 -3.6
v -3.8 4.9 -3.7
v -3.8 5.1 -3.7
v -3.8 5.3 -3.7
v -3.8 5.4 -3.7
v -3.8 5.5 -3.7
v -3.8 5.4 -3.8
v -3.8 5.5 -3.8
v -3.8 5.4 -4.2
v -3.8 5.5 -4.2
v -3.8 4.9 -4.3
v -3.8 5.1 -4.3
v -3.8 5.3 -4.3
v -3.8 5.4 -4.3
v -3.8 5.5 -4.3
v -3.8 5.1 -4.4
v -3.8 5.3 -4.4
v -3.8 5.4 -4.4
v -3.8 4.9 -4.5
v -3.8 5.1 -4.5
v -3.8 5.3 -4.5
v -3.8 5.4 -4.5
v -3.8 5.3 -4.6
v -3.8 5.4 -4.6
v -3.9 5.4 -3.4
v -3.9 5.5 -3.4
v -3.9 4.8 -3.5
v -3.9 4.9 -3.5
v -3.9 5.4 -3.5
v -3.9 5.5 -3.5
v -3.9 5.4 -3.6
v -3.9 5.5 -3.6
v -3.9 4.8 -3.7
v -3.9 4.9 -3.7
v -3.9 5 -3.7
v -3.9 5.1 -3.7
v -3.9 5.4 -3.7
v -3.9 5.5 -3.7
v -3.9 5 -3.8
v -3.9 5.1 -3.8
v -3.9 5 -4.2
v -3.9 5.1 -4.2
v -3.9 4.8 -4.3
v -3.9 4.9 -4.3
v -3.9 5 -4.3
v -3.9 5.1 -4.3
v -3.9 5.4 -4.3
v -3.9 5.5 -4.3
v -3.9 5.4 -4.4
v -3.9 5.5 -4.4
v -3.9 4.8 -4.5
v -3.9 4.9 -4.5
v -3.9 5.4 -4.5
v -3.9 5.5 -4.5
v -3.9 5.4 -4.6
v -3.9 5.5 -4.6
v -4.2 4.9 -3.5
v -4.2 5 -3.5
v -4.2 5.2 -3.5
v -4.2 5.3 -3.5
v -4.2 4.9 -3.6
v -4.2 5 -3.6
v -4.2 5.2 -3.6
v -4.2 5.3 -3.6
v -4.2 4.9 -4.4
v -4.2 5 -4.4
v -4.2 5.2 -4.4
v -4.2 5.3 -4.4
v -4.2 4.9 -4.5
v -4.2 5 -4.5
v -4.2 5.2 -4.5
v -4.2 5.3 -4.5
v -4.3 5.3 -3.4
v -4.3 5.4 -3.4
v -4.3 5 -3.5
v -4.3 5.2 -3.5
v -4.3 5.3 -3.5
v -4.3 5.4 -3.5
v -4.3 5 -3.6
v -4.3 5.2 -3.6
v -4.3 5 -4.4
v -4.3 5.2 -4.4
v -4.3 5 -4.5
v -4.3 5.2 -4.5
v -4.3 5.3 -4.5
v -4.3 5.4 -4.5
v -4.3 5.3 -4.6
v -4.3 5.4 -4.6
v -4.4 5.1 -3.4
v -4.4 5.3 -3.4
v -4.4 5.1 -3.5
v -4.4 5.3 -3.5
v -4.4 5.1 -4.5
v -4.4 5.3 -4.5
v -4.4 5.1 -4.6
v -4.4 5.3 -4.6
v -3 5 -3.5
v -3 5.1 -3.5
v -3 5 -3.6
v -3 5.1 -3.6
v -3 5 -4.4
v -3 5.1 -4.4
v -3 5 -4.5
v -3 5.1 -4.5
v -3.1 4.9 -3.5
v -3.1 5 -3.5
v -3.1 5.1 -3.5
v -3.1 5.2 -3.5
v -3.1 4.9 -3.6
v -3.1 5 -3.6
v -3.1 5.1 -3.6
v -3.1 5.2 -3.6
v -3.1 5.2 -3.8
v -3.1 5.3 -3.8
v -3.1 5.2 -3.9
v -3.1 5.3 -3.9
v -3.1 5.2 -4.1
v -3.1 5.3 -4.1
v -3.1 5.2 -4.2
v -3.1 5.3 -4.2
v -3.1 4.9 -4.4
v -3.1 5 -4.4
v -3.1 5.1 -4.4
v -3.1 5.2 -4.4
v -3.1 4.9 -4.5
v -3.1 5 -4.5
v -3.1 5.1 -4.5
v -3.1 5.2 -4.5
v -3.3 4.8 -3.5
v -3.3 4.9 -3.5
v -3.3 5.2 -3.5
v -3.3 5.3 -3.5
v -3.3 4.8 -3.7
v -3.3 4.9 -3.7
v -3.3 5.2 -3.7
v -3.3 5.3 -3.7
v -3.3 4.8 -4.3
v -3.3 4.9 -4.3
v -3.3 5.2 -4.3
v -3.3 5.3 -4.3
v -3.3 4.8 -4.5
v -3.3 4.9 -4.5
v -3.3 5.2 -4.5
v -3.3 5.3 -4.5
v -3.4 4.9 -3.5
v -3.4 5.2 -3.5
v -3.4 4.9 -3.7
v -3.4 5.1 -3.7
v -3.4 5.2 -3.7
v -3.4 4.9 -4.3
v -3.4 5.1 -4.3
v -3.4 5.2 -4.3
v -3.4 4.9 -4.5
v -3.4 5.2 -4.5
v -3.5 5.3 -4.3
v -3.5 5.4 -4.3
v -3.5 5.7 -4.3
v -3.5 5.3 -4.4
v -3.5 5.7 -4.4
v -3.8 5.1 -3.4
v -3.8 5.3 -3.4
v -3.8 5.1 -3.5
v -3.8 5.3 -3.5
v -3.8 5.1 -4.5
v -3.8 5.3 -4.5
v -3.8 5.1 -4.6
v -3.8 5.3 -4.6
v -3.9 5.3 -3.4
v -3.9 5.4 -3.4
v -3.9 5 -3.5
v -3.9 5.2 -3.5
v -3.9 5.3 -3.5
v -3.9 5.4 -3.5
v -3.9 5 -3.6
v -3.9 5.2 -3.6
v -3.9 5 -4.4
v -3.9 5.2 -4.4
v -3.9 5 -4.5
v -3.9 5.2 -4.5
v -3.9 5.3 -4.5
v -3.9 5.4 -4.5
v -3.9 5.3 -4.6
v -3.9 5.4 -4.6
v -4 4.9 -3.5
v -4 5 -3.5
v -4 5.2 -3.5
v -4 5.3 -3.5
v -4 4.9 -3.6
v -4 5 -3.6
v -4 5.2 -3.6
v -4 5.3 -3.6
v -4 4.9 -4.4
v -4 5 -4.4
v -4 5.2 -4.4
v -4 5.3 -4.4
v -4 4.9 -4.5
v -4 5 -4.5
v -4 5.2 -4.5
v -4 5.3 -4.5
v -4.1 5 -3.7
v -4.1 5.1 -3.7
v -4.1 5 -4.3
v -4.1 5.1 -4.3
v -4.2 5.1 -3.7
v -4.2 5.2 -3.7
v -4.2 5.4 -3.7
v -4.2 5.5 -3.7
v -4.2 5.1 -3.8
v -4.2 5.2 -3.8
v -4.2 5.1 -4.2
v -4.2 5.2 -4.2
v -4.2 5.1 -4.3
v -4.2 5.2 -4.3
v -4.2 5.4 -4.3
v -4.2 5.5 -4.3
v -4.3 5.4 -3.4
v -4.3 5.5 -3.4
v -4.3 4.8 -3.5
v -4.3 4.9 -3.5
v -4.3 5.4 -3.5
v -4.3 5.5 -3.5
v -4.3 5.4 -3.6
v -4.3 5.5 -3.6
v -4.3 4.8 -3.7
v -4.3 4.9 -3.7
v -4.3 5.2 -3.7
v -4.3 5.3 -3.7
v -4.3 5.4 -3.7
v -4.3 5.5 -3.7
v -4.3 5.1 -3.8
v -4.3 5.2 -3.8
v -4.3 5.3 -3.8
v -4.3 5.2 -3.9
v -4.3 5.3 -3.9
v -4.3 5.2 -4.1
v -4.3 5.3 -4.1
v -4.3 5.1 -4.2
v -4.3 5.2 -4.2
v -4.3 5.3 -4.2
v -4.3 4.8 -4.3
v -4.3 4.9 -4.3
v -4.3 5.2 -4.3
v -4.3 5.3 -4.3
v -4.3 5.4 -4.3
v -4.3 5.5 -4.3
v -4.3 5.4 -4.4
v -4.3 5.5 -4.4
v -4.3 4.8 -4.5
v -4.3 4.9 -4.5
v -4.3 5.4 -4.5
v -4.3 5.5 -4.5
v -4.3 5.4 -4.6
v -4.3 5.5 -4.6
v -4.4 5.3 -3.4
v -4.4 5.4 -3.4
v -4.4 4.9 -3.5
v -4.4 5.1 -3.5
v -4.4 5.3 -3.5
v -4.4 5.4 -3.5
v -4.4 5.1 -3.6
v -4.4 5.3 -3.6
v -4.4 5.4 -3.6
v -4.4 4.9 -3.7
v -4.4 5.1 -3.7
v -4.4 5.3 -3.7
v -4.4 5.4 -3.7
v -4.4 4.9 -4.3
v -4.4 5.1 -4.3
v -4.4 5.3 -4.3
v -4.4 5.4 -4.3
v -4.4 5.1 -4.4
v -4.4 5.3 -4.4
v -4.4 5.4 -4.4
v -4.4 4.9 -4.5
v -4.4 5.1 -4.5
v -4.4 5.3 -4.5
v -4.4 5.4 -4.5
v -4.4 5.3 -4.6
v -4.4 5.4 -4.6
v -4.5 5.1 -3.4
v -4.5 5.3 -3.4
v -4.5 5.1 -3.5
v -4.5 5.3 -3.5
v -4.5 5.1 -3.6
v -4.5 5.3 -3.6
v -4.5 5.1 -3.7
v -4.5 5.3 -3.7
v -4.5 5.1 -4.3
v -4.5 5.3 -4.3
v -4.5 5.1 -4.4
v -4.5 5.3 -4.4
v -4.5 5.1 -4.5
v -4.5 5.3 -4.5
v -4.5 5.1 -4.6
v -4.5 5.3 -4.6
v -3 4.8 -3.5
v -3 4.8 -3.7
v -3 4.8 -4.3
v -3 4.8 -4.5
v -3.3 4.8 -3.5
v -3.3 4.8 -3.7
v -3.3 4.8 -4.3
v -3.3 4.8 -4.5
v -3.9 4.8 -3.5
v -3.9 4.8 -3.7
v -3.9 4.8 -4.3
v -3.9 4.8 -4.5
v -4.3 4.8 -3.5
v -4.3 4.8 -3.7
v -4.3 4.8 -4.3
v -4.3 4.8 -4.5
v -2.9 4.9 -3.5
v -2.9 4.9 -3.7
v -2.9 4.9 -4.3
v -2.9 4.9 -4.5
v -3 4.9 -3.5
v -3 4.9 -3.7
v -3 4.9 -4.3
v -3 4.9 -4.5
v -3.3 4.9 -3.5
v -3.3 4.9 -3.7
v -3.3 4.9 -4.3
v -3.3 4.9 -4.5
v -3.4 4.9 -3.5
v -3.4 4.9 -3.7
v -3.4 4.9 -4.3
v -3.4 4.9 -4.5
v -3.8 4.9 -3.5
v -3.8 4.9 -3.7
v -3.8 4.9 -4.3
v -3.8 4.9 -4.5
v -3.9 4.9 -3.5
v -3.9 4.9 -3.7
v -3.9 4.9 -4.3
v -3.9 4.9 -4.5
v -4.3 4.9 -3.5
v -4.3 4.9 -3.7
v -4.3 4.9 -4.3
v -4.3 4.9 -4.5
v -4.4 4.9 -3.5
v -4.4 4.9 -3.7
v -4.4 4.9 -4.3
v -4.4 4.9 -4.5
v -2.9 5 -3.8
v -2.9 5 -3.9
v -2.9 5 -4.1
v -2.9 5 -4.2
v -3 5 -3.9
v -3 5 -4.1
v -3.1 5 -3.9
v -3.1 5 -4.1
v -3.9 5 -3.7
v -3.9 5 -3.8
v -3.9 5 -4.2
v -3.9 5 -4.3
v -4 5 -3.7
v -4 5 -4.3
v -4.1 5 -3.7
v -4.1 5 -4.3
v -3 5.1 -3.5
v -3 5.1 -3.6
v -3 5.1 -3.7
v -3 5.1 -3.8
v -3 5.1 -4.2
v -3 5.1 -4.3
v -3 5.1 -4.4
v -3 5.1 -4.5
v -3.1 5.1 -3.5
v -3.1 5.1 -3.6
v -3.1 5.1 -4.4
v -3.1 5.1 -4.5
v -3.2 5.1 -3.5
v -3.2 5.1 -3.6
v -3.2 5.1 -4.4
v -3.2 5.1 -4.5
v -3.3 5.1 -3.5
v -3.3 5.1 -3.6
v -3.3 5.1 -3.7
v -3.3 5.1 -4.3
v -3.3 5.1 -4.4
v -3.3 5.1 -4.5
v -3.4 5.1 -3.7
v -3.4 5.1 -4.3
v -3.7 5.1 -3.4
v -3.7 5.1 -3.5
v -3.7 5.1 -3.6
v -3.7 5.1 -3.7
v -3.7 5.1 -4.3
v -3.7 5.1 -4.4
v -3.7 5.1 -4.5
v -3.7 5.1 -4.6
v -3.8 5.1 -3.4
v -3.8 5.1 -3.5
v -3.8 5.1 -3.6
v -3.8 5.1 -3.7
v -3.8 5.1 -4.3
v -3.8 5.1 -4.4
v -3.8 5.1 -4.5
v -3.8 5.1 -4.6
v -3.9 5.1 -3.7
v -3.9 5.1 -3.8
v -3.9 5.1 -4.2
v -3.9 5.1 -4.3
v -4.1 5.1 -3.7
v -4.1 5.1 -4.3
v -4.2 5.1 -3.7
v -4.2 5.1 -3.8
v -4.2 5.1 -4.2
v -4.2 5.1 -4.3
v -4.3 5.1 -3.8
v -4.3 5.1 -4.2
v -4.4 5.1 -3.4
v -4.4 5.1 -3.5
v -4.4 5.1 -3.6
v -4.4 5.1 -3.7
v -4.4 5.1 -4.3
v -4.4 5.1 -4.4
v -4.4 5.1 -4.5
v -4.4 5.1 -4.6
v -4.5 5.1 -3.4
v -4.5 5.1 -3.5
v -4.5 5.1 -3.6
v -4.5 5.1 -3.7
v -4.5 5.1 -4.3
v -4.5 5.1 -4.4
v -4.5 5.1 -4.5
v -4.5 5.1 -4.6
v -3.1 5.2 -3.5
v -3.1 5.2 -3.6
v -3.1 5.2 -4.4
v -3.1 5.2 -4.5
v -3.2 5.2 -3.5
v -3.2 5.2 -3.6
v -3.2 5.2 -4.4
v -3.2 5.2 -4.5
v -3.5 5.2 -4.3
v -3.5 5.2 -4.4
v -3.7 5.2 -4.3
v -3.7 5.2 -4.4
v -3.9 5.2 -3.5
v -3.9 5.2 -3.6
v -3.9 5.2 -4.4
v -3.9 5.2 -4.5
v -4 5.2 -3.5
v -4 5.2 -3.6
v -4 5.2 -4.4
v -4 5.2 -4.5
v -4.2 5.2 -3.5
v -4.2 5.2 -3.6
v -4.2 5.2 -3.7
v -4.2 5.2 -3.8
v -4.2 5.2 -4.2
v -4.2 5.2 -4.3
v -4.2 5.2 -4.4
v -4.2 5.2 -4.5
v -4.3 5.2 -3.5
v -4.3 5.2 -3.6
v -4.3 5.2 -3.7
v -4.3 5.2 -3.8
v -4.3 5.2 -4.2
v -4.3 5.2 -4.3
v -4.3 5.2 -4.4
v -4.3 5.2 -4.5
v -2.9 5.3 -3.9
v -2.9 5.3 -4.1
v -3 5.3 -3.9
v -3 5.3 -4.1
v -3.1 5.3 -3.8
v -3.1 5.3 -3.9
v -3.1 5.3 -4.1
v -3.1 5.3 -4.2
v -3.4 5.3 -3.8
v -3.4 5.3 -3.9
v -3.4 5.3 -4.1
v -3.4 5.3 -4.2
v -3.4 5.3 -4.3
v -3.4 5.3 -4.4
v -3.5 5.3 -4.3
v -3.5 5.3 -4.4
v -3.8 5.3 -3.4
v -3.8 5.3 -3.5
v -3.8 5.3 -4.5
v -3.8 5.3 -4.6
v -3.9 5.3 -3.4
v -3.9 5.3 -3.5
v -3.9 5.3 -4.5
v -3.9 5.3 -4.6
v -4 5.3 -3.5
v -4 5.3 -3.6
v -4 5.3 -4.4
v -4 5.3 -4.5
v -4.2 5.3 -3.5
v -4.2 5.3 -3.6
v -4.2 5.3 -4.4
v -4.2 5.3 -4.5
v -4.3 5.3 -3.4
v -4.3 5.3 -3.5
v -4.3 5.3 -4.5
v -4.3 5.3 -4.6
v -4.4 5.3 -3.4
v -4.4 5.3 -3.5
v -4.4 5.3 -4.5
v -4.4 5.3 -4.6
v -3.9 5.4 -3.4
v -3.9 5.4 -3.5
v -3.9 5.4 -4.5
v -3.9 5.4 -4.6
v -4.3 5.4 -3.4
v -4.3 5.4 -3.5
v -4.3 5.4 -4.5
v -4.3 5.4 -4.6
v -3.1 4.9 -3.5
v -3.1 4.9 -3.6
v -3.1 4.9 -4.4
v -3.1 4.9 -4.5
v -3.2 4.9 -3.5
v -3.2 4.9 -3.6
v -3.2 4.9 -4.4
v -3.2 4.9 -4.5
v -4 4.9 -3.5
v -4 4.9 -3.6
v -4 4.9 -4.4
v -4 4.9 -4.5
v -4.2 4.9 -3.5
v -4.2 4.9 -3.6
v -4.2 4.9 -4.4
v -4.2 4.9 -4.5
v -3 5 -3.5
v -3 5 -3.6
v -3 5 -4.4
v -3 5 -4.5
v -3.1 5 -3.5
v -3.1 5 -3.6
v -3.1 5 -4.4
v -3.1 5 -4.5
v -3.2 5 -3.5
v -3.2 5 -3.6
v -3.2 5 -4.4
v -3.2 5 -4.5
v -3.3 5 -3.5
v -3.3 5 -3.6
v -3.3 5 -4.4
v -3.3 5 -4.5
v -3.9 5 -3.5
v -3.9 5 -3.6
v -3.9 5 -4.4
v -3.9 5 -4.5
v -4 5 -3.5
v -4 5 -3.6
v -4 5 -4.4
v -4 5 -4.5
v -4.2 5 -3.5
v -4.2 5 -3.6
v -4.2 5 -4.4
v -4.2 5 -4.5
v -4.3 5 -3.5
v -4.3 5 -3.6
v -4.3 5 -4.4
v -4.3 5 -4.5
v -2.9 5.2 -3.5
v -2.9 5.2 -3.7
v -2.9 5.2 -4.3
v -2.9 5.2 -4.5
v -3 5.2 -3.5
v -3 5.2 -3.7
v -3 5.2 -3.8
v -3 5.2 -4.2
v -3 5.2 -4.3
v -3 5.2 -4.5
v -3.1 5.2 -3.8
v -3.1 5.2 -3.9
v -3.1 5.2 -4.1
v -3.1 5.2 -4.2
v -3.3 5.2 -3.5
v -3.3 5.2 -3.7
v -3.3 5.2 -4.3
v -3.3 5.2 -4.5
v -3.4 5.2 -3.5
v -3.4 5.2 -3.7
v -3.4 5.2 -3.9
v -3.4 5.2 -4.1
v -3.4 5.2 -4.3
v -3.4 5.2 -4.5
v -3 5.3 -3.5
v -3 5.3 -3.7
v -3 5.3 -4.3
v -3 5.3 -4.5
v -3.3 5.3 -3.5
v -3.3 5.3 -3.7
v -3.3 5.3 -4.3
v -3.3 5.3 -4.5
v -3.4 5.3 -3.7
v -3.4 5.3 -3.8
v -3.5 5.3 -3.7
v -3.5 5.3 -3.8
v -3.5 5.3 -4.3
v -3.5 5.3 -4.4
v -3.7 5.3 -3.4
v -3.7 5.3 -3.5
v -3.7 5.3 -3.6
v -3.7 5.3 -3.7
v -3.7 5.3 -4.3
v -3.7 5.3 -4.4
v -3.7 5.3 -4.5
v -3.7 5.3 -4.6
v -3.8 5.3 -3.4
v -3.8 5.3 -3.5
v -3.8 5.3 -3.6
v -3.8 5.3 -3.7
v -3.8 5.3 -4.3
v -3.8 5.3 -4.4
v -3.8 5.3 -4.5
v -3.8 5.3 -4.6
v -4.4 5.3 -3.4
v -4.4 5.3 -3.5
v -4.4 5.3 -3.6
v -4.4 5.3 -3.7
v -4.4 5.3 -4.3
v -4.4 5.3 -4.4
v -4.4 5.3 -4.5
v -4.4 5.3 -4.6
v -4.5 5.3 -3.4
v -4.5 5.3 -3.5
v -4.5 5.3 -3.6
v -4.5 5.3 -3.7
v -4.5 5.3 -4.3
v -4.5 5.3 -4.4
v -4.5 5.3 -4.5
v -4.5 5.3 -4.6
v -2.9 5.4 -3.8
v -2.9 5.4 -3.9
v -2.9 5.4 -4.1
v -2.9 5.4 -4.2
v -3 5.4 -3.8
v -3 5.4 -3.9
v -3 5.4 -4.1
v -3 5.4 -4.2
v -3.4 5.4 -4.2
v -3.4 5.4 -4.3
v -3.5 5.4 -3.7
v -3.5 5.4 -3.8
v -3.5 5.4 -4.2
v -3.5 5.4 -4.3
v -3.8 5.4 -3.4
v -3.8 5.4 -3.5
v -3.8 5.4 -3.6
v -3.8 5.4 -3.7
v -3.8 5.4 -3.8
v -3.8 5.4 -4.2
v -3.8 5.4 -4.3
v -3.8 5.4 -4.4
v -3.8 5.4 -4.5
v -3.8 5.4 -4.6
v -3.9 5.4 -3.4
v -3.9 5.4 -3.5
v -3.9 5.4 -3.6
v -3.9 5.4 -3.7
v -3.9 5.4 -4.3
v -3.9 5.4 -4.4
v -3.9 5.4 -4.5
v -3.9 5.4 -4.6
v -4.2 5.4 -3.7
v -4.2 5.4 -4.3
v -4.3 5.4 -3.4
v -4.3 5.4 -3.5
v -4.3 5.4 -3.6
v -4.3 5.4 -3.7
v -4.3 5.4 -4.3
v -4.3 5.4 -4.4
v -4.3 5.4 -4.5
v -4.3 5.4 -4.6
v -4.4 5.4 -3.4
v -4.4 5.4 -3.5
v -4.4 5.4 -3.6
v -4.4 5.4 -3.7
v -4.4 5.4 -4.3
v -4.4 5.4 -4.4
v -4.4 5.4 -4.5
v -4.4 5.4 -4.6
v -2.9 5.5 -3.9
v -2.9 5.5 -4.1
v -3 5.5 -3.8
v -3 5.5 -3.9
v -3 5.5 -4.1
v -3 5.5 -4.2
v -3.8 5.5 -3.7
v -3.8 5.5 -3.8
v -3.8 5.5 -4.2
v -3.8 5.5 -4.3
v -3.9 5.5 -3.4
v -3.9 5.5 -3.5
v -3.9 5.5 -3.6
v -3.9 5.5 -3.7
v -3.9 5.5 -4.3
v -3.9 5.5 -4.4
v -3.9 5.5 -4.5
v -3.9 5.5 -4.6
v -4.2 5.5 -3.7
v -4.2 5.5 -4.3
v -4.3 5.5 -3.4
v -4.3 5.5 -3.5
v -4.3 5.5 -3.6
v -4.3 5.5 -3.7
v -4.3 5.5 -4.3
v -4.3 5.5 -4.4
v -4.3 5.5 -4.5
v -4.3 5.5 -4.6
v -3.4 5.7 -4.3
v -3.4 5.7 -4.4
v -3.5 5.7 -4.3
v -3.5 5.7 -4.4

# faces
f 5/1/1 2/1/1 1/1/1
f 6/1/1 2/1/1 5/1/1
f 9/1/1 4/1/1 3/1/1
f 10/1/1 4/1/1 9/1/1
f 11/1/1 7/1/1 6/1/1
f 12/1/1 7/1/1 11/1/1
f 13/1/1 9/1/1 8/1/1
f 14/1/1 9/1/1 13/1/1
f 15/1/1 13/1/1 12/1/1
f 16/1/1 13/1/1 15/1/1
f 22/6/1 18/6/1 17/6/1
f 23/6/1 18/6/1 22/6/1
f 24/6/1 18/6/1 23/6/1
f 25/6/1 18/6/1 24/6/1
f 28/6/1 20/6/1 19/6/1
f 29/6/1 20/6/1 28/6/1
f 30/6/1 20/6/1 29/6/1
f 31/6/1 20/6/1 30/6/1
f 33/6/1 22/6/1 21/6/1
f 33/6/1 23/6/1 22/6/1
f 34/6/1 23/6/1 33/6/1
f 35/6/1 26/6/1 25/6/1
f 35/6/1 25/6/1 24/6/1
f 36/6/1 26/6/1 35/6/1
f 37/6/1 29/6/1 28/6/1
f 37/6/1 28/6/1 27/6/1
f 38/6/1 29/6/1 37/6/1
f 39/6/1 32/6/1 31/6/1
f 39/6/1 31/6/1 30/6/1
f 40/6/1 32/6/1 39/6/1
f 41/6/1 33/6/1 21/6/1
f 44/6/1 26/6/1 36/6/1
f 45/6/1 37/6/1 27/6/1
f 46/6/1 32/6/1 40/6/1
f 47/6/1 42/6/1 41/6/1
f 47/6/1 41/6/1 21/6/1
f 48/6/1 42/6/1 47/6/1
f 49/6/1 42/6/1 48/6/1
f 50/6/1 44/6/1 43/6/1
f 51/6/1 26/6/1 44/6/1
f 51/6/1 44/6/1 50/6/1
f 52/6/1 26/6/1 51/6/1
f 53/6/1 37/6/1 45/6/1
f 56/6/1 46/6/1 40/6/1
f 57/6/1 49/6/1 48/6/1
f 57/6/1 50/6/1 49/6/1
f 57/6/1 51/6/1 50/6/1
f 58/6/1 51/6/1 57/6/1
f 59/6/1 54/6/1 53/6/1
f 59/6/1 53/6/1 45/6/1
f 60/6/1 54/6/1 59/6/1
f 61/6/1 54/6/1 60/6/1
f 62/6/1 56/6/1 55/6/1
f 63/6/1 46/6/1 56/6/1
f 63/6/1 56/6/1 62/6/1
f 64/6/1 46/6/1 63/6/1
f 65/6/1 61/6/1 60/6/1
f 65/6/1 62/6/1 61/6/1
f 65/6/1 63/6/1 62/6/1
f 66/6/1 63/6/1 65/6/1
f 72/4/1 68/4/1 67/4/1
f 73/4/1 68/4/1 72/4/1
f 76/4/1 70/4/1 69/4/1
f 77/4/1 70/4/1 76/4/1
f 79/4/1 74/4/1 73/4/1
f 79/4/1 72/4/1 71/4/1
f 79/4/1 73/4/1 72/4/1
f 80/4/1 74/4/1 79/4/1
f 81/4/1 74/4/1 80/4/1
f 82/4/1 74/4/1 81/4/1
f 83/4/1 81/4/1 80/4/1
f 84/4/1 81/4/1 83/4/1
f 85/4/1 78/4/1 77/4/1
f 85/4/1 77/4/1 76/4/1
f 85/4/1 76/4/1 75/4/1
f 86/4/1 78/4/1 85/4/1
f 87/4/1 78/4/1 86/4/1
f 88/4/1 78/4/1 87/4/1
f 89/4/1 87/4/1 86/4/1
f 90/4/1 87/4/1 89/4/1
f 93/2/1 92/2/1 91/2/1
f 94/2/1 92/2/1 93/2/1
f 95/2/1 92/2/1 94/2/1
f 96/2/1 92/2/1 95/2/1
f 98/2/1 97/2/1 96/2/1
f 98/2/1 96/2/1 95/2/1
f 99/2/1 97/2/1 98/2/1
f 101/2/1 100/2/1 99/2/1
f 102/2/1 100/2/1 101/2/1
f 105/2/1 104/2/1 103/2/1
f 106/2/1 104/2/1 105/2/1
f 109/2/1 105/2/1 103/2/1
f 111/2/1 108/2/1 107/2/1
f 112/2/1 108/2/1 111/2/1
f 113/2/1 110/2/1 109/2/1
f 116/2/1 109/2/1 103/2/1
f 116/2/1 115/2/1 114/2/1
f 116/2/1 114/2/1 113/2/1
f 116/2/1 113/2/1 109/2/1
f 117/2/1 115/2/1 116/2/1
f 118/2/1 115/2/1 117/2/1
f 120/2/1 119/2/1 118/2/1
f 120/2/1 118/2/1 117/2/1
f 121/2/1 119/2/1 120/2/1
f 124/7/1 123/7/1 122/7/1
f 125/7/1 123/7/1 124/7/1
f 128/2/1 127/2/1 126/2/1
f 129/2/1 127/2/1 128/2/1
f 132/2/1 131/2/1 130/2/1
f 133/2/1 131/2/1 132/2/1
f 139/6/1 135/6/1 134/6/1
f 140/6/1 135/6/1 139/6/1
f 141/6/1 135/6/1 140/6/1
f 142/6/1 135/6/1 141/6/1
f 145/6/1 137/6/1 136/6/1
f 146/6/1 137/6/1 145/6/1
f 147/6/1 137/6/1 146/6/1
f 148/6/1 137/6/1 147/6/1
f 150/6/1 139/6/1 138/6/1
f 150/6/1 140/6/1 139/6/1
f 151/4/1 141/4/1 140/4/1
f 151/6/1 140/6/1 150/6/1
f 152/6/1 143/6/1 142/6/1
f 152/4/1 141/4/1 151/4/1
f 152/6/1 142/6/1 141/6/1
f 153/6/1 143/6/1 152/6/1
f 154/6/1 145/6/1 144/6/1
f 154/6/1 146/6/1 145/6/1
f 155/4/1 147/4/1 146/4/1
f 155/6/1 146/6/1 154/6/1
f 156/4/1 147/4/1 155/4/1
f 157/6/1 149/6/1 148/6/1
f 157/4/1 147/4/1 156/4/1
f 157/6/1 148/6/1 147/6/1
f 158/6/1 149/6/1 157/6/1
f 159/4/1 151/4/1 150/4/1
f 159/6/1 150/6/1 138/6/1
f 159/4/1 152/4/1 151/4/1
f 159/4/1 153/4/1 152/4/1
f 160/6/1 143/6/1 153/6/1
f 160/4/1 153/4/1 159/4/1
f 161/6/1 143/6/1 160/6/1
f 162/6/1 154/6/1 144/6/1
f 163/6/1 154/6/1 162/6/1
f 164/4/1 158/4/1 157/4/1
f 164/4/1 157/4/1 156/4/1
f 165/4/1 158/4/1 164/4/1
f 166/6/1 149/6/1 158/6/1
f 168/6/1 159/6/1 138/6/1
f 169/6/1 159/6/1 168/6/1
f 171/4/1 158/4/1 165/4/1
f 172/6/1 166/6/1 158/6/1
f 172/4/1 158/4/1 171/4/1
f 173/6/1 170/6/1 169/6/1
f 174/6/1 170/6/1 173/6/1
f 175/6/1 166/6/1 172/6/1
f 176/1/1 167/1/1 166/1/1
f 176/6/1 166/6/1 175/6/1
f 177/1/1 167/1/1 176/1/1
f 181/1/1 176/1/1 175/1/1
f 182/1/1 176/1/1 181/1/1
f 183/1/1 181/1/1 180/1/1
f 184/1/1 181/1/1 183/1/1
f 185/6/1 179/6/1 178/6/1
f 186/6/1 179/6/1 185/6/1
f 187/6/2 188/6/2 192/6/2
f 192/6/2 188/6/2 193/6/2
f 193/6/2 188/6/2 194/6/2
f 194/6/2 188/6/2 195/6/2
f 189/6/2 190/6/2 198/6/2
f 198/6/2 190/6/2 199/6/2
f 199/6/2 190/6/2 200/6/2
f 200/6/2 190/6/2 201/6/2
f 191/6/2 192/6/2 203/6/2
f 192/6/2 193/6/2 203/6/2
f 193/4/2 194/4/2 204/4/2
f 203/6/2 193/6/2 204/6/2
f 195/6/2 196/6/2 205/6/2
f 204/4/2 194/4/2 205/4/2
f 194/6/2 195/6/2 205/6/2
f 205/6/2 196/6/2 206/6/2
f 197/6/2 198/6/2 207/6/2
f 198/6/2 199/6/2 207/6/2
f 199/4/2 200/4/2 208/4/2
f 207/6/2 199/6/2 208/6/2
f 208/4/2 200/4/2 209/4/2
f 201/6/2 202/6/2 210/6/2
f 209/4/2 200/4/2 210/4/2
f 200/6/2 201/6/2 210/6/2
f 210/6/2 202/6/2 211/6/2
f 203/4/2 204/4/2 212/4/2
f 191/6/2 203/6/2 212/6/2
f 204/4/2 205/4/2 212/4/2
f 205/4/2 206/4/2 212/4/2
f 206/6/2 196/6/2 213/6/2
f 212/4/2 206/4/2 213/4/2
f 213/6/2 196/6/2 214/6/2
f 197/6/2 207/6/2 215/6/2
f 215/6/2 207/6/2 216/6/2
f 210/4/2 211/4/2 217/4/2
f 209/4/2 210/4/2 217/4/2
f 217/4/2 211/4/2 218/4/2
f 211/6/2 202/6/2 219/6/2
f 191/6/2 212/6/2 221/6/2
f 221/6/2 212/6/2 222/6/2
f 218/4/2 211/4/2 224/4/2
f 211/6/2 219/6/2 225/6/2
f 224/4/2 211/4/2 225/4/2
f 222/6/2 223/6/2 226/6/2
f 226/6/2 223/6/2 227/6/2
f 225/6/2 219/6/2 228/6/2
f 219/1/2 220/1/2 229/1/2
f 228/6/2 219/6/2 229/6/2
f 229/1/2 220/1/2 230/1/2
f 228/1/2 229/1/2 232/1/2
f 232/1/2 229/1/2 233/1/2
f 231/1/2 232/1/2 234/1/2
f 234/1/2 232/1/2 235/1/2
f 236/2/2 237/2/2 238/2/2
f 238/2/2 237/2/2 239/2/2
f 240/7/2 241/7/2 242/7/2
f 242/7/2 241/7/2 243/7/2
f 244/2/2 245/2/2 246/2/2
f 246/2/2 245/2/2 247/2/2
f 248/2/2 249/2/2 250/2/2
f 250/2/2 249/2/2 251/2/2
f 248/2/2 250/2/2 254/2/2
f 252/2/2 253/2/2 256/2/2
f 256/2/2 253/2/2 257/2/2
f 254/2/2 255/2/2 258/2/2
f 248/2/2 254/2/2 260/2/2
f 258/2/2 259/2/2 260/2/2
f 254/2/2 258/2/2 260/2/2
f 260/2/2 259/2/2 261/2/2
f 261/2/2 259/2/2 262/2/2
f 263/2/2 264/2/2 265/2/2
f 262/2/2 263/2/2 265/2/2
f 261/2/2 262/2/2 265/2/2
f 265/2/2 264/2/2 266/2/2
f 267/2/2 268/2/2 269/2/2
f 269/2/2 268/2/2 270/2/2
f 270/2/2 268/2/2 271/2/2
f 269/2/2 270/2/2 272/2/2
f 272/2/2 270/2/2 273/2/2
f 273/2/2 274/2/2 276/2/2
f 274/2/2 275/2/2 276/2/2
f 276/2/2 275/2/2 277/2/2
f 277/2/2 278/2/2 279/2/2
f 279/2/2 278/2/2 280/2/2
f 281/4/2 282/4/2 286/4/2
f 286/4/2 282/4/2 287/4/2
f 283/4/2 284/4/2 290/4/2
f 290/4/2 284/4/2 291/4/2
f 287/4/2 288/4/2 293/4/2
f 285/4/2 286/4/2 293/4/2
f 286/4/2 287/4/2 293/4/2
f 293/4/2 288/4/2 294/4/2
f 294/4/2 288/4/2 295/4/2
f 295/4/2 288/4/2 296/4/2
f 294/4/2 295/4/2 297/4/2
f 297/4/2 295/4/2 298/4/2
f 291/4/2 292/4/2 301/4/2
f 290/4/2 291/4/2 301/4/2
f 289/4/2 290/4/2 301/4/2
f 301/4/2 292/4/2 302/4/2
f 302/4/2 292/4/2 303/4/2
f 303/4/2 292/4/2 304/4/2
f 299/7/2 300/7/2 306/7/2
f 306/7/2 300/7/2 307/7/2
f 302/4/2 303/4/2 308/4/2
f 308/4/2 303/4/2 309/4/2
f 305/6/2 306/6/2 310/6/2
f 310/6/2 306/6/2 311/6/2
f 312/6/2 313/6/2 317/6/2
f 317/6/2 313/6/2 318/6/2
f 318/6/2 313/6/2 319/6/2
f 319/6/2 313/6/2 320/6/2
f 314/6/2 315/6/2 323/6/2
f 323/6/2 315/6/2 324/6/2
f 324/6/2 315/6/2 325/6/2
f 325/6/2 315/6/2 326/6/2
f 316/6/2 317/6/2 328/6/2
f 317/6/2 318/6/2 328/6/2
f 328/6/2 318/6/2 329/6/2
f 320/6/2 321/6/2 330/6/2
f 319/6/2 320/6/2 330/6/2
f 330/6/2 321/6/2 331/6/2
f 323/6/2 324/6/2 332/6/2
f 322/6/2 323/6/2 332/6/2
f 332/6/2 324/6/2 333/6/2
f 326/6/2 327/6/2 334/6/2
f 325/6/2 326/6/2 334/6/2
f 334/6/2 327/6/2 335/6/2
f 316/6/2 328/6/2 336/6/2
f 331/6/2 321/6/2 339/6/2
f 322/6/2 332/6/2 340/6/2
f 335/6/2 327/6/2 341/6/2
f 336/6/2 337/6/2 342/6/2
f 316/6/2 336/6/2 342/6/2
f 342/6/2 337/6/2 343/6/2
f 343/6/2 337/6/2 344/6/2
f 338/6/2 339/6/2 345/6/2
f 339/6/2 321/6/2 346/6/2
f 345/6/2 339/6/2 346/6/2
f 346/6/2 321/6/2 347/6/2
f 340/6/2 332/6/2 348/6/2
f 335/6/2 341/6/2 351/6/2
f 343/6/2 344/6/2 352/6/2
f 344/6/2 345/6/2 352/6/2
f 345/6/2 346/6/2 352/6/2
f 352/6/2 346/6/2 353/6/2
f 348/6/2 349/6/2 354/6/2
f 340/6/2 348/6/2 354/6/2
f 354/6/2 349/6/2 355/6/2
f 355/6/2 349/6/2 356/6/2
f 350/6/2 351/6/2 357/6/2
f 351/6/2 341/6/2 358/6/2
f 357/6/2 351/6/2 358/6/2
f 358/6/2 341/6/2 359/6/2
f 355/6/2 356/6/2 360/6/2
f 356/6/2 357/6/2 360/6/2
f 357/6/2 358/6/2 360/6/2
f 360/6/2 358/6/2 361/6/2
f 362/1/2 363/1/2 366/1/2
f 366/1/2 363/1/2 367/1/2
f 364/1/2 365/1/2 370/1/2
f 370/1/2 365/1/2 371/1/2
f 367/1/2 368/1/2 372/1/2
f 372/1/2 368/1/2 373/1/2
f 369/1/2 370/1/2 374/1/2
f 374/1/2 370/1/2 375/1/2
f 373/1/2 374/1/2 376/1/2
f 376/1/2 374/1/2 377/1/2
f 380/6/3 379/6/3 378/6/3
f 381/6/3 379/6/3 380/6/3
f 384/2/3 383/2/3 382/2/3
f 385/2/3 383/2/3 384/2/3
f 386/2/3 383/2/3 385/2/3
f 389/2/3 387/2/3 386/2/3
f 389/2/3 386/2/3 385/2/3
f 390/2/3 387/2/3 389/2/3
f 391/2/3 387/2/3 390/2/3
f 392/2/3 389/2/3 388/2/3
f 392/2/3 390/2/3 389/2/3
f 393/2/3 390/2/3 392/2/3
f 396/6/3 395/6/3 394/6/3
f 397/6/3 395/6/3 396/6/3
f 402/6/3 399/6/3 398/6/3
f 403/6/3 399/6/3 402/6/3
f 405/6/3 401/6/3 400/6/3
f 406/6/3 401/6/3 405/6/3
f 407/2/3 405/2/3 404/2/3
f 408/2/3 405/2/3 407/2/3
f 413/2/3 410/2/3 409/2/3
f 414/2/3 410/2/3 413/2/3
f 415/7/3 412/7/3 411/7/3
f 416/7/3 412/7/3 415/7/3
f 421/2/3 418/2/3 417/2/3
f 422/2/3 418/2/3 421/2/3
f 425/2/3 420/2/3 419/2/3
f 426/2/3 420/2/3 425/2/3
f 428/6/3 424/6/3 423/6/3
f 429/6/3 424/6/3 428/6/3
f 430/6/3 427/6/3 426/6/3
f 431/6/3 427/6/3 430/6/3
f 436/6/3 433/6/3 432/6/3
f 437/6/3 433/6/3 436/6/3
f 438/6/3 435/6/3 434/6/3
f 439/6/3 435/6/3 438/6/3
f 444/6/3 441/6/3 440/6/3
f 445/6/3 441/6/3 444/6/3
f 446/6/3 443/6/3 442/6/3
f 447/6/3 443/6/3 446/6/3
f 450/6/3 449/6/3 448/6/3
f 451/6/3 449/6/3 450/6/3
f 454/6/3 453/6/3 452/6/3
f 455/6/3 453/6/3 454/6/3
f 458/2/3 457/2/3 456/2/3
f 459/2/3 458/2/3 456/2/3
f 460/2/3 458/2/3 459/2/3
f 463/2/3 462/2/3 461/2/3
f 465/2/3 463/2/3 461/2/3
f 466/6/3 464/6/3 463/6/3
f 466/2/3 463/2/3 465/2/3
f 467/6/3 464/6/3 466/6/3
f 469/6/3 468/6/3 467/6/3
f 469/6/3 467/6/3 466/6/3
f 470/6/3 468/6/3 469/6/3
f 473/2/3 472/2/3 471/2/3
f 474/2/3 472/2/3 473/2/3
f 477/7/3 476/7/3 475/7/3
f 478/7/3 476/7/3 477/7/3
f 481/1/3 480/1/3 479/1/3
f 482/1/3 480/1/3 481/1/3
f 483/5/3 482/5/3 481/5/3
f 484/5/3 482/5/3 483/5/3
f 485/1/3 484/1/3 483/1/3
f 486/1/3 484/1/3 485/1/3
f 489/1/3 488/1/3 487/1/3
f 490/1/3 488/1/3 489/1/3
f 492/5/3 490/5/3 489/5/3
f 492/5/3 491/5/3 490/5/3
f 493/5/3 491/5/3 492/5/3
f 494/1/3 493/1/3 492/1/3
f 495/1/3 493/1/3 494/1/3
f 500/1/3 497/1/3 496/1/3
f 501/1/3 497/1/3 500/1/3
f 502/6/3 499/6/3 498/6/3
f 503/5/3 501/5/3 500/5/3
f 504/5/3 501/5/3 503/5/3
f 505/6/3 502/6/3 498/6/3
f 506/6/3 502/6/3 505/6/3
f 507/1/3 504/1/3 503/1/3
f 508/1/3 504/1/3 507/1/3
f 510/2/3 509/2/3 508/2/3
f 511/2/3 509/2/3 510/2/3
f 517/2/3 513/2/3 512/2/3
f 518/2/3 513/2/3 517/2/3
f 519/6/3 515/6/3 514/6/3
f 520/1/3 517/1/3 516/1/3
f 521/1/3 517/1/3 520/1/3
f 522/6/3 519/6/3 514/6/3
f 523/6/3 519/6/3 522/6/3
f 524/5/3 521/5/3 520/5/3
f 525/5/3 521/5/3 524/5/3
f 526/1/3 525/1/3 524/1/3
f 527/1/3 525/1/3 526/1/3
f 532/1/3 529/1/3 528/1/3
f 533/1/3 529/1/3 532/1/3
f 534/5/3 533/5/3 532/5/3
f 535/5/3 533/5/3 534/5/3
f 536/6/3 531/6/3 530/6/3
f 537/6/3 531/6/3 536/6/3
f 540/1/3 535/1/3 534/1/3
f 541/1/3 535/1/3 540/1/3
f 542/2/3 539/2/3 538/2/3
f 543/2/3 539/2/3 542/2/3
f 548/2/3 545/2/3 544/2/3
f 549/2/3 545/2/3 548/2/3
f 552/1/3 551/1/3 550/1/3
f 553/1/3 551/1/3 552/1/3
f 554/6/3 547/6/3 546/6/3
f 555/6/3 547/6/3 554/6/3
f 556/5/3 553/5/3 552/5/3
f 557/5/3 553/5/3 556/5/3
f 558/1/3 557/1/3 556/1/3
f 559/1/3 557/1/3 558/1/3
f 564/6/3 561/6/3 560/6/3
f 565/6/3 561/6/3 564/6/3
f 566/6/3 563/6/3 562/6/3
f 567/6/3 563/6/3 566/6/3
f 572/6/3 569/6/3 568/6/3
f 573/6/3 569/6/3 572/6/3
f 574/6/3 571/6/3 570/6/3
f 575/6/3 571/6/3 574/6/3
f 580/1/3 577/1/3 576/1/3
f 581/1/3 577/1/3 580/1/3
f 582/6/3 579/6/3 578/6/3
f 583/6/3 579/6/3 582/6/3
f 586/6/3 585/6/3 584/6/3
f 587/6/3 585/6/3 586/6/3
f 590/1/3 589/1/3 588/1/3
f 591/1/3 589/1/3 590/1/3
f 594/1/3 593/1/3 592/1/3
f 595/1/3 593/1/3 594/1/3
f 598/1/3 597/1/3 596/1/3
f 599/1/3 597/1/3 598/1/3
f 600/6/4 601/6/4 602/6/4
f 602/6/4 601/6/4 603/6/4
f 604/6/4 605/6/4 606/6/4
f 606/6/4 605/6/4 607/6/4
f 608/6/4 609/6/4 612/6/4
f 612/6/4 609/6/4 613/6/4
f 610/6/4 611/6/4 614/6/4
f 614/6/4 611/6/4 615/6/4
f 616/2/4 617/2/4 618/2/4
f 618/2/4 617/2/4 619/2/4
f 620/2/4 621/2/4 622/2/4
f 622/2/4 621/2/4 623/2/4
f 624/6/4 625/6/4 628/6/4
f 628/6/4 625/6/4 629/6/4
f 626/6/4 627/6/4 630/6/4
f 630/6/4 627/6/4 631/6/4
f 632/6/4 633/6/4 636/6/4
f 636/6/4 633/6/4 637/6/4
f 634/6/4 635/6/4 638/6/4
f 638/6/4 635/6/4 639/6/4
f 640/6/4 641/6/4 644/6/4
f 644/6/4 641/6/4 645/6/4
f 642/6/4 643/6/4 646/6/4
f 646/6/4 643/6/4 647/6/4
f 648/6/4 649/6/4 650/6/4
f 650/6/4 649/6/4 651/6/4
f 651/6/4 649/6/4 652/6/4
f 653/6/4 654/6/4 656/6/4
f 654/6/4 655/6/4 656/6/4
f 656/6/4 655/6/4 657/6/4
f 658/6/4 659/6/4 661/6/4
f 659/6/4 660/6/4 661/6/4
f 661/6/4 660/6/4 662/6/4
f 663/1/4 664/1/4 665/1/4
f 665/1/4 664/1/4 666/1/4
f 667/1/4 668/1/4 669/1/4
f 669/1/4 668/1/4 670/1/4
f 671/1/4 672/1/4 675/1/4
f 675/1/4 672/1/4 676/1/4
f 673/6/4 674/6/4 677/6/4
f 677/6/4 674/6/4 678/6/4
f 679/6/4 680/6/4 681/6/4
f 681/6/4 680/6/4 682/6/4
f 683/1/4 684/1/4 685/1/4
f 685/1/4 684/1/4 686/1/4
f 687/6/4 688/6/4 691/6/4
f 691/6/4 688/6/4 692/6/4
f 689/6/4 690/6/4 693/6/4
f 693/6/4 690/6/4 694/6/4
f 695/6/4 696/6/4 699/6/4
f 699/6/4 696/6/4 700/6/4
f 697/6/4 698/6/4 701/6/4
f 701/6/4 698/6/4 702/6/4
f 703/2/4 704/2/4 705/2/4
f 705/2/4 704/2/4 706/2/4
f 707/2/4 708/2/4 711/2/4
f 711/2/4 708/2/4 712/2/4
f 713/2/4 714/2/4 715/2/4
f 715/2/4 714/2/4 716/2/4
f 709/2/4 710/2/4 717/2/4
f 717/2/4 710/2/4 718/2/4
f 719/1/4 720/1/4 723/1/4
f 723/1/4 720/1/4 724/1/4
f 723/5/4 724/5/4 725/5/4
f 725/5/4 724/5/4 726/5/4
f 721/6/4 722/6/4 727/6/4
f 727/6/4 722/6/4 728/6/4
f 725/1/4 726/1/4 731/1/4
f 731/1/4 726/1/4 732/1/4
f 729/2/4 730/2/4 734/2/4
f 730/2/4 731/2/4 734/2/4
f 734/2/4 731/2/4 735/2/4
f 733/2/4 734/2/4 736/2/4
f 734/5/4 735/5/4 736/5/4
f 735/2/4 731/2/4 737/2/4
f 736/5/4 735/5/4 737/5/4
f 733/2/4 736/2/4 738/2/4
f 736/3/4 737/3/4 738/3/4
f 737/2/4 731/2/4 739/2/4
f 738/3/4 737/3/4 739/3/4
f 733/2/4 738/2/4 740/2/4
f 738/5/4 739/5/4 741/5/4
f 740/2/4 738/2/4 741/2/4
f 739/2/4 731/2/4 742/2/4
f 741/5/4 739/5/4 742/5/4
f 741/2/4 742/2/4 745/2/4
f 742/2/4 731/2/4 746/2/4
f 745/2/4 742/2/4 746/2/4
f 746/2/4 731/2/4 747/2/4
f 747/1/4 748/1/4 749/1/4
f 749/1/4 748/1/4 750/1/4
f 743/6/4 744/6/4 751/6/4
f 751/6/4 744/6/4 752/6/4
f 749/5/4 750/5/4 753/5/4
f 753/5/4 750/5/4 754/5/4
f 753/1/4 754/1/4 755/1/4
f 755/1/4 754/1/4 756/1/4
f 757/1/4 758/1/4 761/1/4
f 761/1/4 758/1/4 762/1/4
f 759/6/4 760/6/4 763/6/4
f 761/5/4 762/5/4 764/5/4
f 764/5/4 762/5/4 765/5/4
f 759/6/4 763/6/4 766/6/4
f 766/6/4 763/6/4 767/6/4
f 764/1/4 765/1/4 768/1/4
f 768/1/4 765/1/4 769/1/4
f 770/6/4 771/6/4 774/6/4
f 772/1/4 773/1/4 775/1/4
f 775/1/4 773/1/4 776/1/4
f 770/6/4 774/6/4 777/6/4
f 777/6/4 774/6/4 778/6/4
f 775/5/4 776/5/4 779/5/4
f 779/5/4 776/5/4 780/5/4
f 779/1/4 780/1/4 781/1/4
f 781/1/4 780/1/4 782/1/4
f 783/1/4 784/1/4 785/1/4
f 785/1/4 784/1/4 786/1/4
f 785/5/4 786/5/4 787/5/4
f 787/5/4 786/5/4 788/5/4
f 787/1/4 788/1/4 789/1/4
f 789/1/4 788/1/4 790/1/4
f 791/1/4 792/1/4 793/1/4
f 793/1/4 792/1/4 794/1/4
f 793/5/4 794/5/4 795/5/4
f 795/5/4 794/5/4 796/5/4
f 795/1/4 796/1/4 797/1/4
f 797/1/4 796/1/4 798/1/4
f 803/6/5 800/6/5 799/6/5
f 804/6/5 800/6/5 803/6/5
f 805/6/5 802/6/5 801/6/5
f 806/6/5 802/6/5 805/6/5
f 811/6/5 808/6/5 807/6/5
f 812/6/5 808/6/5 811/6/5
f 813/6/5 810/6/5 809/6/5
f 814/6/5 810/6/5 813/6/5
f 819/6/5 816/6/5 815/6/5
f 820/6/5 816/6/5 819/6/5
f 821/6/5 818/6/5 817/6/5
f 822/6/5 818/6/5 821/6/5
f 827/6/5 824/6/5 823/6/5
f 828/6/5 824/6/5 827/6/5
f 829/6/5 826/6/5 825/6/5
f 830/6/5 826/6/5 829/6/5
f 835/6/5 832/6/5 831/6/5
f 836/6/5 832/6/5 835/6/5
f 837/6/5 834/6/5 833/6/5
f 838/6/5 834/6/5 837/6/5
f 843/6/5 840/6/5 839/6/5
f 844/6/5 840/6/5 843/6/5
f 845/6/5 842/6/5 841/6/5
f 846/6/5 842/6/5 845/6/5
f 851/2/5 848/2/5 847/2/5
f 852/2/5 850/2/5 849/2/5
f 853/2/5 851/2/5 847/2/5
f 853/7/5 852/7/5 851/7/5
f 854/2/5 850/2/5 852/2/5
f 854/7/5 852/7/5 853/7/5
f 856/2/5 853/2/5 847/2/5
f 856/2/5 854/2/5 853/2/5
f 857/2/5 850/2/5 854/2/5
f 857/2/5 854/2/5 856/2/5
f 859/2/5 856/2/5 855/2/5
f 859/2/5 858/2/5 857/2/5
f 859/2/5 857/2/5 856/2/5
f 860/2/5 858/2/5 859/2/5
f 861/2/5 860/2/5 859/2/5
f 862/2/5 860/2/5 861/2/5
f 871/6/5 864/6/5 863/6/5
f 872/6/5 864/6/5 871/6/5
f 873/6/5 870/6/5 869/6/5
f 874/6/5 870/6/5 873/6/5
f 879/6/5 876/6/5 875/6/5
f 880/6/5 876/6/5 879/6/5
f 881/2/5 866/2/5 865/2/5
f 882/2/5 868/2/5 867/2/5
f 883/6/5 878/6/5 877/6/5
f 884/6/5 878/6/5 883/6/5
f 885/2/5 866/2/5 881/2/5
f 886/2/5 882/2/5 867/2/5
f 890/2/5 866/2/5 885/2/5
f 891/2/5 886/2/5 867/2/5
f 895/1/5 888/1/5 887/1/5
f 896/5/5 889/5/5 888/5/5
f 896/1/5 888/1/5 895/1/5
f 897/1/5 890/1/5 889/1/5
f 897/5/5 889/5/5 896/5/5
f 898/2/5 866/2/5 890/2/5
f 898/1/5 890/1/5 897/1/5
f 899/1/5 892/1/5 891/1/5
f 899/2/5 891/2/5 867/2/5
f 900/5/5 893/5/5 892/5/5
f 900/1/5 892/1/5 899/1/5
f 901/1/5 894/1/5 893/1/5
f 901/5/5 893/5/5 900/5/5
f 902/1/5 894/1/5 901/1/5
f 903/2/5 866/2/5 898/2/5
f 904/2/5 866/2/5 903/2/5
f 905/2/5 899/2/5 867/2/5
f 906/2/5 899/2/5 905/2/5
f 909/2/5 908/2/5 907/2/5
f 910/2/5 908/2/5 909/2/5
f 911/2/5 908/2/5 910/2/5
f 912/2/5 908/2/5 911/2/5
f 913/2/5 911/2/5 910/2/5
f 914/2/5 911/2/5 913/2/5
f 923/1/5 916/1/5 915/1/5
f 924/5/5 917/5/5 916/5/5
f 924/1/5 916/1/5 923/1/5
f 925/1/5 918/1/5 917/1/5
f 925/5/5 917/5/5 924/5/5
f 926/1/5 918/1/5 925/1/5
f 927/1/5 920/1/5 919/1/5
f 928/5/5 921/5/5 920/5/5
f 928/1/5 920/1/5 927/1/5
f 929/1/5 922/1/5 921/1/5
f 929/5/5 921/5/5 928/5/5
f 930/1/5 922/1/5 929/1/5
f 935/6/5 932/6/5 931/6/5
f 936/6/5 932/6/5 935/6/5
f 937/6/5 934/6/5 933/6/5
f 938/6/5 934/6/5 937/6/5
f 941/7/5 940/7/5 939/7/5
f 942/7/5 940/7/5 941/7/5
f 947/6/5 944/6/5 943/6/5
f 948/6/5 944/6/5 947/6/5
f 949/6/5 946/6/5 945/6/5
f 950/6/5 946/6/5 949/6/5
f 959/6/5 952/6/5 951/6/5
f 960/6/5 952/6/5 959/6/5
f 961/2/5 954/2/5 953/2/5
f 962/2/5 954/2/5 961/2/5
f 963/2/5 956/2/5 955/2/5
f 964/2/5 956/2/5 963/2/5
f 965/6/5 958/6/5 957/6/5
f 966/6/5 958/6/5 965/6/5
f 969/2/5 968/2/5 967/2/5
f 970/2/5 968/2/5 969/2/5
f 975/2/5 972/2/5 971/2/5
f 976/2/5 972/2/5 975/2/5
f 977/2/5 974/2/5 973/2/5
f 978/2/5 974/2/5 977/2/5
f 981/6/5 980/6/5 979/6/5
f 982/6/5 980/6/5 981/6/5
f 987/1/5 984/1/5 983/1/5
f 988/1/5 984/1/5 987/1/5
f 989/1/5 986/1/5 985/1/5
f 990/1/5 986/1/5 989/1/5
f 995/6/5 992/6/5 991/6/5
f 996/6/5 992/6/5 995/6/5
f 997/6/5 994/6/5 993/6/5
f 998/6/5 994/6/5 997/6/5
f 1003/1/5 1000/1/5 999/1/5
f 1004/1/5 1000/1/5 1003/1/5
f 1005/1/5 1002/1/5 1001/1/5
f 1006/1/5 1002/1/5 1005/1/5
f 1011/1/5 1008/1/5 1007/1/5
f 1012/1/5 1008/1/5 1011/1/5
f 1013/1/5 1010/1/5 1009/1/5
f 1014/1/5 1010/1/5 1013/1/5
f 1015/6/6 1016/6/6 1019/6/6
f 1019/6/6 1016/6/6 1020/6/6
f 1017/6/6 1018/6/6 1021/6/6
f 1021/6/6 1018/6/6 1022/6/6
f 1023/6/6 1024/6/6 1027/6/6
f 1027/6/6 1024/6/6 1028/6/6
f 1025/6/6 1026/6/6 1029/6/6
f 1029/6/6 1026/6/6 1030/6/6
f 1031/6/6 1032/6/6 1035/6/6
f 1035/6/6 1032/6/6 1036/6/6
f 1033/6/6 1034/6/6 1037/6/6
f 1037/6/6 1034/6/6 1038/6/6
f 1039/6/6 1040/6/6 1043/6/6
f 1043/6/6 1040/6/6 1044/6/6
f 1041/6/6 1042/6/6 1045/6/6
f 1045/6/6 1042/6/6 1046/6/6
f 1047/6/6 1048/6/6 1051/6/6
f 1051/6/6 1048/6/6 1052/6/6
f 1049/6/6 1050/6/6 1053/6/6
f 1053/6/6 1050/6/6 1054/6/6
f 1055/6/6 1056/6/6 1059/6/6
f 1059/6/6 1056/6/6 1060/6/6
f 1057/6/6 1058/6/6 1061/6/6
f 1061/6/6 1058/6/6 1062/6/6
f 1063/6/6 1064/6/6 1067/6/6
f 1067/6/6 1064/6/6 1068/6/6
f 1065/6/6 1066/6/6 1071/6/6
f 1071/6/6 1066/6/6 1072/6/6
f 1068/2/6 1069/2/6 1073/2/6
f 1070/2/6 1071/2/6 1076/2/6
f 1073/2/6 1074/2/6 1078/2/6
f 1068/2/6 1073/2/6 1078/2/6
f 1075/2/6 1076/2/6 1079/2/6
f 1076/2/6 1071/2/6 1079/2/6
f 1077/6/6 1078/6/6 1081/6/6
f 1078/2/6 1074/2/6 1082/2/6
f 1081/6/6 1078/6/6 1082/6/6
f 1082/2/6 1074/2/6 1083/2/6
f 1075/2/6 1079/2/6 1084/2/6
f 1079/6/6 1080/6/6 1085/6/6
f 1084/2/6 1079/2/6 1085/2/6
f 1085/6/6 1080/6/6 1086/6/6
f 1087/6/6 1088/6/6 1091/6/6
f 1091/6/6 1088/6/6 1092/6/6
f 1089/6/6 1090/6/6 1093/6/6
f 1093/6/6 1090/6/6 1094/6/6
f 1095/2/6 1096/2/6 1097/2/6
f 1097/2/6 1096/2/6 1098/2/6
f 1099/7/6 1100/7/6 1105/7/6
f 1105/7/6 1100/7/6 1106/7/6
f 1101/1/6 1102/1/6 1109/1/6
f 1102/5/6 1103/5/6 1110/5/6
f 1109/1/6 1102/1/6 1110/1/6
f 1103/1/6 1104/1/6 1111/1/6
f 1110/5/6 1103/5/6 1111/5/6
f 1111/1/6 1104/1/6 1112/1/6
f 1105/1/6 1106/1/6 1113/1/6
f 1106/5/6 1107/5/6 1114/5/6
f 1113/1/6 1106/1/6 1114/1/6
f 1107/1/6 1108/1/6 1115/1/6
f 1114/5/6 1107/5/6 1115/5/6
f 1115/1/6 1108/1/6 1116/1/6
f 1117/1/6 1118/1/6 1125/1/6
f 1118/5/6 1119/5/6 1126/5/6
f 1125/1/6 1118/1/6 1126/1/6
f 1119/1/6 1120/1/6 1127/1/6
f 1126/5/6 1119/5/6 1127/5/6
f 1127/1/6 1120/1/6 1128/1/6
f 1121/1/6 1122/1/6 1129/1/6
f 1122/5/6 1123/5/6 1130/5/6
f 1129/1/6 1122/1/6 1130/1/6
f 1123/1/6 1124/1/6 1131/1/6
f 1130/5/6 1123/5/6 1131/5/6
f 1131/1/6 1124/1/6 1132/1/6
f 1133/2/6 1134/2/6 1137/2/6
f 1137/2/6 1134/2/6 1138/2/6
f 1135/2/6 1136/2/6 1139/2/6
f 1139/2/6 1136/2/6 1140/2/6
f 1141/6/6 1142/6/6 1145/6/6
f 1145/6/6 1142/6/6 1146/6/6
f 1143/2/6 1144/2/6 1150/2/6
f 1150/2/6 1144/2/6 1151/2/6
f 1145/2/6 1146/2/6 1152/2/6
f 1152/2/6 1146/2/6 1153/2/6
f 1147/1/6 1148/1/6 1157/1/6
f 1148/5/6 1149/5/6 1158/5/6
f 1157/1/6 1148/1/6 1158/1/6
f 1149/1/6 1150/1/6 1159/1/6
f 1158/5/6 1149/5/6 1159/5/6
f 1159/1/6 1150/1/6 1160/1/6
f 1153/1/6 1154/1/6 1161/1/6
f 1154/5/6 1155/5/6 1162/5/6
f 1161/1/6 1154/1/6 1162/1/6
f 1155/1/6 1156/1/6 1163/1/6
f 1162/5/6 1155/5/6 1163/5/6
f 1163/1/6 1156/1/6 1164/1/6
f 1165/2/6 1166/2/6 1170/2/6
f 1170/2/6 1166/2/6 1171/2/6
f 1167/1/6 1168/1/6 1175/1/6
f 1168/5/6 1169/5/6 1176/5/6
f 1175/1/6 1168/1/6 1176/1/6
f 1169/1/6 1170/1/6 1177/1/6
f 1176/5/6 1169/5/6 1177/5/6
f 1177/1/6 1170/1/6 1178/1/6
f 1171/1/6 1172/1/6 1179/1/6
f 1172/5/6 1173/5/6 1180/5/6
f 1179/1/6 1172/1/6 1180/1/6
f 1173/1/6 1174/1/6 1181/1/6
f 1180/5/6 1173/5/6 1181/5/6
f 1181/1/6 1174/1/6 1182/1/6
f 1183/2/6 1184/2/6 1186/2/6
f 1186/2/6 1184/2/6 1187/2/6
f 1185/2/6 1186/2/6 1190/2/6
f 1187/2/6 1188/2/6 1190/2/6
f 1186/2/6 1187/2/6 1190/2/6
f 1190/2/6 1188/2/6 1191/2/6
f 1189/2/6 1190/2/6 1196/2/6
f 1190/2/6 1191/2/6 1196/2/6
f 1191/2/6 1192/2/6 1196/2/6
f 1196/2/6 1192/2/6 1197/2/6
f 1195/1/6 1196/1/6 1201/1/6
f 1196/2/6 1197/2/6 1201/2/6
f 1197/1/6 1198/1/6 1202/1/6
f 1201/2/6 1197/2/6 1202/2/6
f 1193/1/6 1194/1/6 1203/1/6
f 1194/5/6 1195/5/6 1204/5/6
f 1203/1/6 1194/1/6 1204/1/6
f 1195/1/6 1201/1/6 1205/1/6
f 1204/5/6 1195/5/6 1205/5/6
f 1205/1/6 1201/1/6 1206/1/6
f 1202/1/6 1198/1/6 1207/1/6
f 1198/5/6 1199/5/6 1208/5/6
f 1207/1/6 1198/1/6 1208/1/6
f 1199/1/6 1200/1/6 1209/1/6
f 1208/5/6 1199/5/6 1209/5/6
f 1209/1/6 1200/1/6 1210/1/6
f 1211/6/6 1212/6/6 1213/6/6
f 1213/6/6 1212/6/6 1214/6/6
