# MagicaVoxel @ Ephtracy

# group
o 

# material
mtllib granjafinal_torre.mtl
usemtl palette

# normals
vn -1 0 0
vn 1 0 0
vn 0 0 1
vn 0 0 -1
vn 0 -1 0
vn 0 1 0

# texcoords
vt 0.443359 0.5
vt 0.447266 0.5
vt 0.919922 0.5
vt 0.931641 0.5
vt 0.947266 0.5
vt 0.955078 0.5

# verts
v -2.8 6.6 -4.9
v -2.8 6.6 -5.4
v -2.8 6.9 -4.9
v -2.8 6.9 -5
v -2.8 6.9 -5.3
v -2.8 6.9 -5.4
v -2.8 7 -5
v -2.8 7 -5.3
v -2.7 4.8 -4.9
v -2.7 4.8 -5
v -2.7 4.8 -5.1
v -2.7 4.8 -5.2
v -2.7 4.8 -5.3
v -2.7 4.8 -5.4
v -2.7 4.9 -4.9
v -2.7 4.9 -5
v -2.7 4.9 -5.1
v -2.7 4.9 -5.2
v -2.7 4.9 -5.3
v -2.7 4.9 -5.4
v -2.7 5 -5.1
v -2.7 5 -5.2
v -2.7 5.1 -4.9
v -2.7 5.1 -5
v -2.7 5.1 -5.1
v -2.7 5.1 -5.2
v -2.7 5.1 -5.3
v -2.7 5.1 -5.4
v -2.7 5.2 -5.1
v -2.7 5.2 -5.2
v -2.7 5.2 -5.3
v -2.7 5.2 -5.4
v -2.7 5.3 -5.1
v -2.7 5.3 -5.2
v -2.7 5.3 -5.3
v -2.7 5.3 -5.4
v -2.7 5.4 -5.1
v -2.7 5.4 -5.2
v -2.7 5.5 -4.9
v -2.7 5.5 -5
v -2.7 5.5 -5.1
v -2.7 5.5 -5.2
v -2.7 5.5 -5.3
v -2.7 5.5 -5.4
v -2.7 5.6 -4.9
v -2.7 5.6 -5
v -2.7 5.6 -5.1
v -2.7 5.6 -5.2
v -2.7 5.7 -5.1
v -2.7 5.7 -5.2
v -2.7 5.7 -5.3
v -2.7 5.7 -5.4
v -2.7 5.8 -4.9
v -2.7 5.8 -5
v -2.7 5.8 -5.1
v -2.7 5.8 -5.2
v -2.7 5.9 -5.1
v -2.7 5.9 -5.2
v -2.7 6 -4.9
v -2.7 6 -5
v -2.7 6 -5.1
v -2.7 6 -5.2
v -2.7 6.1 -5.1
v -2.7 6.1 -5.2
v -2.7 6.1 -5.3
v -2.7 6.1 -5.4
v -2.7 6.2 -5.1
v -2.7 6.2 -5.2
v -2.7 6.2 -5.3
v -2.7 6.2 -5.4
v -2.7 6.3 -5.1
v -2.7 6.3 -5.2
v -2.7 6.4 -4.9
v -2.7 6.4 -5
v -2.7 6.4 -5.1
v -2.7 6.4 -5.2
v -2.7 6.5 -5.1
v -2.7 6.5 -5.2
v -2.7 6.5 -5.3
v -2.7 6.5 -5.4
v -2.7 6.6 -4.7
v -2.7 6.6 -4.9
v -2.7 6.6 -5
v -2.7 6.6 -5.3
v -2.7 6.6 -5.4
v -2.7 6.6 -5.6
v -2.7 6.9 -4.7
v -2.7 6.9 -4.8
v -2.7 6.9 -4.9
v -2.7 6.9 -5
v -2.7 6.9 -5.3
v -2.7 6.9 -5.4
v -2.7 6.9 -5.5
v -2.7 6.9 -5.6
v -2.7 7 -4.8
v -2.7 7 -4.9
v -2.7 7 -5
v -2.7 7 -5.3
v -2.7 7 -5.4
v -2.7 7 -5.5
v -2.7 7.1 -4.9
v -2.7 7.1 -5
v -2.7 7.1 -5.3
v -2.7 7.1 -5.4
v -2.7 7.2 -5
v -2.7 7.2 -5.3
v -2.6 4.8 -4.8
v -2.6 4.8 -4.9
v -2.6 4.8 -5.4
v -2.6 4.8 -5.5
v -2.6 4.9 -4.8
v -2.6 4.9 -4.9
v -2.6 4.9 -5.4
v -2.6 4.9 -5.5
v -2.6 5 -4.8
v -2.6 5 -4.9
v -2.6 5.1 -4.9
v -2.6 5.1 -5.4
v -2.6 5.1 -5.5
v -2.6 5.2 -4.8
v -2.6 5.2 -4.9
v -2.6 5.2 -5.4
v -2.6 5.3 -4.8
v -2.6 5.3 -4.9
v -2.6 5.3 -5.4
v -2.6 5.5 -4.8
v -2.6 5.5 -4.9
v -2.6 5.5 -5.4
v -2.6 5.6 -4.9
v -2.6 5.6 -5.4
v -2.6 5.6 -5.5
v -2.6 5.7 -4.8
v -2.6 5.7 -4.9
v -2.6 5.7 -5.4
v -2.6 5.7 -5.5
v -2.6 5.8 -4.8
v -2.6 5.8 -4.9
v -2.6 5.8 -5.4
v -2.6 5.8 -5.5
v -2.6 5.9 -4.8
v -2.6 5.9 -4.9
v -2.6 5.9 -5.4
v -2.6 5.9 -5.5
v -2.6 6 -4.9
v -2.6 6.1 -4.8
v -2.6 6.1 -4.9
v -2.6 6.1 -5.4
v -2.6 6.2 -4.8
v -2.6 6.2 -4.9
v -2.6 6.2 -5.4
v -2.6 6.4 -4.9
v -2.6 6.4 -5.4
v -2.6 6.4 -5.5
v -2.6 6.5 -4.8
v -2.6 6.5 -4.9
v -2.6 6.5 -5.4
v -2.6 6.6 -4.6
v -2.6 6.6 -4.7
v -2.6 6.6 -4.8
v -2.6 6.6 -4.9
v -2.6 6.6 -5.4
v -2.6 6.6 -5.5
v -2.6 6.6 -5.6
v -2.6 6.6 -5.7
v -2.6 6.9 -4.6
v -2.6 6.9 -4.7
v -2.6 6.9 -4.8
v -2.6 6.9 -5.5
v -2.6 6.9 -5.6
v -2.6 6.9 -5.7
v -2.6 7 -4.8
v -2.6 7 -4.9
v -2.6 7 -5.4
v -2.6 7 -5.5
v -2.6 7.1 -4.7
v -2.6 7.1 -4.8
v -2.6 7.1 -4.9
v -2.6 7.1 -5
v -2.6 7.1 -5.3
v -2.6 7.1 -5.4
v -2.6 7.1 -5.5
v -2.6 7.1 -5.6
v -2.6 7.2 -4.8
v -2.6 7.2 -5
v -2.6 7.2 -5.3
v -2.6 7.2 -5.5
v -2.6 7.3 -5
v -2.6 7.3 -5.3
v -2.5 4.8 -4.7
v -2.5 4.8 -4.8
v -2.5 4.8 -5.5
v -2.5 4.8 -5.6
v -2.5 4.9 -4.8
v -2.5 4.9 -5.5
v -2.5 4.9 -5.6
v -2.5 5 -4.8
v -2.5 5 -5.5
v -2.5 5 -5.6
v -2.5 5.1 -5.5
v -2.5 5.2 -4.7
v -2.5 5.2 -4.8
v -2.5 5.3 -4.8
v -2.5 5.3 -5.5
v -2.5 5.3 -5.6
v -2.5 5.4 -4.7
v -2.5 5.4 -4.8
v -2.5 5.4 -5.5
v -2.5 5.4 -5.6
v -2.5 5.5 -4.7
v -2.5 5.5 -4.8
v -2.5 5.6 -5.5
v -2.5 5.7 -4.7
v -2.5 5.7 -4.8
v -2.5 5.7 -5.5
v -2.5 5.8 -4.8
v -2.5 5.8 -5.5
v -2.5 5.8 -5.6
v -2.5 5.9 -4.8
v -2.5 5.9 -5.5
v -2.5 6 -5.5
v -2.5 6 -5.6
v -2.5 6.1 -4.7
v -2.5 6.1 -4.8
v -2.5 6.2 -4.8
v -2.5 6.2 -5.5
v -2.5 6.2 -5.6
v -2.5 6.3 -4.7
v -2.5 6.3 -4.8
v -2.5 6.3 -5.5
v -2.5 6.3 -5.6
v -2.5 6.4 -5.5
v -2.5 6.4 -5.6
v -2.5 6.5 -4.8
v -2.5 6.6 -4.7
v -2.5 6.6 -4.8
v -2.5 6.6 -5.5
v -2.5 6.6 -5.6
v -2.5 6.9 -4.6
v -2.5 6.9 -4.7
v -2.5 6.9 -5.6
v -2.5 6.9 -5.7
v -2.5 7 -4.6
v -2.5 7 -4.7
v -2.5 7 -5.6
v -2.5 7 -5.7
v -2.5 7.1 -4.7
v -2.5 7.1 -4.8
v -2.5 7.1 -5.5
v -2.5 7.1 -5.6
v -2.5 7.2 -4.7
v -2.5 7.2 -4.8
v -2.5 7.2 -4.9
v -2.5 7.2 -5
v -2.5 7.2 -5.3
v -2.5 7.2 -5.4
v -2.5 7.2 -5.5
v -2.5 7.2 -5.6
v -2.5 7.3 -4.9
v -2.5 7.3 -5
v -2.5 7.3 -5.3
v -2.5 7.3 -5.4
v -2.4 4.8 -4.6
v -2.4 4.8 -4.7
v -2.4 4.8 -5.6
v -2.4 4.8 -5.7
v -2.4 4.9 -5.6
v -2.4 5 -4.6
v -2.4 5 -4.7
v -2.4 5 -5.6
v -2.4 5.1 -4.6
v -2.4 5.1 -4.7
v -2.4 5.2 -4.7
v -2.4 5.2 -5.6
v -2.4 5.2 -5.7
v -2.4 5.3 -4.6
v -2.4 5.3 -4.7
v -2.4 5.3 -5.6
v -2.4 5.4 -4.6
v -2.4 5.4 -4.7
v -2.4 5.4 -5.6
v -2.4 5.4 -5.7
v -2.4 5.5 -4.7
v -2.4 5.5 -5.6
v -2.4 5.5 -5.7
v -2.4 5.6 -4.6
v -2.4 5.6 -4.7
v -2.4 5.6 -5.6
v -2.4 5.6 -5.7
v -2.4 5.7 -4.6
v -2.4 5.7 -4.7
v -2.4 5.8 -5.6
v -2.4 5.9 -4.6
v -2.4 5.9 -4.7
v -2.4 5.9 -5.6
v -2.4 5.9 -5.7
v -2.4 6 -4.6
v -2.4 6 -4.7
v -2.4 6 -5.6
v -2.4 6 -5.7
v -2.4 6.1 -4.6
v -2.4 6.1 -4.7
v -2.4 6.1 -5.6
v -2.4 6.1 -5.7
v -2.4 6.2 -5.6
v -2.4 6.3 -4.6
v -2.4 6.3 -4.7
v -2.4 6.3 -5.6
v -2.4 6.3 -5.7
v -2.4 6.4 -5.6
v -2.4 6.4 -5.7
v -2.4 6.5 -4.6
v -2.4 6.5 -4.7
v -2.4 6.5 -5.6
v -2.4 6.5 -5.7
v -2.4 6.6 -4.5
v -2.4 6.6 -4.6
v -2.4 6.6 -4.7
v -2.4 6.6 -5.6
v -2.4 6.6 -5.7
v -2.4 6.6 -5.8
v -2.4 6.9 -4.5
v -2.4 6.9 -4.6
v -2.4 6.9 -5.7
v -2.4 6.9 -5.8
v -2.4 7 -4.6
v -2.4 7 -4.7
v -2.4 7 -5.6
v -2.4 7 -5.7
v -2.4 7.1 -4.6
v -2.4 7.1 -4.7
v -2.4 7.1 -5.6
v -2.4 7.1 -5.7
v -2.4 7.2 -4.8
v -2.4 7.2 -4.9
v -2.4 7.2 -5.4
v -2.4 7.2 -5.5
v -2.4 7.3 -4.8
v -2.4 7.3 -4.9
v -2.4 7.3 -5
v -2.4 7.3 -5.3
v -2.4 7.3 -5.4
v -2.4 7.3 -5.5
v -2.4 7.4 -5
v -2.4 7.4 -5.3
v -2.3 6.9 -4.5
v -2.3 6.9 -4.6
v -2.3 6.9 -5.7
v -2.3 6.9 -5.8
v -2.3 7 -4.5
v -2.3 7 -4.6
v -2.3 7 -5.7
v -2.3 7 -5.8
v -2.3 7.1 -4.6
v -2.3 7.1 -4.7
v -2.3 7.1 -5.6
v -2.3 7.1 -5.7
v -2.3 7.2 -4.6
v -2.3 7.2 -4.7
v -2.3 7.2 -4.8
v -2.3 7.2 -5.5
v -2.3 7.2 -5.6
v -2.3 7.2 -5.7
v -2.3 7.3 -4.7
v -2.3 7.3 -4.8
v -2.3 7.3 -4.9
v -2.3 7.3 -5
v -2.3 7.3 -5.3
v -2.3 7.3 -5.4
v -2.3 7.3 -5.5
v -2.3 7.3 -5.6
v -2.3 7.4 -4.9
v -2.3 7.4 -5
v -2.3 7.4 -5.3
v -2.3 7.4 -5.4
v -2 6.9 -4.5
v -2 6.9 -4.6
v -2 6.9 -5.7
v -2 6.9 -5.8
v -2 7 -4.5
v -2 7 -4.6
v -2 7 -5.7
v -2 7 -5.8
v -2 7.1 -4.6
v -2 7.1 -4.7
v -2 7.1 -5.6
v -2 7.1 -5.7
v -2 7.2 -4.6
v -2 7.2 -4.7
v -2 7.2 -4.8
v -2 7.2 -5.5
v -2 7.2 -5.6
v -2 7.2 -5.7
v -2 7.3 -4.7
v -2 7.3 -4.8
v -2 7.3 -4.9
v -2 7.3 -5
v -2 7.3 -5.3
v -2 7.3 -5.4
v -2 7.3 -5.5
v -2 7.3 -5.6
v -2 7.4 -4.9
v -2 7.4 -5
v -2 7.4 -5.3
v -2 7.4 -5.4
v -1.9 4.8 -4.6
v -1.9 4.8 -4.7
v -1.9 4.8 -5.6
v -1.9 4.8 -5.7
v -1.9 4.9 -4.7
v -1.9 5 -4.7
v -1.9 5 -5.6
v -1.9 5 -5.7
v -1.9 5.1 -5.6
v -1.9 5.1 -5.7
v -1.9 5.2 -5.6
v -1.9 5.2 -5.7
v -1.9 5.3 -4.6
v -1.9 5.3 -4.7
v -1.9 5.4 -4.6
v -1.9 5.4 -4.7
v -1.9 5.4 -5.6
v -1.9 5.4 -5.7
v -1.9 5.5 -4.6
v -1.9 5.5 -4.7
v -1.9 5.5 -5.6
v -1.9 5.5 -5.7
v -1.9 5.6 -4.7
v -1.9 5.6 -5.6
v -1.9 5.6 -5.7
v -1.9 5.7 -4.6
v -1.9 5.7 -4.7
v -1.9 5.7 -5.6
v -1.9 5.8 -5.6
v -1.9 5.8 -5.7
v -1.9 5.9 -4.7
v -1.9 5.9 -5.6
v -1.9 6 -4.7
v -1.9 6 -5.6
v -1.9 6 -5.7
v -1.9 6.1 -4.6
v -1.9 6.1 -4.7
v -1.9 6.1 -5.6
v -1.9 6.1 -5.7
v -1.9 6.2 -4.7
v -1.9 6.3 -4.6
v -1.9 6.3 -4.7
v -1.9 6.3 -5.6
v -1.9 6.3 -5.7
v -1.9 6.4 -5.6
v -1.9 6.4 -5.7
v -1.9 6.5 -4.7
v -1.9 6.5 -5.6
v -1.9 6.5 -5.7
v -1.9 6.6 -4.5
v -1.9 6.6 -4.6
v -1.9 6.6 -4.7
v -1.9 6.6 -5.6
v -1.9 6.6 -5.7
v -1.9 6.6 -5.8
v -1.9 6.9 -4.5
v -1.9 6.9 -4.6
v -1.9 6.9 -5.7
v -1.9 6.9 -5.8
v -1.9 7 -4.6
v -1.9 7 -4.7
v -1.9 7 -5.6
v -1.9 7 -5.7
v -1.9 7.1 -4.6
v -1.9 7.1 -4.7
v -1.9 7.1 -5.6
v -1.9 7.1 -5.7
v -1.9 7.2 -4.8
v -1.9 7.2 -4.9
v -1.9 7.2 -5.4
v -1.9 7.2 -5.5
v -1.9 7.3 -4.8
v -1.9 7.3 -4.9
v -1.9 7.3 -5
v -1.9 7.3 -5.3
v -1.9 7.3 -5.4
v -1.9 7.3 -5.5
v -1.9 7.4 -5
v -1.9 7.4 -5.3
v -1.8 4.8 -4.7
v -1.8 4.8 -4.8
v -1.8 4.8 -5.5
v -1.8 4.8 -5.6
v -1.8 4.9 -4.7
v -1.8 4.9 -4.8
v -1.8 4.9 -5.5
v -1.8 5 -4.7
v -1.8 5 -4.8
v -1.8 5 -5.5
v -1.8 5.1 -4.8
v -1.8 5.2 -4.8
v -1.8 5.2 -5.5
v -1.8 5.2 -5.6
v -1.8 5.3 -4.8
v -1.8 5.4 -5.5
v -1.8 5.4 -5.6
v -1.8 5.5 -5.5
v -1.8 5.5 -5.6
v -1.8 5.6 -4.7
v -1.8 5.6 -4.8
v -1.8 5.6 -5.5
v -1.8 5.7 -4.7
v -1.8 5.7 -4.8
v -1.8 5.7 -5.5
v -1.8 5.7 -5.6
v -1.8 5.8 -4.8
v -1.8 5.8 -5.5
v -1.8 5.8 -5.6
v -1.8 5.9 -4.7
v -1.8 5.9 -4.8
v -1.8 5.9 -5.5
v -1.8 5.9 -5.6
v -1.8 6 -4.7
v -1.8 6 -4.8
v -1.8 6.1 -5.5
v -1.8 6.1 -5.6
v -1.8 6.2 -4.7
v -1.8 6.2 -4.8
v -1.8 6.2 -5.5
v -1.8 6.3 -4.7
v -1.8 6.3 -4.8
v -1.8 6.3 -5.5
v -1.8 6.3 -5.6
v -1.8 6.4 -4.8
v -1.8 6.4 -5.5
v -1.8 6.5 -4.7
v -1.8 6.5 -4.8
v -1.8 6.5 -5.5
v -1.8 6.6 -4.7
v -1.8 6.6 -4.8
v -1.8 6.6 -5.5
v -1.8 6.6 -5.6
v -1.8 6.9 -4.6
v -1.8 6.9 -4.7
v -1.8 6.9 -5.6
v -1.8 6.9 -5.7
v -1.8 7 -4.6
v -1.8 7 -4.7
v -1.8 7 -5.6
v -1.8 7 -5.7
v -1.8 7.1 -4.7
v -1.8 7.1 -4.8
v -1.8 7.1 -5.5
v -1.8 7.1 -5.6
v -1.8 7.2 -4.7
v -1.8 7.2 -4.8
v -1.8 7.2 -4.9
v -1.8 7.2 -5
v -1.8 7.2 -5.3
v -1.8 7.2 -5.4
v -1.8 7.2 -5.5
v -1.8 7.2 -5.6
v -1.8 7.3 -4.9
v -1.8 7.3 -5
v -1.8 7.3 -5.3
v -1.8 7.3 -5.4
v -1.7 4.8 -4.8
v -1.7 4.8 -4.9
v -1.7 4.8 -5.4
v -1.7 4.8 -5.5
v -1.7 4.9 -4.8
v -1.7 4.9 -4.9
v -1.7 4.9 -5.4
v -1.7 4.9 -5.5
v -1.7 5 -5.4
v -1.7 5 -5.5
v -1.7 5.1 -4.8
v -1.7 5.1 -4.9
v -1.7 5.1 -5.4
v -1.7 5.2 -4.8
v -1.7 5.2 -4.9
v -1.7 5.2 -5.4
v -1.7 5.2 -5.5
v -1.7 5.3 -4.8
v -1.7 5.3 -4.9
v -1.7 5.3 -5.4
v -1.7 5.4 -4.9
v -1.7 5.4 -5.4
v -1.7 5.4 -5.5
v -1.7 5.5 -4.9
v -1.7 5.6 -4.9
v -1.7 5.6 -5.4
v -1.7 5.6 -5.5
v -1.7 5.7 -5.4
v -1.7 5.7 -5.5
v -1.7 5.8 -4.8
v -1.7 5.8 -4.9
v -1.7 5.8 -5.4
v -1.7 5.9 -4.9
v -1.7 5.9 -5.4
v -1.7 6 -4.8
v -1.7 6 -4.9
v -1.7 6.1 -4.9
v -1.7 6.1 -5.4
v -1.7 6.1 -5.5
v -1.7 6.2 -4.9
v -1.7 6.2 -5.4
v -1.7 6.2 -5.5
v -1.7 6.4 -4.8
v -1.7 6.4 -4.9
v -1.7 6.4 -5.4
v -1.7 6.4 -5.5
v -1.7 6.5 -4.9
v -1.7 6.5 -5.4
v -1.7 6.5 -5.5
v -1.7 6.6 -4.6
v -1.7 6.6 -4.7
v -1.7 6.6 -4.8
v -1.7 6.6 -4.9
v -1.7 6.6 -5.4
v -1.7 6.6 -5.5
v -1.7 6.6 -5.6
v -1.7 6.6 -5.7
v -1.7 6.9 -4.6
v -1.7 6.9 -4.7
v -1.7 6.9 -4.8
v -1.7 6.9 -5.5
v -1.7 6.9 -5.6
v -1.7 6.9 -5.7
v -1.7 7 -4.8
v -1.7 7 -4.9
v -1.7 7 -5.4
v -1.7 7 -5.5
v -1.7 7.1 -4.7
v -1.7 7.1 -4.8
v -1.7 7.1 -4.9
v -1.7 7.1 -5
v -1.7 7.1 -5.3
v -1.7 7.1 -5.4
v -1.7 7.1 -5.5
v -1.7 7.1 -5.6
v -1.7 7.2 -4.8
v -1.7 7.2 -5
v -1.7 7.2 -5.3
v -1.7 7.2 -5.5
v -1.7 7.3 -5
v -1.7 7.3 -5.3
v -1.6 4.8 -4.9
v -1.6 4.8 -5.4
v -1.6 4.9 -4.9
v -1.6 4.9 -5
v -1.6 4.9 -5.3
v -1.6 4.9 -5.4
v -1.6 5 -5
v -1.6 5 -5.1
v -1.6 5 -5.2
v -1.6 5 -5.3
v -1.6 5.1 -4.9
v -1.6 5.1 -5.1
v -1.6 5.1 -5.2
v -1.6 5.1 -5.4
v -1.6 5.2 -4.9
v -1.6 5.2 -5.1
v -1.6 5.2 -5.3
v -1.6 5.2 -5.4
v -1.6 5.3 -5.1
v -1.6 5.3 -5.2
v -1.6 5.3 -5.3
v -1.6 5.3 -5.4
v -1.6 5.4 -4.9
v -1.6 5.4 -5.2
v -1.6 5.5 -4.9
v -1.6 5.5 -5.2
v -1.6 5.6 -4.9
v -1.6 5.6 -5
v -1.6 5.6 -5.2
v -1.6 5.6 -5.3
v -1.6 5.7 -5
v -1.6 5.7 -5.3
v -1.6 5.8 -4.9
v -1.6 5.8 -5
v -1.6 5.8 -5.2
v -1.6 5.8 -5.4
v -1.6 5.9 -4.9
v -1.6 5.9 -5
v -1.6 5.9 -5.1
v -1.6 5.9 -5.2
v -1.6 5.9 -5.3
v -1.6 5.9 -5.4
v -1.6 6 -5.1
v -1.6 6 -5.3
v -1.6 6.1 -4.9
v -1.6 6.1 -5.2
v -1.6 6.2 -4.9
v -1.6 6.2 -5
v -1.6 6.2 -5.2
v -1.6 6.2 -5.3
v -1.6 6.3 -5
v -1.6 6.3 -5.3
v -1.6 6.4 -4.9
v -1.6 6.4 -5
v -1.6 6.4 -5.2
v -1.6 6.4 -5.4
v -1.6 6.5 -4.9
v -1.6 6.5 -5
v -1.6 6.5 -5.1
v -1.6 6.5 -5.2
v -1.6 6.6 -4.7
v -1.6 6.6 -4.9
v -1.6 6.6 -5.1
v -1.6 6.6 -5.4
v -1.6 6.6 -5.6
v -1.6 6.9 -4.7
v -1.6 6.9 -4.8
v -1.6 6.9 -4.9
v -1.6 6.9 -5
v -1.6 6.9 -5.3
v -1.6 6.9 -5.4
v -1.6 6.9 -5.5
v -1.6 6.9 -5.6
v -1.6 7 -4.8
v -1.6 7 -4.9
v -1.6 7 -5
v -1.6 7 -5.3
v -1.6 7 -5.4
v -1.6 7 -5.5
v -1.6 7.1 -4.9
v -1.6 7.1 -5
v -1.6 7.1 -5.3
v -1.6 7.1 -5.4
v -1.6 7.2 -5
v -1.6 7.2 -5.3
v -1.5 6.6 -4.9
v -1.5 6.6 -5.4
v -1.5 6.9 -4.9
v -1.5 6.9 -5
v -1.5 6.9 -5.3
v -1.5 6.9 -5.4
v -1.5 7 -5
v -1.5 7 -5.3
v -2.4 6.6 -4.5
v -2.4 6.9 -4.5
v -2.3 6.9 -4.5
v -2.3 7 -4.5
v -2 6.9 -4.5
v -2 7 -4.5
v -1.9 6.6 -4.5
v -1.9 6.9 -4.5
v -2.6 6.6 -4.6
v -2.6 6.9 -4.6
v -2.5 6.9 -4.6
v -2.5 7 -4.6
v -2.4 4.8 -4.6
v -2.4 5 -4.6
v -2.4 5.1 -4.6
v -2.4 5.3 -4.6
v -2.4 5.4 -4.6
v -2.4 5.6 -4.6
v -2.4 5.7 -4.6
v -2.4 5.9 -4.6
v -2.4 6 -4.6
v -2.4 6.1 -4.6
v -2.4 6.3 -4.6
v -2.4 6.5 -4.6
v -2.4 6.6 -4.6
v -2.4 6.9 -4.6
v -2.4 7 -4.6
v -2.4 7.1 -4.6
v -2.3 4.8 -4.6
v -2.3 5 -4.6
v -2.3 5.1 -4.6
v -2.3 5.3 -4.6
v -2.3 5.4 -4.6
v -2.3 5.6 -4.6
v -2.3 5.7 -4.6
v -2.3 5.8 -4.6
v -2.3 5.9 -4.6
v -2.3 6.1 -4.6
v -2.3 6.2 -4.6
v -2.3 6.4 -4.6
v -2.3 6.5 -4.6
v -2.3 6.9 -4.6
v -2.3 7 -4.6
v -2.3 7.1 -4.6
v -2.3 7.2 -4.6
v -2.2 5.5 -4.6
v -2.2 5.6 -4.6
v -2.2 6.2 -4.6
v -2.2 6.3 -4.6
v -2.1 5 -4.6
v -2.1 5.1 -4.6
v -2.1 5.3 -4.6
v -2.1 5.4 -4.6
v -2.1 5.6 -4.6
v -2.1 5.7 -4.6
v -2.1 5.9 -4.6
v -2.1 6 -4.6
v -2.1 6.1 -4.6
v -2.1 6.2 -4.6
v -2.1 6.5 -4.6
v -2.1 6.6 -4.6
v -2 4.8 -4.6
v -2 5 -4.6
v -2 5.1 -4.6
v -2 5.3 -4.6
v -2 5.8 -4.6
v -2 5.9 -4.6
v -2 6.2 -4.6
v -2 6.3 -4.6
v -2 6.4 -4.6
v -2 6.5 -4.6
v -2 6.9 -4.6
v -2 7 -4.6
v -2 7.1 -4.6
v -2 7.2 -4.6
v -1.9 4.8 -4.6
v -1.9 5.3 -4.6
v -1.9 5.4 -4.6
v -1.9 5.5 -4.6
v -1.9 5.7 -4.6
v -1.9 6.1 -4.6
v -1.9 6.3 -4.6
v -1.9 6.6 -4.6
v -1.9 6.9 -4.6
v -1.9 7 -4.6
v -1.9 7.1 -4.6
v -1.8 6.9 -4.6
v -1.8 7 -4.6
v -1.7 6.6 -4.6
v -1.7 6.9 -4.6
v -2.7 6.6 -4.7
v -2.7 6.9 -4.7
v -2.6 6.6 -4.7
v -2.6 6.9 -4.7
v -2.6 7.1 -4.7
v -2.5 4.8 -4.7
v -2.5 5.2 -4.7
v -2.5 5.4 -4.7
v -2.5 5.5 -4.7
v -2.5 5.7 -4.7
v -2.5 6.1 -4.7
v -2.5 6.3 -4.7
v -2.5 6.6 -4.7
v -2.5 6.9 -4.7
v -2.5 7 -4.7
v -2.5 7.1 -4.7
v -2.5 7.2 -4.7
v -2.4 4.8 -4.7
v -2.4 5 -4.7
v -2.4 5.1 -4.7
v -2.4 5.2 -4.7
v -2.4 5.3 -4.7
v -2.4 5.4 -4.7
v -2.4 5.5 -4.7
v -2.4 5.6 -4.7
v -2.4 5.7 -4.7
v -2.4 5.9 -4.7
v -2.4 6 -4.7
v -2.4 6.1 -4.7
v -2.4 6.3 -4.7
v -2.4 6.5 -4.7
v -2.4 6.6 -4.7
v -2.4 7 -4.7
v -2.4 7.1 -4.7
v -2.3 7.1 -4.7
v -2.3 7.2 -4.7
v -2.3 7.3 -4.7
v -2 7.1 -4.7
v -2 7.2 -4.7
v -2 7.3 -4.7
v -1.9 4.8 -4.7
v -1.9 4.9 -4.7
v -1.9 5 -4.7
v -1.9 5.3 -4.7
v -1.9 5.4 -4.7
v -1.9 5.5 -4.7
v -1.9 5.6 -4.7
v -1.9 5.7 -4.7
v -1.9 5.9 -4.7
v -1.9 6 -4.7
v -1.9 6.1 -4.7
v -1.9 6.2 -4.7
v -1.9 6.3 -4.7
v -1.9 6.5 -4.7
v -1.9 6.6 -4.7
v -1.9 7 -4.7
v -1.9 7.1 -4.7
v -1.8 4.8 -4.7
v -1.8 4.9 -4.7
v -1.8 5 -4.7
v -1.8 5.6 -4.7
v -1.8 5.7 -4.7
v -1.8 5.9 -4.7
v -1.8 6 -4.7
v -1.8 6.2 -4.7
v -1.8 6.3 -4.7
v -1.8 6.5 -4.7
v -1.8 6.6 -4.7
v -1.8 6.9 -4.7
v -1.8 7 -4.7
v -1.8 7.1 -4.7
v -1.8 7.2 -4.7
v -1.7 6.6 -4.7
v -1.7 6.9 -4.7
v -1.7 7.1 -4.7
v -1.6 6.6 -4.7
v -1.6 6.9 -4.7
v -2.7 6.9 -4.8
v -2.7 7 -4.8
v -2.6 4.8 -4.8
v -2.6 4.9 -4.8
v -2.6 5 -4.8
v -2.6 5.2 -4.8
v -2.6 5.3 -4.8
v -2.6 5.5 -4.8
v -2.6 5.7 -4.8
v -2.6 5.8 -4.8
v -2.6 5.9 -4.8
v -2.6 6.1 -4.8
v -2.6 6.2 -4.8
v -2.6 6.5 -4.8
v -2.6 6.6 -4.8
v -2.6 6.9 -4.8
v -2.6 7 -4.8
v -2.6 7.1 -4.8
v -2.6 7.2 -4.8
v -2.5 4.8 -4.8
v -2.5 4.9 -4.8
v -2.5 5 -4.8
v -2.5 5.2 -4.8
v -2.5 5.3 -4.8
v -2.5 5.4 -4.8
v -2.5 5.5 -4.8
v -2.5 5.7 -4.8
v -2.5 5.8 -4.8
v -2.5 5.9 -4.8
v -2.5 6.1 -4.8
v -2.5 6.2 -4.8
v -2.5 6.3 -4.8
v -2.5 6.5 -4.8
v -2.5 6.6 -4.8
v -2.5 7.1 -4.8
v -2.5 7.2 -4.8
v -2.4 7.2 -4.8
v -2.4 7.3 -4.8
v -2.3 7.2 -4.8
v -2.3 7.3 -4.8
v -2 7.2 -4.8
v -2 7.3 -4.8
v -1.9 7.2 -4.8
v -1.9 7.3 -4.8
v -1.8 4.8 -4.8
v -1.8 4.9 -4.8
v -1.8 5 -4.8
v -1.8 5.1 -4.8
v -1.8 5.2 -4.8
v -1.8 5.3 -4.8
v -1.8 5.6 -4.8
v -1.8 5.7 -4.8
v -1.8 5.8 -4.8
v -1.8 5.9 -4.8
v -1.8 6 -4.8
v -1.8 6.2 -4.8
v -1.8 6.3 -4.8
v -1.8 6.4 -4.8
v -1.8 6.5 -4.8
v -1.8 6.6 -4.8
v -1.8 7.1 -4.8
v -1.8 7.2 -4.8
v -1.7 4.8 -4.8
v -1.7 4.9 -4.8
v -1.7 5.1 -4.8
v -1.7 5.2 -4.8
v -1.7 5.3 -4.8
v -1.7 5.8 -4.8
v -1.7 6 -4.8
v -1.7 6.4 -4.8
v -1.7 6.6 -4.8
v -1.7 6.9 -4.8
v -1.7 7 -4.8
v -1.7 7.1 -4.8
v -1.7 7.2 -4.8
v -1.6 6.9 -4.8
v -1.6 7 -4.8
v -2.8 6.6 -4.9
v -2.8 6.9 -4.9
v -2.7 4.8 -4.9
v -2.7 4.9 -4.9
v -2.7 5.1 -4.9
v -2.7 5.5 -4.9
v -2.7 5.6 -4.9
v -2.7 5.8 -4.9
v -2.7 6 -4.9
v -2.7 6.4 -4.9
v -2.7 6.6 -4.9
v -2.7 6.9 -4.9
v -2.7 7 -4.9
v -2.7 7.1 -4.9
v -2.6 4.8 -4.9
v -2.6 4.9 -4.9
v -2.6 5 -4.9
v -2.6 5.1 -4.9
v -2.6 5.2 -4.9
v -2.6 5.3 -4.9
v -2.6 5.5 -4.9
v -2.6 5.6 -4.9
v -2.6 5.7 -4.9
v -2.6 5.8 -4.9
v -2.6 5.9 -4.9
v -2.6 6 -4.9
v -2.6 6.1 -4.9
v -2.6 6.2 -4.9
v -2.6 6.4 -4.9
v -2.6 6.5 -4.9
v -2.6 6.6 -4.9
v -2.6 7 -4.9
v -2.6 7.1 -4.9
v -2.5 7.2 -4.9
v -2.5 7.3 -4.9
v -2.4 7.2 -4.9
v -2.4 7.3 -4.9
v -2.3 7.3 -4.9
v -2.3 7.4 -4.9
v -2 7.3 -4.9
v -2 7.4 -4.9
v -1.9 7.2 -4.9
v -1.9 7.3 -4.9
v -1.8 7.2 -4.9
v -1.8 7.3 -4.9
v -1.7 4.8 -4.9
v -1.7 4.9 -4.9
v -1.7 5.1 -4.9
v -1.7 5.2 -4.9
v -1.7 5.3 -4.9
v -1.7 5.4 -4.9
v -1.7 5.5 -4.9
v -1.7 5.6 -4.9
v -1.7 5.8 -4.9
v -1.7 5.9 -4.9
v -1.7 6 -4.9
v -1.7 6.1 -4.9
v -1.7 6.2 -4.9
v -1.7 6.4 -4.9
v -1.7 6.5 -4.9
v -1.7 6.6 -4.9
v -1.7 7 -4.9
v -1.7 7.1 -4.9
v -1.6 4.8 -4.9
v -1.6 4.9 -4.9
v -1.6 5.1 -4.9
v -1.6 5.2 -4.9
v -1.6 5.4 -4.9
v -1.6 5.5 -4.9
v -1.6 5.6 -4.9
v -1.6 5.8 -4.9
v -1.6 5.9 -4.9
v -1.6 6.1 -4.9
v -1.6 6.2 -4.9
v -1.6 6.4 -4.9
v -1.6 6.5 -4.9
v -1.6 6.6 -4.9
v -1.6 6.9 -4.9
v -1.6 7 -4.9
v -1.6 7.1 -4.9
v -1.5 6.6 -4.9
v -1.5 6.9 -4.9
v -2.8 6.9 -5
v -2.8 7 -5
v -2.7 6.9 -5
v -2.7 7 -5
v -2.7 7.1 -5
v -2.7 7.2 -5
v -2.6 7.1 -5
v -2.6 7.2 -5
v -2.6 7.3 -5
v -2.5 7.2 -5
v -2.5 7.3 -5
v -2.4 7.3 -5
v -2.4 7.4 -5
v -2.3 7.3 -5
v -2.3 7.4 -5
v -2 7.3 -5
v -2 7.4 -5
v -1.9 7.3 -5
v -1.9 7.4 -5
v -1.8 7.2 -5
v -1.8 7.3 -5
v -1.7 7.1 -5
v -1.7 7.2 -5
v -1.7 7.3 -5
v -1.6 6.9 -5
v -1.6 7 -5
v -1.6 7.1 -5
v -1.6 7.2 -5
v -1.5 6.9 -5
v -1.5 7 -5
v -2.8 6.9 -5.3
v -2.8 7 -5.3
v -2.7 6.9 -5.3
v -2.7 7 -5.3
v -2.7 7.1 -5.3
v -2.7 7.2 -5.3
v -2.6 7.1 -5.3
v -2.6 7.2 -5.3
v -2.6 7.3 -5.3
v -2.5 7.2 -5.3
v -2.5 7.3 -5.3
v -2.4 7.3 -5.3
v -2.4 7.4 -5.3
v -2.3 7.3 -5.3
v -2.3 7.4 -5.3
v -2 7.3 -5.3
v -2 7.4 -5.3
v -1.9 7.3 -5.3
v -1.9 7.4 -5.3
v -1.8 7.2 -5.3
v -1.8 7.3 -5.3
v -1.7 7.1 -5.3
v -1.7 7.2 -5.3
v -1.7 7.3 -5.3
v -1.6 6.9 -5.3
v -1.6 7 -5.3
v -1.6 7.1 -5.3
v -1.6 7.2 -5.3
v -1.5 6.9 -5.3
v -1.5 7 -5.3
v -2.8 6.6 -5.4
v -2.8 6.9 -5.4
v -2.7 4.8 -5.4
v -2.7 4.9 -5.4
v -2.7 5.1 -5.4
v -2.7 5.2 -5.4
v -2.7 5.3 -5.4
v -2.7 5.5 -5.4
v -2.7 5.7 -5.4
v -2.7 6.1 -5.4
v -2.7 6.2 -5.4
v -2.7 6.5 -5.4
v -2.7 6.6 -5.4
v -2.7 6.9 -5.4
v -2.7 7 -5.4
v -2.7 7.1 -5.4
v -2.6 4.8 -5.4
v -2.6 4.9 -5.4
v -2.6 5.1 -5.4
v -2.6 5.2 -5.4
v -2.6 5.3 -5.4
v -2.6 5.5 -5.4
v -2.6 5.6 -5.4
v -2.6 5.7 -5.4
v -2.6 5.8 -5.4
v -2.6 5.9 -5.4
v -2.6 6.1 -5.4
v -2.6 6.2 -5.4
v -2.6 6.4 -5.4
v -2.6 6.5 -5.4
v -2.6 6.6 -5.4
v -2.6 7 -5.4
v -2.6 7.1 -5.4
v -2.5 7.2 -5.4
v -2.5 7.3 -5.4
v -2.4 7.2 -5.4
v -2.4 7.3 -5.4
v -2.3 7.3 -5.4
v -2.3 7.4 -5.4
v -2 7.3 -5.4
v -2 7.4 -5.4
v -1.9 7.2 -5.4
v -1.9 7.3 -5.4
v -1.8 7.2 -5.4
v -1.8 7.3 -5.4
v -1.7 4.8 -5.4
v -1.7 4.9 -5.4
v -1.7 5 -5.4
v -1.7 5.1 -5.4
v -1.7 5.2 -5.4
v -1.7 5.3 -5.4
v -1.7 5.4 -5.4
v -1.7 5.6 -5.4
v -1.7 5.7 -5.4
v -1.7 5.8 -5.4
v -1.7 5.9 -5.4
v -1.7 6.1 -5.4
v -1.7 6.2 -5.4
v -1.7 6.4 -5.4
v -1.7 6.5 -5.4
v -1.7 6.6 -5.4
v -1.7 7 -5.4
v -1.7 7.1 -5.4
v -1.6 4.8 -5.4
v -1.6 4.9 -5.4
v -1.6 5.1 -5.4
v -1.6 5.2 -5.4
v -1.6 5.3 -5.4
v -1.6 5.8 -5.4
v -1.6 5.9 -5.4
v -1.6 6.4 -5.4
v -1.6 6.6 -5.4
v -1.6 6.9 -5.4
v -1.6 7 -5.4
v -1.6 7.1 -5.4
v -1.5 6.6 -5.4
v -1.5 6.9 -5.4
v -2.7 6.9 -5.5
v -2.7 7 -5.5
v -2.6 4.8 -5.5
v -2.6 4.9 -5.5
v -2.6 5.1 -5.5
v -2.6 5.6 -5.5
v -2.6 5.7 -5.5
v -2.6 5.8 -5.5
v -2.6 5.9 -5.5
v -2.6 6.4 -5.5
v -2.6 6.6 -5.5
v -2.6 6.9 -5.5
v -2.6 7 -5.5
v -2.6 7.1 -5.5
v -2.6 7.2 -5.5
v -2.5 4.8 -5.5
v -2.5 4.9 -5.5
v -2.5 5 -5.5
v -2.5 5.1 -5.5
v -2.5 5.3 -5.5
v -2.5 5.4 -5.5
v -2.5 5.6 -5.5
v -2.5 5.7 -5.5
v -2.5 5.8 -5.5
v -2.5 5.9 -5.5
v -2.5 6 -5.5
v -2.5 6.2 -5.5
v -2.5 6.3 -5.5
v -2.5 6.4 -5.5
v -2.5 6.6 -5.5
v -2.5 7.1 -5.5
v -2.5 7.2 -5.5
v -2.4 7.2 -5.5
v -2.4 7.3 -5.5
v -2.3 7.2 -5.5
v -2.3 7.3 -5.5
v -2 7.2 -5.5
v -2 7.3 -5.5
v -1.9 7.2 -5.5
v -1.9 7.3 -5.5
v -1.8 4.8 -5.5
v -1.8 4.9 -5.5
v -1.8 5 -5.5
v -1.8 5.2 -5.5
v -1.8 5.4 -5.5
v -1.8 5.5 -5.5
v -1.8 5.6 -5.5
v -1.8 5.7 -5.5
v -1.8 5.8 -5.5
v -1.8 5.9 -5.5
v -1.8 6.1 -5.5
v -1.8 6.2 -5.5
v -1.8 6.3 -5.5
v -1.8 6.4 -5.5
v -1.8 6.5 -5.5
v -1.8 6.6 -5.5
v -1.8 7.1 -5.5
v -1.8 7.2 -5.5
v -1.7 4.8 -5.5
v -1.7 4.9 -5.5
v -1.7 5 -5.5
v -1.7 5.2 -5.5
v -1.7 5.4 -5.5
v -1.7 5.6 -5.5
v -1.7 5.7 -5.5
v -1.7 6.1 -5.5
v -1.7 6.2 -5.5
v -1.7 6.4 -5.5
v -1.7 6.5 -5.5
v -1.7 6.6 -5.5
v -1.7 6.9 -5.5
v -1.7 7 -5.5
v -1.7 7.1 -5.5
v -1.7 7.2 -5.5
v -1.6 6.9 -5.5
v -1.6 7 -5.5
v -2.7 6.6 -5.6
v -2.7 6.9 -5.6
v -2.6 6.6 -5.6
v -2.6 6.9 -5.6
v -2.6 7.1 -5.6
v -2.5 4.8 -5.6
v -2.5 4.9 -5.6
v -2.5 5 -5.6
v -2.5 5.3 -5.6
v -2.5 5.4 -5.6
v -2.5 5.8 -5.6
v -2.5 6 -5.6
v -2.5 6.2 -5.6
v -2.5 6.3 -5.6
v -2.5 6.4 -5.6
v -2.5 6.6 -5.6
v -2.5 6.9 -5.6
v -2.5 7 -5.6
v -2.5 7.1 -5.6
v -2.5 7.2 -5.6
v -2.4 4.8 -5.6
v -2.4 4.9 -5.6
v -2.4 5 -5.6
v -2.4 5.2 -5.6
v -2.4 5.3 -5.6
v -2.4 5.4 -5.6
v -2.4 5.5 -5.6
v -2.4 5.6 -5.6
v -2.4 5.8 -5.6
v -2.4 5.9 -5.6
v -2.4 6 -5.6
v -2.4 6.1 -5.6
v -2.4 6.2 -5.6
v -2.4 6.3 -5.6
v -2.4 6.4 -5.6
v -2.4 6.5 -5.6
v -2.4 6.6 -5.6
v -2.4 7 -5.6
v -2.4 7.1 -5.6
v -2.3 7.1 -5.6
v -2.3 7.2 -5.6
v -2.3 7.3 -5.6
v -2 7.1 -5.6
v -2 7.2 -5.6
v -2 7.3 -5.6
v -1.9 4.8 -5.6
v -1.9 5 -5.6
v -1.9 5.1 -5.6
v -1.9 5.2 -5.6
v -1.9 5.4 -5.6
v -1.9 5.5 -5.6
v -1.9 5.6 -5.6
v -1.9 5.7 -5.6
v -1.9 5.8 -5.6
v -1.9 5.9 -5.6
v -1.9 6 -5.6
v -1.9 6.1 -5.6
v -1.9 6.3 -5.6
v -1.9 6.4 -5.6
v -1.9 6.5 -5.6
v -1.9 6.6 -5.6
v -1.9 7 -5.6
v -1.9 7.1 -5.6
v -1.8 4.8 -5.6
v -1.8 5.2 -5.6
v -1.8 5.4 -5.6
v -1.8 5.5 -5.6
v -1.8 5.7 -5.6
v -1.8 5.8 -5.6
v -1.8 5.9 -5.6
v -1.8 6.1 -5.6
v -1.8 6.3 -5.6
v -1.8 6.6 -5.6
v -1.8 6.9 -5.6
v -1.8 7 -5.6
v -1.8 7.1 -5.6
v -1.8 7.2 -5.6
v -1.7 6.6 -5.6
v -1.7 6.9 -5.6
v -1.7 7.1 -5.6
v -1.6 6.6 -5.6
v -1.6 6.9 -5.6
v -2.6 6.6 -5.7
v -2.6 6.9 -5.7
v -2.5 6.9 -5.7
v -2.5 7 -5.7
v -2.4 4.8 -5.7
v -2.4 5.2 -5.7
v -2.4 5.4 -5.7
v -2.4 5.5 -5.7
v -2.4 5.6 -5.7
v -2.4 5.9 -5.7
v -2.4 6 -5.7
v -2.4 6.1 -5.7
v -2.4 6.3 -5.7
v -2.4 6.4 -5.7
v -2.4 6.5 -5.7
v -2.4 6.6 -5.7
v -2.4 6.9 -5.7
v -2.4 7 -5.7
v -2.4 7.1 -5.7
v -2.3 4.9 -5.7
v -2.3 5 -5.7
v -2.3 5.3 -5.7
v -2.3 5.4 -5.7
v -2.3 5.6 -5.7
v -2.3 5.7 -5.7
v -2.3 5.9 -5.7
v -2.3 6 -5.7
v -2.3 6.2 -5.7
v -2.3 6.3 -5.7
v -2.3 6.4 -5.7
v -2.3 6.5 -5.7
v -2.3 6.9 -5.7
v -2.3 7 -5.7
v -2.3 7.1 -5.7
v -2.3 7.2 -5.7
v -2.2 5 -5.7
v -2.2 5.1 -5.7
v -2.2 5.2 -5.7
v -2.2 5.3 -5.7
v -2.2 5.5 -5.7
v -2.2 5.6 -5.7
v -2.2 5.9 -5.7
v -2.2 6 -5.7
v -2.2 6.1 -5.7
v -2.2 6.2 -5.7
v -2.2 6.5 -5.7
v -2.2 6.6 -5.7
v -2.1 5.3 -5.7
v -2.1 5.4 -5.7
v -2.1 5.6 -5.7
v -2.1 5.7 -5.7
v -2.1 5.8 -5.7
v -2.1 5.9 -5.7
v -2.1 6.2 -5.7
v -2.1 6.3 -5.7
v -2.1 6.4 -5.7
v -2.1 6.5 -5.7
v -2 4.9 -5.7
v -2 5 -5.7
v -2 5.2 -5.7
v -2 5.3 -5.7
v -2 5.5 -5.7
v -2 5.6 -5.7
v -2 6.1 -5.7
v -2 6.2 -5.7
v -2 6.5 -5.7
v -2 6.6 -5.7
v -2 6.9 -5.7
v -2 7 -5.7
v -2 7.1 -5.7
v -2 7.2 -5.7
v -1.9 4.8 -5.7
v -1.9 5 -5.7
v -1.9 5.1 -5.7
v -1.9 5.2 -5.7
v -1.9 5.4 -5.7
v -1.9 5.5 -5.7
v -1.9 5.6 -5.7
v -1.9 5.8 -5.7
v -1.9 6 -5.7
v -1.9 6.1 -5.7
v -1.9 6.3 -5.7
v -1.9 6.4 -5.7
v -1.9 6.5 -5.7
v -1.9 6.6 -5.7
v -1.9 6.9 -5.7
v -1.9 7 -5.7
v -1.9 7.1 -5.7
v -1.8 6.9 -5.7
v -1.8 7 -5.7
v -1.7 6.6 -5.7
v -1.7 6.9 -5.7
v -2.4 6.6 -5.8
v -2.4 6.9 -5.8
v -2.3 6.9 -5.8
v -2.3 7 -5.8
v -2 6.9 -5.8
v -2 7 -5.8
v -1.9 6.6 -5.8
v -1.9 6.9 -5.8
v -2.4 4.8 -4.6
v -2.3 4.8 -4.6
v -2 4.8 -4.6
v -1.9 4.8 -4.6
v -2.5 4.8 -4.7
v -2.4 4.8 -4.7
v -2.3 4.8 -4.7
v -2 4.8 -4.7
v -1.9 4.8 -4.7
v -1.8 4.8 -4.7
v -2.6 4.8 -4.8
v -2.5 4.8 -4.8
v -1.8 4.8 -4.8
v -1.7 4.8 -4.8
v -2.7 4.8 -4.9
v -2.6 4.8 -4.9
v -1.7 4.8 -4.9
v -1.6 4.8 -4.9
v -2.7 4.8 -5
v -2.6 4.8 -5
v -2.7 4.8 -5.1
v -2.6 4.8 -5.1
v -2.7 4.8 -5.2
v -2.6 4.8 -5.2
v -2.7 4.8 -5.3
v -2.6 4.8 -5.3
v -2.7 4.8 -5.4
v -2.6 4.8 -5.4
v -1.7 4.8 -5.4
v -1.6 4.8 -5.4
v -2.6 4.8 -5.5
v -2.5 4.8 -5.5
v -1.8 4.8 -5.5
v -1.7 4.8 -5.5
v -2.5 4.8 -5.6
v -2.4 4.8 -5.6
v -1.9 4.8 -5.6
v -1.8 4.8 -5.6
v -2.4 4.8 -5.7
v -1.9 4.8 -5.7
v -2.4 6.6 -4.5
v -1.9 6.6 -4.5
v -2.6 6.6 -4.6
v -2.4 6.6 -4.6
v -2.1 6.6 -4.6
v -1.9 6.6 -4.6
v -1.7 6.6 -4.6
v -2.7 6.6 -4.7
v -2.6 6.6 -4.7
v -2.5 6.6 -4.7
v -2.4 6.6 -4.7
v -1.9 6.6 -4.7
v -1.8 6.6 -4.7
v -1.7 6.6 -4.7
v -1.6 6.6 -4.7
v -2.6 6.6 -4.8
v -2.5 6.6 -4.8
v -1.8 6.6 -4.8
v -1.7 6.6 -4.8
v -2.8 6.6 -4.9
v -2.7 6.6 -4.9
v -2.6 6.6 -4.9
v -1.7 6.6 -4.9
v -1.6 6.6 -4.9
v -1.5 6.6 -4.9
v -2.7 6.6 -5
v -1.6 6.6 -5.1
v -2.7 6.6 -5.3
v -2.8 6.6 -5.4
v -2.7 6.6 -5.4
v -2.6 6.6 -5.4
v -1.7 6.6 -5.4
v -1.6 6.6 -5.4
v -1.5 6.6 -5.4
v -2.6 6.6 -5.5
v -2.5 6.6 -5.5
v -1.8 6.6 -5.5
v -1.7 6.6 -5.5
v -2.7 6.6 -5.6
v -2.6 6.6 -5.6
v -2.5 6.6 -5.6
v -2.4 6.6 -5.6
v -1.9 6.6 -5.6
v -1.8 6.6 -5.6
v -1.7 6.6 -5.6
v -1.6 6.6 -5.6
v -2.6 6.6 -5.7
v -2.4 6.6 -5.7
v -2.2 6.6 -5.7
v -2 6.6 -5.7
v -1.9 6.6 -5.7
v -1.7 6.6 -5.7
v -2.4 6.6 -5.8
v -1.9 6.6 -5.8
v -2.4 6.9 -4.5
v -2.3 6.9 -4.5
v -2 6.9 -4.5
v -1.9 6.9 -4.5
v -2.6 6.9 -4.6
v -2.5 6.9 -4.6
v -2.4 6.9 -4.6
v -2.3 6.9 -4.6
v -2 6.9 -4.6
v -1.9 6.9 -4.6
v -1.8 6.9 -4.6
v -1.7 6.9 -4.6
v -2.7 6.9 -4.7
v -2.6 6.9 -4.7
v -2.5 6.9 -4.7
v -1.8 6.9 -4.7
v -1.7 6.9 -4.7
v -1.6 6.9 -4.7
v -2.7 6.9 -4.8
v -2.6 6.9 -4.8
v -1.7 6.9 -4.8
v -1.6 6.9 -4.8
v -2.8 6.9 -4.9
v -2.7 6.9 -4.9
v -1.6 6.9 -4.9
v -1.5 6.9 -4.9
v -2.8 6.9 -5
v -2.7 6.9 -5
v -1.6 6.9 -5
v -1.5 6.9 -5
v -2.8 6.9 -5.3
v -2.7 6.9 -5.3
v -1.6 6.9 -5.3
v -1.5 6.9 -5.3
v -2.8 6.9 -5.4
v -2.7 6.9 -5.4
v -1.6 6.9 -5.4
v -1.5 6.9 -5.4
v -2.7 6.9 -5.5
v -2.6 6.9 -5.5
v -1.7 6.9 -5.5
v -1.6 6.9 -5.5
v -2.7 6.9 -5.6
v -2.6 6.9 -5.6
v -2.5 6.9 -5.6
v -1.8 6.9 -5.6
v -1.7 6.9 -5.6
v -1.6 6.9 -5.6
v -2.6 6.9 -5.7
v -2.5 6.9 -5.7
v -2.4 6.9 -5.7
v -2.3 6.9 -5.7
v -2 6.9 -5.7
v -1.9 6.9 -5.7
v -1.8 6.9 -5.7
v -1.7 6.9 -5.7
v -2.4 6.9 -5.8
v -2.3 6.9 -5.8
v -2 6.9 -5.8
v -1.9 6.9 -5.8
v -2.3 7 -4.5
v -2 7 -4.5
v -2.5 7 -4.6
v -2.4 7 -4.6
v -2.3 7 -4.6
v -2 7 -4.6
v -1.9 7 -4.6
v -1.8 7 -4.6
v -2.5 7 -4.7
v -2.4 7 -4.7
v -1.9 7 -4.7
v -1.8 7 -4.7
v -2.7 7 -4.8
v -2.6 7 -4.8
v -1.7 7 -4.8
v -1.6 7 -4.8
v -2.7 7 -4.9
v -2.6 7 -4.9
v -1.7 7 -4.9
v -1.6 7 -4.9
v -2.8 7 -5
v -2.7 7 -5
v -1.6 7 -5
v -1.5 7 -5
v -2.8 7 -5.3
v -2.7 7 -5.3
v -1.6 7 -5.3
v -1.5 7 -5.3
v -2.7 7 -5.4
v -2.6 7 -5.4
v -1.7 7 -5.4
v -1.6 7 -5.4
v -2.7 7 -5.5
v -2.6 7 -5.5
v -1.7 7 -5.5
v -1.6 7 -5.5
v -2.5 7 -5.6
v -2.4 7 -5.6
v -1.9 7 -5.6
v -1.8 7 -5.6
v -2.5 7 -5.7
v -2.4 7 -5.7
v -2.3 7 -5.7
v -2 7 -5.7
v -1.9 7 -5.7
v -1.8 7 -5.7
v -2.3 7 -5.8
v -2 7 -5.8
v -2.4 7.1 -4.6
v -2.3 7.1 -4.6
v -2 7.1 -4.6
v -1.9 7.1 -4.6
v -2.6 7.1 -4.7
v -2.5 7.1 -4.7
v -2.4 7.1 -4.7
v -2.3 7.1 -4.7
v -2 7.1 -4.7
v -1.9 7.1 -4.7
v -1.8 7.1 -4.7
v -1.7 7.1 -4.7
v -2.6 7.1 -4.8
v -2.5 7.1 -4.8
v -1.8 7.1 -4.8
v -1.7 7.1 -4.8
v -2.7 7.1 -4.9
v -2.6 7.1 -4.9
v -1.7 7.1 -4.9
v -1.6 7.1 -4.9
v -2.7 7.1 -5
v -2.6 7.1 -5
v -1.7 7.1 -5
v -1.6 7.1 -5
v -2.7 7.1 -5.3
v -2.6 7.1 -5.3
v -1.7 7.1 -5.3
v -1.6 7.1 -5.3
v -2.7 7.1 -5.4
v -2.6 7.1 -5.4
v -1.7 7.1 -5.4
v -1.6 7.1 -5.4
v -2.6 7.1 -5.5
v -2.5 7.1 -5.5
v -1.8 7.1 -5.5
v -1.7 7.1 -5.5
v -2.6 7.1 -5.6
v -2.5 7.1 -5.6
v -2.4 7.1 -5.6
v -2.3 7.1 -5.6
v -2 7.1 -5.6
v -1.9 7.1 -5.6
v -1.8 7.1 -5.6
v -1.7 7.1 -5.6
v -2.4 7.1 -5.7
v -2.3 7.1 -5.7
v -2 7.1 -5.7
v -1.9 7.1 -5.7
v -2.3 7.2 -4.6
v -2 7.2 -4.6
v -2.5 7.2 -4.7
v -2.3 7.2 -4.7
v -2 7.2 -4.7
v -1.8 7.2 -4.7
v -2.6 7.2 -4.8
v -2.5 7.2 -4.8
v -2.4 7.2 -4.8
v -2.3 7.2 -4.8
v -2 7.2 -4.8
v -1.9 7.2 -4.8
v -1.8 7.2 -4.8
v -1.7 7.2 -4.8
v -2.5 7.2 -4.9
v -2.4 7.2 -4.9
v -1.9 7.2 -4.9
v -1.8 7.2 -4.9
v -2.7 7.2 -5
v -2.6 7.2 -5
v -2.5 7.2 -5
v -1.8 7.2 -5
v -1.7 7.2 -5
v -1.6 7.2 -5
v -2.7 7.2 -5.3
v -2.6 7.2 -5.3
v -2.5 7.2 -5.3
v -1.8 7.2 -5.3
v -1.7 7.2 -5.3
v -1.6 7.2 -5.3
v -2.5 7.2 -5.4
v -2.4 7.2 -5.4
v -1.9 7.2 -5.4
v -1.8 7.2 -5.4
v -2.6 7.2 -5.5
v -2.5 7.2 -5.5
v -2.4 7.2 -5.5
v -2.3 7.2 -5.5
v -2 7.2 -5.5
v -1.9 7.2 -5.5
v -1.8 7.2 -5.5
v -1.7 7.2 -5.5
v -2.5 7.2 -5.6
v -2.3 7.2 -5.6
v -2 7.2 -5.6
v -1.8 7.2 -5.6
v -2.3 7.2 -5.7
v -2 7.2 -5.7
v -2.3 7.3 -4.7
v -2 7.3 -4.7
v -2.4 7.3 -4.8
v -2.3 7.3 -4.8
v -2 7.3 -4.8
v -1.9 7.3 -4.8
v -2.5 7.3 -4.9
v -2.4 7.3 -4.9
v -2.3 7.3 -4.9
v -2 7.3 -4.9
v -1.9 7.3 -4.9
v -1.8 7.3 -4.9
v -2.6 7.3 -5
v -2.5 7.3 -5
v -2.4 7.3 -5
v -2.3 7.3 -5
v -2 7.3 -5
v -1.9 7.3 -5
v -1.8 7.3 -5
v -1.7 7.3 -5
v -2.6 7.3 -5.3
v -2.5 7.3 -5.3
v -2.4 7.3 -5.3
v -2.3 7.3 -5.3
v -2 7.3 -5.3
v -1.9 7.3 -5.3
v -1.8 7.3 -5.3
v -1.7 7.3 -5.3
v -2.5 7.3 -5.4
v -2.4 7.3 -5.4
v -2.3 7.3 -5.4
v -2 7.3 -5.4
v -1.9 7.3 -5.4
v -1.8 7.3 -5.4
v -2.4 7.3 -5.5
v -2.3 7.3 -5.5
v -2 7.3 -5.5
v -1.9 7.3 -5.5
v -2.3 7.3 -5.6
v -2 7.3 -5.6
v -2.3 7.4 -4.9
v -2 7.4 -4.9
v -2.4 7.4 -5
v -2.3 7.4 -5
v -2 7.4 -5
v -1.9 7.4 -5
v -2.4 7.4 -5.3
v -2.3 7.4 -5.3
v -2 7.4 -5.3
v -1.9 7.4 -5.3
v -2.3 7.4 -5.4
v -2 7.4 -5.4

# faces
f 3/6/1 2/6/1 1/6/1
f 4/6/1 2/6/1 3/6/1
f 5/6/1 2/6/1 4/6/1
f 6/6/1 2/6/1 5/6/1
f 7/6/1 5/6/1 4/6/1
f 8/6/1 5/6/1 7/6/1
f 15/1/1 10/1/1 9/1/1
f 16/4/1 11/4/1 10/4/1
f 16/1/1 10/1/1 15/1/1
f 17/1/1 12/1/1 11/1/1
f 17/4/1 11/4/1 16/4/1
f 18/4/1 13/4/1 12/4/1
f 18/1/1 12/1/1 17/1/1
f 19/1/1 14/1/1 13/1/1
f 19/4/1 13/4/1 18/4/1
f 20/1/1 14/1/1 19/1/1
f 21/4/1 18/4/1 17/4/1
f 21/4/1 17/4/1 16/4/1
f 21/4/1 19/4/1 18/4/1
f 22/4/1 19/4/1 21/4/1
f 23/2/1 16/2/1 15/2/1
f 24/4/1 21/4/1 16/4/1
f 24/2/1 16/2/1 23/2/1
f 25/1/1 22/1/1 21/1/1
f 25/4/1 21/4/1 24/4/1
f 26/4/1 19/4/1 22/4/1
f 26/1/1 22/1/1 25/1/1
f 27/2/1 20/2/1 19/2/1
f 27/4/1 19/4/1 26/4/1
f 28/2/1 20/2/1 27/2/1
f 29/4/1 25/4/1 24/4/1
f 29/4/1 26/4/1 25/4/1
f 29/4/1 27/4/1 26/4/1
f 30/4/1 27/4/1 29/4/1
f 31/1/1 28/1/1 27/1/1
f 31/4/1 27/4/1 30/4/1
f 32/1/1 28/1/1 31/1/1
f 33/2/1 30/2/1 29/2/1
f 33/4/1 29/4/1 24/4/1
f 34/4/1 31/4/1 30/4/1
f 34/2/1 30/2/1 33/2/1
f 35/2/1 32/2/1 31/2/1
f 35/4/1 31/4/1 34/4/1
f 36/2/1 32/2/1 35/2/1
f 37/4/1 34/4/1 33/4/1
f 37/4/1 33/4/1 24/4/1
f 37/4/1 35/4/1 34/4/1
f 38/4/1 35/4/1 37/4/1
f 39/1/1 24/1/1 23/1/1
f 40/4/1 37/4/1 24/4/1
f 40/1/1 24/1/1 39/1/1
f 41/1/1 38/1/1 37/1/1
f 41/4/1 37/4/1 40/4/1
f 42/4/1 35/4/1 38/4/1
f 42/1/1 38/1/1 41/1/1
f 43/1/1 36/1/1 35/1/1
f 43/4/1 35/4/1 42/4/1
f 44/1/1 36/1/1 43/1/1
f 45/2/1 40/2/1 39/2/1
f 46/4/1 41/4/1 40/4/1
f 46/2/1 40/2/1 45/2/1
f 46/4/1 42/4/1 41/4/1
f 46/4/1 43/4/1 42/4/1
f 47/4/1 43/4/1 46/4/1
f 48/4/1 43/4/1 47/4/1
f 49/4/1 47/4/1 46/4/1
f 49/1/1 48/1/1 47/1/1
f 50/4/1 43/4/1 48/4/1
f 50/1/1 48/1/1 49/1/1
f 51/2/1 44/2/1 43/2/1
f 51/4/1 43/4/1 50/4/1
f 52/2/1 44/2/1 51/2/1
f 53/1/1 46/1/1 45/1/1
f 54/4/1 50/4/1 49/4/1
f 54/1/1 46/1/1 53/1/1
f 54/4/1 49/4/1 46/4/1
f 54/4/1 51/4/1 50/4/1
f 55/4/1 51/4/1 54/4/1
f 56/4/1 51/4/1 55/4/1
f 57/4/1 55/4/1 54/4/1
f 57/2/1 56/2/1 55/2/1
f 58/4/1 51/4/1 56/4/1
f 58/2/1 56/2/1 57/2/1
f 59/2/1 54/2/1 53/2/1
f 60/4/1 57/4/1 54/4/1
f 60/2/1 54/2/1 59/2/1
f 60/4/1 58/4/1 57/4/1
f 61/4/1 58/4/1 60/4/1
f 62/4/1 51/4/1 58/4/1
f 62/4/1 58/4/1 61/4/1
f 63/4/1 61/4/1 60/4/1
f 63/1/1 62/1/1 61/1/1
f 64/4/1 51/4/1 62/4/1
f 64/1/1 62/1/1 63/1/1
f 65/1/1 52/1/1 51/1/1
f 65/4/1 51/4/1 64/4/1
f 66/1/1 52/1/1 65/1/1
f 67/4/1 64/4/1 63/4/1
f 67/4/1 63/4/1 60/4/1
f 67/4/1 65/4/1 64/4/1
f 68/4/1 65/4/1 67/4/1
f 69/2/1 66/2/1 65/2/1
f 69/4/1 65/4/1 68/4/1
f 70/2/1 66/2/1 69/2/1
f 71/2/1 68/2/1 67/2/1
f 71/4/1 67/4/1 60/4/1
f 72/4/1 69/4/1 68/4/1
f 72/2/1 68/2/1 71/2/1
f 73/1/1 60/1/1 59/1/1
f 74/4/1 71/4/1 60/4/1
f 74/1/1 60/1/1 73/1/1
f 74/4/1 72/4/1 71/4/1
f 75/4/1 72/4/1 74/4/1
f 76/4/1 69/4/1 72/4/1
f 76/4/1 72/4/1 75/4/1
f 77/4/1 75/4/1 74/4/1
f 77/2/1 76/2/1 75/2/1
f 78/4/1 69/4/1 76/4/1
f 78/2/1 76/2/1 77/2/1
f 79/1/1 70/1/1 69/1/1
f 79/4/1 69/4/1 78/4/1
f 80/1/1 70/1/1 79/1/1
f 82/2/1 74/2/1 73/2/1
f 83/4/1 77/4/1 74/4/1
f 83/4/1 78/4/1 77/4/1
f 83/2/1 74/2/1 82/2/1
f 83/4/1 79/4/1 78/4/1
f 84/2/1 80/2/1 79/2/1
f 84/4/1 79/4/1 83/4/1
f 85/2/1 80/2/1 84/2/1
f 87/6/1 82/6/1 81/6/1
f 88/6/1 82/6/1 87/6/1
f 89/6/1 82/6/1 88/6/1
f 92/6/1 86/6/1 85/6/1
f 93/6/1 86/6/1 92/6/1
f 94/6/1 86/6/1 93/6/1
f 95/6/1 90/6/1 89/6/1
f 95/6/1 89/6/1 88/6/1
f 96/6/1 90/6/1 95/6/1
f 97/6/1 90/6/1 96/6/1
f 98/6/1 93/6/1 92/6/1
f 98/6/1 92/6/1 91/6/1
f 99/6/1 93/6/1 98/6/1
f 100/6/1 93/6/1 99/6/1
f 101/6/1 97/6/1 96/6/1
f 101/6/1 99/6/1 98/6/1
f 101/6/1 98/6/1 97/6/1
f 102/6/1 99/6/1 101/6/1
f 103/6/1 99/6/1 102/6/1
f 104/6/1 99/6/1 103/6/1
f 105/6/1 103/6/1 102/6/1
f 106/6/1 103/6/1 105/6/1
f 111/1/1 108/1/1 107/1/1
f 112/1/1 108/1/1 111/1/1
f 113/1/1 110/1/1 109/1/1
f 114/1/1 110/1/1 113/1/1
f 115/2/1 112/2/1 111/2/1
f 116/2/1 112/2/1 115/2/1
f 117/1/1 116/1/1 115/1/1
f 118/2/1 114/2/1 113/2/1
f 119/2/1 114/2/1 118/2/1
f 120/1/1 117/1/1 115/1/1
f 121/1/1 117/1/1 120/1/1
f 122/1/1 119/1/1 118/1/1
f 123/2/1 121/2/1 120/2/1
f 124/2/1 121/2/1 123/2/1
f 125/1/1 119/1/1 122/1/1
f 126/1/1 124/1/1 123/1/1
f 127/1/1 124/1/1 126/1/1
f 128/1/1 119/1/1 125/1/1
f 129/2/1 127/2/1 126/2/1
f 130/1/1 119/1/1 128/1/1
f 131/1/1 119/1/1 130/1/1
f 132/2/1 129/2/1 126/2/1
f 133/2/1 129/2/1 132/2/1
f 134/2/1 131/2/1 130/2/1
f 135/2/1 131/2/1 134/2/1
f 136/1/1 133/1/1 132/1/1
f 137/1/1 133/1/1 136/1/1
f 138/1/1 135/1/1 134/1/1
f 139/1/1 135/1/1 138/1/1
f 140/2/1 137/2/1 136/2/1
f 141/2/1 137/2/1 140/2/1
f 142/2/1 139/2/1 138/2/1
f 143/2/1 139/2/1 142/2/1
f 144/1/1 141/1/1 140/1/1
f 145/1/1 144/1/1 140/1/1
f 146/1/1 144/1/1 145/1/1
f 147/1/1 143/1/1 142/1/1
f 148/2/1 146/2/1 145/2/1
f 149/2/1 146/2/1 148/2/1
f 150/1/1 143/1/1 147/1/1
f 151/1/1 149/1/1 148/1/1
f 152/1/1 143/1/1 150/1/1
f 153/1/1 143/1/1 152/1/1
f 154/1/1 151/1/1 148/1/1
f 155/1/1 151/1/1 154/1/1
f 156/2/1 153/2/1 152/2/1
f 159/2/1 155/2/1 154/2/1
f 160/2/1 155/2/1 159/2/1
f 161/2/1 153/2/1 156/2/1
f 162/2/1 153/2/1 161/2/1
f 165/6/1 158/6/1 157/6/1
f 166/6/1 158/6/1 165/6/1
f 169/6/1 164/6/1 163/6/1
f 170/6/1 164/6/1 169/6/1
f 171/6/1 167/6/1 166/6/1
f 174/6/1 169/6/1 168/6/1
f 175/6/1 172/6/1 171/6/1
f 175/6/1 171/6/1 166/6/1
f 176/6/1 172/6/1 175/6/1
f 177/6/1 172/6/1 176/6/1
f 180/6/1 174/6/1 173/6/1
f 181/6/1 169/6/1 174/6/1
f 181/6/1 174/6/1 180/6/1
f 182/6/1 169/6/1 181/6/1
f 183/6/1 178/6/1 177/6/1
f 183/6/1 177/6/1 176/6/1
f 184/6/1 178/6/1 183/6/1
f 185/6/1 180/6/1 179/6/1
f 185/6/1 181/6/1 180/6/1
f 186/6/1 181/6/1 185/6/1
f 187/6/1 185/6/1 184/6/1
f 188/6/1 185/6/1 187/6/1
f 193/1/1 190/1/1 189/1/1
f 194/1/1 192/1/1 191/1/1
f 195/1/1 192/1/1 194/1/1
f 196/1/1 193/1/1 189/1/1
f 197/2/1 195/2/1 194/2/1
f 198/2/1 195/2/1 197/2/1
f 199/1/1 198/1/1 197/1/1
f 200/1/1 196/1/1 189/1/1
f 201/1/1 196/1/1 200/1/1
f 202/2/1 201/2/1 200/2/1
f 203/1/1 198/1/1 199/1/1
f 204/1/1 198/1/1 203/1/1
f 205/2/1 202/2/1 200/2/1
f 206/2/1 202/2/1 205/2/1
f 207/2/1 204/2/1 203/2/1
f 208/2/1 204/2/1 207/2/1
f 209/1/1 206/1/1 205/1/1
f 210/1/1 206/1/1 209/1/1
f 211/1/1 208/1/1 207/1/1
f 212/2/1 210/2/1 209/2/1
f 213/2/1 210/2/1 212/2/1
f 214/1/1 208/1/1 211/1/1
f 215/1/1 213/1/1 212/1/1
f 216/1/1 208/1/1 214/1/1
f 217/1/1 208/1/1 216/1/1
f 218/1/1 215/1/1 212/1/1
f 219/2/1 217/2/1 216/2/1
f 220/2/1 217/2/1 219/2/1
f 221/2/1 217/2/1 220/2/1
f 222/1/1 218/1/1 212/1/1
f 223/1/1 218/1/1 222/1/1
f 224/2/1 223/2/1 222/2/1
f 225/1/1 221/1/1 220/1/1
f 226/1/1 221/1/1 225/1/1
f 227/2/1 224/2/1 222/2/1
f 228/2/1 224/2/1 227/2/1
f 229/2/1 226/2/1 225/2/1
f 230/2/1 226/2/1 229/2/1
f 231/1/1 230/1/1 229/1/1
f 232/1/1 230/1/1 231/1/1
f 233/1/1 228/1/1 227/1/1
f 234/1/1 233/1/1 227/1/1
f 235/1/1 233/1/1 234/1/1
f 236/2/1 232/2/1 231/2/1
f 237/2/1 232/2/1 236/2/1
f 242/6/1 239/6/1 238/6/1
f 243/6/1 239/6/1 242/6/1
f 244/6/1 241/6/1 240/6/1
f 245/6/1 241/6/1 244/6/1
f 250/6/1 247/6/1 246/6/1
f 251/6/1 247/6/1 250/6/1
f 256/6/1 249/6/1 248/6/1
f 257/6/1 249/6/1 256/6/1
f 258/6/1 253/6/1 252/6/1
f 259/6/1 253/6/1 258/6/1
f 260/6/1 255/6/1 254/6/1
f 261/6/1 255/6/1 260/6/1
f 266/1/1 265/1/1 264/1/1
f 267/1/1 263/1/1 262/1/1
f 268/1/1 263/1/1 267/1/1
f 269/1/1 265/1/1 266/1/1
f 270/2/1 268/2/1 267/2/1
f 271/2/1 268/2/1 270/2/1
f 272/1/1 271/1/1 270/1/1
f 273/1/1 265/1/1 269/1/1
f 274/1/1 265/1/1 273/1/1
f 275/1/1 272/1/1 270/1/1
f 276/1/1 272/1/1 275/1/1
f 277/2/1 274/2/1 273/2/1
f 278/2/1 276/2/1 275/2/1
f 279/2/1 276/2/1 278/2/1
f 280/2/1 274/2/1 277/2/1
f 281/2/1 274/2/1 280/2/1
f 282/1/1 279/1/1 278/1/1
f 283/1/1 281/1/1 280/1/1
f 284/1/1 281/1/1 283/1/1
f 285/1/1 282/1/1 278/1/1
f 286/1/1 282/1/1 285/1/1
f 287/2/1 284/2/1 283/2/1
f 288/2/1 284/2/1 287/2/1
f 289/2/1 286/2/1 285/2/1
f 290/2/1 286/2/1 289/2/1
f 291/1/1 288/1/1 287/1/1
f 292/1/1 290/1/1 289/1/1
f 293/1/1 290/1/1 292/1/1
f 294/1/1 288/1/1 291/1/1
f 295/1/1 288/1/1 294/1/1
f 296/2/1 293/2/1 292/2/1
f 297/2/1 293/2/1 296/2/1
f 298/2/1 295/2/1 294/2/1
f 299/2/1 295/2/1 298/2/1
f 300/1/1 297/1/1 296/1/1
f 301/1/1 297/1/1 300/1/1
f 302/1/1 299/1/1 298/1/1
f 303/1/1 299/1/1 302/1/1
f 304/2/1 303/2/1 302/2/1
f 305/2/1 301/2/1 300/2/1
f 306/2/1 301/2/1 305/2/1
f 307/2/1 303/2/1 304/2/1
f 308/2/1 303/2/1 307/2/1
f 309/1/1 308/1/1 307/1/1
f 310/1/1 308/1/1 309/1/1
f 311/1/1 306/1/1 305/1/1
f 312/1/1 306/1/1 311/1/1
f 313/2/1 310/2/1 309/2/1
f 314/2/1 310/2/1 313/2/1
f 316/2/1 312/2/1 311/2/1
f 317/2/1 312/2/1 316/2/1
f 318/1/1 314/1/1 313/1/1
f 319/1/1 314/1/1 318/1/1
f 321/6/1 316/6/1 315/6/1
f 322/6/1 316/6/1 321/6/1
f 323/6/1 320/6/1 319/6/1
f 324/6/1 320/6/1 323/6/1
f 329/6/1 326/6/1 325/6/1
f 330/6/1 326/6/1 329/6/1
f 331/6/1 328/6/1 327/6/1
f 332/6/1 328/6/1 331/6/1
f 337/6/1 334/6/1 333/6/1
f 338/6/1 334/6/1 337/6/1
f 341/6/1 336/6/1 335/6/1
f 342/6/1 336/6/1 341/6/1
f 343/6/1 340/6/1 339/6/1
f 344/6/1 340/6/1 343/6/1
f 349/6/1 346/6/1 345/6/1
f 350/6/1 346/6/1 349/6/1
f 351/6/1 348/6/1 347/6/1
f 352/6/1 348/6/1 351/6/1
f 357/6/1 354/6/1 353/6/1
f 358/6/1 354/6/1 357/6/1
f 361/6/1 356/6/1 355/6/1
f 362/6/1 356/6/1 361/6/1
f 363/6/1 359/6/1 358/6/1
f 364/6/1 359/6/1 363/6/1
f 369/6/1 361/6/1 360/6/1
f 370/6/1 361/6/1 369/6/1
f 371/6/1 366/6/1 365/6/1
f 372/6/1 366/6/1 371/6/1
f 373/6/1 368/6/1 367/6/1
f 374/6/1 368/6/1 373/6/1
f 375/6/2 376/6/2 379/6/2
f 379/6/2 376/6/2 380/6/2
f 377/6/2 378/6/2 381/6/2
f 381/6/2 378/6/2 382/6/2
f 383/6/2 384/6/2 387/6/2
f 387/6/2 384/6/2 388/6/2
f 385/6/2 386/6/2 391/6/2
f 391/6/2 386/6/2 392/6/2
f 388/6/2 389/6/2 393/6/2
f 393/6/2 389/6/2 394/6/2
f 390/6/2 391/6/2 399/6/2
f 399/6/2 391/6/2 400/6/2
f 395/6/2 396/6/2 401/6/2
f 401/6/2 396/6/2 402/6/2
f 397/6/2 398/6/2 403/6/2
f 403/6/2 398/6/2 404/6/2
f 405/1/2 406/1/2 409/1/2
f 405/1/2 409/1/2 410/1/2
f 407/1/2 408/1/2 411/1/2
f 411/1/2 408/1/2 412/1/2
f 411/2/2 412/2/2 413/2/2
f 413/2/2 412/2/2 414/2/2
f 413/1/2 414/1/2 415/1/2
f 415/1/2 414/1/2 416/1/2
f 405/1/2 410/1/2 417/1/2
f 417/1/2 410/1/2 418/1/2
f 417/2/2 418/2/2 419/2/2
f 419/2/2 418/2/2 420/2/2
f 415/2/2 416/2/2 421/2/2
f 421/2/2 416/2/2 422/2/2
f 419/1/2 420/1/2 423/1/2
f 423/1/2 420/1/2 424/1/2
f 421/1/2 422/1/2 425/1/2
f 425/1/2 422/1/2 426/1/2
f 423/2/2 424/2/2 427/2/2
f 425/2/2 426/2/2 428/2/2
f 428/2/2 426/2/2 429/2/2
f 423/2/2 427/2/2 430/2/2
f 430/2/2 427/2/2 431/2/2
f 428/1/2 429/1/2 432/1/2
f 432/1/2 429/1/2 433/1/2
f 433/1/2 429/1/2 434/1/2
f 430/1/2 431/1/2 435/1/2
f 433/2/2 434/2/2 436/2/2
f 430/1/2 435/1/2 437/1/2
f 436/2/2 434/2/2 438/2/2
f 438/2/2 434/2/2 439/2/2
f 430/1/2 437/1/2 440/1/2
f 440/1/2 437/1/2 441/1/2
f 438/1/2 439/1/2 442/1/2
f 442/1/2 439/1/2 443/1/2
f 440/2/2 441/2/2 444/2/2
f 440/2/2 444/2/2 445/2/2
f 445/2/2 444/2/2 446/2/2
f 442/2/2 443/2/2 447/2/2
f 447/2/2 443/2/2 448/2/2
f 447/1/2 448/1/2 449/1/2
f 449/1/2 448/1/2 450/1/2
f 445/1/2 446/1/2 451/1/2
f 449/2/2 450/2/2 452/2/2
f 452/2/2 450/2/2 453/2/2
f 445/1/2 451/1/2 455/1/2
f 455/1/2 451/1/2 456/1/2
f 452/1/2 453/1/2 457/1/2
f 457/1/2 453/1/2 458/1/2
f 454/6/2 455/6/2 460/6/2
f 460/6/2 455/6/2 461/6/2
f 458/6/2 459/6/2 462/6/2
f 462/6/2 459/6/2 463/6/2
f 464/6/2 465/6/2 468/6/2
f 468/6/2 465/6/2 469/6/2
f 466/6/2 467/6/2 470/6/2
f 470/6/2 467/6/2 471/6/2
f 472/6/2 473/6/2 476/6/2
f 476/6/2 473/6/2 477/6/2
f 474/6/2 475/6/2 480/6/2
f 480/6/2 475/6/2 481/6/2
f 478/6/2 479/6/2 482/6/2
f 482/6/2 479/6/2 483/6/2
f 484/1/2 485/1/2 488/1/2
f 488/1/2 485/1/2 489/1/2
f 486/1/2 487/1/2 490/1/2
f 488/2/2 489/2/2 491/2/2
f 491/2/2 489/2/2 492/2/2
f 490/1/2 487/1/2 493/1/2
f 491/1/2 492/1/2 494/1/2
f 491/1/2 494/1/2 495/1/2
f 493/1/2 487/1/2 496/1/2
f 496/1/2 487/1/2 497/1/2
f 491/1/2 495/1/2 498/1/2
f 496/2/2 497/2/2 499/2/2
f 499/2/2 497/2/2 500/2/2
f 499/1/2 500/1/2 501/1/2
f 501/1/2 500/1/2 502/1/2
f 491/1/2 498/1/2 503/1/2
f 503/1/2 498/1/2 504/1/2
f 501/2/2 502/2/2 505/2/2
f 503/2/2 504/2/2 506/2/2
f 506/2/2 504/2/2 507/2/2
f 505/2/2 502/2/2 508/2/2
f 508/2/2 502/2/2 509/2/2
f 506/1/2 507/1/2 510/1/2
f 508/1/2 509/1/2 511/1/2
f 511/1/2 509/1/2 512/1/2
f 506/1/2 510/1/2 513/1/2
f 513/1/2 510/1/2 514/1/2
f 511/2/2 512/2/2 515/2/2
f 515/2/2 512/2/2 516/2/2
f 513/2/2 514/2/2 517/2/2
f 517/2/2 514/2/2 518/2/2
f 515/1/2 516/1/2 519/1/2
f 519/1/2 516/1/2 520/1/2
f 517/1/2 518/1/2 521/1/2
f 521/1/2 518/1/2 522/1/2
f 519/2/2 520/2/2 523/2/2
f 521/2/2 522/2/2 524/2/2
f 524/2/2 522/2/2 525/2/2
f 523/2/2 520/2/2 526/2/2
f 526/2/2 520/2/2 527/2/2
f 524/1/2 525/1/2 528/1/2
f 526/1/2 527/1/2 529/1/2
f 524/1/2 528/1/2 530/1/2
f 530/1/2 528/1/2 531/1/2
f 529/1/2 527/1/2 532/1/2
f 530/2/2 531/2/2 533/2/2
f 533/2/2 531/2/2 534/2/2
f 532/1/2 527/1/2 535/1/2
f 535/1/2 527/1/2 536/1/2
f 537/6/2 538/6/2 541/6/2
f 541/6/2 538/6/2 542/6/2
f 539/6/2 540/6/2 543/6/2
f 543/6/2 540/6/2 544/6/2
f 545/6/2 546/6/2 549/6/2
f 549/6/2 546/6/2 550/6/2
f 547/6/2 548/6/2 555/6/2
f 555/6/2 548/6/2 556/6/2
f 551/6/2 552/6/2 557/6/2
f 557/6/2 552/6/2 558/6/2
f 553/6/2 554/6/2 559/6/2
f 559/6/2 554/6/2 560/6/2
f 561/1/2 562/1/2 565/1/2
f 565/1/2 562/1/2 566/1/2
f 563/1/2 564/1/2 567/1/2
f 567/1/2 564/1/2 568/1/2
f 567/2/2 568/2/2 569/2/2
f 569/2/2 568/2/2 570/2/2
f 565/2/2 566/2/2 571/2/2
f 571/2/2 566/2/2 572/2/2
f 569/1/2 570/1/2 573/1/2
f 571/1/2 572/1/2 574/1/2
f 574/1/2 572/1/2 575/1/2
f 573/1/2 570/1/2 576/1/2
f 576/1/2 570/1/2 577/1/2
f 574/2/2 575/2/2 578/2/2
f 578/2/2 575/2/2 579/2/2
f 576/2/2 577/2/2 580/2/2
f 578/1/2 579/1/2 581/1/2
f 580/2/2 577/2/2 582/2/2
f 582/2/2 577/2/2 583/2/2
f 578/1/2 581/1/2 584/1/2
f 578/1/2 584/1/2 585/1/2
f 582/1/2 583/1/2 586/1/2
f 586/1/2 583/1/2 587/1/2
f 586/2/2 587/2/2 588/2/2
f 588/2/2 587/2/2 589/2/2
f 578/1/2 585/1/2 590/1/2
f 590/1/2 585/1/2 591/1/2
f 588/1/2 589/1/2 592/1/2
f 590/2/2 591/2/2 593/2/2
f 592/1/2 589/1/2 594/1/2
f 590/2/2 593/2/2 595/2/2
f 595/2/2 593/2/2 596/2/2
f 595/1/2 596/1/2 597/1/2
f 594/1/2 589/1/2 598/1/2
f 598/1/2 589/1/2 599/1/2
f 595/1/2 597/1/2 600/1/2
f 598/2/2 599/2/2 601/2/2
f 601/2/2 599/2/2 602/2/2
f 595/1/2 600/1/2 603/1/2
f 603/1/2 600/1/2 604/1/2
f 601/1/2 602/1/2 605/1/2
f 605/1/2 602/1/2 606/1/2
f 603/2/2 604/2/2 607/2/2
f 605/2/2 606/2/2 608/2/2
f 608/2/2 606/2/2 609/2/2
f 603/2/2 607/2/2 612/2/2
f 612/2/2 607/2/2 613/2/2
f 608/1/2 609/1/2 614/1/2
f 614/1/2 609/1/2 615/1/2
f 610/6/2 611/6/2 618/6/2
f 618/6/2 611/6/2 619/6/2
f 616/6/2 617/6/2 622/6/2
f 622/6/2 617/6/2 623/6/2
f 619/6/2 620/6/2 624/6/2
f 621/6/2 622/6/2 627/6/2
f 624/6/2 625/6/2 628/6/2
f 619/6/2 624/6/2 628/6/2
f 628/6/2 625/6/2 629/6/2
f 629/6/2 625/6/2 630/6/2
f 626/6/2 627/6/2 633/6/2
f 627/6/2 622/6/2 634/6/2
f 633/6/2 627/6/2 634/6/2
f 634/6/2 622/6/2 635/6/2
f 630/6/2 631/6/2 636/6/2
f 629/6/2 630/6/2 636/6/2
f 636/6/2 631/6/2 637/6/2
f 632/6/2 633/6/2 638/6/2
f 633/6/2 634/6/2 638/6/2
f 638/6/2 634/6/2 639/6/2
f 637/6/2 638/6/2 640/6/2
f 640/6/2 638/6/2 641/6/2
f 642/1/2 643/1/2 644/1/2
f 644/1/2 643/1/2 645/1/2
f 645/1/2 643/1/2 646/1/2
f 646/1/2 643/1/2 647/1/2
f 644/2/2 645/2/2 648/2/2
f 645/1/2 646/1/2 648/1/2
f 648/1/2 646/1/2 649/1/2
f 649/1/2 646/1/2 650/1/2
f 646/2/2 647/2/2 651/2/2
f 650/1/2 646/1/2 651/1/2
f 644/2/2 648/2/2 652/2/2
f 648/2/2 649/2/2 652/2/2
f 649/1/2 650/1/2 653/1/2
f 652/2/2 649/2/2 653/2/2
f 650/2/2 651/2/2 654/2/2
f 653/1/2 650/1/2 654/1/2
f 651/2/2 647/2/2 655/2/2
f 654/2/2 651/2/2 655/2/2
f 653/1/2 654/1/2 656/1/2
f 652/1/2 653/1/2 656/1/2
f 654/1/2 655/1/2 656/1/2
f 656/1/2 655/1/2 657/1/2
f 657/1/2 655/1/2 658/1/2
f 658/1/2 655/1/2 659/1/2
f 656/2/2 657/2/2 660/2/2
f 657/1/2 658/1/2 660/1/2
f 660/1/2 658/1/2 661/1/2
f 658/2/2 659/2/2 662/2/2
f 661/1/2 658/1/2 662/1/2
f 662/2/2 659/2/2 663/2/2
f 660/2/2 661/2/2 664/2/2
f 656/2/2 660/2/2 664/2/2
f 662/1/2 663/1/2 665/1/2
f 664/2/2 661/2/2 665/2/2
f 661/1/2 662/1/2 665/1/2
f 664/1/2 665/1/2 666/1/2
f 665/1/2 663/1/2 667/1/2
f 666/1/2 665/1/2 667/1/2
f 666/2/2 667/2/2 668/2/2
f 668/2/2 667/2/2 669/2/2
f 667/1/2 663/1/2 670/1/2
f 669/2/2 667/2/2 670/2/2
f 670/1/2 663/1/2 671/1/2
f 668/1/2 669/1/2 672/1/2
f 669/2/2 670/2/2 672/2/2
f 670/2/2 671/2/2 672/2/2
f 671/1/2 663/1/2 673/1/2
f 672/2/2 671/2/2 673/2/2
f 668/1/2 672/1/2 674/1/2
f 672/1/2 673/1/2 674/1/2
f 674/1/2 673/1/2 675/1/2
f 675/1/2 673/1/2 676/1/2
f 673/1/2 663/1/2 677/1/2
f 676/1/2 673/1/2 677/1/2
f 674/2/2 675/2/2 678/2/2
f 675/1/2 676/1/2 679/1/2
f 678/2/2 675/2/2 679/2/2
f 679/1/2 676/1/2 680/1/2
f 676/2/2 677/2/2 681/2/2
f 680/1/2 676/1/2 681/1/2
f 681/2/2 677/2/2 682/2/2
f 682/2/2 677/2/2 683/2/2
f 679/1/2 680/1/2 684/1/2
f 678/1/2 679/1/2 684/1/2
f 680/2/2 681/2/2 684/2/2
f 681/2/2 682/2/2 684/2/2
f 682/1/2 683/1/2 685/1/2
f 684/2/2 682/2/2 685/2/2
f 678/1/2 684/1/2 686/1/2
f 684/1/2 685/1/2 686/1/2
f 686/1/2 685/1/2 687/1/2
f 686/2/2 687/2/2 688/2/2
f 688/2/2 687/2/2 689/2/2
f 687/1/2 685/1/2 690/1/2
f 689/2/2 687/2/2 690/2/2
f 685/1/2 683/1/2 691/1/2
f 690/1/2 685/1/2 691/1/2
f 689/2/2 690/2/2 692/2/2
f 688/1/2 689/1/2 692/1/2
f 690/2/2 691/2/2 692/2/2
f 691/1/2 683/1/2 693/1/2
f 692/2/2 691/2/2 693/2/2
f 688/1/2 692/1/2 694/1/2
f 692/1/2 693/1/2 694/1/2
f 694/1/2 693/1/2 695/1/2
f 695/1/2 693/1/2 696/1/2
f 693/1/2 683/1/2 697/1/2
f 696/1/2 693/1/2 697/1/2
f 694/2/2 695/2/2 698/2/2
f 695/1/2 696/1/2 699/1/2
f 698/2/2 695/2/2 699/2/2
f 699/1/2 696/1/2 700/1/2
f 696/2/2 697/2/2 701/2/2
f 700/1/2 696/1/2 701/1/2
f 699/1/2 700/1/2 703/1/2
f 698/1/2 699/1/2 703/1/2
f 700/2/2 701/2/2 704/2/2
f 703/1/2 700/1/2 704/1/2
f 701/2/2 697/2/2 705/2/2
f 704/2/2 701/2/2 705/2/2
f 702/6/2 703/6/2 707/6/2
f 707/6/2 703/6/2 708/6/2
f 708/6/2 703/6/2 709/6/2
f 705/6/2 706/6/2 712/6/2
f 712/6/2 706/6/2 713/6/2
f 713/6/2 706/6/2 714/6/2
f 709/6/2 710/6/2 715/6/2
f 708/6/2 709/6/2 715/6/2
f 715/6/2 710/6/2 716/6/2
f 716/6/2 710/6/2 717/6/2
f 712/6/2 713/6/2 718/6/2
f 711/6/2 712/6/2 718/6/2
f 718/6/2 713/6/2 719/6/2
f 719/6/2 713/6/2 720/6/2
f 716/6/2 717/6/2 721/6/2
f 718/6/2 719/6/2 721/6/2
f 717/6/2 718/6/2 721/6/2
f 721/6/2 719/6/2 722/6/2
f 722/6/2 719/6/2 723/6/2
f 723/6/2 719/6/2 724/6/2
f 722/6/2 723/6/2 725/6/2
f 725/6/2 723/6/2 726/6/2
f 727/6/2 728/6/2 729/6/2
f 729/6/2 728/6/2 730/6/2
f 730/6/2 728/6/2 731/6/2
f 731/6/2 728/6/2 732/6/2
f 730/6/2 731/6/2 733/6/2
f 733/6/2 731/6/2 734/6/2
f 737/6/3 736/6/3 735/6/3
f 739/6/3 737/6/3 735/6/3
f 739/6/3 738/6/3 737/6/3
f 740/6/3 738/6/3 739/6/3
f 741/6/3 739/6/3 735/6/3
f 742/6/3 739/6/3 741/6/3
f 745/6/3 744/6/3 743/6/3
f 759/6/3 745/6/3 743/6/3
f 759/6/3 746/6/3 745/6/3
f 760/6/3 746/6/3 759/6/3
f 761/6/3 746/6/3 760/6/3
f 763/1/3 748/1/3 747/1/3
f 764/2/3 749/2/3 748/2/3
f 764/1/3 748/1/3 763/1/3
f 765/1/3 750/1/3 749/1/3
f 765/2/3 749/2/3 764/2/3
f 766/2/3 751/2/3 750/2/3
f 766/1/3 750/1/3 765/1/3
f 767/1/3 752/1/3 751/1/3
f 767/2/3 751/2/3 766/2/3
f 768/2/3 753/2/3 752/2/3
f 768/1/3 752/1/3 767/1/3
f 769/1/3 754/1/3 753/1/3
f 769/2/3 753/2/3 768/2/3
f 770/1/3 754/1/3 769/1/3
f 771/2/3 755/2/3 754/2/3
f 771/1/3 754/1/3 770/1/3
f 772/2/3 757/2/3 756/2/3
f 772/1/3 756/1/3 755/1/3
f 773/2/3 757/2/3 772/2/3
f 774/1/3 758/1/3 757/1/3
f 775/2/3 759/2/3 758/2/3
f 775/1/3 758/1/3 774/1/3
f 776/6/3 762/6/3 761/6/3
f 776/6/3 761/6/3 760/6/3
f 777/6/3 762/6/3 776/6/3
f 778/6/3 762/6/3 777/6/3
f 780/1/3 767/1/3 766/1/3
f 780/1/3 768/1/3 767/1/3
f 780/1/3 770/1/3 769/1/3
f 780/1/3 769/1/3 768/1/3
f 781/1/3 770/1/3 780/1/3
f 782/2/3 757/2/3 773/2/3
f 782/1/3 773/1/3 772/1/3
f 783/1/3 774/1/3 757/1/3
f 783/2/3 757/2/3 782/2/3
f 784/3/3 764/3/3 763/3/3
f 784/3/3 765/3/3 764/3/3
f 784/3/3 766/3/3 765/3/3
f 785/3/3 766/3/3 784/3/3
f 786/1/3 780/1/3 766/1/3
f 786/3/3 766/3/3 785/3/3
f 787/1/3 780/1/3 786/1/3
f 788/1/3 770/1/3 781/1/3
f 788/2/3 781/2/3 780/2/3
f 789/1/3 770/1/3 788/1/3
f 790/2/3 755/2/3 771/2/3
f 790/2/3 771/2/3 770/2/3
f 791/1/3 783/1/3 782/1/3
f 791/2/3 755/2/3 790/2/3
f 791/1/3 782/1/3 772/1/3
f 791/1/3 772/1/3 755/1/3
f 792/1/3 783/1/3 791/1/3
f 793/1/3 783/1/3 792/1/3
f 794/2/3 759/2/3 775/2/3
f 794/2/3 775/2/3 774/2/3
f 795/2/3 759/2/3 794/2/3
f 796/3/3 784/3/3 763/3/3
f 797/5/3 785/5/3 784/5/3
f 797/3/3 784/3/3 796/3/3
f 798/3/3 786/3/3 785/3/3
f 798/5/3 785/5/3 797/5/3
f 799/2/3 787/2/3 786/2/3
f 799/3/3 786/3/3 798/3/3
f 800/1/3 770/1/3 789/1/3
f 800/2/3 790/2/3 770/2/3
f 801/1/3 791/1/3 790/1/3
f 801/2/3 790/2/3 800/2/3
f 801/1/3 792/1/3 791/1/3
f 802/1/3 783/1/3 793/1/3
f 802/2/3 793/2/3 792/2/3
f 803/1/3 774/1/3 783/1/3
f 803/1/3 783/1/3 802/1/3
f 804/2/3 794/2/3 774/2/3
f 804/1/3 774/1/3 803/1/3
f 805/1/3 795/1/3 794/1/3
f 805/2/3 794/2/3 804/2/3
f 807/6/3 779/6/3 778/6/3
f 807/6/3 778/6/3 777/6/3
f 808/6/3 779/6/3 807/6/3
f 809/6/3 779/6/3 808/6/3
f 810/1/3 799/1/3 798/1/3
f 810/1/3 798/1/3 797/1/3
f 810/1/3 797/1/3 796/1/3
f 811/2/3 787/2/3 799/2/3
f 811/1/3 799/1/3 810/1/3
f 812/1/3 780/1/3 787/1/3
f 812/2/3 787/2/3 811/2/3
f 813/2/3 789/2/3 788/2/3
f 813/1/3 780/1/3 812/1/3
f 813/2/3 788/2/3 780/2/3
f 814/1/3 801/1/3 800/1/3
f 814/2/3 789/2/3 813/2/3
f 814/1/3 800/1/3 789/1/3
f 815/1/3 792/1/3 801/1/3
f 815/1/3 801/1/3 814/1/3
f 815/2/3 802/2/3 792/2/3
f 815/2/3 803/2/3 802/2/3
f 816/1/3 804/1/3 803/1/3
f 816/2/3 803/2/3 815/2/3
f 816/1/3 805/1/3 804/1/3
f 817/1/3 795/1/3 805/1/3
f 817/1/3 805/1/3 816/1/3
f 818/6/3 807/6/3 806/6/3
f 818/6/3 808/6/3 807/6/3
f 819/6/3 808/6/3 818/6/3
f 820/6/3 808/6/3 819/6/3
f 821/6/3 819/6/3 818/6/3
f 821/6/3 818/6/3 817/6/3
f 822/6/3 819/6/3 821/6/3
f 823/6/3 821/6/3 817/6/3
f 824/6/3 821/6/3 823/6/3
f 827/6/3 826/6/3 825/6/3
f 828/6/3 826/6/3 827/6/3
f 838/6/3 829/6/3 828/6/3
f 839/6/3 829/6/3 838/6/3
f 840/6/3 829/6/3 839/6/3
f 842/1/3 831/1/3 830/1/3
f 843/1/3 831/1/3 842/1/3
f 844/1/3 831/1/3 843/1/3
f 845/2/3 832/2/3 831/2/3
f 845/1/3 831/1/3 844/1/3
f 846/2/3 832/2/3 845/2/3
f 847/1/3 833/1/3 832/1/3
f 847/2/3 832/2/3 846/2/3
f 848/2/3 834/2/3 833/2/3
f 848/1/3 833/1/3 847/1/3
f 849/2/3 834/2/3 848/2/3
f 850/1/3 835/1/3 834/1/3
f 850/2/3 834/2/3 849/2/3
f 851/1/3 835/1/3 850/1/3
f 852/1/3 835/1/3 851/1/3
f 853/2/3 836/2/3 835/2/3
f 853/1/3 835/1/3 852/1/3
f 854/1/3 837/1/3 836/1/3
f 854/2/3 836/2/3 853/2/3
f 855/1/3 837/1/3 854/1/3
f 856/1/3 837/1/3 855/1/3
f 857/6/3 841/6/3 840/6/3
f 857/6/3 840/6/3 839/6/3
f 858/6/3 841/6/3 857/6/3
f 859/6/3 841/6/3 858/6/3
f 860/6/3 841/6/3 859/6/3
f 863/6/3 861/6/3 860/6/3
f 864/6/3 861/6/3 863/6/3
f 881/6/3 863/6/3 862/6/3
f 882/1/3 866/1/3 865/1/3
f 883/2/3 867/2/3 866/2/3
f 883/1/3 866/1/3 882/1/3
f 884/1/3 868/1/3 867/1/3
f 884/2/3 867/2/3 883/2/3
f 884/1/3 869/1/3 868/1/3
f 884/1/3 870/1/3 869/1/3
f 884/1/3 871/1/3 870/1/3
f 885/2/3 872/2/3 871/2/3
f 885/1/3 871/1/3 884/1/3
f 886/1/3 873/1/3 872/1/3
f 886/2/3 872/2/3 885/2/3
f 887/2/3 874/2/3 873/2/3
f 887/1/3 873/1/3 886/1/3
f 888/1/3 875/1/3 874/1/3
f 888/2/3 874/2/3 887/2/3
f 888/1/3 876/1/3 875/1/3
f 889/2/3 877/2/3 876/2/3
f 889/1/3 876/1/3 888/1/3
f 890/1/3 878/1/3 877/1/3
f 890/2/3 877/2/3 889/2/3
f 891/2/3 879/2/3 878/2/3
f 891/1/3 878/1/3 890/1/3
f 892/2/3 879/2/3 891/2/3
f 894/6/3 881/6/3 880/6/3
f 895/6/3 863/6/3 881/6/3
f 895/6/3 881/6/3 894/6/3
f 896/6/3 863/6/3 895/6/3
f 898/6/3 895/6/3 894/6/3
f 898/6/3 894/6/3 893/6/3
f 899/6/3 895/6/3 898/6/3
f 900/6/3 898/6/3 897/6/3
f 901/6/3 898/6/3 900/6/3
f 917/6/3 903/6/3 902/6/3
f 918/6/3 903/6/3 917/6/3
f 921/1/3 905/1/3 904/1/3
f 922/2/3 906/2/3 905/2/3
f 922/1/3 905/1/3 921/1/3
f 923/1/3 907/1/3 906/1/3
f 923/2/3 906/2/3 922/2/3
f 924/2/3 908/2/3 907/2/3
f 924/1/3 907/1/3 923/1/3
f 925/1/3 909/1/3 908/1/3
f 925/2/3 908/2/3 924/2/3
f 926/1/3 909/1/3 925/1/3
f 927/2/3 910/2/3 909/2/3
f 927/1/3 909/1/3 926/1/3
f 928/1/3 911/1/3 910/1/3
f 928/2/3 910/2/3 927/2/3
f 929/2/3 912/2/3 911/2/3
f 929/1/3 911/1/3 928/1/3
f 930/1/3 913/1/3 912/1/3
f 930/2/3 912/2/3 929/2/3
f 931/2/3 914/2/3 913/2/3
f 931/1/3 913/1/3 930/1/3
f 932/1/3 915/1/3 914/1/3
f 932/2/3 914/2/3 931/2/3
f 933/1/3 915/1/3 932/1/3
f 934/2/3 916/2/3 915/2/3
f 934/1/3 915/1/3 933/1/3
f 935/2/3 916/2/3 934/2/3
f 936/6/3 920/6/3 919/6/3
f 937/6/3 920/6/3 936/6/3
f 940/6/3 939/6/3 938/6/3
f 941/6/3 939/6/3 940/6/3
f 944/6/3 943/6/3 942/6/3
f 945/6/3 943/6/3 944/6/3
f 964/1/3 947/1/3 946/1/3
f 965/2/3 948/2/3 947/2/3
f 965/1/3 947/1/3 964/1/3
f 965/2/3 949/2/3 948/2/3
f 966/1/3 950/1/3 949/1/3
f 966/2/3 949/2/3 965/2/3
f 967/2/3 951/2/3 950/2/3
f 967/1/3 950/1/3 966/1/3
f 968/1/3 952/1/3 951/1/3
f 968/2/3 951/2/3 967/2/3
f 968/1/3 953/1/3 952/1/3
f 968/1/3 954/1/3 953/1/3
f 969/2/3 955/2/3 954/2/3
f 969/1/3 954/1/3 968/1/3
f 969/2/3 956/2/3 955/2/3
f 970/1/3 959/1/3 958/1/3
f 970/2/3 956/2/3 969/2/3
f 970/1/3 958/1/3 957/1/3
f 970/1/3 957/1/3 956/1/3
f 971/2/3 961/2/3 960/2/3
f 971/1/3 959/1/3 970/1/3
f 971/2/3 960/2/3 959/2/3
f 972/2/3 961/2/3 971/2/3
f 975/6/3 963/6/3 962/6/3
f 976/6/3 963/6/3 975/6/3
f 977/6/3 974/6/3 973/6/3
f 978/6/3 974/6/3 977/6/3
f 989/6/3 980/6/3 979/6/3
f 990/6/3 980/6/3 989/6/3
f 993/1/3 982/1/3 981/1/3
f 994/2/3 983/2/3 982/2/3
f 994/1/3 982/1/3 993/1/3
f 995/2/3 983/2/3 994/2/3
f 996/1/3 984/1/3 983/1/3
f 996/2/3 983/2/3 995/2/3
f 997/1/3 984/1/3 996/1/3
f 998/1/3 984/1/3 997/1/3
f 999/2/3 985/2/3 984/2/3
f 999/1/3 984/1/3 998/1/3
f 1000/1/3 986/1/3 985/1/3
f 1000/2/3 985/2/3 999/2/3
f 1001/1/3 986/1/3 1000/1/3
f 1002/2/3 987/2/3 986/2/3
f 1002/1/3 986/1/3 1001/1/3
f 1003/2/3 987/2/3 1002/2/3
f 1004/1/3 988/1/3 987/1/3
f 1004/2/3 987/2/3 1003/2/3
f 1005/1/3 988/1/3 1004/1/3
f 1006/1/3 988/1/3 1005/1/3
f 1007/2/3 989/2/3 988/2/3
f 1007/1/3 988/1/3 1006/1/3
f 1008/2/3 989/2/3 1007/2/3
f 1009/2/3 989/2/3 1008/2/3
f 1010/6/3 992/6/3 991/6/3
f 1011/6/3 992/6/3 1010/6/3
f 1014/6/3 1013/6/3 1012/6/3
f 1015/6/3 1013/6/3 1014/6/3
f 1018/6/3 1017/6/3 1016/6/3
f 1019/6/3 1017/6/3 1018/6/3
f 1022/6/3 1021/6/3 1020/6/3
f 1023/6/3 1021/6/3 1022/6/3
f 1042/1/3 1025/1/3 1024/1/3
f 1043/2/3 1026/2/3 1025/2/3
f 1043/1/3 1025/1/3 1042/1/3
f 1044/1/3 1027/1/3 1026/1/3
f 1044/2/3 1026/2/3 1043/2/3
f 1045/2/3 1028/2/3 1027/2/3
f 1045/1/3 1027/1/3 1044/1/3
f 1045/2/3 1029/2/3 1028/2/3
f 1046/1/3 1030/1/3 1029/1/3
f 1046/2/3 1029/2/3 1045/2/3
f 1047/2/3 1031/2/3 1030/2/3
f 1047/1/3 1030/1/3 1046/1/3
f 1048/1/3 1032/1/3 1031/1/3
f 1048/2/3 1031/2/3 1047/2/3
f 1049/2/3 1033/2/3 1032/2/3
f 1049/1/3 1032/1/3 1048/1/3
f 1050/1/3 1034/1/3 1033/1/3
f 1050/2/3 1033/2/3 1049/2/3
f 1050/1/3 1035/1/3 1034/1/3
f 1051/2/3 1036/2/3 1035/2/3
f 1051/1/3 1035/1/3 1050/1/3
f 1052/1/3 1037/1/3 1036/1/3
f 1052/2/3 1036/2/3 1051/2/3
f 1053/2/3 1038/2/3 1037/2/3
f 1053/1/3 1037/1/3 1052/1/3
f 1054/1/3 1039/1/3 1038/1/3
f 1054/2/3 1038/2/3 1053/2/3
f 1055/1/3 1039/1/3 1054/1/3
f 1057/6/3 1041/6/3 1040/6/3
f 1058/6/3 1041/6/3 1057/6/3
f 1059/6/3 1056/6/3 1055/6/3
f 1060/6/3 1056/6/3 1059/6/3
f 1063/6/3 1062/6/3 1061/6/3
f 1064/6/3 1062/6/3 1063/6/3
f 1067/6/3 1066/6/3 1065/6/3
f 1068/6/3 1066/6/3 1067/6/3
f 1070/6/3 1069/6/3 1068/6/3
f 1071/6/3 1069/6/3 1070/6/3
f 1074/6/3 1073/6/3 1072/6/3
f 1075/6/3 1073/6/3 1074/6/3
f 1078/6/3 1077/6/3 1076/6/3
f 1079/6/3 1077/6/3 1078/6/3
f 1083/6/3 1081/6/3 1080/6/3
f 1084/6/3 1081/6/3 1083/6/3
f 1087/6/3 1083/6/3 1082/6/3
f 1088/6/3 1083/6/3 1087/6/3
f 1089/6/3 1086/6/3 1085/6/3
f 1090/6/3 1086/6/3 1089/6/3
f 1091/6/4 1092/6/4 1093/6/4
f 1093/6/4 1092/6/4 1094/6/4
f 1095/6/4 1096/6/4 1097/6/4
f 1097/6/4 1096/6/4 1098/6/4
f 1098/6/4 1099/6/4 1100/6/4
f 1100/6/4 1099/6/4 1101/6/4
f 1102/6/4 1103/6/4 1104/6/4
f 1104/6/4 1103/6/4 1105/6/4
f 1106/6/4 1107/6/4 1108/6/4
f 1108/6/4 1107/6/4 1109/6/4
f 1110/6/4 1111/6/4 1113/6/4
f 1113/6/4 1111/6/4 1114/6/4
f 1112/6/4 1113/6/4 1117/6/4
f 1117/6/4 1113/6/4 1118/6/4
f 1115/6/4 1116/6/4 1119/6/4
f 1119/6/4 1116/6/4 1120/6/4
f 1121/6/4 1122/6/4 1133/6/4
f 1133/6/4 1122/6/4 1134/6/4
f 1123/1/4 1124/1/4 1137/1/4
f 1124/2/4 1125/2/4 1138/2/4
f 1137/1/4 1124/1/4 1138/1/4
f 1125/1/4 1126/1/4 1139/1/4
f 1138/2/4 1125/2/4 1139/2/4
f 1126/2/4 1127/2/4 1140/2/4
f 1139/1/4 1126/1/4 1140/1/4
f 1127/1/4 1128/1/4 1141/1/4
f 1140/2/4 1127/2/4 1141/2/4
f 1128/2/4 1129/2/4 1142/2/4
f 1141/1/4 1128/1/4 1142/1/4
f 1142/2/4 1129/2/4 1143/2/4
f 1129/1/4 1130/1/4 1144/1/4
f 1143/2/4 1129/2/4 1144/2/4
f 1144/1/4 1130/1/4 1145/1/4
f 1145/1/4 1130/1/4 1146/1/4
f 1130/2/4 1131/2/4 1147/2/4
f 1146/1/4 1130/1/4 1147/1/4
f 1131/1/4 1132/1/4 1148/1/4
f 1147/2/4 1131/2/4 1148/2/4
f 1148/1/4 1132/1/4 1149/1/4
f 1132/2/4 1133/2/4 1150/2/4
f 1149/1/4 1132/1/4 1150/1/4
f 1150/2/4 1133/2/4 1151/2/4
f 1135/6/4 1136/6/4 1152/6/4
f 1152/6/4 1136/6/4 1153/6/4
f 1154/6/4 1155/6/4 1156/6/4
f 1156/6/4 1155/6/4 1157/6/4
f 1158/6/4 1159/6/4 1160/6/4
f 1160/6/4 1159/6/4 1161/6/4
f 1162/6/4 1163/6/4 1164/6/4
f 1164/6/4 1163/6/4 1165/6/4
f 1166/1/4 1167/1/4 1184/1/4
f 1167/2/4 1168/2/4 1185/2/4
f 1184/1/4 1167/1/4 1185/1/4
f 1168/2/4 1169/2/4 1185/2/4
f 1169/1/4 1170/1/4 1186/1/4
f 1185/2/4 1169/2/4 1186/2/4
f 1170/2/4 1171/2/4 1187/2/4
f 1186/1/4 1170/1/4 1187/1/4
f 1171/1/4 1172/1/4 1188/1/4
f 1187/2/4 1171/2/4 1188/2/4
f 1172/1/4 1173/1/4 1188/1/4
f 1173/1/4 1174/1/4 1188/1/4
f 1174/1/4 1175/1/4 1188/1/4
f 1175/2/4 1176/2/4 1189/2/4
f 1188/1/4 1175/1/4 1189/1/4
f 1178/1/4 1179/1/4 1190/1/4
f 1189/2/4 1176/2/4 1190/2/4
f 1177/1/4 1178/1/4 1190/1/4
f 1176/1/4 1177/1/4 1190/1/4
f 1180/2/4 1181/2/4 1191/2/4
f 1190/1/4 1179/1/4 1191/1/4
f 1179/2/4 1180/2/4 1191/2/4
f 1191/2/4 1181/2/4 1192/2/4
f 1182/6/4 1183/6/4 1194/6/4
f 1194/6/4 1183/6/4 1195/6/4
f 1192/6/4 1193/6/4 1196/6/4
f 1196/6/4 1193/6/4 1197/6/4
f 1198/6/4 1199/6/4 1209/6/4
f 1209/6/4 1199/6/4 1210/6/4
f 1200/1/4 1201/1/4 1213/1/4
f 1201/2/4 1202/2/4 1214/2/4
f 1213/1/4 1201/1/4 1214/1/4
f 1214/2/4 1202/2/4 1215/2/4
f 1202/1/4 1203/1/4 1216/1/4
f 1215/2/4 1202/2/4 1216/2/4
f 1216/1/4 1203/1/4 1217/1/4
f 1217/1/4 1203/1/4 1218/1/4
f 1203/2/4 1204/2/4 1219/2/4
f 1218/1/4 1203/1/4 1219/1/4
f 1204/1/4 1205/1/4 1220/1/4
f 1219/2/4 1204/2/4 1220/2/4
f 1205/2/4 1206/2/4 1221/2/4
f 1220/1/4 1205/1/4 1221/1/4
f 1206/1/4 1207/1/4 1222/1/4
f 1221/2/4 1206/2/4 1222/2/4
f 1222/1/4 1207/1/4 1223/1/4
f 1223/1/4 1207/1/4 1224/1/4
f 1224/1/4 1207/1/4 1225/1/4
f 1207/2/4 1208/2/4 1226/2/4
f 1225/1/4 1207/1/4 1226/1/4
f 1226/2/4 1208/2/4 1227/2/4
f 1211/6/4 1212/6/4 1228/6/4
f 1228/6/4 1212/6/4 1229/6/4
f 1230/6/4 1231/6/4 1232/6/4
f 1232/6/4 1231/6/4 1233/6/4
f 1234/6/4 1235/6/4 1236/6/4
f 1236/6/4 1235/6/4 1237/6/4
f 1238/1/4 1239/1/4 1256/1/4
f 1239/2/4 1240/2/4 1257/2/4
f 1256/1/4 1239/1/4 1257/1/4
f 1240/1/4 1241/1/4 1258/1/4
f 1257/2/4 1240/2/4 1258/2/4
f 1241/2/4 1242/2/4 1259/2/4
f 1258/1/4 1241/1/4 1259/1/4
f 1242/1/4 1243/1/4 1260/1/4
f 1259/2/4 1242/2/4 1260/2/4
f 1243/1/4 1244/1/4 1260/1/4
f 1244/2/4 1245/2/4 1261/2/4
f 1260/1/4 1244/1/4 1261/1/4
f 1245/1/4 1246/1/4 1262/1/4
f 1261/2/4 1245/2/4 1262/2/4
f 1246/1/4 1247/1/4 1262/1/4
f 1247/1/4 1248/1/4 1262/1/4
f 1248/2/4 1249/2/4 1263/2/4
f 1262/1/4 1248/1/4 1263/1/4
f 1250/1/4 1251/1/4 1264/1/4
f 1263/2/4 1249/2/4 1264/2/4
f 1249/1/4 1250/1/4 1264/1/4
f 1251/2/4 1252/2/4 1265/2/4
f 1264/1/4 1251/1/4 1265/1/4
f 1252/1/4 1253/1/4 1266/1/4
f 1265/2/4 1252/2/4 1266/2/4
f 1266/1/4 1253/1/4 1267/1/4
f 1254/6/4 1255/6/4 1270/6/4
f 1270/6/4 1255/6/4 1271/6/4
f 1268/6/4 1269/6/4 1272/6/4
f 1272/6/4 1269/6/4 1273/6/4
f 1274/6/4 1275/6/4 1276/6/4
f 1276/6/4 1275/6/4 1277/6/4
f 1277/6/4 1278/6/4 1290/6/4
f 1290/6/4 1278/6/4 1291/6/4
f 1291/6/4 1278/6/4 1292/6/4
f 1279/1/4 1280/1/4 1294/1/4
f 1280/2/4 1281/2/4 1295/2/4
f 1294/1/4 1280/1/4 1295/1/4
f 1281/1/4 1282/1/4 1296/1/4
f 1295/2/4 1281/2/4 1296/2/4
f 1296/1/4 1282/1/4 1297/1/4
f 1282/2/4 1283/2/4 1298/2/4
f 1297/1/4 1282/1/4 1298/1/4
f 1283/1/4 1284/1/4 1299/1/4
f 1298/2/4 1283/2/4 1299/2/4
f 1299/1/4 1284/1/4 1300/1/4
f 1300/1/4 1284/1/4 1301/1/4
f 1284/2/4 1285/2/4 1302/2/4
f 1301/1/4 1284/1/4 1302/1/4
f 1302/2/4 1285/2/4 1303/2/4
f 1285/1/4 1286/1/4 1304/1/4
f 1303/2/4 1285/2/4 1304/2/4
f 1304/1/4 1286/1/4 1305/1/4
f 1286/2/4 1287/2/4 1306/2/4
f 1305/1/4 1286/1/4 1306/1/4
f 1287/1/4 1288/1/4 1307/1/4
f 1306/2/4 1287/2/4 1307/2/4
f 1288/2/4 1289/2/4 1308/2/4
f 1307/1/4 1288/1/4 1308/1/4
f 1308/2/4 1289/2/4 1309/2/4
f 1309/2/4 1289/2/4 1310/2/4
f 1292/6/4 1293/6/4 1311/6/4
f 1291/6/4 1292/6/4 1311/6/4
f 1311/6/4 1293/6/4 1312/6/4
f 1312/6/4 1293/6/4 1313/6/4
f 1313/6/4 1293/6/4 1314/6/4
f 1314/6/4 1315/6/4 1317/6/4
f 1317/6/4 1315/6/4 1318/6/4
f 1316/6/4 1317/6/4 1336/6/4
f 1319/1/4 1320/1/4 1337/1/4
f 1320/1/4 1321/1/4 1337/1/4
f 1321/1/4 1322/1/4 1337/1/4
f 1322/2/4 1323/2/4 1338/2/4
f 1337/1/4 1322/1/4 1338/1/4
f 1323/1/4 1324/1/4 1339/1/4
f 1338/2/4 1323/2/4 1339/2/4
f 1324/2/4 1325/2/4 1340/2/4
f 1339/1/4 1324/1/4 1340/1/4
f 1325/2/4 1326/2/4 1340/2/4
f 1326/1/4 1327/1/4 1341/1/4
f 1340/2/4 1326/2/4 1341/2/4
f 1327/2/4 1328/2/4 1342/2/4
f 1341/1/4 1327/1/4 1342/1/4
f 1328/1/4 1329/1/4 1343/1/4
f 1342/2/4 1328/2/4 1343/2/4
f 1329/1/4 1330/1/4 1343/1/4
f 1330/2/4 1331/2/4 1344/2/4
f 1343/1/4 1330/1/4 1344/1/4
f 1333/1/4 1334/1/4 1345/1/4
f 1344/2/4 1331/2/4 1345/2/4
f 1332/1/4 1333/1/4 1345/1/4
f 1331/1/4 1332/1/4 1345/1/4
f 1345/1/4 1334/1/4 1346/1/4
f 1335/6/4 1336/6/4 1348/6/4
f 1336/6/4 1317/6/4 1349/6/4
f 1348/6/4 1336/6/4 1349/6/4
f 1349/6/4 1317/6/4 1350/6/4
f 1348/6/4 1349/6/4 1352/6/4
f 1347/6/4 1348/6/4 1352/6/4
f 1352/6/4 1349/6/4 1353/6/4
f 1351/6/4 1352/6/4 1354/6/4
f 1354/6/4 1352/6/4 1355/6/4
f 1356/6/4 1357/6/4 1358/6/4
f 1356/6/4 1358/6/4 1371/6/4
f 1358/6/4 1359/6/4 1371/6/4
f 1371/6/4 1359/6/4 1372/6/4
f 1372/6/4 1359/6/4 1373/6/4
f 1360/1/4 1361/1/4 1375/1/4
f 1375/1/4 1361/1/4 1376/1/4
f 1361/2/4 1362/2/4 1377/2/4
f 1362/1/4 1363/1/4 1378/1/4
f 1377/2/4 1362/2/4 1378/2/4
f 1363/2/4 1364/2/4 1379/2/4
f 1364/1/4 1365/1/4 1379/1/4
f 1379/1/4 1365/1/4 1380/1/4
f 1365/2/4 1366/2/4 1381/2/4
f 1380/1/4 1365/1/4 1381/1/4
f 1366/1/4 1367/1/4 1382/1/4
f 1381/2/4 1366/2/4 1382/2/4
f 1367/2/4 1368/2/4 1383/2/4
f 1368/1/4 1369/1/4 1384/1/4
f 1383/2/4 1368/2/4 1384/2/4
f 1369/2/4 1370/2/4 1385/2/4
f 1384/1/4 1369/1/4 1385/1/4
f 1370/1/4 1371/1/4 1386/1/4
f 1385/2/4 1370/2/4 1386/2/4
f 1373/6/4 1374/6/4 1387/6/4
f 1372/6/4 1373/6/4 1387/6/4
f 1387/6/4 1374/6/4 1388/6/4
f 1388/6/4 1374/6/4 1389/6/4
f 1376/1/4 1361/1/4 1391/1/4
f 1375/2/4 1376/2/4 1391/2/4
f 1391/1/4 1361/1/4 1392/1/4
f 1361/2/4 1377/2/4 1393/2/4
f 1392/1/4 1361/1/4 1393/1/4
f 1377/1/4 1378/1/4 1394/1/4
f 1393/2/4 1377/2/4 1394/2/4
f 1378/1/4 1363/1/4 1395/1/4
f 1394/1/4 1378/1/4 1395/1/4
f 1379/2/4 1380/2/4 1395/2/4
f 1363/2/4 1379/2/4 1395/2/4
f 1395/2/4 1380/2/4 1396/2/4
f 1380/1/4 1381/1/4 1397/1/4
f 1381/1/4 1382/1/4 1397/1/4
f 1382/1/4 1367/1/4 1398/1/4
f 1397/1/4 1382/1/4 1398/1/4
f 1367/2/4 1383/2/4 1399/2/4
f 1398/1/4 1367/1/4 1399/1/4
f 1383/1/4 1384/1/4 1400/1/4
f 1399/2/4 1383/2/4 1400/2/4
f 1384/1/4 1385/1/4 1400/1/4
f 1385/1/4 1386/1/4 1400/1/4
f 1386/1/4 1371/1/4 1401/1/4
f 1400/1/4 1386/1/4 1401/1/4
f 1401/1/4 1371/1/4 1402/1/4
f 1393/1/4 1394/1/4 1403/1/4
f 1392/1/4 1393/1/4 1403/1/4
f 1394/1/4 1395/1/4 1403/1/4
f 1395/1/4 1396/1/4 1403/1/4
f 1403/1/4 1396/1/4 1404/1/4
f 1396/2/4 1380/2/4 1405/2/4
f 1404/1/4 1396/1/4 1405/1/4
f 1380/1/4 1397/1/4 1406/1/4
f 1405/2/4 1380/2/4 1406/2/4
f 1406/1/4 1397/1/4 1407/1/4
f 1397/2/4 1398/2/4 1408/2/4
f 1407/1/4 1397/1/4 1408/1/4
f 1398/1/4 1399/1/4 1409/1/4
f 1399/1/4 1400/1/4 1409/1/4
f 1400/1/4 1401/1/4 1409/1/4
f 1409/1/4 1401/1/4 1410/1/4
f 1410/1/4 1401/1/4 1411/1/4
f 1401/2/4 1402/2/4 1412/2/4
f 1411/1/4 1401/1/4 1412/1/4
f 1391/2/4 1392/2/4 1413/2/4
f 1375/2/4 1391/2/4 1413/2/4
f 1360/1/4 1375/1/4 1413/1/4
f 1413/2/4 1392/2/4 1414/2/4
f 1392/1/4 1403/1/4 1415/1/4
f 1403/2/4 1404/2/4 1416/2/4
f 1415/1/4 1403/1/4 1416/1/4
f 1406/1/4 1407/1/4 1417/1/4
f 1404/1/4 1405/1/4 1417/1/4
f 1405/1/4 1406/1/4 1417/1/4
f 1417/1/4 1407/1/4 1418/1/4
f 1398/1/4 1409/1/4 1419/1/4
f 1409/2/4 1410/2/4 1420/2/4
f 1419/1/4 1409/1/4 1420/1/4
f 1412/2/4 1402/2/4 1421/2/4
f 1411/2/4 1412/2/4 1421/2/4
f 1421/2/4 1402/2/4 1422/2/4
f 1389/6/4 1390/6/4 1424/6/4
f 1388/6/4 1389/6/4 1424/6/4
f 1424/6/4 1390/6/4 1425/6/4
f 1425/6/4 1390/6/4 1426/6/4
f 1413/1/4 1414/1/4 1427/1/4
f 1360/1/4 1413/1/4 1427/1/4
f 1414/2/4 1392/2/4 1428/2/4
f 1427/1/4 1414/1/4 1428/1/4
f 1392/1/4 1415/1/4 1429/1/4
f 1428/2/4 1392/2/4 1429/2/4
f 1415/2/4 1416/2/4 1430/2/4
f 1429/1/4 1415/1/4 1430/1/4
f 1416/2/4 1404/2/4 1431/2/4
f 1430/2/4 1416/2/4 1431/2/4
f 1404/1/4 1417/1/4 1431/1/4
f 1417/2/4 1418/2/4 1432/2/4
f 1431/1/4 1417/1/4 1432/1/4
f 1418/1/4 1407/1/4 1433/1/4
f 1432/2/4 1418/2/4 1433/2/4
f 1407/2/4 1408/2/4 1434/2/4
f 1433/1/4 1407/1/4 1434/1/4
f 1408/2/4 1398/2/4 1435/2/4
f 1434/2/4 1408/2/4 1435/2/4
f 1398/1/4 1419/1/4 1435/1/4
f 1419/2/4 1420/2/4 1436/2/4
f 1435/1/4 1419/1/4 1436/1/4
f 1420/2/4 1410/2/4 1437/2/4
f 1436/2/4 1420/2/4 1437/2/4
f 1410/1/4 1411/1/4 1437/1/4
f 1411/2/4 1421/2/4 1438/2/4
f 1437/1/4 1411/1/4 1438/1/4
f 1421/1/4 1422/1/4 1439/1/4
f 1438/2/4 1421/2/4 1439/2/4
f 1439/1/4 1422/1/4 1440/1/4
f 1423/6/4 1424/6/4 1441/6/4
f 1424/6/4 1425/6/4 1441/6/4
f 1441/6/4 1425/6/4 1442/6/4
f 1442/6/4 1425/6/4 1443/6/4
f 1441/6/4 1442/6/4 1444/6/4
f 1440/6/4 1441/6/4 1444/6/4
f 1444/6/4 1442/6/4 1445/6/4
f 1440/6/4 1444/6/4 1446/6/4
f 1446/6/4 1444/6/4 1447/6/4
f 1448/6/4 1449/6/4 1450/6/4
f 1448/6/4 1450/6/4 1452/6/4
f 1450/6/4 1451/6/4 1452/6/4
f 1452/6/4 1451/6/4 1453/6/4
f 1448/6/4 1452/6/4 1454/6/4
f 1454/6/4 1452/6/4 1455/6/4
f 1461/1/5 1457/1/5 1456/1/5
f 1462/3/5 1458/3/5 1457/3/5
f 1462/1/5 1457/1/5 1461/1/5
f 1463/1/5 1459/1/5 1458/1/5
f 1463/3/5 1458/3/5 1462/3/5
f 1464/1/5 1459/1/5 1463/1/5
f 1467/1/5 1462/1/5 1461/1/5
f 1467/1/5 1465/1/5 1464/1/5
f 1467/1/5 1464/1/5 1463/1/5
f 1467/1/5 1463/1/5 1462/1/5
f 1467/1/5 1461/1/5 1460/1/5
f 1468/1/5 1465/1/5 1467/1/5
f 1471/1/5 1467/1/5 1466/1/5
f 1471/1/5 1469/1/5 1468/1/5
f 1471/1/5 1468/1/5 1467/1/5
f 1472/1/5 1469/1/5 1471/1/5
f 1474/1/5 1471/1/5 1470/1/5
f 1474/1/5 1473/1/5 1472/1/5
f 1474/1/5 1472/1/5 1471/1/5
f 1475/1/5 1473/1/5 1474/1/5
f 1476/4/5 1475/4/5 1474/4/5
f 1477/1/5 1473/1/5 1475/1/5
f 1477/4/5 1475/4/5 1476/4/5
f 1478/1/5 1477/1/5 1476/1/5
f 1479/1/5 1473/1/5 1477/1/5
f 1479/1/5 1477/1/5 1478/1/5
f 1480/4/5 1479/4/5 1478/4/5
f 1481/1/5 1473/1/5 1479/1/5
f 1481/4/5 1479/4/5 1480/4/5
f 1482/1/5 1481/1/5 1480/1/5
f 1483/1/5 1473/1/5 1481/1/5
f 1483/1/5 1481/1/5 1482/1/5
f 1484/1/5 1473/1/5 1483/1/5
f 1485/1/5 1473/1/5 1484/1/5
f 1486/1/5 1484/1/5 1483/1/5
f 1487/1/5 1484/1/5 1486/1/5
f 1488/1/5 1484/1/5 1487/1/5
f 1489/1/5 1484/1/5 1488/1/5
f 1490/1/5 1488/1/5 1487/1/5
f 1491/1/5 1488/1/5 1490/1/5
f 1492/1/5 1488/1/5 1491/1/5
f 1493/1/5 1488/1/5 1492/1/5
f 1494/1/5 1492/1/5 1491/1/5
f 1495/1/5 1492/1/5 1494/1/5
f 1499/6/5 1497/6/5 1496/6/5
f 1500/6/5 1497/6/5 1499/6/5
f 1501/6/5 1497/6/5 1500/6/5
f 1504/6/5 1499/6/5 1498/6/5
f 1505/6/5 1499/6/5 1504/6/5
f 1506/6/5 1499/6/5 1505/6/5
f 1507/6/5 1502/6/5 1501/6/5
f 1508/6/5 1502/6/5 1507/6/5
f 1509/6/5 1502/6/5 1508/6/5
f 1511/6/5 1504/6/5 1503/6/5
f 1511/6/5 1505/6/5 1504/6/5
f 1512/6/5 1505/6/5 1511/6/5
f 1513/6/5 1510/6/5 1509/6/5
f 1513/6/5 1509/6/5 1508/6/5
f 1514/6/5 1510/6/5 1513/6/5
f 1516/6/5 1511/6/5 1503/6/5
f 1517/6/5 1511/6/5 1516/6/5
f 1518/6/5 1510/6/5 1514/6/5
f 1519/6/5 1510/6/5 1518/6/5
f 1521/6/5 1516/6/5 1515/6/5
f 1522/6/5 1520/6/5 1519/6/5
f 1523/6/5 1521/6/5 1515/6/5
f 1524/6/5 1523/6/5 1515/6/5
f 1525/6/5 1523/6/5 1524/6/5
f 1528/6/5 1520/6/5 1522/6/5
f 1529/6/5 1520/6/5 1528/6/5
f 1530/6/5 1526/6/5 1525/6/5
f 1533/6/5 1528/6/5 1527/6/5
f 1534/6/5 1531/6/5 1530/6/5
f 1534/6/5 1530/6/5 1525/6/5
f 1535/6/5 1531/6/5 1534/6/5
f 1536/6/5 1531/6/5 1535/6/5
f 1539/6/5 1533/6/5 1532/6/5
f 1540/6/5 1528/6/5 1533/6/5
f 1540/6/5 1533/6/5 1539/6/5
f 1541/6/5 1528/6/5 1540/6/5
f 1542/6/5 1537/6/5 1536/6/5
f 1542/6/5 1536/6/5 1535/6/5
f 1543/6/5 1537/6/5 1542/6/5
f 1546/6/5 1539/6/5 1538/6/5
f 1546/6/5 1540/6/5 1539/6/5
f 1547/6/5 1540/6/5 1546/6/5
f 1548/6/5 1545/6/5 1544/6/5
f 1548/6/5 1544/6/5 1543/6/5
f 1548/6/5 1546/6/5 1545/6/5
f 1549/6/5 1546/6/5 1548/6/5
f 1550/6/6 1551/6/6 1556/6/6
f 1556/6/6 1551/6/6 1557/6/6
f 1552/6/6 1553/6/6 1558/6/6
f 1558/6/6 1553/6/6 1559/6/6
f 1554/6/6 1555/6/6 1563/6/6
f 1563/6/6 1555/6/6 1564/6/6
f 1560/6/6 1561/6/6 1565/6/6
f 1565/6/6 1561/6/6 1566/6/6
f 1562/6/6 1563/6/6 1568/6/6
f 1568/6/6 1563/6/6 1569/6/6
f 1566/6/6 1567/6/6 1570/6/6
f 1570/6/6 1567/6/6 1571/6/6
f 1572/6/6 1573/6/6 1576/6/6
f 1576/6/6 1573/6/6 1577/6/6
f 1574/6/6 1575/6/6 1578/6/6
f 1578/6/6 1575/6/6 1579/6/6
f 1580/6/6 1581/6/6 1584/6/6
f 1584/6/6 1581/6/6 1585/6/6
f 1582/6/6 1583/6/6 1586/6/6
f 1586/6/6 1583/6/6 1587/6/6
f 1588/6/6 1589/6/6 1592/6/6
f 1592/6/6 1589/6/6 1593/6/6
f 1590/6/6 1591/6/6 1596/6/6
f 1596/6/6 1591/6/6 1597/6/6
f 1593/6/6 1594/6/6 1598/6/6
f 1598/6/6 1594/6/6 1599/6/6
f 1595/6/6 1596/6/6 1604/6/6
f 1604/6/6 1596/6/6 1605/6/6
f 1600/6/6 1601/6/6 1606/6/6
f 1606/6/6 1601/6/6 1607/6/6
f 1602/6/6 1603/6/6 1608/6/6
f 1608/6/6 1603/6/6 1609/6/6
f 1610/6/6 1611/6/6 1614/6/6
f 1614/6/6 1611/6/6 1615/6/6
f 1612/6/6 1613/6/6 1618/6/6
f 1618/6/6 1613/6/6 1619/6/6
f 1616/6/6 1617/6/6 1620/6/6
f 1620/6/6 1617/6/6 1621/6/6
f 1622/6/6 1623/6/6 1626/6/6
f 1626/6/6 1623/6/6 1627/6/6
f 1624/6/6 1625/6/6 1628/6/6
f 1628/6/6 1625/6/6 1629/6/6
f 1630/6/6 1631/6/6 1634/6/6
f 1634/6/6 1631/6/6 1635/6/6
f 1632/6/6 1633/6/6 1636/6/6
f 1636/6/6 1633/6/6 1637/6/6
f 1638/6/6 1639/6/6 1642/6/6
f 1642/6/6 1639/6/6 1643/6/6
f 1640/6/6 1641/6/6 1644/6/6
f 1644/6/6 1641/6/6 1645/6/6
f 1646/6/6 1647/6/6 1650/6/6
f 1650/6/6 1647/6/6 1651/6/6
f 1648/6/6 1649/6/6 1654/6/6
f 1654/6/6 1649/6/6 1655/6/6
f 1652/6/6 1653/6/6 1656/6/6
f 1656/6/6 1653/6/6 1657/6/6
f 1658/6/6 1659/6/6 1664/6/6
f 1664/6/6 1659/6/6 1665/6/6
f 1660/6/6 1661/6/6 1666/6/6
f 1666/6/6 1661/6/6 1667/6/6
f 1662/6/6 1663/6/6 1670/6/6
f 1670/6/6 1663/6/6 1671/6/6
f 1668/6/6 1669/6/6 1672/6/6
f 1672/6/6 1669/6/6 1673/6/6
f 1674/6/6 1675/6/6 1678/6/6
f 1678/6/6 1675/6/6 1679/6/6
f 1676/6/6 1677/6/6 1680/6/6
f 1680/6/6 1677/6/6 1681/6/6
f 1682/6/6 1683/6/6 1686/6/6
f 1686/6/6 1683/6/6 1687/6/6
f 1684/6/6 1685/6/6 1688/6/6
f 1688/6/6 1685/6/6 1689/6/6
f 1690/6/6 1691/6/6 1694/6/6
f 1694/6/6 1691/6/6 1695/6/6
f 1692/6/6 1693/6/6 1700/6/6
f 1700/6/6 1693/6/6 1701/6/6
f 1696/6/6 1697/6/6 1702/6/6
f 1702/6/6 1697/6/6 1703/6/6
f 1698/6/6 1699/6/6 1704/6/6
f 1704/6/6 1699/6/6 1705/6/6
f 1706/6/6 1707/6/6 1709/6/6
f 1709/6/6 1707/6/6 1710/6/6
f 1708/6/6 1709/6/6 1713/6/6
f 1713/6/6 1709/6/6 1714/6/6
f 1714/6/6 1709/6/6 1715/6/6
f 1710/6/6 1711/6/6 1716/6/6
f 1716/6/6 1711/6/6 1717/6/6
f 1717/6/6 1711/6/6 1718/6/6
f 1712/6/6 1713/6/6 1720/6/6
f 1713/6/6 1714/6/6 1720/6/6
f 1720/6/6 1714/6/6 1721/6/6
f 1718/6/6 1719/6/6 1722/6/6
f 1717/6/6 1718/6/6 1722/6/6
f 1722/6/6 1719/6/6 1723/6/6
f 1712/6/6 1720/6/6 1725/6/6
f 1725/6/6 1720/6/6 1726/6/6
f 1723/6/6 1719/6/6 1727/6/6
f 1727/6/6 1719/6/6 1728/6/6
f 1724/6/6 1725/6/6 1730/6/6
f 1730/6/6 1725/6/6 1731/6/6
f 1728/6/6 1729/6/6 1734/6/6
f 1734/6/6 1729/6/6 1735/6/6
f 1731/6/6 1732/6/6 1736/6/6
f 1733/6/6 1734/6/6 1739/6/6
f 1736/6/6 1737/6/6 1740/6/6
f 1731/6/6 1736/6/6 1740/6/6
f 1740/6/6 1737/6/6 1741/6/6
f 1741/6/6 1737/6/6 1742/6/6
f 1738/6/6 1739/6/6 1745/6/6
f 1739/6/6 1734/6/6 1746/6/6
f 1745/6/6 1739/6/6 1746/6/6
f 1746/6/6 1734/6/6 1747/6/6
f 1742/6/6 1743/6/6 1748/6/6
f 1741/6/6 1742/6/6 1748/6/6
f 1748/6/6 1743/6/6 1749/6/6
f 1744/6/6 1745/6/6 1750/6/6
f 1745/6/6 1746/6/6 1750/6/6
f 1750/6/6 1746/6/6 1751/6/6
f 1749/6/6 1750/6/6 1752/6/6
f 1752/6/6 1750/6/6 1753/6/6
f 1754/6/6 1755/6/6 1757/6/6
f 1757/6/6 1755/6/6 1758/6/6
f 1756/6/6 1757/6/6 1761/6/6
f 1758/6/6 1759/6/6 1761/6/6
f 1757/6/6 1758/6/6 1761/6/6
f 1761/6/6 1759/6/6 1762/6/6
f 1762/6/6 1759/6/6 1763/6/6
f 1763/6/6 1759/6/6 1764/6/6
f 1760/6/6 1761/6/6 1767/6/6
f 1761/6/6 1762/6/6 1767/6/6
f 1767/6/6 1762/6/6 1768/6/6
f 1768/6/6 1762/6/6 1769/6/6
f 1763/6/6 1764/6/6 1770/6/6
f 1764/6/6 1765/6/6 1770/6/6
f 1770/6/6 1765/6/6 1771/6/6
f 1771/6/6 1765/6/6 1772/6/6
f 1767/6/6 1768/6/6 1774/6/6
f 1766/6/6 1767/6/6 1774/6/6
f 1774/6/6 1768/6/6 1775/6/6
f 1775/6/6 1768/6/6 1776/6/6
f 1772/6/6 1773/6/6 1779/6/6
f 1771/6/6 1772/6/6 1779/6/6
f 1779/6/6 1773/6/6 1780/6/6
f 1780/6/6 1773/6/6 1781/6/6
f 1776/6/6 1777/6/6 1782/6/6
f 1775/6/6 1776/6/6 1782/6/6
f 1782/6/6 1777/6/6 1783/6/6
f 1783/6/6 1777/6/6 1784/6/6
f 1779/6/6 1780/6/6 1785/6/6
f 1778/6/6 1779/6/6 1785/6/6
f 1785/6/6 1780/6/6 1786/6/6
f 1786/6/6 1780/6/6 1787/6/6
f 1783/6/6 1784/6/6 1788/6/6
f 1785/6/6 1786/6/6 1788/6/6
f 1784/6/6 1785/6/6 1788/6/6
f 1788/6/6 1786/6/6 1789/6/6
f 1789/6/6 1786/6/6 1790/6/6
f 1790/6/6 1786/6/6 1791/6/6
f 1789/6/6 1790/6/6 1792/6/6
f 1792/6/6 1790/6/6 1793/6/6
f 1794/6/6 1795/6/6 1797/6/6
f 1797/6/6 1795/6/6 1798/6/6
f 1796/6/6 1797/6/6 1800/6/6
f 1798/6/6 1799/6/6 1800/6/6
f 1797/6/6 1798/6/6 1800/6/6
f 1800/6/6 1799/6/6 1801/6/6
f 1801/6/6 1799/6/6 1802/6/6
f 1802/6/6 1799/6/6 1803/6/6
f 1801/6/6 1802/6/6 1804/6/6
f 1804/6/6 1802/6/6 1805/6/6
