# MagicaVoxel @ Ephtracy

# group
o 

# material
mtllib granjafinal_sandias.mtl
usemtl palette

# normals
vn 0 0 -1
vn 0 0 1
vn -1 0 0
vn 1 0 0
vn 0 -1 0
vn 0 1 0

# texcoords
vt 0.287109 0.5
vt 0.294922 0.5

# verts
v 4.3 4.9 -2.6
v 4.4 4.9 -2.6
v 4.5 4.9 -2.6
v 4.3 5.1 -2.6
v 4.4 5.1 -2.6
v 4.5 5.1 -2.6
v 4.2 4.9 -2.5
v 4.3 4.9 -2.5
v 4.5 4.9 -2.5
v 4.6 4.9 -2.5
v 4.2 5.1 -2.5
v 4.3 5.1 -2.5
v 4.4 5.1 -2.5
v 4.5 5.1 -2.5
v 4.6 5.1 -2.5
v 4.3 5.2 -2.5
v 4.4 5.2 -2.5
v 4.5 5.2 -2.5
v 4.7 4.9 -2.3
v 4.8 4.9 -2.3
v 4.9 4.9 -2.3
v 4.7 5 -2.3
v 4.8 5 -2.3
v 4.9 5 -2.3
v 4.6 4.9 -2.2
v 4.7 4.9 -2.2
v 4.9 4.9 -2.2
v 5 4.9 -2.2
v 4.6 5 -2.2
v 4.7 5 -2.2
v 4.8 5 -2.2
v 4.9 5 -2.2
v 5 5 -2.2
v 4.7 5.1 -2.2
v 4.8 5.1 -2.2
v 4.9 5.1 -2.2
v 4.2 4.9 -2.3
v 4.3 4.9 -2.3
v 4.5 4.9 -2.3
v 4.6 4.9 -2.3
v 4.2 5.1 -2.3
v 4.3 5.1 -2.3
v 4.4 5.1 -2.3
v 4.5 5.1 -2.3
v 4.6 5.1 -2.3
v 4.3 5.2 -2.3
v 4.4 5.2 -2.3
v 4.5 5.2 -2.3
v 4.3 4.9 -2.2
v 4.4 4.9 -2.2
v 4.5 4.9 -2.2
v 4.3 5.1 -2.2
v 4.4 5.1 -2.2
v 4.5 5.1 -2.2
v 4.6 4.9 -2
v 4.7 4.9 -2
v 4.9 4.9 -2
v 5 4.9 -2
v 4.6 5 -2
v 4.7 5 -2
v 4.8 5 -2
v 4.9 5 -2
v 5 5 -2
v 4.7 5.1 -2
v 4.8 5.1 -2
v 4.9 5.1 -2
v 4.7 4.9 -1.9
v 4.8 4.9 -1.9
v 4.9 4.9 -1.9
v 4.7 5 -1.9
v 4.8 5 -1.9
v 4.9 5 -1.9
v 4.2 4.9 -2.5
v 4.2 5.1 -2.5
v 4.2 4.9 -2.4
v 4.2 5.1 -2.4
v 4.2 4.9 -2.3
v 4.2 5.1 -2.3
v 4.3 4.9 -2.6
v 4.3 5.1 -2.6
v 4.3 4.9 -2.5
v 4.3 5.1 -2.5
v 4.3 5.2 -2.5
v 4.3 5.1 -2.4
v 4.3 5.2 -2.4
v 4.3 4.9 -2.3
v 4.3 5.1 -2.3
v 4.3 5.2 -2.3
v 4.3 4.9 -2.2
v 4.3 5.1 -2.2
v 4.6 4.9 -2.2
v 4.6 5 -2.2
v 4.6 4.9 -2.1
v 4.6 5 -2.1
v 4.6 4.9 -2
v 4.6 5 -2
v 4.7 4.9 -2.3
v 4.7 5 -2.3
v 4.7 4.9 -2.2
v 4.7 5 -2.2
v 4.7 5.1 -2.2
v 4.7 5 -2.1
v 4.7 5.1 -2.1
v 4.7 4.9 -2
v 4.7 5 -2
v 4.7 5.1 -2
v 4.7 4.9 -1.9
v 4.7 5 -1.9
v 4.5 4.9 -2.6
v 4.5 5.1 -2.6
v 4.5 4.9 -2.5
v 4.5 5.1 -2.5
v 4.5 5.2 -2.5
v 4.5 5.1 -2.4
v 4.5 5.2 -2.4
v 4.5 4.9 -2.3
v 4.5 5.1 -2.3
v 4.5 5.2 -2.3
v 4.5 4.9 -2.2
v 4.5 5.1 -2.2
v 4.6 4.9 -2.5
v 4.6 5.1 -2.5
v 4.6 4.9 -2.4
v 4.6 5.1 -2.4
v 4.6 4.9 -2.3
v 4.6 5.1 -2.3
v 4.9 4.9 -2.3
v 4.9 5 -2.3
v 4.9 4.9 -2.2
v 4.9 5 -2.2
v 4.9 5.1 -2.2
v 4.9 5 -2.1
v 4.9 5.1 -2.1
v 4.9 4.9 -2
v 4.9 5 -2
v 4.9 5.1 -2
v 4.9 4.9 -1.9
v 4.9 5 -1.9
v 5 4.9 -2.2
v 5 5 -2.2
v 5 4.9 -2.1
v 5 5 -2.1
v 5 4.9 -2
v 5 5 -2
v 4.2 4.9 -2.5
v 4.2 4.9 -2.4
v 4.2 4.9 -2.3
v 4.3 4.9 -2.6
v 4.3 4.9 -2.5
v 4.3 4.9 -2.4
v 4.3 4.9 -2.3
v 4.3 4.9 -2.2
v 4.4 4.9 -2.6
v 4.4 4.9 -2.5
v 4.4 4.9 -2.3
v 4.4 4.9 -2.2
v 4.5 4.9 -2.6
v 4.5 4.9 -2.5
v 4.5 4.9 -2.4
v 4.5 4.9 -2.3
v 4.5 4.9 -2.2
v 4.6 4.9 -2.5
v 4.6 4.9 -2.4
v 4.6 4.9 -2.3
v 4.6 4.9 -2.2
v 4.6 4.9 -2.1
v 4.6 4.9 -2
v 4.7 4.9 -2.3
v 4.7 4.9 -2.2
v 4.7 4.9 -2.1
v 4.7 4.9 -2
v 4.7 4.9 -1.9
v 4.8 4.9 -2.3
v 4.8 4.9 -2.2
v 4.8 4.9 -2
v 4.8 4.9 -1.9
v 4.9 4.9 -2.3
v 4.9 4.9 -2.2
v 4.9 4.9 -2.1
v 4.9 4.9 -2
v 4.9 4.9 -1.9
v 5 4.9 -2.2
v 5 4.9 -2.1
v 5 4.9 -2
v 4.6 5 -2.2
v 4.6 5 -2.1
v 4.6 5 -2
v 4.7 5 -2.3
v 4.7 5 -2.2
v 4.7 5 -2.1
v 4.7 5 -2
v 4.7 5 -1.9
v 4.8 5 -2.3
v 4.8 5 -2.2
v 4.8 5 -2
v 4.8 5 -1.9
v 4.9 5 -2.3
v 4.9 5 -2.2
v 4.9 5 -2.1
v 4.9 5 -2
v 4.9 5 -1.9
v 5 5 -2.2
v 5 5 -2.1
v 5 5 -2
v 4.2 5.1 -2.5
v 4.2 5.1 -2.4
v 4.2 5.1 -2.3
v 4.3 5.1 -2.6
v 4.3 5.1 -2.5
v 4.3 5.1 -2.4
v 4.3 5.1 -2.3
v 4.3 5.1 -2.2
v 4.4 5.1 -2.6
v 4.4 5.1 -2.5
v 4.4 5.1 -2.3
v 4.4 5.1 -2.2
v 4.5 5.1 -2.6
v 4.5 5.1 -2.5
v 4.5 5.1 -2.4
v 4.5 5.1 -2.3
v 4.5 5.1 -2.2
v 4.6 5.1 -2.5
v 4.6 5.1 -2.4
v 4.6 5.1 -2.3
v 4.7 5.1 -2.2
v 4.7 5.1 -2.1
v 4.7 5.1 -2
v 4.8 5.1 -2.2
v 4.8 5.1 -2.1
v 4.8 5.1 -2
v 4.9 5.1 -2.2
v 4.9 5.1 -2.1
v 4.9 5.1 -2
v 4.3 5.2 -2.5
v 4.3 5.2 -2.4
v 4.3 5.2 -2.3
v 4.4 5.2 -2.5
v 4.4 5.2 -2.4
v 4.4 5.2 -2.3
v 4.5 5.2 -2.5
v 4.5 5.2 -2.4
v 4.5 5.2 -2.3

# faces
f 4/2/1 2/2/1 1/2/1
f 5/1/1 3/1/1 2/1/1
f 5/2/1 2/2/1 4/2/1
f 6/1/1 3/1/1 5/1/1
f 11/2/1 8/2/1 7/2/1
f 12/2/1 8/2/1 11/2/1
f 14/1/1 10/1/1 9/1/1
f 15/1/1 10/1/1 14/1/1
f 16/1/1 13/1/1 12/1/1
f 17/2/1 14/2/1 13/2/1
f 17/1/1 13/1/1 16/1/1
f 18/2/1 14/2/1 17/2/1
f 22/2/1 20/2/1 19/2/1
f 23/1/1 21/1/1 20/1/1
f 23/2/1 20/2/1 22/2/1
f 24/1/1 21/1/1 23/1/1
f 29/2/1 26/2/1 25/2/1
f 30/2/1 26/2/1 29/2/1
f 32/1/1 28/1/1 27/1/1
f 33/1/1 28/1/1 32/1/1
f 34/1/1 31/1/1 30/1/1
f 35/2/1 32/2/1 31/2/1
f 35/1/1 31/1/1 34/1/1
f 36/2/1 32/2/1 35/2/1
f 37/1/2 38/1/2 41/1/2
f 41/1/2 38/1/2 42/1/2
f 39/2/2 40/2/2 44/2/2
f 44/2/2 40/2/2 45/2/2
f 42/2/2 43/2/2 46/2/2
f 43/1/2 44/1/2 47/1/2
f 46/2/2 43/2/2 47/2/2
f 47/1/2 44/1/2 48/1/2
f 49/1/2 50/1/2 52/1/2
f 50/2/2 51/2/2 53/2/2
f 52/1/2 50/1/2 53/1/2
f 53/2/2 51/2/2 54/2/2
f 55/1/2 56/1/2 59/1/2
f 59/1/2 56/1/2 60/1/2
f 57/2/2 58/2/2 62/2/2
f 62/2/2 58/2/2 63/2/2
f 60/2/2 61/2/2 64/2/2
f 61/1/2 62/1/2 65/1/2
f 64/2/2 61/2/2 65/2/2
f 65/1/2 62/1/2 66/1/2
f 67/1/2 68/1/2 70/1/2
f 68/2/2 69/2/2 71/2/2
f 70/1/2 68/1/2 71/1/2
f 71/2/2 69/2/2 72/2/2
f 75/2/3 74/2/3 73/2/3
f 76/2/3 74/2/3 75/2/3
f 77/1/3 76/1/3 75/1/3
f 78/1/3 76/1/3 77/1/3
f 81/2/3 80/2/3 79/2/3
f 82/2/3 80/2/3 81/2/3
f 84/1/3 83/1/3 82/1/3
f 85/1/3 83/1/3 84/1/3
f 87/2/3 85/2/3 84/2/3
f 88/2/3 85/2/3 87/2/3
f 89/1/3 87/1/3 86/1/3
f 90/1/3 87/1/3 89/1/3
f 93/2/3 92/2/3 91/2/3
f 94/2/3 92/2/3 93/2/3
f 95/1/3 94/1/3 93/1/3
f 96/1/3 94/1/3 95/1/3
f 99/2/3 98/2/3 97/2/3
f 100/2/3 98/2/3 99/2/3
f 102/1/3 101/1/3 100/1/3
f 103/1/3 101/1/3 102/1/3
f 105/2/3 103/2/3 102/2/3
f 106/2/3 103/2/3 105/2/3
f 107/1/3 105/1/3 104/1/3
f 108/1/3 105/1/3 107/1/3
f 109/1/4 110/1/4 111/1/4
f 111/1/4 110/1/4 112/1/4
f 112/2/4 113/2/4 114/2/4
f 114/2/4 113/2/4 115/2/4
f 114/1/4 115/1/4 117/1/4
f 117/1/4 115/1/4 118/1/4
f 116/2/4 117/2/4 119/2/4
f 119/2/4 117/2/4 120/2/4
f 121/1/4 122/1/4 123/1/4
f 123/1/4 122/1/4 124/1/4
f 123/2/4 124/2/4 125/2/4
f 125/2/4 124/2/4 126/2/4
f 127/1/4 128/1/4 129/1/4
f 129/1/4 128/1/4 130/1/4
f 130/2/4 131/2/4 132/2/4
f 132/2/4 131/2/4 133/2/4
f 132/1/4 133/1/4 135/1/4
f 135/1/4 133/1/4 136/1/4
f 134/2/4 135/2/4 137/2/4
f 137/2/4 135/2/4 138/2/4
f 139/1/4 140/1/4 141/1/4
f 141/1/4 140/1/4 142/1/4
f 141/2/4 142/2/4 143/2/4
f 143/2/4 142/2/4 144/2/4
f 149/2/5 146/2/5 145/2/5
f 150/1/5 147/1/5 146/1/5
f 150/2/5 146/2/5 149/2/5
f 151/1/5 147/1/5 150/1/5
f 153/2/5 149/2/5 148/2/5
f 153/2/5 150/2/5 149/2/5
f 153/2/5 151/2/5 150/2/5
f 154/2/5 151/2/5 153/2/5
f 155/1/5 152/1/5 151/1/5
f 155/2/5 151/2/5 154/2/5
f 156/1/5 152/1/5 155/1/5
f 157/1/5 154/1/5 153/1/5
f 158/2/5 155/2/5 154/2/5
f 158/1/5 154/1/5 157/1/5
f 158/2/5 156/2/5 155/2/5
f 159/2/5 156/2/5 158/2/5
f 160/2/5 156/2/5 159/2/5
f 161/2/5 156/2/5 160/2/5
f 162/1/5 159/1/5 158/1/5
f 163/2/5 160/2/5 159/2/5
f 163/1/5 159/1/5 162/1/5
f 164/2/5 160/2/5 163/2/5
f 169/2/5 166/2/5 165/2/5
f 170/1/5 167/1/5 166/1/5
f 170/2/5 166/2/5 169/2/5
f 171/1/5 167/1/5 170/1/5
f 173/2/5 169/2/5 168/2/5
f 173/2/5 170/2/5 169/2/5
f 173/2/5 171/2/5 170/2/5
f 174/2/5 171/2/5 173/2/5
f 175/1/5 172/1/5 171/1/5
f 175/2/5 171/2/5 174/2/5
f 176/1/5 172/1/5 175/1/5
f 177/1/5 174/1/5 173/1/5
f 178/2/5 175/2/5 174/2/5
f 178/1/5 174/1/5 177/1/5
f 178/2/5 176/2/5 175/2/5
f 179/2/5 176/2/5 178/2/5
f 180/2/5 176/2/5 179/2/5
f 181/2/5 176/2/5 180/2/5
f 182/1/5 179/1/5 178/1/5
f 183/2/5 180/2/5 179/2/5
f 183/1/5 179/1/5 182/1/5
f 184/2/5 180/2/5 183/2/5
f 185/2/6 186/2/6 189/2/6
f 186/1/6 187/1/6 190/1/6
f 189/2/6 186/2/6 190/2/6
f 190/1/6 187/1/6 191/1/6
f 188/2/6 189/2/6 193/2/6
f 193/2/6 189/2/6 194/2/6
f 191/1/6 192/1/6 195/1/6
f 195/1/6 192/1/6 196/1/6
f 193/1/6 194/1/6 197/1/6
f 197/1/6 194/1/6 198/1/6
f 195/2/6 196/2/6 200/2/6
f 200/2/6 196/2/6 201/2/6
f 198/1/6 199/1/6 202/1/6
f 199/2/6 200/2/6 203/2/6
f 202/1/6 199/1/6 203/1/6
f 203/2/6 200/2/6 204/2/6
f 205/2/6 206/2/6 209/2/6
f 206/1/6 207/1/6 210/1/6
f 209/2/6 206/2/6 210/2/6
f 210/1/6 207/1/6 211/1/6
f 208/2/6 209/2/6 213/2/6
f 213/2/6 209/2/6 214/2/6
f 211/1/6 212/1/6 215/1/6
f 215/1/6 212/1/6 216/1/6
f 213/1/6 214/1/6 217/1/6
f 217/1/6 214/1/6 218/1/6
f 215/2/6 216/2/6 220/2/6
f 220/2/6 216/2/6 221/2/6
f 218/1/6 219/1/6 222/1/6
f 219/2/6 220/2/6 223/2/6
f 222/1/6 219/1/6 223/1/6
f 223/2/6 220/2/6 224/2/6
f 225/1/6 226/1/6 228/1/6
f 226/2/6 227/2/6 229/2/6
f 228/1/6 226/1/6 229/1/6
f 229/2/6 227/2/6 230/2/6
f 228/2/6 229/2/6 231/2/6
f 229/1/6 230/1/6 232/1/6
f 231/2/6 229/2/6 232/2/6
f 232/1/6 230/1/6 233/1/6
f 234/1/6 235/1/6 237/1/6
f 235/2/6 236/2/6 238/2/6
f 237/1/6 235/1/6 238/1/6
f 238/2/6 236/2/6 239/2/6
f 237/2/6 238/2/6 240/2/6
f 238/1/6 239/1/6 241/1/6
f 240/2/6 238/2/6 241/2/6
f 241/1/6 239/1/6 242/1/6
