# MagicaVoxel @ Ephtracy

# group
o 

# material
mtllib granjafinal_tomates.mtl
usemtl palette

# normals
vn -1 0 0
vn 1 0 0
vn 0 0 -1
vn 0 0 1
vn 0 1 0
vn 0 -1 0

# texcoords
vt 0.318359 0.5
vt 0.380859 0.5
vt 0.443359 0.5

# verts
v 2.6 5.3 -2.5
v 2.6 5.3 -2.4
v 2.6 5.2 -2.5
v 2.6 5.2 -2.4
v 2.6 5.2 -2
v 2.6 5.2 -1.9
v 2.6 5.1 -2.5
v 2.6 5.1 -2.4
v 2.6 5.1 -2
v 2.6 5.1 -1.9
v 2.6 5 -2.5
v 2.6 5 -2.4
v 2.6 5 -2
v 2.6 5 -1.9
v 2.7 5.4 -2.5
v 2.7 5.4 -2.4
v 2.7 5.4 -2.3
v 2.7 5.4 -2
v 2.7 5.4 -1.9
v 2.7 5.3 -2.6
v 2.7 5.3 -2.5
v 2.7 5.3 -2.4
v 2.7 5.3 -2.3
v 2.7 5.3 -2.2
v 2.7 5.2 -2.6
v 2.7 5.2 -2.5
v 2.7 5.2 -2.4
v 2.7 5.2 -2.3
v 2.7 5.2 -2.2
v 2.7 5.2 -2
v 2.7 5.2 -1.9
v 2.7 5.2 -1.8
v 2.7 5.1 -2.6
v 2.7 5.1 -2.5
v 2.7 5.1 -2.4
v 2.7 5.1 -2.3
v 2.7 5.1 -2.2
v 2.7 5.1 -1.9
v 2.7 5.1 -1.8
v 2.7 5 -2.6
v 2.7 5 -2.5
v 2.7 5 -2.4
v 2.7 5 -2.3
v 2.7 5 -2.2
v 2.7 5 -2.1
v 2.7 5 -2
v 2.7 5 -1.9
v 2.7 4.9 -2.6
v 2.7 4.9 -2.5
v 2.7 4.9 -2.1
v 2.7 4.9 -2
v 2.7 4.8 -2.5
v 2.7 4.8 -2.4
v 2.7 4.8 -2
v 2.7 4.8 -1.9
v 2.8 5.4 -2.3
v 2.8 5.4 -2.2
v 2.8 5.4 -2.1
v 2.8 5.4 -2
v 2.8 5.3 -2.4
v 2.8 5.3 -2.3
v 2.8 5.3 -2.2
v 2.8 5.3 -2.1
v 2.8 5.3 -2
v 2.8 5.2 -2.4
v 2.8 5.2 -2.3
v 2.8 5.2 -2.2
v 2.8 5.2 -2.1
v 2.8 5.1 -2.3
v 2.8 5.1 -2.2
v 2.8 5 -2.4
v 2.8 5 -2.3
v 2.8 5 -2.2
v 2.8 5 -2.1
v 2.8 4.9 -2.4
v 2.8 4.9 -2.3
v 2.8 4.9 -2.2
v 2.8 4.9 -2.1
v 2.8 4.9 -2
v 2.8 4.8 -2.3
v 2.8 4.8 -2.2
v 2.8 4.8 -2.1
v 2.8 4.8 -2
v 2.9 5.4 -2.5
v 2.9 5.4 -2.4
v 2.9 5.4 -2
v 2.9 5.4 -1.9
v 2.9 5.3 -2.5
v 2.9 5.3 -2.4
v 2.9 5.3 -2.1
v 2.9 5.3 -2
v 2.9 5.3 -1.9
v 2.9 5.2 -2.2
v 2.9 5.2 -2.1
v 2.9 5.2 -2
v 2.9 5.1 -2.4
v 2.9 5.1 -2.3
v 2.9 5.1 -2.2
v 2.9 5.1 -2.1
v 2.9 5.1 -2
v 2.9 5 -2.4
v 2.9 5 -2.3
v 2.9 5 -2.1
v 2.9 5 -2
v 2.9 5 -1.9
v 2.9 4.9 -2.4
v 2.9 4.9 -2.3
v 2.9 4.9 -2.1
v 2.9 4.9 -2
v 2.9 4.9 -1.9
v 2.9 4.8 -2.4
v 2.9 4.8 -2.3
v 3 5.3 -2.5
v 3 5.3 -2.4
v 3 5.3 -2.3
v 3 5.3 -2.2
v 3 5.3 -2.1
v 3 5.2 -2.5
v 3 5.2 -2.4
v 3 5.2 -2.3
v 3 5.2 -2.2
v 3 5.2 -2.1
v 3 5.1 -2.5
v 3 5.1 -2.4
v 3 5.1 -2.3
v 3 5.1 -2.2
v 3 5 -2.4
v 3 5 -2.3
v 3 5 -2.2
v 3 4.9 -2.4
v 3 4.9 -2.3
v 3 4.9 -2.2
v 3.1 5.4 -2.2
v 3.1 5.4 -2.1
v 3.1 5.4 -1.9
v 3.1 5.4 -1.8
v 3.1 5.3 -2.2
v 3.1 5.3 -2.1
v 3.1 5.3 -2
v 3.1 5.3 -1.9
v 3.1 5.3 -1.8
v 3.1 5.2 -2.2
v 3.1 5.2 -2.1
v 3.1 5.2 -2
v 3.1 5.2 -1.9
v 3.1 5.1 -2.2
v 3.1 5.1 -2.1
v 3.1 5.1 -2
v 3.1 5.1 -1.9
v 3.1 5 -2.2
v 3.1 5 -2.1
v 3.1 5 -2
v 3.1 4.9 -2.2
v 3.1 4.9 -2.1
v 3.1 4.8 -2.2
v 3.1 4.8 -2.1
v 3.2 5.4 -2.5
v 3.2 5.4 -2.4
v 3.2 5.4 -2.3
v 3.2 5.4 -2
v 3.2 5.4 -1.9
v 3.2 5.3 -2.5
v 3.2 5.3 -2.4
v 3.2 5.3 -2.3
v 3.2 5.3 -2
v 3.2 5.3 -1.9
v 3.2 5.3 -1.8
v 3.2 5.2 -2.6
v 3.2 5.2 -2.5
v 3.2 5.2 -2.4
v 3.2 5.2 -1.9
v 3.2 5.1 -2.6
v 3.2 5.1 -2.5
v 3.2 5.1 -2.4
v 3.2 5.1 -2
v 3.2 5.1 -1.9
v 3.2 5.1 -1.8
v 3.2 5 -2.6
v 3.2 5 -2.5
v 3.2 5 -2.4
v 3.2 5 -2.3
v 3.2 5 -2.1
v 3.2 5 -2
v 3.2 5 -1.9
v 3.2 5 -1.8
v 3.2 4.9 -2.6
v 3.2 4.9 -2.5
v 3.2 4.9 -2.4
v 3.2 4.9 -2.3
v 3.2 4.9 -2.1
v 3.2 4.9 -2
v 3.2 4.9 -1.9
v 3.2 4.9 -1.8
v 3.2 4.8 -2.5
v 3.2 4.8 -2.4
v 3.2 4.8 -2
v 3.2 4.8 -1.9
v 2.8 5.4 -2.5
v 2.8 5.4 -2.4
v 2.8 5.4 -2
v 2.8 5.4 -1.9
v 2.8 5.3 -2.6
v 2.8 5.3 -2.5
v 2.8 5.3 -2
v 2.8 5.3 -1.9
v 2.8 5.2 -2.6
v 2.8 5.2 -2.5
v 2.8 5.2 -2.4
v 2.8 5.2 -2.3
v 2.8 5.2 -2
v 2.8 5.2 -1.9
v 2.8 5.2 -1.8
v 2.8 5.1 -2.6
v 2.8 5.1 -2.5
v 2.8 5.1 -2.4
v 2.8 5.1 -2.3
v 2.8 5.1 -2
v 2.8 5.1 -1.9
v 2.8 5.1 -1.8
v 2.8 5 -2.6
v 2.8 5 -2.5
v 2.8 5 -2.4
v 2.8 5 -2.1
v 2.8 5 -2
v 2.8 5 -1.9
v 2.8 4.9 -2.6
v 2.8 4.9 -2.5
v 2.8 4.9 -2.4
v 2.8 4.9 -2.1
v 2.8 4.9 -2
v 2.8 4.8 -2.5
v 2.8 4.8 -2.4
v 2.8 4.8 -2
v 2.8 4.8 -1.9
v 2.9 5.4 -2.3
v 2.9 5.4 -2.2
v 2.9 5.3 -2.4
v 2.9 5.3 -2.3
v 2.9 5.3 -2.2
v 2.9 5.3 -2.1
v 2.9 5.3 -2
v 2.9 5.3 -1.9
v 2.9 5.2 -2.4
v 2.9 5.2 -2.3
v 2.9 5.2 -2.2
v 2.9 5.2 -2.1
v 2.9 5.2 -2
v 2.9 5.2 -1.9
v 2.9 5.1 -2.5
v 2.9 5.1 -2.4
v 2.9 5.1 -2.3
v 2.9 5.1 -2.2
v 2.9 5 -2.5
v 2.9 5 -2.4
v 2.9 5 -2.3
v 2.9 5 -2.2
v 2.9 5 -2.1
v 2.9 4.9 -2.4
v 2.9 4.9 -2.3
v 2.9 4.9 -2.2
v 2.9 4.9 -2.1
v 2.9 4.8 -2.3
v 2.9 4.8 -2.2
v 3 5.3 -2.1
v 3 5.3 -2
v 3 5.2 -2.2
v 3 5.2 -2.1
v 3 5.2 -2
v 3 5.1 -2.2
v 3 5.1 -2.1
v 3 5.1 -2
v 3 5.1 -1.9
v 3 5 -2.1
v 3 5 -2
v 3 4.9 -2.1
v 3 4.9 -2
v 3 4.9 -1.9
v 3 4.8 -2.1
v 3 4.8 -2
v 3.1 5.4 -2.5
v 3.1 5.4 -2.4
v 3.1 5.4 -2.3
v 3.1 5.4 -2.1
v 3.1 5.4 -1.9
v 3.1 5.3 -2.5
v 3.1 5.3 -2.4
v 3.1 5.3 -2.1
v 3.1 5.3 -2
v 3.1 5.3 -1.9
v 3.1 5.2 -2.5
v 3.1 5.2 -2.4
v 3.1 5.2 -2.3
v 3.1 5.2 -2.2
v 3.1 5.2 -2.1
v 3.1 5.2 -2
v 3.1 5.1 -2.5
v 3.1 5.1 -2.4
v 3.1 5.1 -2.3
v 3.1 5.1 -2.2
v 3.1 5.1 -2.1
v 3.1 5.1 -2
v 3.1 5 -2.4
v 3.1 5 -2.3
v 3.1 5 -2.1
v 3.1 5 -2
v 3.1 4.9 -2.3
v 3.1 4.9 -2.1
v 3.1 4.9 -2
v 3.1 4.8 -2.4
v 3.1 4.8 -2.3
v 3.2 5.4 -2.2
v 3.2 5.4 -2.1
v 3.2 5.4 -1.9
v 3.2 5.4 -1.8
v 3.2 5.3 -1.9
v 3.2 5.3 -1.8
v 3.2 5.2 -2.4
v 3.2 5.2 -2.3
v 3.2 5.2 -2.2
v 3.2 5.2 -2.1
v 3.2 5.1 -2.4
v 3.2 5.1 -2.3
v 3.2 5.1 -2.2
v 3.2 5.1 -2.1
v 3.2 5.1 -2
v 3.2 5 -2.4
v 3.2 5 -2.3
v 3.2 5 -2.2
v 3.2 5 -2.1
v 3.2 5 -2
v 3.2 4.9 -2.3
v 3.2 4.9 -2.2
v 3.2 4.9 -2.1
v 3.2 4.8 -2.2
v 3.2 4.8 -2.1
v 3.3 5.4 -2.5
v 3.3 5.4 -2.4
v 3.3 5.4 -2.3
v 3.3 5.4 -2
v 3.3 5.4 -1.9
v 3.3 5.3 -2.4
v 3.3 5.3 -2.3
v 3.3 5.3 -1.9
v 3.3 5.3 -1.8
v 3.3 5.2 -2.6
v 3.3 5.2 -2.5
v 3.3 5.2 -2.4
v 3.3 5.2 -2.2
v 3.3 5.2 -2.1
v 3.3 5.2 -2
v 3.3 5.2 -1.9
v 3.3 5.1 -2.6
v 3.3 5.1 -2.5
v 3.3 5.1 -2.2
v 3.3 5.1 -2.1
v 3.3 5.1 -1.9
v 3.3 5.1 -1.8
v 3.3 5 -2.6
v 3.3 5 -2.5
v 3.3 5 -2.4
v 3.3 5 -2.3
v 3.3 5 -2.1
v 3.3 5 -2
v 3.3 5 -1.9
v 3.3 5 -1.8
v 3.3 4.9 -2.6
v 3.3 4.9 -2.5
v 3.3 4.9 -2.4
v 3.3 4.9 -2.3
v 3.3 4.9 -2.1
v 3.3 4.9 -2
v 3.3 4.9 -1.9
v 3.3 4.9 -1.8
v 3.3 4.8 -2.5
v 3.3 4.8 -2.4
v 3.3 4.8 -2
v 3.3 4.8 -1.9
v 3.4 5.2 -2.5
v 3.4 5.2 -2.4
v 3.4 5.2 -2
v 3.4 5.2 -1.9
v 3.4 5.1 -2.5
v 3.4 5.1 -2.4
v 3.4 5.1 -2
v 3.4 5.1 -1.9
v 3.4 5 -2.5
v 3.4 5 -2.4
v 3.4 5 -2
v 3.4 5 -1.9
v 2.7 5.3 -2.6
v 2.7 5.2 -2.6
v 2.7 5.1 -2.6
v 2.7 5 -2.6
v 2.7 4.9 -2.6
v 2.8 5.3 -2.6
v 2.8 5.2 -2.6
v 2.8 5.1 -2.6
v 2.8 5 -2.6
v 2.8 4.9 -2.6
v 3.2 5.2 -2.6
v 3.2 5.1 -2.6
v 3.2 5 -2.6
v 3.2 4.9 -2.6
v 3.3 5.2 -2.6
v 3.3 5.1 -2.6
v 3.3 5 -2.6
v 3.3 4.9 -2.6
v 2.6 5.3 -2.5
v 2.6 5.2 -2.5
v 2.6 5.1 -2.5
v 2.6 5 -2.5
v 2.7 5.4 -2.5
v 2.7 5.3 -2.5
v 2.7 5.2 -2.5
v 2.7 5.1 -2.5
v 2.7 5 -2.5
v 2.7 4.9 -2.5
v 2.7 4.8 -2.5
v 2.8 5.4 -2.5
v 2.8 5.3 -2.5
v 2.8 5.1 -2.5
v 2.8 5 -2.5
v 2.8 4.9 -2.5
v 2.8 4.8 -2.5
v 2.9 5.4 -2.5
v 2.9 5.3 -2.5
v 2.9 5.1 -2.5
v 2.9 5 -2.5
v 3 5.3 -2.5
v 3 5.2 -2.5
v 3 5.1 -2.5
v 3.1 5.4 -2.5
v 3.1 5.3 -2.5
v 3.1 5.2 -2.5
v 3.1 5.1 -2.5
v 3.2 5.4 -2.5
v 3.2 5.3 -2.5
v 3.2 5.2 -2.5
v 3.2 5.1 -2.5
v 3.2 5 -2.5
v 3.2 4.9 -2.5
v 3.2 4.8 -2.5
v 3.3 5.4 -2.5
v 3.3 5.2 -2.5
v 3.3 5.1 -2.5
v 3.3 5 -2.5
v 3.3 4.9 -2.5
v 3.3 4.8 -2.5
v 3.4 5.2 -2.5
v 3.4 5.1 -2.5
v 3.4 5 -2.5
v 2.8 5.4 -2.4
v 2.8 5.2 -2.4
v 2.8 5 -2.4
v 2.8 4.9 -2.4
v 2.9 5.4 -2.4
v 2.9 5.3 -2.4
v 2.9 5.2 -2.4
v 2.9 5.1 -2.4
v 2.9 5 -2.4
v 2.9 4.9 -2.4
v 2.9 4.8 -2.4
v 3 5.1 -2.4
v 3 5 -2.4
v 3 4.9 -2.4
v 3 4.8 -2.4
v 3.1 5.2 -2.4
v 3.1 5.1 -2.4
v 3.1 5 -2.4
v 3.1 4.8 -2.4
v 3.2 5.2 -2.4
v 3.2 5.1 -2.4
v 3.2 5 -2.4
v 2.7 5.3 -2.3
v 2.7 5.2 -2.3
v 2.7 5.1 -2.3
v 2.7 5 -2.3
v 2.8 5.3 -2.3
v 2.8 5.2 -2.3
v 2.8 5.1 -2.3
v 2.8 5 -2.3
v 2.8 4.9 -2.3
v 2.8 4.8 -2.3
v 2.9 5.2 -2.3
v 2.9 5.1 -2.3
v 2.9 5 -2.3
v 2.9 4.9 -2.3
v 2.9 4.8 -2.3
v 3.1 5 -2.3
v 3.1 4.9 -2.3
v 3.2 5 -2.3
v 3.2 4.9 -2.3
v 2.9 5.2 -2.2
v 2.9 5.1 -2.2
v 3 5.3 -2.2
v 3 5.2 -2.2
v 3 5.1 -2.2
v 3.1 5.4 -2.2
v 3.1 5.3 -2.2
v 3.1 5.2 -2.2
v 3.1 5.1 -2.2
v 3.1 5 -2.2
v 3.1 4.9 -2.2
v 3.1 4.8 -2.2
v 3.2 5.4 -2.2
v 3.2 5.2 -2.2
v 3.2 5.1 -2.2
v 3.2 5 -2.2
v 3.2 4.9 -2.2
v 3.2 4.8 -2.2
v 3.3 5.2 -2.2
v 3.3 5.1 -2.2
v 2.7 5 -2.1
v 2.7 4.9 -2.1
v 2.8 5.4 -2.1
v 2.8 5.3 -2.1
v 2.8 5 -2.1
v 2.8 4.9 -2.1
v 2.8 4.8 -2.1
v 2.9 5.4 -2.1
v 2.9 5.3 -2.1
v 2.9 5.2 -2.1
v 2.9 5.1 -2.1
v 2.9 5 -2.1
v 2.9 4.9 -2.1
v 2.9 4.8 -2.1
v 3 5.4 -2.1
v 3 5.3 -2.1
v 3 5.2 -2.1
v 3 5.1 -2.1
v 3 5 -2.1
v 3 4.9 -2.1
v 3 4.8 -2.1
v 3.1 5.4 -2.1
v 3.1 5.3 -2.1
v 3.1 5.2 -2.1
v 3.1 5.1 -2.1
v 3.1 5 -2.1
v 3.1 4.9 -2.1
v 3.2 5 -2.1
v 3.2 4.9 -2.1
v 3.3 5 -2.1
v 3.3 4.9 -2.1
v 2.6 5.2 -2
v 2.6 5.1 -2
v 2.6 5 -2
v 2.7 5.4 -2
v 2.7 5.2 -2
v 2.7 5.1 -2
v 2.7 5 -2
v 2.7 4.9 -2
v 2.7 4.8 -2
v 2.8 5.4 -2
v 2.8 5.3 -2
v 2.8 5.2 -2
v 2.8 5.1 -2
v 2.8 5 -2
v 2.8 4.9 -2
v 2.8 4.8 -2
v 2.9 5.3 -2
v 2.9 5.2 -2
v 2.9 5.1 -2
v 2.9 5 -2
v 3.1 5.3 -2
v 3.1 5.2 -2
v 3.1 5.1 -2
v 3.2 5.4 -2
v 3.2 5.3 -2
v 3.2 5.2 -2
v 3.2 5.1 -2
v 3.2 5 -2
v 3.2 4.9 -2
v 3.2 4.8 -2
v 3.3 5.4 -2
v 3.3 5.2 -2
v 3.3 5.1 -2
v 3.3 5 -2
v 3.3 4.9 -2
v 3.3 4.8 -2
v 3.4 5.2 -2
v 3.4 5.1 -2
v 3.4 5 -2
v 3.1 5.4 -1.9
v 3.1 5.3 -1.9
v 3.2 5.4 -1.9
v 3.2 5.3 -1.9
v 2.6 5.3 -2.4
v 2.6 5.2 -2.4
v 2.6 5.1 -2.4
v 2.6 5 -2.4
v 2.7 5.3 -2.4
v 2.7 5.2 -2.4
v 2.7 5.1 -2.4
v 2.7 5 -2.4
v 2.7 4.8 -2.4
v 2.8 5.3 -2.4
v 2.8 5.2 -2.4
v 2.8 5.1 -2.4
v 2.8 5 -2.4
v 2.8 4.9 -2.4
v 2.8 4.8 -2.4
v 2.9 5.1 -2.4
v 2.9 5 -2.4
v 3.1 5.3 -2.4
v 3.1 5.2 -2.4
v 3.2 5.3 -2.4
v 3.2 5.2 -2.4
v 3.2 5.1 -2.4
v 3.2 5 -2.4
v 3.2 4.9 -2.4
v 3.2 4.8 -2.4
v 3.3 5.3 -2.4
v 3.3 5.2 -2.4
v 3.3 5.1 -2.4
v 3.3 5 -2.4
v 3.3 4.9 -2.4
v 3.3 4.8 -2.4
v 3.4 5.2 -2.4
v 3.4 5.1 -2.4
v 3.4 5 -2.4
v 2.7 5.4 -2.3
v 2.7 5.3 -2.3
v 2.7 5.2 -2.3
v 2.7 5.1 -2.3
v 2.8 5.4 -2.3
v 2.8 5.3 -2.3
v 2.8 5.2 -2.3
v 2.8 5.1 -2.3
v 2.9 5.4 -2.3
v 2.9 5.3 -2.3
v 2.9 5.1 -2.3
v 2.9 5 -2.3
v 2.9 4.9 -2.3
v 2.9 4.8 -2.3
v 3 5.4 -2.3
v 3 5.3 -2.3
v 3 5.2 -2.3
v 3 5.1 -2.3
v 3 5 -2.3
v 3 4.9 -2.3
v 3 4.8 -2.3
v 3.1 5.4 -2.3
v 3.1 5.2 -2.3
v 3.1 5.1 -2.3
v 3.1 5 -2.3
v 3.1 4.9 -2.3
v 3.1 4.8 -2.3
v 3.2 5.4 -2.3
v 3.2 5.3 -2.3
v 3.2 5.2 -2.3
v 3.2 5.1 -2.3
v 3.2 5 -2.3
v 3.2 4.9 -2.3
v 3.3 5.4 -2.3
v 3.3 5.3 -2.3
v 3.3 5 -2.3
v 3.3 4.9 -2.3
v 2.7 5.3 -2.2
v 2.7 5.2 -2.2
v 2.7 5.1 -2.2
v 2.7 5 -2.2
v 2.8 5.4 -2.2
v 2.8 5.3 -2.2
v 2.8 5.2 -2.2
v 2.8 5.1 -2.2
v 2.8 5 -2.2
v 2.8 4.9 -2.2
v 2.8 4.8 -2.2
v 2.9 5.4 -2.2
v 2.9 5.3 -2.2
v 2.9 5.2 -2.2
v 2.9 5.1 -2.2
v 2.9 5 -2.2
v 2.9 4.9 -2.2
v 2.9 4.8 -2.2
v 3 5.2 -2.2
v 3 5.1 -2.2
v 3 5 -2.2
v 3 4.9 -2.2
v 3.1 5.2 -2.2
v 3.1 5.1 -2.2
v 3.1 5 -2.2
v 3.1 4.9 -2.2
v 2.8 5.3 -2.1
v 2.8 5.2 -2.1
v 2.8 5 -2.1
v 2.8 4.9 -2.1
v 2.9 5.3 -2.1
v 2.9 5.2 -2.1
v 2.9 5 -2.1
v 2.9 4.9 -2.1
v 3 5.3 -2.1
v 3 5.2 -2.1
v 3.1 5.4 -2.1
v 3.1 5.3 -2.1
v 3.1 5.2 -2.1
v 3.1 5.1 -2.1
v 3.1 5 -2.1
v 3.1 4.9 -2.1
v 3.1 4.8 -2.1
v 3.2 5.4 -2.1
v 3.2 5.2 -2.1
v 3.2 5.1 -2.1
v 3.2 5 -2.1
v 3.2 4.9 -2.1
v 3.2 4.8 -2.1
v 3.3 5.2 -2.1
v 3.3 5.1 -2.1
v 2.8 5.4 -2
v 2.8 5.3 -2
v 2.8 4.9 -2
v 2.8 4.8 -2
v 2.9 5.4 -2
v 2.9 5.3 -2
v 2.9 5.2 -2
v 2.9 5.1 -2
v 2.9 4.9 -2
v 2.9 4.8 -2
v 3 5.3 -2
v 3 5.2 -2
v 3 5.1 -2
v 3 5 -2
v 3 4.9 -2
v 3 4.8 -2
v 3.1 5.2 -2
v 3.1 5.1 -2
v 3.1 5 -2
v 3.1 4.9 -2
v 3.2 5.1 -2
v 3.2 5 -2
v 2.6 5.2 -1.9
v 2.6 5.1 -1.9
v 2.6 5 -1.9
v 2.7 5.4 -1.9
v 2.7 5.2 -1.9
v 2.7 5.1 -1.9
v 2.7 5 -1.9
v 2.7 4.8 -1.9
v 2.8 5.4 -1.9
v 2.8 5.3 -1.9
v 2.8 5.2 -1.9
v 2.8 5.1 -1.9
v 2.8 5 -1.9
v 2.8 4.8 -1.9
v 2.9 5.4 -1.9
v 2.9 5.3 -1.9
v 2.9 5.2 -1.9
v 2.9 5.1 -1.9
v 2.9 5 -1.9
v 2.9 4.9 -1.9
v 3 5.4 -1.9
v 3 5.3 -1.9
v 3 5.1 -1.9
v 3 4.9 -1.9
v 3.1 5.4 -1.9
v 3.1 5.3 -1.9
v 3.1 5.2 -1.9
v 3.1 5.1 -1.9
v 3.2 5.4 -1.9
v 3.2 5.3 -1.9
v 3.2 5.2 -1.9
v 3.2 5.1 -1.9
v 3.2 5 -1.9
v 3.2 4.9 -1.9
v 3.2 4.8 -1.9
v 3.3 5.4 -1.9
v 3.3 5.3 -1.9
v 3.3 5.2 -1.9
v 3.3 5.1 -1.9
v 3.3 5 -1.9
v 3.3 4.9 -1.9
v 3.3 4.8 -1.9
v 3.4 5.2 -1.9
v 3.4 5.1 -1.9
v 3.4 5 -1.9
v 2.7 5.2 -1.8
v 2.7 5.1 -1.8
v 2.8 5.2 -1.8
v 2.8 5.1 -1.8
v 3.1 5.4 -1.8
v 3.1 5.3 -1.8
v 3.2 5.4 -1.8
v 3.2 5.3 -1.8
v 3.2 5.1 -1.8
v 3.2 5 -1.8
v 3.2 4.9 -1.8
v 3.3 5.3 -1.8
v 3.3 5.1 -1.8
v 3.3 5 -1.8
v 3.3 4.9 -1.8
v 2.7 5.4 -2.5
v 2.8 5.4 -2.5
v 2.9 5.4 -2.5
v 3.1 5.4 -2.5
v 3.2 5.4 -2.5
v 3.3 5.4 -2.5
v 2.7 5.4 -2.4
v 2.8 5.4 -2.4
v 2.9 5.4 -2.4
v 3 5.4 -2.4
v 3.1 5.4 -2.4
v 3.2 5.4 -2.4
v 3.3 5.4 -2.4
v 2.7 5.4 -2.3
v 2.8 5.4 -2.3
v 2.9 5.4 -2.3
v 3 5.4 -2.3
v 3.1 5.4 -2.3
v 3.2 5.4 -2.3
v 3.3 5.4 -2.3
v 2.8 5.4 -2.2
v 2.9 5.4 -2.2
v 3.1 5.4 -2.2
v 3.2 5.4 -2.2
v 2.8 5.4 -2.1
v 2.9 5.4 -2.1
v 3 5.4 -2.1
v 3.1 5.4 -2.1
v 3.2 5.4 -2.1
v 2.7 5.4 -2
v 2.8 5.4 -2
v 2.9 5.4 -2
v 3 5.4 -2
v 3.2 5.4 -2
v 3.3 5.4 -2
v 2.7 5.4 -1.9
v 2.8 5.4 -1.9
v 2.9 5.4 -1.9
v 3 5.4 -1.9
v 3.1 5.4 -1.9
v 3.2 5.4 -1.9
v 3.3 5.4 -1.9
v 3.1 5.4 -1.8
v 3.2 5.4 -1.8
v 2.7 5.3 -2.6
v 2.8 5.3 -2.6
v 2.6 5.3 -2.5
v 2.7 5.3 -2.5
v 2.8 5.3 -2.5
v 3.1 5.3 -2.5
v 3.2 5.3 -2.5
v 2.6 5.3 -2.4
v 2.7 5.3 -2.4
v 3.1 5.3 -2.4
v 3.2 5.3 -2.4
v 2.7 5.3 -2.3
v 2.8 5.3 -2.3
v 2.7 5.3 -2.2
v 2.8 5.3 -2.2
v 2.9 5.3 -2.2
v 3 5.3 -2.2
v 3.1 5.3 -2.2
v 2.8 5.3 -2.1
v 2.9 5.3 -2.1
v 3 5.3 -2.1
v 3.1 5.3 -2.1
v 2.8 5.3 -2
v 2.9 5.3 -2
v 3.1 5.3 -2
v 3.2 5.3 -2
v 2.8 5.3 -1.9
v 2.9 5.3 -1.9
v 3.1 5.3 -1.9
v 3.2 5.3 -1.9
v 3.3 5.3 -1.9
v 3.2 5.3 -1.8
v 3.3 5.3 -1.8
v 3.2 5.2 -2.6
v 3.3 5.2 -2.6
v 3.2 5.2 -2.5
v 3.3 5.2 -2.5
v 3.4 5.2 -2.5
v 2.7 5.2 -2.4
v 2.8 5.2 -2.4
v 3.1 5.2 -2.4
v 3.2 5.2 -2.4
v 3.3 5.2 -2.4
v 3.4 5.2 -2.4
v 2.7 5.2 -2.3
v 2.8 5.2 -2.3
v 3 5.2 -2.3
v 3.1 5.2 -2.3
v 3.2 5.2 -2.3
v 2.9 5.2 -2.2
v 3 5.2 -2.2
v 3.1 5.2 -2.2
v 3.2 5.2 -2.2
v 3.3 5.2 -2.2
v 2.9 5.2 -2.1
v 3 5.2 -2.1
v 3.1 5.2 -2.1
v 3.2 5.2 -2.1
v 3.3 5.2 -2.1
v 2.6 5.2 -2
v 2.7 5.2 -2
v 3 5.2 -2
v 3.1 5.2 -2
v 3.3 5.2 -2
v 3.4 5.2 -2
v 2.6 5.2 -1.9
v 2.7 5.2 -1.9
v 2.8 5.2 -1.9
v 3.3 5.2 -1.9
v 3.4 5.2 -1.9
v 2.7 5.2 -1.8
v 2.8 5.2 -1.8
v 2.6 5.1 -2.5
v 2.7 5.1 -2.5
v 2.8 5.1 -2.5
v 2.9 5.1 -2.5
v 2.6 5.1 -2.4
v 2.7 5.1 -2.4
v 2.8 5.1 -2.4
v 2.9 5.1 -2.4
v 3 5.1 -2.4
v 2.7 5.1 -2.3
v 2.8 5.1 -2.3
v 2.9 5.1 -2.3
v 3 5.1 -2.3
v 2.7 5.1 -2.2
v 2.8 5.1 -2.2
v 3.1 5.1 -2.1
v 3.2 5.1 -2.1
v 2.8 5.1 -2
v 2.9 5.1 -2
v 3 5.1 -2
v 3.1 5.1 -2
v 3.2 5.1 -2
v 2.8 5.1 -1.9
v 2.9 5.1 -1.9
v 3 5.1 -1.9
v 2.7 5 -2.6
v 2.8 5 -2.6
v 3.2 5 -2.6
v 3.3 5 -2.6
v 2.7 5 -2.5
v 2.8 5 -2.5
v 3.2 5 -2.5
v 3.3 5 -2.5
v 2.8 5 -2.4
v 2.9 5 -2.4
v 3.2 5 -2.4
v 3.3 5 -2.4
v 2.8 5 -2.3
v 2.9 5 -2.3
v 3 5 -2.3
v 3.1 5 -2.3
v 3.2 5 -2.3
v 3.3 5 -2.3
v 2.8 5 -2.2
v 2.9 5 -2.2
v 3 5 -2.2
v 3.1 5 -2.2
v 3.2 5 -2.2
v 2.7 5 -2.1
v 2.8 5 -2.1
v 2.9 5 -2.1
v 3 5 -2.1
v 3.1 5 -2.1
v 3.2 5 -2.1
v 3.3 5 -2.1
v 2.7 5 -2
v 2.8 5 -2
v 3 5 -2
v 3.1 5 -2
v 3.2 5 -2
v 3.3 5 -2
v 3.2 5 -1.9
v 3.3 5 -1.9
v 3.2 5 -1.8
v 3.3 5 -1.8
v 2.9 4.9 -2.4
v 3 4.9 -2.4
v 2.9 4.9 -2.3
v 3 4.9 -2.3
v 2.8 4.9 -2.1
v 2.9 4.9 -2.1
v 2.8 4.9 -2
v 2.9 4.9 -2
v 2.9 5.3 -2.5
v 3 5.3 -2.5
v 2.7 5.3 -2.4
v 2.8 5.3 -2.4
v 2.9 5.3 -2.4
v 3 5.3 -2.4
v 3.2 5.3 -2.4
v 3.3 5.3 -2.4
v 2.7 5.3 -2.3
v 2.8 5.3 -2.3
v 2.9 5.3 -2.3
v 3 5.3 -2.3
v 3.2 5.3 -2.3
v 3.3 5.3 -2.3
v 2.8 5.3 -2.1
v 2.9 5.3 -2.1
v 3 5.3 -2.1
v 3.1 5.3 -2.1
v 2.8 5.3 -2
v 2.9 5.3 -2
v 3 5.3 -2
v 3.1 5.3 -2
v 2.9 5.3 -1.9
v 3 5.3 -1.9
v 3.1 5.3 -1.9
v 3.2 5.3 -1.9
v 3.1 5.3 -1.8
v 3.2 5.3 -1.8
v 2.6 5.2 -2.5
v 2.7 5.2 -2.5
v 3.1 5.2 -2.5
v 3.2 5.2 -2.5
v 2.6 5.2 -2.4
v 2.7 5.2 -2.4
v 2.8 5.2 -2.4
v 2.9 5.2 -2.4
v 3.1 5.2 -2.4
v 3.2 5.2 -2.4
v 2.7 5.2 -2.3
v 2.8 5.2 -2.3
v 2.9 5.2 -2.3
v 2.7 5.2 -2.2
v 2.8 5.2 -2.2
v 2.9 5.2 -2.2
v 3 5.2 -2.2
v 3.1 5.2 -2.2
v 2.8 5.2 -2.1
v 2.9 5.2 -2.1
v 3 5.2 -2.1
v 3.1 5.2 -2.1
v 2.8 5.2 -2
v 2.9 5.2 -2
v 2.8 5.2 -1.9
v 2.9 5.2 -1.9
v 2.7 5.1 -2.6
v 2.8 5.1 -2.6
v 3.2 5.1 -2.6
v 3.3 5.1 -2.6
v 2.7 5.1 -2.5
v 2.8 5.1 -2.5
v 3 5.1 -2.5
v 3.1 5.1 -2.5
v 3.2 5.1 -2.5
v 3.3 5.1 -2.5
v 2.7 5.1 -2.4
v 2.8 5.1 -2.4
v 3 5.1 -2.4
v 3.1 5.1 -2.4
v 2.7 5.1 -2.3
v 2.8 5.1 -2.3
v 3 5.1 -2.3
v 3.1 5.1 -2.3
v 2.9 5.1 -2.2
v 3 5.1 -2.2
v 3.1 5.1 -2.2
v 3.2 5.1 -2.2
v 3.3 5.1 -2.2
v 2.9 5.1 -2.1
v 3 5.1 -2.1
v 3.1 5.1 -2.1
v 3.2 5.1 -2.1
v 3.3 5.1 -2.1
v 3 5.1 -2
v 3.1 5.1 -2
v 3.2 5.1 -2
v 2.7 5.1 -1.9
v 2.8 5.1 -1.9
v 3.1 5.1 -1.9
v 3.2 5.1 -1.9
v 3.3 5.1 -1.9
v 2.7 5.1 -1.8
v 2.8 5.1 -1.8
v 3.2 5.1 -1.8
v 3.3 5.1 -1.8
v 2.6 5 -2.5
v 2.7 5 -2.5
v 2.8 5 -2.5
v 2.9 5 -2.5
v 3.3 5 -2.5
v 3.4 5 -2.5
v 2.6 5 -2.4
v 2.7 5 -2.4
v 2.8 5 -2.4
v 2.9 5 -2.4
v 3 5 -2.4
v 3.1 5 -2.4
v 3.2 5 -2.4
v 3.3 5 -2.4
v 3.4 5 -2.4
v 2.7 5 -2.3
v 2.8 5 -2.3
v 2.9 5 -2.3
v 3 5 -2.3
v 3.1 5 -2.3
v 3.2 5 -2.3
v 2.7 5 -2.2
v 2.8 5 -2.2
v 3.1 5 -2.1
v 3.2 5 -2.1
v 2.6 5 -2
v 2.7 5 -2
v 2.8 5 -2
v 2.9 5 -2
v 3.1 5 -2
v 3.2 5 -2
v 3.3 5 -2
v 3.4 5 -2
v 2.6 5 -1.9
v 2.7 5 -1.9
v 2.8 5 -1.9
v 2.9 5 -1.9
v 3.3 5 -1.9
v 3.4 5 -1.9
v 2.7 4.9 -2.6
v 2.8 4.9 -2.6
v 3.2 4.9 -2.6
v 3.3 4.9 -2.6
v 2.7 4.9 -2.5
v 2.8 4.9 -2.5
v 3.2 4.9 -2.5
v 3.3 4.9 -2.5
v 2.8 4.9 -2.4
v 2.9 4.9 -2.4
v 3.2 4.9 -2.4
v 3.3 4.9 -2.4
v 2.8 4.9 -2.3
v 2.9 4.9 -2.3
v 3 4.9 -2.3
v 3.1 4.9 -2.3
v 3.2 4.9 -2.3
v 3.3 4.9 -2.3
v 2.8 4.9 -2.2
v 2.9 4.9 -2.2
v 3 4.9 -2.2
v 3.1 4.9 -2.2
v 3.2 4.9 -2.2
v 2.7 4.9 -2.1
v 2.8 4.9 -2.1
v 2.9 4.9 -2.1
v 3 4.9 -2.1
v 3.1 4.9 -2.1
v 3.2 4.9 -2.1
v 3.3 4.9 -2.1
v 2.7 4.9 -2
v 2.8 4.9 -2
v 2.9 4.9 -2
v 3 4.9 -2
v 3.1 4.9 -2
v 3.2 4.9 -2
v 3.3 4.9 -2
v 2.9 4.9 -1.9
v 3 4.9 -1.9
v 3.2 4.9 -1.9
v 3.3 4.9 -1.9
v 3.2 4.9 -1.8
v 3.3 4.9 -1.8
v 2.7 4.8 -2.5
v 2.8 4.8 -2.5
v 3.2 4.8 -2.5
v 3.3 4.8 -2.5
v 2.7 4.8 -2.4
v 2.8 4.8 -2.4
v 2.9 4.8 -2.4
v 3 4.8 -2.4
v 3.1 4.8 -2.4
v 3.2 4.8 -2.4
v 3.3 4.8 -2.4
v 2.8 4.8 -2.3
v 2.9 4.8 -2.3
v 3 4.8 -2.3
v 3.1 4.8 -2.3
v 2.8 4.8 -2.2
v 2.9 4.8 -2.2
v 3.1 4.8 -2.2
v 3.2 4.8 -2.2
v 2.8 4.8 -2.1
v 2.9 4.8 -2.1
v 3 4.8 -2.1
v 3.1 4.8 -2.1
v 3.2 4.8 -2.1
v 2.7 4.8 -2
v 2.8 4.8 -2
v 2.9 4.8 -2
v 3 4.8 -2
v 3.2 4.8 -2
v 3.3 4.8 -2
v 2.7 4.8 -1.9
v 2.8 4.8 -1.9
v 3.2 4.8 -1.9
v 3.3 4.8 -1.9

# faces
f 3/1/1 2/1/1 1/1/1
f 4/1/1 2/1/1 3/1/1
f 9/3/1 6/3/1 5/3/1
f 10/3/1 6/3/1 9/3/1
f 11/3/1 8/3/1 7/3/1
f 12/3/1 8/3/1 11/3/1
f 13/1/1 10/1/1 9/1/1
f 14/1/1 10/1/1 13/1/1
f 21/2/1 16/2/1 15/2/1
f 22/1/1 17/1/1 16/1/1
f 22/2/1 16/2/1 21/2/1
f 23/1/1 17/1/1 22/1/1
f 25/3/1 21/3/1 20/3/1
f 26/3/1 21/3/1 25/3/1
f 28/3/1 24/3/1 23/3/1
f 29/3/1 24/3/1 28/3/1
f 30/2/1 19/2/1 18/2/1
f 31/2/1 19/2/1 30/2/1
f 33/1/1 26/1/1 25/1/1
f 34/2/1 27/2/1 26/2/1
f 34/1/1 26/1/1 33/1/1
f 35/1/1 28/1/1 27/1/1
f 35/2/1 27/2/1 34/2/1
f 36/1/1 28/1/1 35/1/1
f 38/1/1 32/1/1 31/1/1
f 39/1/1 32/1/1 38/1/1
f 43/1/1 37/1/1 36/1/1
f 44/1/1 37/1/1 43/1/1
f 48/3/1 41/3/1 40/3/1
f 49/2/1 42/2/1 41/2/1
f 49/3/1 41/3/1 48/3/1
f 50/3/1 46/3/1 45/3/1
f 51/2/1 47/2/1 46/2/1
f 51/3/1 46/3/1 50/3/1
f 52/2/1 42/2/1 49/2/1
f 53/2/1 42/2/1 52/2/1
f 54/2/1 47/2/1 51/2/1
f 55/2/1 47/2/1 54/2/1
f 61/2/1 57/2/1 56/2/1
f 62/2/1 57/2/1 61/2/1
f 63/1/1 59/1/1 58/1/1
f 64/1/1 59/1/1 63/1/1
f 65/1/1 61/1/1 60/1/1
f 66/1/1 61/1/1 65/1/1
f 67/3/1 63/3/1 62/3/1
f 68/3/1 63/3/1 67/3/1
f 69/2/1 67/2/1 66/2/1
f 70/2/1 67/2/1 69/2/1
f 75/1/1 72/1/1 71/1/1
f 76/2/1 73/2/1 72/2/1
f 76/1/1 72/1/1 75/1/1
f 77/1/1 74/1/1 73/1/1
f 77/2/1 73/2/1 76/2/1
f 78/1/1 74/1/1 77/1/1
f 80/2/1 77/2/1 76/2/1
f 81/2/1 77/2/1 80/2/1
f 82/1/1 79/1/1 78/1/1
f 83/1/1 79/1/1 82/1/1
f 88/1/1 85/1/1 84/1/1
f 89/1/1 85/1/1 88/1/1
f 91/3/1 87/3/1 86/3/1
f 92/3/1 87/3/1 91/3/1
f 94/2/1 91/2/1 90/2/1
f 95/2/1 91/2/1 94/2/1
f 98/3/1 94/3/1 93/3/1
f 99/2/1 95/2/1 94/2/1
f 99/3/1 94/3/1 98/3/1
f 100/2/1 95/2/1 99/2/1
f 101/3/1 97/3/1 96/3/1
f 102/3/1 97/3/1 101/3/1
f 103/2/1 100/2/1 99/2/1
f 104/2/1 100/2/1 103/2/1
f 108/2/1 104/2/1 103/2/1
f 109/1/1 105/1/1 104/1/1
f 109/2/1 104/2/1 108/2/1
f 110/1/1 105/1/1 109/1/1
f 111/1/1 107/1/1 106/1/1
f 112/1/1 107/1/1 111/1/1
f 118/3/1 114/3/1 113/3/1
f 119/2/1 115/2/1 114/2/1
f 119/3/1 114/3/1 118/3/1
f 120/2/1 115/2/1 119/2/1
f 121/1/1 117/1/1 116/1/1
f 122/1/1 117/1/1 121/1/1
f 123/1/1 119/1/1 118/1/1
f 124/2/1 120/2/1 119/2/1
f 124/1/1 119/1/1 123/1/1
f 125/1/1 121/1/1 120/1/1
f 125/2/1 120/2/1 124/2/1
f 126/1/1 121/1/1 125/1/1
f 130/2/1 128/2/1 127/2/1
f 131/1/1 129/1/1 128/1/1
f 131/2/1 128/2/1 130/2/1
f 132/1/1 129/1/1 131/1/1
f 137/2/1 134/2/1 133/2/1
f 138/2/1 134/2/1 137/2/1
f 140/1/1 136/1/1 135/1/1
f 141/1/1 136/1/1 140/1/1
f 144/3/1 140/3/1 139/3/1
f 145/3/1 140/3/1 144/3/1
f 146/2/1 143/2/1 142/2/1
f 147/2/1 143/2/1 146/2/1
f 148/1/1 145/1/1 144/1/1
f 149/1/1 145/1/1 148/1/1
f 150/2/1 147/2/1 146/2/1
f 151/1/1 148/1/1 147/1/1
f 151/2/1 147/2/1 150/2/1
f 152/1/1 148/1/1 151/1/1
f 153/2/1 151/2/1 150/2/1
f 154/2/1 151/2/1 153/2/1
f 155/2/1 154/2/1 153/2/1
f 156/2/1 154/2/1 155/2/1
f 162/2/1 158/2/1 157/2/1
f 163/3/1 159/3/1 158/3/1
f 163/2/1 158/2/1 162/2/1
f 164/3/1 159/3/1 163/3/1
f 165/2/1 161/2/1 160/2/1
f 166/2/1 161/2/1 165/2/1
f 171/1/1 167/1/1 166/1/1
f 172/1/1 169/1/1 168/1/1
f 173/2/1 170/2/1 169/2/1
f 173/1/1 169/1/1 172/1/1
f 174/2/1 170/2/1 173/2/1
f 176/1/1 167/1/1 171/1/1
f 177/1/1 167/1/1 176/1/1
f 179/2/1 174/2/1 173/2/1
f 180/2/1 174/2/1 179/2/1
f 183/2/1 176/2/1 175/2/1
f 184/2/1 176/2/1 183/2/1
f 186/3/1 179/3/1 178/3/1
f 187/2/1 180/2/1 179/2/1
f 187/3/1 179/3/1 186/3/1
f 188/1/1 181/1/1 180/1/1
f 188/2/1 180/2/1 187/2/1
f 189/1/1 181/1/1 188/1/1
f 190/1/1 183/1/1 182/1/1
f 191/2/1 184/2/1 183/2/1
f 191/1/1 183/1/1 190/1/1
f 192/3/1 185/3/1 184/3/1
f 192/2/1 184/2/1 191/2/1
f 193/3/1 185/3/1 192/3/1
f 194/2/1 188/2/1 187/2/1
f 195/2/1 188/2/1 194/2/1
f 196/2/1 192/2/1 191/2/1
f 197/2/1 192/2/1 196/2/1
f 198/2/2 199/2/2 203/2/2
f 200/2/2 201/2/2 204/2/2
f 204/2/2 201/2/2 205/2/2
f 202/3/2 203/3/2 206/3/2
f 203/2/2 199/2/2 207/2/2
f 206/3/2 203/3/2 207/3/2
f 207/2/2 199/2/2 208/2/2
f 206/1/2 207/1/2 213/1/2
f 207/2/2 208/2/2 214/2/2
f 213/1/2 207/1/2 214/1/2
f 208/1/2 209/1/2 215/1/2
f 214/2/2 208/2/2 215/2/2
f 215/1/2 209/1/2 216/1/2
f 210/2/2 211/2/2 217/2/2
f 211/1/2 212/1/2 218/1/2
f 217/2/2 211/2/2 218/2/2
f 218/1/2 212/1/2 219/1/2
f 220/3/2 221/3/2 226/3/2
f 221/2/2 222/2/2 227/2/2
f 226/3/2 221/3/2 227/3/2
f 227/2/2 222/2/2 228/2/2
f 223/3/2 224/3/2 229/3/2
f 224/2/2 225/2/2 230/2/2
f 229/3/2 224/3/2 230/3/2
f 227/2/2 228/2/2 231/2/2
f 231/2/2 228/2/2 232/2/2
f 230/2/2 225/2/2 233/2/2
f 233/2/2 225/2/2 234/2/2
f 235/2/2 236/2/2 238/2/2
f 238/2/2 236/2/2 239/2/2
f 237/1/2 238/1/2 243/1/2
f 238/2/2 239/2/2 244/2/2
f 243/1/2 238/1/2 244/1/2
f 239/3/2 240/3/2 245/3/2
f 244/2/2 239/2/2 245/2/2
f 245/3/2 240/3/2 246/3/2
f 241/1/2 242/1/2 247/1/2
f 247/1/2 242/1/2 248/1/2
f 244/2/2 245/2/2 251/2/2
f 251/2/2 245/2/2 252/2/2
f 249/1/2 250/1/2 253/1/2
f 253/1/2 250/1/2 254/1/2
f 251/2/2 252/2/2 255/2/2
f 255/2/2 252/2/2 256/2/2
f 254/1/2 255/1/2 258/1/2
f 255/2/2 256/2/2 259/2/2
f 258/1/2 255/1/2 259/1/2
f 256/1/2 257/1/2 260/1/2
f 259/2/2 256/2/2 260/2/2
f 260/1/2 257/1/2 261/1/2
f 259/2/2 260/2/2 262/2/2
f 262/2/2 260/2/2 263/2/2
f 264/2/2 265/2/2 267/2/2
f 267/2/2 265/2/2 268/2/2
f 266/3/2 267/3/2 269/3/2
f 269/3/2 267/3/2 270/3/2
f 270/2/2 271/2/2 273/2/2
f 271/1/2 272/1/2 274/1/2
f 273/2/2 271/2/2 274/2/2
f 274/1/2 272/1/2 276/1/2
f 276/1/2 272/1/2 277/1/2
f 275/2/2 276/2/2 278/2/2
f 278/2/2 276/2/2 279/2/2
f 280/1/2 281/1/2 285/1/2
f 281/2/2 282/2/2 286/2/2
f 285/1/2 281/1/2 286/1/2
f 283/1/2 284/1/2 287/1/2
f 287/1/2 284/1/2 288/1/2
f 288/1/2 284/1/2 289/1/2
f 286/2/2 282/2/2 291/2/2
f 291/2/2 282/2/2 292/2/2
f 290/1/2 291/1/2 296/1/2
f 296/1/2 291/1/2 297/1/2
f 292/1/2 293/1/2 298/1/2
f 298/1/2 293/1/2 299/1/2
f 294/1/2 295/1/2 300/1/2
f 300/1/2 295/1/2 301/1/2
f 302/2/2 303/2/2 306/2/2
f 304/3/2 305/3/2 307/3/2
f 307/3/2 305/3/2 308/3/2
f 302/2/2 306/2/2 309/2/2
f 309/2/2 306/2/2 310/2/2
f 313/1/2 314/1/2 315/1/2
f 315/1/2 314/1/2 316/1/2
f 311/2/2 312/2/2 319/2/2
f 319/2/2 312/2/2 320/2/2
f 317/3/2 318/3/2 321/3/2
f 321/3/2 318/3/2 322/3/2
f 321/1/2 322/1/2 326/1/2
f 326/1/2 322/1/2 327/1/2
f 323/2/2 324/2/2 328/2/2
f 324/1/2 325/1/2 329/1/2
f 328/2/2 324/2/2 329/2/2
f 329/1/2 325/1/2 330/1/2
f 327/3/2 328/3/2 331/3/2
f 328/2/2 329/2/2 332/2/2
f 331/3/2 328/3/2 332/3/2
f 332/2/2 329/2/2 333/2/2
f 332/2/2 333/2/2 334/2/2
f 334/2/2 333/2/2 335/2/2
f 336/2/2 337/2/2 341/2/2
f 337/3/2 338/3/2 341/3/2
f 341/3/2 338/3/2 342/3/2
f 339/2/2 340/2/2 343/2/2
f 336/2/2 341/2/2 346/2/2
f 346/2/2 341/2/2 347/2/2
f 339/2/2 343/2/2 350/2/2
f 343/1/2 344/1/2 351/1/2
f 350/2/2 343/2/2 351/2/2
f 345/1/2 346/1/2 352/1/2
f 352/1/2 346/1/2 353/1/2
f 348/3/2 349/3/2 354/3/2
f 354/3/2 349/3/2 355/3/2
f 351/1/2 344/1/2 356/1/2
f 356/1/2 344/1/2 357/1/2
f 358/3/2 359/3/2 366/3/2
f 359/2/2 360/2/2 367/2/2
f 366/3/2 359/3/2 367/3/2
f 360/1/2 361/1/2 368/1/2
f 367/2/2 360/2/2 368/2/2
f 368/1/2 361/1/2 369/1/2
f 362/1/2 363/1/2 370/1/2
f 363/2/2 364/2/2 371/2/2
f 370/1/2 363/1/2 371/1/2
f 364/3/2 365/3/2 372/3/2
f 371/2/2 364/2/2 372/2/2
f 372/3/2 365/3/2 373/3/2
f 367/2/2 368/2/2 374/2/2
f 374/2/2 368/2/2 375/2/2
f 371/2/2 372/2/2 376/2/2
f 376/2/2 372/2/2 377/2/2
f 378/3/2 379/3/2 382/3/2
f 382/3/2 379/3/2 383/3/2
f 380/3/2 381/3/2 384/3/2
f 384/3/2 381/3/2 385/3/2
f 382/1/2 383/1/2 386/1/2
f 386/1/2 383/1/2 387/1/2
f 384/1/2 385/1/2 388/1/2
f 388/1/2 385/1/2 389/1/2
f 395/3/3 391/3/3 390/3/3
f 396/1/3 392/1/3 391/1/3
f 396/3/3 391/3/3 395/3/3
f 397/1/3 392/1/3 396/1/3
f 398/3/3 394/3/3 393/3/3
f 399/3/3 394/3/3 398/3/3
f 404/1/3 401/1/3 400/1/3
f 405/1/3 401/1/3 404/1/3
f 406/3/3 403/3/3 402/3/3
f 407/3/3 403/3/3 406/3/3
f 413/1/3 409/1/3 408/1/3
f 414/1/3 409/1/3 413/1/3
f 415/3/3 411/3/3 410/3/3
f 416/3/3 411/3/3 415/3/3
f 419/2/3 413/2/3 412/2/3
f 420/2/3 413/2/3 419/2/3
f 421/2/3 416/2/3 415/2/3
f 422/2/3 416/2/3 421/2/3
f 423/2/3 418/2/3 417/2/3
f 424/2/3 418/2/3 423/2/3
f 427/1/3 422/1/3 421/1/3
f 428/1/3 422/1/3 427/1/3
f 429/1/3 426/1/3 425/1/3
f 432/1/3 429/1/3 425/1/3
f 433/3/3 430/3/3 429/3/3
f 433/1/3 429/1/3 432/1/3
f 434/1/3 431/1/3 430/1/3
f 434/3/3 430/3/3 433/3/3
f 435/1/3 431/1/3 434/1/3
f 437/1/3 434/1/3 433/1/3
f 438/1/3 434/1/3 437/1/3
f 443/2/3 438/2/3 437/2/3
f 443/2/3 437/2/3 436/2/3
f 444/2/3 438/2/3 443/2/3
f 445/2/3 440/2/3 439/2/3
f 446/2/3 440/2/3 445/2/3
f 447/2/3 442/2/3 441/2/3
f 448/2/3 442/2/3 447/2/3
f 449/3/3 445/3/3 444/3/3
f 450/1/3 446/1/3 445/1/3
f 450/3/3 445/3/3 449/3/3
f 451/1/3 446/1/3 450/1/3
f 456/1/3 453/1/3 452/1/3
f 457/1/3 453/1/3 456/1/3
f 458/1/3 453/1/3 457/1/3
f 460/1/3 455/1/3 454/1/3
f 461/1/3 455/1/3 460/1/3
f 463/3/3 460/3/3 459/3/3
f 464/3/3 460/3/3 463/3/3
f 465/1/3 462/1/3 461/1/3
f 466/1/3 462/1/3 465/1/3
f 468/2/3 464/2/3 463/2/3
f 468/2/3 465/2/3 464/2/3
f 468/2/3 466/2/3 465/2/3
f 469/2/3 466/2/3 468/2/3
f 470/2/3 466/2/3 469/2/3
f 471/3/3 468/3/3 467/3/3
f 472/1/3 469/1/3 468/1/3
f 472/3/3 468/3/3 471/3/3
f 473/1/3 469/1/3 472/1/3
f 478/3/3 475/3/3 474/3/3
f 479/3/3 475/3/3 478/3/3
f 480/1/3 477/1/3 476/1/3
f 481/1/3 477/1/3 480/1/3
f 484/2/3 480/2/3 479/2/3
f 484/2/3 481/2/3 480/2/3
f 485/2/3 481/2/3 484/2/3
f 486/2/3 481/2/3 485/2/3
f 487/2/3 483/2/3 482/2/3
f 488/2/3 483/2/3 487/2/3
f 491/3/3 490/3/3 489/3/3
f 492/3/3 490/3/3 491/3/3
f 496/3/3 494/3/3 493/3/3
f 497/3/3 494/3/3 496/3/3
f 499/1/3 496/1/3 495/1/3
f 500/1/3 496/1/3 499/1/3
f 505/2/3 501/2/3 500/2/3
f 505/2/3 499/2/3 498/2/3
f 505/2/3 502/2/3 501/2/3
f 505/2/3 500/2/3 499/2/3
f 506/2/3 502/2/3 505/2/3
f 507/2/3 502/2/3 506/2/3
f 508/2/3 502/2/3 507/2/3
f 509/2/3 504/2/3 503/2/3
f 510/2/3 504/2/3 509/2/3
f 511/3/3 507/3/3 506/3/3
f 512/3/3 507/3/3 511/3/3
f 517/3/3 514/3/3 513/3/3
f 518/3/3 514/3/3 517/3/3
f 520/1/3 516/1/3 515/1/3
f 521/1/3 516/1/3 520/1/3
f 525/1/3 519/1/3 518/1/3
f 526/1/3 519/1/3 525/1/3
f 527/2/3 521/2/3 520/2/3
f 527/2/3 522/2/3 521/2/3
f 528/2/3 522/2/3 527/2/3
f 529/2/3 522/2/3 528/2/3
f 530/2/3 524/2/3 523/2/3
f 530/2/3 526/2/3 525/2/3
f 530/2/3 525/2/3 524/2/3
f 531/2/3 526/2/3 530/2/3
f 532/2/3 526/2/3 531/2/3
f 533/2/3 526/2/3 532/2/3
f 534/1/3 528/1/3 527/1/3
f 535/1/3 528/1/3 534/1/3
f 536/1/3 530/1/3 529/1/3
f 537/1/3 530/1/3 536/1/3
f 538/3/3 532/3/3 531/3/3
f 539/3/3 532/3/3 538/3/3
f 542/1/3 541/1/3 540/1/3
f 543/1/3 541/1/3 542/1/3
f 548/3/3 545/3/3 544/3/3
f 549/1/3 546/1/3 545/1/3
f 549/3/3 545/3/3 548/3/3
f 550/1/3 546/1/3 549/1/3
f 553/2/3 548/2/3 547/2/3
f 553/2/3 549/2/3 548/2/3
f 553/2/3 550/2/3 549/2/3
f 554/2/3 550/2/3 553/2/3
f 555/2/3 550/2/3 554/2/3
f 556/2/3 550/2/3 555/2/3
f 557/2/3 550/2/3 556/2/3
f 558/2/3 552/2/3 551/2/3
f 559/2/3 552/2/3 558/2/3
f 560/1/3 555/1/3 554/1/3
f 561/1/3 555/1/3 560/1/3
f 562/3/3 557/3/3 556/3/3
f 563/3/3 557/3/3 562/3/3
f 568/3/3 565/3/3 564/3/3
f 569/1/3 566/1/3 565/1/3
f 569/3/3 565/3/3 568/3/3
f 570/1/3 566/1/3 569/1/3
f 574/2/3 571/2/3 570/2/3
f 574/2/3 568/2/3 567/2/3
f 574/2/3 570/2/3 569/2/3
f 574/2/3 569/2/3 568/2/3
f 575/2/3 571/2/3 574/2/3
f 576/2/3 571/2/3 575/2/3
f 577/2/3 571/2/3 576/2/3
f 578/2/3 573/2/3 572/2/3
f 579/2/3 573/2/3 578/2/3
f 580/3/3 576/3/3 575/3/3
f 581/1/3 577/1/3 576/1/3
f 581/3/3 576/3/3 580/3/3
f 582/1/3 577/1/3 581/1/3
f 585/1/3 584/1/3 583/1/3
f 586/1/3 584/1/3 585/1/3
f 587/1/4 588/1/4 591/1/4
f 591/1/4 588/1/4 592/1/4
f 589/3/4 590/3/4 593/3/4
f 593/3/4 590/3/4 594/3/4
f 591/2/4 592/2/4 596/2/4
f 596/2/4 592/2/4 597/2/4
f 594/2/4 595/2/4 598/2/4
f 593/2/4 594/2/4 598/2/4
f 598/2/4 595/2/4 599/2/4
f 599/2/4 595/2/4 600/2/4
f 600/2/4 595/2/4 601/2/4
f 598/1/4 599/1/4 602/1/4
f 602/1/4 599/1/4 603/1/4
f 604/1/4 605/1/4 606/1/4
f 606/1/4 605/1/4 607/1/4
f 608/2/4 609/2/4 612/2/4
f 606/2/4 607/2/4 612/2/4
f 607/2/4 608/2/4 612/2/4
f 612/2/4 609/2/4 613/2/4
f 613/2/4 609/2/4 614/2/4
f 614/2/4 609/2/4 615/2/4
f 610/2/4 611/2/4 616/2/4
f 616/2/4 611/2/4 617/2/4
f 613/3/4 614/3/4 618/3/4
f 614/1/4 615/1/4 619/1/4
f 618/3/4 614/3/4 619/3/4
f 619/1/4 615/1/4 620/1/4
f 621/1/4 622/1/4 625/1/4
f 625/1/4 622/1/4 626/1/4
f 623/1/4 624/1/4 627/1/4
f 627/1/4 624/1/4 628/1/4
f 629/1/4 630/1/4 635/1/4
f 635/1/4 630/1/4 636/1/4
f 631/3/4 632/3/4 638/3/4
f 638/3/4 632/3/4 639/3/4
f 633/1/4 634/1/4 640/1/4
f 640/1/4 634/1/4 641/1/4
f 636/2/4 637/2/4 642/2/4
f 635/2/4 636/2/4 642/2/4
f 642/2/4 637/2/4 643/2/4
f 638/2/4 639/2/4 644/2/4
f 644/2/4 639/2/4 645/2/4
f 640/2/4 641/2/4 646/2/4
f 646/2/4 641/2/4 647/2/4
f 643/3/4 644/3/4 650/3/4
f 644/1/4 645/1/4 651/1/4
f 650/3/4 644/3/4 651/3/4
f 651/1/4 645/1/4 652/1/4
f 648/3/4 649/3/4 654/3/4
f 654/3/4 649/3/4 655/3/4
f 652/1/4 653/1/4 656/1/4
f 656/1/4 653/1/4 657/1/4
f 658/3/4 659/3/4 663/3/4
f 663/3/4 659/3/4 664/3/4
f 660/1/4 661/1/4 665/1/4
f 665/1/4 661/1/4 666/1/4
f 662/2/4 663/2/4 669/2/4
f 669/2/4 663/2/4 670/2/4
f 665/2/4 666/2/4 671/2/4
f 664/2/4 665/2/4 671/2/4
f 671/2/4 666/2/4 672/2/4
f 672/2/4 666/2/4 673/2/4
f 667/2/4 668/2/4 674/2/4
f 674/2/4 668/2/4 675/2/4
f 676/1/4 677/1/4 680/1/4
f 680/1/4 677/1/4 681/1/4
f 678/1/4 679/1/4 682/1/4
f 682/1/4 679/1/4 683/1/4
f 684/3/4 685/3/4 688/3/4
f 688/3/4 685/3/4 689/3/4
f 686/1/4 687/1/4 690/1/4
f 690/1/4 687/1/4 691/1/4
f 692/1/4 693/1/4 695/1/4
f 695/1/4 693/1/4 696/1/4
f 694/2/4 695/2/4 701/2/4
f 695/2/4 696/2/4 701/2/4
f 696/2/4 697/2/4 701/2/4
f 701/2/4 697/2/4 702/2/4
f 702/2/4 697/2/4 703/2/4
f 698/2/4 699/2/4 704/2/4
f 699/2/4 700/2/4 704/2/4
f 704/2/4 700/2/4 705/2/4
f 705/2/4 700/2/4 706/2/4
f 702/3/4 703/3/4 707/3/4
f 707/3/4 703/3/4 708/3/4
f 709/1/4 710/1/4 713/1/4
f 713/1/4 710/1/4 714/1/4
f 711/1/4 712/1/4 717/1/4
f 717/1/4 712/1/4 718/1/4
f 715/2/4 716/2/4 719/2/4
f 714/2/4 715/2/4 719/2/4
f 719/2/4 716/2/4 720/2/4
f 720/2/4 716/2/4 721/2/4
f 717/2/4 718/2/4 723/2/4
f 723/2/4 718/2/4 724/2/4
f 720/1/4 721/1/4 725/1/4
f 725/1/4 721/1/4 726/1/4
f 722/3/4 723/3/4 727/3/4
f 727/3/4 723/3/4 728/3/4
f 726/1/4 727/1/4 729/1/4
f 729/1/4 727/1/4 730/1/4
f 731/3/4 732/3/4 735/3/4
f 732/1/4 733/1/4 736/1/4
f 735/3/4 732/3/4 736/3/4
f 736/1/4 733/1/4 737/1/4
f 734/2/4 735/2/4 739/2/4
f 739/2/4 735/2/4 740/2/4
f 740/2/4 735/2/4 741/2/4
f 737/2/4 738/2/4 742/2/4
f 736/2/4 737/2/4 742/2/4
f 742/2/4 738/2/4 743/2/4
f 743/2/4 738/2/4 744/2/4
f 740/1/4 741/1/4 746/1/4
f 746/1/4 741/1/4 747/1/4
f 742/3/4 743/3/4 748/3/4
f 748/3/4 743/3/4 749/3/4
f 745/3/4 746/3/4 751/3/4
f 751/3/4 746/3/4 752/3/4
f 749/1/4 750/1/4 753/1/4
f 748/1/4 749/1/4 753/1/4
f 753/1/4 750/1/4 754/1/4
f 751/1/4 752/1/4 755/1/4
f 755/1/4 752/1/4 756/1/4
f 756/3/4 757/3/4 760/3/4
f 757/1/4 758/1/4 761/1/4
f 760/3/4 757/3/4 761/3/4
f 761/1/4 758/1/4 762/1/4
f 759/2/4 760/2/4 766/2/4
f 766/2/4 760/2/4 767/2/4
f 762/2/4 763/2/4 769/2/4
f 769/2/4 763/2/4 770/2/4
f 764/2/4 765/2/4 771/2/4
f 771/2/4 765/2/4 772/2/4
f 768/3/4 769/3/4 773/3/4
f 769/1/4 770/1/4 774/1/4
f 773/3/4 769/3/4 774/3/4
f 774/1/4 770/1/4 775/1/4
f 776/1/4 777/1/4 778/1/4
f 778/1/4 777/1/4 779/1/4
f 780/1/4 781/1/4 782/1/4
f 782/1/4 781/1/4 783/1/4
f 783/1/4 784/1/4 787/1/4
f 787/1/4 784/1/4 788/1/4
f 785/3/4 786/3/4 789/3/4
f 789/3/4 786/3/4 790/3/4
f 797/2/5 792/2/5 791/2/5
f 798/2/5 792/2/5 797/2/5
f 799/1/5 794/1/5 793/1/5
f 800/1/5 794/1/5 799/1/5
f 801/1/5 794/1/5 800/1/5
f 802/2/5 796/2/5 795/2/5
f 803/2/5 796/2/5 802/2/5
f 804/1/5 798/1/5 797/1/5
f 804/1/5 799/1/5 798/1/5
f 804/1/5 800/1/5 799/1/5
f 805/1/5 800/1/5 804/1/5
f 806/1/5 800/1/5 805/1/5
f 807/2/5 801/2/5 800/2/5
f 807/1/5 800/1/5 806/1/5
f 808/2/5 801/2/5 807/2/5
f 809/3/5 803/3/5 802/3/5
f 810/3/5 803/3/5 809/3/5
f 811/2/5 806/2/5 805/2/5
f 812/2/5 806/2/5 811/2/5
f 818/2/5 814/2/5 813/2/5
f 819/2/5 814/2/5 818/2/5
f 821/1/5 816/1/5 815/1/5
f 822/2/5 817/2/5 816/2/5
f 822/1/5 816/1/5 821/1/5
f 823/1/5 818/1/5 817/1/5
f 823/2/5 817/2/5 822/2/5
f 826/2/5 821/2/5 820/2/5
f 827/2/5 821/2/5 826/2/5
f 828/3/5 823/3/5 822/3/5
f 829/1/5 818/1/5 823/1/5
f 829/3/5 823/3/5 828/3/5
f 830/1/5 818/1/5 829/1/5
f 831/2/5 825/2/5 824/2/5
f 832/2/5 825/2/5 831/2/5
f 833/1/5 831/1/5 830/1/5
f 834/1/5 831/1/5 833/1/5
f 838/3/5 836/3/5 835/3/5
f 839/3/5 836/3/5 838/3/5
f 842/1/5 838/1/5 837/1/5
f 843/1/5 838/1/5 842/1/5
f 844/1/5 841/1/5 840/1/5
f 845/1/5 841/1/5 844/1/5
f 848/3/5 847/3/5 846/3/5
f 849/3/5 847/3/5 848/3/5
f 853/3/5 850/3/5 849/3/5
f 854/3/5 850/3/5 853/3/5
f 855/1/5 852/1/5 851/1/5
f 856/1/5 852/1/5 855/1/5
f 861/1/5 858/1/5 857/1/5
f 862/1/5 858/1/5 861/1/5
f 863/3/5 860/3/5 859/3/5
f 864/3/5 860/3/5 863/3/5
f 866/1/5 865/1/5 864/1/5
f 867/1/5 865/1/5 866/1/5
f 870/1/5 869/1/5 868/1/5
f 871/1/5 869/1/5 870/1/5
f 877/3/5 872/3/5 871/3/5
f 878/3/5 872/3/5 877/3/5
f 879/1/5 874/1/5 873/1/5
f 880/1/5 874/1/5 879/1/5
f 882/3/5 876/3/5 875/3/5
f 883/3/5 876/3/5 882/3/5
f 885/1/5 882/1/5 881/1/5
f 886/1/5 882/1/5 885/1/5
f 889/3/5 885/3/5 884/3/5
f 890/3/5 885/3/5 889/3/5
f 892/3/5 888/3/5 887/3/5
f 893/3/5 888/3/5 892/3/5
f 896/1/5 891/1/5 890/1/5
f 897/1/5 891/1/5 896/1/5
f 900/3/5 895/3/5 894/3/5
f 901/3/5 895/3/5 900/3/5
f 903/3/5 899/3/5 898/3/5
f 904/3/5 899/3/5 903/3/5
f 905/1/5 902/1/5 901/1/5
f 906/1/5 902/1/5 905/1/5
f 911/3/5 908/3/5 907/3/5
f 912/3/5 908/3/5 911/3/5
f 913/1/5 910/1/5 909/1/5
f 914/1/5 910/1/5 913/1/5
f 918/3/5 915/3/5 914/3/5
f 919/3/5 915/3/5 918/3/5
f 920/1/5 917/1/5 916/1/5
f 921/1/5 917/1/5 920/1/5
f 927/1/5 923/1/5 922/1/5
f 928/1/5 923/1/5 927/1/5
f 929/3/5 925/3/5 924/3/5
f 930/1/5 926/1/5 925/1/5
f 930/3/5 925/3/5 929/3/5
f 931/1/5 926/1/5 930/1/5
f 936/3/5 933/3/5 932/3/5
f 937/3/5 933/3/5 936/3/5
f 938/3/5 935/3/5 934/3/5
f 939/3/5 935/3/5 938/3/5
f 944/1/5 941/1/5 940/1/5
f 945/1/5 941/1/5 944/1/5
f 948/1/5 943/1/5 942/1/5
f 949/1/5 943/1/5 948/1/5
f 952/1/5 947/1/5 946/1/5
f 953/3/5 948/3/5 947/3/5
f 953/1/5 947/1/5 952/1/5
f 954/3/5 948/3/5 953/3/5
f 956/1/5 951/1/5 950/1/5
f 957/1/5 951/1/5 956/1/5
f 962/3/5 956/3/5 955/3/5
f 963/3/5 956/3/5 962/3/5
f 964/3/5 959/3/5 958/3/5
f 965/3/5 959/3/5 964/3/5
f 966/1/5 961/1/5 960/1/5
f 967/1/5 961/1/5 966/1/5
f 970/3/5 969/3/5 968/3/5
f 971/3/5 969/3/5 970/3/5
f 974/1/5 973/1/5 972/1/5
f 975/1/5 973/1/5 974/1/5
f 978/1/5 977/1/5 976/1/5
f 979/1/5 977/1/5 978/1/5
f 980/1/6 981/1/6 984/1/6
f 984/1/6 981/1/6 985/1/6
f 982/1/6 983/1/6 988/1/6
f 988/1/6 983/1/6 989/1/6
f 984/1/6 985/1/6 990/1/6
f 990/1/6 985/1/6 991/1/6
f 986/3/6 987/3/6 992/3/6
f 992/3/6 987/3/6 993/3/6
f 994/1/6 995/1/6 998/1/6
f 998/1/6 995/1/6 999/1/6
f 996/1/6 997/1/6 1000/1/6
f 1000/1/6 997/1/6 1001/1/6
f 999/3/6 1000/3/6 1002/3/6
f 1000/1/6 1001/1/6 1003/1/6
f 1002/3/6 1000/3/6 1003/3/6
f 1003/1/6 1001/1/6 1004/1/6
f 1004/1/6 1005/1/6 1006/1/6
f 1006/1/6 1005/1/6 1007/1/6
f 1008/1/6 1009/1/6 1012/1/6
f 1012/1/6 1009/1/6 1013/1/6
f 1010/1/6 1011/1/6 1016/1/6
f 1016/1/6 1011/1/6 1017/1/6
f 1014/1/6 1015/1/6 1019/1/6
f 1019/1/6 1015/1/6 1020/1/6
f 1018/3/6 1019/3/6 1021/3/6
f 1021/3/6 1019/3/6 1022/3/6
f 1022/3/6 1023/3/6 1026/3/6
f 1026/3/6 1023/3/6 1027/3/6
f 1024/1/6 1025/1/6 1028/1/6
f 1028/1/6 1025/1/6 1029/1/6
f 1030/1/6 1031/1/6 1032/1/6
f 1032/1/6 1031/1/6 1033/1/6
f 1034/1/6 1035/1/6 1038/1/6
f 1038/1/6 1035/1/6 1039/1/6
f 1036/1/6 1037/1/6 1042/1/6
f 1042/1/6 1037/1/6 1043/1/6
f 1040/1/6 1041/1/6 1046/1/6
f 1046/1/6 1041/1/6 1047/1/6
f 1044/1/6 1045/1/6 1048/1/6
f 1048/1/6 1045/1/6 1049/1/6
f 1050/1/6 1051/1/6 1053/1/6
f 1053/1/6 1051/1/6 1054/1/6
f 1052/3/6 1053/3/6 1057/3/6
f 1057/3/6 1053/3/6 1058/3/6
f 1055/3/6 1056/3/6 1060/3/6
f 1060/3/6 1056/3/6 1061/3/6
f 1058/1/6 1059/1/6 1062/1/6
f 1062/1/6 1059/1/6 1063/1/6
f 1063/1/6 1064/1/6 1067/1/6
f 1067/1/6 1064/1/6 1068/1/6
f 1065/1/6 1066/1/6 1070/1/6
f 1070/1/6 1066/1/6 1071/1/6
f 1068/1/6 1069/1/6 1072/1/6
f 1072/1/6 1069/1/6 1073/1/6
f 1074/3/6 1075/3/6 1080/3/6
f 1080/3/6 1075/3/6 1081/3/6
f 1076/1/6 1077/1/6 1082/1/6
f 1082/1/6 1077/1/6 1083/1/6
f 1078/1/6 1079/1/6 1087/1/6
f 1087/1/6 1079/1/6 1088/1/6
f 1083/3/6 1084/3/6 1091/3/6
f 1091/3/6 1084/3/6 1092/3/6
f 1085/1/6 1086/1/6 1093/1/6
f 1093/1/6 1086/1/6 1094/1/6
f 1089/1/6 1090/1/6 1095/1/6
f 1095/1/6 1090/1/6 1096/1/6
f 1097/1/6 1098/1/6 1103/1/6
f 1103/1/6 1098/1/6 1104/1/6
f 1099/1/6 1100/1/6 1107/1/6
f 1107/1/6 1100/1/6 1108/1/6
f 1101/3/6 1102/3/6 1109/3/6
f 1109/3/6 1102/3/6 1110/3/6
f 1105/1/6 1106/1/6 1111/1/6
f 1111/1/6 1106/1/6 1112/1/6
f 1113/3/6 1114/3/6 1117/3/6
f 1117/3/6 1114/3/6 1118/3/6
f 1115/3/6 1116/3/6 1119/3/6
f 1119/3/6 1116/3/6 1120/3/6
f 1121/1/6 1122/1/6 1125/1/6
f 1125/1/6 1122/1/6 1126/1/6
f 1123/1/6 1124/1/6 1129/1/6
f 1129/1/6 1124/1/6 1130/1/6
f 1127/1/6 1128/1/6 1133/1/6
f 1128/3/6 1129/3/6 1134/3/6
f 1133/1/6 1128/1/6 1134/1/6
f 1134/3/6 1129/3/6 1135/3/6
f 1131/1/6 1132/1/6 1137/1/6
f 1137/1/6 1132/1/6 1138/1/6
f 1136/3/6 1137/3/6 1143/3/6
f 1143/3/6 1137/3/6 1144/3/6
f 1139/3/6 1140/3/6 1146/3/6
f 1146/3/6 1140/3/6 1147/3/6
f 1141/1/6 1142/1/6 1148/1/6
f 1148/1/6 1142/1/6 1149/1/6
f 1145/1/6 1146/1/6 1150/1/6
f 1150/1/6 1146/1/6 1151/1/6
f 1152/3/6 1153/3/6 1154/3/6
f 1154/3/6 1153/3/6 1155/3/6
f 1156/2/6 1157/2/6 1160/2/6
f 1160/2/6 1157/2/6 1161/2/6
f 1158/2/6 1159/2/6 1165/2/6
f 1165/2/6 1159/2/6 1166/2/6
f 1162/1/6 1163/1/6 1168/1/6
f 1163/2/6 1164/2/6 1169/2/6
f 1168/1/6 1163/1/6 1169/1/6
f 1169/2/6 1164/2/6 1170/2/6
f 1167/2/6 1168/2/6 1171/2/6
f 1171/2/6 1168/2/6 1172/2/6
f 1173/2/6 1174/2/6 1178/2/6
f 1178/2/6 1174/2/6 1179/2/6
f 1175/1/6 1176/1/6 1181/1/6
f 1176/2/6 1177/2/6 1182/2/6
f 1181/1/6 1176/1/6 1182/1/6
f 1182/2/6 1177/2/6 1183/2/6
f 1180/2/6 1181/2/6 1186/2/6
f 1186/2/6 1181/2/6 1187/2/6
f 1184/2/6 1185/2/6 1188/2/6
f 1188/2/6 1185/2/6 1189/2/6
