# MagicaVoxel @ Ephtracy

# group
o 

# material
mtllib granjafinal_chancho2.mtl
usemtl palette

# normals
vn 0 0 1
vn 0 0 -1
vn -1 0 0
vn 1 0 0
vn 0 1 0
vn 0 -1 0

# texcoords
vt 0.416016 0.5
vt 0.423828 0.5
vt 0.728516 0.5

# verts
v 2.4 4.9 4
v 2.5 4.9 4
v 2.4 4.8 4
v 2.5 4.8 4
v 2.4 5.2 3.9
v 2.5 5.2 3.9
v 2.8 5.2 3.9
v 2.9 5.2 3.9
v 2.4 5.1 3.9
v 2.5 5.1 3.9
v 2.8 5.1 3.9
v 2.9 5.1 3.9
v 2.3 5 3.9
v 2.4 5 3.9
v 2.5 5 3.9
v 2.8 5 3.9
v 2.9 5 3.9
v 2.4 4.9 3.9
v 2.5 4.9 3.9
v 2.7 4.9 3.9
v 2.9 4.9 3.9
v 3 4.9 3.9
v 2.3 4.8 3.9
v 2.4 4.8 3.9
v 2.5 4.8 3.9
v 2.7 4.8 3.9
v 2.9 4.8 3.9
v 3 4.8 3.9
v 2.2 5 3.8
v 2.3 5 3.8
v 2.9 5 3.8
v 3 5 3.8
v 2.2 4.9 3.8
v 2.3 4.9 3.8
v 2.9 4.9 3.8
v 3 4.9 3.8
v 2.4 5.2 3.7
v 2.5 5.2 3.7
v 2.8 5.2 3.7
v 2.9 5.2 3.7
v 2.4 5.1 3.7
v 2.5 5.1 3.7
v 2.8 5.1 3.7
v 2.9 5.1 3.7
v 2.4 5.2 3.8
v 2.5 5.2 3.8
v 2.8 5.2 3.8
v 2.9 5.2 3.8
v 2.4 5.1 3.8
v 2.5 5.1 3.8
v 2.8 5.1 3.8
v 2.9 5.1 3.8
v 2.9 4.9 3.8
v 3 4.9 3.8
v 2.9 4.8 3.8
v 3 4.8 3.8
v 2.2 5 3.7
v 2.3 5 3.7
v 2.9 5 3.7
v 3 5 3.7
v 2.2 4.9 3.7
v 2.3 4.9 3.7
v 2.9 4.9 3.7
v 3 4.9 3.7
v 2.4 5.2 3.6
v 2.5 5.2 3.6
v 2.8 5.2 3.6
v 2.9 5.2 3.6
v 2.4 5.1 3.6
v 2.5 5.1 3.6
v 2.6 5.1 3.6
v 2.7 5.1 3.6
v 2.8 5.1 3.6
v 2.9 5.1 3.6
v 2.3 5 3.6
v 2.4 5 3.6
v 2.6 5 3.6
v 2.4 4.9 3.6
v 2.5 4.9 3.6
v 2.7 4.9 3.6
v 2.9 4.9 3.6
v 2.3 4.8 3.6
v 2.4 4.8 3.6
v 2.5 4.8 3.6
v 2.9 4.8 3.6
v 2.4 4.9 3.5
v 2.5 4.9 3.5
v 2.4 4.8 3.5
v 2.5 4.8 3.5
v 2.2 5 3.8
v 2.2 4.9 3.8
v 2.2 5 3.7
v 2.2 4.9 3.7
v 2.3 5 3.9
v 2.3 4.8 3.9
v 2.3 5 3.8
v 2.3 4.9 3.8
v 2.3 5 3.7
v 2.3 4.9 3.7
v 2.3 5 3.6
v 2.3 4.8 3.6
v 2.4 4.9 4
v 2.4 4.8 4
v 2.4 5.2 3.9
v 2.4 5.1 3.9
v 2.4 5 3.9
v 2.4 4.9 3.9
v 2.4 4.8 3.9
v 2.4 5.2 3.8
v 2.4 5.1 3.8
v 2.4 5 3.8
v 2.4 5.2 3.7
v 2.4 5.1 3.7
v 2.4 5.2 3.6
v 2.4 5.1 3.6
v 2.4 5 3.6
v 2.4 4.9 3.6
v 2.4 4.8 3.6
v 2.4 4.9 3.5
v 2.4 4.8 3.5
v 2.8 5.2 3.9
v 2.8 5.1 3.9
v 2.8 5.2 3.8
v 2.8 5.1 3.8
v 2.8 5.2 3.7
v 2.8 5.1 3.7
v 2.8 5.2 3.6
v 2.8 5.1 3.6
v 2.5 4.9 4
v 2.5 4.8 4
v 2.5 5.2 3.9
v 2.5 5.1 3.9
v 2.5 4.9 3.9
v 2.5 4.8 3.9
v 2.5 5.2 3.8
v 2.5 5.1 3.8
v 2.5 5.2 3.7
v 2.5 5.1 3.7
v 2.5 5.2 3.6
v 2.5 5.1 3.6
v 2.5 4.9 3.6
v 2.5 4.8 3.6
v 2.5 4.9 3.5
v 2.5 4.8 3.5
v 2.9 5.2 3.9
v 2.9 5.1 3.9
v 2.9 5 3.9
v 2.9 4.9 3.9
v 2.9 5.2 3.8
v 2.9 5.1 3.8
v 2.9 5 3.8
v 2.9 4.9 3.8
v 2.9 4.8 3.8
v 2.9 5.2 3.7
v 2.9 5.1 3.7
v 2.9 5 3.7
v 2.9 4.9 3.7
v 2.9 4.8 3.7
v 2.9 5.2 3.6
v 2.9 5.1 3.6
v 2.9 4.9 3.6
v 2.9 4.8 3.6
v 3 4.9 3.9
v 3 4.8 3.9
v 3 5 3.8
v 3 4.9 3.8
v 3 4.8 3.8
v 3 5 3.7
v 3 4.9 3.7
v 2.4 5.2 3.9
v 2.4 5.2 3.8
v 2.4 5.2 3.7
v 2.4 5.2 3.6
v 2.5 5.2 3.9
v 2.5 5.2 3.8
v 2.5 5.2 3.7
v 2.5 5.2 3.6
v 2.8 5.2 3.9
v 2.8 5.2 3.8
v 2.8 5.2 3.7
v 2.8 5.2 3.6
v 2.9 5.2 3.9
v 2.9 5.2 3.8
v 2.9 5.2 3.7
v 2.9 5.2 3.6
v 2.4 5.1 3.8
v 2.4 5.1 3.7
v 2.5 5.1 3.9
v 2.5 5.1 3.8
v 2.5 5.1 3.7
v 2.5 5.1 3.6
v 2.6 5.1 3.8
v 2.6 5.1 3.6
v 2.7 5.1 3.8
v 2.7 5.1 3.6
v 2.8 5.1 3.9
v 2.8 5.1 3.8
v 2.8 5.1 3.7
v 2.8 5.1 3.6
v 2.9 5.1 3.8
v 2.9 5.1 3.7
v 2.2 5 3.8
v 2.2 5 3.7
v 2.3 5 3.9
v 2.3 5 3.8
v 2.3 5 3.7
v 2.3 5 3.6
v 2.4 5 3.9
v 2.4 5 3.8
v 2.4 5 3.6
v 2.9 5 3.8
v 2.9 5 3.7
v 3 5 3.8
v 3 5 3.7
v 2.4 4.9 4
v 2.4 4.9 3.9
v 2.4 4.9 3.6
v 2.4 4.9 3.5
v 2.5 4.9 4
v 2.5 4.9 3.9
v 2.5 4.9 3.6
v 2.5 4.9 3.5
v 2.9 4.9 3.9
v 2.9 4.9 3.8
v 3 4.9 3.9
v 3 4.9 3.8
v 2.2 4.9 3.8
v 2.2 4.9 3.7
v 2.3 4.9 3.8
v 2.3 4.9 3.7
v 2.9 4.9 3.8
v 2.9 4.9 3.7
v 3 4.9 3.8
v 3 4.9 3.7
v 2.3 4.8 3.9
v 2.3 4.8 3.6
v 2.4 4.8 4
v 2.4 4.8 3.9
v 2.4 4.8 3.6
v 2.4 4.8 3.5
v 2.5 4.8 4
v 2.5 4.8 3.9
v 2.5 4.8 3.7
v 2.5 4.8 3.6
v 2.5 4.8 3.5
v 2.7 4.8 3.9
v 2.7 4.8 3.8
v 2.9 4.8 3.9
v 2.9 4.8 3.8
v 2.9 4.8 3.7
v 2.9 4.8 3.6
v 3 4.8 3.9
v 3 4.8 3.8

# faces
f 3/1/1 2/1/1 1/1/1
f 4/1/1 2/1/1 3/1/1
f 9/1/1 6/1/1 5/1/1
f 10/1/1 6/1/1 9/1/1
f 11/1/1 8/1/1 7/1/1
f 12/1/1 8/1/1 11/1/1
f 14/3/1 10/3/1 9/3/1
f 14/3/1 11/3/1 10/3/1
f 15/3/1 11/3/1 14/3/1
f 16/2/1 12/2/1 11/2/1
f 16/3/1 11/3/1 15/3/1
f 17/2/1 12/2/1 16/2/1
f 18/2/1 15/2/1 14/2/1
f 18/2/1 14/2/1 13/2/1
f 19/3/1 17/3/1 16/3/1
f 19/2/1 15/2/1 18/2/1
f 19/3/1 16/3/1 15/3/1
f 20/3/1 17/3/1 19/3/1
f 21/3/1 17/3/1 20/3/1
f 23/2/1 18/2/1 13/2/1
f 24/2/1 18/2/1 23/2/1
f 25/2/1 20/2/1 19/2/1
f 26/3/1 21/3/1 20/3/1
f 26/2/1 20/2/1 25/2/1
f 27/1/1 22/1/1 21/1/1
f 27/3/1 21/3/1 26/3/1
f 28/1/1 22/1/1 27/1/1
f 33/1/1 30/1/1 29/1/1
f 34/1/1 30/1/1 33/1/1
f 35/1/1 32/1/1 31/1/1
f 36/1/1 32/1/1 35/1/1
f 41/1/1 38/1/1 37/1/1
f 42/1/1 38/1/1 41/1/1
f 43/1/1 40/1/1 39/1/1
f 44/1/1 40/1/1 43/1/1
f 45/1/2 46/1/2 49/1/2
f 49/1/2 46/1/2 50/1/2
f 47/1/2 48/1/2 51/1/2
f 51/1/2 48/1/2 52/1/2
f 53/1/2 54/1/2 55/1/2
f 55/1/2 54/1/2 56/1/2
f 57/1/2 58/1/2 61/1/2
f 61/1/2 58/1/2 62/1/2
f 59/1/2 60/1/2 63/1/2
f 63/1/2 60/1/2 64/1/2
f 65/1/2 66/1/2 69/1/2
f 69/1/2 66/1/2 70/1/2
f 67/1/2 68/1/2 73/1/2
f 73/1/2 68/1/2 74/1/2
f 69/2/2 70/2/2 76/2/2
f 70/2/2 71/2/2 76/2/2
f 71/3/2 72/3/2 77/3/2
f 76/2/2 71/2/2 77/2/2
f 75/2/2 76/2/2 78/2/2
f 76/3/2 77/3/2 78/3/2
f 78/3/2 77/3/2 79/3/2
f 77/3/2 72/3/2 80/3/2
f 79/3/2 77/3/2 80/3/2
f 73/2/2 74/2/2 80/2/2
f 72/2/2 73/2/2 80/2/2
f 80/2/2 74/2/2 81/2/2
f 75/2/2 78/2/2 82/2/2
f 82/2/2 78/2/2 83/2/2
f 80/3/2 81/3/2 84/3/2
f 79/3/2 80/3/2 84/3/2
f 84/3/2 81/3/2 85/3/2
f 86/3/2 87/3/2 88/3/2
f 88/3/2 87/3/2 89/3/2
f 92/1/3 91/1/3 90/1/3
f 93/1/3 91/1/3 92/1/3
f 96/2/3 95/2/3 94/2/3
f 97/2/3 95/2/3 96/2/3
f 99/2/3 95/2/3 97/2/3
f 100/2/3 99/2/3 98/2/3
f 101/2/3 95/2/3 99/2/3
f 101/2/3 99/2/3 100/2/3
f 107/1/3 103/1/3 102/1/3
f 108/1/3 103/1/3 107/1/3
f 109/1/3 105/1/3 104/1/3
f 110/3/3 106/3/3 105/3/3
f 110/1/3 105/1/3 109/1/3
f 111/3/3 106/3/3 110/3/3
f 113/2/3 111/2/3 110/2/3
f 114/1/3 113/1/3 112/1/3
f 115/2/3 111/2/3 113/2/3
f 115/1/3 113/1/3 114/1/3
f 116/2/3 111/2/3 115/2/3
f 119/3/3 118/3/3 117/3/3
f 120/3/3 118/3/3 119/3/3
f 123/1/3 122/1/3 121/1/3
f 124/1/3 122/1/3 123/1/3
f 127/1/3 126/1/3 125/1/3
f 128/1/3 126/1/3 127/1/3
f 129/1/4 130/1/4 133/1/4
f 133/1/4 130/1/4 134/1/4
f 131/1/4 132/1/4 135/1/4
f 135/1/4 132/1/4 136/1/4
f 137/1/4 138/1/4 139/1/4
f 139/1/4 138/1/4 140/1/4
f 141/3/4 142/3/4 143/3/4
f 143/3/4 142/3/4 144/3/4
f 145/1/4 146/1/4 149/1/4
f 146/2/4 147/2/4 150/2/4
f 149/1/4 146/1/4 150/1/4
f 147/3/4 148/3/4 151/3/4
f 150/2/4 147/2/4 151/2/4
f 151/3/4 148/3/4 152/3/4
f 150/2/4 151/2/4 155/2/4
f 155/2/4 151/2/4 156/2/4
f 152/2/4 153/2/4 157/2/4
f 157/2/4 153/2/4 158/2/4
f 154/1/4 155/1/4 159/1/4
f 155/2/4 156/2/4 160/2/4
f 159/1/4 155/1/4 160/1/4
f 156/2/4 157/2/4 160/2/4
f 157/3/4 158/3/4 161/3/4
f 160/2/4 157/2/4 161/2/4
f 161/3/4 158/3/4 162/3/4
f 163/1/4 164/1/4 166/1/4
f 166/1/4 164/1/4 167/1/4
f 165/1/4 166/1/4 168/1/4
f 168/1/4 166/1/4 169/1/4
f 174/1/5 171/1/5 170/1/5
f 175/1/5 171/1/5 174/1/5
f 176/1/5 173/1/5 172/1/5
f 177/1/5 173/1/5 176/1/5
f 182/1/5 179/1/5 178/1/5
f 183/1/5 179/1/5 182/1/5
f 184/1/5 181/1/5 180/1/5
f 185/1/5 181/1/5 184/1/5
f 189/2/5 187/2/5 186/2/5
f 190/2/5 187/2/5 189/2/5
f 192/3/5 189/3/5 188/3/5
f 192/2/5 191/2/5 190/2/5
f 192/2/5 190/2/5 189/2/5
f 193/2/5 191/2/5 192/2/5
f 194/3/5 192/3/5 188/3/5
f 194/3/5 193/3/5 192/3/5
f 195/3/5 193/3/5 194/3/5
f 196/3/5 194/3/5 188/3/5
f 197/2/5 195/2/5 194/2/5
f 197/3/5 194/3/5 196/3/5
f 198/2/5 195/2/5 197/2/5
f 199/2/5 195/2/5 198/2/5
f 200/2/5 198/2/5 197/2/5
f 201/2/5 198/2/5 200/2/5
f 205/1/5 203/1/5 202/1/5
f 206/1/5 203/1/5 205/1/5
f 208/2/5 205/2/5 204/2/5
f 208/2/5 207/2/5 206/2/5
f 208/2/5 206/2/5 205/2/5
f 209/2/5 207/2/5 208/2/5
f 210/2/5 207/2/5 209/2/5
f 213/1/5 212/1/5 211/1/5
f 214/1/5 212/1/5 213/1/5
f 219/1/5 216/1/5 215/1/5
f 220/1/5 216/1/5 219/1/5
f 221/3/5 218/3/5 217/3/5
f 222/3/5 218/3/5 221/3/5
f 225/1/5 224/1/5 223/1/5
f 226/1/5 224/1/5 225/1/5
f 227/1/6 228/1/6 229/1/6
f 229/1/6 228/1/6 230/1/6
f 231/1/6 232/1/6 233/1/6
f 233/1/6 232/1/6 234/1/6
f 235/2/6 236/2/6 238/2/6
f 238/2/6 236/2/6 239/2/6
f 237/1/6 238/1/6 241/1/6
f 238/2/6 239/2/6 242/2/6
f 241/1/6 238/1/6 242/1/6
f 242/2/6 239/2/6 243/2/6
f 239/3/6 240/3/6 244/3/6
f 243/2/6 239/2/6 244/2/6
f 244/3/6 240/3/6 245/3/6
f 242/2/6 243/2/6 246/2/6
f 246/2/6 243/2/6 247/2/6
f 246/3/6 247/3/6 248/3/6
f 247/2/6 243/2/6 249/2/6
f 248/3/6 247/3/6 249/3/6
f 243/3/6 244/3/6 250/3/6
f 249/2/6 243/2/6 250/2/6
f 250/3/6 244/3/6 251/3/6
f 248/1/6 249/1/6 252/1/6
f 252/1/6 249/1/6 253/1/6
