# MagicaVoxel @ Ephtracy

# group
o 

# material
mtllib granjafinal_granero.mtl
usemtl palette

# normals
vn -1 0 0
vn 1 0 0
vn 0 0 1
vn 0 0 -1
vn 0 -1 0
vn 0 1 0

# texcoords
vt 0.443359 0.5
vt 0.447266 0.5
vt 0.892578 0.5
vt 0.919922 0.5
vt 0.943359 0.5
vt 0.947266 0.5
vt 0.951172 0.5

# verts
v -0.9 5.8 -4.1
v -0.9 5.8 -6
v -0.9 5.9 -4.1
v -0.9 5.9 -6
v -0.8 5.9 -4.1
v -0.8 5.9 -4.2
v -0.8 5.9 -4.3
v -0.8 5.9 -4.6
v -0.8 5.9 -4.7
v -0.8 5.9 -5
v -0.8 5.9 -5.1
v -0.8 5.9 -5.4
v -0.8 5.9 -5.5
v -0.8 5.9 -5.8
v -0.8 5.9 -5.9
v -0.8 5.9 -6
v -0.8 6 -4.1
v -0.8 6 -4.2
v -0.8 6 -4.3
v -0.8 6 -4.6
v -0.8 6 -4.7
v -0.8 6 -5
v -0.8 6 -5.1
v -0.8 6 -5.4
v -0.8 6 -5.5
v -0.8 6 -5.8
v -0.8 6 -5.9
v -0.8 6 -6
v -0.7 4.8 -4.1
v -0.7 4.8 -6
v -0.7 4.9 -4.3
v -0.7 4.9 -4.6
v -0.7 4.9 -4.7
v -0.7 4.9 -5.1
v -0.7 4.9 -5.4
v -0.7 4.9 -5.7
v -0.7 4.9 -5.9
v -0.7 4.9 -6
v -0.7 5 -4.2
v -0.7 5 -4.3
v -0.7 5 -4.5
v -0.7 5 -4.6
v -0.7 5 -4.7
v -0.7 5 -4.8
v -0.7 5 -5.1
v -0.7 5 -5.2
v -0.7 5 -5.3
v -0.7 5 -5.4
v -0.7 5 -5.6
v -0.7 5 -5.7
v -0.7 5 -5.8
v -0.7 5 -5.9
v -0.7 5.1 -4.2
v -0.7 5.1 -4.5
v -0.7 5.1 -4.8
v -0.7 5.1 -5.2
v -0.7 5.1 -5.3
v -0.7 5.1 -5.6
v -0.7 5.1 -5.8
v -0.7 5.1 -6
v -0.7 5.2 -4.1
v -0.7 5.2 -4.3
v -0.7 5.2 -4.5
v -0.7 5.2 -4.9
v -0.7 5.2 -5.1
v -0.7 5.2 -5.3
v -0.7 5.2 -5.5
v -0.7 5.2 -5.8
v -0.7 5.3 -4.1
v -0.7 5.3 -4.2
v -0.7 5.3 -4.3
v -0.7 5.3 -4.4
v -0.7 5.3 -4.5
v -0.7 5.3 -4.6
v -0.7 5.3 -4.9
v -0.7 5.3 -5
v -0.7 5.3 -5.1
v -0.7 5.3 -5.2
v -0.7 5.3 -5.3
v -0.7 5.3 -5.4
v -0.7 5.3 -5.5
v -0.7 5.3 -5.6
v -0.7 5.3 -5.8
v -0.7 5.3 -5.9
v -0.7 5.4 -4.2
v -0.7 5.4 -4.4
v -0.7 5.4 -4.6
v -0.7 5.4 -5
v -0.7 5.4 -5.2
v -0.7 5.4 -5.4
v -0.7 5.4 -5.6
v -0.7 5.4 -5.9
v -0.7 5.5 -4.2
v -0.7 5.5 -4.6
v -0.7 5.5 -4.7
v -0.7 5.5 -5.1
v -0.7 5.5 -5.3
v -0.7 5.5 -5.6
v -0.7 5.5 -5.9
v -0.7 5.5 -6
v -0.7 5.6 -4.1
v -0.7 5.6 -4.2
v -0.7 5.6 -4.5
v -0.7 5.6 -4.6
v -0.7 5.6 -4.7
v -0.7 5.6 -4.8
v -0.7 5.6 -5.1
v -0.7 5.6 -5.2
v -0.7 5.6 -5.3
v -0.7 5.6 -5.4
v -0.7 5.6 -5.6
v -0.7 5.6 -5.8
v -0.7 5.7 -4.1
v -0.7 5.7 -4.5
v -0.7 5.7 -4.8
v -0.7 5.7 -5.2
v -0.7 5.7 -5.4
v -0.7 5.7 -5.8
v -0.7 5.7 -5.9
v -0.7 5.7 -6
v -0.7 5.8 -4.1
v -0.7 5.8 -4.2
v -0.7 5.8 -5.9
v -0.7 5.8 -6
v -0.7 6 -4.1
v -0.7 6 -4.2
v -0.7 6 -4.3
v -0.7 6 -4.4
v -0.7 6 -4.5
v -0.7 6 -4.6
v -0.7 6 -4.7
v -0.7 6 -4.8
v -0.7 6 -4.9
v -0.7 6 -5
v -0.7 6 -5.1
v -0.7 6 -5.2
v -0.7 6 -5.3
v -0.7 6 -5.4
v -0.7 6 -5.5
v -0.7 6 -5.6
v -0.7 6 -5.7
v -0.7 6 -5.8
v -0.7 6 -5.9
v -0.7 6 -6
v -0.7 6.1 -4.1
v -0.7 6.1 -4.2
v -0.7 6.1 -4.4
v -0.7 6.1 -4.5
v -0.7 6.1 -4.8
v -0.7 6.1 -4.9
v -0.7 6.1 -5.2
v -0.7 6.1 -5.3
v -0.7 6.1 -5.6
v -0.7 6.1 -5.7
v -0.7 6.1 -5.9
v -0.7 6.1 -6
v -0.6 6.1 -4.1
v -0.6 6.1 -4.2
v -0.6 6.1 -4.3
v -0.6 6.1 -4.4
v -0.6 6.1 -4.5
v -0.6 6.1 -4.6
v -0.6 6.1 -4.7
v -0.6 6.1 -4.8
v -0.6 6.1 -4.9
v -0.6 6.1 -5
v -0.6 6.1 -5.1
v -0.6 6.1 -5.2
v -0.6 6.1 -5.3
v -0.6 6.1 -5.4
v -0.6 6.1 -5.5
v -0.6 6.1 -5.6
v -0.6 6.1 -5.7
v -0.6 6.1 -5.8
v -0.6 6.1 -5.9
v -0.6 6.1 -6
v -0.6 6.2 -4.1
v -0.6 6.2 -4.2
v -0.6 6.2 -4.3
v -0.6 6.2 -4.4
v -0.6 6.2 -4.5
v -0.6 6.2 -4.6
v -0.6 6.2 -4.7
v -0.6 6.2 -4.8
v -0.6 6.2 -4.9
v -0.6 6.2 -5
v -0.6 6.2 -5.1
v -0.6 6.2 -5.2
v -0.6 6.2 -5.3
v -0.6 6.2 -5.4
v -0.6 6.2 -5.5
v -0.6 6.2 -5.6
v -0.6 6.2 -5.7
v -0.6 6.2 -5.8
v -0.6 6.2 -5.9
v -0.6 6.2 -6
v -0.4 6.2 -4.1
v -0.4 6.2 -4.2
v -0.4 6.2 -4.3
v -0.4 6.2 -4.4
v -0.4 6.2 -4.5
v -0.4 6.2 -4.6
v -0.4 6.2 -4.7
v -0.4 6.2 -4.8
v -0.4 6.2 -4.9
v -0.4 6.2 -5
v -0.4 6.2 -5.1
v -0.4 6.2 -5.2
v -0.4 6.2 -5.3
v -0.4 6.2 -5.4
v -0.4 6.2 -5.5
v -0.4 6.2 -5.6
v -0.4 6.2 -5.7
v -0.4 6.2 -5.8
v -0.4 6.2 -5.9
v -0.4 6.2 -6
v -0.4 6.3 -4.1
v -0.4 6.3 -4.2
v -0.4 6.3 -4.4
v -0.4 6.3 -4.5
v -0.4 6.3 -4.8
v -0.4 6.3 -4.9
v -0.4 6.3 -5.2
v -0.4 6.3 -5.3
v -0.4 6.3 -5.6
v -0.4 6.3 -5.7
v -0.4 6.3 -5.9
v -0.4 6.3 -6
v -0.1 6.3 -4.1
v -0.1 6.3 -4.2
v -0.1 6.3 -4.3
v -0.1 6.3 -4.4
v -0.1 6.3 -4.5
v -0.1 6.3 -4.6
v -0.1 6.3 -4.7
v -0.1 6.3 -4.8
v -0.1 6.3 -4.9
v -0.1 6.3 -5
v -0.1 6.3 -5.1
v -0.1 6.3 -5.2
v -0.1 6.3 -5.3
v -0.1 6.3 -5.4
v -0.1 6.3 -5.5
v -0.1 6.3 -5.6
v -0.1 6.3 -5.7
v -0.1 6.3 -5.8
v -0.1 6.3 -5.9
v -0.1 6.3 -6
v -0.1 6.4 -4.1
v -0.1 6.4 -4.2
v -0.1 6.4 -4.4
v -0.1 6.4 -4.5
v -0.1 6.4 -4.8
v -0.1 6.4 -4.9
v -0.1 6.4 -5.2
v -0.1 6.4 -5.3
v -0.1 6.4 -5.6
v -0.1 6.4 -5.7
v -0.1 6.4 -5.9
v -0.1 6.4 -6
v 0.2 5.8 -4.1
v 0.2 5.8 -4.2
v 0.2 6 -4.1
v 0.2 6 -4.2
v 0.3 5.7 -4.2
v 0.3 5.7 -4.3
v 0.3 6.1 -4.2
v 0.3 6.1 -4.3
v 0.7 4.8 -4
v 0.7 4.8 -4.1
v 0.7 4.8 -4.2
v 0.7 5.5 -4
v 0.7 5.5 -4.1
v 0.7 5.5 -4.2
v 0.8 4.8 -3.9
v 0.8 4.8 -4
v 0.8 5 -3.9
v 0.8 5 -4
v 0.8 5.4 -3.9
v 0.8 5.4 -4
v 0.8 5.5 -3.9
v 0.8 5.5 -4
v 0.9 4.8 -3.8
v 0.9 4.8 -3.9
v 0.9 4.9 -3.8
v 0.9 4.9 -3.9
v 0.9 5 -3.8
v 0.9 5 -3.9
v 0.9 5.1 -3.8
v 0.9 5.1 -3.9
v 0.9 5.4 -3.8
v 0.9 5.4 -3.9
v 0.9 5.5 -3.8
v 0.9 5.5 -3.9
v 1 4.8 -3.7
v 1 4.8 -3.8
v 1 4.9 -3.7
v 1 4.9 -3.8
v 1 5 -3.8
v 1 5.1 -3.7
v 1 5.1 -3.8
v 1 5.2 -3.7
v 1 5.2 -3.8
v 1 5.4 -3.7
v 1 5.4 -3.8
v 1 5.5 -3.7
v 1 5.5 -3.8
v 1.1 4.8 -3.6
v 1.1 4.8 -3.7
v 1.1 4.9 -3.6
v 1.1 4.9 -3.7
v 1.1 5.1 -3.7
v 1.1 5.2 -3.6
v 1.1 5.2 -3.7
v 1.1 5.3 -3.6
v 1.1 5.3 -3.7
v 1.1 5.4 -3.6
v 1.1 5.4 -3.7
v 1.1 5.5 -3.6
v 1.1 5.5 -3.7
v 1.2 4.8 -3.5
v 1.2 4.8 -3.6
v 1.2 4.9 -3.5
v 1.2 4.9 -3.6
v 1.2 5.2 -3.6
v 1.2 5.3 -3.5
v 1.2 5.3 -3.6
v 1.2 5.4 -3.6
v 1.2 5.5 -3.5
v 1.2 5.5 -3.6
v 1.3 4.8 -3.4
v 1.3 4.8 -3.5
v 1.3 4.9 -3.5
v 1.3 5.3 -3.5
v 1.3 5.5 -3.4
v 1.3 5.5 -3.5
v -0.1 5.7 -4.2
v -0.1 5.7 -4.3
v -0.1 6.1 -4.2
v -0.1 6.1 -4.3
v 0 5.8 -4.1
v 0 5.8 -4.2
v 0 6 -4.1
v 0 6 -4.2
v 0.1 4.8 -4.1
v 0.1 4.8 -4.2
v 0.1 5.5 -4.1
v 0.1 5.5 -4.2
v 0.3 6.3 -4.1
v 0.3 6.3 -4.2
v 0.3 6.3 -4.3
v 0.3 6.3 -4.4
v 0.3 6.3 -4.5
v 0.3 6.3 -4.6
v 0.3 6.3 -4.7
v 0.3 6.3 -4.8
v 0.3 6.3 -4.9
v 0.3 6.3 -5
v 0.3 6.3 -5.1
v 0.3 6.3 -5.2
v 0.3 6.3 -5.3
v 0.3 6.3 -5.4
v 0.3 6.3 -5.5
v 0.3 6.3 -5.6
v 0.3 6.3 -5.7
v 0.3 6.3 -5.8
v 0.3 6.3 -5.9
v 0.3 6.3 -6
v 0.3 6.4 -4.1
v 0.3 6.4 -4.2
v 0.3 6.4 -4.3
v 0.3 6.4 -4.6
v 0.3 6.4 -4.7
v 0.3 6.4 -5
v 0.3 6.4 -5.1
v 0.3 6.4 -5.4
v 0.3 6.4 -5.5
v 0.3 6.4 -5.8
v 0.3 6.4 -5.9
v 0.3 6.4 -6
v 0.6 6.2 -4.1
v 0.6 6.2 -4.2
v 0.6 6.2 -4.3
v 0.6 6.2 -4.4
v 0.6 6.2 -4.5
v 0.6 6.2 -4.6
v 0.6 6.2 -4.7
v 0.6 6.2 -4.8
v 0.6 6.2 -4.9
v 0.6 6.2 -5
v 0.6 6.2 -5.1
v 0.6 6.2 -5.2
v 0.6 6.2 -5.3
v 0.6 6.2 -5.4
v 0.6 6.2 -5.5
v 0.6 6.2 -5.6
v 0.6 6.2 -5.7
v 0.6 6.2 -5.8
v 0.6 6.2 -5.9
v 0.6 6.2 -6
v 0.6 6.3 -4.1
v 0.6 6.3 -4.2
v 0.6 6.3 -4.3
v 0.6 6.3 -4.6
v 0.6 6.3 -4.7
v 0.6 6.3 -5
v 0.6 6.3 -5.1
v 0.6 6.3 -5.4
v 0.6 6.3 -5.5
v 0.6 6.3 -5.8
v 0.6 6.3 -5.9
v 0.6 6.3 -6
v 0.8 4.8 -4
v 0.8 4.8 -4.1
v 0.8 4.9 -4.1
v 0.8 5 -4
v 0.8 5.1 -4.1
v 0.8 5.3 -4.1
v 0.8 5.4 -4
v 0.8 5.4 -4.1
v 0.8 5.5 -4
v 0.8 5.5 -4.1
v 0.8 6.1 -4.1
v 0.8 6.1 -4.2
v 0.8 6.1 -4.3
v 0.8 6.1 -4.4
v 0.8 6.1 -4.5
v 0.8 6.1 -4.6
v 0.8 6.1 -4.7
v 0.8 6.1 -4.8
v 0.8 6.1 -4.9
v 0.8 6.1 -5
v 0.8 6.1 -5.1
v 0.8 6.1 -5.2
v 0.8 6.1 -5.3
v 0.8 6.1 -5.4
v 0.8 6.1 -5.5
v 0.8 6.1 -5.6
v 0.8 6.1 -5.7
v 0.8 6.1 -5.8
v 0.8 6.1 -5.9
v 0.8 6.1 -6
v 0.8 6.2 -4.1
v 0.8 6.2 -4.2
v 0.8 6.2 -4.3
v 0.8 6.2 -4.4
v 0.8 6.2 -4.5
v 0.8 6.2 -4.6
v 0.8 6.2 -4.7
v 0.8 6.2 -4.8
v 0.8 6.2 -4.9
v 0.8 6.2 -5
v 0.8 6.2 -5.1
v 0.8 6.2 -5.2
v 0.8 6.2 -5.3
v 0.8 6.2 -5.4
v 0.8 6.2 -5.5
v 0.8 6.2 -5.6
v 0.8 6.2 -5.7
v 0.8 6.2 -5.8
v 0.8 6.2 -5.9
v 0.8 6.2 -6
v 0.9 4.8 -3.9
v 0.9 4.8 -4
v 0.9 4.8 -4.1
v 0.9 4.8 -6
v 0.9 4.9 -3.9
v 0.9 4.9 -4.1
v 0.9 4.9 -4.3
v 0.9 4.9 -4.4
v 0.9 4.9 -4.7
v 0.9 4.9 -4.9
v 0.9 4.9 -5.2
v 0.9 4.9 -5.5
v 0.9 4.9 -5.9
v 0.9 5 -3.9
v 0.9 5 -4
v 0.9 5 -4.2
v 0.9 5 -4.3
v 0.9 5 -4.4
v 0.9 5 -4.5
v 0.9 5 -4.7
v 0.9 5 -4.8
v 0.9 5 -4.9
v 0.9 5 -5
v 0.9 5 -5.2
v 0.9 5 -5.3
v 0.9 5 -5.4
v 0.9 5 -5.5
v 0.9 5 -5.8
v 0.9 5 -5.9
v 0.9 5.1 -3.9
v 0.9 5.1 -4.1
v 0.9 5.1 -4.2
v 0.9 5.1 -4.5
v 0.9 5.1 -4.8
v 0.9 5.1 -5
v 0.9 5.1 -5.3
v 0.9 5.1 -5.4
v 0.9 5.1 -5.8
v 0.9 5.2 -4.2
v 0.9 5.2 -4.6
v 0.9 5.2 -4.8
v 0.9 5.2 -5.2
v 0.9 5.2 -5.3
v 0.9 5.2 -5.6
v 0.9 5.2 -5.8
v 0.9 5.2 -6
v 0.9 5.3 -4.1
v 0.9 5.3 -4.2
v 0.9 5.3 -4.4
v 0.9 5.3 -4.6
v 0.9 5.3 -4.7
v 0.9 5.3 -4.8
v 0.9 5.3 -5
v 0.9 5.3 -5.2
v 0.9 5.3 -5.3
v 0.9 5.3 -5.4
v 0.9 5.3 -5.6
v 0.9 5.3 -5.7
v 0.9 5.3 -5.8
v 0.9 5.3 -5.9
v 0.9 5.4 -3.9
v 0.9 5.4 -4
v 0.9 5.4 -4.1
v 0.9 5.4 -4.4
v 0.9 5.4 -4.7
v 0.9 5.4 -5
v 0.9 5.4 -5.4
v 0.9 5.4 -5.7
v 0.9 5.4 -5.9
v 0.9 5.4 -6
v 0.9 5.5 -3.9
v 0.9 5.5 -4
v 0.9 5.5 -4.3
v 0.9 5.5 -4.6
v 0.9 5.5 -4.8
v 0.9 5.5 -5.1
v 0.9 5.5 -5.3
v 0.9 5.5 -5.8
v 0.9 5.6 -4.1
v 0.9 5.6 -4.2
v 0.9 5.6 -4.3
v 0.9 5.6 -4.4
v 0.9 5.6 -4.6
v 0.9 5.6 -4.7
v 0.9 5.6 -4.8
v 0.9 5.6 -4.9
v 0.9 5.6 -5.1
v 0.9 5.6 -5.2
v 0.9 5.6 -5.3
v 0.9 5.6 -5.4
v 0.9 5.6 -5.8
v 0.9 5.6 -5.9
v 0.9 5.7 -4.1
v 0.9 5.7 -4.2
v 0.9 5.7 -4.4
v 0.9 5.7 -4.7
v 0.9 5.7 -4.9
v 0.9 5.7 -5.2
v 0.9 5.7 -5.4
v 0.9 5.7 -5.9
v 0.9 5.8 -4.1
v 0.9 5.8 -4.2
v 0.9 5.8 -5.9
v 0.9 5.8 -6
v 0.9 6 -4.1
v 0.9 6 -4.2
v 0.9 6 -4.3
v 0.9 6 -4.4
v 0.9 6 -4.5
v 0.9 6 -4.6
v 0.9 6 -4.7
v 0.9 6 -4.8
v 0.9 6 -4.9
v 0.9 6 -5
v 0.9 6 -5.1
v 0.9 6 -5.2
v 0.9 6 -5.3
v 0.9 6 -5.4
v 0.9 6 -5.5
v 0.9 6 -5.6
v 0.9 6 -5.7
v 0.9 6 -5.8
v 0.9 6 -5.9
v 0.9 6 -6
v 0.9 6.1 -4.1
v 0.9 6.1 -4.2
v 0.9 6.1 -4.3
v 0.9 6.1 -4.6
v 0.9 6.1 -4.7
v 0.9 6.1 -5
v 0.9 6.1 -5.1
v 0.9 6.1 -5.4
v 0.9 6.1 -5.5
v 0.9 6.1 -5.8
v 0.9 6.1 -5.9
v 0.9 6.1 -6
v 1 4.8 -3.8
v 1 4.8 -3.9
v 1 4.9 -3.8
v 1 4.9 -3.9
v 1 5 -3.8
v 1 5 -3.9
v 1 5.1 -3.8
v 1 5.1 -3.9
v 1 5.2 -3.8
v 1 5.4 -3.8
v 1 5.4 -3.9
v 1 5.5 -3.8
v 1 5.5 -3.9
v 1 5.9 -4.1
v 1 5.9 -4.2
v 1 5.9 -4.4
v 1 5.9 -4.5
v 1 5.9 -4.8
v 1 5.9 -4.9
v 1 5.9 -5.2
v 1 5.9 -5.3
v 1 5.9 -5.6
v 1 5.9 -5.7
v 1 5.9 -5.9
v 1 5.9 -6
v 1 6 -4.1
v 1 6 -4.2
v 1 6 -4.4
v 1 6 -4.5
v 1 6 -4.8
v 1 6 -4.9
v 1 6 -5.2
v 1 6 -5.3
v 1 6 -5.6
v 1 6 -5.7
v 1 6 -5.9
v 1 6 -6
v 1.1 4.8 -3.7
v 1.1 4.8 -3.8
v 1.1 4.9 -3.7
v 1.1 4.9 -3.8
v 1.1 5.1 -3.7
v 1.1 5.1 -3.8
v 1.1 5.2 -3.7
v 1.1 5.2 -3.8
v 1.1 5.3 -3.7
v 1.1 5.4 -3.7
v 1.1 5.4 -3.8
v 1.1 5.5 -3.7
v 1.1 5.5 -3.8
v 1.1 5.8 -4.1
v 1.1 5.8 -6
v 1.1 5.9 -4.1
v 1.1 5.9 -6
v 1.2 4.8 -3.6
v 1.2 4.8 -3.7
v 1.2 4.9 -3.6
v 1.2 4.9 -3.7
v 1.2 5.2 -3.6
v 1.2 5.2 -3.7
v 1.2 5.3 -3.6
v 1.2 5.3 -3.7
v 1.2 5.4 -3.6
v 1.2 5.4 -3.7
v 1.2 5.5 -3.6
v 1.2 5.5 -3.7
v 1.3 4.8 -3.5
v 1.3 4.8 -3.6
v 1.3 4.9 -3.5
v 1.3 4.9 -3.6
v 1.3 5.3 -3.5
v 1.3 5.3 -3.6
v 1.3 5.5 -3.5
v 1.3 5.5 -3.6
v 1.4 4.8 -3.4
v 1.4 4.8 -3.5
v 1.4 5.5 -3.4
v 1.4 5.5 -3.5
v 1.3 4.8 -3.4
v 1.3 5.5 -3.4
v 1.4 4.8 -3.4
v 1.4 5.5 -3.4
v 1.2 4.8 -3.5
v 1.2 4.9 -3.5
v 1.2 5.3 -3.5
v 1.2 5.5 -3.5
v 1.3 4.8 -3.5
v 1.3 4.9 -3.5
v 1.3 5.3 -3.5
v 1.3 5.5 -3.5
v 1.1 4.8 -3.6
v 1.1 4.9 -3.6
v 1.1 5.2 -3.6
v 1.1 5.3 -3.6
v 1.1 5.4 -3.6
v 1.1 5.5 -3.6
v 1.2 4.8 -3.6
v 1.2 4.9 -3.6
v 1.2 5.2 -3.6
v 1.2 5.3 -3.6
v 1.2 5.4 -3.6
v 1.2 5.5 -3.6
v 1 4.8 -3.7
v 1 4.9 -3.7
v 1 5.1 -3.7
v 1 5.2 -3.7
v 1 5.4 -3.7
v 1 5.5 -3.7
v 1.1 4.8 -3.7
v 1.1 4.9 -3.7
v 1.1 5.1 -3.7
v 1.1 5.2 -3.7
v 1.1 5.3 -3.7
v 1.1 5.4 -3.7
v 1.1 5.5 -3.7
v 0.9 4.8 -3.8
v 0.9 4.9 -3.8
v 0.9 5 -3.8
v 0.9 5.1 -3.8
v 0.9 5.4 -3.8
v 0.9 5.5 -3.8
v 1 4.8 -3.8
v 1 4.9 -3.8
v 1 5 -3.8
v 1 5.1 -3.8
v 1 5.2 -3.8
v 1 5.4 -3.8
v 1 5.5 -3.8
v 0.8 4.8 -3.9
v 0.8 5 -3.9
v 0.8 5.4 -3.9
v 0.8 5.5 -3.9
v 0.9 4.8 -3.9
v 0.9 4.9 -3.9
v 0.9 5 -3.9
v 0.9 5.1 -3.9
v 0.9 5.4 -3.9
v 0.9 5.5 -3.9
v 0.7 4.8 -4
v 0.7 5.5 -4
v 0.8 4.8 -4
v 0.8 5 -4
v 0.8 5.4 -4
v 0.8 5.5 -4
v -0.9 5.8 -4.1
v -0.9 5.9 -4.1
v -0.8 5.9 -4.1
v -0.8 6 -4.1
v -0.7 4.8 -4.1
v -0.7 5.2 -4.1
v -0.7 5.3 -4.1
v -0.7 5.6 -4.1
v -0.7 5.7 -4.1
v -0.7 5.8 -4.1
v -0.7 5.9 -4.1
v -0.7 6 -4.1
v -0.7 6.1 -4.1
v -0.6 4.8 -4.1
v -0.6 5.2 -4.1
v -0.6 5.3 -4.1
v -0.6 5.5 -4.1
v -0.6 5.6 -4.1
v -0.6 5.7 -4.1
v -0.6 5.8 -4.1
v -0.6 5.9 -4.1
v -0.6 6 -4.1
v -0.6 6.1 -4.1
v -0.6 6.2 -4.1
v -0.5 4.9 -4.1
v -0.5 5.3 -4.1
v -0.5 5.6 -4.1
v -0.5 5.7 -4.1
v -0.5 5.9 -4.1
v -0.5 6 -4.1
v -0.5 6.1 -4.1
v -0.4 5.2 -4.1
v -0.4 5.3 -4.1
v -0.4 5.4 -4.1
v -0.4 5.5 -4.1
v -0.4 5.6 -4.1
v -0.4 5.8 -4.1
v -0.4 5.9 -4.1
v -0.4 6.2 -4.1
v -0.4 6.3 -4.1
v -0.3 5.1 -4.1
v -0.3 5.2 -4.1
v -0.3 5.3 -4.1
v -0.3 6.1 -4.1
v -0.3 6.2 -4.1
v -0.2 5 -4.1
v -0.2 5.1 -4.1
v -0.2 5.2 -4.1
v -0.2 5.6 -4.1
v -0.2 5.7 -4.1
v -0.2 5.9 -4.1
v -0.2 6 -4.1
v -0.2 6.1 -4.1
v -0.2 6.2 -4.1
v -0.1 4.9 -4.1
v -0.1 5 -4.1
v -0.1 5.1 -4.1
v -0.1 5.5 -4.1
v -0.1 5.6 -4.1
v -0.1 5.7 -4.1
v -0.1 5.8 -4.1
v -0.1 5.9 -4.1
v -0.1 6.1 -4.1
v -0.1 6.3 -4.1
v -0.1 6.4 -4.1
v 0 5 -4.1
v 0 5.4 -4.1
v 0 5.6 -4.1
v 0 5.7 -4.1
v 0 5.8 -4.1
v 0 6 -4.1
v 0 6.2 -4.1
v 0 6.3 -4.1
v 0.1 4.8 -4.1
v 0.1 5.5 -4.1
v 0.1 5.6 -4.1
v 0.1 6.1 -4.1
v 0.1 6.2 -4.1
v 0.2 5.8 -4.1
v 0.2 6 -4.1
v 0.2 6.1 -4.1
v 0.2 6.2 -4.1
v 0.2 6.3 -4.1
v 0.3 5.7 -4.1
v 0.3 5.9 -4.1
v 0.3 6 -4.1
v 0.3 6.1 -4.1
v 0.3 6.3 -4.1
v 0.3 6.4 -4.1
v 0.4 5.6 -4.1
v 0.4 5.7 -4.1
v 0.4 5.8 -4.1
v 0.4 5.9 -4.1
v 0.5 5.5 -4.1
v 0.5 5.6 -4.1
v 0.5 6.1 -4.1
v 0.5 6.2 -4.1
v 0.6 5.5 -4.1
v 0.6 5.6 -4.1
v 0.6 5.9 -4.1
v 0.6 6 -4.1
v 0.6 6.2 -4.1
v 0.6 6.3 -4.1
v 0.7 5.5 -4.1
v 0.7 5.6 -4.1
v 0.7 5.7 -4.1
v 0.7 5.8 -4.1
v 0.7 5.9 -4.1
v 0.7 6 -4.1
v 0.7 6.1 -4.1
v 0.8 4.8 -4.1
v 0.8 4.9 -4.1
v 0.8 5.1 -4.1
v 0.8 5.3 -4.1
v 0.8 5.4 -4.1
v 0.8 5.5 -4.1
v 0.8 5.6 -4.1
v 0.8 5.9 -4.1
v 0.8 6 -4.1
v 0.8 6.1 -4.1
v 0.8 6.2 -4.1
v 0.9 4.8 -4.1
v 0.9 4.9 -4.1
v 0.9 5.1 -4.1
v 0.9 5.3 -4.1
v 0.9 5.4 -4.1
v 0.9 5.6 -4.1
v 0.9 5.7 -4.1
v 0.9 5.8 -4.1
v 0.9 5.9 -4.1
v 0.9 6 -4.1
v 0.9 6.1 -4.1
v 1 5.9 -4.1
v 1 6 -4.1
v 1.1 5.8 -4.1
v 1.1 5.9 -4.1
v 0.1 4.8 -4.2
v 0.1 5.5 -4.2
v 0.5 5.5 -4.2
v 0.6 5.5 -4.2
v 0.7 4.8 -4.2
v 0.7 5.5 -4.2
v -0.1 5.7 -4.3
v -0.1 6.1 -4.3
v 0.3 5.7 -4.3
v 0.3 6.1 -4.3
v 1.3 4.8 -3.5
v 1.3 4.9 -3.5
v 1.3 5.3 -3.5
v 1.3 5.5 -3.5
v 1.4 4.8 -3.5
v 1.4 5.5 -3.5
v 1.2 4.8 -3.6
v 1.2 4.9 -3.6
v 1.2 5.2 -3.6
v 1.2 5.3 -3.6
v 1.2 5.4 -3.6
v 1.2 5.5 -3.6
v 1.3 4.8 -3.6
v 1.3 4.9 -3.6
v 1.3 5.3 -3.6
v 1.3 5.5 -3.6
v 1.1 4.8 -3.7
v 1.1 4.9 -3.7
v 1.1 5.1 -3.7
v 1.1 5.2 -3.7
v 1.1 5.3 -3.7
v 1.1 5.4 -3.7
v 1.1 5.5 -3.7
v 1.2 4.8 -3.7
v 1.2 4.9 -3.7
v 1.2 5.2 -3.7
v 1.2 5.3 -3.7
v 1.2 5.4 -3.7
v 1.2 5.5 -3.7
v 1 4.8 -3.8
v 1 4.9 -3.8
v 1 5 -3.8
v 1 5.1 -3.8
v 1 5.2 -3.8
v 1 5.4 -3.8
v 1 5.5 -3.8
v 1.1 4.8 -3.8
v 1.1 4.9 -3.8
v 1.1 5.1 -3.8
v 1.1 5.2 -3.8
v 1.1 5.4 -3.8
v 1.1 5.5 -3.8
v 0.9 4.8 -3.9
v 0.9 4.9 -3.9
v 0.9 5 -3.9
v 0.9 5.1 -3.9
v 0.9 5.4 -3.9
v 0.9 5.5 -3.9
v 1 4.8 -3.9
v 1 4.9 -3.9
v 1 5 -3.9
v 1 5.1 -3.9
v 1 5.4 -3.9
v 1 5.5 -3.9
v 0.8 4.8 -4
v 0.8 5 -4
v 0.8 5.4 -4
v 0.8 5.5 -4
v 0.9 4.8 -4
v 0.9 5 -4
v 0.9 5.4 -4
v 0.9 5.5 -4
v -0.1 5.7 -4.2
v -0.1 6.1 -4.2
v 0 5.8 -4.2
v 0 6 -4.2
v 0.2 5.8 -4.2
v 0.2 6 -4.2
v 0.3 5.7 -4.2
v 0.3 6.1 -4.2
v -0.9 5.8 -6
v -0.9 5.9 -6
v -0.8 5.9 -6
v -0.8 6 -6
v -0.7 4.8 -6
v -0.7 4.9 -6
v -0.7 5.1 -6
v -0.7 5.5 -6
v -0.7 5.7 -6
v -0.7 5.8 -6
v -0.7 5.9 -6
v -0.7 6 -6
v -0.7 6.1 -6
v -0.6 5.5 -6
v -0.6 5.7 -6
v -0.6 5.8 -6
v -0.6 5.9 -6
v -0.6 6 -6
v -0.6 6.1 -6
v -0.6 6.2 -6
v -0.5 5 -6
v -0.5 5.1 -6
v -0.5 5.3 -6
v -0.5 5.4 -6
v -0.5 5.5 -6
v -0.5 5.6 -6
v -0.5 6 -6
v -0.5 6.1 -6
v -0.4 4.9 -6
v -0.4 5 -6
v -0.4 5.2 -6
v -0.4 5.3 -6
v -0.4 5.9 -6
v -0.4 6 -6
v -0.4 6.2 -6
v -0.4 6.3 -6
v -0.3 5 -6
v -0.3 5.1 -6
v -0.3 5.6 -6
v -0.3 5.7 -6
v -0.3 5.8 -6
v -0.3 5.9 -6
v -0.3 6.1 -6
v -0.3 6.2 -6
v -0.2 4.9 -6
v -0.2 5 -6
v -0.2 5.3 -6
v -0.2 5.4 -6
v -0.2 5.8 -6
v -0.2 5.9 -6
v -0.1 5.2 -6
v -0.1 5.3 -6
v -0.1 5.9 -6
v -0.1 6 -6
v -0.1 6.1 -6
v -0.1 6.2 -6
v -0.1 6.3 -6
v -0.1 6.4 -6
v 0 5.2 -6
v 0 5.3 -6
v 0 5.5 -6
v 0 5.6 -6
v 0 6.2 -6
v 0 6.3 -6
v 0.1 5 -6
v 0.1 5.1 -6
v 0.1 5.3 -6
v 0.1 5.4 -6
v 0.1 5.6 -6
v 0.1 5.7 -6
v 0.1 6.1 -6
v 0.1 6.2 -6
v 0.2 4.9 -6
v 0.2 5 -6
v 0.2 5.8 -6
v 0.2 5.9 -6
v 0.2 6.2 -6
v 0.2 6.3 -6
v 0.3 4.9 -6
v 0.3 5 -6
v 0.3 5.6 -6
v 0.3 5.7 -6
v 0.3 5.9 -6
v 0.3 6 -6
v 0.3 6.3 -6
v 0.3 6.4 -6
v 0.4 5 -6
v 0.4 5.1 -6
v 0.4 5.2 -6
v 0.4 5.3 -6
v 0.4 5.5 -6
v 0.4 5.6 -6
v 0.4 5.9 -6
v 0.4 6 -6
v 0.5 5.3 -6
v 0.5 5.4 -6
v 0.5 5.8 -6
v 0.5 5.9 -6
v 0.5 6.1 -6
v 0.5 6.2 -6
v 0.6 5.3 -6
v 0.6 5.4 -6
v 0.6 6.2 -6
v 0.6 6.3 -6
v 0.7 4.9 -6
v 0.7 5 -6
v 0.7 5.2 -6
v 0.7 5.3 -6
v 0.7 5.6 -6
v 0.7 5.7 -6
v 0.7 6 -6
v 0.7 6.1 -6
v 0.8 5 -6
v 0.8 5.1 -6
v 0.8 5.5 -6
v 0.8 5.6 -6
v 0.8 5.9 -6
v 0.8 6 -6
v 0.8 6.1 -6
v 0.8 6.2 -6
v 0.9 4.8 -6
v 0.9 5.2 -6
v 0.9 5.4 -6
v 0.9 5.8 -6
v 0.9 5.9 -6
v 0.9 6 -6
v 0.9 6.1 -6
v 1 5.9 -6
v 1 6 -6
v 1.1 5.8 -6
v 1.1 5.9 -6
v 1.3 4.8 -3.4
v 1.4 4.8 -3.4
v 1.2 4.8 -3.5
v 1.3 4.8 -3.5
v 1.4 4.8 -3.5
v 1.1 4.8 -3.6
v 1.2 4.8 -3.6
v 1.3 4.8 -3.6
v 1 4.8 -3.7
v 1.1 4.8 -3.7
v 1.2 4.8 -3.7
v 0.9 4.8 -3.8
v 1 4.8 -3.8
v 1.1 4.8 -3.8
v 0.8 4.8 -3.9
v 0.9 4.8 -3.9
v 1 4.8 -3.9
v 0.7 4.8 -4
v 0.8 4.8 -4
v 0.9 4.8 -4
v -0.7 4.8 -4.1
v -0.6 4.8 -4.1
v 0.1 4.8 -4.1
v 0.7 4.8 -4.1
v 0.8 4.8 -4.1
v 0.9 4.8 -4.1
v -0.6 4.8 -4.2
v 0.1 4.8 -4.2
v 0.7 4.8 -4.2
v 0.1 4.8 -4.3
v 0.7 4.8 -4.3
v -0.7 4.8 -6
v 0.9 4.8 -6
v 0.1 5.5 -4.1
v 0.5 5.5 -4.1
v 0.6 5.5 -4.1
v 0.7 5.5 -4.1
v 0.1 5.5 -4.2
v 0.5 5.5 -4.2
v 0.6 5.5 -4.2
v 0.7 5.5 -4.2
v -0.9 5.8 -4.1
v -0.7 5.8 -4.1
v 0.9 5.8 -4.1
v 1.1 5.8 -4.1
v -0.8 5.8 -4.2
v -0.7 5.8 -4.2
v 0.9 5.8 -4.2
v 1 5.8 -4.2
v -0.8 5.8 -5.9
v -0.7 5.8 -5.9
v 0.9 5.8 -5.9
v 1 5.8 -5.9
v -0.9 5.8 -6
v -0.7 5.8 -6
v 0.9 5.8 -6
v 1.1 5.8 -6
v 0 6 -4.1
v 0.2 6 -4.1
v 0 6 -4.2
v 0.2 6 -4.2
v -0.1 6.1 -4.2
v 0.3 6.1 -4.2
v -0.1 6.1 -4.3
v 0.3 6.1 -4.3
v 1.3 5.5 -3.4
v 1.4 5.5 -3.4
v 1.2 5.5 -3.5
v 1.3 5.5 -3.5
v 1.4 5.5 -3.5
v 1.1 5.5 -3.6
v 1.2 5.5 -3.6
v 1.3 5.5 -3.6
v 1 5.5 -3.7
v 1.1 5.5 -3.7
v 1.2 5.5 -3.7
v 0.9 5.5 -3.8
v 1 5.5 -3.8
v 1.1 5.5 -3.8
v 0.8 5.5 -3.9
v 0.9 5.5 -3.9
v 1 5.5 -3.9
v 0.7 5.5 -4
v 0.8 5.5 -4
v 0.9 5.5 -4
v 0.7 5.5 -4.1
v 0.8 5.5 -4.1
v -0.1 5.7 -4.2
v 0.3 5.7 -4.2
v -0.1 5.7 -4.3
v 0.3 5.7 -4.3
v 0 5.8 -4.1
v 0.2 5.8 -4.1
v 0 5.8 -4.2
v 0.2 5.8 -4.2
v -0.9 5.9 -4.1
v -0.8 5.9 -4.1
v 1 5.9 -4.1
v 1.1 5.9 -4.1
v -0.8 5.9 -4.2
v 1 5.9 -4.2
v -0.8 5.9 -4.3
v 1 5.9 -4.4
v 1 5.9 -4.5
v -0.8 5.9 -4.6
v -0.8 5.9 -4.7
v 1 5.9 -4.8
v 1 5.9 -4.9
v -0.8 5.9 -5
v -0.8 5.9 -5.1
v 1 5.9 -5.2
v 1 5.9 -5.3
v -0.8 5.9 -5.4
v -0.8 5.9 -5.5
v 1 5.9 -5.6
v 1 5.9 -5.7
v -0.8 5.9 -5.8
v -0.8 5.9 -5.9
v 1 5.9 -5.9
v -0.9 5.9 -6
v -0.8 5.9 -6
v 1 5.9 -6
v 1.1 5.9 -6
v -0.8 6 -4.1
v -0.7 6 -4.1
v 0.9 6 -4.1
v 1 6 -4.1
v -0.8 6 -4.2
v -0.7 6 -4.2
v 0.9 6 -4.2
v 1 6 -4.2
v -0.8 6 -4.3
v -0.7 6 -4.3
v 0.9 6 -4.3
v -0.7 6 -4.4
v 0.9 6 -4.4
v 1 6 -4.4
v -0.7 6 -4.5
v 0.9 6 -4.5
v 1 6 -4.5
v -0.8 6 -4.6
v -0.7 6 -4.6
v 0.9 6 -4.6
v -0.8 6 -4.7
v -0.7 6 -4.7
v 0.9 6 -4.7
v -0.7 6 -4.8
v 0.9 6 -4.8
v 1 6 -4.8
v -0.7 6 -4.9
v 0.9 6 -4.9
v 1 6 -4.9
v -0.8 6 -5
v -0.7 6 -5
v 0.9 6 -5
v -0.8 6 -5.1
v -0.7 6 -5.1
v 0.9 6 -5.1
v -0.7 6 -5.2
v 0.9 6 -5.2
v 1 6 -5.2
v -0.7 6 -5.3
v 0.9 6 -5.3
v 1 6 -5.3
v -0.8 6 -5.4
v -0.7 6 -5.4
v 0.9 6 -5.4
v -0.8 6 -5.5
v -0.7 6 -5.5
v 0.9 6 -5.5
v -0.7 6 -5.6
v 0.9 6 -5.6
v 1 6 -5.6
v -0.7 6 -5.7
v 0.9 6 -5.7
v 1 6 -5.7
v -0.8 6 -5.8
v -0.7 6 -5.8
v 0.9 6 -5.8
v -0.8 6 -5.9
v -0.7 6 -5.9
v 0.9 6 -5.9
v 1 6 -5.9
v -0.8 6 -6
v -0.7 6 -6
v 0.9 6 -6
v 1 6 -6
v -0.7 6.1 -4.1
v -0.6 6.1 -4.1
v 0.8 6.1 -4.1
v 0.9 6.1 -4.1
v -0.7 6.1 -4.2
v -0.6 6.1 -4.2
v 0.8 6.1 -4.2
v 0.9 6.1 -4.2
v -0.6 6.1 -4.3
v 0.8 6.1 -4.3
v 0.9 6.1 -4.3
v -0.7 6.1 -4.4
v -0.6 6.1 -4.4
v 0.8 6.1 -4.4
v -0.7 6.1 -4.5
v -0.6 6.1 -4.5
v 0.8 6.1 -4.5
v -0.6 6.1 -4.6
v 0.8 6.1 -4.6
v 0.9 6.1 -4.6
v -0.6 6.1 -4.7
v 0.8 6.1 -4.7
v 0.9 6.1 -4.7
v -0.7 6.1 -4.8
v -0.6 6.1 -4.8
v 0.8 6.1 -4.8
v -0.7 6.1 -4.9
v -0.6 6.1 -4.9
v 0.8 6.1 -4.9
v -0.6 6.1 -5
v 0.8 6.1 -5
v 0.9 6.1 -5
v -0.6 6.1 -5.1
v 0.8 6.1 -5.1
v 0.9 6.1 -5.1
v -0.7 6.1 -5.2
v -0.6 6.1 -5.2
v 0.8 6.1 -5.2
v -0.7 6.1 -5.3
v -0.6 6.1 -5.3
v 0.8 6.1 -5.3
v -0.6 6.1 -5.4
v 0.8 6.1 -5.4
v 0.9 6.1 -5.4
v -0.6 6.1 -5.5
v 0.8 6.1 -5.5
v 0.9 6.1 -5.5
v -0.7 6.1 -5.6
v -0.6 6.1 -5.6
v 0.8 6.1 -5.6
v -0.7 6.1 -5.7
v -0.6 6.1 -5.7
v 0.8 6.1 -5.7
v -0.6 6.1 -5.8
v 0.8 6.1 -5.8
v 0.9 6.1 -5.8
v -0.7 6.1 -5.9
v -0.6 6.1 -5.9
v 0.8 6.1 -5.9
v 0.9 6.1 -5.9
v -0.7 6.1 -6
v -0.6 6.1 -6
v 0.8 6.1 -6
v 0.9 6.1 -6
v -0.6 6.2 -4.1
v -0.4 6.2 -4.1
v 0.6 6.2 -4.1
v 0.8 6.2 -4.1
v -0.6 6.2 -4.2
v -0.4 6.2 -4.2
v 0.6 6.2 -4.2
v 0.7 6.2 -4.2
v 0.8 6.2 -4.2
v -0.6 6.2 -4.3
v -0.4 6.2 -4.3
v 0.6 6.2 -4.3
v 0.7 6.2 -4.3
v 0.8 6.2 -4.3
v -0.6 6.2 -4.4
v -0.5 6.2 -4.4
v -0.4 6.2 -4.4
v 0.6 6.2 -4.4
v 0.8 6.2 -4.4
v -0.6 6.2 -4.5
v -0.5 6.2 -4.5
v -0.4 6.2 -4.5
v 0.6 6.2 -4.5
v 0.8 6.2 -4.5
v -0.6 6.2 -4.6
v -0.4 6.2 -4.6
v 0.6 6.2 -4.6
v 0.7 6.2 -4.6
v 0.8 6.2 -4.6
v -0.6 6.2 -4.7
v -0.4 6.2 -4.7
v 0.6 6.2 -4.7
v 0.7 6.2 -4.7
v 0.8 6.2 -4.7
v -0.6 6.2 -4.8
v -0.5 6.2 -4.8
v -0.4 6.2 -4.8
v 0.6 6.2 -4.8
v 0.8 6.2 -4.8
v -0.6 6.2 -4.9
v -0.5 6.2 -4.9
v -0.4 6.2 -4.9
v 0.6 6.2 -4.9
v 0.8 6.2 -4.9
v -0.6 6.2 -5
v -0.4 6.2 -5
v 0.6 6.2 -5
v 0.7 6.2 -5
v 0.8 6.2 -5
v -0.6 6.2 -5.1
v -0.4 6.2 -5.1
v 0.6 6.2 -5.1
v 0.7 6.2 -5.1
v 0.8 6.2 -5.1
v -0.6 6.2 -5.2
v -0.5 6.2 -5.2
v -0.4 6.2 -5.2
v 0.6 6.2 -5.2
v 0.8 6.2 -5.2
v -0.6 6.2 -5.3
v -0.5 6.2 -5.3
v -0.4 6.2 -5.3
v 0.6 6.2 -5.3
v 0.8 6.2 -5.3
v -0.6 6.2 -5.4
v -0.4 6.2 -5.4
v 0.6 6.2 -5.4
v 0.7 6.2 -5.4
v 0.8 6.2 -5.4
v -0.6 6.2 -5.5
v -0.4 6.2 -5.5
v 0.6 6.2 -5.5
v 0.7 6.2 -5.5
v 0.8 6.2 -5.5
v -0.6 6.2 -5.6
v -0.5 6.2 -5.6
v -0.4 6.2 -5.6
v 0.6 6.2 -5.6
v 0.8 6.2 -5.6
v -0.6 6.2 -5.7
v -0.5 6.2 -5.7
v -0.4 6.2 -5.7
v 0.6 6.2 -5.7
v 0.8 6.2 -5.7
v -0.6 6.2 -5.8
v -0.4 6.2 -5.8
v 0.6 6.2 -5.8
v 0.7 6.2 -5.8
v 0.8 6.2 -5.8
v -0.6 6.2 -5.9
v -0.4 6.2 -5.9
v 0.6 6.2 -5.9
v 0.7 6.2 -5.9
v 0.8 6.2 -5.9
v -0.6 6.2 -6
v -0.4 6.2 -6
v 0.6 6.2 -6
v 0.8 6.2 -6
v -0.4 6.3 -4.1
v -0.1 6.3 -4.1
v 0.3 6.3 -4.1
v 0.6 6.3 -4.1
v -0.4 6.3 -4.2
v -0.3 6.3 -4.2
v -0.1 6.3 -4.2
v 0.3 6.3 -4.2
v 0.4 6.3 -4.2
v 0.6 6.3 -4.2
v -0.3 6.3 -4.3
v -0.1 6.3 -4.3
v 0.3 6.3 -4.3
v 0.4 6.3 -4.3
v 0.6 6.3 -4.3
v -0.4 6.3 -4.4
v -0.2 6.3 -4.4
v -0.1 6.3 -4.4
v 0.3 6.3 -4.4
v 0.5 6.3 -4.4
v -0.4 6.3 -4.5
v -0.2 6.3 -4.5
v -0.1 6.3 -4.5
v 0.3 6.3 -4.5
v 0.5 6.3 -4.5
v -0.3 6.3 -4.6
v -0.1 6.3 -4.6
v 0.3 6.3 -4.6
v 0.4 6.3 -4.6
v 0.6 6.3 -4.6
v -0.3 6.3 -4.7
v -0.1 6.3 -4.7
v 0.3 6.3 -4.7
v 0.4 6.3 -4.7
v 0.6 6.3 -4.7
v -0.4 6.3 -4.8
v -0.2 6.3 -4.8
v -0.1 6.3 -4.8
v 0.3 6.3 -4.8
v 0.5 6.3 -4.8
v -0.4 6.3 -4.9
v -0.2 6.3 -4.9
v -0.1 6.3 -4.9
v 0.3 6.3 -4.9
v 0.5 6.3 -4.9
v -0.3 6.3 -5
v -0.1 6.3 -5
v 0.3 6.3 -5
v 0.4 6.3 -5
v 0.6 6.3 -5
v -0.3 6.3 -5.1
v -0.1 6.3 -5.1
v 0.3 6.3 -5.1
v 0.4 6.3 -5.1
v 0.6 6.3 -5.1
v -0.4 6.3 -5.2
v -0.2 6.3 -5.2
v -0.1 6.3 -5.2
v 0.3 6.3 -5.2
v 0.5 6.3 -5.2
v -0.4 6.3 -5.3
v -0.2 6.3 -5.3
v -0.1 6.3 -5.3
v 0.3 6.3 -5.3
v 0.5 6.3 -5.3
v -0.3 6.3 -5.4
v -0.1 6.3 -5.4
v 0.3 6.3 -5.4
v 0.4 6.3 -5.4
v 0.6 6.3 -5.4
v -0.3 6.3 -5.5
v -0.1 6.3 -5.5
v 0.3 6.3 -5.5
v 0.4 6.3 -5.5
v 0.6 6.3 -5.5
v -0.4 6.3 -5.6
v -0.2 6.3 -5.6
v -0.1 6.3 -5.6
v 0.3 6.3 -5.6
v 0.5 6.3 -5.6
v -0.4 6.3 -5.7
v -0.2 6.3 -5.7
v -0.1 6.3 -5.7
v 0.3 6.3 -5.7
v 0.5 6.3 -5.7
v -0.3 6.3 -5.8
v -0.1 6.3 -5.8
v 0.3 6.3 -5.8
v 0.4 6.3 -5.8
v 0.6 6.3 -5.8
v -0.4 6.3 -5.9
v -0.3 6.3 -5.9
v -0.1 6.3 -5.9
v 0.3 6.3 -5.9
v 0.4 6.3 -5.9
v 0.6 6.3 -5.9
v -0.4 6.3 -6
v -0.1 6.3 -6
v 0.3 6.3 -6
v 0.6 6.3 -6
v -0.1 6.4 -4.1
v 0.3 6.4 -4.1
v -0.1 6.4 -4.2
v 0.1 6.4 -4.2
v 0.3 6.4 -4.2
v 0.1 6.4 -4.3
v 0.3 6.4 -4.3
v -0.1 6.4 -4.4
v 0.1 6.4 -4.4
v -0.1 6.4 -4.5
v 0.1 6.4 -4.5
v 0.1 6.4 -4.6
v 0.3 6.4 -4.6
v 0.1 6.4 -4.7
v 0.3 6.4 -4.7
v -0.1 6.4 -4.8
v 0.1 6.4 -4.8
v -0.1 6.4 -4.9
v 0.1 6.4 -4.9
v 0.1 6.4 -5
v 0.3 6.4 -5
v 0.1 6.4 -5.1
v 0.3 6.4 -5.1
v -0.1 6.4 -5.2
v 0.1 6.4 -5.2
v -0.1 6.4 -5.3
v 0.1 6.4 -5.3
v 0.1 6.4 -5.4
v 0.3 6.4 -5.4
v 0.1 6.4 -5.5
v 0.3 6.4 -5.5
v -0.1 6.4 -5.6
v 0.1 6.4 -5.6
v -0.1 6.4 -5.7
v 0.1 6.4 -5.7
v 0.1 6.4 -5.8
v 0.3 6.4 -5.8
v -0.1 6.4 -5.9
v 0.1 6.4 -5.9
v 0.3 6.4 -5.9
v -0.1 6.4 -6
v 0.3 6.4 -6

# faces
f 3/4/1 2/4/1 1/4/1
f 4/4/1 2/4/1 3/4/1
f 17/4/1 6/4/1 5/4/1
f 18/6/1 7/6/1 6/6/1
f 18/4/1 6/4/1 17/4/1
f 19/7/1 8/7/1 7/7/1
f 19/6/1 7/6/1 18/6/1
f 20/6/1 9/6/1 8/6/1
f 20/7/1 8/7/1 19/7/1
f 21/7/1 10/7/1 9/7/1
f 21/6/1 9/6/1 20/6/1
f 22/6/1 11/6/1 10/6/1
f 22/7/1 10/7/1 21/7/1
f 23/7/1 12/7/1 11/7/1
f 23/6/1 11/6/1 22/6/1
f 24/6/1 13/6/1 12/6/1
f 24/7/1 12/7/1 23/7/1
f 25/7/1 14/7/1 13/7/1
f 25/6/1 13/6/1 24/6/1
f 26/6/1 15/6/1 14/6/1
f 26/7/1 14/7/1 25/7/1
f 27/4/1 16/4/1 15/4/1
f 27/6/1 15/6/1 26/6/1
f 28/4/1 16/4/1 27/4/1
f 31/1/1 30/1/1 29/1/1
f 32/1/1 30/1/1 31/1/1
f 33/1/1 30/1/1 32/1/1
f 34/1/1 30/1/1 33/1/1
f 35/1/1 30/1/1 34/1/1
f 36/1/1 30/1/1 35/1/1
f 37/1/1 30/1/1 36/1/1
f 38/1/1 30/1/1 37/1/1
f 39/1/1 31/1/1 29/1/1
f 40/2/1 32/2/1 31/2/1
f 40/1/1 31/1/1 39/1/1
f 41/2/1 32/2/1 40/2/1
f 42/1/1 33/1/1 32/1/1
f 42/2/1 32/2/1 41/2/1
f 43/2/1 34/2/1 33/2/1
f 43/1/1 33/1/1 42/1/1
f 44/2/1 34/2/1 43/2/1
f 45/1/1 35/1/1 34/1/1
f 45/2/1 34/2/1 44/2/1
f 46/1/1 35/1/1 45/1/1
f 47/1/1 35/1/1 46/1/1
f 48/2/1 36/2/1 35/2/1
f 48/1/1 35/1/1 47/1/1
f 49/2/1 36/2/1 48/2/1
f 50/1/1 37/1/1 36/1/1
f 50/2/1 36/2/1 49/2/1
f 51/1/1 37/1/1 50/1/1
f 52/2/1 38/2/1 37/2/1
f 52/1/1 37/1/1 51/1/1
f 53/1/1 39/1/1 29/1/1
f 53/2/1 41/2/1 40/2/1
f 53/2/1 40/2/1 39/2/1
f 54/1/1 42/1/1 41/1/1
f 54/2/1 41/2/1 53/2/1
f 54/1/1 44/1/1 43/1/1
f 54/1/1 43/1/1 42/1/1
f 55/2/1 46/2/1 45/2/1
f 55/1/1 44/1/1 54/1/1
f 55/2/1 45/2/1 44/2/1
f 56/1/1 47/1/1 46/1/1
f 56/2/1 46/2/1 55/2/1
f 57/2/1 48/2/1 47/2/1
f 57/1/1 47/1/1 56/1/1
f 57/2/1 49/2/1 48/2/1
f 58/1/1 51/1/1 50/1/1
f 58/2/1 49/2/1 57/2/1
f 58/1/1 50/1/1 49/1/1
f 59/2/1 52/2/1 51/2/1
f 59/1/1 51/1/1 58/1/1
f 60/2/1 38/2/1 52/2/1
f 60/2/1 52/2/1 59/2/1
f 61/1/1 59/1/1 58/1/1
f 61/1/1 58/1/1 57/1/1
f 61/1/1 60/1/1 59/1/1
f 61/1/1 57/1/1 56/1/1
f 61/1/1 54/1/1 53/1/1
f 61/1/1 55/1/1 54/1/1
f 61/1/1 56/1/1 55/1/1
f 61/1/1 53/1/1 29/1/1
f 62/1/1 60/1/1 61/1/1
f 63/1/1 60/1/1 62/1/1
f 64/1/1 60/1/1 63/1/1
f 65/1/1 60/1/1 64/1/1
f 66/1/1 60/1/1 65/1/1
f 67/1/1 60/1/1 66/1/1
f 68/1/1 60/1/1 67/1/1
f 69/2/1 62/2/1 61/2/1
f 70/2/1 62/2/1 69/2/1
f 71/1/1 63/1/1 62/1/1
f 71/2/1 62/2/1 70/2/1
f 72/1/1 63/1/1 71/1/1
f 73/2/1 64/2/1 63/2/1
f 73/1/1 63/1/1 72/1/1
f 74/2/1 64/2/1 73/2/1
f 75/1/1 65/1/1 64/1/1
f 75/2/1 64/2/1 74/2/1
f 76/1/1 65/1/1 75/1/1
f 77/2/1 66/2/1 65/2/1
f 77/1/1 65/1/1 76/1/1
f 78/2/1 66/2/1 77/2/1
f 79/1/1 67/1/1 66/1/1
f 79/2/1 66/2/1 78/2/1
f 80/1/1 67/1/1 79/1/1
f 81/2/1 68/2/1 67/2/1
f 81/1/1 67/1/1 80/1/1
f 82/2/1 68/2/1 81/2/1
f 83/1/1 60/1/1 68/1/1
f 83/2/1 68/2/1 82/2/1
f 84/1/1 60/1/1 83/1/1
f 85/1/1 70/1/1 69/1/1
f 85/2/1 72/2/1 71/2/1
f 85/2/1 71/2/1 70/2/1
f 86/1/1 74/1/1 73/1/1
f 86/2/1 72/2/1 85/2/1
f 86/1/1 73/1/1 72/1/1
f 87/2/1 76/2/1 75/2/1
f 87/1/1 74/1/1 86/1/1
f 87/2/1 75/2/1 74/2/1
f 88/1/1 78/1/1 77/1/1
f 88/2/1 76/2/1 87/2/1
f 88/1/1 77/1/1 76/1/1
f 89/2/1 80/2/1 79/2/1
f 89/1/1 78/1/1 88/1/1
f 89/2/1 79/2/1 78/2/1
f 90/1/1 82/1/1 81/1/1
f 90/2/1 80/2/1 89/2/1
f 90/1/1 81/1/1 80/1/1
f 91/2/1 84/2/1 83/2/1
f 91/1/1 82/1/1 90/1/1
f 91/2/1 83/2/1 82/2/1
f 92/1/1 60/1/1 84/1/1
f 92/2/1 84/2/1 91/2/1
f 93/1/1 89/1/1 88/1/1
f 93/1/1 91/1/1 90/1/1
f 93/1/1 92/1/1 91/1/1
f 93/1/1 90/1/1 89/1/1
f 93/1/1 88/1/1 87/1/1
f 93/1/1 87/1/1 86/1/1
f 93/1/1 86/1/1 85/1/1
f 93/1/1 85/1/1 69/1/1
f 94/1/1 92/1/1 93/1/1
f 95/1/1 92/1/1 94/1/1
f 96/1/1 92/1/1 95/1/1
f 97/1/1 92/1/1 96/1/1
f 98/1/1 92/1/1 97/1/1
f 99/1/1 60/1/1 92/1/1
f 99/1/1 92/1/1 98/1/1
f 100/1/1 60/1/1 99/1/1
f 101/1/1 93/1/1 69/1/1
f 102/2/1 94/2/1 93/2/1
f 102/1/1 93/1/1 101/1/1
f 103/2/1 94/2/1 102/2/1
f 104/1/1 95/1/1 94/1/1
f 104/2/1 94/2/1 103/2/1
f 105/2/1 96/2/1 95/2/1
f 105/1/1 95/1/1 104/1/1
f 106/2/1 96/2/1 105/2/1
f 107/1/1 97/1/1 96/1/1
f 107/2/1 96/2/1 106/2/1
f 108/1/1 97/1/1 107/1/1
f 109/2/1 98/2/1 97/2/1
f 109/1/1 97/1/1 108/1/1
f 110/2/1 98/2/1 109/2/1
f 111/1/1 99/1/1 98/1/1
f 111/2/1 98/2/1 110/2/1
f 112/1/1 99/1/1 111/1/1
f 113/2/1 103/2/1 102/2/1
f 113/2/1 102/2/1 101/2/1
f 114/1/1 104/1/1 103/1/1
f 114/2/1 103/2/1 113/2/1
f 114/1/1 106/1/1 105/1/1
f 114/1/1 105/1/1 104/1/1
f 115/2/1 108/2/1 107/2/1
f 115/1/1 106/1/1 114/1/1
f 115/2/1 107/2/1 106/2/1
f 116/1/1 110/1/1 109/1/1
f 116/2/1 108/2/1 115/2/1
f 116/1/1 109/1/1 108/1/1
f 117/2/1 111/2/1 110/2/1
f 117/1/1 110/1/1 116/1/1
f 117/2/1 112/2/1 111/2/1
f 118/1/1 99/1/1 112/1/1
f 118/2/1 112/2/1 117/2/1
f 119/2/1 100/2/1 99/2/1
f 119/1/1 99/1/1 118/1/1
f 120/2/1 100/2/1 119/2/1
f 121/1/1 114/1/1 113/1/1
f 121/1/1 117/1/1 116/1/1
f 121/1/1 120/1/1 119/1/1
f 121/1/1 119/1/1 118/1/1
f 121/1/1 118/1/1 117/1/1
f 121/1/1 115/1/1 114/1/1
f 121/1/1 116/1/1 115/1/1
f 122/1/1 120/1/1 121/1/1
f 123/1/1 120/1/1 122/1/1
f 124/1/1 120/1/1 123/1/1
f 145/4/1 126/4/1 125/4/1
f 146/7/1 127/7/1 126/7/1
f 146/4/1 126/4/1 145/4/1
f 146/7/1 128/7/1 127/7/1
f 147/6/1 129/6/1 128/6/1
f 147/7/1 128/7/1 146/7/1
f 148/7/1 130/7/1 129/7/1
f 148/6/1 129/6/1 147/6/1
f 148/7/1 131/7/1 130/7/1
f 148/7/1 132/7/1 131/7/1
f 149/6/1 133/6/1 132/6/1
f 149/7/1 132/7/1 148/7/1
f 150/7/1 134/7/1 133/7/1
f 150/6/1 133/6/1 149/6/1
f 150/7/1 135/7/1 134/7/1
f 150/7/1 136/7/1 135/7/1
f 151/6/1 137/6/1 136/6/1
f 151/7/1 136/7/1 150/7/1
f 152/7/1 140/7/1 139/7/1
f 152/6/1 137/6/1 151/6/1
f 152/7/1 139/7/1 138/7/1
f 152/7/1 138/7/1 137/7/1
f 153/6/1 141/6/1 140/6/1
f 153/7/1 140/7/1 152/7/1
f 154/7/1 143/7/1 142/7/1
f 154/6/1 141/6/1 153/6/1
f 154/7/1 142/7/1 141/7/1
f 155/4/1 144/4/1 143/4/1
f 155/7/1 143/7/1 154/7/1
f 156/4/1 144/4/1 155/4/1
f 177/4/1 158/4/1 157/4/1
f 178/6/1 159/6/1 158/6/1
f 178/4/1 158/4/1 177/4/1
f 179/7/1 160/7/1 159/7/1
f 179/6/1 159/6/1 178/6/1
f 180/6/1 161/6/1 160/6/1
f 180/7/1 160/7/1 179/7/1
f 181/7/1 162/7/1 161/7/1
f 181/6/1 161/6/1 180/6/1
f 182/6/1 163/6/1 162/6/1
f 182/7/1 162/7/1 181/7/1
f 183/7/1 164/7/1 163/7/1
f 183/6/1 163/6/1 182/6/1
f 184/6/1 165/6/1 164/6/1
f 184/7/1 164/7/1 183/7/1
f 185/7/1 166/7/1 165/7/1
f 185/6/1 165/6/1 184/6/1
f 186/6/1 167/6/1 166/6/1
f 186/7/1 166/7/1 185/7/1
f 187/7/1 168/7/1 167/7/1
f 187/6/1 167/6/1 186/6/1
f 188/6/1 169/6/1 168/6/1
f 188/7/1 168/7/1 187/7/1
f 189/7/1 170/7/1 169/7/1
f 189/6/1 169/6/1 188/6/1
f 190/6/1 171/6/1 170/6/1
f 190/7/1 170/7/1 189/7/1
f 191/7/1 172/7/1 171/7/1
f 191/6/1 171/6/1 190/6/1
f 192/6/1 173/6/1 172/6/1
f 192/7/1 172/7/1 191/7/1
f 193/7/1 174/7/1 173/7/1
f 193/6/1 173/6/1 192/6/1
f 194/6/1 175/6/1 174/6/1
f 194/7/1 174/7/1 193/7/1
f 195/4/1 176/4/1 175/4/1
f 195/6/1 175/6/1 194/6/1
f 196/4/1 176/4/1 195/4/1
f 217/4/1 198/4/1 197/4/1
f 218/7/1 199/7/1 198/7/1
f 218/4/1 198/4/1 217/4/1
f 218/7/1 200/7/1 199/7/1
f 219/6/1 201/6/1 200/6/1
f 219/7/1 200/7/1 218/7/1
f 220/7/1 202/7/1 201/7/1
f 220/6/1 201/6/1 219/6/1
f 220/7/1 203/7/1 202/7/1
f 220/7/1 204/7/1 203/7/1
f 221/6/1 205/6/1 204/6/1
f 221/7/1 204/7/1 220/7/1
f 222/7/1 206/7/1 205/7/1
f 222/6/1 205/6/1 221/6/1
f 222/7/1 207/7/1 206/7/1
f 222/7/1 208/7/1 207/7/1
f 223/6/1 209/6/1 208/6/1
f 223/7/1 208/7/1 222/7/1
f 224/7/1 212/7/1 211/7/1
f 224/6/1 209/6/1 223/6/1
f 224/7/1 211/7/1 210/7/1
f 224/7/1 210/7/1 209/7/1
f 225/6/1 213/6/1 212/6/1
f 225/7/1 212/7/1 224/7/1
f 226/7/1 215/7/1 214/7/1
f 226/6/1 213/6/1 225/6/1
f 226/7/1 214/7/1 213/7/1
f 227/4/1 216/4/1 215/4/1
f 227/7/1 215/7/1 226/7/1
f 228/4/1 216/4/1 227/4/1
f 249/4/1 230/4/1 229/4/1
f 250/7/1 231/7/1 230/7/1
f 250/4/1 230/4/1 249/4/1
f 250/7/1 232/7/1 231/7/1
f 251/6/1 233/6/1 232/6/1
f 251/7/1 232/7/1 250/7/1
f 252/7/1 234/7/1 233/7/1
f 252/6/1 233/6/1 251/6/1
f 252/7/1 235/7/1 234/7/1
f 252/7/1 236/7/1 235/7/1
f 253/6/1 237/6/1 236/6/1
f 253/7/1 236/7/1 252/7/1
f 254/7/1 238/7/1 237/7/1
f 254/6/1 237/6/1 253/6/1
f 254/7/1 239/7/1 238/7/1
f 254/7/1 240/7/1 239/7/1
f 255/6/1 241/6/1 240/6/1
f 255/7/1 240/7/1 254/7/1
f 256/7/1 244/7/1 243/7/1
f 256/6/1 241/6/1 255/6/1
f 256/7/1 243/7/1 242/7/1
f 256/7/1 242/7/1 241/7/1
f 257/6/1 245/6/1 244/6/1
f 257/7/1 244/7/1 256/7/1
f 258/7/1 247/7/1 246/7/1
f 258/6/1 245/6/1 257/6/1
f 258/7/1 246/7/1 245/7/1
f 259/4/1 248/4/1 247/4/1
f 259/7/1 247/7/1 258/7/1
f 260/4/1 248/4/1 259/4/1
f 263/3/1 262/3/1 261/3/1
f 264/3/1 262/3/1 263/3/1
f 267/5/1 266/5/1 265/5/1
f 268/5/1 266/5/1 267/5/1
f 272/3/1 270/3/1 269/3/1
f 273/1/1 271/1/1 270/1/1
f 273/3/1 270/3/1 272/3/1
f 274/1/1 271/1/1 273/1/1
f 277/3/1 276/3/1 275/3/1
f 278/3/1 276/3/1 277/3/1
f 279/1/1 278/1/1 277/1/1
f 280/1/1 278/1/1 279/1/1
f 281/3/1 280/3/1 279/3/1
f 282/3/1 280/3/1 281/3/1
f 285/3/1 284/3/1 283/3/1
f 286/3/1 284/3/1 285/3/1
f 287/1/1 286/1/1 285/1/1
f 288/1/1 286/1/1 287/1/1
f 289/3/1 288/3/1 287/3/1
f 290/3/1 288/3/1 289/3/1
f 291/1/1 290/1/1 289/1/1
f 292/1/1 290/1/1 291/1/1
f 293/3/1 292/3/1 291/3/1
f 294/3/1 292/3/1 293/3/1
f 297/3/1 296/3/1 295/3/1
f 298/3/1 296/3/1 297/3/1
f 299/1/1 298/1/1 297/1/1
f 300/1/1 299/1/1 297/1/1
f 301/1/1 299/1/1 300/1/1
f 302/3/1 301/3/1 300/3/1
f 303/3/1 301/3/1 302/3/1
f 304/1/1 303/1/1 302/1/1
f 305/1/1 303/1/1 304/1/1
f 306/3/1 305/3/1 304/3/1
f 307/3/1 305/3/1 306/3/1
f 310/3/1 309/3/1 308/3/1
f 311/3/1 309/3/1 310/3/1
f 312/1/1 311/1/1 310/1/1
f 313/1/1 312/1/1 310/1/1
f 314/1/1 312/1/1 313/1/1
f 315/3/1 314/3/1 313/3/1
f 316/3/1 314/3/1 315/3/1
f 317/1/1 316/1/1 315/1/1
f 318/1/1 316/1/1 317/1/1
f 319/3/1 318/3/1 317/3/1
f 320/3/1 318/3/1 319/3/1
f 323/3/1 322/3/1 321/3/1
f 324/3/1 322/3/1 323/3/1
f 325/1/1 324/1/1 323/1/1
f 326/1/1 325/1/1 323/1/1
f 327/1/1 325/1/1 326/1/1
f 328/3/1 327/3/1 326/3/1
f 329/3/1 328/3/1 326/3/1
f 330/3/1 328/3/1 329/3/1
f 333/3/1 332/3/1 331/3/1
f 334/3/1 333/3/1 331/3/1
f 335/3/1 334/3/1 331/3/1
f 336/3/1 334/3/1 335/3/1
f 337/5/2 338/5/2 339/5/2
f 339/5/2 338/5/2 340/5/2
f 341/3/2 342/3/2 343/3/2
f 343/3/2 342/3/2 344/3/2
f 345/3/2 346/3/2 347/3/2
f 347/3/2 346/3/2 348/3/2
f 349/4/2 350/4/2 369/4/2
f 350/6/2 351/6/2 370/6/2
f 369/4/2 350/4/2 370/4/2
f 351/7/2 352/7/2 371/7/2
f 370/6/2 351/6/2 371/6/2
f 352/7/2 353/7/2 371/7/2
f 353/7/2 354/7/2 371/7/2
f 354/6/2 355/6/2 372/6/2
f 371/7/2 354/7/2 372/7/2
f 355/7/2 356/7/2 373/7/2
f 372/6/2 355/6/2 373/6/2
f 356/7/2 357/7/2 373/7/2
f 357/7/2 358/7/2 373/7/2
f 358/6/2 359/6/2 374/6/2
f 373/7/2 358/7/2 374/7/2
f 359/7/2 360/7/2 375/7/2
f 374/6/2 359/6/2 375/6/2
f 360/7/2 361/7/2 375/7/2
f 361/7/2 362/7/2 375/7/2
f 362/6/2 363/6/2 376/6/2
f 375/7/2 362/7/2 376/7/2
f 365/7/2 366/7/2 377/7/2
f 376/6/2 363/6/2 377/6/2
f 364/7/2 365/7/2 377/7/2
f 363/7/2 364/7/2 377/7/2
f 366/6/2 367/6/2 378/6/2
f 377/7/2 366/7/2 378/7/2
f 367/4/2 368/4/2 379/4/2
f 378/6/2 367/6/2 379/6/2
f 379/4/2 368/4/2 380/4/2
f 381/4/2 382/4/2 401/4/2
f 382/6/2 383/6/2 402/6/2
f 401/4/2 382/4/2 402/4/2
f 383/7/2 384/7/2 403/7/2
f 402/6/2 383/6/2 403/6/2
f 384/7/2 385/7/2 403/7/2
f 385/7/2 386/7/2 403/7/2
f 386/6/2 387/6/2 404/6/2
f 403/7/2 386/7/2 404/7/2
f 387/7/2 388/7/2 405/7/2
f 404/6/2 387/6/2 405/6/2
f 388/7/2 389/7/2 405/7/2
f 389/7/2 390/7/2 405/7/2
f 390/6/2 391/6/2 406/6/2
f 405/7/2 390/7/2 406/7/2
f 391/7/2 392/7/2 407/7/2
f 406/6/2 391/6/2 407/6/2
f 392/7/2 393/7/2 407/7/2
f 393/7/2 394/7/2 407/7/2
f 394/6/2 395/6/2 408/6/2
f 407/7/2 394/7/2 408/7/2
f 397/7/2 398/7/2 409/7/2
f 408/6/2 395/6/2 409/6/2
f 396/7/2 397/7/2 409/7/2
f 395/7/2 396/7/2 409/7/2
f 398/6/2 399/6/2 410/6/2
f 409/7/2 398/7/2 410/7/2
f 399/4/2 400/4/2 411/4/2
f 410/6/2 399/6/2 411/6/2
f 411/4/2 400/4/2 412/4/2
f 413/3/2 414/3/2 415/3/2
f 413/3/2 415/3/2 416/3/2
f 416/3/2 415/3/2 417/3/2
f 416/3/2 417/3/2 418/3/2
f 416/3/2 418/3/2 419/3/2
f 419/3/2 418/3/2 420/3/2
f 419/3/2 420/3/2 421/3/2
f 421/3/2 420/3/2 422/3/2
f 423/4/2 424/4/2 443/4/2
f 424/6/2 425/6/2 444/6/2
f 443/4/2 424/4/2 444/4/2
f 425/7/2 426/7/2 445/7/2
f 444/6/2 425/6/2 445/6/2
f 426/6/2 427/6/2 446/6/2
f 445/7/2 426/7/2 446/7/2
f 427/7/2 428/7/2 447/7/2
f 446/6/2 427/6/2 447/6/2
f 428/6/2 429/6/2 448/6/2
f 447/7/2 428/7/2 448/7/2
f 429/7/2 430/7/2 449/7/2
f 448/6/2 429/6/2 449/6/2
f 430/6/2 431/6/2 450/6/2
f 449/7/2 430/7/2 450/7/2
f 431/7/2 432/7/2 451/7/2
f 450/6/2 431/6/2 451/6/2
f 432/6/2 433/6/2 452/6/2
f 451/7/2 432/7/2 452/7/2
f 433/7/2 434/7/2 453/7/2
f 452/6/2 433/6/2 453/6/2
f 434/6/2 435/6/2 454/6/2
f 453/7/2 434/7/2 454/7/2
f 435/7/2 436/7/2 455/7/2
f 454/6/2 435/6/2 455/6/2
f 436/6/2 437/6/2 456/6/2
f 455/7/2 436/7/2 456/7/2
f 437/7/2 438/7/2 457/7/2
f 456/6/2 437/6/2 457/6/2
f 438/6/2 439/6/2 458/6/2
f 457/7/2 438/7/2 458/7/2
f 439/7/2 440/7/2 459/7/2
f 458/6/2 439/6/2 459/6/2
f 440/6/2 441/6/2 460/6/2
f 459/7/2 440/7/2 460/7/2
f 441/4/2 442/4/2 461/4/2
f 460/6/2 441/6/2 461/6/2
f 461/4/2 442/4/2 462/4/2
f 463/3/2 464/3/2 467/3/2
f 465/1/2 466/1/2 468/1/2
f 468/1/2 466/1/2 469/1/2
f 469/1/2 466/1/2 470/1/2
f 470/1/2 466/1/2 471/1/2
f 471/1/2 466/1/2 472/1/2
f 472/1/2 466/1/2 473/1/2
f 473/1/2 466/1/2 474/1/2
f 474/1/2 466/1/2 475/1/2
f 467/3/2 464/3/2 476/3/2
f 476/3/2 464/3/2 477/3/2
f 468/2/2 469/2/2 478/2/2
f 469/1/2 470/1/2 479/1/2
f 478/2/2 469/2/2 479/2/2
f 470/2/2 471/2/2 480/2/2
f 479/1/2 470/1/2 480/1/2
f 480/2/2 471/2/2 481/2/2
f 471/1/2 472/1/2 482/1/2
f 481/2/2 471/2/2 482/2/2
f 482/1/2 472/1/2 483/1/2
f 472/2/2 473/2/2 484/2/2
f 483/1/2 472/1/2 484/1/2
f 484/2/2 473/2/2 485/2/2
f 473/1/2 474/1/2 486/1/2
f 485/2/2 473/2/2 486/2/2
f 486/1/2 474/1/2 487/1/2
f 487/1/2 474/1/2 488/1/2
f 474/2/2 475/2/2 489/2/2
f 488/1/2 474/1/2 489/1/2
f 489/2/2 475/2/2 490/2/2
f 475/1/2 466/1/2 491/1/2
f 490/2/2 475/2/2 491/2/2
f 476/1/2 477/1/2 492/1/2
f 468/2/2 478/2/2 493/2/2
f 478/1/2 479/1/2 494/1/2
f 493/2/2 478/2/2 494/2/2
f 480/1/2 481/1/2 494/1/2
f 479/1/2 480/1/2 494/1/2
f 482/2/2 483/2/2 495/2/2
f 494/1/2 481/1/2 495/1/2
f 481/2/2 482/2/2 495/2/2
f 484/1/2 485/1/2 496/1/2
f 495/2/2 483/2/2 496/2/2
f 483/1/2 484/1/2 496/1/2
f 486/2/2 487/2/2 497/2/2
f 496/1/2 485/1/2 497/1/2
f 485/2/2 486/2/2 497/2/2
f 487/1/2 488/1/2 498/1/2
f 497/2/2 487/2/2 498/2/2
f 489/2/2 490/2/2 499/2/2
f 498/1/2 488/1/2 499/1/2
f 488/2/2 489/2/2 499/2/2
f 490/1/2 491/1/2 500/1/2
f 499/2/2 490/2/2 500/2/2
f 497/1/2 498/1/2 501/1/2
f 493/1/2 494/1/2 501/1/2
f 499/1/2 500/1/2 501/1/2
f 495/1/2 496/1/2 501/1/2
f 498/1/2 499/1/2 501/1/2
f 494/1/2 495/1/2 501/1/2
f 496/1/2 497/1/2 501/1/2
f 501/1/2 500/1/2 502/1/2
f 502/1/2 500/1/2 503/1/2
f 503/1/2 500/1/2 504/1/2
f 504/1/2 500/1/2 505/1/2
f 505/1/2 500/1/2 506/1/2
f 500/1/2 491/1/2 507/1/2
f 506/1/2 500/1/2 507/1/2
f 491/1/2 466/1/2 508/1/2
f 507/1/2 491/1/2 508/1/2
f 493/1/2 501/1/2 509/1/2
f 501/2/2 502/2/2 510/2/2
f 509/1/2 501/1/2 510/1/2
f 510/2/2 502/2/2 511/2/2
f 502/1/2 503/1/2 512/1/2
f 511/2/2 502/2/2 512/2/2
f 512/1/2 503/1/2 513/1/2
f 503/2/2 504/2/2 514/2/2
f 513/1/2 503/1/2 514/1/2
f 514/2/2 504/2/2 515/2/2
f 504/1/2 505/1/2 516/1/2
f 515/2/2 504/2/2 516/2/2
f 505/2/2 506/2/2 517/2/2
f 516/1/2 505/1/2 517/1/2
f 517/2/2 506/2/2 518/2/2
f 506/1/2 507/1/2 519/1/2
f 518/2/2 506/2/2 519/2/2
f 519/1/2 507/1/2 520/1/2
f 507/2/2 508/2/2 521/2/2
f 520/1/2 507/1/2 521/1/2
f 521/2/2 508/2/2 522/2/2
f 492/1/2 477/1/2 523/1/2
f 523/1/2 477/1/2 524/1/2
f 510/2/2 511/2/2 525/2/2
f 509/2/2 510/2/2 525/2/2
f 512/1/2 513/1/2 526/1/2
f 525/2/2 511/2/2 526/2/2
f 511/1/2 512/1/2 526/1/2
f 514/2/2 515/2/2 527/2/2
f 526/1/2 513/1/2 527/1/2
f 513/2/2 514/2/2 527/2/2
f 515/1/2 516/1/2 528/1/2
f 527/2/2 515/2/2 528/2/2
f 517/1/2 518/1/2 528/1/2
f 516/1/2 517/1/2 528/1/2
f 518/2/2 519/2/2 529/2/2
f 528/1/2 518/1/2 529/1/2
f 519/2/2 520/2/2 529/2/2
f 520/1/2 521/1/2 530/1/2
f 529/2/2 520/2/2 530/2/2
f 521/1/2 522/1/2 530/1/2
f 522/2/2 508/2/2 531/2/2
f 530/1/2 522/1/2 531/1/2
f 531/2/2 508/2/2 532/2/2
f 523/3/2 524/3/2 533/3/2
f 533/3/2 524/3/2 534/3/2
f 526/1/2 527/1/2 535/1/2
f 527/1/2 528/1/2 535/1/2
f 529/1/2 530/1/2 535/1/2
f 531/1/2 532/1/2 535/1/2
f 530/1/2 531/1/2 535/1/2
f 525/1/2 526/1/2 535/1/2
f 528/1/2 529/1/2 535/1/2
f 535/1/2 532/1/2 536/1/2
f 536/1/2 532/1/2 537/1/2
f 537/1/2 532/1/2 538/1/2
f 538/1/2 532/1/2 539/1/2
f 539/1/2 532/1/2 540/1/2
f 525/1/2 535/1/2 541/1/2
f 541/1/2 535/1/2 542/1/2
f 535/2/2 536/2/2 543/2/2
f 542/1/2 535/1/2 543/1/2
f 543/2/2 536/2/2 544/2/2
f 536/1/2 537/1/2 545/1/2
f 544/2/2 536/2/2 545/2/2
f 545/1/2 537/1/2 546/1/2
f 537/2/2 538/2/2 547/2/2
f 546/1/2 537/1/2 547/1/2
f 547/2/2 538/2/2 548/2/2
f 538/1/2 539/1/2 549/1/2
f 548/2/2 538/2/2 549/2/2
f 549/1/2 539/1/2 550/1/2
f 539/2/2 540/2/2 551/2/2
f 550/1/2 539/1/2 551/1/2
f 551/2/2 540/2/2 552/2/2
f 540/1/2 532/1/2 553/1/2
f 552/2/2 540/2/2 553/2/2
f 553/1/2 532/1/2 554/1/2
f 541/2/2 542/2/2 555/2/2
f 543/1/2 544/1/2 556/1/2
f 555/2/2 542/2/2 556/2/2
f 542/1/2 543/1/2 556/1/2
f 545/2/2 546/2/2 557/2/2
f 556/1/2 544/1/2 557/1/2
f 544/2/2 545/2/2 557/2/2
f 547/1/2 548/1/2 558/1/2
f 557/2/2 546/2/2 558/2/2
f 546/1/2 547/1/2 558/1/2
f 549/2/2 550/2/2 559/2/2
f 558/1/2 548/1/2 559/1/2
f 548/2/2 549/2/2 559/2/2
f 551/1/2 552/1/2 560/1/2
f 559/2/2 550/2/2 560/2/2
f 550/1/2 551/1/2 560/1/2
f 553/2/2 554/2/2 561/2/2
f 560/1/2 552/1/2 561/1/2
f 552/2/2 553/2/2 561/2/2
f 554/1/2 532/1/2 562/1/2
f 561/2/2 554/2/2 562/2/2
f 558/1/2 559/1/2 563/1/2
f 557/1/2 558/1/2 563/1/2
f 561/1/2 562/1/2 563/1/2
f 559/1/2 560/1/2 563/1/2
f 560/1/2 561/1/2 563/1/2
f 556/1/2 557/1/2 563/1/2
f 555/1/2 556/1/2 563/1/2
f 563/1/2 562/1/2 564/1/2
f 562/1/2 532/1/2 565/1/2
f 564/1/2 562/1/2 565/1/2
f 565/1/2 532/1/2 566/1/2
f 567/4/2 568/4/2 587/4/2
f 568/6/2 569/6/2 588/6/2
f 587/4/2 568/4/2 588/4/2
f 569/7/2 570/7/2 589/7/2
f 588/6/2 569/6/2 589/6/2
f 570/7/2 571/7/2 589/7/2
f 571/7/2 572/7/2 589/7/2
f 572/6/2 573/6/2 590/6/2
f 589/7/2 572/7/2 590/7/2
f 573/7/2 574/7/2 591/7/2
f 590/6/2 573/6/2 591/6/2
f 574/7/2 575/7/2 591/7/2
f 575/7/2 576/7/2 591/7/2
f 576/6/2 577/6/2 592/6/2
f 591/7/2 576/7/2 592/7/2
f 577/7/2 578/7/2 593/7/2
f 592/6/2 577/6/2 593/6/2
f 578/7/2 579/7/2 593/7/2
f 579/7/2 580/7/2 593/7/2
f 580/6/2 581/6/2 594/6/2
f 593/7/2 580/7/2 594/7/2
f 583/7/2 584/7/2 595/7/2
f 594/6/2 581/6/2 595/6/2
f 582/7/2 583/7/2 595/7/2
f 581/7/2 582/7/2 595/7/2
f 584/6/2 585/6/2 596/6/2
f 595/7/2 584/7/2 596/7/2
f 585/4/2 586/4/2 597/4/2
f 596/6/2 585/6/2 597/6/2
f 597/4/2 586/4/2 598/4/2
f 599/3/2 600/3/2 601/3/2
f 601/3/2 600/3/2 602/3/2
f 601/1/2 602/1/2 603/1/2
f 603/1/2 602/1/2 604/1/2
f 603/3/2 604/3/2 605/3/2
f 605/3/2 604/3/2 606/3/2
f 605/1/2 606/1/2 607/1/2
f 607/1/2 606/1/2 608/1/2
f 608/1/2 606/1/2 609/1/2
f 608/3/2 609/3/2 610/3/2
f 610/3/2 609/3/2 611/3/2
f 612/4/2 613/4/2 624/4/2
f 613/7/2 614/7/2 625/7/2
f 624/4/2 613/4/2 625/4/2
f 614/6/2 615/6/2 626/6/2
f 625/7/2 614/7/2 626/7/2
f 615/7/2 616/7/2 627/7/2
f 626/6/2 615/6/2 627/6/2
f 616/6/2 617/6/2 628/6/2
f 627/7/2 616/7/2 628/7/2
f 617/7/2 618/7/2 629/7/2
f 628/6/2 617/6/2 629/6/2
f 618/6/2 619/6/2 630/6/2
f 629/7/2 618/7/2 630/7/2
f 619/7/2 620/7/2 631/7/2
f 630/6/2 619/6/2 631/6/2
f 620/6/2 621/6/2 632/6/2
f 631/7/2 620/7/2 632/7/2
f 621/7/2 622/7/2 633/7/2
f 632/6/2 621/6/2 633/6/2
f 622/4/2 623/4/2 634/4/2
f 633/7/2 622/7/2 634/7/2
f 634/4/2 623/4/2 635/4/2
f 636/3/2 637/3/2 638/3/2
f 638/3/2 637/3/2 639/3/2
f 638/1/2 639/1/2 640/1/2
f 640/1/2 639/1/2 641/1/2
f 640/3/2 641/3/2 642/3/2
f 642/3/2 641/3/2 643/3/2
f 642/1/2 643/1/2 644/1/2
f 644/1/2 643/1/2 645/1/2
f 645/1/2 643/1/2 646/1/2
f 645/3/2 646/3/2 647/3/2
f 647/3/2 646/3/2 648/3/2
f 649/4/2 650/4/2 651/4/2
f 651/4/2 650/4/2 652/4/2
f 653/3/2 654/3/2 655/3/2
f 655/3/2 654/3/2 656/3/2
f 655/1/2 656/1/2 657/1/2
f 657/1/2 656/1/2 658/1/2
f 657/3/2 658/3/2 659/3/2
f 659/3/2 658/3/2 660/3/2
f 659/1/2 660/1/2 661/1/2
f 661/1/2 660/1/2 662/1/2
f 661/3/2 662/3/2 663/3/2
f 663/3/2 662/3/2 664/3/2
f 665/3/2 666/3/2 667/3/2
f 667/3/2 666/3/2 668/3/2
f 667/1/2 668/1/2 669/1/2
f 669/1/2 668/1/2 670/1/2
f 669/3/2 670/3/2 671/3/2
f 671/3/2 670/3/2 672/3/2
f 673/3/2 674/3/2 675/3/2
f 675/3/2 674/3/2 676/3/2
f 679/3/3 678/3/3 677/3/3
f 680/3/3 678/3/3 679/3/3
f 685/3/3 682/3/3 681/3/3
f 686/1/3 683/1/3 682/1/3
f 686/3/3 682/3/3 685/3/3
f 687/3/3 684/3/3 683/3/3
f 687/1/3 683/1/3 686/1/3
f 688/3/3 684/3/3 687/3/3
f 695/3/3 690/3/3 689/3/3
f 696/1/3 691/1/3 690/1/3
f 696/3/3 690/3/3 695/3/3
f 697/3/3 692/3/3 691/3/3
f 697/1/3 691/1/3 696/1/3
f 698/1/3 693/1/3 692/1/3
f 698/3/3 692/3/3 697/3/3
f 699/3/3 694/3/3 693/3/3
f 699/1/3 693/1/3 698/1/3
f 700/3/3 694/3/3 699/3/3
f 707/3/3 702/3/3 701/3/3
f 708/1/3 703/1/3 702/1/3
f 708/3/3 702/3/3 707/3/3
f 709/3/3 704/3/3 703/3/3
f 709/1/3 703/1/3 708/1/3
f 710/1/3 705/1/3 704/1/3
f 710/3/3 704/3/3 709/3/3
f 711/1/3 705/1/3 710/1/3
f 712/3/3 706/3/3 705/3/3
f 712/1/3 705/1/3 711/1/3
f 713/3/3 706/3/3 712/3/3
f 720/3/3 715/3/3 714/3/3
f 721/1/3 716/1/3 715/1/3
f 721/3/3 715/3/3 720/3/3
f 722/3/3 717/3/3 716/3/3
f 722/1/3 716/1/3 721/1/3
f 723/1/3 718/1/3 717/1/3
f 723/3/3 717/3/3 722/3/3
f 724/1/3 718/1/3 723/1/3
f 725/3/3 719/3/3 718/3/3
f 725/1/3 718/1/3 724/1/3
f 726/3/3 719/3/3 725/3/3
f 731/3/3 728/3/3 727/3/3
f 732/3/3 728/3/3 731/3/3
f 733/1/3 729/1/3 728/1/3
f 733/3/3 728/3/3 732/3/3
f 734/1/3 729/1/3 733/1/3
f 735/3/3 730/3/3 729/3/3
f 735/1/3 729/1/3 734/1/3
f 736/3/3 730/3/3 735/3/3
f 739/3/3 738/3/3 737/3/3
f 740/3/3 738/3/3 739/3/3
f 741/3/3 738/3/3 740/3/3
f 742/3/3 738/3/3 741/3/3
f 745/4/3 744/4/3 743/4/3
f 752/4/3 745/4/3 743/4/3
f 752/4/3 746/4/3 745/4/3
f 753/4/3 746/4/3 752/4/3
f 754/4/3 746/4/3 753/4/3
f 756/1/3 748/1/3 747/1/3
f 757/2/3 749/2/3 748/2/3
f 757/1/3 748/1/3 756/1/3
f 758/1/3 750/1/3 749/1/3
f 758/2/3 749/2/3 757/2/3
f 759/1/3 750/1/3 758/1/3
f 760/2/3 751/2/3 750/2/3
f 760/1/3 750/1/3 759/1/3
f 761/1/3 752/1/3 751/1/3
f 761/2/3 751/2/3 760/2/3
f 762/2/3 753/2/3 752/2/3
f 762/1/3 752/1/3 761/1/3
f 763/4/3 755/4/3 754/4/3
f 763/2/3 753/2/3 762/2/3
f 763/4/3 754/4/3 753/4/3
f 764/4/3 755/4/3 763/4/3
f 765/4/3 755/4/3 764/4/3
f 767/3/3 759/3/3 758/3/3
f 767/3/3 757/3/3 756/3/3
f 767/3/3 758/3/3 757/3/3
f 768/3/3 759/3/3 767/3/3
f 769/1/3 762/1/3 761/1/3
f 769/1/3 760/1/3 759/1/3
f 769/1/3 761/1/3 760/1/3
f 769/1/3 764/1/3 763/1/3
f 769/1/3 763/1/3 762/1/3
f 770/1/3 764/1/3 769/1/3
f 771/1/3 764/1/3 770/1/3
f 772/4/3 766/4/3 765/4/3
f 772/1/3 764/1/3 771/1/3
f 772/4/3 765/4/3 764/4/3
f 773/4/3 766/4/3 772/4/3
f 774/1/3 768/1/3 767/1/3
f 775/3/3 759/3/3 768/3/3
f 775/1/3 768/1/3 774/1/3
f 776/3/3 759/3/3 775/3/3
f 777/1/3 769/1/3 759/1/3
f 777/3/3 759/3/3 776/3/3
f 778/2/3 770/2/3 769/2/3
f 778/1/3 769/1/3 777/1/3
f 779/1/3 771/1/3 770/1/3
f 780/2/3 772/2/3 771/2/3
f 780/1/3 771/1/3 779/1/3
f 781/4/3 766/4/3 773/4/3
f 783/1/3 774/1/3 767/1/3
f 784/3/3 775/3/3 774/3/3
f 784/1/3 774/1/3 783/1/3
f 785/1/3 776/1/3 775/1/3
f 785/3/3 775/3/3 784/3/3
f 786/4/3 782/4/3 781/4/3
f 786/1/3 773/1/3 772/1/3
f 786/4/3 781/4/3 773/4/3
f 787/4/3 782/4/3 786/4/3
f 788/1/3 783/1/3 767/1/3
f 789/3/3 784/3/3 783/3/3
f 789/1/3 783/1/3 788/1/3
f 790/1/3 785/1/3 784/1/3
f 790/3/3 784/3/3 789/3/3
f 791/2/3 770/2/3 778/2/3
f 791/2/3 778/2/3 777/2/3
f 792/1/3 779/1/3 770/1/3
f 792/2/3 770/2/3 791/2/3
f 793/2/3 772/2/3 780/2/3
f 793/2/3 780/2/3 779/2/3
f 794/1/3 786/1/3 772/1/3
f 794/2/3 772/2/3 793/2/3
f 794/1/3 787/1/3 786/1/3
f 795/1/3 787/1/3 794/1/3
f 796/4/3 782/4/3 787/4/3
f 796/1/3 787/1/3 795/1/3
f 797/3/3 767/3/3 756/3/3
f 797/1/3 788/1/3 767/1/3
f 798/3/3 789/3/3 788/3/3
f 798/1/3 788/1/3 797/1/3
f 799/1/3 790/1/3 789/1/3
f 799/3/3 789/3/3 798/3/3
f 800/3/3 777/3/3 776/3/3
f 800/2/3 791/2/3 777/2/3
f 801/1/3 792/1/3 791/1/3
f 801/2/3 791/2/3 800/2/3
f 802/1/3 779/1/3 792/1/3
f 802/1/3 792/1/3 801/1/3
f 803/2/3 793/2/3 779/2/3
f 803/1/3 779/1/3 802/1/3
f 804/1/3 795/1/3 794/1/3
f 804/2/3 793/2/3 803/2/3
f 804/1/3 794/1/3 793/1/3
f 805/2/3 796/2/3 795/2/3
f 805/1/3 795/1/3 804/1/3
f 806/4/3 782/4/3 796/4/3
f 808/1/3 799/1/3 798/1/3
f 808/3/3 798/3/3 797/3/3
f 809/1/3 785/1/3 790/1/3
f 809/1/3 799/1/3 808/1/3
f 809/1/3 790/1/3 799/1/3
f 809/1/3 776/1/3 785/1/3
f 809/3/3 800/3/3 776/3/3
f 810/1/3 802/1/3 801/1/3
f 810/1/3 801/1/3 800/1/3
f 811/3/3 805/3/3 804/3/3
f 811/1/3 802/1/3 810/1/3
f 811/3/3 804/3/3 803/3/3
f 811/3/3 803/3/3 802/3/3
f 812/3/3 805/3/3 811/3/3
f 813/3/3 805/3/3 812/3/3
f 814/2/3 796/2/3 805/2/3
f 814/4/3 806/4/3 796/4/3
f 814/4/3 807/4/3 806/4/3
f 815/4/3 807/4/3 814/4/3
f 816/3/3 808/3/3 797/3/3
f 816/3/3 809/3/3 808/3/3
f 816/3/3 797/3/3 756/3/3
f 817/1/3 810/1/3 800/1/3
f 817/3/3 809/3/3 816/3/3
f 817/3/3 800/3/3 809/3/3
f 818/2/3 811/2/3 810/2/3
f 818/1/3 810/1/3 817/1/3
f 819/3/3 805/3/3 813/3/3
f 819/2/3 814/2/3 805/2/3
f 820/1/3 815/1/3 814/1/3
f 820/2/3 814/2/3 819/2/3
f 821/3/3 812/3/3 811/3/3
f 822/3/3 819/3/3 813/3/3
f 823/1/3 820/1/3 819/1/3
f 823/3/3 819/3/3 822/3/3
f 824/1/3 815/1/3 820/1/3
f 824/1/3 820/1/3 823/1/3
f 825/4/3 807/4/3 815/4/3
f 825/1/3 815/1/3 824/1/3
f 826/3/3 823/3/3 822/3/3
f 826/3/3 821/3/3 811/3/3
f 826/2/3 811/2/3 818/2/3
f 826/2/3 818/2/3 817/2/3
f 826/3/3 822/3/3 821/3/3
f 827/3/3 823/3/3 826/3/3
f 828/3/3 823/3/3 827/3/3
f 829/2/3 824/2/3 823/2/3
f 829/3/3 823/3/3 828/3/3
f 830/4/3 807/4/3 825/4/3
f 830/4/3 825/4/3 824/4/3
f 831/4/3 807/4/3 830/4/3
f 832/2/3 826/2/3 817/2/3
f 833/1/3 827/1/3 826/1/3
f 833/2/3 826/2/3 832/2/3
f 834/1/3 827/1/3 833/1/3
f 835/2/3 828/2/3 827/2/3
f 835/1/3 827/1/3 834/1/3
f 836/2/3 832/2/3 817/2/3
f 837/1/3 834/1/3 833/1/3
f 837/2/3 832/2/3 836/2/3
f 837/1/3 833/1/3 832/1/3
f 838/2/3 824/2/3 829/2/3
f 838/1/3 829/1/3 828/1/3
f 839/4/3 830/4/3 824/4/3
f 839/2/3 824/2/3 838/2/3
f 840/1/3 837/1/3 836/1/3
f 841/1/3 834/1/3 837/1/3
f 841/1/3 837/1/3 840/1/3
f 842/2/3 828/2/3 835/2/3
f 842/2/3 835/2/3 834/2/3
f 843/1/3 838/1/3 828/1/3
f 843/2/3 828/2/3 842/2/3
f 844/4/3 830/4/3 839/4/3
f 844/4/3 839/4/3 838/4/3
f 845/4/3 830/4/3 844/4/3
f 846/2/3 841/2/3 840/2/3
f 847/1/3 834/1/3 841/1/3
f 847/2/3 841/2/3 846/2/3
f 848/1/3 834/1/3 847/1/3
f 849/2/3 842/2/3 834/2/3
f 849/1/3 834/1/3 848/1/3
f 850/1/3 843/1/3 842/1/3
f 850/2/3 842/2/3 849/2/3
f 851/1/3 838/1/3 843/1/3
f 851/1/3 843/1/3 850/1/3
f 852/4/3 844/4/3 838/4/3
f 852/1/3 838/1/3 851/1/3
f 858/2/3 848/2/3 847/2/3
f 858/2/3 847/2/3 846/2/3
f 859/2/3 848/2/3 858/2/3
f 860/1/3 850/1/3 849/1/3
f 860/1/3 849/1/3 848/1/3
f 860/1/3 851/1/3 850/1/3
f 861/4/3 852/4/3 851/4/3
f 861/1/3 851/1/3 860/1/3
f 862/4/3 844/4/3 852/4/3
f 862/4/3 852/4/3 861/4/3
f 863/4/3 844/4/3 862/4/3
f 864/1/3 854/1/3 853/1/3
f 865/2/3 855/2/3 854/2/3
f 865/1/3 854/1/3 864/1/3
f 866/1/3 856/1/3 855/1/3
f 866/2/3 855/2/3 865/2/3
f 867/2/3 857/2/3 856/2/3
f 867/1/3 856/1/3 866/1/3
f 868/1/3 859/1/3 858/1/3
f 868/2/3 857/2/3 867/2/3
f 868/1/3 858/1/3 857/1/3
f 869/2/3 848/2/3 859/2/3
f 869/1/3 859/1/3 868/1/3
f 870/1/3 860/1/3 848/1/3
f 870/2/3 848/2/3 869/2/3
f 871/1/3 860/1/3 870/1/3
f 872/4/3 862/4/3 861/4/3
f 872/1/3 860/1/3 871/1/3
f 872/4/3 861/4/3 860/4/3
f 873/4/3 862/4/3 872/4/3
f 874/4/3 862/4/3 873/4/3
f 875/4/3 873/4/3 872/4/3
f 875/4/3 872/4/3 871/4/3
f 876/4/3 873/4/3 875/4/3
f 877/4/3 875/4/3 871/4/3
f 878/4/3 875/4/3 877/4/3
f 881/5/3 880/5/3 879/5/3
f 882/5/3 881/5/3 879/5/3
f 883/5/3 882/5/3 879/5/3
f 884/5/3 882/5/3 883/5/3
f 887/5/3 886/5/3 885/5/3
f 888/5/3 886/5/3 887/5/3
f 889/3/4 890/3/4 893/3/4
f 891/3/4 892/3/4 893/3/4
f 890/3/4 891/3/4 893/3/4
f 893/3/4 892/3/4 894/3/4
f 895/3/4 896/3/4 901/3/4
f 896/1/4 897/1/4 902/1/4
f 901/3/4 896/3/4 902/3/4
f 897/1/4 898/1/4 902/1/4
f 899/3/4 900/3/4 903/3/4
f 902/1/4 898/1/4 903/1/4
f 898/3/4 899/3/4 903/3/4
f 903/3/4 900/3/4 904/3/4
f 905/3/4 906/3/4 912/3/4
f 906/1/4 907/1/4 913/1/4
f 912/3/4 906/3/4 913/3/4
f 907/1/4 908/1/4 913/1/4
f 908/3/4 909/3/4 914/3/4
f 913/1/4 908/1/4 914/1/4
f 909/1/4 910/1/4 915/1/4
f 914/3/4 909/3/4 915/3/4
f 910/3/4 911/3/4 916/3/4
f 915/1/4 910/1/4 916/1/4
f 916/3/4 911/3/4 917/3/4
f 918/3/4 919/3/4 925/3/4
f 919/1/4 920/1/4 926/1/4
f 925/3/4 919/3/4 926/3/4
f 920/1/4 921/1/4 926/1/4
f 921/3/4 922/3/4 927/3/4
f 926/1/4 921/1/4 927/1/4
f 922/1/4 923/1/4 928/1/4
f 927/3/4 922/3/4 928/3/4
f 923/3/4 924/3/4 929/3/4
f 928/1/4 923/1/4 929/1/4
f 929/3/4 924/3/4 930/3/4
f 931/3/4 932/3/4 937/3/4
f 932/1/4 933/1/4 938/1/4
f 937/3/4 932/3/4 938/3/4
f 933/3/4 934/3/4 939/3/4
f 938/1/4 933/1/4 939/1/4
f 934/1/4 935/1/4 940/1/4
f 939/3/4 934/3/4 940/3/4
f 935/3/4 936/3/4 941/3/4
f 940/1/4 935/1/4 941/1/4
f 941/3/4 936/3/4 942/3/4
f 943/3/4 944/3/4 947/3/4
f 944/1/4 945/1/4 948/1/4
f 947/3/4 944/3/4 948/3/4
f 945/3/4 946/3/4 949/3/4
f 948/1/4 945/1/4 949/1/4
f 949/3/4 946/3/4 950/3/4
f 951/3/4 952/3/4 953/3/4
f 953/3/4 952/3/4 954/3/4
f 951/3/4 953/3/4 955/3/4
f 954/3/4 952/3/4 956/3/4
f 951/3/4 955/3/4 957/3/4
f 955/3/4 956/3/4 957/3/4
f 956/3/4 952/3/4 958/3/4
f 957/3/4 956/3/4 958/3/4
f 959/4/4 960/4/4 961/4/4
f 959/4/4 961/4/4 968/4/4
f 961/4/4 962/4/4 968/4/4
f 968/4/4 962/4/4 969/4/4
f 969/4/4 962/4/4 970/4/4
f 966/2/4 967/2/4 972/2/4
f 965/1/4 966/1/4 972/1/4
f 967/1/4 968/1/4 973/1/4
f 972/2/4 967/2/4 973/2/4
f 968/1/4 969/1/4 973/1/4
f 973/1/4 969/1/4 974/1/4
f 970/4/4 971/4/4 975/4/4
f 974/1/4 969/1/4 975/1/4
f 969/4/4 970/4/4 975/4/4
f 975/4/4 971/4/4 976/4/4
f 976/4/4 971/4/4 977/4/4
f 964/2/4 965/2/4 979/2/4
f 973/1/4 974/1/4 980/1/4
f 979/2/4 965/2/4 980/2/4
f 972/1/4 973/1/4 980/1/4
f 965/1/4 972/1/4 980/1/4
f 980/1/4 974/1/4 981/1/4
f 981/1/4 974/1/4 982/1/4
f 982/1/4 974/1/4 983/1/4
f 983/1/4 974/1/4 984/1/4
f 976/4/4 977/4/4 985/4/4
f 977/4/4 978/4/4 985/4/4
f 975/2/4 976/2/4 985/2/4
f 974/2/4 975/2/4 985/2/4
f 985/4/4 978/4/4 986/4/4
f 964/2/4 979/2/4 987/2/4
f 963/1/4 964/1/4 987/1/4
f 979/1/4 980/1/4 988/1/4
f 987/2/4 979/2/4 988/2/4
f 980/1/4 981/1/4 988/1/4
f 988/1/4 981/1/4 989/1/4
f 981/2/4 982/2/4 990/2/4
f 989/1/4 981/1/4 990/1/4
f 974/2/4 985/2/4 991/2/4
f 985/1/4 986/1/4 992/1/4
f 991/2/4 985/2/4 992/2/4
f 986/4/4 978/4/4 993/4/4
f 988/1/4 989/1/4 995/1/4
f 987/1/4 988/1/4 995/1/4
f 995/1/4 989/1/4 996/1/4
f 984/1/4 974/1/4 997/1/4
f 983/2/4 984/2/4 997/2/4
f 997/1/4 974/1/4 998/1/4
f 974/2/4 991/2/4 999/2/4
f 998/1/4 974/1/4 999/1/4
f 991/1/4 992/1/4 1000/1/4
f 999/2/4 991/2/4 1000/2/4
f 992/1/4 986/1/4 1001/1/4
f 1000/1/4 992/1/4 1001/1/4
f 993/4/4 994/4/4 1001/4/4
f 986/4/4 993/4/4 1001/4/4
f 1001/4/4 994/4/4 1002/4/4
f 963/1/4 987/1/4 1003/1/4
f 987/1/4 995/1/4 1003/1/4
f 995/2/4 996/2/4 1004/2/4
f 1003/1/4 995/1/4 1004/1/4
f 990/2/4 982/2/4 1005/2/4
f 989/2/4 990/2/4 1005/2/4
f 982/1/4 983/1/4 1006/1/4
f 1005/2/4 982/2/4 1006/2/4
f 999/1/4 1000/1/4 1007/1/4
f 998/1/4 999/1/4 1007/1/4
f 1000/1/4 1001/1/4 1007/1/4
f 1007/1/4 1001/1/4 1008/1/4
f 996/1/4 989/1/4 1009/1/4
f 989/2/4 1005/2/4 1009/2/4
f 1005/1/4 1006/1/4 1010/1/4
f 1009/2/4 1005/2/4 1010/2/4
f 1008/1/4 1001/1/4 1011/1/4
f 1007/2/4 1008/2/4 1011/2/4
f 1011/1/4 1001/1/4 1012/1/4
f 1001/2/4 1002/2/4 1013/2/4
f 1012/1/4 1001/1/4 1013/1/4
f 1002/4/4 994/4/4 1014/4/4
f 1013/2/4 1002/2/4 1014/2/4
f 1014/4/4 994/4/4 1015/4/4
f 1009/1/4 1010/1/4 1017/1/4
f 996/1/4 1009/1/4 1017/1/4
f 1010/1/4 1006/1/4 1018/1/4
f 1017/1/4 1010/1/4 1018/1/4
f 1006/1/4 983/1/4 1019/1/4
f 1018/1/4 1006/1/4 1019/1/4
f 997/2/4 998/2/4 1019/2/4
f 983/2/4 997/2/4 1019/2/4
f 1019/2/4 998/2/4 1020/2/4
f 1013/1/4 1014/1/4 1021/1/4
f 1015/4/4 1016/4/4 1021/4/4
f 1012/1/4 1013/1/4 1021/1/4
f 1014/4/4 1015/4/4 1021/4/4
f 1021/4/4 1016/4/4 1022/4/4
f 1004/2/4 996/2/4 1023/2/4
f 1003/2/4 1004/2/4 1023/2/4
f 996/1/4 1017/1/4 1024/1/4
f 1023/2/4 996/2/4 1024/2/4
f 1017/2/4 1018/2/4 1025/2/4
f 1019/1/4 1020/1/4 1025/1/4
f 1018/1/4 1019/1/4 1025/1/4
f 1025/1/4 1020/1/4 1026/1/4
f 1020/2/4 998/2/4 1027/2/4
f 1026/1/4 1020/1/4 1027/1/4
f 998/1/4 1007/1/4 1028/1/4
f 1027/2/4 998/2/4 1028/2/4
f 1012/1/4 1021/1/4 1029/1/4
f 1021/2/4 1022/2/4 1030/2/4
f 1029/1/4 1021/1/4 1030/1/4
f 1003/2/4 1023/2/4 1031/2/4
f 963/1/4 1003/1/4 1031/1/4
f 1023/1/4 1024/1/4 1032/1/4
f 1031/2/4 1023/2/4 1032/2/4
f 1007/2/4 1011/2/4 1033/2/4
f 1028/1/4 1007/1/4 1033/1/4
f 1011/2/4 1012/2/4 1033/2/4
f 1027/1/4 1028/1/4 1033/1/4
f 1026/1/4 1027/1/4 1033/1/4
f 1033/2/4 1012/2/4 1034/2/4
f 1030/2/4 1022/2/4 1035/2/4
f 1029/2/4 1030/2/4 1035/2/4
f 1022/4/4 1016/4/4 1036/4/4
f 1035/2/4 1022/2/4 1036/2/4
f 963/1/4 1031/1/4 1037/1/4
f 1031/1/4 1032/1/4 1037/1/4
f 1032/1/4 1024/1/4 1038/1/4
f 1037/1/4 1032/1/4 1038/1/4
f 1033/1/4 1034/1/4 1039/1/4
f 1026/1/4 1033/1/4 1039/1/4
f 1039/1/4 1034/1/4 1040/1/4
f 1034/2/4 1012/2/4 1041/2/4
f 1040/1/4 1034/1/4 1041/1/4
f 1012/1/4 1029/1/4 1042/1/4
f 1041/2/4 1012/2/4 1042/2/4
f 1036/4/4 1016/4/4 1043/4/4
f 1035/4/4 1036/4/4 1043/4/4
f 1043/4/4 1016/4/4 1044/4/4
f 1038/1/4 1024/1/4 1045/1/4
f 1037/2/4 1038/2/4 1045/2/4
f 1024/1/4 1017/1/4 1046/1/4
f 1045/1/4 1024/1/4 1046/1/4
f 1025/2/4 1026/2/4 1047/2/4
f 1046/1/4 1017/1/4 1047/1/4
f 1017/2/4 1025/2/4 1047/2/4
f 1047/2/4 1026/2/4 1048/2/4
f 1026/1/4 1039/1/4 1049/1/4
f 1039/2/4 1040/2/4 1050/2/4
f 1049/1/4 1039/1/4 1050/1/4
f 1041/1/4 1042/1/4 1051/1/4
f 1040/1/4 1041/1/4 1051/1/4
f 1042/1/4 1029/1/4 1052/1/4
f 1051/1/4 1042/1/4 1052/1/4
f 1048/2/4 1026/2/4 1053/2/4
f 1046/1/4 1047/1/4 1053/1/4
f 1047/1/4 1048/1/4 1053/1/4
f 1026/1/4 1049/1/4 1054/1/4
f 1053/2/4 1026/2/4 1054/2/4
f 1040/1/4 1051/1/4 1055/1/4
f 1051/2/4 1052/2/4 1056/2/4
f 1055/1/4 1051/1/4 1056/1/4
f 1029/2/4 1035/2/4 1057/2/4
f 1052/1/4 1029/1/4 1057/1/4
f 1035/4/4 1043/4/4 1058/4/4
f 1057/2/4 1035/2/4 1058/2/4
f 1046/1/4 1053/1/4 1059/1/4
f 1053/1/4 1054/1/4 1059/1/4
f 1054/1/4 1049/1/4 1060/1/4
f 1059/1/4 1054/1/4 1060/1/4
f 1058/4/4 1043/4/4 1061/4/4
f 1057/4/4 1058/4/4 1061/4/4
f 1061/4/4 1043/4/4 1062/4/4
f 1037/2/4 1045/2/4 1063/2/4
f 1045/2/4 1046/2/4 1063/2/4
f 963/1/4 1037/1/4 1063/1/4
f 1063/2/4 1046/2/4 1064/2/4
f 1046/1/4 1059/1/4 1065/1/4
f 1059/2/4 1060/2/4 1066/2/4
f 1065/1/4 1059/1/4 1066/1/4
f 1050/2/4 1040/2/4 1067/2/4
f 1049/2/4 1050/2/4 1067/2/4
f 1040/1/4 1055/1/4 1068/1/4
f 1067/2/4 1040/2/4 1068/2/4
f 1056/2/4 1052/2/4 1069/2/4
f 1055/2/4 1056/2/4 1069/2/4
f 1052/1/4 1057/1/4 1069/1/4
f 1057/4/4 1061/4/4 1070/4/4
f 1069/1/4 1057/1/4 1070/1/4
f 1064/2/4 1046/2/4 1071/2/4
f 1063/1/4 1064/1/4 1071/1/4
f 1046/1/4 1065/1/4 1072/1/4
f 1071/2/4 1046/2/4 1072/2/4
f 1060/1/4 1049/1/4 1073/1/4
f 1049/2/4 1067/2/4 1073/2/4
f 1067/1/4 1068/1/4 1074/1/4
f 1073/2/4 1067/2/4 1074/2/4
f 1055/2/4 1069/2/4 1075/2/4
f 1069/4/4 1070/4/4 1076/4/4
f 1075/2/4 1069/2/4 1076/2/4
f 1070/4/4 1061/4/4 1077/4/4
f 1076/4/4 1070/4/4 1077/4/4
f 1077/4/4 1061/4/4 1078/4/4
f 1063/1/4 1071/1/4 1079/1/4
f 1071/1/4 1072/1/4 1079/1/4
f 963/1/4 1063/1/4 1079/1/4
f 1072/1/4 1065/1/4 1080/1/4
f 1079/1/4 1072/1/4 1080/1/4
f 1065/2/4 1066/2/4 1080/2/4
f 1066/2/4 1060/2/4 1081/2/4
f 1080/2/4 1066/2/4 1081/2/4
f 1060/1/4 1073/1/4 1081/1/4
f 1073/1/4 1074/1/4 1081/1/4
f 1074/1/4 1068/1/4 1082/1/4
f 1081/1/4 1074/1/4 1082/1/4
f 1068/1/4 1055/1/4 1082/1/4
f 1055/2/4 1075/2/4 1082/2/4
f 1075/4/4 1076/4/4 1083/4/4
f 1082/2/4 1075/2/4 1083/2/4
f 1076/4/4 1077/4/4 1083/4/4
f 1083/4/4 1077/4/4 1084/4/4
f 1084/4/4 1077/4/4 1085/4/4
f 1083/4/4 1084/4/4 1086/4/4
f 1082/4/4 1083/4/4 1086/4/4
f 1086/4/4 1084/4/4 1087/4/4
f 1082/4/4 1086/4/4 1088/4/4
f 1088/4/4 1086/4/4 1089/4/4
f 1093/3/5 1091/3/5 1090/3/5
f 1094/3/5 1091/3/5 1093/3/5
f 1096/3/5 1093/3/5 1092/3/5
f 1097/3/5 1093/3/5 1096/3/5
f 1099/3/5 1096/3/5 1095/3/5
f 1100/3/5 1096/3/5 1099/3/5
f 1102/3/5 1099/3/5 1098/3/5
f 1103/3/5 1099/3/5 1102/3/5
f 1105/3/5 1102/3/5 1101/3/5
f 1106/3/5 1102/3/5 1105/3/5
f 1108/3/5 1105/3/5 1104/3/5
f 1109/3/5 1105/3/5 1108/3/5
f 1113/3/5 1108/3/5 1107/3/5
f 1114/3/5 1108/3/5 1113/3/5
f 1116/3/5 1112/3/5 1111/3/5
f 1116/1/5 1111/1/5 1110/1/5
f 1117/3/5 1112/3/5 1116/3/5
f 1118/1/5 1115/1/5 1114/1/5
f 1118/1/5 1114/1/5 1113/1/5
f 1119/1/5 1117/1/5 1116/1/5
f 1119/5/5 1118/5/5 1117/5/5
f 1120/1/5 1115/1/5 1118/1/5
f 1120/5/5 1118/5/5 1119/5/5
f 1121/1/5 1119/1/5 1116/1/5
f 1121/1/5 1116/1/5 1110/1/5
f 1121/1/5 1120/1/5 1119/1/5
f 1122/1/5 1115/1/5 1120/1/5
f 1122/1/5 1120/1/5 1121/1/5
f 1127/2/5 1124/2/5 1123/2/5
f 1128/1/5 1125/1/5 1124/1/5
f 1128/2/5 1124/2/5 1127/2/5
f 1129/2/5 1126/2/5 1125/2/5
f 1129/1/5 1125/1/5 1128/1/5
f 1130/2/5 1126/2/5 1129/2/5
f 1135/4/5 1132/4/5 1131/4/5
f 1136/4/5 1132/4/5 1135/4/5
f 1137/4/5 1134/4/5 1133/4/5
f 1138/4/5 1134/4/5 1137/4/5
f 1139/7/5 1136/7/5 1135/7/5
f 1139/4/5 1135/4/5 1131/4/5
f 1140/7/5 1136/7/5 1139/7/5
f 1141/7/5 1138/7/5 1137/7/5
f 1142/4/5 1134/4/5 1138/4/5
f 1142/7/5 1138/7/5 1141/7/5
f 1143/4/5 1140/4/5 1139/4/5
f 1143/4/5 1139/4/5 1131/4/5
f 1144/4/5 1140/4/5 1143/4/5
f 1145/4/5 1142/4/5 1141/4/5
f 1146/4/5 1134/4/5 1142/4/5
f 1146/4/5 1142/4/5 1145/4/5
f 1149/3/5 1148/3/5 1147/3/5
f 1150/3/5 1148/3/5 1149/3/5
f 1153/5/5 1152/5/5 1151/5/5
f 1154/5/5 1152/5/5 1153/5/5
f 1155/3/6 1156/3/6 1158/3/6
f 1158/3/6 1156/3/6 1159/3/6
f 1157/3/6 1158/3/6 1161/3/6
f 1161/3/6 1158/3/6 1162/3/6
f 1160/3/6 1161/3/6 1164/3/6
f 1164/3/6 1161/3/6 1165/3/6
f 1163/3/6 1164/3/6 1167/3/6
f 1167/3/6 1164/3/6 1168/3/6
f 1166/3/6 1167/3/6 1170/3/6
f 1170/3/6 1167/3/6 1171/3/6
f 1169/3/6 1170/3/6 1173/3/6
f 1173/3/6 1170/3/6 1174/3/6
f 1172/3/6 1173/3/6 1175/3/6
f 1175/3/6 1173/3/6 1176/3/6
f 1177/5/6 1178/5/6 1179/5/6
f 1179/5/6 1178/5/6 1180/5/6
f 1181/3/6 1182/3/6 1183/3/6
f 1183/3/6 1182/3/6 1184/3/6
f 1185/4/6 1186/4/6 1189/4/6
f 1187/4/6 1188/4/6 1190/4/6
f 1185/4/6 1189/4/6 1191/4/6
f 1190/4/6 1188/4/6 1192/4/6
f 1192/4/6 1188/4/6 1193/4/6
f 1185/4/6 1191/4/6 1194/4/6
f 1185/4/6 1194/4/6 1195/4/6
f 1193/4/6 1188/4/6 1196/4/6
f 1196/4/6 1188/4/6 1197/4/6
f 1185/4/6 1195/4/6 1198/4/6
f 1185/4/6 1198/4/6 1199/4/6
f 1197/4/6 1188/4/6 1200/4/6
f 1200/4/6 1188/4/6 1201/4/6
f 1185/4/6 1199/4/6 1202/4/6
f 1185/4/6 1202/4/6 1203/4/6
f 1201/4/6 1188/4/6 1204/4/6
f 1204/4/6 1188/4/6 1205/4/6
f 1185/4/6 1203/4/6 1206/4/6
f 1185/4/6 1206/4/6 1207/4/6
f 1205/4/6 1188/4/6 1208/4/6
f 1185/4/6 1207/4/6 1209/4/6
f 1209/4/6 1207/4/6 1210/4/6
f 1208/4/6 1188/4/6 1211/4/6
f 1211/4/6 1188/4/6 1212/4/6
f 1213/4/6 1214/4/6 1217/4/6
f 1217/4/6 1214/4/6 1218/4/6
f 1215/4/6 1216/4/6 1219/4/6
f 1219/4/6 1216/4/6 1220/4/6
f 1217/6/6 1218/6/6 1221/6/6
f 1221/6/6 1218/6/6 1222/6/6
f 1219/7/6 1220/7/6 1223/7/6
f 1221/7/6 1222/7/6 1224/7/6
f 1223/7/6 1220/7/6 1225/7/6
f 1225/7/6 1220/7/6 1226/7/6
f 1221/7/6 1224/7/6 1227/7/6
f 1225/6/6 1226/6/6 1228/6/6
f 1228/6/6 1226/6/6 1229/6/6
f 1221/7/6 1227/7/6 1230/7/6
f 1230/7/6 1227/7/6 1231/7/6
f 1228/7/6 1229/7/6 1232/7/6
f 1230/6/6 1231/6/6 1233/6/6
f 1233/6/6 1231/6/6 1234/6/6
f 1232/7/6 1229/7/6 1235/7/6
f 1233/7/6 1234/7/6 1236/7/6
f 1235/7/6 1229/7/6 1237/7/6
f 1237/7/6 1229/7/6 1238/7/6
f 1233/7/6 1236/7/6 1239/7/6
f 1237/6/6 1238/6/6 1240/6/6
f 1240/6/6 1238/6/6 1241/6/6
f 1233/7/6 1239/7/6 1242/7/6
f 1242/7/6 1239/7/6 1243/7/6
f 1240/7/6 1241/7/6 1244/7/6
f 1242/6/6 1243/6/6 1245/6/6
f 1245/6/6 1243/6/6 1246/6/6
f 1244/7/6 1241/7/6 1247/7/6
f 1245/7/6 1246/7/6 1248/7/6
f 1247/7/6 1241/7/6 1249/7/6
f 1249/7/6 1241/7/6 1250/7/6
f 1245/7/6 1248/7/6 1251/7/6
f 1249/6/6 1250/6/6 1252/6/6
f 1252/6/6 1250/6/6 1253/6/6
f 1245/7/6 1251/7/6 1254/7/6
f 1254/7/6 1251/7/6 1255/7/6
f 1252/7/6 1253/7/6 1256/7/6
f 1254/6/6 1255/6/6 1257/6/6
f 1257/6/6 1255/6/6 1258/6/6
f 1256/7/6 1253/7/6 1259/7/6
f 1257/7/6 1258/7/6 1260/7/6
f 1259/7/6 1253/7/6 1261/7/6
f 1261/7/6 1253/7/6 1262/7/6
f 1257/7/6 1260/7/6 1263/7/6
f 1261/6/6 1262/6/6 1264/6/6
f 1264/6/6 1262/6/6 1265/6/6
f 1257/7/6 1263/7/6 1266/7/6
f 1266/7/6 1263/7/6 1267/7/6
f 1264/7/6 1265/7/6 1268/7/6
f 1266/6/6 1267/6/6 1269/6/6
f 1269/6/6 1267/6/6 1270/6/6
f 1268/7/6 1265/7/6 1271/7/6
f 1271/7/6 1265/7/6 1272/7/6
f 1269/4/6 1270/4/6 1273/4/6
f 1273/4/6 1270/4/6 1274/4/6
f 1271/4/6 1272/4/6 1275/4/6
f 1275/4/6 1272/4/6 1276/4/6
f 1277/4/6 1278/4/6 1281/4/6
f 1281/4/6 1278/4/6 1282/4/6
f 1279/4/6 1280/4/6 1283/4/6
f 1283/4/6 1280/4/6 1284/4/6
f 1281/7/6 1282/7/6 1285/7/6
f 1283/6/6 1284/6/6 1286/6/6
f 1286/6/6 1284/6/6 1287/6/6
f 1281/7/6 1285/7/6 1288/7/6
f 1288/7/6 1285/7/6 1289/7/6
f 1286/7/6 1287/7/6 1290/7/6
f 1288/6/6 1289/6/6 1291/6/6
f 1291/6/6 1289/6/6 1292/6/6
f 1290/7/6 1287/7/6 1293/7/6
f 1291/7/6 1292/7/6 1294/7/6
f 1293/7/6 1287/7/6 1295/7/6
f 1295/7/6 1287/7/6 1296/7/6
f 1291/7/6 1294/7/6 1297/7/6
f 1295/6/6 1296/6/6 1298/6/6
f 1298/6/6 1296/6/6 1299/6/6
f 1291/7/6 1297/7/6 1300/7/6
f 1300/7/6 1297/7/6 1301/7/6
f 1298/7/6 1299/7/6 1302/7/6
f 1300/6/6 1301/6/6 1303/6/6
f 1303/6/6 1301/6/6 1304/6/6
f 1302/7/6 1299/7/6 1305/7/6
f 1303/7/6 1304/7/6 1306/7/6
f 1305/7/6 1299/7/6 1307/7/6
f 1307/7/6 1299/7/6 1308/7/6
f 1303/7/6 1306/7/6 1309/7/6
f 1307/6/6 1308/6/6 1310/6/6
f 1310/6/6 1308/6/6 1311/6/6
f 1303/7/6 1309/7/6 1312/7/6
f 1312/7/6 1309/7/6 1313/7/6
f 1310/7/6 1311/7/6 1314/7/6
f 1312/6/6 1313/6/6 1315/6/6
f 1315/6/6 1313/6/6 1316/6/6
f 1314/7/6 1311/7/6 1317/7/6
f 1315/7/6 1316/7/6 1318/7/6
f 1317/7/6 1311/7/6 1319/7/6
f 1319/7/6 1311/7/6 1320/7/6
f 1315/7/6 1318/7/6 1321/7/6
f 1319/6/6 1320/6/6 1322/6/6
f 1322/6/6 1320/6/6 1323/6/6
f 1315/7/6 1321/7/6 1324/7/6
f 1324/7/6 1321/7/6 1325/7/6
f 1322/7/6 1323/7/6 1326/7/6
f 1324/6/6 1325/6/6 1327/6/6
f 1327/6/6 1325/6/6 1328/6/6
f 1326/7/6 1323/7/6 1329/7/6
f 1327/7/6 1328/7/6 1330/7/6
f 1329/7/6 1323/7/6 1331/7/6
f 1331/7/6 1323/7/6 1332/7/6
f 1327/7/6 1330/7/6 1333/7/6
f 1333/7/6 1330/7/6 1334/7/6
f 1331/6/6 1332/6/6 1335/6/6
f 1335/6/6 1332/6/6 1336/6/6
f 1333/4/6 1334/4/6 1337/4/6
f 1337/4/6 1334/4/6 1338/4/6
f 1335/4/6 1336/4/6 1339/4/6
f 1339/4/6 1336/4/6 1340/4/6
f 1341/4/6 1342/4/6 1345/4/6
f 1345/4/6 1342/4/6 1346/4/6
f 1343/4/6 1344/4/6 1347/4/6
f 1347/4/6 1344/4/6 1348/4/6
f 1348/4/6 1344/4/6 1349/4/6
f 1345/6/6 1346/6/6 1350/6/6
f 1350/6/6 1346/6/6 1351/6/6
f 1347/7/6 1348/7/6 1352/7/6
f 1348/6/6 1349/6/6 1353/6/6
f 1352/7/6 1348/7/6 1353/7/6
f 1353/6/6 1349/6/6 1354/6/6
f 1350/7/6 1351/7/6 1355/7/6
f 1355/7/6 1351/7/6 1356/7/6
f 1356/7/6 1351/7/6 1357/7/6
f 1352/7/6 1353/7/6 1358/7/6
f 1353/7/6 1354/7/6 1358/7/6
f 1358/7/6 1354/7/6 1359/7/6
f 1355/6/6 1356/6/6 1360/6/6
f 1356/7/6 1357/7/6 1361/7/6
f 1360/6/6 1356/6/6 1361/6/6
f 1361/7/6 1357/7/6 1362/7/6
f 1358/6/6 1359/6/6 1363/6/6
f 1363/6/6 1359/6/6 1364/6/6
f 1361/7/6 1362/7/6 1365/7/6
f 1360/7/6 1361/7/6 1365/7/6
f 1365/7/6 1362/7/6 1366/7/6
f 1363/7/6 1364/7/6 1367/7/6
f 1367/7/6 1364/7/6 1368/7/6
f 1368/7/6 1364/7/6 1369/7/6
f 1365/6/6 1366/6/6 1370/6/6
f 1370/6/6 1366/6/6 1371/6/6
f 1367/7/6 1368/7/6 1372/7/6
f 1368/6/6 1369/6/6 1373/6/6
f 1372/7/6 1368/7/6 1373/7/6
f 1373/6/6 1369/6/6 1374/6/6
f 1370/7/6 1371/7/6 1375/7/6
f 1375/7/6 1371/7/6 1376/7/6
f 1376/7/6 1371/7/6 1377/7/6
f 1372/7/6 1373/7/6 1378/7/6
f 1373/7/6 1374/7/6 1378/7/6
f 1378/7/6 1374/7/6 1379/7/6
f 1375/6/6 1376/6/6 1380/6/6
f 1376/7/6 1377/7/6 1381/7/6
f 1380/6/6 1376/6/6 1381/6/6
f 1381/7/6 1377/7/6 1382/7/6
f 1378/6/6 1379/6/6 1383/6/6
f 1383/6/6 1379/6/6 1384/6/6
f 1381/7/6 1382/7/6 1385/7/6
f 1380/7/6 1381/7/6 1385/7/6
f 1385/7/6 1382/7/6 1386/7/6
f 1383/7/6 1384/7/6 1387/7/6
f 1387/7/6 1384/7/6 1388/7/6
f 1388/7/6 1384/7/6 1389/7/6
f 1385/6/6 1386/6/6 1390/6/6
f 1390/6/6 1386/6/6 1391/6/6
f 1387/7/6 1388/7/6 1392/7/6
f 1388/6/6 1389/6/6 1393/6/6
f 1392/7/6 1388/7/6 1393/7/6
f 1393/6/6 1389/6/6 1394/6/6
f 1390/7/6 1391/7/6 1395/7/6
f 1395/7/6 1391/7/6 1396/7/6
f 1396/7/6 1391/7/6 1397/7/6
f 1392/7/6 1393/7/6 1398/7/6
f 1393/7/6 1394/7/6 1398/7/6
f 1398/7/6 1394/7/6 1399/7/6
f 1395/6/6 1396/6/6 1400/6/6
f 1396/7/6 1397/7/6 1401/7/6
f 1400/6/6 1396/6/6 1401/6/6
f 1401/7/6 1397/7/6 1402/7/6
f 1398/6/6 1399/6/6 1403/6/6
f 1403/6/6 1399/6/6 1404/6/6
f 1401/7/6 1402/7/6 1405/7/6
f 1400/7/6 1401/7/6 1405/7/6
f 1405/7/6 1402/7/6 1406/7/6
f 1403/7/6 1404/7/6 1407/7/6
f 1407/7/6 1404/7/6 1408/7/6
f 1408/7/6 1404/7/6 1409/7/6
f 1405/6/6 1406/6/6 1410/6/6
f 1410/6/6 1406/6/6 1411/6/6
f 1407/7/6 1408/7/6 1412/7/6
f 1408/6/6 1409/6/6 1413/6/6
f 1412/7/6 1408/7/6 1413/7/6
f 1413/6/6 1409/6/6 1414/6/6
f 1410/7/6 1411/7/6 1415/7/6
f 1415/7/6 1411/7/6 1416/7/6
f 1416/7/6 1411/7/6 1417/7/6
f 1412/7/6 1413/7/6 1418/7/6
f 1413/7/6 1414/7/6 1418/7/6
f 1418/7/6 1414/7/6 1419/7/6
f 1415/6/6 1416/6/6 1420/6/6
f 1416/7/6 1417/7/6 1421/7/6
f 1420/6/6 1416/6/6 1421/6/6
f 1421/7/6 1417/7/6 1422/7/6
f 1418/6/6 1419/6/6 1423/6/6
f 1423/6/6 1419/6/6 1424/6/6
f 1421/7/6 1422/7/6 1425/7/6
f 1420/7/6 1421/7/6 1425/7/6
f 1425/7/6 1422/7/6 1426/7/6
f 1423/7/6 1424/7/6 1427/7/6
f 1427/7/6 1424/7/6 1428/7/6
f 1428/7/6 1424/7/6 1429/7/6
f 1425/6/6 1426/6/6 1430/6/6
f 1430/6/6 1426/6/6 1431/6/6
f 1427/7/6 1428/7/6 1432/7/6
f 1428/6/6 1429/6/6 1433/6/6
f 1432/7/6 1428/7/6 1433/7/6
f 1433/6/6 1429/6/6 1434/6/6
f 1430/4/6 1431/4/6 1435/4/6
f 1435/4/6 1431/4/6 1436/4/6
f 1432/4/6 1433/4/6 1437/4/6
f 1433/4/6 1434/4/6 1437/4/6
f 1437/4/6 1434/4/6 1438/4/6
f 1439/4/6 1440/4/6 1443/4/6
f 1443/4/6 1440/4/6 1444/4/6
f 1444/4/6 1440/4/6 1445/4/6
f 1441/4/6 1442/4/6 1446/4/6
f 1446/4/6 1442/4/6 1447/4/6
f 1447/4/6 1442/4/6 1448/4/6
f 1444/6/6 1445/6/6 1449/6/6
f 1443/7/6 1444/7/6 1449/7/6
f 1449/6/6 1445/6/6 1450/6/6
f 1446/7/6 1447/7/6 1451/7/6
f 1447/6/6 1448/6/6 1452/6/6
f 1451/7/6 1447/7/6 1452/7/6
f 1452/6/6 1448/6/6 1453/6/6
f 1449/7/6 1450/7/6 1454/7/6
f 1443/7/6 1449/7/6 1454/7/6
f 1454/7/6 1450/7/6 1455/7/6
f 1455/7/6 1450/7/6 1456/7/6
f 1452/7/6 1453/7/6 1457/7/6
f 1451/7/6 1452/7/6 1457/7/6
f 1457/7/6 1453/7/6 1458/7/6
f 1454/6/6 1455/6/6 1459/6/6
f 1455/7/6 1456/7/6 1460/7/6
f 1459/6/6 1455/6/6 1460/6/6
f 1460/7/6 1456/7/6 1461/7/6
f 1457/6/6 1458/6/6 1462/6/6
f 1458/7/6 1453/7/6 1463/7/6
f 1462/6/6 1458/6/6 1463/6/6
f 1460/7/6 1461/7/6 1464/7/6
f 1459/7/6 1460/7/6 1464/7/6
f 1464/7/6 1461/7/6 1465/7/6
f 1462/7/6 1463/7/6 1466/7/6
f 1466/7/6 1463/7/6 1467/7/6
f 1463/7/6 1453/7/6 1468/7/6
f 1467/7/6 1463/7/6 1468/7/6
f 1464/6/6 1465/6/6 1469/6/6
f 1459/7/6 1464/7/6 1469/7/6
f 1469/6/6 1465/6/6 1470/6/6
f 1466/7/6 1467/7/6 1471/7/6
f 1467/6/6 1468/6/6 1472/6/6
f 1471/7/6 1467/7/6 1472/7/6
f 1472/6/6 1468/6/6 1473/6/6
f 1469/7/6 1470/7/6 1474/7/6
f 1459/7/6 1469/7/6 1474/7/6
f 1474/7/6 1470/7/6 1475/7/6
f 1475/7/6 1470/7/6 1476/7/6
f 1472/7/6 1473/7/6 1477/7/6
f 1471/7/6 1472/7/6 1477/7/6
f 1477/7/6 1473/7/6 1478/7/6
f 1474/6/6 1475/6/6 1479/6/6
f 1475/7/6 1476/7/6 1480/7/6
f 1479/6/6 1475/6/6 1480/6/6
f 1480/7/6 1476/7/6 1481/7/6
f 1477/6/6 1478/6/6 1482/6/6
f 1478/7/6 1473/7/6 1483/7/6
f 1482/6/6 1478/6/6 1483/6/6
f 1480/7/6 1481/7/6 1484/7/6
f 1479/7/6 1480/7/6 1484/7/6
f 1484/7/6 1481/7/6 1485/7/6
f 1482/7/6 1483/7/6 1486/7/6
f 1486/7/6 1483/7/6 1487/7/6
f 1483/7/6 1473/7/6 1488/7/6
f 1487/7/6 1483/7/6 1488/7/6
f 1484/6/6 1485/6/6 1489/6/6
f 1479/7/6 1484/7/6 1489/7/6
f 1489/6/6 1485/6/6 1490/6/6
f 1486/7/6 1487/7/6 1491/7/6
f 1487/6/6 1488/6/6 1492/6/6
f 1491/7/6 1487/7/6 1492/7/6
f 1492/6/6 1488/6/6 1493/6/6
f 1489/7/6 1490/7/6 1494/7/6
f 1479/7/6 1489/7/6 1494/7/6
f 1494/7/6 1490/7/6 1495/7/6
f 1495/7/6 1490/7/6 1496/7/6
f 1492/7/6 1493/7/6 1497/7/6
f 1491/7/6 1492/7/6 1497/7/6
f 1497/7/6 1493/7/6 1498/7/6
f 1494/6/6 1495/6/6 1499/6/6
f 1495/7/6 1496/7/6 1500/7/6
f 1499/6/6 1495/6/6 1500/6/6
f 1500/7/6 1496/7/6 1501/7/6
f 1497/6/6 1498/6/6 1502/6/6
f 1498/7/6 1493/7/6 1503/7/6
f 1502/6/6 1498/6/6 1503/6/6
f 1500/7/6 1501/7/6 1504/7/6
f 1499/7/6 1500/7/6 1504/7/6
f 1504/7/6 1501/7/6 1505/7/6
f 1502/7/6 1503/7/6 1506/7/6
f 1506/7/6 1503/7/6 1507/7/6
f 1503/7/6 1493/7/6 1508/7/6
f 1507/7/6 1503/7/6 1508/7/6
f 1504/6/6 1505/6/6 1509/6/6
f 1499/7/6 1504/7/6 1509/7/6
f 1509/6/6 1505/6/6 1510/6/6
f 1506/7/6 1507/7/6 1511/7/6
f 1507/6/6 1508/6/6 1512/6/6
f 1511/7/6 1507/7/6 1512/7/6
f 1512/6/6 1508/6/6 1513/6/6
f 1509/7/6 1510/7/6 1514/7/6
f 1499/7/6 1509/7/6 1514/7/6
f 1514/7/6 1510/7/6 1515/7/6
f 1515/7/6 1510/7/6 1516/7/6
f 1512/7/6 1513/7/6 1517/7/6
f 1511/7/6 1512/7/6 1517/7/6
f 1517/7/6 1513/7/6 1518/7/6
f 1514/6/6 1515/6/6 1519/6/6
f 1515/7/6 1516/7/6 1520/7/6
f 1519/6/6 1515/6/6 1520/6/6
f 1520/7/6 1516/7/6 1521/7/6
f 1517/6/6 1518/6/6 1522/6/6
f 1518/7/6 1513/7/6 1523/7/6
f 1522/6/6 1518/6/6 1523/6/6
f 1520/7/6 1521/7/6 1524/7/6
f 1519/7/6 1520/7/6 1524/7/6
f 1524/7/6 1521/7/6 1525/7/6
f 1522/7/6 1523/7/6 1526/7/6
f 1526/7/6 1523/7/6 1527/7/6
f 1523/7/6 1513/7/6 1528/7/6
f 1527/7/6 1523/7/6 1528/7/6
f 1519/7/6 1524/7/6 1529/7/6
f 1524/6/6 1525/6/6 1530/6/6
f 1529/7/6 1524/7/6 1530/7/6
f 1530/6/6 1525/6/6 1531/6/6
f 1526/7/6 1527/7/6 1532/7/6
f 1527/6/6 1528/6/6 1533/6/6
f 1532/7/6 1527/7/6 1533/7/6
f 1533/6/6 1528/6/6 1534/6/6
f 1530/4/6 1531/4/6 1535/4/6
f 1529/4/6 1530/4/6 1535/4/6
f 1535/4/6 1531/4/6 1536/4/6
f 1533/4/6 1534/4/6 1537/4/6
f 1532/4/6 1533/4/6 1537/4/6
f 1537/4/6 1534/4/6 1538/4/6
f 1539/4/6 1540/4/6 1541/4/6
f 1541/4/6 1540/4/6 1542/4/6
f 1542/4/6 1540/4/6 1543/4/6
f 1541/7/6 1542/7/6 1544/7/6
f 1542/6/6 1543/6/6 1544/6/6
f 1544/6/6 1543/6/6 1545/6/6
f 1541/7/6 1544/7/6 1546/7/6
f 1544/7/6 1545/7/6 1546/7/6
f 1546/7/6 1545/7/6 1547/7/6
f 1546/6/6 1547/6/6 1548/6/6
f 1547/7/6 1545/7/6 1549/7/6
f 1548/6/6 1547/6/6 1549/6/6
f 1548/7/6 1549/7/6 1550/7/6
f 1549/7/6 1545/7/6 1550/7/6
f 1550/7/6 1545/7/6 1551/7/6
f 1548/7/6 1550/7/6 1552/7/6
f 1550/6/6 1551/6/6 1552/6/6
f 1552/6/6 1551/6/6 1553/6/6
f 1548/7/6 1552/7/6 1554/7/6
f 1552/7/6 1553/7/6 1554/7/6
f 1554/7/6 1553/7/6 1555/7/6
f 1554/6/6 1555/6/6 1556/6/6
f 1555/7/6 1553/7/6 1557/7/6
f 1556/6/6 1555/6/6 1557/6/6
f 1556/7/6 1557/7/6 1558/7/6
f 1557/7/6 1553/7/6 1558/7/6
f 1558/7/6 1553/7/6 1559/7/6
f 1556/7/6 1558/7/6 1560/7/6
f 1558/6/6 1559/6/6 1560/6/6
f 1560/6/6 1559/6/6 1561/6/6
f 1556/7/6 1560/7/6 1562/7/6
f 1560/7/6 1561/7/6 1562/7/6
f 1562/7/6 1561/7/6 1563/7/6
f 1562/6/6 1563/6/6 1564/6/6
f 1563/7/6 1561/7/6 1565/7/6
f 1564/6/6 1563/6/6 1565/6/6
f 1564/7/6 1565/7/6 1566/7/6
f 1565/7/6 1561/7/6 1566/7/6
f 1566/7/6 1561/7/6 1567/7/6
f 1564/7/6 1566/7/6 1568/7/6
f 1566/6/6 1567/6/6 1568/6/6
f 1568/6/6 1567/6/6 1569/6/6
f 1564/7/6 1568/7/6 1570/7/6
f 1568/7/6 1569/7/6 1570/7/6
f 1570/7/6 1569/7/6 1571/7/6
f 1570/6/6 1571/6/6 1572/6/6
f 1571/7/6 1569/7/6 1573/7/6
f 1572/6/6 1571/6/6 1573/6/6
f 1572/7/6 1573/7/6 1574/7/6
f 1573/7/6 1569/7/6 1574/7/6
f 1574/7/6 1569/7/6 1575/7/6
f 1572/7/6 1574/7/6 1576/7/6
f 1574/6/6 1575/6/6 1577/6/6
f 1576/7/6 1574/7/6 1577/7/6
f 1577/6/6 1575/6/6 1578/6/6
f 1576/4/6 1577/4/6 1579/4/6
f 1577/4/6 1578/4/6 1579/4/6
f 1579/4/6 1578/4/6 1580/4/6
