# MagicaVoxel @ Ephtracy

# group
o 

# material
mtllib arbol mediano.mtl
usemtl palette

# normals
vn -1 0 0
vn 1 0 0
vn 0 0 1
vn 0 0 -1
vn 0 -1 0
vn 0 1 0

# texcoords
vt 0.318359 0.5
vt 0.322266 0.5
vt 0.724609 0.5
vt 0.728516 0.5

# verts
v -11.3 9.7 -31.2
v -11.3 9.7 -31.8
v -11.3 9.8 -31.2
v -11.3 9.8 -31.3
v -11.3 10 -31.2
v -11.3 10 -31.3
v -11.3 10 -31.8
v -11.2 8.3 -31
v -11.2 8.3 -31.1
v -11.2 8.4 -31
v -11.2 8.4 -31.1
v -11.2 9.7 -31
v -11.2 9.7 -31.2
v -11.2 9.7 -31.8
v -11.2 9.7 -32
v -11.2 9.8 -31
v -11.2 9.8 -31.2
v -11.2 9.9 -31.8
v -11.2 9.9 -32
v -11.2 10 -31
v -11.2 10 -31.2
v -11.2 10 -31.3
v -11.2 10 -31.6
v -11.2 10 -31.8
v -11.2 10 -32
v -11.2 10.1 -31.2
v -11.2 10.1 -31.3
v -11.2 10.2 -31.5
v -11.2 10.2 -31.6
v -11.2 10.3 -31.4
v -11.2 10.3 -31.5
v -11.2 10.4 -31.2
v -11.2 10.4 -31.4
v -11.2 10.4 -31.8
v -11.1 8.3 -31.1
v -11.1 8.3 -31.3
v -11.1 8.3 -31.9
v -11.1 8.3 -32
v -11.1 8.4 -31.1
v -11.1 8.4 -31.3
v -11.1 8.4 -31.9
v -11.1 8.4 -32
v -11.1 9.7 -30.9
v -11.1 9.7 -31
v -11.1 9.7 -32
v -11.1 9.7 -32.1
v -11.1 9.8 -31
v -11.1 9.9 -32
v -11.1 10 -30.9
v -11.1 10 -31
v -11.1 10 -31.1
v -11.1 10 -31.2
v -11.1 10 -31.8
v -11.1 10 -31.9
v -11.1 10 -32
v -11.1 10 -32.1
v -11.1 10.1 -31.1
v -11.1 10.1 -31.2
v -11.1 10.4 -31.1
v -11.1 10.4 -31.2
v -11.1 10.4 -31.3
v -11.1 10.4 -31.4
v -11.1 10.4 -31.7
v -11.1 10.4 -31.8
v -11.1 10.4 -31.9
v -11.1 10.5 -31.4
v -11.1 10.5 -31.5
v -11.1 10.6 -31.5
v -11.1 10.6 -31.7
v -11.1 10.9 -31.3
v -11.1 10.9 -31.7
v -11 8.3 -31.7
v -11 8.3 -31.8
v -11 8.3 -31.9
v -11 8.3 -32
v -11 8.3 -32.1
v -11 8.4 -31.1
v -11 8.4 -31.2
v -11 8.4 -31.7
v -11 8.4 -31.8
v -11 8.4 -31.9
v -11 8.4 -32
v -11 8.4 -32.1
v -11 8.5 -31.1
v -11 8.5 -31.2
v -11 9.7 -30.8
v -11 9.7 -30.9
v -11 9.7 -32.1
v -11 9.7 -32.2
v -11 9.8 -30.8
v -11 9.8 -30.9
v -11 10 -30.8
v -11 10 -30.9
v -11 10 -31
v -11 10 -31.1
v -11 10 -31.9
v -11 10 -32
v -11 10 -32.1
v -11 10 -32.2
v -11 10.1 -31.1
v -11 10.2 -31
v -11 10.2 -31.1
v -11 10.4 -31
v -11 10.4 -31.1
v -11 10.4 -31.3
v -11 10.4 -31.7
v -11 10.4 -31.9
v -11 10.4 -32
v -11 10.6 -31.7
v -11 10.7 -31.7
v -11 10.7 -31.8
v -11 10.8 -31.8
v -11 10.8 -31.9
v -11 10.9 -31.1
v -11 10.9 -31.3
v -11 10.9 -31.7
v -11 10.9 -31.9
v -11 11.4 -31.3
v -11 11.4 -31.7
v -10.9 8.3 -31.3
v -10.9 8.3 -31.7
v -10.9 8.4 -31.2
v -10.9 8.4 -31.3
v -10.9 8.4 -31.7
v -10.9 8.4 -31.8
v -10.9 8.4 -31.9
v -10.9 8.5 -31.2
v -10.9 8.5 -31.3
v -10.9 8.5 -31.8
v -10.9 8.5 -31.9
v -10.9 10 -30.9
v -10.9 10 -31
v -10.9 10 -32
v -10.9 10 -32.1
v -10.9 10.2 -31
v -10.9 10.3 -30.9
v -10.9 10.3 -31
v -10.9 10.4 -30.9
v -10.9 10.4 -31
v -10.9 10.4 -31.1
v -10.9 10.4 -31.9
v -10.9 10.4 -32
v -10.9 10.4 -32.1
v -10.9 10.6 -31.9
v -10.9 10.6 -32
v -10.9 10.8 -31.9
v -10.9 10.9 -31
v -10.9 10.9 -31.1
v -10.9 10.9 -31.3
v -10.9 10.9 -31.7
v -10.9 10.9 -31.9
v -10.9 10.9 -32
v -10.9 11.4 -31.1
v -10.9 11.4 -31.3
v -10.9 11.4 -31.7
v -10.9 11.4 -31.9
v -10.9 11.7 -31.3
v -10.9 11.7 -31.7
v -10.8 8.4 -31.3
v -10.8 8.4 -31.6
v -10.8 8.4 -31.7
v -10.8 8.4 -31.8
v -10.8 8.5 -31.3
v -10.8 8.5 -31.4
v -10.8 8.5 -31.7
v -10.8 8.5 -31.8
v -10.8 8.6 -31.4
v -10.8 8.6 -31.5
v -10.8 8.6 -31.6
v -10.8 8.6 -31.7
v -10.8 8.8 -31.3
v -10.8 8.8 -31.4
v -10.8 8.8 -31.5
v -10.8 8.8 -31.6
v -10.8 8.8 -31.7
v -10.8 9.3 -31.4
v -10.8 9.3 -31.6
v -10.8 9.7 -30.7
v -10.8 9.7 -30.8
v -10.8 9.7 -32.2
v -10.8 9.7 -32.3
v -10.8 9.8 -30.7
v -10.8 9.8 -30.8
v -10.8 9.9 -30.8
v -10.8 10 -30.7
v -10.8 10 -30.8
v -10.8 10 -30.9
v -10.8 10 -32.1
v -10.8 10 -32.2
v -10.8 10 -32.3
v -10.8 10.2 -32.1
v -10.8 10.2 -32.2
v -10.8 10.3 -30.9
v -10.8 10.4 -30.8
v -10.8 10.4 -30.9
v -10.8 10.4 -32.1
v -10.8 10.4 -32.2
v -10.8 11.4 -31.2
v -10.8 11.4 -31.3
v -10.8 11.4 -31.7
v -10.8 11.4 -31.8
v -10.8 11.7 -31.2
v -10.8 11.7 -31.3
v -10.8 11.7 -31.7
v -10.8 11.7 -31.8
v -10.8 12 -31.3
v -10.8 12 -31.7
v -10.7 8.5 -31.2
v -10.7 8.5 -31.3
v -10.7 8.5 -31.7
v -10.7 8.5 -31.8
v -10.7 8.6 -31.7
v -10.7 8.6 -31.8
v -10.7 8.8 -31.2
v -10.7 8.8 -31.3
v -10.7 8.8 -31.4
v -10.7 8.8 -31.6
v -10.7 8.8 -31.7
v -10.7 8.8 -31.8
v -10.7 9.3 -31.3
v -10.7 9.3 -31.4
v -10.7 9.3 -31.6
v -10.7 9.3 -31.7
v -10.7 9.7 -31.4
v -10.7 9.7 -31.6
v -10.7 10.4 -30.9
v -10.7 10.4 -31
v -10.7 10.4 -32
v -10.7 10.4 -32.1
v -10.7 10.5 -32
v -10.7 10.5 -32.1
v -10.7 10.9 -30.9
v -10.7 10.9 -31
v -10.7 10.9 -31.1
v -10.7 10.9 -31.9
v -10.7 10.9 -32
v -10.7 10.9 -32.1
v -10.7 11.4 -31
v -10.7 11.4 -31.1
v -10.7 11.4 -31.2
v -10.7 11.4 -31.8
v -10.7 11.4 -31.9
v -10.7 11.4 -32
v -10.7 11.6 -31.1
v -10.7 11.6 -31.2
v -10.7 11.7 -31.1
v -10.7 11.7 -31.2
v -10.7 11.7 -31.3
v -10.7 11.7 -31.7
v -10.7 11.7 -31.8
v -10.7 11.7 -31.9
v -10.7 12 -31.2
v -10.7 12 -31.3
v -10.7 12 -31.4
v -10.7 12 -31.6
v -10.7 12 -31.7
v -10.7 12 -31.8
v -10.7 12.2 -31.4
v -10.7 12.2 -31.6
v -10.6 8.8 -31.2
v -10.6 8.8 -31.3
v -10.6 8.8 -31.7
v -10.6 8.8 -31.8
v -10.6 8.9 -31.7
v -10.6 8.9 -31.8
v -10.6 9.2 -31.2
v -10.6 9.2 -31.3
v -10.6 9.3 -31.2
v -10.6 9.3 -31.3
v -10.6 9.3 -31.4
v -10.6 9.3 -31.6
v -10.6 9.3 -31.7
v -10.6 9.3 -31.8
v -10.6 9.5 -31.6
v -10.6 9.5 -31.7
v -10.6 9.7 -31.3
v -10.6 9.7 -31.4
v -10.6 9.7 -31.6
v -10.6 9.7 -31.7
v -10.6 12 -31.3
v -10.6 12 -31.4
v -10.6 12 -31.6
v -10.6 12 -31.7
v -10.6 12.2 -31.3
v -10.6 12.2 -31.4
v -10.6 12.2 -31.6
v -10.6 12.2 -31.7
v -10.6 12.4 -31.4
v -10.6 12.4 -31.6
v -10.3 8.4 -31.1
v -10.3 8.4 -31.2
v -10.3 8.5 -31.1
v -10.3 8.5 -31.2
v -10.2 8.3 -31
v -10.2 8.3 -31.1
v -10.2 8.3 -31.9
v -10.2 8.3 -32
v -10.2 8.4 -31
v -10.2 8.4 -31.1
v -10.2 8.4 -31.9
v -10.2 8.4 -32
v -10.1 8.3 -32
v -10.1 8.3 -32.1
v -10.1 8.4 -32
v -10.1 8.4 -32.1
v -10.9 8.4 -31.1
v -10.9 8.4 -31.2
v -10.9 8.5 -31.1
v -10.9 8.5 -31.2
v -10.8 8.3 -32
v -10.8 8.3 -32.1
v -10.8 8.4 -32
v -10.8 8.4 -32.1
v -10.7 8.3 -31
v -10.7 8.3 -31.1
v -10.7 8.4 -31
v -10.7 8.4 -31.1
v -10.7 8.4 -31.8
v -10.7 8.4 -31.9
v -10.7 8.5 -31.8
v -10.7 8.5 -31.9
v -10.6 8.3 -31.9
v -10.6 8.3 -32
v -10.6 8.4 -31.9
v -10.6 8.4 -32
v -10.4 8.8 -31.2
v -10.4 8.8 -31.3
v -10.4 8.8 -31.7
v -10.4 8.8 -31.8
v -10.4 8.9 -31.7
v -10.4 8.9 -31.8
v -10.4 9.2 -31.2
v -10.4 9.2 -31.3
v -10.4 9.3 -31.2
v -10.4 9.3 -31.3
v -10.4 9.3 -31.4
v -10.4 9.3 -31.6
v -10.4 9.3 -31.7
v -10.4 9.3 -31.8
v -10.4 9.5 -31.6
v -10.4 9.5 -31.7
v -10.4 9.7 -31.3
v -10.4 9.7 -31.4
v -10.4 9.7 -31.6
v -10.4 9.7 -31.7
v -10.4 12 -31.3
v -10.4 12 -31.4
v -10.4 12 -31.6
v -10.4 12 -31.7
v -10.4 12.2 -31.3
v -10.4 12.2 -31.4
v -10.4 12.2 -31.6
v -10.4 12.2 -31.7
v -10.4 12.4 -31.4
v -10.4 12.4 -31.6
v -10.3 8.5 -31.2
v -10.3 8.5 -31.3
v -10.3 8.5 -31.7
v -10.3 8.5 -31.8
v -10.3 8.6 -31.3
v -10.3 8.6 -31.7
v -10.3 8.7 -31.2
v -10.3 8.7 -31.3
v -10.3 8.8 -31.2
v -10.3 8.8 -31.3
v -10.3 8.8 -31.4
v -10.3 8.8 -31.6
v -10.3 8.8 -31.7
v -10.3 8.8 -31.8
v -10.3 9.3 -31.3
v -10.3 9.3 -31.4
v -10.3 9.3 -31.6
v -10.3 9.3 -31.7
v -10.3 9.7 -31.4
v -10.3 9.7 -31.6
v -10.3 10.4 -30.9
v -10.3 10.4 -31
v -10.3 10.4 -32
v -10.3 10.4 -32.1
v -10.3 10.9 -30.9
v -10.3 10.9 -31
v -10.3 10.9 -31.1
v -10.3 10.9 -31.9
v -10.3 10.9 -32
v -10.3 10.9 -32.1
v -10.3 11 -31
v -10.3 11 -31.1
v -10.3 11.4 -31
v -10.3 11.4 -31.1
v -10.3 11.4 -31.2
v -10.3 11.4 -31.8
v -10.3 11.4 -31.9
v -10.3 11.4 -32
v -10.3 11.7 -31.1
v -10.3 11.7 -31.2
v -10.3 11.7 -31.3
v -10.3 11.7 -31.7
v -10.3 11.7 -31.8
v -10.3 11.7 -31.9
v -10.3 12 -31.2
v -10.3 12 -31.3
v -10.3 12 -31.4
v -10.3 12 -31.6
v -10.3 12 -31.7
v -10.3 12 -31.8
v -10.3 12.2 -31.4
v -10.3 12.2 -31.6
v -10.2 8.4 -31.3
v -10.2 8.4 -31.7
v -10.2 8.4 -31.8
v -10.2 8.5 -31.3
v -10.2 8.5 -31.7
v -10.2 8.5 -31.8
v -10.2 8.6 -31.3
v -10.2 8.6 -31.7
v -10.2 8.8 -31.3
v -10.2 8.8 -31.4
v -10.2 8.8 -31.6
v -10.2 8.8 -31.7
v -10.2 9.3 -31.4
v -10.2 9.3 -31.6
v -10.2 9.7 -30.7
v -10.2 9.7 -30.8
v -10.2 9.7 -32.2
v -10.2 9.7 -32.3
v -10.2 9.9 -30.8
v -10.2 10 -30.7
v -10.2 10 -30.8
v -10.2 10 -30.9
v -10.2 10 -32.1
v -10.2 10 -32.2
v -10.2 10 -32.3
v -10.2 10.2 -30.8
v -10.2 10.2 -30.9
v -10.2 10.3 -30.9
v -10.2 10.4 -30.8
v -10.2 10.4 -30.9
v -10.2 10.4 -32.1
v -10.2 10.4 -32.2
v -10.2 11.4 -31.2
v -10.2 11.4 -31.3
v -10.2 11.4 -31.7
v -10.2 11.4 -31.8
v -10.2 11.7 -31.2
v -10.2 11.7 -31.3
v -10.2 11.7 -31.4
v -10.2 11.7 -31.7
v -10.2 11.7 -31.8
v -10.2 12 -31.3
v -10.2 12 -31.7
v -10.1 8.3 -31.2
v -10.1 8.3 -31.7
v -10.1 8.4 -31.1
v -10.1 8.4 -31.2
v -10.1 8.4 -31.3
v -10.1 8.4 -31.7
v -10.1 8.5 -31.1
v -10.1 8.5 -31.3
v -10.1 10 -30.9
v -10.1 10 -31
v -10.1 10 -32
v -10.1 10 -32.1
v -10.1 10.3 -30.9
v -10.1 10.3 -31
v -10.1 10.4 -30.9
v -10.1 10.4 -31
v -10.1 10.4 -31.1
v -10.1 10.4 -31.9
v -10.1 10.4 -32
v -10.1 10.4 -32.1
v -10.1 10.9 -31
v -10.1 10.9 -31.1
v -10.1 10.9 -31.3
v -10.1 10.9 -31.7
v -10.1 10.9 -31.9
v -10.1 10.9 -32
v -10.1 11 -31.1
v -10.1 11 -31.2
v -10.1 11.3 -31.2
v -10.1 11.3 -31.3
v -10.1 11.4 -31.1
v -10.1 11.4 -31.3
v -10.1 11.4 -31.4
v -10.1 11.4 -31.7
v -10.1 11.4 -31.9
v -10.1 11.7 -31.3
v -10.1 11.7 -31.4
v -10.1 11.7 -31.7
v -10 8.3 -31.7
v -10 8.3 -31.9
v -10 8.4 -31.7
v -10 8.4 -31.9
v -10 9.7 -30.8
v -10 9.7 -30.9
v -10 9.7 -32.1
v -10 9.7 -32.2
v -10 9.8 -30.8
v -10 9.8 -30.9
v -10 9.9 -30.9
v -10 10 -30.8
v -10 10 -30.9
v -10 10 -31
v -10 10 -31.1
v -10 10 -31.9
v -10 10 -32
v -10 10 -32.1
v -10 10 -32.2
v -10 10.3 -31
v -10 10.3 -31.1
v -10 10.4 -31
v -10 10.4 -31.1
v -10 10.4 -31.3
v -10 10.4 -31.7
v -10 10.4 -31.9
v -10 10.4 -32
v -10 10.9 -31.1
v -10 10.9 -31.3
v -10 10.9 -31.7
v -10 10.9 -31.9
v -10 11.4 -31.3
v -10 11.4 -31.7
v -9.9 8.3 -31
v -9.9 8.3 -31.2
v -9.9 8.3 -31.9
v -9.9 8.3 -32.1
v -9.9 8.4 -31
v -9.9 8.4 -31.2
v -9.9 8.4 -31.9
v -9.9 8.4 -32.1
v -9.9 9.7 -30.9
v -9.9 9.7 -31
v -9.9 9.7 -32
v -9.9 9.7 -32.1
v -9.9 9.9 -30.9
v -9.9 9.9 -31
v -9.9 10 -30.9
v -9.9 10 -31
v -9.9 10 -31.1
v -9.9 10 -31.2
v -9.9 10 -31.8
v -9.9 10 -31.9
v -9.9 10 -32
v -9.9 10 -32.1
v -9.9 10.3 -31.1
v -9.9 10.3 -31.2
v -9.9 10.4 -31.1
v -9.9 10.4 -31.2
v -9.9 10.4 -31.3
v -9.9 10.4 -31.7
v -9.9 10.4 -31.8
v -9.9 10.4 -31.9
v -9.9 10.9 -31.3
v -9.9 10.9 -31.7
v -9.8 9.7 -31
v -9.8 9.7 -31.2
v -9.8 9.7 -31.8
v -9.8 9.7 -32
v -9.8 9.8 -31.8
v -9.8 9.9 -31
v -9.8 9.9 -31.2
v -9.8 10 -31
v -9.8 10 -31.2
v -9.8 10 -31.8
v -9.8 10 -32
v -9.8 10.4 -31.2
v -9.8 10.4 -31.8
v -9.7 9.7 -31.2
v -9.7 9.7 -31.5
v -9.7 9.7 -31.8
v -9.7 9.8 -31.5
v -9.7 9.8 -31.8
v -9.7 10 -31.2
v -9.7 10 -31.8
v -10.8 9.7 -30.7
v -10.8 9.8 -30.7
v -10.8 10 -30.7
v -10.3 9.7 -30.7
v -10.3 9.8 -30.7
v -10.2 9.7 -30.7
v -10.2 10 -30.7
v -11 9.7 -30.8
v -11 9.8 -30.8
v -11 10 -30.8
v -10.9 9.8 -30.8
v -10.9 9.9 -30.8
v -10.8 9.7 -30.8
v -10.8 9.8 -30.8
v -10.8 9.9 -30.8
v -10.8 10 -30.8
v -10.8 10.4 -30.8
v -10.3 10 -30.8
v -10.3 10.2 -30.8
v -10.2 9.7 -30.8
v -10.2 9.9 -30.8
v -10.2 10 -30.8
v -10.2 10.2 -30.8
v -10.2 10.4 -30.8
v -10.1 9.8 -30.8
v -10.1 9.9 -30.8
v -10 9.7 -30.8
v -10 9.8 -30.8
v -10 10 -30.8
v -11.1 9.7 -30.9
v -11.1 10 -30.9
v -11 9.7 -30.9
v -11 9.8 -30.9
v -11 10 -30.9
v -10.9 10 -30.9
v -10.9 10.3 -30.9
v -10.9 10.4 -30.9
v -10.8 10 -30.9
v -10.8 10.3 -30.9
v -10.8 10.4 -30.9
v -10.7 10.4 -30.9
v -10.7 10.9 -30.9
v -10.3 10.4 -30.9
v -10.3 10.9 -30.9
v -10.2 10 -30.9
v -10.2 10.2 -30.9
v -10.2 10.3 -30.9
v -10.2 10.4 -30.9
v -10.1 10 -30.9
v -10.1 10.3 -30.9
v -10.1 10.4 -30.9
v -10 9.7 -30.9
v -10 9.8 -30.9
v -10 9.9 -30.9
v -10 10 -30.9
v -9.9 9.7 -30.9
v -9.9 9.9 -30.9
v -9.9 10 -30.9
v -11.2 8.3 -31
v -11.2 8.4 -31
v -11.2 9.7 -31
v -11.2 9.8 -31
v -11.2 10 -31
v -11.1 9.7 -31
v -11.1 9.8 -31
v -11.1 10 -31
v -11 10 -31
v -11 10.2 -31
v -11 10.4 -31
v -10.9 10 -31
v -10.9 10.2 -31
v -10.9 10.3 -31
v -10.9 10.4 -31
v -10.9 10.9 -31
v -10.7 8.3 -31
v -10.7 8.4 -31
v -10.7 10.4 -31
v -10.7 10.9 -31
v -10.7 11.4 -31
v -10.5 11.3 -31
v -10.5 11.4 -31
v -10.4 11 -31
v -10.4 11.3 -31
v -10.3 10.4 -31
v -10.3 10.9 -31
v -10.3 11 -31
v -10.3 11.4 -31
v -10.2 8.3 -31
v -10.2 8.4 -31
v -10.1 10 -31
v -10.1 10.3 -31
v -10.1 10.4 -31
v -10.1 10.9 -31
v -10 10 -31
v -10 10.3 -31
v -10 10.4 -31
v -9.9 8.3 -31
v -9.9 8.4 -31
v -9.9 9.7 -31
v -9.9 9.9 -31
v -9.9 10 -31
v -9.8 9.7 -31
v -9.8 9.9 -31
v -9.8 10 -31
v -11.1 10 -31.1
v -11.1 10.1 -31.1
v -11.1 10.4 -31.1
v -11 8.4 -31.1
v -11 8.5 -31.1
v -11 10 -31.1
v -11 10.1 -31.1
v -11 10.2 -31.1
v -11 10.4 -31.1
v -11 10.9 -31.1
v -10.9 8.4 -31.1
v -10.9 8.5 -31.1
v -10.9 10.4 -31.1
v -10.9 10.9 -31.1
v -10.9 11.4 -31.1
v -10.7 8.3 -31.1
v -10.7 8.4 -31.1
v -10.7 10.9 -31.1
v -10.7 11.4 -31.1
v -10.7 11.6 -31.1
v -10.7 11.7 -31.1
v -10.5 11.4 -31.1
v -10.5 11.6 -31.1
v -10.5 11.7 -31.1
v -10.3 8.4 -31.1
v -10.3 8.5 -31.1
v -10.3 10.9 -31.1
v -10.3 11 -31.1
v -10.3 11.4 -31.1
v -10.3 11.7 -31.1
v -10.2 8.3 -31.1
v -10.2 8.4 -31.1
v -10.1 8.4 -31.1
v -10.1 8.5 -31.1
v -10.1 10.4 -31.1
v -10.1 10.9 -31.1
v -10.1 11 -31.1
v -10.1 11.4 -31.1
v -10 10 -31.1
v -10 10.3 -31.1
v -10 10.4 -31.1
v -10 10.9 -31.1
v -9.9 10 -31.1
v -9.9 10.3 -31.1
v -9.9 10.4 -31.1
v -11.3 9.7 -31.2
v -11.3 9.8 -31.2
v -11.3 10 -31.2
v -11.2 9.7 -31.2
v -11.2 9.8 -31.2
v -11.2 10 -31.2
v -11.2 10.1 -31.2
v -11.2 10.4 -31.2
v -11.1 10 -31.2
v -11.1 10.1 -31.2
v -11.1 10.4 -31.2
v -10.9 8.4 -31.2
v -10.9 8.5 -31.2
v -10.8 8.4 -31.2
v -10.8 8.5 -31.2
v -10.8 11.4 -31.2
v -10.8 11.7 -31.2
v -10.7 8.5 -31.2
v -10.7 8.8 -31.2
v -10.7 11.4 -31.2
v -10.7 11.6 -31.2
v -10.7 11.7 -31.2
v -10.7 12 -31.2
v -10.6 8.8 -31.2
v -10.6 9.2 -31.2
v -10.6 9.3 -31.2
v -10.5 11.7 -31.2
v -10.4 8.4 -31.2
v -10.4 8.5 -31.2
v -10.4 8.7 -31.2
v -10.4 8.8 -31.2
v -10.4 9.2 -31.2
v -10.4 9.3 -31.2
v -10.3 8.4 -31.2
v -10.3 8.5 -31.2
v -10.3 8.7 -31.2
v -10.3 8.8 -31.2
v -10.3 11.4 -31.2
v -10.3 11.7 -31.2
v -10.3 12 -31.2
v -10.2 11.4 -31.2
v -10.2 11.7 -31.2
v -9.9 10 -31.2
v -9.9 10.3 -31.2
v -9.9 10.4 -31.2
v -9.8 9.7 -31.2
v -9.8 9.9 -31.2
v -9.8 10 -31.2
v -9.8 10.4 -31.2
v -9.7 9.7 -31.2
v -9.7 10 -31.2
v -11.1 10.4 -31.3
v -11.1 10.9 -31.3
v -11 10.4 -31.3
v -11 10.9 -31.3
v -11 11.4 -31.3
v -10.9 10.9 -31.3
v -10.9 11.4 -31.3
v -10.9 11.7 -31.3
v -10.8 8.5 -31.3
v -10.8 8.8 -31.3
v -10.8 11.4 -31.3
v -10.8 11.7 -31.3
v -10.8 12 -31.3
v -10.7 8.5 -31.3
v -10.7 8.8 -31.3
v -10.7 9.3 -31.3
v -10.7 11.7 -31.3
v -10.7 12 -31.3
v -10.6 8.8 -31.3
v -10.6 9.2 -31.3
v -10.6 9.3 -31.3
v -10.6 9.7 -31.3
v -10.6 12 -31.3
v -10.6 12.2 -31.3
v -10.4 8.8 -31.3
v -10.4 9.2 -31.3
v -10.4 9.3 -31.3
v -10.4 9.7 -31.3
v -10.4 12 -31.3
v -10.4 12.2 -31.3
v -10.3 8.5 -31.3
v -10.3 8.6 -31.3
v -10.3 8.7 -31.3
v -10.3 8.8 -31.3
v -10.3 9.3 -31.3
v -10.3 11.7 -31.3
v -10.3 12 -31.3
v -10.2 8.5 -31.3
v -10.2 8.6 -31.3
v -10.2 8.8 -31.3
v -10.2 11.4 -31.3
v -10.2 11.7 -31.3
v -10.2 12 -31.3
v -10.1 10.9 -31.3
v -10.1 11.3 -31.3
v -10.1 11.4 -31.3
v -10.1 11.7 -31.3
v -10 10.4 -31.3
v -10 10.9 -31.3
v -10 11.4 -31.3
v -9.9 10.4 -31.3
v -9.9 10.9 -31.3
v -10.8 8.8 -31.4
v -10.8 9.3 -31.4
v -10.7 8.8 -31.4
v -10.7 9.3 -31.4
v -10.7 9.7 -31.4
v -10.7 12 -31.4
v -10.7 12.2 -31.4
v -10.6 9.3 -31.4
v -10.6 9.7 -31.4
v -10.6 12 -31.4
v -10.6 12.2 -31.4
v -10.6 12.4 -31.4
v -10.4 9.3 -31.4
v -10.4 9.7 -31.4
v -10.4 12 -31.4
v -10.4 12.2 -31.4
v -10.4 12.4 -31.4
v -10.3 8.8 -31.4
v -10.3 9.3 -31.4
v -10.3 9.7 -31.4
v -10.3 12 -31.4
v -10.3 12.2 -31.4
v -10.2 8.8 -31.4
v -10.2 9.3 -31.4
v -11 8.3 -31.7
v -11 8.4 -31.7
v -10.9 8.3 -31.7
v -10.9 8.4 -31.7
v -10.1 8.3 -31.7
v -10.1 8.4 -31.7
v -10 8.3 -31.7
v -10 8.4 -31.7
v -10.9 8.4 -31.8
v -10.9 8.5 -31.8
v -10.8 8.4 -31.8
v -10.8 8.5 -31.8
v -11.1 8.3 -31.9
v -11.1 8.4 -31.9
v -11 8.3 -31.9
v -11 8.4 -31.9
v -10 8.3 -31.9
v -10 8.4 -31.9
v -9.9 8.3 -31.9
v -9.9 8.4 -31.9
v -11.2 8.3 -31.1
v -11.2 8.4 -31.1
v -11.1 8.3 -31.1
v -11.1 8.4 -31.1
v -11 8.4 -31.2
v -11 8.5 -31.2
v -10.9 8.4 -31.2
v -10.9 8.5 -31.2
v -10.1 8.3 -31.2
v -10.1 8.4 -31.2
v -9.9 8.3 -31.2
v -9.9 8.4 -31.2
v -11.1 8.3 -31.3
v -11.1 8.4 -31.3
v -10.9 8.3 -31.3
v -10.9 8.4 -31.3
v -10.9 8.5 -31.3
v -10.8 8.4 -31.3
v -10.8 8.5 -31.3
v -10.2 8.4 -31.3
v -10.2 8.5 -31.3
v -10.1 8.4 -31.3
v -10.1 8.5 -31.3
v -10.8 8.8 -31.6
v -10.8 9.3 -31.6
v -10.7 8.8 -31.6
v -10.7 9.3 -31.6
v -10.7 9.7 -31.6
v -10.7 12 -31.6
v -10.7 12.2 -31.6
v -10.6 9.3 -31.6
v -10.6 9.5 -31.6
v -10.6 9.7 -31.6
v -10.6 12 -31.6
v -10.6 12.2 -31.6
v -10.6 12.4 -31.6
v -10.4 9.3 -31.6
v -10.4 9.5 -31.6
v -10.4 9.7 -31.6
v -10.4 12 -31.6
v -10.4 12.2 -31.6
v -10.4 12.4 -31.6
v -10.3 8.8 -31.6
v -10.3 9.3 -31.6
v -10.3 9.7 -31.6
v -10.3 12 -31.6
v -10.3 12.2 -31.6
v -10.2 8.8 -31.6
v -10.2 9.3 -31.6
v -11.1 10.4 -31.7
v -11.1 10.6 -31.7
v -11.1 10.9 -31.7
v -11 10.4 -31.7
v -11 10.6 -31.7
v -11 10.7 -31.7
v -11 10.9 -31.7
v -11 11.4 -31.7
v -10.9 10.9 -31.7
v -10.9 11.4 -31.7
v -10.9 11.7 -31.7
v -10.8 8.5 -31.7
v -10.8 8.6 -31.7
v -10.8 8.8 -31.7
v -10.8 11.4 -31.7
v -10.8 11.7 -31.7
v -10.8 12 -31.7
v -10.7 8.5 -31.7
v -10.7 8.6 -31.7
v -10.7 8.8 -31.7
v -10.7 9.3 -31.7
v -10.7 11.7 -31.7
v -10.7 12 -31.7
v -10.6 8.8 -31.7
v -10.6 8.9 -31.7
v -10.6 9.3 -31.7
v -10.6 9.5 -31.7
v -10.6 9.7 -31.7
v -10.6 12 -31.7
v -10.6 12.2 -31.7
v -10.4 8.8 -31.7
v -10.4 8.9 -31.7
v -10.4 9.3 -31.7
v -10.4 9.5 -31.7
v -10.4 9.7 -31.7
v -10.4 12 -31.7
v -10.4 12.2 -31.7
v -10.3 8.5 -31.7
v -10.3 8.6 -31.7
v -10.3 8.8 -31.7
v -10.3 9.3 -31.7
v -10.3 11.7 -31.7
v -10.3 12 -31.7
v -10.2 8.5 -31.7
v -10.2 8.6 -31.7
v -10.2 8.8 -31.7
v -10.2 11.4 -31.7
v -10.2 11.7 -31.7
v -10.2 12 -31.7
v -10.1 10.9 -31.7
v -10.1 11.4 -31.7
v -10.1 11.7 -31.7
v -10 10.4 -31.7
v -10 10.9 -31.7
v -10 11.4 -31.7
v -9.9 10.4 -31.7
v -9.9 10.9 -31.7
v -11.3 9.7 -31.8
v -11.3 10 -31.8
v -11.2 9.7 -31.8
v -11.2 9.9 -31.8
v -11.2 10 -31.8
v -11.2 10.4 -31.8
v -11.1 10 -31.8
v -11.1 10.4 -31.8
v -10.8 11.4 -31.8
v -10.8 11.7 -31.8
v -10.7 8.4 -31.8
v -10.7 8.5 -31.8
v -10.7 8.6 -31.8
v -10.7 8.8 -31.8
v -10.7 11.4 -31.8
v -10.7 11.7 -31.8
v -10.7 12 -31.8
v -10.6 8.4 -31.8
v -10.6 8.6 -31.8
v -10.6 8.8 -31.8
v -10.6 8.9 -31.8
v -10.6 9.3 -31.8
v -10.4 8.8 -31.8
v -10.4 8.9 -31.8
v -10.4 9.3 -31.8
v -10.3 8.5 -31.8
v -10.3 8.8 -31.8
v -10.3 11.4 -31.8
v -10.3 11.7 -31.8
v -10.3 12 -31.8
v -10.2 8.4 -31.8
v -10.2 8.5 -31.8
v -10.2 11.4 -31.8
v -10.2 11.7 -31.8
v -9.9 10 -31.8
v -9.9 10.4 -31.8
v -9.8 9.7 -31.8
v -9.8 9.8 -31.8
v -9.8 10 -31.8
v -9.8 10.4 -31.8
v -9.7 9.7 -31.8
v -9.7 9.8 -31.8
v -9.7 10 -31.8
v -11.1 10 -31.9
v -11.1 10.4 -31.9
v -11 10 -31.9
v -11 10.4 -31.9
v -11 10.8 -31.9
v -11 10.9 -31.9
v -10.9 8.4 -31.9
v -10.9 8.5 -31.9
v -10.9 10.4 -31.9
v -10.9 10.6 -31.9
v -10.9 10.8 -31.9
v -10.9 10.9 -31.9
v -10.9 11.4 -31.9
v -10.7 8.4 -31.9
v -10.7 8.5 -31.9
v -10.7 10.9 -31.9
v -10.7 11.4 -31.9
v -10.7 11.7 -31.9
v -10.6 8.3 -31.9
v -10.6 8.4 -31.9
v -10.3 10.9 -31.9
v -10.3 11.4 -31.9
v -10.3 11.7 -31.9
v -10.2 8.3 -31.9
v -10.2 8.4 -31.9
v -10.1 10.4 -31.9
v -10.1 10.9 -31.9
v -10.1 11.4 -31.9
v -10 10 -31.9
v -10 10.4 -31.9
v -10 10.9 -31.9
v -9.9 10 -31.9
v -9.9 10.4 -31.9
v -11.2 9.7 -32
v -11.2 9.9 -32
v -11.2 10 -32
v -11.1 8.3 -32
v -11.1 8.4 -32
v -11.1 9.7 -32
v -11.1 9.9 -32
v -11.1 10 -32
v -11 8.3 -32
v -11 8.4 -32
v -11 10 -32
v -11 10.4 -32
v -10.9 10 -32
v -10.9 10.4 -32
v -10.9 10.6 -32
v -10.9 10.9 -32
v -10.8 8.3 -32
v -10.8 8.4 -32
v -10.8 10.5 -32
v -10.8 10.6 -32
v -10.7 10.4 -32
v -10.7 10.5 -32
v -10.7 10.9 -32
v -10.7 11.4 -32
v -10.6 8.3 -32
v -10.6 8.4 -32
v -10.3 10.4 -32
v -10.3 10.9 -32
v -10.3 11.4 -32
v -10.2 8.3 -32
v -10.2 8.4 -32
v -10.1 8.3 -32
v -10.1 8.4 -32
v -10.1 10 -32
v -10.1 10.4 -32
v -10.1 10.9 -32
v -10 10 -32
v -10 10.4 -32
v -9.9 9.7 -32
v -9.9 10 -32
v -9.8 9.7 -32
v -9.8 10 -32
v -11.1 9.7 -32.1
v -11.1 10 -32.1
v -11 8.3 -32.1
v -11 8.4 -32.1
v -11 9.7 -32.1
v -11 10 -32.1
v -10.9 10 -32.1
v -10.9 10.4 -32.1
v -10.8 8.3 -32.1
v -10.8 8.4 -32.1
v -10.8 10 -32.1
v -10.8 10.2 -32.1
v -10.8 10.4 -32.1
v -10.7 10.4 -32.1
v -10.7 10.5 -32.1
v -10.7 10.9 -32.1
v -10.6 10.4 -32.1
v -10.6 10.5 -32.1
v -10.3 10.4 -32.1
v -10.3 10.9 -32.1
v -10.2 10 -32.1
v -10.2 10.4 -32.1
v -10.1 8.3 -32.1
v -10.1 8.4 -32.1
v -10.1 10 -32.1
v -10.1 10.4 -32.1
v -10 9.7 -32.1
v -10 10 -32.1
v -9.9 8.3 -32.1
v -9.9 8.4 -32.1
v -9.9 9.7 -32.1
v -9.9 10 -32.1
v -11 9.7 -32.2
v -11 10 -32.2
v -10.9 9.7 -32.2
v -10.9 10 -32.2
v -10.8 9.7 -32.2
v -10.8 10 -32.2
v -10.8 10.2 -32.2
v -10.8 10.4 -32.2
v -10.7 10.2 -32.2
v -10.7 10.4 -32.2
v -10.2 9.7 -32.2
v -10.2 10 -32.2
v -10.2 10.4 -32.2
v -10 9.7 -32.2
v -10 10 -32.2
v -10.8 9.7 -32.3
v -10.8 10 -32.3
v -10.2 9.7 -32.3
v -10.2 10 -32.3
v -11.2 8.3 -31
v -10.7 8.3 -31
v -10.2 8.3 -31
v -9.9 8.3 -31
v -11.2 8.3 -31.1
v -11.1 8.3 -31.1
v -10.7 8.3 -31.1
v -10.2 8.3 -31.1
v -10.1 8.3 -31.2
v -9.9 8.3 -31.2
v -11.1 8.3 -31.3
v -10.9 8.3 -31.3
v -10.3 8.3 -31.3
v -10.2 8.3 -31.3
v -10.3 8.3 -31.5
v -10.2 8.3 -31.5
v -11 8.3 -31.7
v -10.9 8.3 -31.7
v -10.8 8.3 -31.7
v -10.1 8.3 -31.7
v -10 8.3 -31.7
v -11 8.3 -31.8
v -10.9 8.3 -31.8
v -11.1 8.3 -31.9
v -11 8.3 -31.9
v -10.8 8.3 -31.9
v -10.6 8.3 -31.9
v -10.2 8.3 -31.9
v -10 8.3 -31.9
v -9.9 8.3 -31.9
v -11.1 8.3 -32
v -11 8.3 -32
v -10.8 8.3 -32
v -10.6 8.3 -32
v -10.2 8.3 -32
v -10.1 8.3 -32
v -11 8.3 -32.1
v -10.8 8.3 -32.1
v -10.1 8.3 -32.1
v -9.9 8.3 -32.1
v -10.8 9.7 -30.7
v -10.3 9.7 -30.7
v -10.2 9.7 -30.7
v -11 9.7 -30.8
v -10.8 9.7 -30.8
v -10.2 9.7 -30.8
v -10 9.7 -30.8
v -11.1 9.7 -30.9
v -11 9.7 -30.9
v -10.4 9.7 -30.9
v -10.3 9.7 -30.9
v -10 9.7 -30.9
v -9.9 9.7 -30.9
v -11.2 9.7 -31
v -11.1 9.7 -31
v -11 9.7 -31
v -10.5 9.7 -31
v -10.4 9.7 -31
v -9.9 9.7 -31
v -9.8 9.7 -31
v -10.6 9.7 -31.1
v -10.5 9.7 -31.1
v -11.3 9.7 -31.2
v -11.2 9.7 -31.2
v -10.8 9.7 -31.2
v -10.6 9.7 -31.2
v -9.8 9.7 -31.2
v -9.7 9.7 -31.2
v -10.6 9.7 -31.3
v -10.4 9.7 -31.3
v -10.7 9.7 -31.4
v -10.6 9.7 -31.4
v -10.4 9.7 -31.4
v -10.3 9.7 -31.4
v -10 9.7 -31.4
v -9.8 9.7 -31.4
v -9.8 9.7 -31.5
v -9.7 9.7 -31.5
v -10.7 9.7 -31.6
v -10.6 9.7 -31.6
v -10.4 9.7 -31.6
v -10.3 9.7 -31.6
v -10.6 9.7 -31.7
v -10.4 9.7 -31.7
v -10 9.7 -31.7
v -9.9 9.7 -31.7
v -11.3 9.7 -31.8
v -11.2 9.7 -31.8
v -9.9 9.7 -31.8
v -9.8 9.7 -31.8
v -9.7 9.7 -31.8
v -11.1 9.7 -31.9
v -11 9.7 -31.9
v -11.2 9.7 -32
v -11.1 9.7 -32
v -11 9.7 -32
v -10.9 9.7 -32
v -9.9 9.7 -32
v -9.8 9.7 -32
v -11.1 9.7 -32.1
v -11 9.7 -32.1
v -10 9.7 -32.1
v -9.9 9.7 -32.1
v -11 9.7 -32.2
v -10.9 9.7 -32.2
v -10.8 9.7 -32.2
v -10.2 9.7 -32.2
v -10 9.7 -32.2
v -10.8 9.7 -32.3
v -10.2 9.7 -32.3
v -11.2 8.4 -31
v -10.7 8.4 -31
v -10.2 8.4 -31
v -9.9 8.4 -31
v -11.2 8.4 -31.1
v -11.1 8.4 -31.1
v -11 8.4 -31.1
v -10.9 8.4 -31.1
v -10.7 8.4 -31.1
v -10.3 8.4 -31.1
v -10.2 8.4 -31.1
v -10.1 8.4 -31.1
v -11 8.4 -31.2
v -10.9 8.4 -31.2
v -10.8 8.4 -31.2
v -10.4 8.4 -31.2
v -10.3 8.4 -31.2
v -10.1 8.4 -31.2
v -9.9 8.4 -31.2
v -11.1 8.4 -31.3
v -10.9 8.4 -31.3
v -10.8 8.4 -31.3
v -10.2 8.4 -31.3
v -10.1 8.4 -31.3
v -10.8 8.4 -31.6
v -11 8.4 -31.7
v -10.9 8.4 -31.7
v -10.8 8.4 -31.7
v -10.2 8.4 -31.7
v -10.1 8.4 -31.7
v -10 8.4 -31.7
v -11 8.4 -31.8
v -10.9 8.4 -31.8
v -10.8 8.4 -31.8
v -10.7 8.4 -31.8
v -10.6 8.4 -31.8
v -10.2 8.4 -31.8
v -11.1 8.4 -31.9
v -11 8.4 -31.9
v -10.9 8.4 -31.9
v -10.7 8.4 -31.9
v -10.6 8.4 -31.9
v -10.2 8.4 -31.9
v -10 8.4 -31.9
v -9.9 8.4 -31.9
v -11.1 8.4 -32
v -11 8.4 -32
v -10.8 8.4 -32
v -10.6 8.4 -32
v -10.2 8.4 -32
v -10.1 8.4 -32
v -11 8.4 -32.1
v -10.8 8.4 -32.1
v -10.1 8.4 -32.1
v -9.9 8.4 -32.1
v -11 8.5 -31.1
v -10.9 8.5 -31.1
v -10.3 8.5 -31.1
v -10.1 8.5 -31.1
v -11 8.5 -31.2
v -10.9 8.5 -31.2
v -10.8 8.5 -31.2
v -10.7 8.5 -31.2
v -10.3 8.5 -31.2
v -10.9 8.5 -31.3
v -10.8 8.5 -31.3
v -10.7 8.5 -31.3
v -10.3 8.5 -31.3
v -10.2 8.5 -31.3
v -10.1 8.5 -31.3
v -10.8 8.5 -31.7
v -10.7 8.5 -31.7
v -10.3 8.5 -31.7
v -10.2 8.5 -31.7
v -10.9 8.5 -31.8
v -10.8 8.5 -31.8
v -10.7 8.5 -31.8
v -10.3 8.5 -31.8
v -10.2 8.5 -31.8
v -10.9 8.5 -31.9
v -10.7 8.5 -31.9
v -10.7 8.8 -31.2
v -10.6 8.8 -31.2
v -10.4 8.8 -31.2
v -10.3 8.8 -31.2
v -10.8 8.8 -31.3
v -10.7 8.8 -31.3
v -10.6 8.8 -31.3
v -10.4 8.8 -31.3
v -10.3 8.8 -31.3
v -10.2 8.8 -31.3
v -10.8 8.8 -31.4
v -10.7 8.8 -31.4
v -10.3 8.8 -31.4
v -10.2 8.8 -31.4
v -10.8 8.8 -31.6
v -10.7 8.8 -31.6
v -10.3 8.8 -31.6
v -10.2 8.8 -31.6
v -10.8 8.8 -31.7
v -10.7 8.8 -31.7
v -10.6 8.8 -31.7
v -10.4 8.8 -31.7
v -10.3 8.8 -31.7
v -10.2 8.8 -31.7
v -10.7 8.8 -31.8
v -10.6 8.8 -31.8
v -10.4 8.8 -31.8
v -10.3 8.8 -31.8
v -10.6 9.3 -31.2
v -10.4 9.3 -31.2
v -10.7 9.3 -31.3
v -10.6 9.3 -31.3
v -10.4 9.3 -31.3
v -10.3 9.3 -31.3
v -10.8 9.3 -31.4
v -10.7 9.3 -31.4
v -10.6 9.3 -31.4
v -10.4 9.3 -31.4
v -10.3 9.3 -31.4
v -10.2 9.3 -31.4
v -10.8 9.3 -31.6
v -10.7 9.3 -31.6
v -10.6 9.3 -31.6
v -10.4 9.3 -31.6
v -10.3 9.3 -31.6
v -10.2 9.3 -31.6
v -10.7 9.3 -31.7
v -10.6 9.3 -31.7
v -10.4 9.3 -31.7
v -10.3 9.3 -31.7
v -10.6 9.3 -31.8
v -10.4 9.3 -31.8
v -10.8 10 -30.7
v -10.2 10 -30.7
v -11 10 -30.8
v -10.8 10 -30.8
v -10.3 10 -30.8
v -10.2 10 -30.8
v -10 10 -30.8
v -11.1 10 -30.9
v -11 10 -30.9
v -10.9 10 -30.9
v -10.8 10 -30.9
v -10.2 10 -30.9
v -10.1 10 -30.9
v -10 10 -30.9
v -9.9 10 -30.9
v -11.2 10 -31
v -11.1 10 -31
v -11 10 -31
v -10.9 10 -31
v -10.1 10 -31
v -10 10 -31
v -9.9 10 -31
v -9.8 10 -31
v -11.1 10 -31.1
v -11 10 -31.1
v -10 10 -31.1
v -9.9 10 -31.1
v -11.3 10 -31.2
v -11.2 10 -31.2
v -11.1 10 -31.2
v -9.9 10 -31.2
v -9.8 10 -31.2
v -9.7 10 -31.2
v -11.3 10 -31.3
v -11.2 10 -31.3
v -11.2 10 -31.6
v -11.3 10 -31.8
v -11.2 10 -31.8
v -11.1 10 -31.8
v -9.9 10 -31.8
v -9.8 10 -31.8
v -9.7 10 -31.8
v -11.1 10 -31.9
v -11 10 -31.9
v -10 10 -31.9
v -9.9 10 -31.9
v -11.2 10 -32
v -11.1 10 -32
v -11 10 -32
v -10.9 10 -32
v -10.1 10 -32
v -10 10 -32
v -9.9 10 -32
v -9.8 10 -32
v -11.1 10 -32.1
v -11 10 -32.1
v -10.9 10 -32.1
v -10.8 10 -32.1
v -10.2 10 -32.1
v -10.1 10 -32.1
v -10 10 -32.1
v -9.9 10 -32.1
v -11 10 -32.2
v -10.9 10 -32.2
v -10.8 10 -32.2
v -10.2 10 -32.2
v -10 10 -32.2
v -10.8 10 -32.3
v -10.2 10 -32.3
v -10.8 10.4 -30.8
v -10.2 10.4 -30.8
v -10.9 10.4 -30.9
v -10.8 10.4 -30.9
v -10.7 10.4 -30.9
v -10.3 10.4 -30.9
v -10.2 10.4 -30.9
v -10.1 10.4 -30.9
v -11 10.4 -31
v -10.9 10.4 -31
v -10.7 10.4 -31
v -10.3 10.4 -31
v -10.1 10.4 -31
v -10 10.4 -31
v -11.1 10.4 -31.1
v -11 10.4 -31.1
v -10.9 10.4 -31.1
v -10.1 10.4 -31.1
v -10 10.4 -31.1
v -9.9 10.4 -31.1
v -11.2 10.4 -31.2
v -11.1 10.4 -31.2
v -9.9 10.4 -31.2
v -9.8 10.4 -31.2
v -11.1 10.4 -31.3
v -11 10.4 -31.3
v -10 10.4 -31.3
v -9.9 10.4 -31.3
v -11.2 10.4 -31.4
v -11.1 10.4 -31.4
v -11.1 10.4 -31.7
v -11 10.4 -31.7
v -10 10.4 -31.7
v -9.9 10.4 -31.7
v -11.2 10.4 -31.8
v -11.1 10.4 -31.8
v -9.9 10.4 -31.8
v -9.8 10.4 -31.8
v -11.1 10.4 -31.9
v -11 10.4 -31.9
v -10.9 10.4 -31.9
v -10.1 10.4 -31.9
v -10 10.4 -31.9
v -9.9 10.4 -31.9
v -11 10.4 -32
v -10.9 10.4 -32
v -10.7 10.4 -32
v -10.3 10.4 -32
v -10.1 10.4 -32
v -10 10.4 -32
v -10.9 10.4 -32.1
v -10.8 10.4 -32.1
v -10.7 10.4 -32.1
v -10.6 10.4 -32.1
v -10.3 10.4 -32.1
v -10.2 10.4 -32.1
v -10.1 10.4 -32.1
v -10.8 10.4 -32.2
v -10.7 10.4 -32.2
v -10.2 10.4 -32.2
v -10.7 10.9 -30.9
v -10.3 10.9 -30.9
v -10.9 10.9 -31
v -10.7 10.9 -31
v -10.3 10.9 -31
v -10.1 10.9 -31
v -11 10.9 -31.1
v -10.9 10.9 -31.1
v -10.7 10.9 -31.1
v -10.3 10.9 -31.1
v -10.1 10.9 -31.1
v -10 10.9 -31.1
v -11.1 10.9 -31.3
v -11 10.9 -31.3
v -10.9 10.9 -31.3
v -10.1 10.9 -31.3
v -10 10.9 -31.3
v -9.9 10.9 -31.3
v -11.1 10.9 -31.7
v -11 10.9 -31.7
v -10.9 10.9 -31.7
v -10.1 10.9 -31.7
v -10 10.9 -31.7
v -9.9 10.9 -31.7
v -11 10.9 -31.9
v -10.9 10.9 -31.9
v -10.7 10.9 -31.9
v -10.3 10.9 -31.9
v -10.1 10.9 -31.9
v -10 10.9 -31.9
v -10.9 10.9 -32
v -10.7 10.9 -32
v -10.3 10.9 -32
v -10.1 10.9 -32
v -10.7 10.9 -32.1
v -10.3 10.9 -32.1
v -10.7 11.4 -31
v -10.5 11.4 -31
v -10.3 11.4 -31
v -10.9 11.4 -31.1
v -10.7 11.4 -31.1
v -10.5 11.4 -31.1
v -10.3 11.4 -31.1
v -10.1 11.4 -31.1
v -10.8 11.4 -31.2
v -10.7 11.4 -31.2
v -10.3 11.4 -31.2
v -10.2 11.4 -31.2
v -11 11.4 -31.3
v -10.9 11.4 -31.3
v -10.8 11.4 -31.3
v -10.2 11.4 -31.3
v -10.1 11.4 -31.3
v -10 11.4 -31.3
v -10.1 11.4 -31.4
v -11 11.4 -31.7
v -10.9 11.4 -31.7
v -10.8 11.4 -31.7
v -10.2 11.4 -31.7
v -10.1 11.4 -31.7
v -10 11.4 -31.7
v -10.8 11.4 -31.8
v -10.7 11.4 -31.8
v -10.3 11.4 -31.8
v -10.2 11.4 -31.8
v -10.9 11.4 -31.9
v -10.7 11.4 -31.9
v -10.3 11.4 -31.9
v -10.1 11.4 -31.9
v -10.7 11.4 -32
v -10.3 11.4 -32
v -10.7 11.7 -31.1
v -10.5 11.7 -31.1
v -10.3 11.7 -31.1
v -10.8 11.7 -31.2
v -10.7 11.7 -31.2
v -10.5 11.7 -31.2
v -10.3 11.7 -31.2
v -10.2 11.7 -31.2
v -10.9 11.7 -31.3
v -10.8 11.7 -31.3
v -10.7 11.7 -31.3
v -10.3 11.7 -31.3
v -10.2 11.7 -31.3
v -10.1 11.7 -31.3
v -10.2 11.7 -31.4
v -10.1 11.7 -31.4
v -10.9 11.7 -31.7
v -10.8 11.7 -31.7
v -10.7 11.7 -31.7
v -10.3 11.7 -31.7
v -10.2 11.7 -31.7
v -10.1 11.7 -31.7
v -10.8 11.7 -31.8
v -10.7 11.7 -31.8
v -10.3 11.7 -31.8
v -10.2 11.7 -31.8
v -10.7 11.7 -31.9
v -10.3 11.7 -31.9
v -10.7 12 -31.2
v -10.3 12 -31.2
v -10.8 12 -31.3
v -10.7 12 -31.3
v -10.6 12 -31.3
v -10.4 12 -31.3
v -10.3 12 -31.3
v -10.2 12 -31.3
v -10.7 12 -31.4
v -10.6 12 -31.4
v -10.4 12 -31.4
v -10.3 12 -31.4
v -10.7 12 -31.6
v -10.6 12 -31.6
v -10.4 12 -31.6
v -10.3 12 -31.6
v -10.8 12 -31.7
v -10.7 12 -31.7
v -10.6 12 -31.7
v -10.4 12 -31.7
v -10.3 12 -31.7
v -10.2 12 -31.7
v -10.7 12 -31.8
v -10.3 12 -31.8
v -10.6 12.2 -31.3
v -10.4 12.2 -31.3
v -10.7 12.2 -31.4
v -10.6 12.2 -31.4
v -10.4 12.2 -31.4
v -10.3 12.2 -31.4
v -10.7 12.2 -31.6
v -10.6 12.2 -31.6
v -10.4 12.2 -31.6
v -10.3 12.2 -31.6
v -10.6 12.2 -31.7
v -10.4 12.2 -31.7
v -10.6 12.4 -31.4
v -10.4 12.4 -31.4
v -10.6 12.4 -31.6
v -10.4 12.4 -31.6

# faces
f 3/1/1 2/1/1 1/1/1
f 4/1/1 2/1/1 3/1/1
f 5/2/1 4/2/1 3/2/1
f 6/1/1 2/1/1 4/1/1
f 6/2/1 4/2/1 5/2/1
f 7/1/1 2/1/1 6/1/1
f 10/4/1 9/4/1 8/4/1
f 11/4/1 9/4/1 10/4/1
f 16/1/1 13/1/1 12/1/1
f 17/1/1 13/1/1 16/1/1
f 18/1/1 15/1/1 14/1/1
f 19/1/1 15/1/1 18/1/1
f 20/2/1 17/2/1 16/2/1
f 21/2/1 17/2/1 20/2/1
f 24/2/1 19/2/1 18/2/1
f 25/2/1 19/2/1 24/2/1
f 26/2/1 22/2/1 21/2/1
f 27/1/1 23/1/1 22/1/1
f 27/2/1 22/2/1 26/2/1
f 28/1/1 27/1/1 26/1/1
f 28/1/1 23/1/1 27/1/1
f 29/2/1 24/2/1 23/2/1
f 29/1/1 23/1/1 28/1/1
f 30/1/1 28/1/1 26/1/1
f 31/2/1 29/2/1 28/2/1
f 31/1/1 28/1/1 30/1/1
f 32/1/1 30/1/1 26/1/1
f 33/2/1 31/2/1 30/2/1
f 33/1/1 30/1/1 32/1/1
f 34/2/1 24/2/1 29/2/1
f 34/2/1 31/2/1 33/2/1
f 34/2/1 29/2/1 31/2/1
f 39/4/1 36/4/1 35/4/1
f 40/4/1 36/4/1 39/4/1
f 41/4/1 38/4/1 37/4/1
f 42/4/1 38/4/1 41/4/1
f 47/2/1 44/2/1 43/2/1
f 48/2/1 46/2/1 45/2/1
f 49/2/1 47/2/1 43/2/1
f 50/2/1 47/2/1 49/2/1
f 55/2/1 46/2/1 48/2/1
f 56/2/1 46/2/1 55/2/1
f 57/2/1 52/2/1 51/2/1
f 58/2/1 52/2/1 57/2/1
f 59/1/1 58/1/1 57/1/1
f 60/1/1 58/1/1 59/1/1
f 64/2/1 54/2/1 53/2/1
f 65/2/1 54/2/1 64/2/1
f 66/2/1 63/2/1 62/2/1
f 66/1/1 62/1/1 61/1/1
f 67/2/1 63/2/1 66/2/1
f 68/1/1 67/1/1 66/1/1
f 68/2/1 63/2/1 67/2/1
f 69/2/1 63/2/1 68/2/1
f 70/1/1 66/1/1 61/1/1
f 70/1/1 68/1/1 66/1/1
f 70/1/1 69/1/1 68/1/1
f 71/1/1 69/1/1 70/1/1
f 79/4/1 73/4/1 72/4/1
f 80/3/1 74/3/1 73/3/1
f 80/4/1 73/4/1 79/4/1
f 81/3/1 74/3/1 80/3/1
f 82/4/1 76/4/1 75/4/1
f 83/4/1 76/4/1 82/4/1
f 84/4/1 78/4/1 77/4/1
f 85/4/1 78/4/1 84/4/1
f 90/1/1 87/1/1 86/1/1
f 91/1/1 87/1/1 90/1/1
f 92/2/1 91/2/1 90/2/1
f 93/2/1 91/2/1 92/2/1
f 98/2/1 89/2/1 88/2/1
f 99/2/1 89/2/1 98/2/1
f 100/2/1 95/2/1 94/2/1
f 101/2/1 100/2/1 94/2/1
f 102/2/1 100/2/1 101/2/1
f 103/1/1 102/1/1 101/1/1
f 104/1/1 102/1/1 103/1/1
f 107/2/1 97/2/1 96/2/1
f 108/2/1 97/2/1 107/2/1
f 109/2/1 107/2/1 106/2/1
f 110/2/1 107/2/1 109/2/1
f 111/2/1 107/2/1 110/2/1
f 112/1/1 111/1/1 110/1/1
f 112/2/1 107/2/1 111/2/1
f 113/2/1 107/2/1 112/2/1
f 114/1/1 105/1/1 104/1/1
f 115/1/1 105/1/1 114/1/1
f 116/1/1 112/1/1 110/1/1
f 116/1/1 113/1/1 112/1/1
f 117/1/1 113/1/1 116/1/1
f 118/1/1 116/1/1 115/1/1
f 119/1/1 116/1/1 118/1/1
f 123/4/1 121/4/1 120/4/1
f 124/4/1 121/4/1 123/4/1
f 127/4/1 123/4/1 122/4/1
f 128/4/1 123/4/1 127/4/1
f 129/3/1 126/3/1 125/3/1
f 130/3/1 126/3/1 129/3/1
f 135/2/1 132/2/1 131/2/1
f 136/2/1 135/2/1 131/2/1
f 137/2/1 135/2/1 136/2/1
f 138/1/1 137/1/1 136/1/1
f 139/1/1 137/1/1 138/1/1
f 142/2/1 134/2/1 133/2/1
f 143/2/1 134/2/1 142/2/1
f 144/2/1 142/2/1 141/2/1
f 145/2/1 142/2/1 144/2/1
f 146/1/1 145/1/1 144/1/1
f 147/1/1 140/1/1 139/1/1
f 148/1/1 140/1/1 147/1/1
f 151/1/1 145/1/1 146/1/1
f 152/1/1 145/1/1 151/1/1
f 153/1/1 149/1/1 148/1/1
f 154/1/1 149/1/1 153/1/1
f 155/1/1 151/1/1 150/1/1
f 156/1/1 151/1/1 155/1/1
f 157/1/1 155/1/1 154/1/1
f 158/1/1 155/1/1 157/1/1
f 163/4/1 160/4/1 159/4/1
f 164/4/1 160/4/1 163/4/1
f 165/3/1 162/3/1 161/3/1
f 165/3/1 161/3/1 160/3/1
f 166/3/1 162/3/1 165/3/1
f 167/4/1 160/4/1 164/4/1
f 167/3/1 164/3/1 163/3/1
f 168/4/1 160/4/1 167/4/1
f 169/3/1 165/3/1 160/3/1
f 169/4/1 160/4/1 168/4/1
f 170/3/1 165/3/1 169/3/1
f 171/3/1 168/3/1 167/3/1
f 171/3/1 167/3/1 163/3/1
f 172/3/1 168/3/1 171/3/1
f 173/4/1 170/4/1 169/4/1
f 173/3/1 168/3/1 172/3/1
f 173/4/1 169/4/1 168/4/1
f 174/4/1 170/4/1 173/4/1
f 175/4/1 170/4/1 174/4/1
f 176/4/1 173/4/1 172/4/1
f 176/4/1 174/4/1 173/4/1
f 177/4/1 174/4/1 176/4/1
f 182/2/1 179/2/1 178/2/1
f 183/2/1 179/2/1 182/2/1
f 184/1/1 183/1/1 182/1/1
f 185/1/1 184/1/1 182/1/1
f 186/1/1 184/1/1 185/1/1
f 189/1/1 181/1/1 180/1/1
f 190/1/1 181/1/1 189/1/1
f 191/1/1 189/1/1 188/1/1
f 192/1/1 189/1/1 191/1/1
f 193/1/1 187/1/1 186/1/1
f 194/1/1 193/1/1 186/1/1
f 195/1/1 193/1/1 194/1/1
f 196/2/1 192/2/1 191/2/1
f 197/2/1 192/2/1 196/2/1
f 202/1/1 199/1/1 198/1/1
f 203/1/1 199/1/1 202/1/1
f 204/1/1 201/1/1 200/1/1
f 205/1/1 201/1/1 204/1/1
f 206/1/1 204/1/1 203/1/1
f 207/1/1 204/1/1 206/1/1
f 212/3/1 211/3/1 210/3/1
f 213/3/1 211/3/1 212/3/1
f 214/3/1 209/3/1 208/3/1
f 215/3/1 209/3/1 214/3/1
f 218/4/1 213/4/1 212/4/1
f 219/4/1 213/4/1 218/4/1
f 220/4/1 216/4/1 215/4/1
f 221/4/1 216/4/1 220/4/1
f 222/4/1 218/4/1 217/4/1
f 223/4/1 218/4/1 222/4/1
f 224/4/1 222/4/1 221/4/1
f 225/4/1 222/4/1 224/4/1
f 230/2/1 229/2/1 228/2/1
f 231/2/1 229/2/1 230/2/1
f 232/1/1 227/1/1 226/1/1
f 233/1/1 227/1/1 232/1/1
f 236/1/1 231/1/1 230/1/1
f 237/1/1 231/1/1 236/1/1
f 238/1/1 234/1/1 233/1/1
f 239/1/1 234/1/1 238/1/1
f 242/1/1 236/1/1 235/1/1
f 243/1/1 236/1/1 242/1/1
f 244/2/1 240/2/1 239/2/1
f 245/2/1 240/2/1 244/2/1
f 246/1/1 245/1/1 244/1/1
f 247/1/1 245/1/1 246/1/1
f 250/1/1 242/1/1 241/1/1
f 251/1/1 242/1/1 250/1/1
f 252/1/1 248/1/1 247/1/1
f 253/1/1 248/1/1 252/1/1
f 256/1/1 250/1/1 249/1/1
f 257/1/1 250/1/1 256/1/1
f 258/1/1 255/1/1 254/1/1
f 259/1/1 255/1/1 258/1/1
f 264/4/1 263/4/1 262/4/1
f 265/4/1 263/4/1 264/4/1
f 266/3/1 261/3/1 260/3/1
f 267/3/1 261/3/1 266/3/1
f 268/4/1 267/4/1 266/4/1
f 269/4/1 267/4/1 268/4/1
f 272/3/1 265/3/1 264/3/1
f 273/3/1 265/3/1 272/3/1
f 274/3/1 272/3/1 271/3/1
f 275/3/1 272/3/1 274/3/1
f 276/4/1 270/4/1 269/4/1
f 277/4/1 270/4/1 276/4/1
f 278/4/1 275/4/1 274/4/1
f 279/4/1 275/4/1 278/4/1
f 284/1/1 281/1/1 280/1/1
f 285/1/1 281/1/1 284/1/1
f 286/1/1 283/1/1 282/1/1
f 287/1/1 283/1/1 286/1/1
f 288/1/1 286/1/1 285/1/1
f 289/1/1 286/1/1 288/1/1
f 292/4/1 291/4/1 290/4/1
f 293/4/1 291/4/1 292/4/1
f 298/4/1 295/4/1 294/4/1
f 299/4/1 295/4/1 298/4/1
f 300/4/1 297/4/1 296/4/1
f 301/4/1 297/4/1 300/4/1
f 304/4/1 303/4/1 302/4/1
f 305/4/1 303/4/1 304/4/1
f 306/4/2 307/4/2 308/4/2
f 308/4/2 307/4/2 309/4/2
f 310/4/2 311/4/2 312/4/2
f 312/4/2 311/4/2 313/4/2
f 314/4/2 315/4/2 316/4/2
f 316/4/2 315/4/2 317/4/2
f 318/3/2 319/3/2 320/3/2
f 320/3/2 319/3/2 321/3/2
f 322/4/2 323/4/2 324/4/2
f 324/4/2 323/4/2 325/4/2
f 328/4/2 329/4/2 330/4/2
f 330/4/2 329/4/2 331/4/2
f 326/3/2 327/3/2 332/3/2
f 332/3/2 327/3/2 333/3/2
f 332/4/2 333/4/2 334/4/2
f 334/4/2 333/4/2 335/4/2
f 330/3/2 331/3/2 338/3/2
f 338/3/2 331/3/2 339/3/2
f 337/3/2 338/3/2 340/3/2
f 340/3/2 338/3/2 341/3/2
f 335/4/2 336/4/2 342/4/2
f 342/4/2 336/4/2 343/4/2
f 340/4/2 341/4/2 344/4/2
f 344/4/2 341/4/2 345/4/2
f 346/1/2 347/1/2 350/1/2
f 350/1/2 347/1/2 351/1/2
f 348/1/2 349/1/2 352/1/2
f 352/1/2 349/1/2 353/1/2
f 351/1/2 352/1/2 354/1/2
f 354/1/2 352/1/2 355/1/2
f 356/3/2 357/3/2 360/3/2
f 358/4/2 359/4/2 361/4/2
f 356/3/2 360/3/2 362/3/2
f 362/3/2 360/3/2 363/3/2
f 362/4/2 363/4/2 364/4/2
f 364/4/2 363/4/2 365/4/2
f 361/4/2 359/4/2 368/4/2
f 368/4/2 359/4/2 369/4/2
f 365/4/2 366/4/2 370/4/2
f 370/4/2 366/4/2 371/4/2
f 367/4/2 368/4/2 372/4/2
f 372/4/2 368/4/2 373/4/2
f 371/4/2 372/4/2 374/4/2
f 374/4/2 372/4/2 375/4/2
f 376/1/2 377/1/2 380/1/2
f 380/1/2 377/1/2 381/1/2
f 378/1/2 379/1/2 384/1/2
f 384/1/2 379/1/2 385/1/2
f 381/1/2 382/1/2 386/1/2
f 386/1/2 382/1/2 387/1/2
f 386/2/2 387/2/2 388/2/2
f 388/2/2 387/2/2 389/2/2
f 383/1/2 384/1/2 392/1/2
f 392/1/2 384/1/2 393/1/2
f 389/2/2 390/2/2 394/2/2
f 394/2/2 390/2/2 395/2/2
f 391/1/2 392/1/2 398/1/2
f 398/1/2 392/1/2 399/1/2
f 395/1/2 396/1/2 400/1/2
f 400/1/2 396/1/2 401/1/2
f 397/1/2 398/1/2 404/1/2
f 404/1/2 398/1/2 405/1/2
f 402/1/2 403/1/2 406/1/2
f 406/1/2 403/1/2 407/1/2
f 408/3/2 409/3/2 411/3/2
f 409/4/2 410/4/2 412/4/2
f 411/3/2 409/3/2 412/3/2
f 412/4/2 410/4/2 413/4/2
f 411/3/2 412/3/2 414/3/2
f 414/3/2 412/3/2 415/3/2
f 414/4/2 415/4/2 416/4/2
f 416/4/2 415/4/2 417/4/2
f 417/4/2 415/4/2 418/4/2
f 418/4/2 415/4/2 419/4/2
f 417/4/2 418/4/2 420/4/2
f 420/4/2 418/4/2 421/4/2
f 422/1/2 423/1/2 426/1/2
f 422/1/2 426/1/2 427/1/2
f 427/1/2 426/1/2 428/1/2
f 424/1/2 425/1/2 431/1/2
f 431/1/2 425/1/2 432/1/2
f 428/2/2 429/2/2 433/2/2
f 433/2/2 429/2/2 434/2/2
f 433/1/2 434/1/2 435/1/2
f 433/1/2 435/1/2 436/1/2
f 436/1/2 435/1/2 437/1/2
f 430/1/2 431/1/2 438/1/2
f 438/1/2 431/1/2 439/1/2
f 440/2/2 441/2/2 444/2/2
f 444/2/2 441/2/2 445/2/2
f 442/1/2 443/1/2 447/1/2
f 447/1/2 443/1/2 448/1/2
f 445/1/2 446/1/2 449/1/2
f 446/1/2 447/1/2 449/1/2
f 449/1/2 447/1/2 450/1/2
f 451/4/2 452/4/2 454/4/2
f 454/4/2 452/4/2 455/4/2
f 455/4/2 452/4/2 456/4/2
f 453/4/2 454/4/2 457/4/2
f 454/4/2 455/4/2 457/4/2
f 457/4/2 455/4/2 458/4/2
f 459/2/2 460/2/2 463/2/2
f 463/2/2 460/2/2 464/2/2
f 463/1/2 464/1/2 465/1/2
f 465/1/2 464/1/2 466/1/2
f 461/1/2 462/1/2 469/1/2
f 469/1/2 462/1/2 470/1/2
f 466/1/2 467/1/2 471/1/2
f 471/1/2 467/1/2 472/1/2
f 468/1/2 469/1/2 475/1/2
f 475/1/2 469/1/2 476/1/2
f 472/1/2 473/1/2 477/1/2
f 477/1/2 473/1/2 478/1/2
f 477/2/2 478/2/2 479/2/2
f 478/1/2 473/1/2 479/1/2
f 479/1/2 473/1/2 480/1/2
f 477/2/2 479/2/2 481/2/2
f 479/2/2 480/2/2 481/2/2
f 481/2/2 480/2/2 482/2/2
f 474/1/2 475/1/2 484/1/2
f 484/1/2 475/1/2 485/1/2
f 482/2/2 483/2/2 486/2/2
f 483/1/2 484/1/2 487/1/2
f 486/2/2 483/2/2 487/2/2
f 487/1/2 484/1/2 488/1/2
f 489/4/2 490/4/2 491/4/2
f 491/4/2 490/4/2 492/4/2
f 493/1/2 494/1/2 497/1/2
f 497/1/2 494/1/2 498/1/2
f 497/2/2 498/2/2 499/2/2
f 497/2/2 499/2/2 500/2/2
f 500/2/2 499/2/2 501/2/2
f 495/1/2 496/1/2 506/1/2
f 506/1/2 496/1/2 507/1/2
f 502/2/2 503/2/2 508/2/2
f 508/2/2 503/2/2 509/2/2
f 508/1/2 509/1/2 510/1/2
f 510/1/2 509/1/2 511/1/2
f 504/1/2 505/1/2 514/1/2
f 514/1/2 505/1/2 515/1/2
f 511/1/2 512/1/2 516/1/2
f 516/1/2 512/1/2 517/1/2
f 513/1/2 514/1/2 518/1/2
f 518/1/2 514/1/2 519/1/2
f 517/1/2 518/1/2 520/1/2
f 520/1/2 518/1/2 521/1/2
f 522/4/2 523/4/2 526/4/2
f 526/4/2 523/4/2 527/4/2
f 524/4/2 525/4/2 528/4/2
f 528/4/2 525/4/2 529/4/2
f 530/1/2 531/1/2 534/1/2
f 534/1/2 531/1/2 535/1/2
f 534/2/2 535/2/2 536/2/2
f 536/2/2 535/2/2 537/2/2
f 532/1/2 533/1/2 542/1/2
f 542/1/2 533/1/2 543/1/2
f 538/2/2 539/2/2 544/2/2
f 544/2/2 539/2/2 545/2/2
f 544/1/2 545/1/2 546/1/2
f 546/1/2 545/1/2 547/1/2
f 540/1/2 541/1/2 550/1/2
f 550/1/2 541/1/2 551/1/2
f 548/1/2 549/1/2 552/1/2
f 552/1/2 549/1/2 553/1/2
f 556/1/2 557/1/2 558/1/2
f 554/1/2 555/1/2 559/1/2
f 559/1/2 555/1/2 560/1/2
f 559/2/2 560/2/2 561/2/2
f 561/2/2 560/2/2 562/2/2
f 558/1/2 557/1/2 563/1/2
f 563/1/2 557/1/2 564/1/2
f 562/1/2 563/1/2 565/1/2
f 565/1/2 563/1/2 566/1/2
f 567/1/2 568/1/2 570/1/2
f 568/2/2 569/2/2 570/2/2
f 570/2/2 569/2/2 571/2/2
f 567/1/2 570/1/2 572/1/2
f 570/1/2 571/1/2 572/1/2
f 572/1/2 571/1/2 573/1/2
f 577/2/3 575/2/3 574/2/3
f 578/1/3 576/1/3 575/1/3
f 578/2/3 575/2/3 577/2/3
f 579/1/3 578/1/3 577/1/3
f 580/1/3 576/1/3 578/1/3
f 580/1/3 578/1/3 579/1/3
f 584/1/3 582/1/3 581/1/3
f 584/2/3 583/2/3 582/2/3
f 585/2/3 583/2/3 584/2/3
f 586/1/3 584/1/3 581/1/3
f 586/1/3 585/1/3 584/1/3
f 587/1/3 585/1/3 586/1/3
f 588/2/3 583/2/3 585/2/3
f 588/1/3 585/1/3 587/1/3
f 589/2/3 583/2/3 588/2/3
f 591/1/3 590/1/3 589/1/3
f 592/1/3 590/1/3 591/1/3
f 595/2/3 592/2/3 591/2/3
f 596/1/3 590/1/3 592/1/3
f 596/2/3 592/2/3 595/2/3
f 597/1/3 590/1/3 596/1/3
f 598/1/3 594/1/3 593/1/3
f 599/2/3 595/2/3 594/2/3
f 599/1/3 594/1/3 598/1/3
f 600/1/3 598/1/3 593/1/3
f 601/2/3 599/2/3 598/2/3
f 601/1/3 598/1/3 600/1/3
f 602/2/3 595/2/3 599/2/3
f 602/2/3 599/2/3 601/2/3
f 605/2/3 604/2/3 603/2/3
f 606/2/3 604/2/3 605/2/3
f 607/2/3 604/2/3 606/2/3
f 611/2/3 609/2/3 608/2/3
f 612/1/3 610/1/3 609/1/3
f 612/2/3 609/2/3 611/2/3
f 613/1/3 610/1/3 612/1/3
f 616/1/3 615/1/3 614/1/3
f 617/1/3 615/1/3 616/1/3
f 622/2/3 619/2/3 618/2/3
f 622/2/3 620/2/3 619/2/3
f 623/1/3 621/1/3 620/1/3
f 623/2/3 620/2/3 622/2/3
f 624/1/3 621/1/3 623/1/3
f 629/1/3 626/1/3 625/1/3
f 629/1/3 627/1/3 626/1/3
f 630/2/3 628/2/3 627/2/3
f 630/1/3 627/1/3 629/1/3
f 631/2/3 628/2/3 630/2/3
f 637/1/3 635/1/3 634/1/3
f 638/2/3 636/2/3 635/2/3
f 638/1/3 635/1/3 637/1/3
f 639/2/3 636/2/3 638/2/3
f 643/2/3 641/2/3 640/2/3
f 644/1/3 642/1/3 641/1/3
f 644/2/3 641/2/3 643/2/3
f 645/1/3 642/1/3 644/1/3
f 646/1/3 642/1/3 645/1/3
f 648/4/3 633/4/3 632/4/3
f 649/4/3 633/4/3 648/4/3
f 650/1/3 647/1/3 646/1/3
f 651/1/3 647/1/3 650/1/3
f 653/1/3 652/1/3 651/1/3
f 654/1/3 652/1/3 653/1/3
f 655/1/3 653/1/3 651/1/3
f 656/2/3 654/2/3 653/2/3
f 656/1/3 653/1/3 655/1/3
f 658/1/3 655/1/3 651/1/3
f 659/2/3 656/2/3 655/2/3
f 659/1/3 655/1/3 658/1/3
f 660/2/3 654/2/3 656/2/3
f 660/2/3 656/2/3 659/2/3
f 665/1/3 658/1/3 657/1/3
f 666/1/3 658/1/3 665/1/3
f 667/2/3 664/2/3 663/2/3
f 668/1/3 665/1/3 664/1/3
f 668/2/3 664/2/3 667/2/3
f 669/1/3 665/1/3 668/1/3
f 670/4/3 662/4/3 661/4/3
f 671/4/3 662/4/3 670/4/3
f 675/1/3 673/1/3 672/1/3
f 676/2/3 674/2/3 673/2/3
f 676/1/3 673/1/3 675/1/3
f 677/2/3 674/2/3 676/2/3
f 683/2/3 679/2/3 678/2/3
f 684/1/3 680/1/3 679/1/3
f 684/2/3 679/2/3 683/2/3
f 685/1/3 680/1/3 684/1/3
f 686/1/3 680/1/3 685/1/3
f 688/4/3 682/4/3 681/4/3
f 689/4/3 682/4/3 688/4/3
f 690/1/3 687/1/3 686/1/3
f 691/1/3 687/1/3 690/1/3
f 695/1/3 692/1/3 691/1/3
f 696/1/3 692/1/3 695/1/3
f 699/2/3 697/2/3 696/2/3
f 700/1/3 698/1/3 697/1/3
f 700/2/3 697/2/3 699/2/3
f 701/1/3 698/1/3 700/1/3
f 702/4/3 694/4/3 693/4/3
f 706/2/3 700/2/3 699/2/3
f 706/2/3 701/2/3 700/2/3
f 707/2/3 701/2/3 706/2/3
f 708/4/3 703/4/3 702/4/3
f 708/4/3 702/4/3 693/4/3
f 709/4/3 703/4/3 708/4/3
f 710/4/3 703/4/3 709/4/3
f 711/4/3 703/4/3 710/4/3
f 713/1/3 705/1/3 704/1/3
f 714/2/3 706/2/3 705/2/3
f 714/1/3 705/1/3 713/1/3
f 715/2/3 706/2/3 714/2/3
f 718/1/3 713/1/3 712/1/3
f 719/1/3 713/1/3 718/1/3
f 720/2/3 717/2/3 716/2/3
f 721/1/3 718/1/3 717/1/3
f 721/2/3 717/2/3 720/2/3
f 722/1/3 718/1/3 721/1/3
f 726/1/3 724/1/3 723/1/3
f 727/2/3 725/2/3 724/2/3
f 727/1/3 724/1/3 726/1/3
f 728/2/3 725/2/3 727/2/3
f 731/2/3 729/2/3 728/2/3
f 732/1/3 730/1/3 729/1/3
f 732/2/3 729/2/3 731/2/3
f 733/1/3 730/1/3 732/1/3
f 736/4/3 735/4/3 734/4/3
f 737/4/3 735/4/3 736/4/3
f 740/3/3 737/3/3 736/3/3
f 742/1/3 739/1/3 738/1/3
f 743/1/3 739/1/3 742/1/3
f 744/1/3 739/1/3 743/1/3
f 746/3/3 741/3/3 740/3/3
f 749/1/3 745/1/3 744/1/3
f 750/3/3 740/3/3 736/3/3
f 750/3/3 746/3/3 740/3/3
f 750/3/3 747/3/3 746/3/3
f 751/3/3 747/3/3 750/3/3
f 752/3/3 747/3/3 751/3/3
f 753/3/3 747/3/3 752/3/3
f 754/4/3 748/4/3 747/4/3
f 754/3/3 747/3/3 753/3/3
f 755/4/3 748/4/3 754/4/3
f 756/4/3 751/4/3 750/4/3
f 757/3/3 752/3/3 751/3/3
f 757/4/3 751/4/3 756/4/3
f 758/4/3 753/4/3 752/4/3
f 758/3/3 752/3/3 757/3/3
f 759/4/3 753/4/3 758/4/3
f 761/1/3 745/1/3 749/1/3
f 762/1/3 745/1/3 761/1/3
f 763/2/3 761/2/3 760/2/3
f 764/2/3 761/2/3 763/2/3
f 770/1/3 766/1/3 765/1/3
f 770/1/3 767/1/3 766/1/3
f 771/1/3 767/1/3 770/1/3
f 772/1/3 769/1/3 768/1/3
f 772/1/3 770/1/3 769/1/3
f 773/1/3 770/1/3 772/1/3
f 776/1/3 775/1/3 774/1/3
f 777/1/3 775/1/3 776/1/3
f 779/1/3 778/1/3 777/1/3
f 780/1/3 778/1/3 779/1/3
f 784/1/3 781/1/3 780/1/3
f 785/1/3 781/1/3 784/1/3
f 787/3/3 783/3/3 782/3/3
f 788/3/3 783/3/3 787/3/3
f 790/1/3 786/1/3 785/1/3
f 791/1/3 786/1/3 790/1/3
f 792/4/3 789/4/3 788/4/3
f 793/4/3 789/4/3 792/4/3
f 794/4/3 789/4/3 793/4/3
f 800/4/3 795/4/3 794/4/3
f 801/4/3 795/4/3 800/4/3
f 802/1/3 797/1/3 796/1/3
f 803/1/3 797/1/3 802/1/3
f 807/4/3 799/4/3 798/4/3
f 807/4/3 800/4/3 799/4/3
f 808/4/3 800/4/3 807/4/3
f 811/3/3 805/3/3 804/3/3
f 812/4/3 806/4/3 805/4/3
f 812/3/3 805/3/3 811/3/3
f 812/4/3 807/4/3 806/4/3
f 813/4/3 807/4/3 812/4/3
f 815/1/3 810/1/3 809/1/3
f 816/1/3 810/1/3 815/1/3
f 819/2/3 815/2/3 814/2/3
f 820/2/3 815/2/3 819/2/3
f 822/1/3 818/1/3 817/1/3
f 822/1/3 819/1/3 818/1/3
f 823/1/3 819/1/3 822/1/3
f 824/1/3 822/1/3 821/1/3
f 825/1/3 822/1/3 824/1/3
f 828/4/3 827/4/3 826/4/3
f 829/4/3 827/4/3 828/4/3
f 833/4/3 830/4/3 829/4/3
f 834/4/3 830/4/3 833/4/3
f 835/1/3 832/1/3 831/1/3
f 836/1/3 832/1/3 835/1/3
f 841/1/3 837/1/3 836/1/3
f 842/1/3 837/1/3 841/1/3
f 844/4/3 839/4/3 838/4/3
f 845/4/3 839/4/3 844/4/3
f 846/1/3 841/1/3 840/1/3
f 847/1/3 841/1/3 846/1/3
f 848/4/3 844/4/3 843/4/3
f 849/4/3 844/4/3 848/4/3
f 852/4/3 851/4/3 850/4/3
f 853/4/3 851/4/3 852/4/3
f 856/4/3 855/4/3 854/4/3
f 857/4/3 855/4/3 856/4/3
f 860/3/3 859/3/3 858/3/3
f 861/3/3 859/3/3 860/3/3
f 864/4/3 863/4/3 862/4/3
f 865/4/3 863/4/3 864/4/3
f 868/4/3 867/4/3 866/4/3
f 869/4/3 867/4/3 868/4/3
f 870/4/4 871/4/4 872/4/4
f 872/4/4 871/4/4 873/4/4
f 874/4/4 875/4/4 876/4/4
f 876/4/4 875/4/4 877/4/4
f 878/4/4 879/4/4 880/4/4
f 880/4/4 879/4/4 881/4/4
f 882/4/4 883/4/4 884/4/4
f 884/4/4 883/4/4 885/4/4
f 885/4/4 886/4/4 887/4/4
f 887/4/4 886/4/4 888/4/4
f 889/4/4 890/4/4 891/4/4
f 891/4/4 890/4/4 892/4/4
f 893/4/4 894/4/4 895/4/4
f 895/4/4 894/4/4 896/4/4
f 896/4/4 897/4/4 900/4/4
f 900/4/4 897/4/4 901/4/4
f 901/4/4 897/4/4 902/4/4
f 898/1/4 899/1/4 903/1/4
f 903/1/4 899/1/4 904/1/4
f 904/1/4 905/1/4 910/1/4
f 910/1/4 905/1/4 911/1/4
f 907/4/4 908/4/4 913/4/4
f 906/4/4 907/4/4 913/4/4
f 913/4/4 908/4/4 914/4/4
f 909/1/4 910/1/4 915/1/4
f 915/1/4 910/1/4 916/1/4
f 912/4/4 913/4/4 917/4/4
f 917/4/4 913/4/4 918/4/4
f 919/2/4 920/2/4 922/2/4
f 920/1/4 921/1/4 923/1/4
f 922/2/4 920/2/4 923/2/4
f 923/1/4 921/1/4 924/1/4
f 924/1/4 921/1/4 925/1/4
f 925/1/4 926/1/4 927/1/4
f 927/1/4 926/1/4 928/1/4
f 928/1/4 929/1/4 933/1/4
f 933/1/4 929/1/4 934/1/4
f 930/3/4 931/3/4 936/3/4
f 931/4/4 932/4/4 937/4/4
f 936/3/4 931/3/4 937/3/4
f 937/4/4 932/4/4 938/4/4
f 934/1/4 935/1/4 940/1/4
f 940/1/4 935/1/4 941/1/4
f 938/4/4 939/4/4 942/4/4
f 942/4/4 939/4/4 943/4/4
f 943/4/4 939/4/4 944/4/4
f 944/3/4 945/3/4 951/3/4
f 945/4/4 946/4/4 952/4/4
f 951/3/4 945/3/4 952/3/4
f 952/4/4 946/4/4 953/4/4
f 947/1/4 948/1/4 954/1/4
f 954/1/4 948/1/4 955/1/4
f 950/4/4 951/4/4 958/4/4
f 949/4/4 950/4/4 958/4/4
f 958/4/4 951/4/4 959/4/4
f 956/3/4 957/3/4 962/3/4
f 957/4/4 958/4/4 963/4/4
f 962/3/4 957/3/4 963/3/4
f 963/4/4 958/4/4 964/4/4
f 960/1/4 961/1/4 966/1/4
f 966/1/4 961/1/4 967/1/4
f 965/1/4 966/1/4 969/1/4
f 969/1/4 966/1/4 970/1/4
f 968/1/4 969/1/4 972/1/4
f 972/1/4 969/1/4 973/1/4
f 971/1/4 972/1/4 974/1/4
f 974/1/4 972/1/4 975/1/4
f 976/1/4 977/1/4 978/1/4
f 978/1/4 977/1/4 979/1/4
f 979/1/4 977/1/4 980/1/4
f 980/2/4 981/2/4 982/2/4
f 982/2/4 981/2/4 983/2/4
f 984/1/4 985/1/4 990/1/4
f 990/1/4 985/1/4 991/1/4
f 986/3/4 987/3/4 993/3/4
f 987/3/4 988/3/4 993/3/4
f 988/4/4 989/4/4 994/4/4
f 993/3/4 988/3/4 994/3/4
f 994/4/4 989/4/4 995/4/4
f 993/4/4 994/4/4 998/4/4
f 994/4/4 995/4/4 998/4/4
f 995/4/4 996/4/4 998/4/4
f 996/3/4 997/3/4 999/3/4
f 998/4/4 996/4/4 999/4/4
f 999/3/4 997/3/4 1000/3/4
f 993/4/4 998/4/4 1001/4/4
f 1001/4/4 998/4/4 1002/4/4
f 991/1/4 992/1/4 1004/1/4
f 1004/1/4 992/1/4 1005/1/4
f 993/4/4 1001/4/4 1006/4/4
f 1006/4/4 1001/4/4 1007/4/4
f 1003/1/4 1004/1/4 1008/1/4
f 1008/1/4 1004/1/4 1009/1/4
f 1010/1/4 1011/1/4 1014/1/4
f 1014/1/4 1011/1/4 1015/1/4
f 1012/2/4 1013/2/4 1016/2/4
f 1013/1/4 1014/1/4 1017/1/4
f 1016/2/4 1013/2/4 1017/2/4
f 1017/1/4 1014/1/4 1018/1/4
f 1019/2/4 1020/2/4 1021/2/4
f 1021/2/4 1020/2/4 1022/2/4
f 1022/2/4 1023/2/4 1027/2/4
f 1027/2/4 1023/2/4 1028/2/4
f 1023/1/4 1024/1/4 1029/1/4
f 1028/2/4 1023/2/4 1029/2/4
f 1029/1/4 1024/1/4 1030/1/4
f 1025/3/4 1026/3/4 1032/3/4
f 1032/3/4 1026/3/4 1033/3/4
f 1030/1/4 1031/1/4 1034/1/4
f 1034/1/4 1031/1/4 1035/1/4
f 1035/1/4 1036/1/4 1040/1/4
f 1040/1/4 1036/1/4 1041/1/4
f 1037/4/4 1038/4/4 1042/4/4
f 1042/4/4 1038/4/4 1043/4/4
f 1039/1/4 1040/1/4 1045/1/4
f 1045/1/4 1040/1/4 1046/1/4
f 1044/1/4 1045/1/4 1048/1/4
f 1048/1/4 1045/1/4 1049/1/4
f 1047/1/4 1048/1/4 1050/1/4
f 1050/1/4 1048/1/4 1051/1/4
f 1052/1/4 1053/1/4 1057/1/4
f 1053/2/4 1054/2/4 1058/2/4
f 1057/1/4 1053/1/4 1058/1/4
f 1058/2/4 1054/2/4 1059/2/4
f 1055/4/4 1056/4/4 1060/4/4
f 1060/4/4 1056/4/4 1061/4/4
f 1062/2/4 1063/2/4 1064/2/4
f 1064/2/4 1063/2/4 1065/2/4
f 1065/2/4 1066/2/4 1070/2/4
f 1066/1/4 1067/1/4 1071/1/4
f 1070/2/4 1066/2/4 1071/2/4
f 1065/2/4 1070/2/4 1072/2/4
f 1070/1/4 1071/1/4 1073/1/4
f 1072/2/4 1070/2/4 1073/2/4
f 1071/1/4 1067/1/4 1074/1/4
f 1073/1/4 1071/1/4 1074/1/4
f 1068/4/4 1069/4/4 1076/4/4
f 1076/4/4 1069/4/4 1077/4/4
f 1074/1/4 1075/1/4 1079/1/4
f 1079/1/4 1075/1/4 1080/1/4
f 1081/4/4 1082/4/4 1083/4/4
f 1083/4/4 1082/4/4 1084/4/4
f 1078/1/4 1079/1/4 1086/1/4
f 1086/1/4 1079/1/4 1087/1/4
f 1085/1/4 1086/1/4 1088/1/4
f 1088/1/4 1086/1/4 1089/1/4
f 1090/1/4 1091/1/4 1092/1/4
f 1092/1/4 1091/1/4 1093/1/4
f 1094/2/4 1095/2/4 1098/2/4
f 1098/2/4 1095/2/4 1099/2/4
f 1096/4/4 1097/4/4 1102/4/4
f 1102/4/4 1097/4/4 1103/4/4
f 1100/2/4 1101/2/4 1104/2/4
f 1104/2/4 1101/2/4 1105/2/4
f 1105/2/4 1101/2/4 1106/2/4
f 1107/2/4 1108/2/4 1110/2/4
f 1108/1/4 1109/1/4 1111/1/4
f 1110/2/4 1108/2/4 1111/2/4
f 1110/1/4 1111/1/4 1112/1/4
f 1111/1/4 1109/1/4 1113/1/4
f 1112/1/4 1111/1/4 1113/1/4
f 1114/1/4 1115/1/4 1118/1/4
f 1118/1/4 1115/1/4 1119/1/4
f 1116/4/4 1117/4/4 1122/4/4
f 1122/4/4 1117/4/4 1123/4/4
f 1120/1/4 1121/1/4 1124/1/4
f 1124/1/4 1121/1/4 1125/1/4
f 1126/2/4 1127/2/4 1128/2/4
f 1128/2/4 1127/2/4 1129/2/4
f 1128/1/4 1129/1/4 1130/1/4
f 1130/1/4 1129/1/4 1131/1/4
f 1132/2/4 1133/2/4 1134/2/4
f 1131/1/4 1132/1/4 1134/1/4
f 1134/2/4 1133/2/4 1135/2/4
f 1131/1/4 1134/1/4 1137/1/4
f 1134/1/4 1135/1/4 1137/1/4
f 1137/1/4 1135/1/4 1138/1/4
f 1136/1/4 1137/1/4 1139/1/4
f 1139/1/4 1137/1/4 1140/1/4
f 1141/1/4 1142/1/4 1143/1/4
f 1143/1/4 1142/1/4 1144/1/4
f 1149/4/5 1146/4/5 1145/4/5
f 1150/4/5 1146/4/5 1149/4/5
f 1151/4/5 1146/4/5 1150/4/5
f 1152/4/5 1148/4/5 1147/4/5
f 1153/4/5 1151/4/5 1150/4/5
f 1153/4/5 1152/4/5 1151/4/5
f 1153/4/5 1148/4/5 1152/4/5
f 1154/4/5 1148/4/5 1153/4/5
f 1155/4/5 1153/4/5 1150/4/5
f 1156/4/5 1153/4/5 1155/4/5
f 1157/4/5 1153/4/5 1156/4/5
f 1158/4/5 1153/4/5 1157/4/5
f 1159/4/5 1157/4/5 1156/4/5
f 1159/3/5 1158/3/5 1157/3/5
f 1160/4/5 1153/4/5 1158/4/5
f 1160/3/5 1158/3/5 1159/3/5
f 1162/4/5 1159/4/5 1156/4/5
f 1162/4/5 1160/4/5 1159/4/5
f 1163/4/5 1160/4/5 1162/4/5
f 1164/4/5 1153/4/5 1160/4/5
f 1164/4/5 1160/4/5 1163/4/5
f 1166/4/5 1162/4/5 1161/4/5
f 1167/3/5 1163/3/5 1162/3/5
f 1167/4/5 1162/4/5 1166/4/5
f 1169/3/5 1167/3/5 1166/3/5
f 1170/4/5 1165/4/5 1164/4/5
f 1170/4/5 1164/4/5 1163/4/5
f 1170/3/5 1167/3/5 1169/3/5
f 1170/3/5 1163/3/5 1167/3/5
f 1171/4/5 1165/4/5 1170/4/5
f 1172/4/5 1165/4/5 1171/4/5
f 1173/4/5 1165/4/5 1172/4/5
f 1175/4/5 1169/4/5 1168/4/5
f 1175/4/5 1170/4/5 1169/4/5
f 1175/4/5 1171/4/5 1170/4/5
f 1176/4/5 1171/4/5 1175/4/5
f 1177/4/5 1171/4/5 1176/4/5
f 1178/4/5 1171/4/5 1177/4/5
f 1179/4/5 1174/4/5 1173/4/5
f 1179/4/5 1173/4/5 1172/4/5
f 1180/4/5 1174/4/5 1179/4/5
f 1181/4/5 1177/4/5 1176/4/5
f 1182/4/5 1177/4/5 1181/4/5
f 1183/4/5 1174/4/5 1180/4/5
f 1184/4/5 1174/4/5 1183/4/5
f 1189/2/5 1186/2/5 1185/2/5
f 1190/1/5 1187/1/5 1186/1/5
f 1193/1/5 1189/1/5 1188/1/5
f 1194/2/5 1186/2/5 1189/2/5
f 1195/1/5 1191/1/5 1190/1/5
f 1195/2/5 1186/2/5 1194/2/5
f 1195/1/5 1190/1/5 1186/1/5
f 1196/1/5 1191/1/5 1195/1/5
f 1199/2/5 1193/2/5 1192/2/5
f 1200/1/5 1189/1/5 1193/1/5
f 1200/2/5 1193/2/5 1199/2/5
f 1201/2/5 1194/2/5 1189/2/5
f 1202/1/5 1197/1/5 1196/1/5
f 1202/2/5 1194/2/5 1201/2/5
f 1202/1/5 1195/1/5 1194/1/5
f 1202/1/5 1196/1/5 1195/1/5
f 1203/1/5 1197/1/5 1202/1/5
f 1205/2/5 1201/2/5 1189/2/5
f 1206/1/5 1204/1/5 1203/1/5
f 1206/2/5 1201/2/5 1205/2/5
f 1206/1/5 1202/1/5 1201/1/5
f 1206/1/5 1203/1/5 1202/1/5
f 1208/1/5 1199/1/5 1198/1/5
f 1208/1/5 1200/1/5 1199/1/5
f 1209/1/5 1189/1/5 1200/1/5
f 1209/2/5 1205/2/5 1189/2/5
f 1209/1/5 1200/1/5 1208/1/5
f 1210/1/5 1206/1/5 1205/1/5
f 1210/2/5 1205/2/5 1209/2/5
f 1211/1/5 1204/1/5 1206/1/5
f 1211/1/5 1206/1/5 1210/1/5
f 1213/1/5 1208/1/5 1207/1/5
f 1213/1/5 1212/1/5 1211/1/5
f 1213/1/5 1211/1/5 1210/1/5
f 1213/1/5 1210/1/5 1209/1/5
f 1213/1/5 1209/1/5 1208/1/5
f 1214/1/5 1212/1/5 1213/1/5
f 1215/1/5 1213/1/5 1207/1/5
f 1216/1/5 1213/1/5 1215/1/5
f 1217/1/5 1212/1/5 1214/1/5
f 1218/1/5 1212/1/5 1217/1/5
f 1219/1/5 1212/1/5 1218/1/5
f 1220/1/5 1212/1/5 1219/1/5
f 1221/1/5 1212/1/5 1220/1/5
f 1221/2/5 1220/2/5 1219/2/5
f 1222/1/5 1212/1/5 1221/1/5
f 1223/1/5 1215/1/5 1207/1/5
f 1226/1/5 1219/1/5 1218/1/5
f 1227/1/5 1224/1/5 1223/1/5
f 1228/1/5 1226/1/5 1225/1/5
f 1229/2/5 1221/2/5 1219/2/5
f 1229/2/5 1222/2/5 1221/2/5
f 1229/1/5 1226/1/5 1228/1/5
f 1229/1/5 1219/1/5 1226/1/5
f 1230/2/5 1222/2/5 1229/2/5
f 1231/1/5 1227/1/5 1223/1/5
f 1231/1/5 1228/1/5 1227/1/5
f 1231/1/5 1230/1/5 1229/1/5
f 1231/1/5 1229/1/5 1228/1/5
f 1231/1/5 1223/1/5 1207/1/5
f 1232/1/5 1230/1/5 1231/1/5
f 1233/2/5 1222/2/5 1230/2/5
f 1233/1/5 1230/1/5 1232/1/5
f 1234/2/5 1222/2/5 1233/2/5
f 1235/2/5 1222/2/5 1234/2/5
f 1236/1/5 1233/1/5 1232/1/5
f 1236/1/5 1234/1/5 1233/1/5
f 1237/1/5 1234/1/5 1236/1/5
f 1238/1/5 1236/1/5 1232/1/5
f 1239/2/5 1237/2/5 1236/2/5
f 1239/1/5 1236/1/5 1238/1/5
f 1240/1/5 1234/1/5 1237/1/5
f 1240/2/5 1237/2/5 1239/2/5
f 1241/1/5 1234/1/5 1240/1/5
f 1242/1/5 1234/1/5 1241/1/5
f 1243/1/5 1234/1/5 1242/1/5
f 1244/2/5 1240/2/5 1239/2/5
f 1244/2/5 1241/2/5 1240/2/5
f 1245/2/5 1241/2/5 1244/2/5
f 1246/1/5 1242/1/5 1241/1/5
f 1247/1/5 1242/1/5 1246/1/5
f 1248/2/5 1241/2/5 1245/2/5
f 1249/1/5 1246/1/5 1241/1/5
f 1249/2/5 1241/2/5 1248/2/5
f 1250/1/5 1246/1/5 1249/1/5
f 1251/1/5 1246/1/5 1250/1/5
f 1252/1/5 1246/1/5 1251/1/5
f 1253/1/5 1251/1/5 1250/1/5
f 1254/1/5 1251/1/5 1253/1/5
f 1255/4/6 1256/4/6 1259/4/6
f 1259/4/6 1256/4/6 1260/4/6
f 1260/4/6 1256/4/6 1261/4/6
f 1261/4/6 1256/4/6 1262/4/6
f 1262/4/6 1256/4/6 1263/4/6
f 1257/4/6 1258/4/6 1265/4/6
f 1265/4/6 1258/4/6 1266/4/6
f 1260/4/6 1261/4/6 1267/4/6
f 1263/4/6 1264/4/6 1268/4/6
f 1262/4/6 1263/4/6 1268/4/6
f 1268/4/6 1264/4/6 1269/4/6
f 1269/4/6 1264/4/6 1270/4/6
f 1270/4/6 1264/4/6 1271/4/6
f 1266/4/6 1258/4/6 1272/4/6
f 1272/4/6 1258/4/6 1273/4/6
f 1260/4/6 1267/4/6 1274/4/6
f 1267/4/6 1268/4/6 1274/4/6
f 1274/4/6 1268/4/6 1275/4/6
f 1275/4/6 1276/4/6 1279/4/6
f 1275/4/6 1279/4/6 1281/4/6
f 1281/4/6 1279/4/6 1282/4/6
f 1277/4/6 1278/4/6 1283/4/6
f 1283/4/6 1278/4/6 1284/4/6
f 1280/4/6 1281/4/6 1286/4/6
f 1281/3/6 1282/3/6 1287/3/6
f 1286/4/6 1281/4/6 1287/4/6
f 1287/3/6 1282/3/6 1288/3/6
f 1284/4/6 1285/4/6 1291/4/6
f 1283/4/6 1284/4/6 1291/4/6
f 1286/3/6 1287/3/6 1293/3/6
f 1293/3/6 1287/3/6 1294/3/6
f 1289/4/6 1290/4/6 1295/4/6
f 1290/4/6 1291/4/6 1295/4/6
f 1295/4/6 1291/4/6 1296/4/6
f 1291/4/6 1285/4/6 1297/4/6
f 1296/4/6 1291/4/6 1297/4/6
f 1297/4/6 1285/4/6 1298/4/6
f 1293/4/6 1294/4/6 1300/4/6
f 1292/4/6 1293/4/6 1300/4/6
f 1295/4/6 1296/4/6 1300/4/6
f 1294/4/6 1295/4/6 1300/4/6
f 1300/4/6 1296/4/6 1301/4/6
f 1301/4/6 1296/4/6 1302/4/6
f 1302/4/6 1296/4/6 1303/4/6
f 1298/4/6 1299/4/6 1304/4/6
f 1297/4/6 1298/4/6 1304/4/6
f 1304/4/6 1299/4/6 1305/4/6
f 1301/4/6 1302/4/6 1306/4/6
f 1306/4/6 1302/4/6 1307/4/6
f 1305/4/6 1299/4/6 1308/4/6
f 1308/4/6 1299/4/6 1309/4/6
f 1310/4/6 1311/4/6 1314/4/6
f 1314/4/6 1311/4/6 1315/4/6
f 1312/4/6 1313/4/6 1318/4/6
f 1315/4/6 1316/4/6 1319/4/6
f 1316/3/6 1317/3/6 1320/3/6
f 1319/4/6 1316/4/6 1320/4/6
f 1320/3/6 1317/3/6 1321/3/6
f 1318/4/6 1313/4/6 1322/4/6
f 1322/4/6 1313/4/6 1323/4/6
f 1323/4/6 1313/4/6 1324/4/6
f 1325/3/6 1326/3/6 1330/3/6
f 1330/3/6 1326/3/6 1331/3/6
f 1327/4/6 1328/4/6 1332/4/6
f 1332/4/6 1328/4/6 1333/4/6
f 1330/3/6 1331/3/6 1334/3/6
f 1329/3/6 1330/3/6 1334/3/6
f 1334/3/6 1331/3/6 1335/3/6
f 1336/3/6 1337/3/6 1341/3/6
f 1341/3/6 1337/3/6 1342/3/6
f 1338/4/6 1339/4/6 1343/4/6
f 1343/4/6 1339/4/6 1344/4/6
f 1340/3/6 1341/3/6 1346/3/6
f 1346/3/6 1341/3/6 1347/3/6
f 1344/4/6 1345/4/6 1348/4/6
f 1348/4/6 1345/4/6 1349/4/6
f 1350/4/6 1351/4/6 1354/4/6
f 1354/4/6 1351/4/6 1355/4/6
f 1352/4/6 1353/4/6 1358/4/6
f 1358/4/6 1353/4/6 1359/4/6
f 1355/4/6 1356/4/6 1360/4/6
f 1360/4/6 1356/4/6 1361/4/6
f 1357/4/6 1358/4/6 1362/4/6
f 1362/4/6 1358/4/6 1363/4/6
f 1364/4/6 1365/4/6 1367/4/6
f 1367/4/6 1365/4/6 1368/4/6
f 1366/4/6 1367/4/6 1371/4/6
f 1371/4/6 1367/4/6 1372/4/6
f 1368/4/6 1369/4/6 1373/4/6
f 1373/4/6 1369/4/6 1374/4/6
f 1370/4/6 1371/4/6 1376/4/6
f 1376/4/6 1371/4/6 1377/4/6
f 1374/4/6 1375/4/6 1380/4/6
f 1380/4/6 1375/4/6 1381/4/6
f 1377/4/6 1378/4/6 1382/4/6
f 1382/4/6 1378/4/6 1383/4/6
f 1379/4/6 1380/4/6 1384/4/6
f 1384/4/6 1380/4/6 1385/4/6
f 1383/3/6 1384/3/6 1386/3/6
f 1386/3/6 1384/3/6 1387/3/6
f 1388/1/6 1389/1/6 1391/1/6
f 1391/1/6 1389/1/6 1392/1/6
f 1392/1/6 1389/1/6 1393/1/6
f 1390/2/6 1391/2/6 1396/2/6
f 1396/2/6 1391/2/6 1397/2/6
f 1397/2/6 1391/2/6 1398/2/6
f 1393/2/6 1394/2/6 1399/2/6
f 1399/2/6 1394/2/6 1400/2/6
f 1400/2/6 1394/2/6 1401/2/6
f 1395/2/6 1396/2/6 1404/2/6
f 1396/2/6 1397/2/6 1404/2/6
f 1404/2/6 1397/2/6 1405/2/6
f 1405/2/6 1397/2/6 1406/2/6
f 1401/2/6 1402/2/6 1407/2/6
f 1400/2/6 1401/2/6 1407/2/6
f 1407/2/6 1402/2/6 1408/2/6
f 1408/2/6 1402/2/6 1409/2/6
f 1404/2/6 1405/2/6 1411/2/6
f 1403/2/6 1404/2/6 1411/2/6
f 1411/2/6 1405/2/6 1412/2/6
f 1409/2/6 1410/2/6 1413/2/6
f 1408/2/6 1409/2/6 1413/2/6
f 1413/2/6 1410/2/6 1414/2/6
f 1403/2/6 1411/2/6 1416/2/6
f 1416/2/6 1411/2/6 1417/2/6
f 1414/2/6 1410/2/6 1418/2/6
f 1418/2/6 1410/2/6 1419/2/6
f 1415/2/6 1416/2/6 1421/2/6
f 1421/2/6 1416/2/6 1422/2/6
f 1421/1/6 1422/1/6 1423/1/6
f 1421/1/6 1423/1/6 1424/1/6
f 1424/1/6 1423/1/6 1425/1/6
f 1419/1/6 1420/1/6 1428/1/6
f 1428/1/6 1420/1/6 1429/1/6
f 1425/2/6 1426/2/6 1430/2/6
f 1427/1/6 1428/1/6 1433/1/6
f 1430/2/6 1431/2/6 1434/2/6
f 1425/2/6 1430/2/6 1434/2/6
f 1434/2/6 1431/2/6 1435/2/6
f 1435/2/6 1431/2/6 1436/2/6
f 1432/1/6 1433/1/6 1439/1/6
f 1433/1/6 1428/1/6 1440/1/6
f 1439/1/6 1433/1/6 1440/1/6
f 1440/1/6 1428/1/6 1441/1/6
f 1436/2/6 1437/2/6 1442/2/6
f 1435/2/6 1436/2/6 1442/2/6
f 1442/2/6 1437/2/6 1443/2/6
f 1443/2/6 1437/2/6 1444/2/6
f 1438/1/6 1439/1/6 1447/1/6
f 1439/1/6 1440/1/6 1447/1/6
f 1447/1/6 1440/1/6 1448/1/6
f 1448/1/6 1440/1/6 1449/1/6
f 1443/2/6 1444/2/6 1450/2/6
f 1444/1/6 1445/1/6 1451/1/6
f 1450/2/6 1444/2/6 1451/2/6
f 1451/1/6 1445/1/6 1452/1/6
f 1447/1/6 1448/1/6 1453/1/6
f 1446/1/6 1447/1/6 1453/1/6
f 1453/1/6 1448/1/6 1454/1/6
f 1452/1/6 1453/1/6 1455/1/6
f 1455/1/6 1453/1/6 1456/1/6
f 1457/1/6 1458/1/6 1460/1/6
f 1460/1/6 1458/1/6 1461/1/6
f 1461/1/6 1458/1/6 1462/1/6
f 1462/1/6 1458/1/6 1463/1/6
f 1459/1/6 1460/1/6 1466/1/6
f 1460/1/6 1461/1/6 1466/1/6
f 1466/1/6 1461/1/6 1467/1/6
f 1462/1/6 1463/1/6 1468/1/6
f 1463/1/6 1464/1/6 1468/1/6
f 1468/1/6 1464/1/6 1469/1/6
f 1465/1/6 1466/1/6 1472/1/6
f 1472/1/6 1466/1/6 1473/1/6
f 1469/1/6 1470/1/6 1474/1/6
f 1474/1/6 1470/1/6 1475/1/6
f 1471/1/6 1472/1/6 1478/1/6
f 1475/1/6 1476/1/6 1479/1/6
f 1477/1/6 1478/1/6 1481/1/6
f 1478/1/6 1472/1/6 1481/1/6
f 1481/1/6 1472/1/6 1482/1/6
f 1479/1/6 1480/1/6 1483/1/6
f 1475/1/6 1479/1/6 1483/1/6
f 1483/1/6 1480/1/6 1484/1/6
f 1477/1/6 1481/1/6 1485/1/6
f 1485/1/6 1481/1/6 1486/1/6
f 1485/2/6 1486/2/6 1487/2/6
f 1484/1/6 1480/1/6 1490/1/6
f 1487/2/6 1488/2/6 1491/2/6
f 1485/2/6 1487/2/6 1491/2/6
f 1491/2/6 1488/2/6 1492/2/6
f 1489/1/6 1490/1/6 1493/1/6
f 1490/1/6 1480/1/6 1493/1/6
f 1493/1/6 1480/1/6 1494/1/6
f 1492/2/6 1488/2/6 1495/2/6
f 1495/2/6 1488/2/6 1496/2/6
f 1489/1/6 1493/1/6 1499/1/6
f 1499/1/6 1493/1/6 1500/1/6
f 1496/2/6 1497/2/6 1501/2/6
f 1501/2/6 1497/2/6 1502/2/6
f 1498/1/6 1499/1/6 1505/1/6
f 1505/1/6 1499/1/6 1506/1/6
f 1502/2/6 1503/2/6 1507/2/6
f 1507/2/6 1503/2/6 1508/2/6
f 1508/2/6 1503/2/6 1509/2/6
f 1504/1/6 1505/1/6 1511/1/6
f 1511/1/6 1505/1/6 1512/1/6
f 1512/1/6 1505/1/6 1513/1/6
f 1508/2/6 1509/2/6 1514/2/6
f 1509/1/6 1510/1/6 1515/1/6
f 1514/2/6 1509/2/6 1515/2/6
f 1511/1/6 1512/1/6 1515/1/6
f 1510/1/6 1511/1/6 1515/1/6
f 1515/1/6 1512/1/6 1516/1/6
f 1517/1/6 1518/1/6 1520/1/6
f 1520/1/6 1518/1/6 1521/1/6
f 1519/1/6 1520/1/6 1524/1/6
f 1524/1/6 1520/1/6 1525/1/6
f 1521/1/6 1522/1/6 1526/1/6
f 1526/1/6 1522/1/6 1527/1/6
f 1523/1/6 1524/1/6 1530/1/6
f 1530/1/6 1524/1/6 1531/1/6
f 1527/1/6 1528/1/6 1532/1/6
f 1532/1/6 1528/1/6 1533/1/6
f 1529/1/6 1530/1/6 1535/1/6
f 1535/1/6 1530/1/6 1536/1/6
f 1533/1/6 1534/1/6 1539/1/6
f 1539/1/6 1534/1/6 1540/1/6
f 1536/1/6 1537/1/6 1541/1/6
f 1541/1/6 1537/1/6 1542/1/6
f 1538/1/6 1539/1/6 1545/1/6
f 1545/1/6 1539/1/6 1546/1/6
f 1542/1/6 1543/1/6 1547/1/6
f 1547/1/6 1543/1/6 1548/1/6
f 1544/1/6 1545/1/6 1549/1/6
f 1549/1/6 1545/1/6 1550/1/6
f 1548/1/6 1549/1/6 1551/1/6
f 1551/1/6 1549/1/6 1552/1/6
f 1553/1/6 1554/1/6 1557/1/6
f 1554/2/6 1555/2/6 1558/2/6
f 1557/1/6 1554/1/6 1558/1/6
f 1558/2/6 1555/2/6 1559/2/6
f 1556/1/6 1557/1/6 1561/1/6
f 1561/1/6 1557/1/6 1562/1/6
f 1559/2/6 1560/2/6 1563/2/6
f 1563/2/6 1560/2/6 1564/2/6
f 1556/1/6 1561/1/6 1566/1/6
f 1566/1/6 1561/1/6 1567/1/6
f 1564/2/6 1560/2/6 1568/2/6
f 1568/2/6 1560/2/6 1569/2/6
f 1569/1/6 1570/1/6 1571/1/6
f 1565/1/6 1566/1/6 1572/1/6
f 1572/1/6 1566/1/6 1573/1/6
f 1571/1/6 1570/1/6 1576/1/6
f 1576/1/6 1570/1/6 1577/1/6
f 1573/1/6 1574/1/6 1578/1/6
f 1575/1/6 1576/1/6 1581/1/6
f 1578/1/6 1579/1/6 1582/1/6
f 1573/1/6 1578/1/6 1582/1/6
f 1582/1/6 1579/1/6 1583/1/6
f 1580/1/6 1581/1/6 1584/1/6
f 1581/1/6 1576/1/6 1585/1/6
f 1584/1/6 1581/1/6 1585/1/6
f 1583/1/6 1584/1/6 1586/1/6
f 1586/1/6 1584/1/6 1587/1/6
f 1588/1/6 1589/1/6 1592/1/6
f 1589/2/6 1590/2/6 1593/2/6
f 1592/1/6 1589/1/6 1593/1/6
f 1593/2/6 1590/2/6 1594/2/6
f 1591/1/6 1592/1/6 1597/1/6
f 1597/1/6 1592/1/6 1598/1/6
f 1594/2/6 1595/2/6 1599/2/6
f 1599/2/6 1595/2/6 1600/2/6
f 1600/2/6 1601/2/6 1602/2/6
f 1602/2/6 1601/2/6 1603/2/6
f 1596/1/6 1597/1/6 1604/1/6
f 1604/1/6 1597/1/6 1605/1/6
f 1602/1/6 1603/1/6 1608/1/6
f 1608/1/6 1603/1/6 1609/1/6
f 1605/1/6 1606/1/6 1610/1/6
f 1610/1/6 1606/1/6 1611/1/6
f 1607/1/6 1608/1/6 1612/1/6
f 1612/1/6 1608/1/6 1613/1/6
f 1611/1/6 1612/1/6 1614/1/6
f 1614/1/6 1612/1/6 1615/1/6
f 1616/1/6 1617/1/6 1619/1/6
f 1619/1/6 1617/1/6 1620/1/6
f 1620/1/6 1617/1/6 1621/1/6
f 1621/1/6 1617/1/6 1622/1/6
f 1618/1/6 1619/1/6 1624/1/6
f 1619/1/6 1620/1/6 1624/1/6
f 1624/1/6 1620/1/6 1625/1/6
f 1622/1/6 1623/1/6 1626/1/6
f 1621/1/6 1622/1/6 1626/1/6
f 1626/1/6 1623/1/6 1627/1/6
f 1618/1/6 1624/1/6 1628/1/6
f 1627/1/6 1623/1/6 1631/1/6
f 1628/1/6 1629/1/6 1632/1/6
f 1618/1/6 1628/1/6 1632/1/6
f 1632/1/6 1629/1/6 1633/1/6
f 1633/1/6 1629/1/6 1634/1/6
f 1630/1/6 1631/1/6 1635/1/6
f 1631/1/6 1623/1/6 1636/1/6
f 1635/1/6 1631/1/6 1636/1/6
f 1636/1/6 1623/1/6 1637/1/6
f 1633/1/6 1634/1/6 1638/1/6
f 1634/1/6 1635/1/6 1638/1/6
f 1635/1/6 1636/1/6 1638/1/6
f 1638/1/6 1636/1/6 1639/1/6
f 1640/1/6 1641/1/6 1643/1/6
f 1643/1/6 1641/1/6 1644/1/6
f 1642/1/6 1643/1/6 1646/1/6
f 1646/1/6 1643/1/6 1647/1/6
f 1644/1/6 1645/1/6 1648/1/6
f 1648/1/6 1645/1/6 1649/1/6
f 1647/1/6 1648/1/6 1650/1/6
f 1650/1/6 1648/1/6 1651/1/6
f 1652/1/6 1653/1/6 1654/1/6
f 1654/1/6 1653/1/6 1655/1/6
