# MagicaVoxel @ Ephtracy

# group
o 

# material
mtllib arbol chico.mtl
usemtl palette

# normals
vn -1 0 0
vn 1 0 0
vn 0 0 1
vn 0 0 -1
vn 0 -1 0
vn 0 1 0

# texcoords
vt 0.318359 0.5
vt 0.322266 0.5
vt 0.724609 0.5
vt 0.728516 0.5

# verts
v -11 9.6 -35.3
v -11 9.6 -35.4
v -11 9.6 -35.9
v -11 9.8 -35.3
v -11 9.8 -35.4
v -11 9.8 -35.9
v -10.9 8.5 -35.1
v -10.9 8.5 -35.2
v -10.9 8.6 -35.1
v -10.9 8.6 -35.2
v -10.9 9.6 -35.1
v -10.9 9.6 -35.3
v -10.9 9.6 -35.9
v -10.9 9.6 -36.1
v -10.9 9.7 -35.9
v -10.9 9.7 -36.1
v -10.9 9.8 -35.1
v -10.9 9.8 -35.3
v -10.9 9.8 -35.4
v -10.9 9.8 -35.7
v -10.9 9.8 -35.9
v -10.9 9.8 -36.1
v -10.9 9.9 -35.3
v -10.9 9.9 -35.4
v -10.9 9.9 -35.6
v -10.9 9.9 -35.7
v -10.9 10 -35.5
v -10.9 10 -35.6
v -10.9 10.1 -35.3
v -10.9 10.1 -35.5
v -10.9 10.1 -35.9
v -10.8 8.5 -35.2
v -10.8 8.5 -35.4
v -10.8 8.5 -36
v -10.8 8.5 -36.1
v -10.8 8.6 -35.2
v -10.8 8.6 -35.4
v -10.8 8.6 -36
v -10.8 8.6 -36.1
v -10.8 9.6 -35
v -10.8 9.6 -35.1
v -10.8 9.6 -36.1
v -10.8 9.6 -36.2
v -10.8 9.7 -36.1
v -10.8 9.8 -35
v -10.8 9.8 -35.1
v -10.8 9.8 -35.2
v -10.8 9.8 -35.3
v -10.8 9.8 -35.9
v -10.8 9.8 -36
v -10.8 9.8 -36.1
v -10.8 9.8 -36.2
v -10.8 9.9 -35.2
v -10.8 9.9 -35.3
v -10.8 10.1 -35.2
v -10.8 10.1 -35.3
v -10.8 10.1 -35.4
v -10.8 10.1 -35.5
v -10.8 10.1 -35.8
v -10.8 10.1 -35.9
v -10.8 10.1 -36
v -10.8 10.2 -35.5
v -10.8 10.2 -35.8
v -10.8 10.5 -35.4
v -10.8 10.5 -35.8
v -10.7 8.5 -35.8
v -10.7 8.5 -35.9
v -10.7 8.5 -36
v -10.7 8.5 -36.1
v -10.7 8.5 -36.2
v -10.7 8.6 -35.2
v -10.7 8.6 -35.3
v -10.7 8.6 -35.8
v -10.7 8.6 -35.9
v -10.7 8.6 -36
v -10.7 8.6 -36.1
v -10.7 8.6 -36.2
v -10.7 8.7 -35.2
v -10.7 8.7 -35.3
v -10.7 9.6 -34.9
v -10.7 9.6 -35
v -10.7 9.6 -36.2
v -10.7 9.6 -36.3
v -10.7 9.8 -34.9
v -10.7 9.8 -35
v -10.7 9.8 -35.1
v -10.7 9.8 -35.2
v -10.7 9.8 -36
v -10.7 9.8 -36.1
v -10.7 9.8 -36.2
v -10.7 9.8 -36.3
v -10.7 9.9 -35.1
v -10.7 9.9 -35.2
v -10.7 10.1 -35.1
v -10.7 10.1 -35.2
v -10.7 10.1 -35.4
v -10.7 10.1 -35.8
v -10.7 10.1 -36
v -10.7 10.1 -36.1
v -10.7 10.2 -35.8
v -10.7 10.3 -35.8
v -10.7 10.3 -35.9
v -10.7 10.4 -35.9
v -10.7 10.4 -36
v -10.7 10.5 -35.2
v -10.7 10.5 -35.4
v -10.7 10.5 -35.8
v -10.7 10.5 -36
v -10.7 10.8 -35.4
v -10.7 10.8 -35.8
v -10.6 8.5 -35.4
v -10.6 8.5 -35.8
v -10.6 8.6 -35.3
v -10.6 8.6 -35.4
v -10.6 8.6 -35.8
v -10.6 8.6 -35.9
v -10.6 8.6 -36
v -10.6 8.7 -35.3
v -10.6 8.7 -35.4
v -10.6 8.7 -35.9
v -10.6 8.7 -36
v -10.6 9.8 -35
v -10.6 9.8 -35.1
v -10.6 9.8 -36.1
v -10.6 9.8 -36.2
v -10.6 9.9 -35.1
v -10.6 10 -35
v -10.6 10 -35.1
v -10.6 10.1 -35
v -10.6 10.1 -35.1
v -10.6 10.1 -35.2
v -10.6 10.1 -36
v -10.6 10.1 -36.1
v -10.6 10.1 -36.2
v -10.6 10.2 -36
v -10.6 10.2 -36.1
v -10.6 10.4 -36
v -10.6 10.5 -35.1
v -10.6 10.5 -35.2
v -10.6 10.5 -35.4
v -10.6 10.5 -35.8
v -10.6 10.5 -36
v -10.6 10.5 -36.1
v -10.6 10.8 -35.2
v -10.6 10.8 -35.4
v -10.6 10.8 -35.8
v -10.6 10.8 -36
v -10.6 11.1 -35.4
v -10.6 11.1 -35.8
v -10.5 8.6 -35.4
v -10.5 8.6 -35.7
v -10.5 8.6 -35.8
v -10.5 8.6 -35.9
v -10.5 8.7 -35.4
v -10.5 8.7 -35.6
v -10.5 8.7 -35.7
v -10.5 8.7 -35.8
v -10.5 8.7 -35.9
v -10.5 8.9 -35.4
v -10.5 8.9 -35.5
v -10.5 8.9 -35.6
v -10.5 8.9 -35.7
v -10.5 8.9 -35.8
v -10.5 9.3 -35.5
v -10.5 9.3 -35.7
v -10.5 9.6 -34.8
v -10.5 9.6 -34.9
v -10.5 9.6 -36.3
v -10.5 9.6 -36.4
v -10.5 9.7 -34.9
v -10.5 9.8 -34.8
v -10.5 9.8 -34.9
v -10.5 9.8 -35
v -10.5 9.8 -36.2
v -10.5 9.8 -36.3
v -10.5 9.8 -36.4
v -10.5 9.9 -36.2
v -10.5 9.9 -36.3
v -10.5 10 -35
v -10.5 10.1 -34.9
v -10.5 10.1 -35
v -10.5 10.1 -36.2
v -10.5 10.1 -36.3
v -10.5 10.8 -35.3
v -10.5 10.8 -35.4
v -10.5 10.8 -35.8
v -10.5 10.8 -35.9
v -10.5 11.1 -35.3
v -10.5 11.1 -35.4
v -10.5 11.1 -35.8
v -10.5 11.1 -35.9
v -10.5 11.3 -35.4
v -10.5 11.3 -35.8
v -10.4 8.7 -35.3
v -10.4 8.7 -35.4
v -10.4 8.7 -35.8
v -10.4 8.7 -35.9
v -10.4 8.9 -35.3
v -10.4 8.9 -35.4
v -10.4 8.9 -35.5
v -10.4 8.9 -35.7
v -10.4 8.9 -35.8
v -10.4 8.9 -35.9
v -10.4 9.3 -35.4
v -10.4 9.3 -35.5
v -10.4 9.3 -35.7
v -10.4 9.3 -35.8
v -10.4 9.6 -35.5
v -10.4 9.6 -35.7
v -10.4 10.1 -35
v -10.4 10.1 -35.1
v -10.4 10.1 -36.1
v -10.4 10.1 -36.2
v -10.4 10.2 -36.1
v -10.4 10.2 -36.2
v -10.4 10.5 -35
v -10.4 10.5 -35.1
v -10.4 10.5 -35.2
v -10.4 10.5 -36
v -10.4 10.5 -36.1
v -10.4 10.5 -36.2
v -10.4 10.8 -35.1
v -10.4 10.8 -35.2
v -10.4 10.8 -35.3
v -10.4 10.8 -35.9
v -10.4 10.8 -36
v -10.4 10.8 -36.1
v -10.4 11 -35.2
v -10.4 11 -35.3
v -10.4 11.1 -35.2
v -10.4 11.1 -35.3
v -10.4 11.1 -35.4
v -10.4 11.1 -35.8
v -10.4 11.1 -35.9
v -10.4 11.1 -36
v -10.4 11.3 -35.3
v -10.4 11.3 -35.4
v -10.4 11.3 -35.5
v -10.4 11.3 -35.7
v -10.4 11.3 -35.8
v -10.4 11.3 -35.9
v -10.4 11.4 -35.5
v -10.4 11.4 -35.7
v -10.3 8.9 -35.3
v -10.3 8.9 -35.4
v -10.3 8.9 -35.8
v -10.3 8.9 -35.9
v -10.3 9 -35.8
v -10.3 9 -35.9
v -10.3 9.2 -35.3
v -10.3 9.2 -35.4
v -10.3 9.3 -35.3
v -10.3 9.3 -35.4
v -10.3 9.3 -35.5
v -10.3 9.3 -35.7
v -10.3 9.3 -35.8
v -10.3 9.3 -35.9
v -10.3 9.4 -35.7
v -10.3 9.4 -35.8
v -10.3 9.6 -35.4
v -10.3 9.6 -35.5
v -10.3 9.6 -35.7
v -10.3 9.6 -35.8
v -10.3 11.3 -35.4
v -10.3 11.3 -35.5
v -10.3 11.3 -35.7
v -10.3 11.3 -35.8
v -10.3 11.4 -35.4
v -10.3 11.4 -35.5
v -10.3 11.4 -35.7
v -10.3 11.4 -35.8
v -10.3 11.6 -35.5
v -10.3 11.6 -35.7
v -10 8.6 -35.2
v -10 8.6 -35.3
v -10 8.7 -35.2
v -10 8.7 -35.3
v -9.9 8.5 -35.1
v -9.9 8.5 -35.2
v -9.9 8.5 -36
v -9.9 8.5 -36.1
v -9.9 8.6 -35.1
v -9.9 8.6 -35.2
v -9.9 8.6 -36
v -9.9 8.6 -36.1
v -9.8 8.5 -36.1
v -9.8 8.5 -36.2
v -9.8 8.6 -36.1
v -9.8 8.6 -36.2
v -10.6 8.6 -35.2
v -10.6 8.6 -35.3
v -10.6 8.7 -35.2
v -10.6 8.7 -35.3
v -10.5 8.5 -36.1
v -10.5 8.5 -36.2
v -10.5 8.6 -36.1
v -10.5 8.6 -36.2
v -10.4 8.5 -35.1
v -10.4 8.5 -35.2
v -10.4 8.6 -35.1
v -10.4 8.6 -35.2
v -10.4 8.6 -35.9
v -10.4 8.6 -36
v -10.4 8.7 -35.9
v -10.4 8.7 -36
v -10.3 8.5 -36
v -10.3 8.5 -36.1
v -10.3 8.6 -36
v -10.3 8.6 -36.1
v -10.1 8.9 -35.3
v -10.1 8.9 -35.4
v -10.1 8.9 -35.8
v -10.1 8.9 -35.9
v -10.1 9 -35.8
v -10.1 9 -35.9
v -10.1 9.2 -35.3
v -10.1 9.2 -35.4
v -10.1 9.3 -35.3
v -10.1 9.3 -35.4
v -10.1 9.3 -35.5
v -10.1 9.3 -35.7
v -10.1 9.3 -35.8
v -10.1 9.3 -35.9
v -10.1 9.4 -35.7
v -10.1 9.4 -35.8
v -10.1 9.6 -35.4
v -10.1 9.6 -35.5
v -10.1 9.6 -35.7
v -10.1 9.6 -35.8
v -10.1 11.3 -35.4
v -10.1 11.3 -35.5
v -10.1 11.3 -35.7
v -10.1 11.3 -35.8
v -10.1 11.4 -35.4
v -10.1 11.4 -35.5
v -10.1 11.4 -35.7
v -10.1 11.4 -35.8
v -10.1 11.6 -35.5
v -10.1 11.6 -35.7
v -10 8.7 -35.3
v -10 8.7 -35.4
v -10 8.7 -35.8
v -10 8.7 -35.9
v -10 8.8 -35.3
v -10 8.8 -35.4
v -10 8.9 -35.3
v -10 8.9 -35.4
v -10 8.9 -35.5
v -10 8.9 -35.7
v -10 8.9 -35.8
v -10 8.9 -35.9
v -10 9.3 -35.4
v -10 9.3 -35.5
v -10 9.3 -35.7
v -10 9.3 -35.8
v -10 9.6 -35.5
v -10 9.6 -35.7
v -10 10.1 -35
v -10 10.1 -35.1
v -10 10.1 -36.1
v -10 10.1 -36.2
v -10 10.5 -35
v -10 10.5 -35.1
v -10 10.5 -35.2
v -10 10.5 -36
v -10 10.5 -36.1
v -10 10.5 -36.2
v -10 10.8 -35.1
v -10 10.8 -35.2
v -10 10.8 -35.3
v -10 10.8 -35.9
v -10 10.8 -36
v -10 10.8 -36.1
v -10 11.1 -35.2
v -10 11.1 -35.3
v -10 11.1 -35.4
v -10 11.1 -35.8
v -10 11.1 -35.9
v -10 11.1 -36
v -10 11.3 -35.3
v -10 11.3 -35.4
v -10 11.3 -35.5
v -10 11.3 -35.7
v -10 11.3 -35.8
v -10 11.3 -35.9
v -10 11.4 -35.5
v -10 11.4 -35.7
v -9.9 8.6 -35.4
v -9.9 8.6 -35.8
v -9.9 8.6 -35.9
v -9.9 8.7 -35.4
v -9.9 8.7 -35.8
v -9.9 8.7 -35.9
v -9.9 8.9 -35.4
v -9.9 8.9 -35.5
v -9.9 8.9 -35.7
v -9.9 8.9 -35.8
v -9.9 9.3 -35.5
v -9.9 9.3 -35.7
v -9.9 9.6 -34.8
v -9.9 9.6 -34.9
v -9.9 9.6 -36.3
v -9.9 9.6 -36.4
v -9.9 9.7 -34.9
v -9.9 9.8 -34.8
v -9.9 9.8 -34.9
v -9.9 9.8 -35
v -9.9 9.8 -36.2
v -9.9 9.8 -36.3
v -9.9 9.8 -36.4
v -9.9 9.9 -34.9
v -9.9 9.9 -35
v -9.9 10 -35
v -9.9 10.1 -34.9
v -9.9 10.1 -35
v -9.9 10.1 -36.2
v -9.9 10.1 -36.3
v -9.9 10.8 -35.3
v -9.9 10.8 -35.4
v -9.9 10.8 -35.8
v -9.9 10.8 -35.9
v -9.9 11.1 -35.3
v -9.9 11.1 -35.4
v -9.9 11.1 -35.5
v -9.9 11.1 -35.8
v -9.9 11.1 -35.9
v -9.9 11.3 -35.4
v -9.9 11.3 -35.8
v -9.8 8.5 -35.3
v -9.8 8.5 -35.8
v -9.8 8.6 -35.2
v -9.8 8.6 -35.3
v -9.8 8.6 -35.4
v -9.8 8.6 -35.8
v -9.8 8.7 -35.2
v -9.8 8.7 -35.4
v -9.8 9.8 -35
v -9.8 9.8 -35.1
v -9.8 9.8 -36.1
v -9.8 9.8 -36.2
v -9.8 10 -35
v -9.8 10 -35.1
v -9.8 10.1 -35
v -9.8 10.1 -35.1
v -9.8 10.1 -35.2
v -9.8 10.1 -36
v -9.8 10.1 -36.1
v -9.8 10.1 -36.2
v -9.8 10.5 -35.1
v -9.8 10.5 -35.2
v -9.8 10.5 -35.3
v -9.8 10.5 -35.4
v -9.8 10.5 -35.8
v -9.8 10.5 -36
v -9.8 10.5 -36.1
v -9.8 10.8 -35.2
v -9.8 10.8 -35.3
v -9.8 10.8 -35.4
v -9.8 10.8 -35.5
v -9.8 10.8 -35.8
v -9.8 10.8 -36
v -9.8 11.1 -35.4
v -9.8 11.1 -35.5
v -9.8 11.1 -35.8
v -9.7 8.5 -35.8
v -9.7 8.5 -36
v -9.7 8.6 -35.8
v -9.7 8.6 -36
v -9.7 9.6 -34.9
v -9.7 9.6 -35
v -9.7 9.6 -36.2
v -9.7 9.6 -36.3
v -9.7 9.7 -35
v -9.7 9.8 -34.9
v -9.7 9.8 -35
v -9.7 9.8 -35.1
v -9.7 9.8 -35.2
v -9.7 9.8 -36
v -9.7 9.8 -36.1
v -9.7 9.8 -36.2
v -9.7 9.8 -36.3
v -9.7 10 -35.1
v -9.7 10 -35.2
v -9.7 10.1 -35.1
v -9.7 10.1 -35.2
v -9.7 10.1 -35.4
v -9.7 10.1 -35.8
v -9.7 10.1 -36
v -9.7 10.1 -36.1
v -9.7 10.5 -35.2
v -9.7 10.5 -35.4
v -9.7 10.5 -35.8
v -9.7 10.5 -36
v -9.7 10.8 -35.4
v -9.7 10.8 -35.8
v -9.6 8.5 -35.1
v -9.6 8.5 -35.3
v -9.6 8.5 -36
v -9.6 8.5 -36.2
v -9.6 8.6 -35.1
v -9.6 8.6 -35.3
v -9.6 8.6 -36
v -9.6 8.6 -36.2
v -9.6 9.6 -35
v -9.6 9.6 -35.1
v -9.6 9.6 -36.1
v -9.6 9.6 -36.2
v -9.6 9.7 -35
v -9.6 9.7 -35.1
v -9.6 9.8 -35
v -9.6 9.8 -35.1
v -9.6 9.8 -35.2
v -9.6 9.8 -35.3
v -9.6 9.8 -35.9
v -9.6 9.8 -36
v -9.6 9.8 -36.1
v -9.6 9.8 -36.2
v -9.6 10 -35.2
v -9.6 10 -35.3
v -9.6 10.1 -35.2
v -9.6 10.1 -35.3
v -9.6 10.1 -35.4
v -9.6 10.1 -35.8
v -9.6 10.1 -35.9
v -9.6 10.1 -36
v -9.6 10.5 -35.4
v -9.6 10.5 -35.8
v -9.5 9.6 -35.1
v -9.5 9.6 -35.3
v -9.5 9.6 -35.9
v -9.5 9.6 -36.1
v -9.5 9.7 -35.1
v -9.5 9.7 -35.3
v -9.5 9.8 -35.1
v -9.5 9.8 -35.3
v -9.5 9.8 -35.9
v -9.5 9.8 -36.1
v -9.5 10.1 -35.3
v -9.5 10.1 -35.9
v -9.4 9.6 -35.3
v -9.4 9.6 -35.9
v -9.4 9.8 -35.3
v -9.4 9.8 -35.9
v -10.5 9.6 -34.8
v -10.5 9.8 -34.8
v -9.9 9.6 -34.8
v -9.9 9.8 -34.8
v -10.7 9.6 -34.9
v -10.7 9.8 -34.9
v -10.6 9.6 -34.9
v -10.6 9.7 -34.9
v -10.5 9.6 -34.9
v -10.5 9.7 -34.9
v -10.5 9.8 -34.9
v -10.5 10.1 -34.9
v -10 9.8 -34.9
v -10 9.9 -34.9
v -9.9 9.6 -34.9
v -9.9 9.7 -34.9
v -9.9 9.8 -34.9
v -9.9 9.9 -34.9
v -9.9 10.1 -34.9
v -9.8 9.6 -34.9
v -9.8 9.7 -34.9
v -9.7 9.6 -34.9
v -9.7 9.8 -34.9
v -10.8 9.6 -35
v -10.8 9.8 -35
v -10.7 9.6 -35
v -10.7 9.8 -35
v -10.6 9.8 -35
v -10.6 10 -35
v -10.6 10.1 -35
v -10.5 9.8 -35
v -10.5 10 -35
v -10.5 10.1 -35
v -10.4 10.1 -35
v -10.4 10.5 -35
v -10 10.1 -35
v -10 10.5 -35
v -9.9 9.8 -35
v -9.9 9.9 -35
v -9.9 10 -35
v -9.9 10.1 -35
v -9.8 9.8 -35
v -9.8 10 -35
v -9.8 10.1 -35
v -9.7 9.6 -35
v -9.7 9.7 -35
v -9.7 9.8 -35
v -9.6 9.6 -35
v -9.6 9.7 -35
v -9.6 9.8 -35
v -10.9 8.5 -35.1
v -10.9 8.6 -35.1
v -10.9 9.6 -35.1
v -10.9 9.8 -35.1
v -10.8 9.6 -35.1
v -10.8 9.8 -35.1
v -10.7 9.8 -35.1
v -10.7 9.9 -35.1
v -10.7 10.1 -35.1
v -10.6 9.8 -35.1
v -10.6 9.9 -35.1
v -10.6 10 -35.1
v -10.6 10.1 -35.1
v -10.6 10.5 -35.1
v -10.4 8.5 -35.1
v -10.4 8.6 -35.1
v -10.4 10.1 -35.1
v -10.4 10.5 -35.1
v -10.4 10.8 -35.1
v -10.1 10.5 -35.1
v -10.1 10.8 -35.1
v -10 10.1 -35.1
v -10 10.5 -35.1
v -10 10.8 -35.1
v -9.9 8.5 -35.1
v -9.9 8.6 -35.1
v -9.8 9.8 -35.1
v -9.8 10 -35.1
v -9.8 10.1 -35.1
v -9.8 10.5 -35.1
v -9.7 9.8 -35.1
v -9.7 10 -35.1
v -9.7 10.1 -35.1
v -9.6 8.5 -35.1
v -9.6 8.6 -35.1
v -9.6 9.6 -35.1
v -9.6 9.7 -35.1
v -9.6 9.8 -35.1
v -9.5 9.6 -35.1
v -9.5 9.7 -35.1
v -9.5 9.8 -35.1
v -10.8 9.8 -35.2
v -10.8 9.9 -35.2
v -10.8 10.1 -35.2
v -10.7 8.6 -35.2
v -10.7 8.7 -35.2
v -10.7 9.8 -35.2
v -10.7 9.9 -35.2
v -10.7 10.1 -35.2
v -10.7 10.5 -35.2
v -10.6 8.6 -35.2
v -10.6 8.7 -35.2
v -10.6 10.1 -35.2
v -10.6 10.5 -35.2
v -10.6 10.8 -35.2
v -10.4 8.5 -35.2
v -10.4 8.6 -35.2
v -10.4 10.5 -35.2
v -10.4 10.8 -35.2
v -10.4 11 -35.2
v -10.4 11.1 -35.2
v -10.2 11 -35.2
v -10.2 11.1 -35.2
v -10.1 10.8 -35.2
v -10 8.6 -35.2
v -10 8.7 -35.2
v -10 10.5 -35.2
v -10 10.8 -35.2
v -10 11.1 -35.2
v -9.9 8.5 -35.2
v -9.9 8.6 -35.2
v -9.8 8.6 -35.2
v -9.8 8.7 -35.2
v -9.8 10.1 -35.2
v -9.8 10.5 -35.2
v -9.8 10.8 -35.2
v -9.7 9.8 -35.2
v -9.7 10 -35.2
v -9.7 10.1 -35.2
v -9.7 10.5 -35.2
v -9.6 9.8 -35.2
v -9.6 10 -35.2
v -9.6 10.1 -35.2
v -11 9.6 -35.3
v -11 9.8 -35.3
v -10.9 9.6 -35.3
v -10.9 9.8 -35.3
v -10.9 9.9 -35.3
v -10.9 10.1 -35.3
v -10.8 9.8 -35.3
v -10.8 9.9 -35.3
v -10.8 10.1 -35.3
v -10.6 8.6 -35.3
v -10.6 8.7 -35.3
v -10.5 8.6 -35.3
v -10.5 8.7 -35.3
v -10.5 10.8 -35.3
v -10.5 11.1 -35.3
v -10.4 8.7 -35.3
v -10.4 8.9 -35.3
v -10.4 10.8 -35.3
v -10.4 11 -35.3
v -10.4 11.1 -35.3
v -10.4 11.3 -35.3
v -10.3 8.9 -35.3
v -10.3 9.2 -35.3
v -10.3 9.3 -35.3
v -10.2 11.1 -35.3
v -10.1 8.6 -35.3
v -10.1 8.7 -35.3
v -10.1 8.8 -35.3
v -10.1 8.9 -35.3
v -10.1 9.2 -35.3
v -10.1 9.3 -35.3
v -10 8.6 -35.3
v -10 8.7 -35.3
v -10 8.8 -35.3
v -10 8.9 -35.3
v -10 10.8 -35.3
v -10 11.1 -35.3
v -10 11.3 -35.3
v -9.9 10.8 -35.3
v -9.9 11.1 -35.3
v -9.6 9.8 -35.3
v -9.6 10 -35.3
v -9.6 10.1 -35.3
v -9.5 9.6 -35.3
v -9.5 9.7 -35.3
v -9.5 9.8 -35.3
v -9.5 10.1 -35.3
v -9.4 9.6 -35.3
v -9.4 9.8 -35.3
v -10.8 10.1 -35.4
v -10.8 10.5 -35.4
v -10.7 10.1 -35.4
v -10.7 10.5 -35.4
v -10.7 10.8 -35.4
v -10.6 10.5 -35.4
v -10.6 10.8 -35.4
v -10.6 11.1 -35.4
v -10.5 8.7 -35.4
v -10.5 8.9 -35.4
v -10.5 10.8 -35.4
v -10.5 11.1 -35.4
v -10.5 11.3 -35.4
v -10.4 8.7 -35.4
v -10.4 8.9 -35.4
v -10.4 9.3 -35.4
v -10.4 11.1 -35.4
v -10.4 11.3 -35.4
v -10.3 8.9 -35.4
v -10.3 9.2 -35.4
v -10.3 9.3 -35.4
v -10.3 9.6 -35.4
v -10.3 11.3 -35.4
v -10.3 11.4 -35.4
v -10.1 8.9 -35.4
v -10.1 9.2 -35.4
v -10.1 9.3 -35.4
v -10.1 9.6 -35.4
v -10.1 11.3 -35.4
v -10.1 11.4 -35.4
v -10 8.7 -35.4
v -10 8.8 -35.4
v -10 8.9 -35.4
v -10 9.3 -35.4
v -10 11.1 -35.4
v -10 11.3 -35.4
v -9.9 8.7 -35.4
v -9.9 8.9 -35.4
v -9.9 10.8 -35.4
v -9.9 11.1 -35.4
v -9.9 11.3 -35.4
v -9.8 10.5 -35.4
v -9.8 10.8 -35.4
v -9.8 11.1 -35.4
v -9.7 10.1 -35.4
v -9.7 10.5 -35.4
v -9.7 10.8 -35.4
v -9.6 10.1 -35.4
v -9.6 10.5 -35.4
v -10.5 8.9 -35.5
v -10.5 9.3 -35.5
v -10.4 8.9 -35.5
v -10.4 9.3 -35.5
v -10.4 9.6 -35.5
v -10.4 11.3 -35.5
v -10.4 11.4 -35.5
v -10.3 9.3 -35.5
v -10.3 9.6 -35.5
v -10.3 11.3 -35.5
v -10.3 11.4 -35.5
v -10.3 11.6 -35.5
v -10.1 9.3 -35.5
v -10.1 9.6 -35.5
v -10.1 11.3 -35.5
v -10.1 11.4 -35.5
v -10.1 11.6 -35.5
v -10 8.9 -35.5
v -10 9.3 -35.5
v -10 9.6 -35.5
v -10 11.3 -35.5
v -10 11.4 -35.5
v -9.9 8.9 -35.5
v -9.9 9.3 -35.5
v -10.7 8.5 -35.8
v -10.7 8.6 -35.8
v -10.6 8.5 -35.8
v -10.6 8.6 -35.8
v -9.8 8.5 -35.8
v -9.8 8.6 -35.8
v -9.7 8.5 -35.8
v -9.7 8.6 -35.8
v -10.6 8.6 -35.9
v -10.6 8.7 -35.9
v -10.5 8.6 -35.9
v -10.5 8.7 -35.9
v -10.8 8.5 -36
v -10.8 8.6 -36
v -10.7 8.5 -36
v -10.7 8.6 -36
v -9.7 8.5 -36
v -9.7 8.6 -36
v -9.6 8.5 -36
v -9.6 8.6 -36
v -10.9 8.5 -35.2
v -10.9 8.6 -35.2
v -10.8 8.5 -35.2
v -10.8 8.6 -35.2
v -10.7 8.6 -35.3
v -10.7 8.7 -35.3
v -10.6 8.6 -35.3
v -10.6 8.7 -35.3
v -9.8 8.5 -35.3
v -9.8 8.6 -35.3
v -9.6 8.5 -35.3
v -9.6 8.6 -35.3
v -10.8 8.5 -35.4
v -10.8 8.6 -35.4
v -10.6 8.5 -35.4
v -10.6 8.6 -35.4
v -10.6 8.7 -35.4
v -10.5 8.6 -35.4
v -10.5 8.7 -35.4
v -9.9 8.6 -35.4
v -9.9 8.7 -35.4
v -9.8 8.6 -35.4
v -9.8 8.7 -35.4
v -10.5 8.9 -35.7
v -10.5 9.3 -35.7
v -10.4 8.9 -35.7
v -10.4 9.3 -35.7
v -10.4 9.6 -35.7
v -10.4 11.3 -35.7
v -10.4 11.4 -35.7
v -10.3 9.3 -35.7
v -10.3 9.4 -35.7
v -10.3 9.6 -35.7
v -10.3 11.3 -35.7
v -10.3 11.4 -35.7
v -10.3 11.6 -35.7
v -10.1 9.3 -35.7
v -10.1 9.4 -35.7
v -10.1 9.6 -35.7
v -10.1 11.3 -35.7
v -10.1 11.4 -35.7
v -10.1 11.6 -35.7
v -10 8.9 -35.7
v -10 9.3 -35.7
v -10 9.6 -35.7
v -10 11.3 -35.7
v -10 11.4 -35.7
v -9.9 8.9 -35.7
v -9.9 9.3 -35.7
v -10.8 10.1 -35.8
v -10.8 10.2 -35.8
v -10.8 10.5 -35.8
v -10.7 10.1 -35.8
v -10.7 10.2 -35.8
v -10.7 10.3 -35.8
v -10.7 10.5 -35.8
v -10.7 10.8 -35.8
v -10.6 10.5 -35.8
v -10.6 10.8 -35.8
v -10.6 11.1 -35.8
v -10.5 8.7 -35.8
v -10.5 8.9 -35.8
v -10.5 10.8 -35.8
v -10.5 11.1 -35.8
v -10.5 11.3 -35.8
v -10.4 8.7 -35.8
v -10.4 8.9 -35.8
v -10.4 9.3 -35.8
v -10.4 11.1 -35.8
v -10.4 11.3 -35.8
v -10.3 8.9 -35.8
v -10.3 9 -35.8
v -10.3 9.3 -35.8
v -10.3 9.4 -35.8
v -10.3 9.6 -35.8
v -10.3 11.3 -35.8
v -10.3 11.4 -35.8
v -10.1 8.9 -35.8
v -10.1 9 -35.8
v -10.1 9.3 -35.8
v -10.1 9.4 -35.8
v -10.1 9.6 -35.8
v -10.1 11.3 -35.8
v -10.1 11.4 -35.8
v -10 8.7 -35.8
v -10 8.9 -35.8
v -10 9.3 -35.8
v -10 11.1 -35.8
v -10 11.3 -35.8
v -9.9 8.7 -35.8
v -9.9 8.9 -35.8
v -9.9 10.8 -35.8
v -9.9 11.1 -35.8
v -9.9 11.3 -35.8
v -9.8 10.5 -35.8
v -9.8 10.8 -35.8
v -9.8 11.1 -35.8
v -9.7 10.1 -35.8
v -9.7 10.5 -35.8
v -9.7 10.8 -35.8
v -9.6 10.1 -35.8
v -9.6 10.5 -35.8
v -11 9.6 -35.9
v -11 9.8 -35.9
v -10.9 9.6 -35.9
v -10.9 9.7 -35.9
v -10.9 9.8 -35.9
v -10.9 10.1 -35.9
v -10.8 9.8 -35.9
v -10.8 10.1 -35.9
v -10.5 10.8 -35.9
v -10.5 11.1 -35.9
v -10.4 8.6 -35.9
v -10.4 8.7 -35.9
v -10.4 8.9 -35.9
v -10.4 10.8 -35.9
v -10.4 11.1 -35.9
v -10.4 11.3 -35.9
v -10.3 8.6 -35.9
v -10.3 8.7 -35.9
v -10.3 8.9 -35.9
v -10.3 9 -35.9
v -10.3 9.3 -35.9
v -10.1 8.9 -35.9
v -10.1 9 -35.9
v -10.1 9.3 -35.9
v -10 8.7 -35.9
v -10 8.9 -35.9
v -10 10.8 -35.9
v -10 11.1 -35.9
v -10 11.3 -35.9
v -9.9 8.6 -35.9
v -9.9 8.7 -35.9
v -9.9 10.8 -35.9
v -9.9 11.1 -35.9
v -9.6 9.8 -35.9
v -9.6 10.1 -35.9
v -9.5 9.6 -35.9
v -9.5 9.8 -35.9
v -9.5 10.1 -35.9
v -9.4 9.6 -35.9
v -9.4 9.8 -35.9
v -10.8 9.8 -36
v -10.8 10.1 -36
v -10.7 9.8 -36
v -10.7 10.1 -36
v -10.7 10.4 -36
v -10.7 10.5 -36
v -10.6 8.6 -36
v -10.6 8.7 -36
v -10.6 10.1 -36
v -10.6 10.2 -36
v -10.6 10.4 -36
v -10.6 10.5 -36
v -10.6 10.8 -36
v -10.4 8.6 -36
v -10.4 8.7 -36
v -10.4 10.5 -36
v -10.4 10.8 -36
v -10.4 11.1 -36
v -10.3 8.5 -36
v -10.3 8.6 -36
v -10 10.5 -36
v -10 10.8 -36
v -10 11.1 -36
v -9.9 8.5 -36
v -9.9 8.6 -36
v -9.8 10.1 -36
v -9.8 10.5 -36
v -9.8 10.8 -36
v -9.7 9.8 -36
v -9.7 10.1 -36
v -9.7 10.5 -36
v -9.6 9.8 -36
v -9.6 10.1 -36
v -10.9 9.6 -36.1
v -10.9 9.7 -36.1
v -10.9 9.8 -36.1
v -10.8 8.5 -36.1
v -10.8 8.6 -36.1
v -10.8 9.6 -36.1
v -10.8 9.7 -36.1
v -10.8 9.8 -36.1
v -10.7 8.5 -36.1
v -10.7 8.6 -36.1
v -10.7 9.8 -36.1
v -10.7 10.1 -36.1
v -10.6 9.8 -36.1
v -10.6 10.1 -36.1
v -10.6 10.2 -36.1
v -10.6 10.5 -36.1
v -10.5 8.5 -36.1
v -10.5 8.6 -36.1
v -10.4 10.1 -36.1
v -10.4 10.2 -36.1
v -10.4 10.5 -36.1
v -10.4 10.8 -36.1
v -10.3 8.5 -36.1
v -10.3 8.6 -36.1
v -10 10.1 -36.1
v -10 10.5 -36.1
v -10 10.8 -36.1
v -9.9 8.5 -36.1
v -9.9 8.6 -36.1
v -9.8 8.5 -36.1
v -9.8 8.6 -36.1
v -9.8 9.8 -36.1
v -9.8 10.1 -36.1
v -9.8 10.5 -36.1
v -9.7 9.8 -36.1
v -9.7 10.1 -36.1
v -9.6 9.6 -36.1
v -9.6 9.8 -36.1
v -9.5 9.6 -36.1
v -9.5 9.8 -36.1
v -10.8 9.6 -36.2
v -10.8 9.8 -36.2
v -10.7 8.5 -36.2
v -10.7 8.6 -36.2
v -10.7 9.6 -36.2
v -10.7 9.8 -36.2
v -10.6 9.8 -36.2
v -10.6 10.1 -36.2
v -10.5 8.5 -36.2
v -10.5 8.6 -36.2
v -10.5 9.8 -36.2
v -10.5 9.9 -36.2
v -10.5 10.1 -36.2
v -10.4 10.1 -36.2
v -10.4 10.2 -36.2
v -10.4 10.5 -36.2
v -10.3 10.1 -36.2
v -10.3 10.2 -36.2
v -10 10.1 -36.2
v -10 10.5 -36.2
v -9.9 9.8 -36.2
v -9.9 10.1 -36.2
v -9.8 8.5 -36.2
v -9.8 8.6 -36.2
v -9.8 9.8 -36.2
v -9.8 10.1 -36.2
v -9.7 9.6 -36.2
v -9.7 9.8 -36.2
v -9.6 8.5 -36.2
v -9.6 8.6 -36.2
v -9.6 9.6 -36.2
v -9.6 9.8 -36.2
v -10.7 9.6 -36.3
v -10.7 9.8 -36.3
v -10.6 9.6 -36.3
v -10.6 9.8 -36.3
v -10.5 9.6 -36.3
v -10.5 9.8 -36.3
v -10.5 9.9 -36.3
v -10.5 10.1 -36.3
v -10.4 9.9 -36.3
v -10.4 10.1 -36.3
v -9.9 9.6 -36.3
v -9.9 9.8 -36.3
v -9.9 10.1 -36.3
v -9.7 9.6 -36.3
v -9.7 9.8 -36.3
v -10.5 9.6 -36.4
v -10.5 9.8 -36.4
v -9.9 9.6 -36.4
v -9.9 9.8 -36.4
v -10.9 8.5 -35.1
v -10.4 8.5 -35.1
v -9.9 8.5 -35.1
v -9.6 8.5 -35.1
v -10.9 8.5 -35.2
v -10.8 8.5 -35.2
v -10.4 8.5 -35.2
v -9.9 8.5 -35.2
v -9.8 8.5 -35.3
v -9.6 8.5 -35.3
v -10.8 8.5 -35.4
v -10.6 8.5 -35.4
v -10 8.5 -35.4
v -9.9 8.5 -35.4
v -10 8.5 -35.6
v -9.9 8.5 -35.6
v -10.7 8.5 -35.8
v -10.6 8.5 -35.8
v -10.5 8.5 -35.8
v -9.8 8.5 -35.8
v -9.7 8.5 -35.8
v -10.7 8.5 -35.9
v -10.6 8.5 -35.9
v -10.8 8.5 -36
v -10.7 8.5 -36
v -10.5 8.5 -36
v -10.3 8.5 -36
v -9.9 8.5 -36
v -9.7 8.5 -36
v -9.6 8.5 -36
v -10.8 8.5 -36.1
v -10.7 8.5 -36.1
v -10.5 8.5 -36.1
v -10.3 8.5 -36.1
v -9.9 8.5 -36.1
v -9.8 8.5 -36.1
v -10.7 8.5 -36.2
v -10.5 8.5 -36.2
v -9.8 8.5 -36.2
v -9.6 8.5 -36.2
v -10.5 9.6 -34.8
v -9.9 9.6 -34.8
v -10.7 9.6 -34.9
v -10.6 9.6 -34.9
v -10.5 9.6 -34.9
v -9.9 9.6 -34.9
v -9.8 9.6 -34.9
v -9.7 9.6 -34.9
v -10.8 9.6 -35
v -10.7 9.6 -35
v -10.6 9.6 -35
v -9.8 9.6 -35
v -9.7 9.6 -35
v -9.6 9.6 -35
v -10.9 9.6 -35.1
v -10.8 9.6 -35.1
v -10.7 9.6 -35.1
v -9.6 9.6 -35.1
v -9.5 9.6 -35.1
v -11 9.6 -35.3
v -10.9 9.6 -35.3
v -10.8 9.6 -35.3
v -9.5 9.6 -35.3
v -9.4 9.6 -35.3
v -11 9.6 -35.4
v -10.9 9.6 -35.4
v -10.3 9.6 -35.4
v -10.1 9.6 -35.4
v -10.4 9.6 -35.5
v -10.3 9.6 -35.5
v -10.1 9.6 -35.5
v -10 9.6 -35.5
v -10.4 9.6 -35.7
v -10.3 9.6 -35.7
v -10.1 9.6 -35.7
v -10 9.6 -35.7
v -10.3 9.6 -35.8
v -10.1 9.6 -35.8
v -11 9.6 -35.9
v -10.9 9.6 -35.9
v -9.5 9.6 -35.9
v -9.4 9.6 -35.9
v -10.8 9.6 -36
v -10.7 9.6 -36
v -10.9 9.6 -36.1
v -10.8 9.6 -36.1
v -10.7 9.6 -36.1
v -10.6 9.6 -36.1
v -9.6 9.6 -36.1
v -9.5 9.6 -36.1
v -10.8 9.6 -36.2
v -10.7 9.6 -36.2
v -9.7 9.6 -36.2
v -9.6 9.6 -36.2
v -10.7 9.6 -36.3
v -10.6 9.6 -36.3
v -10.5 9.6 -36.3
v -9.9 9.6 -36.3
v -9.7 9.6 -36.3
v -10.5 9.6 -36.4
v -9.9 9.6 -36.4
v -10.9 8.6 -35.1
v -10.4 8.6 -35.1
v -9.9 8.6 -35.1
v -9.6 8.6 -35.1
v -10.9 8.6 -35.2
v -10.8 8.6 -35.2
v -10.7 8.6 -35.2
v -10.6 8.6 -35.2
v -10.4 8.6 -35.2
v -10 8.6 -35.2
v -9.9 8.6 -35.2
v -9.8 8.6 -35.2
v -10.7 8.6 -35.3
v -10.6 8.6 -35.3
v -10.5 8.6 -35.3
v -10.1 8.6 -35.3
v -10 8.6 -35.3
v -9.8 8.6 -35.3
v -9.6 8.6 -35.3
v -10.8 8.6 -35.4
v -10.6 8.6 -35.4
v -10.5 8.6 -35.4
v -9.9 8.6 -35.4
v -9.8 8.6 -35.4
v -10.5 8.6 -35.7
v -10.7 8.6 -35.8
v -10.6 8.6 -35.8
v -10.5 8.6 -35.8
v -9.9 8.6 -35.8
v -9.8 8.6 -35.8
v -9.7 8.6 -35.8
v -10.7 8.6 -35.9
v -10.6 8.6 -35.9
v -10.5 8.6 -35.9
v -10.4 8.6 -35.9
v -10.3 8.6 -35.9
v -9.9 8.6 -35.9
v -10.8 8.6 -36
v -10.7 8.6 -36
v -10.6 8.6 -36
v -10.4 8.6 -36
v -10.3 8.6 -36
v -9.9 8.6 -36
v -9.7 8.6 -36
v -9.6 8.6 -36
v -10.8 8.6 -36.1
v -10.7 8.6 -36.1
v -10.5 8.6 -36.1
v -10.3 8.6 -36.1
v -9.9 8.6 -36.1
v -9.8 8.6 -36.1
v -10.7 8.6 -36.2
v -10.5 8.6 -36.2
v -9.8 8.6 -36.2
v -9.6 8.6 -36.2
v -10.7 8.7 -35.2
v -10.6 8.7 -35.2
v -10 8.7 -35.2
v -9.8 8.7 -35.2
v -10.7 8.7 -35.3
v -10.6 8.7 -35.3
v -10.5 8.7 -35.3
v -10.4 8.7 -35.3
v -10 8.7 -35.3
v -10.6 8.7 -35.4
v -10.5 8.7 -35.4
v -10.4 8.7 -35.4
v -10 8.7 -35.4
v -9.9 8.7 -35.4
v -9.8 8.7 -35.4
v -10.5 8.7 -35.8
v -10.4 8.7 -35.8
v -10 8.7 -35.8
v -9.9 8.7 -35.8
v -10.6 8.7 -35.9
v -10.5 8.7 -35.9
v -10.4 8.7 -35.9
v -10 8.7 -35.9
v -9.9 8.7 -35.9
v -10.6 8.7 -36
v -10.4 8.7 -36
v -10.4 8.9 -35.3
v -10.3 8.9 -35.3
v -10.1 8.9 -35.3
v -10 8.9 -35.3
v -10.5 8.9 -35.4
v -10.4 8.9 -35.4
v -10.3 8.9 -35.4
v -10.1 8.9 -35.4
v -10 8.9 -35.4
v -9.9 8.9 -35.4
v -10.5 8.9 -35.5
v -10.4 8.9 -35.5
v -10 8.9 -35.5
v -9.9 8.9 -35.5
v -10.5 8.9 -35.7
v -10.4 8.9 -35.7
v -10 8.9 -35.7
v -9.9 8.9 -35.7
v -10.5 8.9 -35.8
v -10.4 8.9 -35.8
v -10.3 8.9 -35.8
v -10.1 8.9 -35.8
v -10 8.9 -35.8
v -9.9 8.9 -35.8
v -10.4 8.9 -35.9
v -10.3 8.9 -35.9
v -10.1 8.9 -35.9
v -10 8.9 -35.9
v -10.3 9.3 -35.3
v -10.1 9.3 -35.3
v -10.4 9.3 -35.4
v -10.3 9.3 -35.4
v -10.1 9.3 -35.4
v -10 9.3 -35.4
v -10.5 9.3 -35.5
v -10.4 9.3 -35.5
v -10.3 9.3 -35.5
v -10.1 9.3 -35.5
v -10 9.3 -35.5
v -9.9 9.3 -35.5
v -10.5 9.3 -35.7
v -10.4 9.3 -35.7
v -10.3 9.3 -35.7
v -10.1 9.3 -35.7
v -10 9.3 -35.7
v -9.9 9.3 -35.7
v -10.4 9.3 -35.8
v -10.3 9.3 -35.8
v -10.1 9.3 -35.8
v -10 9.3 -35.8
v -10.3 9.3 -35.9
v -10.1 9.3 -35.9
v -10.5 9.8 -34.8
v -9.9 9.8 -34.8
v -10.7 9.8 -34.9
v -10.5 9.8 -34.9
v -10 9.8 -34.9
v -9.9 9.8 -34.9
v -9.7 9.8 -34.9
v -10.8 9.8 -35
v -10.7 9.8 -35
v -10.6 9.8 -35
v -10.5 9.8 -35
v -9.9 9.8 -35
v -9.8 9.8 -35
v -9.7 9.8 -35
v -9.6 9.8 -35
v -10.9 9.8 -35.1
v -10.8 9.8 -35.1
v -10.7 9.8 -35.1
v -10.6 9.8 -35.1
v -9.8 9.8 -35.1
v -9.7 9.8 -35.1
v -9.6 9.8 -35.1
v -9.5 9.8 -35.1
v -10.8 9.8 -35.2
v -10.7 9.8 -35.2
v -9.7 9.8 -35.2
v -9.6 9.8 -35.2
v -11 9.8 -35.3
v -10.9 9.8 -35.3
v -10.8 9.8 -35.3
v -9.6 9.8 -35.3
v -9.5 9.8 -35.3
v -9.4 9.8 -35.3
v -11 9.8 -35.4
v -10.9 9.8 -35.4
v -10.9 9.8 -35.7
v -11 9.8 -35.9
v -10.9 9.8 -35.9
v -10.8 9.8 -35.9
v -9.6 9.8 -35.9
v -9.5 9.8 -35.9
v -9.4 9.8 -35.9
v -10.8 9.8 -36
v -10.7 9.8 -36
v -9.7 9.8 -36
v -9.6 9.8 -36
v -10.9 9.8 -36.1
v -10.8 9.8 -36.1
v -10.7 9.8 -36.1
v -10.6 9.8 -36.1
v -9.8 9.8 -36.1
v -9.7 9.8 -36.1
v -9.6 9.8 -36.1
v -9.5 9.8 -36.1
v -10.8 9.8 -36.2
v -10.7 9.8 -36.2
v -10.6 9.8 -36.2
v -10.5 9.8 -36.2
v -9.9 9.8 -36.2
v -9.8 9.8 -36.2
v -9.7 9.8 -36.2
v -9.6 9.8 -36.2
v -10.7 9.8 -36.3
v -10.6 9.8 -36.3
v -10.5 9.8 -36.3
v -9.9 9.8 -36.3
v -9.7 9.8 -36.3
v -10.5 9.8 -36.4
v -9.9 9.8 -36.4
v -10.5 10.1 -34.9
v -9.9 10.1 -34.9
v -10.6 10.1 -35
v -10.5 10.1 -35
v -10.4 10.1 -35
v -10 10.1 -35
v -9.9 10.1 -35
v -9.8 10.1 -35
v -10.7 10.1 -35.1
v -10.6 10.1 -35.1
v -10.4 10.1 -35.1
v -10 10.1 -35.1
v -9.8 10.1 -35.1
v -9.7 10.1 -35.1
v -10.8 10.1 -35.2
v -10.7 10.1 -35.2
v -10.6 10.1 -35.2
v -9.8 10.1 -35.2
v -9.7 10.1 -35.2
v -9.6 10.1 -35.2
v -10.9 10.1 -35.3
v -10.8 10.1 -35.3
v -9.6 10.1 -35.3
v -9.5 10.1 -35.3
v -10.8 10.1 -35.4
v -10.7 10.1 -35.4
v -9.7 10.1 -35.4
v -9.6 10.1 -35.4
v -10.9 10.1 -35.5
v -10.8 10.1 -35.5
v -10.8 10.1 -35.8
v -10.7 10.1 -35.8
v -9.7 10.1 -35.8
v -9.6 10.1 -35.8
v -10.9 10.1 -35.9
v -10.8 10.1 -35.9
v -9.6 10.1 -35.9
v -9.5 10.1 -35.9
v -10.8 10.1 -36
v -10.7 10.1 -36
v -10.6 10.1 -36
v -9.8 10.1 -36
v -9.7 10.1 -36
v -9.6 10.1 -36
v -10.7 10.1 -36.1
v -10.6 10.1 -36.1
v -10.4 10.1 -36.1
v -10 10.1 -36.1
v -9.8 10.1 -36.1
v -9.7 10.1 -36.1
v -10.6 10.1 -36.2
v -10.5 10.1 -36.2
v -10.4 10.1 -36.2
v -10.3 10.1 -36.2
v -10 10.1 -36.2
v -9.9 10.1 -36.2
v -9.8 10.1 -36.2
v -10.5 10.1 -36.3
v -10.4 10.1 -36.3
v -9.9 10.1 -36.3
v -10.4 10.5 -35
v -10 10.5 -35
v -10.6 10.5 -35.1
v -10.4 10.5 -35.1
v -10.1 10.5 -35.1
v -10 10.5 -35.1
v -9.8 10.5 -35.1
v -10.7 10.5 -35.2
v -10.6 10.5 -35.2
v -10.4 10.5 -35.2
v -10 10.5 -35.2
v -9.8 10.5 -35.2
v -9.7 10.5 -35.2
v -9.8 10.5 -35.3
v -10.8 10.5 -35.4
v -10.7 10.5 -35.4
v -10.6 10.5 -35.4
v -9.8 10.5 -35.4
v -9.7 10.5 -35.4
v -9.6 10.5 -35.4
v -10.8 10.5 -35.8
v -10.7 10.5 -35.8
v -10.6 10.5 -35.8
v -9.8 10.5 -35.8
v -9.7 10.5 -35.8
v -9.6 10.5 -35.8
v -10.7 10.5 -36
v -10.6 10.5 -36
v -10.4 10.5 -36
v -10 10.5 -36
v -9.8 10.5 -36
v -9.7 10.5 -36
v -10.6 10.5 -36.1
v -10.4 10.5 -36.1
v -10 10.5 -36.1
v -9.8 10.5 -36.1
v -10.4 10.5 -36.2
v -10 10.5 -36.2
v -10.4 10.8 -35.1
v -10.1 10.8 -35.1
v -10 10.8 -35.1
v -10.6 10.8 -35.2
v -10.4 10.8 -35.2
v -10.1 10.8 -35.2
v -10 10.8 -35.2
v -9.8 10.8 -35.2
v -10.5 10.8 -35.3
v -10.4 10.8 -35.3
v -10 10.8 -35.3
v -9.9 10.8 -35.3
v -9.8 10.8 -35.3
v -10.7 10.8 -35.4
v -10.6 10.8 -35.4
v -10.5 10.8 -35.4
v -9.9 10.8 -35.4
v -9.8 10.8 -35.4
v -9.7 10.8 -35.4
v -9.8 10.8 -35.5
v -10.7 10.8 -35.8
v -10.6 10.8 -35.8
v -10.5 10.8 -35.8
v -9.9 10.8 -35.8
v -9.8 10.8 -35.8
v -9.7 10.8 -35.8
v -10.5 10.8 -35.9
v -10.4 10.8 -35.9
v -10 10.8 -35.9
v -9.9 10.8 -35.9
v -10.6 10.8 -36
v -10.4 10.8 -36
v -10 10.8 -36
v -9.8 10.8 -36
v -10.4 10.8 -36.1
v -10 10.8 -36.1
v -10.4 11.1 -35.2
v -10.2 11.1 -35.2
v -10 11.1 -35.2
v -10.5 11.1 -35.3
v -10.4 11.1 -35.3
v -10.2 11.1 -35.3
v -10 11.1 -35.3
v -9.9 11.1 -35.3
v -10.6 11.1 -35.4
v -10.5 11.1 -35.4
v -10.4 11.1 -35.4
v -10 11.1 -35.4
v -9.9 11.1 -35.4
v -9.8 11.1 -35.4
v -9.9 11.1 -35.5
v -9.8 11.1 -35.5
v -10.6 11.1 -35.8
v -10.5 11.1 -35.8
v -10.4 11.1 -35.8
v -10 11.1 -35.8
v -9.9 11.1 -35.8
v -9.8 11.1 -35.8
v -10.5 11.1 -35.9
v -10.4 11.1 -35.9
v -10 11.1 -35.9
v -9.9 11.1 -35.9
v -10.4 11.1 -36
v -10 11.1 -36
v -10.4 11.3 -35.3
v -10 11.3 -35.3
v -10.5 11.3 -35.4
v -10.4 11.3 -35.4
v -10.3 11.3 -35.4
v -10.1 11.3 -35.4
v -10 11.3 -35.4
v -9.9 11.3 -35.4
v -10.4 11.3 -35.5
v -10.3 11.3 -35.5
v -10.1 11.3 -35.5
v -10 11.3 -35.5
v -10.4 11.3 -35.7
v -10.3 11.3 -35.7
v -10.1 11.3 -35.7
v -10 11.3 -35.7
v -10.5 11.3 -35.8
v -10.4 11.3 -35.8
v -10.3 11.3 -35.8
v -10.1 11.3 -35.8
v -10 11.3 -35.8
v -9.9 11.3 -35.8
v -10.4 11.3 -35.9
v -10 11.3 -35.9
v -10.3 11.4 -35.4
v -10.1 11.4 -35.4
v -10.4 11.4 -35.5
v -10.3 11.4 -35.5
v -10.1 11.4 -35.5
v -10 11.4 -35.5
v -10.4 11.4 -35.7
v -10.3 11.4 -35.7
v -10.1 11.4 -35.7
v -10 11.4 -35.7
v -10.3 11.4 -35.8
v -10.1 11.4 -35.8
v -10.3 11.6 -35.5
v -10.1 11.6 -35.5
v -10.3 11.6 -35.7
v -10.1 11.6 -35.7

# faces
f 4/2/1 2/2/1 1/2/1
f 5/1/1 3/1/1 2/1/1
f 5/2/1 2/2/1 4/2/1
f 6/1/1 3/1/1 5/1/1
f 9/4/1 8/4/1 7/4/1
f 10/4/1 8/4/1 9/4/1
f 15/1/1 14/1/1 13/1/1
f 16/1/1 14/1/1 15/1/1
f 17/2/1 12/2/1 11/2/1
f 18/2/1 12/2/1 17/2/1
f 21/2/1 16/2/1 15/2/1
f 22/2/1 16/2/1 21/2/1
f 23/2/1 19/2/1 18/2/1
f 24/1/1 20/1/1 19/1/1
f 24/2/1 19/2/1 23/2/1
f 25/1/1 20/1/1 24/1/1
f 26/2/1 21/2/1 20/2/1
f 26/1/1 20/1/1 25/1/1
f 27/1/1 25/1/1 24/1/1
f 27/1/1 24/1/1 23/1/1
f 28/2/1 26/2/1 25/2/1
f 28/1/1 25/1/1 27/1/1
f 29/1/1 27/1/1 23/1/1
f 30/2/1 28/2/1 27/2/1
f 30/1/1 27/1/1 29/1/1
f 31/2/1 21/2/1 26/2/1
f 31/2/1 28/2/1 30/2/1
f 31/2/1 26/2/1 28/2/1
f 36/4/1 33/4/1 32/4/1
f 37/4/1 33/4/1 36/4/1
f 38/4/1 35/4/1 34/4/1
f 39/4/1 35/4/1 38/4/1
f 44/2/1 43/2/1 42/2/1
f 45/2/1 41/2/1 40/2/1
f 46/2/1 41/2/1 45/2/1
f 51/2/1 43/2/1 44/2/1
f 52/2/1 43/2/1 51/2/1
f 53/2/1 48/2/1 47/2/1
f 54/2/1 48/2/1 53/2/1
f 55/1/1 54/1/1 53/1/1
f 56/1/1 54/1/1 55/1/1
f 60/2/1 50/2/1 49/2/1
f 61/2/1 50/2/1 60/2/1
f 62/2/1 59/2/1 58/2/1
f 62/1/1 58/1/1 57/1/1
f 63/2/1 59/2/1 62/2/1
f 64/1/1 62/1/1 57/1/1
f 64/1/1 63/1/1 62/1/1
f 65/1/1 63/1/1 64/1/1
f 73/4/1 67/4/1 66/4/1
f 74/3/1 68/3/1 67/3/1
f 74/4/1 67/4/1 73/4/1
f 75/3/1 68/3/1 74/3/1
f 76/4/1 70/4/1 69/4/1
f 77/4/1 70/4/1 76/4/1
f 78/4/1 72/4/1 71/4/1
f 79/4/1 72/4/1 78/4/1
f 84/2/1 81/2/1 80/2/1
f 85/2/1 81/2/1 84/2/1
f 90/2/1 83/2/1 82/2/1
f 91/2/1 83/2/1 90/2/1
f 92/2/1 87/2/1 86/2/1
f 93/2/1 87/2/1 92/2/1
f 94/1/1 93/1/1 92/1/1
f 95/1/1 93/1/1 94/1/1
f 98/2/1 89/2/1 88/2/1
f 99/2/1 89/2/1 98/2/1
f 100/2/1 98/2/1 97/2/1
f 101/2/1 98/2/1 100/2/1
f 102/2/1 98/2/1 101/2/1
f 103/1/1 102/1/1 101/1/1
f 103/2/1 98/2/1 102/2/1
f 104/2/1 98/2/1 103/2/1
f 105/1/1 96/1/1 95/1/1
f 106/1/1 96/1/1 105/1/1
f 107/1/1 103/1/1 101/1/1
f 107/1/1 104/1/1 103/1/1
f 108/1/1 104/1/1 107/1/1
f 109/1/1 107/1/1 106/1/1
f 110/1/1 107/1/1 109/1/1
f 114/4/1 112/4/1 111/4/1
f 115/4/1 112/4/1 114/4/1
f 118/4/1 114/4/1 113/4/1
f 119/4/1 114/4/1 118/4/1
f 120/3/1 117/3/1 116/3/1
f 121/3/1 117/3/1 120/3/1
f 126/2/1 123/2/1 122/2/1
f 127/2/1 126/2/1 122/2/1
f 128/2/1 126/2/1 127/2/1
f 129/1/1 128/1/1 127/1/1
f 130/1/1 128/1/1 129/1/1
f 133/2/1 125/2/1 124/2/1
f 134/2/1 125/2/1 133/2/1
f 135/2/1 133/2/1 132/2/1
f 136/2/1 133/2/1 135/2/1
f 137/1/1 136/1/1 135/1/1
f 138/1/1 131/1/1 130/1/1
f 139/1/1 131/1/1 138/1/1
f 142/1/1 136/1/1 137/1/1
f 143/1/1 136/1/1 142/1/1
f 144/1/1 140/1/1 139/1/1
f 145/1/1 140/1/1 144/1/1
f 146/1/1 142/1/1 141/1/1
f 147/1/1 142/1/1 146/1/1
f 148/1/1 146/1/1 145/1/1
f 149/1/1 146/1/1 148/1/1
f 154/4/1 151/4/1 150/4/1
f 155/4/1 151/4/1 154/4/1
f 156/3/1 153/3/1 152/3/1
f 156/4/1 151/4/1 155/4/1
f 156/3/1 152/3/1 151/3/1
f 157/3/1 153/3/1 156/3/1
f 158/3/1 153/3/1 157/3/1
f 159/3/1 155/3/1 154/3/1
f 160/3/1 155/3/1 159/3/1
f 161/4/1 156/4/1 155/4/1
f 161/3/1 155/3/1 160/3/1
f 161/4/1 157/4/1 156/4/1
f 162/4/1 157/4/1 161/4/1
f 163/4/1 157/4/1 162/4/1
f 164/4/1 161/4/1 160/4/1
f 164/4/1 162/4/1 161/4/1
f 165/4/1 162/4/1 164/4/1
f 170/1/1 167/1/1 166/1/1
f 171/1/1 170/1/1 166/1/1
f 172/1/1 170/1/1 171/1/1
f 175/1/1 169/1/1 168/1/1
f 176/1/1 169/1/1 175/1/1
f 177/1/1 175/1/1 174/1/1
f 178/1/1 175/1/1 177/1/1
f 179/1/1 173/1/1 172/1/1
f 180/1/1 179/1/1 172/1/1
f 181/1/1 179/1/1 180/1/1
f 182/2/1 178/2/1 177/2/1
f 183/2/1 178/2/1 182/2/1
f 188/1/1 185/1/1 184/1/1
f 189/1/1 185/1/1 188/1/1
f 190/1/1 187/1/1 186/1/1
f 191/1/1 187/1/1 190/1/1
f 192/1/1 190/1/1 189/1/1
f 193/1/1 190/1/1 192/1/1
f 198/3/1 195/3/1 194/3/1
f 199/3/1 195/3/1 198/3/1
f 202/4/1 197/4/1 196/4/1
f 203/4/1 197/4/1 202/4/1
f 204/4/1 200/4/1 199/4/1
f 205/4/1 200/4/1 204/4/1
f 206/4/1 202/4/1 201/4/1
f 207/4/1 202/4/1 206/4/1
f 208/4/1 206/4/1 205/4/1
f 209/4/1 206/4/1 208/4/1
f 214/2/1 213/2/1 212/2/1
f 215/2/1 213/2/1 214/2/1
f 216/1/1 211/1/1 210/1/1
f 217/1/1 211/1/1 216/1/1
f 220/1/1 215/1/1 214/1/1
f 221/1/1 215/1/1 220/1/1
f 222/1/1 218/1/1 217/1/1
f 223/1/1 218/1/1 222/1/1
f 226/1/1 220/1/1 219/1/1
f 227/1/1 220/1/1 226/1/1
f 228/2/1 224/2/1 223/2/1
f 229/2/1 224/2/1 228/2/1
f 230/1/1 229/1/1 228/1/1
f 231/1/1 229/1/1 230/1/1
f 234/1/1 226/1/1 225/1/1
f 235/1/1 226/1/1 234/1/1
f 236/1/1 232/1/1 231/1/1
f 237/1/1 232/1/1 236/1/1
f 240/1/1 234/1/1 233/1/1
f 241/1/1 234/1/1 240/1/1
f 242/1/1 239/1/1 238/1/1
f 243/1/1 239/1/1 242/1/1
f 248/4/1 247/4/1 246/4/1
f 249/4/1 247/4/1 248/4/1
f 250/3/1 245/3/1 244/3/1
f 251/3/1 245/3/1 250/3/1
f 252/4/1 251/4/1 250/4/1
f 253/4/1 251/4/1 252/4/1
f 256/3/1 249/3/1 248/3/1
f 257/3/1 249/3/1 256/3/1
f 258/3/1 256/3/1 255/3/1
f 259/3/1 256/3/1 258/3/1
f 260/4/1 254/4/1 253/4/1
f 261/4/1 254/4/1 260/4/1
f 262/4/1 259/4/1 258/4/1
f 263/4/1 259/4/1 262/4/1
f 268/1/1 265/1/1 264/1/1
f 269/1/1 265/1/1 268/1/1
f 270/1/1 267/1/1 266/1/1
f 271/1/1 267/1/1 270/1/1
f 272/1/1 270/1/1 269/1/1
f 273/1/1 270/1/1 272/1/1
f 276/4/1 275/4/1 274/4/1
f 277/4/1 275/4/1 276/4/1
f 282/4/1 279/4/1 278/4/1
f 283/4/1 279/4/1 282/4/1
f 284/4/1 281/4/1 280/4/1
f 285/4/1 281/4/1 284/4/1
f 288/4/1 287/4/1 286/4/1
f 289/4/1 287/4/1 288/4/1
f 290/4/2 291/4/2 292/4/2
f 292/4/2 291/4/2 293/4/2
f 294/4/2 295/4/2 296/4/2
f 296/4/2 295/4/2 297/4/2
f 298/4/2 299/4/2 300/4/2
f 300/4/2 299/4/2 301/4/2
f 302/3/2 303/3/2 304/3/2
f 304/3/2 303/3/2 305/3/2
f 306/4/2 307/4/2 308/4/2
f 308/4/2 307/4/2 309/4/2
f 312/4/2 313/4/2 314/4/2
f 314/4/2 313/4/2 315/4/2
f 310/3/2 311/3/2 316/3/2
f 316/3/2 311/3/2 317/3/2
f 316/4/2 317/4/2 318/4/2
f 318/4/2 317/4/2 319/4/2
f 314/3/2 315/3/2 322/3/2
f 322/3/2 315/3/2 323/3/2
f 321/3/2 322/3/2 324/3/2
f 324/3/2 322/3/2 325/3/2
f 319/4/2 320/4/2 326/4/2
f 326/4/2 320/4/2 327/4/2
f 324/4/2 325/4/2 328/4/2
f 328/4/2 325/4/2 329/4/2
f 330/1/2 331/1/2 334/1/2
f 334/1/2 331/1/2 335/1/2
f 332/1/2 333/1/2 336/1/2
f 336/1/2 333/1/2 337/1/2
f 335/1/2 336/1/2 338/1/2
f 338/1/2 336/1/2 339/1/2
f 340/3/2 341/3/2 344/3/2
f 344/3/2 341/3/2 345/3/2
f 344/4/2 345/4/2 346/4/2
f 346/4/2 345/4/2 347/4/2
f 342/4/2 343/4/2 350/4/2
f 350/4/2 343/4/2 351/4/2
f 347/4/2 348/4/2 352/4/2
f 352/4/2 348/4/2 353/4/2
f 349/4/2 350/4/2 354/4/2
f 354/4/2 350/4/2 355/4/2
f 353/4/2 354/4/2 356/4/2
f 356/4/2 354/4/2 357/4/2
f 358/1/2 359/1/2 362/1/2
f 362/1/2 359/1/2 363/1/2
f 360/1/2 361/1/2 366/1/2
f 366/1/2 361/1/2 367/1/2
f 363/2/2 364/2/2 368/2/2
f 368/2/2 364/2/2 369/2/2
f 365/1/2 366/1/2 372/1/2
f 372/1/2 366/1/2 373/1/2
f 369/2/2 370/2/2 374/2/2
f 374/2/2 370/2/2 375/2/2
f 371/1/2 372/1/2 378/1/2
f 378/1/2 372/1/2 379/1/2
f 375/1/2 376/1/2 380/1/2
f 380/1/2 376/1/2 381/1/2
f 377/1/2 378/1/2 384/1/2
f 384/1/2 378/1/2 385/1/2
f 382/1/2 383/1/2 386/1/2
f 386/1/2 383/1/2 387/1/2
f 388/3/2 389/3/2 391/3/2
f 389/4/2 390/4/2 392/4/2
f 391/3/2 389/3/2 392/3/2
f 392/4/2 390/4/2 393/4/2
f 391/4/2 392/4/2 394/4/2
f 394/4/2 392/4/2 395/4/2
f 395/4/2 392/4/2 396/4/2
f 396/4/2 392/4/2 397/4/2
f 395/4/2 396/4/2 398/4/2
f 398/4/2 396/4/2 399/4/2
f 400/1/2 401/1/2 404/1/2
f 400/1/2 404/1/2 405/1/2
f 405/1/2 404/1/2 406/1/2
f 402/1/2 403/1/2 409/1/2
f 409/1/2 403/1/2 410/1/2
f 406/2/2 407/2/2 411/2/2
f 411/2/2 407/2/2 412/2/2
f 411/1/2 412/1/2 413/1/2
f 411/1/2 413/1/2 414/1/2
f 414/1/2 413/1/2 415/1/2
f 408/1/2 409/1/2 416/1/2
f 416/1/2 409/1/2 417/1/2
f 418/2/2 419/2/2 422/2/2
f 422/2/2 419/2/2 423/2/2
f 420/1/2 421/1/2 425/1/2
f 425/1/2 421/1/2 426/1/2
f 423/1/2 424/1/2 427/1/2
f 424/1/2 425/1/2 427/1/2
f 427/1/2 425/1/2 428/1/2
f 429/4/2 430/4/2 432/4/2
f 432/4/2 430/4/2 433/4/2
f 433/4/2 430/4/2 434/4/2
f 431/4/2 432/4/2 435/4/2
f 432/4/2 433/4/2 435/4/2
f 435/4/2 433/4/2 436/4/2
f 437/2/2 438/2/2 441/2/2
f 441/2/2 438/2/2 442/2/2
f 441/1/2 442/1/2 443/1/2
f 443/1/2 442/1/2 444/1/2
f 439/1/2 440/1/2 447/1/2
f 447/1/2 440/1/2 448/1/2
f 444/1/2 445/1/2 449/1/2
f 449/1/2 445/1/2 450/1/2
f 446/1/2 447/1/2 454/1/2
f 454/1/2 447/1/2 455/1/2
f 450/2/2 451/2/2 456/2/2
f 451/1/2 452/1/2 457/1/2
f 456/2/2 451/2/2 457/2/2
f 457/1/2 452/1/2 458/1/2
f 453/1/2 454/1/2 460/1/2
f 460/1/2 454/1/2 461/1/2
f 458/2/2 459/2/2 462/2/2
f 459/1/2 460/1/2 463/1/2
f 462/2/2 459/2/2 463/2/2
f 463/1/2 460/1/2 464/1/2
f 465/4/2 466/4/2 467/4/2
f 467/4/2 466/4/2 468/4/2
f 469/2/2 470/2/2 473/2/2
f 469/2/2 473/2/2 474/2/2
f 474/2/2 473/2/2 475/2/2
f 471/1/2 472/1/2 480/1/2
f 480/1/2 472/1/2 481/1/2
f 476/2/2 477/2/2 482/2/2
f 482/2/2 477/2/2 483/2/2
f 482/1/2 483/1/2 484/1/2
f 484/1/2 483/1/2 485/1/2
f 478/1/2 479/1/2 488/1/2
f 488/1/2 479/1/2 489/1/2
f 485/1/2 486/1/2 490/1/2
f 490/1/2 486/1/2 491/1/2
f 487/1/2 488/1/2 492/1/2
f 492/1/2 488/1/2 493/1/2
f 491/1/2 492/1/2 494/1/2
f 494/1/2 492/1/2 495/1/2
f 496/4/2 497/4/2 500/4/2
f 500/4/2 497/4/2 501/4/2
f 498/4/2 499/4/2 502/4/2
f 502/4/2 499/4/2 503/4/2
f 504/1/2 505/1/2 508/1/2
f 508/1/2 505/1/2 509/1/2
f 508/2/2 509/2/2 510/2/2
f 510/2/2 509/2/2 511/2/2
f 506/1/2 507/1/2 516/1/2
f 516/1/2 507/1/2 517/1/2
f 512/2/2 513/2/2 518/2/2
f 518/2/2 513/2/2 519/2/2
f 518/1/2 519/1/2 520/1/2
f 520/1/2 519/1/2 521/1/2
f 514/1/2 515/1/2 524/1/2
f 524/1/2 515/1/2 525/1/2
f 522/1/2 523/1/2 526/1/2
f 526/1/2 523/1/2 527/1/2
f 528/1/2 529/1/2 532/1/2
f 532/1/2 529/1/2 533/1/2
f 532/2/2 533/2/2 534/2/2
f 534/2/2 533/2/2 535/2/2
f 530/1/2 531/1/2 536/1/2
f 536/1/2 531/1/2 537/1/2
f 535/1/2 536/1/2 538/1/2
f 538/1/2 536/1/2 539/1/2
f 540/1/2 541/1/2 542/1/2
f 542/1/2 541/1/2 543/1/2
f 546/1/3 545/1/3 544/1/3
f 547/1/3 545/1/3 546/1/3
f 550/2/3 549/2/3 548/2/3
f 551/2/3 549/2/3 550/2/3
f 552/1/3 551/1/3 550/1/3
f 553/2/3 549/2/3 551/2/3
f 553/1/3 551/1/3 552/1/3
f 554/2/3 549/2/3 553/2/3
f 556/1/3 555/1/3 554/1/3
f 557/1/3 555/1/3 556/1/3
f 560/2/3 557/2/3 556/2/3
f 561/1/3 555/1/3 557/1/3
f 561/2/3 557/2/3 560/2/3
f 562/1/3 555/1/3 561/1/3
f 563/1/3 559/1/3 558/1/3
f 564/2/3 560/2/3 559/2/3
f 564/1/3 559/1/3 563/1/3
f 565/2/3 564/2/3 563/2/3
f 566/2/3 560/2/3 564/2/3
f 566/2/3 564/2/3 565/2/3
f 569/2/3 568/2/3 567/2/3
f 570/2/3 568/2/3 569/2/3
f 574/2/3 572/2/3 571/2/3
f 575/1/3 573/1/3 572/1/3
f 575/2/3 572/2/3 574/2/3
f 576/1/3 573/1/3 575/1/3
f 579/1/3 578/1/3 577/1/3
f 580/1/3 578/1/3 579/1/3
f 585/2/3 582/2/3 581/2/3
f 585/2/3 583/2/3 582/2/3
f 586/1/3 584/1/3 583/1/3
f 586/2/3 583/2/3 585/2/3
f 587/1/3 584/1/3 586/1/3
f 591/1/3 589/1/3 588/1/3
f 592/2/3 590/2/3 589/2/3
f 592/1/3 589/1/3 591/1/3
f 593/2/3 590/2/3 592/2/3
f 598/2/3 597/2/3 596/2/3
f 599/2/3 597/2/3 598/2/3
f 603/2/3 601/2/3 600/2/3
f 604/1/3 602/1/3 601/1/3
f 604/2/3 601/2/3 603/2/3
f 605/1/3 602/1/3 604/1/3
f 606/1/3 602/1/3 605/1/3
f 608/4/3 595/4/3 594/4/3
f 609/4/3 595/4/3 608/4/3
f 610/1/3 607/1/3 606/1/3
f 611/1/3 607/1/3 610/1/3
f 613/1/3 612/1/3 611/1/3
f 614/1/3 612/1/3 613/1/3
f 616/2/3 614/2/3 613/2/3
f 617/2/3 614/2/3 616/2/3
f 622/1/3 616/1/3 615/1/3
f 623/1/3 616/1/3 622/1/3
f 624/2/3 621/2/3 620/2/3
f 625/1/3 622/1/3 621/1/3
f 625/2/3 621/2/3 624/2/3
f 626/1/3 622/1/3 625/1/3
f 627/4/3 619/4/3 618/4/3
f 628/4/3 619/4/3 627/4/3
f 632/1/3 630/1/3 629/1/3
f 633/2/3 631/2/3 630/2/3
f 633/1/3 630/1/3 632/1/3
f 634/2/3 631/2/3 633/2/3
f 640/2/3 636/2/3 635/2/3
f 641/1/3 637/1/3 636/1/3
f 641/2/3 636/2/3 640/2/3
f 642/1/3 637/1/3 641/1/3
f 644/4/3 639/4/3 638/4/3
f 645/4/3 639/4/3 644/4/3
f 646/1/3 643/1/3 642/1/3
f 647/1/3 643/1/3 646/1/3
f 651/1/3 648/1/3 647/1/3
f 652/1/3 648/1/3 651/1/3
f 655/1/3 654/1/3 653/1/3
f 655/2/3 653/2/3 652/2/3
f 656/1/3 654/1/3 655/1/3
f 657/2/3 655/2/3 652/2/3
f 657/2/3 656/2/3 655/2/3
f 658/4/3 650/4/3 649/4/3
f 661/2/3 656/2/3 657/2/3
f 662/2/3 656/2/3 661/2/3
f 663/4/3 659/4/3 658/4/3
f 663/4/3 658/4/3 649/4/3
f 664/4/3 659/4/3 663/4/3
f 665/4/3 659/4/3 664/4/3
f 666/4/3 659/4/3 665/4/3
f 668/2/3 661/2/3 660/2/3
f 669/2/3 661/2/3 668/2/3
f 672/1/3 668/1/3 667/1/3
f 673/1/3 668/1/3 672/1/3
f 674/2/3 671/2/3 670/2/3
f 675/1/3 672/1/3 671/1/3
f 675/2/3 671/2/3 674/2/3
f 676/1/3 672/1/3 675/1/3
f 679/2/3 678/2/3 677/2/3
f 680/2/3 678/2/3 679/2/3
f 683/2/3 681/2/3 680/2/3
f 684/1/3 682/1/3 681/1/3
f 684/2/3 681/2/3 683/2/3
f 685/1/3 682/1/3 684/1/3
f 688/4/3 687/4/3 686/4/3
f 689/4/3 687/4/3 688/4/3
f 692/3/3 689/3/3 688/3/3
f 694/1/3 691/1/3 690/1/3
f 695/1/3 691/1/3 694/1/3
f 696/1/3 691/1/3 695/1/3
f 698/3/3 693/3/3 692/3/3
f 701/1/3 697/1/3 696/1/3
f 702/3/3 692/3/3 688/3/3
f 702/3/3 698/3/3 692/3/3
f 702/3/3 699/3/3 698/3/3
f 703/3/3 699/3/3 702/3/3
f 704/3/3 699/3/3 703/3/3
f 705/3/3 699/3/3 704/3/3
f 706/4/3 700/4/3 699/4/3
f 706/3/3 699/3/3 705/3/3
f 707/4/3 700/4/3 706/4/3
f 708/4/3 703/4/3 702/4/3
f 709/3/3 704/3/3 703/3/3
f 709/4/3 703/4/3 708/4/3
f 710/4/3 705/4/3 704/4/3
f 710/3/3 704/3/3 709/3/3
f 711/4/3 705/4/3 710/4/3
f 713/1/3 697/1/3 701/1/3
f 714/1/3 697/1/3 713/1/3
f 715/2/3 713/2/3 712/2/3
f 716/2/3 713/2/3 715/2/3
f 722/1/3 718/1/3 717/1/3
f 722/1/3 719/1/3 718/1/3
f 723/1/3 719/1/3 722/1/3
f 724/1/3 721/1/3 720/1/3
f 724/1/3 722/1/3 721/1/3
f 725/1/3 722/1/3 724/1/3
f 728/1/3 727/1/3 726/1/3
f 729/1/3 727/1/3 728/1/3
f 731/1/3 730/1/3 729/1/3
f 732/1/3 730/1/3 731/1/3
f 736/1/3 733/1/3 732/1/3
f 737/1/3 733/1/3 736/1/3
f 739/3/3 735/3/3 734/3/3
f 740/3/3 735/3/3 739/3/3
f 742/1/3 738/1/3 737/1/3
f 743/1/3 738/1/3 742/1/3
f 744/4/3 741/4/3 740/4/3
f 745/4/3 741/4/3 744/4/3
f 746/4/3 741/4/3 745/4/3
f 752/4/3 747/4/3 746/4/3
f 753/4/3 747/4/3 752/4/3
f 754/1/3 749/1/3 748/1/3
f 755/1/3 749/1/3 754/1/3
f 758/4/3 751/4/3 750/4/3
f 758/4/3 752/4/3 751/4/3
f 759/4/3 752/4/3 758/4/3
f 762/4/3 757/4/3 756/4/3
f 762/4/3 758/4/3 757/4/3
f 763/4/3 758/4/3 762/4/3
f 765/1/3 761/1/3 760/1/3
f 766/1/3 761/1/3 765/1/3
f 768/2/3 765/2/3 764/2/3
f 769/2/3 765/2/3 768/2/3
f 771/1/3 768/1/3 767/1/3
f 772/1/3 768/1/3 771/1/3
f 773/1/3 771/1/3 770/1/3
f 774/1/3 771/1/3 773/1/3
f 777/4/3 776/4/3 775/4/3
f 778/4/3 776/4/3 777/4/3
f 782/4/3 779/4/3 778/4/3
f 783/4/3 779/4/3 782/4/3
f 784/1/3 781/1/3 780/1/3
f 785/1/3 781/1/3 784/1/3
f 790/1/3 786/1/3 785/1/3
f 791/1/3 786/1/3 790/1/3
f 793/4/3 788/4/3 787/4/3
f 794/4/3 788/4/3 793/4/3
f 795/1/3 790/1/3 789/1/3
f 796/1/3 790/1/3 795/1/3
f 797/4/3 793/4/3 792/4/3
f 798/4/3 793/4/3 797/4/3
f 801/4/3 800/4/3 799/4/3
f 802/4/3 800/4/3 801/4/3
f 805/4/3 804/4/3 803/4/3
f 806/4/3 804/4/3 805/4/3
f 809/3/3 808/3/3 807/3/3
f 810/3/3 808/3/3 809/3/3
f 813/4/3 812/4/3 811/4/3
f 814/4/3 812/4/3 813/4/3
f 817/4/3 816/4/3 815/4/3
f 818/4/3 816/4/3 817/4/3
f 819/4/4 820/4/4 821/4/4
f 821/4/4 820/4/4 822/4/4
f 823/4/4 824/4/4 825/4/4
f 825/4/4 824/4/4 826/4/4
f 827/4/4 828/4/4 829/4/4
f 829/4/4 828/4/4 830/4/4
f 831/4/4 832/4/4 833/4/4
f 833/4/4 832/4/4 834/4/4
f 834/4/4 835/4/4 836/4/4
f 836/4/4 835/4/4 837/4/4
f 838/4/4 839/4/4 840/4/4
f 840/4/4 839/4/4 841/4/4
f 842/4/4 843/4/4 844/4/4
f 844/4/4 843/4/4 845/4/4
f 845/4/4 846/4/4 849/4/4
f 849/4/4 846/4/4 850/4/4
f 850/4/4 846/4/4 851/4/4
f 847/1/4 848/1/4 852/1/4
f 852/1/4 848/1/4 853/1/4
f 853/1/4 854/1/4 859/1/4
f 859/1/4 854/1/4 860/1/4
f 856/4/4 857/4/4 862/4/4
f 855/4/4 856/4/4 862/4/4
f 862/4/4 857/4/4 863/4/4
f 858/1/4 859/1/4 864/1/4
f 864/1/4 859/1/4 865/1/4
f 861/4/4 862/4/4 866/4/4
f 866/4/4 862/4/4 867/4/4
f 868/2/4 869/2/4 871/2/4
f 869/1/4 870/1/4 872/1/4
f 871/2/4 869/2/4 872/2/4
f 872/1/4 870/1/4 873/1/4
f 873/1/4 870/1/4 874/1/4
f 874/1/4 875/1/4 876/1/4
f 876/1/4 875/1/4 877/1/4
f 877/1/4 878/1/4 881/1/4
f 881/1/4 878/1/4 882/1/4
f 879/4/4 880/4/4 884/4/4
f 884/4/4 880/4/4 885/4/4
f 882/1/4 883/1/4 887/1/4
f 887/1/4 883/1/4 888/1/4
f 885/4/4 886/4/4 889/4/4
f 889/4/4 886/4/4 890/4/4
f 890/4/4 886/4/4 891/4/4
f 891/3/4 892/3/4 898/3/4
f 892/4/4 893/4/4 899/4/4
f 898/3/4 892/3/4 899/3/4
f 899/4/4 893/4/4 900/4/4
f 894/1/4 895/1/4 901/1/4
f 901/1/4 895/1/4 902/1/4
f 897/4/4 898/4/4 904/4/4
f 896/4/4 897/4/4 904/4/4
f 904/4/4 898/4/4 905/4/4
f 903/4/4 904/4/4 908/4/4
f 908/4/4 904/4/4 909/4/4
f 906/1/4 907/1/4 911/1/4
f 911/1/4 907/1/4 912/1/4
f 910/1/4 911/1/4 914/1/4
f 914/1/4 911/1/4 915/1/4
f 913/1/4 914/1/4 917/1/4
f 917/1/4 914/1/4 918/1/4
f 916/1/4 917/1/4 919/1/4
f 919/1/4 917/1/4 920/1/4
f 921/1/4 922/1/4 923/1/4
f 923/1/4 922/1/4 924/1/4
f 924/1/4 922/1/4 925/1/4
f 925/2/4 926/2/4 927/2/4
f 927/2/4 926/2/4 928/2/4
f 929/1/4 930/1/4 934/1/4
f 934/1/4 930/1/4 935/1/4
f 931/3/4 932/3/4 937/3/4
f 932/4/4 933/4/4 938/4/4
f 937/3/4 932/3/4 938/3/4
f 938/4/4 933/4/4 939/4/4
f 937/4/4 938/4/4 942/4/4
f 938/4/4 939/4/4 942/4/4
f 939/4/4 940/4/4 942/4/4
f 940/3/4 941/3/4 943/3/4
f 942/4/4 940/4/4 943/4/4
f 943/3/4 941/3/4 944/3/4
f 937/4/4 942/4/4 945/4/4
f 945/4/4 942/4/4 946/4/4
f 935/1/4 936/1/4 948/1/4
f 948/1/4 936/1/4 949/1/4
f 937/4/4 945/4/4 950/4/4
f 950/4/4 945/4/4 951/4/4
f 947/1/4 948/1/4 952/1/4
f 952/1/4 948/1/4 953/1/4
f 954/1/4 955/1/4 957/1/4
f 957/1/4 955/1/4 958/1/4
f 956/1/4 957/1/4 959/1/4
f 959/1/4 957/1/4 960/1/4
f 961/2/4 962/2/4 963/2/4
f 963/2/4 962/2/4 964/2/4
f 964/2/4 965/2/4 969/2/4
f 969/2/4 965/2/4 970/2/4
f 965/1/4 966/1/4 971/1/4
f 970/2/4 965/2/4 971/2/4
f 971/1/4 966/1/4 972/1/4
f 967/3/4 968/3/4 974/3/4
f 974/3/4 968/3/4 975/3/4
f 972/1/4 973/1/4 976/1/4
f 976/1/4 973/1/4 977/1/4
f 977/1/4 978/1/4 982/1/4
f 982/1/4 978/1/4 983/1/4
f 979/4/4 980/4/4 984/4/4
f 984/4/4 980/4/4 985/4/4
f 981/1/4 982/1/4 987/1/4
f 987/1/4 982/1/4 988/1/4
f 986/1/4 987/1/4 990/1/4
f 990/1/4 987/1/4 991/1/4
f 989/1/4 990/1/4 992/1/4
f 992/1/4 990/1/4 993/1/4
f 994/1/4 995/1/4 999/1/4
f 995/2/4 996/2/4 1000/2/4
f 999/1/4 995/1/4 1000/1/4
f 1000/2/4 996/2/4 1001/2/4
f 997/4/4 998/4/4 1002/4/4
f 1002/4/4 998/4/4 1003/4/4
f 1004/2/4 1005/2/4 1006/2/4
f 1006/2/4 1005/2/4 1007/2/4
f 1007/2/4 1008/2/4 1012/2/4
f 1008/1/4 1009/1/4 1013/1/4
f 1012/2/4 1008/2/4 1013/2/4
f 1013/1/4 1009/1/4 1014/1/4
f 1010/4/4 1011/4/4 1016/4/4
f 1016/4/4 1011/4/4 1017/4/4
f 1014/1/4 1015/1/4 1019/1/4
f 1019/1/4 1015/1/4 1020/1/4
f 1021/4/4 1022/4/4 1023/4/4
f 1023/4/4 1022/4/4 1024/4/4
f 1018/1/4 1019/1/4 1026/1/4
f 1026/1/4 1019/1/4 1027/1/4
f 1025/1/4 1026/1/4 1028/1/4
f 1028/1/4 1026/1/4 1029/1/4
f 1030/1/4 1031/1/4 1032/1/4
f 1032/1/4 1031/1/4 1033/1/4
f 1034/2/4 1035/2/4 1038/2/4
f 1038/2/4 1035/2/4 1039/2/4
f 1036/4/4 1037/4/4 1042/4/4
f 1042/4/4 1037/4/4 1043/4/4
f 1040/2/4 1041/2/4 1044/2/4
f 1044/2/4 1041/2/4 1045/2/4
f 1045/2/4 1041/2/4 1046/2/4
f 1047/2/4 1048/2/4 1050/2/4
f 1048/1/4 1049/1/4 1051/1/4
f 1050/2/4 1048/2/4 1051/2/4
f 1050/1/4 1051/1/4 1052/1/4
f 1051/1/4 1049/1/4 1053/1/4
f 1052/1/4 1051/1/4 1053/1/4
f 1054/1/4 1055/1/4 1058/1/4
f 1058/1/4 1055/1/4 1059/1/4
f 1056/4/4 1057/4/4 1062/4/4
f 1062/4/4 1057/4/4 1063/4/4
f 1060/1/4 1061/1/4 1064/1/4
f 1064/1/4 1061/1/4 1065/1/4
f 1066/2/4 1067/2/4 1068/2/4
f 1068/2/4 1067/2/4 1069/2/4
f 1068/1/4 1069/1/4 1070/1/4
f 1070/1/4 1069/1/4 1071/1/4
f 1072/2/4 1073/2/4 1074/2/4
f 1071/1/4 1072/1/4 1074/1/4
f 1074/2/4 1073/2/4 1075/2/4
f 1071/1/4 1074/1/4 1077/1/4
f 1074/1/4 1075/1/4 1077/1/4
f 1077/1/4 1075/1/4 1078/1/4
f 1076/1/4 1077/1/4 1079/1/4
f 1079/1/4 1077/1/4 1080/1/4
f 1081/1/4 1082/1/4 1083/1/4
f 1083/1/4 1082/1/4 1084/1/4
f 1089/4/5 1086/4/5 1085/4/5
f 1090/4/5 1086/4/5 1089/4/5
f 1091/4/5 1086/4/5 1090/4/5
f 1092/4/5 1088/4/5 1087/4/5
f 1093/4/5 1091/4/5 1090/4/5
f 1093/4/5 1092/4/5 1091/4/5
f 1093/4/5 1088/4/5 1092/4/5
f 1094/4/5 1088/4/5 1093/4/5
f 1095/4/5 1093/4/5 1090/4/5
f 1096/4/5 1093/4/5 1095/4/5
f 1097/4/5 1093/4/5 1096/4/5
f 1098/4/5 1093/4/5 1097/4/5
f 1099/4/5 1097/4/5 1096/4/5
f 1099/3/5 1098/3/5 1097/3/5
f 1100/4/5 1093/4/5 1098/4/5
f 1100/3/5 1098/3/5 1099/3/5
f 1102/4/5 1099/4/5 1096/4/5
f 1102/4/5 1100/4/5 1099/4/5
f 1103/4/5 1100/4/5 1102/4/5
f 1104/4/5 1093/4/5 1100/4/5
f 1104/4/5 1100/4/5 1103/4/5
f 1106/4/5 1102/4/5 1101/4/5
f 1107/3/5 1103/3/5 1102/3/5
f 1107/4/5 1102/4/5 1106/4/5
f 1109/3/5 1107/3/5 1106/3/5
f 1110/4/5 1105/4/5 1104/4/5
f 1110/4/5 1104/4/5 1103/4/5
f 1110/3/5 1107/3/5 1109/3/5
f 1110/3/5 1103/3/5 1107/3/5
f 1111/4/5 1105/4/5 1110/4/5
f 1112/4/5 1105/4/5 1111/4/5
f 1113/4/5 1105/4/5 1112/4/5
f 1115/4/5 1109/4/5 1108/4/5
f 1115/4/5 1110/4/5 1109/4/5
f 1115/4/5 1111/4/5 1110/4/5
f 1116/4/5 1111/4/5 1115/4/5
f 1117/4/5 1111/4/5 1116/4/5
f 1118/4/5 1111/4/5 1117/4/5
f 1119/4/5 1114/4/5 1113/4/5
f 1119/4/5 1113/4/5 1112/4/5
f 1120/4/5 1114/4/5 1119/4/5
f 1121/4/5 1117/4/5 1116/4/5
f 1122/4/5 1117/4/5 1121/4/5
f 1123/4/5 1114/4/5 1120/4/5
f 1124/4/5 1114/4/5 1123/4/5
f 1129/1/5 1126/1/5 1125/1/5
f 1130/1/5 1126/1/5 1129/1/5
f 1134/2/5 1128/2/5 1127/2/5
f 1135/1/5 1129/1/5 1128/1/5
f 1135/1/5 1130/1/5 1129/1/5
f 1135/2/5 1128/2/5 1134/2/5
f 1135/1/5 1131/1/5 1130/1/5
f 1136/2/5 1132/2/5 1131/2/5
f 1136/1/5 1131/1/5 1135/1/5
f 1137/2/5 1132/2/5 1136/2/5
f 1140/2/5 1134/2/5 1133/2/5
f 1141/1/5 1135/1/5 1134/1/5
f 1141/1/5 1138/1/5 1137/1/5
f 1141/2/5 1134/2/5 1140/2/5
f 1141/1/5 1136/1/5 1135/1/5
f 1141/1/5 1137/1/5 1136/1/5
f 1142/1/5 1138/1/5 1141/1/5
f 1145/2/5 1140/2/5 1139/2/5
f 1146/1/5 1143/1/5 1142/1/5
f 1146/1/5 1141/1/5 1140/1/5
f 1146/2/5 1140/2/5 1145/2/5
f 1146/1/5 1142/1/5 1141/1/5
f 1147/1/5 1143/1/5 1146/1/5
f 1149/2/5 1145/2/5 1144/2/5
f 1150/1/5 1148/1/5 1147/1/5
f 1150/2/5 1145/2/5 1149/2/5
f 1150/1/5 1146/1/5 1145/1/5
f 1150/1/5 1147/1/5 1146/1/5
f 1151/1/5 1148/1/5 1150/1/5
f 1152/1/5 1148/1/5 1151/1/5
f 1153/1/5 1150/1/5 1149/1/5
f 1153/1/5 1151/1/5 1150/1/5
f 1154/1/5 1151/1/5 1153/1/5
f 1155/1/5 1148/1/5 1152/1/5
f 1156/1/5 1148/1/5 1155/1/5
f 1157/1/5 1153/1/5 1149/1/5
f 1160/1/5 1148/1/5 1156/1/5
f 1161/1/5 1158/1/5 1157/1/5
f 1162/1/5 1160/1/5 1159/1/5
f 1163/1/5 1161/1/5 1157/1/5
f 1163/1/5 1162/1/5 1161/1/5
f 1163/1/5 1157/1/5 1149/1/5
f 1164/1/5 1162/1/5 1163/1/5
f 1165/1/5 1160/1/5 1162/1/5
f 1165/1/5 1162/1/5 1164/1/5
f 1165/1/5 1148/1/5 1160/1/5
f 1166/1/5 1148/1/5 1165/1/5
f 1167/1/5 1165/1/5 1164/1/5
f 1168/1/5 1165/1/5 1167/1/5
f 1169/1/5 1167/1/5 1164/1/5
f 1170/2/5 1168/2/5 1167/2/5
f 1170/1/5 1167/1/5 1169/1/5
f 1171/1/5 1165/1/5 1168/1/5
f 1171/2/5 1168/2/5 1170/2/5
f 1172/1/5 1165/1/5 1171/1/5
f 1173/1/5 1165/1/5 1172/1/5
f 1174/1/5 1165/1/5 1173/1/5
f 1175/2/5 1171/2/5 1170/2/5
f 1175/2/5 1172/2/5 1171/2/5
f 1176/2/5 1172/2/5 1175/2/5
f 1177/1/5 1173/1/5 1172/1/5
f 1178/1/5 1173/1/5 1177/1/5
f 1179/2/5 1172/2/5 1176/2/5
f 1180/1/5 1177/1/5 1172/1/5
f 1180/2/5 1172/2/5 1179/2/5
f 1181/1/5 1177/1/5 1180/1/5
f 1182/1/5 1177/1/5 1181/1/5
f 1183/1/5 1177/1/5 1182/1/5
f 1184/1/5 1182/1/5 1181/1/5
f 1185/1/5 1182/1/5 1184/1/5
f 1186/4/6 1187/4/6 1190/4/6
f 1190/4/6 1187/4/6 1191/4/6
f 1191/4/6 1187/4/6 1192/4/6
f 1192/4/6 1187/4/6 1193/4/6
f 1193/4/6 1187/4/6 1194/4/6
f 1188/4/6 1189/4/6 1196/4/6
f 1196/4/6 1189/4/6 1197/4/6
f 1191/4/6 1192/4/6 1198/4/6
f 1194/4/6 1195/4/6 1199/4/6
f 1193/4/6 1194/4/6 1199/4/6
f 1199/4/6 1195/4/6 1200/4/6
f 1200/4/6 1195/4/6 1201/4/6
f 1201/4/6 1195/4/6 1202/4/6
f 1197/4/6 1189/4/6 1203/4/6
f 1203/4/6 1189/4/6 1204/4/6
f 1191/4/6 1198/4/6 1205/4/6
f 1198/4/6 1199/4/6 1205/4/6
f 1205/4/6 1199/4/6 1206/4/6
f 1206/4/6 1207/4/6 1210/4/6
f 1206/4/6 1210/4/6 1212/4/6
f 1212/4/6 1210/4/6 1213/4/6
f 1208/4/6 1209/4/6 1214/4/6
f 1214/4/6 1209/4/6 1215/4/6
f 1211/4/6 1212/4/6 1217/4/6
f 1212/3/6 1213/3/6 1218/3/6
f 1217/4/6 1212/4/6 1218/4/6
f 1218/3/6 1213/3/6 1219/3/6
f 1215/4/6 1216/4/6 1222/4/6
f 1214/4/6 1215/4/6 1222/4/6
f 1217/3/6 1218/3/6 1224/3/6
f 1224/3/6 1218/3/6 1225/3/6
f 1220/4/6 1221/4/6 1226/4/6
f 1221/4/6 1222/4/6 1226/4/6
f 1226/4/6 1222/4/6 1227/4/6
f 1222/4/6 1216/4/6 1228/4/6
f 1227/4/6 1222/4/6 1228/4/6
f 1228/4/6 1216/4/6 1229/4/6
f 1224/4/6 1225/4/6 1231/4/6
f 1223/4/6 1224/4/6 1231/4/6
f 1226/4/6 1227/4/6 1231/4/6
f 1225/4/6 1226/4/6 1231/4/6
f 1231/4/6 1227/4/6 1232/4/6
f 1232/4/6 1227/4/6 1233/4/6
f 1233/4/6 1227/4/6 1234/4/6
f 1229/4/6 1230/4/6 1235/4/6
f 1228/4/6 1229/4/6 1235/4/6
f 1235/4/6 1230/4/6 1236/4/6
f 1232/4/6 1233/4/6 1237/4/6
f 1237/4/6 1233/4/6 1238/4/6
f 1236/4/6 1230/4/6 1239/4/6
f 1239/4/6 1230/4/6 1240/4/6
f 1241/4/6 1242/4/6 1245/4/6
f 1245/4/6 1242/4/6 1246/4/6
f 1243/4/6 1244/4/6 1249/4/6
f 1246/4/6 1247/4/6 1250/4/6
f 1247/3/6 1248/3/6 1251/3/6
f 1250/4/6 1247/4/6 1251/4/6
f 1251/3/6 1248/3/6 1252/3/6
f 1249/4/6 1244/4/6 1253/4/6
f 1253/4/6 1244/4/6 1254/4/6
f 1254/4/6 1244/4/6 1255/4/6
f 1256/3/6 1257/3/6 1261/3/6
f 1261/3/6 1257/3/6 1262/3/6
f 1258/4/6 1259/4/6 1263/4/6
f 1263/4/6 1259/4/6 1264/4/6
f 1261/3/6 1262/3/6 1265/3/6
f 1260/3/6 1261/3/6 1265/3/6
f 1265/3/6 1262/3/6 1266/3/6
f 1267/3/6 1268/3/6 1272/3/6
f 1272/3/6 1268/3/6 1273/3/6
f 1269/4/6 1270/4/6 1274/4/6
f 1274/4/6 1270/4/6 1275/4/6
f 1271/3/6 1272/3/6 1277/3/6
f 1277/3/6 1272/3/6 1278/3/6
f 1275/4/6 1276/4/6 1279/4/6
f 1279/4/6 1276/4/6 1280/4/6
f 1281/4/6 1282/4/6 1285/4/6
f 1285/4/6 1282/4/6 1286/4/6
f 1283/4/6 1284/4/6 1289/4/6
f 1289/4/6 1284/4/6 1290/4/6
f 1286/4/6 1287/4/6 1291/4/6
f 1291/4/6 1287/4/6 1292/4/6
f 1288/4/6 1289/4/6 1293/4/6
f 1293/4/6 1289/4/6 1294/4/6
f 1295/4/6 1296/4/6 1298/4/6
f 1298/4/6 1296/4/6 1299/4/6
f 1297/4/6 1298/4/6 1302/4/6
f 1302/4/6 1298/4/6 1303/4/6
f 1299/4/6 1300/4/6 1304/4/6
f 1304/4/6 1300/4/6 1305/4/6
f 1301/4/6 1302/4/6 1307/4/6
f 1307/4/6 1302/4/6 1308/4/6
f 1305/4/6 1306/4/6 1311/4/6
f 1311/4/6 1306/4/6 1312/4/6
f 1308/4/6 1309/4/6 1313/4/6
f 1313/4/6 1309/4/6 1314/4/6
f 1310/4/6 1311/4/6 1315/4/6
f 1315/4/6 1311/4/6 1316/4/6
f 1314/3/6 1315/3/6 1317/3/6
f 1317/3/6 1315/3/6 1318/3/6
f 1319/1/6 1320/1/6 1322/1/6
f 1322/1/6 1320/1/6 1323/1/6
f 1323/1/6 1320/1/6 1324/1/6
f 1321/2/6 1322/2/6 1327/2/6
f 1327/2/6 1322/2/6 1328/2/6
f 1328/2/6 1322/2/6 1329/2/6
f 1324/2/6 1325/2/6 1330/2/6
f 1330/2/6 1325/2/6 1331/2/6
f 1331/2/6 1325/2/6 1332/2/6
f 1326/2/6 1327/2/6 1335/2/6
f 1327/2/6 1328/2/6 1335/2/6
f 1335/2/6 1328/2/6 1336/2/6
f 1336/2/6 1328/2/6 1337/2/6
f 1332/2/6 1333/2/6 1338/2/6
f 1331/2/6 1332/2/6 1338/2/6
f 1338/2/6 1333/2/6 1339/2/6
f 1339/2/6 1333/2/6 1340/2/6
f 1335/2/6 1336/2/6 1342/2/6
f 1334/2/6 1335/2/6 1342/2/6
f 1342/2/6 1336/2/6 1343/2/6
f 1340/2/6 1341/2/6 1344/2/6
f 1339/2/6 1340/2/6 1344/2/6
f 1344/2/6 1341/2/6 1345/2/6
f 1334/2/6 1342/2/6 1347/2/6
f 1347/2/6 1342/2/6 1348/2/6
f 1345/2/6 1341/2/6 1349/2/6
f 1349/2/6 1341/2/6 1350/2/6
f 1346/2/6 1347/2/6 1352/2/6
f 1352/2/6 1347/2/6 1353/2/6
f 1352/1/6 1353/1/6 1354/1/6
f 1352/1/6 1354/1/6 1355/1/6
f 1355/1/6 1354/1/6 1356/1/6
f 1350/1/6 1351/1/6 1359/1/6
f 1359/1/6 1351/1/6 1360/1/6
f 1356/2/6 1357/2/6 1361/2/6
f 1358/1/6 1359/1/6 1364/1/6
f 1361/2/6 1362/2/6 1365/2/6
f 1356/2/6 1361/2/6 1365/2/6
f 1365/2/6 1362/2/6 1366/2/6
f 1366/2/6 1362/2/6 1367/2/6
f 1363/1/6 1364/1/6 1370/1/6
f 1364/1/6 1359/1/6 1371/1/6
f 1370/1/6 1364/1/6 1371/1/6
f 1371/1/6 1359/1/6 1372/1/6
f 1367/2/6 1368/2/6 1373/2/6
f 1366/2/6 1367/2/6 1373/2/6
f 1373/2/6 1368/2/6 1374/2/6
f 1374/2/6 1368/2/6 1375/2/6
f 1369/1/6 1370/1/6 1378/1/6
f 1370/1/6 1371/1/6 1378/1/6
f 1378/1/6 1371/1/6 1379/1/6
f 1379/1/6 1371/1/6 1380/1/6
f 1374/2/6 1375/2/6 1381/2/6
f 1375/1/6 1376/1/6 1382/1/6
f 1381/2/6 1375/2/6 1382/2/6
f 1382/1/6 1376/1/6 1383/1/6
f 1378/1/6 1379/1/6 1384/1/6
f 1377/1/6 1378/1/6 1384/1/6
f 1384/1/6 1379/1/6 1385/1/6
f 1383/1/6 1384/1/6 1386/1/6
f 1386/1/6 1384/1/6 1387/1/6
f 1388/1/6 1389/1/6 1391/1/6
f 1391/1/6 1389/1/6 1392/1/6
f 1392/1/6 1389/1/6 1393/1/6
f 1393/1/6 1389/1/6 1394/1/6
f 1390/1/6 1391/1/6 1397/1/6
f 1391/1/6 1392/1/6 1397/1/6
f 1397/1/6 1392/1/6 1398/1/6
f 1393/1/6 1394/1/6 1399/1/6
f 1394/1/6 1395/1/6 1399/1/6
f 1399/1/6 1395/1/6 1400/1/6
f 1396/1/6 1397/1/6 1403/1/6
f 1403/1/6 1397/1/6 1404/1/6
f 1400/1/6 1401/1/6 1405/1/6
f 1405/1/6 1401/1/6 1406/1/6
f 1402/1/6 1403/1/6 1409/1/6
f 1406/1/6 1407/1/6 1410/1/6
f 1408/1/6 1409/1/6 1412/1/6
f 1409/1/6 1403/1/6 1412/1/6
f 1412/1/6 1403/1/6 1413/1/6
f 1410/1/6 1411/1/6 1414/1/6
f 1406/1/6 1410/1/6 1414/1/6
f 1414/1/6 1411/1/6 1415/1/6
f 1408/1/6 1412/1/6 1416/1/6
f 1416/1/6 1412/1/6 1417/1/6
f 1416/2/6 1417/2/6 1418/2/6
f 1415/1/6 1411/1/6 1421/1/6
f 1418/2/6 1419/2/6 1422/2/6
f 1416/2/6 1418/2/6 1422/2/6
f 1422/2/6 1419/2/6 1423/2/6
f 1420/1/6 1421/1/6 1424/1/6
f 1421/1/6 1411/1/6 1424/1/6
f 1424/1/6 1411/1/6 1425/1/6
f 1423/2/6 1419/2/6 1426/2/6
f 1426/2/6 1419/2/6 1427/2/6
f 1420/1/6 1424/1/6 1430/1/6
f 1430/1/6 1424/1/6 1431/1/6
f 1427/2/6 1428/2/6 1432/2/6
f 1432/2/6 1428/2/6 1433/2/6
f 1429/1/6 1430/1/6 1436/1/6
f 1436/1/6 1430/1/6 1437/1/6
f 1433/2/6 1434/2/6 1438/2/6
f 1438/2/6 1434/2/6 1439/2/6
f 1439/2/6 1434/2/6 1440/2/6
f 1435/1/6 1436/1/6 1442/1/6
f 1442/1/6 1436/1/6 1443/1/6
f 1443/1/6 1436/1/6 1444/1/6
f 1439/2/6 1440/2/6 1445/2/6
f 1440/1/6 1441/1/6 1446/1/6
f 1445/2/6 1440/2/6 1446/2/6
f 1442/1/6 1443/1/6 1446/1/6
f 1441/1/6 1442/1/6 1446/1/6
f 1446/1/6 1443/1/6 1447/1/6
f 1448/1/6 1449/1/6 1451/1/6
f 1451/1/6 1449/1/6 1452/1/6
f 1452/1/6 1449/1/6 1453/1/6
f 1450/1/6 1451/1/6 1456/1/6
f 1456/1/6 1451/1/6 1457/1/6
f 1453/1/6 1454/1/6 1458/1/6
f 1458/1/6 1454/1/6 1459/1/6
f 1459/1/6 1460/1/6 1461/1/6
f 1455/1/6 1456/1/6 1463/1/6
f 1463/1/6 1456/1/6 1464/1/6
f 1461/1/6 1460/1/6 1465/1/6
f 1465/1/6 1460/1/6 1466/1/6
f 1462/1/6 1463/1/6 1468/1/6
f 1468/1/6 1463/1/6 1469/1/6
f 1466/1/6 1467/1/6 1472/1/6
f 1472/1/6 1467/1/6 1473/1/6
f 1469/1/6 1470/1/6 1474/1/6
f 1474/1/6 1470/1/6 1475/1/6
f 1471/1/6 1472/1/6 1478/1/6
f 1478/1/6 1472/1/6 1479/1/6
f 1475/1/6 1476/1/6 1480/1/6
f 1480/1/6 1476/1/6 1481/1/6
f 1477/1/6 1478/1/6 1482/1/6
f 1482/1/6 1478/1/6 1483/1/6
f 1481/1/6 1482/1/6 1484/1/6
f 1484/1/6 1482/1/6 1485/1/6
f 1486/1/6 1487/1/6 1490/1/6
f 1487/2/6 1488/2/6 1491/2/6
f 1490/1/6 1487/1/6 1491/1/6
f 1491/2/6 1488/2/6 1492/2/6
f 1489/1/6 1490/1/6 1494/1/6
f 1494/1/6 1490/1/6 1495/1/6
f 1492/2/6 1493/2/6 1496/2/6
f 1496/2/6 1493/2/6 1497/2/6
f 1497/2/6 1493/2/6 1498/2/6
f 1489/1/6 1494/1/6 1500/1/6
f 1500/1/6 1494/1/6 1501/1/6
f 1497/1/6 1498/1/6 1502/1/6
f 1502/1/6 1498/1/6 1503/1/6
f 1503/1/6 1504/1/6 1505/1/6
f 1499/1/6 1500/1/6 1506/1/6
f 1506/1/6 1500/1/6 1507/1/6
f 1505/1/6 1504/1/6 1510/1/6
f 1510/1/6 1504/1/6 1511/1/6
f 1507/1/6 1508/1/6 1512/1/6
f 1509/1/6 1510/1/6 1515/1/6
f 1512/1/6 1513/1/6 1516/1/6
f 1507/1/6 1512/1/6 1516/1/6
f 1516/1/6 1513/1/6 1517/1/6
f 1514/1/6 1515/1/6 1518/1/6
f 1515/1/6 1510/1/6 1519/1/6
f 1518/1/6 1515/1/6 1519/1/6
f 1517/1/6 1518/1/6 1520/1/6
f 1520/1/6 1518/1/6 1521/1/6
f 1522/1/6 1523/1/6 1526/1/6
f 1523/2/6 1524/2/6 1527/2/6
f 1526/1/6 1523/1/6 1527/1/6
f 1527/2/6 1524/2/6 1528/2/6
f 1525/1/6 1526/1/6 1531/1/6
f 1531/1/6 1526/1/6 1532/1/6
f 1528/2/6 1529/2/6 1533/2/6
f 1533/2/6 1529/2/6 1534/2/6
f 1534/2/6 1535/2/6 1536/2/6
f 1536/2/6 1535/2/6 1537/2/6
f 1530/1/6 1531/1/6 1538/1/6
f 1538/1/6 1531/1/6 1539/1/6
f 1536/1/6 1537/1/6 1542/1/6
f 1542/1/6 1537/1/6 1543/1/6
f 1539/1/6 1540/1/6 1544/1/6
f 1544/1/6 1540/1/6 1545/1/6
f 1541/1/6 1542/1/6 1546/1/6
f 1546/1/6 1542/1/6 1547/1/6
f 1545/1/6 1546/1/6 1548/1/6
f 1548/1/6 1546/1/6 1549/1/6
f 1550/1/6 1551/1/6 1553/1/6
f 1553/1/6 1551/1/6 1554/1/6
f 1554/1/6 1551/1/6 1555/1/6
f 1555/1/6 1551/1/6 1556/1/6
f 1552/1/6 1553/1/6 1558/1/6
f 1553/1/6 1554/1/6 1558/1/6
f 1558/1/6 1554/1/6 1559/1/6
f 1556/1/6 1557/1/6 1560/1/6
f 1555/1/6 1556/1/6 1560/1/6
f 1560/1/6 1557/1/6 1561/1/6
f 1552/1/6 1558/1/6 1562/1/6
f 1561/1/6 1557/1/6 1565/1/6
f 1562/1/6 1563/1/6 1566/1/6
f 1552/1/6 1562/1/6 1566/1/6
f 1566/1/6 1563/1/6 1567/1/6
f 1567/1/6 1563/1/6 1568/1/6
f 1564/1/6 1565/1/6 1569/1/6
f 1565/1/6 1557/1/6 1570/1/6
f 1569/1/6 1565/1/6 1570/1/6
f 1570/1/6 1557/1/6 1571/1/6
f 1567/1/6 1568/1/6 1572/1/6
f 1568/1/6 1569/1/6 1572/1/6
f 1569/1/6 1570/1/6 1572/1/6
f 1572/1/6 1570/1/6 1573/1/6
f 1574/1/6 1575/1/6 1577/1/6
f 1577/1/6 1575/1/6 1578/1/6
f 1576/1/6 1577/1/6 1580/1/6
f 1580/1/6 1577/1/6 1581/1/6
f 1578/1/6 1579/1/6 1582/1/6
f 1582/1/6 1579/1/6 1583/1/6
f 1581/1/6 1582/1/6 1584/1/6
f 1584/1/6 1582/1/6 1585/1/6
f 1586/1/6 1587/1/6 1588/1/6
f 1588/1/6 1587/1/6 1589/1/6
