# MagicaVoxel @ Ephtracy

# group
o 

# material
mtllib arbol cortado-1.mtl
usemtl palette

# normals
vn -1 0 0
vn 1 0 0
vn 0 0 1
vn 0 0 -1
vn 0 -1 0
vn 0 1 0

# texcoords
vt 0.693359 0.5
vt 0.697266 0.5
vt 0.728516 0.5
vt 0.732422 0.5

# verts
v -2.2 4.7 -25.4
v -2.2 4.7 -25.5
v -2.2 4.8 -25.4
v -2.2 4.8 -25.5
v -2.1 4.7 -25.5
v -2.1 4.7 -25.6
v -2.1 4.8 -25.5
v -2.1 4.8 -25.6
v -2 4.7 -25.6
v -2 4.7 -26.7
v -2 4.8 -25.6
v -2 4.8 -25.8
v -2 4.8 -26.4
v -2 4.8 -26.7
v -2 4.9 -26.3
v -2 4.9 -26.4
v -2 5.3 -25.8
v -2 5.3 -26.3
v -1.9 4.7 -26.7
v -1.9 4.7 -26.8
v -1.9 4.8 -25.6
v -1.9 4.8 -25.8
v -1.9 4.8 -26.4
v -1.9 4.8 -26.5
v -1.9 4.8 -26.7
v -1.9 4.8 -26.8
v -1.9 4.9 -25.6
v -1.9 4.9 -25.7
v -1.9 4.9 -26.3
v -1.9 4.9 -26.4
v -1.9 4.9 -26.5
v -1.9 5.3 -25.7
v -1.9 5.3 -25.8
v -1.9 5.3 -26.3
v -1.9 5.3 -26.4
v -1.8 4.8 -26.5
v -1.8 4.8 -26.6
v -1.8 4.9 -25.6
v -1.8 4.9 -25.7
v -1.8 4.9 -26.4
v -1.8 4.9 -26.5
v -1.8 4.9 -26.6
v -1.8 5.3 -25.6
v -1.8 5.3 -25.7
v -1.8 5.3 -26.4
v -1.8 5.3 -26.5
v -1.3 4.7 -25.5
v -1.3 4.7 -25.6
v -1.3 4.8 -25.5
v -1.3 4.8 -25.6
v -1.2 4.7 -26.5
v -1.2 4.7 -26.6
v -1.2 4.8 -26.5
v -1.2 4.8 -26.6
v -0.9 4.7 -26.6
v -0.9 4.7 -26.7
v -0.9 4.8 -26.6
v -0.9 4.8 -26.7
v -1.9 4.7 -25.4
v -1.9 4.7 -25.5
v -1.9 4.8 -25.4
v -1.9 4.8 -25.5
v -1.8 4.7 -26.6
v -1.8 4.7 -26.8
v -1.8 4.8 -26.6
v -1.8 4.8 -26.8
v -1.7 4.7 -25.5
v -1.7 4.7 -25.6
v -1.7 4.7 -26.5
v -1.7 4.7 -26.6
v -1.7 4.8 -25.5
v -1.7 4.8 -25.6
v -1.7 4.9 -26.5
v -1.7 4.9 -26.6
v -1.3 4.9 -25.6
v -1.3 4.9 -25.7
v -1.3 4.9 -26.4
v -1.3 4.9 -26.5
v -1.3 5.3 -25.6
v -1.3 5.3 -25.7
v -1.3 5.3 -26.4
v -1.3 5.3 -26.5
v -1.2 4.9 -25.7
v -1.2 4.9 -25.8
v -1.2 4.9 -26.3
v -1.2 4.9 -26.4
v -1.2 5.3 -25.7
v -1.2 5.3 -25.8
v -1.2 5.3 -26.3
v -1.2 5.3 -26.4
v -1.1 4.7 -25.7
v -1.1 4.7 -26.2
v -1.1 4.8 -25.6
v -1.1 4.8 -25.7
v -1.1 4.8 -26.3
v -1.1 4.8 -26.5
v -1.1 4.9 -25.6
v -1.1 4.9 -25.8
v -1.1 4.9 -26.2
v -1.1 4.9 -26.3
v -1.1 4.9 -26.5
v -1.1 5.3 -25.8
v -1.1 5.3 -26.3
v -1 4.7 -25.6
v -1 4.7 -25.7
v -1 4.7 -26.2
v -1 4.7 -26.4
v -1 4.8 -25.6
v -1 4.8 -25.7
v -1 4.8 -26.3
v -1 4.8 -26.4
v -1 4.9 -26.2
v -1 4.9 -26.3
v -0.9 4.7 -25.5
v -0.9 4.7 -25.6
v -0.9 4.8 -25.5
v -0.9 4.8 -25.6
v -0.8 4.7 -26.4
v -0.8 4.7 -26.7
v -0.8 4.8 -26.4
v -0.8 4.8 -26.7
v -2.2 4.7 -25.4
v -2.2 4.8 -25.4
v -1.9 4.7 -25.4
v -1.9 4.8 -25.4
v -1.9 4.7 -25.5
v -1.9 4.8 -25.5
v -1.7 4.7 -25.5
v -1.7 4.8 -25.5
v -1.3 4.7 -25.5
v -1.3 4.8 -25.5
v -0.9 4.7 -25.5
v -0.9 4.8 -25.5
v -1.9 4.8 -25.6
v -1.9 4.9 -25.6
v -1.8 4.9 -25.6
v -1.8 5.3 -25.6
v -1.7 4.7 -25.6
v -1.7 4.8 -25.6
v -1.3 4.7 -25.6
v -1.3 4.8 -25.6
v -1.3 4.9 -25.6
v -1.3 5.3 -25.6
v -1.1 4.8 -25.6
v -1.1 4.9 -25.6
v -1.9 4.9 -25.7
v -1.9 5.3 -25.7
v -1.8 4.9 -25.7
v -1.8 5.3 -25.7
v -1.3 4.9 -25.7
v -1.3 5.3 -25.7
v -1.2 4.9 -25.7
v -1.2 5.3 -25.7
v -2 4.8 -25.8
v -2 5.3 -25.8
v -1.9 4.8 -25.8
v -1.9 5.3 -25.8
v -1.2 4.9 -25.8
v -1.2 5.3 -25.8
v -1.1 4.9 -25.8
v -1.1 5.3 -25.8
v -1.1 4.7 -26.2
v -1.1 4.9 -26.2
v -1 4.7 -26.2
v -1 4.9 -26.2
v -1 4.7 -26.4
v -1 4.8 -26.4
v -0.8 4.7 -26.4
v -0.8 4.8 -26.4
v -2.2 4.7 -25.5
v -2.2 4.8 -25.5
v -2.1 4.7 -25.5
v -2.1 4.8 -25.5
v -2.1 4.7 -25.6
v -2.1 4.8 -25.6
v -2 4.7 -25.6
v -2 4.8 -25.6
v -1 4.7 -25.6
v -1 4.8 -25.6
v -0.9 4.7 -25.6
v -0.9 4.8 -25.6
v -1.1 4.7 -25.7
v -1.1 4.8 -25.7
v -1 4.7 -25.7
v -1 4.8 -25.7
v -2 4.9 -26.3
v -2 5.3 -26.3
v -1.9 4.9 -26.3
v -1.9 5.3 -26.3
v -1.2 4.9 -26.3
v -1.2 5.3 -26.3
v -1.1 4.8 -26.3
v -1.1 4.9 -26.3
v -1.1 5.3 -26.3
v -1 4.8 -26.3
v -1 4.9 -26.3
v -2 4.8 -26.4
v -2 4.9 -26.4
v -1.9 4.8 -26.4
v -1.9 4.9 -26.4
v -1.9 5.3 -26.4
v -1.8 4.9 -26.4
v -1.8 5.3 -26.4
v -1.3 4.9 -26.4
v -1.3 5.3 -26.4
v -1.2 4.9 -26.4
v -1.2 5.3 -26.4
v -1.9 4.8 -26.5
v -1.9 4.9 -26.5
v -1.8 4.8 -26.5
v -1.8 4.9 -26.5
v -1.8 5.3 -26.5
v -1.7 4.7 -26.5
v -1.7 4.9 -26.5
v -1.3 4.9 -26.5
v -1.3 5.3 -26.5
v -1.2 4.7 -26.5
v -1.2 4.8 -26.5
v -1.1 4.8 -26.5
v -1.1 4.9 -26.5
v -1.8 4.7 -26.6
v -1.8 4.8 -26.6
v -1.8 4.9 -26.6
v -1.7 4.7 -26.6
v -1.7 4.9 -26.6
v -1.2 4.7 -26.6
v -1.2 4.8 -26.6
v -0.9 4.7 -26.6
v -0.9 4.8 -26.6
v -2 4.7 -26.7
v -2 4.8 -26.7
v -1.9 4.7 -26.7
v -1.9 4.8 -26.7
v -0.9 4.7 -26.7
v -0.9 4.8 -26.7
v -0.8 4.7 -26.7
v -0.8 4.8 -26.7
v -1.9 4.7 -26.8
v -1.9 4.8 -26.8
v -1.8 4.7 -26.8
v -1.8 4.8 -26.8
v -2.2 4.7 -25.4
v -1.9 4.7 -25.4
v -2.2 4.7 -25.5
v -2.1 4.7 -25.5
v -1.9 4.7 -25.5
v -1.7 4.7 -25.5
v -1.3 4.7 -25.5
v -0.9 4.7 -25.5
v -2.1 4.7 -25.6
v -2 4.7 -25.6
v -1.7 4.7 -25.6
v -1.3 4.7 -25.6
v -1 4.7 -25.6
v -0.9 4.7 -25.6
v -1.8 4.7 -25.7
v -1.3 4.7 -25.7
v -1.1 4.7 -25.7
v -1 4.7 -25.7
v -1.9 4.7 -25.8
v -1.8 4.7 -25.8
v -1.3 4.7 -25.8
v -1.2 4.7 -25.8
v -1.9 4.7 -26.2
v -1.8 4.7 -26.2
v -1.1 4.7 -26.2
v -1 4.7 -26.2
v -1.3 4.7 -26.3
v -1.2 4.7 -26.3
v -1.8 4.7 -26.4
v -1.3 4.7 -26.4
v -1 4.7 -26.4
v -0.8 4.7 -26.4
v -1.7 4.7 -26.5
v -1.2 4.7 -26.5
v -1.8 4.7 -26.6
v -1.7 4.7 -26.6
v -1.2 4.7 -26.6
v -0.9 4.7 -26.6
v -2 4.7 -26.7
v -1.9 4.7 -26.7
v -0.9 4.7 -26.7
v -0.8 4.7 -26.7
v -1.9 4.7 -26.8
v -1.8 4.7 -26.8
v -2.2 4.8 -25.4
v -1.9 4.8 -25.4
v -2.2 4.8 -25.5
v -2.1 4.8 -25.5
v -1.9 4.8 -25.5
v -1.7 4.8 -25.5
v -1.3 4.8 -25.5
v -0.9 4.8 -25.5
v -2.1 4.8 -25.6
v -2 4.8 -25.6
v -1.9 4.8 -25.6
v -1.7 4.8 -25.6
v -1.3 4.8 -25.6
v -1.1 4.8 -25.6
v -1 4.8 -25.6
v -0.9 4.8 -25.6
v -1.1 4.8 -25.7
v -1 4.8 -25.7
v -2 4.8 -25.8
v -1.9 4.8 -25.8
v -1.1 4.8 -26.3
v -1 4.8 -26.3
v -2 4.8 -26.4
v -1.9 4.8 -26.4
v -1 4.8 -26.4
v -0.8 4.8 -26.4
v -1.9 4.8 -26.5
v -1.8 4.8 -26.5
v -1.2 4.8 -26.5
v -1.1 4.8 -26.5
v -1.8 4.8 -26.6
v -1.2 4.8 -26.6
v -0.9 4.8 -26.6
v -2 4.8 -26.7
v -1.9 4.8 -26.7
v -0.9 4.8 -26.7
v -0.8 4.8 -26.7
v -1.9 4.8 -26.8
v -1.8 4.8 -26.8
v -1.9 4.9 -25.6
v -1.8 4.9 -25.6
v -1.3 4.9 -25.6
v -1.1 4.9 -25.6
v -1.9 4.9 -25.7
v -1.8 4.9 -25.7
v -1.3 4.9 -25.7
v -1.2 4.9 -25.7
v -1.2 4.9 -25.8
v -1.1 4.9 -25.8
v -1.1 4.9 -26.2
v -1 4.9 -26.2
v -2 4.9 -26.3
v -1.9 4.9 -26.3
v -1.2 4.9 -26.3
v -1.1 4.9 -26.3
v -1 4.9 -26.3
v -2 4.9 -26.4
v -1.9 4.9 -26.4
v -1.8 4.9 -26.4
v -1.3 4.9 -26.4
v -1.2 4.9 -26.4
v -1.9 4.9 -26.5
v -1.8 4.9 -26.5
v -1.7 4.9 -26.5
v -1.3 4.9 -26.5
v -1.1 4.9 -26.5
v -1.8 4.9 -26.6
v -1.7 4.9 -26.6
v -1.8 5.3 -25.6
v -1.3 5.3 -25.6
v -1.9 5.3 -25.7
v -1.8 5.3 -25.7
v -1.3 5.3 -25.7
v -1.2 5.3 -25.7
v -2 5.3 -25.8
v -1.9 5.3 -25.8
v -1.8 5.3 -25.8
v -1.7 5.3 -25.8
v -1.4 5.3 -25.8
v -1.3 5.3 -25.8
v -1.2 5.3 -25.8
v -1.1 5.3 -25.8
v -1.8 5.3 -25.9
v -1.7 5.3 -25.9
v -1.6 5.3 -25.9
v -1.5 5.3 -25.9
v -1.4 5.3 -25.9
v -1.3 5.3 -25.9
v -1.7 5.3 -26
v -1.6 5.3 -26
v -1.5 5.3 -26
v -1.4 5.3 -26
v -1.7 5.3 -26.1
v -1.6 5.3 -26.1
v -1.5 5.3 -26.1
v -1.4 5.3 -26.1
v -1.6 5.3 -26.2
v -1.5 5.3 -26.2
v -1.4 5.3 -26.2
v -1.3 5.3 -26.2
v -2 5.3 -26.3
v -1.9 5.3 -26.3
v -1.8 5.3 -26.3
v -1.4 5.3 -26.3
v -1.3 5.3 -26.3
v -1.2 5.3 -26.3
v -1.1 5.3 -26.3
v -1.9 5.3 -26.4
v -1.8 5.3 -26.4
v -1.3 5.3 -26.4
v -1.2 5.3 -26.4
v -1.8 5.3 -26.5
v -1.3 5.3 -26.5

# faces
f 3/3/1 2/3/1 1/3/1
f 4/3/1 2/3/1 3/3/1
f 7/3/1 6/3/1 5/3/1
f 8/3/1 6/3/1 7/3/1
f 11/3/1 10/3/1 9/3/1
f 12/3/1 10/3/1 11/3/1
f 13/3/1 10/3/1 12/3/1
f 14/3/1 10/3/1 13/3/1
f 15/3/1 13/3/1 12/3/1
f 16/3/1 13/3/1 15/3/1
f 17/3/1 15/3/1 12/3/1
f 18/3/1 15/3/1 17/3/1
f 25/3/1 20/3/1 19/3/1
f 26/3/1 20/3/1 25/3/1
f 27/3/1 22/3/1 21/3/1
f 28/3/1 22/3/1 27/3/1
f 30/3/1 24/3/1 23/3/1
f 31/3/1 24/3/1 30/3/1
f 32/3/1 22/3/1 28/3/1
f 33/3/1 22/3/1 32/3/1
f 34/3/1 30/3/1 29/3/1
f 35/3/1 30/3/1 34/3/1
f 41/3/1 37/3/1 36/3/1
f 42/3/1 37/3/1 41/3/1
f 43/3/1 39/3/1 38/3/1
f 44/3/1 39/3/1 43/3/1
f 45/3/1 41/3/1 40/3/1
f 46/3/1 41/3/1 45/3/1
f 49/3/1 48/3/1 47/3/1
f 50/3/1 48/3/1 49/3/1
f 53/3/1 52/3/1 51/3/1
f 54/3/1 52/3/1 53/3/1
f 57/3/1 56/3/1 55/3/1
f 58/3/1 56/3/1 57/3/1
f 59/3/2 60/3/2 61/3/2
f 61/3/2 60/3/2 62/3/2
f 63/3/2 64/3/2 65/3/2
f 65/3/2 64/3/2 66/3/2
f 67/3/2 68/3/2 71/3/2
f 71/3/2 68/3/2 72/3/2
f 69/3/2 70/3/2 73/3/2
f 73/3/2 70/3/2 74/3/2
f 75/3/2 76/3/2 79/3/2
f 79/3/2 76/3/2 80/3/2
f 77/3/2 78/3/2 81/3/2
f 81/3/2 78/3/2 82/3/2
f 83/3/2 84/3/2 87/3/2
f 87/3/2 84/3/2 88/3/2
f 85/3/2 86/3/2 89/3/2
f 89/3/2 86/3/2 90/3/2
f 91/3/2 92/3/2 94/3/2
f 93/3/2 94/3/2 97/3/2
f 94/3/2 92/3/2 98/3/2
f 97/3/2 94/3/2 98/3/2
f 98/3/2 92/3/2 99/3/2
f 95/3/2 96/3/2 100/3/2
f 100/3/2 96/3/2 101/3/2
f 98/3/2 99/3/2 102/3/2
f 99/3/2 100/3/2 102/3/2
f 102/3/2 100/3/2 103/3/2
f 104/3/2 105/3/2 108/3/2
f 108/3/2 105/3/2 109/3/2
f 106/3/2 107/3/2 110/3/2
f 110/3/2 107/3/2 111/3/2
f 106/3/2 110/3/2 112/3/2
f 112/3/2 110/3/2 113/3/2
f 114/3/2 115/3/2 116/3/2
f 116/3/2 115/3/2 117/3/2
f 118/3/2 119/3/2 120/3/2
f 120/3/2 119/3/2 121/3/2
f 124/3/3 123/3/3 122/3/3
f 125/3/3 123/3/3 124/3/3
f 128/3/3 127/3/3 126/3/3
f 129/3/3 127/3/3 128/3/3
f 132/3/3 131/3/3 130/3/3
f 133/3/3 131/3/3 132/3/3
f 136/3/3 135/3/3 134/3/3
f 139/3/3 136/3/3 134/3/3
f 139/3/3 137/3/3 136/3/3
f 140/3/3 139/3/3 138/3/3
f 141/3/3 137/3/3 139/3/3
f 141/3/3 139/3/3 140/3/3
f 142/3/3 137/3/3 141/3/3
f 143/3/3 137/3/3 142/3/3
f 144/3/3 142/3/3 141/3/3
f 145/3/3 142/3/3 144/3/3
f 148/3/3 147/3/3 146/3/3
f 149/3/3 147/3/3 148/3/3
f 152/3/3 151/3/3 150/3/3
f 153/3/3 151/3/3 152/3/3
f 156/3/3 155/3/3 154/3/3
f 157/3/3 155/3/3 156/3/3
f 160/3/3 159/3/3 158/3/3
f 161/3/3 159/3/3 160/3/3
f 164/3/3 163/3/3 162/3/3
f 165/3/3 163/3/3 164/3/3
f 168/3/3 167/3/3 166/3/3
f 169/3/3 167/3/3 168/3/3
f 170/3/4 171/3/4 172/3/4
f 172/3/4 171/3/4 173/3/4
f 174/3/4 175/3/4 176/3/4
f 176/3/4 175/3/4 177/3/4
f 178/3/4 179/3/4 180/3/4
f 180/3/4 179/3/4 181/3/4
f 182/3/4 183/3/4 184/3/4
f 184/3/4 183/3/4 185/3/4
f 186/3/4 187/3/4 188/3/4
f 188/3/4 187/3/4 189/3/4
f 190/3/4 191/3/4 193/3/4
f 193/3/4 191/3/4 194/3/4
f 192/3/4 193/3/4 195/3/4
f 195/3/4 193/3/4 196/3/4
f 197/3/4 198/3/4 199/3/4
f 199/3/4 198/3/4 200/3/4
f 200/3/4 201/3/4 202/3/4
f 202/3/4 201/3/4 203/3/4
f 204/3/4 205/3/4 206/3/4
f 206/3/4 205/3/4 207/3/4
f 208/3/4 209/3/4 210/3/4
f 210/3/4 209/3/4 211/3/4
f 211/3/4 212/3/4 214/3/4
f 214/3/4 212/3/4 215/3/4
f 213/3/4 214/3/4 215/3/4
f 215/3/4 212/3/4 216/3/4
f 213/3/4 215/3/4 217/3/4
f 217/3/4 215/3/4 218/3/4
f 218/3/4 215/3/4 219/3/4
f 219/3/4 215/3/4 220/3/4
f 221/3/4 222/3/4 224/3/4
f 222/3/4 223/3/4 224/3/4
f 224/3/4 223/3/4 225/3/4
f 226/3/4 227/3/4 228/3/4
f 228/3/4 227/3/4 229/3/4
f 230/3/4 231/3/4 232/3/4
f 232/3/4 231/3/4 233/3/4
f 234/3/4 235/3/4 236/3/4
f 236/3/4 235/3/4 237/3/4
f 238/3/4 239/3/4 240/3/4
f 240/3/4 239/3/4 241/3/4
f 244/3/5 243/3/5 242/3/5
f 245/3/5 243/3/5 244/3/5
f 246/3/5 243/3/5 245/3/5
f 250/3/5 246/3/5 245/3/5
f 250/3/5 247/3/5 246/3/5
f 251/3/5 247/3/5 250/3/5
f 252/3/5 247/3/5 251/3/5
f 253/3/5 249/3/5 248/3/5
f 254/3/5 249/3/5 253/3/5
f 255/3/5 249/3/5 254/3/5
f 256/3/5 252/3/5 251/3/5
f 256/3/5 254/3/5 253/3/5
f 256/3/5 253/3/5 252/3/5
f 257/3/5 254/3/5 256/3/5
f 258/3/5 254/3/5 257/3/5
f 259/3/5 254/3/5 258/3/5
f 260/3/5 256/3/5 251/3/5
f 261/2/5 257/2/5 256/2/5
f 261/3/5 256/3/5 260/3/5
f 262/3/5 258/3/5 257/3/5
f 262/2/5 257/2/5 261/2/5
f 263/3/5 258/3/5 262/3/5
f 264/3/5 260/3/5 251/3/5
f 264/2/5 261/2/5 260/2/5
f 264/2/5 263/2/5 262/2/5
f 264/2/5 262/2/5 261/2/5
f 265/2/5 263/2/5 264/2/5
f 266/3/5 258/3/5 263/3/5
f 268/2/5 263/2/5 265/2/5
f 269/3/5 267/3/5 266/3/5
f 269/2/5 263/2/5 268/2/5
f 269/3/5 266/3/5 263/3/5
f 270/2/5 268/2/5 265/2/5
f 270/3/5 265/3/5 264/3/5
f 271/3/5 269/3/5 268/3/5
f 271/2/5 268/2/5 270/2/5
f 272/3/5 267/3/5 269/3/5
f 272/3/5 269/3/5 271/3/5
f 274/3/5 272/3/5 271/3/5
f 274/3/5 273/3/5 272/3/5
f 274/3/5 271/3/5 270/3/5
f 275/3/5 273/3/5 274/3/5
f 276/3/5 270/3/5 264/3/5
f 276/3/5 274/3/5 270/3/5
f 277/3/5 274/3/5 276/3/5
f 278/3/5 273/3/5 275/3/5
f 279/3/5 273/3/5 278/3/5
f 280/3/5 264/3/5 251/3/5
f 280/3/5 276/3/5 264/3/5
f 281/3/5 276/3/5 280/3/5
f 282/3/5 273/3/5 279/3/5
f 283/3/5 273/3/5 282/3/5
f 284/3/5 276/3/5 281/3/5
f 285/3/5 276/3/5 284/3/5
f 286/3/6 287/3/6 288/3/6
f 288/3/6 287/3/6 289/3/6
f 289/3/6 287/3/6 290/3/6
f 289/3/6 290/3/6 294/3/6
f 290/3/6 291/3/6 294/3/6
f 294/3/6 291/3/6 295/3/6
f 295/3/6 291/3/6 296/3/6
f 296/3/6 291/3/6 297/3/6
f 292/3/6 293/3/6 298/3/6
f 298/3/6 293/3/6 299/3/6
f 299/3/6 293/3/6 300/3/6
f 300/3/6 293/3/6 301/3/6
f 299/3/6 300/3/6 302/3/6
f 302/3/6 300/3/6 303/3/6
f 295/3/6 296/3/6 304/3/6
f 304/3/6 296/3/6 305/3/6
f 306/3/6 307/3/6 310/3/6
f 308/3/6 309/3/6 312/3/6
f 306/3/6 310/3/6 315/3/6
f 310/3/6 311/3/6 315/3/6
f 312/3/6 313/3/6 316/3/6
f 314/3/6 315/3/6 317/3/6
f 315/3/6 311/3/6 318/3/6
f 317/3/6 315/3/6 318/3/6
f 312/3/6 316/3/6 319/3/6
f 308/3/6 312/3/6 319/3/6
f 319/3/6 316/3/6 320/3/6
f 318/3/6 311/3/6 321/3/6
f 321/3/6 311/3/6 322/3/6
f 320/3/6 316/3/6 323/3/6
f 323/3/6 316/3/6 324/3/6
f 325/3/6 326/3/6 329/3/6
f 329/3/6 326/3/6 330/3/6
f 327/3/6 328/3/6 331/3/6
f 331/3/6 328/3/6 332/3/6
f 332/3/6 328/3/6 333/3/6
f 333/3/6 328/3/6 334/3/6
f 335/3/6 336/3/6 340/3/6
f 340/3/6 336/3/6 341/3/6
f 337/3/6 338/3/6 342/3/6
f 342/3/6 338/3/6 343/3/6
f 339/3/6 340/3/6 346/3/6
f 343/3/6 344/3/6 347/3/6
f 347/3/6 344/3/6 348/3/6
f 345/3/6 346/3/6 350/3/6
f 346/3/6 340/3/6 351/3/6
f 350/3/6 346/3/6 351/3/6
f 348/3/6 349/3/6 352/3/6
f 352/3/6 349/3/6 353/3/6
f 354/3/6 355/3/6 357/3/6
f 357/3/6 355/3/6 358/3/6
f 356/3/6 357/3/6 361/3/6
f 357/2/6 358/2/6 362/2/6
f 361/3/6 357/3/6 362/3/6
f 362/2/6 358/2/6 363/2/6
f 363/2/6 358/2/6 364/2/6
f 358/3/6 359/3/6 365/3/6
f 364/2/6 358/2/6 365/2/6
f 365/3/6 359/3/6 366/3/6
f 361/2/6 362/2/6 368/2/6
f 362/2/6 363/2/6 368/2/6
f 363/1/6 364/1/6 369/1/6
f 368/2/6 363/2/6 369/2/6
f 369/1/6 364/1/6 370/1/6
f 370/1/6 364/1/6 371/1/6
f 365/2/6 366/2/6 372/2/6
f 371/1/6 364/1/6 372/1/6
f 364/2/6 365/2/6 372/2/6
f 372/2/6 366/2/6 373/2/6
f 369/1/6 370/1/6 374/1/6
f 368/1/6 369/1/6 374/1/6
f 370/4/6 371/4/6 375/4/6
f 374/1/6 370/1/6 375/1/6
f 372/1/6 373/1/6 376/1/6
f 375/4/6 371/4/6 376/4/6
f 371/1/6 372/1/6 376/1/6
f 376/1/6 373/1/6 377/1/6
f 368/1/6 374/1/6 378/1/6
f 374/4/6 375/4/6 378/4/6
f 376/4/6 377/4/6 378/4/6
f 375/4/6 376/4/6 378/4/6
f 378/4/6 377/4/6 379/4/6
f 379/4/6 377/4/6 380/4/6
f 377/1/6 373/1/6 381/1/6
f 380/4/6 377/4/6 381/4/6
f 379/4/6 380/4/6 382/4/6
f 378/1/6 379/1/6 382/1/6
f 380/1/6 381/1/6 383/1/6
f 382/4/6 380/4/6 383/4/6
f 381/1/6 373/1/6 384/1/6
f 383/1/6 381/1/6 384/1/6
f 373/2/6 366/2/6 385/2/6
f 384/1/6 373/1/6 385/1/6
f 360/3/6 361/3/6 386/3/6
f 361/2/6 368/2/6 387/2/6
f 386/3/6 361/3/6 387/3/6
f 382/1/6 383/1/6 388/1/6
f 387/2/6 368/2/6 388/2/6
f 383/1/6 384/1/6 388/1/6
f 368/1/6 378/1/6 388/1/6
f 378/1/6 382/1/6 388/1/6
f 384/2/6 385/2/6 389/2/6
f 388/1/6 384/1/6 389/1/6
f 385/2/6 366/2/6 390/2/6
f 389/2/6 385/2/6 390/2/6
f 366/3/6 367/3/6 391/3/6
f 390/2/6 366/2/6 391/2/6
f 391/3/6 367/3/6 392/3/6
f 387/3/6 388/3/6 393/3/6
f 388/2/6 389/2/6 394/2/6
f 393/3/6 388/3/6 394/3/6
f 389/2/6 390/2/6 394/2/6
f 390/3/6 391/3/6 395/3/6
f 394/2/6 390/2/6 395/2/6
f 395/3/6 391/3/6 396/3/6
f 394/3/6 395/3/6 397/3/6
f 397/3/6 395/3/6 398/3/6
