# MagicaVoxel @ Ephtracy

# group
o 

# material
mtllib caja-1.mtl
usemtl palette

# normals
vn -1 0 0
vn 1 0 0
vn 0 0 1
vn 0 0 -1
vn 0 -1 0
vn 0 1 0

# texcoords
vt 0.697266 0.5
vt 0.701172 0.5
vt 0.732422 0.5

# verts
v -8.1 6.4 -34.6
v -8.1 6.4 -35.2
v -8.1 6.5 -34.7
v -8.1 6.5 -35.1
v -8.1 6.9 -34.7
v -8.1 6.9 -35.1
v -8.1 7 -34.6
v -8.1 7 -35.2
v -8 6.5 -34.7
v -8 6.5 -35.1
v -8 6.6 -34.8
v -8 6.6 -35
v -8 6.8 -34.8
v -8 6.8 -35
v -8 6.9 -34.7
v -8 6.9 -35.1
v -7.6 6.5 -34.6
v -7.6 6.5 -34.7
v -7.6 6.5 -35.1
v -7.6 6.5 -35.2
v -7.6 6.9 -34.6
v -7.6 6.9 -34.7
v -7.6 6.9 -35.1
v -7.6 6.9 -35.2
v -7.6 7 -34.7
v -7.6 7 -35.1
v -8 6.5 -34.6
v -8 6.5 -34.7
v -8 6.5 -35.1
v -8 6.5 -35.2
v -8 6.9 -34.6
v -8 6.9 -34.7
v -8 6.9 -35.1
v -8 6.9 -35.2
v -8 7 -34.7
v -8 7 -35.1
v -7.6 6.5 -34.7
v -7.6 6.5 -35.1
v -7.6 6.6 -34.8
v -7.6 6.6 -35
v -7.6 6.8 -34.8
v -7.6 6.8 -35
v -7.6 6.9 -34.7
v -7.6 6.9 -35.1
v -7.5 6.4 -34.6
v -7.5 6.4 -35.2
v -7.5 6.5 -34.7
v -7.5 6.5 -35.1
v -7.5 6.9 -34.7
v -7.5 6.9 -35.1
v -7.5 7 -34.6
v -7.5 7 -35.2
v -8.1 6.4 -34.6
v -8.1 7 -34.6
v -8 6.5 -34.6
v -8 6.9 -34.6
v -7.6 6.5 -34.6
v -7.6 6.9 -34.6
v -7.5 6.4 -34.6
v -7.5 7 -34.6
v -8 6.5 -34.7
v -8 6.9 -34.7
v -7.9 6.6 -34.7
v -7.9 6.8 -34.7
v -7.7 6.6 -34.7
v -7.7 6.8 -34.7
v -7.6 6.5 -34.7
v -7.6 6.9 -34.7
v -8.1 6.5 -35.1
v -8.1 6.9 -35.1
v -8 6.5 -35.1
v -8 6.9 -35.1
v -8 7 -35.1
v -7.6 6.5 -35.1
v -7.6 6.9 -35.1
v -7.6 7 -35.1
v -7.5 6.5 -35.1
v -7.5 6.9 -35.1
v -8.1 6.5 -34.7
v -8.1 6.9 -34.7
v -8 6.5 -34.7
v -8 6.9 -34.7
v -8 7 -34.7
v -7.6 6.5 -34.7
v -7.6 6.9 -34.7
v -7.6 7 -34.7
v -7.5 6.5 -34.7
v -7.5 6.9 -34.7
v -8 6.5 -35.1
v -8 6.9 -35.1
v -7.9 6.6 -35.1
v -7.9 6.8 -35.1
v -7.7 6.6 -35.1
v -7.7 6.8 -35.1
v -7.6 6.5 -35.1
v -7.6 6.9 -35.1
v -8.1 6.4 -35.2
v -8.1 7 -35.2
v -8 6.5 -35.2
v -8 6.9 -35.2
v -7.6 6.5 -35.2
v -7.6 6.9 -35.2
v -7.5 6.4 -35.2
v -7.5 7 -35.2
v -8.1 6.4 -34.6
v -7.5 6.4 -34.6
v -8 6.4 -34.7
v -7.6 6.4 -34.7
v -8 6.4 -35.1
v -7.6 6.4 -35.1
v -8.1 6.4 -35.2
v -7.5 6.4 -35.2
v -8 6.9 -34.6
v -7.6 6.9 -34.6
v -8.1 6.9 -34.7
v -8 6.9 -34.7
v -7.6 6.9 -34.7
v -7.5 6.9 -34.7
v -8.1 6.9 -35.1
v -8 6.9 -35.1
v -7.6 6.9 -35.1
v -7.5 6.9 -35.1
v -8 6.9 -35.2
v -7.6 6.9 -35.2
v -8 6.5 -34.6
v -7.6 6.5 -34.6
v -8.1 6.5 -34.7
v -8 6.5 -34.7
v -7.6 6.5 -34.7
v -7.5 6.5 -34.7
v -8.1 6.5 -35.1
v -8 6.5 -35.1
v -7.6 6.5 -35.1
v -7.5 6.5 -35.1
v -8 6.5 -35.2
v -7.6 6.5 -35.2
v -8 6.9 -34.7
v -7.6 6.9 -34.7
v -7.9 6.9 -34.8
v -7.7 6.9 -34.8
v -7.9 6.9 -35
v -7.7 6.9 -35
v -8 6.9 -35.1
v -7.6 6.9 -35.1
v -8.1 7 -34.6
v -7.5 7 -34.6
v -8 7 -34.7
v -7.6 7 -34.7
v -8 7 -35.1
v -7.6 7 -35.1
v -8.1 7 -35.2
v -7.5 7 -35.2

# faces
f 3/3/1 2/3/1 1/3/1
f 4/3/1 2/3/1 3/3/1
f 5/3/1 3/3/1 1/3/1
f 6/3/1 2/3/1 4/3/1
f 7/3/1 5/3/1 1/3/1
f 7/3/1 6/3/1 5/3/1
f 8/3/1 2/3/1 6/3/1
f 8/3/1 6/3/1 7/3/1
f 11/2/1 10/2/1 9/2/1
f 12/2/1 10/2/1 11/2/1
f 13/2/1 11/2/1 9/2/1
f 13/1/1 12/1/1 11/1/1
f 14/2/1 10/2/1 12/2/1
f 14/1/1 12/1/1 13/1/1
f 15/2/1 13/2/1 9/2/1
f 15/2/1 14/2/1 13/2/1
f 16/2/1 10/2/1 14/2/1
f 16/2/1 14/2/1 15/2/1
f 21/3/1 18/3/1 17/3/1
f 22/3/1 18/3/1 21/3/1
f 23/3/1 20/3/1 19/3/1
f 24/3/1 20/3/1 23/3/1
f 25/3/1 23/3/1 22/3/1
f 26/3/1 23/3/1 25/3/1
f 27/3/2 28/3/2 31/3/2
f 31/3/2 28/3/2 32/3/2
f 29/3/2 30/3/2 33/3/2
f 33/3/2 30/3/2 34/3/2
f 32/3/2 33/3/2 35/3/2
f 35/3/2 33/3/2 36/3/2
f 37/2/2 38/2/2 39/2/2
f 39/2/2 38/2/2 40/2/2
f 37/2/2 39/2/2 41/2/2
f 39/1/2 40/1/2 41/1/2
f 40/2/2 38/2/2 42/2/2
f 41/1/2 40/1/2 42/1/2
f 37/2/2 41/2/2 43/2/2
f 41/2/2 42/2/2 43/2/2
f 42/2/2 38/2/2 44/2/2
f 43/2/2 42/2/2 44/2/2
f 45/3/2 46/3/2 47/3/2
f 47/3/2 46/3/2 48/3/2
f 45/3/2 47/3/2 49/3/2
f 48/3/2 46/3/2 50/3/2
f 45/3/2 49/3/2 51/3/2
f 49/3/2 50/3/2 51/3/2
f 50/3/2 46/3/2 52/3/2
f 51/3/2 50/3/2 52/3/2
f 55/3/3 54/3/3 53/3/3
f 56/3/3 54/3/3 55/3/3
f 57/3/3 55/3/3 53/3/3
f 58/3/3 54/3/3 56/3/3
f 59/3/3 57/3/3 53/3/3
f 59/3/3 58/3/3 57/3/3
f 60/3/3 54/3/3 58/3/3
f 60/3/3 58/3/3 59/3/3
f 63/2/3 62/2/3 61/2/3
f 64/2/3 62/2/3 63/2/3
f 65/2/3 63/2/3 61/2/3
f 65/1/3 64/1/3 63/1/3
f 66/2/3 62/2/3 64/2/3
f 66/1/3 64/1/3 65/1/3
f 67/2/3 65/2/3 61/2/3
f 67/2/3 66/2/3 65/2/3
f 68/2/3 62/2/3 66/2/3
f 68/2/3 66/2/3 67/2/3
f 71/3/3 70/3/3 69/3/3
f 72/3/3 70/3/3 71/3/3
f 75/3/3 73/3/3 72/3/3
f 76/3/3 73/3/3 75/3/3
f 77/3/3 75/3/3 74/3/3
f 78/3/3 75/3/3 77/3/3
f 79/3/4 80/3/4 81/3/4
f 81/3/4 80/3/4 82/3/4
f 82/3/4 83/3/4 85/3/4
f 85/3/4 83/3/4 86/3/4
f 84/3/4 85/3/4 87/3/4
f 87/3/4 85/3/4 88/3/4
f 89/2/4 90/2/4 91/2/4
f 91/2/4 90/2/4 92/2/4
f 89/2/4 91/2/4 93/2/4
f 91/1/4 92/1/4 93/1/4
f 92/2/4 90/2/4 94/2/4
f 93/1/4 92/1/4 94/1/4
f 89/2/4 93/2/4 95/2/4
f 93/2/4 94/2/4 95/2/4
f 94/2/4 90/2/4 96/2/4
f 95/2/4 94/2/4 96/2/4
f 97/3/4 98/3/4 99/3/4
f 99/3/4 98/3/4 100/3/4
f 97/3/4 99/3/4 101/3/4
f 100/3/4 98/3/4 102/3/4
f 97/3/4 101/3/4 103/3/4
f 101/3/4 102/3/4 103/3/4
f 102/3/4 98/3/4 104/3/4
f 103/3/4 102/3/4 104/3/4
f 107/3/5 106/3/5 105/3/5
f 108/3/5 106/3/5 107/3/5
f 109/3/5 107/3/5 105/3/5
f 109/2/5 108/2/5 107/2/5
f 110/3/5 106/3/5 108/3/5
f 110/2/5 108/2/5 109/2/5
f 111/3/5 109/3/5 105/3/5
f 111/3/5 110/3/5 109/3/5
f 112/3/5 106/3/5 110/3/5
f 112/3/5 110/3/5 111/3/5
f 116/3/5 114/3/5 113/3/5
f 117/3/5 114/3/5 116/3/5
f 119/3/5 116/3/5 115/3/5
f 120/3/5 116/3/5 119/3/5
f 121/3/5 118/3/5 117/3/5
f 122/3/5 118/3/5 121/3/5
f 123/3/5 121/3/5 120/3/5
f 124/3/5 121/3/5 123/3/5
f 125/3/6 126/3/6 128/3/6
f 128/3/6 126/3/6 129/3/6
f 127/3/6 128/3/6 131/3/6
f 131/3/6 128/3/6 132/3/6
f 129/3/6 130/3/6 133/3/6
f 133/3/6 130/3/6 134/3/6
f 132/3/6 133/3/6 135/3/6
f 135/3/6 133/3/6 136/3/6
f 137/2/6 138/2/6 139/2/6
f 139/2/6 138/2/6 140/2/6
f 137/2/6 139/2/6 141/2/6
f 139/1/6 140/1/6 141/1/6
f 140/2/6 138/2/6 142/2/6
f 141/1/6 140/1/6 142/1/6
f 137/2/6 141/2/6 143/2/6
f 141/2/6 142/2/6 143/2/6
f 142/2/6 138/2/6 144/2/6
f 143/2/6 142/2/6 144/2/6
f 145/3/6 146/3/6 147/3/6
f 147/3/6 146/3/6 148/3/6
f 145/3/6 147/3/6 149/3/6
f 148/3/6 146/3/6 150/3/6
f 145/3/6 149/3/6 151/3/6
f 149/3/6 150/3/6 151/3/6
f 150/3/6 146/3/6 152/3/6
f 151/3/6 150/3/6 152/3/6
